<?xml version="1.0" encoding="UTF-8" standalone="no"?>
<!DOCTYPE svg PUBLIC "-//W3C//DTD SVG 1.1//EN"
 "http://www.w3.org/Graphics/SVG/1.1/DTD/svg11.dtd">
<!-- Generated by graphviz version 7.0.5 (20221223.1930)
 -->
<!-- Title: libs/dolphin/os/__ppc_eabi_init.cpp Pages: 1 -->
<svg width="210pt" height="203pt"
 viewBox="0.00 0.00 209.50 203.00" xmlns="http://www.w3.org/2000/svg" xmlns:xlink="http://www.w3.org/1999/xlink">
<g id="graph0" class="graph" transform="scale(1 1) rotate(0) translate(4 199)">
<title>libs/dolphin/os/__ppc_eabi_init.cpp</title>
<!-- Node1 -->
<g id="node1" class="node">
<title>Node1</title>
<g id="a_node1"><a xlink:title=" ">
<polygon fill="#999999" stroke="#666666" points="139.5,-195 31.5,-195 31.5,-165 139.5,-165 139.5,-195"/>
<text text-anchor="start" x="39.5" y="-183" font-family="Helvetica,sans-Serif" font-size="10.00">libs/dolphin/os/__ppc</text>
<text text-anchor="middle" x="85.5" y="-172" font-family="Helvetica,sans-Serif" font-size="10.00">_eabi_init.cpp</text>
</a>
</g>
</g>
<!-- Node2 -->
<g id="node2" class="node">
<title>Node2</title>
<g id="a_node2"><a xlink:href="dol2asm_8h.html" target="_top" xlink:title=" ">
<polygon fill="white" stroke="#666666" points="61,-129 0,-129 0,-110 61,-110 61,-129"/>
<text text-anchor="middle" x="30.5" y="-117" font-family="Helvetica,sans-Serif" font-size="10.00">dol2asm.h</text>
</a>
</g>
</g>
<!-- Node1&#45;&gt;Node2 -->
<g id="edge1" class="edge">
<title>Node1&#45;&gt;Node2</title>
<path fill="none" stroke="#63b8ff" d="M71.9,-164.54C64.16,-156.3 54.42,-145.94 46.33,-137.34"/>
<polygon fill="#63b8ff" stroke="#63b8ff" points="49.09,-135.17 39.69,-130.28 43.99,-139.96 49.09,-135.17"/>
</g>
<!-- Node3 -->
<g id="node3" class="node">
<title>Node3</title>
<g id="a_node3"><a xlink:href="PPCArch_8h.html" target="_top" xlink:title=" ">
<polygon fill="white" stroke="#666666" points="201.5,-129 79.5,-129 79.5,-110 201.5,-110 201.5,-129"/>
<text text-anchor="middle" x="140.5" y="-117" font-family="Helvetica,sans-Serif" font-size="10.00">dolphin/base/PPCArch.h</text>
</a>
</g>
</g>
<!-- Node1&#45;&gt;Node3 -->
<g id="edge2" class="edge">
<title>Node1&#45;&gt;Node3</title>
<path fill="none" stroke="#63b8ff" d="M99.1,-164.54C106.84,-156.3 116.58,-145.94 124.67,-137.34"/>
<polygon fill="#63b8ff" stroke="#63b8ff" points="127.01,-139.96 131.31,-130.28 121.91,-135.17 127.01,-139.96"/>
</g>
<!-- Node4 -->
<g id="node4" class="node">
<title>Node4</title>
<g id="a_node4"><a xlink:href="types_8h.html" target="_top" xlink:title=" ">
<polygon fill="white" stroke="#666666" points="181,-74 100,-74 100,-55 181,-55 181,-74"/>
<text text-anchor="middle" x="140.5" y="-62" font-family="Helvetica,sans-Serif" font-size="10.00">dolphin/types.h</text>
</a>
</g>
</g>
<!-- Node3&#45;&gt;Node4 -->
<g id="edge3" class="edge">
<title>Node3&#45;&gt;Node4</title>
<path fill="none" stroke="#63b8ff" d="M140.5,-109.75C140.5,-103.27 140.5,-94.16 140.5,-85.9"/>
<polygon fill="#63b8ff" stroke="#63b8ff" points="144,-85.96 140.5,-75.96 137,-85.96 144,-85.96"/>
</g>
<!-- Node5 -->
<g id="node5" class="node">
<title>Node5</title>
<g id="a_node5"><a xlink:href="stddef_8h.html" target="_top" xlink:title=" ">
<polygon fill="white" stroke="#666666" points="166,-19 115,-19 115,0 166,0 166,-19"/>
<text text-anchor="middle" x="140.5" y="-7" font-family="Helvetica,sans-Serif" font-size="10.00">stddef.h</text>
</a>
</g>
</g>
<!-- Node4&#45;&gt;Node5 -->
<g id="edge4" class="edge">
<title>Node4&#45;&gt;Node5</title>
<path fill="none" stroke="#63b8ff" d="M140.5,-54.75C140.5,-48.27 140.5,-39.16 140.5,-30.9"/>
<polygon fill="#63b8ff" stroke="#63b8ff" points="144,-30.96 140.5,-20.96 137,-30.96 144,-30.96"/>
</g>
</g>
</svg>
