<?xml version="1.0" encoding="UTF-8" standalone="no"?>
<!DOCTYPE svg PUBLIC "-//W3C//DTD SVG 1.1//EN"
 "http://www.w3.org/Graphics/SVG/1.1/DTD/svg11.dtd">
<!-- Generated by graphviz version 2.47.0 (20210316.2052)
 -->
<!-- Title: include/SComponent/c_angle.h Pages: 1 -->
<svg width="5762pt" height="307pt"
 viewBox="0.00 0.00 5762.00 307.00" xmlns="http://www.w3.org/2000/svg" xmlns:xlink="http://www.w3.org/1999/xlink">
<g id="graph0" class="graph" transform="scale(1 1) rotate(0) translate(4 303)">
<title>include/SComponent/c_angle.h</title>
<polygon fill="white" stroke="transparent" points="-4,4 -4,-303 5758,-303 5758,4 -4,4"/>
<!-- Node1 -->
<g id="node1" class="node">
<title>Node1</title>
<g id="a_node1"><a xlink:title=" ">
<polygon fill="#bfbfbf" stroke="black" points="2469,-268.5 2469,-298.5 2576,-298.5 2576,-268.5 2469,-268.5"/>
<text text-anchor="start" x="2477" y="-286.5" font-family="Helvetica,sans-Serif" font-size="10.00">include/SComponent</text>
<text text-anchor="middle" x="2522.5" y="-275.5" font-family="Helvetica,sans-Serif" font-size="10.00">/c_angle.h</text>
</a>
</g>
</g>
<!-- Node2 -->
<g id="node2" class="node">
<title>Node2</title>
<g id="a_node2"><a xlink:href="c__angle_8cpp.html" target="_top" xlink:title=" ">
<polygon fill="white" stroke="black" points="2386.5,-201.5 2386.5,-231.5 2520.5,-231.5 2520.5,-201.5 2386.5,-201.5"/>
<text text-anchor="start" x="2394.5" y="-219.5" font-family="Helvetica,sans-Serif" font-size="10.00">libs/SSystem/SComponent</text>
<text text-anchor="middle" x="2453.5" y="-208.5" font-family="Helvetica,sans-Serif" font-size="10.00">/c_angle.cpp</text>
</a>
</g>
</g>
<!-- Node1&#45;&gt;Node2 -->
<g id="edge1" class="edge">
<title>Node1&#45;&gt;Node2</title>
<path fill="none" stroke="midnightblue" d="M2500.01,-261.31C2489.66,-251.56 2477.66,-240.26 2468.44,-231.58"/>
<polygon fill="midnightblue" stroke="midnightblue" points="2497.85,-264.09 2507.53,-268.4 2502.65,-258.99 2497.85,-264.09"/>
</g>
<!-- Node3 -->
<g id="node3" class="node">
<title>Node3</title>
<g id="a_node3"><a xlink:href="d__attention_8h.html" target="_top" xlink:title=" ">
<polygon fill="white" stroke="black" points="2539,-201.5 2539,-231.5 2646,-231.5 2646,-201.5 2539,-201.5"/>
<text text-anchor="start" x="2547" y="-219.5" font-family="Helvetica,sans-Serif" font-size="10.00">include/d/d_attention</text>
<text text-anchor="middle" x="2592.5" y="-208.5" font-family="Helvetica,sans-Serif" font-size="10.00">/d_attention.h</text>
</a>
</g>
</g>
<!-- Node1&#45;&gt;Node3 -->
<g id="edge2" class="edge">
<title>Node1&#45;&gt;Node3</title>
<path fill="none" stroke="midnightblue" d="M2545.32,-261.31C2555.82,-251.56 2567.99,-240.26 2577.34,-231.58"/>
<polygon fill="midnightblue" stroke="midnightblue" points="2542.64,-259.03 2537.69,-268.4 2547.4,-264.16 2542.64,-259.03"/>
</g>
<!-- Node4 -->
<g id="node4" class="node">
<title>Node4</title>
<g id="a_node4"><a xlink:href="d__com__inf__game_8h.html" target="_top" xlink:title=" ">
<polygon fill="white" stroke="black" points="2519.5,-134.5 2519.5,-164.5 2665.5,-164.5 2665.5,-134.5 2519.5,-134.5"/>
<text text-anchor="start" x="2527.5" y="-152.5" font-family="Helvetica,sans-Serif" font-size="10.00">include/d/d_com/d_com</text>
<text text-anchor="middle" x="2592.5" y="-141.5" font-family="Helvetica,sans-Serif" font-size="10.00">_inf_game/d_com_inf_game.h</text>
</a>
</g>
</g>
<!-- Node3&#45;&gt;Node4 -->
<g id="edge3" class="edge">
<title>Node3&#45;&gt;Node4</title>
<path fill="none" stroke="midnightblue" d="M2592.5,-191.11C2592.5,-182.15 2592.5,-172.32 2592.5,-164.58"/>
<polygon fill="midnightblue" stroke="midnightblue" points="2589,-191.4 2592.5,-201.4 2596,-191.4 2589,-191.4"/>
</g>
<!-- Node5 -->
<g id="node5" class="node">
<title>Node5</title>
<g id="a_node5"><a xlink:href="d__attention_8cpp.html" target="_top" xlink:title=" ">
<polygon fill="white" stroke="black" points="0,-6 0,-25 107,-25 107,-6 0,-6"/>
<text text-anchor="middle" x="53.5" y="-13" font-family="Helvetica,sans-Serif" font-size="10.00">src/d/d_attention.cpp</text>
</a>
</g>
</g>
<!-- Node4&#45;&gt;Node5 -->
<g id="edge4" class="edge">
<title>Node4&#45;&gt;Node5</title>
<path fill="none" stroke="midnightblue" d="M2509.08,-148.83C2089.37,-150.24 224.34,-153.34 115.5,-98 84.44,-82.21 64.6,-42.82 57,-25.23"/>
<polygon fill="midnightblue" stroke="midnightblue" points="2509.33,-152.33 2519.31,-148.8 2509.3,-145.33 2509.33,-152.33"/>
</g>
<!-- Node6 -->
<g id="node6" class="node">
<title>Node6</title>
<g id="a_node6"><a xlink:href="d__camera_8cpp.html" target="_top" xlink:title=" ">
<polygon fill="white" stroke="black" points="949.5,-73 949.5,-92 1051.5,-92 1051.5,-73 949.5,-73"/>
<text text-anchor="middle" x="1000.5" y="-80" font-family="Helvetica,sans-Serif" font-size="10.00">src/d/d_camera.cpp</text>
</a>
</g>
</g>
<!-- Node4&#45;&gt;Node6 -->
<g id="edge5" class="edge">
<title>Node4&#45;&gt;Node6</title>
<path fill="none" stroke="midnightblue" d="M2508.78,-147.79C2232.02,-145.11 1348.19,-133.89 1065.5,-98 1054.83,-96.65 1043.34,-94.36 1033.02,-92"/>
<polygon fill="midnightblue" stroke="midnightblue" points="2509.12,-151.29 2519.15,-147.89 2509.18,-144.29 2509.12,-151.29"/>
</g>
<!-- Node7 -->
<g id="node7" class="node">
<title>Node7</title>
<g id="a_node7"><a xlink:href="d__com__inf__game_8cpp.html" target="_top" xlink:title=" ">
<polygon fill="white" stroke="black" points="1065,-0.5 1065,-30.5 1184,-30.5 1184,-0.5 1065,-0.5"/>
<text text-anchor="start" x="1073" y="-18.5" font-family="Helvetica,sans-Serif" font-size="10.00">src/d/d_com/d_com_inf</text>
<text text-anchor="middle" x="1124.5" y="-7.5" font-family="Helvetica,sans-Serif" font-size="10.00">_game.cpp</text>
</a>
</g>
</g>
<!-- Node4&#45;&gt;Node7 -->
<g id="edge6" class="edge">
<title>Node4&#45;&gt;Node7</title>
<path fill="none" stroke="midnightblue" d="M2508.97,-148.85C2201.47,-149.72 1147.77,-148.97 1098.5,-98 1080.54,-79.42 1099,-48.45 1112.68,-30.51"/>
<polygon fill="midnightblue" stroke="midnightblue" points="2509.16,-152.35 2519.15,-148.82 2509.14,-145.35 2509.16,-152.35"/>
</g>
<!-- Node8 -->
<g id="node8" class="node">
<title>Node8</title>
<g id="a_node8"><a xlink:href="d__file__sel__info_8cpp.html" target="_top" xlink:title=" ">
<polygon fill="white" stroke="black" points="1298,-67.5 1298,-97.5 1387,-97.5 1387,-67.5 1298,-67.5"/>
<text text-anchor="start" x="1306" y="-85.5" font-family="Helvetica,sans-Serif" font-size="10.00">src/d/d_file/d_file</text>
<text text-anchor="middle" x="1342.5" y="-74.5" font-family="Helvetica,sans-Serif" font-size="10.00">_sel_info.cpp</text>
</a>
</g>
</g>
<!-- Node4&#45;&gt;Node8 -->
<g id="edge7" class="edge">
<title>Node4&#45;&gt;Node8</title>
<path fill="none" stroke="midnightblue" d="M2508.96,-147.36C2274.15,-143.79 1611.43,-130.98 1396.5,-98 1393.43,-97.53 1390.28,-96.95 1387.13,-96.29"/>
<polygon fill="midnightblue" stroke="midnightblue" points="2509.09,-150.87 2519.15,-147.52 2509.2,-143.87 2509.09,-150.87"/>
</g>
<!-- Node9 -->
<g id="node9" class="node">
<title>Node9</title>
<g id="a_node9"><a xlink:href="d__item_8cpp.html" target="_top" xlink:title=" ">
<polygon fill="white" stroke="black" points="1202,-6 1202,-25 1323,-25 1323,-6 1202,-6"/>
<text text-anchor="middle" x="1262.5" y="-13" font-family="Helvetica,sans-Serif" font-size="10.00">src/d/d_item/d_item.cpp</text>
</a>
</g>
</g>
<!-- Node4&#45;&gt;Node9 -->
<g id="edge8" class="edge">
<title>Node4&#45;&gt;Node9</title>
<path fill="none" stroke="midnightblue" d="M2508.98,-148.14C2226.84,-146.56 1324.1,-138.35 1277.5,-98 1256.29,-79.64 1258.69,-41.96 1261.04,-25.05"/>
<polygon fill="midnightblue" stroke="midnightblue" points="2509.13,-151.64 2519.15,-148.2 2509.17,-144.64 2509.13,-151.64"/>
</g>
<!-- Node10 -->
<g id="node10" class="node">
<title>Node10</title>
<g id="a_node10"><a xlink:href="d__kankyo__rain_8cpp.html" target="_top" xlink:title=" ">
<polygon fill="white" stroke="black" points="1405,-67.5 1405,-97.5 1532,-97.5 1532,-67.5 1405,-67.5"/>
<text text-anchor="start" x="1413" y="-85.5" font-family="Helvetica,sans-Serif" font-size="10.00">src/d/d_kankyo/d_kankyo</text>
<text text-anchor="middle" x="1468.5" y="-74.5" font-family="Helvetica,sans-Serif" font-size="10.00">_rain.cpp</text>
</a>
</g>
</g>
<!-- Node4&#45;&gt;Node10 -->
<g id="edge9" class="edge">
<title>Node4&#45;&gt;Node10</title>
<path fill="none" stroke="midnightblue" d="M2509.14,-148.68C2330.88,-148.13 1899.67,-141.93 1541.5,-98 1538.42,-97.62 1535.28,-97.19 1532.11,-96.71"/>
<polygon fill="midnightblue" stroke="midnightblue" points="2509.23,-152.18 2519.24,-148.7 2509.25,-145.18 2509.23,-152.18"/>
</g>
<!-- Node11 -->
<g id="node11" class="node">
<title>Node11</title>
<g id="a_node11"><a xlink:href="d__kankyo__wether_8cpp.html" target="_top" xlink:title=" ">
<polygon fill="white" stroke="black" points="1550,-67.5 1550,-97.5 1677,-97.5 1677,-67.5 1550,-67.5"/>
<text text-anchor="start" x="1558" y="-85.5" font-family="Helvetica,sans-Serif" font-size="10.00">src/d/d_kankyo/d_kankyo</text>
<text text-anchor="middle" x="1613.5" y="-74.5" font-family="Helvetica,sans-Serif" font-size="10.00">_wether.cpp</text>
</a>
</g>
</g>
<!-- Node4&#45;&gt;Node11 -->
<g id="edge10" class="edge">
<title>Node4&#45;&gt;Node11</title>
<path fill="none" stroke="midnightblue" d="M2509.12,-147.76C2349.04,-145.47 1987.78,-136.13 1686.5,-98 1683.42,-97.61 1680.28,-97.17 1677.12,-96.68"/>
<polygon fill="midnightblue" stroke="midnightblue" points="2509.33,-151.26 2519.37,-147.9 2509.42,-144.26 2509.33,-151.26"/>
</g>
<!-- Node12 -->
<g id="node12" class="node">
<title>Node12</title>
<g id="a_node12"><a xlink:href="d__kankyo_8cpp.html" target="_top" xlink:title=" ">
<polygon fill="white" stroke="black" points="1695,-73 1695,-92 1796,-92 1796,-73 1695,-73"/>
<text text-anchor="middle" x="1745.5" y="-80" font-family="Helvetica,sans-Serif" font-size="10.00">src/d/d_kankyo.cpp</text>
</a>
</g>
</g>
<!-- Node4&#45;&gt;Node12 -->
<g id="edge11" class="edge">
<title>Node4&#45;&gt;Node12</title>
<path fill="none" stroke="midnightblue" d="M2509.25,-147.88C2365.09,-145.75 2059.97,-136.62 1805.5,-98 1795.96,-96.55 1785.72,-94.33 1776.44,-92.06"/>
<polygon fill="midnightblue" stroke="midnightblue" points="2509.31,-151.38 2519.35,-148.02 2509.4,-144.38 2509.31,-151.38"/>
</g>
<!-- Node13 -->
<g id="node13" class="node">
<title>Node13</title>
<g id="a_node13"><a xlink:href="d__kantera__icon__meter_8cpp.html" target="_top" xlink:title=" ">
<polygon fill="white" stroke="black" points="1814,-67.5 1814,-97.5 1921,-97.5 1921,-67.5 1814,-67.5"/>
<text text-anchor="start" x="1822" y="-85.5" font-family="Helvetica,sans-Serif" font-size="10.00">src/d/d_kantera_icon</text>
<text text-anchor="middle" x="1867.5" y="-74.5" font-family="Helvetica,sans-Serif" font-size="10.00">_meter.cpp</text>
</a>
</g>
</g>
<!-- Node4&#45;&gt;Node13 -->
<g id="edge12" class="edge">
<title>Node4&#45;&gt;Node13</title>
<path fill="none" stroke="midnightblue" d="M2508.77,-146.14C2382.7,-141.68 2136.93,-129.45 1930.5,-98 1927.39,-97.53 1924.21,-96.98 1921.01,-96.39"/>
<polygon fill="midnightblue" stroke="midnightblue" points="2509,-149.65 2519.11,-146.5 2509.24,-142.65 2509,-149.65"/>
</g>
<!-- Node14 -->
<g id="node14" class="node">
<title>Node14</title>
<g id="a_node14"><a xlink:href="d__kyeff_8cpp.html" target="_top" xlink:title=" ">
<polygon fill="white" stroke="black" points="1939,-73 1939,-92 2052,-92 2052,-73 1939,-73"/>
<text text-anchor="middle" x="1995.5" y="-80" font-family="Helvetica,sans-Serif" font-size="10.00">src/d/d_ky/d_kyeff.cpp</text>
</a>
</g>
</g>
<!-- Node4&#45;&gt;Node14 -->
<g id="edge13" class="edge">
<title>Node4&#45;&gt;Node14</title>
<path fill="none" stroke="midnightblue" d="M2508.93,-143.7C2403.99,-136.95 2218.65,-122.64 2061.5,-98 2051.42,-96.42 2040.56,-94.24 2030.63,-92.05"/>
<polygon fill="midnightblue" stroke="midnightblue" points="2508.94,-147.21 2519.14,-144.35 2509.38,-140.22 2508.94,-147.21"/>
</g>
<!-- Node15 -->
<g id="node15" class="node">
<title>Node15</title>
<g id="a_node15"><a xlink:href="d__meter__button_8cpp.html" target="_top" xlink:title=" ">
<polygon fill="white" stroke="black" points="2070,-67.5 2070,-97.5 2185,-97.5 2185,-67.5 2070,-67.5"/>
<text text-anchor="start" x="2078" y="-85.5" font-family="Helvetica,sans-Serif" font-size="10.00">src/d/d_meter/d_meter</text>
<text text-anchor="middle" x="2127.5" y="-74.5" font-family="Helvetica,sans-Serif" font-size="10.00">_button.cpp</text>
</a>
</g>
</g>
<!-- Node4&#45;&gt;Node15 -->
<g id="edge14" class="edge">
<title>Node4&#45;&gt;Node15</title>
<path fill="none" stroke="midnightblue" d="M2509.12,-140.05C2428.38,-131.37 2302.63,-116.53 2194.5,-98 2191.45,-97.48 2188.33,-96.91 2185.18,-96.32"/>
<polygon fill="midnightblue" stroke="midnightblue" points="2508.91,-143.55 2519.23,-141.13 2509.66,-136.59 2508.91,-143.55"/>
</g>
<!-- Node16 -->
<g id="node16" class="node">
<title>Node16</title>
<g id="a_node16"><a xlink:href="d__meter__haihai_8cpp.html" target="_top" xlink:title=" ">
<polygon fill="white" stroke="black" points="2203,-67.5 2203,-97.5 2318,-97.5 2318,-67.5 2203,-67.5"/>
<text text-anchor="start" x="2211" y="-85.5" font-family="Helvetica,sans-Serif" font-size="10.00">src/d/d_meter/d_meter</text>
<text text-anchor="middle" x="2260.5" y="-74.5" font-family="Helvetica,sans-Serif" font-size="10.00">_haihai.cpp</text>
</a>
</g>
</g>
<!-- Node4&#45;&gt;Node16 -->
<g id="edge15" class="edge">
<title>Node4&#45;&gt;Node16</title>
<path fill="none" stroke="midnightblue" d="M2509.4,-133.21C2457.12,-123.46 2388.29,-110.37 2327.5,-98 2324.47,-97.38 2321.36,-96.74 2318.22,-96.09"/>
<polygon fill="midnightblue" stroke="midnightblue" points="2508.82,-136.66 2519.29,-135.05 2510.1,-129.78 2508.82,-136.66"/>
</g>
<!-- Node17 -->
<g id="node17" class="node">
<title>Node17</title>
<g id="a_node17"><a xlink:href="d__meter__hakusha_8cpp.html" target="_top" xlink:title=" ">
<polygon fill="white" stroke="black" points="2336,-67.5 2336,-97.5 2451,-97.5 2451,-67.5 2336,-67.5"/>
<text text-anchor="start" x="2344" y="-85.5" font-family="Helvetica,sans-Serif" font-size="10.00">src/d/d_meter/d_meter</text>
<text text-anchor="middle" x="2393.5" y="-74.5" font-family="Helvetica,sans-Serif" font-size="10.00">_hakusha.cpp</text>
</a>
</g>
</g>
<!-- Node4&#45;&gt;Node17 -->
<g id="edge16" class="edge">
<title>Node4&#45;&gt;Node17</title>
<path fill="none" stroke="midnightblue" d="M2539.62,-131.23C2507.43,-120.71 2466.83,-107.45 2436.6,-97.58"/>
<polygon fill="midnightblue" stroke="midnightblue" points="2538.73,-134.62 2549.32,-134.4 2540.9,-127.96 2538.73,-134.62"/>
</g>
<!-- Node18 -->
<g id="node18" class="node">
<title>Node18</title>
<g id="a_node18"><a xlink:href="d__meter__map_8cpp.html" target="_top" xlink:title=" ">
<polygon fill="white" stroke="black" points="2469,-67.5 2469,-97.5 2584,-97.5 2584,-67.5 2469,-67.5"/>
<text text-anchor="start" x="2477" y="-85.5" font-family="Helvetica,sans-Serif" font-size="10.00">src/d/d_meter/d_meter</text>
<text text-anchor="middle" x="2526.5" y="-74.5" font-family="Helvetica,sans-Serif" font-size="10.00">_map.cpp</text>
</a>
</g>
</g>
<!-- Node4&#45;&gt;Node18 -->
<g id="edge17" class="edge">
<title>Node4&#45;&gt;Node18</title>
<path fill="none" stroke="midnightblue" d="M2570.99,-127.31C2561.09,-117.56 2549.61,-106.26 2540.79,-97.58"/>
<polygon fill="midnightblue" stroke="midnightblue" points="2568.6,-129.87 2578.18,-134.4 2573.51,-124.89 2568.6,-129.87"/>
</g>
<!-- Node19 -->
<g id="node19" class="node">
<title>Node19</title>
<g id="a_node19"><a xlink:href="d__meter__string_8cpp.html" target="_top" xlink:title=" ">
<polygon fill="white" stroke="black" points="2602,-67.5 2602,-97.5 2717,-97.5 2717,-67.5 2602,-67.5"/>
<text text-anchor="start" x="2610" y="-85.5" font-family="Helvetica,sans-Serif" font-size="10.00">src/d/d_meter/d_meter</text>
<text text-anchor="middle" x="2659.5" y="-74.5" font-family="Helvetica,sans-Serif" font-size="10.00">_string.cpp</text>
</a>
</g>
</g>
<!-- Node4&#45;&gt;Node19 -->
<g id="edge18" class="edge">
<title>Node4&#45;&gt;Node19</title>
<path fill="none" stroke="midnightblue" d="M2614.34,-127.31C2624.39,-117.56 2636.04,-106.26 2644.99,-97.58"/>
<polygon fill="midnightblue" stroke="midnightblue" points="2611.78,-124.92 2607.04,-134.4 2616.65,-129.94 2611.78,-124.92"/>
</g>
<!-- Node20 -->
<g id="node20" class="node">
<title>Node20</title>
<g id="a_node20"><a xlink:href="d__meter2__draw_8cpp.html" target="_top" xlink:title=" ">
<polygon fill="white" stroke="black" points="2735,-67.5 2735,-97.5 2860,-97.5 2860,-67.5 2735,-67.5"/>
<text text-anchor="start" x="2743" y="-85.5" font-family="Helvetica,sans-Serif" font-size="10.00">src/d/d_meter2/d_meter2</text>
<text text-anchor="middle" x="2797.5" y="-74.5" font-family="Helvetica,sans-Serif" font-size="10.00">_draw.cpp</text>
</a>
</g>
</g>
<!-- Node4&#45;&gt;Node20 -->
<g id="edge19" class="edge">
<title>Node4&#45;&gt;Node20</title>
<path fill="none" stroke="midnightblue" d="M2646.29,-131.44C2679.52,-120.91 2721.65,-107.55 2753,-97.61"/>
<polygon fill="midnightblue" stroke="midnightblue" points="2645.2,-128.12 2636.73,-134.48 2647.32,-134.79 2645.2,-128.12"/>
</g>
<!-- Node21 -->
<g id="node21" class="node">
<title>Node21</title>
<g id="a_node21"><a xlink:href="d__meter2__info_8cpp.html" target="_top" xlink:title=" ">
<polygon fill="white" stroke="black" points="2878,-67.5 2878,-97.5 3003,-97.5 3003,-67.5 2878,-67.5"/>
<text text-anchor="start" x="2886" y="-85.5" font-family="Helvetica,sans-Serif" font-size="10.00">src/d/d_meter2/d_meter2</text>
<text text-anchor="middle" x="2940.5" y="-74.5" font-family="Helvetica,sans-Serif" font-size="10.00">_info.cpp</text>
</a>
</g>
</g>
<!-- Node4&#45;&gt;Node21 -->
<g id="edge20" class="edge">
<title>Node4&#45;&gt;Node21</title>
<path fill="none" stroke="midnightblue" d="M2675.83,-133.78C2730.86,-123.94 2804.55,-110.55 2869.5,-98 2872.22,-97.47 2874.99,-96.93 2877.79,-96.38"/>
<polygon fill="midnightblue" stroke="midnightblue" points="2675,-130.37 2665.77,-135.58 2676.23,-137.27 2675,-130.37"/>
</g>
<!-- Node22 -->
<g id="node22" class="node">
<title>Node22</title>
<g id="a_node22"><a xlink:href="d__meter2_8cpp.html" target="_top" xlink:title=" ">
<polygon fill="white" stroke="black" points="3021.5,-73 3021.5,-92 3121.5,-92 3121.5,-73 3021.5,-73"/>
<text text-anchor="middle" x="3071.5" y="-80" font-family="Helvetica,sans-Serif" font-size="10.00">src/d/d_meter2.cpp</text>
</a>
</g>
</g>
<!-- Node4&#45;&gt;Node22 -->
<g id="edge21" class="edge">
<title>Node4&#45;&gt;Node22</title>
<path fill="none" stroke="midnightblue" d="M2675.86,-141.48C2760.93,-133.62 2896.55,-119.14 3012.5,-98 3021.42,-96.37 3031.01,-94.2 3039.81,-92.04"/>
<polygon fill="midnightblue" stroke="midnightblue" points="2675.38,-138.01 2665.74,-142.41 2676.02,-144.98 2675.38,-138.01"/>
</g>
<!-- Node23 -->
<g id="node23" class="node">
<title>Node23</title>
<g id="a_node23"><a xlink:href="d__save_8cpp.html" target="_top" xlink:title=" ">
<polygon fill="white" stroke="black" points="3140,-73 3140,-92 3265,-92 3265,-73 3140,-73"/>
<text text-anchor="middle" x="3202.5" y="-80" font-family="Helvetica,sans-Serif" font-size="10.00">src/d/d_save/d_save.cpp</text>
</a>
</g>
</g>
<!-- Node4&#45;&gt;Node23 -->
<g id="edge22" class="edge">
<title>Node4&#45;&gt;Node23</title>
<path fill="none" stroke="midnightblue" d="M2675.89,-143.4C2781.92,-136.29 2970.46,-121.56 3130.5,-98 3141.48,-96.38 3153.31,-94.19 3164.14,-92"/>
<polygon fill="midnightblue" stroke="midnightblue" points="2675.63,-139.91 2665.89,-144.07 2676.1,-146.9 2675.63,-139.91"/>
</g>
<!-- Node24 -->
<g id="node24" class="node">
<title>Node24</title>
<g id="a_node24"><a xlink:href="d__save__HIO_8cpp.html" target="_top" xlink:title=" ">
<polygon fill="white" stroke="black" points="3283,-67.5 3283,-97.5 3390,-97.5 3390,-67.5 3283,-67.5"/>
<text text-anchor="start" x="3291" y="-85.5" font-family="Helvetica,sans-Serif" font-size="10.00">src/d/d_save/d_save</text>
<text text-anchor="middle" x="3336.5" y="-74.5" font-family="Helvetica,sans-Serif" font-size="10.00">_HIO.cpp</text>
</a>
</g>
</g>
<!-- Node4&#45;&gt;Node24 -->
<g id="edge23" class="edge">
<title>Node4&#45;&gt;Node24</title>
<path fill="none" stroke="midnightblue" d="M2675.79,-146.51C2804.75,-142.49 3060.25,-130.78 3274.5,-98 3277.23,-97.58 3280.02,-97.11 3282.83,-96.59"/>
<polygon fill="midnightblue" stroke="midnightblue" points="2675.48,-143.02 2665.59,-146.82 2675.69,-150.01 2675.48,-143.02"/>
</g>
<!-- Node25 -->
<g id="node25" class="node">
<title>Node25</title>
<g id="a_node25"><a xlink:href="d__stage_8cpp.html" target="_top" xlink:title=" ">
<polygon fill="white" stroke="black" points="3408.5,-73 3408.5,-92 3502.5,-92 3502.5,-73 3408.5,-73"/>
<text text-anchor="middle" x="3455.5" y="-80" font-family="Helvetica,sans-Serif" font-size="10.00">src/d/d_stage.cpp</text>
</a>
</g>
</g>
<!-- Node4&#45;&gt;Node25 -->
<g id="edge24" class="edge">
<title>Node4&#45;&gt;Node25</title>
<path fill="none" stroke="midnightblue" d="M2675.92,-148.51C2823.01,-147.35 3137.7,-139.69 3399.5,-98 3408.53,-96.56 3418.21,-94.32 3426.95,-92.01"/>
<polygon fill="midnightblue" stroke="midnightblue" points="2675.6,-145.01 2665.62,-148.58 2675.65,-152.01 2675.6,-145.01"/>
</g>
<!-- Node26 -->
<g id="node26" class="node">
<title>Node26</title>
<g id="a_node26"><a xlink:href="f__op__actor__mng_8cpp.html" target="_top" xlink:title=" ">
<polygon fill="white" stroke="black" points="1341,-0.5 1341,-30.5 1448,-30.5 1448,-0.5 1341,-0.5"/>
<text text-anchor="start" x="1349" y="-18.5" font-family="Helvetica,sans-Serif" font-size="10.00">src/f/f_op/f_op_actor</text>
<text text-anchor="middle" x="1394.5" y="-7.5" font-family="Helvetica,sans-Serif" font-size="10.00">_mng.cpp</text>
</a>
</g>
</g>
<!-- Node4&#45;&gt;Node26 -->
<g id="edge25" class="edge">
<title>Node4&#45;&gt;Node26</title>
<path fill="none" stroke="midnightblue" d="M2508.98,-148.41C2227.95,-147.7 1331.82,-141.99 1289.5,-98 1263.66,-71.14 1312.21,-45.74 1351.58,-30.64"/>
<polygon fill="midnightblue" stroke="midnightblue" points="2509.1,-151.91 2519.11,-148.43 2509.12,-144.91 2509.1,-151.91"/>
</g>
<!-- Node27 -->
<g id="node27" class="node">
<title>Node27</title>
<g id="a_node27"><a xlink:href="f__op__camera_8cpp.html" target="_top" xlink:title=" ">
<polygon fill="white" stroke="black" points="3521,-73 3521,-92 3656,-92 3656,-73 3521,-73"/>
<text text-anchor="middle" x="3588.5" y="-80" font-family="Helvetica,sans-Serif" font-size="10.00">src/f/f_op/f_op_camera.cpp</text>
</a>
</g>
</g>
<!-- Node4&#45;&gt;Node27 -->
<g id="edge26" class="edge">
<title>Node4&#45;&gt;Node27</title>
<path fill="none" stroke="midnightblue" d="M2676.11,-147.57C2837.97,-144.96 3205.13,-135.1 3511.5,-98 3523.65,-96.53 3536.78,-94.3 3548.69,-92.03"/>
<polygon fill="midnightblue" stroke="midnightblue" points="2675.7,-144.08 2665.75,-147.73 2675.81,-151.08 2675.7,-144.08"/>
</g>
<!-- Node28 -->
<g id="node28" class="node">
<title>Node28</title>
<g id="a_node28"><a xlink:href="f__op__kankyo__mng_8cpp.html" target="_top" xlink:title=" ">
<polygon fill="white" stroke="black" points="262.5,-0.5 262.5,-30.5 378.5,-30.5 378.5,-0.5 262.5,-0.5"/>
<text text-anchor="start" x="270.5" y="-18.5" font-family="Helvetica,sans-Serif" font-size="10.00">src/f/f_op/f_op_kankyo</text>
<text text-anchor="middle" x="320.5" y="-7.5" font-family="Helvetica,sans-Serif" font-size="10.00">_mng.cpp</text>
</a>
</g>
</g>
<!-- Node4&#45;&gt;Node28 -->
<g id="edge27" class="edge">
<title>Node4&#45;&gt;Node28</title>
<path fill="none" stroke="midnightblue" d="M2509.18,-148.34C2145.65,-147.41 707.75,-141.02 510.5,-98 447.9,-84.35 380.23,-50.11 344.99,-30.63"/>
<polygon fill="midnightblue" stroke="midnightblue" points="2509.35,-151.84 2519.36,-148.37 2509.37,-144.84 2509.35,-151.84"/>
</g>
<!-- Node29 -->
<g id="node29" class="node">
<title>Node29</title>
<g id="a_node29"><a xlink:href="f__op__kankyo_8cpp.html" target="_top" xlink:title=" ">
<polygon fill="white" stroke="black" points="3674.5,-73 3674.5,-92 3808.5,-92 3808.5,-73 3674.5,-73"/>
<text text-anchor="middle" x="3741.5" y="-80" font-family="Helvetica,sans-Serif" font-size="10.00">src/f/f_op/f_op_kankyo.cpp</text>
</a>
</g>
</g>
<!-- Node4&#45;&gt;Node29 -->
<g id="edge28" class="edge">
<title>Node4&#45;&gt;Node29</title>
<path fill="none" stroke="midnightblue" d="M2675.89,-148.58C2856.78,-147.88 3298.52,-141.42 3665.5,-98 3677.64,-96.56 3690.75,-94.32 3702.61,-92.02"/>
<polygon fill="midnightblue" stroke="midnightblue" points="2675.64,-145.08 2665.65,-148.62 2675.66,-152.08 2675.64,-145.08"/>
</g>
<!-- Node30 -->
<g id="node30" class="node">
<title>Node30</title>
<g id="a_node30"><a xlink:href="f__op__msg__mng_8cpp.html" target="_top" xlink:title=" ">
<polygon fill="white" stroke="black" points="396.5,-0.5 396.5,-30.5 500.5,-30.5 500.5,-0.5 396.5,-0.5"/>
<text text-anchor="start" x="404.5" y="-18.5" font-family="Helvetica,sans-Serif" font-size="10.00">src/f/f_op/f_op_msg</text>
<text text-anchor="middle" x="448.5" y="-7.5" font-family="Helvetica,sans-Serif" font-size="10.00">_mng.cpp</text>
</a>
</g>
</g>
<!-- Node4&#45;&gt;Node30 -->
<g id="edge29" class="edge">
<title>Node4&#45;&gt;Node30</title>
<path fill="none" stroke="midnightblue" d="M2509.23,-147.65C2140.78,-143.73 671.18,-126.39 577.5,-98 532.37,-84.32 487.63,-50.26 464.56,-30.78"/>
<polygon fill="midnightblue" stroke="midnightblue" points="2509.25,-151.15 2519.29,-147.76 2509.32,-144.15 2509.25,-151.15"/>
</g>
<!-- Node31 -->
<g id="node31" class="node">
<title>Node31</title>
<g id="a_node31"><a xlink:href="f__pc__manager_8cpp.html" target="_top" xlink:title=" ">
<polygon fill="white" stroke="black" points="906.5,-6 906.5,-25 1046.5,-25 1046.5,-6 906.5,-6"/>
<text text-anchor="middle" x="976.5" y="-13" font-family="Helvetica,sans-Serif" font-size="10.00">src/f/f_pc/f_pc_manager.cpp</text>
</a>
</g>
</g>
<!-- Node4&#45;&gt;Node31 -->
<g id="edge30" class="edge">
<title>Node4&#45;&gt;Node31</title>
<path fill="none" stroke="midnightblue" d="M2509.4,-147.52C2178.1,-143.4 968.08,-126.44 940.5,-98 919.82,-76.68 950.41,-41.5 967,-25.24"/>
<polygon fill="midnightblue" stroke="midnightblue" points="2509.37,-151.02 2519.41,-147.64 2509.45,-144.02 2509.37,-151.02"/>
</g>
<!-- Node32 -->
<g id="node32" class="node">
<title>Node32</title>
<g id="a_node32"><a xlink:href="m__Do__audio_8cpp.html" target="_top" xlink:title=" ">
<polygon fill="white" stroke="black" points="3826.5,-73 3826.5,-92 3960.5,-92 3960.5,-73 3826.5,-73"/>
<text text-anchor="middle" x="3893.5" y="-80" font-family="Helvetica,sans-Serif" font-size="10.00">src/m_Do/m_Do_audio.cpp</text>
</a>
</g>
</g>
<!-- Node4&#45;&gt;Node32 -->
<g id="edge31" class="edge">
<title>Node4&#45;&gt;Node32</title>
<path fill="none" stroke="midnightblue" d="M2675.68,-149.28C2874.03,-150.23 3390.13,-147.31 3817.5,-98 3829.64,-96.6 3842.76,-94.36 3854.62,-92.06"/>
<polygon fill="midnightblue" stroke="midnightblue" points="2675.64,-145.78 2665.63,-149.23 2675.61,-152.78 2675.64,-145.78"/>
</g>
<!-- Node33 -->
<g id="node33" class="node">
<title>Node33</title>
<g id="a_node33"><a xlink:href="m__Do__graphic_8cpp.html" target="_top" xlink:title=" ">
<polygon fill="white" stroke="black" points="3978.5,-73 3978.5,-92 4120.5,-92 4120.5,-73 3978.5,-73"/>
<text text-anchor="middle" x="4049.5" y="-80" font-family="Helvetica,sans-Serif" font-size="10.00">src/m_Do/m_Do_graphic.cpp</text>
</a>
</g>
</g>
<!-- Node4&#45;&gt;Node33 -->
<g id="edge32" class="edge">
<title>Node4&#45;&gt;Node33</title>
<path fill="none" stroke="midnightblue" d="M2675.8,-147C2933.66,-142.13 3716.62,-125.41 3969.5,-98 3982.41,-96.6 3996.37,-94.33 4008.97,-92"/>
<polygon fill="midnightblue" stroke="midnightblue" points="2675.68,-143.51 2665.75,-147.19 2675.81,-150.51 2675.68,-143.51"/>
</g>
<!-- Node34 -->
<g id="node34" class="node">
<title>Node34</title>
<g id="a_node34"><a xlink:href="m__Do__lib_8cpp.html" target="_top" xlink:title=" ">
<polygon fill="white" stroke="black" points="4138.5,-73 4138.5,-92 4258.5,-92 4258.5,-73 4138.5,-73"/>
<text text-anchor="middle" x="4198.5" y="-80" font-family="Helvetica,sans-Serif" font-size="10.00">src/m_Do/m_Do_lib.cpp</text>
</a>
</g>
</g>
<!-- Node4&#45;&gt;Node34 -->
<g id="edge33" class="edge">
<title>Node4&#45;&gt;Node34</title>
<path fill="none" stroke="midnightblue" d="M2675.86,-147.68C2953.36,-144.63 3844.43,-132.37 4129.5,-98 4140.68,-96.65 4152.74,-94.4 4163.59,-92.07"/>
<polygon fill="midnightblue" stroke="midnightblue" points="2675.82,-144.18 2665.86,-147.79 2675.89,-151.18 2675.82,-144.18"/>
</g>
<!-- Node35 -->
<g id="node35" class="node">
<title>Node35</title>
<g id="a_node35"><a xlink:href="m__Do__machine__exception_8cpp.html" target="_top" xlink:title=" ">
<polygon fill="white" stroke="black" points="4277,-67.5 4277,-97.5 4406,-97.5 4406,-67.5 4277,-67.5"/>
<text text-anchor="start" x="4285" y="-85.5" font-family="Helvetica,sans-Serif" font-size="10.00">src/m_Do/m_Do_machine</text>
<text text-anchor="middle" x="4341.5" y="-74.5" font-family="Helvetica,sans-Serif" font-size="10.00">_exception.cpp</text>
</a>
</g>
</g>
<!-- Node4&#45;&gt;Node35 -->
<g id="edge34" class="edge">
<title>Node4&#45;&gt;Node35</title>
<path fill="none" stroke="midnightblue" d="M2675.73,-147.79C2969.06,-145.01 3953.92,-133.21 4267.5,-98 4270.49,-97.66 4273.54,-97.27 4276.62,-96.83"/>
<polygon fill="midnightblue" stroke="midnightblue" points="2675.56,-144.29 2665.59,-147.89 2675.62,-151.29 2675.56,-144.29"/>
</g>
<!-- Node36 -->
<g id="node36" class="node">
<title>Node36</title>
<g id="a_node36"><a xlink:href="m__Do__main_8cpp.html" target="_top" xlink:title=" ">
<polygon fill="white" stroke="black" points="4424,-73 4424,-92 4555,-92 4555,-73 4424,-73"/>
<text text-anchor="middle" x="4489.5" y="-80" font-family="Helvetica,sans-Serif" font-size="10.00">src/m_Do/m_Do_main.cpp</text>
</a>
</g>
</g>
<!-- Node4&#45;&gt;Node36 -->
<g id="edge35" class="edge">
<title>Node4&#45;&gt;Node36</title>
<path fill="none" stroke="midnightblue" d="M2676.18,-148.02C2986.57,-145.97 4071.68,-136.18 4415.5,-98 4427.6,-96.66 4440.68,-94.38 4452.42,-92.02"/>
<polygon fill="midnightblue" stroke="midnightblue" points="2675.89,-144.53 2665.91,-148.09 2675.93,-151.53 2675.89,-144.53"/>
</g>
<!-- Node37 -->
<g id="node37" class="node">
<title>Node37</title>
<g id="a_node37"><a xlink:href="m__Do__MemCardRWmng_8cpp.html" target="_top" xlink:title=" ">
<polygon fill="white" stroke="black" points="4573,-73 4573,-92 4760,-92 4760,-73 4573,-73"/>
<text text-anchor="middle" x="4666.5" y="-80" font-family="Helvetica,sans-Serif" font-size="10.00">src/m_Do/m_Do_MemCardRWmng.cpp</text>
</a>
</g>
</g>
<!-- Node4&#45;&gt;Node37 -->
<g id="edge36" class="edge">
<title>Node4&#45;&gt;Node37</title>
<path fill="none" stroke="midnightblue" d="M2676.04,-147.65C3002.03,-144.13 4189.01,-129.39 4564.5,-98 4580.99,-96.62 4598.88,-94.35 4615,-92"/>
<polygon fill="midnightblue" stroke="midnightblue" points="2675.69,-144.15 2665.73,-147.76 2675.76,-151.15 2675.69,-144.15"/>
</g>
<!-- Node38 -->
<g id="node38" class="node">
<title>Node38</title>
<g id="a_node38"><a xlink:href="m__Do__ext_8cpp.html" target="_top" xlink:title=" ">
<polygon fill="white" stroke="black" points="4778,-73 4778,-92 4901,-92 4901,-73 4778,-73"/>
<text text-anchor="middle" x="4839.5" y="-80" font-family="Helvetica,sans-Serif" font-size="10.00">src/m_Do/m_Do_ext.cpp</text>
</a>
</g>
</g>
<!-- Node4&#45;&gt;Node38 -->
<g id="edge37" class="edge">
<title>Node4&#45;&gt;Node38</title>
<path fill="none" stroke="midnightblue" d="M2675.99,-148.58C3023.04,-148.62 4352.79,-145.59 4769.5,-98 4780.97,-96.69 4793.34,-94.42 4804.45,-92.06"/>
<polygon fill="midnightblue" stroke="midnightblue" points="2675.77,-145.08 2665.77,-148.58 2675.77,-152.08 2675.77,-145.08"/>
</g>
<!-- Node39 -->
<g id="node39" class="node">
<title>Node39</title>
<g id="a_node39"><a xlink:href="Z2EnvSeMgr_8cpp.html" target="_top" xlink:title=" ">
<polygon fill="white" stroke="black" points="4919,-73 4919,-92 5080,-92 5080,-73 4919,-73"/>
<text text-anchor="middle" x="4999.5" y="-80" font-family="Helvetica,sans-Serif" font-size="10.00">libs/Z2AudioLib/Z2EnvSeMgr.cpp</text>
</a>
</g>
</g>
<!-- Node4&#45;&gt;Node39 -->
<g id="edge38" class="edge">
<title>Node4&#45;&gt;Node39</title>
<path fill="none" stroke="midnightblue" d="M2675.63,-148.25C3035.81,-146.91 4463.48,-139.08 4910.5,-98 4925,-96.67 4940.71,-94.39 4954.84,-92.03"/>
<polygon fill="midnightblue" stroke="midnightblue" points="2675.53,-144.75 2665.54,-148.28 2675.56,-151.75 2675.53,-144.75"/>
</g>
<!-- Node40 -->
<g id="node40" class="node">
<title>Node40</title>
<g id="a_node40"><a xlink:href="Z2LinkMgr_8cpp.html" target="_top" xlink:title=" ">
<polygon fill="white" stroke="black" points="5098.5,-73 5098.5,-92 5250.5,-92 5250.5,-73 5098.5,-73"/>
<text text-anchor="middle" x="5174.5" y="-80" font-family="Helvetica,sans-Serif" font-size="10.00">libs/Z2AudioLib/Z2LinkMgr.cpp</text>
</a>
</g>
</g>
<!-- Node4&#45;&gt;Node40 -->
<g id="edge39" class="edge">
<title>Node4&#45;&gt;Node40</title>
<path fill="none" stroke="midnightblue" d="M2675.77,-148.48C3053.16,-148.14 4605.47,-143.92 5089.5,-98 5103.36,-96.69 5118.37,-94.41 5131.86,-92.05"/>
<polygon fill="midnightblue" stroke="midnightblue" points="2675.74,-144.98 2665.75,-148.49 2675.75,-151.98 2675.74,-144.98"/>
</g>
<!-- Node41 -->
<g id="node41" class="node">
<title>Node41</title>
<g id="a_node41"><a xlink:href="Z2SceneMgr_8cpp.html" target="_top" xlink:title=" ">
<polygon fill="white" stroke="black" points="5269,-73 5269,-92 5430,-92 5430,-73 5269,-73"/>
<text text-anchor="middle" x="5349.5" y="-80" font-family="Helvetica,sans-Serif" font-size="10.00">libs/Z2AudioLib/Z2SceneMgr.cpp</text>
</a>
</g>
</g>
<!-- Node4&#45;&gt;Node41 -->
<g id="edge40" class="edge">
<title>Node4&#45;&gt;Node41</title>
<path fill="none" stroke="midnightblue" d="M2675.87,-148.5C3068.97,-148.28 4739.86,-144.55 5259.5,-98 5274.16,-96.69 5290.05,-94.41 5304.33,-92.05"/>
<polygon fill="midnightblue" stroke="midnightblue" points="2675.72,-145 2665.72,-148.51 2675.72,-152 2675.72,-145"/>
</g>
<!-- Node42 -->
<g id="node42" class="node">
<title>Node42</title>
<g id="a_node42"><a xlink:href="Z2SoundMgr_8cpp.html" target="_top" xlink:title=" ">
<polygon fill="white" stroke="black" points="5448,-73 5448,-92 5609,-92 5609,-73 5448,-73"/>
<text text-anchor="middle" x="5528.5" y="-80" font-family="Helvetica,sans-Serif" font-size="10.00">libs/Z2AudioLib/Z2SoundMgr.cpp</text>
</a>
</g>
</g>
<!-- Node4&#45;&gt;Node42 -->
<g id="edge41" class="edge">
<title>Node4&#45;&gt;Node42</title>
<path fill="none" stroke="midnightblue" d="M2676.07,-148.64C3085.51,-149.08 4882.39,-148.06 5439.5,-98 5454,-96.7 5469.71,-94.43 5483.84,-92.06"/>
<polygon fill="midnightblue" stroke="midnightblue" points="2675.8,-145.14 2665.8,-148.63 2675.79,-152.14 2675.8,-145.14"/>
</g>
<!-- Node43 -->
<g id="node43" class="node">
<title>Node43</title>
<g id="a_node43"><a xlink:href="Z2StatusMgr_8cpp.html" target="_top" xlink:title=" ">
<polygon fill="white" stroke="black" points="5627,-67.5 5627,-97.5 5754,-97.5 5754,-67.5 5627,-67.5"/>
<text text-anchor="start" x="5635" y="-85.5" font-family="Helvetica,sans-Serif" font-size="10.00">libs/Z2AudioLib/Z2Status</text>
<text text-anchor="middle" x="5690.5" y="-74.5" font-family="Helvetica,sans-Serif" font-size="10.00">Mgr.cpp</text>
</a>
</g>
</g>
<!-- Node4&#45;&gt;Node43 -->
<g id="edge42" class="edge">
<title>Node4&#45;&gt;Node43</title>
<path fill="none" stroke="midnightblue" d="M2675.64,-148.02C3131.62,-145.25 5319.27,-130.35 5618.5,-98 5621.29,-97.7 5624.13,-97.34 5626.99,-96.94"/>
<polygon fill="midnightblue" stroke="midnightblue" points="2675.49,-144.52 2665.51,-148.08 2675.53,-151.52 2675.49,-144.52"/>
</g>
<!-- Node44 -->
<g id="node44" class="node">
<title>Node44</title>
<g id="a_node44"><a xlink:href="d__a__alink_8h.html" target="_top" xlink:title=" ">
<polygon fill="white" stroke="black" points="125,-67.5 125,-97.5 244,-97.5 244,-67.5 125,-67.5"/>
<text text-anchor="start" x="133" y="-85.5" font-family="Helvetica,sans-Serif" font-size="10.00">include/d/d_a/d_a_alink</text>
<text text-anchor="middle" x="184.5" y="-74.5" font-family="Helvetica,sans-Serif" font-size="10.00">/d_a_alink.h</text>
</a>
</g>
</g>
<!-- Node4&#45;&gt;Node44 -->
<g id="edge43" class="edge">
<title>Node4&#45;&gt;Node44</title>
<path fill="none" stroke="midnightblue" d="M2509.23,-148.55C2214.45,-148.3 1193,-143.97 351.5,-98 315.9,-96.06 276.13,-92.65 244.34,-89.63"/>
<polygon fill="midnightblue" stroke="midnightblue" points="2509.4,-152.05 2519.4,-148.55 2509.41,-145.05 2509.4,-152.05"/>
</g>
<!-- Node46 -->
<g id="node46" class="node">
<title>Node46</title>
<g id="a_node46"><a xlink:href="d__item_8h.html" target="_top" xlink:title=" ">
<polygon fill="white" stroke="black" points="1107.5,-67.5 1107.5,-97.5 1203.5,-97.5 1203.5,-67.5 1107.5,-67.5"/>
<text text-anchor="start" x="1115.5" y="-85.5" font-family="Helvetica,sans-Serif" font-size="10.00">include/d/d_item/d</text>
<text text-anchor="middle" x="1155.5" y="-74.5" font-family="Helvetica,sans-Serif" font-size="10.00">_item/d_item.h</text>
</a>
</g>
</g>
<!-- Node4&#45;&gt;Node46 -->
<g id="edge46" class="edge">
<title>Node4&#45;&gt;Node46</title>
<path fill="none" stroke="midnightblue" d="M2509.26,-147.55C2251.57,-144.27 1469.25,-131.74 1217.5,-98 1213.01,-97.4 1208.36,-96.62 1203.73,-95.73"/>
<polygon fill="midnightblue" stroke="midnightblue" points="2509.26,-151.05 2519.3,-147.68 2509.35,-144.05 2509.26,-151.05"/>
</g>
<!-- Node47 -->
<g id="node47" class="node">
<title>Node47</title>
<g id="a_node47"><a xlink:href="f__pc__manager_8h.html" target="_top" xlink:title=" ">
<polygon fill="white" stroke="red" points="587,-67.5 587,-97.5 684,-97.5 684,-67.5 587,-67.5"/>
<text text-anchor="start" x="595" y="-85.5" font-family="Helvetica,sans-Serif" font-size="10.00">include/f/f_pc/f_pc</text>
<text text-anchor="middle" x="635.5" y="-74.5" font-family="Helvetica,sans-Serif" font-size="10.00">_manager.h</text>
</a>
</g>
</g>
<!-- Node4&#45;&gt;Node47 -->
<g id="edge50" class="edge">
<title>Node4&#45;&gt;Node47</title>
<path fill="none" stroke="midnightblue" d="M2509.13,-146.69C2263.66,-141.21 1522.24,-123.59 907.5,-98 829.3,-94.74 738.53,-89.64 684.13,-86.43"/>
<polygon fill="midnightblue" stroke="midnightblue" points="2509.32,-150.19 2519.4,-146.92 2509.48,-143.2 2509.32,-150.19"/>
</g>
<!-- Node44&#45;&gt;Node5 -->
<g id="edge44" class="edge">
<title>Node44&#45;&gt;Node5</title>
<path fill="none" stroke="midnightblue" d="M146.82,-62.8C121.7,-50.34 89.89,-34.56 70.64,-25.01"/>
<polygon fill="midnightblue" stroke="midnightblue" points="145.56,-66.09 156.07,-67.4 148.67,-59.82 145.56,-66.09"/>
</g>
<!-- Node45 -->
<g id="node45" class="node">
<title>Node45</title>
<g id="a_node45"><a xlink:href="d__a__alink_8cpp.html" target="_top" xlink:title=" ">
<polygon fill="white" stroke="black" points="125,-6 125,-25 244,-25 244,-6 125,-6"/>
<text text-anchor="middle" x="184.5" y="-13" font-family="Helvetica,sans-Serif" font-size="10.00">src/d/d_a/d_a_alink.cpp</text>
</a>
</g>
</g>
<!-- Node44&#45;&gt;Node45 -->
<g id="edge45" class="edge">
<title>Node44&#45;&gt;Node45</title>
<path fill="none" stroke="midnightblue" d="M184.5,-57.25C184.5,-46.02 184.5,-33.38 184.5,-25.19"/>
<polygon fill="midnightblue" stroke="midnightblue" points="181,-57.4 184.5,-67.4 188,-57.4 181,-57.4"/>
</g>
<!-- Node46&#45;&gt;Node7 -->
<g id="edge47" class="edge">
<title>Node46&#45;&gt;Node7</title>
<path fill="none" stroke="midnightblue" d="M1144.43,-58.28C1140.01,-49.02 1135.07,-38.66 1131.21,-30.58"/>
<polygon fill="midnightblue" stroke="midnightblue" points="1141.31,-59.88 1148.77,-67.4 1147.63,-56.86 1141.31,-59.88"/>
</g>
<!-- Node46&#45;&gt;Node9 -->
<g id="edge48" class="edge">
<title>Node46&#45;&gt;Node9</title>
<path fill="none" stroke="midnightblue" d="M1187.37,-62.14C1207.7,-49.79 1233.05,-34.39 1248.5,-25.01"/>
<polygon fill="midnightblue" stroke="midnightblue" points="1185.45,-59.21 1178.72,-67.4 1189.08,-65.2 1185.45,-59.21"/>
</g>
<!-- Node46&#45;&gt;Node26 -->
<g id="edge49" class="edge">
<title>Node46&#45;&gt;Node26</title>
<path fill="none" stroke="midnightblue" d="M1213.33,-65.77C1252.81,-55.03 1304.66,-40.93 1342.77,-30.57"/>
<polygon fill="midnightblue" stroke="midnightblue" points="1212.31,-62.42 1203.58,-68.42 1214.15,-69.18 1212.31,-62.42"/>
</g>
<!-- Node47&#45;&gt;Node28 -->
<g id="edge53" class="edge">
<title>Node47&#45;&gt;Node28</title>
<path fill="none" stroke="midnightblue" d="M576.96,-69.79C526.67,-59.68 452.27,-44.6 387.5,-31 384.59,-30.39 381.61,-29.76 378.6,-29.12"/>
<polygon fill="midnightblue" stroke="midnightblue" points="576.5,-73.27 586.99,-71.81 577.88,-66.4 576.5,-73.27"/>
</g>
<!-- Node47&#45;&gt;Node30 -->
<g id="edge55" class="edge">
<title>Node47&#45;&gt;Node30</title>
<path fill="none" stroke="midnightblue" d="M585.42,-64.09C555.23,-53.6 517.28,-40.41 489,-30.58"/>
<polygon fill="midnightblue" stroke="midnightblue" points="584.33,-67.42 594.92,-67.4 586.63,-60.81 584.33,-67.42"/>
</g>
<!-- Node47&#45;&gt;Node31 -->
<g id="edge57" class="edge">
<title>Node47&#45;&gt;Node31</title>
<path fill="none" stroke="midnightblue" d="M694.41,-70.27C761.89,-57.41 870.95,-36.62 931.81,-25.02"/>
<polygon fill="midnightblue" stroke="midnightblue" points="693.52,-66.88 684.36,-72.19 694.84,-73.75 693.52,-66.88"/>
</g>
<!-- Node47&#45;&gt;Node45 -->
<g id="edge51" class="edge">
<title>Node47&#45;&gt;Node45</title>
<path fill="none" stroke="midnightblue" d="M576.57,-75.11C501.35,-66.64 367.33,-50.46 253.5,-31 243.49,-29.29 232.71,-27.16 222.72,-25.07"/>
<polygon fill="midnightblue" stroke="midnightblue" points="576.45,-78.62 586.78,-76.26 577.23,-71.66 576.45,-78.62"/>
</g>
<!-- Node48 -->
<g id="node48" class="node">
<title>Node48</title>
<g id="a_node48"><a xlink:href="f__ap__game_8cpp.html" target="_top" xlink:title=" ">
<polygon fill="white" stroke="black" points="519,-6 519,-25 624,-25 624,-6 519,-6"/>
<text text-anchor="middle" x="571.5" y="-13" font-family="Helvetica,sans-Serif" font-size="10.00">src/f/f_ap_game.cpp</text>
</a>
</g>
</g>
<!-- Node47&#45;&gt;Node48 -->
<g id="edge52" class="edge">
<title>Node47&#45;&gt;Node48</title>
<path fill="none" stroke="midnightblue" d="M614.33,-60C602.65,-48.13 588.78,-34.05 580.06,-25.19"/>
<polygon fill="midnightblue" stroke="midnightblue" points="612.1,-62.73 621.61,-67.4 617.09,-57.81 612.1,-62.73"/>
</g>
<!-- Node49 -->
<g id="node49" class="node">
<title>Node49</title>
<g id="a_node49"><a xlink:href="f__op__overlap__req_8cpp.html" target="_top" xlink:title=" ">
<polygon fill="white" stroke="black" points="642.5,-0.5 642.5,-30.5 758.5,-30.5 758.5,-0.5 642.5,-0.5"/>
<text text-anchor="start" x="650.5" y="-18.5" font-family="Helvetica,sans-Serif" font-size="10.00">src/f/f_op/f_op_overlap</text>
<text text-anchor="middle" x="700.5" y="-7.5" font-family="Helvetica,sans-Serif" font-size="10.00">_req.cpp</text>
</a>
</g>
</g>
<!-- Node47&#45;&gt;Node49 -->
<g id="edge54" class="edge">
<title>Node47&#45;&gt;Node49</title>
<path fill="none" stroke="midnightblue" d="M656.69,-60.31C666.44,-50.56 677.74,-39.26 686.42,-30.58"/>
<polygon fill="midnightblue" stroke="midnightblue" points="654.2,-57.85 649.6,-67.4 659.15,-62.8 654.2,-57.85"/>
</g>
<!-- Node50 -->
<g id="node50" class="node">
<title>Node50</title>
<g id="a_node50"><a xlink:href="f__op__scene__pause_8cpp.html" target="_top" xlink:title=" ">
<polygon fill="white" stroke="black" points="777,-0.5 777,-30.5 888,-30.5 888,-0.5 777,-0.5"/>
<text text-anchor="start" x="785" y="-18.5" font-family="Helvetica,sans-Serif" font-size="10.00">src/f/f_op/f_op_scene</text>
<text text-anchor="middle" x="832.5" y="-7.5" font-family="Helvetica,sans-Serif" font-size="10.00">_pause.cpp</text>
</a>
</g>
</g>
<!-- Node47&#45;&gt;Node50 -->
<g id="edge56" class="edge">
<title>Node47&#45;&gt;Node50</title>
<path fill="none" stroke="midnightblue" d="M687.85,-64.23C719.72,-53.71 759.91,-40.45 789.84,-30.58"/>
<polygon fill="midnightblue" stroke="midnightblue" points="686.65,-60.94 678.25,-67.4 688.84,-67.59 686.65,-60.94"/>
</g>
</g>
</svg>
