<?xml version="1.0" encoding="UTF-8" standalone="no"?>
<!DOCTYPE svg PUBLIC "-//W3C//DTD SVG 1.1//EN"
 "http://www.w3.org/Graphics/SVG/1.1/DTD/svg11.dtd">
<!-- Generated by graphviz version 7.0.5 (20221223.1930)
 -->
<!-- Title: libs/SSystem/SComponent/c_angle.cpp Pages: 1 -->
<svg width="218pt" height="335pt"
 viewBox="0.00 0.00 218.00 335.00" xmlns="http://www.w3.org/2000/svg" xmlns:xlink="http://www.w3.org/1999/xlink">
<g id="graph0" class="graph" transform="scale(1 1) rotate(0) translate(4 331)">
<title>libs/SSystem/SComponent/c_angle.cpp</title>
<!-- Node1 -->
<g id="node1" class="node">
<title>Node1</title>
<g id="a_node1"><a xlink:title=" ">
<polygon fill="#999999" stroke="#666666" points="210,-327 76,-327 76,-297 210,-297 210,-327"/>
<text text-anchor="start" x="84" y="-315" font-family="Helvetica,sans-Serif" font-size="10.00">libs/SSystem/SComponent</text>
<text text-anchor="middle" x="143" y="-304" font-family="Helvetica,sans-Serif" font-size="10.00">/c_angle.cpp</text>
</a>
</g>
</g>
<!-- Node2 -->
<g id="node2" class="node">
<title>Node2</title>
<g id="a_node2"><a xlink:href="c__angle_8h.html" target="_top" xlink:title=" ">
<polygon fill="white" stroke="#666666" points="158,-261 42,-261 42,-231 158,-231 158,-261"/>
<text text-anchor="start" x="50" y="-249" font-family="Helvetica,sans-Serif" font-size="10.00">SSystem/SComponent</text>
<text text-anchor="middle" x="100" y="-238" font-family="Helvetica,sans-Serif" font-size="10.00">/c_angle.h</text>
</a>
</g>
</g>
<!-- Node1&#45;&gt;Node2 -->
<g id="edge1" class="edge">
<title>Node1&#45;&gt;Node2</title>
<path fill="none" stroke="#63b8ff" d="M133.46,-296.8C128.28,-289.09 121.75,-279.37 115.83,-270.56"/>
<polygon fill="#63b8ff" stroke="#63b8ff" points="118.84,-268.77 110.36,-262.42 113.03,-272.67 118.84,-268.77"/>
</g>
<!-- Node8 -->
<g id="node8" class="node">
<title>Node8</title>
<g id="a_node8"><a xlink:href="types_8h.html" target="_top" xlink:title=" ">
<polygon fill="white" stroke="#666666" points="189.5,-74 108.5,-74 108.5,-55 189.5,-55 189.5,-74"/>
<text text-anchor="middle" x="149" y="-62" font-family="Helvetica,sans-Serif" font-size="10.00">dolphin/types.h</text>
</a>
</g>
</g>
<!-- Node1&#45;&gt;Node8 -->
<g id="edge9" class="edge">
<title>Node1&#45;&gt;Node8</title>
<path fill="none" stroke="#63b8ff" d="M151.96,-296.76C157.5,-287.08 164.09,-273.77 167,-261 181.89,-195.56 179.82,-175.88 167,-110 165.33,-101.42 162.01,-92.39 158.66,-84.73"/>
<polygon fill="#63b8ff" stroke="#63b8ff" points="161.86,-83.31 154.43,-75.76 155.53,-86.3 161.86,-83.31"/>
</g>
<!-- Node3 -->
<g id="node3" class="node">
<title>Node3</title>
<g id="a_node3"><a xlink:href="c__xyz_8h.html" target="_top" xlink:title=" ">
<polygon fill="white" stroke="#666666" points="158,-195 42,-195 42,-165 158,-165 158,-195"/>
<text text-anchor="start" x="50" y="-183" font-family="Helvetica,sans-Serif" font-size="10.00">SSystem/SComponent</text>
<text text-anchor="middle" x="100" y="-172" font-family="Helvetica,sans-Serif" font-size="10.00">/c_xyz.h</text>
</a>
</g>
</g>
<!-- Node2&#45;&gt;Node3 -->
<g id="edge2" class="edge">
<title>Node2&#45;&gt;Node3</title>
<path fill="none" stroke="#63b8ff" d="M100,-230.8C100,-223.67 100,-214.82 100,-206.56"/>
<polygon fill="#63b8ff" stroke="#63b8ff" points="103.5,-206.68 100,-196.68 96.5,-206.68 103.5,-206.68"/>
</g>
<!-- Node4 -->
<g id="node4" class="node">
<title>Node4</title>
<g id="a_node4"><a xlink:href="math_8h.html" target="_top" xlink:title=" ">
<polygon fill="white" stroke="#666666" points="48,-129 2,-129 2,-110 48,-110 48,-129"/>
<text text-anchor="middle" x="25" y="-117" font-family="Helvetica,sans-Serif" font-size="10.00">math.h</text>
</a>
</g>
</g>
<!-- Node3&#45;&gt;Node4 -->
<g id="edge3" class="edge">
<title>Node3&#45;&gt;Node4</title>
<path fill="none" stroke="#63b8ff" d="M81.46,-164.54C70.35,-155.87 56.21,-144.85 44.87,-136"/>
<polygon fill="#63b8ff" stroke="#63b8ff" points="47.35,-133.5 37.32,-130.11 43.05,-139.02 47.35,-133.5"/>
</g>
<!-- Node7 -->
<g id="node7" class="node">
<title>Node7</title>
<g id="a_node7"><a xlink:href="vec_8h.html" target="_top" xlink:title=" ">
<polygon fill="white" stroke="#666666" points="158,-129 66,-129 66,-110 158,-110 158,-129"/>
<text text-anchor="middle" x="112" y="-117" font-family="Helvetica,sans-Serif" font-size="10.00">dolphin/mtx/vec.h</text>
</a>
</g>
</g>
<!-- Node3&#45;&gt;Node7 -->
<g id="edge6" class="edge">
<title>Node3&#45;&gt;Node7</title>
<path fill="none" stroke="#63b8ff" d="M102.97,-164.54C104.46,-157.26 106.29,-148.31 107.92,-140.39"/>
<polygon fill="#63b8ff" stroke="#63b8ff" points="111.34,-141.16 109.92,-130.66 104.48,-139.75 111.34,-141.16"/>
</g>
<!-- Node5 -->
<g id="node5" class="node">
<title>Node5</title>
<g id="a_node5"><a xlink:href="float_8h.html" target="_top" xlink:title=" ">
<polygon fill="white" stroke="#666666" points="46,-74 4,-74 4,-55 46,-55 46,-74"/>
<text text-anchor="middle" x="25" y="-62" font-family="Helvetica,sans-Serif" font-size="10.00">float.h</text>
</a>
</g>
</g>
<!-- Node4&#45;&gt;Node5 -->
<g id="edge4" class="edge">
<title>Node4&#45;&gt;Node5</title>
<path fill="none" stroke="#63b8ff" d="M25,-109.75C25,-103.27 25,-94.16 25,-85.9"/>
<polygon fill="#63b8ff" stroke="#63b8ff" points="28.5,-85.96 25,-75.96 21.5,-85.96 28.5,-85.96"/>
</g>
<!-- Node6 -->
<g id="node6" class="node">
<title>Node6</title>
<g id="a_node6"><a xlink:href="fdlibm_8h.html" target="_top" xlink:title=" ">
<polygon fill="white" stroke="#666666" points="50,-19 0,-19 0,0 50,0 50,-19"/>
<text text-anchor="middle" x="25" y="-7" font-family="Helvetica,sans-Serif" font-size="10.00">fdlibm.h</text>
</a>
</g>
</g>
<!-- Node5&#45;&gt;Node6 -->
<g id="edge5" class="edge">
<title>Node5&#45;&gt;Node6</title>
<path fill="none" stroke="#63b8ff" d="M25,-54.75C25,-48.27 25,-39.16 25,-30.9"/>
<polygon fill="#63b8ff" stroke="#63b8ff" points="28.5,-30.96 25,-20.96 21.5,-30.96 28.5,-30.96"/>
</g>
<!-- Node7&#45;&gt;Node8 -->
<g id="edge7" class="edge">
<title>Node7&#45;&gt;Node8</title>
<path fill="none" stroke="#63b8ff" d="M118.11,-109.75C123.01,-102.73 130.05,-92.64 136.17,-83.87"/>
<polygon fill="#63b8ff" stroke="#63b8ff" points="139.04,-85.89 141.89,-75.68 133.3,-81.88 139.04,-85.89"/>
</g>
<!-- Node9 -->
<g id="node9" class="node">
<title>Node9</title>
<g id="a_node9"><a xlink:href="stddef_8h.html" target="_top" xlink:title=" ">
<polygon fill="white" stroke="#666666" points="174.5,-19 123.5,-19 123.5,0 174.5,0 174.5,-19"/>
<text text-anchor="middle" x="149" y="-7" font-family="Helvetica,sans-Serif" font-size="10.00">stddef.h</text>
</a>
</g>
</g>
<!-- Node8&#45;&gt;Node9 -->
<g id="edge8" class="edge">
<title>Node8&#45;&gt;Node9</title>
<path fill="none" stroke="#63b8ff" d="M149,-54.75C149,-48.27 149,-39.16 149,-30.9"/>
<polygon fill="#63b8ff" stroke="#63b8ff" points="152.5,-30.96 149,-20.96 145.5,-30.96 152.5,-30.96"/>
</g>
</g>
</svg>
