<?xml version="1.0" encoding="UTF-8" standalone="no"?>
<!DOCTYPE svg PUBLIC "-//W3C//DTD SVG 1.1//EN"
 "http://www.w3.org/Graphics/SVG/1.1/DTD/svg11.dtd">
<!-- Generated by graphviz version 2.46.0 (20210122.1329)
 -->
<!-- Title: include/SComponent/c_API_controller_pad.h Pages: 1 -->
<svg width="1352pt" height="173pt"
 viewBox="0.00 0.00 1351.50 173.00" xmlns="http://www.w3.org/2000/svg" xmlns:xlink="http://www.w3.org/1999/xlink">
<g id="graph0" class="graph" transform="scale(1 1) rotate(0) translate(4 169)">
<title>include/SComponent/c_API_controller_pad.h</title>
<polygon fill="white" stroke="transparent" points="-4,4 -4,-169 1347.5,-169 1347.5,4 -4,4"/>
<!-- Node1 -->
<g id="node1" class="node">
<title>Node1</title>
<g id="a_node1"><a xlink:title=" ">
<polygon fill="#bfbfbf" stroke="black" points="377.5,-134.5 377.5,-164.5 497.5,-164.5 497.5,-134.5 377.5,-134.5"/>
<text text-anchor="start" x="385.5" y="-152.5" font-family="Helvetica,sans-Serif" font-size="10.00">include/SComponent</text>
<text text-anchor="middle" x="437.5" y="-141.5" font-family="Helvetica,sans-Serif" font-size="10.00">/c_API_controller_pad.h</text>
</a>
</g>
</g>
<!-- Node2 -->
<g id="node2" class="node">
<title>Node2</title>
<g id="a_node2"><a xlink:href="m__Do__main_8cpp.html" target="_top" xlink:title=" ">
<polygon fill="white" stroke="black" points="0,-6 0,-25 131,-25 131,-6 0,-6"/>
<text text-anchor="middle" x="65.5" y="-13" font-family="Helvetica,sans-Serif" font-size="10.00">src/m_Do/m_Do_main.cpp</text>
</a>
</g>
</g>
<!-- Node1&#45;&gt;Node2 -->
<g id="edge1" class="edge">
<title>Node1&#45;&gt;Node2</title>
<path fill="none" stroke="midnightblue" d="M388.61,-131.15C308.01,-102.55 150.17,-46.54 89.78,-25.12"/>
<polygon fill="midnightblue" stroke="midnightblue" points="387.45,-134.45 398.04,-134.5 389.79,-127.86 387.45,-134.45"/>
</g>
<!-- Node3 -->
<g id="node3" class="node">
<title>Node3</title>
<g id="a_node3"><a xlink:href="m__Do__Reset_8cpp.html" target="_top" xlink:title=" ">
<polygon fill="white" stroke="black" points="669.5,-73 669.5,-92 805.5,-92 805.5,-73 669.5,-73"/>
<text text-anchor="middle" x="737.5" y="-80" font-family="Helvetica,sans-Serif" font-size="10.00">src/m_Do/m_Do_Reset.cpp</text>
</a>
</g>
</g>
<!-- Node1&#45;&gt;Node3 -->
<g id="edge2" class="edge">
<title>Node1&#45;&gt;Node3</title>
<path fill="none" stroke="midnightblue" d="M507.9,-133.25C567.25,-120.39 650.01,-102.46 698.25,-92"/>
<polygon fill="midnightblue" stroke="midnightblue" points="506.88,-129.89 497.85,-135.42 508.36,-136.73 506.88,-129.89"/>
</g>
<!-- Node4 -->
<g id="node4" class="node">
<title>Node4</title>
<g id="a_node4"><a xlink:href="c__API__controller__pad_8cpp.html" target="_top" xlink:title=" ">
<polygon fill="white" stroke="black" points="149.5,-0.5 149.5,-30.5 283.5,-30.5 283.5,-0.5 149.5,-0.5"/>
<text text-anchor="start" x="157.5" y="-18.5" font-family="Helvetica,sans-Serif" font-size="10.00">libs/SSystem/SComponent</text>
<text text-anchor="middle" x="216.5" y="-7.5" font-family="Helvetica,sans-Serif" font-size="10.00">/c_API_controller_pad.cpp</text>
</a>
</g>
</g>
<!-- Node1&#45;&gt;Node4 -->
<g id="edge3" class="edge">
<title>Node1&#45;&gt;Node4</title>
<path fill="none" stroke="midnightblue" d="M405.07,-129.13C360.04,-102.24 279.66,-54.22 239.98,-30.52"/>
<polygon fill="midnightblue" stroke="midnightblue" points="403.47,-132.25 413.85,-134.37 407.06,-126.24 403.47,-132.25"/>
</g>
<!-- Node5 -->
<g id="node5" class="node">
<title>Node5</title>
<g id="a_node5"><a xlink:href="m__Do__controller__pad_8h.html" target="_top" xlink:title=" ">
<polygon fill="white" stroke="black" points="502,-67.5 502,-97.5 651,-97.5 651,-67.5 502,-67.5"/>
<text text-anchor="start" x="510" y="-85.5" font-family="Helvetica,sans-Serif" font-size="10.00">include/m_Do/m_Do_controller</text>
<text text-anchor="middle" x="576.5" y="-74.5" font-family="Helvetica,sans-Serif" font-size="10.00">_pad/m_Do_controller_pad.h</text>
</a>
</g>
</g>
<!-- Node1&#45;&gt;Node5 -->
<g id="edge4" class="edge">
<title>Node1&#45;&gt;Node5</title>
<path fill="none" stroke="midnightblue" d="M476.78,-130.13C498.87,-119.8 526.01,-107.11 546.4,-97.58"/>
<polygon fill="midnightblue" stroke="midnightblue" points="475.24,-126.99 467.66,-134.4 478.2,-133.33 475.24,-126.99"/>
</g>
<!-- Node5&#45;&gt;Node2 -->
<g id="edge13" class="edge">
<title>Node5&#45;&gt;Node2</title>
<path fill="none" stroke="midnightblue" d="M491.62,-73.59C403.57,-64.93 262.02,-49.76 140.5,-31 129.49,-29.3 117.63,-27.16 106.66,-25.04"/>
<polygon fill="midnightblue" stroke="midnightblue" points="491.53,-77.1 501.82,-74.59 492.21,-70.13 491.53,-77.1"/>
</g>
<!-- Node5&#45;&gt;Node4 -->
<g id="edge14" class="edge">
<title>Node5&#45;&gt;Node4</title>
<path fill="none" stroke="midnightblue" d="M491.75,-66.72C435.27,-56.79 359.4,-43.33 292.5,-31 289.59,-30.46 286.63,-29.91 283.63,-29.35"/>
<polygon fill="midnightblue" stroke="midnightblue" points="491.26,-70.18 501.71,-68.46 492.47,-63.29 491.26,-70.18"/>
</g>
<!-- Node6 -->
<g id="node6" class="node">
<title>Node6</title>
<g id="a_node6"><a xlink:href="d__attention_8cpp.html" target="_top" xlink:title=" ">
<polygon fill="white" stroke="black" points="589,-6 589,-25 696,-25 696,-6 589,-6"/>
<text text-anchor="middle" x="642.5" y="-13" font-family="Helvetica,sans-Serif" font-size="10.00">src/d/d_attention.cpp</text>
</a>
</g>
</g>
<!-- Node5&#45;&gt;Node6 -->
<g id="edge5" class="edge">
<title>Node5&#45;&gt;Node6</title>
<path fill="none" stroke="midnightblue" d="M597.99,-60.34C610.11,-48.4 624.59,-34.14 633.67,-25.19"/>
<polygon fill="midnightblue" stroke="midnightblue" points="595.49,-57.89 590.82,-67.4 600.4,-62.87 595.49,-57.89"/>
</g>
<!-- Node7 -->
<g id="node7" class="node">
<title>Node7</title>
<g id="a_node7"><a xlink:href="d__camera_8cpp.html" target="_top" xlink:title=" ">
<polygon fill="white" stroke="black" points="713.5,-6 713.5,-25 815.5,-25 815.5,-6 713.5,-6"/>
<text text-anchor="middle" x="764.5" y="-13" font-family="Helvetica,sans-Serif" font-size="10.00">src/d/d_camera.cpp</text>
</a>
</g>
</g>
<!-- Node5&#45;&gt;Node7 -->
<g id="edge6" class="edge">
<title>Node5&#45;&gt;Node7</title>
<path fill="none" stroke="midnightblue" d="M626.8,-64.11C663.38,-51.46 711.3,-34.89 739.9,-25.01"/>
<polygon fill="midnightblue" stroke="midnightblue" points="625.6,-60.82 617.29,-67.4 627.89,-67.44 625.6,-60.82"/>
</g>
<!-- Node8 -->
<g id="node8" class="node">
<title>Node8</title>
<g id="a_node8"><a xlink:href="d__com__inf__game_8cpp.html" target="_top" xlink:title=" ">
<polygon fill="white" stroke="black" points="834,-0.5 834,-30.5 953,-30.5 953,-0.5 834,-0.5"/>
<text text-anchor="start" x="842" y="-18.5" font-family="Helvetica,sans-Serif" font-size="10.00">src/d/d_com/d_com_inf</text>
<text text-anchor="middle" x="893.5" y="-7.5" font-family="Helvetica,sans-Serif" font-size="10.00">_game.cpp</text>
</a>
</g>
</g>
<!-- Node5&#45;&gt;Node8 -->
<g id="edge7" class="edge">
<title>Node5&#45;&gt;Node8</title>
<path fill="none" stroke="midnightblue" d="M655.85,-65.47C704.54,-55.61 768.14,-42.66 824.5,-31 827.5,-30.38 830.57,-29.74 833.67,-29.1"/>
<polygon fill="midnightblue" stroke="midnightblue" points="655.11,-62.05 646.01,-67.47 656.5,-68.91 655.11,-62.05"/>
</g>
<!-- Node9 -->
<g id="node9" class="node">
<title>Node9</title>
<g id="a_node9"><a xlink:href="d__lib_8cpp.html" target="_top" xlink:title=" ">
<polygon fill="white" stroke="black" points="971.5,-6 971.5,-25 1051.5,-25 1051.5,-6 971.5,-6"/>
<text text-anchor="middle" x="1011.5" y="-13" font-family="Helvetica,sans-Serif" font-size="10.00">src/d/d_lib.cpp</text>
</a>
</g>
</g>
<!-- Node5&#45;&gt;Node9 -->
<g id="edge8" class="edge">
<title>Node5&#45;&gt;Node9</title>
<path fill="none" stroke="midnightblue" d="M661.42,-66.93C796.07,-48 833.34,-57.61 962.5,-31 970.15,-29.42 978.33,-27.22 985.77,-25"/>
<polygon fill="midnightblue" stroke="midnightblue" points="660.52,-63.53 651.12,-68.41 661.52,-70.46 660.52,-63.53"/>
</g>
<!-- Node10 -->
<g id="node10" class="node">
<title>Node10</title>
<g id="a_node10"><a xlink:href="d__meter__map_8cpp.html" target="_top" xlink:title=" ">
<polygon fill="white" stroke="black" points="1070,-0.5 1070,-30.5 1185,-30.5 1185,-0.5 1070,-0.5"/>
<text text-anchor="start" x="1078" y="-18.5" font-family="Helvetica,sans-Serif" font-size="10.00">src/d/d_meter/d_meter</text>
<text text-anchor="middle" x="1127.5" y="-7.5" font-family="Helvetica,sans-Serif" font-size="10.00">_map.cpp</text>
</a>
</g>
</g>
<!-- Node5&#45;&gt;Node10 -->
<g id="edge9" class="edge">
<title>Node5&#45;&gt;Node10</title>
<path fill="none" stroke="midnightblue" d="M661.07,-67.01C839.21,-44.3 887.23,-57.44 1060.5,-31 1063.56,-30.53 1066.69,-30.01 1069.84,-29.45"/>
<polygon fill="midnightblue" stroke="midnightblue" points="660.57,-63.54 651.11,-68.3 661.47,-70.48 660.57,-63.54"/>
</g>
<!-- Node11 -->
<g id="node11" class="node">
<title>Node11</title>
<g id="a_node11"><a xlink:href="f__pc__manager_8cpp.html" target="_top" xlink:title=" ">
<polygon fill="white" stroke="black" points="1203.5,-6 1203.5,-25 1343.5,-25 1343.5,-6 1203.5,-6"/>
<text text-anchor="middle" x="1273.5" y="-13" font-family="Helvetica,sans-Serif" font-size="10.00">src/f/f_pc/f_pc_manager.cpp</text>
</a>
</g>
</g>
<!-- Node5&#45;&gt;Node11 -->
<g id="edge10" class="edge">
<title>Node5&#45;&gt;Node11</title>
<path fill="none" stroke="midnightblue" d="M661.07,-67.03C898.41,-39.32 961.69,-60.12 1194.5,-31 1206.68,-29.48 1219.82,-27.29 1231.82,-25.07"/>
<polygon fill="midnightblue" stroke="midnightblue" points="660.62,-63.56 651.1,-68.21 661.44,-70.51 660.62,-63.56"/>
</g>
<!-- Node12 -->
<g id="node12" class="node">
<title>Node12</title>
<g id="a_node12"><a xlink:href="m__Do__controller__pad_8cpp.html" target="_top" xlink:title=" ">
<polygon fill="white" stroke="black" points="301.5,-0.5 301.5,-30.5 433.5,-30.5 433.5,-0.5 301.5,-0.5"/>
<text text-anchor="start" x="309.5" y="-18.5" font-family="Helvetica,sans-Serif" font-size="10.00">src/m_Do/m_Do_controller</text>
<text text-anchor="middle" x="367.5" y="-7.5" font-family="Helvetica,sans-Serif" font-size="10.00">_pad.cpp</text>
</a>
</g>
</g>
<!-- Node5&#45;&gt;Node12 -->
<g id="edge11" class="edge">
<title>Node5&#45;&gt;Node12</title>
<path fill="none" stroke="midnightblue" d="M521.66,-64.44C487.78,-53.91 444.83,-40.55 412.87,-30.61"/>
<polygon fill="midnightblue" stroke="midnightblue" points="520.82,-67.85 531.41,-67.48 522.9,-61.16 520.82,-67.85"/>
</g>
<!-- Node13 -->
<g id="node13" class="node">
<title>Node13</title>
<g id="a_node13"><a xlink:href="d__a__alink_8cpp.html" target="_top" xlink:title=" ">
<polygon fill="white" stroke="black" points="452,-6 452,-25 571,-25 571,-6 452,-6"/>
<text text-anchor="middle" x="511.5" y="-13" font-family="Helvetica,sans-Serif" font-size="10.00">src/d/d_a/d_a_alink.cpp</text>
</a>
</g>
</g>
<!-- Node5&#45;&gt;Node13 -->
<g id="edge12" class="edge">
<title>Node5&#45;&gt;Node13</title>
<path fill="none" stroke="midnightblue" d="M555,-60C543.13,-48.13 529.05,-34.05 520.19,-25.19"/>
<polygon fill="midnightblue" stroke="midnightblue" points="552.85,-62.8 562.4,-67.4 557.8,-57.85 552.85,-62.8"/>
</g>
</g>
</svg>
