<?xml version="1.0" encoding="UTF-8" standalone="no"?>
<!DOCTYPE svg PUBLIC "-//W3C//DTD SVG 1.1//EN"
 "http://www.w3.org/Graphics/SVG/1.1/DTD/svg11.dtd">
<!-- Generated by graphviz version 2.47.0 (20210316.2052)
 -->
<!-- Title: include/SComponent/c_cc_d/c_cc_d.h Pages: 1 -->
<!--zoomable 509 -->
<svg id="main" version="1.1" xmlns="http://www.w3.org/2000/svg" xmlns:xlink="http://www.w3.org/1999/xlink" xml:space="preserve" onload="init(evt)">
<style type="text/css"><![CDATA[
.edge:hover path { stroke: red; }
.edge:hover polygon { stroke: red; fill: red; }
]]></style>
<script type="text/javascript"><![CDATA[
var edges = document.getElementsByTagName('g');
if (edges && edges.length) {
  for (var i=0;i<edges.length;i++) {
    if (edges[i].id.substr(0,4)=='edge') {
      edges[i].setAttribute('class','edge');
    }
  }
}
]]></script>
        <defs>
                <circle id="rim" cx="0" cy="0" r="7"/>
                <circle id="rim2" cx="0" cy="0" r="3.5"/>
                <g id="zoomPlus">
                        <use xlink:href="#rim" fill="#404040">
                                <set attributeName="fill" to="#808080" begin="zoomplus.mouseover" end="zoomplus.mouseout"/>
                        </use>
                        <path d="M-4,0h8M0,-4v8" fill="none" stroke="white" stroke-width="1.5" pointer-events="none"/>
                </g>
                <g id="zoomMin">
                        <use xlink:href="#rim" fill="#404040">
                                <set attributeName="fill" to="#808080" begin="zoomminus.mouseover" end="zoomminus.mouseout"/>
                        </use>
                        <path d="M-4,0h8" fill="none" stroke="white" stroke-width="1.5" pointer-events="none"/>
                </g>
                <g id="dirArrow">
                        <path fill="none" stroke="white" stroke-width="1.5" d="M0,-3.0v7 M-2.5,-0.5L0,-3.0L2.5,-0.5"/>
                </g>
               <g id="resetDef">
                       <use xlink:href="#rim2" fill="#404040">
                               <set attributeName="fill" to="#808080" begin="reset.mouseover" end="reset.mouseout"/>
                       </use>
               </g>
        </defs>

<script type="text/javascript">
var viewWidth = 483;
var viewHeight = 509;
var sectionId = 'dynsection-0';
</script>
<script xlink:href="svgpan.js"/>
<svg id="graph" class="graph">
<g id="viewport">
<title>include/SComponent/c_cc_d/c_cc_d.h</title>
<polygon fill="white" stroke="transparent" points="-4,4 -4,-505 479,-505 479,4 -4,4"/>
<!-- Node1 -->
<g id="node1" class="node">
<title>Node1</title>
<g id="a_node1"><a xlink:title=" ">
<polygon fill="#bfbfbf" stroke="black" points="229.5,-470.5 229.5,-500.5 336.5,-500.5 336.5,-470.5 229.5,-470.5"/>
<text text-anchor="start" x="237.5" y="-488.5" font-family="Helvetica,sans-Serif" font-size="10.00">include/SComponent</text>
<text text-anchor="middle" x="283" y="-477.5" font-family="Helvetica,sans-Serif" font-size="10.00">/c_cc_d/c_cc_d.h</text>
</a>
</g>
</g>
<!-- Node2 -->
<g id="node2" class="node">
<title>Node2</title>
<g id="a_node2"><a xlink:href="c__m3d__g__aab_8h.html" target="_top" xlink:title=" ">
<polygon fill="white" stroke="black" points="359,-336.5 359,-366.5 475,-366.5 475,-336.5 359,-336.5"/>
<text text-anchor="start" x="367" y="-354.5" font-family="Helvetica,sans-Serif" font-size="10.00">SComponent/c_m3d_g</text>
<text text-anchor="middle" x="417" y="-343.5" font-family="Helvetica,sans-Serif" font-size="10.00">_aab.h</text>
</a>
</g>
</g>
<!-- Node1&#45;&gt;Node2 -->
<g id="edge1" class="edge">
<title>Node1&#45;&gt;Node2</title>
<path fill="none" stroke="midnightblue" d="M297.34,-470.37C320.92,-447.15 367.99,-400.78 395.54,-373.64"/>
<polygon fill="midnightblue" stroke="midnightblue" points="398.09,-376.04 402.76,-366.52 393.18,-371.05 398.09,-376.04"/>
</g>
<!-- Node13 -->
<g id="node13" class="node">
<title>Node13</title>
<g id="a_node13"><a xlink:href="c__m3d__g__cps_8h.html" target="_top" xlink:title=" ">
<polygon fill="white" stroke="black" points="96,-403.5 96,-433.5 212,-433.5 212,-403.5 96,-403.5"/>
<text text-anchor="start" x="104" y="-421.5" font-family="Helvetica,sans-Serif" font-size="10.00">SComponent/c_m3d_g</text>
<text text-anchor="middle" x="154" y="-410.5" font-family="Helvetica,sans-Serif" font-size="10.00">_cps.h</text>
</a>
</g>
</g>
<!-- Node1&#45;&gt;Node13 -->
<g id="edge19" class="edge">
<title>Node1&#45;&gt;Node13</title>
<path fill="none" stroke="midnightblue" d="M255.01,-470.4C236.25,-460.94 211.33,-448.39 190.95,-438.12"/>
<polygon fill="midnightblue" stroke="midnightblue" points="192.44,-434.95 181.94,-433.58 189.29,-441.2 192.44,-434.95"/>
</g>
<!-- Node15 -->
<g id="node15" class="node">
<title>Node15</title>
<g id="a_node15"><a xlink:href="c__m3d__g__cyl_8h.html" target="_top" xlink:title=" ">
<polygon fill="white" stroke="black" points="225,-336.5 225,-366.5 341,-366.5 341,-336.5 225,-336.5"/>
<text text-anchor="start" x="233" y="-354.5" font-family="Helvetica,sans-Serif" font-size="10.00">SComponent/c_m3d_g</text>
<text text-anchor="middle" x="283" y="-343.5" font-family="Helvetica,sans-Serif" font-size="10.00">_cyl.h</text>
</a>
</g>
</g>
<!-- Node1&#45;&gt;Node15 -->
<g id="edge25" class="edge">
<title>Node1&#45;&gt;Node15</title>
<path fill="none" stroke="midnightblue" d="M283,-470.37C283,-448.04 283,-404.31 283,-376.85"/>
<polygon fill="midnightblue" stroke="midnightblue" points="286.5,-376.52 283,-366.52 279.5,-376.52 286.5,-376.52"/>
</g>
<!-- Node3 -->
<g id="node3" class="node">
<title>Node3</title>
<g id="a_node3"><a xlink:href="c__xyz_8h.html" target="_top" xlink:title=" ">
<polygon fill="white" stroke="black" points="192.5,-280.5 192.5,-299.5 299.5,-299.5 299.5,-280.5 192.5,-280.5"/>
<text text-anchor="middle" x="246" y="-287.5" font-family="Helvetica,sans-Serif" font-size="10.00">SComponent/c_xyz.h</text>
</a>
</g>
</g>
<!-- Node2&#45;&gt;Node3 -->
<g id="edge2" class="edge">
<title>Node2&#45;&gt;Node3</title>
<path fill="none" stroke="midnightblue" d="M376.48,-336.4C347.27,-326.24 308.28,-312.67 280.55,-303.02"/>
<polygon fill="midnightblue" stroke="midnightblue" points="281.48,-299.64 270.88,-299.66 279.18,-306.25 281.48,-299.64"/>
</g>
<!-- Node5 -->
<g id="node5" class="node">
<title>Node5</title>
<g id="a_node5"><a xlink:href="global_8h.html" target="_top" xlink:title=" ">
<polygon fill="white" stroke="black" points="141,-168.5 141,-187.5 191,-187.5 191,-168.5 141,-168.5"/>
<text text-anchor="middle" x="166" y="-175.5" font-family="Helvetica,sans-Serif" font-size="10.00">global.h</text>
</a>
</g>
</g>
<!-- Node2&#45;&gt;Node5 -->
<g id="edge18" class="edge">
<title>Node2&#45;&gt;Node5</title>
<path fill="none" stroke="midnightblue" d="M405.83,-336.41C384.85,-310.79 337.06,-256.25 286,-224 259.55,-207.29 225.95,-195.36 201.03,-188"/>
<polygon fill="midnightblue" stroke="midnightblue" points="201.85,-184.59 191.27,-185.22 199.93,-191.33 201.85,-184.59"/>
</g>
<!-- Node4 -->
<g id="node4" class="node">
<title>Node4</title>
<g id="a_node4"><a xlink:href="c__math_8h.html" target="_top" xlink:title=" ">
<polygon fill="white" stroke="black" points="108,-224.5 108,-243.5 224,-243.5 224,-224.5 108,-224.5"/>
<text text-anchor="middle" x="166" y="-231.5" font-family="Helvetica,sans-Serif" font-size="10.00">SComponent/c_math.h</text>
</a>
</g>
</g>
<!-- Node3&#45;&gt;Node4 -->
<g id="edge3" class="edge">
<title>Node3&#45;&gt;Node4</title>
<path fill="none" stroke="midnightblue" d="M233.15,-280.32C220.78,-271.98 201.87,-259.21 187.26,-249.35"/>
<polygon fill="midnightblue" stroke="midnightblue" points="189.07,-246.35 178.82,-243.65 185.15,-252.15 189.07,-246.35"/>
</g>
<!-- Node3&#45;&gt;Node5 -->
<g id="edge15" class="edge">
<title>Node3&#45;&gt;Node5</title>
<path fill="none" stroke="midnightblue" d="M246.28,-280.21C246.29,-266.93 244.62,-241.42 233,-224 223.84,-210.27 208.92,-199.64 195.48,-192.18"/>
<polygon fill="midnightblue" stroke="midnightblue" points="196.99,-189.02 186.51,-187.51 193.76,-195.23 196.99,-189.02"/>
</g>
<!-- Node12 -->
<g id="node12" class="node">
<title>Node12</title>
<g id="a_node12"><a xlink:href="mtx__vec_8h.html" target="_top" xlink:title=" ">
<polygon fill="white" stroke="black" points="267.5,-168.5 267.5,-187.5 328.5,-187.5 328.5,-168.5 267.5,-168.5"/>
<text text-anchor="middle" x="298" y="-175.5" font-family="Helvetica,sans-Serif" font-size="10.00">mtx_vec.h</text>
</a>
</g>
</g>
<!-- Node3&#45;&gt;Node12 -->
<g id="edge16" class="edge">
<title>Node3&#45;&gt;Node12</title>
<path fill="none" stroke="midnightblue" d="M250.08,-280.37C258.55,-262.46 278.18,-220.92 289.52,-196.95"/>
<polygon fill="midnightblue" stroke="midnightblue" points="292.83,-198.13 293.94,-187.59 286.5,-195.14 292.83,-198.13"/>
</g>
<!-- Node4&#45;&gt;Node5 -->
<g id="edge4" class="edge">
<title>Node4&#45;&gt;Node5</title>
<path fill="none" stroke="midnightblue" d="M166,-224.08C166,-217.01 166,-206.86 166,-197.99"/>
<polygon fill="midnightblue" stroke="midnightblue" points="169.5,-197.75 166,-187.75 162.5,-197.75 169.5,-197.75"/>
</g>
<!-- Node6 -->
<g id="node6" class="node">
<title>Node6</title>
<g id="a_node6"><a xlink:href="types_8h.html" target="_top" xlink:title=" ">
<polygon fill="white" stroke="black" points="140.5,-0.5 140.5,-19.5 221.5,-19.5 221.5,-0.5 140.5,-0.5"/>
<text text-anchor="middle" x="181" y="-7.5" font-family="Helvetica,sans-Serif" font-size="10.00">dolphin/types.h</text>
</a>
</g>
</g>
<!-- Node5&#45;&gt;Node6 -->
<g id="edge5" class="edge">
<title>Node5&#45;&gt;Node6</title>
<path fill="none" stroke="midnightblue" d="M170.88,-168.37C175.56,-159.55 182.31,-145.3 185,-132 192.2,-96.42 187.87,-53.76 184.28,-29.78"/>
<polygon fill="midnightblue" stroke="midnightblue" points="187.69,-28.93 182.64,-19.62 180.78,-30.05 187.69,-28.93"/>
</g>
<!-- Node7 -->
<g id="node7" class="node">
<title>Node7</title>
<g id="a_node7"><a xlink:href="AR_8h.html" target="_top" xlink:title=" ">
<polygon fill="white" stroke="black" points="228.5,-56.5 228.5,-75.5 277.5,-75.5 277.5,-56.5 228.5,-56.5"/>
<text text-anchor="middle" x="253" y="-63.5" font-family="Helvetica,sans-Serif" font-size="10.00">ar/AR.h</text>
</a>
</g>
</g>
<!-- Node5&#45;&gt;Node7 -->
<g id="edge6" class="edge">
<title>Node5&#45;&gt;Node7</title>
<path fill="none" stroke="midnightblue" d="M178.27,-168.42C189.59,-160.06 206.35,-146.53 218,-132 229.63,-117.5 239.31,-98.56 245.53,-84.88"/>
<polygon fill="midnightblue" stroke="midnightblue" points="248.79,-86.16 249.57,-75.59 242.37,-83.36 248.79,-86.16"/>
</g>
<!-- Node8 -->
<g id="node8" class="node">
<title>Node8</title>
<g id="a_node8"><a xlink:href="ARQ_8h.html" target="_top" xlink:title=" ">
<polygon fill="white" stroke="black" points="0,-56.5 0,-75.5 56,-75.5 56,-56.5 0,-56.5"/>
<text text-anchor="middle" x="28" y="-63.5" font-family="Helvetica,sans-Serif" font-size="10.00">ar/ARQ.h</text>
</a>
</g>
</g>
<!-- Node5&#45;&gt;Node8 -->
<g id="edge8" class="edge">
<title>Node5&#45;&gt;Node8</title>
<path fill="none" stroke="midnightblue" d="M140.97,-174.12C114.04,-169.71 71.76,-158.74 47,-132 35.4,-119.47 30.85,-100.25 29.08,-85.95"/>
<polygon fill="midnightblue" stroke="midnightblue" points="32.55,-85.42 28.18,-75.77 25.57,-86.04 32.55,-85.42"/>
</g>
<!-- Node9 -->
<g id="node9" class="node">
<title>Node9</title>
<g id="a_node9"><a xlink:href="mwcc_8h.html" target="_top" xlink:title=" ">
<polygon fill="white" stroke="black" points="126,-112.5 126,-131.5 176,-131.5 176,-112.5 126,-112.5"/>
<text text-anchor="middle" x="151" y="-119.5" font-family="Helvetica,sans-Serif" font-size="10.00">mwcc.h</text>
</a>
</g>
</g>
<!-- Node5&#45;&gt;Node9 -->
<g id="edge10" class="edge">
<title>Node5&#45;&gt;Node9</title>
<path fill="none" stroke="midnightblue" d="M163.52,-168.08C161.51,-160.85 158.61,-150.41 156.11,-141.4"/>
<polygon fill="midnightblue" stroke="midnightblue" points="159.48,-140.45 153.43,-131.75 152.74,-142.32 159.48,-140.45"/>
</g>
<!-- Node10 -->
<g id="node10" class="node">
<title>Node10</title>
<g id="a_node10"><a xlink:href="OS_8h.html" target="_top" xlink:title=" ">
<polygon fill="white" stroke="black" points="56,-112.5 56,-131.5 108,-131.5 108,-112.5 56,-112.5"/>
<text text-anchor="middle" x="82" y="-119.5" font-family="Helvetica,sans-Serif" font-size="10.00">os/OS.h</text>
</a>
</g>
</g>
<!-- Node5&#45;&gt;Node10 -->
<g id="edge11" class="edge">
<title>Node5&#45;&gt;Node10</title>
<path fill="none" stroke="midnightblue" d="M152.5,-168.32C139.4,-159.9 119.29,-146.97 103.89,-137.07"/>
<polygon fill="midnightblue" stroke="midnightblue" points="105.77,-134.12 95.46,-131.65 101.98,-140.01 105.77,-134.12"/>
</g>
<!-- Node7&#45;&gt;Node6 -->
<g id="edge7" class="edge">
<title>Node7&#45;&gt;Node6</title>
<path fill="none" stroke="midnightblue" d="M241.43,-56.32C230.58,-48.18 214.12,-35.84 201.12,-26.09"/>
<polygon fill="midnightblue" stroke="midnightblue" points="202.88,-23.03 192.78,-19.83 198.68,-28.63 202.88,-23.03"/>
</g>
<!-- Node8&#45;&gt;Node6 -->
<g id="edge9" class="edge">
<title>Node8&#45;&gt;Node6</title>
<path fill="none" stroke="midnightblue" d="M52.24,-56.44C77.87,-47.4 118.49,-33.06 147.24,-22.92"/>
<polygon fill="midnightblue" stroke="midnightblue" points="148.61,-26.15 156.87,-19.52 146.28,-19.54 148.61,-26.15"/>
</g>
<!-- Node10&#45;&gt;Node6 -->
<g id="edge12" class="edge">
<title>Node10&#45;&gt;Node6</title>
<path fill="none" stroke="midnightblue" d="M96.59,-112.35C109.59,-104.15 128.57,-90.89 142,-76 154.78,-61.83 165.6,-42.85 172.57,-29.06"/>
<polygon fill="midnightblue" stroke="midnightblue" points="175.9,-30.22 177.13,-19.7 169.61,-27.16 175.9,-30.22"/>
</g>
<!-- Node11 -->
<g id="node11" class="node">
<title>Node11</title>
<g id="a_node11"><a xlink:href="dvd_8h.html" target="_top" xlink:title=" ">
<polygon fill="white" stroke="black" points="74.5,-56.5 74.5,-75.5 133.5,-75.5 133.5,-56.5 74.5,-56.5"/>
<text text-anchor="middle" x="104" y="-63.5" font-family="Helvetica,sans-Serif" font-size="10.00">dvd/dvd.h</text>
</a>
</g>
</g>
<!-- Node10&#45;&gt;Node11 -->
<g id="edge13" class="edge">
<title>Node10&#45;&gt;Node11</title>
<path fill="none" stroke="midnightblue" d="M85.63,-112.08C88.61,-104.77 92.93,-94.18 96.62,-85.1"/>
<polygon fill="midnightblue" stroke="midnightblue" points="99.9,-86.33 100.43,-75.75 93.42,-83.69 99.9,-86.33"/>
</g>
<!-- Node11&#45;&gt;Node6 -->
<g id="edge14" class="edge">
<title>Node11&#45;&gt;Node6</title>
<path fill="none" stroke="midnightblue" d="M116.37,-56.32C128.16,-48.06 146.13,-35.45 160.14,-25.63"/>
<polygon fill="midnightblue" stroke="midnightblue" points="162.48,-28.26 168.66,-19.65 158.46,-22.53 162.48,-28.26"/>
</g>
<!-- Node12&#45;&gt;Node6 -->
<g id="edge17" class="edge">
<title>Node12&#45;&gt;Node6</title>
<path fill="none" stroke="midnightblue" d="M299.87,-168.35C303.96,-146.95 311.45,-90.74 286,-56 273,-38.27 251.57,-27.45 231.45,-20.89"/>
<polygon fill="midnightblue" stroke="midnightblue" points="232.3,-17.49 221.72,-18 230.31,-24.2 232.3,-17.49"/>
</g>
<!-- Node13&#45;&gt;Node3 -->
<g id="edge23" class="edge">
<title>Node13&#45;&gt;Node3</title>
<path fill="none" stroke="midnightblue" d="M164.2,-403.48C181.2,-380.1 215.27,-333.25 233.62,-308.02"/>
<polygon fill="midnightblue" stroke="midnightblue" points="236.56,-309.93 239.61,-299.79 230.9,-305.82 236.56,-309.93"/>
</g>
<!-- Node13&#45;&gt;Node5 -->
<g id="edge24" class="edge">
<title>Node13&#45;&gt;Node5</title>
<path fill="none" stroke="midnightblue" d="M95.9,-404.58C75.97,-397.07 55.74,-385.31 44,-367 36.56,-355.4 41.38,-349.53 44,-336 54.19,-283.33 53.95,-264.61 89,-224 101.06,-210.02 118.6,-199.3 133.89,-191.84"/>
<polygon fill="midnightblue" stroke="midnightblue" points="135.43,-194.98 143.05,-187.61 132.5,-188.62 135.43,-194.98"/>
</g>
<!-- Node14 -->
<g id="node14" class="node">
<title>Node14</title>
<g id="a_node14"><a xlink:href="c__m3d__g__lin_8h.html" target="_top" xlink:title=" ">
<polygon fill="white" stroke="black" points="53,-336.5 53,-366.5 169,-366.5 169,-336.5 53,-336.5"/>
<text text-anchor="start" x="61" y="-354.5" font-family="Helvetica,sans-Serif" font-size="10.00">SComponent/c_m3d_g</text>
<text text-anchor="middle" x="111" y="-343.5" font-family="Helvetica,sans-Serif" font-size="10.00">_lin.h</text>
</a>
</g>
</g>
<!-- Node13&#45;&gt;Node14 -->
<g id="edge20" class="edge">
<title>Node13&#45;&gt;Node14</title>
<path fill="none" stroke="midnightblue" d="M144.67,-403.4C139.2,-395.13 132.17,-384.51 125.95,-375.1"/>
<polygon fill="midnightblue" stroke="midnightblue" points="128.75,-372.99 120.31,-366.58 122.91,-376.85 128.75,-372.99"/>
</g>
<!-- Node14&#45;&gt;Node3 -->
<g id="edge21" class="edge">
<title>Node14&#45;&gt;Node3</title>
<path fill="none" stroke="midnightblue" d="M142.99,-336.4C165.44,-326.51 195.21,-313.38 216.98,-303.79"/>
<polygon fill="midnightblue" stroke="midnightblue" points="218.62,-306.89 226.36,-299.66 215.79,-300.49 218.62,-306.89"/>
</g>
<!-- Node14&#45;&gt;Node5 -->
<g id="edge22" class="edge">
<title>Node14&#45;&gt;Node5</title>
<path fill="none" stroke="midnightblue" d="M104.78,-336.21C95.11,-311.67 79.49,-260.6 99,-224 106.55,-209.83 120.76,-199.33 134.16,-192.06"/>
<polygon fill="midnightblue" stroke="midnightblue" points="135.83,-195.13 143.21,-187.53 132.7,-188.87 135.83,-195.13"/>
</g>
<!-- Node15&#45;&gt;Node3 -->
<g id="edge26" class="edge">
<title>Node15&#45;&gt;Node3</title>
<path fill="none" stroke="midnightblue" d="M274.23,-336.4C269.02,-328.02 262.37,-317.33 256.83,-308.42"/>
<polygon fill="midnightblue" stroke="midnightblue" points="259.64,-306.3 251.38,-299.66 253.69,-310 259.64,-306.3"/>
</g>
<!-- Node15&#45;&gt;Node5 -->
<g id="edge27" class="edge">
<title>Node15&#45;&gt;Node5</title>
<path fill="none" stroke="midnightblue" d="M294.26,-336.29C304.2,-321.94 315.95,-299.2 308,-280 289.06,-234.27 236.32,-205.74 200.73,-191.1"/>
<polygon fill="midnightblue" stroke="midnightblue" points="201.77,-187.75 191.19,-187.34 199.21,-194.26 201.77,-187.75"/>
</g>
</g>
</svg>
        <g id="navigator" transform="translate(0 0)" fill="#404254">
                <rect fill="#f2f5e9" fill-opacity="0.5" stroke="#606060" stroke-width=".5" x="0" y="0" width="60" height="60"/>
                <use id="zoomplus" xlink:href="#zoomPlus" x="17" y="9" onmousedown="handleZoom(evt,'in')"/>
                <use id="zoomminus" xlink:href="#zoomMin" x="42" y="9" onmousedown="handleZoom(evt,'out')"/>
                <use id="reset" xlink:href="#resetDef" x="30" y="36" onmousedown="handleReset()"/>
                <g id="arrowUp" xlink:href="#dirArrow" transform="translate(30 24)" onmousedown="handlePan(0,-1)">
                  <use xlink:href="#rim" fill="#404040">
                        <set attributeName="fill" to="#808080" begin="arrowUp.mouseover" end="arrowUp.mouseout"/>
                  </use>
                  <path fill="none" stroke="white" stroke-width="1.5" d="M0,-3.0v7 M-2.5,-0.5L0,-3.0L2.5,-0.5"/>
                </g>
                <g id="arrowRight" xlink:href="#dirArrow" transform="rotate(90) translate(36 -43)" onmousedown="handlePan(1,0)">
                  <use xlink:href="#rim" fill="#404040">
                        <set attributeName="fill" to="#808080" begin="arrowRight.mouseover" end="arrowRight.mouseout"/>
                  </use>
                  <path fill="none" stroke="white" stroke-width="1.5" d="M0,-3.0v7 M-2.5,-0.5L0,-3.0L2.5,-0.5"/>
                </g>
                <g id="arrowDown" xlink:href="#dirArrow" transform="rotate(180) translate(-30 -48)" onmousedown="handlePan(0,1)">
                  <use xlink:href="#rim" fill="#404040">
                        <set attributeName="fill" to="#808080" begin="arrowDown.mouseover" end="arrowDown.mouseout"/>
                  </use>
                  <path fill="none" stroke="white" stroke-width="1.5" d="M0,-3.0v7 M-2.5,-0.5L0,-3.0L2.5,-0.5"/>
                </g>
                <g id="arrowLeft" xlink:href="#dirArrow" transform="rotate(270) translate(-36 17)" onmousedown="handlePan(-1,0)">
                  <use xlink:href="#rim" fill="#404040">
                        <set attributeName="fill" to="#808080" begin="arrowLeft.mouseover" end="arrowLeft.mouseout"/>
                  </use>
                  <path fill="none" stroke="white" stroke-width="1.5" d="M0,-3.0v7 M-2.5,-0.5L0,-3.0L2.5,-0.5"/>
                </g>
        </g>
        <svg viewBox="0 0 15 15" width="100%" height="30px" preserveAspectRatio="xMaxYMin meet">
         <g id="arrow_out" transform="scale(0.3 0.3)">
          <a xlink:href="c__cc__d_8h__incl_org.svg" target="_base">
           <rect id="button" ry="5" rx="5" y="6" x="6" height="38" width="38"
                fill="#f2f5e9" fill-opacity="0.5" stroke="#606060" stroke-width="1.0"/>
           <path id="arrow"
             d="M 11.500037,31.436501 C 11.940474,20.09759 22.043105,11.32322 32.158766,21.979434 L 37.068811,17.246167 C 37.068811,17.246167 37.088388,32 37.088388,32 L 22.160133,31.978069 C 22.160133,31.978069 26.997745,27.140456 26.997745,27.140456 C 18.528582,18.264221 13.291696,25.230495 11.500037,31.436501 z"
             style="fill:#404040;"/>
          </a>
         </g>
        </svg>
</svg>
