<?xml version="1.0" encoding="UTF-8" standalone="no"?>
<!DOCTYPE svg PUBLIC "-//W3C//DTD SVG 1.1//EN"
 "http://www.w3.org/Graphics/SVG/1.1/DTD/svg11.dtd">
<!-- Generated by graphviz version 7.0.5 (20221223.1930)
 -->
<!-- Title: libs/SSystem/SComponent/c_m3d_g_tri.cpp Pages: 1 -->
<svg width="272pt" height="401pt"
 viewBox="0.00 0.00 272.20 401.00" xmlns="http://www.w3.org/2000/svg" xmlns:xlink="http://www.w3.org/1999/xlink">
<g id="graph0" class="graph" transform="scale(1 1) rotate(0) translate(4 397)">
<title>libs/SSystem/SComponent/c_m3d_g_tri.cpp</title>
<!-- Node1 -->
<g id="node1" class="node">
<title>Node1</title>
<g id="a_node1"><a xlink:title=" ">
<polygon fill="#999999" stroke="#666666" points="180,-393 46,-393 46,-363 180,-363 180,-393"/>
<text text-anchor="start" x="54" y="-381" font-family="Helvetica,sans-Serif" font-size="10.00">libs/SSystem/SComponent</text>
<text text-anchor="middle" x="113" y="-370" font-family="Helvetica,sans-Serif" font-size="10.00">/c_m3d_g_tri.cpp</text>
</a>
</g>
</g>
<!-- Node2 -->
<g id="node2" class="node">
<title>Node2</title>
<g id="a_node2"><a xlink:href="c__m3d__g__tri_8h.html" target="_top" xlink:title=" ">
<polygon fill="white" stroke="#666666" points="226,-327 110,-327 110,-297 226,-297 226,-327"/>
<text text-anchor="start" x="118" y="-315" font-family="Helvetica,sans-Serif" font-size="10.00">SSystem/SComponent</text>
<text text-anchor="middle" x="168" y="-304" font-family="Helvetica,sans-Serif" font-size="10.00">/c_m3d_g_tri.h</text>
</a>
</g>
</g>
<!-- Node1&#45;&gt;Node2 -->
<g id="edge1" class="edge">
<title>Node1&#45;&gt;Node2</title>
<path fill="none" stroke="#63b8ff" d="M125.21,-362.8C132.04,-354.84 140.73,-344.74 148.48,-335.71"/>
<polygon fill="#63b8ff" stroke="#63b8ff" points="150.98,-338.18 154.84,-328.31 145.67,-333.61 150.98,-338.18"/>
</g>
<!-- Node11 -->
<g id="node11" class="node">
<title>Node11</title>
<g id="a_node11"><a xlink:href="c__m3d_8h.html" target="_top" xlink:title=" ">
<polygon fill="white" stroke="#666666" points="116,-195 0,-195 0,-165 116,-165 116,-195"/>
<text text-anchor="start" x="8" y="-183" font-family="Helvetica,sans-Serif" font-size="10.00">SSystem/SComponent</text>
<text text-anchor="middle" x="58" y="-172" font-family="Helvetica,sans-Serif" font-size="10.00">/c_m3d.h</text>
</a>
</g>
</g>
<!-- Node1&#45;&gt;Node11 -->
<g id="edge15" class="edge">
<title>Node1&#45;&gt;Node11</title>
<path fill="none" stroke="#63b8ff" d="M108.96,-362.59C99.68,-329.53 76.77,-247.89 65.09,-206.27"/>
<polygon fill="#63b8ff" stroke="#63b8ff" points="68.53,-205.57 62.46,-196.89 61.79,-207.46 68.53,-205.57"/>
</g>
<!-- Node3 -->
<g id="node3" class="node">
<title>Node3</title>
<g id="a_node3"><a xlink:href="c__m3d__g__pla_8h.html" target="_top" xlink:title=" ">
<polygon fill="white" stroke="#666666" points="226,-261 110,-261 110,-231 226,-231 226,-261"/>
<text text-anchor="start" x="118" y="-249" font-family="Helvetica,sans-Serif" font-size="10.00">SSystem/SComponent</text>
<text text-anchor="middle" x="168" y="-238" font-family="Helvetica,sans-Serif" font-size="10.00">/c_m3d_g_pla.h</text>
</a>
</g>
</g>
<!-- Node2&#45;&gt;Node3 -->
<g id="edge2" class="edge">
<title>Node2&#45;&gt;Node3</title>
<path fill="none" stroke="#63b8ff" d="M168,-296.8C168,-289.67 168,-280.82 168,-272.56"/>
<polygon fill="#63b8ff" stroke="#63b8ff" points="171.5,-272.68 168,-262.68 164.5,-272.68 171.5,-272.68"/>
</g>
<!-- Node9 -->
<g id="node9" class="node">
<title>Node9</title>
<g id="a_node9"><a xlink:href="types_8h.html" target="_top" xlink:title=" ">
<polygon fill="white" stroke="#666666" points="234.5,-74 153.5,-74 153.5,-55 234.5,-55 234.5,-74"/>
<text text-anchor="middle" x="194" y="-62" font-family="Helvetica,sans-Serif" font-size="10.00">dolphin/types.h</text>
</a>
</g>
</g>
<!-- Node2&#45;&gt;Node9 -->
<g id="edge14" class="edge">
<title>Node2&#45;&gt;Node9</title>
<path fill="none" stroke="#63b8ff" d="M194.18,-296.56C207.95,-287.82 224.18,-275.56 235,-261 253.62,-235.95 253.58,-225.74 259,-195 265.6,-157.54 268.4,-142.72 249,-110 241.95,-98.11 230.47,-88.07 219.81,-80.56"/>
<polygon fill="#63b8ff" stroke="#63b8ff" points="221.96,-77.78 211.68,-75.22 218.12,-83.63 221.96,-77.78"/>
</g>
<!-- Node4 -->
<g id="node4" class="node">
<title>Node4</title>
<g id="a_node4"><a xlink:href="c__xyz_8h.html" target="_top" xlink:title=" ">
<polygon fill="white" stroke="#666666" points="250,-195 134,-195 134,-165 250,-165 250,-195"/>
<text text-anchor="start" x="142" y="-183" font-family="Helvetica,sans-Serif" font-size="10.00">SSystem/SComponent</text>
<text text-anchor="middle" x="192" y="-172" font-family="Helvetica,sans-Serif" font-size="10.00">/c_xyz.h</text>
</a>
</g>
</g>
<!-- Node3&#45;&gt;Node4 -->
<g id="edge3" class="edge">
<title>Node3&#45;&gt;Node4</title>
<path fill="none" stroke="#63b8ff" d="M173.33,-230.8C176.09,-223.42 179.55,-214.2 182.74,-205.7"/>
<polygon fill="#63b8ff" stroke="#63b8ff" points="185.92,-207.17 186.16,-196.58 179.37,-204.72 185.92,-207.17"/>
</g>
<!-- Node3&#45;&gt;Node11 -->
<g id="edge10" class="edge">
<title>Node3&#45;&gt;Node11</title>
<path fill="none" stroke="#63b8ff" d="M143.31,-230.64C128.31,-221.91 108.93,-210.63 92.44,-201.04"/>
<polygon fill="#63b8ff" stroke="#63b8ff" points="94.32,-198.08 83.91,-196.08 90.8,-204.13 94.32,-198.08"/>
</g>
<!-- Node5 -->
<g id="node5" class="node">
<title>Node5</title>
<g id="a_node5"><a xlink:href="math_8h.html" target="_top" xlink:title=" ">
<polygon fill="white" stroke="#666666" points="130,-129 84,-129 84,-110 130,-110 130,-129"/>
<text text-anchor="middle" x="107" y="-117" font-family="Helvetica,sans-Serif" font-size="10.00">math.h</text>
</a>
</g>
</g>
<!-- Node4&#45;&gt;Node5 -->
<g id="edge4" class="edge">
<title>Node4&#45;&gt;Node5</title>
<path fill="none" stroke="#63b8ff" d="M170.99,-164.54C158.14,-155.7 141.73,-144.4 128.75,-135.47"/>
<polygon fill="#63b8ff" stroke="#63b8ff" points="131.07,-132.82 120.85,-130.03 127.11,-138.59 131.07,-132.82"/>
</g>
<!-- Node8 -->
<g id="node8" class="node">
<title>Node8</title>
<g id="a_node8"><a xlink:href="vec_8h.html" target="_top" xlink:title=" ">
<polygon fill="white" stroke="#666666" points="240,-129 148,-129 148,-110 240,-110 240,-129"/>
<text text-anchor="middle" x="194" y="-117" font-family="Helvetica,sans-Serif" font-size="10.00">dolphin/mtx/vec.h</text>
</a>
</g>
</g>
<!-- Node4&#45;&gt;Node8 -->
<g id="edge7" class="edge">
<title>Node4&#45;&gt;Node8</title>
<path fill="none" stroke="#63b8ff" d="M192.49,-164.54C192.74,-157.34 193.04,-148.53 193.31,-140.68"/>
<polygon fill="#63b8ff" stroke="#63b8ff" points="196.81,-140.8 193.65,-130.69 189.81,-140.56 196.81,-140.8"/>
</g>
<!-- Node6 -->
<g id="node6" class="node">
<title>Node6</title>
<g id="a_node6"><a xlink:href="float_8h.html" target="_top" xlink:title=" ">
<polygon fill="white" stroke="#666666" points="128,-74 86,-74 86,-55 128,-55 128,-74"/>
<text text-anchor="middle" x="107" y="-62" font-family="Helvetica,sans-Serif" font-size="10.00">float.h</text>
</a>
</g>
</g>
<!-- Node5&#45;&gt;Node6 -->
<g id="edge5" class="edge">
<title>Node5&#45;&gt;Node6</title>
<path fill="none" stroke="#63b8ff" d="M107,-109.75C107,-103.27 107,-94.16 107,-85.9"/>
<polygon fill="#63b8ff" stroke="#63b8ff" points="110.5,-85.96 107,-75.96 103.5,-85.96 110.5,-85.96"/>
</g>
<!-- Node7 -->
<g id="node7" class="node">
<title>Node7</title>
<g id="a_node7"><a xlink:href="fdlibm_8h.html" target="_top" xlink:title=" ">
<polygon fill="white" stroke="#666666" points="132,-19 82,-19 82,0 132,0 132,-19"/>
<text text-anchor="middle" x="107" y="-7" font-family="Helvetica,sans-Serif" font-size="10.00">fdlibm.h</text>
</a>
</g>
</g>
<!-- Node6&#45;&gt;Node7 -->
<g id="edge6" class="edge">
<title>Node6&#45;&gt;Node7</title>
<path fill="none" stroke="#63b8ff" d="M107,-54.75C107,-48.27 107,-39.16 107,-30.9"/>
<polygon fill="#63b8ff" stroke="#63b8ff" points="110.5,-30.96 107,-20.96 103.5,-30.96 110.5,-30.96"/>
</g>
<!-- Node8&#45;&gt;Node9 -->
<g id="edge8" class="edge">
<title>Node8&#45;&gt;Node9</title>
<path fill="none" stroke="#63b8ff" d="M194,-109.75C194,-103.27 194,-94.16 194,-85.9"/>
<polygon fill="#63b8ff" stroke="#63b8ff" points="197.5,-85.96 194,-75.96 190.5,-85.96 197.5,-85.96"/>
</g>
<!-- Node10 -->
<g id="node10" class="node">
<title>Node10</title>
<g id="a_node10"><a xlink:href="stddef_8h.html" target="_top" xlink:title=" ">
<polygon fill="white" stroke="#666666" points="219.5,-19 168.5,-19 168.5,0 219.5,0 219.5,-19"/>
<text text-anchor="middle" x="194" y="-7" font-family="Helvetica,sans-Serif" font-size="10.00">stddef.h</text>
</a>
</g>
</g>
<!-- Node9&#45;&gt;Node10 -->
<g id="edge9" class="edge">
<title>Node9&#45;&gt;Node10</title>
<path fill="none" stroke="#63b8ff" d="M194,-54.75C194,-48.27 194,-39.16 194,-30.9"/>
<polygon fill="#63b8ff" stroke="#63b8ff" points="197.5,-30.96 194,-20.96 190.5,-30.96 197.5,-30.96"/>
</g>
<!-- Node11&#45;&gt;Node5 -->
<g id="edge11" class="edge">
<title>Node11&#45;&gt;Node5</title>
<path fill="none" stroke="#63b8ff" d="M70.11,-164.54C76.87,-156.48 85.32,-146.38 92.44,-137.89"/>
<polygon fill="#63b8ff" stroke="#63b8ff" points="95.02,-140.25 98.76,-130.34 89.66,-135.75 95.02,-140.25"/>
</g>
<!-- Node11&#45;&gt;Node8 -->
<g id="edge13" class="edge">
<title>Node11&#45;&gt;Node8</title>
<path fill="none" stroke="#63b8ff" d="M91.62,-164.54C113.45,-155.15 141.71,-142.99 163,-133.83"/>
<polygon fill="#63b8ff" stroke="#63b8ff" points="164.24,-137.11 172.04,-129.94 161.47,-130.68 164.24,-137.11"/>
</g>
<!-- Node11&#45;&gt;Node9 -->
<g id="edge12" class="edge">
<title>Node11&#45;&gt;Node9</title>
<path fill="none" stroke="#63b8ff" d="M57.8,-164.53C58.35,-149.18 61.55,-125.11 75,-110 92.22,-90.66 118.67,-79.69 142.27,-73.5"/>
<polygon fill="#63b8ff" stroke="#63b8ff" points="142.82,-76.96 151.74,-71.25 141.21,-70.15 142.82,-76.96"/>
</g>
</g>
</svg>
