<?xml version="1.0" encoding="UTF-8" standalone="no"?>
<!DOCTYPE svg PUBLIC "-//W3C//DTD SVG 1.1//EN"
 "http://www.w3.org/Graphics/SVG/1.1/DTD/svg11.dtd">
<!-- Generated by graphviz version 2.47.0 (20210316.2052)
 -->
<!-- Title: include/SComponent/c_m3d_g_aab.h Pages: 1 -->
<!--zoomable 441 -->
<svg id="main" version="1.1" xmlns="http://www.w3.org/2000/svg" xmlns:xlink="http://www.w3.org/1999/xlink" xml:space="preserve" onload="init(evt)">
<style type="text/css"><![CDATA[
.edge:hover path { stroke: red; }
.edge:hover polygon { stroke: red; fill: red; }
]]></style>
<script type="text/javascript"><![CDATA[
var edges = document.getElementsByTagName('g');
if (edges && edges.length) {
  for (var i=0;i<edges.length;i++) {
    if (edges[i].id.substr(0,4)=='edge') {
      edges[i].setAttribute('class','edge');
    }
  }
}
]]></script>
        <defs>
                <circle id="rim" cx="0" cy="0" r="7"/>
                <circle id="rim2" cx="0" cy="0" r="3.5"/>
                <g id="zoomPlus">
                        <use xlink:href="#rim" fill="#404040">
                                <set attributeName="fill" to="#808080" begin="zoomplus.mouseover" end="zoomplus.mouseout"/>
                        </use>
                        <path d="M-4,0h8M0,-4v8" fill="none" stroke="white" stroke-width="1.5" pointer-events="none"/>
                </g>
                <g id="zoomMin">
                        <use xlink:href="#rim" fill="#404040">
                                <set attributeName="fill" to="#808080" begin="zoomminus.mouseover" end="zoomminus.mouseout"/>
                        </use>
                        <path d="M-4,0h8" fill="none" stroke="white" stroke-width="1.5" pointer-events="none"/>
                </g>
                <g id="dirArrow">
                        <path fill="none" stroke="white" stroke-width="1.5" d="M0,-3.0v7 M-2.5,-0.5L0,-3.0L2.5,-0.5"/>
                </g>
               <g id="resetDef">
                       <use xlink:href="#rim2" fill="#404040">
                               <set attributeName="fill" to="#808080" begin="reset.mouseover" end="reset.mouseout"/>
                       </use>
               </g>
        </defs>

<script type="text/javascript">
var viewWidth = 5218;
var viewHeight = 441;
var sectionId = 'dynsection-1';
</script>
<script xlink:href="svgpan.js"/>
<svg id="graph" class="graph">
<g id="viewport">
<title>include/SComponent/c_m3d_g_aab.h</title>
<polygon fill="white" stroke="transparent" points="-4,4 -4,-437 5214,-437 5214,4 -4,4"/>
<!-- Node1 -->
<g id="node1" class="node">
<title>Node1</title>
<g id="a_node1"><a xlink:title=" ">
<polygon fill="#bfbfbf" stroke="black" points="2170,-402.5 2170,-432.5 2277,-432.5 2277,-402.5 2170,-402.5"/>
<text text-anchor="start" x="2178" y="-420.5" font-family="Helvetica,sans-Serif" font-size="10.00">include/SComponent</text>
<text text-anchor="middle" x="2223.5" y="-409.5" font-family="Helvetica,sans-Serif" font-size="10.00">/c_m3d_g_aab.h</text>
</a>
</g>
</g>
<!-- Node2 -->
<g id="node2" class="node">
<title>Node2</title>
<g id="a_node2"><a xlink:href="c__m3d__g__aab_8cpp.html" target="_top" xlink:title=" ">
<polygon fill="white" stroke="black" points="2004.5,-335.5 2004.5,-365.5 2138.5,-365.5 2138.5,-335.5 2004.5,-335.5"/>
<text text-anchor="start" x="2012.5" y="-353.5" font-family="Helvetica,sans-Serif" font-size="10.00">libs/SSystem/SComponent</text>
<text text-anchor="middle" x="2071.5" y="-342.5" font-family="Helvetica,sans-Serif" font-size="10.00">/c_m3d_g_aab.cpp</text>
</a>
</g>
</g>
<!-- Node1&#45;&gt;Node2 -->
<g id="edge1" class="edge">
<title>Node1&#45;&gt;Node2</title>
<path fill="none" stroke="midnightblue" d="M2181.19,-398.41C2156.92,-388.03 2126.91,-375.2 2104.42,-365.58"/>
<polygon fill="midnightblue" stroke="midnightblue" points="2179.95,-401.68 2190.52,-402.4 2182.7,-395.25 2179.95,-401.68"/>
</g>
<!-- Node3 -->
<g id="node3" class="node">
<title>Node3</title>
<g id="a_node3"><a xlink:href="c__m3d_8cpp.html" target="_top" xlink:title=" ">
<polygon fill="white" stroke="black" points="2156.5,-335.5 2156.5,-365.5 2290.5,-365.5 2290.5,-335.5 2156.5,-335.5"/>
<text text-anchor="start" x="2164.5" y="-353.5" font-family="Helvetica,sans-Serif" font-size="10.00">libs/SSystem/SComponent</text>
<text text-anchor="middle" x="2223.5" y="-342.5" font-family="Helvetica,sans-Serif" font-size="10.00">/c_m3d.cpp</text>
</a>
</g>
</g>
<!-- Node1&#45;&gt;Node3 -->
<g id="edge2" class="edge">
<title>Node1&#45;&gt;Node3</title>
<path fill="none" stroke="midnightblue" d="M2223.5,-392.11C2223.5,-383.15 2223.5,-373.32 2223.5,-365.58"/>
<polygon fill="midnightblue" stroke="midnightblue" points="2220,-392.4 2223.5,-402.4 2227,-392.4 2220,-392.4"/>
</g>
<!-- Node4 -->
<g id="node4" class="node">
<title>Node4</title>
<g id="a_node4"><a xlink:href="c__cc__d_8h.html" target="_top" xlink:title=" ">
<polygon fill="white" stroke="black" points="2309,-335.5 2309,-365.5 2416,-365.5 2416,-335.5 2309,-335.5"/>
<text text-anchor="start" x="2317" y="-353.5" font-family="Helvetica,sans-Serif" font-size="10.00">include/SComponent</text>
<text text-anchor="middle" x="2362.5" y="-342.5" font-family="Helvetica,sans-Serif" font-size="10.00">/c_cc_d/c_cc_d.h</text>
</a>
</g>
</g>
<!-- Node1&#45;&gt;Node4 -->
<g id="edge3" class="edge">
<title>Node1&#45;&gt;Node4</title>
<path fill="none" stroke="midnightblue" d="M2262.78,-398.13C2284.87,-387.8 2312.01,-375.11 2332.4,-365.58"/>
<polygon fill="midnightblue" stroke="midnightblue" points="2261.24,-394.99 2253.66,-402.4 2264.2,-401.33 2261.24,-394.99"/>
</g>
<!-- Node5 -->
<g id="node5" class="node">
<title>Node5</title>
<g id="a_node5"><a xlink:href="d__cc__mass__s_8h.html" target="_top" xlink:title=" ">
<polygon fill="white" stroke="black" points="2230.5,-268.5 2230.5,-298.5 2358.5,-298.5 2358.5,-268.5 2230.5,-268.5"/>
<text text-anchor="start" x="2238.5" y="-286.5" font-family="Helvetica,sans-Serif" font-size="10.00">include/d/d_cc/d_cc</text>
<text text-anchor="middle" x="2294.5" y="-275.5" font-family="Helvetica,sans-Serif" font-size="10.00">_mass_s/d_cc_mass_s.h</text>
</a>
</g>
</g>
<!-- Node4&#45;&gt;Node5 -->
<g id="edge4" class="edge">
<title>Node4&#45;&gt;Node5</title>
<path fill="none" stroke="midnightblue" d="M2340.33,-328.31C2330.13,-318.56 2318.31,-307.26 2309.23,-298.58"/>
<polygon fill="midnightblue" stroke="midnightblue" points="2338.1,-331.02 2347.75,-335.4 2342.93,-325.96 2338.1,-331.02"/>
</g>
<!-- Node55 -->
<g id="node50" class="node">
<title>Node55</title>
<g id="a_node50"><a xlink:href="c__cc__s_8h.html" target="_top" xlink:title=" ">
<polygon fill="white" stroke="black" points="2377,-268.5 2377,-298.5 2484,-298.5 2484,-268.5 2377,-268.5"/>
<text text-anchor="start" x="2385" y="-286.5" font-family="Helvetica,sans-Serif" font-size="10.00">include/SComponent</text>
<text text-anchor="middle" x="2430.5" y="-275.5" font-family="Helvetica,sans-Serif" font-size="10.00">/c_cc_s/c_cc_s.h</text>
</a>
</g>
</g>
<!-- Node4&#45;&gt;Node55 -->
<g id="edge56" class="edge">
<title>Node4&#45;&gt;Node55</title>
<path fill="none" stroke="midnightblue" d="M2384.67,-328.31C2394.87,-318.56 2406.69,-307.26 2415.77,-298.58"/>
<polygon fill="midnightblue" stroke="midnightblue" points="2382.07,-325.96 2377.25,-335.4 2386.9,-331.02 2382.07,-325.96"/>
</g>
<!-- Node6 -->
<g id="node6" class="node">
<title>Node6</title>
<g id="a_node6"><a xlink:href="d__cc__s_8h.html" target="_top" xlink:title=" ">
<polygon fill="white" stroke="black" points="2310.5,-201.5 2310.5,-231.5 2414.5,-231.5 2414.5,-201.5 2310.5,-201.5"/>
<text text-anchor="start" x="2318.5" y="-219.5" font-family="Helvetica,sans-Serif" font-size="10.00">include/d/d_cc/d_cc</text>
<text text-anchor="middle" x="2362.5" y="-208.5" font-family="Helvetica,sans-Serif" font-size="10.00">_s/d_cc_s.h</text>
</a>
</g>
</g>
<!-- Node5&#45;&gt;Node6 -->
<g id="edge5" class="edge">
<title>Node5&#45;&gt;Node6</title>
<path fill="none" stroke="midnightblue" d="M2316.67,-261.31C2326.87,-251.56 2338.69,-240.26 2347.77,-231.58"/>
<polygon fill="midnightblue" stroke="midnightblue" points="2314.07,-258.96 2309.25,-268.4 2318.9,-264.02 2314.07,-258.96"/>
</g>
<!-- Node7 -->
<g id="node7" class="node">
<title>Node7</title>
<g id="a_node7"><a xlink:href="d__com__inf__game_8h.html" target="_top" xlink:title=" ">
<polygon fill="white" stroke="black" points="2289.5,-134.5 2289.5,-164.5 2435.5,-164.5 2435.5,-134.5 2289.5,-134.5"/>
<text text-anchor="start" x="2297.5" y="-152.5" font-family="Helvetica,sans-Serif" font-size="10.00">include/d/d_com/d_com</text>
<text text-anchor="middle" x="2362.5" y="-141.5" font-family="Helvetica,sans-Serif" font-size="10.00">_inf_game/d_com_inf_game.h</text>
</a>
</g>
</g>
<!-- Node6&#45;&gt;Node7 -->
<g id="edge6" class="edge">
<title>Node6&#45;&gt;Node7</title>
<path fill="none" stroke="midnightblue" d="M2362.5,-191.11C2362.5,-182.15 2362.5,-172.32 2362.5,-164.58"/>
<polygon fill="midnightblue" stroke="midnightblue" points="2359,-191.4 2362.5,-201.4 2366,-191.4 2359,-191.4"/>
</g>
<!-- Node8 -->
<g id="node8" class="node">
<title>Node8</title>
<g id="a_node8"><a xlink:href="d__attention_8cpp.html" target="_top" xlink:title=" ">
<polygon fill="white" stroke="black" points="0,-6 0,-25 107,-25 107,-6 0,-6"/>
<text text-anchor="middle" x="53.5" y="-13" font-family="Helvetica,sans-Serif" font-size="10.00">src/d/d_attention.cpp</text>
</a>
</g>
</g>
<!-- Node7&#45;&gt;Node8 -->
<g id="edge7" class="edge">
<title>Node7&#45;&gt;Node8</title>
<path fill="none" stroke="midnightblue" d="M2279.16,-148.28C1867.45,-146.99 68.66,-139.04 28.5,-98 8.63,-77.69 32.63,-42 45.87,-25.43"/>
<polygon fill="midnightblue" stroke="midnightblue" points="2279.2,-151.78 2289.21,-148.31 2279.22,-144.78 2279.2,-151.78"/>
</g>
<!-- Node9 -->
<g id="node9" class="node">
<title>Node9</title>
<g id="a_node9"><a xlink:href="d__camera_8cpp.html" target="_top" xlink:title=" ">
<polygon fill="white" stroke="black" points="175.5,-73 175.5,-92 277.5,-92 277.5,-73 175.5,-73"/>
<text text-anchor="middle" x="226.5" y="-80" font-family="Helvetica,sans-Serif" font-size="10.00">src/d/d_camera.cpp</text>
</a>
</g>
</g>
<!-- Node7&#45;&gt;Node9 -->
<g id="edge8" class="edge">
<title>Node7&#45;&gt;Node9</title>
<path fill="none" stroke="midnightblue" d="M2279.18,-148.64C1943.04,-148.85 686.01,-146.34 291.5,-98 280.83,-96.69 269.33,-94.42 259.02,-92.06"/>
<polygon fill="midnightblue" stroke="midnightblue" points="2279.33,-152.14 2289.32,-148.63 2279.32,-145.14 2279.33,-152.14"/>
</g>
<!-- Node10 -->
<g id="node10" class="node">
<title>Node10</title>
<g id="a_node10"><a xlink:href="d__com__inf__game_8cpp.html" target="_top" xlink:title=" ">
<polygon fill="white" stroke="black" points="215,-0.5 215,-30.5 334,-30.5 334,-0.5 215,-0.5"/>
<text text-anchor="start" x="223" y="-18.5" font-family="Helvetica,sans-Serif" font-size="10.00">src/d/d_com/d_com_inf</text>
<text text-anchor="middle" x="274.5" y="-7.5" font-family="Helvetica,sans-Serif" font-size="10.00">_game.cpp</text>
</a>
</g>
</g>
<!-- Node7&#45;&gt;Node10 -->
<g id="edge9" class="edge">
<title>Node7&#45;&gt;Node10</title>
<path fill="none" stroke="midnightblue" d="M2279.09,-148.65C1906.67,-149.03 410.38,-147.47 324.5,-98 299.04,-83.33 284.88,-49.99 278.57,-30.8"/>
<polygon fill="midnightblue" stroke="midnightblue" points="2279.26,-152.15 2289.25,-148.64 2279.25,-145.15 2279.26,-152.15"/>
</g>
<!-- Node11 -->
<g id="node11" class="node">
<title>Node11</title>
<g id="a_node11"><a xlink:href="d__file__sel__info_8cpp.html" target="_top" xlink:title=" ">
<polygon fill="white" stroke="black" points="524,-67.5 524,-97.5 613,-97.5 613,-67.5 524,-67.5"/>
<text text-anchor="start" x="532" y="-85.5" font-family="Helvetica,sans-Serif" font-size="10.00">src/d/d_file/d_file</text>
<text text-anchor="middle" x="568.5" y="-74.5" font-family="Helvetica,sans-Serif" font-size="10.00">_sel_info.cpp</text>
</a>
</g>
</g>
<!-- Node7&#45;&gt;Node11 -->
<g id="edge10" class="edge">
<title>Node7&#45;&gt;Node11</title>
<path fill="none" stroke="midnightblue" d="M2278.99,-148.71C1977.64,-149.04 947,-146.54 621.5,-98 618.76,-97.59 615.97,-97.09 613.16,-96.52"/>
<polygon fill="midnightblue" stroke="midnightblue" points="2279.4,-152.21 2289.39,-148.69 2279.39,-145.21 2279.4,-152.21"/>
</g>
<!-- Node12 -->
<g id="node12" class="node">
<title>Node12</title>
<g id="a_node12"><a xlink:href="d__item_8cpp.html" target="_top" xlink:title=" ">
<polygon fill="white" stroke="black" points="352,-6 352,-25 473,-25 473,-6 352,-6"/>
<text text-anchor="middle" x="412.5" y="-13" font-family="Helvetica,sans-Serif" font-size="10.00">src/d/d_item/d_item.cpp</text>
</a>
</g>
</g>
<!-- Node7&#45;&gt;Node12 -->
<g id="edge11" class="edge">
<title>Node7&#45;&gt;Node12</title>
<path fill="none" stroke="midnightblue" d="M2279.29,-147.84C1928.81,-144.83 586.91,-131.19 503.5,-98 464.68,-82.55 431.72,-42.62 418.59,-25.03"/>
<polygon fill="midnightblue" stroke="midnightblue" points="2279.34,-151.34 2289.37,-147.92 2279.4,-144.34 2279.34,-151.34"/>
</g>
<!-- Node13 -->
<g id="node13" class="node">
<title>Node13</title>
<g id="a_node13"><a xlink:href="d__kankyo__rain_8cpp.html" target="_top" xlink:title=" ">
<polygon fill="white" stroke="black" points="631,-67.5 631,-97.5 758,-97.5 758,-67.5 631,-67.5"/>
<text text-anchor="start" x="639" y="-85.5" font-family="Helvetica,sans-Serif" font-size="10.00">src/d/d_kankyo/d_kankyo</text>
<text text-anchor="middle" x="694.5" y="-74.5" font-family="Helvetica,sans-Serif" font-size="10.00">_rain.cpp</text>
</a>
</g>
</g>
<!-- Node7&#45;&gt;Node13 -->
<g id="edge12" class="edge">
<title>Node7&#45;&gt;Node13</title>
<path fill="none" stroke="midnightblue" d="M2278.9,-147.7C1994.21,-144.69 1063.69,-132.38 766.5,-98 763.71,-97.68 760.87,-97.3 758.01,-96.89"/>
<polygon fill="midnightblue" stroke="midnightblue" points="2279.12,-151.2 2289.16,-147.81 2279.2,-144.2 2279.12,-151.2"/>
</g>
<!-- Node14 -->
<g id="node14" class="node">
<title>Node14</title>
<g id="a_node14"><a xlink:href="d__kankyo__wether_8cpp.html" target="_top" xlink:title=" ">
<polygon fill="white" stroke="black" points="776,-67.5 776,-97.5 903,-97.5 903,-67.5 776,-67.5"/>
<text text-anchor="start" x="784" y="-85.5" font-family="Helvetica,sans-Serif" font-size="10.00">src/d/d_kankyo/d_kankyo</text>
<text text-anchor="middle" x="839.5" y="-74.5" font-family="Helvetica,sans-Serif" font-size="10.00">_wether.cpp</text>
</a>
</g>
</g>
<!-- Node7&#45;&gt;Node14 -->
<g id="edge13" class="edge">
<title>Node7&#45;&gt;Node14</title>
<path fill="none" stroke="midnightblue" d="M2279.31,-147.4C2012.37,-143.58 1179.21,-129.4 911.5,-98 908.71,-97.67 905.87,-97.3 903.01,-96.88"/>
<polygon fill="midnightblue" stroke="midnightblue" points="2279.28,-150.9 2289.32,-147.54 2279.38,-143.9 2279.28,-150.9"/>
</g>
<!-- Node15 -->
<g id="node15" class="node">
<title>Node15</title>
<g id="a_node15"><a xlink:href="d__kankyo_8cpp.html" target="_top" xlink:title=" ">
<polygon fill="white" stroke="black" points="921,-73 921,-92 1022,-92 1022,-73 921,-73"/>
<text text-anchor="middle" x="971.5" y="-80" font-family="Helvetica,sans-Serif" font-size="10.00">src/d/d_kankyo.cpp</text>
</a>
</g>
</g>
<!-- Node7&#45;&gt;Node15 -->
<g id="edge14" class="edge">
<title>Node7&#45;&gt;Node15</title>
<path fill="none" stroke="midnightblue" d="M2279.28,-147.56C2027.03,-144.35 1273.35,-132.08 1030.5,-98 1020.89,-96.65 1010.57,-94.4 1001.29,-92.07"/>
<polygon fill="midnightblue" stroke="midnightblue" points="2279.44,-151.06 2289.48,-147.68 2279.53,-144.06 2279.44,-151.06"/>
</g>
<!-- Node16 -->
<g id="node16" class="node">
<title>Node16</title>
<g id="a_node16"><a xlink:href="d__kantera__icon__meter_8cpp.html" target="_top" xlink:title=" ">
<polygon fill="white" stroke="black" points="1040,-67.5 1040,-97.5 1147,-97.5 1147,-67.5 1040,-67.5"/>
<text text-anchor="start" x="1048" y="-85.5" font-family="Helvetica,sans-Serif" font-size="10.00">src/d/d_kantera_icon</text>
<text text-anchor="middle" x="1093.5" y="-74.5" font-family="Helvetica,sans-Serif" font-size="10.00">_meter.cpp</text>
</a>
</g>
</g>
<!-- Node7&#45;&gt;Node16 -->
<g id="edge15" class="edge">
<title>Node7&#45;&gt;Node16</title>
<path fill="none" stroke="midnightblue" d="M2279.08,-147.05C2042.99,-142.63 1373.18,-127.74 1155.5,-98 1152.76,-97.63 1149.97,-97.19 1147.15,-96.7"/>
<polygon fill="midnightblue" stroke="midnightblue" points="2279.25,-150.55 2289.32,-147.24 2279.38,-143.56 2279.25,-150.55"/>
</g>
<!-- Node17 -->
<g id="node17" class="node">
<title>Node17</title>
<g id="a_node17"><a xlink:href="d__kyeff_8cpp.html" target="_top" xlink:title=" ">
<polygon fill="white" stroke="black" points="1165,-73 1165,-92 1278,-92 1278,-73 1165,-73"/>
<text text-anchor="middle" x="1221.5" y="-80" font-family="Helvetica,sans-Serif" font-size="10.00">src/d/d_ky/d_kyeff.cpp</text>
</a>
</g>
</g>
<!-- Node7&#45;&gt;Node17 -->
<g id="edge16" class="edge">
<title>Node7&#45;&gt;Node17</title>
<path fill="none" stroke="midnightblue" d="M2279.14,-146.45C2061.17,-140.79 1477.97,-123.65 1286.5,-98 1276.07,-96.6 1264.84,-94.37 1254.7,-92.06"/>
<polygon fill="midnightblue" stroke="midnightblue" points="2279.15,-149.95 2289.24,-146.71 2279.33,-142.95 2279.15,-149.95"/>
</g>
<!-- Node18 -->
<g id="node18" class="node">
<title>Node18</title>
<g id="a_node18"><a xlink:href="d__meter__button_8cpp.html" target="_top" xlink:title=" ">
<polygon fill="white" stroke="black" points="1296,-67.5 1296,-97.5 1411,-97.5 1411,-67.5 1296,-67.5"/>
<text text-anchor="start" x="1304" y="-85.5" font-family="Helvetica,sans-Serif" font-size="10.00">src/d/d_meter/d_meter</text>
<text text-anchor="middle" x="1353.5" y="-74.5" font-family="Helvetica,sans-Serif" font-size="10.00">_button.cpp</text>
</a>
</g>
</g>
<!-- Node7&#45;&gt;Node18 -->
<g id="edge17" class="edge">
<title>Node7&#45;&gt;Node18</title>
<path fill="none" stroke="midnightblue" d="M2279.29,-148.58C2114.43,-147.73 1734.97,-140.81 1419.5,-98 1416.83,-97.64 1414.1,-97.22 1411.35,-96.77"/>
<polygon fill="midnightblue" stroke="midnightblue" points="2279.34,-152.08 2289.36,-148.62 2279.37,-145.08 2279.34,-152.08"/>
</g>
<!-- Node19 -->
<g id="node19" class="node">
<title>Node19</title>
<g id="a_node19"><a xlink:href="d__meter__haihai_8cpp.html" target="_top" xlink:title=" ">
<polygon fill="white" stroke="black" points="1429,-67.5 1429,-97.5 1544,-97.5 1544,-67.5 1429,-67.5"/>
<text text-anchor="start" x="1437" y="-85.5" font-family="Helvetica,sans-Serif" font-size="10.00">src/d/d_meter/d_meter</text>
<text text-anchor="middle" x="1486.5" y="-74.5" font-family="Helvetica,sans-Serif" font-size="10.00">_haihai.cpp</text>
</a>
</g>
</g>
<!-- Node7&#45;&gt;Node19 -->
<g id="edge18" class="edge">
<title>Node7&#45;&gt;Node19</title>
<path fill="none" stroke="midnightblue" d="M2278.92,-147.52C2131.51,-144.86 1816,-134.93 1552.5,-98 1549.83,-97.63 1547.1,-97.2 1544.36,-96.74"/>
<polygon fill="midnightblue" stroke="midnightblue" points="2279.18,-151.03 2289.24,-147.7 2279.3,-144.03 2279.18,-151.03"/>
</g>
<!-- Node20 -->
<g id="node20" class="node">
<title>Node20</title>
<g id="a_node20"><a xlink:href="d__meter__hakusha_8cpp.html" target="_top" xlink:title=" ">
<polygon fill="white" stroke="black" points="1562,-67.5 1562,-97.5 1677,-97.5 1677,-67.5 1562,-67.5"/>
<text text-anchor="start" x="1570" y="-85.5" font-family="Helvetica,sans-Serif" font-size="10.00">src/d/d_meter/d_meter</text>
<text text-anchor="middle" x="1619.5" y="-74.5" font-family="Helvetica,sans-Serif" font-size="10.00">_hakusha.cpp</text>
</a>
</g>
</g>
<!-- Node7&#45;&gt;Node20 -->
<g id="edge19" class="edge">
<title>Node7&#45;&gt;Node20</title>
<path fill="none" stroke="midnightblue" d="M2279.36,-146.09C2151.25,-141.53 1898.11,-129.12 1685.5,-98 1682.71,-97.59 1679.87,-97.13 1677,-96.64"/>
<polygon fill="midnightblue" stroke="midnightblue" points="2279.38,-149.6 2289.49,-146.45 2279.62,-142.6 2279.38,-149.6"/>
</g>
<!-- Node21 -->
<g id="node21" class="node">
<title>Node21</title>
<g id="a_node21"><a xlink:href="d__meter__map_8cpp.html" target="_top" xlink:title=" ">
<polygon fill="white" stroke="black" points="1695,-67.5 1695,-97.5 1810,-97.5 1810,-67.5 1695,-67.5"/>
<text text-anchor="start" x="1703" y="-85.5" font-family="Helvetica,sans-Serif" font-size="10.00">src/d/d_meter/d_meter</text>
<text text-anchor="middle" x="1752.5" y="-74.5" font-family="Helvetica,sans-Serif" font-size="10.00">_map.cpp</text>
</a>
</g>
</g>
<!-- Node7&#45;&gt;Node21 -->
<g id="edge20" class="edge">
<title>Node7&#45;&gt;Node21</title>
<path fill="none" stroke="midnightblue" d="M2279.01,-143.97C2171.9,-137.41 1980.57,-123.23 1818.5,-98 1815.72,-97.57 1812.88,-97.09 1810.01,-96.57"/>
<polygon fill="midnightblue" stroke="midnightblue" points="2278.92,-147.47 2289.11,-144.58 2279.34,-140.48 2278.92,-147.47"/>
</g>
<!-- Node22 -->
<g id="node22" class="node">
<title>Node22</title>
<g id="a_node22"><a xlink:href="d__meter__string_8cpp.html" target="_top" xlink:title=" ">
<polygon fill="white" stroke="black" points="1828,-67.5 1828,-97.5 1943,-97.5 1943,-67.5 1828,-67.5"/>
<text text-anchor="start" x="1836" y="-85.5" font-family="Helvetica,sans-Serif" font-size="10.00">src/d/d_meter/d_meter</text>
<text text-anchor="middle" x="1885.5" y="-74.5" font-family="Helvetica,sans-Serif" font-size="10.00">_string.cpp</text>
</a>
</g>
</g>
<!-- Node7&#45;&gt;Node22 -->
<g id="edge21" class="edge">
<title>Node7&#45;&gt;Node22</title>
<path fill="none" stroke="midnightblue" d="M2279.28,-140.59C2196.01,-132.14 2064.42,-117.3 1951.5,-98 1948.72,-97.53 1945.89,-97.01 1943.03,-96.47"/>
<polygon fill="midnightblue" stroke="midnightblue" points="2279.14,-144.1 2289.44,-141.62 2279.84,-137.13 2279.14,-144.1"/>
</g>
<!-- Node23 -->
<g id="node23" class="node">
<title>Node23</title>
<g id="a_node23"><a xlink:href="d__meter2__draw_8cpp.html" target="_top" xlink:title=" ">
<polygon fill="white" stroke="black" points="1961,-67.5 1961,-97.5 2086,-97.5 2086,-67.5 1961,-67.5"/>
<text text-anchor="start" x="1969" y="-85.5" font-family="Helvetica,sans-Serif" font-size="10.00">src/d/d_meter2/d_meter2</text>
<text text-anchor="middle" x="2023.5" y="-74.5" font-family="Helvetica,sans-Serif" font-size="10.00">_draw.cpp</text>
</a>
</g>
</g>
<!-- Node7&#45;&gt;Node23 -->
<g id="edge22" class="edge">
<title>Node7&#45;&gt;Node23</title>
<path fill="none" stroke="midnightblue" d="M2279.34,-133.17C2226.39,-123.32 2156.37,-110.15 2094.5,-98 2091.78,-97.47 2089.01,-96.92 2086.21,-96.36"/>
<polygon fill="midnightblue" stroke="midnightblue" points="2278.89,-136.64 2289.36,-135.03 2280.17,-129.76 2278.89,-136.64"/>
</g>
<!-- Node24 -->
<g id="node24" class="node">
<title>Node24</title>
<g id="a_node24"><a xlink:href="d__meter2__info_8cpp.html" target="_top" xlink:title=" ">
<polygon fill="white" stroke="black" points="2104,-67.5 2104,-97.5 2229,-97.5 2229,-67.5 2104,-67.5"/>
<text text-anchor="start" x="2112" y="-85.5" font-family="Helvetica,sans-Serif" font-size="10.00">src/d/d_meter2/d_meter2</text>
<text text-anchor="middle" x="2166.5" y="-74.5" font-family="Helvetica,sans-Serif" font-size="10.00">_info.cpp</text>
</a>
</g>
</g>
<!-- Node7&#45;&gt;Node24 -->
<g id="edge23" class="edge">
<title>Node7&#45;&gt;Node24</title>
<path fill="none" stroke="midnightblue" d="M2310.42,-131.23C2278.71,-120.71 2238.72,-107.45 2208.95,-97.58"/>
<polygon fill="midnightblue" stroke="midnightblue" points="2309.38,-134.57 2319.97,-134.4 2311.58,-127.93 2309.38,-134.57"/>
</g>
<!-- Node25 -->
<g id="node25" class="node">
<title>Node25</title>
<g id="a_node25"><a xlink:href="d__meter2_8cpp.html" target="_top" xlink:title=" ">
<polygon fill="white" stroke="black" points="2247.5,-73 2247.5,-92 2347.5,-92 2347.5,-73 2247.5,-73"/>
<text text-anchor="middle" x="2297.5" y="-80" font-family="Helvetica,sans-Serif" font-size="10.00">src/d/d_meter2.cpp</text>
</a>
</g>
</g>
<!-- Node7&#45;&gt;Node25 -->
<g id="edge24" class="edge">
<title>Node7&#45;&gt;Node25</title>
<path fill="none" stroke="midnightblue" d="M2341,-127C2329.13,-115.13 2315.05,-101.05 2306.19,-92.19"/>
<polygon fill="midnightblue" stroke="midnightblue" points="2338.85,-129.8 2348.4,-134.4 2343.8,-124.85 2338.85,-129.8"/>
</g>
<!-- Node26 -->
<g id="node26" class="node">
<title>Node26</title>
<g id="a_node26"><a xlink:href="d__save_8cpp.html" target="_top" xlink:title=" ">
<polygon fill="white" stroke="black" points="2366,-73 2366,-92 2491,-92 2491,-73 2366,-73"/>
<text text-anchor="middle" x="2428.5" y="-80" font-family="Helvetica,sans-Serif" font-size="10.00">src/d/d_save/d_save.cpp</text>
</a>
</g>
</g>
<!-- Node7&#45;&gt;Node26 -->
<g id="edge25" class="edge">
<title>Node7&#45;&gt;Node26</title>
<path fill="none" stroke="midnightblue" d="M2383.99,-127.34C2396.11,-115.4 2410.59,-101.14 2419.67,-92.19"/>
<polygon fill="midnightblue" stroke="midnightblue" points="2381.49,-124.89 2376.82,-134.4 2386.4,-129.87 2381.49,-124.89"/>
</g>
<!-- Node27 -->
<g id="node27" class="node">
<title>Node27</title>
<g id="a_node27"><a xlink:href="d__save__HIO_8cpp.html" target="_top" xlink:title=" ">
<polygon fill="white" stroke="black" points="2509,-67.5 2509,-97.5 2616,-97.5 2616,-67.5 2509,-67.5"/>
<text text-anchor="start" x="2517" y="-85.5" font-family="Helvetica,sans-Serif" font-size="10.00">src/d/d_save/d_save</text>
<text text-anchor="middle" x="2562.5" y="-74.5" font-family="Helvetica,sans-Serif" font-size="10.00">_HIO.cpp</text>
</a>
</g>
</g>
<!-- Node7&#45;&gt;Node27 -->
<g id="edge26" class="edge">
<title>Node7&#45;&gt;Node27</title>
<path fill="none" stroke="midnightblue" d="M2415.65,-131.23C2448,-120.71 2488.81,-107.45 2519.19,-97.58"/>
<polygon fill="midnightblue" stroke="midnightblue" points="2414.33,-127.98 2405.9,-134.4 2416.49,-134.63 2414.33,-127.98"/>
</g>
<!-- Node28 -->
<g id="node28" class="node">
<title>Node28</title>
<g id="a_node28"><a xlink:href="d__stage_8cpp.html" target="_top" xlink:title=" ">
<polygon fill="white" stroke="black" points="2634.5,-73 2634.5,-92 2728.5,-92 2728.5,-73 2634.5,-73"/>
<text text-anchor="middle" x="2681.5" y="-80" font-family="Helvetica,sans-Serif" font-size="10.00">src/d/d_stage.cpp</text>
</a>
</g>
</g>
<!-- Node7&#45;&gt;Node28 -->
<g id="edge27" class="edge">
<title>Node7&#45;&gt;Node28</title>
<path fill="none" stroke="midnightblue" d="M2445.69,-133.75C2497.32,-124.28 2564.95,-111.3 2624.5,-98 2632.57,-96.2 2641.24,-94.08 2649.32,-92.04"/>
<polygon fill="midnightblue" stroke="midnightblue" points="2444.79,-130.36 2435.58,-135.6 2446.05,-137.25 2444.79,-130.36"/>
</g>
<!-- Node29 -->
<g id="node29" class="node">
<title>Node29</title>
<g id="a_node29"><a xlink:href="f__op__actor__mng_8cpp.html" target="_top" xlink:title=" ">
<polygon fill="white" stroke="black" points="491,-0.5 491,-30.5 598,-30.5 598,-0.5 491,-0.5"/>
<text text-anchor="start" x="499" y="-18.5" font-family="Helvetica,sans-Serif" font-size="10.00">src/f/f_op/f_op_actor</text>
<text text-anchor="middle" x="544.5" y="-7.5" font-family="Helvetica,sans-Serif" font-size="10.00">_mng.cpp</text>
</a>
</g>
</g>
<!-- Node7&#45;&gt;Node29 -->
<g id="edge28" class="edge">
<title>Node7&#45;&gt;Node29</title>
<path fill="none" stroke="midnightblue" d="M2279.2,-147.79C1923.14,-144.57 545.68,-130.04 514.5,-98 496.31,-79.31 516.41,-48.66 531.35,-30.75"/>
<polygon fill="midnightblue" stroke="midnightblue" points="2279.4,-151.29 2289.43,-147.88 2279.47,-144.29 2279.4,-151.29"/>
</g>
<!-- Node30 -->
<g id="node30" class="node">
<title>Node30</title>
<g id="a_node30"><a xlink:href="f__op__camera_8cpp.html" target="_top" xlink:title=" ">
<polygon fill="white" stroke="black" points="2747,-73 2747,-92 2882,-92 2882,-73 2747,-73"/>
<text text-anchor="middle" x="2814.5" y="-80" font-family="Helvetica,sans-Serif" font-size="10.00">src/f/f_op/f_op_camera.cpp</text>
</a>
</g>
</g>
<!-- Node7&#45;&gt;Node30 -->
<g id="edge29" class="edge">
<title>Node7&#45;&gt;Node30</title>
<path fill="none" stroke="midnightblue" d="M2445.62,-138.57C2521.73,-129.18 2637.42,-114.15 2737.5,-98 2748.51,-96.22 2760.37,-94.1 2771.4,-92.03"/>
<polygon fill="midnightblue" stroke="midnightblue" points="2445.11,-135.11 2435.61,-139.8 2445.96,-142.06 2445.11,-135.11"/>
</g>
<!-- Node31 -->
<g id="node31" class="node">
<title>Node31</title>
<g id="a_node31"><a xlink:href="f__op__kankyo__mng_8cpp.html" target="_top" xlink:title=" ">
<polygon fill="white" stroke="black" points="2826.5,-0.5 2826.5,-30.5 2942.5,-30.5 2942.5,-0.5 2826.5,-0.5"/>
<text text-anchor="start" x="2834.5" y="-18.5" font-family="Helvetica,sans-Serif" font-size="10.00">src/f/f_op/f_op_kankyo</text>
<text text-anchor="middle" x="2884.5" y="-7.5" font-family="Helvetica,sans-Serif" font-size="10.00">_mng.cpp</text>
</a>
</g>
</g>
<!-- Node7&#45;&gt;Node31 -->
<g id="edge30" class="edge">
<title>Node7&#45;&gt;Node31</title>
<path fill="none" stroke="midnightblue" d="M2446.01,-146.55C2587.33,-142.38 2861.23,-130.2 2890.5,-98 2907.1,-79.73 2898.37,-48.65 2891.06,-30.61"/>
<polygon fill="midnightblue" stroke="midnightblue" points="2445.55,-143.06 2435.66,-146.85 2445.75,-150.06 2445.55,-143.06"/>
</g>
<!-- Node32 -->
<g id="node32" class="node">
<title>Node32</title>
<g id="a_node32"><a xlink:href="f__op__kankyo_8cpp.html" target="_top" xlink:title=" ">
<polygon fill="white" stroke="black" points="3130.5,-73 3130.5,-92 3264.5,-92 3264.5,-73 3130.5,-73"/>
<text text-anchor="middle" x="3197.5" y="-80" font-family="Helvetica,sans-Serif" font-size="10.00">src/f/f_op/f_op_kankyo.cpp</text>
</a>
</g>
</g>
<!-- Node7&#45;&gt;Node32 -->
<g id="edge31" class="edge">
<title>Node7&#45;&gt;Node32</title>
<path fill="none" stroke="midnightblue" d="M2445.71,-145.93C2584.97,-140.95 2873.85,-127.75 3116.5,-98 3128.98,-96.47 3142.45,-94.28 3154.76,-92.06"/>
<polygon fill="midnightblue" stroke="midnightblue" points="2445.41,-142.43 2435.54,-146.28 2445.66,-149.43 2445.41,-142.43"/>
</g>
<!-- Node33 -->
<g id="node33" class="node">
<title>Node33</title>
<g id="a_node33"><a xlink:href="f__op__msg__mng_8cpp.html" target="_top" xlink:title=" ">
<polygon fill="white" stroke="black" points="2960.5,-0.5 2960.5,-30.5 3064.5,-30.5 3064.5,-0.5 2960.5,-0.5"/>
<text text-anchor="start" x="2968.5" y="-18.5" font-family="Helvetica,sans-Serif" font-size="10.00">src/f/f_op/f_op_msg</text>
<text text-anchor="middle" x="3012.5" y="-7.5" font-family="Helvetica,sans-Serif" font-size="10.00">_mng.cpp</text>
</a>
</g>
</g>
<!-- Node7&#45;&gt;Node33 -->
<g id="edge32" class="edge">
<title>Node7&#45;&gt;Node33</title>
<path fill="none" stroke="midnightblue" d="M2445.68,-148.53C2618.67,-147.72 3004.52,-141.05 3044.5,-98 3062.4,-78.73 3041.49,-48.29 3026.05,-30.57"/>
<polygon fill="midnightblue" stroke="midnightblue" points="2445.58,-145.03 2435.6,-148.57 2445.61,-152.03 2445.58,-145.03"/>
</g>
<!-- Node34 -->
<g id="node34" class="node">
<title>Node34</title>
<g id="a_node34"><a xlink:href="f__pc__manager_8cpp.html" target="_top" xlink:title=" ">
<polygon fill="white" stroke="black" points="3082.5,-6 3082.5,-25 3222.5,-25 3222.5,-6 3082.5,-6"/>
<text text-anchor="middle" x="3152.5" y="-13" font-family="Helvetica,sans-Serif" font-size="10.00">src/f/f_pc/f_pc_manager.cpp</text>
</a>
</g>
</g>
<!-- Node7&#45;&gt;Node34 -->
<g id="edge33" class="edge">
<title>Node7&#45;&gt;Node34</title>
<path fill="none" stroke="midnightblue" d="M2446.08,-149.22C2607.02,-149.51 2953.69,-144.51 3062.5,-98 3100.49,-81.76 3133.06,-42.61 3146.25,-25.16"/>
<polygon fill="midnightblue" stroke="midnightblue" points="2445.76,-145.72 2435.75,-149.2 2445.74,-152.72 2445.76,-145.72"/>
</g>
<!-- Node35 -->
<g id="node35" class="node">
<title>Node35</title>
<g id="a_node35"><a xlink:href="m__Do__audio_8cpp.html" target="_top" xlink:title=" ">
<polygon fill="white" stroke="black" points="3282.5,-73 3282.5,-92 3416.5,-92 3416.5,-73 3282.5,-73"/>
<text text-anchor="middle" x="3349.5" y="-80" font-family="Helvetica,sans-Serif" font-size="10.00">src/m_Do/m_Do_audio.cpp</text>
</a>
</g>
</g>
<!-- Node7&#45;&gt;Node35 -->
<g id="edge34" class="edge">
<title>Node7&#45;&gt;Node35</title>
<path fill="none" stroke="midnightblue" d="M2446,-147.58C2606.77,-145 2970.23,-135.17 3273.5,-98 3285.5,-96.53 3298.46,-94.3 3310.21,-92.03"/>
<polygon fill="midnightblue" stroke="midnightblue" points="2445.65,-144.09 2435.71,-147.74 2445.76,-151.09 2445.65,-144.09"/>
</g>
<!-- Node36 -->
<g id="node36" class="node">
<title>Node36</title>
<g id="a_node36"><a xlink:href="m__Do__graphic_8cpp.html" target="_top" xlink:title=" ">
<polygon fill="white" stroke="black" points="3434.5,-73 3434.5,-92 3576.5,-92 3576.5,-73 3434.5,-73"/>
<text text-anchor="middle" x="3505.5" y="-80" font-family="Helvetica,sans-Serif" font-size="10.00">src/m_Do/m_Do_graphic.cpp</text>
</a>
</g>
</g>
<!-- Node7&#45;&gt;Node36 -->
<g id="edge35" class="edge">
<title>Node7&#45;&gt;Node36</title>
<path fill="none" stroke="midnightblue" d="M2445.75,-148.27C2625.32,-146.96 3062.2,-139.37 3425.5,-98 3438.12,-96.56 3451.76,-94.34 3464.13,-92.07"/>
<polygon fill="midnightblue" stroke="midnightblue" points="2445.56,-144.77 2435.58,-148.34 2445.61,-151.77 2445.56,-144.77"/>
</g>
<!-- Node37 -->
<g id="node37" class="node">
<title>Node37</title>
<g id="a_node37"><a xlink:href="m__Do__lib_8cpp.html" target="_top" xlink:title=" ">
<polygon fill="white" stroke="black" points="3594.5,-73 3594.5,-92 3714.5,-92 3714.5,-73 3594.5,-73"/>
<text text-anchor="middle" x="3654.5" y="-80" font-family="Helvetica,sans-Serif" font-size="10.00">src/m_Do/m_Do_lib.cpp</text>
</a>
</g>
</g>
<!-- Node7&#45;&gt;Node37 -->
<g id="edge36" class="edge">
<title>Node7&#45;&gt;Node37</title>
<path fill="none" stroke="midnightblue" d="M2446.15,-146.85C2684.53,-141.88 3364.34,-125.61 3585.5,-98 3596.67,-96.6 3608.73,-94.34 3619.59,-92.01"/>
<polygon fill="midnightblue" stroke="midnightblue" points="2445.74,-143.36 2435.82,-147.07 2445.89,-150.36 2445.74,-143.36"/>
</g>
<!-- Node38 -->
<g id="node38" class="node">
<title>Node38</title>
<g id="a_node38"><a xlink:href="m__Do__machine__exception_8cpp.html" target="_top" xlink:title=" ">
<polygon fill="white" stroke="black" points="3733,-67.5 3733,-97.5 3862,-97.5 3862,-67.5 3733,-67.5"/>
<text text-anchor="start" x="3741" y="-85.5" font-family="Helvetica,sans-Serif" font-size="10.00">src/m_Do/m_Do_machine</text>
<text text-anchor="middle" x="3797.5" y="-74.5" font-family="Helvetica,sans-Serif" font-size="10.00">_exception.cpp</text>
</a>
</g>
</g>
<!-- Node7&#45;&gt;Node38 -->
<g id="edge37" class="edge">
<title>Node7&#45;&gt;Node38</title>
<path fill="none" stroke="midnightblue" d="M2446.12,-147.11C2702.32,-142.59 3474.17,-126.87 3723.5,-98 3726.49,-97.65 3729.54,-97.25 3732.62,-96.81"/>
<polygon fill="midnightblue" stroke="midnightblue" points="2445.7,-143.62 2435.76,-147.29 2445.82,-150.62 2445.7,-143.62"/>
</g>
<!-- Node39 -->
<g id="node39" class="node">
<title>Node39</title>
<g id="a_node39"><a xlink:href="m__Do__main_8cpp.html" target="_top" xlink:title=" ">
<polygon fill="white" stroke="black" points="3880,-73 3880,-92 4011,-92 4011,-73 3880,-73"/>
<text text-anchor="middle" x="3945.5" y="-80" font-family="Helvetica,sans-Serif" font-size="10.00">src/m_Do/m_Do_main.cpp</text>
</a>
</g>
</g>
<!-- Node7&#45;&gt;Node39 -->
<g id="edge38" class="edge">
<title>Node7&#45;&gt;Node39</title>
<path fill="none" stroke="midnightblue" d="M2446.15,-147.46C2720.59,-143.79 3592.03,-129.85 3871.5,-98 3883.47,-96.64 3896.39,-94.38 3908.04,-92.05"/>
<polygon fill="midnightblue" stroke="midnightblue" points="2445.81,-143.97 2435.86,-147.6 2445.9,-150.97 2445.81,-143.97"/>
</g>
<!-- Node40 -->
<g id="node40" class="node">
<title>Node40</title>
<g id="a_node40"><a xlink:href="m__Do__MemCardRWmng_8cpp.html" target="_top" xlink:title=" ">
<polygon fill="white" stroke="black" points="4029,-73 4029,-92 4216,-92 4216,-73 4029,-73"/>
<text text-anchor="middle" x="4122.5" y="-80" font-family="Helvetica,sans-Serif" font-size="10.00">src/m_Do/m_Do_MemCardRWmng.cpp</text>
</a>
</g>
</g>
<!-- Node7&#45;&gt;Node40 -->
<g id="edge39" class="edge">
<title>Node7&#45;&gt;Node40</title>
<path fill="none" stroke="midnightblue" d="M2445.82,-147.18C2737.21,-142.39 3709.65,-124.75 4020.5,-98 4036.81,-96.6 4054.49,-94.34 4070.48,-92.03"/>
<polygon fill="midnightblue" stroke="midnightblue" points="2445.69,-143.69 2435.75,-147.35 2445.8,-150.69 2445.69,-143.69"/>
</g>
<!-- Node41 -->
<g id="node41" class="node">
<title>Node41</title>
<g id="a_node41"><a xlink:href="m__Do__ext_8cpp.html" target="_top" xlink:title=" ">
<polygon fill="white" stroke="black" points="4234,-73 4234,-92 4357,-92 4357,-73 4234,-73"/>
<text text-anchor="middle" x="4295.5" y="-80" font-family="Helvetica,sans-Serif" font-size="10.00">src/m_Do/m_Do_ext.cpp</text>
</a>
</g>
</g>
<!-- Node7&#45;&gt;Node41 -->
<g id="edge40" class="edge">
<title>Node7&#45;&gt;Node41</title>
<path fill="none" stroke="midnightblue" d="M2446.16,-148.2C2760.88,-146.77 3873.65,-138.88 4225.5,-98 4236.96,-96.67 4249.34,-94.39 4260.45,-92.03"/>
<polygon fill="midnightblue" stroke="midnightblue" points="2445.73,-144.7 2435.75,-148.25 2445.76,-151.7 2445.73,-144.7"/>
</g>
<!-- Node42 -->
<g id="node42" class="node">
<title>Node42</title>
<g id="a_node42"><a xlink:href="Z2EnvSeMgr_8cpp.html" target="_top" xlink:title=" ">
<polygon fill="white" stroke="black" points="4375,-73 4375,-92 4536,-92 4536,-73 4375,-73"/>
<text text-anchor="middle" x="4455.5" y="-80" font-family="Helvetica,sans-Serif" font-size="10.00">libs/Z2AudioLib/Z2EnvSeMgr.cpp</text>
</a>
</g>
</g>
<!-- Node7&#45;&gt;Node42 -->
<g id="edge41" class="edge">
<title>Node7&#45;&gt;Node42</title>
<path fill="none" stroke="midnightblue" d="M2446.02,-147.91C2775.37,-145.37 3984.72,-133.74 4366.5,-98 4380.84,-96.66 4396.37,-94.41 4410.38,-92.08"/>
<polygon fill="midnightblue" stroke="midnightblue" points="2445.58,-144.42 2435.61,-147.99 2445.63,-151.42 2445.58,-144.42"/>
</g>
<!-- Node43 -->
<g id="node43" class="node">
<title>Node43</title>
<g id="a_node43"><a xlink:href="Z2LinkMgr_8cpp.html" target="_top" xlink:title=" ">
<polygon fill="white" stroke="black" points="4554.5,-73 4554.5,-92 4706.5,-92 4706.5,-73 4554.5,-73"/>
<text text-anchor="middle" x="4630.5" y="-80" font-family="Helvetica,sans-Serif" font-size="10.00">libs/Z2AudioLib/Z2LinkMgr.cpp</text>
</a>
</g>
</g>
<!-- Node7&#45;&gt;Node43 -->
<g id="edge42" class="edge">
<title>Node7&#45;&gt;Node43</title>
<path fill="none" stroke="midnightblue" d="M2445.89,-148.2C2793.27,-146.69 4126.75,-138.34 4545.5,-98 4559.36,-96.66 4574.37,-94.39 4587.86,-92.03"/>
<polygon fill="midnightblue" stroke="midnightblue" points="2445.64,-144.7 2435.66,-148.24 2445.67,-151.7 2445.64,-144.7"/>
</g>
<!-- Node44 -->
<g id="node44" class="node">
<title>Node44</title>
<g id="a_node44"><a xlink:href="Z2SceneMgr_8cpp.html" target="_top" xlink:title=" ">
<polygon fill="white" stroke="black" points="4725,-73 4725,-92 4886,-92 4886,-73 4725,-73"/>
<text text-anchor="middle" x="4805.5" y="-80" font-family="Helvetica,sans-Serif" font-size="10.00">libs/Z2AudioLib/Z2SceneMgr.cpp</text>
</a>
</g>
</g>
<!-- Node7&#45;&gt;Node44 -->
<g id="edge43" class="edge">
<title>Node7&#45;&gt;Node44</title>
<path fill="none" stroke="midnightblue" d="M2445.98,-148.26C2810.08,-146.96 4261.31,-139.26 4715.5,-98 4730.16,-96.67 4746.04,-94.39 4760.33,-92.03"/>
<polygon fill="midnightblue" stroke="midnightblue" points="2445.77,-144.76 2435.78,-148.29 2445.79,-151.76 2445.77,-144.76"/>
</g>
<!-- Node45 -->
<g id="node45" class="node">
<title>Node45</title>
<g id="a_node45"><a xlink:href="Z2SoundMgr_8cpp.html" target="_top" xlink:title=" ">
<polygon fill="white" stroke="black" points="4904,-73 4904,-92 5065,-92 5065,-73 4904,-73"/>
<text text-anchor="middle" x="4984.5" y="-80" font-family="Helvetica,sans-Serif" font-size="10.00">libs/Z2AudioLib/Z2SoundMgr.cpp</text>
</a>
</g>
</g>
<!-- Node7&#45;&gt;Node45 -->
<g id="edge44" class="edge">
<title>Node7&#45;&gt;Node45</title>
<path fill="none" stroke="midnightblue" d="M2445.7,-148.43C2826.28,-147.84 4403.77,-142.73 4895.5,-98 4910,-96.68 4925.71,-94.41 4939.84,-92.05"/>
<polygon fill="midnightblue" stroke="midnightblue" points="2445.59,-144.93 2435.59,-148.44 2445.6,-151.93 2445.59,-144.93"/>
</g>
<!-- Node46 -->
<g id="node46" class="node">
<title>Node46</title>
<g id="a_node46"><a xlink:href="Z2StatusMgr_8cpp.html" target="_top" xlink:title=" ">
<polygon fill="white" stroke="black" points="5083,-67.5 5083,-97.5 5210,-97.5 5210,-67.5 5083,-67.5"/>
<text text-anchor="start" x="5091" y="-85.5" font-family="Helvetica,sans-Serif" font-size="10.00">libs/Z2AudioLib/Z2Status</text>
<text text-anchor="middle" x="5146.5" y="-74.5" font-family="Helvetica,sans-Serif" font-size="10.00">Mgr.cpp</text>
</a>
</g>
</g>
<!-- Node7&#45;&gt;Node46 -->
<g id="edge45" class="edge">
<title>Node7&#45;&gt;Node46</title>
<path fill="none" stroke="midnightblue" d="M2445.8,-147.84C2872.99,-144.35 4808.22,-127.05 5074.5,-98 5077.29,-97.7 5080.13,-97.34 5082.99,-96.93"/>
<polygon fill="midnightblue" stroke="midnightblue" points="2445.66,-144.34 2435.69,-147.93 2445.72,-151.34 2445.66,-144.34"/>
</g>
<!-- Node47 -->
<g id="node47" class="node">
<title>Node47</title>
<g id="a_node47"><a xlink:href="d__a__alink_8h.html" target="_top" xlink:title=" ">
<polygon fill="white" stroke="red" points="38,-67.5 38,-97.5 157,-97.5 157,-67.5 38,-67.5"/>
<text text-anchor="start" x="46" y="-85.5" font-family="Helvetica,sans-Serif" font-size="10.00">include/d/d_a/d_a_alink</text>
<text text-anchor="middle" x="97.5" y="-74.5" font-family="Helvetica,sans-Serif" font-size="10.00">/d_a_alink.h</text>
</a>
</g>
</g>
<!-- Node7&#45;&gt;Node47 -->
<g id="edge46" class="edge">
<title>Node7&#45;&gt;Node47</title>
<path fill="none" stroke="midnightblue" d="M2279.41,-148.64C1931.09,-148.89 587.23,-146.62 166.5,-98 163.46,-97.65 160.36,-97.23 157.23,-96.75"/>
<polygon fill="midnightblue" stroke="midnightblue" points="2279.42,-152.14 2289.42,-148.63 2279.42,-145.14 2279.42,-152.14"/>
</g>
<!-- Node49 -->
<g id="node48" class="node">
<title>Node49</title>
<g id="a_node48"><a xlink:href="d__item_8h.html" target="_top" xlink:title=" ">
<polygon fill="white" stroke="black" points="333.5,-67.5 333.5,-97.5 429.5,-97.5 429.5,-67.5 333.5,-67.5"/>
<text text-anchor="start" x="341.5" y="-85.5" font-family="Helvetica,sans-Serif" font-size="10.00">include/d/d_item/d</text>
<text text-anchor="middle" x="381.5" y="-74.5" font-family="Helvetica,sans-Serif" font-size="10.00">_item/d_item.h</text>
</a>
</g>
</g>
<!-- Node7&#45;&gt;Node49 -->
<g id="edge48" class="edge">
<title>Node7&#45;&gt;Node49</title>
<path fill="none" stroke="midnightblue" d="M2279.22,-148.56C1958.95,-148.45 806.47,-144.72 443.5,-98 439,-97.42 434.36,-96.66 429.73,-95.78"/>
<polygon fill="midnightblue" stroke="midnightblue" points="2279.36,-152.06 2289.36,-148.56 2279.36,-145.06 2279.36,-152.06"/>
</g>
<!-- Node50 -->
<g id="node49" class="node">
<title>Node50</title>
<g id="a_node49"><a xlink:href="f__pc__manager_8h.html" target="_top" xlink:title=" ">
<polygon fill="white" stroke="red" points="2939,-67.5 2939,-97.5 3036,-97.5 3036,-67.5 2939,-67.5"/>
<text text-anchor="start" x="2947" y="-85.5" font-family="Helvetica,sans-Serif" font-size="10.00">include/f/f_pc/f_pc</text>
<text text-anchor="middle" x="2987.5" y="-74.5" font-family="Helvetica,sans-Serif" font-size="10.00">_manager.h</text>
</a>
</g>
</g>
<!-- Node7&#45;&gt;Node50 -->
<g id="edge52" class="edge">
<title>Node7&#45;&gt;Node50</title>
<path fill="none" stroke="midnightblue" d="M2445.69,-144.58C2555.77,-138.59 2755.63,-124.89 2924.5,-98 2929.16,-97.26 2933.98,-96.37 2938.79,-95.4"/>
<polygon fill="midnightblue" stroke="midnightblue" points="2445.44,-141.09 2435.64,-145.12 2445.82,-148.08 2445.44,-141.09"/>
</g>
<!-- Node47&#45;&gt;Node8 -->
<g id="edge47" class="edge">
<title>Node47&#45;&gt;Node8</title>
<path fill="none" stroke="midnightblue" d="M82.25,-58.97C74.37,-47.33 65.21,-33.8 59.39,-25.19"/>
<polygon fill="midnightblue" stroke="midnightblue" points="79.45,-61.08 87.95,-67.4 85.25,-57.15 79.45,-61.08"/>
</g>
<!-- Node49&#45;&gt;Node10 -->
<g id="edge49" class="edge">
<title>Node49&#45;&gt;Node10</title>
<path fill="none" stroke="midnightblue" d="M349.42,-62.02C332.77,-51.9 312.81,-39.77 297.67,-30.58"/>
<polygon fill="midnightblue" stroke="midnightblue" points="347.92,-65.2 358.28,-67.4 351.55,-59.21 347.92,-65.2"/>
</g>
<!-- Node49&#45;&gt;Node12 -->
<g id="edge50" class="edge">
<title>Node49&#45;&gt;Node12</title>
<path fill="none" stroke="midnightblue" d="M392.57,-58.29C398.05,-46.8 404.33,-33.63 408.35,-25.19"/>
<polygon fill="midnightblue" stroke="midnightblue" points="389.37,-56.86 388.23,-67.4 395.69,-59.88 389.37,-56.86"/>
</g>
<!-- Node49&#45;&gt;Node29 -->
<g id="edge51" class="edge">
<title>Node49&#45;&gt;Node29</title>
<path fill="none" stroke="midnightblue" d="M426.18,-63.68C452.33,-53.26 484.87,-40.28 509.2,-30.58"/>
<polygon fill="midnightblue" stroke="midnightblue" points="424.86,-60.44 416.87,-67.4 427.45,-66.94 424.86,-60.44"/>
</g>
<!-- Node50&#45;&gt;Node31 -->
<g id="edge53" class="edge">
<title>Node50&#45;&gt;Node31</title>
<path fill="none" stroke="midnightblue" d="M2956.62,-62.02C2940.6,-51.9 2921.37,-39.77 2906.81,-30.58"/>
<polygon fill="midnightblue" stroke="midnightblue" points="2954.83,-65.02 2965.15,-67.4 2958.56,-59.1 2954.83,-65.02"/>
</g>
<!-- Node50&#45;&gt;Node33 -->
<g id="edge54" class="edge">
<title>Node50&#45;&gt;Node33</title>
<path fill="none" stroke="midnightblue" d="M2996.54,-57.99C3000.08,-48.8 3004.01,-38.58 3007.09,-30.58"/>
<polygon fill="midnightblue" stroke="midnightblue" points="2993.25,-56.81 2992.92,-67.4 2999.78,-59.32 2993.25,-56.81"/>
</g>
<!-- Node50&#45;&gt;Node34 -->
<g id="edge55" class="edge">
<title>Node50&#45;&gt;Node34</title>
<path fill="none" stroke="midnightblue" d="M3032.88,-63.62C3064.82,-51.04 3106.13,-34.77 3130.91,-25.01"/>
<polygon fill="midnightblue" stroke="midnightblue" points="3031.32,-60.47 3023.3,-67.4 3033.89,-66.99 3031.32,-60.47"/>
</g>
<!-- Node55&#45;&gt;Node6 -->
<g id="edge57" class="edge">
<title>Node55&#45;&gt;Node6</title>
<path fill="none" stroke="midnightblue" d="M2408.33,-261.31C2398.13,-251.56 2386.31,-240.26 2377.23,-231.58"/>
<polygon fill="midnightblue" stroke="midnightblue" points="2406.1,-264.02 2415.75,-268.4 2410.93,-258.96 2406.1,-264.02"/>
</g>
</g>
</svg>
        <g id="navigator" transform="translate(0 0)" fill="#404254">
                <rect fill="#f2f5e9" fill-opacity="0.5" stroke="#606060" stroke-width=".5" x="0" y="0" width="60" height="60"/>
                <use id="zoomplus" xlink:href="#zoomPlus" x="17" y="9" onmousedown="handleZoom(evt,'in')"/>
                <use id="zoomminus" xlink:href="#zoomMin" x="42" y="9" onmousedown="handleZoom(evt,'out')"/>
                <use id="reset" xlink:href="#resetDef" x="30" y="36" onmousedown="handleReset()"/>
                <g id="arrowUp" xlink:href="#dirArrow" transform="translate(30 24)" onmousedown="handlePan(0,-1)">
                  <use xlink:href="#rim" fill="#404040">
                        <set attributeName="fill" to="#808080" begin="arrowUp.mouseover" end="arrowUp.mouseout"/>
                  </use>
                  <path fill="none" stroke="white" stroke-width="1.5" d="M0,-3.0v7 M-2.5,-0.5L0,-3.0L2.5,-0.5"/>
                </g>
                <g id="arrowRight" xlink:href="#dirArrow" transform="rotate(90) translate(36 -43)" onmousedown="handlePan(1,0)">
                  <use xlink:href="#rim" fill="#404040">
                        <set attributeName="fill" to="#808080" begin="arrowRight.mouseover" end="arrowRight.mouseout"/>
                  </use>
                  <path fill="none" stroke="white" stroke-width="1.5" d="M0,-3.0v7 M-2.5,-0.5L0,-3.0L2.5,-0.5"/>
                </g>
                <g id="arrowDown" xlink:href="#dirArrow" transform="rotate(180) translate(-30 -48)" onmousedown="handlePan(0,1)">
                  <use xlink:href="#rim" fill="#404040">
                        <set attributeName="fill" to="#808080" begin="arrowDown.mouseover" end="arrowDown.mouseout"/>
                  </use>
                  <path fill="none" stroke="white" stroke-width="1.5" d="M0,-3.0v7 M-2.5,-0.5L0,-3.0L2.5,-0.5"/>
                </g>
                <g id="arrowLeft" xlink:href="#dirArrow" transform="rotate(270) translate(-36 17)" onmousedown="handlePan(-1,0)">
                  <use xlink:href="#rim" fill="#404040">
                        <set attributeName="fill" to="#808080" begin="arrowLeft.mouseover" end="arrowLeft.mouseout"/>
                  </use>
                  <path fill="none" stroke="white" stroke-width="1.5" d="M0,-3.0v7 M-2.5,-0.5L0,-3.0L2.5,-0.5"/>
                </g>
        </g>
        <svg viewBox="0 0 15 15" width="100%" height="30px" preserveAspectRatio="xMaxYMin meet">
         <g id="arrow_out" transform="scale(0.3 0.3)">
          <a xlink:href="c__m3d__g__aab_8h__dep__incl_org.svg" target="_base">
           <rect id="button" ry="5" rx="5" y="6" x="6" height="38" width="38"
                fill="#f2f5e9" fill-opacity="0.5" stroke="#606060" stroke-width="1.0"/>
           <path id="arrow"
             d="M 11.500037,31.436501 C 11.940474,20.09759 22.043105,11.32322 32.158766,21.979434 L 37.068811,17.246167 C 37.068811,17.246167 37.088388,32 37.088388,32 L 22.160133,31.978069 C 22.160133,31.978069 26.997745,27.140456 26.997745,27.140456 C 18.528582,18.264221 13.291696,25.230495 11.500037,31.436501 z"
             style="fill:#404040;"/>
          </a>
         </g>
        </svg>
</svg>
