<?xml version="1.0" encoding="UTF-8" standalone="no"?>
<!DOCTYPE svg PUBLIC "-//W3C//DTD SVG 1.1//EN"
 "http://www.w3.org/Graphics/SVG/1.1/DTD/svg11.dtd">
<!-- Generated by graphviz version 2.46.0 (20210122.1329)
 -->
<!-- Title: include/SComponent/c_m3d_g_cyl.h Pages: 1 -->
<svg width="4895pt" height="441pt"
 viewBox="0.00 0.00 4895.00 441.00" xmlns="http://www.w3.org/2000/svg" xmlns:xlink="http://www.w3.org/1999/xlink">
<g id="graph0" class="graph" transform="scale(1 1) rotate(0) translate(4 437)">
<title>include/SComponent/c_m3d_g_cyl.h</title>
<polygon fill="white" stroke="transparent" points="-4,4 -4,-437 4891,-437 4891,4 -4,4"/>
<!-- Node1 -->
<g id="node1" class="node">
<title>Node1</title>
<g id="a_node1"><a xlink:title=" ">
<polygon fill="#bfbfbf" stroke="black" points="308.5,-402.5 308.5,-432.5 415.5,-432.5 415.5,-402.5 308.5,-402.5"/>
<text text-anchor="start" x="316.5" y="-420.5" font-family="Helvetica,sans-Serif" font-size="10.00">include/SComponent</text>
<text text-anchor="middle" x="362" y="-409.5" font-family="Helvetica,sans-Serif" font-size="10.00">/c_m3d_g_cyl.h</text>
</a>
</g>
</g>
<!-- Node2 -->
<g id="node2" class="node">
<title>Node2</title>
<g id="a_node2"><a xlink:href="d__camera_8cpp.html" target="_top" xlink:title=" ">
<polygon fill="white" stroke="black" points="415,-73 415,-92 517,-92 517,-73 415,-73"/>
<text text-anchor="middle" x="466" y="-80" font-family="Helvetica,sans-Serif" font-size="10.00">src/d/d_camera.cpp</text>
</a>
</g>
</g>
<!-- Node1&#45;&gt;Node2 -->
<g id="edge1" class="edge">
<title>Node1&#45;&gt;Node2</title>
<path fill="none" stroke="midnightblue" d="M416.47,-398.42C433.93,-390.58 452.28,-379.94 466,-366 494.04,-337.52 504,-324.47 504,-284.5 504,-284.5 504,-284.5 504,-215.5 504,-167.33 480.34,-112.99 470.36,-92.21"/>
<polygon fill="midnightblue" stroke="midnightblue" points="414.73,-395.36 406.9,-402.49 417.47,-401.8 414.73,-395.36"/>
</g>
<!-- Node3 -->
<g id="node3" class="node">
<title>Node3</title>
<g id="a_node3"><a xlink:href="c__m3d__g__cyl_8cpp.html" target="_top" xlink:title=" ">
<polygon fill="white" stroke="black" points="159,-335.5 159,-365.5 293,-365.5 293,-335.5 159,-335.5"/>
<text text-anchor="start" x="167" y="-353.5" font-family="Helvetica,sans-Serif" font-size="10.00">libs/SSystem/SComponent</text>
<text text-anchor="middle" x="226" y="-342.5" font-family="Helvetica,sans-Serif" font-size="10.00">/c_m3d_g_cyl.cpp</text>
</a>
</g>
</g>
<!-- Node1&#45;&gt;Node3 -->
<g id="edge2" class="edge">
<title>Node1&#45;&gt;Node3</title>
<path fill="none" stroke="midnightblue" d="M323.28,-397.99C301.72,-387.69 275.31,-375.07 255.45,-365.58"/>
<polygon fill="midnightblue" stroke="midnightblue" points="321.96,-401.24 332.49,-402.4 324.98,-394.93 321.96,-401.24"/>
</g>
<!-- Node4 -->
<g id="node4" class="node">
<title>Node4</title>
<g id="a_node4"><a xlink:href="c__m3d_8cpp.html" target="_top" xlink:title=" ">
<polygon fill="white" stroke="black" points="152,-268.5 152,-298.5 286,-298.5 286,-268.5 152,-268.5"/>
<text text-anchor="start" x="160" y="-286.5" font-family="Helvetica,sans-Serif" font-size="10.00">libs/SSystem/SComponent</text>
<text text-anchor="middle" x="219" y="-275.5" font-family="Helvetica,sans-Serif" font-size="10.00">/c_m3d.cpp</text>
</a>
</g>
</g>
<!-- Node1&#45;&gt;Node4 -->
<g id="edge3" class="edge">
<title>Node1&#45;&gt;Node4</title>
<path fill="none" stroke="midnightblue" d="M348.38,-393.26C337.38,-375.83 320.7,-352.12 302,-335 285.95,-320.31 265,-307.6 248.17,-298.61"/>
<polygon fill="midnightblue" stroke="midnightblue" points="345.66,-395.53 353.88,-402.22 351.63,-391.87 345.66,-395.53"/>
</g>
<!-- Node5 -->
<g id="node5" class="node">
<title>Node5</title>
<g id="a_node5"><a xlink:href="c__cc__d_8h.html" target="_top" xlink:title=" ">
<polygon fill="white" stroke="black" points="1416.5,-335.5 1416.5,-365.5 1523.5,-365.5 1523.5,-335.5 1416.5,-335.5"/>
<text text-anchor="start" x="1424.5" y="-353.5" font-family="Helvetica,sans-Serif" font-size="10.00">include/SComponent</text>
<text text-anchor="middle" x="1470" y="-342.5" font-family="Helvetica,sans-Serif" font-size="10.00">/c_cc_d/c_cc_d.h</text>
</a>
</g>
</g>
<!-- Node1&#45;&gt;Node5 -->
<g id="edge4" class="edge">
<title>Node1&#45;&gt;Node5</title>
<path fill="none" stroke="midnightblue" d="M425.82,-412.76C624.81,-401.08 1231.62,-365.48 1416.18,-354.66"/>
<polygon fill="midnightblue" stroke="midnightblue" points="425.59,-409.26 415.82,-413.34 426,-416.25 425.59,-409.26"/>
</g>
<!-- Node45 -->
<g id="node45" class="node">
<title>Node45</title>
<g id="a_node45"><a xlink:href="c__m3d__g__tri_8h.html" target="_top" xlink:title=" ">
<polygon fill="white" stroke="black" points="33.5,-335.5 33.5,-365.5 140.5,-365.5 140.5,-335.5 33.5,-335.5"/>
<text text-anchor="start" x="41.5" y="-353.5" font-family="Helvetica,sans-Serif" font-size="10.00">include/SComponent</text>
<text text-anchor="middle" x="87" y="-342.5" font-family="Helvetica,sans-Serif" font-size="10.00">/c_m3d_g_tri.h</text>
</a>
</g>
</g>
<!-- Node1&#45;&gt;Node45 -->
<g id="edge52" class="edge">
<title>Node1&#45;&gt;Node45</title>
<path fill="none" stroke="midnightblue" d="M298.39,-401.46C250.55,-390.16 185.74,-374.84 140.54,-364.15"/>
<polygon fill="midnightblue" stroke="midnightblue" points="297.79,-404.92 308.32,-403.81 299.4,-398.11 297.79,-404.92"/>
</g>
<!-- Node47 -->
<g id="node47" class="node">
<title>Node47</title>
<g id="a_node47"><a xlink:href="c__m3d__g__sph_8h.html" target="_top" xlink:title=" ">
<polygon fill="white" stroke="black" points="349.5,-335.5 349.5,-365.5 456.5,-365.5 456.5,-335.5 349.5,-335.5"/>
<text text-anchor="start" x="357.5" y="-353.5" font-family="Helvetica,sans-Serif" font-size="10.00">include/SComponent</text>
<text text-anchor="middle" x="403" y="-342.5" font-family="Helvetica,sans-Serif" font-size="10.00">/c_m3d_g_sph.h</text>
</a>
</g>
</g>
<!-- Node1&#45;&gt;Node47 -->
<g id="edge55" class="edge">
<title>Node1&#45;&gt;Node47</title>
<path fill="none" stroke="midnightblue" d="M376.28,-393.87C382.21,-384.46 388.91,-373.83 394.12,-365.58"/>
<polygon fill="midnightblue" stroke="midnightblue" points="373.27,-392.07 370.9,-402.4 379.19,-395.81 373.27,-392.07"/>
</g>
<!-- Node6 -->
<g id="node6" class="node">
<title>Node6</title>
<g id="a_node6"><a xlink:href="d__cc__mass__s_8h.html" target="_top" xlink:title=" ">
<polygon fill="white" stroke="black" points="1406,-268.5 1406,-298.5 1534,-298.5 1534,-268.5 1406,-268.5"/>
<text text-anchor="start" x="1414" y="-286.5" font-family="Helvetica,sans-Serif" font-size="10.00">include/d/d_cc/d_cc</text>
<text text-anchor="middle" x="1470" y="-275.5" font-family="Helvetica,sans-Serif" font-size="10.00">_mass_s/d_cc_mass_s.h</text>
</a>
</g>
</g>
<!-- Node5&#45;&gt;Node6 -->
<g id="edge5" class="edge">
<title>Node5&#45;&gt;Node6</title>
<path fill="none" stroke="midnightblue" d="M1470,-325.11C1470,-316.15 1470,-306.32 1470,-298.58"/>
<polygon fill="midnightblue" stroke="midnightblue" points="1466.5,-325.4 1470,-335.4 1473.5,-325.4 1466.5,-325.4"/>
</g>
<!-- Node44 -->
<g id="node44" class="node">
<title>Node44</title>
<g id="a_node44"><a xlink:href="c__cc__s_8h.html" target="_top" xlink:title=" ">
<polygon fill="white" stroke="black" points="1552.5,-268.5 1552.5,-298.5 1659.5,-298.5 1659.5,-268.5 1552.5,-268.5"/>
<text text-anchor="start" x="1560.5" y="-286.5" font-family="Helvetica,sans-Serif" font-size="10.00">include/SComponent</text>
<text text-anchor="middle" x="1606" y="-275.5" font-family="Helvetica,sans-Serif" font-size="10.00">/c_cc_s/c_cc_s.h</text>
</a>
</g>
</g>
<!-- Node5&#45;&gt;Node44 -->
<g id="edge50" class="edge">
<title>Node5&#45;&gt;Node44</title>
<path fill="none" stroke="midnightblue" d="M1508.72,-330.99C1530.28,-320.69 1556.69,-308.07 1576.55,-298.58"/>
<polygon fill="midnightblue" stroke="midnightblue" points="1507.02,-327.93 1499.51,-335.4 1510.04,-334.24 1507.02,-327.93"/>
</g>
<!-- Node7 -->
<g id="node7" class="node">
<title>Node7</title>
<g id="a_node7"><a xlink:href="d__cc__s_8h.html" target="_top" xlink:title=" ">
<polygon fill="white" stroke="black" points="1554,-201.5 1554,-231.5 1658,-231.5 1658,-201.5 1554,-201.5"/>
<text text-anchor="start" x="1562" y="-219.5" font-family="Helvetica,sans-Serif" font-size="10.00">include/d/d_cc/d_cc</text>
<text text-anchor="middle" x="1606" y="-208.5" font-family="Helvetica,sans-Serif" font-size="10.00">_s/d_cc_s.h</text>
</a>
</g>
</g>
<!-- Node6&#45;&gt;Node7 -->
<g id="edge6" class="edge">
<title>Node6&#45;&gt;Node7</title>
<path fill="none" stroke="midnightblue" d="M1508.72,-263.99C1530.28,-253.69 1556.69,-241.07 1576.55,-231.58"/>
<polygon fill="midnightblue" stroke="midnightblue" points="1507.02,-260.93 1499.51,-268.4 1510.04,-267.24 1507.02,-260.93"/>
</g>
<!-- Node8 -->
<g id="node8" class="node">
<title>Node8</title>
<g id="a_node8"><a xlink:href="d__com__inf__game_8h.html" target="_top" xlink:title=" ">
<polygon fill="white" stroke="black" points="2408,-134.5 2408,-164.5 2554,-164.5 2554,-134.5 2408,-134.5"/>
<text text-anchor="start" x="2416" y="-152.5" font-family="Helvetica,sans-Serif" font-size="10.00">include/d/d_com/d_com</text>
<text text-anchor="middle" x="2481" y="-141.5" font-family="Helvetica,sans-Serif" font-size="10.00">_inf_game/d_com_inf_game.h</text>
</a>
</g>
</g>
<!-- Node7&#45;&gt;Node8 -->
<g id="edge7" class="edge">
<title>Node7&#45;&gt;Node8</title>
<path fill="none" stroke="midnightblue" d="M1668.1,-210.89C1825.4,-199.2 2238.98,-168.48 2407.73,-155.94"/>
<polygon fill="midnightblue" stroke="midnightblue" points="1667.83,-207.4 1658.11,-211.63 1668.35,-214.38 1667.83,-207.4"/>
</g>
<!-- Node8&#45;&gt;Node2 -->
<g id="edge9" class="edge">
<title>Node8&#45;&gt;Node2</title>
<path fill="none" stroke="midnightblue" d="M2397.52,-148.69C2073.14,-149.06 896.12,-146.94 526,-98 516.12,-96.69 505.5,-94.42 495.98,-92.06"/>
<polygon fill="midnightblue" stroke="midnightblue" points="2397.79,-152.19 2407.79,-148.68 2397.78,-145.19 2397.79,-152.19"/>
</g>
<!-- Node9 -->
<g id="node9" class="node">
<title>Node9</title>
<g id="a_node9"><a xlink:href="d__attention_8cpp.html" target="_top" xlink:title=" ">
<polygon fill="white" stroke="black" points="4637.5,-6 4637.5,-25 4744.5,-25 4744.5,-6 4637.5,-6"/>
<text text-anchor="middle" x="4691" y="-13" font-family="Helvetica,sans-Serif" font-size="10.00">src/d/d_attention.cpp</text>
</a>
</g>
</g>
<!-- Node8&#45;&gt;Node9 -->
<g id="edge8" class="edge">
<title>Node8&#45;&gt;Node9</title>
<path fill="none" stroke="midnightblue" d="M2564.32,-148.14C2945.07,-146.28 4504.99,-136.33 4601,-98 4610.94,-94.03 4661.71,-45.11 4682.3,-25.02"/>
<polygon fill="midnightblue" stroke="midnightblue" points="2564.19,-144.64 2554.21,-148.19 2564.23,-151.64 2564.19,-144.64"/>
</g>
<!-- Node10 -->
<g id="node10" class="node">
<title>Node10</title>
<g id="a_node10"><a xlink:href="d__com__inf__game_8cpp.html" target="_top" xlink:title=" ">
<polygon fill="white" stroke="black" points="2103.5,-0.5 2103.5,-30.5 2222.5,-30.5 2222.5,-0.5 2103.5,-0.5"/>
<text text-anchor="start" x="2111.5" y="-18.5" font-family="Helvetica,sans-Serif" font-size="10.00">src/d/d_com/d_com_inf</text>
<text text-anchor="middle" x="2163" y="-7.5" font-family="Helvetica,sans-Serif" font-size="10.00">_game.cpp</text>
</a>
</g>
</g>
<!-- Node8&#45;&gt;Node10 -->
<g id="edge10" class="edge">
<title>Node8&#45;&gt;Node10</title>
<path fill="none" stroke="midnightblue" d="M2397.71,-147.74C2046.42,-144.34 702.46,-129.32 672,-98 662.39,-88.12 662.42,-76.91 672,-67 722.52,-14.74 1831.08,-15.3 2103.13,-16.23"/>
<polygon fill="midnightblue" stroke="midnightblue" points="2397.78,-151.24 2407.81,-147.84 2397.84,-144.24 2397.78,-151.24"/>
</g>
<!-- Node11 -->
<g id="node11" class="node">
<title>Node11</title>
<g id="a_node11"><a xlink:href="d__file__sel__info_8cpp.html" target="_top" xlink:title=" ">
<polygon fill="white" stroke="black" points="534.5,-67.5 534.5,-97.5 623.5,-97.5 623.5,-67.5 534.5,-67.5"/>
<text text-anchor="start" x="542.5" y="-85.5" font-family="Helvetica,sans-Serif" font-size="10.00">src/d/d_file/d_file</text>
<text text-anchor="middle" x="579" y="-74.5" font-family="Helvetica,sans-Serif" font-size="10.00">_sel_info.cpp</text>
</a>
</g>
</g>
<!-- Node8&#45;&gt;Node11 -->
<g id="edge11" class="edge">
<title>Node8&#45;&gt;Node11</title>
<path fill="none" stroke="midnightblue" d="M2397.66,-148.58C2085.42,-148.51 985.07,-144.85 638,-98 633.3,-97.36 628.42,-96.51 623.59,-95.52"/>
<polygon fill="midnightblue" stroke="midnightblue" points="2397.99,-152.08 2407.99,-148.58 2397.99,-145.08 2397.99,-152.08"/>
</g>
<!-- Node12 -->
<g id="node12" class="node">
<title>Node12</title>
<g id="a_node12"><a xlink:href="d__item_8cpp.html" target="_top" xlink:title=" ">
<polygon fill="white" stroke="black" points="3201.5,-6 3201.5,-25 3322.5,-25 3322.5,-6 3201.5,-6"/>
<text text-anchor="middle" x="3262" y="-13" font-family="Helvetica,sans-Serif" font-size="10.00">src/d/d_item/d_item.cpp</text>
</a>
</g>
</g>
<!-- Node8&#45;&gt;Node12 -->
<g id="edge12" class="edge">
<title>Node8&#45;&gt;Node12</title>
<path fill="none" stroke="midnightblue" d="M2564.26,-147.89C2929.87,-145.01 4376.35,-131.52 4409,-98 4418.61,-88.13 4418.53,-76.95 4409,-67 4371.17,-27.46 3554.05,-18.6 3322.6,-16.87"/>
<polygon fill="midnightblue" stroke="midnightblue" points="2563.99,-144.39 2554.02,-147.97 2564.04,-151.39 2563.99,-144.39"/>
</g>
<!-- Node13 -->
<g id="node13" class="node">
<title>Node13</title>
<g id="a_node13"><a xlink:href="d__kankyo__rain_8cpp.html" target="_top" xlink:title=" ">
<polygon fill="white" stroke="black" points="680.5,-67.5 680.5,-97.5 807.5,-97.5 807.5,-67.5 680.5,-67.5"/>
<text text-anchor="start" x="688.5" y="-85.5" font-family="Helvetica,sans-Serif" font-size="10.00">src/d/d_kankyo/d_kankyo</text>
<text text-anchor="middle" x="744" y="-74.5" font-family="Helvetica,sans-Serif" font-size="10.00">_rain.cpp</text>
</a>
</g>
</g>
<!-- Node8&#45;&gt;Node13 -->
<g id="edge13" class="edge">
<title>Node8&#45;&gt;Node13</title>
<path fill="none" stroke="midnightblue" d="M2397.81,-147.8C2105.79,-145.06 1128.3,-133.39 817,-98 813.92,-97.65 810.77,-97.24 807.6,-96.78"/>
<polygon fill="midnightblue" stroke="midnightblue" points="2397.88,-151.3 2407.91,-147.89 2397.94,-144.3 2397.88,-151.3"/>
</g>
<!-- Node14 -->
<g id="node14" class="node">
<title>Node14</title>
<g id="a_node14"><a xlink:href="d__kankyo__wether_8cpp.html" target="_top" xlink:title=" ">
<polygon fill="white" stroke="black" points="825.5,-67.5 825.5,-97.5 952.5,-97.5 952.5,-67.5 825.5,-67.5"/>
<text text-anchor="start" x="833.5" y="-85.5" font-family="Helvetica,sans-Serif" font-size="10.00">src/d/d_kankyo/d_kankyo</text>
<text text-anchor="middle" x="889" y="-74.5" font-family="Helvetica,sans-Serif" font-size="10.00">_wether.cpp</text>
</a>
</g>
</g>
<!-- Node8&#45;&gt;Node14 -->
<g id="edge14" class="edge">
<title>Node8&#45;&gt;Node14</title>
<path fill="none" stroke="midnightblue" d="M2397.27,-147.51C2121.53,-143.98 1243.45,-130.41 962,-98 958.92,-97.65 955.77,-97.23 952.6,-96.77"/>
<polygon fill="midnightblue" stroke="midnightblue" points="2397.56,-151.02 2407.61,-147.64 2397.65,-144.02 2397.56,-151.02"/>
</g>
<!-- Node15 -->
<g id="node15" class="node">
<title>Node15</title>
<g id="a_node15"><a xlink:href="d__kankyo_8cpp.html" target="_top" xlink:title=" ">
<polygon fill="white" stroke="black" points="970.5,-73 970.5,-92 1071.5,-92 1071.5,-73 970.5,-73"/>
<text text-anchor="middle" x="1021" y="-80" font-family="Helvetica,sans-Serif" font-size="10.00">src/d/d_kankyo.cpp</text>
</a>
</g>
</g>
<!-- Node8&#45;&gt;Node15 -->
<g id="edge15" class="edge">
<title>Node8&#45;&gt;Node15</title>
<path fill="none" stroke="midnightblue" d="M2397.6,-147.69C2136.61,-144.81 1337.64,-133.27 1081,-98 1071.23,-96.66 1060.74,-94.41 1051.3,-92.08"/>
<polygon fill="midnightblue" stroke="midnightblue" points="2397.73,-151.19 2407.77,-147.8 2397.81,-144.19 2397.73,-151.19"/>
</g>
<!-- Node16 -->
<g id="node16" class="node">
<title>Node16</title>
<g id="a_node16"><a xlink:href="d__kantera__icon__meter_8cpp.html" target="_top" xlink:title=" ">
<polygon fill="white" stroke="black" points="1089.5,-67.5 1089.5,-97.5 1196.5,-97.5 1196.5,-67.5 1089.5,-67.5"/>
<text text-anchor="start" x="1097.5" y="-85.5" font-family="Helvetica,sans-Serif" font-size="10.00">src/d/d_kantera_icon</text>
<text text-anchor="middle" x="1143" y="-74.5" font-family="Helvetica,sans-Serif" font-size="10.00">_meter.cpp</text>
</a>
</g>
</g>
<!-- Node8&#45;&gt;Node16 -->
<g id="edge16" class="edge">
<title>Node8&#45;&gt;Node16</title>
<path fill="none" stroke="midnightblue" d="M2397.6,-147.23C2152.55,-143.17 1437.48,-128.95 1206,-98 1203,-97.6 1199.93,-97.12 1196.84,-96.59"/>
<polygon fill="midnightblue" stroke="midnightblue" points="2397.81,-150.73 2407.87,-147.4 2397.92,-143.73 2397.81,-150.73"/>
</g>
<!-- Node17 -->
<g id="node17" class="node">
<title>Node17</title>
<g id="a_node17"><a xlink:href="d__meter__button_8cpp.html" target="_top" xlink:title=" ">
<polygon fill="white" stroke="black" points="1214.5,-67.5 1214.5,-97.5 1329.5,-97.5 1329.5,-67.5 1214.5,-67.5"/>
<text text-anchor="start" x="1222.5" y="-85.5" font-family="Helvetica,sans-Serif" font-size="10.00">src/d/d_meter/d_meter</text>
<text text-anchor="middle" x="1272" y="-74.5" font-family="Helvetica,sans-Serif" font-size="10.00">_button.cpp</text>
</a>
</g>
</g>
<!-- Node8&#45;&gt;Node17 -->
<g id="edge17" class="edge">
<title>Node8&#45;&gt;Node17</title>
<path fill="none" stroke="midnightblue" d="M2397.77,-146.65C2170.71,-141.3 1543.86,-124.5 1339,-98 1335.93,-97.6 1332.79,-97.14 1329.64,-96.62"/>
<polygon fill="midnightblue" stroke="midnightblue" points="2397.88,-150.15 2407.96,-146.88 2398.04,-143.15 2397.88,-150.15"/>
</g>
<!-- Node18 -->
<g id="node18" class="node">
<title>Node18</title>
<g id="a_node18"><a xlink:href="d__meter__haihai_8cpp.html" target="_top" xlink:title=" ">
<polygon fill="white" stroke="black" points="1347.5,-67.5 1347.5,-97.5 1462.5,-97.5 1462.5,-67.5 1347.5,-67.5"/>
<text text-anchor="start" x="1355.5" y="-85.5" font-family="Helvetica,sans-Serif" font-size="10.00">src/d/d_meter/d_meter</text>
<text text-anchor="middle" x="1405" y="-74.5" font-family="Helvetica,sans-Serif" font-size="10.00">_haihai.cpp</text>
</a>
</g>
</g>
<!-- Node8&#45;&gt;Node18 -->
<g id="edge18" class="edge">
<title>Node8&#45;&gt;Node18</title>
<path fill="none" stroke="midnightblue" d="M2397.76,-148.91C2224.63,-148.76 1813.39,-143.18 1472,-98 1468.93,-97.59 1465.8,-97.12 1462.64,-96.6"/>
<polygon fill="midnightblue" stroke="midnightblue" points="2397.82,-152.41 2407.82,-148.91 2397.83,-145.41 2397.82,-152.41"/>
</g>
<!-- Node19 -->
<g id="node19" class="node">
<title>Node19</title>
<g id="a_node19"><a xlink:href="d__meter__hakusha_8cpp.html" target="_top" xlink:title=" ">
<polygon fill="white" stroke="black" points="1480.5,-67.5 1480.5,-97.5 1595.5,-97.5 1595.5,-67.5 1480.5,-67.5"/>
<text text-anchor="start" x="1488.5" y="-85.5" font-family="Helvetica,sans-Serif" font-size="10.00">src/d/d_meter/d_meter</text>
<text text-anchor="middle" x="1538" y="-74.5" font-family="Helvetica,sans-Serif" font-size="10.00">_hakusha.cpp</text>
</a>
</g>
</g>
<!-- Node8&#45;&gt;Node19 -->
<g id="edge19" class="edge">
<title>Node8&#45;&gt;Node19</title>
<path fill="none" stroke="midnightblue" d="M2397.95,-148C2241.89,-146.12 1894.49,-137.43 1605,-98 1601.93,-97.58 1598.8,-97.1 1595.64,-96.57"/>
<polygon fill="midnightblue" stroke="midnightblue" points="2397.91,-151.5 2407.95,-148.12 2397.99,-144.5 2397.91,-151.5"/>
</g>
<!-- Node20 -->
<g id="node20" class="node">
<title>Node20</title>
<g id="a_node20"><a xlink:href="d__meter__map_8cpp.html" target="_top" xlink:title=" ">
<polygon fill="white" stroke="black" points="1613.5,-67.5 1613.5,-97.5 1728.5,-97.5 1728.5,-67.5 1613.5,-67.5"/>
<text text-anchor="start" x="1621.5" y="-85.5" font-family="Helvetica,sans-Serif" font-size="10.00">src/d/d_meter/d_meter</text>
<text text-anchor="middle" x="1671" y="-74.5" font-family="Helvetica,sans-Serif" font-size="10.00">_map.cpp</text>
</a>
</g>
</g>
<!-- Node8&#45;&gt;Node20 -->
<g id="edge20" class="edge">
<title>Node8&#45;&gt;Node20</title>
<path fill="none" stroke="midnightblue" d="M2397.8,-146.78C2259.98,-143.06 1975.92,-131.65 1738,-98 1734.94,-97.57 1731.8,-97.07 1728.65,-96.53"/>
<polygon fill="midnightblue" stroke="midnightblue" points="2397.78,-150.28 2407.87,-147.05 2397.96,-143.29 2397.78,-150.28"/>
</g>
<!-- Node21 -->
<g id="node21" class="node">
<title>Node21</title>
<g id="a_node21"><a xlink:href="d__meter__string_8cpp.html" target="_top" xlink:title=" ">
<polygon fill="white" stroke="black" points="1746.5,-67.5 1746.5,-97.5 1861.5,-97.5 1861.5,-67.5 1746.5,-67.5"/>
<text text-anchor="start" x="1754.5" y="-85.5" font-family="Helvetica,sans-Serif" font-size="10.00">src/d/d_meter/d_meter</text>
<text text-anchor="middle" x="1804" y="-74.5" font-family="Helvetica,sans-Serif" font-size="10.00">_string.cpp</text>
</a>
</g>
</g>
<!-- Node8&#45;&gt;Node21 -->
<g id="edge21" class="edge">
<title>Node8&#45;&gt;Node21</title>
<path fill="none" stroke="midnightblue" d="M2397.85,-145.06C2280.07,-139.41 2058.15,-125.88 1871,-98 1867.94,-97.54 1864.81,-97.03 1861.66,-96.48"/>
<polygon fill="midnightblue" stroke="midnightblue" points="2397.72,-148.56 2407.87,-145.53 2398.05,-141.56 2397.72,-148.56"/>
</g>
<!-- Node22 -->
<g id="node22" class="node">
<title>Node22</title>
<g id="a_node22"><a xlink:href="d__meter2__draw_8cpp.html" target="_top" xlink:title=" ">
<polygon fill="white" stroke="black" points="1879.5,-67.5 1879.5,-97.5 2004.5,-97.5 2004.5,-67.5 1879.5,-67.5"/>
<text text-anchor="start" x="1887.5" y="-85.5" font-family="Helvetica,sans-Serif" font-size="10.00">src/d/d_meter2/d_meter2</text>
<text text-anchor="middle" x="1942" y="-74.5" font-family="Helvetica,sans-Serif" font-size="10.00">_draw.cpp</text>
</a>
</g>
</g>
<!-- Node8&#45;&gt;Node22 -->
<g id="edge22" class="edge">
<title>Node8&#45;&gt;Node22</title>
<path fill="none" stroke="midnightblue" d="M2397.95,-141.82C2304.34,-133.75 2147.75,-118.66 2014,-98 2010.98,-97.53 2007.89,-97.03 2004.77,-96.49"/>
<polygon fill="midnightblue" stroke="midnightblue" points="2397.67,-145.31 2407.93,-142.67 2398.27,-138.33 2397.67,-145.31"/>
</g>
<!-- Node23 -->
<g id="node23" class="node">
<title>Node23</title>
<g id="a_node23"><a xlink:href="d__meter2__info_8cpp.html" target="_top" xlink:title=" ">
<polygon fill="white" stroke="black" points="2022.5,-67.5 2022.5,-97.5 2147.5,-97.5 2147.5,-67.5 2022.5,-67.5"/>
<text text-anchor="start" x="2030.5" y="-85.5" font-family="Helvetica,sans-Serif" font-size="10.00">src/d/d_meter2/d_meter2</text>
<text text-anchor="middle" x="2085" y="-74.5" font-family="Helvetica,sans-Serif" font-size="10.00">_info.cpp</text>
</a>
</g>
</g>
<!-- Node8&#45;&gt;Node23 -->
<g id="edge23" class="edge">
<title>Node8&#45;&gt;Node23</title>
<path fill="none" stroke="midnightblue" d="M2397.55,-136.53C2332.02,-126.87 2238.52,-112.56 2157,-98 2153.99,-97.46 2150.91,-96.9 2147.8,-96.32"/>
<polygon fill="midnightblue" stroke="midnightblue" points="2397.42,-140.05 2407.82,-138.04 2398.44,-133.12 2397.42,-140.05"/>
</g>
<!-- Node24 -->
<g id="node24" class="node">
<title>Node24</title>
<g id="a_node24"><a xlink:href="d__meter2_8cpp.html" target="_top" xlink:title=" ">
<polygon fill="white" stroke="black" points="2166,-73 2166,-92 2266,-92 2266,-73 2166,-73"/>
<text text-anchor="middle" x="2216" y="-80" font-family="Helvetica,sans-Serif" font-size="10.00">src/d/d_meter2.cpp</text>
</a>
</g>
</g>
<!-- Node8&#45;&gt;Node24 -->
<g id="edge24" class="edge">
<title>Node8&#45;&gt;Node24</title>
<path fill="none" stroke="midnightblue" d="M2414.01,-132.07C2362.05,-119.32 2292.11,-102.17 2250.77,-92.03"/>
<polygon fill="midnightblue" stroke="midnightblue" points="2413.28,-135.49 2423.83,-134.48 2414.95,-128.69 2413.28,-135.49"/>
</g>
<!-- Node25 -->
<g id="node25" class="node">
<title>Node25</title>
<g id="a_node25"><a xlink:href="d__save_8cpp.html" target="_top" xlink:title=" ">
<polygon fill="white" stroke="black" points="2284.5,-73 2284.5,-92 2409.5,-92 2409.5,-73 2284.5,-73"/>
<text text-anchor="middle" x="2347" y="-80" font-family="Helvetica,sans-Serif" font-size="10.00">src/d/d_save/d_save.cpp</text>
</a>
</g>
</g>
<!-- Node8&#45;&gt;Node25 -->
<g id="edge25" class="edge">
<title>Node8&#45;&gt;Node25</title>
<path fill="none" stroke="midnightblue" d="M2442.79,-129.97C2417.05,-117.48 2384.31,-101.6 2364.54,-92.01"/>
<polygon fill="midnightblue" stroke="midnightblue" points="2441.4,-133.18 2451.92,-134.4 2444.45,-126.88 2441.4,-133.18"/>
</g>
<!-- Node26 -->
<g id="node26" class="node">
<title>Node26</title>
<g id="a_node26"><a xlink:href="d__save__HIO_8cpp.html" target="_top" xlink:title=" ">
<polygon fill="white" stroke="black" points="2427.5,-67.5 2427.5,-97.5 2534.5,-97.5 2534.5,-67.5 2427.5,-67.5"/>
<text text-anchor="start" x="2435.5" y="-85.5" font-family="Helvetica,sans-Serif" font-size="10.00">src/d/d_save/d_save</text>
<text text-anchor="middle" x="2481" y="-74.5" font-family="Helvetica,sans-Serif" font-size="10.00">_HIO.cpp</text>
</a>
</g>
</g>
<!-- Node8&#45;&gt;Node26 -->
<g id="edge26" class="edge">
<title>Node8&#45;&gt;Node26</title>
<path fill="none" stroke="midnightblue" d="M2481,-124.11C2481,-115.15 2481,-105.32 2481,-97.58"/>
<polygon fill="midnightblue" stroke="midnightblue" points="2477.5,-124.4 2481,-134.4 2484.5,-124.4 2477.5,-124.4"/>
</g>
<!-- Node27 -->
<g id="node27" class="node">
<title>Node27</title>
<g id="a_node27"><a xlink:href="d__stage_8cpp.html" target="_top" xlink:title=" ">
<polygon fill="white" stroke="black" points="2553,-73 2553,-92 2647,-92 2647,-73 2553,-73"/>
<text text-anchor="middle" x="2600" y="-80" font-family="Helvetica,sans-Serif" font-size="10.00">src/d/d_stage.cpp</text>
</a>
</g>
</g>
<!-- Node8&#45;&gt;Node27 -->
<g id="edge27" class="edge">
<title>Node8&#45;&gt;Node27</title>
<path fill="none" stroke="midnightblue" d="M2515.83,-129.47C2538.55,-117.06 2567.1,-101.47 2584.43,-92.01"/>
<polygon fill="midnightblue" stroke="midnightblue" points="2513.92,-126.53 2506.82,-134.4 2517.28,-132.67 2513.92,-126.53"/>
</g>
<!-- Node28 -->
<g id="node28" class="node">
<title>Node28</title>
<g id="a_node28"><a xlink:href="f__pc__manager_8cpp.html" target="_top" xlink:title=" ">
<polygon fill="white" stroke="black" points="4342,-6 4342,-25 4482,-25 4482,-6 4342,-6"/>
<text text-anchor="middle" x="4412" y="-13" font-family="Helvetica,sans-Serif" font-size="10.00">src/f/f_pc/f_pc_manager.cpp</text>
</a>
</g>
</g>
<!-- Node8&#45;&gt;Node28 -->
<g id="edge28" class="edge">
<title>Node8&#45;&gt;Node28</title>
<path fill="none" stroke="midnightblue" d="M2564.11,-147.91C2931.49,-145.11 4393.03,-131.84 4426,-98 4445.44,-78.05 4427.37,-41.53 4417.49,-25.02"/>
<polygon fill="midnightblue" stroke="midnightblue" points="2564.05,-144.41 2554.08,-147.99 2564.11,-151.41 2564.05,-144.41"/>
</g>
<!-- Node29 -->
<g id="node29" class="node">
<title>Node29</title>
<g id="a_node29"><a xlink:href="m__Do__audio_8cpp.html" target="_top" xlink:title=" ">
<polygon fill="white" stroke="black" points="2779,-73 2779,-92 2913,-92 2913,-73 2779,-73"/>
<text text-anchor="middle" x="2846" y="-80" font-family="Helvetica,sans-Serif" font-size="10.00">src/m_Do/m_Do_audio.cpp</text>
</a>
</g>
</g>
<!-- Node8&#45;&gt;Node29 -->
<g id="edge29" class="edge">
<title>Node8&#45;&gt;Node29</title>
<path fill="none" stroke="midnightblue" d="M2564.28,-134.3C2622.05,-124.36 2700.76,-110.65 2770,-98 2780.31,-96.12 2791.39,-94.03 2801.82,-92.05"/>
<polygon fill="midnightblue" stroke="midnightblue" points="2563.37,-130.91 2554.1,-136.05 2564.55,-137.8 2563.37,-130.91"/>
</g>
<!-- Node30 -->
<g id="node30" class="node">
<title>Node30</title>
<g id="a_node30"><a xlink:href="m__Do__lib_8cpp.html" target="_top" xlink:title=" ">
<polygon fill="white" stroke="black" points="2931,-73 2931,-92 3051,-92 3051,-73 2931,-73"/>
<text text-anchor="middle" x="2991" y="-80" font-family="Helvetica,sans-Serif" font-size="10.00">src/m_Do/m_Do_lib.cpp</text>
</a>
</g>
</g>
<!-- Node8&#45;&gt;Node30 -->
<g id="edge30" class="edge">
<title>Node8&#45;&gt;Node30</title>
<path fill="none" stroke="midnightblue" d="M2564.27,-141.3C2653.18,-133.06 2798.03,-118.08 2922,-98 2932.27,-96.34 2943.33,-94.18 2953.52,-92.04"/>
<polygon fill="midnightblue" stroke="midnightblue" points="2563.88,-137.82 2554.25,-142.22 2564.53,-144.79 2563.88,-137.82"/>
</g>
<!-- Node31 -->
<g id="node31" class="node">
<title>Node31</title>
<g id="a_node31"><a xlink:href="m__Do__main_8cpp.html" target="_top" xlink:title=" ">
<polygon fill="white" stroke="black" points="3069.5,-73 3069.5,-92 3200.5,-92 3200.5,-73 3069.5,-73"/>
<text text-anchor="middle" x="3135" y="-80" font-family="Helvetica,sans-Serif" font-size="10.00">src/m_Do/m_Do_main.cpp</text>
</a>
</g>
</g>
<!-- Node8&#45;&gt;Node31 -->
<g id="edge31" class="edge">
<title>Node8&#45;&gt;Node31</title>
<path fill="none" stroke="midnightblue" d="M2564.69,-143.94C2677.54,-137.17 2884.6,-122.54 3060,-98 3071.43,-96.4 3083.75,-94.21 3095.04,-92.02"/>
<polygon fill="midnightblue" stroke="midnightblue" points="2564.17,-140.46 2554.4,-144.55 2564.59,-147.45 2564.17,-140.46"/>
</g>
<!-- Node32 -->
<g id="node32" class="node">
<title>Node32</title>
<g id="a_node32"><a xlink:href="m__Do__ext_8cpp.html" target="_top" xlink:title=" ">
<polygon fill="white" stroke="black" points="3218.5,-73 3218.5,-92 3341.5,-92 3341.5,-73 3218.5,-73"/>
<text text-anchor="middle" x="3280" y="-80" font-family="Helvetica,sans-Serif" font-size="10.00">src/m_Do/m_Do_ext.cpp</text>
</a>
</g>
</g>
<!-- Node8&#45;&gt;Node32 -->
<g id="edge32" class="edge">
<title>Node8&#45;&gt;Node32</title>
<path fill="none" stroke="midnightblue" d="M2564.35,-146.39C2700.16,-142.12 2977.42,-130 3210,-98 3220.94,-96.49 3232.74,-94.28 3243.47,-92.04"/>
<polygon fill="midnightblue" stroke="midnightblue" points="2563.91,-142.9 2554.02,-146.7 2564.13,-149.89 2563.91,-142.9"/>
</g>
<!-- Node33 -->
<g id="node33" class="node">
<title>Node33</title>
<g id="a_node33"><a xlink:href="m__Do__MemCardRWmng_8cpp.html" target="_top" xlink:title=" ">
<polygon fill="white" stroke="black" points="3359.5,-73 3359.5,-92 3546.5,-92 3546.5,-73 3359.5,-73"/>
<text text-anchor="middle" x="3453" y="-80" font-family="Helvetica,sans-Serif" font-size="10.00">src/m_Do/m_Do_MemCardRWmng.cpp</text>
</a>
</g>
</g>
<!-- Node8&#45;&gt;Node33 -->
<g id="edge33" class="edge">
<title>Node8&#45;&gt;Node33</title>
<path fill="none" stroke="midnightblue" d="M2564.6,-145.96C2719.86,-140.74 3063.11,-126.77 3351,-98 3366.66,-96.43 3383.61,-94.23 3399.11,-92.02"/>
<polygon fill="midnightblue" stroke="midnightblue" points="2564.08,-142.48 2554.2,-146.31 2564.31,-149.47 2564.08,-142.48"/>
</g>
<!-- Node34 -->
<g id="node34" class="node">
<title>Node34</title>
<g id="a_node34"><a xlink:href="Z2EnvSeMgr_8cpp.html" target="_top" xlink:title=" ">
<polygon fill="white" stroke="black" points="3564.5,-73 3564.5,-92 3725.5,-92 3725.5,-73 3564.5,-73"/>
<text text-anchor="middle" x="3645" y="-80" font-family="Helvetica,sans-Serif" font-size="10.00">libs/Z2AudioLib/Z2EnvSeMgr.cpp</text>
</a>
</g>
</g>
<!-- Node8&#45;&gt;Node34 -->
<g id="edge34" class="edge">
<title>Node8&#45;&gt;Node34</title>
<path fill="none" stroke="midnightblue" d="M2564.46,-147.83C2745.53,-145.66 3187.78,-136.52 3556,-98 3570.01,-96.53 3585.17,-94.31 3598.94,-92.03"/>
<polygon fill="midnightblue" stroke="midnightblue" points="2564.17,-144.33 2554.21,-147.95 2564.25,-151.33 2564.17,-144.33"/>
</g>
<!-- Node35 -->
<g id="node35" class="node">
<title>Node35</title>
<g id="a_node35"><a xlink:href="Z2LinkMgr_8cpp.html" target="_top" xlink:title=" ">
<polygon fill="white" stroke="black" points="3744,-73 3744,-92 3896,-92 3896,-73 3744,-73"/>
<text text-anchor="middle" x="3820" y="-80" font-family="Helvetica,sans-Serif" font-size="10.00">libs/Z2AudioLib/Z2LinkMgr.cpp</text>
</a>
</g>
</g>
<!-- Node8&#45;&gt;Node35 -->
<g id="edge35" class="edge">
<title>Node8&#45;&gt;Node35</title>
<path fill="none" stroke="midnightblue" d="M2564.25,-148.84C2765.78,-148.86 3295.71,-144.12 3735,-98 3748.55,-96.58 3763.21,-94.33 3776.47,-92.03"/>
<polygon fill="midnightblue" stroke="midnightblue" points="2564.04,-145.34 2554.03,-148.84 2564.03,-152.34 2564.04,-145.34"/>
</g>
<!-- Node36 -->
<g id="node36" class="node">
<title>Node36</title>
<g id="a_node36"><a xlink:href="Z2SceneMgr_8cpp.html" target="_top" xlink:title=" ">
<polygon fill="white" stroke="black" points="3914.5,-73 3914.5,-92 4075.5,-92 4075.5,-73 3914.5,-73"/>
<text text-anchor="middle" x="3995" y="-80" font-family="Helvetica,sans-Serif" font-size="10.00">libs/Z2AudioLib/Z2SceneMgr.cpp</text>
</a>
</g>
</g>
<!-- Node8&#45;&gt;Node36 -->
<g id="edge36" class="edge">
<title>Node8&#45;&gt;Node36</title>
<path fill="none" stroke="midnightblue" d="M2564.37,-149.15C2784.2,-150.1 3397.57,-147.68 3905,-98 3919.33,-96.6 3934.85,-94.36 3948.9,-92.06"/>
<polygon fill="midnightblue" stroke="midnightblue" points="2564.22,-145.65 2554.2,-149.11 2564.19,-152.65 2564.22,-145.65"/>
</g>
<!-- Node37 -->
<g id="node37" class="node">
<title>Node37</title>
<g id="a_node37"><a xlink:href="Z2SoundMgr_8cpp.html" target="_top" xlink:title=" ">
<polygon fill="white" stroke="black" points="4093.5,-73 4093.5,-92 4254.5,-92 4254.5,-73 4093.5,-73"/>
<text text-anchor="middle" x="4174" y="-80" font-family="Helvetica,sans-Serif" font-size="10.00">libs/Z2AudioLib/Z2SoundMgr.cpp</text>
</a>
</g>
</g>
<!-- Node8&#45;&gt;Node37 -->
<g id="edge37" class="edge">
<title>Node8&#45;&gt;Node37</title>
<path fill="none" stroke="midnightblue" d="M2564.48,-147.31C2849.88,-143 3785.56,-126.98 4085,-98 4099.34,-96.61 4114.86,-94.35 4128.87,-92.02"/>
<polygon fill="midnightblue" stroke="midnightblue" points="2564.15,-143.81 2554.2,-147.46 2564.25,-150.81 2564.15,-143.81"/>
</g>
<!-- Node38 -->
<g id="node38" class="node">
<title>Node38</title>
<g id="a_node38"><a xlink:href="Z2StatusMgr_8cpp.html" target="_top" xlink:title=" ">
<polygon fill="white" stroke="black" points="4272.5,-67.5 4272.5,-97.5 4399.5,-97.5 4399.5,-67.5 4272.5,-67.5"/>
<text text-anchor="start" x="4280.5" y="-85.5" font-family="Helvetica,sans-Serif" font-size="10.00">libs/Z2AudioLib/Z2Status</text>
<text text-anchor="middle" x="4336" y="-74.5" font-family="Helvetica,sans-Serif" font-size="10.00">Mgr.cpp</text>
</a>
</g>
</g>
<!-- Node8&#45;&gt;Node38 -->
<g id="edge38" class="edge">
<title>Node8&#45;&gt;Node38</title>
<path fill="none" stroke="midnightblue" d="M2564.41,-148.02C2870.05,-145.99 3928.4,-136.26 4264,-98 4266.79,-97.68 4269.63,-97.31 4272.49,-96.9"/>
<polygon fill="midnightblue" stroke="midnightblue" points="2564.26,-144.52 2554.29,-148.09 2564.31,-151.52 2564.26,-144.52"/>
</g>
<!-- Node39 -->
<g id="node39" class="node">
<title>Node39</title>
<g id="a_node39"><a xlink:href="d__a__alink_8h.html" target="_top" xlink:title=" ">
<polygon fill="white" stroke="black" points="4648.5,-67.5 4648.5,-97.5 4767.5,-97.5 4767.5,-67.5 4648.5,-67.5"/>
<text text-anchor="start" x="4656.5" y="-85.5" font-family="Helvetica,sans-Serif" font-size="10.00">include/d/d_a/d_a_alink</text>
<text text-anchor="middle" x="4708" y="-74.5" font-family="Helvetica,sans-Serif" font-size="10.00">/d_a_alink.h</text>
</a>
</g>
</g>
<!-- Node8&#45;&gt;Node39 -->
<g id="edge39" class="edge">
<title>Node8&#45;&gt;Node39</title>
<path fill="none" stroke="midnightblue" d="M2564.42,-148.44C2908.93,-147.9 4221.99,-142.87 4634,-98 4638.69,-97.49 4643.52,-96.84 4648.36,-96.09"/>
<polygon fill="midnightblue" stroke="midnightblue" points="2564.27,-144.94 2554.27,-148.45 2564.28,-151.94 2564.27,-144.94"/>
</g>
<!-- Node42 -->
<g id="node42" class="node">
<title>Node42</title>
<g id="a_node42"><a xlink:href="d__item_8h.html" target="_top" xlink:title=" ">
<polygon fill="white" stroke="black" points="2665,-67.5 2665,-97.5 2761,-97.5 2761,-67.5 2665,-67.5"/>
<text text-anchor="start" x="2673" y="-85.5" font-family="Helvetica,sans-Serif" font-size="10.00">include/d/d_item/d</text>
<text text-anchor="middle" x="2713" y="-74.5" font-family="Helvetica,sans-Serif" font-size="10.00">_item/d_item.h</text>
</a>
</g>
</g>
<!-- Node8&#45;&gt;Node42 -->
<g id="edge44" class="edge">
<title>Node8&#45;&gt;Node42</title>
<path fill="none" stroke="midnightblue" d="M2541.08,-131.67C2579.52,-120.9 2628.71,-107.11 2664.62,-97.05"/>
<polygon fill="midnightblue" stroke="midnightblue" points="2539.74,-128.41 2531.05,-134.48 2541.63,-135.15 2539.74,-128.41"/>
</g>
<!-- Node43 -->
<g id="node43" class="node">
<title>Node43</title>
<g id="a_node43"><a xlink:href="f__pc__manager_8h.html" target="_top" xlink:title=" ">
<polygon fill="white" stroke="black" points="4494.5,-67.5 4494.5,-97.5 4591.5,-97.5 4591.5,-67.5 4494.5,-67.5"/>
<text text-anchor="start" x="4502.5" y="-85.5" font-family="Helvetica,sans-Serif" font-size="10.00">include/f/f_pc/f_pc</text>
<text text-anchor="middle" x="4543" y="-74.5" font-family="Helvetica,sans-Serif" font-size="10.00">_manager.h</text>
</a>
</g>
</g>
<!-- Node8&#45;&gt;Node43 -->
<g id="edge47" class="edge">
<title>Node8&#45;&gt;Node43</title>
<path fill="none" stroke="midnightblue" d="M2564.67,-148.63C2893.9,-148.77 4100.63,-145.95 4480,-98 4484.68,-97.41 4489.51,-96.62 4494.33,-95.72"/>
<polygon fill="midnightblue" stroke="midnightblue" points="2564.26,-145.13 2554.26,-148.62 2564.26,-152.13 2564.26,-145.13"/>
</g>
<!-- Node39&#45;&gt;Node9 -->
<g id="edge40" class="edge">
<title>Node39&#45;&gt;Node9</title>
<path fill="none" stroke="midnightblue" d="M4701.75,-57.6C4698.79,-46.28 4695.44,-33.46 4693.27,-25.19"/>
<polygon fill="midnightblue" stroke="midnightblue" points="4698.39,-58.61 4704.31,-67.4 4705.17,-56.84 4698.39,-58.61"/>
</g>
<!-- Node40 -->
<g id="node40" class="node">
<title>Node40</title>
<g id="a_node40"><a xlink:href="d__a__alink_8cpp.html" target="_top" xlink:title=" ">
<polygon fill="white" stroke="black" points="4500.5,-6 4500.5,-25 4619.5,-25 4619.5,-6 4500.5,-6"/>
<text text-anchor="middle" x="4560" y="-13" font-family="Helvetica,sans-Serif" font-size="10.00">src/d/d_a/d_a_alink.cpp</text>
</a>
</g>
</g>
<!-- Node39&#45;&gt;Node40 -->
<g id="edge41" class="edge">
<title>Node39&#45;&gt;Node40</title>
<path fill="none" stroke="midnightblue" d="M4666.55,-63.3C4638.01,-50.76 4601.4,-34.68 4579.37,-25.01"/>
<polygon fill="midnightblue" stroke="midnightblue" points="4665.32,-66.58 4675.89,-67.4 4668.14,-60.17 4665.32,-66.58"/>
</g>
<!-- Node41 -->
<g id="node41" class="node">
<title>Node41</title>
<g id="a_node41"><a xlink:href="d__a__player_8h.html" target="_top" xlink:title=" ">
<polygon fill="white" stroke="black" points="4763,-0.5 4763,-30.5 4887,-30.5 4887,-0.5 4763,-0.5"/>
<text text-anchor="start" x="4771" y="-18.5" font-family="Helvetica,sans-Serif" font-size="10.00">include/d/d_a/d_a_player</text>
<text text-anchor="middle" x="4825" y="-7.5" font-family="Helvetica,sans-Serif" font-size="10.00">/d_a_player.h</text>
</a>
</g>
</g>
<!-- Node39&#45;&gt;Node41 -->
<g id="edge42" class="edge">
<title>Node39&#45;&gt;Node41</title>
<path fill="none" stroke="midnightblue" d="M4736.35,-62.3C4753.8,-52.12 4776.07,-39.85 4793.99,-30.58"/>
<polygon fill="midnightblue" stroke="midnightblue" points="4734.54,-59.3 4727.71,-67.4 4738.1,-65.33 4734.54,-59.3"/>
</g>
<!-- Node41&#45;&gt;Node39 -->
<g id="edge43" class="edge">
<title>Node41&#45;&gt;Node39</title>
<path fill="none" stroke="midnightblue" d="M4796.7,-35.67C4779.26,-45.84 4757,-58.11 4739.07,-67.4"/>
<polygon fill="midnightblue" stroke="midnightblue" points="4798.51,-38.68 4805.34,-30.58 4794.95,-32.65 4798.51,-38.68"/>
</g>
<!-- Node42&#45;&gt;Node10 -->
<g id="edge45" class="edge">
<title>Node42&#45;&gt;Node10</title>
<path fill="none" stroke="midnightblue" d="M2654.79,-66.96C2493.41,-38.92 2313.75,-25.39 2222.58,-19.77"/>
<polygon fill="midnightblue" stroke="midnightblue" points="2654.45,-70.45 2664.91,-68.74 2655.66,-63.56 2654.45,-70.45"/>
</g>
<!-- Node42&#45;&gt;Node12 -->
<g id="edge46" class="edge">
<title>Node42&#45;&gt;Node12</title>
<path fill="none" stroke="midnightblue" d="M2771.15,-66.97C2931.59,-39.08 3110.05,-25.53 3201.39,-19.85"/>
<polygon fill="midnightblue" stroke="midnightblue" points="2770.34,-63.56 2761.09,-68.74 2771.55,-70.45 2770.34,-63.56"/>
</g>
<!-- Node43&#45;&gt;Node28 -->
<g id="edge49" class="edge">
<title>Node43&#45;&gt;Node28</title>
<path fill="none" stroke="midnightblue" d="M4505.32,-62.8C4480.2,-50.34 4448.39,-34.56 4429.14,-25.01"/>
<polygon fill="midnightblue" stroke="midnightblue" points="4504.06,-66.09 4514.57,-67.4 4507.17,-59.82 4504.06,-66.09"/>
</g>
<!-- Node43&#45;&gt;Node40 -->
<g id="edge48" class="edge">
<title>Node43&#45;&gt;Node40</title>
<path fill="none" stroke="midnightblue" d="M4549.25,-57.6C4552.21,-46.28 4555.56,-33.46 4557.73,-25.19"/>
<polygon fill="midnightblue" stroke="midnightblue" points="4545.83,-56.84 4546.69,-67.4 4552.61,-58.61 4545.83,-56.84"/>
</g>
<!-- Node44&#45;&gt;Node7 -->
<g id="edge51" class="edge">
<title>Node44&#45;&gt;Node7</title>
<path fill="none" stroke="midnightblue" d="M1606,-258.11C1606,-249.15 1606,-239.32 1606,-231.58"/>
<polygon fill="midnightblue" stroke="midnightblue" points="1602.5,-258.4 1606,-268.4 1609.5,-258.4 1602.5,-258.4"/>
</g>
<!-- Node45&#45;&gt;Node4 -->
<g id="edge54" class="edge">
<title>Node45&#45;&gt;Node4</title>
<path fill="none" stroke="midnightblue" d="M124.87,-330.85C145.74,-320.58 171.23,-308.03 190.41,-298.58"/>
<polygon fill="midnightblue" stroke="midnightblue" points="123.07,-327.84 115.64,-335.4 126.16,-334.12 123.07,-327.84"/>
</g>
<!-- Node46 -->
<g id="node46" class="node">
<title>Node46</title>
<g id="a_node46"><a xlink:href="c__m3d__g__tri_8cpp.html" target="_top" xlink:title=" ">
<polygon fill="white" stroke="black" points="0,-268.5 0,-298.5 134,-298.5 134,-268.5 0,-268.5"/>
<text text-anchor="start" x="8" y="-286.5" font-family="Helvetica,sans-Serif" font-size="10.00">libs/SSystem/SComponent</text>
<text text-anchor="middle" x="67" y="-275.5" font-family="Helvetica,sans-Serif" font-size="10.00">/c_m3d_g_tri.cpp</text>
</a>
</g>
</g>
<!-- Node45&#45;&gt;Node46 -->
<g id="edge53" class="edge">
<title>Node45&#45;&gt;Node46</title>
<path fill="none" stroke="midnightblue" d="M79.68,-325.7C76.87,-316.59 73.77,-306.49 71.33,-298.58"/>
<polygon fill="midnightblue" stroke="midnightblue" points="76.37,-326.87 82.66,-335.4 83.06,-324.81 76.37,-326.87"/>
</g>
<!-- Node47&#45;&gt;Node2 -->
<g id="edge56" class="edge">
<title>Node47&#45;&gt;Node2</title>
<path fill="none" stroke="midnightblue" d="M427.02,-328.02C434.73,-319.75 442.45,-309.7 447,-299 478.77,-224.35 470.45,-122.25 467.08,-92.17"/>
<polygon fill="midnightblue" stroke="midnightblue" points="424.29,-325.81 419.74,-335.37 429.26,-330.74 424.29,-325.81"/>
</g>
<!-- Node47&#45;&gt;Node4 -->
<g id="edge58" class="edge">
<title>Node47&#45;&gt;Node4</title>
<path fill="none" stroke="midnightblue" d="M353.33,-331.96C323.7,-321.48 286.56,-308.37 258.85,-298.58"/>
<polygon fill="midnightblue" stroke="midnightblue" points="352.48,-335.37 363.07,-335.4 354.81,-328.76 352.48,-335.37"/>
</g>
<!-- Node48 -->
<g id="node48" class="node">
<title>Node48</title>
<g id="a_node48"><a xlink:href="c__m3d__g__sph_8cpp.html" target="_top" xlink:title=" ">
<polygon fill="white" stroke="black" points="304,-268.5 304,-298.5 438,-298.5 438,-268.5 304,-268.5"/>
<text text-anchor="start" x="312" y="-286.5" font-family="Helvetica,sans-Serif" font-size="10.00">libs/SSystem/SComponent</text>
<text text-anchor="middle" x="371" y="-275.5" font-family="Helvetica,sans-Serif" font-size="10.00">/c_m3d_g_sph.cpp</text>
</a>
</g>
</g>
<!-- Node47&#45;&gt;Node48 -->
<g id="edge57" class="edge">
<title>Node47&#45;&gt;Node48</title>
<path fill="none" stroke="midnightblue" d="M391.57,-326.28C387.01,-317.02 381.91,-306.66 377.93,-298.58"/>
<polygon fill="midnightblue" stroke="midnightblue" points="388.5,-327.97 396.06,-335.4 394.78,-324.88 388.5,-327.97"/>
</g>
</g>
</svg>
