<?xml version="1.0" encoding="UTF-8" standalone="no"?>
<!DOCTYPE svg PUBLIC "-//W3C//DTD SVG 1.1//EN"
 "http://www.w3.org/Graphics/SVG/1.1/DTD/svg11.dtd">
<!-- Generated by graphviz version 7.0.5 (20221223.1930)
 -->
<!-- Title: include/SSystem/SComponent/c_math.h Pages: 1 -->
<!--zoomable 159 -->
<svg id="main" version="1.1" xmlns="http://www.w3.org/2000/svg" xmlns:xlink="http://www.w3.org/1999/xlink" xml:space="preserve" onload="init(evt)">
<style type="text/css"><![CDATA[
.edge:hover path { stroke: red; }
.edge:hover polygon { stroke: red; fill: red; }
]]></style>
<script type="text/javascript"><![CDATA[
var edges = document.getElementsByTagName('g');
if (edges && edges.length) {
  for (var i=0;i<edges.length;i++) {
    if (edges[i].id.substr(0,4)=='edge') {
      edges[i].setAttribute('class','edge');
    }
  }
}
]]></script>
        <defs>
                <circle id="rim" cx="0" cy="0" r="7"/>
                <circle id="rim2" cx="0" cy="0" r="3.5"/>
                <g id="zoomPlus">
                        <use xlink:href="#rim" fill="#404040">
                                <set attributeName="fill" to="#808080" begin="zoomplus.mouseover" end="zoomplus.mouseout"/>
                        </use>
                        <path d="M-4,0h8M0,-4v8" fill="none" stroke="white" stroke-width="1.5" pointer-events="none"/>
                </g>
                <g id="zoomMin">
                        <use xlink:href="#rim" fill="#404040">
                                <set attributeName="fill" to="#808080" begin="zoomminus.mouseover" end="zoomminus.mouseout"/>
                        </use>
                        <path d="M-4,0h8" fill="none" stroke="white" stroke-width="1.5" pointer-events="none"/>
                </g>
                <g id="dirArrow">
                        <path fill="none" stroke="white" stroke-width="1.5" d="M0,-3.0v7 M-2.5,-0.5L0,-3.0L2.5,-0.5"/>
                </g>
               <g id="resetDef">
                       <use xlink:href="#rim2" fill="#404040">
                               <set attributeName="fill" to="#808080" begin="reset.mouseover" end="reset.mouseout"/>
                       </use>
               </g>
        </defs>

<script type="text/javascript">
var viewWidth = 4334;
var viewHeight = 159;
var sectionId = 'dynsection-1';
</script>
<script xlink:href="svgpan.js"/>
<svg id="graph" class="graph">
<g id="viewport">
<title>include/SSystem/SComponent/c_math.h</title>
<!-- Node1 -->
<g id="node1" class="node">
<title>Node1</title>
<g id="a_node1"><a xlink:title=" ">
<polygon fill="#999999" stroke="#666666" points="2228.5,-151 2079.5,-151 2079.5,-121 2228.5,-121 2228.5,-151"/>
<text text-anchor="start" x="2087.5" y="-139" font-family="Helvetica,sans-Serif" font-size="10.00">include/SSystem/SComponent</text>
<text text-anchor="middle" x="2154" y="-128" font-family="Helvetica,sans-Serif" font-size="10.00">/c_math.h</text>
</a>
</g>
</g>
<!-- Node2 -->
<g id="node2" class="node">
<title>Node2</title>
<g id="a_node2"><a xlink:href="d__a__ykgr_8h.html" target="_top" xlink:title=" ">
<polygon fill="white" stroke="#666666" points="188,-85 92,-85 92,-55 188,-55 188,-85"/>
<text text-anchor="start" x="100" y="-73" font-family="Helvetica,sans-Serif" font-size="10.00">include/rel/d/a/d_a</text>
<text text-anchor="middle" x="140" y="-62" font-family="Helvetica,sans-Serif" font-size="10.00">_ykgr/d_a_ykgr.h</text>
</a>
</g>
</g>
<!-- Node1&#45;&gt;Node2 -->
<g id="edge1" class="edge">
<title>Node1&#45;&gt;Node2</title>
<path fill="none" stroke="#63b8ff" d="M2067.86,-135.22C1739.65,-135.66 567.34,-133.74 198,-85 194.82,-84.58 191.55,-84.06 188.28,-83.46"/>
<polygon fill="#63b8ff" stroke="#63b8ff" points="2067.67,-138.72 2077.66,-135.2 2067.66,-131.72 2067.67,-138.72"/>
</g>
<!-- Node5 -->
<g id="node5" class="node">
<title>Node5</title>
<g id="a_node5"><a xlink:href="JASLfo_8cpp.html" target="_top" xlink:title=" ">
<polygon fill="white" stroke="#666666" points="317.5,-85 206.5,-85 206.5,-55 317.5,-55 317.5,-85"/>
<text text-anchor="start" x="214.5" y="-73" font-family="Helvetica,sans-Serif" font-size="10.00">libs/JSystem/JAudio2</text>
<text text-anchor="middle" x="262" y="-62" font-family="Helvetica,sans-Serif" font-size="10.00">/JASLfo.cpp</text>
</a>
</g>
</g>
<!-- Node1&#45;&gt;Node5 -->
<g id="edge4" class="edge">
<title>Node1&#45;&gt;Node5</title>
<path fill="none" stroke="#63b8ff" d="M2067.85,-134.75C1753.74,-133.52 670.38,-126.32 327,-85 324.02,-84.64 320.98,-84.21 317.91,-83.73"/>
<polygon fill="#63b8ff" stroke="#63b8ff" points="2067.62,-138.25 2077.63,-134.79 2067.64,-131.25 2067.62,-138.25"/>
</g>
<!-- Node6 -->
<g id="node6" class="node">
<title>Node6</title>
<g id="a_node6"><a xlink:href="c__lib_8cpp.html" target="_top" xlink:title=" ">
<polygon fill="white" stroke="#666666" points="470,-85 336,-85 336,-55 470,-55 470,-85"/>
<text text-anchor="start" x="344" y="-73" font-family="Helvetica,sans-Serif" font-size="10.00">libs/SSystem/SComponent</text>
<text text-anchor="middle" x="403" y="-62" font-family="Helvetica,sans-Serif" font-size="10.00">/c_lib.cpp</text>
</a>
</g>
</g>
<!-- Node1&#45;&gt;Node6 -->
<g id="edge5" class="edge">
<title>Node1&#45;&gt;Node6</title>
<path fill="none" stroke="#63b8ff" d="M2068.4,-134.17C1772.2,-131.03 791.94,-118.3 479,-85 476.2,-84.7 473.34,-84.36 470.47,-83.98"/>
<polygon fill="#63b8ff" stroke="#63b8ff" points="2067.93,-137.66 2077.97,-134.27 2068,-130.66 2067.93,-137.66"/>
</g>
<!-- Node7 -->
<g id="node7" class="node">
<title>Node7</title>
<g id="a_node7"><a xlink:href="c__m3d_8cpp.html" target="_top" xlink:title=" ">
<polygon fill="white" stroke="#666666" points="622,-85 488,-85 488,-55 622,-55 622,-85"/>
<text text-anchor="start" x="496" y="-73" font-family="Helvetica,sans-Serif" font-size="10.00">libs/SSystem/SComponent</text>
<text text-anchor="middle" x="555" y="-62" font-family="Helvetica,sans-Serif" font-size="10.00">/c_m3d.cpp</text>
</a>
</g>
</g>
<!-- Node1&#45;&gt;Node7 -->
<g id="edge6" class="edge">
<title>Node1&#45;&gt;Node7</title>
<path fill="none" stroke="#63b8ff" d="M2067.81,-133.87C1788.89,-129.93 912.64,-115.39 631,-85 628.2,-84.7 625.35,-84.35 622.47,-83.97"/>
<polygon fill="#63b8ff" stroke="#63b8ff" points="2067.5,-137.36 2077.55,-134 2067.6,-130.36 2067.5,-137.36"/>
</g>
<!-- Node8 -->
<g id="node8" class="node">
<title>Node8</title>
<g id="a_node8"><a xlink:href="c__math_8cpp.html" target="_top" xlink:title=" ">
<polygon fill="white" stroke="#666666" points="774,-85 640,-85 640,-55 774,-55 774,-85"/>
<text text-anchor="start" x="648" y="-73" font-family="Helvetica,sans-Serif" font-size="10.00">libs/SSystem/SComponent</text>
<text text-anchor="middle" x="707" y="-62" font-family="Helvetica,sans-Serif" font-size="10.00">/c_math.cpp</text>
</a>
</g>
</g>
<!-- Node1&#45;&gt;Node8 -->
<g id="edge7" class="edge">
<title>Node1&#45;&gt;Node8</title>
<path fill="none" stroke="#63b8ff" d="M2068.11,-133.51C1808.4,-128.73 1033.79,-112.52 783,-85 780.2,-84.69 777.35,-84.34 774.47,-83.96"/>
<polygon fill="#63b8ff" stroke="#63b8ff" points="2067.77,-137 2077.84,-133.69 2067.9,-130 2067.77,-137"/>
</g>
<!-- Node9 -->
<g id="node9" class="node">
<title>Node9</title>
<g id="a_node9"><a xlink:href="c__xyz_8cpp.html" target="_top" xlink:title=" ">
<polygon fill="white" stroke="#666666" points="926,-85 792,-85 792,-55 926,-55 926,-85"/>
<text text-anchor="start" x="800" y="-73" font-family="Helvetica,sans-Serif" font-size="10.00">libs/SSystem/SComponent</text>
<text text-anchor="middle" x="859" y="-62" font-family="Helvetica,sans-Serif" font-size="10.00">/c_xyz.cpp</text>
</a>
</g>
</g>
<!-- Node1&#45;&gt;Node9 -->
<g id="edge8" class="edge">
<title>Node1&#45;&gt;Node9</title>
<path fill="none" stroke="#63b8ff" d="M2067.96,-135.56C1868.4,-135.97 1358.74,-131.88 936,-85 932.76,-84.64 929.45,-84.23 926.11,-83.77"/>
<polygon fill="#63b8ff" stroke="#63b8ff" points="2067.73,-139.06 2077.72,-135.54 2067.71,-132.06 2067.73,-139.06"/>
</g>
<!-- Node10 -->
<g id="node10" class="node">
<title>Node10</title>
<g id="a_node10"><a xlink:href="d__a__alink_8cpp.html" target="_top" xlink:title=" ">
<polygon fill="white" stroke="#666666" points="1053.5,-79.5 944.5,-79.5 944.5,-60.5 1053.5,-60.5 1053.5,-79.5"/>
<text text-anchor="middle" x="999" y="-67.5" font-family="Helvetica,sans-Serif" font-size="10.00">src/d/a/d_a_alink.cpp</text>
</a>
</g>
</g>
<!-- Node1&#45;&gt;Node10 -->
<g id="edge9" class="edge">
<title>Node1&#45;&gt;Node10</title>
<path fill="none" stroke="#63b8ff" d="M2068.1,-132.95C1846.03,-127.34 1256.79,-110.45 1063,-85 1053.75,-83.79 1043.86,-81.91 1034.69,-79.93"/>
<polygon fill="#63b8ff" stroke="#63b8ff" points="2067.75,-136.44 2077.83,-133.19 2067.92,-129.44 2067.75,-136.44"/>
</g>
<!-- Node11 -->
<g id="node11" class="node">
<title>Node11</title>
<g id="a_node11"><a xlink:href="d__a__npc_8cpp.html" target="_top" xlink:title=" ">
<polygon fill="white" stroke="#666666" points="1176,-79.5 1072,-79.5 1072,-60.5 1176,-60.5 1176,-79.5"/>
<text text-anchor="middle" x="1124" y="-67.5" font-family="Helvetica,sans-Serif" font-size="10.00">src/d/a/d_a_npc.cpp</text>
</a>
</g>
</g>
<!-- Node1&#45;&gt;Node11 -->
<g id="edge10" class="edge">
<title>Node1&#45;&gt;Node11</title>
<path fill="none" stroke="#63b8ff" d="M2067.76,-135.57C1897.93,-135.58 1508.53,-130.12 1185,-85 1176.28,-83.78 1166.98,-81.94 1158.32,-79.98"/>
<polygon fill="#63b8ff" stroke="#63b8ff" points="2067.61,-139.07 2077.6,-135.56 2067.6,-132.07 2067.61,-139.07"/>
</g>
<!-- Node12 -->
<g id="node12" class="node">
<title>Node12</title>
<g id="a_node12"><a xlink:href="d__a__player_8cpp.html" target="_top" xlink:title=" ">
<polygon fill="white" stroke="#666666" points="1308,-79.5 1194,-79.5 1194,-60.5 1308,-60.5 1308,-79.5"/>
<text text-anchor="middle" x="1251" y="-67.5" font-family="Helvetica,sans-Serif" font-size="10.00">src/d/a/d_a_player.cpp</text>
</a>
</g>
</g>
<!-- Node1&#45;&gt;Node12 -->
<g id="edge11" class="edge">
<title>Node1&#45;&gt;Node12</title>
<path fill="none" stroke="#63b8ff" d="M2068.2,-134C1916.31,-131.31 1590.41,-121.41 1318,-85 1308.58,-83.74 1298.5,-81.9 1289.1,-79.97"/>
<polygon fill="#63b8ff" stroke="#63b8ff" points="2067.7,-137.49 2077.76,-134.16 2067.82,-130.49 2067.7,-137.49"/>
</g>
<!-- Node13 -->
<g id="node13" class="node">
<title>Node13</title>
<g id="a_node13"><a xlink:href="d__bg__w_8cpp.html" target="_top" xlink:title=" ">
<polygon fill="white" stroke="#666666" points="1433.5,-79.5 1326.5,-79.5 1326.5,-60.5 1433.5,-60.5 1433.5,-79.5"/>
<text text-anchor="middle" x="1380" y="-67.5" font-family="Helvetica,sans-Serif" font-size="10.00">src/d/bg/d_bg_w.cpp</text>
</a>
</g>
</g>
<!-- Node1&#45;&gt;Node13 -->
<g id="edge12" class="edge">
<title>Node1&#45;&gt;Node13</title>
<path fill="none" stroke="#63b8ff" d="M2067.75,-133.06C1933.53,-129.11 1666.84,-117.56 1443,-85 1434.24,-83.73 1424.89,-81.91 1416.14,-80"/>
<polygon fill="#63b8ff" stroke="#63b8ff" points="2067.53,-136.55 2077.63,-133.34 2067.73,-129.56 2067.53,-136.55"/>
</g>
<!-- Node14 -->
<g id="node14" class="node">
<title>Node14</title>
<g id="a_node14"><a xlink:href="d__cc__mass__s_8cpp.html" target="_top" xlink:title=" ">
<polygon fill="white" stroke="#666666" points="1556.5,-85 1451.5,-85 1451.5,-55 1556.5,-55 1556.5,-85"/>
<text text-anchor="start" x="1459.5" y="-73" font-family="Helvetica,sans-Serif" font-size="10.00">src/d/cc/d_cc_mass</text>
<text text-anchor="middle" x="1504" y="-62" font-family="Helvetica,sans-Serif" font-size="10.00">_s.cpp</text>
</a>
</g>
</g>
<!-- Node1&#45;&gt;Node14 -->
<g id="edge13" class="edge">
<title>Node1&#45;&gt;Node14</title>
<path fill="none" stroke="#63b8ff" d="M2068.2,-131.4C1953.3,-125.73 1743.35,-112.43 1566,-85 1562.95,-84.53 1559.82,-83.99 1556.67,-83.41"/>
<polygon fill="#63b8ff" stroke="#63b8ff" points="2067.68,-134.88 2077.84,-131.87 2068.02,-127.89 2067.68,-134.88"/>
</g>
<!-- Node15 -->
<g id="node15" class="node">
<title>Node15</title>
<g id="a_node15"><a xlink:href="d__cam__param_8cpp.html" target="_top" xlink:title=" ">
<polygon fill="white" stroke="#666666" points="1695.5,-79.5 1574.5,-79.5 1574.5,-60.5 1695.5,-60.5 1695.5,-79.5"/>
<text text-anchor="middle" x="1635" y="-67.5" font-family="Helvetica,sans-Serif" font-size="10.00">src/d/d_cam_param.cpp</text>
</a>
</g>
</g>
<!-- Node1&#45;&gt;Node15 -->
<g id="edge14" class="edge">
<title>Node1&#45;&gt;Node15</title>
<path fill="none" stroke="#63b8ff" d="M2067.74,-127.63C1977.13,-119.36 1830.61,-104.52 1705,-85 1695.82,-83.57 1686,-81.78 1676.72,-79.96"/>
<polygon fill="#63b8ff" stroke="#63b8ff" points="2067.28,-131.1 2077.55,-128.52 2067.91,-124.13 2067.28,-131.1"/>
</g>
<!-- Node16 -->
<g id="node16" class="node">
<title>Node16</title>
<g id="a_node16"><a xlink:href="d__k__wmark_8cpp.html" target="_top" xlink:title=" ">
<polygon fill="white" stroke="#666666" points="1824,-79.5 1714,-79.5 1714,-60.5 1824,-60.5 1824,-79.5"/>
<text text-anchor="middle" x="1769" y="-67.5" font-family="Helvetica,sans-Serif" font-size="10.00">src/d/d_k_wmark.cpp</text>
</a>
</g>
</g>
<!-- Node1&#45;&gt;Node16 -->
<g id="edge15" class="edge">
<title>Node1&#45;&gt;Node16</title>
<path fill="none" stroke="#63b8ff" d="M2067.81,-123.03C2003.05,-113.68 1912.23,-99.82 1833,-85 1824.95,-83.49 1816.37,-81.73 1808.18,-79.97"/>
<polygon fill="#63b8ff" stroke="#63b8ff" points="2067.3,-126.49 2077.69,-124.45 2068.29,-119.56 2067.3,-126.49"/>
</g>
<!-- Node17 -->
<g id="node17" class="node">
<title>Node17</title>
<g id="a_node17"><a xlink:href="d__k__wpillar_8cpp.html" target="_top" xlink:title=" ">
<polygon fill="white" stroke="#666666" points="1950,-79.5 1842,-79.5 1842,-60.5 1950,-60.5 1950,-79.5"/>
<text text-anchor="middle" x="1896" y="-67.5" font-family="Helvetica,sans-Serif" font-size="10.00">src/d/d_k_wpillar.cpp</text>
</a>
</g>
</g>
<!-- Node1&#45;&gt;Node17 -->
<g id="edge16" class="edge">
<title>Node1&#45;&gt;Node17</title>
<path fill="none" stroke="#63b8ff" d="M2084.89,-117.86C2035.7,-105.66 1971.59,-89.75 1932.13,-79.96"/>
<polygon fill="#63b8ff" stroke="#63b8ff" points="2083.76,-121.18 2094.31,-120.19 2085.45,-114.39 2083.76,-121.18"/>
</g>
<!-- Node18 -->
<g id="node18" class="node">
<title>Node18</title>
<g id="a_node18"><a xlink:href="d__ky__thunder_8cpp.html" target="_top" xlink:title=" ">
<polygon fill="white" stroke="#666666" points="2085.5,-79.5 1968.5,-79.5 1968.5,-60.5 2085.5,-60.5 2085.5,-79.5"/>
<text text-anchor="middle" x="2027" y="-67.5" font-family="Helvetica,sans-Serif" font-size="10.00">src/d/d_ky_thunder.cpp</text>
</a>
</g>
</g>
<!-- Node1&#45;&gt;Node18 -->
<g id="edge17" class="edge">
<title>Node1&#45;&gt;Node18</title>
<path fill="none" stroke="#63b8ff" d="M2115.48,-115.59C2091.99,-103.75 2063.07,-89.18 2044.83,-79.99"/>
<polygon fill="#63b8ff" stroke="#63b8ff" points="2113.64,-118.58 2124.15,-119.96 2116.79,-112.33 2113.64,-118.58"/>
</g>
<!-- Node19 -->
<g id="node19" class="node">
<title>Node19</title>
<g id="a_node19"><a xlink:href="d__npc__lib_8cpp.html" target="_top" xlink:title=" ">
<polygon fill="white" stroke="#666666" points="2204.5,-79.5 2103.5,-79.5 2103.5,-60.5 2204.5,-60.5 2204.5,-79.5"/>
<text text-anchor="middle" x="2154" y="-67.5" font-family="Helvetica,sans-Serif" font-size="10.00">src/d/d_npc_lib.cpp</text>
</a>
</g>
</g>
<!-- Node1&#45;&gt;Node19 -->
<g id="edge18" class="edge">
<title>Node1&#45;&gt;Node19</title>
<path fill="none" stroke="#63b8ff" d="M2154,-109.59C2154,-99.06 2154,-87.53 2154,-79.84"/>
<polygon fill="#63b8ff" stroke="#63b8ff" points="2150.5,-109.28 2154,-119.28 2157.5,-109.28 2150.5,-109.28"/>
</g>
<!-- Node20 -->
<g id="node20" class="node">
<title>Node20</title>
<g id="a_node20"><a xlink:href="d__timer_8cpp.html" target="_top" xlink:title=" ">
<polygon fill="white" stroke="#666666" points="2315,-79.5 2223,-79.5 2223,-60.5 2315,-60.5 2315,-79.5"/>
<text text-anchor="middle" x="2269" y="-67.5" font-family="Helvetica,sans-Serif" font-size="10.00">src/d/d_timer.cpp</text>
</a>
</g>
</g>
<!-- Node1&#45;&gt;Node20 -->
<g id="edge19" class="edge">
<title>Node1&#45;&gt;Node20</title>
<path fill="none" stroke="#63b8ff" d="M2189.74,-115.11C2210.86,-103.36 2236.56,-89.05 2252.85,-79.99"/>
<polygon fill="#63b8ff" stroke="#63b8ff" points="2188.17,-111.98 2181.13,-119.9 2191.57,-118.1 2188.17,-111.98"/>
</g>
<!-- Node21 -->
<g id="node21" class="node">
<title>Node21</title>
<g id="a_node21"><a xlink:href="d__tresure_8cpp.html" target="_top" xlink:title=" ">
<polygon fill="white" stroke="#666666" points="2433,-79.5 2333,-79.5 2333,-60.5 2433,-60.5 2433,-79.5"/>
<text text-anchor="middle" x="2383" y="-67.5" font-family="Helvetica,sans-Serif" font-size="10.00">src/d/d_tresure.cpp</text>
</a>
</g>
</g>
<!-- Node1&#45;&gt;Node21 -->
<g id="edge20" class="edge">
<title>Node1&#45;&gt;Node21</title>
<path fill="none" stroke="#63b8ff" d="M2216.72,-117.47C2260.19,-105.32 2316.28,-89.65 2350.93,-79.96"/>
<polygon fill="#63b8ff" stroke="#63b8ff" points="2215.82,-114.09 2207.14,-120.15 2217.71,-120.83 2215.82,-114.09"/>
</g>
<!-- Node22 -->
<g id="node22" class="node">
<title>Node22</title>
<g id="a_node22"><a xlink:href="d__vibration_8cpp.html" target="_top" xlink:title=" ">
<polygon fill="white" stroke="#666666" points="2558.5,-79.5 2451.5,-79.5 2451.5,-60.5 2558.5,-60.5 2558.5,-79.5"/>
<text text-anchor="middle" x="2505" y="-67.5" font-family="Helvetica,sans-Serif" font-size="10.00">src/d/d_vibration.cpp</text>
</a>
</g>
</g>
<!-- Node1&#45;&gt;Node22 -->
<g id="edge21" class="edge">
<title>Node1&#45;&gt;Node22</title>
<path fill="none" stroke="#63b8ff" d="M2239.97,-121.16C2297.32,-111.65 2374.33,-98.39 2442,-85 2449.8,-83.46 2458.12,-81.69 2466.08,-79.95"/>
<polygon fill="#63b8ff" stroke="#63b8ff" points="2239.56,-117.68 2230.26,-122.76 2240.7,-124.58 2239.56,-117.68"/>
</g>
<!-- Node23 -->
<g id="node23" class="node">
<title>Node23</title>
<g id="a_node23"><a xlink:href="d__event__manager_8cpp.html" target="_top" xlink:title=" ">
<polygon fill="white" stroke="#666666" points="2679.5,-85 2576.5,-85 2576.5,-55 2679.5,-55 2679.5,-85"/>
<text text-anchor="start" x="2584.5" y="-73" font-family="Helvetica,sans-Serif" font-size="10.00">src/d/event/d_event</text>
<text text-anchor="middle" x="2628" y="-62" font-family="Helvetica,sans-Serif" font-size="10.00">_manager.cpp</text>
</a>
</g>
</g>
<!-- Node1&#45;&gt;Node23 -->
<g id="edge22" class="edge">
<title>Node1&#45;&gt;Node23</title>
<path fill="none" stroke="#63b8ff" d="M2240.05,-127.37C2324.07,-119.27 2455.36,-104.88 2568,-85 2570.63,-84.54 2573.32,-84.03 2576.04,-83.49"/>
<polygon fill="#63b8ff" stroke="#63b8ff" points="2239.9,-123.87 2230.28,-128.3 2240.57,-130.83 2239.9,-123.87"/>
</g>
<!-- Node24 -->
<g id="node24" class="node">
<title>Node24</title>
<g id="a_node24"><a xlink:href="d__kankyo_8cpp.html" target="_top" xlink:title=" ">
<polygon fill="white" stroke="#666666" points="2832,-79.5 2698,-79.5 2698,-60.5 2832,-60.5 2832,-79.5"/>
<text text-anchor="middle" x="2765" y="-67.5" font-family="Helvetica,sans-Serif" font-size="10.00">src/d/kankyo/d_kankyo.cpp</text>
</a>
</g>
</g>
<!-- Node1&#45;&gt;Node24 -->
<g id="edge23" class="edge">
<title>Node1&#45;&gt;Node24</title>
<path fill="none" stroke="#63b8ff" d="M2239.93,-129.34C2345.85,-121.81 2531.19,-106.86 2689,-85 2699.1,-83.6 2709.9,-81.8 2720.1,-79.96"/>
<polygon fill="#63b8ff" stroke="#63b8ff" points="2239.91,-125.83 2230.18,-130.02 2240.4,-132.81 2239.91,-125.83"/>
</g>
<!-- Node25 -->
<g id="node25" class="node">
<title>Node25</title>
<g id="a_node25"><a xlink:href="d__kankyo__rain_8cpp.html" target="_top" xlink:title=" ">
<polygon fill="white" stroke="#666666" points="2966,-85 2850,-85 2850,-55 2966,-55 2966,-85"/>
<text text-anchor="start" x="2858" y="-73" font-family="Helvetica,sans-Serif" font-size="10.00">src/d/kankyo/d_kankyo</text>
<text text-anchor="middle" x="2908" y="-62" font-family="Helvetica,sans-Serif" font-size="10.00">_rain.cpp</text>
</a>
</g>
</g>
<!-- Node1&#45;&gt;Node25 -->
<g id="edge24" class="edge">
<title>Node1&#45;&gt;Node25</title>
<path fill="none" stroke="#63b8ff" d="M2240.29,-132.41C2370.85,-127.66 2626.17,-115.13 2841,-85 2843.82,-84.6 2846.71,-84.16 2849.61,-83.68"/>
<polygon fill="#63b8ff" stroke="#63b8ff" points="2240.19,-128.91 2230.32,-132.77 2240.44,-135.91 2240.19,-128.91"/>
</g>
<!-- Node26 -->
<g id="node26" class="node">
<title>Node26</title>
<g id="a_node26"><a xlink:href="d__kankyo__wether_8cpp.html" target="_top" xlink:title=" ">
<polygon fill="white" stroke="#666666" points="3100,-85 2984,-85 2984,-55 3100,-55 3100,-85"/>
<text text-anchor="start" x="2992" y="-73" font-family="Helvetica,sans-Serif" font-size="10.00">src/d/kankyo/d_kankyo</text>
<text text-anchor="middle" x="3042" y="-62" font-family="Helvetica,sans-Serif" font-size="10.00">_wether.cpp</text>
</a>
</g>
</g>
<!-- Node1&#45;&gt;Node26 -->
<g id="edge25" class="edge">
<title>Node1&#45;&gt;Node26</title>
<path fill="none" stroke="#63b8ff" d="M2240.16,-133.86C2390.13,-130.96 2708.61,-120.75 2975,-85 2977.83,-84.62 2980.71,-84.19 2983.62,-83.72"/>
<polygon fill="#63b8ff" stroke="#63b8ff" points="2240.23,-130.36 2230.3,-134.04 2240.36,-137.36 2240.23,-130.36"/>
</g>
<!-- Node27 -->
<g id="node27" class="node">
<title>Node27</title>
<g id="a_node27"><a xlink:href="d__menu__ring_8cpp.html" target="_top" xlink:title=" ">
<polygon fill="white" stroke="#666666" points="3260,-79.5 3118,-79.5 3118,-60.5 3260,-60.5 3260,-79.5"/>
<text text-anchor="middle" x="3189" y="-67.5" font-family="Helvetica,sans-Serif" font-size="10.00">src/d/menu/d_menu_ring.cpp</text>
</a>
</g>
</g>
<!-- Node1&#45;&gt;Node27 -->
<g id="edge26" class="edge">
<title>Node1&#45;&gt;Node27</title>
<path fill="none" stroke="#63b8ff" d="M2240.32,-133.97C2408.17,-131.2 2790.06,-121.12 3109,-85 3120.21,-83.73 3132.22,-81.89 3143.45,-79.95"/>
<polygon fill="#63b8ff" stroke="#63b8ff" points="2240.31,-130.47 2230.37,-134.13 2240.42,-137.47 2240.31,-130.47"/>
</g>
<!-- Node28 -->
<g id="node28" class="node">
<title>Node28</title>
<g id="a_node28"><a xlink:href="d__shop__camera_8cpp.html" target="_top" xlink:title=" ">
<polygon fill="white" stroke="#666666" points="3430,-79.5 3278,-79.5 3278,-60.5 3430,-60.5 3430,-79.5"/>
<text text-anchor="middle" x="3354" y="-67.5" font-family="Helvetica,sans-Serif" font-size="10.00">src/d/shop/d_shop_camera.cpp</text>
</a>
</g>
</g>
<!-- Node1&#45;&gt;Node28 -->
<g id="edge27" class="edge">
<title>Node1&#45;&gt;Node28</title>
<path fill="none" stroke="#63b8ff" d="M2240.37,-134.6C2428.05,-132.98 2886.97,-124.88 3269,-85 3280.9,-83.76 3293.66,-81.92 3305.59,-79.99"/>
<polygon fill="#63b8ff" stroke="#63b8ff" points="2240.42,-131.1 2230.45,-134.69 2240.48,-138.1 2240.42,-131.1"/>
</g>
<!-- Node29 -->
<g id="node29" class="node">
<title>Node29</title>
<g id="a_node29"><a xlink:href="d__shop__system_8cpp.html" target="_top" xlink:title=" ">
<polygon fill="white" stroke="#666666" points="3600,-79.5 3448,-79.5 3448,-60.5 3600,-60.5 3600,-79.5"/>
<text text-anchor="middle" x="3524" y="-67.5" font-family="Helvetica,sans-Serif" font-size="10.00">src/d/shop/d_shop_system.cpp</text>
</a>
</g>
</g>
<!-- Node1&#45;&gt;Node29 -->
<g id="edge28" class="edge">
<title>Node1&#45;&gt;Node29</title>
<path fill="none" stroke="#63b8ff" d="M2240.21,-135.34C2447.38,-135.35 2989.38,-130.6 3439,-85 3451.05,-83.78 3463.99,-81.93 3476.04,-79.97"/>
<polygon fill="#63b8ff" stroke="#63b8ff" points="2240.34,-131.84 2230.34,-135.33 2240.33,-138.84 2240.34,-131.84"/>
</g>
<!-- Node30 -->
<g id="node30" class="node">
<title>Node30</title>
<g id="a_node30"><a xlink:href="f__op__actor__mng_8cpp.html" target="_top" xlink:title=" ">
<polygon fill="white" stroke="#666666" points="3719.5,-85 3618.5,-85 3618.5,-55 3719.5,-55 3719.5,-85"/>
<text text-anchor="start" x="3626.5" y="-73" font-family="Helvetica,sans-Serif" font-size="10.00">src/f_op/f_op_actor</text>
<text text-anchor="middle" x="3669" y="-62" font-family="Helvetica,sans-Serif" font-size="10.00">_mng.cpp</text>
</a>
</g>
</g>
<!-- Node1&#45;&gt;Node30 -->
<g id="edge29" class="edge">
<title>Node1&#45;&gt;Node30</title>
<path fill="none" stroke="#63b8ff" d="M2240.06,-134.24C2510.63,-131.52 3341.92,-120.4 3609,-85 3611.97,-84.61 3615.01,-84.13 3618.06,-83.6"/>
<polygon fill="#63b8ff" stroke="#63b8ff" points="2240.23,-130.74 2230.26,-134.34 2240.3,-137.74 2240.23,-130.74"/>
</g>
<!-- Node31 -->
<g id="node31" class="node">
<title>Node31</title>
<g id="a_node31"><a xlink:href="f__op__msg__mng_8cpp.html" target="_top" xlink:title=" ">
<polygon fill="white" stroke="#666666" points="3878,-79.5 3738,-79.5 3738,-60.5 3878,-60.5 3878,-79.5"/>
<text text-anchor="middle" x="3808" y="-67.5" font-family="Helvetica,sans-Serif" font-size="10.00">src/f_op/f_op_msg_mng.cpp</text>
</a>
</g>
</g>
<!-- Node1&#45;&gt;Node31 -->
<g id="edge30" class="edge">
<title>Node1&#45;&gt;Node31</title>
<path fill="none" stroke="#63b8ff" d="M2240.16,-133.9C2525.28,-129.99 3436.62,-115.39 3729,-85 3740.36,-83.82 3752.55,-81.96 3763.87,-79.97"/>
<polygon fill="#63b8ff" stroke="#63b8ff" points="2240.13,-130.4 2230.18,-134.03 2240.23,-137.4 2240.13,-130.4"/>
</g>
<!-- Node32 -->
<g id="node32" class="node">
<title>Node32</title>
<g id="a_node32"><a xlink:href="m__Do__lib_8cpp.html" target="_top" xlink:title=" ">
<polygon fill="white" stroke="#666666" points="4016,-79.5 3896,-79.5 3896,-60.5 4016,-60.5 4016,-79.5"/>
<text text-anchor="middle" x="3956" y="-67.5" font-family="Helvetica,sans-Serif" font-size="10.00">src/m_Do/m_Do_lib.cpp</text>
</a>
</g>
</g>
<!-- Node1&#45;&gt;Node32 -->
<g id="edge31" class="edge">
<title>Node1&#45;&gt;Node32</title>
<path fill="none" stroke="#63b8ff" d="M2239.98,-134.47C2543.32,-132.29 3562.62,-122.31 3887,-85 3897.08,-83.84 3907.88,-81.96 3917.86,-79.95"/>
<polygon fill="#63b8ff" stroke="#63b8ff" points="2240.13,-130.97 2230.15,-134.54 2240.18,-137.97 2240.13,-130.97"/>
</g>
<!-- Node33 -->
<g id="node33" class="node">
<title>Node33</title>
<g id="a_node33"><a xlink:href="m__Do__machine_8cpp.html" target="_top" xlink:title=" ">
<polygon fill="white" stroke="#666666" points="4181.5,-79.5 4034.5,-79.5 4034.5,-60.5 4181.5,-60.5 4181.5,-79.5"/>
<text text-anchor="middle" x="4108" y="-67.5" font-family="Helvetica,sans-Serif" font-size="10.00">src/m_Do/m_Do_machine.cpp</text>
</a>
</g>
</g>
<!-- Node1&#45;&gt;Node33 -->
<g id="edge32" class="edge">
<title>Node1&#45;&gt;Node33</title>
<path fill="none" stroke="#63b8ff" d="M2240.26,-134.3C2559.24,-131.48 3671.79,-119.34 4025,-85 4037.07,-83.83 4050.04,-81.94 4062.06,-79.93"/>
<polygon fill="#63b8ff" stroke="#63b8ff" points="2240.28,-130.8 2230.31,-134.39 2240.34,-137.8 2240.28,-130.8"/>
</g>
<!-- Node34 -->
<g id="node34" class="node">
<title>Node34</title>
<g id="a_node34"><a xlink:href="m__Do__mtx_8cpp.html" target="_top" xlink:title=" ">
<polygon fill="white" stroke="#666666" points="4326,-79.5 4200,-79.5 4200,-60.5 4326,-60.5 4326,-79.5"/>
<text text-anchor="middle" x="4263" y="-67.5" font-family="Helvetica,sans-Serif" font-size="10.00">src/m_Do/m_Do_mtx.cpp</text>
</a>
</g>
</g>
<!-- Node1&#45;&gt;Node34 -->
<g id="edge33" class="edge">
<title>Node1&#45;&gt;Node34</title>
<path fill="none" stroke="#63b8ff" d="M2239.99,-134.81C2576.43,-133.76 3803.93,-127.08 4191,-85 4201.51,-83.86 4212.77,-81.98 4223.19,-79.97"/>
<polygon fill="#63b8ff" stroke="#63b8ff" points="2240.38,-131.31 2230.39,-134.84 2240.4,-138.31 2240.38,-131.31"/>
</g>
<!-- Node3 -->
<g id="node3" class="node">
<title>Node3</title>
<g id="a_node3"><a xlink:href="d__com__static_8cpp.html" target="_top" xlink:title=" ">
<polygon fill="white" stroke="#666666" points="140,-19 0,-19 0,0 140,0 140,-19"/>
<text text-anchor="middle" x="70" y="-7" font-family="Helvetica,sans-Serif" font-size="10.00">src/d/com/d_com_static.cpp</text>
</a>
</g>
</g>
<!-- Node2&#45;&gt;Node3 -->
<g id="edge2" class="edge">
<title>Node2&#45;&gt;Node3</title>
<path fill="none" stroke="#63b8ff" d="M114.13,-47.38C102.43,-37.6 89.26,-26.6 80.38,-19.18"/>
<polygon fill="#63b8ff" stroke="#63b8ff" points="111.62,-49.84 121.54,-53.57 116.11,-44.47 111.62,-49.84"/>
</g>
<!-- Node4 -->
<g id="node4" class="node">
<title>Node4</title>
<g id="a_node4"><a xlink:href="d__s__play_8cpp.html" target="_top" xlink:title=" ">
<polygon fill="white" stroke="#666666" points="264,-19 158,-19 158,0 264,0 264,-19"/>
<text text-anchor="middle" x="211" y="-7" font-family="Helvetica,sans-Serif" font-size="10.00">src/d/s/d_s_play.cpp</text>
</a>
</g>
</g>
<!-- Node2&#45;&gt;Node4 -->
<g id="edge3" class="edge">
<title>Node2&#45;&gt;Node4</title>
<path fill="none" stroke="#63b8ff" d="M166.24,-47.38C178.11,-37.6 191.46,-26.6 200.47,-19.18"/>
<polygon fill="#63b8ff" stroke="#63b8ff" points="164.21,-44.52 158.72,-53.58 168.66,-49.92 164.21,-44.52"/>
</g>
</g>
</svg>
        <g id="navigator" transform="translate(0 0)" fill="#404254">
                <rect fill="#f2f5e9" fill-opacity="0.5" stroke="#606060" stroke-width=".5" x="0" y="0" width="60" height="60"/>
                <use id="zoomplus" xlink:href="#zoomPlus" x="17" y="9" onmousedown="handleZoom(evt,'in')"/>
                <use id="zoomminus" xlink:href="#zoomMin" x="42" y="9" onmousedown="handleZoom(evt,'out')"/>
                <use id="reset" xlink:href="#resetDef" x="30" y="36" onmousedown="handleReset()"/>
                <g id="arrowUp" xlink:href="#dirArrow" transform="translate(30 24)" onmousedown="handlePan(0,-1)">
                  <use xlink:href="#rim" fill="#404040">
                        <set attributeName="fill" to="#808080" begin="arrowUp.mouseover" end="arrowUp.mouseout"/>
                  </use>
                  <path fill="none" stroke="white" stroke-width="1.5" d="M0,-3.0v7 M-2.5,-0.5L0,-3.0L2.5,-0.5"/>
                </g>
                <g id="arrowRight" xlink:href="#dirArrow" transform="rotate(90) translate(36 -43)" onmousedown="handlePan(1,0)">
                  <use xlink:href="#rim" fill="#404040">
                        <set attributeName="fill" to="#808080" begin="arrowRight.mouseover" end="arrowRight.mouseout"/>
                  </use>
                  <path fill="none" stroke="white" stroke-width="1.5" d="M0,-3.0v7 M-2.5,-0.5L0,-3.0L2.5,-0.5"/>
                </g>
                <g id="arrowDown" xlink:href="#dirArrow" transform="rotate(180) translate(-30 -48)" onmousedown="handlePan(0,1)">
                  <use xlink:href="#rim" fill="#404040">
                        <set attributeName="fill" to="#808080" begin="arrowDown.mouseover" end="arrowDown.mouseout"/>
                  </use>
                  <path fill="none" stroke="white" stroke-width="1.5" d="M0,-3.0v7 M-2.5,-0.5L0,-3.0L2.5,-0.5"/>
                </g>
                <g id="arrowLeft" xlink:href="#dirArrow" transform="rotate(270) translate(-36 17)" onmousedown="handlePan(-1,0)">
                  <use xlink:href="#rim" fill="#404040">
                        <set attributeName="fill" to="#808080" begin="arrowLeft.mouseover" end="arrowLeft.mouseout"/>
                  </use>
                  <path fill="none" stroke="white" stroke-width="1.5" d="M0,-3.0v7 M-2.5,-0.5L0,-3.0L2.5,-0.5"/>
                </g>
        </g>
        <svg viewBox="0 0 15 15" width="100%" height="30px" preserveAspectRatio="xMaxYMin meet">
         <g id="arrow_out" transform="scale(0.3 0.3)">
          <a xlink:href="c__math_8h__dep__incl_org.svg" target="_base">
           <rect id="button" ry="5" rx="5" y="6" x="6" height="38" width="38"
                fill="#f2f5e9" fill-opacity="0.5" stroke="#606060" stroke-width="1.0"/>
           <path id="arrow"
             d="M 11.500037,31.436501 C 11.940474,20.09759 22.043105,11.32322 32.158766,21.979434 L 37.068811,17.246167 C 37.068811,17.246167 37.088388,32 37.088388,32 L 22.160133,31.978069 C 22.160133,31.978069 26.997745,27.140456 26.997745,27.140456 C 18.528582,18.264221 13.291696,25.230495 11.500037,31.436501 z"
             style="fill:#404040;"/>
          </a>
         </g>
        </svg>
</svg>
