<?xml version="1.0" encoding="UTF-8" standalone="no"?>
<!DOCTYPE svg PUBLIC "-//W3C//DTD SVG 1.1//EN"
 "http://www.w3.org/Graphics/SVG/1.1/DTD/svg11.dtd">
<!-- Generated by graphviz version 2.47.0 (20210316.2052)
 -->
<!-- Title: include/SComponent/c_m3d_g_aab.h Pages: 1 -->
<svg width="5516pt" height="441pt"
 viewBox="0.00 0.00 5516.00 441.00" xmlns="http://www.w3.org/2000/svg" xmlns:xlink="http://www.w3.org/1999/xlink">
<g id="graph0" class="graph" transform="scale(1 1) rotate(0) translate(4 437)">
<title>include/SComponent/c_m3d_g_aab.h</title>
<polygon fill="white" stroke="transparent" points="-4,4 -4,-437 5512,-437 5512,4 -4,4"/>
<!-- Node1 -->
<g id="node1" class="node">
<title>Node1</title>
<g id="a_node1"><a xlink:title=" ">
<polygon fill="#bfbfbf" stroke="black" points="2163,-402.5 2163,-432.5 2270,-432.5 2270,-402.5 2163,-402.5"/>
<text text-anchor="start" x="2171" y="-420.5" font-family="Helvetica,sans-Serif" font-size="10.00">include/SComponent</text>
<text text-anchor="middle" x="2216.5" y="-409.5" font-family="Helvetica,sans-Serif" font-size="10.00">/c_m3d_g_aab.h</text>
</a>
</g>
</g>
<!-- Node2 -->
<g id="node2" class="node">
<title>Node2</title>
<g id="a_node2"><a xlink:href="c__m3d__g__aab_8cpp.html" target="_top" xlink:title=" ">
<polygon fill="white" stroke="black" points="1997.5,-335.5 1997.5,-365.5 2131.5,-365.5 2131.5,-335.5 1997.5,-335.5"/>
<text text-anchor="start" x="2005.5" y="-353.5" font-family="Helvetica,sans-Serif" font-size="10.00">libs/SSystem/SComponent</text>
<text text-anchor="middle" x="2064.5" y="-342.5" font-family="Helvetica,sans-Serif" font-size="10.00">/c_m3d_g_aab.cpp</text>
</a>
</g>
</g>
<!-- Node1&#45;&gt;Node2 -->
<g id="edge1" class="edge">
<title>Node1&#45;&gt;Node2</title>
<path fill="none" stroke="midnightblue" d="M2174.19,-398.41C2149.92,-388.03 2119.91,-375.2 2097.42,-365.58"/>
<polygon fill="midnightblue" stroke="midnightblue" points="2172.95,-401.68 2183.52,-402.4 2175.7,-395.25 2172.95,-401.68"/>
</g>
<!-- Node3 -->
<g id="node3" class="node">
<title>Node3</title>
<g id="a_node3"><a xlink:href="c__m3d_8cpp.html" target="_top" xlink:title=" ">
<polygon fill="white" stroke="black" points="2149.5,-335.5 2149.5,-365.5 2283.5,-365.5 2283.5,-335.5 2149.5,-335.5"/>
<text text-anchor="start" x="2157.5" y="-353.5" font-family="Helvetica,sans-Serif" font-size="10.00">libs/SSystem/SComponent</text>
<text text-anchor="middle" x="2216.5" y="-342.5" font-family="Helvetica,sans-Serif" font-size="10.00">/c_m3d.cpp</text>
</a>
</g>
</g>
<!-- Node1&#45;&gt;Node3 -->
<g id="edge2" class="edge">
<title>Node1&#45;&gt;Node3</title>
<path fill="none" stroke="midnightblue" d="M2216.5,-392.11C2216.5,-383.15 2216.5,-373.32 2216.5,-365.58"/>
<polygon fill="midnightblue" stroke="midnightblue" points="2213,-392.4 2216.5,-402.4 2220,-392.4 2213,-392.4"/>
</g>
<!-- Node4 -->
<g id="node4" class="node">
<title>Node4</title>
<g id="a_node4"><a xlink:href="c__cc__d_8h.html" target="_top" xlink:title=" ">
<polygon fill="white" stroke="black" points="2302,-335.5 2302,-365.5 2409,-365.5 2409,-335.5 2302,-335.5"/>
<text text-anchor="start" x="2310" y="-353.5" font-family="Helvetica,sans-Serif" font-size="10.00">include/SComponent</text>
<text text-anchor="middle" x="2355.5" y="-342.5" font-family="Helvetica,sans-Serif" font-size="10.00">/c_cc_d/c_cc_d.h</text>
</a>
</g>
</g>
<!-- Node1&#45;&gt;Node4 -->
<g id="edge3" class="edge">
<title>Node1&#45;&gt;Node4</title>
<path fill="none" stroke="midnightblue" d="M2255.78,-398.13C2277.87,-387.8 2305.01,-375.11 2325.4,-365.58"/>
<polygon fill="midnightblue" stroke="midnightblue" points="2254.24,-394.99 2246.66,-402.4 2257.2,-401.33 2254.24,-394.99"/>
</g>
<!-- Node5 -->
<g id="node5" class="node">
<title>Node5</title>
<g id="a_node5"><a xlink:href="d__cc__mass__s_8h.html" target="_top" xlink:title=" ">
<polygon fill="white" stroke="black" points="2223.5,-268.5 2223.5,-298.5 2351.5,-298.5 2351.5,-268.5 2223.5,-268.5"/>
<text text-anchor="start" x="2231.5" y="-286.5" font-family="Helvetica,sans-Serif" font-size="10.00">include/d/d_cc/d_cc</text>
<text text-anchor="middle" x="2287.5" y="-275.5" font-family="Helvetica,sans-Serif" font-size="10.00">_mass_s/d_cc_mass_s.h</text>
</a>
</g>
</g>
<!-- Node4&#45;&gt;Node5 -->
<g id="edge4" class="edge">
<title>Node4&#45;&gt;Node5</title>
<path fill="none" stroke="midnightblue" d="M2333.33,-328.31C2323.13,-318.56 2311.31,-307.26 2302.23,-298.58"/>
<polygon fill="midnightblue" stroke="midnightblue" points="2331.1,-331.02 2340.75,-335.4 2335.93,-325.96 2331.1,-331.02"/>
</g>
<!-- Node57 -->
<g id="node50" class="node">
<title>Node57</title>
<g id="a_node50"><a xlink:href="c__cc__s_8h.html" target="_top" xlink:title=" ">
<polygon fill="white" stroke="black" points="2370,-268.5 2370,-298.5 2477,-298.5 2477,-268.5 2370,-268.5"/>
<text text-anchor="start" x="2378" y="-286.5" font-family="Helvetica,sans-Serif" font-size="10.00">include/SComponent</text>
<text text-anchor="middle" x="2423.5" y="-275.5" font-family="Helvetica,sans-Serif" font-size="10.00">/c_cc_s/c_cc_s.h</text>
</a>
</g>
</g>
<!-- Node4&#45;&gt;Node57 -->
<g id="edge53" class="edge">
<title>Node4&#45;&gt;Node57</title>
<path fill="none" stroke="midnightblue" d="M2377.67,-328.31C2387.87,-318.56 2399.69,-307.26 2408.77,-298.58"/>
<polygon fill="midnightblue" stroke="midnightblue" points="2375.07,-325.96 2370.25,-335.4 2379.9,-331.02 2375.07,-325.96"/>
</g>
<!-- Node6 -->
<g id="node6" class="node">
<title>Node6</title>
<g id="a_node6"><a xlink:href="d__cc__s_8h.html" target="_top" xlink:title=" ">
<polygon fill="white" stroke="black" points="2303.5,-201.5 2303.5,-231.5 2407.5,-231.5 2407.5,-201.5 2303.5,-201.5"/>
<text text-anchor="start" x="2311.5" y="-219.5" font-family="Helvetica,sans-Serif" font-size="10.00">include/d/d_cc/d_cc</text>
<text text-anchor="middle" x="2355.5" y="-208.5" font-family="Helvetica,sans-Serif" font-size="10.00">_s/d_cc_s.h</text>
</a>
</g>
</g>
<!-- Node5&#45;&gt;Node6 -->
<g id="edge5" class="edge">
<title>Node5&#45;&gt;Node6</title>
<path fill="none" stroke="midnightblue" d="M2309.67,-261.31C2319.87,-251.56 2331.69,-240.26 2340.77,-231.58"/>
<polygon fill="midnightblue" stroke="midnightblue" points="2307.07,-258.96 2302.25,-268.4 2311.9,-264.02 2307.07,-258.96"/>
</g>
<!-- Node7 -->
<g id="node7" class="node">
<title>Node7</title>
<g id="a_node7"><a xlink:href="d__com__inf__game_8h.html" target="_top" xlink:title=" ">
<polygon fill="white" stroke="red" points="2282.5,-134.5 2282.5,-164.5 2428.5,-164.5 2428.5,-134.5 2282.5,-134.5"/>
<text text-anchor="start" x="2290.5" y="-152.5" font-family="Helvetica,sans-Serif" font-size="10.00">include/d/d_com/d_com</text>
<text text-anchor="middle" x="2355.5" y="-141.5" font-family="Helvetica,sans-Serif" font-size="10.00">_inf_game/d_com_inf_game.h</text>
</a>
</g>
</g>
<!-- Node6&#45;&gt;Node7 -->
<g id="edge6" class="edge">
<title>Node6&#45;&gt;Node7</title>
<path fill="none" stroke="midnightblue" d="M2355.5,-191.11C2355.5,-182.15 2355.5,-172.32 2355.5,-164.58"/>
<polygon fill="midnightblue" stroke="midnightblue" points="2352,-191.4 2355.5,-201.4 2359,-191.4 2352,-191.4"/>
</g>
<!-- Node8 -->
<g id="node8" class="node">
<title>Node8</title>
<g id="a_node8"><a xlink:href="d__attention_8cpp.html" target="_top" xlink:title=" ">
<polygon fill="white" stroke="black" points="0,-6 0,-25 107,-25 107,-6 0,-6"/>
<text text-anchor="middle" x="53.5" y="-13" font-family="Helvetica,sans-Serif" font-size="10.00">src/d/d_attention.cpp</text>
</a>
</g>
</g>
<!-- Node7&#45;&gt;Node8 -->
<g id="edge7" class="edge">
<title>Node7&#45;&gt;Node8</title>
<path fill="none" stroke="midnightblue" d="M2272.41,-148.27C1861.93,-146.97 68.54,-138.92 28.5,-98 8.63,-77.69 32.63,-42 45.87,-25.43"/>
<polygon fill="midnightblue" stroke="midnightblue" points="2272.42,-151.77 2282.43,-148.31 2272.44,-144.77 2272.42,-151.77"/>
</g>
<!-- Node9 -->
<g id="node9" class="node">
<title>Node9</title>
<g id="a_node9"><a xlink:href="d__camera_8cpp.html" target="_top" xlink:title=" ">
<polygon fill="white" stroke="black" points="175.5,-73 175.5,-92 277.5,-92 277.5,-73 175.5,-73"/>
<text text-anchor="middle" x="226.5" y="-80" font-family="Helvetica,sans-Serif" font-size="10.00">src/d/d_camera.cpp</text>
</a>
</g>
</g>
<!-- Node7&#45;&gt;Node9 -->
<g id="edge8" class="edge">
<title>Node7&#45;&gt;Node9</title>
<path fill="none" stroke="midnightblue" d="M2272.18,-148.63C1936.76,-148.81 684.56,-146.18 291.5,-98 280.83,-96.69 269.33,-94.42 259.02,-92.06"/>
<polygon fill="midnightblue" stroke="midnightblue" points="2272.31,-152.13 2282.3,-148.62 2272.3,-145.13 2272.31,-152.13"/>
</g>
<!-- Node10 -->
<g id="node10" class="node">
<title>Node10</title>
<g id="a_node10"><a xlink:href="d__com__inf__game_8cpp.html" target="_top" xlink:title=" ">
<polygon fill="white" stroke="black" points="215,-0.5 215,-30.5 334,-30.5 334,-0.5 215,-0.5"/>
<text text-anchor="start" x="223" y="-18.5" font-family="Helvetica,sans-Serif" font-size="10.00">src/d/d_com/d_com_inf</text>
<text text-anchor="middle" x="274.5" y="-7.5" font-family="Helvetica,sans-Serif" font-size="10.00">_game.cpp</text>
</a>
</g>
</g>
<!-- Node7&#45;&gt;Node10 -->
<g id="edge9" class="edge">
<title>Node7&#45;&gt;Node10</title>
<path fill="none" stroke="midnightblue" d="M2272.07,-148.64C1900.42,-148.99 410.06,-147.29 324.5,-98 299.04,-83.33 284.89,-49.99 278.57,-30.8"/>
<polygon fill="midnightblue" stroke="midnightblue" points="2272.22,-152.14 2282.21,-148.63 2272.21,-145.14 2272.22,-152.14"/>
</g>
<!-- Node11 -->
<g id="node11" class="node">
<title>Node11</title>
<g id="a_node11"><a xlink:href="d__file__sel__info_8cpp.html" target="_top" xlink:title=" ">
<polygon fill="white" stroke="black" points="524,-67.5 524,-97.5 613,-97.5 613,-67.5 524,-67.5"/>
<text text-anchor="start" x="532" y="-85.5" font-family="Helvetica,sans-Serif" font-size="10.00">src/d/d_file/d_file</text>
<text text-anchor="middle" x="568.5" y="-74.5" font-family="Helvetica,sans-Serif" font-size="10.00">_sel_info.cpp</text>
</a>
</g>
</g>
<!-- Node7&#45;&gt;Node11 -->
<g id="edge10" class="edge">
<title>Node7&#45;&gt;Node11</title>
<path fill="none" stroke="midnightblue" d="M2271.81,-148.7C1971.03,-148.99 945.5,-146.33 621.5,-98 618.76,-97.59 615.97,-97.09 613.16,-96.52"/>
<polygon fill="midnightblue" stroke="midnightblue" points="2272.2,-152.2 2282.2,-148.68 2272.2,-145.2 2272.2,-152.2"/>
</g>
<!-- Node12 -->
<g id="node12" class="node">
<title>Node12</title>
<g id="a_node12"><a xlink:href="d__item_8cpp.html" target="_top" xlink:title=" ">
<polygon fill="white" stroke="black" points="352,-6 352,-25 473,-25 473,-6 352,-6"/>
<text text-anchor="middle" x="412.5" y="-13" font-family="Helvetica,sans-Serif" font-size="10.00">src/d/d_item/d_item.cpp</text>
</a>
</g>
</g>
<!-- Node7&#45;&gt;Node12 -->
<g id="edge11" class="edge">
<title>Node7&#45;&gt;Node12</title>
<path fill="none" stroke="midnightblue" d="M2272.31,-147.83C1922.7,-144.79 586.57,-131.06 503.5,-98 464.68,-82.55 431.72,-42.62 418.59,-25.03"/>
<polygon fill="midnightblue" stroke="midnightblue" points="2272.34,-151.33 2282.37,-147.91 2272.4,-144.33 2272.34,-151.33"/>
</g>
<!-- Node13 -->
<g id="node13" class="node">
<title>Node13</title>
<g id="a_node13"><a xlink:href="d__kankyo__rain_8cpp.html" target="_top" xlink:title=" ">
<polygon fill="white" stroke="black" points="631,-67.5 631,-97.5 758,-97.5 758,-67.5 631,-67.5"/>
<text text-anchor="start" x="639" y="-85.5" font-family="Helvetica,sans-Serif" font-size="10.00">src/d/d_kankyo/d_kankyo</text>
<text text-anchor="middle" x="694.5" y="-74.5" font-family="Helvetica,sans-Serif" font-size="10.00">_rain.cpp</text>
</a>
</g>
</g>
<!-- Node7&#45;&gt;Node13 -->
<g id="edge12" class="edge">
<title>Node7&#45;&gt;Node13</title>
<path fill="none" stroke="midnightblue" d="M2272.27,-147.69C1988.83,-144.64 1062.38,-132.25 766.5,-98 763.71,-97.68 760.87,-97.3 758.01,-96.89"/>
<polygon fill="midnightblue" stroke="midnightblue" points="2272.45,-151.19 2282.48,-147.8 2272.52,-144.19 2272.45,-151.19"/>
</g>
<!-- Node14 -->
<g id="node14" class="node">
<title>Node14</title>
<g id="a_node14"><a xlink:href="d__kankyo__wether_8cpp.html" target="_top" xlink:title=" ">
<polygon fill="white" stroke="black" points="776,-67.5 776,-97.5 903,-97.5 903,-67.5 776,-67.5"/>
<text text-anchor="start" x="784" y="-85.5" font-family="Helvetica,sans-Serif" font-size="10.00">src/d/d_kankyo/d_kankyo</text>
<text text-anchor="middle" x="839.5" y="-74.5" font-family="Helvetica,sans-Serif" font-size="10.00">_wether.cpp</text>
</a>
</g>
</g>
<!-- Node7&#45;&gt;Node14 -->
<g id="edge13" class="edge">
<title>Node7&#45;&gt;Node14</title>
<path fill="none" stroke="midnightblue" d="M2271.86,-147.38C2005.28,-143.51 1177.64,-129.24 911.5,-98 908.71,-97.67 905.87,-97.3 903.01,-96.88"/>
<polygon fill="midnightblue" stroke="midnightblue" points="2272.19,-150.88 2282.24,-147.53 2272.29,-143.88 2272.19,-150.88"/>
</g>
<!-- Node15 -->
<g id="node15" class="node">
<title>Node15</title>
<g id="a_node15"><a xlink:href="d__kankyo_8cpp.html" target="_top" xlink:title=" ">
<polygon fill="white" stroke="black" points="921,-73 921,-92 1022,-92 1022,-73 921,-73"/>
<text text-anchor="middle" x="971.5" y="-80" font-family="Helvetica,sans-Serif" font-size="10.00">src/d/d_kankyo.cpp</text>
</a>
</g>
</g>
<!-- Node7&#45;&gt;Node15 -->
<g id="edge14" class="edge">
<title>Node7&#45;&gt;Node15</title>
<path fill="none" stroke="midnightblue" d="M2272.28,-147.54C2020.92,-144.28 1271.93,-131.91 1030.5,-98 1020.89,-96.65 1010.57,-94.4 1001.29,-92.07"/>
<polygon fill="midnightblue" stroke="midnightblue" points="2272.4,-151.04 2282.45,-147.67 2272.49,-144.04 2272.4,-151.04"/>
</g>
<!-- Node16 -->
<g id="node16" class="node">
<title>Node16</title>
<g id="a_node16"><a xlink:href="d__kantera__icon__meter_8cpp.html" target="_top" xlink:title=" ">
<polygon fill="white" stroke="black" points="1040,-67.5 1040,-97.5 1147,-97.5 1147,-67.5 1040,-67.5"/>
<text text-anchor="start" x="1048" y="-85.5" font-family="Helvetica,sans-Serif" font-size="10.00">src/d/d_kantera_icon</text>
<text text-anchor="middle" x="1093.5" y="-74.5" font-family="Helvetica,sans-Serif" font-size="10.00">_meter.cpp</text>
</a>
</g>
</g>
<!-- Node7&#45;&gt;Node16 -->
<g id="edge15" class="edge">
<title>Node7&#45;&gt;Node16</title>
<path fill="none" stroke="midnightblue" d="M2272.15,-147.03C2037.05,-142.55 1371.79,-127.58 1155.5,-98 1152.76,-97.63 1149.97,-97.19 1147.15,-96.7"/>
<polygon fill="midnightblue" stroke="midnightblue" points="2272.28,-150.53 2282.34,-147.22 2272.41,-143.53 2272.28,-150.53"/>
</g>
<!-- Node17 -->
<g id="node17" class="node">
<title>Node17</title>
<g id="a_node17"><a xlink:href="d__kyeff_8cpp.html" target="_top" xlink:title=" ">
<polygon fill="white" stroke="black" points="1165,-73 1165,-92 1278,-92 1278,-73 1165,-73"/>
<text text-anchor="middle" x="1221.5" y="-80" font-family="Helvetica,sans-Serif" font-size="10.00">src/d/d_ky/d_kyeff.cpp</text>
</a>
</g>
</g>
<!-- Node7&#45;&gt;Node17 -->
<g id="edge16" class="edge">
<title>Node7&#45;&gt;Node17</title>
<path fill="none" stroke="midnightblue" d="M2272.29,-146.42C2055.44,-140.72 1476.61,-123.5 1286.5,-98 1276.07,-96.6 1264.84,-94.36 1254.7,-92.06"/>
<polygon fill="midnightblue" stroke="midnightblue" points="2272.25,-149.92 2282.34,-146.69 2272.44,-142.93 2272.25,-149.92"/>
</g>
<!-- Node18 -->
<g id="node18" class="node">
<title>Node18</title>
<g id="a_node18"><a xlink:href="d__meter__button_8cpp.html" target="_top" xlink:title=" ">
<polygon fill="white" stroke="black" points="1296,-67.5 1296,-97.5 1411,-97.5 1411,-67.5 1296,-67.5"/>
<text text-anchor="start" x="1304" y="-85.5" font-family="Helvetica,sans-Serif" font-size="10.00">src/d/d_meter/d_meter</text>
<text text-anchor="middle" x="1353.5" y="-74.5" font-family="Helvetica,sans-Serif" font-size="10.00">_button.cpp</text>
</a>
</g>
</g>
<!-- Node7&#45;&gt;Node18 -->
<g id="edge17" class="edge">
<title>Node7&#45;&gt;Node18</title>
<path fill="none" stroke="midnightblue" d="M2272.28,-148.53C2108.32,-147.59 1732.23,-140.5 1419.5,-98 1416.83,-97.64 1414.1,-97.22 1411.35,-96.77"/>
<polygon fill="midnightblue" stroke="midnightblue" points="2272.28,-152.03 2282.3,-148.58 2272.32,-145.03 2272.28,-152.03"/>
</g>
<!-- Node19 -->
<g id="node19" class="node">
<title>Node19</title>
<g id="a_node19"><a xlink:href="d__meter__haihai_8cpp.html" target="_top" xlink:title=" ">
<polygon fill="white" stroke="black" points="1429,-67.5 1429,-97.5 1544,-97.5 1544,-67.5 1429,-67.5"/>
<text text-anchor="start" x="1437" y="-85.5" font-family="Helvetica,sans-Serif" font-size="10.00">src/d/d_meter/d_meter</text>
<text text-anchor="middle" x="1486.5" y="-74.5" font-family="Helvetica,sans-Serif" font-size="10.00">_haihai.cpp</text>
</a>
</g>
</g>
<!-- Node7&#45;&gt;Node19 -->
<g id="edge18" class="edge">
<title>Node7&#45;&gt;Node19</title>
<path fill="none" stroke="midnightblue" d="M2272.07,-147.46C2125.7,-144.7 1813.38,-134.64 1552.5,-98 1549.83,-97.62 1547.1,-97.2 1544.36,-96.74"/>
<polygon fill="midnightblue" stroke="midnightblue" points="2272.26,-150.96 2282.32,-147.65 2272.39,-143.97 2272.26,-150.96"/>
</g>
<!-- Node20 -->
<g id="node20" class="node">
<title>Node20</title>
<g id="a_node20"><a xlink:href="d__meter__hakusha_8cpp.html" target="_top" xlink:title=" ">
<polygon fill="white" stroke="black" points="1562,-67.5 1562,-97.5 1677,-97.5 1677,-67.5 1562,-67.5"/>
<text text-anchor="start" x="1570" y="-85.5" font-family="Helvetica,sans-Serif" font-size="10.00">src/d/d_meter/d_meter</text>
<text text-anchor="middle" x="1619.5" y="-74.5" font-family="Helvetica,sans-Serif" font-size="10.00">_hakusha.cpp</text>
</a>
</g>
</g>
<!-- Node7&#45;&gt;Node20 -->
<g id="edge19" class="edge">
<title>Node7&#45;&gt;Node20</title>
<path fill="none" stroke="midnightblue" d="M2272.2,-146C2145.1,-141.33 1895.35,-128.8 1685.5,-98 1682.71,-97.59 1679.87,-97.13 1677,-96.63"/>
<polygon fill="midnightblue" stroke="midnightblue" points="2272.14,-149.5 2282.26,-146.36 2272.39,-142.5 2272.14,-149.5"/>
</g>
<!-- Node21 -->
<g id="node21" class="node">
<title>Node21</title>
<g id="a_node21"><a xlink:href="d__meter__map_8cpp.html" target="_top" xlink:title=" ">
<polygon fill="white" stroke="black" points="1695,-67.5 1695,-97.5 1810,-97.5 1810,-67.5 1695,-67.5"/>
<text text-anchor="start" x="1703" y="-85.5" font-family="Helvetica,sans-Serif" font-size="10.00">src/d/d_meter/d_meter</text>
<text text-anchor="middle" x="1752.5" y="-74.5" font-family="Helvetica,sans-Serif" font-size="10.00">_map.cpp</text>
</a>
</g>
</g>
<!-- Node7&#45;&gt;Node21 -->
<g id="edge20" class="edge">
<title>Node7&#45;&gt;Node21</title>
<path fill="none" stroke="midnightblue" d="M2272.2,-143.84C2166.29,-137.19 1978.04,-122.93 1818.5,-98 1815.72,-97.57 1812.88,-97.08 1810.01,-96.57"/>
<polygon fill="midnightblue" stroke="midnightblue" points="2271.99,-147.33 2282.19,-144.46 2272.42,-140.35 2271.99,-147.33"/>
</g>
<!-- Node22 -->
<g id="node22" class="node">
<title>Node22</title>
<g id="a_node22"><a xlink:href="d__meter__string_8cpp.html" target="_top" xlink:title=" ">
<polygon fill="white" stroke="black" points="1828,-67.5 1828,-97.5 1943,-97.5 1943,-67.5 1828,-67.5"/>
<text text-anchor="start" x="1836" y="-85.5" font-family="Helvetica,sans-Serif" font-size="10.00">src/d/d_meter/d_meter</text>
<text text-anchor="middle" x="1885.5" y="-74.5" font-family="Helvetica,sans-Serif" font-size="10.00">_string.cpp</text>
</a>
</g>
</g>
<!-- Node7&#45;&gt;Node22 -->
<g id="edge21" class="edge">
<title>Node7&#45;&gt;Node22</title>
<path fill="none" stroke="midnightblue" d="M2272.22,-140.35C2190.3,-131.8 2061.84,-116.98 1951.5,-98 1948.73,-97.52 1945.89,-97.01 1943.03,-96.47"/>
<polygon fill="midnightblue" stroke="midnightblue" points="2271.91,-143.84 2282.22,-141.39 2272.63,-136.87 2271.91,-143.84"/>
</g>
<!-- Node23 -->
<g id="node23" class="node">
<title>Node23</title>
<g id="a_node23"><a xlink:href="d__meter2__draw_8cpp.html" target="_top" xlink:title=" ">
<polygon fill="white" stroke="black" points="1961,-67.5 1961,-97.5 2086,-97.5 2086,-67.5 1961,-67.5"/>
<text text-anchor="start" x="1969" y="-85.5" font-family="Helvetica,sans-Serif" font-size="10.00">src/d/d_meter2/d_meter2</text>
<text text-anchor="middle" x="2023.5" y="-74.5" font-family="Helvetica,sans-Serif" font-size="10.00">_draw.cpp</text>
</a>
</g>
</g>
<!-- Node7&#45;&gt;Node23 -->
<g id="edge22" class="edge">
<title>Node7&#45;&gt;Node23</title>
<path fill="none" stroke="midnightblue" d="M2272.29,-132.63C2221.01,-122.79 2153.91,-109.81 2094.5,-98 2091.79,-97.46 2089.01,-96.91 2086.21,-96.34"/>
<polygon fill="midnightblue" stroke="midnightblue" points="2271.85,-136.11 2282.33,-134.55 2273.17,-129.23 2271.85,-136.11"/>
</g>
<!-- Node24 -->
<g id="node24" class="node">
<title>Node24</title>
<g id="a_node24"><a xlink:href="d__meter2__info_8cpp.html" target="_top" xlink:title=" ">
<polygon fill="white" stroke="black" points="2104,-67.5 2104,-97.5 2229,-97.5 2229,-67.5 2104,-67.5"/>
<text text-anchor="start" x="2112" y="-85.5" font-family="Helvetica,sans-Serif" font-size="10.00">src/d/d_meter2/d_meter2</text>
<text text-anchor="middle" x="2166.5" y="-74.5" font-family="Helvetica,sans-Serif" font-size="10.00">_info.cpp</text>
</a>
</g>
</g>
<!-- Node7&#45;&gt;Node24 -->
<g id="edge23" class="edge">
<title>Node7&#45;&gt;Node24</title>
<path fill="none" stroke="midnightblue" d="M2304.88,-131.09C2274.37,-120.6 2236.02,-107.41 2207.43,-97.58"/>
<polygon fill="midnightblue" stroke="midnightblue" points="2303.9,-134.45 2314.49,-134.4 2306.17,-127.83 2303.9,-134.45"/>
</g>
<!-- Node25 -->
<g id="node25" class="node">
<title>Node25</title>
<g id="a_node25"><a xlink:href="d__meter2_8cpp.html" target="_top" xlink:title=" ">
<polygon fill="white" stroke="black" points="2247.5,-73 2247.5,-92 2347.5,-92 2347.5,-73 2247.5,-73"/>
<text text-anchor="middle" x="2297.5" y="-80" font-family="Helvetica,sans-Serif" font-size="10.00">src/d/d_meter2.cpp</text>
</a>
</g>
</g>
<!-- Node7&#45;&gt;Node25 -->
<g id="edge24" class="edge">
<title>Node7&#45;&gt;Node25</title>
<path fill="none" stroke="midnightblue" d="M2336.01,-126.66C2325.49,-114.86 2313.09,-100.97 2305.26,-92.19"/>
<polygon fill="midnightblue" stroke="midnightblue" points="2333.65,-129.26 2342.91,-134.4 2338.87,-124.6 2333.65,-129.26"/>
</g>
<!-- Node26 -->
<g id="node26" class="node">
<title>Node26</title>
<g id="a_node26"><a xlink:href="d__model_8cpp.html" target="_top" xlink:title=" ">
<polygon fill="white" stroke="black" points="2365.5,-73 2365.5,-92 2461.5,-92 2461.5,-73 2365.5,-73"/>
<text text-anchor="middle" x="2413.5" y="-80" font-family="Helvetica,sans-Serif" font-size="10.00">src/d/d_model.cpp</text>
</a>
</g>
</g>
<!-- Node7&#45;&gt;Node26 -->
<g id="edge25" class="edge">
<title>Node7&#45;&gt;Node26</title>
<path fill="none" stroke="midnightblue" d="M2374.99,-126.66C2385.51,-114.86 2397.91,-100.97 2405.74,-92.19"/>
<polygon fill="midnightblue" stroke="midnightblue" points="2372.13,-124.6 2368.09,-134.4 2377.35,-129.26 2372.13,-124.6"/>
</g>
<!-- Node27 -->
<g id="node27" class="node">
<title>Node27</title>
<g id="a_node27"><a xlink:href="d__save_8cpp.html" target="_top" xlink:title=" ">
<polygon fill="white" stroke="black" points="2480,-73 2480,-92 2605,-92 2605,-73 2480,-73"/>
<text text-anchor="middle" x="2542.5" y="-80" font-family="Helvetica,sans-Serif" font-size="10.00">src/d/d_save/d_save.cpp</text>
</a>
</g>
</g>
<!-- Node7&#45;&gt;Node27 -->
<g id="edge26" class="edge">
<title>Node7&#45;&gt;Node27</title>
<path fill="none" stroke="midnightblue" d="M2405.54,-131.11C2441.92,-118.46 2489.59,-101.89 2518.03,-92.01"/>
<polygon fill="midnightblue" stroke="midnightblue" points="2404.37,-127.81 2396.08,-134.4 2406.67,-134.42 2404.37,-127.81"/>
</g>
<!-- Node28 -->
<g id="node28" class="node">
<title>Node28</title>
<g id="a_node28"><a xlink:href="d__save__HIO_8cpp.html" target="_top" xlink:title=" ">
<polygon fill="white" stroke="black" points="2623,-67.5 2623,-97.5 2730,-97.5 2730,-67.5 2623,-67.5"/>
<text text-anchor="start" x="2631" y="-85.5" font-family="Helvetica,sans-Serif" font-size="10.00">src/d/d_save/d_save</text>
<text text-anchor="middle" x="2676.5" y="-74.5" font-family="Helvetica,sans-Serif" font-size="10.00">_HIO.cpp</text>
</a>
</g>
</g>
<!-- Node7&#45;&gt;Node28 -->
<g id="edge27" class="edge">
<title>Node7&#45;&gt;Node28</title>
<path fill="none" stroke="midnightblue" d="M2438.66,-132.94C2489.29,-123.29 2555.22,-110.41 2613.5,-98 2616.57,-97.35 2619.73,-96.66 2622.91,-95.96"/>
<polygon fill="midnightblue" stroke="midnightblue" points="2437.92,-129.52 2428.75,-134.83 2439.23,-136.4 2437.92,-129.52"/>
</g>
<!-- Node29 -->
<g id="node29" class="node">
<title>Node29</title>
<g id="a_node29"><a xlink:href="d__stage_8cpp.html" target="_top" xlink:title=" ">
<polygon fill="white" stroke="black" points="2748.5,-73 2748.5,-92 2842.5,-92 2842.5,-73 2748.5,-73"/>
<text text-anchor="middle" x="2795.5" y="-80" font-family="Helvetica,sans-Serif" font-size="10.00">src/d/d_stage.cpp</text>
</a>
</g>
</g>
<!-- Node7&#45;&gt;Node29 -->
<g id="edge28" class="edge">
<title>Node7&#45;&gt;Node29</title>
<path fill="none" stroke="midnightblue" d="M2438.86,-140.38C2516.75,-132.11 2636.08,-117.71 2738.5,-98 2747.02,-96.36 2756.17,-94.21 2764.59,-92.07"/>
<polygon fill="midnightblue" stroke="midnightblue" points="2438.2,-136.93 2428.62,-141.45 2438.93,-143.89 2438.2,-136.93"/>
</g>
<!-- Node30 -->
<g id="node30" class="node">
<title>Node30</title>
<g id="a_node30"><a xlink:href="f__op__actor__mng_8cpp.html" target="_top" xlink:title=" ">
<polygon fill="white" stroke="black" points="491,-0.5 491,-30.5 598,-30.5 598,-0.5 491,-0.5"/>
<text text-anchor="start" x="499" y="-18.5" font-family="Helvetica,sans-Serif" font-size="10.00">src/f/f_op/f_op_actor</text>
<text text-anchor="middle" x="544.5" y="-7.5" font-family="Helvetica,sans-Serif" font-size="10.00">_mng.cpp</text>
</a>
</g>
</g>
<!-- Node7&#45;&gt;Node30 -->
<g id="edge29" class="edge">
<title>Node7&#45;&gt;Node30</title>
<path fill="none" stroke="midnightblue" d="M2272.22,-147.78C1917.04,-144.53 545.55,-129.91 514.5,-98 496.31,-79.3 516.41,-48.66 531.35,-30.75"/>
<polygon fill="midnightblue" stroke="midnightblue" points="2272.4,-151.28 2282.43,-147.88 2272.46,-144.28 2272.4,-151.28"/>
</g>
<!-- Node31 -->
<g id="node31" class="node">
<title>Node31</title>
<g id="a_node31"><a xlink:href="f__op__camera_8cpp.html" target="_top" xlink:title=" ">
<polygon fill="white" stroke="black" points="2861,-73 2861,-92 2996,-92 2996,-73 2861,-73"/>
<text text-anchor="middle" x="2928.5" y="-80" font-family="Helvetica,sans-Serif" font-size="10.00">src/f/f_op/f_op_camera.cpp</text>
</a>
</g>
</g>
<!-- Node7&#45;&gt;Node31 -->
<g id="edge30" class="edge">
<title>Node7&#45;&gt;Node31</title>
<path fill="none" stroke="midnightblue" d="M2439.07,-142.16C2537.87,-134.17 2707.13,-118.9 2851.5,-98 2862.94,-96.34 2875.28,-94.19 2886.65,-92.05"/>
<polygon fill="midnightblue" stroke="midnightblue" points="2438.54,-138.7 2428.85,-142.99 2439.1,-145.67 2438.54,-138.7"/>
</g>
<!-- Node32 -->
<g id="node32" class="node">
<title>Node32</title>
<g id="a_node32"><a xlink:href="f__op__kankyo_8cpp.html" target="_top" xlink:title=" ">
<polygon fill="white" stroke="black" points="3014.5,-73 3014.5,-92 3148.5,-92 3148.5,-73 3014.5,-73"/>
<text text-anchor="middle" x="3081.5" y="-80" font-family="Helvetica,sans-Serif" font-size="10.00">src/f/f_op/f_op_kankyo.cpp</text>
</a>
</g>
</g>
<!-- Node7&#45;&gt;Node32 -->
<g id="edge31" class="edge">
<title>Node7&#45;&gt;Node32</title>
<path fill="none" stroke="midnightblue" d="M2439.07,-144.98C2563.11,-139.08 2803.08,-125.09 3005.5,-98 3017.22,-96.43 3029.86,-94.23 3041.4,-92.01"/>
<polygon fill="midnightblue" stroke="midnightblue" points="2438.71,-141.49 2428.89,-145.46 2439.04,-148.48 2438.71,-141.49"/>
</g>
<!-- Node33 -->
<g id="node33" class="node">
<title>Node33</title>
<g id="a_node33"><a xlink:href="f__op__kankyo__mng_8cpp.html" target="_top" xlink:title=" ">
<polygon fill="white" stroke="black" points="3166.5,-67.5 3166.5,-97.5 3282.5,-97.5 3282.5,-67.5 3166.5,-67.5"/>
<text text-anchor="start" x="3174.5" y="-85.5" font-family="Helvetica,sans-Serif" font-size="10.00">src/f/f_op/f_op_kankyo</text>
<text text-anchor="middle" x="3224.5" y="-74.5" font-family="Helvetica,sans-Serif" font-size="10.00">_mng.cpp</text>
</a>
</g>
</g>
<!-- Node7&#45;&gt;Node33 -->
<g id="edge32" class="edge">
<title>Node7&#45;&gt;Node33</title>
<path fill="none" stroke="midnightblue" d="M2438.81,-147.37C2584.98,-144.47 2896.88,-134.2 3157.5,-98 3160.45,-97.59 3163.46,-97.12 3166.49,-96.61"/>
<polygon fill="midnightblue" stroke="midnightblue" points="2438.51,-143.87 2428.58,-147.57 2438.64,-150.87 2438.51,-143.87"/>
</g>
<!-- Node34 -->
<g id="node34" class="node">
<title>Node34</title>
<g id="a_node34"><a xlink:href="f__op__msg__mng_8cpp.html" target="_top" xlink:title=" ">
<polygon fill="white" stroke="black" points="3300.5,-67.5 3300.5,-97.5 3404.5,-97.5 3404.5,-67.5 3300.5,-67.5"/>
<text text-anchor="start" x="3308.5" y="-85.5" font-family="Helvetica,sans-Serif" font-size="10.00">src/f/f_op/f_op_msg</text>
<text text-anchor="middle" x="3352.5" y="-74.5" font-family="Helvetica,sans-Serif" font-size="10.00">_mng.cpp</text>
</a>
</g>
</g>
<!-- Node7&#45;&gt;Node34 -->
<g id="edge33" class="edge">
<title>Node7&#45;&gt;Node34</title>
<path fill="none" stroke="midnightblue" d="M2438.78,-149C2602.86,-148.89 2979.14,-143.18 3291.5,-98 3294.41,-97.58 3297.38,-97.09 3300.38,-96.54"/>
<polygon fill="midnightblue" stroke="midnightblue" points="2438.76,-145.5 2428.76,-149 2438.76,-152.5 2438.76,-145.5"/>
</g>
<!-- Node35 -->
<g id="node35" class="node">
<title>Node35</title>
<g id="a_node35"><a xlink:href="f__pc__manager_8cpp.html" target="_top" xlink:title=" ">
<polygon fill="white" stroke="black" points="3422.5,-73 3422.5,-92 3562.5,-92 3562.5,-73 3422.5,-73"/>
<text text-anchor="middle" x="3492.5" y="-80" font-family="Helvetica,sans-Serif" font-size="10.00">src/f/f_pc/f_pc_manager.cpp</text>
</a>
</g>
</g>
<!-- Node7&#45;&gt;Node35 -->
<g id="edge34" class="edge">
<title>Node7&#45;&gt;Node35</title>
<path fill="none" stroke="midnightblue" d="M2438.7,-148.31C2617.64,-147.06 3052.18,-139.59 3413.5,-98 3425.97,-96.56 3439.43,-94.35 3451.65,-92.07"/>
<polygon fill="midnightblue" stroke="midnightblue" points="2438.54,-144.81 2428.57,-148.37 2438.59,-151.81 2438.54,-144.81"/>
</g>
<!-- Node36 -->
<g id="node36" class="node">
<title>Node36</title>
<g id="a_node36"><a xlink:href="m__Do__audio_8cpp.html" target="_top" xlink:title=" ">
<polygon fill="white" stroke="black" points="3580.5,-73 3580.5,-92 3714.5,-92 3714.5,-73 3580.5,-73"/>
<text text-anchor="middle" x="3647.5" y="-80" font-family="Helvetica,sans-Serif" font-size="10.00">src/m_Do/m_Do_audio.cpp</text>
</a>
</g>
</g>
<!-- Node7&#45;&gt;Node36 -->
<g id="edge35" class="edge">
<title>Node7&#45;&gt;Node36</title>
<path fill="none" stroke="midnightblue" d="M2438.79,-149.25C2636.21,-150.1 3147.79,-146.95 3571.5,-98 3583.64,-96.6 3596.76,-94.36 3608.62,-92.06"/>
<polygon fill="midnightblue" stroke="midnightblue" points="2438.8,-145.75 2428.78,-149.2 2438.76,-152.75 2438.8,-145.75"/>
</g>
<!-- Node37 -->
<g id="node37" class="node">
<title>Node37</title>
<g id="a_node37"><a xlink:href="m__Do__graphic_8cpp.html" target="_top" xlink:title=" ">
<polygon fill="white" stroke="black" points="3732.5,-73 3732.5,-92 3874.5,-92 3874.5,-73 3732.5,-73"/>
<text text-anchor="middle" x="3803.5" y="-80" font-family="Helvetica,sans-Serif" font-size="10.00">src/m_Do/m_Do_graphic.cpp</text>
</a>
</g>
</g>
<!-- Node7&#45;&gt;Node37 -->
<g id="edge36" class="edge">
<title>Node7&#45;&gt;Node37</title>
<path fill="none" stroke="midnightblue" d="M2438.7,-146.98C2695.33,-142.06 3472.42,-125.25 3723.5,-98 3736.41,-96.6 3750.37,-94.33 3762.96,-92"/>
<polygon fill="midnightblue" stroke="midnightblue" points="2438.63,-143.48 2428.69,-147.17 2438.76,-150.48 2438.63,-143.48"/>
</g>
<!-- Node38 -->
<g id="node38" class="node">
<title>Node38</title>
<g id="a_node38"><a xlink:href="m__Do__lib_8cpp.html" target="_top" xlink:title=" ">
<polygon fill="white" stroke="black" points="3892.5,-73 3892.5,-92 4012.5,-92 4012.5,-73 3892.5,-73"/>
<text text-anchor="middle" x="3952.5" y="-80" font-family="Helvetica,sans-Serif" font-size="10.00">src/m_Do/m_Do_lib.cpp</text>
</a>
</g>
</g>
<!-- Node7&#45;&gt;Node38 -->
<g id="edge37" class="edge">
<title>Node7&#45;&gt;Node38</title>
<path fill="none" stroke="midnightblue" d="M2439.26,-147.65C2716.14,-144.55 3600.41,-132.16 3883.5,-98 3894.68,-96.65 3906.74,-94.4 3917.59,-92.07"/>
<polygon fill="midnightblue" stroke="midnightblue" points="2438.84,-144.16 2428.88,-147.77 2438.92,-151.16 2438.84,-144.16"/>
</g>
<!-- Node39 -->
<g id="node39" class="node">
<title>Node39</title>
<g id="a_node39"><a xlink:href="m__Do__machine__exception_8cpp.html" target="_top" xlink:title=" ">
<polygon fill="white" stroke="black" points="4031,-67.5 4031,-97.5 4160,-97.5 4160,-67.5 4031,-67.5"/>
<text text-anchor="start" x="4039" y="-85.5" font-family="Helvetica,sans-Serif" font-size="10.00">src/m_Do/m_Do_machine</text>
<text text-anchor="middle" x="4095.5" y="-74.5" font-family="Helvetica,sans-Serif" font-size="10.00">_exception.cpp</text>
</a>
</g>
</g>
<!-- Node7&#45;&gt;Node39 -->
<g id="edge38" class="edge">
<title>Node7&#45;&gt;Node39</title>
<path fill="none" stroke="midnightblue" d="M2438.78,-147.77C2731.15,-144.95 3709.78,-133.03 4021.5,-98 4024.49,-97.66 4027.54,-97.27 4030.62,-96.83"/>
<polygon fill="midnightblue" stroke="midnightblue" points="2438.64,-144.28 2428.67,-147.87 2438.71,-151.28 2438.64,-144.28"/>
</g>
<!-- Node40 -->
<g id="node40" class="node">
<title>Node40</title>
<g id="a_node40"><a xlink:href="m__Do__main_8cpp.html" target="_top" xlink:title=" ">
<polygon fill="white" stroke="black" points="4178,-73 4178,-92 4309,-92 4309,-73 4178,-73"/>
<text text-anchor="middle" x="4243.5" y="-80" font-family="Helvetica,sans-Serif" font-size="10.00">src/m_Do/m_Do_main.cpp</text>
</a>
</g>
</g>
<!-- Node7&#45;&gt;Node40 -->
<g id="edge39" class="edge">
<title>Node7&#45;&gt;Node40</title>
<path fill="none" stroke="midnightblue" d="M2438.77,-148.01C2747.62,-145.93 3827.38,-136.02 4169.5,-98 4181.6,-96.66 4194.68,-94.37 4206.42,-92.01"/>
<polygon fill="midnightblue" stroke="midnightblue" points="2438.52,-144.52 2428.55,-148.08 2438.57,-151.52 2438.52,-144.52"/>
</g>
<!-- Node41 -->
<g id="node41" class="node">
<title>Node41</title>
<g id="a_node41"><a xlink:href="m__Do__MemCardRWmng_8cpp.html" target="_top" xlink:title=" ">
<polygon fill="white" stroke="black" points="4327,-73 4327,-92 4514,-92 4514,-73 4327,-73"/>
<text text-anchor="middle" x="4420.5" y="-80" font-family="Helvetica,sans-Serif" font-size="10.00">src/m_Do/m_Do_MemCardRWmng.cpp</text>
</a>
</g>
</g>
<!-- Node7&#45;&gt;Node41 -->
<g id="edge40" class="edge">
<title>Node7&#45;&gt;Node41</title>
<path fill="none" stroke="midnightblue" d="M2438.93,-147.64C2763.82,-144.09 3944.83,-129.26 4318.5,-98 4334.99,-96.62 4352.88,-94.35 4369,-92"/>
<polygon fill="midnightblue" stroke="midnightblue" points="2438.61,-144.14 2428.65,-147.75 2438.69,-151.14 2438.61,-144.14"/>
</g>
<!-- Node42 -->
<g id="node42" class="node">
<title>Node42</title>
<g id="a_node42"><a xlink:href="m__Do__ext_8cpp.html" target="_top" xlink:title=" ">
<polygon fill="white" stroke="black" points="4532,-73 4532,-92 4655,-92 4655,-73 4532,-73"/>
<text text-anchor="middle" x="4593.5" y="-80" font-family="Helvetica,sans-Serif" font-size="10.00">src/m_Do/m_Do_ext.cpp</text>
</a>
</g>
</g>
<!-- Node7&#45;&gt;Node42 -->
<g id="edge41" class="edge">
<title>Node7&#45;&gt;Node42</title>
<path fill="none" stroke="midnightblue" d="M2438.94,-148.57C2785,-148.57 4108.63,-145.4 4523.5,-98 4534.97,-96.69 4547.34,-94.42 4558.45,-92.06"/>
<polygon fill="midnightblue" stroke="midnightblue" points="2438.74,-145.07 2428.74,-148.57 2438.74,-152.07 2438.74,-145.07"/>
</g>
<!-- Node43 -->
<g id="node43" class="node">
<title>Node43</title>
<g id="a_node43"><a xlink:href="Z2EnvSeMgr_8cpp.html" target="_top" xlink:title=" ">
<polygon fill="white" stroke="black" points="4673,-73 4673,-92 4834,-92 4834,-73 4673,-73"/>
<text text-anchor="middle" x="4753.5" y="-80" font-family="Helvetica,sans-Serif" font-size="10.00">libs/Z2AudioLib/Z2EnvSeMgr.cpp</text>
</a>
</g>
</g>
<!-- Node7&#45;&gt;Node43 -->
<g id="edge42" class="edge">
<title>Node7&#45;&gt;Node43</title>
<path fill="none" stroke="midnightblue" d="M2438.61,-148.24C2797.88,-146.87 4219.34,-138.93 4664.5,-98 4679,-96.67 4694.71,-94.39 4708.84,-92.03"/>
<polygon fill="midnightblue" stroke="midnightblue" points="2438.53,-144.74 2428.54,-148.28 2438.56,-151.74 2438.53,-144.74"/>
</g>
<!-- Node44 -->
<g id="node44" class="node">
<title>Node44</title>
<g id="a_node44"><a xlink:href="Z2LinkMgr_8cpp.html" target="_top" xlink:title=" ">
<polygon fill="white" stroke="black" points="4852.5,-73 4852.5,-92 5004.5,-92 5004.5,-73 4852.5,-73"/>
<text text-anchor="middle" x="4928.5" y="-80" font-family="Helvetica,sans-Serif" font-size="10.00">libs/Z2AudioLib/Z2LinkMgr.cpp</text>
</a>
</g>
</g>
<!-- Node7&#45;&gt;Node44 -->
<g id="edge43" class="edge">
<title>Node7&#45;&gt;Node44</title>
<path fill="none" stroke="midnightblue" d="M2438.78,-148.47C2815.35,-148.1 4361.34,-143.76 4843.5,-98 4857.36,-96.68 4872.37,-94.41 4885.86,-92.05"/>
<polygon fill="midnightblue" stroke="midnightblue" points="2438.78,-144.97 2428.78,-148.48 2438.78,-151.97 2438.78,-144.97"/>
</g>
<!-- Node45 -->
<g id="node45" class="node">
<title>Node45</title>
<g id="a_node45"><a xlink:href="Z2SceneMgr_8cpp.html" target="_top" xlink:title=" ">
<polygon fill="white" stroke="black" points="5023,-73 5023,-92 5184,-92 5184,-73 5023,-73"/>
<text text-anchor="middle" x="5103.5" y="-80" font-family="Helvetica,sans-Serif" font-size="10.00">libs/Z2AudioLib/Z2SceneMgr.cpp</text>
</a>
</g>
</g>
<!-- Node7&#45;&gt;Node45 -->
<g id="edge44" class="edge">
<title>Node7&#45;&gt;Node45</title>
<path fill="none" stroke="midnightblue" d="M2438.91,-148.5C2831.28,-148.24 4495.76,-144.39 5013.5,-98 5028.16,-96.69 5044.05,-94.41 5058.33,-92.05"/>
<polygon fill="midnightblue" stroke="midnightblue" points="2438.78,-145 2428.78,-148.5 2438.78,-152 2438.78,-145"/>
</g>
<!-- Node46 -->
<g id="node46" class="node">
<title>Node46</title>
<g id="a_node46"><a xlink:href="Z2SoundMgr_8cpp.html" target="_top" xlink:title=" ">
<polygon fill="white" stroke="black" points="5202,-73 5202,-92 5363,-92 5363,-73 5202,-73"/>
<text text-anchor="middle" x="5282.5" y="-80" font-family="Helvetica,sans-Serif" font-size="10.00">libs/Z2AudioLib/Z2SoundMgr.cpp</text>
</a>
</g>
</g>
<!-- Node7&#45;&gt;Node46 -->
<g id="edge45" class="edge">
<title>Node7&#45;&gt;Node46</title>
<path fill="none" stroke="midnightblue" d="M2438.81,-148.63C2846.95,-149.04 4638.15,-147.92 5193.5,-98 5208,-96.7 5223.71,-94.43 5237.84,-92.06"/>
<polygon fill="midnightblue" stroke="midnightblue" points="2438.57,-145.13 2428.57,-148.62 2438.56,-152.13 2438.57,-145.13"/>
</g>
<!-- Node47 -->
<g id="node47" class="node">
<title>Node47</title>
<g id="a_node47"><a xlink:href="Z2StatusMgr_8cpp.html" target="_top" xlink:title=" ">
<polygon fill="white" stroke="black" points="5381,-67.5 5381,-97.5 5508,-97.5 5508,-67.5 5381,-67.5"/>
<text text-anchor="start" x="5389" y="-85.5" font-family="Helvetica,sans-Serif" font-size="10.00">libs/Z2AudioLib/Z2Status</text>
<text text-anchor="middle" x="5444.5" y="-74.5" font-family="Helvetica,sans-Serif" font-size="10.00">Mgr.cpp</text>
</a>
</g>
</g>
<!-- Node7&#45;&gt;Node47 -->
<g id="edge46" class="edge">
<title>Node7&#45;&gt;Node47</title>
<path fill="none" stroke="midnightblue" d="M2438.76,-148.01C2894.19,-145.22 5074.24,-130.26 5372.5,-98 5375.29,-97.7 5378.13,-97.34 5380.99,-96.94"/>
<polygon fill="midnightblue" stroke="midnightblue" points="2438.62,-144.51 2428.64,-148.07 2438.66,-151.51 2438.62,-144.51"/>
</g>
<!-- Node48 -->
<g id="node48" class="node">
<title>Node48</title>
<g id="a_node48"><a xlink:href="d__a__alink_8h.html" target="_top" xlink:title=" ">
<polygon fill="white" stroke="red" points="38,-67.5 38,-97.5 157,-97.5 157,-67.5 38,-67.5"/>
<text text-anchor="start" x="46" y="-85.5" font-family="Helvetica,sans-Serif" font-size="10.00">include/d/d_a/d_a_alink</text>
<text text-anchor="middle" x="97.5" y="-74.5" font-family="Helvetica,sans-Serif" font-size="10.00">/d_a_alink.h</text>
</a>
</g>
</g>
<!-- Node7&#45;&gt;Node48 -->
<g id="edge47" class="edge">
<title>Node7&#45;&gt;Node48</title>
<path fill="none" stroke="midnightblue" d="M2272.13,-148.63C1924.06,-148.85 585.67,-146.46 166.5,-98 163.46,-97.65 160.36,-97.23 157.23,-96.75"/>
<polygon fill="midnightblue" stroke="midnightblue" points="2272.38,-152.13 2282.38,-148.62 2272.38,-145.13 2272.38,-152.13"/>
</g>
<!-- Node50 -->
<g id="node49" class="node">
<title>Node50</title>
<g id="a_node49"><a xlink:href="d__item_8h.html" target="_top" xlink:title=" ">
<polygon fill="white" stroke="black" points="333.5,-67.5 333.5,-97.5 429.5,-97.5 429.5,-67.5 333.5,-67.5"/>
<text text-anchor="start" x="341.5" y="-85.5" font-family="Helvetica,sans-Serif" font-size="10.00">include/d/d_item/d</text>
<text text-anchor="middle" x="381.5" y="-74.5" font-family="Helvetica,sans-Serif" font-size="10.00">_item/d_item.h</text>
</a>
</g>
</g>
<!-- Node7&#45;&gt;Node50 -->
<g id="edge49" class="edge">
<title>Node7&#45;&gt;Node50</title>
<path fill="none" stroke="midnightblue" d="M2272.26,-148.55C1952.78,-148.4 805.04,-144.56 443.5,-98 439,-97.42 434.36,-96.66 429.73,-95.78"/>
<polygon fill="midnightblue" stroke="midnightblue" points="2272.37,-152.05 2282.37,-148.56 2272.37,-145.05 2272.37,-152.05"/>
</g>
<!-- Node48&#45;&gt;Node8 -->
<g id="edge48" class="edge">
<title>Node48&#45;&gt;Node8</title>
<path fill="none" stroke="midnightblue" d="M82.25,-58.97C74.37,-47.33 65.21,-33.8 59.39,-25.19"/>
<polygon fill="midnightblue" stroke="midnightblue" points="79.45,-61.08 87.95,-67.4 85.25,-57.15 79.45,-61.08"/>
</g>
<!-- Node50&#45;&gt;Node10 -->
<g id="edge50" class="edge">
<title>Node50&#45;&gt;Node10</title>
<path fill="none" stroke="midnightblue" d="M349.42,-62.02C332.77,-51.9 312.81,-39.77 297.67,-30.58"/>
<polygon fill="midnightblue" stroke="midnightblue" points="347.92,-65.2 358.28,-67.4 351.55,-59.21 347.92,-65.2"/>
</g>
<!-- Node50&#45;&gt;Node12 -->
<g id="edge51" class="edge">
<title>Node50&#45;&gt;Node12</title>
<path fill="none" stroke="midnightblue" d="M392.57,-58.29C398.05,-46.8 404.33,-33.63 408.35,-25.19"/>
<polygon fill="midnightblue" stroke="midnightblue" points="389.37,-56.86 388.23,-67.4 395.69,-59.88 389.37,-56.86"/>
</g>
<!-- Node50&#45;&gt;Node30 -->
<g id="edge52" class="edge">
<title>Node50&#45;&gt;Node30</title>
<path fill="none" stroke="midnightblue" d="M426.18,-63.68C452.33,-53.26 484.87,-40.28 509.2,-30.58"/>
<polygon fill="midnightblue" stroke="midnightblue" points="424.86,-60.44 416.87,-67.4 427.45,-66.94 424.86,-60.44"/>
</g>
<!-- Node57&#45;&gt;Node6 -->
<g id="edge54" class="edge">
<title>Node57&#45;&gt;Node6</title>
<path fill="none" stroke="midnightblue" d="M2401.33,-261.31C2391.13,-251.56 2379.31,-240.26 2370.23,-231.58"/>
<polygon fill="midnightblue" stroke="midnightblue" points="2399.1,-264.02 2408.75,-268.4 2403.93,-258.96 2399.1,-264.02"/>
</g>
</g>
</svg>
