<?xml version="1.0" encoding="UTF-8" standalone="no"?>
<!DOCTYPE svg PUBLIC "-//W3C//DTD SVG 1.1//EN"
 "http://www.w3.org/Graphics/SVG/1.1/DTD/svg11.dtd">
<!-- Generated by graphviz version 2.46.1 (20210215.1649)
 -->
<!-- Title: include/SComponent/c_node_iter.h Pages: 1 -->
<svg width="2515pt" height="240pt"
 viewBox="0.00 0.00 2515.00 240.00" xmlns="http://www.w3.org/2000/svg" xmlns:xlink="http://www.w3.org/1999/xlink">
<g id="graph0" class="graph" transform="scale(1 1) rotate(0) translate(4 236)">
<title>include/SComponent/c_node_iter.h</title>
<polygon fill="white" stroke="transparent" points="-4,4 -4,-236 2511,-236 2511,4 -4,4"/>
<!-- Node1 -->
<g id="node1" class="node">
<title>Node1</title>
<g id="a_node1"><a xlink:title=" ">
<polygon fill="#bfbfbf" stroke="black" points="796.5,-201.5 796.5,-231.5 903.5,-231.5 903.5,-201.5 796.5,-201.5"/>
<text text-anchor="start" x="804.5" y="-219.5" font-family="Helvetica,sans-Serif" font-size="10.00">include/SComponent</text>
<text text-anchor="middle" x="850" y="-208.5" font-family="Helvetica,sans-Serif" font-size="10.00">/c_node_iter.h</text>
</a>
</g>
</g>
<!-- Node2 -->
<g id="node2" class="node">
<title>Node2</title>
<g id="a_node2"><a xlink:href="c__node__iter_8cpp.html" target="_top" xlink:title=" ">
<polygon fill="white" stroke="black" points="190,-134.5 190,-164.5 324,-164.5 324,-134.5 190,-134.5"/>
<text text-anchor="start" x="198" y="-152.5" font-family="Helvetica,sans-Serif" font-size="10.00">libs/SSystem/SComponent</text>
<text text-anchor="middle" x="257" y="-141.5" font-family="Helvetica,sans-Serif" font-size="10.00">/c_node_iter.cpp</text>
</a>
</g>
</g>
<!-- Node1&#45;&gt;Node2 -->
<g id="edge1" class="edge">
<title>Node1&#45;&gt;Node2</title>
<path fill="none" stroke="midnightblue" d="M786.19,-211.15C688.35,-204.05 495.51,-188.39 333,-165 330.08,-164.58 327.09,-164.12 324.08,-163.64"/>
<polygon fill="midnightblue" stroke="midnightblue" points="785.99,-214.64 796.22,-211.87 786.5,-207.66 785.99,-214.64"/>
</g>
<!-- Node3 -->
<g id="node3" class="node">
<title>Node3</title>
<g id="a_node3"><a xlink:href="f__pc__draw_8h.html" target="_top" xlink:title=" ">
<polygon fill="white" stroke="black" points="342.5,-134.5 342.5,-164.5 439.5,-164.5 439.5,-134.5 342.5,-134.5"/>
<text text-anchor="start" x="350.5" y="-152.5" font-family="Helvetica,sans-Serif" font-size="10.00">include/f/f_pc/f_pc</text>
<text text-anchor="middle" x="391" y="-141.5" font-family="Helvetica,sans-Serif" font-size="10.00">_draw.h</text>
</a>
</g>
</g>
<!-- Node1&#45;&gt;Node3 -->
<g id="edge2" class="edge">
<title>Node1&#45;&gt;Node3</title>
<path fill="none" stroke="midnightblue" d="M785.99,-209.93C706.35,-202.44 566.4,-187.41 448,-165 445.29,-164.49 442.52,-163.92 439.73,-163.32"/>
<polygon fill="midnightblue" stroke="midnightblue" points="786.07,-213.45 796.35,-210.9 786.72,-206.48 786.07,-213.45"/>
</g>
<!-- Node5 -->
<g id="node5" class="node">
<title>Node5</title>
<g id="a_node5"><a xlink:href="f__pc__executor_8h.html" target="_top" xlink:title=" ">
<polygon fill="white" stroke="black" points="673.5,-134.5 673.5,-164.5 770.5,-164.5 770.5,-134.5 673.5,-134.5"/>
<text text-anchor="start" x="681.5" y="-152.5" font-family="Helvetica,sans-Serif" font-size="10.00">include/f/f_pc/f_pc</text>
<text text-anchor="middle" x="722" y="-141.5" font-family="Helvetica,sans-Serif" font-size="10.00">_executor.h</text>
</a>
</g>
</g>
<!-- Node1&#45;&gt;Node5 -->
<g id="edge4" class="edge">
<title>Node1&#45;&gt;Node5</title>
<path fill="none" stroke="midnightblue" d="M813.28,-196.85C793.04,-186.58 768.33,-174.03 749.72,-164.58"/>
<polygon fill="midnightblue" stroke="midnightblue" points="811.72,-199.99 822.23,-201.4 814.89,-193.75 811.72,-199.99"/>
</g>
<!-- Node19 -->
<g id="node19" class="node">
<title>Node19</title>
<g id="a_node19"><a xlink:href="f__pc__layer__iter_8h.html" target="_top" xlink:title=" ">
<polygon fill="white" stroke="black" points="1049.5,-134.5 1049.5,-164.5 1146.5,-164.5 1146.5,-134.5 1049.5,-134.5"/>
<text text-anchor="start" x="1057.5" y="-152.5" font-family="Helvetica,sans-Serif" font-size="10.00">include/f/f_pc/f_pc</text>
<text text-anchor="middle" x="1098" y="-141.5" font-family="Helvetica,sans-Serif" font-size="10.00">_layer_iter.h</text>
</a>
</g>
</g>
<!-- Node1&#45;&gt;Node19 -->
<g id="edge18" class="edge">
<title>Node1&#45;&gt;Node19</title>
<path fill="none" stroke="midnightblue" d="M913.41,-198.88C955.67,-187.81 1010.36,-173.47 1049.22,-163.29"/>
<polygon fill="midnightblue" stroke="midnightblue" points="912.29,-195.55 903.51,-201.48 914.07,-202.33 912.29,-195.55"/>
</g>
<!-- Node23 -->
<g id="node23" class="node">
<title>Node23</title>
<g id="a_node23"><a xlink:href="f__pc__line__iter_8h.html" target="_top" xlink:title=" ">
<polygon fill="white" stroke="black" points="801.5,-134.5 801.5,-164.5 898.5,-164.5 898.5,-134.5 801.5,-134.5"/>
<text text-anchor="start" x="809.5" y="-152.5" font-family="Helvetica,sans-Serif" font-size="10.00">include/f/f_pc/f_pc</text>
<text text-anchor="middle" x="850" y="-141.5" font-family="Helvetica,sans-Serif" font-size="10.00">_line_iter.h</text>
</a>
</g>
</g>
<!-- Node1&#45;&gt;Node23 -->
<g id="edge25" class="edge">
<title>Node1&#45;&gt;Node23</title>
<path fill="none" stroke="midnightblue" d="M850,-191.11C850,-182.15 850,-172.32 850,-164.58"/>
<polygon fill="midnightblue" stroke="midnightblue" points="846.5,-191.4 850,-201.4 853.5,-191.4 846.5,-191.4"/>
</g>
<!-- Node24 -->
<g id="node24" class="node">
<title>Node24</title>
<g id="a_node24"><a xlink:href="f__pc__manager_8h.html" target="_top" xlink:title=" ">
<polygon fill="white" stroke="black" points="457.5,-134.5 457.5,-164.5 554.5,-164.5 554.5,-134.5 457.5,-134.5"/>
<text text-anchor="start" x="465.5" y="-152.5" font-family="Helvetica,sans-Serif" font-size="10.00">include/f/f_pc/f_pc</text>
<text text-anchor="middle" x="506" y="-141.5" font-family="Helvetica,sans-Serif" font-size="10.00">_manager.h</text>
</a>
</g>
</g>
<!-- Node1&#45;&gt;Node24 -->
<g id="edge28" class="edge">
<title>Node1&#45;&gt;Node24</title>
<path fill="none" stroke="midnightblue" d="M786.23,-203.45C719.24,-190.79 615.33,-171.16 554.65,-159.69"/>
<polygon fill="midnightblue" stroke="midnightblue" points="785.77,-206.93 796.25,-205.34 787.07,-200.05 785.77,-206.93"/>
</g>
<!-- Node26 -->
<g id="node26" class="node">
<title>Node26</title>
<g id="a_node26"><a xlink:href="c__list__iter_8h.html" target="_top" xlink:title=" ">
<polygon fill="white" stroke="black" points="1600.5,-134.5 1600.5,-164.5 1707.5,-164.5 1707.5,-134.5 1600.5,-134.5"/>
<text text-anchor="start" x="1608.5" y="-152.5" font-family="Helvetica,sans-Serif" font-size="10.00">include/SComponent</text>
<text text-anchor="middle" x="1654" y="-141.5" font-family="Helvetica,sans-Serif" font-size="10.00">/c_list_iter.h</text>
</a>
</g>
</g>
<!-- Node1&#45;&gt;Node26 -->
<g id="edge33" class="edge">
<title>Node1&#45;&gt;Node26</title>
<path fill="none" stroke="midnightblue" d="M913.93,-210.33C1067.99,-197.88 1457.6,-166.38 1600.44,-154.83"/>
<polygon fill="midnightblue" stroke="midnightblue" points="913.37,-206.87 903.69,-211.16 913.94,-213.84 913.37,-206.87"/>
</g>
<!-- Node35 -->
<g id="node35" class="node">
<title>Node35</title>
<g id="a_node35"><a xlink:href="c__tag__iter_8h.html" target="_top" xlink:title=" ">
<polygon fill="white" stroke="black" points="2074.5,-134.5 2074.5,-164.5 2181.5,-164.5 2181.5,-134.5 2074.5,-134.5"/>
<text text-anchor="start" x="2082.5" y="-152.5" font-family="Helvetica,sans-Serif" font-size="10.00">include/SComponent</text>
<text text-anchor="middle" x="2128" y="-141.5" font-family="Helvetica,sans-Serif" font-size="10.00">/c_tag_iter.h</text>
</a>
</g>
</g>
<!-- Node1&#45;&gt;Node35 -->
<g id="edge44" class="edge">
<title>Node1&#45;&gt;Node35</title>
<path fill="none" stroke="midnightblue" d="M913.66,-213.21C1081.35,-207.03 1549.09,-188.86 1938,-165 1984.06,-162.17 2036.34,-158.12 2074.39,-155.02"/>
<polygon fill="midnightblue" stroke="midnightblue" points="913.39,-209.72 903.52,-213.58 913.64,-216.71 913.39,-209.72"/>
</g>
<!-- Node38 -->
<g id="node38" class="node">
<title>Node38</title>
<g id="a_node38"><a xlink:href="c__tree__iter_8h.html" target="_top" xlink:title=" ">
<polygon fill="white" stroke="black" points="1821.5,-134.5 1821.5,-164.5 1928.5,-164.5 1928.5,-134.5 1821.5,-134.5"/>
<text text-anchor="start" x="1829.5" y="-152.5" font-family="Helvetica,sans-Serif" font-size="10.00">include/SComponent</text>
<text text-anchor="middle" x="1875" y="-141.5" font-family="Helvetica,sans-Serif" font-size="10.00">/c_tree_iter.h</text>
</a>
</g>
</g>
<!-- Node1&#45;&gt;Node38 -->
<g id="edge50" class="edge">
<title>Node1&#45;&gt;Node38</title>
<path fill="none" stroke="midnightblue" d="M914.2,-212.49C1058.04,-205.6 1417.03,-187.49 1717,-165 1751.75,-162.39 1790.73,-158.82 1821.29,-155.88"/>
<polygon fill="midnightblue" stroke="midnightblue" points="913.64,-209.02 903.82,-212.99 913.97,-216.01 913.64,-209.02"/>
</g>
<!-- Node4 -->
<g id="node4" class="node">
<title>Node4</title>
<g id="a_node4"><a xlink:href="f__pc__draw_8cpp.html" target="_top" xlink:title=" ">
<polygon fill="white" stroke="black" points="0,-73 0,-92 124,-92 124,-73 0,-73"/>
<text text-anchor="middle" x="62" y="-80" font-family="Helvetica,sans-Serif" font-size="10.00">src/f/f_pc/f_pc_draw.cpp</text>
</a>
</g>
</g>
<!-- Node3&#45;&gt;Node4 -->
<g id="edge3" class="edge">
<title>Node3&#45;&gt;Node4</title>
<path fill="none" stroke="midnightblue" d="M332.3,-133.94C243,-115.02 218.58,-114.44 133,-98 123.24,-96.13 112.74,-94.03 102.89,-92.02"/>
<polygon fill="midnightblue" stroke="midnightblue" points="331.81,-137.41 342.32,-136.08 333.27,-130.57 331.81,-137.41"/>
</g>
<!-- Node6 -->
<g id="node6" class="node">
<title>Node6</title>
<g id="a_node6"><a xlink:href="f__op__overlap__mng_8cpp.html" target="_top" xlink:title=" ">
<polygon fill="white" stroke="black" points="458,-67.5 458,-97.5 574,-97.5 574,-67.5 458,-67.5"/>
<text text-anchor="start" x="466" y="-85.5" font-family="Helvetica,sans-Serif" font-size="10.00">src/f/f_op/f_op_overlap</text>
<text text-anchor="middle" x="516" y="-74.5" font-family="Helvetica,sans-Serif" font-size="10.00">_mng.cpp</text>
</a>
</g>
</g>
<!-- Node5&#45;&gt;Node6 -->
<g id="edge5" class="edge">
<title>Node5&#45;&gt;Node6</title>
<path fill="none" stroke="midnightblue" d="M667.95,-131.44C634.55,-120.91 592.22,-107.55 560.72,-97.61"/>
<polygon fill="midnightblue" stroke="midnightblue" points="666.96,-134.8 677.55,-134.48 669.07,-128.13 666.96,-134.8"/>
</g>
<!-- Node7 -->
<g id="node7" class="node">
<title>Node7</title>
<g id="a_node7"><a xlink:href="f__pc__create__req_8cpp.html" target="_top" xlink:title=" ">
<polygon fill="white" stroke="black" points="1056,-0.5 1056,-30.5 1168,-30.5 1168,-0.5 1056,-0.5"/>
<text text-anchor="start" x="1064" y="-18.5" font-family="Helvetica,sans-Serif" font-size="10.00">src/f/f_pc/f_pc_create</text>
<text text-anchor="middle" x="1112" y="-7.5" font-family="Helvetica,sans-Serif" font-size="10.00">_req.cpp</text>
</a>
</g>
</g>
<!-- Node5&#45;&gt;Node7 -->
<g id="edge6" class="edge">
<title>Node5&#45;&gt;Node7</title>
<path fill="none" stroke="midnightblue" d="M663.4,-141.66C587.32,-132.17 462.61,-114.36 449,-98 440.19,-87.41 439.63,-77.11 449,-67 469.52,-44.85 899.46,-25.17 1055.8,-18.72"/>
<polygon fill="midnightblue" stroke="midnightblue" points="662.98,-145.13 673.34,-142.88 663.84,-138.18 662.98,-145.13"/>
</g>
<!-- Node8 -->
<g id="node8" class="node">
<title>Node8</title>
<g id="a_node8"><a xlink:href="f__pc__deletor_8cpp.html" target="_top" xlink:title=" ">
<polygon fill="white" stroke="black" points="1032,-73 1032,-92 1164,-92 1164,-73 1032,-73"/>
<text text-anchor="middle" x="1098" y="-80" font-family="Helvetica,sans-Serif" font-size="10.00">src/f/f_pc/f_pc_deletor.cpp</text>
</a>
</g>
</g>
<!-- Node5&#45;&gt;Node8 -->
<g id="edge7" class="edge">
<title>Node5&#45;&gt;Node8</title>
<path fill="none" stroke="midnightblue" d="M780.33,-136.19C784.28,-135.43 788.19,-134.69 792,-134 894.24,-115.46 920.64,-115.86 1023,-98 1033.45,-96.18 1044.7,-94.08 1055.22,-92.05"/>
<polygon fill="midnightblue" stroke="midnightblue" points="779.65,-132.76 770.52,-138.13 781,-139.62 779.65,-132.76"/>
</g>
<!-- Node9 -->
<g id="node9" class="node">
<title>Node9</title>
<g id="a_node9"><a xlink:href="f__pc__executor_8cpp.html" target="_top" xlink:title=" ">
<polygon fill="white" stroke="black" points="874,-73 874,-92 1014,-92 1014,-73 874,-73"/>
<text text-anchor="middle" x="944" y="-80" font-family="Helvetica,sans-Serif" font-size="10.00">src/f/f_pc/f_pc_executor.cpp</text>
</a>
</g>
</g>
<!-- Node5&#45;&gt;Node9 -->
<g id="edge8" class="edge">
<title>Node5&#45;&gt;Node9</title>
<path fill="none" stroke="midnightblue" d="M779.75,-131.59C823.11,-118.9 880.67,-102.04 914.87,-92.03"/>
<polygon fill="midnightblue" stroke="midnightblue" points="778.51,-128.31 769.9,-134.48 780.48,-135.02 778.51,-128.31"/>
</g>
<!-- Node10 -->
<g id="node10" class="node">
<title>Node10</title>
<g id="a_node10"><a xlink:href="f__pc__manager_8cpp.html" target="_top" xlink:title=" ">
<polygon fill="white" stroke="black" points="716,-73 716,-92 856,-92 856,-73 716,-73"/>
<text text-anchor="middle" x="786" y="-80" font-family="Helvetica,sans-Serif" font-size="10.00">src/f/f_pc/f_pc_manager.cpp</text>
</a>
</g>
</g>
<!-- Node5&#45;&gt;Node10 -->
<g id="edge9" class="edge">
<title>Node5&#45;&gt;Node10</title>
<path fill="none" stroke="midnightblue" d="M743.17,-127C754.85,-115.13 768.72,-101.05 777.44,-92.19"/>
<polygon fill="midnightblue" stroke="midnightblue" points="740.41,-124.81 735.89,-134.4 745.4,-129.73 740.41,-124.81"/>
</g>
<!-- Node11 -->
<g id="node11" class="node">
<title>Node11</title>
<g id="a_node11"><a xlink:href="f__pc__node__req_8cpp.html" target="_top" xlink:title=" ">
<polygon fill="white" stroke="black" points="592,-67.5 592,-97.5 698,-97.5 698,-67.5 592,-67.5"/>
<text text-anchor="start" x="600" y="-85.5" font-family="Helvetica,sans-Serif" font-size="10.00">src/f/f_pc/f_pc_node</text>
<text text-anchor="middle" x="645" y="-74.5" font-family="Helvetica,sans-Serif" font-size="10.00">_req.cpp</text>
</a>
</g>
</g>
<!-- Node5&#45;&gt;Node11 -->
<g id="edge10" class="edge">
<title>Node5&#45;&gt;Node11</title>
<path fill="none" stroke="midnightblue" d="M697.58,-127.88C685.88,-118.01 672.16,-106.43 661.68,-97.58"/>
<polygon fill="midnightblue" stroke="midnightblue" points="695.39,-130.62 705.29,-134.4 699.91,-125.27 695.39,-130.62"/>
</g>
<!-- Node12 -->
<g id="node12" class="node">
<title>Node12</title>
<g id="a_node12"><a xlink:href="f__op__actor__mng_8h.html" target="_top" xlink:title=" ">
<polygon fill="white" stroke="black" points="304.5,-67.5 304.5,-97.5 401.5,-97.5 401.5,-67.5 304.5,-67.5"/>
<text text-anchor="start" x="312.5" y="-85.5" font-family="Helvetica,sans-Serif" font-size="10.00">include/f/f_op/f_op</text>
<text text-anchor="middle" x="353" y="-74.5" font-family="Helvetica,sans-Serif" font-size="10.00">_actor_mng.h</text>
</a>
</g>
</g>
<!-- Node5&#45;&gt;Node12 -->
<g id="edge11" class="edge">
<title>Node5&#45;&gt;Node12</title>
<path fill="none" stroke="midnightblue" d="M663.39,-139.94C601.65,-130.67 501.69,-114.91 416,-98 411.38,-97.09 406.57,-96.08 401.77,-95.04"/>
<polygon fill="midnightblue" stroke="midnightblue" points="662.93,-143.41 673.34,-141.43 663.97,-136.49 662.93,-143.41"/>
</g>
<!-- Node13 -->
<g id="node13" class="node">
<title>Node13</title>
<g id="a_node13"><a xlink:href="d__attention_8cpp.html" target="_top" xlink:title=" ">
<polygon fill="white" stroke="black" points="299.5,-6 299.5,-25 406.5,-25 406.5,-6 299.5,-6"/>
<text text-anchor="middle" x="353" y="-13" font-family="Helvetica,sans-Serif" font-size="10.00">src/d/d_attention.cpp</text>
</a>
</g>
</g>
<!-- Node12&#45;&gt;Node13 -->
<g id="edge12" class="edge">
<title>Node12&#45;&gt;Node13</title>
<path fill="none" stroke="midnightblue" d="M353,-57.25C353,-46.02 353,-33.38 353,-25.19"/>
<polygon fill="midnightblue" stroke="midnightblue" points="349.5,-57.4 353,-67.4 356.5,-57.4 349.5,-57.4"/>
</g>
<!-- Node14 -->
<g id="node14" class="node">
<title>Node14</title>
<g id="a_node14"><a xlink:href="d__camera_8cpp.html" target="_top" xlink:title=" ">
<polygon fill="white" stroke="black" points="424,-6 424,-25 526,-25 526,-6 424,-6"/>
<text text-anchor="middle" x="475" y="-13" font-family="Helvetica,sans-Serif" font-size="10.00">src/d/d_camera.cpp</text>
</a>
</g>
</g>
<!-- Node12&#45;&gt;Node14 -->
<g id="edge13" class="edge">
<title>Node12&#45;&gt;Node14</title>
<path fill="none" stroke="midnightblue" d="M388.4,-62.64C411.74,-50.2 441.19,-34.51 459.03,-25.01"/>
<polygon fill="midnightblue" stroke="midnightblue" points="386.65,-59.6 379.47,-67.4 389.94,-65.78 386.65,-59.6"/>
</g>
<!-- Node15 -->
<g id="node15" class="node">
<title>Node15</title>
<g id="a_node15"><a xlink:href="d__stage_8cpp.html" target="_top" xlink:title=" ">
<polygon fill="white" stroke="black" points="544,-6 544,-25 638,-25 638,-6 544,-6"/>
<text text-anchor="middle" x="591" y="-13" font-family="Helvetica,sans-Serif" font-size="10.00">src/d/d_stage.cpp</text>
</a>
</g>
</g>
<!-- Node12&#45;&gt;Node15 -->
<g id="edge14" class="edge">
<title>Node12&#45;&gt;Node15</title>
<path fill="none" stroke="midnightblue" d="M411.46,-65.54C458.28,-52.75 522.16,-35.3 559.75,-25.03"/>
<polygon fill="midnightblue" stroke="midnightblue" points="410.46,-62.18 401.74,-68.19 412.31,-68.93 410.46,-62.18"/>
</g>
<!-- Node16 -->
<g id="node16" class="node">
<title>Node16</title>
<g id="a_node16"><a xlink:href="d__a__alink_8cpp.html" target="_top" xlink:title=" ">
<polygon fill="white" stroke="black" points="13.5,-6 13.5,-25 132.5,-25 132.5,-6 13.5,-6"/>
<text text-anchor="middle" x="73" y="-13" font-family="Helvetica,sans-Serif" font-size="10.00">src/d/d_a/d_a_alink.cpp</text>
</a>
</g>
</g>
<!-- Node12&#45;&gt;Node16 -->
<g id="edge15" class="edge">
<title>Node12&#45;&gt;Node16</title>
<path fill="none" stroke="midnightblue" d="M294.14,-67.84C238.43,-54.9 156.54,-35.89 109.62,-25"/>
<polygon fill="midnightblue" stroke="midnightblue" points="293.7,-71.33 304.23,-70.18 295.28,-64.51 293.7,-71.33"/>
</g>
<!-- Node17 -->
<g id="node17" class="node">
<title>Node17</title>
<g id="a_node17"><a xlink:href="f__op__actor__mng_8cpp.html" target="_top" xlink:title=" ">
<polygon fill="white" stroke="black" points="656.5,-0.5 656.5,-30.5 763.5,-30.5 763.5,-0.5 656.5,-0.5"/>
<text text-anchor="start" x="664.5" y="-18.5" font-family="Helvetica,sans-Serif" font-size="10.00">src/f/f_op/f_op_actor</text>
<text text-anchor="middle" x="710" y="-7.5" font-family="Helvetica,sans-Serif" font-size="10.00">_mng.cpp</text>
</a>
</g>
</g>
<!-- Node12&#45;&gt;Node17 -->
<g id="edge16" class="edge">
<title>Node12&#45;&gt;Node17</title>
<path fill="none" stroke="midnightblue" d="M411.61,-67.86C413.09,-67.57 414.55,-67.28 416,-67 518.03,-47.33 544.97,-50.67 647,-31 650.09,-30.41 653.25,-29.77 656.44,-29.1"/>
<polygon fill="midnightblue" stroke="midnightblue" points="410.84,-64.45 401.77,-69.91 412.27,-71.3 410.84,-64.45"/>
</g>
<!-- Node18 -->
<g id="node18" class="node">
<title>Node18</title>
<g id="a_node18"><a xlink:href="m__Do__main_8cpp.html" target="_top" xlink:title=" ">
<polygon fill="white" stroke="black" points="150.5,-6 150.5,-25 281.5,-25 281.5,-6 150.5,-6"/>
<text text-anchor="middle" x="216" y="-13" font-family="Helvetica,sans-Serif" font-size="10.00">src/m_Do/m_Do_main.cpp</text>
</a>
</g>
</g>
<!-- Node12&#45;&gt;Node18 -->
<g id="edge17" class="edge">
<title>Node12&#45;&gt;Node18</title>
<path fill="none" stroke="midnightblue" d="M313.94,-62.97C287.62,-50.48 254.14,-34.6 233.93,-25.01"/>
<polygon fill="midnightblue" stroke="midnightblue" points="312.74,-66.27 323.27,-67.4 315.74,-59.95 312.74,-66.27"/>
</g>
<!-- Node19&#45;&gt;Node8 -->
<g id="edge19" class="edge">
<title>Node19&#45;&gt;Node8</title>
<path fill="none" stroke="midnightblue" d="M1098,-124.25C1098,-113.02 1098,-100.38 1098,-92.19"/>
<polygon fill="midnightblue" stroke="midnightblue" points="1094.5,-124.4 1098,-134.4 1101.5,-124.4 1094.5,-124.4"/>
</g>
<!-- Node19&#45;&gt;Node9 -->
<g id="edge20" class="edge">
<title>Node19&#45;&gt;Node9</title>
<path fill="none" stroke="midnightblue" d="M1055.26,-130.46C1025.5,-117.9 987.18,-101.72 964.16,-92.01"/>
<polygon fill="midnightblue" stroke="midnightblue" points="1054.01,-133.73 1064.58,-134.4 1056.73,-127.28 1054.01,-133.73"/>
</g>
<!-- Node19&#45;&gt;Node10 -->
<g id="edge22" class="edge">
<title>Node19&#45;&gt;Node10</title>
<path fill="none" stroke="midnightblue" d="M1039.23,-136.26C977.24,-123.34 881.2,-103.33 826.95,-92.03"/>
<polygon fill="midnightblue" stroke="midnightblue" points="1038.75,-139.73 1049.25,-138.34 1040.17,-132.88 1038.75,-139.73"/>
</g>
<!-- Node20 -->
<g id="node20" class="node">
<title>Node20</title>
<g id="a_node20"><a xlink:href="f__pc__layer__iter_8cpp.html" target="_top" xlink:title=" ">
<polygon fill="white" stroke="black" points="1891.5,-67.5 1891.5,-97.5 1996.5,-97.5 1996.5,-67.5 1891.5,-67.5"/>
<text text-anchor="start" x="1899.5" y="-85.5" font-family="Helvetica,sans-Serif" font-size="10.00">src/f/f_pc/f_pc_layer</text>
<text text-anchor="middle" x="1944" y="-74.5" font-family="Helvetica,sans-Serif" font-size="10.00">_iter.cpp</text>
</a>
</g>
</g>
<!-- Node19&#45;&gt;Node20 -->
<g id="edge21" class="edge">
<title>Node19&#45;&gt;Node20</title>
<path fill="none" stroke="midnightblue" d="M1157.15,-148.02C1288.34,-146.23 1613.36,-137.79 1882,-98 1885.06,-97.55 1888.2,-97.02 1891.35,-96.44"/>
<polygon fill="midnightblue" stroke="midnightblue" points="1156.88,-144.52 1146.92,-148.15 1156.97,-151.52 1156.88,-144.52"/>
</g>
<!-- Node21 -->
<g id="node21" class="node">
<title>Node21</title>
<g id="a_node21"><a xlink:href="f__pc__node_8cpp.html" target="_top" xlink:title=" ">
<polygon fill="white" stroke="black" points="1182,-73 1182,-92 1306,-92 1306,-73 1182,-73"/>
<text text-anchor="middle" x="1244" y="-80" font-family="Helvetica,sans-Serif" font-size="10.00">src/f/f_pc/f_pc_node.cpp</text>
</a>
</g>
</g>
<!-- Node19&#45;&gt;Node21 -->
<g id="edge23" class="edge">
<title>Node19&#45;&gt;Node21</title>
<path fill="none" stroke="midnightblue" d="M1138.89,-130.3C1167.05,-117.76 1203.16,-101.68 1224.89,-92.01"/>
<polygon fill="midnightblue" stroke="midnightblue" points="1137.39,-127.13 1129.68,-134.4 1140.24,-133.53 1137.39,-127.13"/>
</g>
<!-- Node22 -->
<g id="node22" class="node">
<title>Node22</title>
<g id="a_node22"><a xlink:href="f__pc__pause_8cpp.html" target="_top" xlink:title=" ">
<polygon fill="white" stroke="black" points="1324.5,-73 1324.5,-92 1453.5,-92 1453.5,-73 1324.5,-73"/>
<text text-anchor="middle" x="1389" y="-80" font-family="Helvetica,sans-Serif" font-size="10.00">src/f/f_pc/f_pc_pause.cpp</text>
</a>
</g>
</g>
<!-- Node19&#45;&gt;Node22 -->
<g id="edge24" class="edge">
<title>Node19&#45;&gt;Node22</title>
<path fill="none" stroke="midnightblue" d="M1156.81,-135.36C1214.69,-122.44 1301.38,-103.07 1350.83,-92.03"/>
<polygon fill="midnightblue" stroke="midnightblue" points="1155.7,-132.02 1146.71,-137.62 1157.23,-138.86 1155.7,-132.02"/>
</g>
<!-- Node23&#45;&gt;Node9 -->
<g id="edge26" class="edge">
<title>Node23&#45;&gt;Node9</title>
<path fill="none" stroke="midnightblue" d="M878.72,-128.64C896.46,-116.37 918.31,-101.26 931.7,-92.01"/>
<polygon fill="midnightblue" stroke="midnightblue" points="876.63,-125.83 870.4,-134.4 880.61,-131.59 876.63,-125.83"/>
</g>
<!-- Node23&#45;&gt;Node10 -->
<g id="edge27" class="edge">
<title>Node23&#45;&gt;Node10</title>
<path fill="none" stroke="midnightblue" d="M828.83,-127C817.15,-115.13 803.28,-101.05 794.56,-92.19"/>
<polygon fill="midnightblue" stroke="midnightblue" points="826.6,-129.73 836.11,-134.4 831.59,-124.81 826.6,-129.73"/>
</g>
<!-- Node24&#45;&gt;Node10 -->
<g id="edge31" class="edge">
<title>Node24&#45;&gt;Node10</title>
<path fill="none" stroke="midnightblue" d="M564.86,-134.84C620.57,-121.9 702.46,-102.89 749.38,-92"/>
<polygon fill="midnightblue" stroke="midnightblue" points="563.72,-131.51 554.77,-137.18 565.3,-138.33 563.72,-131.51"/>
</g>
<!-- Node24&#45;&gt;Node12 -->
<g id="edge32" class="edge">
<title>Node24&#45;&gt;Node12</title>
<path fill="none" stroke="midnightblue" d="M463.41,-130.41C438.98,-120.03 408.78,-107.2 386.13,-97.58"/>
<polygon fill="midnightblue" stroke="midnightblue" points="462.23,-133.71 472.8,-134.4 464.97,-127.26 462.23,-133.71"/>
</g>
<!-- Node24&#45;&gt;Node16 -->
<g id="edge30" class="edge">
<title>Node24&#45;&gt;Node16</title>
<path fill="none" stroke="midnightblue" d="M447.2,-133.92C378.03,-118.43 355.04,-127.1 295,-98 275.08,-88.34 275.74,-77.04 256,-67 230.66,-54.12 156.38,-35.67 110.62,-25"/>
<polygon fill="midnightblue" stroke="midnightblue" points="446.74,-137.4 457.28,-136.27 448.34,-130.59 446.74,-137.4"/>
</g>
<!-- Node25 -->
<g id="node25" class="node">
<title>Node25</title>
<g id="a_node25"><a xlink:href="f__ap__game_8cpp.html" target="_top" xlink:title=" ">
<polygon fill="white" stroke="black" points="142.5,-73 142.5,-92 247.5,-92 247.5,-73 142.5,-73"/>
<text text-anchor="middle" x="195" y="-80" font-family="Helvetica,sans-Serif" font-size="10.00">src/f/f_ap_game.cpp</text>
</a>
</g>
</g>
<!-- Node24&#45;&gt;Node25 -->
<g id="edge29" class="edge">
<title>Node24&#45;&gt;Node25</title>
<path fill="none" stroke="midnightblue" d="M447.41,-133.94C364.13,-115.7 341.43,-114.28 262,-98 252.79,-96.11 242.88,-94.01 233.59,-92"/>
<polygon fill="midnightblue" stroke="midnightblue" points="446.79,-137.39 457.31,-136.13 448.3,-130.55 446.79,-137.39"/>
</g>
<!-- Node26&#45;&gt;Node8 -->
<g id="edge35" class="edge">
<title>Node26&#45;&gt;Node8</title>
<path fill="none" stroke="midnightblue" d="M1590.41,-143.58C1498.14,-136.05 1321.89,-120.17 1173,-98 1161.85,-96.34 1149.84,-94.18 1138.76,-92.04"/>
<polygon fill="midnightblue" stroke="midnightblue" points="1590.18,-147.08 1600.43,-144.4 1590.74,-140.1 1590.18,-147.08"/>
</g>
<!-- Node27 -->
<g id="node27" class="node">
<title>Node27</title>
<g id="a_node27"><a xlink:href="f__op__actor__iter_8cpp.html" target="_top" xlink:title=" ">
<polygon fill="white" stroke="black" points="2014.5,-67.5 2014.5,-97.5 2121.5,-97.5 2121.5,-67.5 2014.5,-67.5"/>
<text text-anchor="start" x="2022.5" y="-85.5" font-family="Helvetica,sans-Serif" font-size="10.00">src/f/f_op/f_op_actor</text>
<text text-anchor="middle" x="2068" y="-74.5" font-family="Helvetica,sans-Serif" font-size="10.00">_iter.cpp</text>
</a>
</g>
</g>
<!-- Node26&#45;&gt;Node27 -->
<g id="edge34" class="edge">
<title>Node26&#45;&gt;Node27</title>
<path fill="none" stroke="midnightblue" d="M1717.7,-141.06C1788.42,-132.4 1905.82,-116.86 2006,-98 2008.72,-97.49 2011.49,-96.94 2014.29,-96.36"/>
<polygon fill="midnightblue" stroke="midnightblue" points="1717.12,-137.6 1707.61,-142.29 1717.96,-144.55 1717.12,-137.6"/>
</g>
<!-- Node28 -->
<g id="node28" class="node">
<title>Node28</title>
<g id="a_node28"><a xlink:href="c__list__iter_8cpp.html" target="_top" xlink:title=" ">
<polygon fill="white" stroke="black" points="1587,-67.5 1587,-97.5 1721,-97.5 1721,-67.5 1587,-67.5"/>
<text text-anchor="start" x="1595" y="-85.5" font-family="Helvetica,sans-Serif" font-size="10.00">libs/SSystem/SComponent</text>
<text text-anchor="middle" x="1654" y="-74.5" font-family="Helvetica,sans-Serif" font-size="10.00">/c_list_iter.cpp</text>
</a>
</g>
</g>
<!-- Node26&#45;&gt;Node28 -->
<g id="edge36" class="edge">
<title>Node26&#45;&gt;Node28</title>
<path fill="none" stroke="midnightblue" d="M1654,-124.11C1654,-115.15 1654,-105.32 1654,-97.58"/>
<polygon fill="midnightblue" stroke="midnightblue" points="1650.5,-124.4 1654,-134.4 1657.5,-124.4 1650.5,-124.4"/>
</g>
<!-- Node29 -->
<g id="node29" class="node">
<title>Node29</title>
<g id="a_node29"><a xlink:href="c__tree__iter_8cpp.html" target="_top" xlink:title=" ">
<polygon fill="white" stroke="black" points="1739,-67.5 1739,-97.5 1873,-97.5 1873,-67.5 1739,-67.5"/>
<text text-anchor="start" x="1747" y="-85.5" font-family="Helvetica,sans-Serif" font-size="10.00">libs/SSystem/SComponent</text>
<text text-anchor="middle" x="1806" y="-74.5" font-family="Helvetica,sans-Serif" font-size="10.00">/c_tree_iter.cpp</text>
</a>
</g>
</g>
<!-- Node26&#45;&gt;Node29 -->
<g id="edge37" class="edge">
<title>Node26&#45;&gt;Node29</title>
<path fill="none" stroke="midnightblue" d="M1696.31,-130.41C1720.58,-120.03 1750.59,-107.2 1773.08,-97.58"/>
<polygon fill="midnightblue" stroke="midnightblue" points="1694.8,-127.25 1686.98,-134.4 1697.55,-133.68 1694.8,-127.25"/>
</g>
<!-- Node30 -->
<g id="node30" class="node">
<title>Node30</title>
<g id="a_node30"><a xlink:href="f__pc__create__iter_8h.html" target="_top" xlink:title=" ">
<polygon fill="white" stroke="black" points="2139.5,-67.5 2139.5,-97.5 2236.5,-97.5 2236.5,-67.5 2139.5,-67.5"/>
<text text-anchor="start" x="2147.5" y="-85.5" font-family="Helvetica,sans-Serif" font-size="10.00">include/f/f_pc/f_pc</text>
<text text-anchor="middle" x="2188" y="-74.5" font-family="Helvetica,sans-Serif" font-size="10.00">_create_iter.h</text>
</a>
</g>
</g>
<!-- Node26&#45;&gt;Node30 -->
<g id="edge38" class="edge">
<title>Node26&#45;&gt;Node30</title>
<path fill="none" stroke="midnightblue" d="M1718.12,-142.23C1838.84,-130.35 2091.33,-105.11 2131,-98 2133.71,-97.51 2136.49,-96.97 2139.28,-96.38"/>
<polygon fill="midnightblue" stroke="midnightblue" points="1717.52,-138.77 1707.91,-143.23 1718.2,-145.74 1717.52,-138.77"/>
</g>
<!-- Node32 -->
<g id="node32" class="node">
<title>Node32</title>
<g id="a_node32"><a xlink:href="f__pc__method__iter_8h.html" target="_top" xlink:title=" ">
<polygon fill="white" stroke="black" points="1471.5,-67.5 1471.5,-97.5 1568.5,-97.5 1568.5,-67.5 1471.5,-67.5"/>
<text text-anchor="start" x="1479.5" y="-85.5" font-family="Helvetica,sans-Serif" font-size="10.00">include/f/f_pc/f_pc</text>
<text text-anchor="middle" x="1520" y="-74.5" font-family="Helvetica,sans-Serif" font-size="10.00">_method_iter.h</text>
</a>
</g>
</g>
<!-- Node26&#45;&gt;Node32 -->
<g id="edge41" class="edge">
<title>Node26&#45;&gt;Node32</title>
<path fill="none" stroke="midnightblue" d="M1615.85,-129.99C1594.61,-119.69 1568.59,-107.07 1549.02,-97.58"/>
<polygon fill="midnightblue" stroke="midnightblue" points="1614.4,-133.18 1624.92,-134.4 1617.45,-126.88 1614.4,-133.18"/>
</g>
<!-- Node30&#45;&gt;Node7 -->
<g id="edge40" class="edge">
<title>Node30&#45;&gt;Node7</title>
<path fill="none" stroke="midnightblue" d="M2129.01,-66.9C1800.04,-18.34 1711.99,-47.72 1383,-31 1308.65,-27.22 1222.85,-22.58 1168.05,-19.59"/>
<polygon fill="midnightblue" stroke="midnightblue" points="2128.91,-70.42 2139.31,-68.43 2129.94,-63.49 2128.91,-70.42"/>
</g>
<!-- Node31 -->
<g id="node31" class="node">
<title>Node31</title>
<g id="a_node31"><a xlink:href="f__pc__create__iter_8cpp.html" target="_top" xlink:title=" ">
<polygon fill="white" stroke="black" points="2132,-0.5 2132,-30.5 2244,-30.5 2244,-0.5 2132,-0.5"/>
<text text-anchor="start" x="2140" y="-18.5" font-family="Helvetica,sans-Serif" font-size="10.00">src/f/f_pc/f_pc_create</text>
<text text-anchor="middle" x="2188" y="-7.5" font-family="Helvetica,sans-Serif" font-size="10.00">_iter.cpp</text>
</a>
</g>
</g>
<!-- Node30&#45;&gt;Node31 -->
<g id="edge39" class="edge">
<title>Node30&#45;&gt;Node31</title>
<path fill="none" stroke="midnightblue" d="M2188,-57.11C2188,-48.15 2188,-38.32 2188,-30.58"/>
<polygon fill="midnightblue" stroke="midnightblue" points="2184.5,-57.4 2188,-67.4 2191.5,-57.4 2184.5,-57.4"/>
</g>
<!-- Node33 -->
<g id="node33" class="node">
<title>Node33</title>
<g id="a_node33"><a xlink:href="f__pc__layer_8cpp.html" target="_top" xlink:title=" ">
<polygon fill="white" stroke="black" points="1527.5,-6 1527.5,-25 1650.5,-25 1650.5,-6 1527.5,-6"/>
<text text-anchor="middle" x="1589" y="-13" font-family="Helvetica,sans-Serif" font-size="10.00">src/f/f_pc/f_pc_layer.cpp</text>
</a>
</g>
</g>
<!-- Node32&#45;&gt;Node33 -->
<g id="edge42" class="edge">
<title>Node32&#45;&gt;Node33</title>
<path fill="none" stroke="midnightblue" d="M1542.47,-60.34C1555.14,-48.4 1570.28,-34.14 1579.77,-25.19"/>
<polygon fill="midnightblue" stroke="midnightblue" points="1539.85,-57.99 1534.97,-67.4 1544.65,-63.09 1539.85,-57.99"/>
</g>
<!-- Node34 -->
<g id="node34" class="node">
<title>Node34</title>
<g id="a_node34"><a xlink:href="f__pc__method__iter_8cpp.html" target="_top" xlink:title=" ">
<polygon fill="white" stroke="black" points="1392.5,-0.5 1392.5,-30.5 1509.5,-30.5 1509.5,-0.5 1392.5,-0.5"/>
<text text-anchor="start" x="1400.5" y="-18.5" font-family="Helvetica,sans-Serif" font-size="10.00">src/f/f_pc/f_pc_method</text>
<text text-anchor="middle" x="1451" y="-7.5" font-family="Helvetica,sans-Serif" font-size="10.00">_iter.cpp</text>
</a>
</g>
</g>
<!-- Node32&#45;&gt;Node34 -->
<g id="edge43" class="edge">
<title>Node32&#45;&gt;Node34</title>
<path fill="none" stroke="midnightblue" d="M1497.51,-60.31C1487.16,-50.56 1475.16,-39.26 1465.94,-30.58"/>
<polygon fill="midnightblue" stroke="midnightblue" points="1495.35,-63.09 1505.03,-67.4 1500.15,-57.99 1495.35,-63.09"/>
</g>
<!-- Node35&#45;&gt;Node20 -->
<g id="edge46" class="edge">
<title>Node35&#45;&gt;Node20</title>
<path fill="none" stroke="midnightblue" d="M2078.33,-130.96C2048.7,-120.48 2011.56,-107.37 1983.85,-97.58"/>
<polygon fill="midnightblue" stroke="midnightblue" points="2077.48,-134.37 2088.07,-134.4 2079.81,-127.76 2077.48,-134.37"/>
</g>
<!-- Node35&#45;&gt;Node27 -->
<g id="edge45" class="edge">
<title>Node35&#45;&gt;Node27</title>
<path fill="none" stroke="midnightblue" d="M2108.18,-127.02C2099.24,-117.34 2088.93,-106.17 2080.99,-97.58"/>
<polygon fill="midnightblue" stroke="midnightblue" points="2105.63,-129.42 2114.98,-134.4 2110.77,-124.67 2105.63,-129.42"/>
</g>
<!-- Node35&#45;&gt;Node30 -->
<g id="edge49" class="edge">
<title>Node35&#45;&gt;Node30</title>
<path fill="none" stroke="midnightblue" d="M2147.82,-127.02C2156.76,-117.34 2167.07,-106.17 2175.01,-97.58"/>
<polygon fill="midnightblue" stroke="midnightblue" points="2145.23,-124.67 2141.02,-134.4 2150.37,-129.42 2145.23,-124.67"/>
</g>
<!-- Node36 -->
<g id="node36" class="node">
<title>Node36</title>
<g id="a_node36"><a xlink:href="f__pc__line__iter_8cpp.html" target="_top" xlink:title=" ">
<polygon fill="white" stroke="black" points="2255,-67.5 2255,-97.5 2355,-97.5 2355,-67.5 2255,-67.5"/>
<text text-anchor="start" x="2263" y="-85.5" font-family="Helvetica,sans-Serif" font-size="10.00">src/f/f_pc/f_pc_line</text>
<text text-anchor="middle" x="2305" y="-74.5" font-family="Helvetica,sans-Serif" font-size="10.00">_iter.cpp</text>
</a>
</g>
</g>
<!-- Node35&#45;&gt;Node36 -->
<g id="edge47" class="edge">
<title>Node35&#45;&gt;Node36</title>
<path fill="none" stroke="midnightblue" d="M2176.15,-130.82C2204.6,-120.37 2240.13,-107.32 2266.67,-97.58"/>
<polygon fill="midnightblue" stroke="midnightblue" points="2174.59,-127.66 2166.41,-134.4 2177,-134.23 2174.59,-127.66"/>
</g>
<!-- Node37 -->
<g id="node37" class="node">
<title>Node37</title>
<g id="a_node37"><a xlink:href="c__tag__iter_8cpp.html" target="_top" xlink:title=" ">
<polygon fill="white" stroke="black" points="2373,-67.5 2373,-97.5 2507,-97.5 2507,-67.5 2373,-67.5"/>
<text text-anchor="start" x="2381" y="-85.5" font-family="Helvetica,sans-Serif" font-size="10.00">libs/SSystem/SComponent</text>
<text text-anchor="middle" x="2440" y="-74.5" font-family="Helvetica,sans-Serif" font-size="10.00">/c_tag_iter.cpp</text>
</a>
</g>
</g>
<!-- Node35&#45;&gt;Node37 -->
<g id="edge48" class="edge">
<title>Node35&#45;&gt;Node37</title>
<path fill="none" stroke="midnightblue" d="M2191.55,-135.26C2244.34,-124.26 2319.22,-108.66 2372.95,-97.47"/>
<polygon fill="midnightblue" stroke="midnightblue" points="2190.71,-131.86 2181.63,-137.33 2192.14,-138.71 2190.71,-131.86"/>
</g>
<!-- Node38&#45;&gt;Node20 -->
<g id="edge51" class="edge">
<title>Node38&#45;&gt;Node20</title>
<path fill="none" stroke="midnightblue" d="M1897.49,-127.31C1907.84,-117.56 1919.84,-106.26 1929.06,-97.58"/>
<polygon fill="midnightblue" stroke="midnightblue" points="1894.85,-124.99 1889.97,-134.4 1899.65,-130.09 1894.85,-124.99"/>
</g>
<!-- Node38&#45;&gt;Node29 -->
<g id="edge53" class="edge">
<title>Node38&#45;&gt;Node29</title>
<path fill="none" stroke="midnightblue" d="M1852.51,-127.31C1842.16,-117.56 1830.16,-106.26 1820.94,-97.58"/>
<polygon fill="midnightblue" stroke="midnightblue" points="1850.35,-130.09 1860.03,-134.4 1855.15,-124.99 1850.35,-130.09"/>
</g>
<!-- Node38&#45;&gt;Node36 -->
<g id="edge52" class="edge">
<title>Node38&#45;&gt;Node36</title>
<path fill="none" stroke="midnightblue" d="M1938.86,-141.89C2013.05,-133.72 2138.97,-118.38 2246,-98 2248.9,-97.45 2251.87,-96.84 2254.87,-96.2"/>
<polygon fill="midnightblue" stroke="midnightblue" points="1938.3,-138.42 1928.74,-142.99 1939.06,-145.38 1938.3,-138.42"/>
</g>
</g>
</svg>
