<?xml version="1.0" encoding="UTF-8" standalone="no"?>
<!DOCTYPE svg PUBLIC "-//W3C//DTD SVG 1.1//EN"
 "http://www.w3.org/Graphics/SVG/1.1/DTD/svg11.dtd">
<!-- Generated by graphviz version 2.46.1 (20210215.1649)
 -->
<!-- Title: include/SComponent/c_node_iter.h Pages: 1 -->
<!--zoomable 240 -->
<svg id="main" version="1.1" xmlns="http://www.w3.org/2000/svg" xmlns:xlink="http://www.w3.org/1999/xlink" xml:space="preserve" onload="init(evt)">
<style type="text/css"><![CDATA[
.edge:hover path { stroke: red; }
.edge:hover polygon { stroke: red; fill: red; }
]]></style>
<script type="text/javascript"><![CDATA[
var edges = document.getElementsByTagName('g');
if (edges && edges.length) {
  for (var i=0;i<edges.length;i++) {
    if (edges[i].id.substr(0,4)=='edge') {
      edges[i].setAttribute('class','edge');
    }
  }
}
]]></script>
        <defs>
                <circle id="rim" cx="0" cy="0" r="7"/>
                <circle id="rim2" cx="0" cy="0" r="3.5"/>
                <g id="zoomPlus">
                        <use xlink:href="#rim" fill="#404040">
                                <set attributeName="fill" to="#808080" begin="zoomplus.mouseover" end="zoomplus.mouseout"/>
                        </use>
                        <path d="M-4,0h8M0,-4v8" fill="none" stroke="white" stroke-width="1.5" pointer-events="none"/>
                </g>
                <g id="zoomMin">
                        <use xlink:href="#rim" fill="#404040">
                                <set attributeName="fill" to="#808080" begin="zoomminus.mouseover" end="zoomminus.mouseout"/>
                        </use>
                        <path d="M-4,0h8" fill="none" stroke="white" stroke-width="1.5" pointer-events="none"/>
                </g>
                <g id="dirArrow">
                        <path fill="none" stroke="white" stroke-width="1.5" d="M0,-3.0v7 M-2.5,-0.5L0,-3.0L2.5,-0.5"/>
                </g>
               <g id="resetDef">
                       <use xlink:href="#rim2" fill="#404040">
                               <set attributeName="fill" to="#808080" begin="reset.mouseover" end="reset.mouseout"/>
                       </use>
               </g>
        </defs>

<script type="text/javascript">
var viewWidth = 2773;
var viewHeight = 240;
var sectionId = 'dynsection-1';
</script>
<script xlink:href="svgpan.js"/>
<svg id="graph" class="graph">
<g id="viewport">
<title>include/SComponent/c_node_iter.h</title>
<polygon fill="white" stroke="transparent" points="-4,4 -4,-236 2769,-236 2769,4 -4,4"/>
<!-- Node1 -->
<g id="node1" class="node">
<title>Node1</title>
<g id="a_node1"><a xlink:title=" ">
<polygon fill="#bfbfbf" stroke="black" points="938.5,-201.5 938.5,-231.5 1045.5,-231.5 1045.5,-201.5 938.5,-201.5"/>
<text text-anchor="start" x="946.5" y="-219.5" font-family="Helvetica,sans-Serif" font-size="10.00">include/SComponent</text>
<text text-anchor="middle" x="992" y="-208.5" font-family="Helvetica,sans-Serif" font-size="10.00">/c_node_iter.h</text>
</a>
</g>
</g>
<!-- Node2 -->
<g id="node2" class="node">
<title>Node2</title>
<g id="a_node2"><a xlink:href="c__node__iter_8cpp.html" target="_top" xlink:title=" ">
<polygon fill="white" stroke="black" points="165,-134.5 165,-164.5 299,-164.5 299,-134.5 165,-134.5"/>
<text text-anchor="start" x="173" y="-152.5" font-family="Helvetica,sans-Serif" font-size="10.00">libs/SSystem/SComponent</text>
<text text-anchor="middle" x="232" y="-141.5" font-family="Helvetica,sans-Serif" font-size="10.00">/c_node_iter.cpp</text>
</a>
</g>
</g>
<!-- Node1&#45;&gt;Node2 -->
<g id="edge1" class="edge">
<title>Node1&#45;&gt;Node2</title>
<path fill="none" stroke="midnightblue" d="M928.01,-213.17C806.79,-208.22 535.54,-194.61 309,-165 305.76,-164.58 302.46,-164.11 299.12,-163.6"/>
<polygon fill="midnightblue" stroke="midnightblue" points="928.09,-216.67 938.22,-213.58 928.37,-209.68 928.09,-216.67"/>
</g>
<!-- Node3 -->
<g id="node3" class="node">
<title>Node3</title>
<g id="a_node3"><a xlink:href="f__pc__draw_8h.html" target="_top" xlink:title=" ">
<polygon fill="white" stroke="black" points="317.5,-134.5 317.5,-164.5 414.5,-164.5 414.5,-134.5 317.5,-134.5"/>
<text text-anchor="start" x="325.5" y="-152.5" font-family="Helvetica,sans-Serif" font-size="10.00">include/f/f_pc/f_pc</text>
<text text-anchor="middle" x="366" y="-141.5" font-family="Helvetica,sans-Serif" font-size="10.00">_draw.h</text>
</a>
</g>
</g>
<!-- Node1&#45;&gt;Node3 -->
<g id="edge2" class="edge">
<title>Node1&#45;&gt;Node3</title>
<path fill="none" stroke="midnightblue" d="M928.23,-213.08C822.71,-208.35 605.4,-195.55 424,-165 420.93,-164.48 417.78,-163.89 414.62,-163.24"/>
<polygon fill="midnightblue" stroke="midnightblue" points="928.25,-216.59 938.4,-213.53 928.56,-209.59 928.25,-216.59"/>
</g>
<!-- Node5 -->
<g id="node5" class="node">
<title>Node5</title>
<g id="a_node5"><a xlink:href="f__pc__executor_8h.html" target="_top" xlink:title=" ">
<polygon fill="white" stroke="black" points="718.5,-134.5 718.5,-164.5 815.5,-164.5 815.5,-134.5 718.5,-134.5"/>
<text text-anchor="start" x="726.5" y="-152.5" font-family="Helvetica,sans-Serif" font-size="10.00">include/f/f_pc/f_pc</text>
<text text-anchor="middle" x="767" y="-141.5" font-family="Helvetica,sans-Serif" font-size="10.00">_executor.h</text>
</a>
</g>
</g>
<!-- Node1&#45;&gt;Node5 -->
<g id="edge4" class="edge">
<title>Node1&#45;&gt;Node5</title>
<path fill="none" stroke="midnightblue" d="M933.43,-198.58C896.89,-188.02 850.4,-174.59 815.85,-164.61"/>
<polygon fill="midnightblue" stroke="midnightblue" points="932.88,-202.06 943.46,-201.48 934.82,-195.34 932.88,-202.06"/>
</g>
<!-- Node20 -->
<g id="node20" class="node">
<title>Node20</title>
<g id="a_node20"><a xlink:href="f__pc__layer__iter_8h.html" target="_top" xlink:title=" ">
<polygon fill="white" stroke="black" points="1172.5,-134.5 1172.5,-164.5 1269.5,-164.5 1269.5,-134.5 1172.5,-134.5"/>
<text text-anchor="start" x="1180.5" y="-152.5" font-family="Helvetica,sans-Serif" font-size="10.00">include/f/f_pc/f_pc</text>
<text text-anchor="middle" x="1221" y="-141.5" font-family="Helvetica,sans-Serif" font-size="10.00">_layer_iter.h</text>
</a>
</g>
</g>
<!-- Node1&#45;&gt;Node20 -->
<g id="edge19" class="edge">
<title>Node1&#45;&gt;Node20</title>
<path fill="none" stroke="midnightblue" d="M1051.24,-198.69C1088.91,-187.99 1137.07,-174.32 1172.47,-164.28"/>
<polygon fill="midnightblue" stroke="midnightblue" points="1050.07,-195.38 1041.41,-201.48 1051.98,-202.11 1050.07,-195.38"/>
</g>
<!-- Node24 -->
<g id="node24" class="node">
<title>Node24</title>
<g id="a_node24"><a xlink:href="f__pc__line__iter_8h.html" target="_top" xlink:title=" ">
<polygon fill="white" stroke="black" points="943.5,-134.5 943.5,-164.5 1040.5,-164.5 1040.5,-134.5 943.5,-134.5"/>
<text text-anchor="start" x="951.5" y="-152.5" font-family="Helvetica,sans-Serif" font-size="10.00">include/f/f_pc/f_pc</text>
<text text-anchor="middle" x="992" y="-141.5" font-family="Helvetica,sans-Serif" font-size="10.00">_line_iter.h</text>
</a>
</g>
</g>
<!-- Node1&#45;&gt;Node24 -->
<g id="edge26" class="edge">
<title>Node1&#45;&gt;Node24</title>
<path fill="none" stroke="midnightblue" d="M992,-191.11C992,-182.15 992,-172.32 992,-164.58"/>
<polygon fill="midnightblue" stroke="midnightblue" points="988.5,-191.4 992,-201.4 995.5,-191.4 988.5,-191.4"/>
</g>
<!-- Node25 -->
<g id="node25" class="node">
<title>Node25</title>
<g id="a_node25"><a xlink:href="f__pc__manager_8h.html" target="_top" xlink:title=" ">
<polygon fill="white" stroke="black" points="432.5,-134.5 432.5,-164.5 529.5,-164.5 529.5,-134.5 432.5,-134.5"/>
<text text-anchor="start" x="440.5" y="-152.5" font-family="Helvetica,sans-Serif" font-size="10.00">include/f/f_pc/f_pc</text>
<text text-anchor="middle" x="481" y="-141.5" font-family="Helvetica,sans-Serif" font-size="10.00">_manager.h</text>
</a>
</g>
</g>
<!-- Node1&#45;&gt;Node25 -->
<g id="edge29" class="edge">
<title>Node1&#45;&gt;Node25</title>
<path fill="none" stroke="midnightblue" d="M928.29,-207.4C824.89,-194.24 622.79,-168.54 529.86,-156.72"/>
<polygon fill="midnightblue" stroke="midnightblue" points="927.92,-210.88 938.28,-208.67 928.8,-203.93 927.92,-210.88"/>
</g>
<!-- Node27 -->
<g id="node27" class="node">
<title>Node27</title>
<g id="a_node27"><a xlink:href="c__list__iter_8h.html" target="_top" xlink:title=" ">
<polygon fill="white" stroke="black" points="1728.5,-134.5 1728.5,-164.5 1835.5,-164.5 1835.5,-134.5 1728.5,-134.5"/>
<text text-anchor="start" x="1736.5" y="-152.5" font-family="Helvetica,sans-Serif" font-size="10.00">include/SComponent</text>
<text text-anchor="middle" x="1782" y="-141.5" font-family="Helvetica,sans-Serif" font-size="10.00">/c_list_iter.h</text>
</a>
</g>
</g>
<!-- Node1&#45;&gt;Node27 -->
<g id="edge35" class="edge">
<title>Node1&#45;&gt;Node27</title>
<path fill="none" stroke="midnightblue" d="M1055.76,-210.25C1207.38,-197.78 1587.28,-166.52 1728.25,-154.92"/>
<polygon fill="midnightblue" stroke="midnightblue" points="1055.36,-206.78 1045.68,-211.08 1055.93,-213.75 1055.36,-206.78"/>
</g>
<!-- Node36 -->
<g id="node36" class="node">
<title>Node36</title>
<g id="a_node36"><a xlink:href="c__tag__iter_8h.html" target="_top" xlink:title=" ">
<polygon fill="white" stroke="black" points="2257.5,-134.5 2257.5,-164.5 2364.5,-164.5 2364.5,-134.5 2257.5,-134.5"/>
<text text-anchor="start" x="2265.5" y="-152.5" font-family="Helvetica,sans-Serif" font-size="10.00">include/SComponent</text>
<text text-anchor="middle" x="2311" y="-141.5" font-family="Helvetica,sans-Serif" font-size="10.00">/c_tag_iter.h</text>
</a>
</g>
</g>
<!-- Node1&#45;&gt;Node36 -->
<g id="edge46" class="edge">
<title>Node1&#45;&gt;Node36</title>
<path fill="none" stroke="midnightblue" d="M1055.7,-212.77C1221.94,-205.6 1682.58,-185.36 2066,-165 2131.95,-161.5 2207.85,-156.92 2257.48,-153.85"/>
<polygon fill="midnightblue" stroke="midnightblue" points="1055.49,-209.28 1045.65,-213.21 1055.79,-216.27 1055.49,-209.28"/>
</g>
<!-- Node40 -->
<g id="node40" class="node">
<title>Node40</title>
<g id="a_node40"><a xlink:href="c__tree__iter_8h.html" target="_top" xlink:title=" ">
<polygon fill="white" stroke="black" points="1949.5,-134.5 1949.5,-164.5 2056.5,-164.5 2056.5,-134.5 1949.5,-134.5"/>
<text text-anchor="start" x="1957.5" y="-152.5" font-family="Helvetica,sans-Serif" font-size="10.00">include/SComponent</text>
<text text-anchor="middle" x="2003" y="-141.5" font-family="Helvetica,sans-Serif" font-size="10.00">/c_tree_iter.h</text>
</a>
</g>
</g>
<!-- Node1&#45;&gt;Node40 -->
<g id="edge53" class="edge">
<title>Node1&#45;&gt;Node40</title>
<path fill="none" stroke="midnightblue" d="M1056.21,-212.41C1198.4,-205.41 1550.59,-187.22 1845,-165 1879.75,-162.38 1918.73,-158.81 1949.29,-155.86"/>
<polygon fill="midnightblue" stroke="midnightblue" points="1055.75,-208.93 1045.93,-212.91 1056.09,-215.92 1055.75,-208.93"/>
</g>
<!-- Node4 -->
<g id="node4" class="node">
<title>Node4</title>
<g id="a_node4"><a xlink:href="f__pc__draw_8cpp.html" target="_top" xlink:title=" ">
<polygon fill="white" stroke="black" points="0,-73 0,-92 124,-92 124,-73 0,-73"/>
<text text-anchor="middle" x="62" y="-80" font-family="Helvetica,sans-Serif" font-size="10.00">src/f/f_pc/f_pc_draw.cpp</text>
</a>
</g>
</g>
<!-- Node3&#45;&gt;Node4 -->
<g id="edge3" class="edge">
<title>Node3&#45;&gt;Node4</title>
<path fill="none" stroke="midnightblue" d="M307.52,-133.94C231.19,-116.71 153.91,-101.28 106.56,-92.06"/>
<polygon fill="midnightblue" stroke="midnightblue" points="306.78,-137.37 317.3,-136.17 308.32,-130.54 306.78,-137.37"/>
</g>
<!-- Node6 -->
<g id="node6" class="node">
<title>Node6</title>
<g id="a_node6"><a xlink:href="f__op__overlap__mng_8cpp.html" target="_top" xlink:title=" ">
<polygon fill="white" stroke="black" points="709,-67.5 709,-97.5 825,-97.5 825,-67.5 709,-67.5"/>
<text text-anchor="start" x="717" y="-85.5" font-family="Helvetica,sans-Serif" font-size="10.00">src/f/f_op/f_op_overlap</text>
<text text-anchor="middle" x="767" y="-74.5" font-family="Helvetica,sans-Serif" font-size="10.00">_mng.cpp</text>
</a>
</g>
</g>
<!-- Node5&#45;&gt;Node6 -->
<g id="edge5" class="edge">
<title>Node5&#45;&gt;Node6</title>
<path fill="none" stroke="midnightblue" d="M767,-124.11C767,-115.15 767,-105.32 767,-97.58"/>
<polygon fill="midnightblue" stroke="midnightblue" points="763.5,-124.4 767,-134.4 770.5,-124.4 763.5,-124.4"/>
</g>
<!-- Node7 -->
<g id="node7" class="node">
<title>Node7</title>
<g id="a_node7"><a xlink:href="f__op__scene__pause_8cpp.html" target="_top" xlink:title=" ">
<polygon fill="white" stroke="black" points="303.5,-67.5 303.5,-97.5 414.5,-97.5 414.5,-67.5 303.5,-67.5"/>
<text text-anchor="start" x="311.5" y="-85.5" font-family="Helvetica,sans-Serif" font-size="10.00">src/f/f_op/f_op_scene</text>
<text text-anchor="middle" x="359" y="-74.5" font-family="Helvetica,sans-Serif" font-size="10.00">_pause.cpp</text>
</a>
</g>
</g>
<!-- Node5&#45;&gt;Node7 -->
<g id="edge6" class="edge">
<title>Node5&#45;&gt;Node7</title>
<path fill="none" stroke="midnightblue" d="M708.09,-141.16C639.58,-132.32 523.22,-116.35 424,-98 420.93,-97.43 417.79,-96.82 414.61,-96.19"/>
<polygon fill="midnightblue" stroke="midnightblue" points="707.89,-144.66 718.25,-142.47 708.78,-137.72 707.89,-144.66"/>
</g>
<!-- Node8 -->
<g id="node8" class="node">
<title>Node8</title>
<g id="a_node8"><a xlink:href="f__pc__create__req_8cpp.html" target="_top" xlink:title=" ">
<polygon fill="white" stroke="black" points="1867,-0.5 1867,-30.5 1979,-30.5 1979,-0.5 1867,-0.5"/>
<text text-anchor="start" x="1875" y="-18.5" font-family="Helvetica,sans-Serif" font-size="10.00">src/f/f_pc/f_pc_create</text>
<text text-anchor="middle" x="1923" y="-7.5" font-family="Helvetica,sans-Serif" font-size="10.00">_req.cpp</text>
</a>
</g>
</g>
<!-- Node5&#45;&gt;Node8 -->
<g id="edge7" class="edge">
<title>Node5&#45;&gt;Node8</title>
<path fill="none" stroke="midnightblue" d="M733.14,-128.93C707.83,-111.94 680.66,-86.99 700,-67 742.05,-23.53 1727.67,-35.23 1788,-31 1813.98,-29.18 1842.69,-26.23 1866.92,-23.46"/>
<polygon fill="midnightblue" stroke="midnightblue" points="731.29,-131.89 741.59,-134.37 735.08,-126.01 731.29,-131.89"/>
</g>
<!-- Node9 -->
<g id="node9" class="node">
<title>Node9</title>
<g id="a_node9"><a xlink:href="f__pc__deletor_8cpp.html" target="_top" xlink:title=" ">
<polygon fill="white" stroke="black" points="1449,-73 1449,-92 1581,-92 1581,-73 1449,-73"/>
<text text-anchor="middle" x="1515" y="-80" font-family="Helvetica,sans-Serif" font-size="10.00">src/f/f_pc/f_pc_deletor.cpp</text>
</a>
</g>
</g>
<!-- Node5&#45;&gt;Node9 -->
<g id="edge8" class="edge">
<title>Node5&#45;&gt;Node9</title>
<path fill="none" stroke="midnightblue" d="M825.66,-143.22C857.92,-140.37 898.66,-136.86 935,-134 1159.32,-116.33 1216.92,-127.41 1440,-98 1451.57,-96.47 1464.05,-94.28 1475.44,-92.07"/>
<polygon fill="midnightblue" stroke="midnightblue" points="825.16,-139.75 815.51,-144.12 825.78,-146.72 825.16,-139.75"/>
</g>
<!-- Node10 -->
<g id="node10" class="node">
<title>Node10</title>
<g id="a_node10"><a xlink:href="f__pc__executor_8cpp.html" target="_top" xlink:title=" ">
<polygon fill="white" stroke="black" points="1001,-73 1001,-92 1141,-92 1141,-73 1001,-73"/>
<text text-anchor="middle" x="1071" y="-80" font-family="Helvetica,sans-Serif" font-size="10.00">src/f/f_pc/f_pc_executor.cpp</text>
</a>
</g>
</g>
<!-- Node5&#45;&gt;Node10 -->
<g id="edge9" class="edge">
<title>Node5&#45;&gt;Node10</title>
<path fill="none" stroke="midnightblue" d="M825.65,-135.96C886.01,-123.05 978.43,-103.29 1030.92,-92.07"/>
<polygon fill="midnightblue" stroke="midnightblue" points="824.55,-132.62 815.51,-138.13 826.02,-139.46 824.55,-132.62"/>
</g>
<!-- Node11 -->
<g id="node11" class="node">
<title>Node11</title>
<g id="a_node11"><a xlink:href="f__pc__manager_8cpp.html" target="_top" xlink:title=" ">
<polygon fill="white" stroke="black" points="843,-73 843,-92 983,-92 983,-73 843,-73"/>
<text text-anchor="middle" x="913" y="-80" font-family="Helvetica,sans-Serif" font-size="10.00">src/f/f_pc/f_pc_manager.cpp</text>
</a>
</g>
</g>
<!-- Node5&#45;&gt;Node11 -->
<g id="edge10" class="edge">
<title>Node5&#45;&gt;Node11</title>
<path fill="none" stroke="midnightblue" d="M807.89,-130.3C836.05,-117.76 872.16,-101.68 893.89,-92.01"/>
<polygon fill="midnightblue" stroke="midnightblue" points="806.39,-127.13 798.68,-134.4 809.24,-133.53 806.39,-127.13"/>
</g>
<!-- Node12 -->
<g id="node12" class="node">
<title>Node12</title>
<g id="a_node12"><a xlink:href="f__pc__node__req_8cpp.html" target="_top" xlink:title=" ">
<polygon fill="white" stroke="black" points="547,-67.5 547,-97.5 653,-97.5 653,-67.5 547,-67.5"/>
<text text-anchor="start" x="555" y="-85.5" font-family="Helvetica,sans-Serif" font-size="10.00">src/f/f_pc/f_pc_node</text>
<text text-anchor="middle" x="600" y="-74.5" font-family="Helvetica,sans-Serif" font-size="10.00">_req.cpp</text>
</a>
</g>
</g>
<!-- Node5&#45;&gt;Node12 -->
<g id="edge11" class="edge">
<title>Node5&#45;&gt;Node12</title>
<path fill="none" stroke="midnightblue" d="M721.22,-130.68C694.44,-120.26 661.1,-107.28 636.17,-97.58"/>
<polygon fill="midnightblue" stroke="midnightblue" points="720.17,-134.03 730.76,-134.4 722.71,-127.51 720.17,-134.03"/>
</g>
<!-- Node13 -->
<g id="node13" class="node">
<title>Node13</title>
<g id="a_node13"><a xlink:href="f__op__actor__mng_8h.html" target="_top" xlink:title=" ">
<polygon fill="white" stroke="black" points="432.5,-67.5 432.5,-97.5 529.5,-97.5 529.5,-67.5 432.5,-67.5"/>
<text text-anchor="start" x="440.5" y="-85.5" font-family="Helvetica,sans-Serif" font-size="10.00">include/f/f_op/f_op</text>
<text text-anchor="middle" x="481" y="-74.5" font-family="Helvetica,sans-Serif" font-size="10.00">_actor_mng.h</text>
</a>
</g>
</g>
<!-- Node5&#45;&gt;Node13 -->
<g id="edge12" class="edge">
<title>Node5&#45;&gt;Node13</title>
<path fill="none" stroke="midnightblue" d="M708.34,-136.1C662,-126.18 595.75,-111.71 538,-98 535.32,-97.36 532.57,-96.7 529.79,-96.02"/>
<polygon fill="midnightblue" stroke="midnightblue" points="707.69,-139.55 718.2,-138.21 709.16,-132.7 707.69,-139.55"/>
</g>
<!-- Node14 -->
<g id="node14" class="node">
<title>Node14</title>
<g id="a_node14"><a xlink:href="d__attention_8cpp.html" target="_top" xlink:title=" ">
<polygon fill="white" stroke="black" points="378.5,-6 378.5,-25 485.5,-25 485.5,-6 378.5,-6"/>
<text text-anchor="middle" x="432" y="-13" font-family="Helvetica,sans-Serif" font-size="10.00">src/d/d_attention.cpp</text>
</a>
</g>
</g>
<!-- Node13&#45;&gt;Node14 -->
<g id="edge13" class="edge">
<title>Node13&#45;&gt;Node14</title>
<path fill="none" stroke="midnightblue" d="M464.28,-59.32C455.44,-47.6 445.1,-33.88 438.55,-25.19"/>
<polygon fill="midnightblue" stroke="midnightblue" points="461.55,-61.52 470.37,-67.4 467.14,-57.3 461.55,-61.52"/>
</g>
<!-- Node15 -->
<g id="node15" class="node">
<title>Node15</title>
<g id="a_node15"><a xlink:href="d__camera_8cpp.html" target="_top" xlink:title=" ">
<polygon fill="white" stroke="black" points="503,-6 503,-25 605,-25 605,-6 503,-6"/>
<text text-anchor="middle" x="554" y="-13" font-family="Helvetica,sans-Serif" font-size="10.00">src/d/d_camera.cpp</text>
</a>
</g>
</g>
<!-- Node13&#45;&gt;Node15 -->
<g id="edge14" class="edge">
<title>Node13&#45;&gt;Node15</title>
<path fill="none" stroke="midnightblue" d="M504.39,-60.67C517.87,-48.67 534.1,-34.22 544.24,-25.19"/>
<polygon fill="midnightblue" stroke="midnightblue" points="501.98,-58.13 496.84,-67.4 506.64,-63.36 501.98,-58.13"/>
</g>
<!-- Node16 -->
<g id="node16" class="node">
<title>Node16</title>
<g id="a_node16"><a xlink:href="d__stage_8cpp.html" target="_top" xlink:title=" ">
<polygon fill="white" stroke="black" points="623,-6 623,-25 717,-25 717,-6 623,-6"/>
<text text-anchor="middle" x="670" y="-13" font-family="Helvetica,sans-Serif" font-size="10.00">src/d/d_stage.cpp</text>
</a>
</g>
</g>
<!-- Node13&#45;&gt;Node16 -->
<g id="edge15" class="edge">
<title>Node13&#45;&gt;Node16</title>
<path fill="none" stroke="midnightblue" d="M531.57,-64.11C568.34,-51.46 616.52,-34.89 645.26,-25.01"/>
<polygon fill="midnightblue" stroke="midnightblue" points="530.33,-60.83 522.01,-67.4 532.6,-67.45 530.33,-60.83"/>
</g>
<!-- Node17 -->
<g id="node17" class="node">
<title>Node17</title>
<g id="a_node17"><a xlink:href="d__a__alink_8cpp.html" target="_top" xlink:title=" ">
<polygon fill="white" stroke="black" points="92.5,-6 92.5,-25 211.5,-25 211.5,-6 92.5,-6"/>
<text text-anchor="middle" x="152" y="-13" font-family="Helvetica,sans-Serif" font-size="10.00">src/d/d_a/d_a_alink.cpp</text>
</a>
</g>
</g>
<!-- Node13&#45;&gt;Node17 -->
<g id="edge16" class="edge">
<title>Node13&#45;&gt;Node17</title>
<path fill="none" stroke="midnightblue" d="M422.42,-66.74C332.3,-47.68 307.28,-48 220,-31 210.52,-29.15 200.33,-27.05 190.79,-25.02"/>
<polygon fill="midnightblue" stroke="midnightblue" points="421.73,-70.17 432.24,-68.84 423.19,-63.33 421.73,-70.17"/>
</g>
<!-- Node18 -->
<g id="node18" class="node">
<title>Node18</title>
<g id="a_node18"><a xlink:href="f__op__actor__mng_8cpp.html" target="_top" xlink:title=" ">
<polygon fill="white" stroke="black" points="735.5,-0.5 735.5,-30.5 842.5,-30.5 842.5,-0.5 735.5,-0.5"/>
<text text-anchor="start" x="743.5" y="-18.5" font-family="Helvetica,sans-Serif" font-size="10.00">src/f/f_op/f_op_actor</text>
<text text-anchor="middle" x="789" y="-7.5" font-family="Helvetica,sans-Serif" font-size="10.00">_mng.cpp</text>
</a>
</g>
</g>
<!-- Node13&#45;&gt;Node18 -->
<g id="edge17" class="edge">
<title>Node13&#45;&gt;Node18</title>
<path fill="none" stroke="midnightblue" d="M539.65,-66.7C622.74,-48.48 645.84,-47.89 726,-31 729.08,-30.35 732.23,-29.67 735.41,-28.98"/>
<polygon fill="midnightblue" stroke="midnightblue" points="538.78,-63.31 529.77,-68.89 540.29,-70.14 538.78,-63.31"/>
</g>
<!-- Node19 -->
<g id="node19" class="node">
<title>Node19</title>
<g id="a_node19"><a xlink:href="m__Do__main_8cpp.html" target="_top" xlink:title=" ">
<polygon fill="white" stroke="black" points="229.5,-6 229.5,-25 360.5,-25 360.5,-6 229.5,-6"/>
<text text-anchor="middle" x="295" y="-13" font-family="Helvetica,sans-Serif" font-size="10.00">src/m_Do/m_Do_main.cpp</text>
</a>
</g>
</g>
<!-- Node13&#45;&gt;Node19 -->
<g id="edge18" class="edge">
<title>Node13&#45;&gt;Node19</title>
<path fill="none" stroke="midnightblue" d="M430.77,-63.95C394.64,-51.32 347.51,-34.85 319.34,-25.01"/>
<polygon fill="midnightblue" stroke="midnightblue" points="430.05,-67.4 440.64,-67.4 432.36,-60.79 430.05,-67.4"/>
</g>
<!-- Node20&#45;&gt;Node9 -->
<g id="edge20" class="edge">
<title>Node20&#45;&gt;Node9</title>
<path fill="none" stroke="midnightblue" d="M1279.37,-135.59C1337.78,-122.68 1425.97,-103.18 1476.25,-92.07"/>
<polygon fill="midnightblue" stroke="midnightblue" points="1278.56,-132.19 1269.55,-137.77 1280.07,-139.03 1278.56,-132.19"/>
</g>
<!-- Node20&#45;&gt;Node10 -->
<g id="edge21" class="edge">
<title>Node20&#45;&gt;Node10</title>
<path fill="none" stroke="midnightblue" d="M1178.99,-130.3C1150.06,-117.76 1112.96,-101.68 1090.63,-92.01"/>
<polygon fill="midnightblue" stroke="midnightblue" points="1177.89,-133.63 1188.45,-134.4 1180.67,-127.21 1177.89,-133.63"/>
</g>
<!-- Node20&#45;&gt;Node11 -->
<g id="edge24" class="edge">
<title>Node20&#45;&gt;Node11</title>
<path fill="none" stroke="midnightblue" d="M1162.31,-136.11C1101.21,-123.22 1007.11,-103.36 953.71,-92.09"/>
<polygon fill="midnightblue" stroke="midnightblue" points="1161.69,-139.56 1172.2,-138.2 1163.13,-132.71 1161.69,-139.56"/>
</g>
<!-- Node21 -->
<g id="node21" class="node">
<title>Node21</title>
<g id="a_node21"><a xlink:href="f__pc__layer__iter_8cpp.html" target="_top" xlink:title=" ">
<polygon fill="white" stroke="black" points="2019.5,-67.5 2019.5,-97.5 2124.5,-97.5 2124.5,-67.5 2019.5,-67.5"/>
<text text-anchor="start" x="2027.5" y="-85.5" font-family="Helvetica,sans-Serif" font-size="10.00">src/f/f_pc/f_pc_layer</text>
<text text-anchor="middle" x="2072" y="-74.5" font-family="Helvetica,sans-Serif" font-size="10.00">_iter.cpp</text>
</a>
</g>
</g>
<!-- Node20&#45;&gt;Node21 -->
<g id="edge22" class="edge">
<title>Node20&#45;&gt;Node21</title>
<path fill="none" stroke="midnightblue" d="M1280.04,-148.06C1411.76,-146.34 1739.32,-138.03 2010,-98 2013.06,-97.55 2016.2,-97.02 2019.35,-96.44"/>
<polygon fill="midnightblue" stroke="midnightblue" points="1279.73,-144.56 1269.78,-148.18 1279.82,-151.56 1279.73,-144.56"/>
</g>
<!-- Node22 -->
<g id="node22" class="node">
<title>Node22</title>
<g id="a_node22"><a xlink:href="f__pc__node_8cpp.html" target="_top" xlink:title=" ">
<polygon fill="white" stroke="black" points="1159,-73 1159,-92 1283,-92 1283,-73 1159,-73"/>
<text text-anchor="middle" x="1221" y="-80" font-family="Helvetica,sans-Serif" font-size="10.00">src/f/f_pc/f_pc_node.cpp</text>
</a>
</g>
</g>
<!-- Node20&#45;&gt;Node22 -->
<g id="edge23" class="edge">
<title>Node20&#45;&gt;Node22</title>
<path fill="none" stroke="midnightblue" d="M1221,-124.25C1221,-113.02 1221,-100.38 1221,-92.19"/>
<polygon fill="midnightblue" stroke="midnightblue" points="1217.5,-124.4 1221,-134.4 1224.5,-124.4 1217.5,-124.4"/>
</g>
<!-- Node23 -->
<g id="node23" class="node">
<title>Node23</title>
<g id="a_node23"><a xlink:href="f__pc__pause_8cpp.html" target="_top" xlink:title=" ">
<polygon fill="white" stroke="black" points="1301.5,-73 1301.5,-92 1430.5,-92 1430.5,-73 1301.5,-73"/>
<text text-anchor="middle" x="1366" y="-80" font-family="Helvetica,sans-Serif" font-size="10.00">src/f/f_pc/f_pc_pause.cpp</text>
</a>
</g>
</g>
<!-- Node20&#45;&gt;Node23 -->
<g id="edge25" class="edge">
<title>Node20&#45;&gt;Node23</title>
<path fill="none" stroke="midnightblue" d="M1261.61,-130.3C1289.57,-117.76 1325.44,-101.68 1347.02,-92.01"/>
<polygon fill="midnightblue" stroke="midnightblue" points="1260.16,-127.11 1252.46,-134.4 1263.02,-133.5 1260.16,-127.11"/>
</g>
<!-- Node24&#45;&gt;Node10 -->
<g id="edge27" class="edge">
<title>Node24&#45;&gt;Node10</title>
<path fill="none" stroke="midnightblue" d="M1016.91,-128.01C1031.57,-115.94 1049.36,-101.3 1060.43,-92.19"/>
<polygon fill="midnightblue" stroke="midnightblue" points="1014.64,-125.34 1009.14,-134.4 1019.09,-130.75 1014.64,-125.34"/>
</g>
<!-- Node24&#45;&gt;Node11 -->
<g id="edge28" class="edge">
<title>Node24&#45;&gt;Node11</title>
<path fill="none" stroke="midnightblue" d="M967.09,-128.01C952.43,-115.94 934.64,-101.3 923.57,-92.19"/>
<polygon fill="midnightblue" stroke="midnightblue" points="964.91,-130.75 974.86,-134.4 969.36,-125.34 964.91,-130.75"/>
</g>
<!-- Node25&#45;&gt;Node7 -->
<g id="edge32" class="edge">
<title>Node25&#45;&gt;Node7</title>
<path fill="none" stroke="midnightblue" d="M445.48,-129.57C426.29,-119.35 403,-106.94 385.42,-97.58"/>
<polygon fill="midnightblue" stroke="midnightblue" points="444.06,-132.78 454.53,-134.4 447.35,-126.6 444.06,-132.78"/>
</g>
<!-- Node25&#45;&gt;Node11 -->
<g id="edge33" class="edge">
<title>Node25&#45;&gt;Node11</title>
<path fill="none" stroke="midnightblue" d="M539.6,-140.84C609.72,-131.5 730.63,-114.87 834,-98 845.15,-96.18 857.15,-94.06 868.35,-92.01"/>
<polygon fill="midnightblue" stroke="midnightblue" points="539.08,-137.37 529.63,-142.16 540,-144.31 539.08,-137.37"/>
</g>
<!-- Node25&#45;&gt;Node13 -->
<g id="edge34" class="edge">
<title>Node25&#45;&gt;Node13</title>
<path fill="none" stroke="midnightblue" d="M481,-124.11C481,-115.15 481,-105.32 481,-97.58"/>
<polygon fill="midnightblue" stroke="midnightblue" points="477.5,-124.4 481,-134.4 484.5,-124.4 477.5,-124.4"/>
</g>
<!-- Node25&#45;&gt;Node17 -->
<g id="edge31" class="edge">
<title>Node25&#45;&gt;Node17</title>
<path fill="none" stroke="midnightblue" d="M422.26,-134.04C353.38,-124.17 210.83,-134.48 171,-98 150.22,-78.96 150.02,-41.97 151.15,-25.18"/>
<polygon fill="midnightblue" stroke="midnightblue" points="421.82,-137.52 432.26,-135.73 422.98,-130.62 421.82,-137.52"/>
</g>
<!-- Node26 -->
<g id="node26" class="node">
<title>Node26</title>
<g id="a_node26"><a xlink:href="f__ap__game_8cpp.html" target="_top" xlink:title=" ">
<polygon fill="white" stroke="black" points="180.5,-73 180.5,-92 285.5,-92 285.5,-73 180.5,-73"/>
<text text-anchor="middle" x="233" y="-80" font-family="Helvetica,sans-Serif" font-size="10.00">src/f/f_ap_game.cpp</text>
</a>
</g>
</g>
<!-- Node25&#45;&gt;Node26 -->
<g id="edge30" class="edge">
<title>Node25&#45;&gt;Node26</title>
<path fill="none" stroke="midnightblue" d="M422.48,-133.16C373.57,-120.34 305.61,-102.53 265.77,-92.09"/>
<polygon fill="midnightblue" stroke="midnightblue" points="421.74,-136.59 432.3,-135.74 423.51,-129.81 421.74,-136.59"/>
</g>
<!-- Node27&#45;&gt;Node9 -->
<g id="edge37" class="edge">
<title>Node27&#45;&gt;Node9</title>
<path fill="none" stroke="midnightblue" d="M1718.36,-133.01C1665.61,-120.16 1592.6,-102.39 1549.93,-92"/>
<polygon fill="midnightblue" stroke="midnightblue" points="1717.75,-136.46 1728.29,-135.42 1719.4,-129.66 1717.75,-136.46"/>
</g>
<!-- Node28 -->
<g id="node28" class="node">
<title>Node28</title>
<g id="a_node28"><a xlink:href="f__op__actor__iter_8cpp.html" target="_top" xlink:title=" ">
<polygon fill="white" stroke="black" points="2257.5,-67.5 2257.5,-97.5 2364.5,-97.5 2364.5,-67.5 2257.5,-67.5"/>
<text text-anchor="start" x="2265.5" y="-85.5" font-family="Helvetica,sans-Serif" font-size="10.00">src/f/f_op/f_op_actor</text>
<text text-anchor="middle" x="2311" y="-74.5" font-family="Helvetica,sans-Serif" font-size="10.00">_iter.cpp</text>
</a>
</g>
</g>
<!-- Node27&#45;&gt;Node28 -->
<g id="edge36" class="edge">
<title>Node27&#45;&gt;Node28</title>
<path fill="none" stroke="midnightblue" d="M1845.77,-142.58C1954.91,-132.28 2173.07,-110.93 2249,-98 2251.72,-97.54 2254.51,-97.02 2257.31,-96.48"/>
<polygon fill="midnightblue" stroke="midnightblue" points="1845.19,-139.12 1835.56,-143.54 1845.84,-146.09 1845.19,-139.12"/>
</g>
<!-- Node29 -->
<g id="node29" class="node">
<title>Node29</title>
<g id="a_node29"><a xlink:href="c__list__iter_8cpp.html" target="_top" xlink:title=" ">
<polygon fill="white" stroke="black" points="1715,-67.5 1715,-97.5 1849,-97.5 1849,-67.5 1715,-67.5"/>
<text text-anchor="start" x="1723" y="-85.5" font-family="Helvetica,sans-Serif" font-size="10.00">libs/SSystem/SComponent</text>
<text text-anchor="middle" x="1782" y="-74.5" font-family="Helvetica,sans-Serif" font-size="10.00">/c_list_iter.cpp</text>
</a>
</g>
</g>
<!-- Node27&#45;&gt;Node29 -->
<g id="edge38" class="edge">
<title>Node27&#45;&gt;Node29</title>
<path fill="none" stroke="midnightblue" d="M1782,-124.11C1782,-115.15 1782,-105.32 1782,-97.58"/>
<polygon fill="midnightblue" stroke="midnightblue" points="1778.5,-124.4 1782,-134.4 1785.5,-124.4 1778.5,-124.4"/>
</g>
<!-- Node30 -->
<g id="node30" class="node">
<title>Node30</title>
<g id="a_node30"><a xlink:href="c__tree__iter_8cpp.html" target="_top" xlink:title=" ">
<polygon fill="white" stroke="black" points="1867,-67.5 1867,-97.5 2001,-97.5 2001,-67.5 1867,-67.5"/>
<text text-anchor="start" x="1875" y="-85.5" font-family="Helvetica,sans-Serif" font-size="10.00">libs/SSystem/SComponent</text>
<text text-anchor="middle" x="1934" y="-74.5" font-family="Helvetica,sans-Serif" font-size="10.00">/c_tree_iter.cpp</text>
</a>
</g>
</g>
<!-- Node27&#45;&gt;Node30 -->
<g id="edge39" class="edge">
<title>Node27&#45;&gt;Node30</title>
<path fill="none" stroke="midnightblue" d="M1824.31,-130.41C1848.58,-120.03 1878.59,-107.2 1901.08,-97.58"/>
<polygon fill="midnightblue" stroke="midnightblue" points="1822.8,-127.25 1814.98,-134.4 1825.55,-133.68 1822.8,-127.25"/>
</g>
<!-- Node31 -->
<g id="node31" class="node">
<title>Node31</title>
<g id="a_node31"><a xlink:href="f__pc__create__iter_8h.html" target="_top" xlink:title=" ">
<polygon fill="white" stroke="black" points="2142.5,-67.5 2142.5,-97.5 2239.5,-97.5 2239.5,-67.5 2142.5,-67.5"/>
<text text-anchor="start" x="2150.5" y="-85.5" font-family="Helvetica,sans-Serif" font-size="10.00">include/f/f_pc/f_pc</text>
<text text-anchor="middle" x="2191" y="-74.5" font-family="Helvetica,sans-Serif" font-size="10.00">_create_iter.h</text>
</a>
</g>
</g>
<!-- Node27&#45;&gt;Node31 -->
<g id="edge40" class="edge">
<title>Node27&#45;&gt;Node31</title>
<path fill="none" stroke="midnightblue" d="M1845.77,-141.43C1916.55,-133.09 2034,-117.83 2134,-98 2136.7,-97.46 2139.47,-96.88 2142.26,-96.26"/>
<polygon fill="midnightblue" stroke="midnightblue" points="1845.2,-137.97 1835.67,-142.6 1846.01,-144.92 1845.2,-137.97"/>
</g>
<!-- Node33 -->
<g id="node33" class="node">
<title>Node33</title>
<g id="a_node33"><a xlink:href="f__pc__method__iter_8h.html" target="_top" xlink:title=" ">
<polygon fill="white" stroke="black" points="1599.5,-67.5 1599.5,-97.5 1696.5,-97.5 1696.5,-67.5 1599.5,-67.5"/>
<text text-anchor="start" x="1607.5" y="-85.5" font-family="Helvetica,sans-Serif" font-size="10.00">include/f/f_pc/f_pc</text>
<text text-anchor="middle" x="1648" y="-74.5" font-family="Helvetica,sans-Serif" font-size="10.00">_method_iter.h</text>
</a>
</g>
</g>
<!-- Node27&#45;&gt;Node33 -->
<g id="edge43" class="edge">
<title>Node27&#45;&gt;Node33</title>
<path fill="none" stroke="midnightblue" d="M1743.85,-129.99C1722.61,-119.69 1696.59,-107.07 1677.02,-97.58"/>
<polygon fill="midnightblue" stroke="midnightblue" points="1742.4,-133.18 1752.92,-134.4 1745.45,-126.88 1742.4,-133.18"/>
</g>
<!-- Node31&#45;&gt;Node8 -->
<g id="edge42" class="edge">
<title>Node31&#45;&gt;Node8</title>
<path fill="none" stroke="midnightblue" d="M2132.25,-66.58C2075.02,-52.5 2019.25,-39.2 1979.03,-29.68"/>
<polygon fill="midnightblue" stroke="midnightblue" points="2131.65,-70.04 2142.19,-69.04 2133.32,-63.24 2131.65,-70.04"/>
</g>
<!-- Node32 -->
<g id="node32" class="node">
<title>Node32</title>
<g id="a_node32"><a xlink:href="f__pc__create__iter_8cpp.html" target="_top" xlink:title=" ">
<polygon fill="white" stroke="black" points="2135,-0.5 2135,-30.5 2247,-30.5 2247,-0.5 2135,-0.5"/>
<text text-anchor="start" x="2143" y="-18.5" font-family="Helvetica,sans-Serif" font-size="10.00">src/f/f_pc/f_pc_create</text>
<text text-anchor="middle" x="2191" y="-7.5" font-family="Helvetica,sans-Serif" font-size="10.00">_iter.cpp</text>
</a>
</g>
</g>
<!-- Node31&#45;&gt;Node32 -->
<g id="edge41" class="edge">
<title>Node31&#45;&gt;Node32</title>
<path fill="none" stroke="midnightblue" d="M2191,-57.11C2191,-48.15 2191,-38.32 2191,-30.58"/>
<polygon fill="midnightblue" stroke="midnightblue" points="2187.5,-57.4 2191,-67.4 2194.5,-57.4 2187.5,-57.4"/>
</g>
<!-- Node34 -->
<g id="node34" class="node">
<title>Node34</title>
<g id="a_node34"><a xlink:href="f__pc__layer_8cpp.html" target="_top" xlink:title=" ">
<polygon fill="white" stroke="black" points="1655.5,-6 1655.5,-25 1778.5,-25 1778.5,-6 1655.5,-6"/>
<text text-anchor="middle" x="1717" y="-13" font-family="Helvetica,sans-Serif" font-size="10.00">src/f/f_pc/f_pc_layer.cpp</text>
</a>
</g>
</g>
<!-- Node33&#45;&gt;Node34 -->
<g id="edge44" class="edge">
<title>Node33&#45;&gt;Node34</title>
<path fill="none" stroke="midnightblue" d="M1670.47,-60.34C1683.14,-48.4 1698.28,-34.14 1707.77,-25.19"/>
<polygon fill="midnightblue" stroke="midnightblue" points="1667.85,-57.99 1662.97,-67.4 1672.65,-63.09 1667.85,-57.99"/>
</g>
<!-- Node35 -->
<g id="node35" class="node">
<title>Node35</title>
<g id="a_node35"><a xlink:href="f__pc__method__iter_8cpp.html" target="_top" xlink:title=" ">
<polygon fill="white" stroke="black" points="1520.5,-0.5 1520.5,-30.5 1637.5,-30.5 1637.5,-0.5 1520.5,-0.5"/>
<text text-anchor="start" x="1528.5" y="-18.5" font-family="Helvetica,sans-Serif" font-size="10.00">src/f/f_pc/f_pc_method</text>
<text text-anchor="middle" x="1579" y="-7.5" font-family="Helvetica,sans-Serif" font-size="10.00">_iter.cpp</text>
</a>
</g>
</g>
<!-- Node33&#45;&gt;Node35 -->
<g id="edge45" class="edge">
<title>Node33&#45;&gt;Node35</title>
<path fill="none" stroke="midnightblue" d="M1625.51,-60.31C1615.16,-50.56 1603.16,-39.26 1593.94,-30.58"/>
<polygon fill="midnightblue" stroke="midnightblue" points="1623.35,-63.09 1633.03,-67.4 1628.15,-57.99 1623.35,-63.09"/>
</g>
<!-- Node36&#45;&gt;Node21 -->
<g id="edge49" class="edge">
<title>Node36&#45;&gt;Node21</title>
<path fill="none" stroke="midnightblue" d="M2249.78,-131.85C2210.81,-121.25 2160.9,-107.68 2123.88,-97.61"/>
<polygon fill="midnightblue" stroke="midnightblue" points="2248.87,-135.23 2259.43,-134.48 2250.7,-128.47 2248.87,-135.23"/>
</g>
<!-- Node36&#45;&gt;Node28 -->
<g id="edge47" class="edge">
<title>Node36&#45;&gt;Node28</title>
<path fill="none" stroke="midnightblue" d="M2311,-124.11C2311,-115.15 2311,-105.32 2311,-97.58"/>
<polygon fill="midnightblue" stroke="midnightblue" points="2307.5,-124.4 2311,-134.4 2314.5,-124.4 2307.5,-124.4"/>
</g>
<!-- Node36&#45;&gt;Node31 -->
<g id="edge52" class="edge">
<title>Node36&#45;&gt;Node31</title>
<path fill="none" stroke="midnightblue" d="M2276.06,-129.57C2257.18,-119.35 2234.27,-106.94 2216.99,-97.58"/>
<polygon fill="midnightblue" stroke="midnightblue" points="2274.5,-132.71 2284.96,-134.4 2277.84,-126.56 2274.5,-132.71"/>
</g>
<!-- Node37 -->
<g id="node37" class="node">
<title>Node37</title>
<g id="a_node37"><a xlink:href="f__op__scene__iter_8cpp.html" target="_top" xlink:title=" ">
<polygon fill="white" stroke="black" points="2501.5,-67.5 2501.5,-97.5 2612.5,-97.5 2612.5,-67.5 2501.5,-67.5"/>
<text text-anchor="start" x="2509.5" y="-85.5" font-family="Helvetica,sans-Serif" font-size="10.00">src/f/f_op/f_op_scene</text>
<text text-anchor="middle" x="2557" y="-74.5" font-family="Helvetica,sans-Serif" font-size="10.00">_iter.cpp</text>
</a>
</g>
</g>
<!-- Node36&#45;&gt;Node37 -->
<g id="edge48" class="edge">
<title>Node36&#45;&gt;Node37</title>
<path fill="none" stroke="midnightblue" d="M2373.76,-131.92C2413.9,-121.31 2465.42,-107.7 2503.6,-97.61"/>
<polygon fill="midnightblue" stroke="midnightblue" points="2372.85,-128.54 2364.08,-134.48 2374.64,-135.31 2372.85,-128.54"/>
</g>
<!-- Node38 -->
<g id="node38" class="node">
<title>Node38</title>
<g id="a_node38"><a xlink:href="f__pc__line__iter_8cpp.html" target="_top" xlink:title=" ">
<polygon fill="white" stroke="black" points="2383,-67.5 2383,-97.5 2483,-97.5 2483,-67.5 2383,-67.5"/>
<text text-anchor="start" x="2391" y="-85.5" font-family="Helvetica,sans-Serif" font-size="10.00">src/f/f_pc/f_pc_line</text>
<text text-anchor="middle" x="2433" y="-74.5" font-family="Helvetica,sans-Serif" font-size="10.00">_iter.cpp</text>
</a>
</g>
</g>
<!-- Node36&#45;&gt;Node38 -->
<g id="edge50" class="edge">
<title>Node36&#45;&gt;Node38</title>
<path fill="none" stroke="midnightblue" d="M2346.52,-129.57C2365.71,-119.35 2389,-106.94 2406.58,-97.58"/>
<polygon fill="midnightblue" stroke="midnightblue" points="2344.65,-126.6 2337.47,-134.4 2347.94,-132.78 2344.65,-126.6"/>
</g>
<!-- Node39 -->
<g id="node39" class="node">
<title>Node39</title>
<g id="a_node39"><a xlink:href="c__tag__iter_8cpp.html" target="_top" xlink:title=" ">
<polygon fill="white" stroke="black" points="2631,-67.5 2631,-97.5 2765,-97.5 2765,-67.5 2631,-67.5"/>
<text text-anchor="start" x="2639" y="-85.5" font-family="Helvetica,sans-Serif" font-size="10.00">libs/SSystem/SComponent</text>
<text text-anchor="middle" x="2698" y="-74.5" font-family="Helvetica,sans-Serif" font-size="10.00">/c_tag_iter.cpp</text>
</a>
</g>
</g>
<!-- Node36&#45;&gt;Node39 -->
<g id="edge51" class="edge">
<title>Node36&#45;&gt;Node39</title>
<path fill="none" stroke="midnightblue" d="M2374.9,-138.65C2437.83,-128.83 2536.66,-113.07 2622,-98 2624.91,-97.49 2627.88,-96.95 2630.88,-96.41"/>
<polygon fill="midnightblue" stroke="midnightblue" points="2374.08,-135.24 2364.73,-140.24 2375.15,-142.15 2374.08,-135.24"/>
</g>
<!-- Node40&#45;&gt;Node21 -->
<g id="edge54" class="edge">
<title>Node40&#45;&gt;Node21</title>
<path fill="none" stroke="midnightblue" d="M2025.49,-127.31C2035.84,-117.56 2047.84,-106.26 2057.06,-97.58"/>
<polygon fill="midnightblue" stroke="midnightblue" points="2022.85,-124.99 2017.97,-134.4 2027.65,-130.09 2022.85,-124.99"/>
</g>
<!-- Node40&#45;&gt;Node30 -->
<g id="edge56" class="edge">
<title>Node40&#45;&gt;Node30</title>
<path fill="none" stroke="midnightblue" d="M1980.51,-127.31C1970.16,-117.56 1958.16,-106.26 1948.94,-97.58"/>
<polygon fill="midnightblue" stroke="midnightblue" points="1978.35,-130.09 1988.03,-134.4 1983.15,-124.99 1978.35,-130.09"/>
</g>
<!-- Node40&#45;&gt;Node38 -->
<g id="edge55" class="edge">
<title>Node40&#45;&gt;Node38</title>
<path fill="none" stroke="midnightblue" d="M2066.86,-141.89C2141.05,-133.72 2266.97,-118.38 2374,-98 2376.9,-97.45 2379.87,-96.84 2382.87,-96.2"/>
<polygon fill="midnightblue" stroke="midnightblue" points="2066.3,-138.42 2056.74,-142.99 2067.06,-145.38 2066.3,-138.42"/>
</g>
</g>
</svg>
        <g id="navigator" transform="translate(0 0)" fill="#404254">
                <rect fill="#f2f5e9" fill-opacity="0.5" stroke="#606060" stroke-width=".5" x="0" y="0" width="60" height="60"/>
                <use id="zoomplus" xlink:href="#zoomPlus" x="17" y="9" onmousedown="handleZoom(evt,'in')"/>
                <use id="zoomminus" xlink:href="#zoomMin" x="42" y="9" onmousedown="handleZoom(evt,'out')"/>
                <use id="reset" xlink:href="#resetDef" x="30" y="36" onmousedown="handleReset()"/>
                <g id="arrowUp" xlink:href="#dirArrow" transform="translate(30 24)" onmousedown="handlePan(0,-1)">
                  <use xlink:href="#rim" fill="#404040">
                        <set attributeName="fill" to="#808080" begin="arrowUp.mouseover" end="arrowUp.mouseout"/>
                  </use>
                  <path fill="none" stroke="white" stroke-width="1.5" d="M0,-3.0v7 M-2.5,-0.5L0,-3.0L2.5,-0.5"/>
                </g>
                <g id="arrowRight" xlink:href="#dirArrow" transform="rotate(90) translate(36 -43)" onmousedown="handlePan(1,0)">
                  <use xlink:href="#rim" fill="#404040">
                        <set attributeName="fill" to="#808080" begin="arrowRight.mouseover" end="arrowRight.mouseout"/>
                  </use>
                  <path fill="none" stroke="white" stroke-width="1.5" d="M0,-3.0v7 M-2.5,-0.5L0,-3.0L2.5,-0.5"/>
                </g>
                <g id="arrowDown" xlink:href="#dirArrow" transform="rotate(180) translate(-30 -48)" onmousedown="handlePan(0,1)">
                  <use xlink:href="#rim" fill="#404040">
                        <set attributeName="fill" to="#808080" begin="arrowDown.mouseover" end="arrowDown.mouseout"/>
                  </use>
                  <path fill="none" stroke="white" stroke-width="1.5" d="M0,-3.0v7 M-2.5,-0.5L0,-3.0L2.5,-0.5"/>
                </g>
                <g id="arrowLeft" xlink:href="#dirArrow" transform="rotate(270) translate(-36 17)" onmousedown="handlePan(-1,0)">
                  <use xlink:href="#rim" fill="#404040">
                        <set attributeName="fill" to="#808080" begin="arrowLeft.mouseover" end="arrowLeft.mouseout"/>
                  </use>
                  <path fill="none" stroke="white" stroke-width="1.5" d="M0,-3.0v7 M-2.5,-0.5L0,-3.0L2.5,-0.5"/>
                </g>
        </g>
        <svg viewBox="0 0 15 15" width="100%" height="30px" preserveAspectRatio="xMaxYMin meet">
         <g id="arrow_out" transform="scale(0.3 0.3)">
          <a xlink:href="c__node__iter_8h__dep__incl_org.svg" target="_base">
           <rect id="button" ry="5" rx="5" y="6" x="6" height="38" width="38"
                fill="#f2f5e9" fill-opacity="0.5" stroke="#606060" stroke-width="1.0"/>
           <path id="arrow"
             d="M 11.500037,31.436501 C 11.940474,20.09759 22.043105,11.32322 32.158766,21.979434 L 37.068811,17.246167 C 37.068811,17.246167 37.088388,32 37.088388,32 L 22.160133,31.978069 C 22.160133,31.978069 26.997745,27.140456 26.997745,27.140456 C 18.528582,18.264221 13.291696,25.230495 11.500037,31.436501 z"
             style="fill:#404040;"/>
          </a>
         </g>
        </svg>
</svg>
