<?xml version="1.0" encoding="UTF-8" standalone="no"?>
<!DOCTYPE svg PUBLIC "-//W3C//DTD SVG 1.1//EN"
 "http://www.w3.org/Graphics/SVG/1.1/DTD/svg11.dtd">
<!-- Generated by graphviz version 2.46.0 (20210122.1329)
 -->
<!-- Title: include/SComponent/c_node_iter.h Pages: 1 -->
<!--zoomable 240 -->
<svg id="main" version="1.1" xmlns="http://www.w3.org/2000/svg" xmlns:xlink="http://www.w3.org/1999/xlink" xml:space="preserve" onload="init(evt)">
<style type="text/css"><![CDATA[
.edge:hover path { stroke: red; }
.edge:hover polygon { stroke: red; fill: red; }
]]></style>
<script type="text/javascript"><![CDATA[
var edges = document.getElementsByTagName('g');
if (edges && edges.length) {
  for (var i=0;i<edges.length;i++) {
    if (edges[i].id.substr(0,4)=='edge') {
      edges[i].setAttribute('class','edge');
    }
  }
}
]]></script>
        <defs>
                <circle id="rim" cx="0" cy="0" r="7"/>
                <circle id="rim2" cx="0" cy="0" r="3.5"/>
                <g id="zoomPlus">
                        <use xlink:href="#rim" fill="#404040">
                                <set attributeName="fill" to="#808080" begin="zoomplus.mouseover" end="zoomplus.mouseout"/>
                        </use>
                        <path d="M-4,0h8M0,-4v8" fill="none" stroke="white" stroke-width="1.5" pointer-events="none"/>
                </g>
                <g id="zoomMin">
                        <use xlink:href="#rim" fill="#404040">
                                <set attributeName="fill" to="#808080" begin="zoomminus.mouseover" end="zoomminus.mouseout"/>
                        </use>
                        <path d="M-4,0h8" fill="none" stroke="white" stroke-width="1.5" pointer-events="none"/>
                </g>
                <g id="dirArrow">
                        <path fill="none" stroke="white" stroke-width="1.5" d="M0,-3.0v7 M-2.5,-0.5L0,-3.0L2.5,-0.5"/>
                </g>
               <g id="resetDef">
                       <use xlink:href="#rim2" fill="#404040">
                               <set attributeName="fill" to="#808080" begin="reset.mouseover" end="reset.mouseout"/>
                       </use>
               </g>
        </defs>

<script type="text/javascript">
var viewWidth = 2435;
var viewHeight = 240;
var sectionId = 'dynsection-1';
</script>
<script xlink:href="svgpan.js"/>
<svg id="graph" class="graph">
<g id="viewport">
<title>include/SComponent/c_node_iter.h</title>
<polygon fill="white" stroke="transparent" points="-4,4 -4,-236 2431,-236 2431,4 -4,4"/>
<!-- Node1 -->
<g id="node1" class="node">
<title>Node1</title>
<g id="a_node1"><a xlink:title=" ">
<polygon fill="#bfbfbf" stroke="black" points="719,-201.5 719,-231.5 826,-231.5 826,-201.5 719,-201.5"/>
<text text-anchor="start" x="727" y="-219.5" font-family="Helvetica,sans-Serif" font-size="10.00">include/SComponent</text>
<text text-anchor="middle" x="772.5" y="-208.5" font-family="Helvetica,sans-Serif" font-size="10.00">/c_node_iter.h</text>
</a>
</g>
</g>
<!-- Node2 -->
<g id="node2" class="node">
<title>Node2</title>
<g id="a_node2"><a xlink:href="c__node__iter_8cpp.html" target="_top" xlink:title=" ">
<polygon fill="white" stroke="black" points="205.5,-134.5 205.5,-164.5 339.5,-164.5 339.5,-134.5 205.5,-134.5"/>
<text text-anchor="start" x="213.5" y="-152.5" font-family="Helvetica,sans-Serif" font-size="10.00">libs/SSystem/SComponent</text>
<text text-anchor="middle" x="272.5" y="-141.5" font-family="Helvetica,sans-Serif" font-size="10.00">/c_node_iter.cpp</text>
</a>
</g>
</g>
<!-- Node1&#45;&gt;Node2 -->
<g id="edge1" class="edge">
<title>Node1&#45;&gt;Node2</title>
<path fill="none" stroke="midnightblue" d="M708.74,-209.31C625.61,-200.92 475.79,-184.7 348.5,-165 345.58,-164.55 342.6,-164.07 339.59,-163.56"/>
<polygon fill="midnightblue" stroke="midnightblue" points="708.49,-212.8 718.79,-210.32 709.19,-205.84 708.49,-212.8"/>
</g>
<!-- Node3 -->
<g id="node3" class="node">
<title>Node3</title>
<g id="a_node3"><a xlink:href="f__pc__draw_8h.html" target="_top" xlink:title=" ">
<polygon fill="white" stroke="black" points="358,-134.5 358,-164.5 455,-164.5 455,-134.5 358,-134.5"/>
<text text-anchor="start" x="366" y="-152.5" font-family="Helvetica,sans-Serif" font-size="10.00">include/f/f_pc/f_pc</text>
<text text-anchor="middle" x="406.5" y="-141.5" font-family="Helvetica,sans-Serif" font-size="10.00">_draw.h</text>
</a>
</g>
</g>
<!-- Node1&#45;&gt;Node3 -->
<g id="edge2" class="edge">
<title>Node1&#45;&gt;Node3</title>
<path fill="none" stroke="midnightblue" d="M708.8,-206.74C646.11,-197.74 547.81,-182.58 463.5,-165 460.8,-164.44 458.04,-163.83 455.25,-163.2"/>
<polygon fill="midnightblue" stroke="midnightblue" points="708.53,-210.24 718.93,-208.19 709.52,-203.31 708.53,-210.24"/>
</g>
<!-- Node5 -->
<g id="node5" class="node">
<title>Node5</title>
<g id="a_node5"><a xlink:href="f__pc__executor_8h.html" target="_top" xlink:title=" ">
<polygon fill="white" stroke="black" points="588,-134.5 588,-164.5 685,-164.5 685,-134.5 588,-134.5"/>
<text text-anchor="start" x="596" y="-152.5" font-family="Helvetica,sans-Serif" font-size="10.00">include/f/f_pc/f_pc</text>
<text text-anchor="middle" x="636.5" y="-141.5" font-family="Helvetica,sans-Serif" font-size="10.00">_executor.h</text>
</a>
</g>
</g>
<!-- Node1&#45;&gt;Node5 -->
<g id="edge4" class="edge">
<title>Node1&#45;&gt;Node5</title>
<path fill="none" stroke="midnightblue" d="M733.78,-196.99C712.22,-186.69 685.81,-174.07 665.95,-164.58"/>
<polygon fill="midnightblue" stroke="midnightblue" points="732.46,-200.24 742.99,-201.4 735.48,-193.93 732.46,-200.24"/>
</g>
<!-- Node18 -->
<g id="node18" class="node">
<title>Node18</title>
<g id="a_node18"><a xlink:href="f__pc__layer__iter_8h.html" target="_top" xlink:title=" ">
<polygon fill="white" stroke="black" points="889,-134.5 889,-164.5 986,-164.5 986,-134.5 889,-134.5"/>
<text text-anchor="start" x="897" y="-152.5" font-family="Helvetica,sans-Serif" font-size="10.00">include/f/f_pc/f_pc</text>
<text text-anchor="middle" x="937.5" y="-141.5" font-family="Helvetica,sans-Serif" font-size="10.00">_layer_iter.h</text>
</a>
</g>
</g>
<!-- Node1&#45;&gt;Node18 -->
<g id="edge17" class="edge">
<title>Node1&#45;&gt;Node18</title>
<path fill="none" stroke="midnightblue" d="M817.73,-197.68C844.19,-187.26 877.13,-174.28 901.77,-164.58"/>
<polygon fill="midnightblue" stroke="midnightblue" points="816.32,-194.47 808.3,-201.4 818.89,-200.99 816.32,-194.47"/>
</g>
<!-- Node22 -->
<g id="node22" class="node">
<title>Node22</title>
<g id="a_node22"><a xlink:href="f__pc__line__iter_8h.html" target="_top" xlink:title=" ">
<polygon fill="white" stroke="black" points="724,-134.5 724,-164.5 821,-164.5 821,-134.5 724,-134.5"/>
<text text-anchor="start" x="732" y="-152.5" font-family="Helvetica,sans-Serif" font-size="10.00">include/f/f_pc/f_pc</text>
<text text-anchor="middle" x="772.5" y="-141.5" font-family="Helvetica,sans-Serif" font-size="10.00">_line_iter.h</text>
</a>
</g>
</g>
<!-- Node1&#45;&gt;Node22 -->
<g id="edge24" class="edge">
<title>Node1&#45;&gt;Node22</title>
<path fill="none" stroke="midnightblue" d="M772.5,-191.11C772.5,-182.15 772.5,-172.32 772.5,-164.58"/>
<polygon fill="midnightblue" stroke="midnightblue" points="769,-191.4 772.5,-201.4 776,-191.4 769,-191.4"/>
</g>
<!-- Node23 -->
<g id="node23" class="node">
<title>Node23</title>
<g id="a_node23"><a xlink:href="f__pc__manager_8h.html" target="_top" xlink:title=" ">
<polygon fill="white" stroke="black" points="473,-134.5 473,-164.5 570,-164.5 570,-134.5 473,-134.5"/>
<text text-anchor="start" x="481" y="-152.5" font-family="Helvetica,sans-Serif" font-size="10.00">include/f/f_pc/f_pc</text>
<text text-anchor="middle" x="521.5" y="-141.5" font-family="Helvetica,sans-Serif" font-size="10.00">_manager.h</text>
</a>
</g>
</g>
<!-- Node1&#45;&gt;Node23 -->
<g id="edge27" class="edge">
<title>Node1&#45;&gt;Node23</title>
<path fill="none" stroke="midnightblue" d="M709.14,-199.09C666.06,-187.93 609.89,-173.39 570.28,-163.13"/>
<polygon fill="midnightblue" stroke="midnightblue" points="708.4,-202.52 718.96,-201.64 710.16,-195.74 708.4,-202.52"/>
</g>
<!-- Node24 -->
<g id="node24" class="node">
<title>Node24</title>
<g id="a_node24"><a xlink:href="c__list__iter_8h.html" target="_top" xlink:title=" ">
<polygon fill="white" stroke="black" points="1826,-134.5 1826,-164.5 1933,-164.5 1933,-134.5 1826,-134.5"/>
<text text-anchor="start" x="1834" y="-152.5" font-family="Helvetica,sans-Serif" font-size="10.00">include/SComponent</text>
<text text-anchor="middle" x="1879.5" y="-141.5" font-family="Helvetica,sans-Serif" font-size="10.00">/c_list_iter.h</text>
</a>
</g>
</g>
<!-- Node1&#45;&gt;Node24 -->
<g id="edge31" class="edge">
<title>Node1&#45;&gt;Node24</title>
<path fill="none" stroke="midnightblue" d="M836.43,-212.52C986.37,-205.41 1372.32,-186.45 1694.5,-165 1738.7,-162.06 1788.79,-158.09 1825.69,-155.05"/>
<polygon fill="midnightblue" stroke="midnightblue" points="835.87,-209.04 826.05,-213.01 836.2,-216.03 835.87,-209.04"/>
</g>
<!-- Node33 -->
<g id="node33" class="node">
<title>Node33</title>
<g id="a_node33"><a xlink:href="c__tag__iter_8h.html" target="_top" xlink:title=" ">
<polygon fill="white" stroke="black" points="1451,-134.5 1451,-164.5 1558,-164.5 1558,-134.5 1451,-134.5"/>
<text text-anchor="start" x="1459" y="-152.5" font-family="Helvetica,sans-Serif" font-size="10.00">include/SComponent</text>
<text text-anchor="middle" x="1504.5" y="-141.5" font-family="Helvetica,sans-Serif" font-size="10.00">/c_tag_iter.h</text>
</a>
</g>
</g>
<!-- Node1&#45;&gt;Node33 -->
<g id="edge42" class="edge">
<title>Node1&#45;&gt;Node33</title>
<path fill="none" stroke="midnightblue" d="M836.31,-209.83C978.3,-197.23 1318.25,-167.04 1450.54,-155.29"/>
<polygon fill="midnightblue" stroke="midnightblue" points="835.68,-206.38 826.03,-210.75 836.3,-213.35 835.68,-206.38"/>
</g>
<!-- Node36 -->
<g id="node36" class="node">
<title>Node36</title>
<g id="a_node36"><a xlink:href="c__tree__iter_8h.html" target="_top" xlink:title=" ">
<polygon fill="white" stroke="black" points="1579,-134.5 1579,-164.5 1686,-164.5 1686,-134.5 1579,-134.5"/>
<text text-anchor="start" x="1587" y="-152.5" font-family="Helvetica,sans-Serif" font-size="10.00">include/SComponent</text>
<text text-anchor="middle" x="1632.5" y="-141.5" font-family="Helvetica,sans-Serif" font-size="10.00">/c_tree_iter.h</text>
</a>
</g>
</g>
<!-- Node1&#45;&gt;Node36 -->
<g id="edge48" class="edge">
<title>Node1&#45;&gt;Node36</title>
<path fill="none" stroke="midnightblue" d="M836.41,-214.74C971.73,-212.4 1296.89,-202.96 1566.5,-165 1570.57,-164.43 1574.75,-163.74 1578.95,-162.98"/>
<polygon fill="midnightblue" stroke="midnightblue" points="836.17,-211.24 826.22,-214.91 836.28,-218.24 836.17,-211.24"/>
</g>
<!-- Node4 -->
<g id="node4" class="node">
<title>Node4</title>
<g id="a_node4"><a xlink:href="f__pc__draw_8cpp.html" target="_top" xlink:title=" ">
<polygon fill="white" stroke="black" points="98.5,-73 98.5,-92 222.5,-92 222.5,-73 98.5,-73"/>
<text text-anchor="middle" x="160.5" y="-80" font-family="Helvetica,sans-Serif" font-size="10.00">src/f/f_pc/f_pc_draw.cpp</text>
</a>
</g>
</g>
<!-- Node3&#45;&gt;Node4 -->
<g id="edge3" class="edge">
<title>Node3&#45;&gt;Node4</title>
<path fill="none" stroke="midnightblue" d="M348.15,-133.08C299.63,-120.26 232.35,-102.48 192.92,-92.07"/>
<polygon fill="midnightblue" stroke="midnightblue" points="347.34,-136.49 357.9,-135.66 349.12,-129.72 347.34,-136.49"/>
</g>
<!-- Node6 -->
<g id="node6" class="node">
<title>Node6</title>
<g id="a_node6"><a xlink:href="f__pc__create__req_8cpp.html" target="_top" xlink:title=" ">
<polygon fill="white" stroke="black" points="1230.5,-0.5 1230.5,-30.5 1342.5,-30.5 1342.5,-0.5 1230.5,-0.5"/>
<text text-anchor="start" x="1238.5" y="-18.5" font-family="Helvetica,sans-Serif" font-size="10.00">src/f/f_pc/f_pc_create</text>
<text text-anchor="middle" x="1286.5" y="-7.5" font-family="Helvetica,sans-Serif" font-size="10.00">_req.cpp</text>
</a>
</g>
</g>
<!-- Node5&#45;&gt;Node6 -->
<g id="edge5" class="edge">
<title>Node5&#45;&gt;Node6</title>
<path fill="none" stroke="midnightblue" d="M591.71,-129.95C559.4,-114.03 524.96,-90.06 546.5,-67 569.79,-42.06 1061.99,-23.8 1230.5,-18.25"/>
<polygon fill="midnightblue" stroke="midnightblue" points="590.62,-133.31 601.15,-134.42 593.61,-126.98 590.62,-133.31"/>
</g>
<!-- Node7 -->
<g id="node7" class="node">
<title>Node7</title>
<g id="a_node7"><a xlink:href="f__pc__deletor_8cpp.html" target="_top" xlink:title=" ">
<polygon fill="white" stroke="black" points="871.5,-73 871.5,-92 1003.5,-92 1003.5,-73 871.5,-73"/>
<text text-anchor="middle" x="937.5" y="-80" font-family="Helvetica,sans-Serif" font-size="10.00">src/f/f_pc/f_pc_deletor.cpp</text>
</a>
</g>
</g>
<!-- Node5&#45;&gt;Node7 -->
<g id="edge6" class="edge">
<title>Node5&#45;&gt;Node7</title>
<path fill="none" stroke="midnightblue" d="M695.26,-135.81C755.11,-122.89 846.26,-103.2 898,-92.03"/>
<polygon fill="midnightblue" stroke="midnightblue" points="694.23,-132.45 685.2,-137.98 695.71,-139.29 694.23,-132.45"/>
</g>
<!-- Node8 -->
<g id="node8" class="node">
<title>Node8</title>
<g id="a_node8"><a xlink:href="f__pc__executor_8cpp.html" target="_top" xlink:title=" ">
<polygon fill="white" stroke="black" points="713.5,-73 713.5,-92 853.5,-92 853.5,-73 713.5,-73"/>
<text text-anchor="middle" x="783.5" y="-80" font-family="Helvetica,sans-Serif" font-size="10.00">src/f/f_pc/f_pc_executor.cpp</text>
</a>
</g>
</g>
<!-- Node5&#45;&gt;Node8 -->
<g id="edge7" class="edge">
<title>Node5&#45;&gt;Node8</title>
<path fill="none" stroke="midnightblue" d="M677.67,-130.3C706.02,-117.76 742.38,-101.68 764.26,-92.01"/>
<polygon fill="midnightblue" stroke="midnightblue" points="676.13,-127.15 668.4,-134.4 678.96,-133.55 676.13,-127.15"/>
</g>
<!-- Node9 -->
<g id="node9" class="node">
<title>Node9</title>
<g id="a_node9"><a xlink:href="f__pc__manager_8cpp.html" target="_top" xlink:title=" ">
<polygon fill="white" stroke="black" points="555.5,-73 555.5,-92 695.5,-92 695.5,-73 555.5,-73"/>
<text text-anchor="middle" x="625.5" y="-80" font-family="Helvetica,sans-Serif" font-size="10.00">src/f/f_pc/f_pc_manager.cpp</text>
</a>
</g>
</g>
<!-- Node5&#45;&gt;Node9 -->
<g id="edge8" class="edge">
<title>Node5&#45;&gt;Node9</title>
<path fill="none" stroke="midnightblue" d="M632.4,-124.25C630.5,-113.02 628.36,-100.38 626.97,-92.19"/>
<polygon fill="midnightblue" stroke="midnightblue" points="628.99,-125.12 634.11,-134.4 635.9,-123.95 628.99,-125.12"/>
</g>
<!-- Node10 -->
<g id="node10" class="node">
<title>Node10</title>
<g id="a_node10"><a xlink:href="f__pc__node__req_8cpp.html" target="_top" xlink:title=" ">
<polygon fill="white" stroke="black" points="393.5,-67.5 393.5,-97.5 499.5,-97.5 499.5,-67.5 393.5,-67.5"/>
<text text-anchor="start" x="401.5" y="-85.5" font-family="Helvetica,sans-Serif" font-size="10.00">src/f/f_pc/f_pc_node</text>
<text text-anchor="middle" x="446.5" y="-74.5" font-family="Helvetica,sans-Serif" font-size="10.00">_req.cpp</text>
</a>
</g>
</g>
<!-- Node5&#45;&gt;Node10 -->
<g id="edge9" class="edge">
<title>Node5&#45;&gt;Node10</title>
<path fill="none" stroke="midnightblue" d="M585.61,-131.09C554.94,-120.6 516.39,-107.41 487.65,-97.58"/>
<polygon fill="midnightblue" stroke="midnightblue" points="584.68,-134.47 595.27,-134.4 586.94,-127.85 584.68,-134.47"/>
</g>
<!-- Node11 -->
<g id="node11" class="node">
<title>Node11</title>
<g id="a_node11"><a xlink:href="f__op__actor__mng_8h.html" target="_top" xlink:title=" ">
<polygon fill="white" stroke="black" points="279,-67.5 279,-97.5 376,-97.5 376,-67.5 279,-67.5"/>
<text text-anchor="start" x="287" y="-85.5" font-family="Helvetica,sans-Serif" font-size="10.00">include/f/f_op/f_op</text>
<text text-anchor="middle" x="327.5" y="-74.5" font-family="Helvetica,sans-Serif" font-size="10.00">_actor_mng.h</text>
</a>
</g>
</g>
<!-- Node5&#45;&gt;Node11 -->
<g id="edge10" class="edge">
<title>Node5&#45;&gt;Node11</title>
<path fill="none" stroke="midnightblue" d="M577.8,-133.94C491.09,-115.44 467.06,-116.14 384.5,-98 381.81,-97.41 379.05,-96.78 376.27,-96.13"/>
<polygon fill="midnightblue" stroke="midnightblue" points="577.3,-137.41 587.82,-136.1 578.78,-130.57 577.3,-137.41"/>
</g>
<!-- Node12 -->
<g id="node12" class="node">
<title>Node12</title>
<g id="a_node12"><a xlink:href="d__attention_8cpp.html" target="_top" xlink:title=" ">
<polygon fill="white" stroke="black" points="411,-6 411,-25 518,-25 518,-6 411,-6"/>
<text text-anchor="middle" x="464.5" y="-13" font-family="Helvetica,sans-Serif" font-size="10.00">src/d/d_attention.cpp</text>
</a>
</g>
</g>
<!-- Node11&#45;&gt;Node12 -->
<g id="edge11" class="edge">
<title>Node11&#45;&gt;Node12</title>
<path fill="none" stroke="midnightblue" d="M366.56,-62.97C392.88,-50.48 426.36,-34.6 446.57,-25.01"/>
<polygon fill="midnightblue" stroke="midnightblue" points="364.76,-59.95 357.23,-67.4 367.76,-66.27 364.76,-59.95"/>
</g>
<!-- Node13 -->
<g id="node13" class="node">
<title>Node13</title>
<g id="a_node13"><a xlink:href="d__camera_8cpp.html" target="_top" xlink:title=" ">
<polygon fill="white" stroke="black" points="535.5,-6 535.5,-25 637.5,-25 637.5,-6 535.5,-6"/>
<text text-anchor="middle" x="586.5" y="-13" font-family="Helvetica,sans-Serif" font-size="10.00">src/d/d_camera.cpp</text>
</a>
</g>
</g>
<!-- Node11&#45;&gt;Node13 -->
<g id="edge12" class="edge">
<title>Node11&#45;&gt;Node13</title>
<path fill="none" stroke="midnightblue" d="M385.88,-66.66C450.02,-50.5 513.94,-34.55 552.18,-25.03"/>
<polygon fill="midnightblue" stroke="midnightblue" points="384.85,-63.31 376.01,-69.15 386.56,-70.1 384.85,-63.31"/>
</g>
<!-- Node14 -->
<g id="node14" class="node">
<title>Node14</title>
<g id="a_node14"><a xlink:href="d__stage_8cpp.html" target="_top" xlink:title=" ">
<polygon fill="white" stroke="black" points="655.5,-6 655.5,-25 749.5,-25 749.5,-6 655.5,-6"/>
<text text-anchor="middle" x="702.5" y="-13" font-family="Helvetica,sans-Serif" font-size="10.00">src/d/d_stage.cpp</text>
</a>
</g>
</g>
<!-- Node11&#45;&gt;Node14 -->
<g id="edge13" class="edge">
<title>Node11&#45;&gt;Node14</title>
<path fill="none" stroke="midnightblue" d="M386.17,-66.8C501.64,-44.96 534.34,-53.15 646.5,-31 654.87,-29.35 663.86,-27.19 672.13,-25.05"/>
<polygon fill="midnightblue" stroke="midnightblue" points="385.39,-63.39 376.24,-68.72 386.72,-70.26 385.39,-63.39"/>
</g>
<!-- Node15 -->
<g id="node15" class="node">
<title>Node15</title>
<g id="a_node15"><a xlink:href="d__a__alink_8cpp.html" target="_top" xlink:title=" ">
<polygon fill="white" stroke="black" points="0,-6 0,-25 119,-25 119,-6 0,-6"/>
<text text-anchor="middle" x="59.5" y="-13" font-family="Helvetica,sans-Serif" font-size="10.00">src/d/d_a/d_a_alink.cpp</text>
</a>
</g>
</g>
<!-- Node11&#45;&gt;Node15 -->
<g id="edge14" class="edge">
<title>Node11&#45;&gt;Node15</title>
<path fill="none" stroke="midnightblue" d="M269,-67.31C215.86,-54.42 139.19,-35.83 94.85,-25.07"/>
<polygon fill="midnightblue" stroke="midnightblue" points="268.42,-70.77 278.97,-69.73 270.07,-63.97 268.42,-70.77"/>
</g>
<!-- Node16 -->
<g id="node16" class="node">
<title>Node16</title>
<g id="a_node16"><a xlink:href="f__op__actor__mng_8cpp.html" target="_top" xlink:title=" ">
<polygon fill="white" stroke="black" points="137,-0.5 137,-30.5 244,-30.5 244,-0.5 137,-0.5"/>
<text text-anchor="start" x="145" y="-18.5" font-family="Helvetica,sans-Serif" font-size="10.00">src/f/f_op/f_op_actor</text>
<text text-anchor="middle" x="190.5" y="-7.5" font-family="Helvetica,sans-Serif" font-size="10.00">_mng.cpp</text>
</a>
</g>
</g>
<!-- Node11&#45;&gt;Node16 -->
<g id="edge15" class="edge">
<title>Node11&#45;&gt;Node16</title>
<path fill="none" stroke="midnightblue" d="M288.49,-62.99C266.78,-52.69 240.17,-40.07 220.17,-30.58"/>
<polygon fill="midnightblue" stroke="midnightblue" points="287.24,-66.27 297.77,-67.4 290.24,-59.95 287.24,-66.27"/>
</g>
<!-- Node17 -->
<g id="node17" class="node">
<title>Node17</title>
<g id="a_node17"><a xlink:href="m__Do__main_8cpp.html" target="_top" xlink:title=" ">
<polygon fill="white" stroke="black" points="262,-6 262,-25 393,-25 393,-6 262,-6"/>
<text text-anchor="middle" x="327.5" y="-13" font-family="Helvetica,sans-Serif" font-size="10.00">src/m_Do/m_Do_main.cpp</text>
</a>
</g>
</g>
<!-- Node11&#45;&gt;Node17 -->
<g id="edge16" class="edge">
<title>Node11&#45;&gt;Node17</title>
<path fill="none" stroke="midnightblue" d="M327.5,-57.25C327.5,-46.02 327.5,-33.38 327.5,-25.19"/>
<polygon fill="midnightblue" stroke="midnightblue" points="324,-57.4 327.5,-67.4 331,-57.4 324,-57.4"/>
</g>
<!-- Node18&#45;&gt;Node7 -->
<g id="edge18" class="edge">
<title>Node18&#45;&gt;Node7</title>
<path fill="none" stroke="midnightblue" d="M937.5,-124.25C937.5,-113.02 937.5,-100.38 937.5,-92.19"/>
<polygon fill="midnightblue" stroke="midnightblue" points="934,-124.4 937.5,-134.4 941,-124.4 934,-124.4"/>
</g>
<!-- Node18&#45;&gt;Node8 -->
<g id="edge19" class="edge">
<title>Node18&#45;&gt;Node8</title>
<path fill="none" stroke="midnightblue" d="M894.76,-130.46C865,-117.9 826.68,-101.72 803.66,-92.01"/>
<polygon fill="midnightblue" stroke="midnightblue" points="893.51,-133.73 904.08,-134.4 896.23,-127.28 893.51,-133.73"/>
</g>
<!-- Node18&#45;&gt;Node9 -->
<g id="edge21" class="edge">
<title>Node18&#45;&gt;Node9</title>
<path fill="none" stroke="midnightblue" d="M878.73,-136.26C816.74,-123.34 720.7,-103.33 666.45,-92.03"/>
<polygon fill="midnightblue" stroke="midnightblue" points="878.25,-139.73 888.75,-138.34 879.67,-132.88 878.25,-139.73"/>
</g>
<!-- Node19 -->
<g id="node19" class="node">
<title>Node19</title>
<g id="a_node19"><a xlink:href="f__pc__layer__iter_8cpp.html" target="_top" xlink:title=" ">
<polygon fill="white" stroke="black" points="1312,-67.5 1312,-97.5 1417,-97.5 1417,-67.5 1312,-67.5"/>
<text text-anchor="start" x="1320" y="-85.5" font-family="Helvetica,sans-Serif" font-size="10.00">src/f/f_pc/f_pc_layer</text>
<text text-anchor="middle" x="1364.5" y="-74.5" font-family="Helvetica,sans-Serif" font-size="10.00">_iter.cpp</text>
</a>
</g>
</g>
<!-- Node18&#45;&gt;Node19 -->
<g id="edge20" class="edge">
<title>Node18&#45;&gt;Node19</title>
<path fill="none" stroke="midnightblue" d="M996.42,-142.04C1068.8,-133.72 1195.19,-117.93 1302.5,-98 1305.54,-97.43 1308.66,-96.82 1311.8,-96.17"/>
<polygon fill="midnightblue" stroke="midnightblue" points="995.68,-138.61 986.14,-143.22 996.48,-145.56 995.68,-138.61"/>
</g>
<!-- Node20 -->
<g id="node20" class="node">
<title>Node20</title>
<g id="a_node20"><a xlink:href="f__pc__node_8cpp.html" target="_top" xlink:title=" ">
<polygon fill="white" stroke="black" points="1169.5,-73 1169.5,-92 1293.5,-92 1293.5,-73 1169.5,-73"/>
<text text-anchor="middle" x="1231.5" y="-80" font-family="Helvetica,sans-Serif" font-size="10.00">src/f/f_pc/f_pc_node.cpp</text>
</a>
</g>
</g>
<!-- Node18&#45;&gt;Node20 -->
<g id="edge22" class="edge">
<title>Node18&#45;&gt;Node20</title>
<path fill="none" stroke="midnightblue" d="M995.87,-135.59C1054.28,-122.68 1142.47,-103.18 1192.75,-92.07"/>
<polygon fill="midnightblue" stroke="midnightblue" points="995.06,-132.19 986.05,-137.77 996.57,-139.03 995.06,-132.19"/>
</g>
<!-- Node21 -->
<g id="node21" class="node">
<title>Node21</title>
<g id="a_node21"><a xlink:href="f__pc__pause_8cpp.html" target="_top" xlink:title=" ">
<polygon fill="white" stroke="black" points="1022,-73 1022,-92 1151,-92 1151,-73 1022,-73"/>
<text text-anchor="middle" x="1086.5" y="-80" font-family="Helvetica,sans-Serif" font-size="10.00">src/f/f_pc/f_pc_pause.cpp</text>
</a>
</g>
</g>
<!-- Node18&#45;&gt;Node21 -->
<g id="edge23" class="edge">
<title>Node18&#45;&gt;Node21</title>
<path fill="none" stroke="midnightblue" d="M979.23,-130.3C1007.97,-117.76 1044.82,-101.68 1067,-92.01"/>
<polygon fill="midnightblue" stroke="midnightblue" points="977.6,-127.19 969.83,-134.4 980.4,-133.61 977.6,-127.19"/>
</g>
<!-- Node22&#45;&gt;Node8 -->
<g id="edge25" class="edge">
<title>Node22&#45;&gt;Node8</title>
<path fill="none" stroke="midnightblue" d="M776.6,-124.25C778.5,-113.02 780.64,-100.38 782.03,-92.19"/>
<polygon fill="midnightblue" stroke="midnightblue" points="773.1,-123.95 774.89,-134.4 780.01,-125.12 773.1,-123.95"/>
</g>
<!-- Node22&#45;&gt;Node9 -->
<g id="edge26" class="edge">
<title>Node22&#45;&gt;Node9</title>
<path fill="none" stroke="midnightblue" d="M731.33,-130.3C702.98,-117.76 666.62,-101.68 644.74,-92.01"/>
<polygon fill="midnightblue" stroke="midnightblue" points="730.04,-133.55 740.6,-134.4 732.87,-127.15 730.04,-133.55"/>
</g>
<!-- Node23&#45;&gt;Node9 -->
<g id="edge29" class="edge">
<title>Node23&#45;&gt;Node9</title>
<path fill="none" stroke="midnightblue" d="M552.74,-128.97C572.46,-116.65 596.95,-101.35 611.89,-92.01"/>
<polygon fill="midnightblue" stroke="midnightblue" points="550.69,-126.13 544.07,-134.4 554.4,-132.06 550.69,-126.13"/>
</g>
<!-- Node23&#45;&gt;Node11 -->
<g id="edge30" class="edge">
<title>Node23&#45;&gt;Node11</title>
<path fill="none" stroke="midnightblue" d="M469.54,-131.09C438.23,-120.6 398.86,-107.41 369.51,-97.58"/>
<polygon fill="midnightblue" stroke="midnightblue" points="468.81,-134.54 479.4,-134.4 471.03,-127.9 468.81,-134.54"/>
</g>
<!-- Node23&#45;&gt;Node15 -->
<g id="edge28" class="edge">
<title>Node23&#45;&gt;Node15</title>
<path fill="none" stroke="midnightblue" d="M462.77,-134C375.67,-116.69 346.19,-133.53 269.5,-98 249.72,-88.84 250.78,-77.16 231.5,-67 207.68,-54.45 137.51,-35.8 94.51,-25.03"/>
<polygon fill="midnightblue" stroke="midnightblue" points="462.31,-137.48 472.82,-136.1 463.74,-130.63 462.31,-137.48"/>
</g>
<!-- Node24&#45;&gt;Node7 -->
<g id="edge33" class="edge">
<title>Node24&#45;&gt;Node7</title>
<path fill="none" stroke="midnightblue" d="M1815.44,-143.08C1779.84,-140.16 1734.73,-136.64 1694.5,-134 1391.62,-114.14 1313.78,-134.9 1012.5,-98 1000.65,-96.55 987.87,-94.33 976.26,-92.05"/>
<polygon fill="midnightblue" stroke="midnightblue" points="1815.44,-146.59 1825.69,-143.92 1816.01,-139.61 1815.44,-146.59"/>
</g>
<!-- Node25 -->
<g id="node25" class="node">
<title>Node25</title>
<g id="a_node25"><a xlink:href="f__op__actor__iter_8cpp.html" target="_top" xlink:title=" ">
<polygon fill="white" stroke="black" points="1706,-67.5 1706,-97.5 1813,-97.5 1813,-67.5 1706,-67.5"/>
<text text-anchor="start" x="1714" y="-85.5" font-family="Helvetica,sans-Serif" font-size="10.00">src/f/f_op/f_op_actor</text>
<text text-anchor="middle" x="1759.5" y="-74.5" font-family="Helvetica,sans-Serif" font-size="10.00">_iter.cpp</text>
</a>
</g>
</g>
<!-- Node24&#45;&gt;Node25 -->
<g id="edge32" class="edge">
<title>Node24&#45;&gt;Node25</title>
<path fill="none" stroke="midnightblue" d="M1844.56,-129.57C1825.68,-119.35 1802.77,-106.94 1785.49,-97.58"/>
<polygon fill="midnightblue" stroke="midnightblue" points="1843,-132.71 1853.46,-134.4 1846.34,-126.56 1843,-132.71"/>
</g>
<!-- Node26 -->
<g id="node26" class="node">
<title>Node26</title>
<g id="a_node26"><a xlink:href="c__list__iter_8cpp.html" target="_top" xlink:title=" ">
<polygon fill="white" stroke="black" points="2098.5,-67.5 2098.5,-97.5 2232.5,-97.5 2232.5,-67.5 2098.5,-67.5"/>
<text text-anchor="start" x="2106.5" y="-85.5" font-family="Helvetica,sans-Serif" font-size="10.00">libs/SSystem/SComponent</text>
<text text-anchor="middle" x="2165.5" y="-74.5" font-family="Helvetica,sans-Serif" font-size="10.00">/c_list_iter.cpp</text>
</a>
</g>
</g>
<!-- Node24&#45;&gt;Node26 -->
<g id="edge34" class="edge">
<title>Node24&#45;&gt;Node26</title>
<path fill="none" stroke="midnightblue" d="M1943.24,-134.01C1991.13,-123.13 2056.35,-108.31 2103.75,-97.53"/>
<polygon fill="midnightblue" stroke="midnightblue" points="1942.27,-130.64 1933.29,-136.27 1943.82,-137.47 1942.27,-130.64"/>
</g>
<!-- Node27 -->
<g id="node27" class="node">
<title>Node27</title>
<g id="a_node27"><a xlink:href="c__tree__iter_8cpp.html" target="_top" xlink:title=" ">
<polygon fill="white" stroke="black" points="1946.5,-67.5 1946.5,-97.5 2080.5,-97.5 2080.5,-67.5 1946.5,-67.5"/>
<text text-anchor="start" x="1954.5" y="-85.5" font-family="Helvetica,sans-Serif" font-size="10.00">libs/SSystem/SComponent</text>
<text text-anchor="middle" x="2013.5" y="-74.5" font-family="Helvetica,sans-Serif" font-size="10.00">/c_tree_iter.cpp</text>
</a>
</g>
</g>
<!-- Node24&#45;&gt;Node27 -->
<g id="edge35" class="edge">
<title>Node24&#45;&gt;Node27</title>
<path fill="none" stroke="midnightblue" d="M1917.65,-129.99C1938.89,-119.69 1964.91,-107.07 1984.48,-97.58"/>
<polygon fill="midnightblue" stroke="midnightblue" points="1916.05,-126.88 1908.58,-134.4 1919.1,-133.18 1916.05,-126.88"/>
</g>
<!-- Node28 -->
<g id="node28" class="node">
<title>Node28</title>
<g id="a_node28"><a xlink:href="f__pc__create__iter_8h.html" target="_top" xlink:title=" ">
<polygon fill="white" stroke="black" points="1831,-67.5 1831,-97.5 1928,-97.5 1928,-67.5 1831,-67.5"/>
<text text-anchor="start" x="1839" y="-85.5" font-family="Helvetica,sans-Serif" font-size="10.00">include/f/f_pc/f_pc</text>
<text text-anchor="middle" x="1879.5" y="-74.5" font-family="Helvetica,sans-Serif" font-size="10.00">_create_iter.h</text>
</a>
</g>
</g>
<!-- Node24&#45;&gt;Node28 -->
<g id="edge36" class="edge">
<title>Node24&#45;&gt;Node28</title>
<path fill="none" stroke="midnightblue" d="M1879.5,-124.11C1879.5,-115.15 1879.5,-105.32 1879.5,-97.58"/>
<polygon fill="midnightblue" stroke="midnightblue" points="1876,-124.4 1879.5,-134.4 1883,-124.4 1876,-124.4"/>
</g>
<!-- Node30 -->
<g id="node30" class="node">
<title>Node30</title>
<g id="a_node30"><a xlink:href="f__pc__method__iter_8h.html" target="_top" xlink:title=" ">
<polygon fill="white" stroke="black" points="2251,-67.5 2251,-97.5 2348,-97.5 2348,-67.5 2251,-67.5"/>
<text text-anchor="start" x="2259" y="-85.5" font-family="Helvetica,sans-Serif" font-size="10.00">include/f/f_pc/f_pc</text>
<text text-anchor="middle" x="2299.5" y="-74.5" font-family="Helvetica,sans-Serif" font-size="10.00">_method_iter.h</text>
</a>
</g>
</g>
<!-- Node24&#45;&gt;Node30 -->
<g id="edge39" class="edge">
<title>Node24&#45;&gt;Node30</title>
<path fill="none" stroke="midnightblue" d="M1943.5,-141.66C2016.11,-133.41 2137.9,-118.12 2241.5,-98 2244.56,-97.41 2247.69,-96.75 2250.85,-96.06"/>
<polygon fill="midnightblue" stroke="midnightblue" points="1942.7,-138.22 1933.16,-142.82 1943.49,-145.18 1942.7,-138.22"/>
</g>
<!-- Node28&#45;&gt;Node6 -->
<g id="edge38" class="edge">
<title>Node28&#45;&gt;Node6</title>
<path fill="none" stroke="midnightblue" d="M1820.96,-67.09C1640.92,-36.89 1438.81,-23.92 1342.71,-19.01"/>
<polygon fill="midnightblue" stroke="midnightblue" points="1820.43,-70.55 1830.88,-68.78 1821.61,-63.65 1820.43,-70.55"/>
</g>
<!-- Node29 -->
<g id="node29" class="node">
<title>Node29</title>
<g id="a_node29"><a xlink:href="f__pc__create__iter_8cpp.html" target="_top" xlink:title=" ">
<polygon fill="white" stroke="black" points="1823.5,-0.5 1823.5,-30.5 1935.5,-30.5 1935.5,-0.5 1823.5,-0.5"/>
<text text-anchor="start" x="1831.5" y="-18.5" font-family="Helvetica,sans-Serif" font-size="10.00">src/f/f_pc/f_pc_create</text>
<text text-anchor="middle" x="1879.5" y="-7.5" font-family="Helvetica,sans-Serif" font-size="10.00">_iter.cpp</text>
</a>
</g>
</g>
<!-- Node28&#45;&gt;Node29 -->
<g id="edge37" class="edge">
<title>Node28&#45;&gt;Node29</title>
<path fill="none" stroke="midnightblue" d="M1879.5,-57.11C1879.5,-48.15 1879.5,-38.32 1879.5,-30.58"/>
<polygon fill="midnightblue" stroke="midnightblue" points="1876,-57.4 1879.5,-67.4 1883,-57.4 1876,-57.4"/>
</g>
<!-- Node31 -->
<g id="node31" class="node">
<title>Node31</title>
<g id="a_node31"><a xlink:href="f__pc__layer_8cpp.html" target="_top" xlink:title=" ">
<polygon fill="white" stroke="black" points="2169,-6 2169,-25 2292,-25 2292,-6 2169,-6"/>
<text text-anchor="middle" x="2230.5" y="-13" font-family="Helvetica,sans-Serif" font-size="10.00">src/f/f_pc/f_pc_layer.cpp</text>
</a>
</g>
</g>
<!-- Node30&#45;&gt;Node31 -->
<g id="edge40" class="edge">
<title>Node30&#45;&gt;Node31</title>
<path fill="none" stroke="midnightblue" d="M2277.03,-60.34C2264.36,-48.4 2249.22,-34.14 2239.73,-25.19"/>
<polygon fill="midnightblue" stroke="midnightblue" points="2274.85,-63.09 2284.53,-67.4 2279.65,-57.99 2274.85,-63.09"/>
</g>
<!-- Node32 -->
<g id="node32" class="node">
<title>Node32</title>
<g id="a_node32"><a xlink:href="f__pc__method__iter_8cpp.html" target="_top" xlink:title=" ">
<polygon fill="white" stroke="black" points="2310,-0.5 2310,-30.5 2427,-30.5 2427,-0.5 2310,-0.5"/>
<text text-anchor="start" x="2318" y="-18.5" font-family="Helvetica,sans-Serif" font-size="10.00">src/f/f_pc/f_pc_method</text>
<text text-anchor="middle" x="2368.5" y="-7.5" font-family="Helvetica,sans-Serif" font-size="10.00">_iter.cpp</text>
</a>
</g>
</g>
<!-- Node30&#45;&gt;Node32 -->
<g id="edge41" class="edge">
<title>Node30&#45;&gt;Node32</title>
<path fill="none" stroke="midnightblue" d="M2321.99,-60.31C2332.34,-50.56 2344.34,-39.26 2353.56,-30.58"/>
<polygon fill="midnightblue" stroke="midnightblue" points="2319.35,-57.99 2314.47,-67.4 2324.15,-63.09 2319.35,-57.99"/>
</g>
<!-- Node33&#45;&gt;Node19 -->
<g id="edge44" class="edge">
<title>Node33&#45;&gt;Node19</title>
<path fill="none" stroke="midnightblue" d="M1464.93,-130.13C1442.69,-119.8 1415.35,-107.11 1394.82,-97.58"/>
<polygon fill="midnightblue" stroke="midnightblue" points="1463.58,-133.36 1474.12,-134.4 1466.53,-127.01 1463.58,-133.36"/>
</g>
<!-- Node33&#45;&gt;Node25 -->
<g id="edge43" class="edge">
<title>Node33&#45;&gt;Node25</title>
<path fill="none" stroke="midnightblue" d="M1568.2,-132.26C1610.59,-121.46 1665.65,-107.42 1705.81,-97.19"/>
<polygon fill="midnightblue" stroke="midnightblue" points="1567.09,-128.93 1558.27,-134.79 1568.82,-135.72 1567.09,-128.93"/>
</g>
<!-- Node33&#45;&gt;Node28 -->
<g id="edge47" class="edge">
<title>Node33&#45;&gt;Node28</title>
<path fill="none" stroke="midnightblue" d="M1568.47,-134.19C1568.82,-134.13 1569.16,-134.06 1569.5,-134 1680.8,-113.67 1710.47,-119.75 1821.5,-98 1824.56,-97.4 1827.69,-96.74 1830.85,-96.05"/>
<polygon fill="midnightblue" stroke="midnightblue" points="1567.5,-130.81 1558.35,-136.15 1568.83,-137.68 1567.5,-130.81"/>
</g>
<!-- Node34 -->
<g id="node34" class="node">
<title>Node34</title>
<g id="a_node34"><a xlink:href="f__pc__line__iter_8cpp.html" target="_top" xlink:title=" ">
<polygon fill="white" stroke="black" points="1587.5,-67.5 1587.5,-97.5 1687.5,-97.5 1687.5,-67.5 1587.5,-67.5"/>
<text text-anchor="start" x="1595.5" y="-85.5" font-family="Helvetica,sans-Serif" font-size="10.00">src/f/f_pc/f_pc_line</text>
<text text-anchor="middle" x="1637.5" y="-74.5" font-family="Helvetica,sans-Serif" font-size="10.00">_iter.cpp</text>
</a>
</g>
</g>
<!-- Node33&#45;&gt;Node34 -->
<g id="edge45" class="edge">
<title>Node33&#45;&gt;Node34</title>
<path fill="none" stroke="midnightblue" d="M1542.37,-129.99C1563.45,-119.69 1589.28,-107.07 1608.7,-97.58"/>
<polygon fill="midnightblue" stroke="midnightblue" points="1540.81,-126.86 1533.36,-134.4 1543.88,-133.15 1540.81,-126.86"/>
</g>
<!-- Node35 -->
<g id="node35" class="node">
<title>Node35</title>
<g id="a_node35"><a xlink:href="c__tag__iter_8cpp.html" target="_top" xlink:title=" ">
<polygon fill="white" stroke="black" points="1435.5,-67.5 1435.5,-97.5 1569.5,-97.5 1569.5,-67.5 1435.5,-67.5"/>
<text text-anchor="start" x="1443.5" y="-85.5" font-family="Helvetica,sans-Serif" font-size="10.00">libs/SSystem/SComponent</text>
<text text-anchor="middle" x="1502.5" y="-74.5" font-family="Helvetica,sans-Serif" font-size="10.00">/c_tag_iter.cpp</text>
</a>
</g>
</g>
<!-- Node33&#45;&gt;Node35 -->
<g id="edge46" class="edge">
<title>Node33&#45;&gt;Node35</title>
<path fill="none" stroke="midnightblue" d="M1503.75,-124.11C1503.47,-115.15 1503.17,-105.32 1502.93,-97.58"/>
<polygon fill="midnightblue" stroke="midnightblue" points="1500.26,-124.51 1504.07,-134.4 1507.26,-124.29 1500.26,-124.51"/>
</g>
<!-- Node36&#45;&gt;Node19 -->
<g id="edge49" class="edge">
<title>Node36&#45;&gt;Node19</title>
<path fill="none" stroke="midnightblue" d="M1568.98,-133.09C1522.66,-121.86 1460.63,-106.82 1417.08,-96.25"/>
<polygon fill="midnightblue" stroke="midnightblue" points="1568.37,-136.55 1578.91,-135.5 1570.02,-129.74 1568.37,-136.55"/>
</g>
<!-- Node36&#45;&gt;Node27 -->
<g id="edge51" class="edge">
<title>Node36&#45;&gt;Node27</title>
<path fill="none" stroke="midnightblue" d="M1696.05,-138.35C1757.6,-128.43 1853.54,-112.7 1936.5,-98 1939.71,-97.43 1943,-96.84 1946.32,-96.24"/>
<polygon fill="midnightblue" stroke="midnightblue" points="1695.42,-134.91 1686.1,-139.95 1696.53,-141.82 1695.42,-134.91"/>
</g>
<!-- Node36&#45;&gt;Node34 -->
<g id="edge50" class="edge">
<title>Node36&#45;&gt;Node34</title>
<path fill="none" stroke="midnightblue" d="M1634.35,-124.4C1635.05,-115.37 1635.81,-105.41 1636.42,-97.58"/>
<polygon fill="midnightblue" stroke="midnightblue" points="1630.86,-124.16 1633.58,-134.4 1637.84,-124.69 1630.86,-124.16"/>
</g>
</g>
</svg>
        <g id="navigator" transform="translate(0 0)" fill="#404254">
                <rect fill="#f2f5e9" fill-opacity="0.5" stroke="#606060" stroke-width=".5" x="0" y="0" width="60" height="60"/>
                <use id="zoomplus" xlink:href="#zoomPlus" x="17" y="9" onmousedown="handleZoom(evt,'in')"/>
                <use id="zoomminus" xlink:href="#zoomMin" x="42" y="9" onmousedown="handleZoom(evt,'out')"/>
                <use id="reset" xlink:href="#resetDef" x="30" y="36" onmousedown="handleReset()"/>
                <g id="arrowUp" xlink:href="#dirArrow" transform="translate(30 24)" onmousedown="handlePan(0,-1)">
                  <use xlink:href="#rim" fill="#404040">
                        <set attributeName="fill" to="#808080" begin="arrowUp.mouseover" end="arrowUp.mouseout"/>
                  </use>
                  <path fill="none" stroke="white" stroke-width="1.5" d="M0,-3.0v7 M-2.5,-0.5L0,-3.0L2.5,-0.5"/>
                </g>
                <g id="arrowRight" xlink:href="#dirArrow" transform="rotate(90) translate(36 -43)" onmousedown="handlePan(1,0)">
                  <use xlink:href="#rim" fill="#404040">
                        <set attributeName="fill" to="#808080" begin="arrowRight.mouseover" end="arrowRight.mouseout"/>
                  </use>
                  <path fill="none" stroke="white" stroke-width="1.5" d="M0,-3.0v7 M-2.5,-0.5L0,-3.0L2.5,-0.5"/>
                </g>
                <g id="arrowDown" xlink:href="#dirArrow" transform="rotate(180) translate(-30 -48)" onmousedown="handlePan(0,1)">
                  <use xlink:href="#rim" fill="#404040">
                        <set attributeName="fill" to="#808080" begin="arrowDown.mouseover" end="arrowDown.mouseout"/>
                  </use>
                  <path fill="none" stroke="white" stroke-width="1.5" d="M0,-3.0v7 M-2.5,-0.5L0,-3.0L2.5,-0.5"/>
                </g>
                <g id="arrowLeft" xlink:href="#dirArrow" transform="rotate(270) translate(-36 17)" onmousedown="handlePan(-1,0)">
                  <use xlink:href="#rim" fill="#404040">
                        <set attributeName="fill" to="#808080" begin="arrowLeft.mouseover" end="arrowLeft.mouseout"/>
                  </use>
                  <path fill="none" stroke="white" stroke-width="1.5" d="M0,-3.0v7 M-2.5,-0.5L0,-3.0L2.5,-0.5"/>
                </g>
        </g>
        <svg viewBox="0 0 15 15" width="100%" height="30px" preserveAspectRatio="xMaxYMin meet">
         <g id="arrow_out" transform="scale(0.3 0.3)">
          <a xlink:href="c__node__iter_8h__dep__incl_org.svg" target="_base">
           <rect id="button" ry="5" rx="5" y="6" x="6" height="38" width="38"
                fill="#f2f5e9" fill-opacity="0.5" stroke="#606060" stroke-width="1.0"/>
           <path id="arrow"
             d="M 11.500037,31.436501 C 11.940474,20.09759 22.043105,11.32322 32.158766,21.979434 L 37.068811,17.246167 C 37.068811,17.246167 37.088388,32 37.088388,32 L 22.160133,31.978069 C 22.160133,31.978069 26.997745,27.140456 26.997745,27.140456 C 18.528582,18.264221 13.291696,25.230495 11.500037,31.436501 z"
             style="fill:#404040;"/>
          </a>
         </g>
        </svg>
</svg>
