<?xml version="1.0" encoding="UTF-8" standalone="no"?>
<!DOCTYPE svg PUBLIC "-//W3C//DTD SVG 1.1//EN"
 "http://www.w3.org/Graphics/SVG/1.1/DTD/svg11.dtd">
<!-- Generated by graphviz version 2.47.0 (20210316.2052)
 -->
<!-- Title: include/SComponent/c_phase.h Pages: 1 -->
<!--zoomable 307 -->
<svg id="main" version="1.1" xmlns="http://www.w3.org/2000/svg" xmlns:xlink="http://www.w3.org/1999/xlink" xml:space="preserve" onload="init(evt)">
<style type="text/css"><![CDATA[
.edge:hover path { stroke: red; }
.edge:hover polygon { stroke: red; fill: red; }
]]></style>
<script type="text/javascript"><![CDATA[
var edges = document.getElementsByTagName('g');
if (edges && edges.length) {
  for (var i=0;i<edges.length;i++) {
    if (edges[i].id.substr(0,4)=='edge') {
      edges[i].setAttribute('class','edge');
    }
  }
}
]]></script>
        <defs>
                <circle id="rim" cx="0" cy="0" r="7"/>
                <circle id="rim2" cx="0" cy="0" r="3.5"/>
                <g id="zoomPlus">
                        <use xlink:href="#rim" fill="#404040">
                                <set attributeName="fill" to="#808080" begin="zoomplus.mouseover" end="zoomplus.mouseout"/>
                        </use>
                        <path d="M-4,0h8M0,-4v8" fill="none" stroke="white" stroke-width="1.5" pointer-events="none"/>
                </g>
                <g id="zoomMin">
                        <use xlink:href="#rim" fill="#404040">
                                <set attributeName="fill" to="#808080" begin="zoomminus.mouseover" end="zoomminus.mouseout"/>
                        </use>
                        <path d="M-4,0h8" fill="none" stroke="white" stroke-width="1.5" pointer-events="none"/>
                </g>
                <g id="dirArrow">
                        <path fill="none" stroke="white" stroke-width="1.5" d="M0,-3.0v7 M-2.5,-0.5L0,-3.0L2.5,-0.5"/>
                </g>
               <g id="resetDef">
                       <use xlink:href="#rim2" fill="#404040">
                               <set attributeName="fill" to="#808080" begin="reset.mouseover" end="reset.mouseout"/>
                       </use>
               </g>
        </defs>

<script type="text/javascript">
var viewWidth = 1961;
var viewHeight = 307;
var sectionId = 'dynsection-0';
</script>
<script xlink:href="svgpan.js"/>
<svg id="graph" class="graph">
<g id="viewport">
<title>include/SComponent/c_phase.h</title>
<polygon fill="white" stroke="transparent" points="-4,4 -4,-303 1957,-303 1957,4 -4,4"/>
<!-- Node1 -->
<g id="node1" class="node">
<title>Node1</title>
<g id="a_node1"><a xlink:title=" ">
<polygon fill="#bfbfbf" stroke="black" points="1267,-268.5 1267,-298.5 1374,-298.5 1374,-268.5 1267,-268.5"/>
<text text-anchor="start" x="1275" y="-286.5" font-family="Helvetica,sans-Serif" font-size="10.00">include/SComponent</text>
<text text-anchor="middle" x="1320.5" y="-275.5" font-family="Helvetica,sans-Serif" font-size="10.00">/c_phase.h</text>
</a>
</g>
</g>
<!-- Node2 -->
<g id="node2" class="node">
<title>Node2</title>
<g id="a_node2"><a xlink:href="d__com__inf__game_8cpp.html" target="_top" xlink:title=" ">
<polygon fill="white" stroke="black" points="0,-201.5 0,-231.5 119,-231.5 119,-201.5 0,-201.5"/>
<text text-anchor="start" x="8" y="-219.5" font-family="Helvetica,sans-Serif" font-size="10.00">src/d/d_com/d_com_inf</text>
<text text-anchor="middle" x="59.5" y="-208.5" font-family="Helvetica,sans-Serif" font-size="10.00">_game.cpp</text>
</a>
</g>
</g>
<!-- Node1&#45;&gt;Node2 -->
<g id="edge1" class="edge">
<title>Node1&#45;&gt;Node2</title>
<path fill="none" stroke="midnightblue" d="M1256.48,-283.16C1078,-284.28 560.01,-282.57 133.5,-232 128.82,-231.45 123.99,-230.76 119.15,-229.99"/>
<polygon fill="midnightblue" stroke="midnightblue" points="1256.76,-286.66 1266.74,-283.09 1256.71,-279.66 1256.76,-286.66"/>
</g>
<!-- Node3 -->
<g id="node3" class="node">
<title>Node3</title>
<g id="a_node3"><a xlink:href="d__a__alink_8cpp.html" target="_top" xlink:title=" ">
<polygon fill="white" stroke="black" points="250,-6 250,-25 369,-25 369,-6 250,-6"/>
<text text-anchor="middle" x="309.5" y="-13" font-family="Helvetica,sans-Serif" font-size="10.00">src/d/d_a/d_a_alink.cpp</text>
</a>
</g>
</g>
<!-- Node1&#45;&gt;Node3 -->
<g id="edge2" class="edge">
<title>Node1&#45;&gt;Node3</title>
<path fill="none" stroke="midnightblue" d="M1256.64,-283.15C1034.21,-283.87 299.78,-272.81 166.5,-98 137.22,-59.6 208.92,-36.38 261.03,-25.03"/>
<polygon fill="midnightblue" stroke="midnightblue" points="1256.86,-286.65 1266.84,-283.11 1256.83,-279.65 1256.86,-286.65"/>
</g>
<!-- Node4 -->
<g id="node4" class="node">
<title>Node4</title>
<g id="a_node4"><a xlink:href="f__pc__base_8cpp.html" target="_top" xlink:title=" ">
<polygon fill="white" stroke="black" points="1425.5,-207 1425.5,-226 1549.5,-226 1549.5,-207 1425.5,-207"/>
<text text-anchor="middle" x="1487.5" y="-214" font-family="Helvetica,sans-Serif" font-size="10.00">src/f/f_pc/f_pc_base.cpp</text>
</a>
</g>
</g>
<!-- Node1&#45;&gt;Node4 -->
<g id="edge3" class="edge">
<title>Node1&#45;&gt;Node4</title>
<path fill="none" stroke="midnightblue" d="M1366.43,-264.62C1398.76,-252.04 1440.57,-235.77 1465.64,-226.01"/>
<polygon fill="midnightblue" stroke="midnightblue" points="1364.79,-261.51 1356.74,-268.4 1367.33,-268.03 1364.79,-261.51"/>
</g>
<!-- Node5 -->
<g id="node5" class="node">
<title>Node5</title>
<g id="a_node5"><a xlink:href="f__pc__create__req_8cpp.html" target="_top" xlink:title=" ">
<polygon fill="white" stroke="black" points="1363.5,-134.5 1363.5,-164.5 1475.5,-164.5 1475.5,-134.5 1363.5,-134.5"/>
<text text-anchor="start" x="1371.5" y="-152.5" font-family="Helvetica,sans-Serif" font-size="10.00">src/f/f_pc/f_pc_create</text>
<text text-anchor="middle" x="1419.5" y="-141.5" font-family="Helvetica,sans-Serif" font-size="10.00">_req.cpp</text>
</a>
</g>
</g>
<!-- Node1&#45;&gt;Node5 -->
<g id="edge4" class="edge">
<title>Node1&#45;&gt;Node5</title>
<path fill="none" stroke="midnightblue" d="M1337.23,-260.19C1357.73,-232.86 1391.84,-187.38 1408.98,-164.52"/>
<polygon fill="midnightblue" stroke="midnightblue" points="1334.29,-258.27 1331.09,-268.37 1339.89,-262.47 1334.29,-258.27"/>
</g>
<!-- Node6 -->
<g id="node6" class="node">
<title>Node6</title>
<g id="a_node6"><a xlink:href="f__pc__load_8cpp.html" target="_top" xlink:title=" ">
<polygon fill="white" stroke="black" points="1568,-207 1568,-226 1689,-226 1689,-207 1568,-207"/>
<text text-anchor="middle" x="1628.5" y="-214" font-family="Helvetica,sans-Serif" font-size="10.00">src/f/f_pc/f_pc_load.cpp</text>
</a>
</g>
</g>
<!-- Node1&#45;&gt;Node6 -->
<g id="edge5" class="edge">
<title>Node1&#45;&gt;Node6</title>
<path fill="none" stroke="midnightblue" d="M1384.1,-269.08C1445.4,-256.14 1536.29,-236.96 1588.21,-226"/>
<polygon fill="midnightblue" stroke="midnightblue" points="1383.21,-265.69 1374.15,-271.18 1384.66,-272.54 1383.21,-265.69"/>
</g>
<!-- Node7 -->
<g id="node7" class="node">
<title>Node7</title>
<g id="a_node7"><a xlink:href="c__phase_8cpp.html" target="_top" xlink:title=" ">
<polygon fill="white" stroke="black" points="1707.5,-201.5 1707.5,-231.5 1841.5,-231.5 1841.5,-201.5 1707.5,-201.5"/>
<text text-anchor="start" x="1715.5" y="-219.5" font-family="Helvetica,sans-Serif" font-size="10.00">libs/SSystem/SComponent</text>
<text text-anchor="middle" x="1774.5" y="-208.5" font-family="Helvetica,sans-Serif" font-size="10.00">/c_phase.cpp</text>
</a>
</g>
</g>
<!-- Node1&#45;&gt;Node7 -->
<g id="edge6" class="edge">
<title>Node1&#45;&gt;Node7</title>
<path fill="none" stroke="midnightblue" d="M1384.42,-275.06C1459.71,-266.05 1588.49,-249.83 1698.5,-232 1701.42,-231.53 1704.39,-231.03 1707.4,-230.51"/>
<polygon fill="midnightblue" stroke="midnightblue" points="1383.67,-271.63 1374.16,-276.29 1384.5,-278.58 1383.67,-271.63"/>
</g>
<!-- Node8 -->
<g id="node8" class="node">
<title>Node8</title>
<g id="a_node8"><a xlink:href="f__op__overlap__req_8h.html" target="_top" xlink:title=" ">
<polygon fill="white" stroke="black" points="664,-201.5 664,-231.5 761,-231.5 761,-201.5 664,-201.5"/>
<text text-anchor="start" x="672" y="-219.5" font-family="Helvetica,sans-Serif" font-size="10.00">include/f/f_op/f_op</text>
<text text-anchor="middle" x="712.5" y="-208.5" font-family="Helvetica,sans-Serif" font-size="10.00">_overlap_req.h</text>
</a>
</g>
</g>
<!-- Node1&#45;&gt;Node8 -->
<g id="edge7" class="edge">
<title>Node1&#45;&gt;Node8</title>
<path fill="none" stroke="midnightblue" d="M1256.87,-275.7C1134.87,-262.66 870.53,-234.39 761.27,-222.71"/>
<polygon fill="midnightblue" stroke="midnightblue" points="1256.5,-279.18 1266.81,-276.76 1257.24,-272.22 1256.5,-279.18"/>
</g>
<!-- Node11 -->
<g id="node11" class="node">
<title>Node11</title>
<g id="a_node11"><a xlink:href="f__op__scene__req_8h.html" target="_top" xlink:title=" ">
<polygon fill="white" stroke="black" points="1686,-134.5 1686,-164.5 1783,-164.5 1783,-134.5 1686,-134.5"/>
<text text-anchor="start" x="1694" y="-152.5" font-family="Helvetica,sans-Serif" font-size="10.00">include/f/f_op/f_op</text>
<text text-anchor="middle" x="1734.5" y="-141.5" font-family="Helvetica,sans-Serif" font-size="10.00">_scene_req.h</text>
</a>
</g>
</g>
<!-- Node1&#45;&gt;Node11 -->
<g id="edge10" class="edge">
<title>Node1&#45;&gt;Node11</title>
<path fill="none" stroke="midnightblue" d="M1346.92,-262.08C1358.33,-253.06 1371.75,-242.2 1383.5,-232 1398.7,-218.81 1398.43,-209.86 1416.5,-201 1462.99,-178.21 1608.72,-161.96 1685.71,-154.72"/>
<polygon fill="midnightblue" stroke="midnightblue" points="1344.71,-259.36 1339.01,-268.29 1349.03,-264.87 1344.71,-259.36"/>
</g>
<!-- Node14 -->
<g id="node14" class="node">
<title>Node14</title>
<g id="a_node14"><a xlink:href="f__pc__create__req_8h.html" target="_top" xlink:title=" ">
<polygon fill="white" stroke="black" points="1119,-201.5 1119,-231.5 1216,-231.5 1216,-201.5 1119,-201.5"/>
<text text-anchor="start" x="1127" y="-219.5" font-family="Helvetica,sans-Serif" font-size="10.00">include/f/f_pc/f_pc</text>
<text text-anchor="middle" x="1167.5" y="-208.5" font-family="Helvetica,sans-Serif" font-size="10.00">_create_req.h</text>
</a>
</g>
</g>
<!-- Node1&#45;&gt;Node14 -->
<g id="edge13" class="edge">
<title>Node1&#45;&gt;Node14</title>
<path fill="none" stroke="midnightblue" d="M1277.91,-264.41C1253.48,-254.03 1223.28,-241.2 1200.63,-231.58"/>
<polygon fill="midnightblue" stroke="midnightblue" points="1276.73,-267.71 1287.3,-268.4 1279.47,-261.26 1276.73,-267.71"/>
</g>
<!-- Node31 -->
<g id="node31" class="node">
<title>Node31</title>
<g id="a_node31"><a xlink:href="f__pc__node__req_8h.html" target="_top" xlink:title=" ">
<polygon fill="white" stroke="black" points="1234,-201.5 1234,-231.5 1331,-231.5 1331,-201.5 1234,-201.5"/>
<text text-anchor="start" x="1242" y="-219.5" font-family="Helvetica,sans-Serif" font-size="10.00">include/f/f_pc/f_pc</text>
<text text-anchor="middle" x="1282.5" y="-208.5" font-family="Helvetica,sans-Serif" font-size="10.00">_node_req.h</text>
</a>
</g>
</g>
<!-- Node1&#45;&gt;Node31 -->
<g id="edge36" class="edge">
<title>Node1&#45;&gt;Node31</title>
<path fill="none" stroke="midnightblue" d="M1307.1,-259.58C1301.64,-250.24 1295.51,-239.75 1290.73,-231.58"/>
<polygon fill="midnightblue" stroke="midnightblue" points="1304.19,-261.53 1312.25,-268.4 1310.23,-258 1304.19,-261.53"/>
</g>
<!-- Node9 -->
<g id="node9" class="node">
<title>Node9</title>
<g id="a_node9"><a xlink:href="f__op__overlap__mng_8cpp.html" target="_top" xlink:title=" ">
<polygon fill="white" stroke="black" points="654.5,-134.5 654.5,-164.5 770.5,-164.5 770.5,-134.5 654.5,-134.5"/>
<text text-anchor="start" x="662.5" y="-152.5" font-family="Helvetica,sans-Serif" font-size="10.00">src/f/f_op/f_op_overlap</text>
<text text-anchor="middle" x="712.5" y="-141.5" font-family="Helvetica,sans-Serif" font-size="10.00">_mng.cpp</text>
</a>
</g>
</g>
<!-- Node8&#45;&gt;Node9 -->
<g id="edge8" class="edge">
<title>Node8&#45;&gt;Node9</title>
<path fill="none" stroke="midnightblue" d="M712.5,-191.11C712.5,-182.15 712.5,-172.32 712.5,-164.58"/>
<polygon fill="midnightblue" stroke="midnightblue" points="709,-191.4 712.5,-201.4 716,-191.4 709,-191.4"/>
</g>
<!-- Node10 -->
<g id="node10" class="node">
<title>Node10</title>
<g id="a_node10"><a xlink:href="f__op__overlap__req_8cpp.html" target="_top" xlink:title=" ">
<polygon fill="white" stroke="black" points="628.5,-67.5 628.5,-97.5 744.5,-97.5 744.5,-67.5 628.5,-67.5"/>
<text text-anchor="start" x="636.5" y="-85.5" font-family="Helvetica,sans-Serif" font-size="10.00">src/f/f_op/f_op_overlap</text>
<text text-anchor="middle" x="686.5" y="-74.5" font-family="Helvetica,sans-Serif" font-size="10.00">_req.cpp</text>
</a>
</g>
</g>
<!-- Node8&#45;&gt;Node10 -->
<g id="edge9" class="edge">
<title>Node8&#45;&gt;Node10</title>
<path fill="none" stroke="midnightblue" d="M674.16,-195.75C662.82,-187.83 651.77,-177.57 645.5,-165 633.7,-141.33 654.74,-113.86 670.8,-97.62"/>
<polygon fill="midnightblue" stroke="midnightblue" points="672.52,-198.85 682.81,-201.34 676.31,-192.97 672.52,-198.85"/>
</g>
<!-- Node12 -->
<g id="node12" class="node">
<title>Node12</title>
<g id="a_node12"><a xlink:href="f__op__scene__mng_8cpp.html" target="_top" xlink:title=" ">
<polygon fill="white" stroke="black" points="1713,-67.5 1713,-97.5 1824,-97.5 1824,-67.5 1713,-67.5"/>
<text text-anchor="start" x="1721" y="-85.5" font-family="Helvetica,sans-Serif" font-size="10.00">src/f/f_op/f_op_scene</text>
<text text-anchor="middle" x="1768.5" y="-74.5" font-family="Helvetica,sans-Serif" font-size="10.00">_mng.cpp</text>
</a>
</g>
</g>
<!-- Node11&#45;&gt;Node12 -->
<g id="edge11" class="edge">
<title>Node11&#45;&gt;Node12</title>
<path fill="none" stroke="midnightblue" d="M1746.64,-125.28C1751.49,-116.02 1756.91,-105.66 1761.14,-97.58"/>
<polygon fill="midnightblue" stroke="midnightblue" points="1743.41,-123.91 1741.88,-134.4 1749.61,-127.16 1743.41,-123.91"/>
</g>
<!-- Node13 -->
<g id="node13" class="node">
<title>Node13</title>
<g id="a_node13"><a xlink:href="f__op__scene__req_8cpp.html" target="_top" xlink:title=" ">
<polygon fill="white" stroke="black" points="1842,-67.5 1842,-97.5 1953,-97.5 1953,-67.5 1842,-67.5"/>
<text text-anchor="start" x="1850" y="-85.5" font-family="Helvetica,sans-Serif" font-size="10.00">src/f/f_op/f_op_scene</text>
<text text-anchor="middle" x="1897.5" y="-74.5" font-family="Helvetica,sans-Serif" font-size="10.00">_req.cpp</text>
</a>
</g>
</g>
<!-- Node11&#45;&gt;Node13 -->
<g id="edge12" class="edge">
<title>Node11&#45;&gt;Node13</title>
<path fill="none" stroke="midnightblue" d="M1779.18,-130.68C1805.33,-120.26 1837.87,-107.28 1862.2,-97.58"/>
<polygon fill="midnightblue" stroke="midnightblue" points="1777.86,-127.44 1769.87,-134.4 1780.45,-133.94 1777.86,-127.44"/>
</g>
<!-- Node14&#45;&gt;Node5 -->
<g id="edge14" class="edge">
<title>Node14&#45;&gt;Node5</title>
<path fill="none" stroke="midnightblue" d="M1225.88,-200.44C1267.8,-189.63 1323.91,-175.16 1364.94,-164.57"/>
<polygon fill="midnightblue" stroke="midnightblue" points="1224.9,-197.08 1216.09,-202.97 1226.65,-203.86 1224.9,-197.08"/>
</g>
<!-- Node15 -->
<g id="node15" class="node">
<title>Node15</title>
<g id="a_node15"><a xlink:href="f__pc__creator_8cpp.html" target="_top" xlink:title=" ">
<polygon fill="white" stroke="black" points="1174,-140 1174,-159 1307,-159 1307,-140 1174,-140"/>
<text text-anchor="middle" x="1240.5" y="-147" font-family="Helvetica,sans-Serif" font-size="10.00">src/f/f_pc/f_pc_creator.cpp</text>
</a>
</g>
</g>
<!-- Node14&#45;&gt;Node15 -->
<g id="edge15" class="edge">
<title>Node14&#45;&gt;Node15</title>
<path fill="none" stroke="midnightblue" d="M1190.89,-194.67C1204.37,-182.67 1220.6,-168.22 1230.74,-159.19"/>
<polygon fill="midnightblue" stroke="midnightblue" points="1188.48,-192.13 1183.34,-201.4 1193.14,-197.36 1188.48,-192.13"/>
</g>
<!-- Node16 -->
<g id="node16" class="node">
<title>Node16</title>
<g id="a_node16"><a xlink:href="f__pc__node__req_8cpp.html" target="_top" xlink:title=" ">
<polygon fill="white" stroke="black" points="1589.5,-67.5 1589.5,-97.5 1695.5,-97.5 1695.5,-67.5 1589.5,-67.5"/>
<text text-anchor="start" x="1597.5" y="-85.5" font-family="Helvetica,sans-Serif" font-size="10.00">src/f/f_pc/f_pc_node</text>
<text text-anchor="middle" x="1642.5" y="-74.5" font-family="Helvetica,sans-Serif" font-size="10.00">_req.cpp</text>
</a>
</g>
</g>
<!-- Node14&#45;&gt;Node16 -->
<g id="edge16" class="edge">
<title>Node14&#45;&gt;Node16</title>
<path fill="none" stroke="midnightblue" d="M1224.51,-198.48C1259.37,-187.63 1300.28,-173.98 1316.5,-165 1335.57,-154.44 1334.61,-142.91 1354.5,-134 1447.32,-92.42 1480.69,-117.59 1580.5,-98 1583.43,-97.43 1586.43,-96.81 1589.45,-96.17"/>
<polygon fill="midnightblue" stroke="midnightblue" points="1223.39,-195.16 1214.87,-201.46 1225.46,-201.85 1223.39,-195.16"/>
</g>
<!-- Node17 -->
<g id="node17" class="node">
<title>Node17</title>
<g id="a_node17"><a xlink:href="f__pc__fstcreate__req_8h.html" target="_top" xlink:title=" ">
<polygon fill="white" stroke="black" points="420,-134.5 420,-164.5 517,-164.5 517,-134.5 420,-134.5"/>
<text text-anchor="start" x="428" y="-152.5" font-family="Helvetica,sans-Serif" font-size="10.00">include/f/f_pc/f_pc</text>
<text text-anchor="middle" x="468.5" y="-141.5" font-family="Helvetica,sans-Serif" font-size="10.00">_fstcreate_req.h</text>
</a>
</g>
</g>
<!-- Node14&#45;&gt;Node17 -->
<g id="edge17" class="edge">
<title>Node14&#45;&gt;Node17</title>
<path fill="none" stroke="midnightblue" d="M1108.74,-210.04C973.48,-197.46 642.17,-166.65 517.24,-155.03"/>
<polygon fill="midnightblue" stroke="midnightblue" points="1108.62,-213.54 1118.9,-210.98 1109.27,-206.57 1108.62,-213.54"/>
</g>
<!-- Node26 -->
<g id="node26" class="node">
<title>Node26</title>
<g id="a_node26"><a xlink:href="f__pc__stdcreate__req_8h.html" target="_top" xlink:title=" ">
<polygon fill="white" stroke="black" points="1059,-134.5 1059,-164.5 1156,-164.5 1156,-134.5 1059,-134.5"/>
<text text-anchor="start" x="1067" y="-152.5" font-family="Helvetica,sans-Serif" font-size="10.00">include/f/f_pc/f_pc</text>
<text text-anchor="middle" x="1107.5" y="-141.5" font-family="Helvetica,sans-Serif" font-size="10.00">_stdcreate_req.h</text>
</a>
</g>
</g>
<!-- Node14&#45;&gt;Node26 -->
<g id="edge27" class="edge">
<title>Node14&#45;&gt;Node26</title>
<path fill="none" stroke="midnightblue" d="M1147.68,-194.02C1138.74,-184.34 1128.43,-173.17 1120.49,-164.58"/>
<polygon fill="midnightblue" stroke="midnightblue" points="1145.13,-196.42 1154.48,-201.4 1150.27,-191.67 1145.13,-196.42"/>
</g>
<!-- Node18 -->
<g id="node18" class="node">
<title>Node18</title>
<g id="a_node18"><a xlink:href="f__pc__fstcreate__req_8cpp.html" target="_top" xlink:title=" ">
<polygon fill="white" stroke="black" points="176,-67.5 176,-97.5 299,-97.5 299,-67.5 176,-67.5"/>
<text text-anchor="start" x="184" y="-85.5" font-family="Helvetica,sans-Serif" font-size="10.00">src/f/f_pc/f_pc_fstcreate</text>
<text text-anchor="middle" x="237.5" y="-74.5" font-family="Helvetica,sans-Serif" font-size="10.00">_req.cpp</text>
</a>
</g>
</g>
<!-- Node17&#45;&gt;Node18 -->
<g id="edge18" class="edge">
<title>Node17&#45;&gt;Node18</title>
<path fill="none" stroke="midnightblue" d="M409.92,-132.02C372.06,-121.36 323.33,-107.65 287.34,-97.52"/>
<polygon fill="midnightblue" stroke="midnightblue" points="409.22,-135.46 419.79,-134.79 411.11,-128.72 409.22,-135.46"/>
</g>
<!-- Node19 -->
<g id="node19" class="node">
<title>Node19</title>
<g id="a_node19"><a xlink:href="f__pc__manager_8cpp.html" target="_top" xlink:title=" ">
<polygon fill="white" stroke="black" points="317.5,-73 317.5,-92 457.5,-92 457.5,-73 317.5,-73"/>
<text text-anchor="middle" x="387.5" y="-80" font-family="Helvetica,sans-Serif" font-size="10.00">src/f/f_pc/f_pc_manager.cpp</text>
</a>
</g>
</g>
<!-- Node17&#45;&gt;Node19 -->
<g id="edge19" class="edge">
<title>Node17&#45;&gt;Node19</title>
<path fill="none" stroke="midnightblue" d="M442.96,-128.01C427.93,-115.94 409.69,-101.3 398.33,-92.19"/>
<polygon fill="midnightblue" stroke="midnightblue" points="440.93,-130.87 450.92,-134.4 445.32,-125.41 440.93,-130.87"/>
</g>
<!-- Node20 -->
<g id="node20" class="node">
<title>Node20</title>
<g id="a_node20"><a xlink:href="f__op__actor__mng_8h.html" target="_top" xlink:title=" ">
<polygon fill="white" stroke="black" points="514,-67.5 514,-97.5 611,-97.5 611,-67.5 514,-67.5"/>
<text text-anchor="start" x="522" y="-85.5" font-family="Helvetica,sans-Serif" font-size="10.00">include/f/f_op/f_op</text>
<text text-anchor="middle" x="562.5" y="-74.5" font-family="Helvetica,sans-Serif" font-size="10.00">_actor_mng.h</text>
</a>
</g>
</g>
<!-- Node17&#45;&gt;Node20 -->
<g id="edge20" class="edge">
<title>Node17&#45;&gt;Node20</title>
<path fill="none" stroke="midnightblue" d="M497.49,-128.45C511.95,-118.45 529.09,-106.6 542.14,-97.58"/>
<polygon fill="midnightblue" stroke="midnightblue" points="495.13,-125.83 488.9,-134.4 499.11,-131.59 495.13,-125.83"/>
</g>
<!-- Node20&#45;&gt;Node3 -->
<g id="edge24" class="edge">
<title>Node20&#45;&gt;Node3</title>
<path fill="none" stroke="midnightblue" d="M504,-66.47C453.97,-53.62 383.75,-35.58 342.8,-25.06"/>
<polygon fill="midnightblue" stroke="midnightblue" points="503.16,-69.87 513.72,-68.97 504.9,-63.09 503.16,-69.87"/>
</g>
<!-- Node21 -->
<g id="node21" class="node">
<title>Node21</title>
<g id="a_node21"><a xlink:href="d__attention_8cpp.html" target="_top" xlink:title=" ">
<polygon fill="white" stroke="black" points="387,-6 387,-25 494,-25 494,-6 387,-6"/>
<text text-anchor="middle" x="440.5" y="-13" font-family="Helvetica,sans-Serif" font-size="10.00">src/d/d_attention.cpp</text>
</a>
</g>
</g>
<!-- Node20&#45;&gt;Node21 -->
<g id="edge21" class="edge">
<title>Node20&#45;&gt;Node21</title>
<path fill="none" stroke="midnightblue" d="M527.1,-62.64C503.76,-50.2 474.31,-34.51 456.47,-25.01"/>
<polygon fill="midnightblue" stroke="midnightblue" points="525.56,-65.78 536.03,-67.4 528.85,-59.6 525.56,-65.78"/>
</g>
<!-- Node22 -->
<g id="node22" class="node">
<title>Node22</title>
<g id="a_node22"><a xlink:href="d__camera_8cpp.html" target="_top" xlink:title=" ">
<polygon fill="white" stroke="black" points="511.5,-6 511.5,-25 613.5,-25 613.5,-6 511.5,-6"/>
<text text-anchor="middle" x="562.5" y="-13" font-family="Helvetica,sans-Serif" font-size="10.00">src/d/d_camera.cpp</text>
</a>
</g>
</g>
<!-- Node20&#45;&gt;Node22 -->
<g id="edge22" class="edge">
<title>Node20&#45;&gt;Node22</title>
<path fill="none" stroke="midnightblue" d="M562.5,-57.25C562.5,-46.02 562.5,-33.38 562.5,-25.19"/>
<polygon fill="midnightblue" stroke="midnightblue" points="559,-57.4 562.5,-67.4 566,-57.4 559,-57.4"/>
</g>
<!-- Node23 -->
<g id="node23" class="node">
<title>Node23</title>
<g id="a_node23"><a xlink:href="d__stage_8cpp.html" target="_top" xlink:title=" ">
<polygon fill="white" stroke="black" points="1008.5,-6 1008.5,-25 1102.5,-25 1102.5,-6 1008.5,-6"/>
<text text-anchor="middle" x="1055.5" y="-13" font-family="Helvetica,sans-Serif" font-size="10.00">src/d/d_stage.cpp</text>
</a>
</g>
</g>
<!-- Node20&#45;&gt;Node23 -->
<g id="edge23" class="edge">
<title>Node20&#45;&gt;Node23</title>
<path fill="none" stroke="midnightblue" d="M621.18,-66.88C709.77,-51.7 915.4,-30.46 1008.46,-21.14"/>
<polygon fill="midnightblue" stroke="midnightblue" points="620.45,-63.45 611.22,-68.65 621.68,-70.34 620.45,-63.45"/>
</g>
<!-- Node24 -->
<g id="node24" class="node">
<title>Node24</title>
<g id="a_node24"><a xlink:href="f__op__actor__mng_8cpp.html" target="_top" xlink:title=" ">
<polygon fill="white" stroke="black" points="631,-0.5 631,-30.5 738,-30.5 738,-0.5 631,-0.5"/>
<text text-anchor="start" x="639" y="-18.5" font-family="Helvetica,sans-Serif" font-size="10.00">src/f/f_op/f_op_actor</text>
<text text-anchor="middle" x="684.5" y="-7.5" font-family="Helvetica,sans-Serif" font-size="10.00">_mng.cpp</text>
</a>
</g>
</g>
<!-- Node20&#45;&gt;Node24 -->
<g id="edge25" class="edge">
<title>Node20&#45;&gt;Node24</title>
<path fill="none" stroke="midnightblue" d="M598.02,-62.57C617.21,-52.35 640.5,-39.94 658.08,-30.58"/>
<polygon fill="midnightblue" stroke="midnightblue" points="596.15,-59.6 588.97,-67.4 599.44,-65.78 596.15,-59.6"/>
</g>
<!-- Node25 -->
<g id="node25" class="node">
<title>Node25</title>
<g id="a_node25"><a xlink:href="m__Do__main_8cpp.html" target="_top" xlink:title=" ">
<polygon fill="white" stroke="black" points="756,-6 756,-25 887,-25 887,-6 756,-6"/>
<text text-anchor="middle" x="821.5" y="-13" font-family="Helvetica,sans-Serif" font-size="10.00">src/m_Do/m_Do_main.cpp</text>
</a>
</g>
</g>
<!-- Node20&#45;&gt;Node25 -->
<g id="edge26" class="edge">
<title>Node20&#45;&gt;Node25</title>
<path fill="none" stroke="midnightblue" d="M620.88,-66.66C685.02,-50.5 748.94,-34.55 787.18,-25.03"/>
<polygon fill="midnightblue" stroke="midnightblue" points="619.85,-63.31 611.01,-69.15 621.56,-70.1 619.85,-63.31"/>
</g>
<!-- Node26&#45;&gt;Node10 -->
<g id="edge32" class="edge">
<title>Node26&#45;&gt;Node10</title>
<path fill="none" stroke="midnightblue" d="M1048.82,-141.35C978.61,-132.5 857.62,-116.35 754.5,-98 751.29,-97.43 748,-96.82 744.69,-96.18"/>
<polygon fill="midnightblue" stroke="midnightblue" points="1048.44,-144.83 1058.8,-142.6 1049.31,-137.88 1048.44,-144.83"/>
</g>
<!-- Node26&#45;&gt;Node16 -->
<g id="edge33" class="edge">
<title>Node26&#45;&gt;Node16</title>
<path fill="none" stroke="midnightblue" d="M1166.11,-134.1C1349.88,-104.27 1400.89,-126.64 1580.5,-98 1583.45,-97.53 1586.46,-97 1589.5,-96.42"/>
<polygon fill="midnightblue" stroke="midnightblue" points="1165.41,-130.67 1156.12,-135.75 1166.55,-137.57 1165.41,-130.67"/>
</g>
<!-- Node26&#45;&gt;Node20 -->
<g id="edge35" class="edge">
<title>Node26&#45;&gt;Node20</title>
<path fill="none" stroke="midnightblue" d="M1048.88,-143.52C937.82,-133.89 700.62,-112.43 619.5,-98 616.79,-97.52 614.01,-96.97 611.22,-96.39"/>
<polygon fill="midnightblue" stroke="midnightblue" points="1048.64,-147.01 1058.9,-144.38 1049.24,-140.03 1048.64,-147.01"/>
</g>
<!-- Node26&#45;&gt;Node23 -->
<g id="edge28" class="edge">
<title>Node26&#45;&gt;Node23</title>
<path fill="none" stroke="midnightblue" d="M1127.19,-126.29C1139.59,-109.48 1151.37,-86.09 1140.5,-67 1128.44,-45.82 1103.61,-32.59 1083.88,-25.02"/>
<polygon fill="midnightblue" stroke="midnightblue" points="1124.21,-124.41 1120.76,-134.43 1129.71,-128.75 1124.21,-124.41"/>
</g>
<!-- Node27 -->
<g id="node27" class="node">
<title>Node27</title>
<g id="a_node27"><a xlink:href="f__op__camera__mng_8cpp.html" target="_top" xlink:title=" ">
<polygon fill="white" stroke="black" points="1188,-67.5 1188,-97.5 1305,-97.5 1305,-67.5 1188,-67.5"/>
<text text-anchor="start" x="1196" y="-85.5" font-family="Helvetica,sans-Serif" font-size="10.00">src/f/f_op/f_op_camera</text>
<text text-anchor="middle" x="1246.5" y="-74.5" font-family="Helvetica,sans-Serif" font-size="10.00">_mng.cpp</text>
</a>
</g>
</g>
<!-- Node26&#45;&gt;Node27 -->
<g id="edge29" class="edge">
<title>Node26&#45;&gt;Node27</title>
<path fill="none" stroke="midnightblue" d="M1146.78,-130.13C1168.87,-119.8 1196.01,-107.11 1216.4,-97.58"/>
<polygon fill="midnightblue" stroke="midnightblue" points="1145.24,-126.99 1137.66,-134.4 1148.2,-133.33 1145.24,-126.99"/>
</g>
<!-- Node28 -->
<g id="node28" class="node">
<title>Node28</title>
<g id="a_node28"><a xlink:href="f__op__kankyo__mng_8cpp.html" target="_top" xlink:title=" ">
<polygon fill="white" stroke="black" points="1015.5,-67.5 1015.5,-97.5 1131.5,-97.5 1131.5,-67.5 1015.5,-67.5"/>
<text text-anchor="start" x="1023.5" y="-85.5" font-family="Helvetica,sans-Serif" font-size="10.00">src/f/f_op/f_op_kankyo</text>
<text text-anchor="middle" x="1073.5" y="-74.5" font-family="Helvetica,sans-Serif" font-size="10.00">_mng.cpp</text>
</a>
</g>
</g>
<!-- Node26&#45;&gt;Node28 -->
<g id="edge30" class="edge">
<title>Node26&#45;&gt;Node28</title>
<path fill="none" stroke="midnightblue" d="M1095.36,-125.28C1090.51,-116.02 1085.09,-105.66 1080.86,-97.58"/>
<polygon fill="midnightblue" stroke="midnightblue" points="1092.39,-127.16 1100.12,-134.4 1098.59,-123.91 1092.39,-127.16"/>
</g>
<!-- Node29 -->
<g id="node29" class="node">
<title>Node29</title>
<g id="a_node29"><a xlink:href="f__op__msg__mng_8cpp.html" target="_top" xlink:title=" ">
<polygon fill="white" stroke="black" points="1323.5,-67.5 1323.5,-97.5 1427.5,-97.5 1427.5,-67.5 1323.5,-67.5"/>
<text text-anchor="start" x="1331.5" y="-85.5" font-family="Helvetica,sans-Serif" font-size="10.00">src/f/f_op/f_op_msg</text>
<text text-anchor="middle" x="1375.5" y="-74.5" font-family="Helvetica,sans-Serif" font-size="10.00">_mng.cpp</text>
</a>
</g>
</g>
<!-- Node26&#45;&gt;Node29 -->
<g id="edge31" class="edge">
<title>Node26&#45;&gt;Node29</title>
<path fill="none" stroke="midnightblue" d="M1166.18,-133.85C1225.65,-119.28 1282.99,-105.53 1323.26,-95.93"/>
<polygon fill="midnightblue" stroke="midnightblue" points="1165.11,-130.5 1156.23,-136.28 1166.77,-137.3 1165.11,-130.5"/>
</g>
<!-- Node30 -->
<g id="node30" class="node">
<title>Node30</title>
<g id="a_node30"><a xlink:href="f__pc__stdcreate__req_8cpp.html" target="_top" xlink:title=" ">
<polygon fill="white" stroke="black" points="1446,-67.5 1446,-97.5 1571,-97.5 1571,-67.5 1446,-67.5"/>
<text text-anchor="start" x="1454" y="-85.5" font-family="Helvetica,sans-Serif" font-size="10.00">src/f/f_pc/f_pc_stdcreate</text>
<text text-anchor="middle" x="1508.5" y="-74.5" font-family="Helvetica,sans-Serif" font-size="10.00">_req.cpp</text>
</a>
</g>
</g>
<!-- Node26&#45;&gt;Node30 -->
<g id="edge34" class="edge">
<title>Node26&#45;&gt;Node30</title>
<path fill="none" stroke="midnightblue" d="M1166.13,-134.03C1286.59,-111.57 1319.82,-117.48 1436.5,-98 1439.52,-97.5 1442.6,-96.96 1445.72,-96.4"/>
<polygon fill="midnightblue" stroke="midnightblue" points="1165.32,-130.62 1156.15,-135.92 1166.62,-137.5 1165.32,-130.62"/>
</g>
<!-- Node31&#45;&gt;Node11 -->
<g id="edge39" class="edge">
<title>Node31&#45;&gt;Node11</title>
<path fill="none" stroke="midnightblue" d="M1341.36,-207.04C1431.56,-194.06 1602.3,-169.51 1685.9,-157.49"/>
<polygon fill="midnightblue" stroke="midnightblue" points="1340.7,-203.59 1331.3,-208.48 1341.7,-210.52 1340.7,-203.59"/>
</g>
<!-- Node31&#45;&gt;Node16 -->
<g id="edge38" class="edge">
<title>Node31&#45;&gt;Node16</title>
<path fill="none" stroke="midnightblue" d="M1341.02,-204.61C1381.94,-196.1 1437.47,-182.73 1484.5,-165 1534.61,-146.11 1589.37,-115.39 1619.46,-97.55"/>
<polygon fill="midnightblue" stroke="midnightblue" points="1340.3,-201.19 1331.21,-206.62 1341.71,-208.05 1340.3,-201.19"/>
</g>
<!-- Node31&#45;&gt;Node19 -->
<g id="edge37" class="edge">
<title>Node31&#45;&gt;Node19</title>
<path fill="none" stroke="midnightblue" d="M1223.76,-200.91C1044.3,-172.71 984.1,-231.13 818.5,-165 797.94,-156.79 799.96,-142.47 779.5,-134 648.48,-79.78 602.66,-119.47 462.5,-98 451.49,-96.31 439.63,-94.17 428.66,-92.06"/>
<polygon fill="midnightblue" stroke="midnightblue" points="1223.36,-204.39 1233.79,-202.56 1224.49,-197.49 1223.36,-204.39"/>
</g>
<!-- Node32 -->
<g id="node32" class="node">
<title>Node32</title>
<g id="a_node32"><a xlink:href="f__pc__manager_8h.html" target="_top" xlink:title=" ">
<polygon fill="white" stroke="black" points="827,-134.5 827,-164.5 924,-164.5 924,-134.5 827,-134.5"/>
<text text-anchor="start" x="835" y="-152.5" font-family="Helvetica,sans-Serif" font-size="10.00">include/f/f_pc/f_pc</text>
<text text-anchor="middle" x="875.5" y="-141.5" font-family="Helvetica,sans-Serif" font-size="10.00">_manager.h</text>
</a>
</g>
</g>
<!-- Node31&#45;&gt;Node32 -->
<g id="edge40" class="edge">
<title>Node31&#45;&gt;Node32</title>
<path fill="none" stroke="midnightblue" d="M1223.62,-200.74C1111.39,-178.85 990.06,-163.51 924.18,-155.87"/>
<polygon fill="midnightblue" stroke="midnightblue" points="1223.27,-204.24 1233.76,-202.74 1224.63,-197.37 1223.27,-204.24"/>
</g>
<!-- Node32&#45;&gt;Node3 -->
<g id="edge42" class="edge">
<title>Node32&#45;&gt;Node3</title>
<path fill="none" stroke="midnightblue" d="M816.9,-134.79C815.42,-134.52 813.95,-134.25 812.5,-134 677.14,-110.56 632.34,-150.76 505.5,-98 485.06,-89.5 486.02,-77.45 466.5,-67 428.89,-46.87 381.87,-33.06 349.14,-25.04"/>
<polygon fill="midnightblue" stroke="midnightblue" points="816.28,-138.23 826.77,-136.73 817.63,-131.37 816.28,-138.23"/>
</g>
<!-- Node32&#45;&gt;Node10 -->
<g id="edge44" class="edge">
<title>Node32&#45;&gt;Node10</title>
<path fill="none" stroke="midnightblue" d="M824.88,-131.09C794.37,-120.6 756.02,-107.41 727.43,-97.58"/>
<polygon fill="midnightblue" stroke="midnightblue" points="823.9,-134.45 834.49,-134.4 826.17,-127.83 823.9,-134.45"/>
</g>
<!-- Node32&#45;&gt;Node19 -->
<g id="edge46" class="edge">
<title>Node32&#45;&gt;Node19</title>
<path fill="none" stroke="midnightblue" d="M816.9,-134.77C815.42,-134.5 813.95,-134.24 812.5,-134 662.19,-108.86 622.45,-118.97 471.5,-98 459.19,-96.29 445.91,-94.14 433.63,-92.02"/>
<polygon fill="midnightblue" stroke="midnightblue" points="816.3,-138.21 826.78,-136.67 817.62,-131.34 816.3,-138.21"/>
</g>
<!-- Node32&#45;&gt;Node20 -->
<g id="edge47" class="edge">
<title>Node32&#45;&gt;Node20</title>
<path fill="none" stroke="midnightblue" d="M816.87,-134.92C815.4,-134.61 813.94,-134.3 812.5,-134 727.08,-116.21 704.72,-116.77 619.5,-98 616.81,-97.41 614.05,-96.78 611.27,-96.13"/>
<polygon fill="midnightblue" stroke="midnightblue" points="816.19,-138.35 826.71,-137.06 817.68,-131.51 816.19,-138.35"/>
</g>
<!-- Node32&#45;&gt;Node28 -->
<g id="edge43" class="edge">
<title>Node32&#45;&gt;Node28</title>
<path fill="none" stroke="midnightblue" d="M928.11,-131.23C960.14,-120.71 1000.54,-107.45 1030.62,-97.58"/>
<polygon fill="midnightblue" stroke="midnightblue" points="926.87,-127.95 918.46,-134.4 929.06,-134.6 926.87,-127.95"/>
</g>
<!-- Node33 -->
<g id="node33" class="node">
<title>Node33</title>
<g id="a_node33"><a xlink:href="f__ap__game_8cpp.html" target="_top" xlink:title=" ">
<polygon fill="white" stroke="black" points="763,-73 763,-92 868,-92 868,-73 763,-73"/>
<text text-anchor="middle" x="815.5" y="-80" font-family="Helvetica,sans-Serif" font-size="10.00">src/f/f_ap_game.cpp</text>
</a>
</g>
</g>
<!-- Node32&#45;&gt;Node33 -->
<g id="edge41" class="edge">
<title>Node32&#45;&gt;Node33</title>
<path fill="none" stroke="midnightblue" d="M855.65,-127C844.7,-115.13 831.7,-101.05 823.53,-92.19"/>
<polygon fill="midnightblue" stroke="midnightblue" points="853.13,-129.42 862.48,-134.4 858.27,-124.67 853.13,-129.42"/>
</g>
<!-- Node34 -->
<g id="node34" class="node">
<title>Node34</title>
<g id="a_node34"><a xlink:href="f__op__scene__pause_8cpp.html" target="_top" xlink:title=" ">
<polygon fill="white" stroke="black" points="886,-67.5 886,-97.5 997,-97.5 997,-67.5 886,-67.5"/>
<text text-anchor="start" x="894" y="-85.5" font-family="Helvetica,sans-Serif" font-size="10.00">src/f/f_op/f_op_scene</text>
<text text-anchor="middle" x="941.5" y="-74.5" font-family="Helvetica,sans-Serif" font-size="10.00">_pause.cpp</text>
</a>
</g>
</g>
<!-- Node32&#45;&gt;Node34 -->
<g id="edge45" class="edge">
<title>Node32&#45;&gt;Node34</title>
<path fill="none" stroke="midnightblue" d="M897.01,-127.31C906.91,-117.56 918.39,-106.26 927.21,-97.58"/>
<polygon fill="midnightblue" stroke="midnightblue" points="894.49,-124.89 889.82,-134.4 899.4,-129.87 894.49,-124.89"/>
</g>
</g>
</svg>
        <g id="navigator" transform="translate(0 0)" fill="#404254">
                <rect fill="#f2f5e9" fill-opacity="0.5" stroke="#606060" stroke-width=".5" x="0" y="0" width="60" height="60"/>
                <use id="zoomplus" xlink:href="#zoomPlus" x="17" y="9" onmousedown="handleZoom(evt,'in')"/>
                <use id="zoomminus" xlink:href="#zoomMin" x="42" y="9" onmousedown="handleZoom(evt,'out')"/>
                <use id="reset" xlink:href="#resetDef" x="30" y="36" onmousedown="handleReset()"/>
                <g id="arrowUp" xlink:href="#dirArrow" transform="translate(30 24)" onmousedown="handlePan(0,-1)">
                  <use xlink:href="#rim" fill="#404040">
                        <set attributeName="fill" to="#808080" begin="arrowUp.mouseover" end="arrowUp.mouseout"/>
                  </use>
                  <path fill="none" stroke="white" stroke-width="1.5" d="M0,-3.0v7 M-2.5,-0.5L0,-3.0L2.5,-0.5"/>
                </g>
                <g id="arrowRight" xlink:href="#dirArrow" transform="rotate(90) translate(36 -43)" onmousedown="handlePan(1,0)">
                  <use xlink:href="#rim" fill="#404040">
                        <set attributeName="fill" to="#808080" begin="arrowRight.mouseover" end="arrowRight.mouseout"/>
                  </use>
                  <path fill="none" stroke="white" stroke-width="1.5" d="M0,-3.0v7 M-2.5,-0.5L0,-3.0L2.5,-0.5"/>
                </g>
                <g id="arrowDown" xlink:href="#dirArrow" transform="rotate(180) translate(-30 -48)" onmousedown="handlePan(0,1)">
                  <use xlink:href="#rim" fill="#404040">
                        <set attributeName="fill" to="#808080" begin="arrowDown.mouseover" end="arrowDown.mouseout"/>
                  </use>
                  <path fill="none" stroke="white" stroke-width="1.5" d="M0,-3.0v7 M-2.5,-0.5L0,-3.0L2.5,-0.5"/>
                </g>
                <g id="arrowLeft" xlink:href="#dirArrow" transform="rotate(270) translate(-36 17)" onmousedown="handlePan(-1,0)">
                  <use xlink:href="#rim" fill="#404040">
                        <set attributeName="fill" to="#808080" begin="arrowLeft.mouseover" end="arrowLeft.mouseout"/>
                  </use>
                  <path fill="none" stroke="white" stroke-width="1.5" d="M0,-3.0v7 M-2.5,-0.5L0,-3.0L2.5,-0.5"/>
                </g>
        </g>
        <svg viewBox="0 0 15 15" width="100%" height="30px" preserveAspectRatio="xMaxYMin meet">
         <g id="arrow_out" transform="scale(0.3 0.3)">
          <a xlink:href="c__phase_8h__dep__incl_org.svg" target="_base">
           <rect id="button" ry="5" rx="5" y="6" x="6" height="38" width="38"
                fill="#f2f5e9" fill-opacity="0.5" stroke="#606060" stroke-width="1.0"/>
           <path id="arrow"
             d="M 11.500037,31.436501 C 11.940474,20.09759 22.043105,11.32322 32.158766,21.979434 L 37.068811,17.246167 C 37.068811,17.246167 37.088388,32 37.088388,32 L 22.160133,31.978069 C 22.160133,31.978069 26.997745,27.140456 26.997745,27.140456 C 18.528582,18.264221 13.291696,25.230495 11.500037,31.436501 z"
             style="fill:#404040;"/>
          </a>
         </g>
        </svg>
</svg>
