<?xml version="1.0" encoding="UTF-8" standalone="no"?>
<!DOCTYPE svg PUBLIC "-//W3C//DTD SVG 1.1//EN"
 "http://www.w3.org/Graphics/SVG/1.1/DTD/svg11.dtd">
<!-- Generated by graphviz version 2.46.0 (20210122.1329)
 -->
<!-- Title: include/SComponent/c_sxyz.h Pages: 1 -->
<svg width="554pt" height="173pt"
 viewBox="0.00 0.00 554.00 173.00" xmlns="http://www.w3.org/2000/svg" xmlns:xlink="http://www.w3.org/1999/xlink">
<g id="graph0" class="graph" transform="scale(1 1) rotate(0) translate(4 169)">
<title>include/SComponent/c_sxyz.h</title>
<polygon fill="white" stroke="transparent" points="-4,4 -4,-169 550,-169 550,4 -4,4"/>
<!-- Node1 -->
<g id="node1" class="node">
<title>Node1</title>
<g id="a_node1"><a xlink:title=" ">
<polygon fill="#bfbfbf" stroke="black" points="205.5,-134.5 205.5,-164.5 312.5,-164.5 312.5,-134.5 205.5,-134.5"/>
<text text-anchor="start" x="213.5" y="-152.5" font-family="Helvetica,sans-Serif" font-size="10.00">include/SComponent</text>
<text text-anchor="middle" x="259" y="-141.5" font-family="Helvetica,sans-Serif" font-size="10.00">/c_sxyz.h</text>
</a>
</g>
</g>
<!-- Node2 -->
<g id="node2" class="node">
<title>Node2</title>
<g id="a_node2"><a xlink:href="d__camera_8cpp.html" target="_top" xlink:title=" ">
<polygon fill="white" stroke="black" points="0,-73 0,-92 102,-92 102,-73 0,-73"/>
<text text-anchor="middle" x="51" y="-80" font-family="Helvetica,sans-Serif" font-size="10.00">src/d/d_camera.cpp</text>
</a>
</g>
</g>
<!-- Node1&#45;&gt;Node2 -->
<g id="edge1" class="edge">
<title>Node1&#45;&gt;Node2</title>
<path fill="none" stroke="midnightblue" d="M204.38,-131.43C163.81,-118.75 110.2,-102 78.29,-92.03"/>
<polygon fill="midnightblue" stroke="midnightblue" points="203.53,-134.83 214.12,-134.48 205.62,-128.15 203.53,-134.83"/>
</g>
<!-- Node3 -->
<g id="node3" class="node">
<title>Node3</title>
<g id="a_node3"><a xlink:href="c__sxyz_8cpp.html" target="_top" xlink:title=" ">
<polygon fill="white" stroke="black" points="120,-67.5 120,-97.5 254,-97.5 254,-67.5 120,-67.5"/>
<text text-anchor="start" x="128" y="-85.5" font-family="Helvetica,sans-Serif" font-size="10.00">libs/SSystem/SComponent</text>
<text text-anchor="middle" x="187" y="-74.5" font-family="Helvetica,sans-Serif" font-size="10.00">/c_sxyz.cpp</text>
</a>
</g>
</g>
<!-- Node1&#45;&gt;Node3 -->
<g id="edge2" class="edge">
<title>Node1&#45;&gt;Node3</title>
<path fill="none" stroke="midnightblue" d="M235.85,-127.6C224.98,-117.78 212.3,-106.34 202.59,-97.58"/>
<polygon fill="midnightblue" stroke="midnightblue" points="233.61,-130.29 243.38,-134.4 238.3,-125.1 233.61,-130.29"/>
</g>
<!-- Node4 -->
<g id="node4" class="node">
<title>Node4</title>
<g id="a_node4"><a xlink:href="d__a__alink_8h.html" target="_top" xlink:title=" ">
<polygon fill="white" stroke="black" points="272.5,-67.5 272.5,-97.5 391.5,-97.5 391.5,-67.5 272.5,-67.5"/>
<text text-anchor="start" x="280.5" y="-85.5" font-family="Helvetica,sans-Serif" font-size="10.00">include/d/d_a/d_a_alink</text>
<text text-anchor="middle" x="332" y="-74.5" font-family="Helvetica,sans-Serif" font-size="10.00">/d_a_alink.h</text>
</a>
</g>
</g>
<!-- Node1&#45;&gt;Node4 -->
<g id="edge3" class="edge">
<title>Node1&#45;&gt;Node4</title>
<path fill="none" stroke="midnightblue" d="M282.47,-127.6C293.5,-117.78 306.34,-106.34 316.19,-97.58"/>
<polygon fill="midnightblue" stroke="midnightblue" points="279.98,-125.13 274.84,-134.4 284.64,-130.36 279.98,-125.13"/>
</g>
<!-- Node8 -->
<g id="node8" class="node">
<title>Node8</title>
<g id="a_node8"><a xlink:href="c__m3d_8h.html" target="_top" xlink:title=" ">
<polygon fill="white" stroke="black" points="417.5,-67.5 417.5,-97.5 524.5,-97.5 524.5,-67.5 417.5,-67.5"/>
<text text-anchor="start" x="425.5" y="-85.5" font-family="Helvetica,sans-Serif" font-size="10.00">include/SComponent</text>
<text text-anchor="middle" x="471" y="-74.5" font-family="Helvetica,sans-Serif" font-size="10.00">/c_m3d.h</text>
</a>
</g>
</g>
<!-- Node1&#45;&gt;Node8 -->
<g id="edge8" class="edge">
<title>Node1&#45;&gt;Node8</title>
<path fill="none" stroke="midnightblue" d="M314.63,-131.44C348.99,-120.91 392.56,-107.55 424.98,-97.61"/>
<polygon fill="midnightblue" stroke="midnightblue" points="313.27,-128.2 304.74,-134.48 315.33,-134.89 313.27,-128.2"/>
</g>
<!-- Node5 -->
<g id="node5" class="node">
<title>Node5</title>
<g id="a_node5"><a xlink:href="d__attention_8cpp.html" target="_top" xlink:title=" ">
<polygon fill="white" stroke="black" points="7.5,-6 7.5,-25 114.5,-25 114.5,-6 7.5,-6"/>
<text text-anchor="middle" x="61" y="-13" font-family="Helvetica,sans-Serif" font-size="10.00">src/d/d_attention.cpp</text>
</a>
</g>
</g>
<!-- Node4&#45;&gt;Node5 -->
<g id="edge4" class="edge">
<title>Node4&#45;&gt;Node5</title>
<path fill="none" stroke="midnightblue" d="M263.5,-65.07C210.35,-52.32 138.84,-35.17 96.56,-25.03"/>
<polygon fill="midnightblue" stroke="midnightblue" points="262.99,-68.55 273.53,-67.48 264.62,-61.74 262.99,-68.55"/>
</g>
<!-- Node6 -->
<g id="node6" class="node">
<title>Node6</title>
<g id="a_node6"><a xlink:href="d__a__alink_8cpp.html" target="_top" xlink:title=" ">
<polygon fill="white" stroke="black" points="132.5,-6 132.5,-25 251.5,-25 251.5,-6 132.5,-6"/>
<text text-anchor="middle" x="192" y="-13" font-family="Helvetica,sans-Serif" font-size="10.00">src/d/d_a/d_a_alink.cpp</text>
</a>
</g>
</g>
<!-- Node4&#45;&gt;Node6 -->
<g id="edge5" class="edge">
<title>Node4&#45;&gt;Node6</title>
<path fill="none" stroke="midnightblue" d="M292.44,-63.13C265.49,-50.62 231.07,-34.64 210.32,-25.01"/>
<polygon fill="midnightblue" stroke="midnightblue" points="291.08,-66.36 301.62,-67.4 294.03,-60.01 291.08,-66.36"/>
</g>
<!-- Node7 -->
<g id="node7" class="node">
<title>Node7</title>
<g id="a_node7"><a xlink:href="d__a__player_8h.html" target="_top" xlink:title=" ">
<polygon fill="white" stroke="black" points="270,-0.5 270,-30.5 394,-30.5 394,-0.5 270,-0.5"/>
<text text-anchor="start" x="278" y="-18.5" font-family="Helvetica,sans-Serif" font-size="10.00">include/d/d_a/d_a_player</text>
<text text-anchor="middle" x="332" y="-7.5" font-family="Helvetica,sans-Serif" font-size="10.00">/d_a_player.h</text>
</a>
</g>
</g>
<!-- Node4&#45;&gt;Node7 -->
<g id="edge6" class="edge">
<title>Node4&#45;&gt;Node7</title>
<path fill="none" stroke="midnightblue" d="M325.45,-57.4C325.01,-48.37 325.3,-38.41 326.33,-30.58"/>
<polygon fill="midnightblue" stroke="midnightblue" points="321.97,-57.74 326.32,-67.4 328.94,-57.13 321.97,-57.74"/>
</g>
<!-- Node7&#45;&gt;Node4 -->
<g id="edge7" class="edge">
<title>Node7&#45;&gt;Node4</title>
<path fill="none" stroke="midnightblue" d="M338.54,-40.57C338.99,-49.6 338.71,-59.56 337.68,-67.4"/>
<polygon fill="midnightblue" stroke="midnightblue" points="342.03,-40.24 337.67,-30.58 335.05,-40.84 342.03,-40.24"/>
</g>
<!-- Node9 -->
<g id="node9" class="node">
<title>Node9</title>
<g id="a_node9"><a xlink:href="c__m3d_8cpp.html" target="_top" xlink:title=" ">
<polygon fill="white" stroke="black" points="412,-0.5 412,-30.5 546,-30.5 546,-0.5 412,-0.5"/>
<text text-anchor="start" x="420" y="-18.5" font-family="Helvetica,sans-Serif" font-size="10.00">libs/SSystem/SComponent</text>
<text text-anchor="middle" x="479" y="-7.5" font-family="Helvetica,sans-Serif" font-size="10.00">/c_m3d.cpp</text>
</a>
</g>
</g>
<!-- Node8&#45;&gt;Node9 -->
<g id="edge9" class="edge">
<title>Node8&#45;&gt;Node9</title>
<path fill="none" stroke="midnightblue" d="M473.97,-57.4C475.08,-48.37 476.3,-38.41 477.27,-30.58"/>
<polygon fill="midnightblue" stroke="midnightblue" points="470.48,-57.04 472.74,-67.4 477.43,-57.9 470.48,-57.04"/>
</g>
</g>
</svg>
