<?xml version="1.0" encoding="UTF-8" standalone="no"?>
<!DOCTYPE svg PUBLIC "-//W3C//DTD SVG 1.1//EN"
 "http://www.w3.org/Graphics/SVG/1.1/DTD/svg11.dtd">
<!-- Generated by graphviz version 2.47.0 (20210316.2052)
 -->
<!-- Title: include/SComponent/c_tag_iter.h Pages: 1 -->
<!--zoomable 307 -->
<svg id="main" version="1.1" xmlns="http://www.w3.org/2000/svg" xmlns:xlink="http://www.w3.org/1999/xlink" xml:space="preserve" onload="init(evt)">
<style type="text/css"><![CDATA[
.edge:hover path { stroke: red; }
.edge:hover polygon { stroke: red; fill: red; }
]]></style>
<script type="text/javascript"><![CDATA[
var edges = document.getElementsByTagName('g');
if (edges && edges.length) {
  for (var i=0;i<edges.length;i++) {
    if (edges[i].id.substr(0,4)=='edge') {
      edges[i].setAttribute('class','edge');
    }
  }
}
]]></script>
        <defs>
                <circle id="rim" cx="0" cy="0" r="7"/>
                <circle id="rim2" cx="0" cy="0" r="3.5"/>
                <g id="zoomPlus">
                        <use xlink:href="#rim" fill="#404040">
                                <set attributeName="fill" to="#808080" begin="zoomplus.mouseover" end="zoomplus.mouseout"/>
                        </use>
                        <path d="M-4,0h8M0,-4v8" fill="none" stroke="white" stroke-width="1.5" pointer-events="none"/>
                </g>
                <g id="zoomMin">
                        <use xlink:href="#rim" fill="#404040">
                                <set attributeName="fill" to="#808080" begin="zoomminus.mouseover" end="zoomminus.mouseout"/>
                        </use>
                        <path d="M-4,0h8" fill="none" stroke="white" stroke-width="1.5" pointer-events="none"/>
                </g>
                <g id="dirArrow">
                        <path fill="none" stroke="white" stroke-width="1.5" d="M0,-3.0v7 M-2.5,-0.5L0,-3.0L2.5,-0.5"/>
                </g>
               <g id="resetDef">
                       <use xlink:href="#rim2" fill="#404040">
                               <set attributeName="fill" to="#808080" begin="reset.mouseover" end="reset.mouseout"/>
                       </use>
               </g>
        </defs>

<script type="text/javascript">
var viewWidth = 1771;
var viewHeight = 307;
var sectionId = 'dynsection-1';
</script>
<script xlink:href="svgpan.js"/>
<svg id="graph" class="graph">
<g id="viewport">
<title>include/SComponent/c_tag_iter.h</title>
<polygon fill="white" stroke="transparent" points="-4,4 -4,-303 1767,-303 1767,4 -4,4"/>
<!-- Node1 -->
<g id="node1" class="node">
<title>Node1</title>
<g id="a_node1"><a xlink:title=" ">
<polygon fill="#bfbfbf" stroke="black" points="313,-268.5 313,-298.5 420,-298.5 420,-268.5 313,-268.5"/>
<text text-anchor="start" x="321" y="-286.5" font-family="Helvetica,sans-Serif" font-size="10.00">include/SComponent</text>
<text text-anchor="middle" x="366.5" y="-275.5" font-family="Helvetica,sans-Serif" font-size="10.00">/c_tag_iter.h</text>
</a>
</g>
</g>
<!-- Node2 -->
<g id="node2" class="node">
<title>Node2</title>
<g id="a_node2"><a xlink:href="f__op__actor__iter_8cpp.html" target="_top" xlink:title=" ">
<polygon fill="white" stroke="black" points="0,-201.5 0,-231.5 107,-231.5 107,-201.5 0,-201.5"/>
<text text-anchor="start" x="8" y="-219.5" font-family="Helvetica,sans-Serif" font-size="10.00">src/f/f_op/f_op_actor</text>
<text text-anchor="middle" x="53.5" y="-208.5" font-family="Helvetica,sans-Serif" font-size="10.00">_iter.cpp</text>
</a>
</g>
</g>
<!-- Node1&#45;&gt;Node2 -->
<g id="edge1" class="edge">
<title>Node1&#45;&gt;Node2</title>
<path fill="none" stroke="midnightblue" d="M302.68,-270.23C251.88,-260.33 179.02,-245.81 115.5,-232 112.8,-231.41 110.04,-230.8 107.25,-230.18"/>
<polygon fill="midnightblue" stroke="midnightblue" points="302.06,-273.67 312.54,-272.15 303.39,-266.8 302.06,-273.67"/>
</g>
<!-- Node3 -->
<g id="node3" class="node">
<title>Node3</title>
<g id="a_node3"><a xlink:href="f__op__scene__iter_8cpp.html" target="_top" xlink:title=" ">
<polygon fill="white" stroke="black" points="125,-201.5 125,-231.5 236,-231.5 236,-201.5 125,-201.5"/>
<text text-anchor="start" x="133" y="-219.5" font-family="Helvetica,sans-Serif" font-size="10.00">src/f/f_op/f_op_scene</text>
<text text-anchor="middle" x="180.5" y="-208.5" font-family="Helvetica,sans-Serif" font-size="10.00">_iter.cpp</text>
</a>
</g>
</g>
<!-- Node1&#45;&gt;Node3 -->
<g id="edge2" class="edge">
<title>Node1&#45;&gt;Node3</title>
<path fill="none" stroke="midnightblue" d="M316.69,-265.09C286.66,-254.6 248.91,-241.41 220.78,-231.58"/>
<polygon fill="midnightblue" stroke="midnightblue" points="315.55,-268.4 326.14,-268.4 317.86,-261.79 315.55,-268.4"/>
</g>
<!-- Node4 -->
<g id="node4" class="node">
<title>Node4</title>
<g id="a_node4"><a xlink:href="f__pc__layer__iter_8cpp.html" target="_top" xlink:title=" ">
<polygon fill="white" stroke="black" points="254,-201.5 254,-231.5 359,-231.5 359,-201.5 254,-201.5"/>
<text text-anchor="start" x="262" y="-219.5" font-family="Helvetica,sans-Serif" font-size="10.00">src/f/f_pc/f_pc_layer</text>
<text text-anchor="middle" x="306.5" y="-208.5" font-family="Helvetica,sans-Serif" font-size="10.00">_iter.cpp</text>
</a>
</g>
</g>
<!-- Node1&#45;&gt;Node4 -->
<g id="edge3" class="edge">
<title>Node1&#45;&gt;Node4</title>
<path fill="none" stroke="midnightblue" d="M346.68,-261.02C337.74,-251.34 327.43,-240.17 319.49,-231.58"/>
<polygon fill="midnightblue" stroke="midnightblue" points="344.13,-263.42 353.48,-268.4 349.27,-258.67 344.13,-263.42"/>
</g>
<!-- Node5 -->
<g id="node5" class="node">
<title>Node5</title>
<g id="a_node5"><a xlink:href="f__pc__line__iter_8cpp.html" target="_top" xlink:title=" ">
<polygon fill="white" stroke="black" points="377.5,-201.5 377.5,-231.5 477.5,-231.5 477.5,-201.5 377.5,-201.5"/>
<text text-anchor="start" x="385.5" y="-219.5" font-family="Helvetica,sans-Serif" font-size="10.00">src/f/f_pc/f_pc_line</text>
<text text-anchor="middle" x="427.5" y="-208.5" font-family="Helvetica,sans-Serif" font-size="10.00">_iter.cpp</text>
</a>
</g>
</g>
<!-- Node1&#45;&gt;Node5 -->
<g id="edge4" class="edge">
<title>Node1&#45;&gt;Node5</title>
<path fill="none" stroke="midnightblue" d="M386.65,-261.02C395.74,-251.34 406.22,-240.17 414.29,-231.58"/>
<polygon fill="midnightblue" stroke="midnightblue" points="384.03,-258.71 379.74,-268.4 389.13,-263.5 384.03,-258.71"/>
</g>
<!-- Node6 -->
<g id="node6" class="node">
<title>Node6</title>
<g id="a_node6"><a xlink:href="c__tag__iter_8cpp.html" target="_top" xlink:title=" ">
<polygon fill="white" stroke="black" points="495.5,-201.5 495.5,-231.5 629.5,-231.5 629.5,-201.5 495.5,-201.5"/>
<text text-anchor="start" x="503.5" y="-219.5" font-family="Helvetica,sans-Serif" font-size="10.00">libs/SSystem/SComponent</text>
<text text-anchor="middle" x="562.5" y="-208.5" font-family="Helvetica,sans-Serif" font-size="10.00">/c_tag_iter.cpp</text>
</a>
</g>
</g>
<!-- Node1&#45;&gt;Node6 -->
<g id="edge5" class="edge">
<title>Node1&#45;&gt;Node6</title>
<path fill="none" stroke="midnightblue" d="M418.58,-265.23C450.29,-254.71 490.28,-241.45 520.05,-231.58"/>
<polygon fill="midnightblue" stroke="midnightblue" points="417.42,-261.93 409.03,-268.4 419.62,-268.57 417.42,-261.93"/>
</g>
<!-- Node7 -->
<g id="node7" class="node">
<title>Node7</title>
<g id="a_node7"><a xlink:href="f__pc__create__iter_8h.html" target="_top" xlink:title=" ">
<polygon fill="white" stroke="black" points="648,-201.5 648,-231.5 745,-231.5 745,-201.5 648,-201.5"/>
<text text-anchor="start" x="656" y="-219.5" font-family="Helvetica,sans-Serif" font-size="10.00">include/f/f_pc/f_pc</text>
<text text-anchor="middle" x="696.5" y="-208.5" font-family="Helvetica,sans-Serif" font-size="10.00">_create_iter.h</text>
</a>
</g>
</g>
<!-- Node1&#45;&gt;Node7 -->
<g id="edge6" class="edge">
<title>Node1&#45;&gt;Node7</title>
<path fill="none" stroke="midnightblue" d="M430.11,-271.83C485.38,-262.29 567.48,-247.46 638.5,-232 641.54,-231.34 644.67,-230.63 647.82,-229.9"/>
<polygon fill="midnightblue" stroke="midnightblue" points="429.37,-268.4 420.11,-273.55 430.56,-275.3 429.37,-268.4"/>
</g>
<!-- Node8 -->
<g id="node8" class="node">
<title>Node8</title>
<g id="a_node8"><a xlink:href="f__pc__create__iter_8cpp.html" target="_top" xlink:title=" ">
<polygon fill="white" stroke="black" points="468.5,-134.5 468.5,-164.5 580.5,-164.5 580.5,-134.5 468.5,-134.5"/>
<text text-anchor="start" x="476.5" y="-152.5" font-family="Helvetica,sans-Serif" font-size="10.00">src/f/f_pc/f_pc_create</text>
<text text-anchor="middle" x="524.5" y="-141.5" font-family="Helvetica,sans-Serif" font-size="10.00">_iter.cpp</text>
</a>
</g>
</g>
<!-- Node7&#45;&gt;Node8 -->
<g id="edge7" class="edge">
<title>Node7&#45;&gt;Node8</title>
<path fill="none" stroke="midnightblue" d="M649.71,-197.82C622.07,-187.37 587.54,-174.32 561.75,-164.58"/>
<polygon fill="midnightblue" stroke="midnightblue" points="648.59,-201.13 659.18,-201.4 651.06,-194.59 648.59,-201.13"/>
</g>
<!-- Node9 -->
<g id="node9" class="node">
<title>Node9</title>
<g id="a_node9"><a xlink:href="f__pc__create__req_8cpp.html" target="_top" xlink:title=" ">
<polygon fill="white" stroke="black" points="598.5,-134.5 598.5,-164.5 710.5,-164.5 710.5,-134.5 598.5,-134.5"/>
<text text-anchor="start" x="606.5" y="-152.5" font-family="Helvetica,sans-Serif" font-size="10.00">src/f/f_pc/f_pc_create</text>
<text text-anchor="middle" x="654.5" y="-141.5" font-family="Helvetica,sans-Serif" font-size="10.00">_req.cpp</text>
</a>
</g>
</g>
<!-- Node7&#45;&gt;Node9 -->
<g id="edge8" class="edge">
<title>Node7&#45;&gt;Node9</title>
<path fill="none" stroke="midnightblue" d="M681.88,-192.87C675.8,-183.46 668.93,-172.83 663.6,-164.58"/>
<polygon fill="midnightblue" stroke="midnightblue" points="679.02,-194.9 687.39,-201.4 684.9,-191.1 679.02,-194.9"/>
</g>
<!-- Node10 -->
<g id="node10" class="node">
<title>Node10</title>
<g id="a_node10"><a xlink:href="f__pc__manager_8cpp.html" target="_top" xlink:title=" ">
<polygon fill="white" stroke="black" points="553.5,-73 553.5,-92 693.5,-92 693.5,-73 553.5,-73"/>
<text text-anchor="middle" x="623.5" y="-80" font-family="Helvetica,sans-Serif" font-size="10.00">src/f/f_pc/f_pc_manager.cpp</text>
</a>
</g>
</g>
<!-- Node7&#45;&gt;Node10 -->
<g id="edge9" class="edge">
<title>Node7&#45;&gt;Node10</title>
<path fill="none" stroke="midnightblue" d="M712.25,-192.56C721.87,-175.46 730.4,-152.05 719.5,-134 706.36,-112.24 680.38,-99.38 658.76,-92.1"/>
<polygon fill="midnightblue" stroke="midnightblue" points="709.12,-190.97 706.92,-201.33 715.1,-194.6 709.12,-190.97"/>
</g>
<!-- Node11 -->
<g id="node11" class="node">
<title>Node11</title>
<g id="a_node11"><a xlink:href="f__pc__manager_8h.html" target="_top" xlink:title=" ">
<polygon fill="white" stroke="black" points="883,-134.5 883,-164.5 980,-164.5 980,-134.5 883,-134.5"/>
<text text-anchor="start" x="891" y="-152.5" font-family="Helvetica,sans-Serif" font-size="10.00">include/f/f_pc/f_pc</text>
<text text-anchor="middle" x="931.5" y="-141.5" font-family="Helvetica,sans-Serif" font-size="10.00">_manager.h</text>
</a>
</g>
</g>
<!-- Node7&#45;&gt;Node11 -->
<g id="edge10" class="edge">
<title>Node7&#45;&gt;Node11</title>
<path fill="none" stroke="midnightblue" d="M754.93,-199.34C794.33,-188.44 845.71,-174.23 882.87,-163.95"/>
<polygon fill="midnightblue" stroke="midnightblue" points="753.9,-195.99 745.19,-202.03 755.76,-202.74 753.9,-195.99"/>
</g>
<!-- Node11&#45;&gt;Node10 -->
<g id="edge17" class="edge">
<title>Node11&#45;&gt;Node10</title>
<path fill="none" stroke="midnightblue" d="M872.81,-136.11C811.71,-123.22 717.61,-103.36 664.21,-92.09"/>
<polygon fill="midnightblue" stroke="midnightblue" points="872.19,-139.56 882.7,-138.2 873.63,-132.71 872.19,-139.56"/>
</g>
<!-- Node12 -->
<g id="node12" class="node">
<title>Node12</title>
<g id="a_node12"><a xlink:href="d__a__alink_8cpp.html" target="_top" xlink:title=" ">
<polygon fill="white" stroke="black" points="838,-6 838,-25 957,-25 957,-6 838,-6"/>
<text text-anchor="middle" x="897.5" y="-13" font-family="Helvetica,sans-Serif" font-size="10.00">src/d/d_a/d_a_alink.cpp</text>
</a>
</g>
</g>
<!-- Node11&#45;&gt;Node12 -->
<g id="edge11" class="edge">
<title>Node11&#45;&gt;Node12</title>
<path fill="none" stroke="midnightblue" d="M872.73,-140.86C822.77,-133.02 756.65,-118.98 740.5,-98 709.73,-58.03 783.07,-35.8 839.6,-25"/>
<polygon fill="midnightblue" stroke="midnightblue" points="872.39,-144.35 882.8,-142.39 873.44,-137.43 872.39,-144.35"/>
</g>
<!-- Node13 -->
<g id="node13" class="node">
<title>Node13</title>
<g id="a_node13"><a xlink:href="f__ap__game_8cpp.html" target="_top" xlink:title=" ">
<polygon fill="white" stroke="black" points="750,-73 750,-92 855,-92 855,-73 750,-73"/>
<text text-anchor="middle" x="802.5" y="-80" font-family="Helvetica,sans-Serif" font-size="10.00">src/f/f_ap_game.cpp</text>
</a>
</g>
</g>
<!-- Node11&#45;&gt;Node13 -->
<g id="edge12" class="edge">
<title>Node11&#45;&gt;Node13</title>
<path fill="none" stroke="midnightblue" d="M894.39,-129.8C869.66,-117.34 838.33,-101.56 819.38,-92.01"/>
<polygon fill="midnightblue" stroke="midnightblue" points="893,-133.02 903.51,-134.4 896.15,-126.77 893,-133.02"/>
</g>
<!-- Node14 -->
<g id="node14" class="node">
<title>Node14</title>
<g id="a_node14"><a xlink:href="f__op__kankyo__mng_8cpp.html" target="_top" xlink:title=" ">
<polygon fill="white" stroke="black" points="873.5,-67.5 873.5,-97.5 989.5,-97.5 989.5,-67.5 873.5,-67.5"/>
<text text-anchor="start" x="881.5" y="-85.5" font-family="Helvetica,sans-Serif" font-size="10.00">src/f/f_op/f_op_kankyo</text>
<text text-anchor="middle" x="931.5" y="-74.5" font-family="Helvetica,sans-Serif" font-size="10.00">_mng.cpp</text>
</a>
</g>
</g>
<!-- Node11&#45;&gt;Node14 -->
<g id="edge13" class="edge">
<title>Node11&#45;&gt;Node14</title>
<path fill="none" stroke="midnightblue" d="M931.5,-124.11C931.5,-115.15 931.5,-105.32 931.5,-97.58"/>
<polygon fill="midnightblue" stroke="midnightblue" points="928,-124.4 931.5,-134.4 935,-124.4 928,-124.4"/>
</g>
<!-- Node15 -->
<g id="node15" class="node">
<title>Node15</title>
<g id="a_node15"><a xlink:href="f__op__overlap__req_8cpp.html" target="_top" xlink:title=" ">
<polygon fill="white" stroke="black" points="1007.5,-67.5 1007.5,-97.5 1123.5,-97.5 1123.5,-67.5 1007.5,-67.5"/>
<text text-anchor="start" x="1015.5" y="-85.5" font-family="Helvetica,sans-Serif" font-size="10.00">src/f/f_op/f_op_overlap</text>
<text text-anchor="middle" x="1065.5" y="-74.5" font-family="Helvetica,sans-Serif" font-size="10.00">_req.cpp</text>
</a>
</g>
</g>
<!-- Node11&#45;&gt;Node15 -->
<g id="edge14" class="edge">
<title>Node11&#45;&gt;Node15</title>
<path fill="none" stroke="midnightblue" d="M969.65,-129.99C990.89,-119.69 1016.91,-107.07 1036.48,-97.58"/>
<polygon fill="midnightblue" stroke="midnightblue" points="968.05,-126.88 960.58,-134.4 971.1,-133.18 968.05,-126.88"/>
</g>
<!-- Node16 -->
<g id="node16" class="node">
<title>Node16</title>
<g id="a_node16"><a xlink:href="f__op__msg__mng_8cpp.html" target="_top" xlink:title=" ">
<polygon fill="white" stroke="black" points="1141.5,-67.5 1141.5,-97.5 1245.5,-97.5 1245.5,-67.5 1141.5,-67.5"/>
<text text-anchor="start" x="1149.5" y="-85.5" font-family="Helvetica,sans-Serif" font-size="10.00">src/f/f_op/f_op_msg</text>
<text text-anchor="middle" x="1193.5" y="-74.5" font-family="Helvetica,sans-Serif" font-size="10.00">_mng.cpp</text>
</a>
</g>
</g>
<!-- Node11&#45;&gt;Node16 -->
<g id="edge15" class="edge">
<title>Node11&#45;&gt;Node16</title>
<path fill="none" stroke="midnightblue" d="M990.13,-133.95C1035.38,-122.73 1097.43,-107.33 1141.05,-96.51"/>
<polygon fill="midnightblue" stroke="midnightblue" points="989.03,-130.62 980.17,-136.43 990.71,-137.42 989.03,-130.62"/>
</g>
<!-- Node17 -->
<g id="node17" class="node">
<title>Node17</title>
<g id="a_node17"><a xlink:href="f__op__scene__pause_8cpp.html" target="_top" xlink:title=" ">
<polygon fill="white" stroke="black" points="1264,-67.5 1264,-97.5 1375,-97.5 1375,-67.5 1264,-67.5"/>
<text text-anchor="start" x="1272" y="-85.5" font-family="Helvetica,sans-Serif" font-size="10.00">src/f/f_op/f_op_scene</text>
<text text-anchor="middle" x="1319.5" y="-74.5" font-family="Helvetica,sans-Serif" font-size="10.00">_pause.cpp</text>
</a>
</g>
</g>
<!-- Node11&#45;&gt;Node17 -->
<g id="edge16" class="edge">
<title>Node11&#45;&gt;Node17</title>
<path fill="none" stroke="midnightblue" d="M990.13,-140.49C1055,-131.36 1162.53,-115.43 1254.5,-98 1257.57,-97.42 1260.71,-96.8 1263.88,-96.15"/>
<polygon fill="midnightblue" stroke="midnightblue" points="989.51,-137.04 980.1,-141.9 990.49,-143.98 989.51,-137.04"/>
</g>
<!-- Node18 -->
<g id="node18" class="node">
<title>Node18</title>
<g id="a_node18"><a xlink:href="f__op__actor__mng_8h.html" target="_top" xlink:title=" ">
<polygon fill="white" stroke="black" points="1393,-67.5 1393,-97.5 1490,-97.5 1490,-67.5 1393,-67.5"/>
<text text-anchor="start" x="1401" y="-85.5" font-family="Helvetica,sans-Serif" font-size="10.00">include/f/f_op/f_op</text>
<text text-anchor="middle" x="1441.5" y="-74.5" font-family="Helvetica,sans-Serif" font-size="10.00">_actor_mng.h</text>
</a>
</g>
</g>
<!-- Node11&#45;&gt;Node18 -->
<g id="edge18" class="edge">
<title>Node11&#45;&gt;Node18</title>
<path fill="none" stroke="midnightblue" d="M990.26,-144.55C1077.01,-138.14 1244.23,-123.53 1384.5,-98 1387.21,-97.51 1389.99,-96.96 1392.78,-96.36"/>
<polygon fill="midnightblue" stroke="midnightblue" points="989.81,-141.08 980.09,-145.3 990.32,-148.06 989.81,-141.08"/>
</g>
<!-- Node18&#45;&gt;Node12 -->
<g id="edge21" class="edge">
<title>Node18&#45;&gt;Node12</title>
<path fill="none" stroke="midnightblue" d="M1382.85,-66.86C1224.33,-39.23 1047.41,-25.6 957.11,-19.87"/>
<polygon fill="midnightblue" stroke="midnightblue" points="1382.33,-70.32 1392.78,-68.61 1383.55,-63.42 1382.33,-70.32"/>
</g>
<!-- Node19 -->
<g id="node19" class="node">
<title>Node19</title>
<g id="a_node19"><a xlink:href="d__attention_8cpp.html" target="_top" xlink:title=" ">
<polygon fill="white" stroke="black" points="1150,-6 1150,-25 1257,-25 1257,-6 1150,-6"/>
<text text-anchor="middle" x="1203.5" y="-13" font-family="Helvetica,sans-Serif" font-size="10.00">src/d/d_attention.cpp</text>
</a>
</g>
</g>
<!-- Node18&#45;&gt;Node19 -->
<g id="edge19" class="edge">
<title>Node18&#45;&gt;Node19</title>
<path fill="none" stroke="midnightblue" d="M1383.04,-65.54C1336.22,-52.75 1272.34,-35.3 1234.75,-25.03"/>
<polygon fill="midnightblue" stroke="midnightblue" points="1382.19,-68.93 1392.76,-68.19 1384.04,-62.18 1382.19,-68.93"/>
</g>
<!-- Node20 -->
<g id="node20" class="node">
<title>Node20</title>
<g id="a_node20"><a xlink:href="d__camera_8cpp.html" target="_top" xlink:title=" ">
<polygon fill="white" stroke="black" points="1274.5,-6 1274.5,-25 1376.5,-25 1376.5,-6 1274.5,-6"/>
<text text-anchor="middle" x="1325.5" y="-13" font-family="Helvetica,sans-Serif" font-size="10.00">src/d/d_camera.cpp</text>
</a>
</g>
</g>
<!-- Node18&#45;&gt;Node20 -->
<g id="edge20" class="edge">
<title>Node18&#45;&gt;Node20</title>
<path fill="none" stroke="midnightblue" d="M1407.54,-62.47C1385.4,-50.06 1357.57,-34.47 1340.68,-25.01"/>
<polygon fill="midnightblue" stroke="midnightblue" points="1405.9,-65.56 1416.33,-67.4 1409.32,-59.45 1405.9,-65.56"/>
</g>
<!-- Node21 -->
<g id="node21" class="node">
<title>Node21</title>
<g id="a_node21"><a xlink:href="d__stage_8cpp.html" target="_top" xlink:title=" ">
<polygon fill="white" stroke="black" points="1394.5,-6 1394.5,-25 1488.5,-25 1488.5,-6 1394.5,-6"/>
<text text-anchor="middle" x="1441.5" y="-13" font-family="Helvetica,sans-Serif" font-size="10.00">src/d/d_stage.cpp</text>
</a>
</g>
</g>
<!-- Node18&#45;&gt;Node21 -->
<g id="edge22" class="edge">
<title>Node18&#45;&gt;Node21</title>
<path fill="none" stroke="midnightblue" d="M1441.5,-57.25C1441.5,-46.02 1441.5,-33.38 1441.5,-25.19"/>
<polygon fill="midnightblue" stroke="midnightblue" points="1438,-57.4 1441.5,-67.4 1445,-57.4 1438,-57.4"/>
</g>
<!-- Node22 -->
<g id="node22" class="node">
<title>Node22</title>
<g id="a_node22"><a xlink:href="f__op__actor__mng_8cpp.html" target="_top" xlink:title=" ">
<polygon fill="white" stroke="black" points="1507,-0.5 1507,-30.5 1614,-30.5 1614,-0.5 1507,-0.5"/>
<text text-anchor="start" x="1515" y="-18.5" font-family="Helvetica,sans-Serif" font-size="10.00">src/f/f_op/f_op_actor</text>
<text text-anchor="middle" x="1560.5" y="-7.5" font-family="Helvetica,sans-Serif" font-size="10.00">_mng.cpp</text>
</a>
</g>
</g>
<!-- Node18&#45;&gt;Node22 -->
<g id="edge23" class="edge">
<title>Node18&#45;&gt;Node22</title>
<path fill="none" stroke="midnightblue" d="M1476.15,-62.57C1494.87,-52.35 1517.59,-39.94 1534.73,-30.58"/>
<polygon fill="midnightblue" stroke="midnightblue" points="1474.42,-59.53 1467.32,-67.4 1477.78,-65.67 1474.42,-59.53"/>
</g>
<!-- Node23 -->
<g id="node23" class="node">
<title>Node23</title>
<g id="a_node23"><a xlink:href="m__Do__main_8cpp.html" target="_top" xlink:title=" ">
<polygon fill="white" stroke="black" points="1632,-6 1632,-25 1763,-25 1763,-6 1632,-6"/>
<text text-anchor="middle" x="1697.5" y="-13" font-family="Helvetica,sans-Serif" font-size="10.00">src/m_Do/m_Do_main.cpp</text>
</a>
</g>
</g>
<!-- Node18&#45;&gt;Node23 -->
<g id="edge24" class="edge">
<title>Node18&#45;&gt;Node23</title>
<path fill="none" stroke="midnightblue" d="M1500.11,-66.62C1550.85,-53.73 1622.45,-35.56 1664.02,-25"/>
<polygon fill="midnightblue" stroke="midnightblue" points="1499.09,-63.27 1490.25,-69.12 1500.81,-70.05 1499.09,-63.27"/>
</g>
</g>
</svg>
        <g id="navigator" transform="translate(0 0)" fill="#404254">
                <rect fill="#f2f5e9" fill-opacity="0.5" stroke="#606060" stroke-width=".5" x="0" y="0" width="60" height="60"/>
                <use id="zoomplus" xlink:href="#zoomPlus" x="17" y="9" onmousedown="handleZoom(evt,'in')"/>
                <use id="zoomminus" xlink:href="#zoomMin" x="42" y="9" onmousedown="handleZoom(evt,'out')"/>
                <use id="reset" xlink:href="#resetDef" x="30" y="36" onmousedown="handleReset()"/>
                <g id="arrowUp" xlink:href="#dirArrow" transform="translate(30 24)" onmousedown="handlePan(0,-1)">
                  <use xlink:href="#rim" fill="#404040">
                        <set attributeName="fill" to="#808080" begin="arrowUp.mouseover" end="arrowUp.mouseout"/>
                  </use>
                  <path fill="none" stroke="white" stroke-width="1.5" d="M0,-3.0v7 M-2.5,-0.5L0,-3.0L2.5,-0.5"/>
                </g>
                <g id="arrowRight" xlink:href="#dirArrow" transform="rotate(90) translate(36 -43)" onmousedown="handlePan(1,0)">
                  <use xlink:href="#rim" fill="#404040">
                        <set attributeName="fill" to="#808080" begin="arrowRight.mouseover" end="arrowRight.mouseout"/>
                  </use>
                  <path fill="none" stroke="white" stroke-width="1.5" d="M0,-3.0v7 M-2.5,-0.5L0,-3.0L2.5,-0.5"/>
                </g>
                <g id="arrowDown" xlink:href="#dirArrow" transform="rotate(180) translate(-30 -48)" onmousedown="handlePan(0,1)">
                  <use xlink:href="#rim" fill="#404040">
                        <set attributeName="fill" to="#808080" begin="arrowDown.mouseover" end="arrowDown.mouseout"/>
                  </use>
                  <path fill="none" stroke="white" stroke-width="1.5" d="M0,-3.0v7 M-2.5,-0.5L0,-3.0L2.5,-0.5"/>
                </g>
                <g id="arrowLeft" xlink:href="#dirArrow" transform="rotate(270) translate(-36 17)" onmousedown="handlePan(-1,0)">
                  <use xlink:href="#rim" fill="#404040">
                        <set attributeName="fill" to="#808080" begin="arrowLeft.mouseover" end="arrowLeft.mouseout"/>
                  </use>
                  <path fill="none" stroke="white" stroke-width="1.5" d="M0,-3.0v7 M-2.5,-0.5L0,-3.0L2.5,-0.5"/>
                </g>
        </g>
        <svg viewBox="0 0 15 15" width="100%" height="30px" preserveAspectRatio="xMaxYMin meet">
         <g id="arrow_out" transform="scale(0.3 0.3)">
          <a xlink:href="c__tag__iter_8h__dep__incl_org.svg" target="_base">
           <rect id="button" ry="5" rx="5" y="6" x="6" height="38" width="38"
                fill="#f2f5e9" fill-opacity="0.5" stroke="#606060" stroke-width="1.0"/>
           <path id="arrow"
             d="M 11.500037,31.436501 C 11.940474,20.09759 22.043105,11.32322 32.158766,21.979434 L 37.068811,17.246167 C 37.068811,17.246167 37.088388,32 37.088388,32 L 22.160133,31.978069 C 22.160133,31.978069 26.997745,27.140456 26.997745,27.140456 C 18.528582,18.264221 13.291696,25.230495 11.500037,31.436501 z"
             style="fill:#404040;"/>
          </a>
         </g>
        </svg>
</svg>
