<?xml version="1.0" encoding="UTF-8" standalone="no"?>
<!DOCTYPE svg PUBLIC "-//W3C//DTD SVG 1.1//EN"
 "http://www.w3.org/Graphics/SVG/1.1/DTD/svg11.dtd">
<!-- Generated by graphviz version 7.0.5 (20221223.1930)
 -->
<!-- Title: daItemBase_c Pages: 1 -->
<svg width="263pt" height="192pt"
 viewBox="0.00 0.00 262.50 192.00" xmlns="http://www.w3.org/2000/svg" xmlns:xlink="http://www.w3.org/1999/xlink">
<g id="graph0" class="graph" transform="scale(1 1) rotate(0) translate(4 188)">
<title>daItemBase_c</title>
<!-- Node1 -->
<g id="node1" class="node">
<title>Node1</title>
<g id="a_node1"><a xlink:title=" ">
<polygon fill="#999999" stroke="#666666" points="155.5,-74 75.5,-74 75.5,-55 155.5,-55 155.5,-74"/>
<text text-anchor="middle" x="115.5" y="-62" font-family="Helvetica,sans-Serif" font-size="10.00">daItemBase_c</text>
</a>
</g>
</g>
<!-- Node4 -->
<g id="node4" class="node">
<title>Node4</title>
<g id="a_node4"><a xlink:href="classdaItem__c.html" target="_top" xlink:title=" ">
<polygon fill="white" stroke="#666666" points="57,-19 0,-19 0,0 57,0 57,-19"/>
<text text-anchor="middle" x="28.5" y="-7" font-family="Helvetica,sans-Serif" font-size="10.00">daItem_c</text>
</a>
</g>
</g>
<!-- Node1&#45;&gt;Node4 -->
<g id="edge3" class="edge">
<title>Node1&#45;&gt;Node4</title>
<path fill="none" stroke="#63b8ff" d="M91.26,-48.73C75.76,-39.29 56.17,-27.36 43.04,-19.36"/>
<polygon fill="#63b8ff" stroke="#63b8ff" points="89.09,-51.51 99.45,-53.72 92.73,-45.53 89.09,-51.51"/>
</g>
<!-- Node5 -->
<g id="node5" class="node">
<title>Node5</title>
<g id="a_node5"><a xlink:href="classdaObjZCloth__c.html" target="_top" xlink:title=" ">
<polygon fill="white" stroke="#666666" points="156,-19 75,-19 75,0 156,0 156,-19"/>
<text text-anchor="middle" x="115.5" y="-7" font-family="Helvetica,sans-Serif" font-size="10.00">daObjZCloth_c</text>
</a>
</g>
</g>
<!-- Node1&#45;&gt;Node5 -->
<g id="edge4" class="edge">
<title>Node1&#45;&gt;Node5</title>
<path fill="none" stroke="#63b8ff" d="M115.5,-43.35C115.5,-35.1 115.5,-25.97 115.5,-19.44"/>
<polygon fill="#63b8ff" stroke="#63b8ff" points="112,-43.23 115.5,-53.23 119,-43.23 112,-43.23"/>
</g>
<!-- Node6 -->
<g id="node6" class="node">
<title>Node6</title>
<g id="a_node6"><a xlink:href="classdaShopItem__c.html" target="_top" xlink:title=" ">
<polygon fill="white" stroke="#666666" points="254.5,-19 174.5,-19 174.5,0 254.5,0 254.5,-19"/>
<text text-anchor="middle" x="214.5" y="-7" font-family="Helvetica,sans-Serif" font-size="10.00">daShopItem_c</text>
</a>
</g>
</g>
<!-- Node1&#45;&gt;Node6 -->
<g id="edge5" class="edge">
<title>Node1&#45;&gt;Node6</title>
<path fill="none" stroke="#63b8ff" d="M142.34,-49.13C160.09,-39.63 182.8,-27.47 197.95,-19.36"/>
<polygon fill="#63b8ff" stroke="#63b8ff" points="140.79,-45.99 133.63,-53.79 144.1,-52.16 140.79,-45.99"/>
</g>
<!-- Node2 -->
<g id="node2" class="node">
<title>Node2</title>
<g id="a_node2"><a xlink:href="structfopAc__ac__c.html" target="_top" xlink:title=" ">
<polygon fill="white" stroke="#666666" points="149.5,-129 81.5,-129 81.5,-110 149.5,-110 149.5,-129"/>
<text text-anchor="middle" x="115.5" y="-117" font-family="Helvetica,sans-Serif" font-size="10.00">fopAc_ac_c</text>
</a>
</g>
</g>
<!-- Node2&#45;&gt;Node1 -->
<g id="edge1" class="edge">
<title>Node2&#45;&gt;Node1</title>
<path fill="none" stroke="#63b8ff" d="M115.5,-98.35C115.5,-90.1 115.5,-80.97 115.5,-74.44"/>
<polygon fill="#63b8ff" stroke="#63b8ff" points="112,-98.23 115.5,-108.23 119,-98.23 112,-98.23"/>
</g>
<!-- Node3 -->
<g id="node3" class="node">
<title>Node3</title>
<g id="a_node3"><a xlink:href="structleafdraw__class.html" target="_top" xlink:title=" ">
<polygon fill="white" stroke="#666666" points="156.5,-184 74.5,-184 74.5,-165 156.5,-165 156.5,-184"/>
<text text-anchor="middle" x="115.5" y="-172" font-family="Helvetica,sans-Serif" font-size="10.00">leafdraw_class</text>
</a>
</g>
</g>
<!-- Node3&#45;&gt;Node2 -->
<g id="edge2" class="edge">
<title>Node3&#45;&gt;Node2</title>
<path fill="none" stroke="#63b8ff" d="M115.5,-153.35C115.5,-145.1 115.5,-135.97 115.5,-129.44"/>
<polygon fill="#63b8ff" stroke="#63b8ff" points="112,-153.23 115.5,-163.23 119,-153.23 112,-153.23"/>
</g>
</g>
</svg>
