<?xml version="1.0" encoding="UTF-8" standalone="no"?>
<!DOCTYPE svg PUBLIC "-//W3C//DTD SVG 1.1//EN"
 "http://www.w3.org/Graphics/SVG/1.1/DTD/svg11.dtd">
<!-- Generated by graphviz version 7.0.5 (20221223.1930)
 -->
<!-- Title: libs/JSystem/JStudio/JStudio/ctb.cpp Pages: 1 -->
<svg width="4174pt" height="577pt"
 viewBox="0.00 0.00 4174.00 577.00" xmlns="http://www.w3.org/2000/svg" xmlns:xlink="http://www.w3.org/1999/xlink">
<g id="graph0" class="graph" transform="scale(1 1) rotate(0) translate(4 573)">
<title>libs/JSystem/JStudio/JStudio/ctb.cpp</title>
<!-- Node1 -->
<g id="node1" class="node">
<title>Node1</title>
<g id="a_node1"><a xlink:title=" ">
<polygon fill="#999999" stroke="#666666" points="2775,-569 2666,-569 2666,-539 2775,-539 2775,-569"/>
<text text-anchor="start" x="2674" y="-557" font-family="Helvetica,sans-Serif" font-size="10.00">libs/JSystem/JStudio</text>
<text text-anchor="middle" x="2720.5" y="-546" font-family="Helvetica,sans-Serif" font-size="10.00">/JStudio/ctb.cpp</text>
</a>
</g>
</g>
<!-- Node2 -->
<g id="node2" class="node">
<title>Node2</title>
<g id="a_node2"><a xlink:href="ctb_8h.html" target="_top" xlink:title=" ">
<polygon fill="white" stroke="#666666" points="1855,-492 1728,-492 1728,-462 1855,-462 1855,-492"/>
<text text-anchor="start" x="1736" y="-480" font-family="Helvetica,sans-Serif" font-size="10.00">JSystem/JStudio/JStudio</text>
<text text-anchor="middle" x="1791.5" y="-469" font-family="Helvetica,sans-Serif" font-size="10.00">/ctb.h</text>
</a>
</g>
</g>
<!-- Node1&#45;&gt;Node2 -->
<g id="edge1" class="edge">
<title>Node1&#45;&gt;Node2</title>
<path fill="none" stroke="#63b8ff" d="M2665.87,-553.49C2531.93,-553.88 2176.91,-549.99 1885.5,-503 1873.75,-501.11 1861.35,-498.36 1849.54,-495.37"/>
<polygon fill="#63b8ff" stroke="#63b8ff" points="1850.46,-492 1839.9,-492.84 1848.69,-498.77 1850.46,-492"/>
</g>
<!-- Node33 -->
<g id="node33" class="node">
<title>Node33</title>
<g id="a_node33"><a xlink:href="algorithm_8h.html" target="_top" xlink:title=" ">
<polygon fill="white" stroke="#666666" points="2024.5,-486.5 1960.5,-486.5 1960.5,-467.5 2024.5,-467.5 2024.5,-486.5"/>
<text text-anchor="middle" x="1992.5" y="-474.5" font-family="Helvetica,sans-Serif" font-size="10.00">algorithm.h</text>
</a>
</g>
</g>
<!-- Node1&#45;&gt;Node33 -->
<g id="edge58" class="edge">
<title>Node1&#45;&gt;Node33</title>
<path fill="none" stroke="#63b8ff" d="M2665.54,-552.32C2524.17,-550.06 2150.8,-540.59 2033.5,-503 2026.31,-500.7 2019.08,-496.89 2012.73,-492.94"/>
<polygon fill="#63b8ff" stroke="#63b8ff" points="2015.12,-490.33 2004.87,-487.65 2011.21,-496.14 2015.12,-490.33"/>
</g>
<!-- Node34 -->
<g id="node34" class="node">
<title>Node34</title>
<g id="a_node34"><a xlink:href="iterator_8h.html" target="_top" xlink:title=" ">
<polygon fill="white" stroke="#666666" points="2096.5,-486.5 2042.5,-486.5 2042.5,-467.5 2096.5,-467.5 2096.5,-486.5"/>
<text text-anchor="middle" x="2069.5" y="-474.5" font-family="Helvetica,sans-Serif" font-size="10.00">iterator.h</text>
</a>
</g>
</g>
<!-- Node1&#45;&gt;Node34 -->
<g id="edge59" class="edge">
<title>Node1&#45;&gt;Node34</title>
<path fill="none" stroke="#63b8ff" d="M2665.62,-552.08C2534.99,-549.33 2208.92,-538.97 2106.5,-503 2100.19,-500.78 2093.93,-497.22 2088.41,-493.48"/>
<polygon fill="#63b8ff" stroke="#63b8ff" points="2090.73,-490.84 2080.62,-487.68 2086.55,-496.46 2090.73,-490.84"/>
</g>
<!-- Node35 -->
<g id="node35" class="node">
<title>Node35</title>
<g id="a_node35"><a xlink:href="string_8h.html" target="_top" xlink:title=" ">
<polygon fill="white" stroke="#666666" points="1942.5,-486.5 1894.5,-486.5 1894.5,-467.5 1942.5,-467.5 1942.5,-486.5"/>
<text text-anchor="middle" x="1918.5" y="-474.5" font-family="Helvetica,sans-Serif" font-size="10.00">string.h</text>
</a>
</g>
</g>
<!-- Node1&#45;&gt;Node35 -->
<g id="edge60" class="edge">
<title>Node1&#45;&gt;Node35</title>
<path fill="none" stroke="#63b8ff" d="M2665.5,-553.5C2512.16,-554.25 2082.51,-551.81 1951.5,-503 1945.98,-500.94 1940.61,-497.64 1935.87,-494.1"/>
<polygon fill="#63b8ff" stroke="#63b8ff" points="1938.23,-491.52 1928.31,-487.8 1933.75,-496.89 1938.23,-491.52"/>
</g>
<!-- Node37 -->
<g id="node37" class="node">
<title>Node37</title>
<g id="a_node37"><a xlink:href="dol2asm_8h.html" target="_top" xlink:title=" ">
<polygon fill="white" stroke="#666666" points="2176,-486.5 2115,-486.5 2115,-467.5 2176,-467.5 2176,-486.5"/>
<text text-anchor="middle" x="2145.5" y="-474.5" font-family="Helvetica,sans-Serif" font-size="10.00">dol2asm.h</text>
</a>
</g>
</g>
<!-- Node1&#45;&gt;Node37 -->
<g id="edge63" class="edge">
<title>Node1&#45;&gt;Node37</title>
<path fill="none" stroke="#63b8ff" d="M2665.82,-551.09C2547.94,-546.45 2273.43,-532.72 2185.5,-503 2178.74,-500.72 2171.95,-497.09 2165.93,-493.3"/>
<polygon fill="#63b8ff" stroke="#63b8ff" points="2168.15,-490.58 2157.92,-487.83 2164.21,-496.36 2168.15,-490.58"/>
</g>
<!-- Node38 -->
<g id="node38" class="node">
<title>Node38</title>
<g id="a_node38"><a xlink:title=" ">
<polygon fill="#e0e0e0" stroke="#999999" points="2370.5,-497.5 2194.5,-497.5 2194.5,-456.5 2370.5,-456.5 2370.5,-497.5"/>
<text text-anchor="start" x="2202.5" y="-485.5" font-family="Helvetica,sans-Serif" font-size="10.00">asm/JSystem/JStudio</text>
<text text-anchor="start" x="2202.5" y="-474.5" font-family="Helvetica,sans-Serif" font-size="10.00">/JStudio/ctb/__dt__Q37JStudio3ctb8</text>
<text text-anchor="middle" x="2282.5" y="-463.5" font-family="Helvetica,sans-Serif" font-size="10.00">TControlFv.s</text>
</a>
</g>
</g>
<!-- Node1&#45;&gt;Node38 -->
<g id="edge64" class="edge">
<title>Node1&#45;&gt;Node38</title>
<path fill="none" stroke="#63b8ff" d="M2665.73,-546.72C2598.28,-538.58 2480.39,-523.03 2380.5,-503 2376.52,-502.2 2372.46,-501.34 2368.37,-500.44"/>
<polygon fill="#63b8ff" stroke="#63b8ff" points="2369.5,-497.11 2358.97,-498.31 2367.95,-503.94 2369.5,-497.11"/>
</g>
<!-- Node39 -->
<g id="node39" class="node">
<title>Node39</title>
<g id="a_node39"><a xlink:title=" ">
<polygon fill="#e0e0e0" stroke="#999999" points="2616,-503 2389,-503 2389,-451 2616,-451 2616,-503"/>
<text text-anchor="start" x="2397" y="-491" font-family="Helvetica,sans-Serif" font-size="10.00">asm/JSystem/JStudio</text>
<text text-anchor="start" x="2397" y="-480" font-family="Helvetica,sans-Serif" font-size="10.00">/JStudio/ctb/appendObject</text>
<text text-anchor="start" x="2397" y="-469" font-family="Helvetica,sans-Serif" font-size="10.00">__Q37JStudio3ctb8TControlFPQ37JStudio3ctb7</text>
<text text-anchor="middle" x="2502.5" y="-458" font-family="Helvetica,sans-Serif" font-size="10.00">TObject.s</text>
</a>
</g>
</g>
<!-- Node1&#45;&gt;Node39 -->
<g id="edge65" class="edge">
<title>Node1&#45;&gt;Node39</title>
<path fill="none" stroke="#63b8ff" d="M2678.47,-538.54C2652.46,-529.59 2618.14,-517.78 2586.72,-506.97"/>
<polygon fill="#63b8ff" stroke="#63b8ff" points="2588.22,-503.79 2577.62,-503.84 2585.94,-510.41 2588.22,-503.79"/>
</g>
<!-- Node40 -->
<g id="node40" class="node">
<title>Node40</title>
<g id="a_node40"><a xlink:title=" ">
<polygon fill="#e0e0e0" stroke="#999999" points="2807,-497.5 2634,-497.5 2634,-456.5 2807,-456.5 2807,-497.5"/>
<text text-anchor="start" x="2642" y="-485.5" font-family="Helvetica,sans-Serif" font-size="10.00">asm/JSystem/JStudio</text>
<text text-anchor="start" x="2642" y="-474.5" font-family="Helvetica,sans-Serif" font-size="10.00">/JStudio/ctb/destroyObject</text>
<text text-anchor="middle" x="2720.5" y="-463.5" font-family="Helvetica,sans-Serif" font-size="10.00">_all__Q37JStudio3ctb8TControlFv.s</text>
</a>
</g>
</g>
<!-- Node1&#45;&gt;Node40 -->
<g id="edge66" class="edge">
<title>Node1&#45;&gt;Node40</title>
<path fill="none" stroke="#63b8ff" d="M2720.5,-538.54C2720.5,-530.22 2720.5,-519.42 2720.5,-509.26"/>
<polygon fill="#63b8ff" stroke="#63b8ff" points="2724,-509.32 2720.5,-499.32 2717,-509.32 2724,-509.32"/>
</g>
<!-- Node41 -->
<g id="node41" class="node">
<title>Node41</title>
<g id="a_node41"><a xlink:title=" ">
<polygon fill="#e0e0e0" stroke="#999999" points="3006,-497.5 2825,-497.5 2825,-456.5 3006,-456.5 3006,-497.5"/>
<text text-anchor="start" x="2833" y="-485.5" font-family="Helvetica,sans-Serif" font-size="10.00">asm/JSystem/JStudio</text>
<text text-anchor="start" x="2833" y="-474.5" font-family="Helvetica,sans-Serif" font-size="10.00">/JStudio/ctb/getObject</text>
<text text-anchor="middle" x="2915.5" y="-463.5" font-family="Helvetica,sans-Serif" font-size="10.00">__Q37JStudio3ctb8TControlFPCvUl.s</text>
</a>
</g>
</g>
<!-- Node1&#45;&gt;Node41 -->
<g id="edge67" class="edge">
<title>Node1&#45;&gt;Node41</title>
<path fill="none" stroke="#63b8ff" d="M2758.1,-538.54C2785.04,-528.18 2821.96,-513.98 2853.26,-501.94"/>
<polygon fill="#63b8ff" stroke="#63b8ff" points="2854.15,-505.34 2862.23,-498.49 2851.64,-498.81 2854.15,-505.34"/>
</g>
<!-- Node42 -->
<g id="node42" class="node">
<title>Node42</title>
<g id="a_node42"><a xlink:title=" ">
<polygon fill="#e0e0e0" stroke="#999999" points="3214.5,-497.5 3024.5,-497.5 3024.5,-456.5 3214.5,-456.5 3214.5,-497.5"/>
<text text-anchor="start" x="3032.5" y="-485.5" font-family="Helvetica,sans-Serif" font-size="10.00">asm/JSystem/JStudio</text>
<text text-anchor="start" x="3032.5" y="-474.5" font-family="Helvetica,sans-Serif" font-size="10.00">/JStudio/ctb/getObject</text>
<text text-anchor="middle" x="3119.5" y="-463.5" font-family="Helvetica,sans-Serif" font-size="10.00">_index__Q37JStudio3ctb8TControlFUl.s</text>
</a>
</g>
</g>
<!-- Node1&#45;&gt;Node42 -->
<g id="edge68" class="edge">
<title>Node1&#45;&gt;Node42</title>
<path fill="none" stroke="#63b8ff" d="M2775.35,-544.85C2834.74,-535.75 2932.17,-520.06 3015.5,-503 3019.51,-502.18 3023.6,-501.31 3027.73,-500.42"/>
<polygon fill="#63b8ff" stroke="#63b8ff" points="3028.23,-503.89 3037.24,-498.31 3026.72,-497.06 3028.23,-503.89"/>
</g>
<!-- Node43 -->
<g id="node43" class="node">
<title>Node43</title>
<g id="a_node43"><a xlink:title=" ">
<polygon fill="#e0e0e0" stroke="#999999" points="3408.5,-497.5 3232.5,-497.5 3232.5,-456.5 3408.5,-456.5 3408.5,-497.5"/>
<text text-anchor="start" x="3240.5" y="-485.5" font-family="Helvetica,sans-Serif" font-size="10.00">asm/JSystem/JStudio</text>
<text text-anchor="start" x="3240.5" y="-474.5" font-family="Helvetica,sans-Serif" font-size="10.00">/JStudio/ctb/__dt__Q37JStudio3ctb8</text>
<text text-anchor="middle" x="3320.5" y="-463.5" font-family="Helvetica,sans-Serif" font-size="10.00">TFactoryFv.s</text>
</a>
</g>
</g>
<!-- Node1&#45;&gt;Node43 -->
<g id="edge69" class="edge">
<title>Node1&#45;&gt;Node43</title>
<path fill="none" stroke="#63b8ff" d="M2775.21,-550.31C2868.01,-545.14 3061.92,-531.68 3223.5,-503 3227.85,-502.23 3232.3,-501.36 3236.78,-500.43"/>
<polygon fill="#63b8ff" stroke="#63b8ff" points="3237.44,-503.87 3246.46,-498.31 3235.94,-497.03 3237.44,-503.87"/>
</g>
<!-- Node44 -->
<g id="node44" class="node">
<title>Node44</title>
<g id="a_node44"><a xlink:title=" ">
<polygon fill="#e0e0e0" stroke="#999999" points="3606.5,-497.5 3426.5,-497.5 3426.5,-456.5 3606.5,-456.5 3606.5,-497.5"/>
<text text-anchor="start" x="3434.5" y="-485.5" font-family="Helvetica,sans-Serif" font-size="10.00">asm/JSystem/JStudio</text>
<text text-anchor="start" x="3434.5" y="-474.5" font-family="Helvetica,sans-Serif" font-size="10.00">/JStudio/ctb/__ct__Q37JStudio3ctb6</text>
<text text-anchor="middle" x="3516.5" y="-463.5" font-family="Helvetica,sans-Serif" font-size="10.00">TParseFPQ37JStudio3ctb8TControl.s</text>
</a>
</g>
</g>
<!-- Node1&#45;&gt;Node44 -->
<g id="edge70" class="edge">
<title>Node1&#45;&gt;Node44</title>
<path fill="none" stroke="#63b8ff" d="M2775.1,-552.34C2893.09,-550.2 3180.34,-541.15 3417.5,-503 3422.41,-502.21 3427.43,-501.29 3432.48,-500.29"/>
<polygon fill="#63b8ff" stroke="#63b8ff" points="3433,-503.76 3442.06,-498.27 3431.56,-496.91 3433,-503.76"/>
</g>
<!-- Node45 -->
<g id="node45" class="node">
<title>Node45</title>
<g id="a_node45"><a xlink:title=" ">
<polygon fill="#e0e0e0" stroke="#999999" points="3800.5,-497.5 3624.5,-497.5 3624.5,-456.5 3800.5,-456.5 3800.5,-497.5"/>
<text text-anchor="start" x="3632.5" y="-485.5" font-family="Helvetica,sans-Serif" font-size="10.00">asm/JSystem/JStudio</text>
<text text-anchor="start" x="3632.5" y="-474.5" font-family="Helvetica,sans-Serif" font-size="10.00">/JStudio/ctb/__dt__Q37JStudio3ctb6</text>
<text text-anchor="middle" x="3712.5" y="-463.5" font-family="Helvetica,sans-Serif" font-size="10.00">TParseFv.s</text>
</a>
</g>
</g>
<!-- Node1&#45;&gt;Node45 -->
<g id="edge71" class="edge">
<title>Node1&#45;&gt;Node45</title>
<path fill="none" stroke="#63b8ff" d="M2775.37,-553.66C2915.97,-554.56 3300.25,-551.94 3615.5,-503 3620.42,-502.24 3625.45,-501.33 3630.5,-500.33"/>
<polygon fill="#63b8ff" stroke="#63b8ff" points="3631.04,-503.79 3640.1,-498.29 3629.59,-496.94 3631.04,-503.79"/>
</g>
<!-- Node46 -->
<g id="node46" class="node">
<title>Node46</title>
<g id="a_node46"><a xlink:title=" ">
<polygon fill="#e0e0e0" stroke="#999999" points="4000.5,-497.5 3818.5,-497.5 3818.5,-456.5 4000.5,-456.5 4000.5,-497.5"/>
<text text-anchor="start" x="3826.5" y="-485.5" font-family="Helvetica,sans-Serif" font-size="10.00">asm/JSystem/JStudio</text>
<text text-anchor="start" x="3826.5" y="-474.5" font-family="Helvetica,sans-Serif" font-size="10.00">/JStudio/ctb/__dt__Q37JStudio3ctb14</text>
<text text-anchor="middle" x="3909.5" y="-463.5" font-family="Helvetica,sans-Serif" font-size="10.00">TObject_TxyzRyFv.s</text>
</a>
</g>
</g>
<!-- Node1&#45;&gt;Node46 -->
<g id="edge72" class="edge">
<title>Node1&#45;&gt;Node46</title>
<path fill="none" stroke="#63b8ff" d="M2775.47,-551.92C2967.34,-547.94 3606.67,-532.71 3809.5,-503 3814.76,-502.23 3820.14,-501.3 3825.55,-500.26"/>
<polygon fill="#63b8ff" stroke="#63b8ff" points="3826.07,-503.73 3835.17,-498.3 3824.67,-496.87 3826.07,-503.73"/>
</g>
<!-- Node47 -->
<g id="node47" class="node">
<title>Node47</title>
<g id="a_node47"><a xlink:title=" ">
<polygon fill="#e0e0e0" stroke="#999999" points="4166,-492 4019,-492 4019,-462 4166,-462 4166,-492"/>
<text text-anchor="start" x="4027" y="-480" font-family="Helvetica,sans-Serif" font-size="10.00">asm/JSystem/JStudio</text>
<text text-anchor="middle" x="4092.5" y="-469" font-family="Helvetica,sans-Serif" font-size="10.00">/JStudio/ctb/func_802815B4.s</text>
</a>
</g>
</g>
<!-- Node1&#45;&gt;Node47 -->
<g id="edge73" class="edge">
<title>Node1&#45;&gt;Node47</title>
<path fill="none" stroke="#63b8ff" d="M2775.39,-552.72C2989.2,-551.35 3766.52,-543.63 4009.5,-503 4019.86,-501.27 4030.73,-498.62 4041.07,-495.69"/>
<polygon fill="#63b8ff" stroke="#63b8ff" points="4042,-499.07 4050.59,-492.86 4040,-492.36 4042,-499.07"/>
</g>
<!-- Node3 -->
<g id="node3" class="node">
<title>Node3</title>
<g id="a_node3"><a xlink:href="binary_8h.html" target="_top" xlink:title=" ">
<polygon fill="white" stroke="#666666" points="131,-294 0,-294 0,-275 131,-275 131,-294"/>
<text text-anchor="middle" x="65.5" y="-282" font-family="Helvetica,sans-Serif" font-size="10.00">JSystem/JGadget/binary.h</text>
</a>
</g>
</g>
<!-- Node2&#45;&gt;Node3 -->
<g id="edge2" class="edge">
<title>Node2&#45;&gt;Node3</title>
<path fill="none" stroke="#63b8ff" d="M1727.51,-468.94C1460.2,-439.43 433.28,-326.09 142.58,-294.01"/>
<polygon fill="#63b8ff" stroke="#63b8ff" points="143.16,-290.55 132.83,-292.93 142.39,-297.51 143.16,-290.55"/>
</g>
<!-- Node6 -->
<g id="node6" class="node">
<title>Node6</title>
<g id="a_node6"><a xlink:href="linklist_8h.html" target="_top" xlink:title=" ">
<polygon fill="white" stroke="#666666" points="1837,-415 1704,-415 1704,-396 1837,-396 1837,-415"/>
<text text-anchor="middle" x="1770.5" y="-403" font-family="Helvetica,sans-Serif" font-size="10.00">JSystem/JGadget/linklist.h</text>
</a>
</g>
</g>
<!-- Node2&#45;&gt;Node6 -->
<g id="edge5" class="edge">
<title>Node2&#45;&gt;Node6</title>
<path fill="none" stroke="#63b8ff" d="M1787.15,-461.6C1784.04,-451.32 1779.83,-437.38 1776.42,-426.09"/>
<polygon fill="#63b8ff" stroke="#63b8ff" points="1779.8,-425.19 1773.56,-416.63 1773.1,-427.21 1779.8,-425.19"/>
</g>
<!-- Node32 -->
<g id="node32" class="node">
<title>Node32</title>
<g id="a_node32"><a xlink:href="object-id_8h.html" target="_top" xlink:title=" ">
<polygon fill="white" stroke="#666666" points="1943,-360 1816,-360 1816,-330 1943,-330 1943,-360"/>
<text text-anchor="start" x="1824" y="-348" font-family="Helvetica,sans-Serif" font-size="10.00">JSystem/JStudio/JStudio</text>
<text text-anchor="middle" x="1879.5" y="-337" font-family="Helvetica,sans-Serif" font-size="10.00">/object&#45;id.h</text>
</a>
</g>
</g>
<!-- Node2&#45;&gt;Node32 -->
<g id="edge56" class="edge">
<title>Node2&#45;&gt;Node32</title>
<path fill="none" stroke="#63b8ff" d="M1805.99,-461.87C1817.61,-450.05 1833.83,-432.38 1845.5,-415 1854.8,-401.14 1863.13,-384.36 1869.21,-370.82"/>
<polygon fill="#63b8ff" stroke="#63b8ff" points="1872.39,-372.3 1873.16,-361.74 1865.97,-369.51 1872.39,-372.3"/>
</g>
<!-- Node4 -->
<g id="node4" class="node">
<title>Node4</title>
<g id="a_node4"><a xlink:href="types_8h.html" target="_top" xlink:title=" ">
<polygon fill="white" stroke="#666666" points="976,-74 895,-74 895,-55 976,-55 976,-74"/>
<text text-anchor="middle" x="935.5" y="-62" font-family="Helvetica,sans-Serif" font-size="10.00">dolphin/types.h</text>
</a>
</g>
</g>
<!-- Node3&#45;&gt;Node4 -->
<g id="edge3" class="edge">
<title>Node3&#45;&gt;Node4</title>
<path fill="none" stroke="#63b8ff" d="M66.46,-274.66C70.19,-245.23 86.54,-150.12 145.5,-110 206.22,-68.68 716.85,-65.34 883.28,-65.36"/>
<polygon fill="#63b8ff" stroke="#63b8ff" points="883.14,-68.86 893.15,-65.37 883.15,-61.86 883.14,-68.86"/>
</g>
<!-- Node5 -->
<g id="node5" class="node">
<title>Node5</title>
<g id="a_node5"><a xlink:href="stddef_8h.html" target="_top" xlink:title=" ">
<polygon fill="white" stroke="#666666" points="1479,-19 1428,-19 1428,0 1479,0 1479,-19"/>
<text text-anchor="middle" x="1453.5" y="-7" font-family="Helvetica,sans-Serif" font-size="10.00">stddef.h</text>
</a>
</g>
</g>
<!-- Node4&#45;&gt;Node5 -->
<g id="edge4" class="edge">
<title>Node4&#45;&gt;Node5</title>
<path fill="none" stroke="#63b8ff" d="M976.15,-59.34C1074.15,-49.31 1322.33,-23.92 1416.49,-14.29"/>
<polygon fill="#63b8ff" stroke="#63b8ff" points="1416.61,-17.79 1426.2,-13.29 1415.9,-10.83 1416.61,-17.79"/>
</g>
<!-- Node6&#45;&gt;Node4 -->
<g id="edge6" class="edge">
<title>Node6&#45;&gt;Node4</title>
<path fill="none" stroke="#63b8ff" d="M1771.9,-395.87C1775.95,-369.23 1786.34,-286.03 1770.5,-220 1750.88,-138.21 1698.23,-129.86 1616.5,-110 1497.36,-81.04 1125.75,-69.82 987.76,-66.59"/>
<polygon fill="#63b8ff" stroke="#63b8ff" points="987.9,-63.09 977.82,-66.36 987.74,-70.09 987.9,-63.09"/>
</g>
<!-- Node7 -->
<g id="node7" class="node">
<title>Node7</title>
<g id="a_node7"><a xlink:href="JUTAssert_8h.html" target="_top" xlink:title=" ">
<polygon fill="white" stroke="#666666" points="924.5,-354.5 778.5,-354.5 778.5,-335.5 924.5,-335.5 924.5,-354.5"/>
<text text-anchor="middle" x="851.5" y="-342.5" font-family="Helvetica,sans-Serif" font-size="10.00">JSystem/JUtility/JUTAssert.h</text>
</a>
</g>
</g>
<!-- Node6&#45;&gt;Node7 -->
<g id="edge7" class="edge">
<title>Node6&#45;&gt;Node7</title>
<path fill="none" stroke="#63b8ff" d="M1703.67,-400.25C1539.59,-389.8 1117.17,-362.91 936.03,-351.38"/>
<polygon fill="#63b8ff" stroke="#63b8ff" points="936.42,-347.9 926.22,-350.76 935.98,-354.88 936.42,-347.9"/>
</g>
<!-- Node7&#45;&gt;Node4 -->
<g id="edge8" class="edge">
<title>Node7&#45;&gt;Node4</title>
<path fill="none" stroke="#63b8ff" d="M778.1,-339.58C600,-327.88 159.5,-292.67 159.5,-230.5 159.5,-230.5 159.5,-230.5 159.5,-173.5 159.5,-116.66 216.09,-126.43 270.5,-110 384.86,-75.47 747.36,-67.69 883.32,-65.98"/>
<polygon fill="#63b8ff" stroke="#63b8ff" points="883.15,-69.48 893.1,-65.86 883.06,-62.48 883.15,-69.48"/>
</g>
<!-- Node8 -->
<g id="node8" class="node">
<title>Node8</title>
<g id="a_node8"><a xlink:href="os_8h.html" target="_top" xlink:title=" ">
<polygon fill="white" stroke="#666666" points="885.5,-294 817.5,-294 817.5,-275 885.5,-275 885.5,-294"/>
<text text-anchor="middle" x="851.5" y="-282" font-family="Helvetica,sans-Serif" font-size="10.00">dolphin/os.h</text>
</a>
</g>
</g>
<!-- Node7&#45;&gt;Node8 -->
<g id="edge9" class="edge">
<title>Node7&#45;&gt;Node8</title>
<path fill="none" stroke="#63b8ff" d="M851.5,-335.37C851.5,-327.5 851.5,-315.6 851.5,-305.39"/>
<polygon fill="#63b8ff" stroke="#63b8ff" points="855,-305.68 851.5,-295.68 848,-305.68 855,-305.68"/>
</g>
<!-- Node9 -->
<g id="node9" class="node">
<title>Node9</title>
<g id="a_node9"><a xlink:href="____va__arg_8h.html" target="_top" xlink:title=" ">
<polygon fill="white" stroke="#666666" points="967.5,-129 903.5,-129 903.5,-110 967.5,-110 967.5,-129"/>
<text text-anchor="middle" x="935.5" y="-117" font-family="Helvetica,sans-Serif" font-size="10.00">__va_arg.h</text>
</a>
</g>
</g>
<!-- Node8&#45;&gt;Node9 -->
<g id="edge10" class="edge">
<title>Node8&#45;&gt;Node9</title>
<path fill="none" stroke="#63b8ff" d="M844.56,-274.81C835.63,-262.53 822.11,-239.41 829.5,-220 844.09,-181.69 882.84,-151.93 909.22,-135.3"/>
<polygon fill="#63b8ff" stroke="#63b8ff" points="910.95,-138.35 917.69,-130.17 907.32,-132.36 910.95,-138.35"/>
</g>
<!-- Node10 -->
<g id="node10" class="node">
<title>Node10</title>
<g id="a_node10"><a xlink:href="dvd_8h.html" target="_top" xlink:title=" ">
<polygon fill="white" stroke="#666666" points="961.5,-184 887.5,-184 887.5,-165 961.5,-165 961.5,-184"/>
<text text-anchor="middle" x="924.5" y="-172" font-family="Helvetica,sans-Serif" font-size="10.00">dolphin/dvd.h</text>
</a>
</g>
</g>
<!-- Node8&#45;&gt;Node10 -->
<g id="edge12" class="edge">
<title>Node8&#45;&gt;Node10</title>
<path fill="none" stroke="#63b8ff" d="M845.73,-274.62C838.13,-261.69 826.9,-237.33 837.5,-220 846.42,-205.42 861.79,-195.42 877.16,-188.66"/>
<polygon fill="#63b8ff" stroke="#63b8ff" points="878.3,-191.97 886.31,-185.04 875.72,-185.46 878.3,-191.97"/>
</g>
<!-- Node11 -->
<g id="node11" class="node">
<title>Node11</title>
<g id="a_node11"><a xlink:href="OSAlarm_8h.html" target="_top" xlink:title=" ">
<polygon fill="white" stroke="#666666" points="1277,-239 1166,-239 1166,-220 1277,-220 1277,-239"/>
<text text-anchor="middle" x="1221.5" y="-227" font-family="Helvetica,sans-Serif" font-size="10.00">dolphin/os/OSAlarm.h</text>
</a>
</g>
</g>
<!-- Node8&#45;&gt;Node11 -->
<g id="edge14" class="edge">
<title>Node8&#45;&gt;Node11</title>
<path fill="none" stroke="#63b8ff" d="M885.98,-278.56C947.11,-269.81 1075.48,-251.42 1154.51,-240.1"/>
<polygon fill="#63b8ff" stroke="#63b8ff" points="1154.9,-243.58 1164.3,-238.69 1153.91,-236.65 1154.9,-243.58"/>
</g>
<!-- Node12 -->
<g id="node12" class="node">
<title>Node12</title>
<g id="a_node12"><a xlink:href="OSError_8h.html" target="_top" xlink:title=" ">
<polygon fill="white" stroke="#666666" points="1086.5,-184 980.5,-184 980.5,-165 1086.5,-165 1086.5,-184"/>
<text text-anchor="middle" x="1033.5" y="-172" font-family="Helvetica,sans-Serif" font-size="10.00">dolphin/os/OSError.h</text>
</a>
</g>
</g>
<!-- Node8&#45;&gt;Node12 -->
<g id="edge28" class="edge">
<title>Node8&#45;&gt;Node12</title>
<path fill="none" stroke="#63b8ff" d="M851.57,-274.77C852.16,-261.12 855.35,-234.79 870.5,-220 884.76,-206.08 929.82,-194.4 968.96,-186.5"/>
<polygon fill="#63b8ff" stroke="#63b8ff" points="969.45,-189.97 978.59,-184.61 968.1,-183.1 969.45,-189.97"/>
</g>
<!-- Node13 -->
<g id="node13" class="node">
<title>Node13</title>
<g id="a_node13"><a xlink:href="OSTime_8h.html" target="_top" xlink:title=" ">
<polygon fill="white" stroke="#666666" points="1275,-184 1168,-184 1168,-165 1275,-165 1275,-184"/>
<text text-anchor="middle" x="1221.5" y="-172" font-family="Helvetica,sans-Serif" font-size="10.00">dolphin/os/OSTime.h</text>
</a>
</g>
</g>
<!-- Node8&#45;&gt;Node13 -->
<g id="edge55" class="edge">
<title>Node8&#45;&gt;Node13</title>
<path fill="none" stroke="#63b8ff" d="M885.92,-282.57C983.88,-279.55 1258.85,-268.52 1285.5,-239 1301.49,-221.29 1275.74,-202.15 1252.29,-189.57"/>
<polygon fill="#63b8ff" stroke="#63b8ff" points="1254.03,-186.53 1243.53,-185.13 1250.87,-192.77 1254.03,-186.53"/>
</g>
<!-- Node14 -->
<g id="node14" class="node">
<title>Node14</title>
<g id="a_node14"><a xlink:href="OSAlloc_8h.html" target="_top" xlink:title=" ">
<polygon fill="white" stroke="#666666" points="1210,-129 1103,-129 1103,-110 1210,-110 1210,-129"/>
<text text-anchor="middle" x="1156.5" y="-117" font-family="Helvetica,sans-Serif" font-size="10.00">dolphin/os/OSAlloc.h</text>
</a>
</g>
</g>
<!-- Node8&#45;&gt;Node14 -->
<g id="edge19" class="edge">
<title>Node8&#45;&gt;Node14</title>
<path fill="none" stroke="#63b8ff" d="M885.82,-282.71C986.32,-280.04 1274.63,-269.75 1302.5,-239 1318.56,-221.28 1304.6,-186.19 1283.5,-165 1266.86,-148.29 1243.6,-137.84 1221.52,-131.31"/>
<polygon fill="#63b8ff" stroke="#63b8ff" points="1222.5,-127.94 1211.93,-128.72 1220.67,-134.7 1222.5,-127.94"/>
</g>
<!-- Node15 -->
<g id="node15" class="node">
<title>Node15</title>
<g id="a_node15"><a xlink:href="OSArena_8h.html" target="_top" xlink:title=" ">
<polygon fill="white" stroke="#666666" points="1339,-129 1228,-129 1228,-110 1339,-110 1339,-129"/>
<text text-anchor="middle" x="1283.5" y="-117" font-family="Helvetica,sans-Serif" font-size="10.00">dolphin/os/OSArena.h</text>
</a>
</g>
</g>
<!-- Node8&#45;&gt;Node15 -->
<g id="edge21" class="edge">
<title>Node8&#45;&gt;Node15</title>
<path fill="none" stroke="#63b8ff" d="M885.72,-282.85C988.84,-280.54 1291.33,-271.07 1320.5,-239 1346.49,-210.43 1317.96,-163.79 1298.51,-138.38"/>
<polygon fill="#63b8ff" stroke="#63b8ff" points="1301.31,-136.28 1292.33,-130.65 1295.84,-140.65 1301.31,-136.28"/>
</g>
<!-- Node16 -->
<g id="node16" class="node">
<title>Node16</title>
<g id="a_node16"><a xlink:href="OSAudioSystem_8h.html" target="_top" xlink:title=" ">
<polygon fill="white" stroke="#666666" points="1023,-239 880,-239 880,-220 1023,-220 1023,-239"/>
<text text-anchor="middle" x="951.5" y="-227" font-family="Helvetica,sans-Serif" font-size="10.00">dolphin/os/OSAudioSystem.h</text>
</a>
</g>
</g>
<!-- Node8&#45;&gt;Node16 -->
<g id="edge23" class="edge">
<title>Node8&#45;&gt;Node16</title>
<path fill="none" stroke="#63b8ff" d="M868.46,-274.51C883.86,-266.35 906.81,-254.19 924.69,-244.71"/>
<polygon fill="#63b8ff" stroke="#63b8ff" points="926.25,-247.84 933.45,-240.07 922.97,-241.66 926.25,-247.84"/>
</g>
<!-- Node17 -->
<g id="node17" class="node">
<title>Node17</title>
<g id="a_node17"><a xlink:href="OSCache_8h.html" target="_top" xlink:title=" ">
<polygon fill="white" stroke="#666666" points="1470,-129 1357,-129 1357,-110 1470,-110 1470,-129"/>
<text text-anchor="middle" x="1413.5" y="-117" font-family="Helvetica,sans-Serif" font-size="10.00">dolphin/os/OSCache.h</text>
</a>
</g>
</g>
<!-- Node8&#45;&gt;Node17 -->
<g id="edge24" class="edge">
<title>Node8&#45;&gt;Node17</title>
<path fill="none" stroke="#63b8ff" d="M885.65,-282.13C990.17,-277.71 1301.01,-262.69 1339.5,-239 1376.4,-216.29 1397.83,-167.57 1407.42,-140.2"/>
<polygon fill="#63b8ff" stroke="#63b8ff" points="1410.73,-141.33 1410.53,-130.74 1404.08,-139.14 1410.73,-141.33"/>
</g>
<!-- Node18 -->
<g id="node18" class="node">
<title>Node18</title>
<g id="a_node18"><a xlink:href="OSContext_8h.html" target="_top" xlink:title=" ">
<polygon fill="white" stroke="#666666" points="1608,-129 1489,-129 1489,-110 1608,-110 1608,-129"/>
<text text-anchor="middle" x="1548.5" y="-117" font-family="Helvetica,sans-Serif" font-size="10.00">dolphin/os/OSContext.h</text>
</a>
</g>
</g>
<!-- Node8&#45;&gt;Node18 -->
<g id="edge26" class="edge">
<title>Node8&#45;&gt;Node18</title>
<path fill="none" stroke="#63b8ff" d="M885.98,-283.11C1047.21,-281.11 1720.17,-270.87 1750.5,-239 1800.66,-186.3 1681.99,-149.37 1606.01,-131.92"/>
<polygon fill="#63b8ff" stroke="#63b8ff" points="1607.14,-128.58 1596.62,-129.82 1605.61,-135.42 1607.14,-128.58"/>
</g>
<!-- Node19 -->
<g id="node19" class="node">
<title>Node19</title>
<g id="a_node19"><a xlink:href="OSExec_8h.html" target="_top" xlink:title=" ">
<polygon fill="white" stroke="#666666" points="295,-184 188,-184 188,-165 295,-165 295,-184"/>
<text text-anchor="middle" x="241.5" y="-172" font-family="Helvetica,sans-Serif" font-size="10.00">dolphin/os/OSExec.h</text>
</a>
</g>
</g>
<!-- Node8&#45;&gt;Node19 -->
<g id="edge29" class="edge">
<title>Node8&#45;&gt;Node19</title>
<path fill="none" stroke="#63b8ff" d="M817.13,-283.44C695.54,-282.91 290.77,-278.2 249.5,-239 238.03,-228.11 236.84,-209.7 238.05,-195.5"/>
<polygon fill="#63b8ff" stroke="#63b8ff" points="241.48,-196.28 239.33,-185.9 234.54,-195.35 241.48,-196.28"/>
</g>
<!-- Node20 -->
<g id="node20" class="node">
<title>Node20</title>
<g id="a_node20"><a xlink:href="OSFont_8h.html" target="_top" xlink:title=" ">
<polygon fill="white" stroke="#666666" points="413,-129 308,-129 308,-110 413,-110 413,-129"/>
<text text-anchor="middle" x="360.5" y="-117" font-family="Helvetica,sans-Serif" font-size="10.00">dolphin/os/OSFont.h</text>
</a>
</g>
</g>
<!-- Node8&#45;&gt;Node20 -->
<g id="edge31" class="edge">
<title>Node8&#45;&gt;Node20</title>
<path fill="none" stroke="#63b8ff" d="M817.24,-283.46C699.81,-282.97 318.87,-278.33 282.5,-239 276.77,-232.8 279.74,-227.98 282.5,-220 288.86,-201.59 323.88,-160.9 344.77,-137.66"/>
<polygon fill="#63b8ff" stroke="#63b8ff" points="347.1,-140.3 351.23,-130.54 341.92,-135.59 347.1,-140.3"/>
</g>
<!-- Node21 -->
<g id="node21" class="node">
<title>Node21</title>
<g id="a_node21"><a xlink:href="OSInterrupt_8h.html" target="_top" xlink:title=" ">
<polygon fill="white" stroke="#666666" points="473.5,-184 351.5,-184 351.5,-165 473.5,-165 473.5,-184"/>
<text text-anchor="middle" x="412.5" y="-172" font-family="Helvetica,sans-Serif" font-size="10.00">dolphin/os/OSInterrupt.h</text>
</a>
</g>
</g>
<!-- Node8&#45;&gt;Node21 -->
<g id="edge33" class="edge">
<title>Node8&#45;&gt;Node21</title>
<path fill="none" stroke="#63b8ff" d="M817.24,-283.11C733.16,-281.62 519.06,-274.35 458.5,-239 441.07,-228.83 428.41,-209.15 420.83,-194.38"/>
<polygon fill="#63b8ff" stroke="#63b8ff" points="424.13,-193.18 416.68,-185.65 417.81,-196.19 424.13,-193.18"/>
</g>
<!-- Node22 -->
<g id="node22" class="node">
<title>Node22</title>
<g id="a_node22"><a xlink:href="OSLink_8h.html" target="_top" xlink:title=" ">
<polygon fill="white" stroke="#666666" points="633.5,-184 529.5,-184 529.5,-165 633.5,-165 633.5,-184"/>
<text text-anchor="middle" x="581.5" y="-172" font-family="Helvetica,sans-Serif" font-size="10.00">dolphin/os/OSLink.h</text>
</a>
</g>
</g>
<!-- Node8&#45;&gt;Node22 -->
<g id="edge35" class="edge">
<title>Node8&#45;&gt;Node22</title>
<path fill="none" stroke="#63b8ff" d="M817.05,-281.7C774.83,-278.24 702.18,-268.2 647.5,-239 626.33,-227.7 607.18,-207.65 595.03,-193.1"/>
<polygon fill="#63b8ff" stroke="#63b8ff" points="598.04,-191.26 589.05,-185.65 592.58,-195.64 598.04,-191.26"/>
</g>
<!-- Node23 -->
<g id="node23" class="node">
<title>Node23</title>
<g id="a_node23"><a xlink:href="OSMemory_8h.html" target="_top" xlink:title=" ">
<polygon fill="white" stroke="#666666" points="411.5,-239 291.5,-239 291.5,-220 411.5,-220 411.5,-239"/>
<text text-anchor="middle" x="351.5" y="-227" font-family="Helvetica,sans-Serif" font-size="10.00">dolphin/os/OSMemory.h</text>
</a>
</g>
</g>
<!-- Node8&#45;&gt;Node23 -->
<g id="edge37" class="edge">
<title>Node8&#45;&gt;Node23</title>
<path fill="none" stroke="#63b8ff" d="M817.25,-280.04C744.89,-272.71 571.12,-254.97 425.5,-239 424.66,-238.91 423.81,-238.81 422.95,-238.72"/>
<polygon fill="#63b8ff" stroke="#63b8ff" points="423.5,-235.26 413.17,-237.63 422.73,-242.22 423.5,-235.26"/>
</g>
<!-- Node24 -->
<g id="node24" class="node">
<title>Node24</title>
<g id="a_node24"><a xlink:href="OSMessage_8h.html" target="_top" xlink:title=" ">
<polygon fill="white" stroke="#666666" points="1611,-239 1486,-239 1486,-220 1611,-220 1611,-239"/>
<text text-anchor="middle" x="1548.5" y="-227" font-family="Helvetica,sans-Serif" font-size="10.00">dolphin/os/OSMessage.h</text>
</a>
</g>
</g>
<!-- Node8&#45;&gt;Node24 -->
<g id="edge39" class="edge">
<title>Node8&#45;&gt;Node24</title>
<path fill="none" stroke="#63b8ff" d="M885.82,-281.5C979.67,-275.93 1248.5,-259.3 1471.5,-239 1472.53,-238.91 1473.56,-238.81 1474.6,-238.71"/>
<polygon fill="#63b8ff" stroke="#63b8ff" points="1474.79,-242.21 1484.4,-237.76 1474.11,-235.25 1474.79,-242.21"/>
</g>
<!-- Node25 -->
<g id="node25" class="node">
<title>Node25</title>
<g id="a_node25"><a xlink:href="OSThread_8h.html" target="_top" xlink:title=" ">
<polygon fill="white" stroke="#666666" points="1606.5,-184 1490.5,-184 1490.5,-165 1606.5,-165 1606.5,-184"/>
<text text-anchor="middle" x="1548.5" y="-172" font-family="Helvetica,sans-Serif" font-size="10.00">dolphin/os/OSThread.h</text>
</a>
</g>
</g>
<!-- Node8&#45;&gt;Node25 -->
<g id="edge54" class="edge">
<title>Node8&#45;&gt;Node25</title>
<path fill="none" stroke="#63b8ff" d="M885.73,-282.79C994.29,-280.24 1329.85,-269.98 1433.5,-239 1452,-233.47 1496.36,-207.46 1524.26,-190.5"/>
<polygon fill="#63b8ff" stroke="#63b8ff" points="1526.07,-193.49 1532.77,-185.29 1522.41,-187.52 1526.07,-193.49"/>
</g>
<!-- Node26 -->
<g id="node26" class="node">
<title>Node26</title>
<g id="a_node26"><a xlink:href="OSMutex_8h.html" target="_top" xlink:title=" ">
<polygon fill="white" stroke="#666666" points="1741.5,-239 1629.5,-239 1629.5,-220 1741.5,-220 1741.5,-239"/>
<text text-anchor="middle" x="1685.5" y="-227" font-family="Helvetica,sans-Serif" font-size="10.00">dolphin/os/OSMutex.h</text>
</a>
</g>
</g>
<!-- Node8&#45;&gt;Node26 -->
<g id="edge42" class="edge">
<title>Node8&#45;&gt;Node26</title>
<path fill="none" stroke="#63b8ff" d="M885.63,-282.38C992.12,-278.7 1327.91,-265.72 1617.84,-239.08"/>
<polygon fill="#63b8ff" stroke="#63b8ff" points="1617.86,-242.59 1627.5,-238.18 1617.22,-235.62 1617.86,-242.59"/>
</g>
<!-- Node27 -->
<g id="node27" class="node">
<title>Node27</title>
<g id="a_node27"><a xlink:href="OSReboot_8h.html" target="_top" xlink:title=" ">
<polygon fill="white" stroke="#666666" points="717.5,-129 601.5,-129 601.5,-110 717.5,-110 717.5,-129"/>
<text text-anchor="middle" x="659.5" y="-117" font-family="Helvetica,sans-Serif" font-size="10.00">dolphin/os/OSReboot.h</text>
</a>
</g>
</g>
<!-- Node8&#45;&gt;Node27 -->
<g id="edge44" class="edge">
<title>Node8&#45;&gt;Node27</title>
<path fill="none" stroke="#63b8ff" d="M817.13,-277.16C791.3,-270.98 756.26,-259.44 731.5,-239 698.8,-212.02 677.02,-166.08 666.61,-140.03"/>
<polygon fill="#63b8ff" stroke="#63b8ff" points="669.89,-138.82 663.06,-130.73 663.35,-141.32 669.89,-138.82"/>
</g>
<!-- Node28 -->
<g id="node28" class="node">
<title>Node28</title>
<g id="a_node28"><a xlink:href="OSReset_8h.html" target="_top" xlink:title=" ">
<polygon fill="white" stroke="#666666" points="847,-129 736,-129 736,-110 847,-110 847,-129"/>
<text text-anchor="middle" x="791.5" y="-117" font-family="Helvetica,sans-Serif" font-size="10.00">dolphin/os/OSReset.h</text>
</a>
</g>
</g>
<!-- Node8&#45;&gt;Node28 -->
<g id="edge46" class="edge">
<title>Node8&#45;&gt;Node28</title>
<path fill="none" stroke="#63b8ff" d="M820.64,-274.63C799.93,-267.52 772.97,-255.91 753.5,-239 731.62,-220 726.6,-211.82 718.5,-184 716.14,-175.89 714.37,-172.36 718.5,-165 726.26,-151.18 740.25,-141.15 753.92,-134.15"/>
<polygon fill="#63b8ff" stroke="#63b8ff" points="755.23,-137.39 762.83,-130.01 752.28,-131.05 755.23,-137.39"/>
</g>
<!-- Node29 -->
<g id="node29" class="node">
<title>Node29</title>
<g id="a_node29"><a xlink:href="OSResetSW_8h.html" target="_top" xlink:title=" ">
<polygon fill="white" stroke="#666666" points="595,-239 468,-239 468,-220 595,-220 595,-239"/>
<text text-anchor="middle" x="531.5" y="-227" font-family="Helvetica,sans-Serif" font-size="10.00">dolphin/os/OSResetSW.h</text>
</a>
</g>
</g>
<!-- Node8&#45;&gt;Node29 -->
<g id="edge48" class="edge">
<title>Node8&#45;&gt;Node29</title>
<path fill="none" stroke="#63b8ff" d="M817.25,-277.83C764.82,-269.14 663.72,-252.4 596.93,-241.34"/>
<polygon fill="#63b8ff" stroke="#63b8ff" points="597.62,-237.9 587.19,-239.72 596.48,-244.81 597.62,-237.9"/>
</g>
<!-- Node30 -->
<g id="node30" class="node">
<title>Node30</title>
<g id="a_node30"><a xlink:href="OSRtc_8h.html" target="_top" xlink:title=" ">
<polygon fill="white" stroke="#666666" points="829,-184 728,-184 728,-165 829,-165 829,-184"/>
<text text-anchor="middle" x="778.5" y="-172" font-family="Helvetica,sans-Serif" font-size="10.00">dolphin/os/OSRtc.h</text>
</a>
</g>
</g>
<!-- Node8&#45;&gt;Node30 -->
<g id="edge51" class="edge">
<title>Node8&#45;&gt;Node30</title>
<path fill="none" stroke="#63b8ff" d="M817.15,-276.05C797.19,-269.77 773.64,-258.55 761.5,-239 752.95,-225.23 759.12,-207.19 766.31,-193.86"/>
<polygon fill="#63b8ff" stroke="#63b8ff" points="769.09,-196.02 771.25,-185.65 763.09,-192.41 769.09,-196.02"/>
</g>
<!-- Node31 -->
<g id="node31" class="node">
<title>Node31</title>
<g id="a_node31"><a xlink:href="OSSync_8h.html" target="_top" xlink:title=" ">
<polygon fill="white" stroke="#666666" points="1148,-239 1041,-239 1041,-220 1148,-220 1148,-239"/>
<text text-anchor="middle" x="1094.5" y="-227" font-family="Helvetica,sans-Serif" font-size="10.00">dolphin/os/OSSync.h</text>
</a>
</g>
</g>
<!-- Node8&#45;&gt;Node31 -->
<g id="edge53" class="edge">
<title>Node8&#45;&gt;Node31</title>
<path fill="none" stroke="#63b8ff" d="M885.8,-276.02C926.62,-267.12 995.18,-252.16 1042.52,-241.84"/>
<polygon fill="#63b8ff" stroke="#63b8ff" points="1042.97,-245.32 1052,-239.77 1041.48,-238.48 1042.97,-245.32"/>
</g>
<!-- Node9&#45;&gt;Node4 -->
<g id="edge11" class="edge">
<title>Node9&#45;&gt;Node4</title>
<path fill="none" stroke="#63b8ff" d="M935.5,-109.75C935.5,-103.27 935.5,-94.16 935.5,-85.9"/>
<polygon fill="#63b8ff" stroke="#63b8ff" points="939,-85.96 935.5,-75.96 932,-85.96 939,-85.96"/>
</g>
<!-- Node10&#45;&gt;Node4 -->
<g id="edge13" class="edge">
<title>Node10&#45;&gt;Node4</title>
<path fill="none" stroke="#63b8ff" d="M941.03,-164.64C953.35,-157.02 969.24,-144.76 976.5,-129 984.33,-111.99 970.69,-94.2 957.08,-81.8"/>
<polygon fill="#63b8ff" stroke="#63b8ff" points="959.43,-79.21 949.52,-75.46 954.93,-84.57 959.43,-79.21"/>
</g>
<!-- Node11&#45;&gt;Node12 -->
<g id="edge15" class="edge">
<title>Node11&#45;&gt;Node12</title>
<path fill="none" stroke="#63b8ff" d="M1189.61,-219.51C1158.32,-210.69 1110.41,-197.18 1075.92,-187.46"/>
<polygon fill="#63b8ff" stroke="#63b8ff" points="1077.27,-184.2 1066.69,-184.86 1075.37,-190.94 1077.27,-184.2"/>
</g>
<!-- Node11&#45;&gt;Node13 -->
<g id="edge17" class="edge">
<title>Node11&#45;&gt;Node13</title>
<path fill="none" stroke="#63b8ff" d="M1221.5,-219.75C1221.5,-213.27 1221.5,-204.16 1221.5,-195.9"/>
<polygon fill="#63b8ff" stroke="#63b8ff" points="1225,-195.96 1221.5,-185.96 1218,-195.96 1225,-195.96"/>
</g>
<!-- Node12&#45;&gt;Node4 -->
<g id="edge16" class="edge">
<title>Node12&#45;&gt;Node4</title>
<path fill="none" stroke="#63b8ff" d="M1029.02,-164.64C1022.23,-151.74 1008.44,-127.43 992.5,-110 982.51,-99.08 969.63,-88.77 958.65,-80.84"/>
<polygon fill="#63b8ff" stroke="#63b8ff" points="960.67,-77.98 950.46,-75.13 956.66,-83.73 960.67,-77.98"/>
</g>
<!-- Node13&#45;&gt;Node4 -->
<g id="edge18" class="edge">
<title>Node13&#45;&gt;Node4</title>
<path fill="none" stroke="#63b8ff" d="M1194.89,-164.66C1168.91,-155.93 1128.31,-142.04 1093.5,-129 1049.42,-112.49 999.05,-91.95 967.27,-78.78"/>
<polygon fill="#63b8ff" stroke="#63b8ff" points="968.82,-75.64 958.24,-75.03 966.13,-82.1 968.82,-75.64"/>
</g>
<!-- Node14&#45;&gt;Node4 -->
<g id="edge20" class="edge">
<title>Node14&#45;&gt;Node4</title>
<path fill="none" stroke="#63b8ff" d="M1119.01,-109.51C1081.75,-100.57 1024.45,-86.83 983.8,-77.08"/>
<polygon fill="#63b8ff" stroke="#63b8ff" points="984.82,-73.73 974.28,-74.8 983.18,-80.53 984.82,-73.73"/>
</g>
<!-- Node15&#45;&gt;Node4 -->
<g id="edge22" class="edge">
<title>Node15&#45;&gt;Node4</title>
<path fill="none" stroke="#63b8ff" d="M1227.59,-109.98C1161.34,-99.9 1051.85,-83.22 987.41,-73.41"/>
<polygon fill="#63b8ff" stroke="#63b8ff" points="988.22,-69.99 977.8,-71.94 987.16,-76.91 988.22,-69.99"/>
</g>
<!-- Node17&#45;&gt;Node4 -->
<g id="edge25" class="edge">
<title>Node17&#45;&gt;Node4</title>
<path fill="none" stroke="#63b8ff" d="M1356.63,-111.1C1353.54,-110.72 1350.48,-110.35 1347.5,-110 1218.12,-94.68 1065.62,-78.77 987.45,-70.77"/>
<polygon fill="#63b8ff" stroke="#63b8ff" points="988.28,-67.33 977.97,-69.8 987.56,-74.3 988.28,-67.33"/>
</g>
<!-- Node18&#45;&gt;Node4 -->
<g id="edge27" class="edge">
<title>Node18&#45;&gt;Node4</title>
<path fill="none" stroke="#63b8ff" d="M1488.57,-111.07C1485.16,-110.69 1481.79,-110.33 1478.5,-110 1298.55,-91.71 1084.46,-75.91 987.64,-69.09"/>
<polygon fill="#63b8ff" stroke="#63b8ff" points="988.15,-65.62 977.93,-68.41 987.66,-72.6 988.15,-65.62"/>
</g>
<!-- Node19&#45;&gt;Node4 -->
<g id="edge30" class="edge">
<title>Node19&#45;&gt;Node4</title>
<path fill="none" stroke="#63b8ff" d="M246.4,-164.57C254.87,-150.14 273.74,-122.1 298.5,-110 350.45,-84.61 740.81,-71.05 883.49,-66.9"/>
<polygon fill="#63b8ff" stroke="#63b8ff" points="883.51,-70.4 893.41,-66.61 883.31,-63.4 883.51,-70.4"/>
</g>
<!-- Node20&#45;&gt;Node4 -->
<g id="edge32" class="edge">
<title>Node20&#45;&gt;Node4</title>
<path fill="none" stroke="#63b8ff" d="M413.42,-112.91C423.09,-111.92 433.1,-110.91 442.5,-110 603.11,-94.43 793.34,-77.76 883.33,-69.98"/>
<polygon fill="#63b8ff" stroke="#63b8ff" points="883.41,-73.49 893.07,-69.14 882.81,-66.51 883.41,-73.49"/>
</g>
<!-- Node21&#45;&gt;Node4 -->
<g id="edge34" class="edge">
<title>Node21&#45;&gt;Node4</title>
<path fill="none" stroke="#63b8ff" d="M419.7,-164.63C431.93,-150.29 458.28,-122.38 487.5,-110 557.66,-80.27 780.84,-70.01 883.24,-66.81"/>
<polygon fill="#63b8ff" stroke="#63b8ff" points="883.12,-70.32 893.01,-66.52 882.91,-63.32 883.12,-70.32"/>
</g>
<!-- Node22&#45;&gt;Node4 -->
<g id="edge36" class="edge">
<title>Node22&#45;&gt;Node4</title>
<path fill="none" stroke="#63b8ff" d="M580.09,-164.64C578.46,-150.82 577.64,-124.24 592.5,-110 633.12,-71.07 798.05,-65.29 883.54,-64.99"/>
<polygon fill="#63b8ff" stroke="#63b8ff" points="883.3,-68.49 893.3,-64.98 883.29,-61.49 883.3,-68.49"/>
</g>
<!-- Node23&#45;&gt;Node21 -->
<g id="edge38" class="edge">
<title>Node23&#45;&gt;Node21</title>
<path fill="none" stroke="#63b8ff" d="M361.85,-219.51C370.58,-211.93 383.29,-200.88 393.8,-191.75"/>
<polygon fill="#63b8ff" stroke="#63b8ff" points="395.91,-194.55 401.16,-185.35 391.32,-189.27 395.91,-194.55"/>
</g>
<!-- Node24&#45;&gt;Node25 -->
<g id="edge40" class="edge">
<title>Node24&#45;&gt;Node25</title>
<path fill="none" stroke="#63b8ff" d="M1548.5,-219.75C1548.5,-213.27 1548.5,-204.16 1548.5,-195.9"/>
<polygon fill="#63b8ff" stroke="#63b8ff" points="1552,-195.96 1548.5,-185.96 1545,-195.96 1552,-195.96"/>
</g>
<!-- Node25&#45;&gt;Node18 -->
<g id="edge41" class="edge">
<title>Node25&#45;&gt;Node18</title>
<path fill="none" stroke="#63b8ff" d="M1548.5,-164.75C1548.5,-158.27 1548.5,-149.16 1548.5,-140.9"/>
<polygon fill="#63b8ff" stroke="#63b8ff" points="1552,-140.96 1548.5,-130.96 1545,-140.96 1552,-140.96"/>
</g>
<!-- Node26&#45;&gt;Node25 -->
<g id="edge43" class="edge">
<title>Node26&#45;&gt;Node25</title>
<path fill="none" stroke="#63b8ff" d="M1662.26,-219.51C1640.18,-210.97 1606.75,-198.03 1581.83,-188.4"/>
<polygon fill="#63b8ff" stroke="#63b8ff" points="1583.4,-185.25 1572.81,-184.9 1580.87,-191.78 1583.4,-185.25"/>
</g>
<!-- Node27&#45;&gt;Node4 -->
<g id="edge45" class="edge">
<title>Node27&#45;&gt;Node4</title>
<path fill="none" stroke="#63b8ff" d="M706.32,-109.51C755.51,-100.06 832.66,-85.25 883.66,-75.46"/>
<polygon fill="#63b8ff" stroke="#63b8ff" points="884.11,-78.93 893.27,-73.61 882.79,-72.06 884.11,-78.93"/>
</g>
<!-- Node28&#45;&gt;Node4 -->
<g id="edge47" class="edge">
<title>Node28&#45;&gt;Node4</title>
<path fill="none" stroke="#63b8ff" d="M815.93,-109.51C839.24,-100.93 874.59,-87.92 900.81,-78.27"/>
<polygon fill="#63b8ff" stroke="#63b8ff" points="901.84,-81.62 910.01,-74.88 899.42,-75.05 901.84,-81.62"/>
</g>
<!-- Node29&#45;&gt;Node4 -->
<g id="edge49" class="edge">
<title>Node29&#45;&gt;Node4</title>
<path fill="none" stroke="#63b8ff" d="M526.87,-219.5C521.03,-206.85 512.64,-183.3 520.5,-165 534.53,-132.36 546.38,-125.18 578.5,-110 631.34,-85.03 797.72,-72.79 883.39,-68.01"/>
<polygon fill="#63b8ff" stroke="#63b8ff" points="883.36,-71.51 893.16,-67.48 882.98,-64.52 883.36,-71.51"/>
</g>
<!-- Node29&#45;&gt;Node21 -->
<g id="edge50" class="edge">
<title>Node29&#45;&gt;Node21</title>
<path fill="none" stroke="#63b8ff" d="M511.31,-219.51C492.48,-211.12 464.13,-198.5 442.63,-188.92"/>
<polygon fill="#63b8ff" stroke="#63b8ff" points="444.33,-185.85 433.77,-184.97 441.48,-192.24 444.33,-185.85"/>
</g>
<!-- Node30&#45;&gt;Node4 -->
<g id="edge52" class="edge">
<title>Node30&#45;&gt;Node4</title>
<path fill="none" stroke="#63b8ff" d="M795.45,-164.64C811.35,-156.11 835.59,-142.55 855.5,-129 877.56,-113.99 901.32,-94.69 917.17,-81.32"/>
<polygon fill="#63b8ff" stroke="#63b8ff" points="919.02,-84.35 924.36,-75.2 914.48,-79.02 919.02,-84.35"/>
</g>
<!-- Node32&#45;&gt;Node4 -->
<g id="edge57" class="edge">
<title>Node32&#45;&gt;Node4</title>
<path fill="none" stroke="#63b8ff" d="M1873.77,-329.57C1865.85,-308.26 1852.5,-266.96 1852.5,-230.5 1852.5,-230.5 1852.5,-230.5 1852.5,-173.5 1852.5,-142.09 1847.71,-127.3 1821.5,-110 1752,-64.13 1167.62,-64 987.88,-65.07"/>
<polygon fill="#63b8ff" stroke="#63b8ff" points="987.88,-61.57 977.91,-65.13 987.93,-68.57 987.88,-61.57"/>
</g>
<!-- Node35&#45;&gt;Node5 -->
<g id="edge61" class="edge">
<title>Node35&#45;&gt;Node5</title>
<path fill="none" stroke="#63b8ff" d="M1925,-467.06C1939.15,-446.67 1971.5,-394.75 1971.5,-346 1971.5,-346 1971.5,-346 1971.5,-118.5 1971.5,-20.14 1609.03,-10.76 1490.51,-10.33"/>
<polygon fill="#63b8ff" stroke="#63b8ff" points="1490.71,-6.83 1480.7,-10.31 1490.7,-13.83 1490.71,-6.83"/>
</g>
<!-- Node36 -->
<g id="node36" class="node">
<title>Node36</title>
<g id="a_node36"><a xlink:href="extras_8h.html" target="_top" xlink:title=" ">
<polygon fill="white" stroke="#666666" points="1943.5,-415 1893.5,-415 1893.5,-396 1943.5,-396 1943.5,-415"/>
<text text-anchor="middle" x="1918.5" y="-403" font-family="Helvetica,sans-Serif" font-size="10.00">extras.h</text>
</a>
</g>
</g>
<!-- Node35&#45;&gt;Node36 -->
<g id="edge62" class="edge">
<title>Node35&#45;&gt;Node36</title>
<path fill="none" stroke="#63b8ff" d="M1918.5,-467.2C1918.5,-457.12 1918.5,-440.29 1918.5,-426.9"/>
<polygon fill="#63b8ff" stroke="#63b8ff" points="1922,-426.96 1918.5,-416.96 1915,-426.96 1922,-426.96"/>
</g>
</g>
</svg>
