<?xml version="1.0" encoding="UTF-8" standalone="no"?>
<!DOCTYPE svg PUBLIC "-//W3C//DTD SVG 1.1//EN"
 "http://www.w3.org/Graphics/SVG/1.1/DTD/svg11.dtd">
<!-- Generated by graphviz version 7.0.5 (20221223.1930)
 -->
<!-- Title: src/d/bg/d_bg_plc.cpp Pages: 1 -->
<!--zoomable 412 -->
<svg id="main" version="1.1" xmlns="http://www.w3.org/2000/svg" xmlns:xlink="http://www.w3.org/1999/xlink" xml:space="preserve" onload="init(evt)">
<style type="text/css"><![CDATA[
.edge:hover path { stroke: red; }
.edge:hover polygon { stroke: red; fill: red; }
]]></style>
<script type="text/javascript"><![CDATA[
var edges = document.getElementsByTagName('g');
if (edges && edges.length) {
  for (var i=0;i<edges.length;i++) {
    if (edges[i].id.substr(0,4)=='edge') {
      edges[i].setAttribute('class','edge');
    }
  }
}
]]></script>
        <defs>
                <circle id="rim" cx="0" cy="0" r="7"/>
                <circle id="rim2" cx="0" cy="0" r="3.5"/>
                <g id="zoomPlus">
                        <use xlink:href="#rim" fill="#404040">
                                <set attributeName="fill" to="#808080" begin="zoomplus.mouseover" end="zoomplus.mouseout"/>
                        </use>
                        <path d="M-4,0h8M0,-4v8" fill="none" stroke="white" stroke-width="1.5" pointer-events="none"/>
                </g>
                <g id="zoomMin">
                        <use xlink:href="#rim" fill="#404040">
                                <set attributeName="fill" to="#808080" begin="zoomminus.mouseover" end="zoomminus.mouseout"/>
                        </use>
                        <path d="M-4,0h8" fill="none" stroke="white" stroke-width="1.5" pointer-events="none"/>
                </g>
                <g id="dirArrow">
                        <path fill="none" stroke="white" stroke-width="1.5" d="M0,-3.0v7 M-2.5,-0.5L0,-3.0L2.5,-0.5"/>
                </g>
               <g id="resetDef">
                       <use xlink:href="#rim2" fill="#404040">
                               <set attributeName="fill" to="#808080" begin="reset.mouseover" end="reset.mouseout"/>
                       </use>
               </g>
        </defs>

<script type="text/javascript">
var viewWidth = 1931;
var viewHeight = 412;
var sectionId = 'dynsection-0';
</script>
<script xlink:href="svgpan.js"/>
<svg id="graph" class="graph">
<g id="viewport">
<title>src/d/bg/d_bg_plc.cpp</title>
<!-- Node1 -->
<g id="node1" class="node">
<title>Node1</title>
<g id="a_node1"><a xlink:title=" ">
<polygon fill="#999999" stroke="#666666" points="119,-404 7,-404 7,-385 119,-385 119,-404"/>
<text text-anchor="middle" x="63" y="-392" font-family="Helvetica,sans-Serif" font-size="10.00">src/d/bg/d_bg_plc.cpp</text>
</a>
</g>
</g>
<!-- Node2 -->
<g id="node2" class="node">
<title>Node2</title>
<g id="a_node2"><a xlink:href="d__bg__plc_8h.html" target="_top" xlink:title=" ">
<polygon fill="white" stroke="#666666" points="113.5,-184 28.5,-184 28.5,-165 113.5,-165 113.5,-184"/>
<text text-anchor="middle" x="71" y="-172" font-family="Helvetica,sans-Serif" font-size="10.00">d/bg/d_bg_plc.h</text>
</a>
</g>
</g>
<!-- Node1&#45;&gt;Node2 -->
<g id="edge1" class="edge">
<title>Node1&#45;&gt;Node2</title>
<path fill="none" stroke="#63b8ff" d="M63.32,-384.68C64.5,-352.57 68.58,-241.33 70.27,-195.49"/>
<polygon fill="#63b8ff" stroke="#63b8ff" points="73.76,-195.82 70.63,-185.7 66.76,-195.56 73.76,-195.82"/>
</g>
<!-- Node3 -->
<g id="node3" class="node">
<title>Node3</title>
<g id="a_node3"><a xlink:href="types_8h.html" target="_top" xlink:title=" ">
<polygon fill="white" stroke="#666666" points="762.5,-74 681.5,-74 681.5,-55 762.5,-55 762.5,-74"/>
<text text-anchor="middle" x="722" y="-62" font-family="Helvetica,sans-Serif" font-size="10.00">dolphin/types.h</text>
</a>
</g>
</g>
<!-- Node1&#45;&gt;Node3 -->
<g id="edge6" class="edge">
<title>Node1&#45;&gt;Node3</title>
<path fill="none" stroke="#63b8ff" d="M53.43,-384.71C35.81,-367.5 0,-327.39 0,-285.5 0,-285.5 0,-285.5 0,-173.5 0,-138.39 16.18,-126.83 47,-110 101.13,-80.45 520.91,-69.43 669.82,-66.43"/>
<polygon fill="#63b8ff" stroke="#63b8ff" points="669.87,-69.93 679.8,-66.23 669.73,-62.93 669.87,-69.93"/>
</g>
<!-- Node6 -->
<g id="node6" class="node">
<title>Node6</title>
<g id="a_node6"><a xlink:href="JUTAssert_8h.html" target="_top" xlink:title=" ">
<polygon fill="white" stroke="#666666" points="237,-349 91,-349 91,-330 237,-330 237,-349"/>
<text text-anchor="middle" x="164" y="-337" font-family="Helvetica,sans-Serif" font-size="10.00">JSystem/JUtility/JUTAssert.h</text>
</a>
</g>
</g>
<!-- Node1&#45;&gt;Node6 -->
<g id="edge7" class="edge">
<title>Node1&#45;&gt;Node6</title>
<path fill="none" stroke="#63b8ff" d="M80.13,-384.51C95.75,-376.31 119.08,-364.07 137.17,-354.58"/>
<polygon fill="#63b8ff" stroke="#63b8ff" points="138.55,-357.81 145.78,-350.06 135.3,-351.61 138.55,-357.81"/>
</g>
<!-- Node2&#45;&gt;Node3 -->
<g id="edge2" class="edge">
<title>Node2&#45;&gt;Node3</title>
<path fill="none" stroke="#63b8ff" d="M64.93,-164.86C56.25,-151.34 42.81,-125.17 57,-110 98.55,-65.58 520.49,-64.11 669.9,-65"/>
<polygon fill="#63b8ff" stroke="#63b8ff" points="669.48,-68.5 679.5,-65.06 669.52,-61.5 669.48,-68.5"/>
</g>
<!-- Node5 -->
<g id="node5" class="node">
<title>Node5</title>
<g id="a_node5"><a xlink:href="d__bg__pc_8h.html" target="_top" xlink:title=" ">
<polygon fill="white" stroke="#666666" points="149.5,-129 66.5,-129 66.5,-110 149.5,-110 149.5,-129"/>
<text text-anchor="middle" x="108" y="-117" font-family="Helvetica,sans-Serif" font-size="10.00">d/bg/d_bg_pc.h</text>
</a>
</g>
</g>
<!-- Node2&#45;&gt;Node5 -->
<g id="edge4" class="edge">
<title>Node2&#45;&gt;Node5</title>
<path fill="none" stroke="#63b8ff" d="M77.11,-164.75C82.01,-157.73 89.05,-147.64 95.17,-138.87"/>
<polygon fill="#63b8ff" stroke="#63b8ff" points="98.04,-140.89 100.89,-130.68 92.3,-136.88 98.04,-140.89"/>
</g>
<!-- Node4 -->
<g id="node4" class="node">
<title>Node4</title>
<g id="a_node4"><a xlink:href="stddef_8h.html" target="_top" xlink:title=" ">
<polygon fill="white" stroke="#666666" points="747.5,-19 696.5,-19 696.5,0 747.5,0 747.5,-19"/>
<text text-anchor="middle" x="722" y="-7" font-family="Helvetica,sans-Serif" font-size="10.00">stddef.h</text>
</a>
</g>
</g>
<!-- Node3&#45;&gt;Node4 -->
<g id="edge3" class="edge">
<title>Node3&#45;&gt;Node4</title>
<path fill="none" stroke="#63b8ff" d="M722,-54.75C722,-48.27 722,-39.16 722,-30.9"/>
<polygon fill="#63b8ff" stroke="#63b8ff" points="725.5,-30.96 722,-20.96 718.5,-30.96 725.5,-30.96"/>
</g>
<!-- Node5&#45;&gt;Node3 -->
<g id="edge5" class="edge">
<title>Node5&#45;&gt;Node3</title>
<path fill="none" stroke="#63b8ff" d="M149.85,-111.82C154.62,-111.15 159.41,-110.53 164,-110 349.54,-88.55 570.98,-74.23 669.86,-68.42"/>
<polygon fill="#63b8ff" stroke="#63b8ff" points="670,-71.92 679.78,-67.84 669.6,-64.93 670,-71.92"/>
</g>
<!-- Node6&#45;&gt;Node3 -->
<g id="edge8" class="edge">
<title>Node6&#45;&gt;Node3</title>
<path fill="none" stroke="#63b8ff" d="M162.23,-329.77C155.87,-295.61 137.84,-169.94 203,-110 236.85,-78.86 544.66,-69.11 669.63,-66.42"/>
<polygon fill="#63b8ff" stroke="#63b8ff" points="669.7,-69.92 679.62,-66.21 669.55,-62.92 669.7,-69.92"/>
</g>
<!-- Node7 -->
<g id="node7" class="node">
<title>Node7</title>
<g id="a_node7"><a xlink:href="os_8h.html" target="_top" xlink:title=" ">
<polygon fill="white" stroke="#666666" points="909,-294 841,-294 841,-275 909,-275 909,-294"/>
<text text-anchor="middle" x="875" y="-282" font-family="Helvetica,sans-Serif" font-size="10.00">dolphin/os.h</text>
</a>
</g>
</g>
<!-- Node6&#45;&gt;Node7 -->
<g id="edge9" class="edge">
<title>Node6&#45;&gt;Node7</title>
<path fill="none" stroke="#63b8ff" d="M237.41,-333.03C384.03,-322.1 709.31,-297.85 829.35,-288.9"/>
<polygon fill="#63b8ff" stroke="#63b8ff" points="829.42,-292.41 839.13,-288.17 828.9,-285.43 829.42,-292.41"/>
</g>
<!-- Node8 -->
<g id="node8" class="node">
<title>Node8</title>
<g id="a_node8"><a xlink:href="____va__arg_8h.html" target="_top" xlink:title=" ">
<polygon fill="white" stroke="#666666" points="276,-129 212,-129 212,-110 276,-110 276,-129"/>
<text text-anchor="middle" x="244" y="-117" font-family="Helvetica,sans-Serif" font-size="10.00">__va_arg.h</text>
</a>
</g>
</g>
<!-- Node7&#45;&gt;Node8 -->
<g id="edge10" class="edge">
<title>Node7&#45;&gt;Node8</title>
<path fill="none" stroke="#63b8ff" d="M840.69,-282.54C722.06,-279.01 333.87,-265.51 285,-239 257.96,-224.34 252.85,-213.14 243,-184 238.28,-170.06 238.76,-153.39 240.29,-140.63"/>
<polygon fill="#63b8ff" stroke="#63b8ff" points="243.73,-141.33 241.8,-130.91 236.81,-140.26 243.73,-141.33"/>
</g>
<!-- Node9 -->
<g id="node9" class="node">
<title>Node9</title>
<g id="a_node9"><a xlink:href="dvd_8h.html" target="_top" xlink:title=" ">
<polygon fill="white" stroke="#666666" points="456,-129 382,-129 382,-110 456,-110 456,-129"/>
<text text-anchor="middle" x="419" y="-117" font-family="Helvetica,sans-Serif" font-size="10.00">dolphin/dvd.h</text>
</a>
</g>
</g>
<!-- Node7&#45;&gt;Node9 -->
<g id="edge12" class="edge">
<title>Node7&#45;&gt;Node9</title>
<path fill="none" stroke="#63b8ff" d="M840.67,-282.59C738.67,-279.58 438.81,-268.39 346,-239 299.85,-224.39 276.08,-225.99 252,-184 225.09,-137.08 312.32,-124.62 370.69,-121.44"/>
<polygon fill="#63b8ff" stroke="#63b8ff" points="370.59,-124.95 380.42,-120.99 370.27,-117.96 370.59,-124.95"/>
</g>
<!-- Node10 -->
<g id="node10" class="node">
<title>Node10</title>
<g id="a_node10"><a xlink:href="OSAlarm_8h.html" target="_top" xlink:title=" ">
<polygon fill="white" stroke="#666666" points="494.5,-239 383.5,-239 383.5,-220 494.5,-220 494.5,-239"/>
<text text-anchor="middle" x="439" y="-227" font-family="Helvetica,sans-Serif" font-size="10.00">dolphin/os/OSAlarm.h</text>
</a>
</g>
</g>
<!-- Node7&#45;&gt;Node10 -->
<g id="edge14" class="edge">
<title>Node7&#45;&gt;Node10</title>
<path fill="none" stroke="#63b8ff" d="M840.79,-279.34C768.81,-270.59 600.61,-250.14 506.25,-238.67"/>
<polygon fill="#63b8ff" stroke="#63b8ff" points="506.69,-235.2 496.34,-237.47 505.84,-242.15 506.69,-235.2"/>
</g>
<!-- Node11 -->
<g id="node11" class="node">
<title>Node11</title>
<g id="a_node11"><a xlink:href="OSError_8h.html" target="_top" xlink:title=" ">
<polygon fill="white" stroke="#666666" points="367,-184 261,-184 261,-165 367,-165 367,-184"/>
<text text-anchor="middle" x="314" y="-172" font-family="Helvetica,sans-Serif" font-size="10.00">dolphin/os/OSError.h</text>
</a>
</g>
</g>
<!-- Node7&#45;&gt;Node11 -->
<g id="edge28" class="edge">
<title>Node7&#45;&gt;Node11</title>
<path fill="none" stroke="#63b8ff" d="M840.63,-283.58C741.46,-283.32 456.61,-279.02 374,-239 353.37,-229.01 336.19,-208.68 325.57,-193.71"/>
<polygon fill="#63b8ff" stroke="#63b8ff" points="328.64,-191.99 320.15,-185.64 322.83,-195.9 328.64,-191.99"/>
</g>
<!-- Node12 -->
<g id="node12" class="node">
<title>Node12</title>
<g id="a_node12"><a xlink:href="OSTime_8h.html" target="_top" xlink:title=" ">
<polygon fill="white" stroke="#666666" points="492.5,-184 385.5,-184 385.5,-165 492.5,-165 492.5,-184"/>
<text text-anchor="middle" x="439" y="-172" font-family="Helvetica,sans-Serif" font-size="10.00">dolphin/os/OSTime.h</text>
</a>
</g>
</g>
<!-- Node7&#45;&gt;Node12 -->
<g id="edge55" class="edge">
<title>Node7&#45;&gt;Node12</title>
<path fill="none" stroke="#63b8ff" d="M840.9,-280.77C787.16,-275.89 679.84,-263.75 592,-239 546.64,-226.22 496.66,-203.78 466.56,-189.29"/>
<polygon fill="#63b8ff" stroke="#63b8ff" points="468.3,-186.24 457.77,-185 465.23,-192.53 468.3,-186.24"/>
</g>
<!-- Node13 -->
<g id="node13" class="node">
<title>Node13</title>
<g id="a_node13"><a xlink:href="OSAlloc_8h.html" target="_top" xlink:title=" ">
<polygon fill="white" stroke="#666666" points="617.5,-184 510.5,-184 510.5,-165 617.5,-165 617.5,-184"/>
<text text-anchor="middle" x="564" y="-172" font-family="Helvetica,sans-Serif" font-size="10.00">dolphin/os/OSAlloc.h</text>
</a>
</g>
</g>
<!-- Node7&#45;&gt;Node13 -->
<g id="edge19" class="edge">
<title>Node7&#45;&gt;Node13</title>
<path fill="none" stroke="#63b8ff" d="M840.97,-280.5C780.13,-274.66 655.55,-260.44 618,-239 599.19,-228.26 583.92,-208.37 574.47,-193.71"/>
<polygon fill="#63b8ff" stroke="#63b8ff" points="577.64,-192.17 569.45,-185.45 571.66,-195.81 577.64,-192.17"/>
</g>
<!-- Node14 -->
<g id="node14" class="node">
<title>Node14</title>
<g id="a_node14"><a xlink:href="OSArena_8h.html" target="_top" xlink:title=" ">
<polygon fill="white" stroke="#666666" points="746.5,-184 635.5,-184 635.5,-165 746.5,-165 746.5,-184"/>
<text text-anchor="middle" x="691" y="-172" font-family="Helvetica,sans-Serif" font-size="10.00">dolphin/os/OSArena.h</text>
</a>
</g>
</g>
<!-- Node7&#45;&gt;Node14 -->
<g id="edge21" class="edge">
<title>Node7&#45;&gt;Node14</title>
<path fill="none" stroke="#63b8ff" d="M840.69,-282.59C778.93,-280.15 652.99,-271.24 626,-239 610.65,-220.66 636.26,-201.78 659.71,-189.43"/>
<polygon fill="#63b8ff" stroke="#63b8ff" points="661.09,-192.65 668.49,-185.07 657.97,-186.38 661.09,-192.65"/>
</g>
<!-- Node15 -->
<g id="node15" class="node">
<title>Node15</title>
<g id="a_node15"><a xlink:href="OSAudioSystem_8h.html" target="_top" xlink:title=" ">
<polygon fill="white" stroke="#666666" points="1797.5,-239 1654.5,-239 1654.5,-220 1797.5,-220 1797.5,-239"/>
<text text-anchor="middle" x="1726" y="-227" font-family="Helvetica,sans-Serif" font-size="10.00">dolphin/os/OSAudioSystem.h</text>
</a>
</g>
</g>
<!-- Node7&#45;&gt;Node15 -->
<g id="edge23" class="edge">
<title>Node7&#45;&gt;Node15</title>
<path fill="none" stroke="#63b8ff" d="M909.35,-282C1017.11,-277.18 1358.16,-261.12 1640,-239 1641.01,-238.92 1642.04,-238.84 1643.06,-238.76"/>
<polygon fill="#63b8ff" stroke="#63b8ff" points="1643.05,-242.27 1652.72,-237.94 1642.46,-235.29 1643.05,-242.27"/>
</g>
<!-- Node16 -->
<g id="node16" class="node">
<title>Node16</title>
<g id="a_node16"><a xlink:href="OSCache_8h.html" target="_top" xlink:title=" ">
<polygon fill="white" stroke="#666666" points="821.5,-129 708.5,-129 708.5,-110 821.5,-110 821.5,-129"/>
<text text-anchor="middle" x="765" y="-117" font-family="Helvetica,sans-Serif" font-size="10.00">dolphin/os/OSCache.h</text>
</a>
</g>
</g>
<!-- Node7&#45;&gt;Node16 -->
<g id="edge24" class="edge">
<title>Node7&#45;&gt;Node16</title>
<path fill="none" stroke="#63b8ff" d="M840.64,-278.7C798.81,-272.07 731.88,-258.65 717,-239 695.81,-211.02 753.42,-187 755,-184 762.01,-170.67 764.41,-153.74 765.11,-140.71"/>
<polygon fill="#63b8ff" stroke="#63b8ff" points="768.61,-140.85 765.32,-130.78 761.61,-140.7 768.61,-140.85"/>
</g>
<!-- Node17 -->
<g id="node17" class="node">
<title>Node17</title>
<g id="a_node17"><a xlink:href="OSContext_8h.html" target="_top" xlink:title=" ">
<polygon fill="white" stroke="#666666" points="958.5,-129 839.5,-129 839.5,-110 958.5,-110 958.5,-129"/>
<text text-anchor="middle" x="899" y="-117" font-family="Helvetica,sans-Serif" font-size="10.00">dolphin/os/OSContext.h</text>
</a>
</g>
</g>
<!-- Node7&#45;&gt;Node17 -->
<g id="edge26" class="edge">
<title>Node7&#45;&gt;Node17</title>
<path fill="none" stroke="#63b8ff" d="M840.69,-281.98C788.68,-278.21 698.59,-265.16 725,-220 741.48,-191.83 760.65,-200.16 789,-184 818.27,-167.32 851.79,-147.93 874.06,-135"/>
<polygon fill="#63b8ff" stroke="#63b8ff" points="875.53,-138.2 882.42,-130.15 872.01,-132.14 875.53,-138.2"/>
</g>
<!-- Node18 -->
<g id="node18" class="node">
<title>Node18</title>
<g id="a_node18"><a xlink:href="OSExec_8h.html" target="_top" xlink:title=" ">
<polygon fill="white" stroke="#666666" points="1082.5,-184 975.5,-184 975.5,-165 1082.5,-165 1082.5,-184"/>
<text text-anchor="middle" x="1029" y="-172" font-family="Helvetica,sans-Serif" font-size="10.00">dolphin/os/OSExec.h</text>
</a>
</g>
</g>
<!-- Node7&#45;&gt;Node18 -->
<g id="edge29" class="edge">
<title>Node7&#45;&gt;Node18</title>
<path fill="none" stroke="#63b8ff" d="M909.25,-280.75C939.4,-276.54 982.51,-265.9 1009,-239 1020.42,-227.4 1025.33,-209.34 1027.43,-195.44"/>
<polygon fill="#63b8ff" stroke="#63b8ff" points="1030.9,-195.98 1028.52,-185.65 1023.94,-195.21 1030.9,-195.98"/>
</g>
<!-- Node19 -->
<g id="node19" class="node">
<title>Node19</title>
<g id="a_node19"><a xlink:href="OSFont_8h.html" target="_top" xlink:title=" ">
<polygon fill="white" stroke="#666666" points="1161.5,-239 1056.5,-239 1056.5,-220 1161.5,-220 1161.5,-239"/>
<text text-anchor="middle" x="1109" y="-227" font-family="Helvetica,sans-Serif" font-size="10.00">dolphin/os/OSFont.h</text>
</a>
</g>
</g>
<!-- Node7&#45;&gt;Node19 -->
<g id="edge31" class="edge">
<title>Node7&#45;&gt;Node19</title>
<path fill="none" stroke="#63b8ff" d="M909.03,-275.79C948.29,-266.9 1013.24,-252.19 1058.42,-241.96"/>
<polygon fill="#63b8ff" stroke="#63b8ff" points="1059,-245.41 1067.98,-239.79 1057.45,-238.59 1059,-245.41"/>
</g>
<!-- Node20 -->
<g id="node20" class="node">
<title>Node20</title>
<g id="a_node20"><a xlink:href="OSInterrupt_8h.html" target="_top" xlink:title=" ">
<polygon fill="white" stroke="#666666" points="1264,-184 1142,-184 1142,-165 1264,-165 1264,-184"/>
<text text-anchor="middle" x="1203" y="-172" font-family="Helvetica,sans-Serif" font-size="10.00">dolphin/os/OSInterrupt.h</text>
</a>
</g>
</g>
<!-- Node7&#45;&gt;Node20 -->
<g id="edge33" class="edge">
<title>Node7&#45;&gt;Node20</title>
<path fill="none" stroke="#63b8ff" d="M909.48,-282.16C978.11,-278.9 1128.76,-268.48 1170,-239 1184.69,-228.5 1193.33,-209.46 1198.06,-194.96"/>
<polygon fill="#63b8ff" stroke="#63b8ff" points="1201.36,-196.16 1200.75,-185.59 1194.63,-194.24 1201.36,-196.16"/>
</g>
<!-- Node21 -->
<g id="node21" class="node">
<title>Node21</title>
<g id="a_node21"><a xlink:href="OSLink_8h.html" target="_top" xlink:title=" ">
<polygon fill="white" stroke="#666666" points="1317,-129 1213,-129 1213,-110 1317,-110 1317,-129"/>
<text text-anchor="middle" x="1265" y="-117" font-family="Helvetica,sans-Serif" font-size="10.00">dolphin/os/OSLink.h</text>
</a>
</g>
</g>
<!-- Node7&#45;&gt;Node21 -->
<g id="edge35" class="edge">
<title>Node7&#45;&gt;Node21</title>
<path fill="none" stroke="#63b8ff" d="M909.11,-283.68C1032.74,-283.99 1452.13,-281.85 1492,-239 1546.34,-180.6 1412.97,-145.85 1328.34,-130.29"/>
<polygon fill="#63b8ff" stroke="#63b8ff" points="1329.21,-126.88 1318.75,-128.57 1327.98,-133.78 1329.21,-126.88"/>
</g>
<!-- Node22 -->
<g id="node22" class="node">
<title>Node22</title>
<g id="a_node22"><a xlink:href="OSMemory_8h.html" target="_top" xlink:title=" ">
<polygon fill="white" stroke="#666666" points="1338,-239 1218,-239 1218,-220 1338,-220 1338,-239"/>
<text text-anchor="middle" x="1278" y="-227" font-family="Helvetica,sans-Serif" font-size="10.00">dolphin/os/OSMemory.h</text>
</a>
</g>
</g>
<!-- Node7&#45;&gt;Node22 -->
<g id="edge37" class="edge">
<title>Node7&#45;&gt;Node22</title>
<path fill="none" stroke="#63b8ff" d="M909.36,-278.98C974.92,-270.36 1119.08,-251.4 1206.43,-239.91"/>
<polygon fill="#63b8ff" stroke="#63b8ff" points="1206.62,-243.42 1216.08,-238.64 1205.71,-236.48 1206.62,-243.42"/>
</g>
<!-- Node23 -->
<g id="node23" class="node">
<title>Node23</title>
<g id="a_node23"><a xlink:href="OSMessage_8h.html" target="_top" xlink:title=" ">
<polygon fill="white" stroke="#666666" points="869.5,-239 744.5,-239 744.5,-220 869.5,-220 869.5,-239"/>
<text text-anchor="middle" x="807" y="-227" font-family="Helvetica,sans-Serif" font-size="10.00">dolphin/os/OSMessage.h</text>
</a>
</g>
</g>
<!-- Node7&#45;&gt;Node23 -->
<g id="edge39" class="edge">
<title>Node7&#45;&gt;Node23</title>
<path fill="none" stroke="#63b8ff" d="M863.46,-274.51C853.54,-266.77 838.99,-255.43 827.14,-246.2"/>
<polygon fill="#63b8ff" stroke="#63b8ff" points="829.6,-243.68 819.56,-240.29 825.29,-249.2 829.6,-243.68"/>
</g>
<!-- Node24 -->
<g id="node24" class="node">
<title>Node24</title>
<g id="a_node24"><a xlink:href="OSThread_8h.html" target="_top" xlink:title=" ">
<polygon fill="white" stroke="#666666" points="957,-184 841,-184 841,-165 957,-165 957,-184"/>
<text text-anchor="middle" x="899" y="-172" font-family="Helvetica,sans-Serif" font-size="10.00">dolphin/os/OSThread.h</text>
</a>
</g>
</g>
<!-- Node7&#45;&gt;Node24 -->
<g id="edge54" class="edge">
<title>Node7&#45;&gt;Node24</title>
<path fill="none" stroke="#63b8ff" d="M840.52,-280.47C790.08,-274.66 705.25,-258.9 735,-220 746.85,-204.5 790.23,-193.14 829.4,-185.78"/>
<polygon fill="#63b8ff" stroke="#63b8ff" points="829.86,-189.25 839.08,-184.03 828.62,-182.36 829.86,-189.25"/>
</g>
<!-- Node25 -->
<g id="node25" class="node">
<title>Node25</title>
<g id="a_node25"><a xlink:href="OSMutex_8h.html" target="_top" xlink:title=" ">
<polygon fill="white" stroke="#666666" points="1000,-239 888,-239 888,-220 1000,-220 1000,-239"/>
<text text-anchor="middle" x="944" y="-227" font-family="Helvetica,sans-Serif" font-size="10.00">dolphin/os/OSMutex.h</text>
</a>
</g>
</g>
<!-- Node7&#45;&gt;Node25 -->
<g id="edge42" class="edge">
<title>Node7&#45;&gt;Node25</title>
<path fill="none" stroke="#63b8ff" d="M886.7,-274.51C896.78,-266.77 911.54,-255.43 923.56,-246.2"/>
<polygon fill="#63b8ff" stroke="#63b8ff" points="925.47,-249.15 931.27,-240.28 921.21,-243.6 925.47,-249.15"/>
</g>
<!-- Node26 -->
<g id="node26" class="node">
<title>Node26</title>
<g id="a_node26"><a xlink:href="OSReboot_8h.html" target="_top" xlink:title=" ">
<polygon fill="white" stroke="#666666" points="1461,-129 1345,-129 1345,-110 1461,-110 1461,-129"/>
<text text-anchor="middle" x="1403" y="-117" font-family="Helvetica,sans-Serif" font-size="10.00">dolphin/os/OSReboot.h</text>
</a>
</g>
</g>
<!-- Node7&#45;&gt;Node26 -->
<g id="edge44" class="edge">
<title>Node7&#45;&gt;Node26</title>
<path fill="none" stroke="#63b8ff" d="M909.34,-283.77C1035.85,-284.39 1470.7,-283.29 1512,-239 1531.46,-218.13 1506.05,-187.75 1484,-165 1471.12,-151.71 1453.39,-141.36 1437.81,-134"/>
<polygon fill="#63b8ff" stroke="#63b8ff" points="1439.39,-130.87 1428.83,-130 1436.54,-137.26 1439.39,-130.87"/>
</g>
<!-- Node27 -->
<g id="node27" class="node">
<title>Node27</title>
<g id="a_node27"><a xlink:href="OSReset_8h.html" target="_top" xlink:title=" ">
<polygon fill="white" stroke="#666666" points="1595.5,-129 1484.5,-129 1484.5,-110 1595.5,-110 1595.5,-129"/>
<text text-anchor="middle" x="1540" y="-117" font-family="Helvetica,sans-Serif" font-size="10.00">dolphin/os/OSReset.h</text>
</a>
</g>
</g>
<!-- Node7&#45;&gt;Node27 -->
<g id="edge46" class="edge">
<title>Node7&#45;&gt;Node27</title>
<path fill="none" stroke="#63b8ff" d="M909.3,-283.72C1037.79,-284.22 1485.52,-282.76 1530,-239 1556.05,-213.38 1550.86,-166.55 1545.18,-140.08"/>
<polygon fill="#63b8ff" stroke="#63b8ff" points="1548.65,-139.58 1542.91,-130.67 1541.85,-141.21 1548.65,-139.58"/>
</g>
<!-- Node28 -->
<g id="node28" class="node">
<title>Node28</title>
<g id="a_node28"><a xlink:href="OSResetSW_8h.html" target="_top" xlink:title=" ">
<polygon fill="white" stroke="#666666" points="1483.5,-239 1356.5,-239 1356.5,-220 1483.5,-220 1483.5,-239"/>
<text text-anchor="middle" x="1420" y="-227" font-family="Helvetica,sans-Serif" font-size="10.00">dolphin/os/OSResetSW.h</text>
</a>
</g>
</g>
<!-- Node7&#45;&gt;Node28 -->
<g id="edge48" class="edge">
<title>Node7&#45;&gt;Node28</title>
<path fill="none" stroke="#63b8ff" d="M909.38,-280.52C985.58,-273.86 1174.73,-257.01 1344.87,-239.2"/>
<polygon fill="#63b8ff" stroke="#63b8ff" points="1345.22,-242.68 1354.8,-238.16 1344.49,-235.72 1345.22,-242.68"/>
</g>
<!-- Node29 -->
<g id="node29" class="node">
<title>Node29</title>
<g id="a_node29"><a xlink:href="OSRtc_8h.html" target="_top" xlink:title=" ">
<polygon fill="white" stroke="#666666" points="1755.5,-184 1654.5,-184 1654.5,-165 1755.5,-165 1755.5,-184"/>
<text text-anchor="middle" x="1705" y="-172" font-family="Helvetica,sans-Serif" font-size="10.00">dolphin/os/OSRtc.h</text>
</a>
</g>
</g>
<!-- Node7&#45;&gt;Node29 -->
<g id="edge51" class="edge">
<title>Node7&#45;&gt;Node29</title>
<path fill="none" stroke="#63b8ff" d="M909.18,-283.6C1034.8,-283.63 1470.45,-280.67 1602,-239 1633.87,-228.91 1665.91,-206.83 1685.6,-191.56"/>
<polygon fill="#63b8ff" stroke="#63b8ff" points="1687.64,-194.41 1693.28,-185.44 1683.28,-188.94 1687.64,-194.41"/>
</g>
<!-- Node30 -->
<g id="node30" class="node">
<title>Node30</title>
<g id="a_node30"><a xlink:href="OSSync_8h.html" target="_top" xlink:title=" ">
<polygon fill="white" stroke="#666666" points="1922.5,-239 1815.5,-239 1815.5,-220 1922.5,-220 1922.5,-239"/>
<text text-anchor="middle" x="1869" y="-227" font-family="Helvetica,sans-Serif" font-size="10.00">dolphin/os/OSSync.h</text>
</a>
</g>
</g>
<!-- Node7&#45;&gt;Node30 -->
<g id="edge53" class="edge">
<title>Node7&#45;&gt;Node30</title>
<path fill="none" stroke="#63b8ff" d="M909.31,-282.93C1030.21,-280.69 1447.82,-271.06 1803.77,-239.11"/>
<polygon fill="#63b8ff" stroke="#63b8ff" points="1803.93,-242.61 1813.57,-238.22 1803.3,-235.64 1803.93,-242.61"/>
</g>
<!-- Node8&#45;&gt;Node3 -->
<g id="edge11" class="edge">
<title>Node8&#45;&gt;Node3</title>
<path fill="none" stroke="#63b8ff" d="M276.48,-114.9C357.83,-105.88 570.91,-82.25 669.97,-71.27"/>
<polygon fill="#63b8ff" stroke="#63b8ff" points="670.13,-74.77 679.68,-70.19 669.36,-67.82 670.13,-74.77"/>
</g>
<!-- Node9&#45;&gt;Node3 -->
<g id="edge13" class="edge">
<title>Node9&#45;&gt;Node3</title>
<path fill="none" stroke="#63b8ff" d="M456.46,-111.95C510.16,-102.56 609.22,-85.23 670,-74.6"/>
<polygon fill="#63b8ff" stroke="#63b8ff" points="670.51,-78.06 679.76,-72.89 669.3,-71.16 670.51,-78.06"/>
</g>
<!-- Node10&#45;&gt;Node11 -->
<g id="edge15" class="edge">
<title>Node10&#45;&gt;Node11</title>
<path fill="none" stroke="#63b8ff" d="M417.8,-219.51C397.92,-211.08 367.97,-198.38 345.34,-188.79"/>
<polygon fill="#63b8ff" stroke="#63b8ff" points="346.86,-185.63 336.28,-184.95 344.13,-192.07 346.86,-185.63"/>
</g>
<!-- Node10&#45;&gt;Node12 -->
<g id="edge17" class="edge">
<title>Node10&#45;&gt;Node12</title>
<path fill="none" stroke="#63b8ff" d="M439,-219.75C439,-213.27 439,-204.16 439,-195.9"/>
<polygon fill="#63b8ff" stroke="#63b8ff" points="442.5,-195.96 439,-185.96 435.5,-195.96 442.5,-195.96"/>
</g>
<!-- Node11&#45;&gt;Node3 -->
<g id="edge16" class="edge">
<title>Node11&#45;&gt;Node3</title>
<path fill="none" stroke="#63b8ff" d="M347.74,-164.57C421.04,-145.17 594.86,-99.15 677.23,-77.35"/>
<polygon fill="#63b8ff" stroke="#63b8ff" points="677.99,-80.77 686.76,-74.83 676.2,-74 677.99,-80.77"/>
</g>
<!-- Node12&#45;&gt;Node3 -->
<g id="edge18" class="edge">
<title>Node12&#45;&gt;Node3</title>
<path fill="none" stroke="#63b8ff" d="M462.16,-164.66C512.01,-145.64 629.7,-100.73 688.02,-78.47"/>
<polygon fill="#63b8ff" stroke="#63b8ff" points="689.01,-81.84 697.11,-75 686.52,-75.3 689.01,-81.84"/>
</g>
<!-- Node13&#45;&gt;Node3 -->
<g id="edge20" class="edge">
<title>Node13&#45;&gt;Node3</title>
<path fill="none" stroke="#63b8ff" d="M576.93,-164.66C603.78,-146.31 665.87,-103.87 699.45,-80.91"/>
<polygon fill="#63b8ff" stroke="#63b8ff" points="701.36,-83.85 707.64,-75.31 697.41,-78.07 701.36,-83.85"/>
</g>
<!-- Node14&#45;&gt;Node3 -->
<g id="edge22" class="edge">
<title>Node14&#45;&gt;Node3</title>
<path fill="none" stroke="#63b8ff" d="M691.14,-164.67C691.56,-152.21 693.13,-128.89 699,-110 701.77,-101.08 706.26,-91.81 710.55,-84.06"/>
<polygon fill="#63b8ff" stroke="#63b8ff" points="713.46,-86.01 715.5,-75.61 707.42,-82.47 713.46,-86.01"/>
</g>
<!-- Node16&#45;&gt;Node3 -->
<g id="edge25" class="edge">
<title>Node16&#45;&gt;Node3</title>
<path fill="none" stroke="#63b8ff" d="M757.9,-109.75C752.08,-102.58 743.67,-92.2 736.44,-83.3"/>
<polygon fill="#63b8ff" stroke="#63b8ff" points="739.23,-81.18 730.21,-75.62 733.79,-85.59 739.23,-81.18"/>
</g>
<!-- Node17&#45;&gt;Node3 -->
<g id="edge27" class="edge">
<title>Node17&#45;&gt;Node3</title>
<path fill="none" stroke="#63b8ff" d="M868.97,-109.51C839.77,-100.76 795.19,-87.42 762.79,-77.71"/>
<polygon fill="#63b8ff" stroke="#63b8ff" points="763.91,-74.4 753.33,-74.88 761.9,-81.1 763.91,-74.4"/>
</g>
<!-- Node18&#45;&gt;Node3 -->
<g id="edge30" class="edge">
<title>Node18&#45;&gt;Node3</title>
<path fill="none" stroke="#63b8ff" d="M1023.3,-164.87C1013.57,-150.88 992.31,-123.45 967,-110 905.96,-77.56 825.58,-68.28 773.84,-65.89"/>
<polygon fill="#63b8ff" stroke="#63b8ff" points="774.26,-62.4 764.13,-65.52 773.99,-69.4 774.26,-62.4"/>
</g>
<!-- Node19&#45;&gt;Node3 -->
<g id="edge32" class="edge">
<title>Node19&#45;&gt;Node3</title>
<path fill="none" stroke="#63b8ff" d="M1108.59,-219.76C1107.54,-206.58 1103.88,-181.4 1091,-165 1060.4,-126.02 1040.74,-126.48 994,-110 920.27,-84 829.87,-73.06 774.1,-68.55"/>
<polygon fill="#63b8ff" stroke="#63b8ff" points="774.49,-65.07 764.25,-67.8 773.95,-72.05 774.49,-65.07"/>
</g>
<!-- Node20&#45;&gt;Node3 -->
<g id="edge34" class="edge">
<title>Node20&#45;&gt;Node3</title>
<path fill="none" stroke="#63b8ff" d="M1195.41,-164.67C1182.56,-150.38 1154.96,-122.55 1125,-110 1062.83,-83.96 868.14,-71.98 774,-67.59"/>
<polygon fill="#63b8ff" stroke="#63b8ff" points="774.42,-64.11 764.27,-67.15 774.1,-71.1 774.42,-64.11"/>
</g>
<!-- Node21&#45;&gt;Node3 -->
<g id="edge36" class="edge">
<title>Node21&#45;&gt;Node3</title>
<path fill="none" stroke="#63b8ff" d="M1212.7,-113.32C1201.58,-112.22 1189.9,-111.07 1179,-110 1032.38,-95.62 859.29,-78.81 774.35,-70.57"/>
<polygon fill="#63b8ff" stroke="#63b8ff" points="774.76,-67.1 764.47,-69.62 774.09,-74.06 774.76,-67.1"/>
</g>
<!-- Node22&#45;&gt;Node20 -->
<g id="edge38" class="edge">
<title>Node22&#45;&gt;Node20</title>
<path fill="none" stroke="#63b8ff" d="M1265.28,-219.51C1254.22,-211.7 1237.96,-200.21 1224.83,-190.93"/>
<polygon fill="#63b8ff" stroke="#63b8ff" points="1226.96,-188.14 1216.77,-185.23 1222.92,-193.86 1226.96,-188.14"/>
</g>
<!-- Node23&#45;&gt;Node24 -->
<g id="edge40" class="edge">
<title>Node23&#45;&gt;Node24</title>
<path fill="none" stroke="#63b8ff" d="M822.61,-219.51C836.7,-211.39 857.69,-199.3 874.1,-189.85"/>
<polygon fill="#63b8ff" stroke="#63b8ff" points="875.39,-193.14 882.31,-185.11 871.9,-187.07 875.39,-193.14"/>
</g>
<!-- Node24&#45;&gt;Node17 -->
<g id="edge41" class="edge">
<title>Node24&#45;&gt;Node17</title>
<path fill="none" stroke="#63b8ff" d="M899,-164.75C899,-158.27 899,-149.16 899,-140.9"/>
<polygon fill="#63b8ff" stroke="#63b8ff" points="902.5,-140.96 899,-130.96 895.5,-140.96 902.5,-140.96"/>
</g>
<!-- Node25&#45;&gt;Node24 -->
<g id="edge43" class="edge">
<title>Node25&#45;&gt;Node24</title>
<path fill="none" stroke="#63b8ff" d="M936.57,-219.75C930.42,-212.5 921.49,-201.98 913.87,-193.02"/>
<polygon fill="#63b8ff" stroke="#63b8ff" points="916.71,-190.95 907.57,-185.6 911.38,-195.48 916.71,-190.95"/>
</g>
<!-- Node26&#45;&gt;Node3 -->
<g id="edge45" class="edge">
<title>Node26&#45;&gt;Node3</title>
<path fill="none" stroke="#63b8ff" d="M1344.58,-111.83C1338.31,-111.18 1332.03,-110.55 1326,-110 1122.1,-91.24 878.89,-75.27 774.17,-68.7"/>
<polygon fill="#63b8ff" stroke="#63b8ff" points="774.4,-65.21 764.2,-68.08 773.97,-72.2 774.4,-65.21"/>
</g>
<!-- Node27&#45;&gt;Node3 -->
<g id="edge47" class="edge">
<title>Node27&#45;&gt;Node3</title>
<path fill="none" stroke="#63b8ff" d="M1484.25,-111.42C1479.43,-110.9 1474.63,-110.42 1470,-110 1208.93,-86.41 895.42,-72.38 773.77,-67.48"/>
<polygon fill="#63b8ff" stroke="#63b8ff" points="774.25,-64 764.12,-67.1 773.97,-70.99 774.25,-64"/>
</g>
<!-- Node28&#45;&gt;Node3 -->
<g id="edge49" class="edge">
<title>Node28&#45;&gt;Node3</title>
<path fill="none" stroke="#63b8ff" d="M1459.5,-219.57C1527.3,-202.57 1653.94,-162.52 1604,-110 1575.3,-79.81 959.61,-68.81 774.31,-66.17"/>
<polygon fill="#63b8ff" stroke="#63b8ff" points="774.55,-62.68 764.5,-66.04 774.45,-69.68 774.55,-62.68"/>
</g>
<!-- Node28&#45;&gt;Node20 -->
<g id="edge50" class="edge">
<title>Node28&#45;&gt;Node20</title>
<path fill="none" stroke="#63b8ff" d="M1383.19,-219.51C1346.68,-210.59 1290.58,-196.89 1250.68,-187.15"/>
<polygon fill="#63b8ff" stroke="#63b8ff" points="1251.64,-183.78 1241.1,-184.81 1249.98,-190.58 1251.64,-183.78"/>
</g>
<!-- Node29&#45;&gt;Node3 -->
<g id="edge52" class="edge">
<title>Node29&#45;&gt;Node3</title>
<path fill="none" stroke="#63b8ff" d="M1699.43,-164.95C1689.5,-150.54 1667.19,-121.85 1640,-110 1560.7,-75.43 956.98,-67.5 774.24,-65.88"/>
<polygon fill="#63b8ff" stroke="#63b8ff" points="774.37,-62.38 764.34,-65.79 774.31,-69.38 774.37,-62.38"/>
</g>
</g>
</svg>
        <g id="navigator" transform="translate(0 0)" fill="#404254">
                <rect fill="#f2f5e9" fill-opacity="0.5" stroke="#606060" stroke-width=".5" x="0" y="0" width="60" height="60"/>
                <use id="zoomplus" xlink:href="#zoomPlus" x="17" y="9" onmousedown="handleZoom(evt,'in')"/>
                <use id="zoomminus" xlink:href="#zoomMin" x="42" y="9" onmousedown="handleZoom(evt,'out')"/>
                <use id="reset" xlink:href="#resetDef" x="30" y="36" onmousedown="handleReset()"/>
                <g id="arrowUp" xlink:href="#dirArrow" transform="translate(30 24)" onmousedown="handlePan(0,-1)">
                  <use xlink:href="#rim" fill="#404040">
                        <set attributeName="fill" to="#808080" begin="arrowUp.mouseover" end="arrowUp.mouseout"/>
                  </use>
                  <path fill="none" stroke="white" stroke-width="1.5" d="M0,-3.0v7 M-2.5,-0.5L0,-3.0L2.5,-0.5"/>
                </g>
                <g id="arrowRight" xlink:href="#dirArrow" transform="rotate(90) translate(36 -43)" onmousedown="handlePan(1,0)">
                  <use xlink:href="#rim" fill="#404040">
                        <set attributeName="fill" to="#808080" begin="arrowRight.mouseover" end="arrowRight.mouseout"/>
                  </use>
                  <path fill="none" stroke="white" stroke-width="1.5" d="M0,-3.0v7 M-2.5,-0.5L0,-3.0L2.5,-0.5"/>
                </g>
                <g id="arrowDown" xlink:href="#dirArrow" transform="rotate(180) translate(-30 -48)" onmousedown="handlePan(0,1)">
                  <use xlink:href="#rim" fill="#404040">
                        <set attributeName="fill" to="#808080" begin="arrowDown.mouseover" end="arrowDown.mouseout"/>
                  </use>
                  <path fill="none" stroke="white" stroke-width="1.5" d="M0,-3.0v7 M-2.5,-0.5L0,-3.0L2.5,-0.5"/>
                </g>
                <g id="arrowLeft" xlink:href="#dirArrow" transform="rotate(270) translate(-36 17)" onmousedown="handlePan(-1,0)">
                  <use xlink:href="#rim" fill="#404040">
                        <set attributeName="fill" to="#808080" begin="arrowLeft.mouseover" end="arrowLeft.mouseout"/>
                  </use>
                  <path fill="none" stroke="white" stroke-width="1.5" d="M0,-3.0v7 M-2.5,-0.5L0,-3.0L2.5,-0.5"/>
                </g>
        </g>
        <svg viewBox="0 0 15 15" width="100%" height="30px" preserveAspectRatio="xMaxYMin meet">
         <g id="arrow_out" transform="scale(0.3 0.3)">
          <a xlink:href="d__bg__plc_8cpp__incl_org.svg" target="_base">
           <rect id="button" ry="5" rx="5" y="6" x="6" height="38" width="38"
                fill="#f2f5e9" fill-opacity="0.5" stroke="#606060" stroke-width="1.0"/>
           <path id="arrow"
             d="M 11.500037,31.436501 C 11.940474,20.09759 22.043105,11.32322 32.158766,21.979434 L 37.068811,17.246167 C 37.068811,17.246167 37.088388,32 37.088388,32 L 22.160133,31.978069 C 22.160133,31.978069 26.997745,27.140456 26.997745,27.140456 C 18.528582,18.264221 13.291696,25.230495 11.500037,31.436501 z"
             style="fill:#404040;"/>
          </a>
         </g>
        </svg>
</svg>
