<?xml version="1.0" encoding="UTF-8" standalone="no"?>
<!DOCTYPE svg PUBLIC "-//W3C//DTD SVG 1.1//EN"
 "http://www.w3.org/Graphics/SVG/1.1/DTD/svg11.dtd">
<!-- Generated by graphviz version 2.46.0 (20210122.1329)
 -->
<!-- Title: include/d/d_bg/d_bg_w/d_bg_w_base/d_bg_w_base.h Pages: 1 -->
<!--zoomable 385 -->
<svg id="main" version="1.1" xmlns="http://www.w3.org/2000/svg" xmlns:xlink="http://www.w3.org/1999/xlink" xml:space="preserve" onload="init(evt)">
<style type="text/css"><![CDATA[
.edge:hover path { stroke: red; }
.edge:hover polygon { stroke: red; fill: red; }
]]></style>
<script type="text/javascript"><![CDATA[
var edges = document.getElementsByTagName('g');
if (edges && edges.length) {
  for (var i=0;i<edges.length;i++) {
    if (edges[i].id.substr(0,4)=='edge') {
      edges[i].setAttribute('class','edge');
    }
  }
}
]]></script>
        <defs>
                <circle id="rim" cx="0" cy="0" r="7"/>
                <circle id="rim2" cx="0" cy="0" r="3.5"/>
                <g id="zoomPlus">
                        <use xlink:href="#rim" fill="#404040">
                                <set attributeName="fill" to="#808080" begin="zoomplus.mouseover" end="zoomplus.mouseout"/>
                        </use>
                        <path d="M-4,0h8M0,-4v8" fill="none" stroke="white" stroke-width="1.5" pointer-events="none"/>
                </g>
                <g id="zoomMin">
                        <use xlink:href="#rim" fill="#404040">
                                <set attributeName="fill" to="#808080" begin="zoomminus.mouseover" end="zoomminus.mouseout"/>
                        </use>
                        <path d="M-4,0h8" fill="none" stroke="white" stroke-width="1.5" pointer-events="none"/>
                </g>
                <g id="dirArrow">
                        <path fill="none" stroke="white" stroke-width="1.5" d="M0,-3.0v7 M-2.5,-0.5L0,-3.0L2.5,-0.5"/>
                </g>
               <g id="resetDef">
                       <use xlink:href="#rim2" fill="#404040">
                               <set attributeName="fill" to="#808080" begin="reset.mouseover" end="reset.mouseout"/>
                       </use>
               </g>
        </defs>

<script type="text/javascript">
var viewWidth = 4711;
var viewHeight = 385;
var sectionId = 'dynsection-1';
</script>
<script xlink:href="svgpan.js"/>
<svg id="graph" class="graph">
<g id="viewport">
<title>include/d/d_bg/d_bg_w/d_bg_w_base/d_bg_w_base.h</title>
<polygon fill="white" stroke="transparent" points="-4,4 -4,-381 4707,-381 4707,4 -4,4"/>
<!-- Node1 -->
<g id="node1" class="node">
<title>Node1</title>
<g id="a_node1"><a xlink:title=" ">
<polygon fill="#bfbfbf" stroke="black" points="1936.5,-335.5 1936.5,-376.5 2052.5,-376.5 2052.5,-335.5 1936.5,-335.5"/>
<text text-anchor="start" x="1944.5" y="-364.5" font-family="Helvetica,sans-Serif" font-size="10.00">include/d/d_bg/d_bg</text>
<text text-anchor="start" x="1944.5" y="-353.5" font-family="Helvetica,sans-Serif" font-size="10.00">_w/d_bg_w_base/d_bg</text>
<text text-anchor="middle" x="1994.5" y="-342.5" font-family="Helvetica,sans-Serif" font-size="10.00">_w_base.h</text>
</a>
</g>
</g>
<!-- Node2 -->
<g id="node2" class="node">
<title>Node2</title>
<g id="a_node2"><a xlink:href="d__bg__s_8h.html" target="_top" xlink:title=" ">
<polygon fill="white" stroke="black" points="1902.5,-268.5 1902.5,-298.5 2006.5,-298.5 2006.5,-268.5 1902.5,-268.5"/>
<text text-anchor="start" x="1910.5" y="-286.5" font-family="Helvetica,sans-Serif" font-size="10.00">include/d/d_bg/d_bg</text>
<text text-anchor="middle" x="1954.5" y="-275.5" font-family="Helvetica,sans-Serif" font-size="10.00">_s/d_bg_s.h</text>
</a>
</g>
</g>
<!-- Node1&#45;&gt;Node2 -->
<g id="edge1" class="edge">
<title>Node1&#45;&gt;Node2</title>
<path fill="none" stroke="midnightblue" d="M1978.36,-326.55C1972.97,-317.05 1967.19,-306.86 1962.67,-298.89"/>
<polygon fill="midnightblue" stroke="midnightblue" points="1975.38,-328.39 1983.36,-335.36 1981.47,-324.94 1975.38,-328.39"/>
</g>
<!-- Node4 -->
<g id="node4" class="node">
<title>Node4</title>
<g id="a_node4"><a xlink:href="d__com__inf__game_8h.html" target="_top" xlink:title=" ">
<polygon fill="white" stroke="black" points="1961.5,-201.5 1961.5,-231.5 2107.5,-231.5 2107.5,-201.5 1961.5,-201.5"/>
<text text-anchor="start" x="1969.5" y="-219.5" font-family="Helvetica,sans-Serif" font-size="10.00">include/d/d_com/d_com</text>
<text text-anchor="middle" x="2034.5" y="-208.5" font-family="Helvetica,sans-Serif" font-size="10.00">_inf_game/d_com_inf_game.h</text>
</a>
</g>
</g>
<!-- Node1&#45;&gt;Node4 -->
<g id="edge55" class="edge">
<title>Node1&#45;&gt;Node4</title>
<path fill="none" stroke="midnightblue" d="M2006.3,-325.72C2009.51,-317.18 2012.84,-307.79 2015.5,-299 2022.53,-275.78 2028.47,-248.17 2031.76,-231.78"/>
<polygon fill="midnightblue" stroke="midnightblue" points="2002.95,-324.67 2002.62,-335.26 2009.48,-327.19 2002.95,-324.67"/>
</g>
<!-- Node3 -->
<g id="node3" class="node">
<title>Node3</title>
<g id="a_node3"><a xlink:href="d__com__inf__game_8cpp.html" target="_top" xlink:title=" ">
<polygon fill="white" stroke="black" points="0,-67.5 0,-97.5 119,-97.5 119,-67.5 0,-67.5"/>
<text text-anchor="start" x="8" y="-85.5" font-family="Helvetica,sans-Serif" font-size="10.00">src/d/d_com/d_com_inf</text>
<text text-anchor="middle" x="59.5" y="-74.5" font-family="Helvetica,sans-Serif" font-size="10.00">_game.cpp</text>
</a>
</g>
</g>
<!-- Node2&#45;&gt;Node3 -->
<g id="edge2" class="edge">
<title>Node2&#45;&gt;Node3</title>
<path fill="none" stroke="midnightblue" d="M1892.03,-282.83C1582.74,-283.88 224.5,-281.8 81.5,-165 61.52,-148.68 58.62,-116.28 58.75,-97.62"/>
<polygon fill="midnightblue" stroke="midnightblue" points="1892.17,-286.33 1902.16,-282.79 1892.15,-279.33 1892.17,-286.33"/>
</g>
<!-- Node2&#45;&gt;Node4 -->
<g id="edge3" class="edge">
<title>Node2&#45;&gt;Node4</title>
<path fill="none" stroke="midnightblue" d="M1979.87,-261.88C1992.03,-252.01 2006.28,-240.43 2017.18,-231.58"/>
<polygon fill="midnightblue" stroke="midnightblue" points="1977.41,-259.37 1971.86,-268.4 1981.83,-264.81 1977.41,-259.37"/>
</g>
<!-- Node4&#45;&gt;Node3 -->
<g id="edge6" class="edge">
<title>Node4&#45;&gt;Node3</title>
<path fill="none" stroke="midnightblue" d="M1951.34,-215.41C1593.24,-214.75 197.15,-209.35 115.5,-165 88.65,-150.42 72.06,-116.71 64.45,-97.53"/>
<polygon fill="midnightblue" stroke="midnightblue" points="1951.37,-218.91 1961.37,-215.43 1951.38,-211.91 1951.37,-218.91"/>
</g>
<!-- Node5 -->
<g id="node5" class="node">
<title>Node5</title>
<g id="a_node5"><a xlink:href="d__attention_8cpp.html" target="_top" xlink:title=" ">
<polygon fill="white" stroke="black" points="2137,-6 2137,-25 2244,-25 2244,-6 2137,-6"/>
<text text-anchor="middle" x="2190.5" y="-13" font-family="Helvetica,sans-Serif" font-size="10.00">src/d/d_attention.cpp</text>
</a>
</g>
</g>
<!-- Node4&#45;&gt;Node5 -->
<g id="edge4" class="edge">
<title>Node4&#45;&gt;Node5</title>
<path fill="none" stroke="midnightblue" d="M1951.17,-214.59C1613.15,-210.7 360.99,-194.35 332.5,-165 322.9,-155.11 323.07,-144.05 332.5,-134 395.96,-66.4 1838.88,-25.57 2136.93,-17.84"/>
<polygon fill="midnightblue" stroke="midnightblue" points="1951.33,-218.09 1961.37,-214.71 1951.41,-211.09 1951.33,-218.09"/>
</g>
<!-- Node6 -->
<g id="node6" class="node">
<title>Node6</title>
<g id="a_node6"><a xlink:href="d__camera_8cpp.html" target="_top" xlink:title=" ">
<polygon fill="white" stroke="black" points="4214.5,-6 4214.5,-25 4316.5,-25 4316.5,-6 4214.5,-6"/>
<text text-anchor="middle" x="4265.5" y="-13" font-family="Helvetica,sans-Serif" font-size="10.00">src/d/d_camera.cpp</text>
</a>
</g>
</g>
<!-- Node4&#45;&gt;Node6 -->
<g id="edge5" class="edge">
<title>Node4&#45;&gt;Node6</title>
<path fill="none" stroke="midnightblue" d="M2117.79,-215.31C2533.4,-214.16 4364.65,-206.73 4405.5,-165 4435.97,-133.88 4430.53,-102.64 4405.5,-67 4398.89,-57.59 4333.79,-36.85 4294.73,-25.09"/>
<polygon fill="midnightblue" stroke="midnightblue" points="2117.64,-211.81 2107.65,-215.34 2117.66,-218.81 2117.64,-211.81"/>
</g>
<!-- Node7 -->
<g id="node7" class="node">
<title>Node7</title>
<g id="a_node7"><a xlink:href="d__file__sel__info_8cpp.html" target="_top" xlink:title=" ">
<polygon fill="white" stroke="black" points="353,-134.5 353,-164.5 442,-164.5 442,-134.5 353,-134.5"/>
<text text-anchor="start" x="361" y="-152.5" font-family="Helvetica,sans-Serif" font-size="10.00">src/d/d_file/d_file</text>
<text text-anchor="middle" x="397.5" y="-141.5" font-family="Helvetica,sans-Serif" font-size="10.00">_sel_info.cpp</text>
</a>
</g>
</g>
<!-- Node4&#45;&gt;Node7 -->
<g id="edge7" class="edge">
<title>Node4&#45;&gt;Node7</title>
<path fill="none" stroke="midnightblue" d="M1951.31,-215.13C1669.07,-213.52 749.38,-205.22 456.5,-165 451.8,-164.35 446.93,-163.49 442.09,-162.5"/>
<polygon fill="midnightblue" stroke="midnightblue" points="1951.46,-218.63 1961.47,-215.19 1951.49,-211.63 1951.46,-218.63"/>
</g>
<!-- Node8 -->
<g id="node8" class="node">
<title>Node8</title>
<g id="a_node8"><a xlink:href="d__item_8cpp.html" target="_top" xlink:title=" ">
<polygon fill="white" stroke="black" points="137,-73 137,-92 258,-92 258,-73 137,-73"/>
<text text-anchor="middle" x="197.5" y="-80" font-family="Helvetica,sans-Serif" font-size="10.00">src/d/d_item/d_item.cpp</text>
</a>
</g>
</g>
<!-- Node4&#45;&gt;Node8 -->
<g id="edge8" class="edge">
<title>Node4&#45;&gt;Node8</title>
<path fill="none" stroke="midnightblue" d="M1951.12,-214.91C1611.86,-212.28 349.58,-200.14 272.5,-165 238.21,-149.36 212.46,-109.9 202.28,-92.26"/>
<polygon fill="midnightblue" stroke="midnightblue" points="1951.34,-218.41 1961.36,-214.99 1951.39,-211.41 1951.34,-218.41"/>
</g>
<!-- Node9 -->
<g id="node9" class="node">
<title>Node9</title>
<g id="a_node9"><a xlink:href="d__kankyo__rain_8cpp.html" target="_top" xlink:title=" ">
<polygon fill="white" stroke="black" points="499,-134.5 499,-164.5 626,-164.5 626,-134.5 499,-134.5"/>
<text text-anchor="start" x="507" y="-152.5" font-family="Helvetica,sans-Serif" font-size="10.00">src/d/d_kankyo/d_kankyo</text>
<text text-anchor="middle" x="562.5" y="-141.5" font-family="Helvetica,sans-Serif" font-size="10.00">_rain.cpp</text>
</a>
</g>
</g>
<!-- Node4&#45;&gt;Node9 -->
<g id="edge9" class="edge">
<title>Node4&#45;&gt;Node9</title>
<path fill="none" stroke="midnightblue" d="M1951.15,-214.27C1690.32,-210.16 891.77,-195.34 634.5,-165 631.71,-164.67 628.88,-164.29 626.01,-163.87"/>
<polygon fill="midnightblue" stroke="midnightblue" points="1951.26,-217.78 1961.32,-214.43 1951.37,-210.78 1951.26,-217.78"/>
</g>
<!-- Node10 -->
<g id="node10" class="node">
<title>Node10</title>
<g id="a_node10"><a xlink:href="d__kankyo__wether_8cpp.html" target="_top" xlink:title=" ">
<polygon fill="white" stroke="black" points="644,-134.5 644,-164.5 771,-164.5 771,-134.5 644,-134.5"/>
<text text-anchor="start" x="652" y="-152.5" font-family="Helvetica,sans-Serif" font-size="10.00">src/d/d_kankyo/d_kankyo</text>
<text text-anchor="middle" x="707.5" y="-141.5" font-family="Helvetica,sans-Serif" font-size="10.00">_wether.cpp</text>
</a>
</g>
</g>
<!-- Node4&#45;&gt;Node10 -->
<g id="edge10" class="edge">
<title>Node4&#45;&gt;Node10</title>
<path fill="none" stroke="midnightblue" d="M1951.17,-213.87C1708.88,-208.86 1007.35,-192.35 779.5,-165 776.71,-164.67 773.88,-164.28 771.01,-163.86"/>
<polygon fill="midnightblue" stroke="midnightblue" points="1951.26,-217.37 1961.33,-214.08 1951.4,-210.38 1951.26,-217.37"/>
</g>
<!-- Node11 -->
<g id="node11" class="node">
<title>Node11</title>
<g id="a_node11"><a xlink:href="d__kankyo_8cpp.html" target="_top" xlink:title=" ">
<polygon fill="white" stroke="black" points="789,-140 789,-159 890,-159 890,-140 789,-140"/>
<text text-anchor="middle" x="839.5" y="-147" font-family="Helvetica,sans-Serif" font-size="10.00">src/d/d_kankyo.cpp</text>
</a>
</g>
</g>
<!-- Node4&#45;&gt;Node11 -->
<g id="edge11" class="edge">
<title>Node4&#45;&gt;Node11</title>
<path fill="none" stroke="midnightblue" d="M1951.27,-213.92C1724.96,-209.3 1101.78,-194.21 898.5,-165 888.89,-163.62 878.57,-161.36 869.29,-159.03"/>
<polygon fill="midnightblue" stroke="midnightblue" points="1951.35,-217.43 1961.42,-214.13 1951.49,-210.43 1951.35,-217.43"/>
</g>
<!-- Node12 -->
<g id="node12" class="node">
<title>Node12</title>
<g id="a_node12"><a xlink:href="d__kantera__icon__meter_8cpp.html" target="_top" xlink:title=" ">
<polygon fill="white" stroke="black" points="908,-134.5 908,-164.5 1015,-164.5 1015,-134.5 908,-134.5"/>
<text text-anchor="start" x="916" y="-152.5" font-family="Helvetica,sans-Serif" font-size="10.00">src/d/d_kantera_icon</text>
<text text-anchor="middle" x="961.5" y="-141.5" font-family="Helvetica,sans-Serif" font-size="10.00">_meter.cpp</text>
</a>
</g>
</g>
<!-- Node4&#45;&gt;Node12 -->
<g id="edge12" class="edge">
<title>Node4&#45;&gt;Node12</title>
<path fill="none" stroke="midnightblue" d="M1951.36,-216.38C1777.95,-217.12 1365.39,-213.12 1023.5,-165 1020.76,-164.61 1017.97,-164.17 1015.16,-163.67"/>
<polygon fill="midnightblue" stroke="midnightblue" points="1951.45,-219.88 1961.44,-216.33 1951.42,-212.88 1951.45,-219.88"/>
</g>
<!-- Node13 -->
<g id="node13" class="node">
<title>Node13</title>
<g id="a_node13"><a xlink:href="d__kyeff_8cpp.html" target="_top" xlink:title=" ">
<polygon fill="white" stroke="black" points="1033,-140 1033,-159 1146,-159 1146,-140 1033,-140"/>
<text text-anchor="middle" x="1089.5" y="-147" font-family="Helvetica,sans-Serif" font-size="10.00">src/d/d_ky/d_kyeff.cpp</text>
</a>
</g>
</g>
<!-- Node4&#45;&gt;Node13 -->
<g id="edge13" class="edge">
<title>Node4&#45;&gt;Node13</title>
<path fill="none" stroke="midnightblue" d="M1951.35,-215.21C1794.68,-213.67 1445.37,-205.52 1154.5,-165 1144.19,-163.56 1133.1,-161.35 1123.05,-159.07"/>
<polygon fill="midnightblue" stroke="midnightblue" points="1951.35,-218.71 1961.38,-215.3 1951.42,-211.71 1951.35,-218.71"/>
</g>
<!-- Node14 -->
<g id="node14" class="node">
<title>Node14</title>
<g id="a_node14"><a xlink:href="d__meter__button_8cpp.html" target="_top" xlink:title=" ">
<polygon fill="white" stroke="black" points="1164,-134.5 1164,-164.5 1279,-164.5 1279,-134.5 1164,-134.5"/>
<text text-anchor="start" x="1172" y="-152.5" font-family="Helvetica,sans-Serif" font-size="10.00">src/d/d_meter/d_meter</text>
<text text-anchor="middle" x="1221.5" y="-141.5" font-family="Helvetica,sans-Serif" font-size="10.00">_button.cpp</text>
</a>
</g>
</g>
<!-- Node4&#45;&gt;Node14 -->
<g id="edge14" class="edge">
<title>Node4&#45;&gt;Node14</title>
<path fill="none" stroke="midnightblue" d="M1951.38,-213.91C1813.01,-210.37 1526.96,-199.2 1287.5,-165 1284.71,-164.6 1281.87,-164.15 1279,-163.66"/>
<polygon fill="midnightblue" stroke="midnightblue" points="1951.4,-217.41 1961.49,-214.16 1951.58,-210.42 1951.4,-217.41"/>
</g>
<!-- Node15 -->
<g id="node15" class="node">
<title>Node15</title>
<g id="a_node15"><a xlink:href="d__meter__haihai_8cpp.html" target="_top" xlink:title=" ">
<polygon fill="white" stroke="black" points="1297,-134.5 1297,-164.5 1412,-164.5 1412,-134.5 1297,-134.5"/>
<text text-anchor="start" x="1305" y="-152.5" font-family="Helvetica,sans-Serif" font-size="10.00">src/d/d_meter/d_meter</text>
<text text-anchor="middle" x="1354.5" y="-141.5" font-family="Helvetica,sans-Serif" font-size="10.00">_haihai.cpp</text>
</a>
</g>
</g>
<!-- Node4&#45;&gt;Node15 -->
<g id="edge15" class="edge">
<title>Node4&#45;&gt;Node15</title>
<path fill="none" stroke="midnightblue" d="M1951.27,-212.2C1832.83,-206.7 1609.09,-193.34 1420.5,-165 1417.72,-164.58 1414.87,-164.11 1412.01,-163.61"/>
<polygon fill="midnightblue" stroke="midnightblue" points="1951.21,-215.7 1961.36,-212.66 1951.53,-208.71 1951.21,-215.7"/>
</g>
<!-- Node16 -->
<g id="node16" class="node">
<title>Node16</title>
<g id="a_node16"><a xlink:href="d__meter__hakusha_8cpp.html" target="_top" xlink:title=" ">
<polygon fill="white" stroke="black" points="1430,-134.5 1430,-164.5 1545,-164.5 1545,-134.5 1430,-134.5"/>
<text text-anchor="start" x="1438" y="-152.5" font-family="Helvetica,sans-Serif" font-size="10.00">src/d/d_meter/d_meter</text>
<text text-anchor="middle" x="1487.5" y="-141.5" font-family="Helvetica,sans-Serif" font-size="10.00">_hakusha.cpp</text>
</a>
</g>
</g>
<!-- Node4&#45;&gt;Node16 -->
<g id="edge16" class="edge">
<title>Node4&#45;&gt;Node16</title>
<path fill="none" stroke="midnightblue" d="M1950.98,-209.58C1854.75,-202.09 1692.05,-187.42 1553.5,-165 1550.72,-164.55 1547.88,-164.06 1545.02,-163.53"/>
<polygon fill="midnightblue" stroke="midnightblue" points="1950.99,-213.09 1961.23,-210.37 1951.53,-206.11 1950.99,-213.09"/>
</g>
<!-- Node17 -->
<g id="node17" class="node">
<title>Node17</title>
<g id="a_node17"><a xlink:href="d__meter__map_8cpp.html" target="_top" xlink:title=" ">
<polygon fill="white" stroke="black" points="1563,-134.5 1563,-164.5 1678,-164.5 1678,-134.5 1563,-134.5"/>
<text text-anchor="start" x="1571" y="-152.5" font-family="Helvetica,sans-Serif" font-size="10.00">src/d/d_meter/d_meter</text>
<text text-anchor="middle" x="1620.5" y="-141.5" font-family="Helvetica,sans-Serif" font-size="10.00">_map.cpp</text>
</a>
</g>
</g>
<!-- Node4&#45;&gt;Node17 -->
<g id="edge17" class="edge">
<title>Node4&#45;&gt;Node17</title>
<path fill="none" stroke="midnightblue" d="M1951.08,-205.11C1880.42,-195.9 1776.52,-181.4 1686.5,-165 1683.73,-164.5 1680.9,-163.96 1678.04,-163.4"/>
<polygon fill="midnightblue" stroke="midnightblue" points="1950.9,-208.62 1961.26,-206.43 1951.8,-201.68 1950.9,-208.62"/>
</g>
<!-- Node18 -->
<g id="node18" class="node">
<title>Node18</title>
<g id="a_node18"><a xlink:href="d__meter__string_8cpp.html" target="_top" xlink:title=" ">
<polygon fill="white" stroke="black" points="1696,-134.5 1696,-164.5 1811,-164.5 1811,-134.5 1696,-134.5"/>
<text text-anchor="start" x="1704" y="-152.5" font-family="Helvetica,sans-Serif" font-size="10.00">src/d/d_meter/d_meter</text>
<text text-anchor="middle" x="1753.5" y="-141.5" font-family="Helvetica,sans-Serif" font-size="10.00">_string.cpp</text>
</a>
</g>
</g>
<!-- Node4&#45;&gt;Node18 -->
<g id="edge18" class="edge">
<title>Node4&#45;&gt;Node18</title>
<path fill="none" stroke="midnightblue" d="M1964.03,-199.2C1916.81,-188.28 1855.43,-174.08 1811.14,-163.83"/>
<polygon fill="midnightblue" stroke="midnightblue" points="1963.34,-202.63 1973.87,-201.48 1964.92,-195.81 1963.34,-202.63"/>
</g>
<!-- Node19 -->
<g id="node19" class="node">
<title>Node19</title>
<g id="a_node19"><a xlink:href="d__meter2__draw_8cpp.html" target="_top" xlink:title=" ">
<polygon fill="white" stroke="black" points="1829,-134.5 1829,-164.5 1954,-164.5 1954,-134.5 1829,-134.5"/>
<text text-anchor="start" x="1837" y="-152.5" font-family="Helvetica,sans-Serif" font-size="10.00">src/d/d_meter2/d_meter2</text>
<text text-anchor="middle" x="1891.5" y="-141.5" font-family="Helvetica,sans-Serif" font-size="10.00">_draw.cpp</text>
</a>
</g>
</g>
<!-- Node4&#45;&gt;Node19 -->
<g id="edge19" class="edge">
<title>Node4&#45;&gt;Node19</title>
<path fill="none" stroke="midnightblue" d="M1994.09,-197.13C1971.37,-186.8 1943.44,-174.11 1922.47,-164.58"/>
<polygon fill="midnightblue" stroke="midnightblue" points="1992.92,-200.44 2003.47,-201.4 1995.82,-194.07 1992.92,-200.44"/>
</g>
<!-- Node20 -->
<g id="node20" class="node">
<title>Node20</title>
<g id="a_node20"><a xlink:href="d__meter2__info_8cpp.html" target="_top" xlink:title=" ">
<polygon fill="white" stroke="black" points="1972,-134.5 1972,-164.5 2097,-164.5 2097,-134.5 1972,-134.5"/>
<text text-anchor="start" x="1980" y="-152.5" font-family="Helvetica,sans-Serif" font-size="10.00">src/d/d_meter2/d_meter2</text>
<text text-anchor="middle" x="2034.5" y="-141.5" font-family="Helvetica,sans-Serif" font-size="10.00">_info.cpp</text>
</a>
</g>
</g>
<!-- Node4&#45;&gt;Node20 -->
<g id="edge20" class="edge">
<title>Node4&#45;&gt;Node20</title>
<path fill="none" stroke="midnightblue" d="M2034.5,-191.11C2034.5,-182.15 2034.5,-172.32 2034.5,-164.58"/>
<polygon fill="midnightblue" stroke="midnightblue" points="2031,-191.4 2034.5,-201.4 2038,-191.4 2031,-191.4"/>
</g>
<!-- Node21 -->
<g id="node21" class="node">
<title>Node21</title>
<g id="a_node21"><a xlink:href="d__meter2_8cpp.html" target="_top" xlink:title=" ">
<polygon fill="white" stroke="black" points="2115.5,-140 2115.5,-159 2215.5,-159 2215.5,-140 2115.5,-140"/>
<text text-anchor="middle" x="2165.5" y="-147" font-family="Helvetica,sans-Serif" font-size="10.00">src/d/d_meter2.cpp</text>
</a>
</g>
</g>
<!-- Node4&#45;&gt;Node21 -->
<g id="edge21" class="edge">
<title>Node4&#45;&gt;Node21</title>
<path fill="none" stroke="midnightblue" d="M2072.18,-196.8C2097.3,-184.34 2129.11,-168.56 2148.36,-159.01"/>
<polygon fill="midnightblue" stroke="midnightblue" points="2070.33,-193.82 2062.93,-201.4 2073.44,-200.09 2070.33,-193.82"/>
</g>
<!-- Node22 -->
<g id="node22" class="node">
<title>Node22</title>
<g id="a_node22"><a xlink:href="d__save_8cpp.html" target="_top" xlink:title=" ">
<polygon fill="white" stroke="black" points="2234,-140 2234,-159 2359,-159 2359,-140 2234,-140"/>
<text text-anchor="middle" x="2296.5" y="-147" font-family="Helvetica,sans-Serif" font-size="10.00">src/d/d_save/d_save.cpp</text>
</a>
</g>
</g>
<!-- Node4&#45;&gt;Node22 -->
<g id="edge22" class="edge">
<title>Node4&#45;&gt;Node22</title>
<path fill="none" stroke="midnightblue" d="M2101.05,-198.99C2152.39,-186.25 2221.33,-169.15 2262.12,-159.03"/>
<polygon fill="midnightblue" stroke="midnightblue" points="2099.89,-195.67 2091.03,-201.48 2101.58,-202.47 2099.89,-195.67"/>
</g>
<!-- Node23 -->
<g id="node23" class="node">
<title>Node23</title>
<g id="a_node23"><a xlink:href="d__save__HIO_8cpp.html" target="_top" xlink:title=" ">
<polygon fill="white" stroke="black" points="2377,-134.5 2377,-164.5 2484,-164.5 2484,-134.5 2377,-134.5"/>
<text text-anchor="start" x="2385" y="-152.5" font-family="Helvetica,sans-Serif" font-size="10.00">src/d/d_save/d_save</text>
<text text-anchor="middle" x="2430.5" y="-141.5" font-family="Helvetica,sans-Serif" font-size="10.00">_HIO.cpp</text>
</a>
</g>
</g>
<!-- Node4&#45;&gt;Node23 -->
<g id="edge23" class="edge">
<title>Node4&#45;&gt;Node23</title>
<path fill="none" stroke="midnightblue" d="M2117.95,-204.76C2185.71,-195.59 2283.59,-181.32 2368.5,-165 2371.21,-164.48 2373.99,-163.92 2376.79,-163.34"/>
<polygon fill="midnightblue" stroke="midnightblue" points="2117.2,-201.33 2107.76,-206.13 2118.14,-208.27 2117.2,-201.33"/>
</g>
<!-- Node24 -->
<g id="node24" class="node">
<title>Node24</title>
<g id="a_node24"><a xlink:href="d__stage_8cpp.html" target="_top" xlink:title=" ">
<polygon fill="white" stroke="black" points="4334.5,-6 4334.5,-25 4428.5,-25 4428.5,-6 4334.5,-6"/>
<text text-anchor="middle" x="4381.5" y="-13" font-family="Helvetica,sans-Serif" font-size="10.00">src/d/d_stage.cpp</text>
</a>
</g>
</g>
<!-- Node4&#45;&gt;Node24 -->
<g id="edge24" class="edge">
<title>Node4&#45;&gt;Node24</title>
<path fill="none" stroke="midnightblue" d="M2117.91,-215.33C2536.22,-214.26 4387.23,-207.15 4428.5,-165 4435.61,-157.74 4441.32,-101.92 4427.5,-67 4420.52,-49.36 4404.29,-34.04 4393.11,-25.04"/>
<polygon fill="midnightblue" stroke="midnightblue" points="2117.7,-211.83 2107.71,-215.35 2117.72,-218.83 2117.7,-211.83"/>
</g>
<!-- Node25 -->
<g id="node25" class="node">
<title>Node25</title>
<g id="a_node25"><a xlink:href="f__op__actor__mng_8cpp.html" target="_top" xlink:title=" ">
<polygon fill="white" stroke="black" points="4447,-0.5 4447,-30.5 4554,-30.5 4554,-0.5 4447,-0.5"/>
<text text-anchor="start" x="4455" y="-18.5" font-family="Helvetica,sans-Serif" font-size="10.00">src/f/f_op/f_op_actor</text>
<text text-anchor="middle" x="4500.5" y="-7.5" font-family="Helvetica,sans-Serif" font-size="10.00">_mng.cpp</text>
</a>
</g>
</g>
<!-- Node4&#45;&gt;Node25 -->
<g id="edge25" class="edge">
<title>Node4&#45;&gt;Node25</title>
<path fill="none" stroke="midnightblue" d="M2117.9,-215.03C2537.22,-212.52 4397.08,-199.46 4445.5,-165 4490.07,-133.28 4498.58,-61.14 4500.16,-30.59"/>
<polygon fill="midnightblue" stroke="midnightblue" points="2117.65,-211.53 2107.67,-215.09 2117.69,-218.53 2117.65,-211.53"/>
</g>
<!-- Node26 -->
<g id="node26" class="node">
<title>Node26</title>
<g id="a_node26"><a xlink:href="f__pc__manager_8cpp.html" target="_top" xlink:title=" ">
<polygon fill="white" stroke="black" points="4088.5,-73 4088.5,-92 4228.5,-92 4228.5,-73 4088.5,-73"/>
<text text-anchor="middle" x="4158.5" y="-80" font-family="Helvetica,sans-Serif" font-size="10.00">src/f/f_pc/f_pc_manager.cpp</text>
</a>
</g>
</g>
<!-- Node4&#45;&gt;Node26 -->
<g id="edge26" class="edge">
<title>Node4&#45;&gt;Node26</title>
<path fill="none" stroke="midnightblue" d="M1951.06,-215.95C1636.92,-217.22 540.64,-217.84 489.5,-165 479.92,-155.1 479.82,-143.81 489.5,-134 505.92,-117.35 3582.3,-88.73 4088.41,-84.13"/>
<polygon fill="midnightblue" stroke="midnightblue" points="1951.48,-219.44 1961.46,-215.9 1951.45,-212.44 1951.48,-219.44"/>
</g>
<!-- Node27 -->
<g id="node27" class="node">
<title>Node27</title>
<g id="a_node27"><a xlink:href="m__Do__audio_8cpp.html" target="_top" xlink:title=" ">
<polygon fill="white" stroke="black" points="2502.5,-140 2502.5,-159 2636.5,-159 2636.5,-140 2502.5,-140"/>
<text text-anchor="middle" x="2569.5" y="-147" font-family="Helvetica,sans-Serif" font-size="10.00">src/m_Do/m_Do_audio.cpp</text>
</a>
</g>
</g>
<!-- Node4&#45;&gt;Node27 -->
<g id="edge27" class="edge">
<title>Node4&#45;&gt;Node27</title>
<path fill="none" stroke="midnightblue" d="M2117.97,-208.31C2210.15,-199.91 2362.83,-184.62 2493.5,-165 2504.66,-163.32 2516.68,-161.19 2527.79,-159.07"/>
<polygon fill="midnightblue" stroke="midnightblue" points="2117.51,-204.84 2107.87,-209.23 2118.14,-211.81 2117.51,-204.84"/>
</g>
<!-- Node28 -->
<g id="node28" class="node">
<title>Node28</title>
<g id="a_node28"><a xlink:href="m__Do__graphic_8cpp.html" target="_top" xlink:title=" ">
<polygon fill="white" stroke="black" points="2654.5,-140 2654.5,-159 2796.5,-159 2796.5,-140 2654.5,-140"/>
<text text-anchor="middle" x="2725.5" y="-147" font-family="Helvetica,sans-Serif" font-size="10.00">src/m_Do/m_Do_graphic.cpp</text>
</a>
</g>
</g>
<!-- Node4&#45;&gt;Node28 -->
<g id="edge28" class="edge">
<title>Node4&#45;&gt;Node28</title>
<path fill="none" stroke="midnightblue" d="M2117.67,-211.19C2235.49,-204.49 2457.6,-189.73 2645.5,-165 2657.68,-163.4 2670.81,-161.21 2682.86,-159.02"/>
<polygon fill="midnightblue" stroke="midnightblue" points="2117.42,-207.69 2107.63,-211.75 2117.81,-214.68 2117.42,-207.69"/>
</g>
<!-- Node29 -->
<g id="node29" class="node">
<title>Node29</title>
<g id="a_node29"><a xlink:href="m__Do__lib_8cpp.html" target="_top" xlink:title=" ">
<polygon fill="white" stroke="black" points="2814.5,-140 2814.5,-159 2934.5,-159 2934.5,-140 2814.5,-140"/>
<text text-anchor="middle" x="2874.5" y="-147" font-family="Helvetica,sans-Serif" font-size="10.00">src/m_Do/m_Do_lib.cpp</text>
</a>
</g>
</g>
<!-- Node4&#45;&gt;Node29 -->
<g id="edge29" class="edge">
<title>Node4&#45;&gt;Node29</title>
<path fill="none" stroke="midnightblue" d="M2118.02,-213.9C2259.92,-210.32 2556.89,-199.09 2805.5,-165 2816.29,-163.52 2827.92,-161.32 2838.5,-159.07"/>
<polygon fill="midnightblue" stroke="midnightblue" points="2117.57,-210.41 2107.66,-214.16 2117.75,-217.41 2117.57,-210.41"/>
</g>
<!-- Node30 -->
<g id="node30" class="node">
<title>Node30</title>
<g id="a_node30"><a xlink:href="m__Do__machine__exception_8cpp.html" target="_top" xlink:title=" ">
<polygon fill="white" stroke="black" points="2953,-134.5 2953,-164.5 3082,-164.5 3082,-134.5 2953,-134.5"/>
<text text-anchor="start" x="2961" y="-152.5" font-family="Helvetica,sans-Serif" font-size="10.00">src/m_Do/m_Do_machine</text>
<text text-anchor="middle" x="3017.5" y="-141.5" font-family="Helvetica,sans-Serif" font-size="10.00">_exception.cpp</text>
</a>
</g>
</g>
<!-- Node4&#45;&gt;Node30 -->
<g id="edge30" class="edge">
<title>Node4&#45;&gt;Node30</title>
<path fill="none" stroke="midnightblue" d="M2117.84,-214.71C2278.28,-212.34 2640.99,-202.86 2943.5,-165 2946.49,-164.63 2949.54,-164.2 2952.61,-163.74"/>
<polygon fill="midnightblue" stroke="midnightblue" points="2117.51,-211.21 2107.57,-214.85 2117.61,-218.21 2117.51,-211.21"/>
</g>
<!-- Node31 -->
<g id="node31" class="node">
<title>Node31</title>
<g id="a_node31"><a xlink:href="m__Do__main_8cpp.html" target="_top" xlink:title=" ">
<polygon fill="white" stroke="black" points="4572,-6 4572,-25 4703,-25 4703,-6 4572,-6"/>
<text text-anchor="middle" x="4637.5" y="-13" font-family="Helvetica,sans-Serif" font-size="10.00">src/m_Do/m_Do_main.cpp</text>
</a>
</g>
</g>
<!-- Node4&#45;&gt;Node31 -->
<g id="edge31" class="edge">
<title>Node4&#45;&gt;Node31</title>
<path fill="none" stroke="midnightblue" d="M2117.78,-215.4C2532.67,-214.71 4360.87,-209.17 4472.5,-165 4548.83,-134.8 4612.37,-52.05 4631.56,-25.11"/>
<polygon fill="midnightblue" stroke="midnightblue" points="2117.66,-211.9 2107.66,-215.42 2117.67,-218.9 2117.66,-211.9"/>
</g>
<!-- Node32 -->
<g id="node32" class="node">
<title>Node32</title>
<g id="a_node32"><a xlink:href="m__Do__MemCardRWmng_8cpp.html" target="_top" xlink:title=" ">
<polygon fill="white" stroke="black" points="3100,-140 3100,-159 3287,-159 3287,-140 3100,-140"/>
<text text-anchor="middle" x="3193.5" y="-147" font-family="Helvetica,sans-Serif" font-size="10.00">src/m_Do/m_Do_MemCardRWmng.cpp</text>
</a>
</g>
</g>
<!-- Node4&#45;&gt;Node32 -->
<g id="edge32" class="edge">
<title>Node4&#45;&gt;Node32</title>
<path fill="none" stroke="midnightblue" d="M2117.83,-214.16C2296.58,-210.72 2729.98,-199.26 3091.5,-165 3107.44,-163.49 3124.7,-161.26 3140.41,-159.01"/>
<polygon fill="midnightblue" stroke="midnightblue" points="2117.64,-210.67 2107.71,-214.36 2117.78,-217.67 2117.64,-210.67"/>
</g>
<!-- Node33 -->
<g id="node33" class="node">
<title>Node33</title>
<g id="a_node33"><a xlink:href="m__Do__ext_8cpp.html" target="_top" xlink:title=" ">
<polygon fill="white" stroke="black" points="3305,-140 3305,-159 3428,-159 3428,-140 3305,-140"/>
<text text-anchor="middle" x="3366.5" y="-147" font-family="Helvetica,sans-Serif" font-size="10.00">src/m_Do/m_Do_ext.cpp</text>
</a>
</g>
</g>
<!-- Node4&#45;&gt;Node33 -->
<g id="edge33" class="edge">
<title>Node4&#45;&gt;Node33</title>
<path fill="none" stroke="midnightblue" d="M2117.87,-213.95C2361.14,-209.15 3067.33,-193.13 3296.5,-165 3307.83,-163.61 3320.06,-161.35 3331.08,-159.02"/>
<polygon fill="midnightblue" stroke="midnightblue" points="2117.61,-210.46 2107.68,-214.15 2117.75,-217.46 2117.61,-210.46"/>
</g>
<!-- Node34 -->
<g id="node34" class="node">
<title>Node34</title>
<g id="a_node34"><a xlink:href="Z2EnvSeMgr_8cpp.html" target="_top" xlink:title=" ">
<polygon fill="white" stroke="black" points="3446,-140 3446,-159 3607,-159 3607,-140 3446,-140"/>
<text text-anchor="middle" x="3526.5" y="-147" font-family="Helvetica,sans-Serif" font-size="10.00">libs/Z2AudioLib/Z2EnvSeMgr.cpp</text>
</a>
</g>
</g>
<!-- Node4&#45;&gt;Node34 -->
<g id="edge34" class="edge">
<title>Node4&#45;&gt;Node34</title>
<path fill="none" stroke="midnightblue" d="M2117.82,-216.14C2335.41,-217.03 2938.5,-214.43 3437.5,-165 3451.68,-163.6 3467.02,-161.36 3480.91,-159.06"/>
<polygon fill="midnightblue" stroke="midnightblue" points="2117.76,-212.64 2107.75,-216.1 2117.73,-219.64 2117.76,-212.64"/>
</g>
<!-- Node35 -->
<g id="node35" class="node">
<title>Node35</title>
<g id="a_node35"><a xlink:href="Z2LinkMgr_8cpp.html" target="_top" xlink:title=" ">
<polygon fill="white" stroke="black" points="3625.5,-140 3625.5,-159 3777.5,-159 3777.5,-140 3625.5,-140"/>
<text text-anchor="middle" x="3701.5" y="-147" font-family="Helvetica,sans-Serif" font-size="10.00">libs/Z2AudioLib/Z2LinkMgr.cpp</text>
</a>
</g>
</g>
<!-- Node4&#45;&gt;Node35 -->
<g id="edge35" class="edge">
<title>Node4&#45;&gt;Node35</title>
<path fill="none" stroke="midnightblue" d="M2117.81,-214.35C2400.46,-210.21 3321.62,-194.72 3616.5,-165 3630.2,-163.62 3645.03,-161.36 3658.41,-159.03"/>
<polygon fill="midnightblue" stroke="midnightblue" points="2117.58,-210.85 2107.63,-214.5 2117.68,-217.85 2117.58,-210.85"/>
</g>
<!-- Node36 -->
<g id="node36" class="node">
<title>Node36</title>
<g id="a_node36"><a xlink:href="Z2SceneMgr_8cpp.html" target="_top" xlink:title=" ">
<polygon fill="white" stroke="black" points="3796,-140 3796,-159 3957,-159 3957,-140 3796,-140"/>
<text text-anchor="middle" x="3876.5" y="-147" font-family="Helvetica,sans-Serif" font-size="10.00">libs/Z2AudioLib/Z2SceneMgr.cpp</text>
</a>
</g>
</g>
<!-- Node4&#45;&gt;Node36 -->
<g id="edge36" class="edge">
<title>Node4&#45;&gt;Node36</title>
<path fill="none" stroke="midnightblue" d="M2117.95,-214.54C2420.12,-210.86 3456.63,-196.19 3786.5,-165 3801,-163.63 3816.7,-161.37 3830.86,-159.04"/>
<polygon fill="midnightblue" stroke="midnightblue" points="2117.9,-211.05 2107.94,-214.67 2117.98,-218.04 2117.9,-211.05"/>
</g>
<!-- Node37 -->
<g id="node37" class="node">
<title>Node37</title>
<g id="a_node37"><a xlink:href="Z2SoundMgr_8cpp.html" target="_top" xlink:title=" ">
<polygon fill="white" stroke="black" points="3975,-140 3975,-159 4136,-159 4136,-140 3975,-140"/>
<text text-anchor="middle" x="4055.5" y="-147" font-family="Helvetica,sans-Serif" font-size="10.00">libs/Z2AudioLib/Z2SoundMgr.cpp</text>
</a>
</g>
</g>
<!-- Node4&#45;&gt;Node37 -->
<g id="edge37" class="edge">
<title>Node4&#45;&gt;Node37</title>
<path fill="none" stroke="midnightblue" d="M2117.71,-214.83C2439.08,-211.99 3599.47,-199.53 3966.5,-165 3980.84,-163.65 3996.37,-161.4 4010.38,-159.07"/>
<polygon fill="midnightblue" stroke="midnightblue" points="2117.51,-211.33 2107.54,-214.92 2117.57,-218.33 2117.51,-211.33"/>
</g>
<!-- Node38 -->
<g id="node38" class="node">
<title>Node38</title>
<g id="a_node38"><a xlink:href="Z2StatusMgr_8cpp.html" target="_top" xlink:title=" ">
<polygon fill="white" stroke="black" points="4154,-134.5 4154,-164.5 4281,-164.5 4281,-134.5 4154,-134.5"/>
<text text-anchor="start" x="4162" y="-152.5" font-family="Helvetica,sans-Serif" font-size="10.00">libs/Z2AudioLib/Z2Status</text>
<text text-anchor="middle" x="4217.5" y="-141.5" font-family="Helvetica,sans-Serif" font-size="10.00">Mgr.cpp</text>
</a>
</g>
</g>
<!-- Node4&#45;&gt;Node38 -->
<g id="edge38" class="edge">
<title>Node4&#45;&gt;Node38</title>
<path fill="none" stroke="midnightblue" d="M2117.72,-215.45C2457.7,-214.96 3742.21,-210.08 4145.5,-165 4148.29,-164.69 4151.13,-164.32 4153.99,-163.92"/>
<polygon fill="midnightblue" stroke="midnightblue" points="2117.7,-211.95 2107.7,-215.47 2117.71,-218.95 2117.7,-211.95"/>
</g>
<!-- Node39 -->
<g id="node39" class="node">
<title>Node39</title>
<g id="a_node39"><a xlink:href="d__a__alink_8h.html" target="_top" xlink:title=" ">
<polygon fill="white" stroke="black" points="2131,-67.5 2131,-97.5 2250,-97.5 2250,-67.5 2131,-67.5"/>
<text text-anchor="start" x="2139" y="-85.5" font-family="Helvetica,sans-Serif" font-size="10.00">include/d/d_a/d_a_alink</text>
<text text-anchor="middle" x="2190.5" y="-74.5" font-family="Helvetica,sans-Serif" font-size="10.00">/d_a_alink.h</text>
</a>
</g>
</g>
<!-- Node4&#45;&gt;Node39 -->
<g id="edge39" class="edge">
<title>Node4&#45;&gt;Node39</title>
<path fill="none" stroke="midnightblue" d="M1951.14,-214.57C1614.48,-210.64 371.79,-194.15 343.5,-165 333.9,-155.11 333.89,-143.87 343.5,-134 375.4,-101.21 1817.91,-86.75 2130.97,-84"/>
<polygon fill="midnightblue" stroke="midnightblue" points="1951.27,-218.07 1961.31,-214.69 1951.35,-211.08 1951.27,-218.07"/>
</g>
<!-- Node41 -->
<g id="node41" class="node">
<title>Node41</title>
<g id="a_node41"><a xlink:href="d__item_8h.html" target="_top" xlink:title=" ">
<polygon fill="white" stroke="black" points="124.5,-134.5 124.5,-164.5 220.5,-164.5 220.5,-134.5 124.5,-134.5"/>
<text text-anchor="start" x="132.5" y="-152.5" font-family="Helvetica,sans-Serif" font-size="10.00">include/d/d_item/d</text>
<text text-anchor="middle" x="172.5" y="-141.5" font-family="Helvetica,sans-Serif" font-size="10.00">_item/d_item.h</text>
</a>
</g>
</g>
<!-- Node4&#45;&gt;Node41 -->
<g id="edge42" class="edge">
<title>Node4&#45;&gt;Node41</title>
<path fill="none" stroke="midnightblue" d="M1951.3,-215.39C1643.98,-214.64 573.04,-208.88 234.5,-165 230.01,-164.42 225.36,-163.65 220.73,-162.77"/>
<polygon fill="midnightblue" stroke="midnightblue" points="1951.47,-218.89 1961.48,-215.42 1951.49,-211.89 1951.47,-218.89"/>
</g>
<!-- Node42 -->
<g id="node42" class="node">
<title>Node42</title>
<g id="a_node42"><a xlink:href="f__pc__manager_8h.html" target="_top" xlink:title=" ">
<polygon fill="white" stroke="black" points="4299,-134.5 4299,-164.5 4396,-164.5 4396,-134.5 4299,-134.5"/>
<text text-anchor="start" x="4307" y="-152.5" font-family="Helvetica,sans-Serif" font-size="10.00">include/f/f_pc/f_pc</text>
<text text-anchor="middle" x="4347.5" y="-141.5" font-family="Helvetica,sans-Serif" font-size="10.00">_manager.h</text>
</a>
</g>
</g>
<!-- Node4&#45;&gt;Node42 -->
<g id="edge45" class="edge">
<title>Node4&#45;&gt;Node42</title>
<path fill="none" stroke="midnightblue" d="M2117.64,-214.76C2499.09,-211.19 4072.45,-194.78 4290.5,-165 4293.23,-164.63 4296.02,-164.17 4298.83,-163.65"/>
<polygon fill="midnightblue" stroke="midnightblue" points="2117.47,-211.26 2107.51,-214.85 2117.54,-218.26 2117.47,-211.26"/>
</g>
<!-- Node39&#45;&gt;Node5 -->
<g id="edge40" class="edge">
<title>Node39&#45;&gt;Node5</title>
<path fill="none" stroke="midnightblue" d="M2190.5,-57.25C2190.5,-46.02 2190.5,-33.38 2190.5,-25.19"/>
<polygon fill="midnightblue" stroke="midnightblue" points="2187,-57.4 2190.5,-67.4 2194,-57.4 2187,-57.4"/>
</g>
<!-- Node40 -->
<g id="node40" class="node">
<title>Node40</title>
<g id="a_node40"><a xlink:href="d__a__alink_8cpp.html" target="_top" xlink:title=" ">
<polygon fill="white" stroke="black" points="4077,-6 4077,-25 4196,-25 4196,-6 4077,-6"/>
<text text-anchor="middle" x="4136.5" y="-13" font-family="Helvetica,sans-Serif" font-size="10.00">src/d/d_a/d_a_alink.cpp</text>
</a>
</g>
</g>
<!-- Node39&#45;&gt;Node40 -->
<g id="edge41" class="edge">
<title>Node39&#45;&gt;Node40</title>
<path fill="none" stroke="midnightblue" d="M2260.15,-79.17C2566.44,-68.94 3791.12,-28.04 4076.74,-18.5"/>
<polygon fill="midnightblue" stroke="midnightblue" points="2259.95,-75.68 2250.07,-79.51 2260.18,-82.67 2259.95,-75.68"/>
</g>
<!-- Node41&#45;&gt;Node3 -->
<g id="edge43" class="edge">
<title>Node41&#45;&gt;Node3</title>
<path fill="none" stroke="midnightblue" d="M139.11,-129.3C121.43,-119.12 100.1,-106.85 83.97,-97.58"/>
<polygon fill="midnightblue" stroke="midnightblue" points="137.57,-132.44 147.98,-134.4 141.06,-126.38 137.57,-132.44"/>
</g>
<!-- Node41&#45;&gt;Node8 -->
<g id="edge44" class="edge">
<title>Node41&#45;&gt;Node8</title>
<path fill="none" stroke="midnightblue" d="M181.56,-124.94C185.95,-113.54 190.94,-100.55 194.16,-92.19"/>
<polygon fill="midnightblue" stroke="midnightblue" points="178.25,-123.81 177.92,-134.4 184.78,-126.32 178.25,-123.81"/>
</g>
<!-- Node42&#45;&gt;Node26 -->
<g id="edge47" class="edge">
<title>Node42&#45;&gt;Node26</title>
<path fill="none" stroke="midnightblue" d="M4296.93,-131.11C4260.16,-118.46 4211.98,-101.89 4183.24,-92.01"/>
<polygon fill="midnightblue" stroke="midnightblue" points="4295.9,-134.45 4306.49,-134.4 4298.17,-127.83 4295.9,-134.45"/>
</g>
<!-- Node42&#45;&gt;Node40 -->
<g id="edge46" class="edge">
<title>Node42&#45;&gt;Node40</title>
<path fill="none" stroke="midnightblue" d="M4322.2,-127.77C4300.46,-110.45 4267.9,-85.66 4237.5,-67 4210.27,-50.28 4176.77,-34.38 4156.02,-25.03"/>
<polygon fill="midnightblue" stroke="midnightblue" points="4320.27,-130.71 4330.26,-134.24 4324.65,-125.25 4320.27,-130.71"/>
</g>
<!-- Node43 -->
<g id="node43" class="node">
<title>Node43</title>
<g id="a_node43"><a xlink:href="f__op__actor__mng_8h.html" target="_top" xlink:title=" ">
<polygon fill="white" stroke="black" points="4299,-67.5 4299,-97.5 4396,-97.5 4396,-67.5 4299,-67.5"/>
<text text-anchor="start" x="4307" y="-85.5" font-family="Helvetica,sans-Serif" font-size="10.00">include/f/f_op/f_op</text>
<text text-anchor="middle" x="4347.5" y="-74.5" font-family="Helvetica,sans-Serif" font-size="10.00">_actor_mng.h</text>
</a>
</g>
</g>
<!-- Node42&#45;&gt;Node43 -->
<g id="edge48" class="edge">
<title>Node42&#45;&gt;Node43</title>
<path fill="none" stroke="midnightblue" d="M4347.5,-124.11C4347.5,-115.15 4347.5,-105.32 4347.5,-97.58"/>
<polygon fill="midnightblue" stroke="midnightblue" points="4344,-124.4 4347.5,-134.4 4351,-124.4 4344,-124.4"/>
</g>
<!-- Node43&#45;&gt;Node5 -->
<g id="edge49" class="edge">
<title>Node43&#45;&gt;Node5</title>
<path fill="none" stroke="midnightblue" d="M4288.79,-72.59C4272.24,-70.39 4254.2,-68.3 4237.5,-67 3833.47,-35.48 2525.41,-20.05 2244.11,-17.05"/>
<polygon fill="midnightblue" stroke="midnightblue" points="4288.5,-76.08 4298.88,-73.96 4289.44,-69.14 4288.5,-76.08"/>
</g>
<!-- Node43&#45;&gt;Node6 -->
<g id="edge50" class="edge">
<title>Node43&#45;&gt;Node6</title>
<path fill="none" stroke="midnightblue" d="M4321.65,-61.01C4306.43,-48.94 4287.96,-34.3 4276.47,-25.19"/>
<polygon fill="midnightblue" stroke="midnightblue" points="4319.7,-63.93 4329.71,-67.4 4324.04,-58.44 4319.7,-63.93"/>
</g>
<!-- Node43&#45;&gt;Node24 -->
<g id="edge51" class="edge">
<title>Node43&#45;&gt;Node24</title>
<path fill="none" stroke="midnightblue" d="M4359.64,-58.29C4365.65,-46.8 4372.54,-33.63 4376.95,-25.19"/>
<polygon fill="midnightblue" stroke="midnightblue" points="4356.41,-56.91 4354.88,-67.4 4362.61,-60.16 4356.41,-56.91"/>
</g>
<!-- Node43&#45;&gt;Node25 -->
<g id="edge53" class="edge">
<title>Node43&#45;&gt;Node25</title>
<path fill="none" stroke="midnightblue" d="M4390.09,-63.41C4414.52,-53.03 4444.72,-40.2 4467.37,-30.58"/>
<polygon fill="midnightblue" stroke="midnightblue" points="4388.53,-60.26 4380.7,-67.4 4391.27,-66.71 4388.53,-60.26"/>
</g>
<!-- Node43&#45;&gt;Node31 -->
<g id="edge54" class="edge">
<title>Node43&#45;&gt;Node31</title>
<path fill="none" stroke="midnightblue" d="M4406.1,-68.36C4463.79,-55.44 4550.18,-36.07 4599.46,-25.03"/>
<polygon fill="midnightblue" stroke="midnightblue" points="4405.03,-65.02 4396.04,-70.62 4406.56,-71.85 4405.03,-65.02"/>
</g>
<!-- Node43&#45;&gt;Node40 -->
<g id="edge52" class="edge">
<title>Node43&#45;&gt;Node40</title>
<path fill="none" stroke="midnightblue" d="M4292.35,-64.51C4251.17,-51.83 4196.62,-35.02 4164.19,-25.03"/>
<polygon fill="midnightblue" stroke="midnightblue" points="4291.39,-67.88 4301.98,-67.48 4293.45,-61.19 4291.39,-67.88"/>
</g>
</g>
</svg>
        <g id="navigator" transform="translate(0 0)" fill="#404254">
                <rect fill="#f2f5e9" fill-opacity="0.5" stroke="#606060" stroke-width=".5" x="0" y="0" width="60" height="60"/>
                <use id="zoomplus" xlink:href="#zoomPlus" x="17" y="9" onmousedown="handleZoom(evt,'in')"/>
                <use id="zoomminus" xlink:href="#zoomMin" x="42" y="9" onmousedown="handleZoom(evt,'out')"/>
                <use id="reset" xlink:href="#resetDef" x="30" y="36" onmousedown="handleReset()"/>
                <g id="arrowUp" xlink:href="#dirArrow" transform="translate(30 24)" onmousedown="handlePan(0,-1)">
                  <use xlink:href="#rim" fill="#404040">
                        <set attributeName="fill" to="#808080" begin="arrowUp.mouseover" end="arrowUp.mouseout"/>
                  </use>
                  <path fill="none" stroke="white" stroke-width="1.5" d="M0,-3.0v7 M-2.5,-0.5L0,-3.0L2.5,-0.5"/>
                </g>
                <g id="arrowRight" xlink:href="#dirArrow" transform="rotate(90) translate(36 -43)" onmousedown="handlePan(1,0)">
                  <use xlink:href="#rim" fill="#404040">
                        <set attributeName="fill" to="#808080" begin="arrowRight.mouseover" end="arrowRight.mouseout"/>
                  </use>
                  <path fill="none" stroke="white" stroke-width="1.5" d="M0,-3.0v7 M-2.5,-0.5L0,-3.0L2.5,-0.5"/>
                </g>
                <g id="arrowDown" xlink:href="#dirArrow" transform="rotate(180) translate(-30 -48)" onmousedown="handlePan(0,1)">
                  <use xlink:href="#rim" fill="#404040">
                        <set attributeName="fill" to="#808080" begin="arrowDown.mouseover" end="arrowDown.mouseout"/>
                  </use>
                  <path fill="none" stroke="white" stroke-width="1.5" d="M0,-3.0v7 M-2.5,-0.5L0,-3.0L2.5,-0.5"/>
                </g>
                <g id="arrowLeft" xlink:href="#dirArrow" transform="rotate(270) translate(-36 17)" onmousedown="handlePan(-1,0)">
                  <use xlink:href="#rim" fill="#404040">
                        <set attributeName="fill" to="#808080" begin="arrowLeft.mouseover" end="arrowLeft.mouseout"/>
                  </use>
                  <path fill="none" stroke="white" stroke-width="1.5" d="M0,-3.0v7 M-2.5,-0.5L0,-3.0L2.5,-0.5"/>
                </g>
        </g>
        <svg viewBox="0 0 15 15" width="100%" height="30px" preserveAspectRatio="xMaxYMin meet">
         <g id="arrow_out" transform="scale(0.3 0.3)">
          <a xlink:href="d__bg__w__base_8h__dep__incl_org.svg" target="_base">
           <rect id="button" ry="5" rx="5" y="6" x="6" height="38" width="38"
                fill="#f2f5e9" fill-opacity="0.5" stroke="#606060" stroke-width="1.0"/>
           <path id="arrow"
             d="M 11.500037,31.436501 C 11.940474,20.09759 22.043105,11.32322 32.158766,21.979434 L 37.068811,17.246167 C 37.068811,17.246167 37.088388,32 37.088388,32 L 22.160133,31.978069 C 22.160133,31.978069 26.997745,27.140456 26.997745,27.140456 C 18.528582,18.264221 13.291696,25.230495 11.500037,31.436501 z"
             style="fill:#404040;"/>
          </a>
         </g>
        </svg>
</svg>
