<?xml version="1.0" encoding="UTF-8" standalone="no"?>
<!DOCTYPE svg PUBLIC "-//W3C//DTD SVG 1.1//EN"
 "http://www.w3.org/Graphics/SVG/1.1/DTD/svg11.dtd">
<!-- Generated by graphviz version 2.46.0 (20210122.1329)
 -->
<!-- Title: include/d/d_bg/d_bg_w/d_bg_w_base/d_bg_w_base.h Pages: 1 -->
<svg width="4703pt" height="318pt"
 viewBox="0.00 0.00 4702.50 318.00" xmlns="http://www.w3.org/2000/svg" xmlns:xlink="http://www.w3.org/1999/xlink">
<g id="graph0" class="graph" transform="scale(1 1) rotate(0) translate(4 314)">
<title>include/d/d_bg/d_bg_w/d_bg_w_base/d_bg_w_base.h</title>
<polygon fill="white" stroke="transparent" points="-4,4 -4,-314 4698.5,-314 4698.5,4 -4,4"/>
<!-- Node1 -->
<g id="node1" class="node">
<title>Node1</title>
<g id="a_node1"><a xlink:title=" ">
<polygon fill="#bfbfbf" stroke="black" points="1969.5,-268.5 1969.5,-309.5 2085.5,-309.5 2085.5,-268.5 1969.5,-268.5"/>
<text text-anchor="start" x="1977.5" y="-297.5" font-family="Helvetica,sans-Serif" font-size="10.00">include/d/d_bg/d_bg</text>
<text text-anchor="start" x="1977.5" y="-286.5" font-family="Helvetica,sans-Serif" font-size="10.00">_w/d_bg_w_base/d_bg</text>
<text text-anchor="middle" x="2027.5" y="-275.5" font-family="Helvetica,sans-Serif" font-size="10.00">_w_base.h</text>
</a>
</g>
</g>
<!-- Node2 -->
<g id="node2" class="node">
<title>Node2</title>
<g id="a_node2"><a xlink:href="d__bg__s_8h.html" target="_top" xlink:title=" ">
<polygon fill="white" stroke="black" points="1935.5,-201.5 1935.5,-231.5 2039.5,-231.5 2039.5,-201.5 1935.5,-201.5"/>
<text text-anchor="start" x="1943.5" y="-219.5" font-family="Helvetica,sans-Serif" font-size="10.00">include/d/d_bg/d_bg</text>
<text text-anchor="middle" x="1987.5" y="-208.5" font-family="Helvetica,sans-Serif" font-size="10.00">_s/d_bg_s.h</text>
</a>
</g>
</g>
<!-- Node1&#45;&gt;Node2 -->
<g id="edge1" class="edge">
<title>Node1&#45;&gt;Node2</title>
<path fill="none" stroke="midnightblue" d="M2011.36,-259.55C2005.97,-250.05 2000.19,-239.86 1995.67,-231.89"/>
<polygon fill="midnightblue" stroke="midnightblue" points="2008.38,-261.39 2016.36,-268.36 2014.47,-257.94 2008.38,-261.39"/>
</g>
<!-- Node4 -->
<g id="node4" class="node">
<title>Node4</title>
<g id="a_node4"><a xlink:href="d__com__inf__game_8h.html" target="_top" xlink:title=" ">
<polygon fill="white" stroke="black" points="1994.5,-134.5 1994.5,-164.5 2140.5,-164.5 2140.5,-134.5 1994.5,-134.5"/>
<text text-anchor="start" x="2002.5" y="-152.5" font-family="Helvetica,sans-Serif" font-size="10.00">include/d/d_com/d_com</text>
<text text-anchor="middle" x="2067.5" y="-141.5" font-family="Helvetica,sans-Serif" font-size="10.00">_inf_game/d_com_inf_game.h</text>
</a>
</g>
</g>
<!-- Node1&#45;&gt;Node4 -->
<g id="edge47" class="edge">
<title>Node1&#45;&gt;Node4</title>
<path fill="none" stroke="midnightblue" d="M2039.3,-258.72C2042.51,-250.18 2045.84,-240.79 2048.5,-232 2055.53,-208.78 2061.47,-181.17 2064.76,-164.78"/>
<polygon fill="midnightblue" stroke="midnightblue" points="2035.95,-257.67 2035.62,-268.26 2042.48,-260.19 2035.95,-257.67"/>
</g>
<!-- Node3 -->
<g id="node3" class="node">
<title>Node3</title>
<g id="a_node3"><a xlink:href="d__com__inf__game_8cpp.html" target="_top" xlink:title=" ">
<polygon fill="white" stroke="black" points="0,-0.5 0,-30.5 119,-30.5 119,-0.5 0,-0.5"/>
<text text-anchor="start" x="8" y="-18.5" font-family="Helvetica,sans-Serif" font-size="10.00">src/d/d_com/d_com_inf</text>
<text text-anchor="middle" x="59.5" y="-7.5" font-family="Helvetica,sans-Serif" font-size="10.00">_game.cpp</text>
</a>
</g>
</g>
<!-- Node2&#45;&gt;Node3 -->
<g id="edge2" class="edge">
<title>Node2&#45;&gt;Node3</title>
<path fill="none" stroke="midnightblue" d="M1925.21,-214.08C1601.45,-206.41 123.03,-167.64 57.5,-98 40.62,-80.06 47.61,-48.86 53.82,-30.71"/>
<polygon fill="midnightblue" stroke="midnightblue" points="1925.27,-217.58 1935.35,-214.32 1925.43,-210.59 1925.27,-217.58"/>
</g>
<!-- Node2&#45;&gt;Node4 -->
<g id="edge3" class="edge">
<title>Node2&#45;&gt;Node4</title>
<path fill="none" stroke="midnightblue" d="M2012.87,-194.88C2025.03,-185.01 2039.28,-173.43 2050.18,-164.58"/>
<polygon fill="midnightblue" stroke="midnightblue" points="2010.41,-192.37 2004.86,-201.4 2014.83,-197.81 2010.41,-192.37"/>
</g>
<!-- Node4&#45;&gt;Node3 -->
<g id="edge6" class="edge">
<title>Node4&#45;&gt;Node3</title>
<path fill="none" stroke="midnightblue" d="M1984.24,-147.77C1611.89,-144.31 116.01,-128.55 78.5,-98 58.67,-81.85 57.13,-49.39 58.1,-30.67"/>
<polygon fill="midnightblue" stroke="midnightblue" points="1984.37,-151.27 1994.4,-147.86 1984.43,-144.27 1984.37,-151.27"/>
</g>
<!-- Node5 -->
<g id="node5" class="node">
<title>Node5</title>
<g id="a_node5"><a xlink:href="d__attention_8cpp.html" target="_top" xlink:title=" ">
<polygon fill="white" stroke="black" points="4149,-6 4149,-25 4256,-25 4256,-6 4149,-6"/>
<text text-anchor="middle" x="4202.5" y="-13" font-family="Helvetica,sans-Serif" font-size="10.00">src/d/d_attention.cpp</text>
</a>
</g>
</g>
<!-- Node4&#45;&gt;Node5 -->
<g id="edge4" class="edge">
<title>Node4&#45;&gt;Node5</title>
<path fill="none" stroke="midnightblue" d="M2150.68,-148.13C2543.16,-146.2 4192.52,-135.85 4229.5,-98 4249.5,-77.53 4224.31,-41.92 4210.47,-25.4"/>
<polygon fill="midnightblue" stroke="midnightblue" points="2150.52,-144.63 2140.53,-148.18 2150.55,-151.63 2150.52,-144.63"/>
</g>
<!-- Node6 -->
<g id="node6" class="node">
<title>Node6</title>
<g id="a_node6"><a xlink:href="d__camera_8cpp.html" target="_top" xlink:title=" ">
<polygon fill="white" stroke="black" points="201.5,-73 201.5,-92 303.5,-92 303.5,-73 201.5,-73"/>
<text text-anchor="middle" x="252.5" y="-80" font-family="Helvetica,sans-Serif" font-size="10.00">src/d/d_camera.cpp</text>
</a>
</g>
</g>
<!-- Node4&#45;&gt;Node6 -->
<g id="edge5" class="edge">
<title>Node4&#45;&gt;Node6</title>
<path fill="none" stroke="midnightblue" d="M1984.27,-148.45C1681.72,-147.89 640.77,-142.68 311.5,-98 301.78,-96.68 291.34,-94.41 281.98,-92.05"/>
<polygon fill="midnightblue" stroke="midnightblue" points="1984.29,-151.95 1994.29,-148.46 1984.3,-144.95 1984.29,-151.95"/>
</g>
<!-- Node7 -->
<g id="node7" class="node">
<title>Node7</title>
<g id="a_node7"><a xlink:href="d__file__sel__info_8cpp.html" target="_top" xlink:title=" ">
<polygon fill="white" stroke="black" points="321,-67.5 321,-97.5 410,-97.5 410,-67.5 321,-67.5"/>
<text text-anchor="start" x="329" y="-85.5" font-family="Helvetica,sans-Serif" font-size="10.00">src/d/d_file/d_file</text>
<text text-anchor="middle" x="365.5" y="-74.5" font-family="Helvetica,sans-Serif" font-size="10.00">_sel_info.cpp</text>
</a>
</g>
</g>
<!-- Node4&#45;&gt;Node7 -->
<g id="edge7" class="edge">
<title>Node4&#45;&gt;Node7</title>
<path fill="none" stroke="midnightblue" d="M1984.31,-148.25C1694.56,-147.03 730.66,-139.85 424.5,-98 419.8,-97.36 414.92,-96.49 410.09,-95.5"/>
<polygon fill="midnightblue" stroke="midnightblue" points="1984.32,-151.75 1994.33,-148.29 1984.35,-144.75 1984.32,-151.75"/>
</g>
<!-- Node8 -->
<g id="node8" class="node">
<title>Node8</title>
<g id="a_node8"><a xlink:href="d__item_8cpp.html" target="_top" xlink:title=" ">
<polygon fill="white" stroke="black" points="258,-6 258,-25 379,-25 379,-6 258,-6"/>
<text text-anchor="middle" x="318.5" y="-13" font-family="Helvetica,sans-Serif" font-size="10.00">src/d/d_item/d_item.cpp</text>
</a>
</g>
</g>
<!-- Node4&#45;&gt;Node8 -->
<g id="edge8" class="edge">
<title>Node4&#45;&gt;Node8</title>
<path fill="none" stroke="midnightblue" d="M1984.08,-148.95C1674.38,-150.2 601.05,-150.64 457.5,-98 436.71,-90.38 437.15,-78.94 418.5,-67 391.97,-50.01 358.97,-34.3 338.31,-25.05"/>
<polygon fill="midnightblue" stroke="midnightblue" points="1984.35,-152.45 1994.33,-148.91 1984.32,-145.45 1984.35,-152.45"/>
</g>
<!-- Node9 -->
<g id="node9" class="node">
<title>Node9</title>
<g id="a_node9"><a xlink:href="d__kankyo__rain_8cpp.html" target="_top" xlink:title=" ">
<polygon fill="white" stroke="black" points="467,-67.5 467,-97.5 594,-97.5 594,-67.5 467,-67.5"/>
<text text-anchor="start" x="475" y="-85.5" font-family="Helvetica,sans-Serif" font-size="10.00">src/d/d_kankyo/d_kankyo</text>
<text text-anchor="middle" x="530.5" y="-74.5" font-family="Helvetica,sans-Serif" font-size="10.00">_rain.cpp</text>
</a>
</g>
</g>
<!-- Node4&#45;&gt;Node9 -->
<g id="edge9" class="edge">
<title>Node4&#45;&gt;Node9</title>
<path fill="none" stroke="midnightblue" d="M1983.97,-147.43C1714.96,-143.68 872.95,-129.68 602.5,-98 599.71,-97.67 596.87,-97.3 594.01,-96.88"/>
<polygon fill="midnightblue" stroke="midnightblue" points="1984.02,-150.93 1994.06,-147.57 1984.11,-143.93 1984.02,-150.93"/>
</g>
<!-- Node10 -->
<g id="node10" class="node">
<title>Node10</title>
<g id="a_node10"><a xlink:href="d__kankyo__wether_8cpp.html" target="_top" xlink:title=" ">
<polygon fill="white" stroke="black" points="612,-67.5 612,-97.5 739,-97.5 739,-67.5 612,-67.5"/>
<text text-anchor="start" x="620" y="-85.5" font-family="Helvetica,sans-Serif" font-size="10.00">src/d/d_kankyo/d_kankyo</text>
<text text-anchor="middle" x="675.5" y="-74.5" font-family="Helvetica,sans-Serif" font-size="10.00">_wether.cpp</text>
</a>
</g>
</g>
<!-- Node4&#45;&gt;Node10 -->
<g id="edge10" class="edge">
<title>Node4&#45;&gt;Node10</title>
<path fill="none" stroke="midnightblue" d="M1984.22,-147.06C1733.54,-142.46 988.54,-126.69 747.5,-98 744.71,-97.67 741.88,-97.29 739.01,-96.87"/>
<polygon fill="midnightblue" stroke="midnightblue" points="1984.29,-150.57 1994.36,-147.25 1984.42,-143.57 1984.29,-150.57"/>
</g>
<!-- Node11 -->
<g id="node11" class="node">
<title>Node11</title>
<g id="a_node11"><a xlink:href="d__kankyo_8cpp.html" target="_top" xlink:title=" ">
<polygon fill="white" stroke="black" points="757,-73 757,-92 858,-92 858,-73 757,-73"/>
<text text-anchor="middle" x="807.5" y="-80" font-family="Helvetica,sans-Serif" font-size="10.00">src/d/d_kankyo.cpp</text>
</a>
</g>
</g>
<!-- Node4&#45;&gt;Node11 -->
<g id="edge11" class="edge">
<title>Node4&#45;&gt;Node11</title>
<path fill="none" stroke="midnightblue" d="M1984.06,-147.15C1748.73,-143.01 1082.8,-128.81 866.5,-98 856.89,-96.63 846.57,-94.37 837.29,-92.04"/>
<polygon fill="midnightblue" stroke="midnightblue" points="1984.21,-150.65 1994.27,-147.33 1984.33,-143.66 1984.21,-150.65"/>
</g>
<!-- Node12 -->
<g id="node12" class="node">
<title>Node12</title>
<g id="a_node12"><a xlink:href="d__kantera__icon__meter_8cpp.html" target="_top" xlink:title=" ">
<polygon fill="white" stroke="black" points="876,-67.5 876,-97.5 983,-97.5 983,-67.5 876,-67.5"/>
<text text-anchor="start" x="884" y="-85.5" font-family="Helvetica,sans-Serif" font-size="10.00">src/d/d_kantera_icon</text>
<text text-anchor="middle" x="929.5" y="-74.5" font-family="Helvetica,sans-Serif" font-size="10.00">_meter.cpp</text>
</a>
</g>
</g>
<!-- Node4&#45;&gt;Node12 -->
<g id="edge12" class="edge">
<title>Node4&#45;&gt;Node12</title>
<path fill="none" stroke="midnightblue" d="M1984.12,-146.56C1766.12,-141.17 1182.83,-124.64 991.5,-98 988.76,-97.62 985.97,-97.17 983.16,-96.68"/>
<polygon fill="midnightblue" stroke="midnightblue" points="1984.14,-150.06 1994.23,-146.81 1984.31,-143.06 1984.14,-150.06"/>
</g>
<!-- Node13 -->
<g id="node13" class="node">
<title>Node13</title>
<g id="a_node13"><a xlink:href="d__meter__button_8cpp.html" target="_top" xlink:title=" ">
<polygon fill="white" stroke="black" points="1001,-67.5 1001,-97.5 1116,-97.5 1116,-67.5 1001,-67.5"/>
<text text-anchor="start" x="1009" y="-85.5" font-family="Helvetica,sans-Serif" font-size="10.00">src/d/d_meter/d_meter</text>
<text text-anchor="middle" x="1058.5" y="-74.5" font-family="Helvetica,sans-Serif" font-size="10.00">_button.cpp</text>
</a>
</g>
</g>
<!-- Node4&#45;&gt;Node13 -->
<g id="edge13" class="edge">
<title>Node4&#45;&gt;Node13</title>
<path fill="none" stroke="midnightblue" d="M1984.29,-148.58C1819.43,-147.73 1439.97,-140.81 1124.5,-98 1121.83,-97.64 1119.1,-97.22 1116.35,-96.77"/>
<polygon fill="midnightblue" stroke="midnightblue" points="1984.34,-152.08 1994.36,-148.62 1984.37,-145.08 1984.34,-152.08"/>
</g>
<!-- Node14 -->
<g id="node14" class="node">
<title>Node14</title>
<g id="a_node14"><a xlink:href="d__meter__haihai_8cpp.html" target="_top" xlink:title=" ">
<polygon fill="white" stroke="black" points="1134,-67.5 1134,-97.5 1249,-97.5 1249,-67.5 1134,-67.5"/>
<text text-anchor="start" x="1142" y="-85.5" font-family="Helvetica,sans-Serif" font-size="10.00">src/d/d_meter/d_meter</text>
<text text-anchor="middle" x="1191.5" y="-74.5" font-family="Helvetica,sans-Serif" font-size="10.00">_haihai.cpp</text>
</a>
</g>
</g>
<!-- Node4&#45;&gt;Node14 -->
<g id="edge14" class="edge">
<title>Node4&#45;&gt;Node14</title>
<path fill="none" stroke="midnightblue" d="M1983.92,-147.52C1836.51,-144.86 1521,-134.93 1257.5,-98 1254.83,-97.63 1252.1,-97.2 1249.36,-96.74"/>
<polygon fill="midnightblue" stroke="midnightblue" points="1984.18,-151.03 1994.24,-147.7 1984.3,-144.03 1984.18,-151.03"/>
</g>
<!-- Node15 -->
<g id="node15" class="node">
<title>Node15</title>
<g id="a_node15"><a xlink:href="d__meter__hakusha_8cpp.html" target="_top" xlink:title=" ">
<polygon fill="white" stroke="black" points="1267,-67.5 1267,-97.5 1382,-97.5 1382,-67.5 1267,-67.5"/>
<text text-anchor="start" x="1275" y="-85.5" font-family="Helvetica,sans-Serif" font-size="10.00">src/d/d_meter/d_meter</text>
<text text-anchor="middle" x="1324.5" y="-74.5" font-family="Helvetica,sans-Serif" font-size="10.00">_hakusha.cpp</text>
</a>
</g>
</g>
<!-- Node4&#45;&gt;Node15 -->
<g id="edge15" class="edge">
<title>Node4&#45;&gt;Node15</title>
<path fill="none" stroke="midnightblue" d="M1984.36,-146.09C1856.25,-141.53 1603.11,-129.12 1390.5,-98 1387.71,-97.59 1384.87,-97.13 1382,-96.64"/>
<polygon fill="midnightblue" stroke="midnightblue" points="1984.38,-149.6 1994.49,-146.45 1984.62,-142.6 1984.38,-149.6"/>
</g>
<!-- Node16 -->
<g id="node16" class="node">
<title>Node16</title>
<g id="a_node16"><a xlink:href="d__meter__map_8cpp.html" target="_top" xlink:title=" ">
<polygon fill="white" stroke="black" points="1400,-67.5 1400,-97.5 1515,-97.5 1515,-67.5 1400,-67.5"/>
<text text-anchor="start" x="1408" y="-85.5" font-family="Helvetica,sans-Serif" font-size="10.00">src/d/d_meter/d_meter</text>
<text text-anchor="middle" x="1457.5" y="-74.5" font-family="Helvetica,sans-Serif" font-size="10.00">_map.cpp</text>
</a>
</g>
</g>
<!-- Node4&#45;&gt;Node16 -->
<g id="edge16" class="edge">
<title>Node4&#45;&gt;Node16</title>
<path fill="none" stroke="midnightblue" d="M1984.01,-143.97C1876.9,-137.41 1685.57,-123.23 1523.5,-98 1520.72,-97.57 1517.88,-97.09 1515.01,-96.57"/>
<polygon fill="midnightblue" stroke="midnightblue" points="1983.92,-147.47 1994.11,-144.58 1984.34,-140.48 1983.92,-147.47"/>
</g>
<!-- Node17 -->
<g id="node17" class="node">
<title>Node17</title>
<g id="a_node17"><a xlink:href="d__meter__string_8cpp.html" target="_top" xlink:title=" ">
<polygon fill="white" stroke="black" points="1533,-67.5 1533,-97.5 1648,-97.5 1648,-67.5 1533,-67.5"/>
<text text-anchor="start" x="1541" y="-85.5" font-family="Helvetica,sans-Serif" font-size="10.00">src/d/d_meter/d_meter</text>
<text text-anchor="middle" x="1590.5" y="-74.5" font-family="Helvetica,sans-Serif" font-size="10.00">_string.cpp</text>
</a>
</g>
</g>
<!-- Node4&#45;&gt;Node17 -->
<g id="edge17" class="edge">
<title>Node4&#45;&gt;Node17</title>
<path fill="none" stroke="midnightblue" d="M1984.28,-140.59C1901.01,-132.14 1769.42,-117.3 1656.5,-98 1653.72,-97.53 1650.89,-97.01 1648.03,-96.47"/>
<polygon fill="midnightblue" stroke="midnightblue" points="1984.14,-144.1 1994.44,-141.62 1984.84,-137.13 1984.14,-144.1"/>
</g>
<!-- Node18 -->
<g id="node18" class="node">
<title>Node18</title>
<g id="a_node18"><a xlink:href="d__meter2__draw_8cpp.html" target="_top" xlink:title=" ">
<polygon fill="white" stroke="black" points="1666,-67.5 1666,-97.5 1791,-97.5 1791,-67.5 1666,-67.5"/>
<text text-anchor="start" x="1674" y="-85.5" font-family="Helvetica,sans-Serif" font-size="10.00">src/d/d_meter2/d_meter2</text>
<text text-anchor="middle" x="1728.5" y="-74.5" font-family="Helvetica,sans-Serif" font-size="10.00">_draw.cpp</text>
</a>
</g>
</g>
<!-- Node4&#45;&gt;Node18 -->
<g id="edge18" class="edge">
<title>Node4&#45;&gt;Node18</title>
<path fill="none" stroke="midnightblue" d="M1984.34,-133.17C1931.39,-123.32 1861.37,-110.15 1799.5,-98 1796.78,-97.47 1794.01,-96.92 1791.21,-96.36"/>
<polygon fill="midnightblue" stroke="midnightblue" points="1983.89,-136.64 1994.36,-135.03 1985.17,-129.76 1983.89,-136.64"/>
</g>
<!-- Node19 -->
<g id="node19" class="node">
<title>Node19</title>
<g id="a_node19"><a xlink:href="d__meter2__info_8cpp.html" target="_top" xlink:title=" ">
<polygon fill="white" stroke="black" points="1809,-67.5 1809,-97.5 1934,-97.5 1934,-67.5 1809,-67.5"/>
<text text-anchor="start" x="1817" y="-85.5" font-family="Helvetica,sans-Serif" font-size="10.00">src/d/d_meter2/d_meter2</text>
<text text-anchor="middle" x="1871.5" y="-74.5" font-family="Helvetica,sans-Serif" font-size="10.00">_info.cpp</text>
</a>
</g>
</g>
<!-- Node4&#45;&gt;Node19 -->
<g id="edge19" class="edge">
<title>Node4&#45;&gt;Node19</title>
<path fill="none" stroke="midnightblue" d="M2015.42,-131.23C1983.71,-120.71 1943.72,-107.45 1913.95,-97.58"/>
<polygon fill="midnightblue" stroke="midnightblue" points="2014.38,-134.57 2024.97,-134.4 2016.58,-127.93 2014.38,-134.57"/>
</g>
<!-- Node20 -->
<g id="node20" class="node">
<title>Node20</title>
<g id="a_node20"><a xlink:href="d__meter2_8cpp.html" target="_top" xlink:title=" ">
<polygon fill="white" stroke="black" points="1952.5,-73 1952.5,-92 2052.5,-92 2052.5,-73 1952.5,-73"/>
<text text-anchor="middle" x="2002.5" y="-80" font-family="Helvetica,sans-Serif" font-size="10.00">src/d/d_meter2.cpp</text>
</a>
</g>
</g>
<!-- Node4&#45;&gt;Node20 -->
<g id="edge20" class="edge">
<title>Node4&#45;&gt;Node20</title>
<path fill="none" stroke="midnightblue" d="M2046,-127C2034.13,-115.13 2020.05,-101.05 2011.19,-92.19"/>
<polygon fill="midnightblue" stroke="midnightblue" points="2043.85,-129.8 2053.4,-134.4 2048.8,-124.85 2043.85,-129.8"/>
</g>
<!-- Node21 -->
<g id="node21" class="node">
<title>Node21</title>
<g id="a_node21"><a xlink:href="d__save_8cpp.html" target="_top" xlink:title=" ">
<polygon fill="white" stroke="black" points="2071,-73 2071,-92 2196,-92 2196,-73 2071,-73"/>
<text text-anchor="middle" x="2133.5" y="-80" font-family="Helvetica,sans-Serif" font-size="10.00">src/d/d_save/d_save.cpp</text>
</a>
</g>
</g>
<!-- Node4&#45;&gt;Node21 -->
<g id="edge21" class="edge">
<title>Node4&#45;&gt;Node21</title>
<path fill="none" stroke="midnightblue" d="M2088.99,-127.34C2101.11,-115.4 2115.59,-101.14 2124.67,-92.19"/>
<polygon fill="midnightblue" stroke="midnightblue" points="2086.49,-124.89 2081.82,-134.4 2091.4,-129.87 2086.49,-124.89"/>
</g>
<!-- Node22 -->
<g id="node22" class="node">
<title>Node22</title>
<g id="a_node22"><a xlink:href="d__save__HIO_8cpp.html" target="_top" xlink:title=" ">
<polygon fill="white" stroke="black" points="2214,-67.5 2214,-97.5 2321,-97.5 2321,-67.5 2214,-67.5"/>
<text text-anchor="start" x="2222" y="-85.5" font-family="Helvetica,sans-Serif" font-size="10.00">src/d/d_save/d_save</text>
<text text-anchor="middle" x="2267.5" y="-74.5" font-family="Helvetica,sans-Serif" font-size="10.00">_HIO.cpp</text>
</a>
</g>
</g>
<!-- Node4&#45;&gt;Node22 -->
<g id="edge22" class="edge">
<title>Node4&#45;&gt;Node22</title>
<path fill="none" stroke="midnightblue" d="M2120.65,-131.23C2153,-120.71 2193.81,-107.45 2224.19,-97.58"/>
<polygon fill="midnightblue" stroke="midnightblue" points="2119.33,-127.98 2110.9,-134.4 2121.49,-134.63 2119.33,-127.98"/>
</g>
<!-- Node23 -->
<g id="node23" class="node">
<title>Node23</title>
<g id="a_node23"><a xlink:href="d__stage_8cpp.html" target="_top" xlink:title=" ">
<polygon fill="white" stroke="black" points="2339.5,-73 2339.5,-92 2433.5,-92 2433.5,-73 2339.5,-73"/>
<text text-anchor="middle" x="2386.5" y="-80" font-family="Helvetica,sans-Serif" font-size="10.00">src/d/d_stage.cpp</text>
</a>
</g>
</g>
<!-- Node4&#45;&gt;Node23 -->
<g id="edge23" class="edge">
<title>Node4&#45;&gt;Node23</title>
<path fill="none" stroke="midnightblue" d="M2150.75,-133.91C2202.62,-124.48 2270.65,-111.48 2330.5,-98 2338.44,-96.21 2346.96,-94.1 2354.9,-92.06"/>
<polygon fill="midnightblue" stroke="midnightblue" points="2149.82,-130.53 2140.6,-135.75 2151.06,-137.42 2149.82,-130.53"/>
</g>
<!-- Node24 -->
<g id="node24" class="node">
<title>Node24</title>
<g id="a_node24"><a xlink:href="f__pc__manager_8cpp.html" target="_top" xlink:title=" ">
<polygon fill="white" stroke="black" points="4554.5,-6 4554.5,-25 4694.5,-25 4694.5,-6 4554.5,-6"/>
<text text-anchor="middle" x="4624.5" y="-13" font-family="Helvetica,sans-Serif" font-size="10.00">src/f/f_pc/f_pc_manager.cpp</text>
</a>
</g>
</g>
<!-- Node4&#45;&gt;Node24 -->
<g id="edge24" class="edge">
<title>Node4&#45;&gt;Node24</title>
<path fill="none" stroke="midnightblue" d="M2150.75,-148.43C2568.57,-147.88 4421.52,-142.89 4534.5,-98 4573.09,-82.67 4605.58,-42.67 4618.51,-25.05"/>
<polygon fill="midnightblue" stroke="midnightblue" points="2150.55,-144.93 2140.56,-148.44 2150.56,-151.93 2150.55,-144.93"/>
</g>
<!-- Node25 -->
<g id="node25" class="node">
<title>Node25</title>
<g id="a_node25"><a xlink:href="m__Do__audio_8cpp.html" target="_top" xlink:title=" ">
<polygon fill="white" stroke="black" points="2451.5,-73 2451.5,-92 2585.5,-92 2585.5,-73 2451.5,-73"/>
<text text-anchor="middle" x="2518.5" y="-80" font-family="Helvetica,sans-Serif" font-size="10.00">src/m_Do/m_Do_audio.cpp</text>
</a>
</g>
</g>
<!-- Node4&#45;&gt;Node25 -->
<g id="edge25" class="edge">
<title>Node4&#45;&gt;Node25</title>
<path fill="none" stroke="midnightblue" d="M2150.62,-138.63C2226.74,-129.28 2342.44,-114.27 2442.5,-98 2453.37,-96.23 2465.08,-94.11 2475.97,-92.04"/>
<polygon fill="midnightblue" stroke="midnightblue" points="2150.12,-135.16 2140.62,-139.85 2150.97,-142.11 2150.12,-135.16"/>
</g>
<!-- Node26 -->
<g id="node26" class="node">
<title>Node26</title>
<g id="a_node26"><a xlink:href="m__Do__ext_8cpp.html" target="_top" xlink:title=" ">
<polygon fill="white" stroke="black" points="2604,-73 2604,-92 2727,-92 2727,-73 2604,-73"/>
<text text-anchor="middle" x="2665.5" y="-80" font-family="Helvetica,sans-Serif" font-size="10.00">src/m_Do/m_Do_ext.cpp</text>
</a>
</g>
</g>
<!-- Node4&#45;&gt;Node26 -->
<g id="edge26" class="edge">
<title>Node4&#45;&gt;Node26</title>
<path fill="none" stroke="midnightblue" d="M2150.82,-143.25C2254.99,-136.07 2438.57,-121.33 2594.5,-98 2605.2,-96.4 2616.72,-94.24 2627.31,-92.07"/>
<polygon fill="midnightblue" stroke="midnightblue" points="2150.42,-139.77 2140.69,-143.95 2150.9,-146.76 2150.42,-139.77"/>
</g>
<!-- Node27 -->
<g id="node27" class="node">
<title>Node27</title>
<g id="a_node27"><a xlink:href="m__Do__lib_8cpp.html" target="_top" xlink:title=" ">
<polygon fill="white" stroke="black" points="2745.5,-73 2745.5,-92 2865.5,-92 2865.5,-73 2745.5,-73"/>
<text text-anchor="middle" x="2805.5" y="-80" font-family="Helvetica,sans-Serif" font-size="10.00">src/m_Do/m_Do_lib.cpp</text>
</a>
</g>
</g>
<!-- Node4&#45;&gt;Node27 -->
<g id="edge27" class="edge">
<title>Node4&#45;&gt;Node27</title>
<path fill="none" stroke="midnightblue" d="M2150.64,-145.75C2277.51,-140.75 2526.82,-127.81 2736.5,-98 2747.29,-96.47 2758.91,-94.25 2769.49,-92"/>
<polygon fill="midnightblue" stroke="midnightblue" points="2150.46,-142.25 2140.6,-146.14 2150.73,-149.25 2150.46,-142.25"/>
</g>
<!-- Node28 -->
<g id="node28" class="node">
<title>Node28</title>
<g id="a_node28"><a xlink:href="m__Do__machine__exception_8cpp.html" target="_top" xlink:title=" ">
<polygon fill="white" stroke="black" points="2884,-67.5 2884,-97.5 3013,-97.5 3013,-67.5 2884,-67.5"/>
<text text-anchor="start" x="2892" y="-85.5" font-family="Helvetica,sans-Serif" font-size="10.00">src/m_Do/m_Do_machine</text>
<text text-anchor="middle" x="2948.5" y="-74.5" font-family="Helvetica,sans-Serif" font-size="10.00">_exception.cpp</text>
</a>
</g>
</g>
<!-- Node4&#45;&gt;Node28 -->
<g id="edge28" class="edge">
<title>Node4&#45;&gt;Node28</title>
<path fill="none" stroke="midnightblue" d="M2150.97,-146.88C2297.83,-143.22 2611.74,-131.82 2874.5,-98 2877.49,-97.62 2880.53,-97.18 2883.61,-96.71"/>
<polygon fill="midnightblue" stroke="midnightblue" points="2150.6,-143.38 2140.69,-147.13 2150.77,-150.38 2150.6,-143.38"/>
</g>
<!-- Node29 -->
<g id="node29" class="node">
<title>Node29</title>
<g id="a_node29"><a xlink:href="m__Do__main_8cpp.html" target="_top" xlink:title=" ">
<polygon fill="white" stroke="black" points="3031,-73 3031,-92 3162,-92 3162,-73 3031,-73"/>
<text text-anchor="middle" x="3096.5" y="-80" font-family="Helvetica,sans-Serif" font-size="10.00">src/m_Do/m_Do_main.cpp</text>
</a>
</g>
</g>
<!-- Node4&#45;&gt;Node29 -->
<g id="edge29" class="edge">
<title>Node4&#45;&gt;Node29</title>
<path fill="none" stroke="midnightblue" d="M2150.75,-148.03C2317.05,-146.22 2701.93,-137.68 3022.5,-98 3034.19,-96.55 3046.81,-94.33 3058.26,-92.06"/>
<polygon fill="midnightblue" stroke="midnightblue" points="2150.55,-144.53 2140.59,-148.13 2150.63,-151.53 2150.55,-144.53"/>
</g>
<!-- Node30 -->
<g id="node30" class="node">
<title>Node30</title>
<g id="a_node30"><a xlink:href="m__Do__MemCardRWmng_8cpp.html" target="_top" xlink:title=" ">
<polygon fill="white" stroke="black" points="3180,-73 3180,-92 3367,-92 3367,-73 3180,-73"/>
<text text-anchor="middle" x="3273.5" y="-80" font-family="Helvetica,sans-Serif" font-size="10.00">src/m_Do/m_Do_MemCardRWmng.cpp</text>
</a>
</g>
</g>
<!-- Node4&#45;&gt;Node30 -->
<g id="edge30" class="edge">
<title>Node4&#45;&gt;Node30</title>
<path fill="none" stroke="midnightblue" d="M2150.82,-147.4C2335.16,-144.38 2791.37,-133.63 3171.5,-98 3187.44,-96.51 3204.7,-94.28 3220.41,-92.03"/>
<polygon fill="midnightblue" stroke="midnightblue" points="2150.6,-143.91 2140.66,-147.57 2150.71,-150.91 2150.6,-143.91"/>
</g>
<!-- Node31 -->
<g id="node31" class="node">
<title>Node31</title>
<g id="a_node31"><a xlink:href="Z2EnvSeMgr_8cpp.html" target="_top" xlink:title=" ">
<polygon fill="white" stroke="black" points="3385,-73 3385,-92 3546,-92 3546,-73 3385,-73"/>
<text text-anchor="middle" x="3465.5" y="-80" font-family="Helvetica,sans-Serif" font-size="10.00">libs/Z2AudioLib/Z2EnvSeMgr.cpp</text>
</a>
</g>
</g>
<!-- Node4&#45;&gt;Node31 -->
<g id="edge31" class="edge">
<title>Node4&#45;&gt;Node31</title>
<path fill="none" stroke="midnightblue" d="M2151.03,-148.83C2358.78,-148.88 2915.3,-144.29 3376.5,-98 3390.67,-96.58 3406.02,-94.33 3419.91,-92.03"/>
<polygon fill="midnightblue" stroke="midnightblue" points="2150.81,-145.33 2140.81,-148.82 2150.8,-152.33 2150.81,-145.33"/>
</g>
<!-- Node32 -->
<g id="node32" class="node">
<title>Node32</title>
<g id="a_node32"><a xlink:href="Z2LinkMgr_8cpp.html" target="_top" xlink:title=" ">
<polygon fill="white" stroke="black" points="3564.5,-73 3564.5,-92 3716.5,-92 3716.5,-73 3564.5,-73"/>
<text text-anchor="middle" x="3640.5" y="-80" font-family="Helvetica,sans-Serif" font-size="10.00">libs/Z2AudioLib/Z2LinkMgr.cpp</text>
</a>
</g>
</g>
<!-- Node4&#45;&gt;Node32 -->
<g id="edge32" class="edge">
<title>Node4&#45;&gt;Node32</title>
<path fill="none" stroke="midnightblue" d="M2150.89,-147.15C2422.47,-142.54 3279.87,-126.06 3555.5,-98 3569.2,-96.61 3584.03,-94.34 3597.41,-92.01"/>
<polygon fill="midnightblue" stroke="midnightblue" points="2150.65,-143.66 2140.71,-147.33 2150.76,-150.66 2150.65,-143.66"/>
</g>
<!-- Node33 -->
<g id="node33" class="node">
<title>Node33</title>
<g id="a_node33"><a xlink:href="Z2SceneMgr_8cpp.html" target="_top" xlink:title=" ">
<polygon fill="white" stroke="black" points="3735,-73 3735,-92 3896,-92 3896,-73 3735,-73"/>
<text text-anchor="middle" x="3815.5" y="-80" font-family="Helvetica,sans-Serif" font-size="10.00">libs/Z2AudioLib/Z2SceneMgr.cpp</text>
</a>
</g>
</g>
<!-- Node4&#45;&gt;Node33 -->
<g id="edge33" class="edge">
<title>Node4&#45;&gt;Node33</title>
<path fill="none" stroke="midnightblue" d="M2150.84,-147.39C2442.29,-143.28 3414.91,-127.62 3725.5,-98 3739.99,-96.62 3755.69,-94.36 3769.86,-92.03"/>
<polygon fill="midnightblue" stroke="midnightblue" points="2150.71,-143.89 2140.76,-147.53 2150.81,-150.89 2150.71,-143.89"/>
</g>
<!-- Node34 -->
<g id="node34" class="node">
<title>Node34</title>
<g id="a_node34"><a xlink:href="Z2SoundMgr_8cpp.html" target="_top" xlink:title=" ">
<polygon fill="white" stroke="black" points="3914,-73 3914,-92 4075,-92 4075,-73 3914,-73"/>
<text text-anchor="middle" x="3994.5" y="-80" font-family="Helvetica,sans-Serif" font-size="10.00">libs/Z2AudioLib/Z2SoundMgr.cpp</text>
</a>
</g>
</g>
<!-- Node4&#45;&gt;Node34 -->
<g id="edge34" class="edge">
<title>Node4&#45;&gt;Node34</title>
<path fill="none" stroke="midnightblue" d="M2151.04,-147.69C2462.78,-144.45 3557.99,-130.93 3905.5,-98 3919.84,-96.64 3935.37,-94.39 3949.38,-92.05"/>
<polygon fill="midnightblue" stroke="midnightblue" points="2150.69,-144.2 2140.72,-147.8 2150.76,-151.2 2150.69,-144.2"/>
</g>
<!-- Node35 -->
<g id="node35" class="node">
<title>Node35</title>
<g id="a_node35"><a xlink:href="Z2StatusMgr_8cpp.html" target="_top" xlink:title=" ">
<polygon fill="white" stroke="black" points="4093,-67.5 4093,-97.5 4220,-97.5 4220,-67.5 4093,-67.5"/>
<text text-anchor="start" x="4101" y="-85.5" font-family="Helvetica,sans-Serif" font-size="10.00">libs/Z2AudioLib/Z2Status</text>
<text text-anchor="middle" x="4156.5" y="-74.5" font-family="Helvetica,sans-Serif" font-size="10.00">Mgr.cpp</text>
</a>
</g>
</g>
<!-- Node4&#45;&gt;Node35 -->
<g id="edge35" class="edge">
<title>Node4&#45;&gt;Node35</title>
<path fill="none" stroke="midnightblue" d="M2151.05,-148.34C2481.89,-147.42 3700.76,-141.11 4084.5,-98 4087.29,-97.69 4090.13,-97.32 4092.99,-96.91"/>
<polygon fill="midnightblue" stroke="midnightblue" points="2150.58,-144.84 2140.59,-148.37 2150.6,-151.84 2150.58,-144.84"/>
</g>
<!-- Node36 -->
<g id="node36" class="node">
<title>Node36</title>
<g id="a_node36"><a xlink:href="d__a__alink_8h.html" target="_top" xlink:title=" ">
<polygon fill="white" stroke="black" points="4277,-67.5 4277,-97.5 4396,-97.5 4396,-67.5 4277,-67.5"/>
<text text-anchor="start" x="4285" y="-85.5" font-family="Helvetica,sans-Serif" font-size="10.00">include/d/d_a/d_a_alink</text>
<text text-anchor="middle" x="4336.5" y="-74.5" font-family="Helvetica,sans-Serif" font-size="10.00">/d_a_alink.h</text>
</a>
</g>
</g>
<!-- Node4&#45;&gt;Node36 -->
<g id="edge36" class="edge">
<title>Node4&#45;&gt;Node36</title>
<path fill="none" stroke="midnightblue" d="M2150.54,-148.48C2498.62,-148.12 3841.64,-143.74 4262.5,-98 4267.19,-97.49 4272.02,-96.84 4276.86,-96.09"/>
<polygon fill="midnightblue" stroke="midnightblue" points="2150.53,-144.98 2140.53,-148.49 2150.53,-151.98 2150.53,-144.98"/>
</g>
<!-- Node39 -->
<g id="node39" class="node">
<title>Node39</title>
<g id="a_node39"><a xlink:href="d__item_8h.html" target="_top" xlink:title=" ">
<polygon fill="white" stroke="black" points="87.5,-67.5 87.5,-97.5 183.5,-97.5 183.5,-67.5 87.5,-67.5"/>
<text text-anchor="start" x="95.5" y="-85.5" font-family="Helvetica,sans-Serif" font-size="10.00">include/d/d_item/d</text>
<text text-anchor="middle" x="135.5" y="-74.5" font-family="Helvetica,sans-Serif" font-size="10.00">_item/d_item.h</text>
</a>
</g>
</g>
<!-- Node4&#45;&gt;Node39 -->
<g id="edge41" class="edge">
<title>Node4&#45;&gt;Node39</title>
<path fill="none" stroke="midnightblue" d="M1984.04,-148.71C1668.16,-149.14 545.9,-147.09 192.5,-98 189.57,-97.59 186.57,-97.09 183.55,-96.52"/>
<polygon fill="midnightblue" stroke="midnightblue" points="1984.5,-152.21 1994.49,-148.7 1984.49,-145.21 1984.5,-152.21"/>
</g>
<!-- Node40 -->
<g id="node40" class="node">
<title>Node40</title>
<g id="a_node40"><a xlink:href="f__pc__manager_8h.html" target="_top" xlink:title=" ">
<polygon fill="white" stroke="black" points="4428,-67.5 4428,-97.5 4525,-97.5 4525,-67.5 4428,-67.5"/>
<text text-anchor="start" x="4436" y="-85.5" font-family="Helvetica,sans-Serif" font-size="10.00">include/f/f_pc/f_pc</text>
<text text-anchor="middle" x="4476.5" y="-74.5" font-family="Helvetica,sans-Serif" font-size="10.00">_manager.h</text>
</a>
</g>
</g>
<!-- Node4&#45;&gt;Node40 -->
<g id="edge44" class="edge">
<title>Node4&#45;&gt;Node40</title>
<path fill="none" stroke="midnightblue" d="M2150.79,-148.71C2513.27,-149.31 3955.29,-148.42 4405.5,-98 4412.75,-97.19 4420.36,-96 4427.8,-94.65"/>
<polygon fill="midnightblue" stroke="midnightblue" points="2150.65,-145.21 2140.64,-148.69 2150.63,-152.21 2150.65,-145.21"/>
</g>
<!-- Node36&#45;&gt;Node5 -->
<g id="edge37" class="edge">
<title>Node36&#45;&gt;Node5</title>
<path fill="none" stroke="midnightblue" d="M4298.29,-62.97C4272.55,-50.48 4239.81,-34.6 4220.04,-25.01"/>
<polygon fill="midnightblue" stroke="midnightblue" points="4296.9,-66.18 4307.42,-67.4 4299.95,-59.88 4296.9,-66.18"/>
</g>
<!-- Node37 -->
<g id="node37" class="node">
<title>Node37</title>
<g id="a_node37"><a xlink:href="d__a__alink_8cpp.html" target="_top" xlink:title=" ">
<polygon fill="white" stroke="black" points="4417,-6 4417,-25 4536,-25 4536,-6 4417,-6"/>
<text text-anchor="middle" x="4476.5" y="-13" font-family="Helvetica,sans-Serif" font-size="10.00">src/d/d_a/d_a_alink.cpp</text>
</a>
</g>
</g>
<!-- Node36&#45;&gt;Node37 -->
<g id="edge38" class="edge">
<title>Node36&#45;&gt;Node37</title>
<path fill="none" stroke="midnightblue" d="M4376.06,-63.13C4403.01,-50.62 4437.43,-34.64 4458.18,-25.01"/>
<polygon fill="midnightblue" stroke="midnightblue" points="4374.47,-60.01 4366.88,-67.4 4377.42,-66.36 4374.47,-60.01"/>
</g>
<!-- Node38 -->
<g id="node38" class="node">
<title>Node38</title>
<g id="a_node38"><a xlink:href="d__a__player_8h.html" target="_top" xlink:title=" ">
<polygon fill="white" stroke="black" points="4274.5,-0.5 4274.5,-30.5 4398.5,-30.5 4398.5,-0.5 4274.5,-0.5"/>
<text text-anchor="start" x="4282.5" y="-18.5" font-family="Helvetica,sans-Serif" font-size="10.00">include/d/d_a/d_a_player</text>
<text text-anchor="middle" x="4336.5" y="-7.5" font-family="Helvetica,sans-Serif" font-size="10.00">/d_a_player.h</text>
</a>
</g>
</g>
<!-- Node36&#45;&gt;Node38 -->
<g id="edge39" class="edge">
<title>Node36&#45;&gt;Node38</title>
<path fill="none" stroke="midnightblue" d="M4329.95,-57.4C4329.51,-48.37 4329.8,-38.41 4330.83,-30.58"/>
<polygon fill="midnightblue" stroke="midnightblue" points="4326.47,-57.74 4330.82,-67.4 4333.44,-57.13 4326.47,-57.74"/>
</g>
<!-- Node38&#45;&gt;Node36 -->
<g id="edge40" class="edge">
<title>Node38&#45;&gt;Node36</title>
<path fill="none" stroke="midnightblue" d="M4343.04,-40.57C4343.49,-49.6 4343.21,-59.56 4342.18,-67.4"/>
<polygon fill="midnightblue" stroke="midnightblue" points="4346.53,-40.24 4342.17,-30.58 4339.55,-40.84 4346.53,-40.24"/>
</g>
<!-- Node39&#45;&gt;Node3 -->
<g id="edge42" class="edge">
<title>Node39&#45;&gt;Node3</title>
<path fill="none" stroke="midnightblue" d="M111.39,-60.88C99.84,-51.01 86.31,-39.43 75.96,-30.58"/>
<polygon fill="midnightblue" stroke="midnightblue" points="109.13,-63.56 119.01,-67.4 113.68,-58.24 109.13,-63.56"/>
</g>
<!-- Node39&#45;&gt;Node8 -->
<g id="edge43" class="edge">
<title>Node39&#45;&gt;Node8</title>
<path fill="none" stroke="midnightblue" d="M184.92,-63.95C220.46,-51.32 266.84,-34.85 294.55,-25.01"/>
<polygon fill="midnightblue" stroke="midnightblue" points="183.46,-60.75 175.21,-67.4 185.8,-67.35 183.46,-60.75"/>
</g>
<!-- Node40&#45;&gt;Node24 -->
<g id="edge45" class="edge">
<title>Node40&#45;&gt;Node24</title>
<path fill="none" stroke="midnightblue" d="M4517.95,-63.3C4546.49,-50.76 4583.1,-34.68 4605.13,-25.01"/>
<polygon fill="midnightblue" stroke="midnightblue" points="4516.36,-60.17 4508.61,-67.4 4519.18,-66.58 4516.36,-60.17"/>
</g>
<!-- Node40&#45;&gt;Node37 -->
<g id="edge46" class="edge">
<title>Node40&#45;&gt;Node37</title>
<path fill="none" stroke="midnightblue" d="M4476.5,-57.25C4476.5,-46.02 4476.5,-33.38 4476.5,-25.19"/>
<polygon fill="midnightblue" stroke="midnightblue" points="4473,-57.4 4476.5,-67.4 4480,-57.4 4473,-57.4"/>
</g>
</g>
</svg>
