<?xml version="1.0" encoding="UTF-8" standalone="no"?>
<!DOCTYPE svg PUBLIC "-//W3C//DTD SVG 1.1//EN"
 "http://www.w3.org/Graphics/SVG/1.1/DTD/svg11.dtd">
<!-- Generated by graphviz version 7.0.5 (20221223.1930)
 -->
<!-- Title: src/d/bg/d_bg_pc.cpp Pages: 1 -->
<svg width="118pt" height="192pt"
 viewBox="0.00 0.00 118.00 192.00" xmlns="http://www.w3.org/2000/svg" xmlns:xlink="http://www.w3.org/1999/xlink">
<g id="graph0" class="graph" transform="scale(1 1) rotate(0) translate(4 188)">
<title>src/d/bg/d_bg_pc.cpp</title>
<!-- Node1 -->
<g id="node1" class="node">
<title>Node1</title>
<g id="a_node1"><a xlink:title=" ">
<polygon fill="#999999" stroke="#666666" points="110,-184 0,-184 0,-165 110,-165 110,-184"/>
<text text-anchor="middle" x="55" y="-172" font-family="Helvetica,sans-Serif" font-size="10.00">src/d/bg/d_bg_pc.cpp</text>
</a>
</g>
</g>
<!-- Node2 -->
<g id="node2" class="node">
<title>Node2</title>
<g id="a_node2"><a xlink:href="d__bg__pc_8h.html" target="_top" xlink:title=" ">
<polygon fill="white" stroke="#666666" points="96.5,-129 13.5,-129 13.5,-110 96.5,-110 96.5,-129"/>
<text text-anchor="middle" x="55" y="-117" font-family="Helvetica,sans-Serif" font-size="10.00">d/bg/d_bg_pc.h</text>
</a>
</g>
</g>
<!-- Node1&#45;&gt;Node2 -->
<g id="edge1" class="edge">
<title>Node1&#45;&gt;Node2</title>
<path fill="none" stroke="#63b8ff" d="M55,-164.75C55,-158.27 55,-149.16 55,-140.9"/>
<polygon fill="#63b8ff" stroke="#63b8ff" points="58.5,-140.96 55,-130.96 51.5,-140.96 58.5,-140.96"/>
</g>
<!-- Node3 -->
<g id="node3" class="node">
<title>Node3</title>
<g id="a_node3"><a xlink:href="types_8h.html" target="_top" xlink:title=" ">
<polygon fill="white" stroke="#666666" points="95.5,-74 14.5,-74 14.5,-55 95.5,-55 95.5,-74"/>
<text text-anchor="middle" x="55" y="-62" font-family="Helvetica,sans-Serif" font-size="10.00">dolphin/types.h</text>
</a>
</g>
</g>
<!-- Node2&#45;&gt;Node3 -->
<g id="edge2" class="edge">
<title>Node2&#45;&gt;Node3</title>
<path fill="none" stroke="#63b8ff" d="M55,-109.75C55,-103.27 55,-94.16 55,-85.9"/>
<polygon fill="#63b8ff" stroke="#63b8ff" points="58.5,-85.96 55,-75.96 51.5,-85.96 58.5,-85.96"/>
</g>
<!-- Node4 -->
<g id="node4" class="node">
<title>Node4</title>
<g id="a_node4"><a xlink:href="stddef_8h.html" target="_top" xlink:title=" ">
<polygon fill="white" stroke="#666666" points="80.5,-19 29.5,-19 29.5,0 80.5,0 80.5,-19"/>
<text text-anchor="middle" x="55" y="-7" font-family="Helvetica,sans-Serif" font-size="10.00">stddef.h</text>
</a>
</g>
</g>
<!-- Node3&#45;&gt;Node4 -->
<g id="edge3" class="edge">
<title>Node3&#45;&gt;Node4</title>
<path fill="none" stroke="#63b8ff" d="M55,-54.75C55,-48.27 55,-39.16 55,-30.9"/>
<polygon fill="#63b8ff" stroke="#63b8ff" points="58.5,-30.96 55,-20.96 51.5,-30.96 58.5,-30.96"/>
</g>
</g>
</svg>
