<?xml version="1.0" encoding="UTF-8" standalone="no"?>
<!DOCTYPE svg PUBLIC "-//W3C//DTD SVG 1.1//EN"
 "http://www.w3.org/Graphics/SVG/1.1/DTD/svg11.dtd">
<!-- Generated by graphviz version 2.46.0 (20210122.1329)
 -->
<!-- Title: include/d/d_cc/d_cc_s/d_cc_s.h Pages: 1 -->
<!--zoomable 240 -->
<svg id="main" version="1.1" xmlns="http://www.w3.org/2000/svg" xmlns:xlink="http://www.w3.org/1999/xlink" xml:space="preserve" onload="init(evt)">
<style type="text/css"><![CDATA[
.edge:hover path { stroke: red; }
.edge:hover polygon { stroke: red; fill: red; }
]]></style>
<script type="text/javascript"><![CDATA[
var edges = document.getElementsByTagName('g');
if (edges && edges.length) {
  for (var i=0;i<edges.length;i++) {
    if (edges[i].id.substr(0,4)=='edge') {
      edges[i].setAttribute('class','edge');
    }
  }
}
]]></script>
        <defs>
                <circle id="rim" cx="0" cy="0" r="7"/>
                <circle id="rim2" cx="0" cy="0" r="3.5"/>
                <g id="zoomPlus">
                        <use xlink:href="#rim" fill="#404040">
                                <set attributeName="fill" to="#808080" begin="zoomplus.mouseover" end="zoomplus.mouseout"/>
                        </use>
                        <path d="M-4,0h8M0,-4v8" fill="none" stroke="white" stroke-width="1.5" pointer-events="none"/>
                </g>
                <g id="zoomMin">
                        <use xlink:href="#rim" fill="#404040">
                                <set attributeName="fill" to="#808080" begin="zoomminus.mouseover" end="zoomminus.mouseout"/>
                        </use>
                        <path d="M-4,0h8" fill="none" stroke="white" stroke-width="1.5" pointer-events="none"/>
                </g>
                <g id="dirArrow">
                        <path fill="none" stroke="white" stroke-width="1.5" d="M0,-3.0v7 M-2.5,-0.5L0,-3.0L2.5,-0.5"/>
                </g>
               <g id="resetDef">
                       <use xlink:href="#rim2" fill="#404040">
                               <set attributeName="fill" to="#808080" begin="reset.mouseover" end="reset.mouseout"/>
                       </use>
               </g>
        </defs>

<script type="text/javascript">
var viewWidth = 3847;
var viewHeight = 240;
var sectionId = 'dynsection-1';
</script>
<script xlink:href="svgpan.js"/>
<svg id="graph" class="graph">
<g id="viewport">
<title>include/d/d_cc/d_cc_s/d_cc_s.h</title>
<polygon fill="white" stroke="transparent" points="-4,4 -4,-236 3842.5,-236 3842.5,4 -4,4"/>
<!-- Node1 -->
<g id="node1" class="node">
<title>Node1</title>
<g id="a_node1"><a xlink:title=" ">
<polygon fill="#bfbfbf" stroke="black" points="1635,-201.5 1635,-231.5 1739,-231.5 1739,-201.5 1635,-201.5"/>
<text text-anchor="start" x="1643" y="-219.5" font-family="Helvetica,sans-Serif" font-size="10.00">include/d/d_cc/d_cc</text>
<text text-anchor="middle" x="1687" y="-208.5" font-family="Helvetica,sans-Serif" font-size="10.00">_s/d_cc_s.h</text>
</a>
</g>
</g>
<!-- Node2 -->
<g id="node2" class="node">
<title>Node2</title>
<g id="a_node2"><a xlink:href="d__com__inf__game_8h.html" target="_top" xlink:title=" ">
<polygon fill="white" stroke="black" points="1614,-134.5 1614,-164.5 1760,-164.5 1760,-134.5 1614,-134.5"/>
<text text-anchor="start" x="1622" y="-152.5" font-family="Helvetica,sans-Serif" font-size="10.00">include/d/d_com/d_com</text>
<text text-anchor="middle" x="1687" y="-141.5" font-family="Helvetica,sans-Serif" font-size="10.00">_inf_game/d_com_inf_game.h</text>
</a>
</g>
</g>
<!-- Node1&#45;&gt;Node2 -->
<g id="edge1" class="edge">
<title>Node1&#45;&gt;Node2</title>
<path fill="none" stroke="midnightblue" d="M1687,-191.11C1687,-182.15 1687,-172.32 1687,-164.58"/>
<polygon fill="midnightblue" stroke="midnightblue" points="1683.5,-191.4 1687,-201.4 1690.5,-191.4 1683.5,-191.4"/>
</g>
<!-- Node3 -->
<g id="node3" class="node">
<title>Node3</title>
<g id="a_node3"><a xlink:href="d__attention_8cpp.html" target="_top" xlink:title=" ">
<polygon fill="white" stroke="black" points="295.5,-6 295.5,-25 402.5,-25 402.5,-6 295.5,-6"/>
<text text-anchor="middle" x="349" y="-13" font-family="Helvetica,sans-Serif" font-size="10.00">src/d/d_attention.cpp</text>
</a>
</g>
</g>
<!-- Node2&#45;&gt;Node3 -->
<g id="edge2" class="edge">
<title>Node2&#45;&gt;Node3</title>
<path fill="none" stroke="midnightblue" d="M1603.13,-148.54C1314.32,-148.27 376.19,-143.87 332,-98 312.65,-77.91 332.14,-41.79 342.9,-25.23"/>
<polygon fill="midnightblue" stroke="midnightblue" points="1603.54,-152.04 1613.54,-148.55 1603.54,-145.04 1603.54,-152.04"/>
</g>
<!-- Node4 -->
<g id="node4" class="node">
<title>Node4</title>
<g id="a_node4"><a xlink:href="d__camera_8cpp.html" target="_top" xlink:title=" ">
<polygon fill="white" stroke="black" points="479,-73 479,-92 581,-92 581,-73 479,-73"/>
<text text-anchor="middle" x="530" y="-80" font-family="Helvetica,sans-Serif" font-size="10.00">src/d/d_camera.cpp</text>
</a>
</g>
</g>
<!-- Node2&#45;&gt;Node4 -->
<g id="edge3" class="edge">
<title>Node2&#45;&gt;Node4</title>
<path fill="none" stroke="midnightblue" d="M1603.58,-146.51C1383.31,-140.97 789.66,-124.01 595,-98 584.57,-96.61 573.34,-94.37 563.2,-92.07"/>
<polygon fill="midnightblue" stroke="midnightblue" points="1603.7,-150.02 1613.79,-146.77 1603.88,-143.02 1603.7,-150.02"/>
</g>
<!-- Node5 -->
<g id="node5" class="node">
<title>Node5</title>
<g id="a_node5"><a xlink:href="d__com__inf__game_8cpp.html" target="_top" xlink:title=" ">
<polygon fill="white" stroke="black" points="563.5,-0.5 563.5,-30.5 682.5,-30.5 682.5,-0.5 563.5,-0.5"/>
<text text-anchor="start" x="571.5" y="-18.5" font-family="Helvetica,sans-Serif" font-size="10.00">src/d/d_com/d_com_inf</text>
<text text-anchor="middle" x="623" y="-7.5" font-family="Helvetica,sans-Serif" font-size="10.00">_game.cpp</text>
</a>
</g>
</g>
<!-- Node2&#45;&gt;Node5 -->
<g id="edge4" class="edge">
<title>Node2&#45;&gt;Node5</title>
<path fill="none" stroke="midnightblue" d="M1603.44,-147.53C1359.37,-144.29 662.56,-132.09 628,-98 610.34,-80.58 614.49,-48.89 618.88,-30.58"/>
<polygon fill="midnightblue" stroke="midnightblue" points="1603.62,-151.03 1613.67,-147.66 1603.72,-144.03 1603.62,-151.03"/>
</g>
<!-- Node6 -->
<g id="node6" class="node">
<title>Node6</title>
<g id="a_node6"><a xlink:href="d__file__sel__info_8cpp.html" target="_top" xlink:title=" ">
<polygon fill="white" stroke="black" points="789.5,-67.5 789.5,-97.5 878.5,-97.5 878.5,-67.5 789.5,-67.5"/>
<text text-anchor="start" x="797.5" y="-85.5" font-family="Helvetica,sans-Serif" font-size="10.00">src/d/d_file/d_file</text>
<text text-anchor="middle" x="834" y="-74.5" font-family="Helvetica,sans-Serif" font-size="10.00">_sel_info.cpp</text>
</a>
</g>
</g>
<!-- Node2&#45;&gt;Node6 -->
<g id="edge5" class="edge">
<title>Node2&#45;&gt;Node6</title>
<path fill="none" stroke="midnightblue" d="M1603.52,-148.67C1457.46,-147.76 1146.51,-140.44 888,-98 884.93,-97.5 881.79,-96.89 878.64,-96.22"/>
<polygon fill="midnightblue" stroke="midnightblue" points="1603.72,-152.17 1613.74,-148.73 1603.76,-145.17 1603.72,-152.17"/>
</g>
<!-- Node7 -->
<g id="node7" class="node">
<title>Node7</title>
<g id="a_node7"><a xlink:href="d__item_8cpp.html" target="_top" xlink:title=" ">
<polygon fill="white" stroke="black" points="700.5,-6 700.5,-25 821.5,-25 821.5,-6 700.5,-6"/>
<text text-anchor="middle" x="761" y="-13" font-family="Helvetica,sans-Serif" font-size="10.00">src/d/d_item/d_item.cpp</text>
</a>
</g>
</g>
<!-- Node2&#45;&gt;Node7 -->
<g id="edge6" class="edge">
<title>Node2&#45;&gt;Node7</title>
<path fill="none" stroke="midnightblue" d="M1603.85,-146.53C1385.86,-141 812.38,-124.05 781,-98 759.14,-79.85 758.98,-42.06 760.14,-25.09"/>
<polygon fill="midnightblue" stroke="midnightblue" points="1603.88,-150.03 1613.96,-146.78 1604.05,-143.03 1603.88,-150.03"/>
</g>
<!-- Node8 -->
<g id="node8" class="node">
<title>Node8</title>
<g id="a_node8"><a xlink:href="d__kankyo__rain_8cpp.html" target="_top" xlink:title=" ">
<polygon fill="white" stroke="black" points="896.5,-67.5 896.5,-97.5 1023.5,-97.5 1023.5,-67.5 896.5,-67.5"/>
<text text-anchor="start" x="904.5" y="-85.5" font-family="Helvetica,sans-Serif" font-size="10.00">src/d/d_kankyo/d_kankyo</text>
<text text-anchor="middle" x="960" y="-74.5" font-family="Helvetica,sans-Serif" font-size="10.00">_rain.cpp</text>
</a>
</g>
</g>
<!-- Node2&#45;&gt;Node8 -->
<g id="edge7" class="edge">
<title>Node2&#45;&gt;Node8</title>
<path fill="none" stroke="midnightblue" d="M1603.39,-145.23C1478.7,-139.64 1236.83,-126.01 1033,-98 1029.93,-97.58 1026.79,-97.11 1023.63,-96.6"/>
<polygon fill="midnightblue" stroke="midnightblue" points="1603.48,-148.74 1613.63,-145.68 1603.79,-141.75 1603.48,-148.74"/>
</g>
<!-- Node9 -->
<g id="node9" class="node">
<title>Node9</title>
<g id="a_node9"><a xlink:href="d__kankyo__wether_8cpp.html" target="_top" xlink:title=" ">
<polygon fill="white" stroke="black" points="1041.5,-67.5 1041.5,-97.5 1168.5,-97.5 1168.5,-67.5 1041.5,-67.5"/>
<text text-anchor="start" x="1049.5" y="-85.5" font-family="Helvetica,sans-Serif" font-size="10.00">src/d/d_kankyo/d_kankyo</text>
<text text-anchor="middle" x="1105" y="-74.5" font-family="Helvetica,sans-Serif" font-size="10.00">_wether.cpp</text>
</a>
</g>
</g>
<!-- Node2&#45;&gt;Node9 -->
<g id="edge8" class="edge">
<title>Node2&#45;&gt;Node9</title>
<path fill="none" stroke="midnightblue" d="M1603.67,-142.73C1502.61,-135.16 1327.25,-120.17 1178,-98 1174.93,-97.54 1171.8,-97.05 1168.64,-96.52"/>
<polygon fill="midnightblue" stroke="midnightblue" points="1603.58,-146.23 1613.81,-143.48 1604.1,-139.25 1603.58,-146.23"/>
</g>
<!-- Node10 -->
<g id="node10" class="node">
<title>Node10</title>
<g id="a_node10"><a xlink:href="d__kankyo_8cpp.html" target="_top" xlink:title=" ">
<polygon fill="white" stroke="black" points="1186.5,-73 1186.5,-92 1287.5,-92 1287.5,-73 1186.5,-73"/>
<text text-anchor="middle" x="1237" y="-80" font-family="Helvetica,sans-Serif" font-size="10.00">src/d/d_kankyo.cpp</text>
</a>
</g>
</g>
<!-- Node2&#45;&gt;Node10 -->
<g id="edge9" class="edge">
<title>Node2&#45;&gt;Node10</title>
<path fill="none" stroke="midnightblue" d="M1603.26,-140.31C1524.01,-131.93 1401.89,-117.41 1297,-98 1288.04,-96.34 1278.42,-94.19 1269.56,-92.05"/>
<polygon fill="midnightblue" stroke="midnightblue" points="1603.36,-143.84 1613.67,-141.4 1604.09,-136.88 1603.36,-143.84"/>
</g>
<!-- Node11 -->
<g id="node11" class="node">
<title>Node11</title>
<g id="a_node11"><a xlink:href="d__kantera__icon__meter_8cpp.html" target="_top" xlink:title=" ">
<polygon fill="white" stroke="black" points="1305.5,-67.5 1305.5,-97.5 1412.5,-97.5 1412.5,-67.5 1305.5,-67.5"/>
<text text-anchor="start" x="1313.5" y="-85.5" font-family="Helvetica,sans-Serif" font-size="10.00">src/d/d_kantera_icon</text>
<text text-anchor="middle" x="1359" y="-74.5" font-family="Helvetica,sans-Serif" font-size="10.00">_meter.cpp</text>
</a>
</g>
</g>
<!-- Node2&#45;&gt;Node11 -->
<g id="edge10" class="edge">
<title>Node2&#45;&gt;Node11</title>
<path fill="none" stroke="midnightblue" d="M1603.84,-133.49C1551.54,-123.84 1482.71,-110.77 1422,-98 1418.92,-97.35 1415.77,-96.67 1412.59,-95.98"/>
<polygon fill="midnightblue" stroke="midnightblue" points="1603.27,-136.94 1613.74,-135.31 1604.54,-130.06 1603.27,-136.94"/>
</g>
<!-- Node12 -->
<g id="node12" class="node">
<title>Node12</title>
<g id="a_node12"><a xlink:href="d__meter__button_8cpp.html" target="_top" xlink:title=" ">
<polygon fill="white" stroke="black" points="1430.5,-67.5 1430.5,-97.5 1545.5,-97.5 1545.5,-67.5 1430.5,-67.5"/>
<text text-anchor="start" x="1438.5" y="-85.5" font-family="Helvetica,sans-Serif" font-size="10.00">src/d/d_meter/d_meter</text>
<text text-anchor="middle" x="1488" y="-74.5" font-family="Helvetica,sans-Serif" font-size="10.00">_button.cpp</text>
</a>
</g>
</g>
<!-- Node2&#45;&gt;Node12 -->
<g id="edge11" class="edge">
<title>Node2&#45;&gt;Node12</title>
<path fill="none" stroke="midnightblue" d="M1634.12,-131.23C1601.93,-120.71 1561.33,-107.45 1531.1,-97.58"/>
<polygon fill="midnightblue" stroke="midnightblue" points="1633.23,-134.62 1643.82,-134.4 1635.4,-127.96 1633.23,-134.62"/>
</g>
<!-- Node13 -->
<g id="node13" class="node">
<title>Node13</title>
<g id="a_node13"><a xlink:href="d__meter__haihai_8cpp.html" target="_top" xlink:title=" ">
<polygon fill="white" stroke="black" points="1563.5,-67.5 1563.5,-97.5 1678.5,-97.5 1678.5,-67.5 1563.5,-67.5"/>
<text text-anchor="start" x="1571.5" y="-85.5" font-family="Helvetica,sans-Serif" font-size="10.00">src/d/d_meter/d_meter</text>
<text text-anchor="middle" x="1621" y="-74.5" font-family="Helvetica,sans-Serif" font-size="10.00">_haihai.cpp</text>
</a>
</g>
</g>
<!-- Node2&#45;&gt;Node13 -->
<g id="edge12" class="edge">
<title>Node2&#45;&gt;Node13</title>
<path fill="none" stroke="midnightblue" d="M1665.49,-127.31C1655.59,-117.56 1644.11,-106.26 1635.29,-97.58"/>
<polygon fill="midnightblue" stroke="midnightblue" points="1663.1,-129.87 1672.68,-134.4 1668.01,-124.89 1663.1,-129.87"/>
</g>
<!-- Node14 -->
<g id="node14" class="node">
<title>Node14</title>
<g id="a_node14"><a xlink:href="d__meter__hakusha_8cpp.html" target="_top" xlink:title=" ">
<polygon fill="white" stroke="black" points="1696.5,-67.5 1696.5,-97.5 1811.5,-97.5 1811.5,-67.5 1696.5,-67.5"/>
<text text-anchor="start" x="1704.5" y="-85.5" font-family="Helvetica,sans-Serif" font-size="10.00">src/d/d_meter/d_meter</text>
<text text-anchor="middle" x="1754" y="-74.5" font-family="Helvetica,sans-Serif" font-size="10.00">_hakusha.cpp</text>
</a>
</g>
</g>
<!-- Node2&#45;&gt;Node14 -->
<g id="edge13" class="edge">
<title>Node2&#45;&gt;Node14</title>
<path fill="none" stroke="midnightblue" d="M1708.84,-127.31C1718.89,-117.56 1730.54,-106.26 1739.49,-97.58"/>
<polygon fill="midnightblue" stroke="midnightblue" points="1706.28,-124.92 1701.54,-134.4 1711.15,-129.94 1706.28,-124.92"/>
</g>
<!-- Node15 -->
<g id="node15" class="node">
<title>Node15</title>
<g id="a_node15"><a xlink:href="d__meter__map_8cpp.html" target="_top" xlink:title=" ">
<polygon fill="white" stroke="black" points="1829.5,-67.5 1829.5,-97.5 1944.5,-97.5 1944.5,-67.5 1829.5,-67.5"/>
<text text-anchor="start" x="1837.5" y="-85.5" font-family="Helvetica,sans-Serif" font-size="10.00">src/d/d_meter/d_meter</text>
<text text-anchor="middle" x="1887" y="-74.5" font-family="Helvetica,sans-Serif" font-size="10.00">_map.cpp</text>
</a>
</g>
</g>
<!-- Node2&#45;&gt;Node15 -->
<g id="edge14" class="edge">
<title>Node2&#45;&gt;Node15</title>
<path fill="none" stroke="midnightblue" d="M1740.15,-131.23C1772.5,-120.71 1813.31,-107.45 1843.69,-97.58"/>
<polygon fill="midnightblue" stroke="midnightblue" points="1738.83,-127.98 1730.4,-134.4 1740.99,-134.63 1738.83,-127.98"/>
</g>
<!-- Node16 -->
<g id="node16" class="node">
<title>Node16</title>
<g id="a_node16"><a xlink:href="d__meter__string_8cpp.html" target="_top" xlink:title=" ">
<polygon fill="white" stroke="black" points="1962.5,-67.5 1962.5,-97.5 2077.5,-97.5 2077.5,-67.5 1962.5,-67.5"/>
<text text-anchor="start" x="1970.5" y="-85.5" font-family="Helvetica,sans-Serif" font-size="10.00">src/d/d_meter/d_meter</text>
<text text-anchor="middle" x="2020" y="-74.5" font-family="Helvetica,sans-Serif" font-size="10.00">_string.cpp</text>
</a>
</g>
</g>
<!-- Node2&#45;&gt;Node16 -->
<g id="edge15" class="edge">
<title>Node2&#45;&gt;Node16</title>
<path fill="none" stroke="midnightblue" d="M1770.19,-133.41C1822.93,-123.69 1892.56,-110.56 1954,-98 1956.76,-97.44 1959.58,-96.85 1962.43,-96.25"/>
<polygon fill="midnightblue" stroke="midnightblue" points="1769.41,-130 1760.21,-135.25 1770.68,-136.88 1769.41,-130"/>
</g>
<!-- Node17 -->
<g id="node17" class="node">
<title>Node17</title>
<g id="a_node17"><a xlink:href="d__meter2__draw_8cpp.html" target="_top" xlink:title=" ">
<polygon fill="white" stroke="black" points="2095.5,-67.5 2095.5,-97.5 2220.5,-97.5 2220.5,-67.5 2095.5,-67.5"/>
<text text-anchor="start" x="2103.5" y="-85.5" font-family="Helvetica,sans-Serif" font-size="10.00">src/d/d_meter2/d_meter2</text>
<text text-anchor="middle" x="2158" y="-74.5" font-family="Helvetica,sans-Serif" font-size="10.00">_draw.cpp</text>
</a>
</g>
</g>
<!-- Node2&#45;&gt;Node17 -->
<g id="edge16" class="edge">
<title>Node2&#45;&gt;Node17</title>
<path fill="none" stroke="midnightblue" d="M1770.38,-139.84C1851.48,-130.97 1978.05,-115.98 2087,-98 2089.73,-97.55 2092.52,-97.07 2095.33,-96.57"/>
<polygon fill="midnightblue" stroke="midnightblue" points="1769.8,-136.38 1760.23,-140.94 1770.55,-143.34 1769.8,-136.38"/>
</g>
<!-- Node18 -->
<g id="node18" class="node">
<title>Node18</title>
<g id="a_node18"><a xlink:href="d__meter2__info_8cpp.html" target="_top" xlink:title=" ">
<polygon fill="white" stroke="black" points="2238.5,-67.5 2238.5,-97.5 2363.5,-97.5 2363.5,-67.5 2238.5,-67.5"/>
<text text-anchor="start" x="2246.5" y="-85.5" font-family="Helvetica,sans-Serif" font-size="10.00">src/d/d_meter2/d_meter2</text>
<text text-anchor="middle" x="2301" y="-74.5" font-family="Helvetica,sans-Serif" font-size="10.00">_info.cpp</text>
</a>
</g>
</g>
<!-- Node2&#45;&gt;Node18 -->
<g id="edge17" class="edge">
<title>Node2&#45;&gt;Node18</title>
<path fill="none" stroke="midnightblue" d="M1770.27,-143.58C1877.13,-136.62 2068.05,-122 2230,-98 2232.74,-97.59 2235.53,-97.15 2238.35,-96.68"/>
<polygon fill="midnightblue" stroke="midnightblue" points="1769.95,-140.09 1760.2,-144.23 1770.4,-147.08 1769.95,-140.09"/>
</g>
<!-- Node19 -->
<g id="node19" class="node">
<title>Node19</title>
<g id="a_node19"><a xlink:href="d__meter2_8cpp.html" target="_top" xlink:title=" ">
<polygon fill="white" stroke="black" points="2382,-73 2382,-92 2482,-92 2482,-73 2382,-73"/>
<text text-anchor="middle" x="2432" y="-80" font-family="Helvetica,sans-Serif" font-size="10.00">src/d/d_meter2.cpp</text>
</a>
</g>
</g>
<!-- Node2&#45;&gt;Node19 -->
<g id="edge18" class="edge">
<title>Node2&#45;&gt;Node19</title>
<path fill="none" stroke="midnightblue" d="M1770.3,-146.86C1899.92,-143.3 2157.39,-132.18 2373,-98 2382.38,-96.51 2392.45,-94.28 2401.58,-92.01"/>
<polygon fill="midnightblue" stroke="midnightblue" points="1769.96,-143.37 1760.06,-147.13 1770.15,-150.36 1769.96,-143.37"/>
</g>
<!-- Node20 -->
<g id="node20" class="node">
<title>Node20</title>
<g id="a_node20"><a xlink:href="d__save_8cpp.html" target="_top" xlink:title=" ">
<polygon fill="white" stroke="black" points="2500.5,-73 2500.5,-92 2625.5,-92 2625.5,-73 2500.5,-73"/>
<text text-anchor="middle" x="2563" y="-80" font-family="Helvetica,sans-Serif" font-size="10.00">src/d/d_save/d_save.cpp</text>
</a>
</g>
</g>
<!-- Node2&#45;&gt;Node20 -->
<g id="edge19" class="edge">
<title>Node2&#45;&gt;Node20</title>
<path fill="none" stroke="midnightblue" d="M1770.47,-146.99C1916.92,-143.51 2229.48,-132.38 2491,-98 2502.25,-96.52 2514.38,-94.32 2525.42,-92.07"/>
<polygon fill="midnightblue" stroke="midnightblue" points="1770.13,-143.5 1760.21,-147.23 1770.29,-150.5 1770.13,-143.5"/>
</g>
<!-- Node21 -->
<g id="node21" class="node">
<title>Node21</title>
<g id="a_node21"><a xlink:href="d__save__HIO_8cpp.html" target="_top" xlink:title=" ">
<polygon fill="white" stroke="black" points="2643.5,-67.5 2643.5,-97.5 2750.5,-97.5 2750.5,-67.5 2643.5,-67.5"/>
<text text-anchor="start" x="2651.5" y="-85.5" font-family="Helvetica,sans-Serif" font-size="10.00">src/d/d_save/d_save</text>
<text text-anchor="middle" x="2697" y="-74.5" font-family="Helvetica,sans-Serif" font-size="10.00">_HIO.cpp</text>
</a>
</g>
</g>
<!-- Node2&#45;&gt;Node21 -->
<g id="edge20" class="edge">
<title>Node2&#45;&gt;Node21</title>
<path fill="none" stroke="midnightblue" d="M1770.39,-148.98C1936.05,-148.86 2317.95,-143.16 2635,-98 2637.74,-97.61 2640.53,-97.16 2643.34,-96.66"/>
<polygon fill="midnightblue" stroke="midnightblue" points="1770.27,-145.48 1760.27,-148.98 1770.28,-152.48 1770.27,-145.48"/>
</g>
<!-- Node22 -->
<g id="node22" class="node">
<title>Node22</title>
<g id="a_node22"><a xlink:href="d__stage_8cpp.html" target="_top" xlink:title=" ">
<polygon fill="white" stroke="black" points="2769,-73 2769,-92 2863,-92 2863,-73 2769,-73"/>
<text text-anchor="middle" x="2816" y="-80" font-family="Helvetica,sans-Serif" font-size="10.00">src/d/d_stage.cpp</text>
</a>
</g>
</g>
<!-- Node2&#45;&gt;Node22 -->
<g id="edge21" class="edge">
<title>Node2&#45;&gt;Node22</title>
<path fill="none" stroke="midnightblue" d="M1770.18,-146.8C1987.67,-142.02 2569.53,-126.83 2760,-98 2769.14,-96.62 2778.94,-94.36 2787.75,-92.03"/>
<polygon fill="midnightblue" stroke="midnightblue" points="1770.02,-143.31 1760.1,-147.02 1770.18,-150.31 1770.02,-143.31"/>
</g>
<!-- Node23 -->
<g id="node23" class="node">
<title>Node23</title>
<g id="a_node23"><a xlink:href="f__pc__manager_8cpp.html" target="_top" xlink:title=" ">
<polygon fill="white" stroke="black" points="0,-6 0,-25 140,-25 140,-6 0,-6"/>
<text text-anchor="middle" x="70" y="-13" font-family="Helvetica,sans-Serif" font-size="10.00">src/f/f_pc/f_pc_manager.cpp</text>
</a>
</g>
</g>
<!-- Node2&#45;&gt;Node23 -->
<g id="edge22" class="edge">
<title>Node2&#45;&gt;Node23</title>
<path fill="none" stroke="midnightblue" d="M1603.75,-147.33C1294.66,-142.79 227.24,-125.21 160,-98 121.5,-82.42 88.96,-42.56 76,-25.01"/>
<polygon fill="midnightblue" stroke="midnightblue" points="1603.94,-150.84 1613.99,-147.48 1604.04,-143.84 1603.94,-150.84"/>
</g>
<!-- Node24 -->
<g id="node24" class="node">
<title>Node24</title>
<g id="a_node24"><a xlink:href="m__Do__audio_8cpp.html" target="_top" xlink:title=" ">
<polygon fill="white" stroke="black" points="2881,-73 2881,-92 3015,-92 3015,-73 2881,-73"/>
<text text-anchor="middle" x="2948" y="-80" font-family="Helvetica,sans-Serif" font-size="10.00">src/m_Do/m_Do_audio.cpp</text>
</a>
</g>
</g>
<!-- Node2&#45;&gt;Node24 -->
<g id="edge23" class="edge">
<title>Node2&#45;&gt;Node24</title>
<path fill="none" stroke="midnightblue" d="M1770.22,-149.12C1964.08,-149.64 2460.56,-145.76 2872,-98 2884.14,-96.59 2897.26,-94.35 2909.11,-92.05"/>
<polygon fill="midnightblue" stroke="midnightblue" points="1770.12,-145.62 1760.11,-149.08 1770.1,-152.62 1770.12,-145.62"/>
</g>
<!-- Node25 -->
<g id="node25" class="node">
<title>Node25</title>
<g id="a_node25"><a xlink:href="m__Do__main_8cpp.html" target="_top" xlink:title=" ">
<polygon fill="white" stroke="black" points="3033.5,-73 3033.5,-92 3164.5,-92 3164.5,-73 3033.5,-73"/>
<text text-anchor="middle" x="3099" y="-80" font-family="Helvetica,sans-Serif" font-size="10.00">src/m_Do/m_Do_main.cpp</text>
</a>
</g>
</g>
<!-- Node2&#45;&gt;Node25 -->
<g id="edge24" class="edge">
<title>Node2&#45;&gt;Node25</title>
<path fill="none" stroke="midnightblue" d="M1770.46,-147.02C2023.46,-142.28 2779.46,-126.09 3024,-98 3036.12,-96.61 3049.22,-94.34 3061.02,-92.01"/>
<polygon fill="midnightblue" stroke="midnightblue" points="1770.16,-143.53 1760.23,-147.21 1770.29,-150.53 1770.16,-143.53"/>
</g>
<!-- Node26 -->
<g id="node26" class="node">
<title>Node26</title>
<g id="a_node26"><a xlink:href="Z2EnvSeMgr_8cpp.html" target="_top" xlink:title=" ">
<polygon fill="white" stroke="black" points="3182.5,-73 3182.5,-92 3343.5,-92 3343.5,-73 3182.5,-73"/>
<text text-anchor="middle" x="3263" y="-80" font-family="Helvetica,sans-Serif" font-size="10.00">libs/Z2AudioLib/Z2EnvSeMgr.cpp</text>
</a>
</g>
</g>
<!-- Node2&#45;&gt;Node26 -->
<g id="edge25" class="edge">
<title>Node2&#45;&gt;Node26</title>
<path fill="none" stroke="midnightblue" d="M1770.32,-147.07C2041.7,-142.2 2898.45,-125.01 3174,-98 3188.18,-96.61 3203.52,-94.38 3217.41,-92.07"/>
<polygon fill="midnightblue" stroke="midnightblue" points="1770.09,-143.57 1760.15,-147.25 1770.21,-150.57 1770.09,-143.57"/>
</g>
<!-- Node27 -->
<g id="node27" class="node">
<title>Node27</title>
<g id="a_node27"><a xlink:href="Z2SceneMgr_8cpp.html" target="_top" xlink:title=" ">
<polygon fill="white" stroke="black" points="3361.5,-73 3361.5,-92 3522.5,-92 3522.5,-73 3361.5,-73"/>
<text text-anchor="middle" x="3442" y="-80" font-family="Helvetica,sans-Serif" font-size="10.00">libs/Z2AudioLib/Z2SceneMgr.cpp</text>
</a>
</g>
</g>
<!-- Node2&#45;&gt;Node27 -->
<g id="edge26" class="edge">
<title>Node2&#45;&gt;Node27</title>
<path fill="none" stroke="midnightblue" d="M1770.25,-147.42C2062.49,-143.42 3040.76,-128.04 3353,-98 3367.34,-96.62 3382.86,-94.36 3396.87,-92.03"/>
<polygon fill="midnightblue" stroke="midnightblue" points="1770.09,-143.93 1760.14,-147.56 1770.19,-150.92 1770.09,-143.93"/>
</g>
<!-- Node28 -->
<g id="node28" class="node">
<title>Node28</title>
<g id="a_node28"><a xlink:href="Z2LinkMgr_8cpp.html" target="_top" xlink:title=" ">
<polygon fill="white" stroke="black" points="3541,-73 3541,-92 3693,-92 3693,-73 3541,-73"/>
<text text-anchor="middle" x="3617" y="-80" font-family="Helvetica,sans-Serif" font-size="10.00">libs/Z2AudioLib/Z2LinkMgr.cpp</text>
</a>
</g>
</g>
<!-- Node2&#45;&gt;Node28 -->
<g id="edge27" class="edge">
<title>Node2&#45;&gt;Node28</title>
<path fill="none" stroke="midnightblue" d="M1770.34,-147.79C2082.58,-144.88 3183.09,-132.36 3532,-98 3545.71,-96.65 3560.54,-94.4 3573.92,-92.07"/>
<polygon fill="midnightblue" stroke="midnightblue" points="1769.97,-144.29 1760.01,-147.88 1770.04,-151.29 1769.97,-144.29"/>
</g>
<!-- Node29 -->
<g id="node29" class="node">
<title>Node29</title>
<g id="a_node29"><a xlink:href="Z2StatusMgr_8cpp.html" target="_top" xlink:title=" ">
<polygon fill="white" stroke="black" points="3711.5,-67.5 3711.5,-97.5 3838.5,-97.5 3838.5,-67.5 3711.5,-67.5"/>
<text text-anchor="start" x="3719.5" y="-85.5" font-family="Helvetica,sans-Serif" font-size="10.00">libs/Z2AudioLib/Z2Status</text>
<text text-anchor="middle" x="3775" y="-74.5" font-family="Helvetica,sans-Serif" font-size="10.00">Mgr.cpp</text>
</a>
</g>
</g>
<!-- Node2&#45;&gt;Node29 -->
<g id="edge28" class="edge">
<title>Node2&#45;&gt;Node29</title>
<path fill="none" stroke="midnightblue" d="M1770.46,-148.31C2100.96,-147.27 3318.58,-140.57 3702,-98 3705.08,-97.66 3708.23,-97.25 3711.4,-96.8"/>
<polygon fill="midnightblue" stroke="midnightblue" points="1770,-144.81 1760.01,-148.34 1770.02,-151.81 1770,-144.81"/>
</g>
<!-- Node30 -->
<g id="node30" class="node">
<title>Node30</title>
<g id="a_node30"><a xlink:href="d__a__alink_8h.html" target="_top" xlink:title=" ">
<polygon fill="white" stroke="black" points="341.5,-67.5 341.5,-97.5 460.5,-97.5 460.5,-67.5 341.5,-67.5"/>
<text text-anchor="start" x="349.5" y="-85.5" font-family="Helvetica,sans-Serif" font-size="10.00">include/d/d_a/d_a_alink</text>
<text text-anchor="middle" x="401" y="-74.5" font-family="Helvetica,sans-Serif" font-size="10.00">/d_a_alink.h</text>
</a>
</g>
</g>
<!-- Node2&#45;&gt;Node30 -->
<g id="edge29" class="edge">
<title>Node2&#45;&gt;Node30</title>
<path fill="none" stroke="midnightblue" d="M1603.34,-146.83C1365.75,-141.82 689.94,-125.48 470,-98 466.96,-97.62 463.86,-97.18 460.74,-96.69"/>
<polygon fill="midnightblue" stroke="midnightblue" points="1603.57,-150.34 1613.64,-147.05 1603.72,-143.34 1603.57,-150.34"/>
</g>
<!-- Node33 -->
<g id="node33" class="node">
<title>Node33</title>
<g id="a_node33"><a xlink:href="d__item_8h.html" target="_top" xlink:title=" ">
<polygon fill="white" stroke="black" points="637,-67.5 637,-97.5 733,-97.5 733,-67.5 637,-67.5"/>
<text text-anchor="start" x="645" y="-85.5" font-family="Helvetica,sans-Serif" font-size="10.00">include/d/d_item/d</text>
<text text-anchor="middle" x="685" y="-74.5" font-family="Helvetica,sans-Serif" font-size="10.00">_item/d_item.h</text>
</a>
</g>
</g>
<!-- Node2&#45;&gt;Node33 -->
<g id="edge34" class="edge">
<title>Node2&#45;&gt;Node33</title>
<path fill="none" stroke="midnightblue" d="M1603.69,-148.93C1439.1,-148.69 1060.98,-142.79 747,-98 742.51,-97.36 737.87,-96.55 733.24,-95.65"/>
<polygon fill="midnightblue" stroke="midnightblue" points="1603.74,-152.43 1613.74,-148.94 1603.75,-145.43 1603.74,-152.43"/>
</g>
<!-- Node34 -->
<g id="node34" class="node">
<title>Node34</title>
<g id="a_node34"><a xlink:href="f__pc__manager_8h.html" target="_top" xlink:title=" ">
<polygon fill="white" stroke="black" points="169.5,-67.5 169.5,-97.5 266.5,-97.5 266.5,-67.5 169.5,-67.5"/>
<text text-anchor="start" x="177.5" y="-85.5" font-family="Helvetica,sans-Serif" font-size="10.00">include/f/f_pc/f_pc</text>
<text text-anchor="middle" x="218" y="-74.5" font-family="Helvetica,sans-Serif" font-size="10.00">_manager.h</text>
</a>
</g>
</g>
<!-- Node2&#45;&gt;Node34 -->
<g id="edge37" class="edge">
<title>Node2&#45;&gt;Node34</title>
<path fill="none" stroke="midnightblue" d="M1603.49,-147.01C1344.04,-142.12 554.08,-125.33 299,-98 288.49,-96.87 277.29,-95.19 266.67,-93.36"/>
<polygon fill="midnightblue" stroke="midnightblue" points="1603.54,-150.51 1613.6,-147.19 1603.67,-143.51 1603.54,-150.51"/>
</g>
<!-- Node30&#45;&gt;Node3 -->
<g id="edge30" class="edge">
<title>Node30&#45;&gt;Node3</title>
<path fill="none" stroke="midnightblue" d="M383.25,-59.32C373.88,-47.6 362.91,-33.88 355.96,-25.19"/>
<polygon fill="midnightblue" stroke="midnightblue" points="380.74,-61.77 389.72,-67.4 386.2,-57.4 380.74,-61.77"/>
</g>
<!-- Node31 -->
<g id="node31" class="node">
<title>Node31</title>
<g id="a_node31"><a xlink:href="d__a__alink_8cpp.html" target="_top" xlink:title=" ">
<polygon fill="white" stroke="black" points="158.5,-6 158.5,-25 277.5,-25 277.5,-6 158.5,-6"/>
<text text-anchor="middle" x="218" y="-13" font-family="Helvetica,sans-Serif" font-size="10.00">src/d/d_a/d_a_alink.cpp</text>
</a>
</g>
</g>
<!-- Node30&#45;&gt;Node31 -->
<g id="edge31" class="edge">
<title>Node30&#45;&gt;Node31</title>
<path fill="none" stroke="midnightblue" d="M351.58,-63.95C316.04,-51.32 269.66,-34.85 241.95,-25.01"/>
<polygon fill="midnightblue" stroke="midnightblue" points="350.7,-67.35 361.29,-67.4 353.04,-60.75 350.7,-67.35"/>
</g>
<!-- Node32 -->
<g id="node32" class="node">
<title>Node32</title>
<g id="a_node32"><a xlink:href="d__a__player_8h.html" target="_top" xlink:title=" ">
<polygon fill="white" stroke="black" points="421,-0.5 421,-30.5 545,-30.5 545,-0.5 421,-0.5"/>
<text text-anchor="start" x="429" y="-18.5" font-family="Helvetica,sans-Serif" font-size="10.00">include/d/d_a/d_a_player</text>
<text text-anchor="middle" x="483" y="-7.5" font-family="Helvetica,sans-Serif" font-size="10.00">/d_a_player.h</text>
</a>
</g>
</g>
<!-- Node30&#45;&gt;Node32 -->
<g id="edge32" class="edge">
<title>Node30&#45;&gt;Node32</title>
<path fill="none" stroke="midnightblue" d="M421.02,-60.6C432.7,-50.78 447.35,-39.34 459.57,-30.58"/>
<polygon fill="midnightblue" stroke="midnightblue" points="418.41,-58.22 413.11,-67.4 422.98,-63.53 418.41,-58.22"/>
</g>
<!-- Node32&#45;&gt;Node30 -->
<g id="edge33" class="edge">
<title>Node32&#45;&gt;Node30</title>
<path fill="none" stroke="midnightblue" d="M463.02,-37.37C451.35,-47.18 436.69,-58.62 424.47,-67.4"/>
<polygon fill="midnightblue" stroke="midnightblue" points="465.62,-39.75 470.92,-30.58 461.05,-34.45 465.62,-39.75"/>
</g>
<!-- Node33&#45;&gt;Node5 -->
<g id="edge35" class="edge">
<title>Node33&#45;&gt;Node5</title>
<path fill="none" stroke="midnightblue" d="M664.52,-60.02C655.28,-50.34 644.63,-39.17 636.43,-30.58"/>
<polygon fill="midnightblue" stroke="midnightblue" points="662.11,-62.58 671.55,-67.4 667.18,-57.74 662.11,-62.58"/>
</g>
<!-- Node33&#45;&gt;Node7 -->
<g id="edge36" class="edge">
<title>Node33&#45;&gt;Node7</title>
<path fill="none" stroke="midnightblue" d="M709.35,-60.67C723.39,-48.67 740.28,-34.22 750.83,-25.19"/>
<polygon fill="midnightblue" stroke="midnightblue" points="706.82,-58.24 701.49,-67.4 711.37,-63.56 706.82,-58.24"/>
</g>
<!-- Node34&#45;&gt;Node23 -->
<g id="edge38" class="edge">
<title>Node34&#45;&gt;Node23</title>
<path fill="none" stroke="midnightblue" d="M176.55,-63.3C148.01,-50.76 111.4,-34.68 89.37,-25.01"/>
<polygon fill="midnightblue" stroke="midnightblue" points="175.32,-66.58 185.89,-67.4 178.14,-60.17 175.32,-66.58"/>
</g>
<!-- Node34&#45;&gt;Node31 -->
<g id="edge39" class="edge">
<title>Node34&#45;&gt;Node31</title>
<path fill="none" stroke="midnightblue" d="M218,-57.25C218,-46.02 218,-33.38 218,-25.19"/>
<polygon fill="midnightblue" stroke="midnightblue" points="214.5,-57.4 218,-67.4 221.5,-57.4 214.5,-57.4"/>
</g>
</g>
</svg>
        <g id="navigator" transform="translate(0 0)" fill="#404254">
                <rect fill="#f2f5e9" fill-opacity="0.5" stroke="#606060" stroke-width=".5" x="0" y="0" width="60" height="60"/>
                <use id="zoomplus" xlink:href="#zoomPlus" x="17" y="9" onmousedown="handleZoom(evt,'in')"/>
                <use id="zoomminus" xlink:href="#zoomMin" x="42" y="9" onmousedown="handleZoom(evt,'out')"/>
                <use id="reset" xlink:href="#resetDef" x="30" y="36" onmousedown="handleReset()"/>
                <g id="arrowUp" xlink:href="#dirArrow" transform="translate(30 24)" onmousedown="handlePan(0,-1)">
                  <use xlink:href="#rim" fill="#404040">
                        <set attributeName="fill" to="#808080" begin="arrowUp.mouseover" end="arrowUp.mouseout"/>
                  </use>
                  <path fill="none" stroke="white" stroke-width="1.5" d="M0,-3.0v7 M-2.5,-0.5L0,-3.0L2.5,-0.5"/>
                </g>
                <g id="arrowRight" xlink:href="#dirArrow" transform="rotate(90) translate(36 -43)" onmousedown="handlePan(1,0)">
                  <use xlink:href="#rim" fill="#404040">
                        <set attributeName="fill" to="#808080" begin="arrowRight.mouseover" end="arrowRight.mouseout"/>
                  </use>
                  <path fill="none" stroke="white" stroke-width="1.5" d="M0,-3.0v7 M-2.5,-0.5L0,-3.0L2.5,-0.5"/>
                </g>
                <g id="arrowDown" xlink:href="#dirArrow" transform="rotate(180) translate(-30 -48)" onmousedown="handlePan(0,1)">
                  <use xlink:href="#rim" fill="#404040">
                        <set attributeName="fill" to="#808080" begin="arrowDown.mouseover" end="arrowDown.mouseout"/>
                  </use>
                  <path fill="none" stroke="white" stroke-width="1.5" d="M0,-3.0v7 M-2.5,-0.5L0,-3.0L2.5,-0.5"/>
                </g>
                <g id="arrowLeft" xlink:href="#dirArrow" transform="rotate(270) translate(-36 17)" onmousedown="handlePan(-1,0)">
                  <use xlink:href="#rim" fill="#404040">
                        <set attributeName="fill" to="#808080" begin="arrowLeft.mouseover" end="arrowLeft.mouseout"/>
                  </use>
                  <path fill="none" stroke="white" stroke-width="1.5" d="M0,-3.0v7 M-2.5,-0.5L0,-3.0L2.5,-0.5"/>
                </g>
        </g>
        <svg viewBox="0 0 15 15" width="100%" height="30px" preserveAspectRatio="xMaxYMin meet">
         <g id="arrow_out" transform="scale(0.3 0.3)">
          <a xlink:href="d__cc__s_8h__dep__incl_org.svg" target="_base">
           <rect id="button" ry="5" rx="5" y="6" x="6" height="38" width="38"
                fill="#f2f5e9" fill-opacity="0.5" stroke="#606060" stroke-width="1.0"/>
           <path id="arrow"
             d="M 11.500037,31.436501 C 11.940474,20.09759 22.043105,11.32322 32.158766,21.979434 L 37.068811,17.246167 C 37.068811,17.246167 37.088388,32 37.088388,32 L 22.160133,31.978069 C 22.160133,31.978069 26.997745,27.140456 26.997745,27.140456 C 18.528582,18.264221 13.291696,25.230495 11.500037,31.436501 z"
             style="fill:#404040;"/>
          </a>
         </g>
        </svg>
</svg>
