<?xml version="1.0" encoding="UTF-8" standalone="no"?>
<!DOCTYPE svg PUBLIC "-//W3C//DTD SVG 1.1//EN"
 "http://www.w3.org/Graphics/SVG/1.1/DTD/svg11.dtd">
<!-- Generated by graphviz version 2.46.0 (20210122.1329)
 -->
<!-- Title: include/d/d_cc/d_cc_mass_s/d_cc_mass_s.h Pages: 1 -->
<svg width="781pt" height="676pt"
 viewBox="0.00 0.00 780.50 676.00" xmlns="http://www.w3.org/2000/svg" xmlns:xlink="http://www.w3.org/1999/xlink">
<g id="graph0" class="graph" transform="scale(1 1) rotate(0) translate(4 672)">
<title>include/d/d_cc/d_cc_mass_s/d_cc_mass_s.h</title>
<polygon fill="white" stroke="transparent" points="-4,4 -4,-672 776.5,-672 776.5,4 -4,4"/>
<!-- Node1 -->
<g id="node1" class="node">
<title>Node1</title>
<g id="a_node1"><a xlink:title=" ">
<polygon fill="#bfbfbf" stroke="black" points="304.5,-637.5 304.5,-667.5 432.5,-667.5 432.5,-637.5 304.5,-637.5"/>
<text text-anchor="start" x="312.5" y="-655.5" font-family="Helvetica,sans-Serif" font-size="10.00">include/d/d_cc/d_cc</text>
<text text-anchor="middle" x="368.5" y="-644.5" font-family="Helvetica,sans-Serif" font-size="10.00">_mass_s/d_cc_mass_s.h</text>
</a>
</g>
</g>
<!-- Node2 -->
<g id="node2" class="node">
<title>Node2</title>
<g id="a_node2"><a xlink:href="c__cc__d_8h.html" target="_top" xlink:title=" ">
<polygon fill="white" stroke="black" points="411.5,-570.5 411.5,-600.5 527.5,-600.5 527.5,-570.5 411.5,-570.5"/>
<text text-anchor="start" x="419.5" y="-588.5" font-family="Helvetica,sans-Serif" font-size="10.00">SComponent/c_cc_d/c</text>
<text text-anchor="middle" x="469.5" y="-577.5" font-family="Helvetica,sans-Serif" font-size="10.00">_cc_d.h</text>
</a>
</g>
</g>
<!-- Node1&#45;&gt;Node2 -->
<g id="edge1" class="edge">
<title>Node1&#45;&gt;Node2</title>
<path fill="none" stroke="midnightblue" d="M390.42,-637.4C404.58,-628.28 423.21,-616.29 438.83,-606.24"/>
<polygon fill="midnightblue" stroke="midnightblue" points="441.11,-608.93 447.63,-600.58 437.32,-603.05 441.11,-608.93"/>
</g>
<!-- Node5 -->
<g id="node5" class="node">
<title>Node5</title>
<g id="a_node5"><a xlink:href="global_8h.html" target="_top" xlink:title=" ">
<polygon fill="white" stroke="black" points="364.5,-380.5 364.5,-399.5 414.5,-399.5 414.5,-380.5 364.5,-380.5"/>
<text text-anchor="middle" x="389.5" y="-387.5" font-family="Helvetica,sans-Serif" font-size="10.00">global.h</text>
</a>
</g>
</g>
<!-- Node1&#45;&gt;Node5 -->
<g id="edge42" class="edge">
<title>Node1&#45;&gt;Node5</title>
<path fill="none" stroke="midnightblue" d="M364.91,-637.25C356.73,-602.15 338.99,-509.09 360.5,-436 363.51,-425.76 369.65,-415.66 375.51,-407.63"/>
<polygon fill="midnightblue" stroke="midnightblue" points="378.43,-409.58 381.83,-399.54 372.91,-405.27 378.43,-409.58"/>
</g>
<!-- Node3 -->
<g id="node3" class="node">
<title>Node3</title>
<g id="a_node3"><a xlink:href="c__m3d_2c__m3d_8h.html" target="_top" xlink:title=" ">
<polygon fill="white" stroke="black" points="371,-503.5 371,-533.5 484,-533.5 484,-503.5 371,-503.5"/>
<text text-anchor="start" x="379" y="-521.5" font-family="Helvetica,sans-Serif" font-size="10.00">SComponent/c_m3d/c</text>
<text text-anchor="middle" x="427.5" y="-510.5" font-family="Helvetica,sans-Serif" font-size="10.00">_m3d.h</text>
</a>
</g>
</g>
<!-- Node2&#45;&gt;Node3 -->
<g id="edge2" class="edge">
<title>Node2&#45;&gt;Node3</title>
<path fill="none" stroke="midnightblue" d="M460.39,-570.4C455.05,-562.13 448.18,-551.51 442.1,-542.1"/>
<polygon fill="midnightblue" stroke="midnightblue" points="444.96,-540.08 436.6,-533.58 439.08,-543.88 444.96,-540.08"/>
</g>
<!-- Node2&#45;&gt;Node5 -->
<g id="edge41" class="edge">
<title>Node2&#45;&gt;Node5</title>
<path fill="none" stroke="midnightblue" d="M477.7,-570.47C492.9,-542.45 521.46,-478.56 493.5,-436 478.28,-412.84 448.32,-401.54 424.45,-396.06"/>
<polygon fill="midnightblue" stroke="midnightblue" points="425.15,-392.63 414.65,-394.05 423.75,-399.49 425.15,-392.63"/>
</g>
<!-- Node22 -->
<g id="node22" class="node">
<title>Node22</title>
<g id="a_node22"><a xlink:href="c__m3d__g__cyl_8h.html" target="_top" xlink:title=" ">
<polygon fill="white" stroke="black" points="540.5,-436.5 540.5,-466.5 656.5,-466.5 656.5,-436.5 540.5,-436.5"/>
<text text-anchor="start" x="548.5" y="-454.5" font-family="Helvetica,sans-Serif" font-size="10.00">SComponent/c_m3d_g</text>
<text text-anchor="middle" x="598.5" y="-443.5" font-family="Helvetica,sans-Serif" font-size="10.00">_cyl.h</text>
</a>
</g>
</g>
<!-- Node2&#45;&gt;Node22 -->
<g id="edge38" class="edge">
<title>Node2&#45;&gt;Node22</title>
<path fill="none" stroke="midnightblue" d="M486.45,-570.43C498.05,-560.58 513.61,-546.91 526.5,-534 545.7,-514.77 566.07,-491.41 580.22,-474.63"/>
<polygon fill="midnightblue" stroke="midnightblue" points="583.28,-476.43 587.02,-466.52 577.91,-471.94 583.28,-476.43"/>
</g>
<!-- Node4 -->
<g id="node4" class="node">
<title>Node4</title>
<g id="a_node4"><a xlink:href="c__xyz_2c__xyz_8h.html" target="_top" xlink:title=" ">
<polygon fill="white" stroke="black" points="376.5,-436.5 376.5,-466.5 484.5,-466.5 484.5,-436.5 376.5,-436.5"/>
<text text-anchor="start" x="384.5" y="-454.5" font-family="Helvetica,sans-Serif" font-size="10.00">SComponent/c_xyz/c</text>
<text text-anchor="middle" x="430.5" y="-443.5" font-family="Helvetica,sans-Serif" font-size="10.00">_xyz.h</text>
</a>
</g>
</g>
<!-- Node3&#45;&gt;Node4 -->
<g id="edge3" class="edge">
<title>Node3&#45;&gt;Node4</title>
<path fill="none" stroke="midnightblue" d="M428.15,-503.4C428.51,-495.64 428.96,-485.81 429.38,-476.86"/>
<polygon fill="midnightblue" stroke="midnightblue" points="432.89,-476.73 429.85,-466.58 425.89,-476.4 432.89,-476.73"/>
</g>
<!-- Node3&#45;&gt;Node5 -->
<g id="edge37" class="edge">
<title>Node3&#45;&gt;Node5</title>
<path fill="none" stroke="midnightblue" d="M402.09,-503.48C389.15,-494.83 374.68,-482.43 367.5,-467 358.57,-447.82 368.35,-424.2 377.56,-408.44"/>
<polygon fill="midnightblue" stroke="midnightblue" points="380.67,-410.07 383.05,-399.74 374.75,-406.33 380.67,-410.07"/>
</g>
<!-- Node4&#45;&gt;Node5 -->
<g id="edge4" class="edge">
<title>Node4&#45;&gt;Node5</title>
<path fill="none" stroke="midnightblue" d="M420.78,-436.4C414.95,-427.93 407.48,-417.1 401.31,-408.14"/>
<polygon fill="midnightblue" stroke="midnightblue" points="404.02,-405.91 395.47,-399.66 398.26,-409.88 404.02,-405.91"/>
</g>
<!-- Node6 -->
<g id="node6" class="node">
<title>Node6</title>
<g id="a_node6"><a xlink:href="types_8h.html" target="_top" xlink:title=" ">
<polygon fill="white" stroke="black" points="245,-0.5 245,-19.5 326,-19.5 326,-0.5 245,-0.5"/>
<text text-anchor="middle" x="285.5" y="-7.5" font-family="Helvetica,sans-Serif" font-size="10.00">dolphin/types.h</text>
</a>
</g>
</g>
<!-- Node5&#45;&gt;Node6 -->
<g id="edge5" class="edge">
<title>Node5&#45;&gt;Node6</title>
<path fill="none" stroke="midnightblue" d="M414.63,-386.92C499.84,-379.17 772.5,-348.51 772.5,-273.5 772.5,-273.5 772.5,-273.5 772.5,-137.5 772.5,-48.07 460.99,-20.77 336.25,-13.43"/>
<polygon fill="midnightblue" stroke="midnightblue" points="336.37,-9.93 326.18,-12.85 335.97,-16.92 336.37,-9.93"/>
</g>
<!-- Node7 -->
<g id="node7" class="node">
<title>Node7</title>
<g id="a_node7"><a xlink:href="AR_8h.html" target="_top" xlink:title=" ">
<polygon fill="white" stroke="black" points="0,-129 0,-148 49,-148 49,-129 0,-129"/>
<text text-anchor="middle" x="24.5" y="-136" font-family="Helvetica,sans-Serif" font-size="10.00">ar/AR.h</text>
</a>
</g>
</g>
<!-- Node5&#45;&gt;Node7 -->
<g id="edge6" class="edge">
<title>Node5&#45;&gt;Node7</title>
<path fill="none" stroke="midnightblue" d="M364.26,-388.96C296.89,-388.31 115.06,-382.91 72.5,-344 18.98,-295.07 19.64,-198.78 22.61,-158.22"/>
<polygon fill="midnightblue" stroke="midnightblue" points="26.1,-158.4 23.48,-148.13 19.13,-157.79 26.1,-158.4"/>
</g>
<!-- Node8 -->
<g id="node8" class="node">
<title>Node8</title>
<g id="a_node8"><a xlink:href="ARQ_8h.html" target="_top" xlink:title=" ">
<polygon fill="white" stroke="black" points="47.5,-62 47.5,-81 103.5,-81 103.5,-62 47.5,-62"/>
<text text-anchor="middle" x="75.5" y="-69" font-family="Helvetica,sans-Serif" font-size="10.00">ar/ARQ.h</text>
</a>
</g>
</g>
<!-- Node5&#45;&gt;Node8 -->
<g id="edge8" class="edge">
<title>Node5&#45;&gt;Node8</title>
<path fill="none" stroke="midnightblue" d="M364.45,-385.01C291.85,-372.75 86.5,-332.82 86.5,-273.5 86.5,-273.5 86.5,-273.5 86.5,-204.5 86.5,-164.02 81.3,-116.79 78.05,-91.24"/>
<polygon fill="midnightblue" stroke="midnightblue" points="81.49,-90.59 76.72,-81.13 74.55,-91.5 81.49,-90.59"/>
</g>
<!-- Node9 -->
<g id="node9" class="node">
<title>Node9</title>
<g id="a_node9"><a xlink:href="functions_8h.html" target="_top" xlink:title=" ">
<polygon fill="white" stroke="black" points="235.5,-324.5 235.5,-343.5 299.5,-343.5 299.5,-324.5 235.5,-324.5"/>
<text text-anchor="middle" x="267.5" y="-331.5" font-family="Helvetica,sans-Serif" font-size="10.00">functions.h</text>
</a>
</g>
</g>
<!-- Node5&#45;&gt;Node9 -->
<g id="edge10" class="edge">
<title>Node5&#45;&gt;Node9</title>
<path fill="none" stroke="midnightblue" d="M370.17,-380.44C350.18,-371.6 318.76,-357.69 295.94,-347.59"/>
<polygon fill="midnightblue" stroke="midnightblue" points="297.3,-344.36 286.74,-343.52 294.47,-350.76 297.3,-344.36"/>
</g>
<!-- Node11 -->
<g id="node11" class="node">
<title>Node11</title>
<g id="a_node11"><a xlink:href="mwcc_8h.html" target="_top" xlink:title=" ">
<polygon fill="white" stroke="black" points="289.5,-263 289.5,-282 339.5,-282 339.5,-263 289.5,-263"/>
<text text-anchor="middle" x="314.5" y="-270" font-family="Helvetica,sans-Serif" font-size="10.00">mwcc.h</text>
</a>
</g>
</g>
<!-- Node5&#45;&gt;Node11 -->
<g id="edge18" class="edge">
<title>Node5&#45;&gt;Node11</title>
<path fill="none" stroke="midnightblue" d="M383.86,-380.32C371.54,-361.34 342,-315.85 325.73,-290.79"/>
<polygon fill="midnightblue" stroke="midnightblue" points="328.58,-288.76 320.2,-282.28 322.71,-292.58 328.58,-288.76"/>
</g>
<!-- Node12 -->
<g id="node12" class="node">
<title>Node12</title>
<g id="a_node12"><a xlink:href="OS_8h.html" target="_top" xlink:title=" ">
<polygon fill="white" stroke="black" points="145.5,-263 145.5,-282 197.5,-282 197.5,-263 145.5,-263"/>
<text text-anchor="middle" x="171.5" y="-270" font-family="Helvetica,sans-Serif" font-size="10.00">os/OS.h</text>
</a>
</g>
</g>
<!-- Node5&#45;&gt;Node12 -->
<g id="edge19" class="edge">
<title>Node5&#45;&gt;Node12</title>
<path fill="none" stroke="midnightblue" d="M364.28,-386.97C330.4,-383.2 269.47,-372.7 226.5,-344 206.4,-330.58 190.41,-307.41 180.96,-291.31"/>
<polygon fill="midnightblue" stroke="midnightblue" points="183.88,-289.37 175.94,-282.35 177.77,-292.78 183.88,-289.37"/>
</g>
<!-- Node14 -->
<g id="node14" class="node">
<title>Node14</title>
<g id="a_node14"><a xlink:href="variables_8h.html" target="_top" xlink:title=" ">
<polygon fill="white" stroke="black" points="453,-324.5 453,-343.5 516,-343.5 516,-324.5 453,-324.5"/>
<text text-anchor="middle" x="484.5" y="-331.5" font-family="Helvetica,sans-Serif" font-size="10.00">variables.h</text>
</a>
</g>
</g>
<!-- Node5&#45;&gt;Node14 -->
<g id="edge20" class="edge">
<title>Node5&#45;&gt;Node14</title>
<path fill="none" stroke="midnightblue" d="M404.76,-380.32C419.72,-371.82 442.75,-358.73 460.23,-348.8"/>
<polygon fill="midnightblue" stroke="midnightblue" points="462.31,-351.64 469.27,-343.65 458.85,-345.55 462.31,-351.64"/>
</g>
<!-- Node7&#45;&gt;Node6 -->
<g id="edge7" class="edge">
<title>Node7&#45;&gt;Node6</title>
<path fill="none" stroke="midnightblue" d="M23.12,-128.96C20.97,-112.39 18.91,-75.79 38.5,-56 65.26,-28.97 170.34,-17.88 234.51,-13.56"/>
<polygon fill="midnightblue" stroke="midnightblue" points="235.07,-17.03 244.83,-12.9 234.62,-10.04 235.07,-17.03"/>
</g>
<!-- Node8&#45;&gt;Node6 -->
<g id="edge9" class="edge">
<title>Node8&#45;&gt;Node6</title>
<path fill="none" stroke="midnightblue" d="M99.39,-61.92C105.28,-59.9 111.6,-57.81 117.5,-56 158.97,-43.3 206.8,-30.69 240.79,-22.06"/>
<polygon fill="midnightblue" stroke="midnightblue" points="242.03,-25.36 250.87,-19.51 240.32,-18.57 242.03,-25.36"/>
</g>
<!-- Node10 -->
<g id="node10" class="node">
<title>Node10</title>
<g id="a_node10"><a xlink:href="mtx__vec_8h.html" target="_top" xlink:title=" ">
<polygon fill="white" stroke="black" points="196,-129 196,-148 257,-148 257,-129 196,-129"/>
<text text-anchor="middle" x="226.5" y="-136" font-family="Helvetica,sans-Serif" font-size="10.00">mtx_vec.h</text>
</a>
</g>
</g>
<!-- Node9&#45;&gt;Node10 -->
<g id="edge11" class="edge">
<title>Node9&#45;&gt;Node10</title>
<path fill="none" stroke="midnightblue" d="M265.69,-324.44C259.51,-295.29 239.21,-199.47 230.51,-158.43"/>
<polygon fill="midnightblue" stroke="midnightblue" points="233.88,-157.46 228.39,-148.41 227.04,-158.92 233.88,-157.46"/>
</g>
<!-- Node9&#45;&gt;Node11 -->
<g id="edge13" class="edge">
<title>Node9&#45;&gt;Node11</title>
<path fill="none" stroke="midnightblue" d="M274.23,-324.48C281.28,-315.55 292.53,-301.31 301.35,-290.14"/>
<polygon fill="midnightblue" stroke="midnightblue" points="304.33,-292.03 307.78,-282.01 298.83,-287.69 304.33,-292.03"/>
</g>
<!-- Node9&#45;&gt;Node12 -->
<g id="edge14" class="edge">
<title>Node9&#45;&gt;Node12</title>
<path fill="none" stroke="midnightblue" d="M253.75,-324.48C238.13,-314.8 212.44,-298.87 193.92,-287.39"/>
<polygon fill="midnightblue" stroke="midnightblue" points="195.57,-284.3 185.23,-282.01 191.88,-290.25 195.57,-284.3"/>
</g>
<!-- Node10&#45;&gt;Node6 -->
<g id="edge12" class="edge">
<title>Node10&#45;&gt;Node6</title>
<path fill="none" stroke="midnightblue" d="M230.56,-128.81C240.11,-108.31 264.21,-56.65 277.09,-29.04"/>
<polygon fill="midnightblue" stroke="midnightblue" points="280.36,-30.3 281.42,-19.76 274.02,-27.34 280.36,-30.3"/>
</g>
<!-- Node12&#45;&gt;Node6 -->
<g id="edge15" class="edge">
<title>Node12&#45;&gt;Node6</title>
<path fill="none" stroke="midnightblue" d="M166.87,-262.63C151.06,-231 102.8,-122.17 150.5,-56 169.56,-29.56 204.83,-18.42 234.55,-13.83"/>
<polygon fill="midnightblue" stroke="midnightblue" points="235.34,-17.26 244.79,-12.47 234.41,-10.32 235.34,-17.26"/>
</g>
<!-- Node13 -->
<g id="node13" class="node">
<title>Node13</title>
<g id="a_node13"><a xlink:href="dvd_8h.html" target="_top" xlink:title=" ">
<polygon fill="white" stroke="black" points="160,-62 160,-81 219,-81 219,-62 160,-62"/>
<text text-anchor="middle" x="189.5" y="-69" font-family="Helvetica,sans-Serif" font-size="10.00">dvd/dvd.h</text>
</a>
</g>
</g>
<!-- Node12&#45;&gt;Node13 -->
<g id="edge16" class="edge">
<title>Node12&#45;&gt;Node13</title>
<path fill="none" stroke="midnightblue" d="M172.27,-262.95C174.97,-233.16 183.98,-133.51 187.78,-91.47"/>
<polygon fill="midnightblue" stroke="midnightblue" points="191.29,-91.52 188.71,-81.24 184.32,-90.89 191.29,-91.52"/>
</g>
<!-- Node13&#45;&gt;Node6 -->
<g id="edge17" class="edge">
<title>Node13&#45;&gt;Node6</title>
<path fill="none" stroke="midnightblue" d="M203.25,-61.98C218.87,-52.3 244.56,-36.37 263.08,-24.89"/>
<polygon fill="midnightblue" stroke="midnightblue" points="265.12,-27.75 271.77,-19.51 261.43,-21.8 265.12,-27.75"/>
</g>
<!-- Node15 -->
<g id="node15" class="node">
<title>Node15</title>
<g id="a_node15"><a xlink:href="JSUList_8h.html" target="_top" xlink:title=" ">
<polygon fill="white" stroke="black" points="351.5,-56.5 351.5,-86.5 487.5,-86.5 487.5,-56.5 351.5,-56.5"/>
<text text-anchor="start" x="359.5" y="-74.5" font-family="Helvetica,sans-Serif" font-size="10.00">JSystem/JSupport/JSUList</text>
<text text-anchor="middle" x="419.5" y="-63.5" font-family="Helvetica,sans-Serif" font-size="10.00">/JSUList.h</text>
</a>
</g>
</g>
<!-- Node14&#45;&gt;Node15 -->
<g id="edge21" class="edge">
<title>Node14&#45;&gt;Node15</title>
<path fill="none" stroke="midnightblue" d="M473.79,-324.3C464.56,-316.07 451.91,-302.79 446.5,-288 441.77,-275.06 443.04,-270.34 446.5,-257 451.09,-239.28 460.99,-238.46 466.5,-221 475.51,-192.45 471.94,-183.9 473.5,-154 474.22,-140.24 478.98,-135.64 473.5,-123 468.43,-111.32 459.18,-101.1 449.75,-92.98"/>
<polygon fill="midnightblue" stroke="midnightblue" points="451.86,-90.19 441.87,-86.65 447.48,-95.64 451.86,-90.19"/>
</g>
<!-- Node16 -->
<g id="node16" class="node">
<title>Node16</title>
<g id="a_node16"><a xlink:href="JUTXfb_8h.html" target="_top" xlink:title=" ">
<polygon fill="white" stroke="black" points="456,-257.5 456,-287.5 581,-287.5 581,-257.5 456,-257.5"/>
<text text-anchor="start" x="464" y="-275.5" font-family="Helvetica,sans-Serif" font-size="10.00">JSystem/JUtility/JUTXfb</text>
<text text-anchor="middle" x="518.5" y="-264.5" font-family="Helvetica,sans-Serif" font-size="10.00">/JUTXfb.h</text>
</a>
</g>
</g>
<!-- Node14&#45;&gt;Node16 -->
<g id="edge23" class="edge">
<title>Node14&#45;&gt;Node16</title>
<path fill="none" stroke="midnightblue" d="M489.37,-324.48C493.55,-317.17 499.76,-306.3 505.37,-296.47"/>
<polygon fill="midnightblue" stroke="midnightblue" points="508.56,-297.94 510.49,-287.52 502.49,-294.47 508.56,-297.94"/>
</g>
<!-- Node20 -->
<g id="node20" class="node">
<title>Node20</title>
<g id="a_node20"><a xlink:href="c__xyz_8h.html" target="_top" xlink:title=" ">
<polygon fill="white" stroke="black" points="599,-263 599,-282 706,-282 706,-263 599,-263"/>
<text text-anchor="middle" x="652.5" y="-270" font-family="Helvetica,sans-Serif" font-size="10.00">SComponent/c_xyz.h</text>
</a>
</g>
</g>
<!-- Node14&#45;&gt;Node20 -->
<g id="edge33" class="edge">
<title>Node14&#45;&gt;Node20</title>
<path fill="none" stroke="midnightblue" d="M508.57,-324.48C537.51,-314.22 586.26,-296.96 618.9,-285.4"/>
<polygon fill="midnightblue" stroke="midnightblue" points="620.22,-288.65 628.47,-282.01 617.88,-282.05 620.22,-288.65"/>
</g>
<!-- Node15&#45;&gt;Node6 -->
<g id="edge22" class="edge">
<title>Node15&#45;&gt;Node6</title>
<path fill="none" stroke="midnightblue" d="M387.74,-56.4C365.46,-46.51 335.91,-33.38 314.31,-23.79"/>
<polygon fill="midnightblue" stroke="midnightblue" points="315.56,-20.52 305,-19.66 312.72,-26.91 315.56,-20.52"/>
</g>
<!-- Node16&#45;&gt;Node6 -->
<g id="edge30" class="edge">
<title>Node16&#45;&gt;Node6</title>
<path fill="none" stroke="midnightblue" d="M522.04,-257.48C530.7,-219.59 548.61,-114.09 496.5,-56 475.54,-32.64 391.62,-20.58 336.14,-15.04"/>
<polygon fill="midnightblue" stroke="midnightblue" points="336.42,-11.55 326.13,-14.08 335.75,-18.52 336.42,-11.55"/>
</g>
<!-- Node17 -->
<g id="node17" class="node">
<title>Node17</title>
<g id="a_node17"><a xlink:href="JKRHeap_8h.html" target="_top" xlink:title=" ">
<polygon fill="white" stroke="black" points="321.5,-190.5 321.5,-220.5 457.5,-220.5 457.5,-190.5 321.5,-190.5"/>
<text text-anchor="start" x="329.5" y="-208.5" font-family="Helvetica,sans-Serif" font-size="10.00">JSystem/JKernel/JKRHeap</text>
<text text-anchor="middle" x="389.5" y="-197.5" font-family="Helvetica,sans-Serif" font-size="10.00">/JKRHeap.h</text>
</a>
</g>
</g>
<!-- Node16&#45;&gt;Node17 -->
<g id="edge24" class="edge">
<title>Node16&#45;&gt;Node17</title>
<path fill="none" stroke="midnightblue" d="M490.51,-257.4C471.75,-247.94 446.83,-235.39 426.45,-225.12"/>
<polygon fill="midnightblue" stroke="midnightblue" points="427.94,-221.95 417.44,-220.58 424.79,-228.2 427.94,-221.95"/>
</g>
<!-- Node19 -->
<g id="node19" class="node">
<title>Node19</title>
<g id="a_node19"><a xlink:href="GX_8h.html" target="_top" xlink:title=" ">
<polygon fill="white" stroke="black" points="560,-196 560,-215 611,-215 611,-196 560,-196"/>
<text text-anchor="middle" x="585.5" y="-203" font-family="Helvetica,sans-Serif" font-size="10.00">gx/GX.h</text>
</a>
</g>
</g>
<!-- Node16&#45;&gt;Node19 -->
<g id="edge31" class="edge">
<title>Node16&#45;&gt;Node19</title>
<path fill="none" stroke="midnightblue" d="M533.04,-257.4C543.69,-247.06 558.16,-233.02 569.2,-222.31"/>
<polygon fill="midnightblue" stroke="midnightblue" points="571.8,-224.67 576.54,-215.19 566.92,-219.65 571.8,-224.67"/>
</g>
<!-- Node17&#45;&gt;Node5 -->
<g id="edge29" class="edge">
<title>Node17&#45;&gt;Node5</title>
<path fill="none" stroke="midnightblue" d="M389.5,-220.69C389.5,-253.21 389.5,-333.09 389.5,-369.88"/>
<polygon fill="midnightblue" stroke="midnightblue" points="386,-370.2 389.5,-380.2 393,-370.2 386,-370.2"/>
</g>
<!-- Node17&#45;&gt;Node6 -->
<g id="edge28" class="edge">
<title>Node17&#45;&gt;Node6</title>
<path fill="none" stroke="midnightblue" d="M350.44,-190.41C333.63,-182.34 315.37,-170.47 304.5,-154 279.17,-115.62 280.4,-58.72 283.12,-29.62"/>
<polygon fill="midnightblue" stroke="midnightblue" points="286.61,-29.93 284.23,-19.61 279.65,-29.17 286.61,-29.93"/>
</g>
<!-- Node18 -->
<g id="node18" class="node">
<title>Node18</title>
<g id="a_node18"><a xlink:href="JKRDisposer_8h.html" target="_top" xlink:title=" ">
<polygon fill="white" stroke="black" points="314,-123.5 314,-153.5 465,-153.5 465,-123.5 314,-123.5"/>
<text text-anchor="start" x="322" y="-141.5" font-family="Helvetica,sans-Serif" font-size="10.00">JSystem/JKernel/JKRDisposer</text>
<text text-anchor="middle" x="389.5" y="-130.5" font-family="Helvetica,sans-Serif" font-size="10.00">/JKRDisposer.h</text>
</a>
</g>
</g>
<!-- Node17&#45;&gt;Node18 -->
<g id="edge25" class="edge">
<title>Node17&#45;&gt;Node18</title>
<path fill="none" stroke="midnightblue" d="M389.5,-190.4C389.5,-182.64 389.5,-172.81 389.5,-163.86"/>
<polygon fill="midnightblue" stroke="midnightblue" points="393,-163.58 389.5,-153.58 386,-163.58 393,-163.58"/>
</g>
<!-- Node18&#45;&gt;Node6 -->
<g id="edge27" class="edge">
<title>Node18&#45;&gt;Node6</title>
<path fill="none" stroke="midnightblue" d="M375.51,-123.28C365.93,-113.36 353.1,-99.68 342.5,-87 326.05,-67.33 308.55,-43.52 297.35,-27.85"/>
<polygon fill="midnightblue" stroke="midnightblue" points="300.18,-25.79 291.54,-19.66 294.47,-29.84 300.18,-25.79"/>
</g>
<!-- Node18&#45;&gt;Node15 -->
<g id="edge26" class="edge">
<title>Node18&#45;&gt;Node15</title>
<path fill="none" stroke="midnightblue" d="M396.01,-123.4C399.74,-115.3 404.53,-104.94 408.8,-95.69"/>
<polygon fill="midnightblue" stroke="midnightblue" points="411.99,-97.12 413,-86.58 405.63,-94.19 411.99,-97.12"/>
</g>
<!-- Node19&#45;&gt;Node6 -->
<g id="edge32" class="edge">
<title>Node19&#45;&gt;Node6</title>
<path fill="none" stroke="midnightblue" d="M586.08,-195.87C587.31,-170.23 587.12,-93.97 545.5,-56 515.62,-28.75 403.29,-17.68 336.45,-13.44"/>
<polygon fill="midnightblue" stroke="midnightblue" points="336.32,-9.92 326.13,-12.81 335.9,-16.91 336.32,-9.92"/>
</g>
<!-- Node20&#45;&gt;Node5 -->
<g id="edge36" class="edge">
<title>Node20&#45;&gt;Node5</title>
<path fill="none" stroke="midnightblue" d="M638.84,-282.21C616.04,-296.48 568.46,-325.17 525.5,-344 492.03,-358.67 452.17,-371.33 424.29,-379.45"/>
<polygon fill="midnightblue" stroke="midnightblue" points="423.24,-376.11 414.59,-382.23 425.17,-382.84 423.24,-376.11"/>
</g>
<!-- Node21 -->
<g id="node21" class="node">
<title>Node21</title>
<g id="a_node21"><a xlink:href="c__math_8h.html" target="_top" xlink:title=" ">
<polygon fill="white" stroke="black" points="628.5,-196 628.5,-215 744.5,-215 744.5,-196 628.5,-196"/>
<text text-anchor="middle" x="686.5" y="-203" font-family="Helvetica,sans-Serif" font-size="10.00">SComponent/c_math.h</text>
</a>
</g>
</g>
<!-- Node20&#45;&gt;Node21 -->
<g id="edge34" class="edge">
<title>Node20&#45;&gt;Node21</title>
<path fill="none" stroke="midnightblue" d="M657.09,-262.73C662.23,-252.89 670.72,-236.66 677.26,-224.16"/>
<polygon fill="midnightblue" stroke="midnightblue" points="680.45,-225.61 681.99,-215.13 674.25,-222.37 680.45,-225.61"/>
</g>
<!-- Node21&#45;&gt;Node5 -->
<g id="edge35" class="edge">
<title>Node21&#45;&gt;Node5</title>
<path fill="none" stroke="midnightblue" d="M694.36,-215.06C707.75,-230.73 732.03,-264.56 715.5,-288 681.38,-336.39 501.86,-370.78 424.75,-383.54"/>
<polygon fill="midnightblue" stroke="midnightblue" points="423.88,-380.13 414.57,-385.19 425,-387.04 423.88,-380.13"/>
</g>
<!-- Node22&#45;&gt;Node5 -->
<g id="edge40" class="edge">
<title>Node22&#45;&gt;Node5</title>
<path fill="none" stroke="midnightblue" d="M549.23,-436.47C510.96,-425.58 458.8,-410.73 424.65,-401.01"/>
<polygon fill="midnightblue" stroke="midnightblue" points="425.25,-397.54 414.67,-398.17 423.33,-404.27 425.25,-397.54"/>
</g>
<!-- Node22&#45;&gt;Node20 -->
<g id="edge39" class="edge">
<title>Node22&#45;&gt;Node20</title>
<path fill="none" stroke="midnightblue" d="M602.83,-436.31C612.54,-404.5 636.04,-327.45 646.87,-291.96"/>
<polygon fill="midnightblue" stroke="midnightblue" points="650.22,-292.96 649.79,-282.37 643.53,-290.92 650.22,-292.96"/>
</g>
</g>
</svg>
