<?xml version="1.0" encoding="UTF-8" standalone="no"?>
<!DOCTYPE svg PUBLIC "-//W3C//DTD SVG 1.1//EN"
 "http://www.w3.org/Graphics/SVG/1.1/DTD/svg11.dtd">
<!-- Generated by graphviz version 2.46.0 (20210122.1329)
 -->
<!-- Title: include/d/d_drawlist/d_drawlist.h Pages: 1 -->
<svg width="4800pt" height="251pt"
 viewBox="0.00 0.00 4799.50 251.00" xmlns="http://www.w3.org/2000/svg" xmlns:xlink="http://www.w3.org/1999/xlink">
<g id="graph0" class="graph" transform="scale(1 1) rotate(0) translate(4 247)">
<title>include/d/d_drawlist/d_drawlist.h</title>
<polygon fill="white" stroke="transparent" points="-4,4 -4,-247 4795.5,-247 4795.5,4 -4,4"/>
<!-- Node1 -->
<g id="node1" class="node">
<title>Node1</title>
<g id="a_node1"><a xlink:title=" ">
<polygon fill="#bfbfbf" stroke="black" points="153.5,-212.5 153.5,-242.5 256.5,-242.5 256.5,-212.5 153.5,-212.5"/>
<text text-anchor="start" x="161.5" y="-230.5" font-family="Helvetica,sans-Serif" font-size="10.00">include/d/d_drawlist</text>
<text text-anchor="middle" x="205" y="-219.5" font-family="Helvetica,sans-Serif" font-size="10.00">/d_drawlist.h</text>
</a>
</g>
</g>
<!-- Node2 -->
<g id="node2" class="node">
<title>Node2</title>
<g id="a_node2"><a xlink:href="m__Do__graphic_8cpp.html" target="_top" xlink:title=" ">
<polygon fill="white" stroke="black" points="0,-73 0,-92 142,-92 142,-73 0,-73"/>
<text text-anchor="middle" x="71" y="-80" font-family="Helvetica,sans-Serif" font-size="10.00">src/m_Do/m_Do_graphic.cpp</text>
</a>
</g>
</g>
<!-- Node1&#45;&gt;Node2 -->
<g id="edge1" class="edge">
<title>Node1&#45;&gt;Node2</title>
<path fill="none" stroke="midnightblue" d="M179.36,-205.77C168.96,-196.96 157.06,-186.35 147,-176 118.9,-147.08 89.74,-108.87 77.27,-92.06"/>
<polygon fill="midnightblue" stroke="midnightblue" points="177.4,-208.69 187.32,-212.41 181.88,-203.32 177.4,-208.69"/>
</g>
<!-- Node3 -->
<g id="node3" class="node">
<title>Node3</title>
<g id="a_node3"><a xlink:href="d__com__inf__game_8h.html" target="_top" xlink:title=" ">
<polygon fill="white" stroke="black" points="1889,-140 1889,-170 2035,-170 2035,-140 1889,-140"/>
<text text-anchor="start" x="1897" y="-158" font-family="Helvetica,sans-Serif" font-size="10.00">include/d/d_com/d_com</text>
<text text-anchor="middle" x="1962" y="-147" font-family="Helvetica,sans-Serif" font-size="10.00">_inf_game/d_com_inf_game.h</text>
</a>
</g>
</g>
<!-- Node1&#45;&gt;Node3 -->
<g id="edge2" class="edge">
<title>Node1&#45;&gt;Node3</title>
<path fill="none" stroke="midnightblue" d="M266.97,-224.01C535.57,-213.24 1598.71,-170.58 1888.64,-158.94"/>
<polygon fill="midnightblue" stroke="midnightblue" points="266.48,-220.53 256.63,-224.43 266.76,-227.52 266.48,-220.53"/>
</g>
<!-- Node41 -->
<g id="node41" class="node">
<title>Node41</title>
<g id="a_node41"><a xlink:href="d__file__sel__info_8h.html" target="_top" xlink:title=" ">
<polygon fill="white" stroke="black" points="156,-134.5 156,-175.5 254,-175.5 254,-134.5 156,-134.5"/>
<text text-anchor="start" x="164" y="-163.5" font-family="Helvetica,sans-Serif" font-size="10.00">include/d/d_file/d</text>
<text text-anchor="start" x="164" y="-152.5" font-family="Helvetica,sans-Serif" font-size="10.00">_file_sel_info/d_file</text>
<text text-anchor="middle" x="205" y="-141.5" font-family="Helvetica,sans-Serif" font-size="10.00">_sel_info.h</text>
</a>
</g>
</g>
<!-- Node1&#45;&gt;Node41 -->
<g id="edge46" class="edge">
<title>Node1&#45;&gt;Node41</title>
<path fill="none" stroke="midnightblue" d="M205,-201.98C205,-193.35 205,-183.76 205,-175.59"/>
<polygon fill="midnightblue" stroke="midnightblue" points="201.5,-202.23 205,-212.23 208.5,-202.23 201.5,-202.23"/>
</g>
<!-- Node3&#45;&gt;Node2 -->
<g id="edge28" class="edge">
<title>Node3&#45;&gt;Node2</title>
<path fill="none" stroke="midnightblue" d="M1878.62,-153.07C1569.99,-149.35 492.69,-134.05 151,-98 138.09,-96.64 124.12,-94.38 111.53,-92.05"/>
<polygon fill="midnightblue" stroke="midnightblue" points="1878.8,-156.57 1888.84,-153.19 1878.88,-149.57 1878.8,-156.57"/>
</g>
<!-- Node4 -->
<g id="node4" class="node">
<title>Node4</title>
<g id="a_node4"><a xlink:href="d__attention_8cpp.html" target="_top" xlink:title=" ">
<polygon fill="white" stroke="black" points="226.5,-6 226.5,-25 333.5,-25 333.5,-6 226.5,-6"/>
<text text-anchor="middle" x="280" y="-13" font-family="Helvetica,sans-Serif" font-size="10.00">src/d/d_attention.cpp</text>
</a>
</g>
</g>
<!-- Node3&#45;&gt;Node4 -->
<g id="edge3" class="edge">
<title>Node3&#45;&gt;Node4</title>
<path fill="none" stroke="midnightblue" d="M1878.54,-154.03C1549.62,-153.78 358.01,-149.33 297,-98 275.43,-79.86 276.86,-42.07 278.76,-25.09"/>
<polygon fill="midnightblue" stroke="midnightblue" points="1878.94,-157.53 1888.94,-154.04 1878.95,-150.53 1878.94,-157.53"/>
</g>
<!-- Node5 -->
<g id="node5" class="node">
<title>Node5</title>
<g id="a_node5"><a xlink:href="d__camera_8cpp.html" target="_top" xlink:title=" ">
<polygon fill="white" stroke="black" points="597,-73 597,-92 699,-92 699,-73 597,-73"/>
<text text-anchor="middle" x="648" y="-80" font-family="Helvetica,sans-Serif" font-size="10.00">src/d/d_camera.cpp</text>
</a>
</g>
</g>
<!-- Node3&#45;&gt;Node5 -->
<g id="edge4" class="edge">
<title>Node3&#45;&gt;Node5</title>
<path fill="none" stroke="midnightblue" d="M1878.62,-152.16C1637,-146.54 939.3,-128.08 713,-98 702.46,-96.6 691.1,-94.33 680.87,-92"/>
<polygon fill="midnightblue" stroke="midnightblue" points="1878.66,-155.66 1888.74,-152.4 1878.83,-148.67 1878.66,-155.66"/>
</g>
<!-- Node6 -->
<g id="node6" class="node">
<title>Node6</title>
<g id="a_node6"><a xlink:href="d__com__inf__game_8cpp.html" target="_top" xlink:title=" ">
<polygon fill="white" stroke="black" points="670.5,-0.5 670.5,-30.5 789.5,-30.5 789.5,-0.5 670.5,-0.5"/>
<text text-anchor="start" x="678.5" y="-18.5" font-family="Helvetica,sans-Serif" font-size="10.00">src/d/d_com/d_com_inf</text>
<text text-anchor="middle" x="730" y="-7.5" font-family="Helvetica,sans-Serif" font-size="10.00">_game.cpp</text>
</a>
</g>
</g>
<!-- Node3&#45;&gt;Node6 -->
<g id="edge5" class="edge">
<title>Node3&#45;&gt;Node6</title>
<path fill="none" stroke="midnightblue" d="M1878.93,-152.97C1611.66,-149.28 788.87,-134.96 746,-98 726.78,-81.43 726.42,-49.12 728.08,-30.55"/>
<polygon fill="midnightblue" stroke="midnightblue" points="1878.91,-156.47 1888.96,-153.1 1879.01,-149.47 1878.91,-156.47"/>
</g>
<!-- Node7 -->
<g id="node7" class="node">
<title>Node7</title>
<g id="a_node7"><a xlink:href="d__file__sel__info_8cpp.html" target="_top" xlink:title=" ">
<polygon fill="white" stroke="black" points="160.5,-67.5 160.5,-97.5 249.5,-97.5 249.5,-67.5 160.5,-67.5"/>
<text text-anchor="start" x="168.5" y="-85.5" font-family="Helvetica,sans-Serif" font-size="10.00">src/d/d_file/d_file</text>
<text text-anchor="middle" x="205" y="-74.5" font-family="Helvetica,sans-Serif" font-size="10.00">_sel_info.cpp</text>
</a>
</g>
</g>
<!-- Node3&#45;&gt;Node7 -->
<g id="edge6" class="edge">
<title>Node3&#45;&gt;Node7</title>
<path fill="none" stroke="midnightblue" d="M1878.57,-153.54C1582.25,-151.57 581.28,-141.73 264,-98 259.3,-97.35 254.43,-96.48 249.59,-95.49"/>
<polygon fill="midnightblue" stroke="midnightblue" points="1878.79,-157.05 1888.81,-153.61 1878.84,-150.05 1878.79,-157.05"/>
</g>
<!-- Node8 -->
<g id="node8" class="node">
<title>Node8</title>
<g id="a_node8"><a xlink:href="d__item_8cpp.html" target="_top" xlink:title=" ">
<polygon fill="white" stroke="black" points="814.5,-6 814.5,-25 935.5,-25 935.5,-6 814.5,-6"/>
<text text-anchor="middle" x="875" y="-13" font-family="Helvetica,sans-Serif" font-size="10.00">src/d/d_item/d_item.cpp</text>
</a>
</g>
</g>
<!-- Node3&#45;&gt;Node8 -->
<g id="edge7" class="edge">
<title>Node3&#45;&gt;Node8</title>
<path fill="none" stroke="midnightblue" d="M1878.36,-152.24C1634.01,-146.74 936.11,-128.45 898,-98 875.6,-80.1 873.98,-42.18 874.48,-25.13"/>
<polygon fill="midnightblue" stroke="midnightblue" points="1878.53,-155.74 1888.6,-152.47 1878.68,-148.74 1878.53,-155.74"/>
</g>
<!-- Node9 -->
<g id="node9" class="node">
<title>Node9</title>
<g id="a_node9"><a xlink:href="d__kankyo__rain_8cpp.html" target="_top" xlink:title=" ">
<polygon fill="white" stroke="black" points="907.5,-67.5 907.5,-97.5 1034.5,-97.5 1034.5,-67.5 907.5,-67.5"/>
<text text-anchor="start" x="915.5" y="-85.5" font-family="Helvetica,sans-Serif" font-size="10.00">src/d/d_kankyo/d_kankyo</text>
<text text-anchor="middle" x="971" y="-74.5" font-family="Helvetica,sans-Serif" font-size="10.00">_rain.cpp</text>
</a>
</g>
</g>
<!-- Node3&#45;&gt;Node9 -->
<g id="edge8" class="edge">
<title>Node3&#45;&gt;Node9</title>
<path fill="none" stroke="midnightblue" d="M1878.44,-152.68C1716.7,-149.28 1349.84,-137.52 1044,-98 1040.92,-97.6 1037.78,-97.15 1034.62,-96.66"/>
<polygon fill="midnightblue" stroke="midnightblue" points="1878.73,-156.18 1888.8,-152.89 1878.87,-149.18 1878.73,-156.18"/>
</g>
<!-- Node10 -->
<g id="node10" class="node">
<title>Node10</title>
<g id="a_node10"><a xlink:href="d__kankyo__wether_8cpp.html" target="_top" xlink:title=" ">
<polygon fill="white" stroke="black" points="1052.5,-67.5 1052.5,-97.5 1179.5,-97.5 1179.5,-67.5 1052.5,-67.5"/>
<text text-anchor="start" x="1060.5" y="-85.5" font-family="Helvetica,sans-Serif" font-size="10.00">src/d/d_kankyo/d_kankyo</text>
<text text-anchor="middle" x="1116" y="-74.5" font-family="Helvetica,sans-Serif" font-size="10.00">_wether.cpp</text>
</a>
</g>
</g>
<!-- Node3&#45;&gt;Node10 -->
<g id="edge9" class="edge">
<title>Node3&#45;&gt;Node10</title>
<path fill="none" stroke="midnightblue" d="M1878.58,-151.34C1736.48,-146.06 1438.61,-131.7 1189,-98 1185.93,-97.59 1182.79,-97.12 1179.62,-96.62"/>
<polygon fill="midnightblue" stroke="midnightblue" points="1878.83,-154.85 1888.95,-151.72 1879.09,-147.86 1878.83,-154.85"/>
</g>
<!-- Node11 -->
<g id="node11" class="node">
<title>Node11</title>
<g id="a_node11"><a xlink:href="d__kankyo_8cpp.html" target="_top" xlink:title=" ">
<polygon fill="white" stroke="black" points="1197.5,-73 1197.5,-92 1298.5,-92 1298.5,-73 1197.5,-73"/>
<text text-anchor="middle" x="1248" y="-80" font-family="Helvetica,sans-Serif" font-size="10.00">src/d/d_kankyo.cpp</text>
</a>
</g>
</g>
<!-- Node3&#45;&gt;Node11 -->
<g id="edge10" class="edge">
<title>Node3&#45;&gt;Node11</title>
<path fill="none" stroke="midnightblue" d="M1878.73,-150.92C1753.99,-145.39 1511.49,-131.1 1308,-98 1298.59,-96.47 1288.47,-94.25 1279.27,-92.01"/>
<polygon fill="midnightblue" stroke="midnightblue" points="1878.83,-154.42 1888.97,-151.36 1879.13,-147.43 1878.83,-154.42"/>
</g>
<!-- Node12 -->
<g id="node12" class="node">
<title>Node12</title>
<g id="a_node12"><a xlink:href="d__kantera__icon__meter_8cpp.html" target="_top" xlink:title=" ">
<polygon fill="white" stroke="black" points="1316.5,-67.5 1316.5,-97.5 1423.5,-97.5 1423.5,-67.5 1316.5,-67.5"/>
<text text-anchor="start" x="1324.5" y="-85.5" font-family="Helvetica,sans-Serif" font-size="10.00">src/d/d_kantera_icon</text>
<text text-anchor="middle" x="1370" y="-74.5" font-family="Helvetica,sans-Serif" font-size="10.00">_meter.cpp</text>
</a>
</g>
</g>
<!-- Node3&#45;&gt;Node12 -->
<g id="edge11" class="edge">
<title>Node3&#45;&gt;Node12</title>
<path fill="none" stroke="midnightblue" d="M1878.71,-148.31C1774.14,-140.45 1589.47,-124.19 1433,-98 1429.9,-97.48 1426.73,-96.9 1423.53,-96.28"/>
<polygon fill="midnightblue" stroke="midnightblue" points="1878.66,-151.81 1888.89,-149.07 1879.18,-144.83 1878.66,-151.81"/>
</g>
<!-- Node13 -->
<g id="node13" class="node">
<title>Node13</title>
<g id="a_node13"><a xlink:href="d__kyeff_8cpp.html" target="_top" xlink:title=" ">
<polygon fill="white" stroke="black" points="1441.5,-73 1441.5,-92 1554.5,-92 1554.5,-73 1441.5,-73"/>
<text text-anchor="middle" x="1498" y="-80" font-family="Helvetica,sans-Serif" font-size="10.00">src/d/d_ky/d_kyeff.cpp</text>
</a>
</g>
</g>
<!-- Node3&#45;&gt;Node13 -->
<g id="edge12" class="edge">
<title>Node3&#45;&gt;Node13</title>
<path fill="none" stroke="midnightblue" d="M1878.64,-144.15C1797.9,-134.18 1672.17,-117.46 1564,-98 1554.42,-96.28 1544.11,-94.15 1534.56,-92.05"/>
<polygon fill="midnightblue" stroke="midnightblue" points="1878.39,-147.65 1888.74,-145.4 1879.24,-140.7 1878.39,-147.65"/>
</g>
<!-- Node14 -->
<g id="node14" class="node">
<title>Node14</title>
<g id="a_node14"><a xlink:href="d__meter__button_8cpp.html" target="_top" xlink:title=" ">
<polygon fill="white" stroke="black" points="1572.5,-67.5 1572.5,-97.5 1687.5,-97.5 1687.5,-67.5 1572.5,-67.5"/>
<text text-anchor="start" x="1580.5" y="-85.5" font-family="Helvetica,sans-Serif" font-size="10.00">src/d/d_meter/d_meter</text>
<text text-anchor="middle" x="1630" y="-74.5" font-family="Helvetica,sans-Serif" font-size="10.00">_button.cpp</text>
</a>
</g>
</g>
<!-- Node3&#45;&gt;Node14 -->
<g id="edge13" class="edge">
<title>Node3&#45;&gt;Node14</title>
<path fill="none" stroke="midnightblue" d="M1885.29,-137.89C1832.36,-126.75 1760.39,-111.56 1697,-98 1693.97,-97.35 1690.87,-96.69 1687.74,-96.01"/>
<polygon fill="midnightblue" stroke="midnightblue" points="1884.77,-141.36 1895.27,-139.99 1886.21,-134.51 1884.77,-141.36"/>
</g>
<!-- Node15 -->
<g id="node15" class="node">
<title>Node15</title>
<g id="a_node15"><a xlink:href="d__meter__haihai_8cpp.html" target="_top" xlink:title=" ">
<polygon fill="white" stroke="black" points="1705.5,-67.5 1705.5,-97.5 1820.5,-97.5 1820.5,-67.5 1705.5,-67.5"/>
<text text-anchor="start" x="1713.5" y="-85.5" font-family="Helvetica,sans-Serif" font-size="10.00">src/d/d_meter/d_meter</text>
<text text-anchor="middle" x="1763" y="-74.5" font-family="Helvetica,sans-Serif" font-size="10.00">_haihai.cpp</text>
</a>
</g>
</g>
<!-- Node3&#45;&gt;Node15 -->
<g id="edge14" class="edge">
<title>Node3&#45;&gt;Node15</title>
<path fill="none" stroke="midnightblue" d="M1912.5,-136.46C1878.62,-124.46 1834.29,-108.76 1802.72,-97.57"/>
<polygon fill="midnightblue" stroke="midnightblue" points="1911.61,-139.86 1922.21,-139.9 1913.95,-133.26 1911.61,-139.86"/>
</g>
<!-- Node16 -->
<g id="node16" class="node">
<title>Node16</title>
<g id="a_node16"><a xlink:href="d__meter__hakusha_8cpp.html" target="_top" xlink:title=" ">
<polygon fill="white" stroke="black" points="1838.5,-67.5 1838.5,-97.5 1953.5,-97.5 1953.5,-67.5 1838.5,-67.5"/>
<text text-anchor="start" x="1846.5" y="-85.5" font-family="Helvetica,sans-Serif" font-size="10.00">src/d/d_meter/d_meter</text>
<text text-anchor="middle" x="1896" y="-74.5" font-family="Helvetica,sans-Serif" font-size="10.00">_hakusha.cpp</text>
</a>
</g>
</g>
<!-- Node3&#45;&gt;Node16 -->
<g id="edge15" class="edge">
<title>Node3&#45;&gt;Node16</title>
<path fill="none" stroke="midnightblue" d="M1941.75,-132.36C1931.21,-121.11 1918.64,-107.68 1909.34,-97.75"/>
<polygon fill="midnightblue" stroke="midnightblue" points="1939.25,-134.83 1948.64,-139.73 1944.36,-130.04 1939.25,-134.83"/>
</g>
<!-- Node17 -->
<g id="node17" class="node">
<title>Node17</title>
<g id="a_node17"><a xlink:href="d__meter__map_8cpp.html" target="_top" xlink:title=" ">
<polygon fill="white" stroke="black" points="1971.5,-67.5 1971.5,-97.5 2086.5,-97.5 2086.5,-67.5 1971.5,-67.5"/>
<text text-anchor="start" x="1979.5" y="-85.5" font-family="Helvetica,sans-Serif" font-size="10.00">src/d/d_meter/d_meter</text>
<text text-anchor="middle" x="2029" y="-74.5" font-family="Helvetica,sans-Serif" font-size="10.00">_map.cpp</text>
</a>
</g>
</g>
<!-- Node3&#45;&gt;Node17 -->
<g id="edge16" class="edge">
<title>Node3&#45;&gt;Node17</title>
<path fill="none" stroke="midnightblue" d="M1982.56,-132.36C1993.25,-121.11 2006.02,-107.68 2015.46,-97.75"/>
<polygon fill="midnightblue" stroke="midnightblue" points="1979.91,-130.07 1975.56,-139.73 1984.98,-134.9 1979.91,-130.07"/>
</g>
<!-- Node18 -->
<g id="node18" class="node">
<title>Node18</title>
<g id="a_node18"><a xlink:href="d__meter__string_8cpp.html" target="_top" xlink:title=" ">
<polygon fill="white" stroke="black" points="2104.5,-67.5 2104.5,-97.5 2219.5,-97.5 2219.5,-67.5 2104.5,-67.5"/>
<text text-anchor="start" x="2112.5" y="-85.5" font-family="Helvetica,sans-Serif" font-size="10.00">src/d/d_meter/d_meter</text>
<text text-anchor="middle" x="2162" y="-74.5" font-family="Helvetica,sans-Serif" font-size="10.00">_string.cpp</text>
</a>
</g>
</g>
<!-- Node3&#45;&gt;Node18 -->
<g id="edge17" class="edge">
<title>Node3&#45;&gt;Node18</title>
<path fill="none" stroke="midnightblue" d="M2011.75,-136.46C2045.8,-124.46 2090.35,-108.76 2122.08,-97.57"/>
<polygon fill="midnightblue" stroke="midnightblue" points="2010.26,-133.28 2001.99,-139.9 2012.59,-139.88 2010.26,-133.28"/>
</g>
<!-- Node19 -->
<g id="node19" class="node">
<title>Node19</title>
<g id="a_node19"><a xlink:href="d__meter2__draw_8cpp.html" target="_top" xlink:title=" ">
<polygon fill="white" stroke="black" points="2237.5,-67.5 2237.5,-97.5 2362.5,-97.5 2362.5,-67.5 2237.5,-67.5"/>
<text text-anchor="start" x="2245.5" y="-85.5" font-family="Helvetica,sans-Serif" font-size="10.00">src/d/d_meter2/d_meter2</text>
<text text-anchor="middle" x="2300" y="-74.5" font-family="Helvetica,sans-Serif" font-size="10.00">_draw.cpp</text>
</a>
</g>
</g>
<!-- Node3&#45;&gt;Node19 -->
<g id="edge18" class="edge">
<title>Node3&#45;&gt;Node19</title>
<path fill="none" stroke="midnightblue" d="M2038.98,-137.94C2098.97,-125.43 2181.2,-108.28 2237.23,-96.59"/>
<polygon fill="midnightblue" stroke="midnightblue" points="2038.26,-134.52 2029.18,-139.99 2039.69,-141.37 2038.26,-134.52"/>
</g>
<!-- Node20 -->
<g id="node20" class="node">
<title>Node20</title>
<g id="a_node20"><a xlink:href="d__meter2__info_8cpp.html" target="_top" xlink:title=" ">
<polygon fill="white" stroke="black" points="2380.5,-67.5 2380.5,-97.5 2505.5,-97.5 2505.5,-67.5 2380.5,-67.5"/>
<text text-anchor="start" x="2388.5" y="-85.5" font-family="Helvetica,sans-Serif" font-size="10.00">src/d/d_meter2/d_meter2</text>
<text text-anchor="middle" x="2443" y="-74.5" font-family="Helvetica,sans-Serif" font-size="10.00">_info.cpp</text>
</a>
</g>
</g>
<!-- Node3&#45;&gt;Node20 -->
<g id="edge19" class="edge">
<title>Node3&#45;&gt;Node20</title>
<path fill="none" stroke="midnightblue" d="M2045.3,-144.25C2128.32,-134.15 2259.31,-117.18 2372,-98 2374.73,-97.54 2377.51,-97.04 2380.32,-96.53"/>
<polygon fill="midnightblue" stroke="midnightblue" points="2044.68,-140.8 2035.17,-145.48 2045.52,-147.75 2044.68,-140.8"/>
</g>
<!-- Node21 -->
<g id="node21" class="node">
<title>Node21</title>
<g id="a_node21"><a xlink:href="d__meter2_8cpp.html" target="_top" xlink:title=" ">
<polygon fill="white" stroke="black" points="2524,-73 2524,-92 2624,-92 2624,-73 2524,-73"/>
<text text-anchor="middle" x="2574" y="-80" font-family="Helvetica,sans-Serif" font-size="10.00">src/d/d_meter2.cpp</text>
</a>
</g>
</g>
<!-- Node3&#45;&gt;Node21 -->
<g id="edge20" class="edge">
<title>Node3&#45;&gt;Node21</title>
<path fill="none" stroke="midnightblue" d="M2045.6,-149.19C2154.32,-142.11 2349.88,-126.51 2515,-98 2524.04,-96.44 2533.75,-94.26 2542.63,-92.07"/>
<polygon fill="midnightblue" stroke="midnightblue" points="2045.1,-145.72 2035.35,-149.85 2045.55,-152.7 2045.1,-145.72"/>
</g>
<!-- Node22 -->
<g id="node22" class="node">
<title>Node22</title>
<g id="a_node22"><a xlink:href="d__save_8cpp.html" target="_top" xlink:title=" ">
<polygon fill="white" stroke="black" points="2642.5,-73 2642.5,-92 2767.5,-92 2767.5,-73 2642.5,-73"/>
<text text-anchor="middle" x="2705" y="-80" font-family="Helvetica,sans-Serif" font-size="10.00">src/d/d_save/d_save.cpp</text>
</a>
</g>
</g>
<!-- Node3&#45;&gt;Node22 -->
<g id="edge21" class="edge">
<title>Node3&#45;&gt;Node22</title>
<path fill="none" stroke="midnightblue" d="M2045.35,-150.14C2172.56,-143.56 2422.56,-127.87 2633,-98 2644.11,-96.42 2656.09,-94.22 2667.03,-92"/>
<polygon fill="midnightblue" stroke="midnightblue" points="2045.1,-146.65 2035.29,-150.66 2045.45,-153.64 2045.1,-146.65"/>
</g>
<!-- Node23 -->
<g id="node23" class="node">
<title>Node23</title>
<g id="a_node23"><a xlink:href="d__save__HIO_8cpp.html" target="_top" xlink:title=" ">
<polygon fill="white" stroke="black" points="2785.5,-67.5 2785.5,-97.5 2892.5,-97.5 2892.5,-67.5 2785.5,-67.5"/>
<text text-anchor="start" x="2793.5" y="-85.5" font-family="Helvetica,sans-Serif" font-size="10.00">src/d/d_save/d_save</text>
<text text-anchor="middle" x="2839" y="-74.5" font-family="Helvetica,sans-Serif" font-size="10.00">_HIO.cpp</text>
</a>
</g>
</g>
<!-- Node3&#45;&gt;Node23 -->
<g id="edge22" class="edge">
<title>Node3&#45;&gt;Node23</title>
<path fill="none" stroke="midnightblue" d="M2045.58,-152.69C2193.73,-149.39 2511.8,-137.86 2777,-98 2779.73,-97.59 2782.52,-97.12 2785.33,-96.61"/>
<polygon fill="midnightblue" stroke="midnightblue" points="2045.13,-149.2 2035.21,-152.92 2045.28,-156.2 2045.13,-149.2"/>
</g>
<!-- Node24 -->
<g id="node24" class="node">
<title>Node24</title>
<g id="a_node24"><a xlink:href="d__stage_8cpp.html" target="_top" xlink:title=" ">
<polygon fill="white" stroke="black" points="2911,-73 2911,-92 3005,-92 3005,-73 2911,-73"/>
<text text-anchor="middle" x="2958" y="-80" font-family="Helvetica,sans-Serif" font-size="10.00">src/d/d_stage.cpp</text>
</a>
</g>
</g>
<!-- Node3&#45;&gt;Node24 -->
<g id="edge23" class="edge">
<title>Node3&#45;&gt;Node24</title>
<path fill="none" stroke="midnightblue" d="M2045.1,-154.43C2209.71,-154.11 2588.42,-147.46 2902,-98 2911.03,-96.58 2920.71,-94.33 2929.45,-92.03"/>
<polygon fill="midnightblue" stroke="midnightblue" points="2045.04,-150.93 2035.05,-154.45 2045.05,-157.93 2045.04,-150.93"/>
</g>
<!-- Node25 -->
<g id="node25" class="node">
<title>Node25</title>
<g id="a_node25"><a xlink:href="f__pc__manager_8cpp.html" target="_top" xlink:title=" ">
<polygon fill="white" stroke="black" points="493,-6 493,-25 633,-25 633,-6 493,-6"/>
<text text-anchor="middle" x="563" y="-13" font-family="Helvetica,sans-Serif" font-size="10.00">src/f/f_pc/f_pc_manager.cpp</text>
</a>
</g>
</g>
<!-- Node3&#45;&gt;Node25 -->
<g id="edge24" class="edge">
<title>Node3&#45;&gt;Node25</title>
<path fill="none" stroke="midnightblue" d="M1878.84,-153.24C1589.16,-150.26 639.23,-137.51 588,-98 565.15,-80.38 562.6,-42.31 562.69,-25.17"/>
<polygon fill="midnightblue" stroke="midnightblue" points="1878.83,-156.74 1888.86,-153.34 1878.9,-149.74 1878.83,-156.74"/>
</g>
<!-- Node26 -->
<g id="node26" class="node">
<title>Node26</title>
<g id="a_node26"><a xlink:href="m__Do__audio_8cpp.html" target="_top" xlink:title=" ">
<polygon fill="white" stroke="black" points="3023,-73 3023,-92 3157,-92 3157,-73 3023,-73"/>
<text text-anchor="middle" x="3090" y="-80" font-family="Helvetica,sans-Serif" font-size="10.00">src/m_Do/m_Do_audio.cpp</text>
</a>
</g>
</g>
<!-- Node3&#45;&gt;Node26 -->
<g id="edge25" class="edge">
<title>Node3&#45;&gt;Node26</title>
<path fill="none" stroke="midnightblue" d="M2045.41,-153.39C2223.8,-151.24 2655.34,-141.56 3014,-98 3026,-96.54 3038.96,-94.32 3050.71,-92.05"/>
<polygon fill="midnightblue" stroke="midnightblue" points="2045.27,-149.89 2035.31,-153.5 2045.35,-156.89 2045.27,-149.89"/>
</g>
<!-- Node27 -->
<g id="node27" class="node">
<title>Node27</title>
<g id="a_node27"><a xlink:href="m__Do__ext_8cpp.html" target="_top" xlink:title=" ">
<polygon fill="white" stroke="black" points="3175.5,-73 3175.5,-92 3298.5,-92 3298.5,-73 3175.5,-73"/>
<text text-anchor="middle" x="3237" y="-80" font-family="Helvetica,sans-Serif" font-size="10.00">src/m_Do/m_Do_ext.cpp</text>
</a>
</g>
</g>
<!-- Node3&#45;&gt;Node27 -->
<g id="edge26" class="edge">
<title>Node3&#45;&gt;Node27</title>
<path fill="none" stroke="midnightblue" d="M2045.52,-154.56C2241.82,-154.89 2747.55,-150.14 3166,-98 3177.36,-96.58 3189.62,-94.34 3200.69,-92.04"/>
<polygon fill="midnightblue" stroke="midnightblue" points="2045.29,-151.05 2035.29,-154.53 2045.28,-158.05 2045.29,-151.05"/>
</g>
<!-- Node28 -->
<g id="node28" class="node">
<title>Node28</title>
<g id="a_node28"><a xlink:href="m__Do__lib_8cpp.html" target="_top" xlink:title=" ">
<polygon fill="white" stroke="black" points="3317,-73 3317,-92 3437,-92 3437,-73 3317,-73"/>
<text text-anchor="middle" x="3377" y="-80" font-family="Helvetica,sans-Serif" font-size="10.00">src/m_Do/m_Do_lib.cpp</text>
</a>
</g>
</g>
<!-- Node3&#45;&gt;Node28 -->
<g id="edge27" class="edge">
<title>Node3&#45;&gt;Node28</title>
<path fill="none" stroke="midnightblue" d="M2045.6,-152.34C2299.93,-146.99 3061.93,-128.76 3308,-98 3319.17,-96.6 3331.23,-94.34 3342.09,-92.01"/>
<polygon fill="midnightblue" stroke="midnightblue" points="2045.24,-148.84 2035.32,-152.55 2045.39,-155.84 2045.24,-148.84"/>
</g>
<!-- Node29 -->
<g id="node29" class="node">
<title>Node29</title>
<g id="a_node29"><a xlink:href="m__Do__machine__exception_8cpp.html" target="_top" xlink:title=" ">
<polygon fill="white" stroke="black" points="3455.5,-67.5 3455.5,-97.5 3584.5,-97.5 3584.5,-67.5 3455.5,-67.5"/>
<text text-anchor="start" x="3463.5" y="-85.5" font-family="Helvetica,sans-Serif" font-size="10.00">src/m_Do/m_Do_machine</text>
<text text-anchor="middle" x="3520" y="-74.5" font-family="Helvetica,sans-Serif" font-size="10.00">_exception.cpp</text>
</a>
</g>
</g>
<!-- Node3&#45;&gt;Node29 -->
<g id="edge29" class="edge">
<title>Node3&#45;&gt;Node29</title>
<path fill="none" stroke="midnightblue" d="M2045.2,-152.57C2316.14,-147.63 3171.5,-129.88 3446,-98 3448.99,-97.65 3452.04,-97.25 3455.12,-96.81"/>
<polygon fill="midnightblue" stroke="midnightblue" points="2044.97,-149.07 2035.04,-152.75 2045.1,-156.07 2044.97,-149.07"/>
</g>
<!-- Node30 -->
<g id="node30" class="node">
<title>Node30</title>
<g id="a_node30"><a xlink:href="m__Do__main_8cpp.html" target="_top" xlink:title=" ">
<polygon fill="white" stroke="black" points="3602.5,-73 3602.5,-92 3733.5,-92 3733.5,-73 3602.5,-73"/>
<text text-anchor="middle" x="3668" y="-80" font-family="Helvetica,sans-Serif" font-size="10.00">src/m_Do/m_Do_main.cpp</text>
</a>
</g>
</g>
<!-- Node3&#45;&gt;Node30 -->
<g id="edge30" class="edge">
<title>Node3&#45;&gt;Node30</title>
<path fill="none" stroke="midnightblue" d="M2045.49,-152.89C2334.21,-148.79 3289.34,-132.85 3594,-98 3605.97,-96.63 3618.89,-94.37 3630.53,-92.04"/>
<polygon fill="midnightblue" stroke="midnightblue" points="2045.04,-149.4 2035.09,-153.04 2045.14,-156.4 2045.04,-149.4"/>
</g>
<!-- Node31 -->
<g id="node31" class="node">
<title>Node31</title>
<g id="a_node31"><a xlink:href="m__Do__MemCardRWmng_8cpp.html" target="_top" xlink:title=" ">
<polygon fill="white" stroke="black" points="3751.5,-73 3751.5,-92 3938.5,-92 3938.5,-73 3751.5,-73"/>
<text text-anchor="middle" x="3845" y="-80" font-family="Helvetica,sans-Serif" font-size="10.00">src/m_Do/m_Do_MemCardRWmng.cpp</text>
</a>
</g>
</g>
<!-- Node3&#45;&gt;Node31 -->
<g id="edge31" class="edge">
<title>Node3&#45;&gt;Node31</title>
<path fill="none" stroke="midnightblue" d="M2045.4,-154.62C2300.24,-155.84 3090.94,-154.43 3743,-98 3759.31,-96.59 3776.99,-94.33 3792.97,-92.02"/>
<polygon fill="midnightblue" stroke="midnightblue" points="2045.13,-151.12 2035.12,-154.57 2045.1,-158.12 2045.13,-151.12"/>
</g>
<!-- Node32 -->
<g id="node32" class="node">
<title>Node32</title>
<g id="a_node32"><a xlink:href="Z2EnvSeMgr_8cpp.html" target="_top" xlink:title=" ">
<polygon fill="white" stroke="black" points="3956.5,-73 3956.5,-92 4117.5,-92 4117.5,-73 3956.5,-73"/>
<text text-anchor="middle" x="4037" y="-80" font-family="Helvetica,sans-Serif" font-size="10.00">libs/Z2AudioLib/Z2EnvSeMgr.cpp</text>
</a>
</g>
</g>
<!-- Node3&#45;&gt;Node32 -->
<g id="edge32" class="edge">
<title>Node3&#45;&gt;Node32</title>
<path fill="none" stroke="midnightblue" d="M2045.6,-153.13C2373.19,-149.49 3569.99,-133.96 3948,-98 3962.34,-96.64 3977.86,-94.38 3991.87,-92.05"/>
<polygon fill="midnightblue" stroke="midnightblue" points="2045.2,-149.63 2035.24,-153.24 2045.28,-156.63 2045.2,-149.63"/>
</g>
<!-- Node33 -->
<g id="node33" class="node">
<title>Node33</title>
<g id="a_node33"><a xlink:href="Z2LinkMgr_8cpp.html" target="_top" xlink:title=" ">
<polygon fill="white" stroke="black" points="4136,-73 4136,-92 4288,-92 4288,-73 4136,-73"/>
<text text-anchor="middle" x="4212" y="-80" font-family="Helvetica,sans-Serif" font-size="10.00">libs/Z2AudioLib/Z2LinkMgr.cpp</text>
</a>
</g>
</g>
<!-- Node3&#45;&gt;Node33 -->
<g id="edge33" class="edge">
<title>Node3&#45;&gt;Node33</title>
<path fill="none" stroke="midnightblue" d="M2045.28,-153.44C2390.7,-150.87 3711.96,-138.56 4127,-98 4140.86,-96.65 4155.86,-94.36 4169.36,-92"/>
<polygon fill="midnightblue" stroke="midnightblue" points="2045.08,-149.94 2035.11,-153.52 2045.13,-156.94 2045.08,-149.94"/>
</g>
<!-- Node34 -->
<g id="node34" class="node">
<title>Node34</title>
<g id="a_node34"><a xlink:href="Z2SceneMgr_8cpp.html" target="_top" xlink:title=" ">
<polygon fill="white" stroke="black" points="4306.5,-73 4306.5,-92 4467.5,-92 4467.5,-73 4306.5,-73"/>
<text text-anchor="middle" x="4387" y="-80" font-family="Helvetica,sans-Serif" font-size="10.00">libs/Z2AudioLib/Z2SceneMgr.cpp</text>
</a>
</g>
</g>
<!-- Node3&#45;&gt;Node34 -->
<g id="edge34" class="edge">
<title>Node3&#45;&gt;Node34</title>
<path fill="none" stroke="midnightblue" d="M2045.14,-153.52C2406.96,-151.2 3846.44,-139.5 4297,-98 4311.66,-96.65 4327.54,-94.37 4341.83,-92.01"/>
<polygon fill="midnightblue" stroke="midnightblue" points="2044.98,-150.02 2035,-153.59 2045.03,-157.02 2044.98,-150.02"/>
</g>
<!-- Node35 -->
<g id="node35" class="node">
<title>Node35</title>
<g id="a_node35"><a xlink:href="Z2SoundMgr_8cpp.html" target="_top" xlink:title=" ">
<polygon fill="white" stroke="black" points="4485.5,-73 4485.5,-92 4646.5,-92 4646.5,-73 4485.5,-73"/>
<text text-anchor="middle" x="4566" y="-80" font-family="Helvetica,sans-Serif" font-size="10.00">libs/Z2AudioLib/Z2SoundMgr.cpp</text>
</a>
</g>
</g>
<!-- Node3&#45;&gt;Node35 -->
<g id="edge35" class="edge">
<title>Node3&#45;&gt;Node35</title>
<path fill="none" stroke="midnightblue" d="M2045.24,-153.71C2424.22,-152.13 3989.06,-142.96 4477,-98 4491.5,-96.66 4507.21,-94.39 4521.34,-92.02"/>
<polygon fill="midnightblue" stroke="midnightblue" points="2045.16,-150.21 2035.17,-153.75 2045.18,-157.21 2045.16,-150.21"/>
</g>
<!-- Node36 -->
<g id="node36" class="node">
<title>Node36</title>
<g id="a_node36"><a xlink:href="Z2StatusMgr_8cpp.html" target="_top" xlink:title=" ">
<polygon fill="white" stroke="black" points="4664.5,-67.5 4664.5,-97.5 4791.5,-97.5 4791.5,-67.5 4664.5,-67.5"/>
<text text-anchor="start" x="4672.5" y="-85.5" font-family="Helvetica,sans-Serif" font-size="10.00">libs/Z2AudioLib/Z2Status</text>
<text text-anchor="middle" x="4728" y="-74.5" font-family="Helvetica,sans-Serif" font-size="10.00">Mgr.cpp</text>
</a>
</g>
</g>
<!-- Node3&#45;&gt;Node36 -->
<g id="edge36" class="edge">
<title>Node3&#45;&gt;Node36</title>
<path fill="none" stroke="midnightblue" d="M2045.28,-154.27C2440.76,-155.22 4131.72,-155.78 4656,-98 4658.79,-97.69 4661.63,-97.33 4664.49,-96.93"/>
<polygon fill="midnightblue" stroke="midnightblue" points="2045.08,-150.76 2035.07,-154.24 2045.06,-157.76 2045.08,-150.76"/>
</g>
<!-- Node37 -->
<g id="node37" class="node">
<title>Node37</title>
<g id="a_node37"><a xlink:href="d__a__alink_8h.html" target="_top" xlink:title=" ">
<polygon fill="white" stroke="black" points="306.5,-67.5 306.5,-97.5 425.5,-97.5 425.5,-67.5 306.5,-67.5"/>
<text text-anchor="start" x="314.5" y="-85.5" font-family="Helvetica,sans-Serif" font-size="10.00">include/d/d_a/d_a_alink</text>
<text text-anchor="middle" x="366" y="-74.5" font-family="Helvetica,sans-Serif" font-size="10.00">/d_a_alink.h</text>
</a>
</g>
</g>
<!-- Node3&#45;&gt;Node37 -->
<g id="edge37" class="edge">
<title>Node3&#45;&gt;Node37</title>
<path fill="none" stroke="midnightblue" d="M1878.23,-152.84C1601.33,-148.73 717.01,-133.09 434,-98 431.24,-97.66 428.44,-97.26 425.6,-96.82"/>
<polygon fill="midnightblue" stroke="midnightblue" points="1878.56,-156.35 1888.61,-153 1878.66,-149.35 1878.56,-156.35"/>
</g>
<!-- Node39 -->
<g id="node39" class="node">
<title>Node39</title>
<g id="a_node39"><a xlink:href="d__item_8h.html" target="_top" xlink:title=" ">
<polygon fill="white" stroke="black" points="755,-67.5 755,-97.5 851,-97.5 851,-67.5 755,-67.5"/>
<text text-anchor="start" x="763" y="-85.5" font-family="Helvetica,sans-Serif" font-size="10.00">include/d/d_item/d</text>
<text text-anchor="middle" x="803" y="-74.5" font-family="Helvetica,sans-Serif" font-size="10.00">_item/d_item.h</text>
</a>
</g>
</g>
<!-- Node3&#45;&gt;Node39 -->
<g id="edge40" class="edge">
<title>Node3&#45;&gt;Node39</title>
<path fill="none" stroke="midnightblue" d="M1878.58,-154.81C1694.59,-155.48 1240.5,-151.06 865,-98 860.51,-97.37 855.87,-96.56 851.24,-95.66"/>
<polygon fill="midnightblue" stroke="midnightblue" points="1878.73,-158.31 1888.72,-154.76 1878.7,-151.31 1878.73,-158.31"/>
</g>
<!-- Node40 -->
<g id="node40" class="node">
<title>Node40</title>
<g id="a_node40"><a xlink:href="f__pc__manager_8h.html" target="_top" xlink:title=" ">
<polygon fill="white" stroke="black" points="443.5,-67.5 443.5,-97.5 540.5,-97.5 540.5,-67.5 443.5,-67.5"/>
<text text-anchor="start" x="451.5" y="-85.5" font-family="Helvetica,sans-Serif" font-size="10.00">include/f/f_pc/f_pc</text>
<text text-anchor="middle" x="492" y="-74.5" font-family="Helvetica,sans-Serif" font-size="10.00">_manager.h</text>
</a>
</g>
</g>
<!-- Node3&#45;&gt;Node40 -->
<g id="edge43" class="edge">
<title>Node3&#45;&gt;Node40</title>
<path fill="none" stroke="midnightblue" d="M1878.65,-152.72C1616.87,-148.39 813.24,-132.55 555,-98 550.33,-97.37 545.49,-96.56 540.67,-95.65"/>
<polygon fill="midnightblue" stroke="midnightblue" points="1878.79,-156.23 1888.85,-152.89 1878.91,-149.23 1878.79,-156.23"/>
</g>
<!-- Node37&#45;&gt;Node4 -->
<g id="edge38" class="edge">
<title>Node37&#45;&gt;Node4</title>
<path fill="none" stroke="midnightblue" d="M339.33,-61.34C323.28,-49.21 303.67,-34.39 291.5,-25.19"/>
<polygon fill="midnightblue" stroke="midnightblue" points="337.25,-64.16 347.34,-67.4 341.47,-58.57 337.25,-64.16"/>
</g>
<!-- Node38 -->
<g id="node38" class="node">
<title>Node38</title>
<g id="a_node38"><a xlink:href="d__a__alink_8cpp.html" target="_top" xlink:title=" ">
<polygon fill="white" stroke="black" points="354.5,-6 354.5,-25 473.5,-25 473.5,-6 354.5,-6"/>
<text text-anchor="middle" x="414" y="-13" font-family="Helvetica,sans-Serif" font-size="10.00">src/d/d_a/d_a_alink.cpp</text>
</a>
</g>
</g>
<!-- Node37&#45;&gt;Node38 -->
<g id="edge39" class="edge">
<title>Node37&#45;&gt;Node38</title>
<path fill="none" stroke="midnightblue" d="M382.38,-59.32C391.04,-47.6 401.16,-33.88 407.58,-25.19"/>
<polygon fill="midnightblue" stroke="midnightblue" points="379.54,-57.27 376.42,-67.4 385.17,-61.43 379.54,-57.27"/>
</g>
<!-- Node39&#45;&gt;Node6 -->
<g id="edge41" class="edge">
<title>Node39&#45;&gt;Node6</title>
<path fill="none" stroke="midnightblue" d="M779.53,-60.6C768.5,-50.78 755.66,-39.34 745.81,-30.58"/>
<polygon fill="midnightblue" stroke="midnightblue" points="777.36,-63.36 787.16,-67.4 782.02,-58.13 777.36,-63.36"/>
</g>
<!-- Node39&#45;&gt;Node8 -->
<g id="edge42" class="edge">
<title>Node39&#45;&gt;Node8</title>
<path fill="none" stroke="midnightblue" d="M826.07,-60.67C839.36,-48.67 855.37,-34.22 865.37,-25.19"/>
<polygon fill="midnightblue" stroke="midnightblue" points="823.7,-58.1 818.62,-67.4 828.39,-63.29 823.7,-58.1"/>
</g>
<!-- Node40&#45;&gt;Node25 -->
<g id="edge44" class="edge">
<title>Node40&#45;&gt;Node25</title>
<path fill="none" stroke="midnightblue" d="M515.12,-60.34C528.15,-48.4 543.74,-34.14 553.5,-25.19"/>
<polygon fill="midnightblue" stroke="midnightblue" points="512.42,-58.06 507.41,-67.4 517.15,-63.22 512.42,-58.06"/>
</g>
<!-- Node40&#45;&gt;Node38 -->
<g id="edge45" class="edge">
<title>Node40&#45;&gt;Node38</title>
<path fill="none" stroke="midnightblue" d="M467.01,-60.67C452.6,-48.67 435.26,-34.22 424.43,-25.19"/>
<polygon fill="midnightblue" stroke="midnightblue" points="465.15,-63.68 475.08,-67.4 469.63,-58.31 465.15,-63.68"/>
</g>
<!-- Node41&#45;&gt;Node7 -->
<g id="edge47" class="edge">
<title>Node41&#45;&gt;Node7</title>
<path fill="none" stroke="midnightblue" d="M205,-124.08C205,-115.01 205,-105.45 205,-97.89"/>
<polygon fill="midnightblue" stroke="midnightblue" points="201.5,-124.36 205,-134.36 208.5,-124.36 201.5,-124.36"/>
</g>
</g>
</svg>
