<?xml version="1.0" encoding="UTF-8" standalone="no"?>
<!DOCTYPE svg PUBLIC "-//W3C//DTD SVG 1.1//EN"
 "http://www.w3.org/Graphics/SVG/1.1/DTD/svg11.dtd">
<!-- Generated by graphviz version 2.46.1 (20210215.1649)
 -->
<!-- Title: include/d/d_drawlist/d_drawlist.h Pages: 1 -->
<svg width="5652pt" height="318pt"
 viewBox="0.00 0.00 5651.50 318.00" xmlns="http://www.w3.org/2000/svg" xmlns:xlink="http://www.w3.org/1999/xlink">
<g id="graph0" class="graph" transform="scale(1 1) rotate(0) translate(4 314)">
<title>include/d/d_drawlist/d_drawlist.h</title>
<polygon fill="white" stroke="transparent" points="-4,4 -4,-314 5647.5,-314 5647.5,4 -4,4"/>
<!-- Node1 -->
<g id="node1" class="node">
<title>Node1</title>
<g id="a_node1"><a xlink:title=" ">
<polygon fill="#bfbfbf" stroke="black" points="153.5,-279.5 153.5,-309.5 256.5,-309.5 256.5,-279.5 153.5,-279.5"/>
<text text-anchor="start" x="161.5" y="-297.5" font-family="Helvetica,sans-Serif" font-size="10.00">include/d/d_drawlist</text>
<text text-anchor="middle" x="205" y="-286.5" font-family="Helvetica,sans-Serif" font-size="10.00">/d_drawlist.h</text>
</a>
</g>
</g>
<!-- Node2 -->
<g id="node2" class="node">
<title>Node2</title>
<g id="a_node2"><a xlink:href="m__Do__graphic_8cpp.html" target="_top" xlink:title=" ">
<polygon fill="white" stroke="black" points="0,-140 0,-159 142,-159 142,-140 0,-140"/>
<text text-anchor="middle" x="71" y="-147" font-family="Helvetica,sans-Serif" font-size="10.00">src/m_Do/m_Do_graphic.cpp</text>
</a>
</g>
</g>
<!-- Node1&#45;&gt;Node2 -->
<g id="edge1" class="edge">
<title>Node1&#45;&gt;Node2</title>
<path fill="none" stroke="midnightblue" d="M179.36,-272.77C168.96,-263.96 157.06,-253.35 147,-243 118.9,-214.08 89.74,-175.87 77.27,-159.06"/>
<polygon fill="midnightblue" stroke="midnightblue" points="177.4,-275.69 187.32,-279.41 181.88,-270.32 177.4,-275.69"/>
</g>
<!-- Node3 -->
<g id="node3" class="node">
<title>Node3</title>
<g id="a_node3"><a xlink:href="d__com__inf__game_8h.html" target="_top" xlink:title=" ">
<polygon fill="white" stroke="black" points="2376,-207 2376,-237 2522,-237 2522,-207 2376,-207"/>
<text text-anchor="start" x="2384" y="-225" font-family="Helvetica,sans-Serif" font-size="10.00">include/d/d_com/d_com</text>
<text text-anchor="middle" x="2449" y="-214" font-family="Helvetica,sans-Serif" font-size="10.00">_inf_game/d_com_inf_game.h</text>
</a>
</g>
</g>
<!-- Node1&#45;&gt;Node3 -->
<g id="edge2" class="edge">
<title>Node1&#45;&gt;Node3</title>
<path fill="none" stroke="midnightblue" d="M267.03,-291.55C585.24,-281.55 2032.85,-236.07 2375.93,-225.3"/>
<polygon fill="midnightblue" stroke="midnightblue" points="266.51,-288.07 256.62,-291.88 266.73,-295.06 266.51,-288.07"/>
</g>
<!-- Node50 -->
<g id="node50" class="node">
<title>Node50</title>
<g id="a_node50"><a xlink:href="d__file__sel__info_8h.html" target="_top" xlink:title=" ">
<polygon fill="white" stroke="black" points="156,-201.5 156,-242.5 254,-242.5 254,-201.5 156,-201.5"/>
<text text-anchor="start" x="164" y="-230.5" font-family="Helvetica,sans-Serif" font-size="10.00">include/d/d_file/d</text>
<text text-anchor="start" x="164" y="-219.5" font-family="Helvetica,sans-Serif" font-size="10.00">_file_sel_info/d_file</text>
<text text-anchor="middle" x="205" y="-208.5" font-family="Helvetica,sans-Serif" font-size="10.00">_sel_info.h</text>
</a>
</g>
</g>
<!-- Node1&#45;&gt;Node50 -->
<g id="edge61" class="edge">
<title>Node1&#45;&gt;Node50</title>
<path fill="none" stroke="midnightblue" d="M205,-268.98C205,-260.35 205,-250.76 205,-242.59"/>
<polygon fill="midnightblue" stroke="midnightblue" points="201.5,-269.23 205,-279.23 208.5,-269.23 201.5,-269.23"/>
</g>
<!-- Node3&#45;&gt;Node2 -->
<g id="edge31" class="edge">
<title>Node3&#45;&gt;Node2</title>
<path fill="none" stroke="midnightblue" d="M2365.67,-220.7C2007.05,-219.14 593.38,-210.21 151,-165 137.94,-163.67 123.81,-161.39 111.11,-159.03"/>
<polygon fill="midnightblue" stroke="midnightblue" points="2365.7,-224.2 2375.72,-220.74 2365.73,-217.2 2365.7,-224.2"/>
</g>
<!-- Node4 -->
<g id="node4" class="node">
<title>Node4</title>
<g id="a_node4"><a xlink:href="d__attention_8cpp.html" target="_top" xlink:title=" ">
<polygon fill="white" stroke="black" points="287.5,-6 287.5,-25 394.5,-25 394.5,-6 287.5,-6"/>
<text text-anchor="middle" x="341" y="-13" font-family="Helvetica,sans-Serif" font-size="10.00">src/d/d_attention.cpp</text>
</a>
</g>
</g>
<!-- Node3&#45;&gt;Node4 -->
<g id="edge3" class="edge">
<title>Node3&#45;&gt;Node4</title>
<path fill="none" stroke="midnightblue" d="M2365.69,-220.02C2014.88,-215.71 667.37,-197.17 480,-165 384.28,-148.57 329.19,-176.5 272,-98 263.89,-86.86 265.77,-79.29 272,-67 282.07,-47.14 304.03,-33.22 320.49,-25.09"/>
<polygon fill="midnightblue" stroke="midnightblue" points="2365.73,-223.52 2375.77,-220.14 2365.82,-216.52 2365.73,-223.52"/>
</g>
<!-- Node5 -->
<g id="node5" class="node">
<title>Node5</title>
<g id="a_node5"><a xlink:href="d__camera_8cpp.html" target="_top" xlink:title=" ">
<polygon fill="white" stroke="black" points="742,-6 742,-25 844,-25 844,-6 742,-6"/>
<text text-anchor="middle" x="793" y="-13" font-family="Helvetica,sans-Serif" font-size="10.00">src/d/d_camera.cpp</text>
</a>
</g>
</g>
<!-- Node3&#45;&gt;Node5 -->
<g id="edge4" class="edge">
<title>Node3&#45;&gt;Node5</title>
<path fill="none" stroke="midnightblue" d="M2365.51,-221.4C2100.1,-222.1 1287.07,-219.72 1183,-165 1134.69,-139.6 1155.78,-95.12 1109,-67 1103.35,-63.6 932.02,-37.43 844.05,-24.16"/>
<polygon fill="midnightblue" stroke="midnightblue" points="2365.86,-224.9 2375.85,-221.37 2365.84,-217.9 2365.86,-224.9"/>
</g>
<!-- Node6 -->
<g id="node6" class="node">
<title>Node6</title>
<g id="a_node6"><a xlink:href="d__com__inf__game_8cpp.html" target="_top" xlink:title=" ">
<polygon fill="white" stroke="black" points="1270.5,-67.5 1270.5,-97.5 1389.5,-97.5 1389.5,-67.5 1270.5,-67.5"/>
<text text-anchor="start" x="1278.5" y="-85.5" font-family="Helvetica,sans-Serif" font-size="10.00">src/d/d_com/d_com_inf</text>
<text text-anchor="middle" x="1330" y="-74.5" font-family="Helvetica,sans-Serif" font-size="10.00">_game.cpp</text>
</a>
</g>
</g>
<!-- Node3&#45;&gt;Node6 -->
<g id="edge5" class="edge">
<title>Node3&#45;&gt;Node6</title>
<path fill="none" stroke="midnightblue" d="M2365.78,-220.05C2107.66,-216.72 1335.71,-203.54 1299,-165 1280.94,-146.04 1301.44,-115.48 1316.64,-97.67"/>
<polygon fill="midnightblue" stroke="midnightblue" points="2365.8,-223.55 2375.84,-220.18 2365.89,-216.56 2365.8,-223.55"/>
</g>
<!-- Node7 -->
<g id="node7" class="node">
<title>Node7</title>
<g id="a_node7"><a xlink:href="d__file__sel__info_8cpp.html" target="_top" xlink:title=" ">
<polygon fill="white" stroke="black" points="160.5,-134.5 160.5,-164.5 249.5,-164.5 249.5,-134.5 160.5,-134.5"/>
<text text-anchor="start" x="168.5" y="-152.5" font-family="Helvetica,sans-Serif" font-size="10.00">src/d/d_file/d_file</text>
<text text-anchor="middle" x="205" y="-141.5" font-family="Helvetica,sans-Serif" font-size="10.00">_sel_info.cpp</text>
</a>
</g>
</g>
<!-- Node3&#45;&gt;Node7 -->
<g id="edge6" class="edge">
<title>Node3&#45;&gt;Node7</title>
<path fill="none" stroke="midnightblue" d="M2365.73,-221.26C2018.11,-221.98 681.48,-220.98 264,-165 259.3,-164.37 254.42,-163.51 249.58,-162.53"/>
<polygon fill="midnightblue" stroke="midnightblue" points="2365.98,-224.76 2375.97,-221.24 2365.96,-217.76 2365.98,-224.76"/>
</g>
<!-- Node8 -->
<g id="node8" class="node">
<title>Node8</title>
<g id="a_node8"><a xlink:href="d__item_8cpp.html" target="_top" xlink:title=" ">
<polygon fill="white" stroke="black" points="1407.5,-73 1407.5,-92 1528.5,-92 1528.5,-73 1407.5,-73"/>
<text text-anchor="middle" x="1468" y="-80" font-family="Helvetica,sans-Serif" font-size="10.00">src/d/d_item/d_item.cpp</text>
</a>
</g>
</g>
<!-- Node3&#45;&gt;Node8 -->
<g id="edge7" class="edge">
<title>Node3&#45;&gt;Node8</title>
<path fill="none" stroke="midnightblue" d="M2365.8,-219.4C2131.86,-214.51 1483.21,-198.01 1452,-165 1432.88,-144.78 1451.68,-108.72 1462.1,-92.2"/>
<polygon fill="midnightblue" stroke="midnightblue" points="2365.89,-222.91 2375.96,-219.61 2366.03,-215.91 2365.89,-222.91"/>
</g>
<!-- Node9 -->
<g id="node9" class="node">
<title>Node9</title>
<g id="a_node9"><a xlink:href="d__kankyo__rain_8cpp.html" target="_top" xlink:title=" ">
<polygon fill="white" stroke="black" points="1460.5,-134.5 1460.5,-164.5 1587.5,-164.5 1587.5,-134.5 1460.5,-134.5"/>
<text text-anchor="start" x="1468.5" y="-152.5" font-family="Helvetica,sans-Serif" font-size="10.00">src/d/d_kankyo/d_kankyo</text>
<text text-anchor="middle" x="1524" y="-141.5" font-family="Helvetica,sans-Serif" font-size="10.00">_rain.cpp</text>
</a>
</g>
</g>
<!-- Node3&#45;&gt;Node9 -->
<g id="edge8" class="edge">
<title>Node3&#45;&gt;Node9</title>
<path fill="none" stroke="midnightblue" d="M2365.49,-219.12C2212.48,-214.88 1877.15,-201.87 1597,-165 1593.93,-164.6 1590.79,-164.14 1587.62,-163.64"/>
<polygon fill="midnightblue" stroke="midnightblue" points="2365.65,-222.63 2375.74,-219.4 2365.84,-215.63 2365.65,-222.63"/>
</g>
<!-- Node10 -->
<g id="node10" class="node">
<title>Node10</title>
<g id="a_node10"><a xlink:href="d__kankyo__wether_8cpp.html" target="_top" xlink:title=" ">
<polygon fill="white" stroke="black" points="1605.5,-134.5 1605.5,-164.5 1732.5,-164.5 1732.5,-134.5 1605.5,-134.5"/>
<text text-anchor="start" x="1613.5" y="-152.5" font-family="Helvetica,sans-Serif" font-size="10.00">src/d/d_kankyo/d_kankyo</text>
<text text-anchor="middle" x="1669" y="-141.5" font-family="Helvetica,sans-Serif" font-size="10.00">_wether.cpp</text>
</a>
</g>
</g>
<!-- Node3&#45;&gt;Node10 -->
<g id="edge9" class="edge">
<title>Node3&#45;&gt;Node10</title>
<path fill="none" stroke="midnightblue" d="M2365.85,-217.57C2233.35,-211.4 1966.36,-196.06 1742,-165 1738.93,-164.57 1735.79,-164.1 1732.63,-163.59"/>
<polygon fill="midnightblue" stroke="midnightblue" points="2365.77,-221.07 2375.92,-218.03 2366.1,-214.08 2365.77,-221.07"/>
</g>
<!-- Node11 -->
<g id="node11" class="node">
<title>Node11</title>
<g id="a_node11"><a xlink:href="d__kankyo_8cpp.html" target="_top" xlink:title=" ">
<polygon fill="white" stroke="black" points="1750.5,-140 1750.5,-159 1851.5,-159 1851.5,-140 1750.5,-140"/>
<text text-anchor="middle" x="1801" y="-147" font-family="Helvetica,sans-Serif" font-size="10.00">src/d/d_kankyo.cpp</text>
</a>
</g>
</g>
<!-- Node3&#45;&gt;Node11 -->
<g id="edge10" class="edge">
<title>Node3&#45;&gt;Node11</title>
<path fill="none" stroke="midnightblue" d="M2365.6,-216.8C2251.19,-210.19 2039.43,-194.9 1861,-165 1851.7,-163.44 1841.7,-161.24 1832.59,-159.02"/>
<polygon fill="midnightblue" stroke="midnightblue" points="2365.51,-220.3 2375.69,-217.37 2365.9,-213.31 2365.51,-220.3"/>
</g>
<!-- Node12 -->
<g id="node12" class="node">
<title>Node12</title>
<g id="a_node12"><a xlink:href="d__kantera__icon__meter_8cpp.html" target="_top" xlink:title=" ">
<polygon fill="white" stroke="black" points="1869.5,-134.5 1869.5,-164.5 1976.5,-164.5 1976.5,-134.5 1869.5,-134.5"/>
<text text-anchor="start" x="1877.5" y="-152.5" font-family="Helvetica,sans-Serif" font-size="10.00">src/d/d_kantera_icon</text>
<text text-anchor="middle" x="1923" y="-141.5" font-family="Helvetica,sans-Serif" font-size="10.00">_meter.cpp</text>
</a>
</g>
</g>
<!-- Node3&#45;&gt;Node12 -->
<g id="edge11" class="edge">
<title>Node3&#45;&gt;Node12</title>
<path fill="none" stroke="midnightblue" d="M2365.48,-213.58C2272.46,-204.7 2117.84,-188.08 1986,-165 1982.9,-164.46 1979.73,-163.86 1976.54,-163.23"/>
<polygon fill="midnightblue" stroke="midnightblue" points="2365.39,-217.09 2375.67,-214.55 2366.05,-210.12 2365.39,-217.09"/>
</g>
<!-- Node13 -->
<g id="node13" class="node">
<title>Node13</title>
<g id="a_node13"><a xlink:href="d__kyeff_8cpp.html" target="_top" xlink:title=" ">
<polygon fill="white" stroke="black" points="1994.5,-140 1994.5,-159 2107.5,-159 2107.5,-140 1994.5,-140"/>
<text text-anchor="middle" x="2051" y="-147" font-family="Helvetica,sans-Serif" font-size="10.00">src/d/d_ky/d_kyeff.cpp</text>
</a>
</g>
</g>
<!-- Node3&#45;&gt;Node13 -->
<g id="edge12" class="edge">
<title>Node3&#45;&gt;Node13</title>
<path fill="none" stroke="midnightblue" d="M2365.83,-208.13C2298.56,-197.45 2201.46,-181.39 2117,-165 2107.67,-163.19 2097.64,-161.07 2088.28,-159.03"/>
<polygon fill="midnightblue" stroke="midnightblue" points="2365.53,-211.63 2375.95,-209.74 2366.62,-204.72 2365.53,-211.63"/>
</g>
<!-- Node14 -->
<g id="node14" class="node">
<title>Node14</title>
<g id="a_node14"><a xlink:href="d__meter__button_8cpp.html" target="_top" xlink:title=" ">
<polygon fill="white" stroke="black" points="2125.5,-134.5 2125.5,-164.5 2240.5,-164.5 2240.5,-134.5 2125.5,-134.5"/>
<text text-anchor="start" x="2133.5" y="-152.5" font-family="Helvetica,sans-Serif" font-size="10.00">src/d/d_meter/d_meter</text>
<text text-anchor="middle" x="2183" y="-141.5" font-family="Helvetica,sans-Serif" font-size="10.00">_button.cpp</text>
</a>
</g>
</g>
<!-- Node3&#45;&gt;Node14 -->
<g id="edge13" class="edge">
<title>Node3&#45;&gt;Node14</title>
<path fill="none" stroke="midnightblue" d="M2386.34,-204.39C2340.69,-192.29 2279.52,-176.08 2236.23,-164.61"/>
<polygon fill="midnightblue" stroke="midnightblue" points="2385.57,-207.81 2396.13,-206.99 2387.36,-201.04 2385.57,-207.81"/>
</g>
<!-- Node15 -->
<g id="node15" class="node">
<title>Node15</title>
<g id="a_node15"><a xlink:href="d__meter__haihai_8cpp.html" target="_top" xlink:title=" ">
<polygon fill="white" stroke="black" points="2258.5,-134.5 2258.5,-164.5 2373.5,-164.5 2373.5,-134.5 2258.5,-134.5"/>
<text text-anchor="start" x="2266.5" y="-152.5" font-family="Helvetica,sans-Serif" font-size="10.00">src/d/d_meter/d_meter</text>
<text text-anchor="middle" x="2316" y="-141.5" font-family="Helvetica,sans-Serif" font-size="10.00">_haihai.cpp</text>
</a>
</g>
</g>
<!-- Node3&#45;&gt;Node15 -->
<g id="edge14" class="edge">
<title>Node3&#45;&gt;Node15</title>
<path fill="none" stroke="midnightblue" d="M2413.56,-202.22C2391.25,-190.39 2362.92,-175.37 2342.55,-164.57"/>
<polygon fill="midnightblue" stroke="midnightblue" points="2411.93,-205.31 2422.41,-206.9 2415.21,-199.13 2411.93,-205.31"/>
</g>
<!-- Node16 -->
<g id="node16" class="node">
<title>Node16</title>
<g id="a_node16"><a xlink:href="d__meter__hakusha_8cpp.html" target="_top" xlink:title=" ">
<polygon fill="white" stroke="black" points="2391.5,-134.5 2391.5,-164.5 2506.5,-164.5 2506.5,-134.5 2391.5,-134.5"/>
<text text-anchor="start" x="2399.5" y="-152.5" font-family="Helvetica,sans-Serif" font-size="10.00">src/d/d_meter/d_meter</text>
<text text-anchor="middle" x="2449" y="-141.5" font-family="Helvetica,sans-Serif" font-size="10.00">_hakusha.cpp</text>
</a>
</g>
</g>
<!-- Node3&#45;&gt;Node16 -->
<g id="edge15" class="edge">
<title>Node3&#45;&gt;Node16</title>
<path fill="none" stroke="midnightblue" d="M2449,-196.73C2449,-186.07 2449,-173.91 2449,-164.75"/>
<polygon fill="midnightblue" stroke="midnightblue" points="2445.5,-196.73 2449,-206.73 2452.5,-196.73 2445.5,-196.73"/>
</g>
<!-- Node17 -->
<g id="node17" class="node">
<title>Node17</title>
<g id="a_node17"><a xlink:href="d__meter__map_8cpp.html" target="_top" xlink:title=" ">
<polygon fill="white" stroke="black" points="2524.5,-134.5 2524.5,-164.5 2639.5,-164.5 2639.5,-134.5 2524.5,-134.5"/>
<text text-anchor="start" x="2532.5" y="-152.5" font-family="Helvetica,sans-Serif" font-size="10.00">src/d/d_meter/d_meter</text>
<text text-anchor="middle" x="2582" y="-141.5" font-family="Helvetica,sans-Serif" font-size="10.00">_map.cpp</text>
</a>
</g>
</g>
<!-- Node3&#45;&gt;Node17 -->
<g id="edge16" class="edge">
<title>Node3&#45;&gt;Node17</title>
<path fill="none" stroke="midnightblue" d="M2484.44,-202.22C2506.75,-190.39 2535.08,-175.37 2555.45,-164.57"/>
<polygon fill="midnightblue" stroke="midnightblue" points="2482.79,-199.13 2475.59,-206.9 2486.07,-205.31 2482.79,-199.13"/>
</g>
<!-- Node18 -->
<g id="node18" class="node">
<title>Node18</title>
<g id="a_node18"><a xlink:href="d__meter__string_8cpp.html" target="_top" xlink:title=" ">
<polygon fill="white" stroke="black" points="2657.5,-134.5 2657.5,-164.5 2772.5,-164.5 2772.5,-134.5 2657.5,-134.5"/>
<text text-anchor="start" x="2665.5" y="-152.5" font-family="Helvetica,sans-Serif" font-size="10.00">src/d/d_meter/d_meter</text>
<text text-anchor="middle" x="2715" y="-141.5" font-family="Helvetica,sans-Serif" font-size="10.00">_string.cpp</text>
</a>
</g>
</g>
<!-- Node3&#45;&gt;Node18 -->
<g id="edge17" class="edge">
<title>Node3&#45;&gt;Node18</title>
<path fill="none" stroke="midnightblue" d="M2511.66,-204.39C2557.31,-192.29 2618.48,-176.08 2661.77,-164.61"/>
<polygon fill="midnightblue" stroke="midnightblue" points="2510.64,-201.04 2501.87,-206.99 2512.43,-207.81 2510.64,-201.04"/>
</g>
<!-- Node19 -->
<g id="node19" class="node">
<title>Node19</title>
<g id="a_node19"><a xlink:href="d__meter2__draw_8cpp.html" target="_top" xlink:title=" ">
<polygon fill="white" stroke="black" points="2790.5,-134.5 2790.5,-164.5 2915.5,-164.5 2915.5,-134.5 2790.5,-134.5"/>
<text text-anchor="start" x="2798.5" y="-152.5" font-family="Helvetica,sans-Serif" font-size="10.00">src/d/d_meter2/d_meter2</text>
<text text-anchor="middle" x="2853" y="-141.5" font-family="Helvetica,sans-Serif" font-size="10.00">_draw.cpp</text>
</a>
</g>
</g>
<!-- Node3&#45;&gt;Node19 -->
<g id="edge18" class="edge">
<title>Node3&#45;&gt;Node19</title>
<path fill="none" stroke="midnightblue" d="M2532.36,-207.81C2599.8,-196.94 2697.17,-180.79 2782,-165 2784.72,-164.49 2787.5,-163.97 2790.3,-163.43"/>
<polygon fill="midnightblue" stroke="midnightblue" points="2531.53,-204.4 2522.21,-209.44 2532.64,-211.31 2531.53,-204.4"/>
</g>
<!-- Node20 -->
<g id="node20" class="node">
<title>Node20</title>
<g id="a_node20"><a xlink:href="d__meter2__info_8cpp.html" target="_top" xlink:title=" ">
<polygon fill="white" stroke="black" points="2933.5,-134.5 2933.5,-164.5 3058.5,-164.5 3058.5,-134.5 2933.5,-134.5"/>
<text text-anchor="start" x="2941.5" y="-152.5" font-family="Helvetica,sans-Serif" font-size="10.00">src/d/d_meter2/d_meter2</text>
<text text-anchor="middle" x="2996" y="-141.5" font-family="Helvetica,sans-Serif" font-size="10.00">_info.cpp</text>
</a>
</g>
</g>
<!-- Node3&#45;&gt;Node20 -->
<g id="edge19" class="edge">
<title>Node3&#45;&gt;Node20</title>
<path fill="none" stroke="midnightblue" d="M2532.4,-213.34C2627.66,-204.09 2788.07,-187 2925,-165 2927.73,-164.56 2930.52,-164.09 2933.33,-163.6"/>
<polygon fill="midnightblue" stroke="midnightblue" points="2531.87,-209.87 2522.25,-214.32 2532.54,-216.84 2531.87,-209.87"/>
</g>
<!-- Node21 -->
<g id="node21" class="node">
<title>Node21</title>
<g id="a_node21"><a xlink:href="d__meter2_8cpp.html" target="_top" xlink:title=" ">
<polygon fill="white" stroke="black" points="3077,-140 3077,-159 3177,-159 3177,-140 3077,-140"/>
<text text-anchor="middle" x="3127" y="-147" font-family="Helvetica,sans-Serif" font-size="10.00">src/d/d_meter2.cpp</text>
</a>
</g>
</g>
<!-- Node3&#45;&gt;Node21 -->
<g id="edge20" class="edge">
<title>Node3&#45;&gt;Node21</title>
<path fill="none" stroke="midnightblue" d="M2532.52,-217.45C2651.91,-211.46 2877.98,-196.76 3068,-165 3077.16,-163.47 3086.99,-161.28 3095.95,-159.06"/>
<polygon fill="midnightblue" stroke="midnightblue" points="2532.17,-213.96 2522.35,-217.95 2532.51,-220.95 2532.17,-213.96"/>
</g>
<!-- Node22 -->
<g id="node22" class="node">
<title>Node22</title>
<g id="a_node22"><a xlink:href="d__save_8cpp.html" target="_top" xlink:title=" ">
<polygon fill="white" stroke="black" points="3195.5,-140 3195.5,-159 3320.5,-159 3320.5,-140 3195.5,-140"/>
<text text-anchor="middle" x="3258" y="-147" font-family="Helvetica,sans-Serif" font-size="10.00">src/d/d_save/d_save.cpp</text>
</a>
</g>
</g>
<!-- Node3&#45;&gt;Node22 -->
<g id="edge21" class="edge">
<title>Node3&#45;&gt;Node22</title>
<path fill="none" stroke="midnightblue" d="M2532.02,-218.02C2668.84,-212.36 2950.07,-197.59 3186,-165 3197.12,-163.46 3209.1,-161.27 3220.04,-159.05"/>
<polygon fill="midnightblue" stroke="midnightblue" points="2531.87,-214.52 2522.02,-218.43 2532.15,-221.52 2531.87,-214.52"/>
</g>
<!-- Node23 -->
<g id="node23" class="node">
<title>Node23</title>
<g id="a_node23"><a xlink:href="d__save__HIO_8cpp.html" target="_top" xlink:title=" ">
<polygon fill="white" stroke="black" points="3338.5,-134.5 3338.5,-164.5 3445.5,-164.5 3445.5,-134.5 3338.5,-134.5"/>
<text text-anchor="start" x="3346.5" y="-152.5" font-family="Helvetica,sans-Serif" font-size="10.00">src/d/d_save/d_save</text>
<text text-anchor="middle" x="3392" y="-141.5" font-family="Helvetica,sans-Serif" font-size="10.00">_HIO.cpp</text>
</a>
</g>
</g>
<!-- Node3&#45;&gt;Node23 -->
<g id="edge22" class="edge">
<title>Node3&#45;&gt;Node23</title>
<path fill="none" stroke="midnightblue" d="M2532.29,-220.31C2689.21,-217.98 3039.03,-207.97 3330,-165 3332.73,-164.6 3335.53,-164.13 3338.34,-163.63"/>
<polygon fill="midnightblue" stroke="midnightblue" points="2532.19,-216.81 2522.24,-220.45 2532.29,-223.81 2532.19,-216.81"/>
</g>
<!-- Node24 -->
<g id="node24" class="node">
<title>Node24</title>
<g id="a_node24"><a xlink:href="d__stage_8cpp.html" target="_top" xlink:title=" ">
<polygon fill="white" stroke="black" points="900,-6 900,-25 994,-25 994,-6 900,-6"/>
<text text-anchor="middle" x="947" y="-13" font-family="Helvetica,sans-Serif" font-size="10.00">src/d/d_stage.cpp</text>
</a>
</g>
</g>
<!-- Node3&#45;&gt;Node24 -->
<g id="edge23" class="edge">
<title>Node3&#45;&gt;Node24</title>
<path fill="none" stroke="midnightblue" d="M2365.76,-221.17C2105.96,-221.15 1321.37,-216.75 1220,-165 1170.42,-139.69 1188.69,-97.32 1142,-67 1117.73,-51.24 1043.34,-34.75 993.78,-25.06"/>
<polygon fill="midnightblue" stroke="midnightblue" points="2365.89,-224.67 2375.89,-221.17 2365.89,-217.67 2365.89,-224.67"/>
</g>
<!-- Node25 -->
<g id="node25" class="node">
<title>Node25</title>
<g id="a_node25"><a xlink:href="f__op__actor__mng_8cpp.html" target="_top" xlink:title=" ">
<polygon fill="white" stroke="black" points="1031.5,-0.5 1031.5,-30.5 1138.5,-30.5 1138.5,-0.5 1031.5,-0.5"/>
<text text-anchor="start" x="1039.5" y="-18.5" font-family="Helvetica,sans-Serif" font-size="10.00">src/f/f_op/f_op_actor</text>
<text text-anchor="middle" x="1085" y="-7.5" font-family="Helvetica,sans-Serif" font-size="10.00">_mng.cpp</text>
</a>
</g>
</g>
<!-- Node3&#45;&gt;Node25 -->
<g id="edge24" class="edge">
<title>Node3&#45;&gt;Node25</title>
<path fill="none" stroke="midnightblue" d="M2365.67,-221.07C2111.08,-220.72 1354.8,-215.41 1257,-165 1207.76,-139.62 1222.48,-102.54 1180,-67 1161.95,-51.9 1138.65,-39.43 1119.65,-30.66"/>
<polygon fill="midnightblue" stroke="midnightblue" points="2365.96,-224.57 2375.96,-221.08 2365.97,-217.57 2365.96,-224.57"/>
</g>
<!-- Node26 -->
<g id="node26" class="node">
<title>Node26</title>
<g id="a_node26"><a xlink:href="f__op__camera_8cpp.html" target="_top" xlink:title=" ">
<polygon fill="white" stroke="black" points="3463.5,-140 3463.5,-159 3598.5,-159 3598.5,-140 3463.5,-140"/>
<text text-anchor="middle" x="3531" y="-147" font-family="Helvetica,sans-Serif" font-size="10.00">src/f/f_op/f_op_camera.cpp</text>
</a>
</g>
</g>
<!-- Node3&#45;&gt;Node26 -->
<g id="edge25" class="edge">
<title>Node3&#45;&gt;Node26</title>
<path fill="none" stroke="midnightblue" d="M2532.23,-220.1C2704.88,-217.42 3114.33,-206.79 3455,-165 3467,-163.53 3479.95,-161.3 3491.71,-159.03"/>
<polygon fill="midnightblue" stroke="midnightblue" points="2532.14,-216.6 2522.19,-220.25 2532.25,-223.6 2532.14,-216.6"/>
</g>
<!-- Node27 -->
<g id="node27" class="node">
<title>Node27</title>
<g id="a_node27"><a xlink:href="f__op__kankyo_8cpp.html" target="_top" xlink:title=" ">
<polygon fill="white" stroke="black" points="3617,-140 3617,-159 3751,-159 3751,-140 3617,-140"/>
<text text-anchor="middle" x="3684" y="-147" font-family="Helvetica,sans-Serif" font-size="10.00">src/f/f_op/f_op_kankyo.cpp</text>
</a>
</g>
</g>
<!-- Node3&#45;&gt;Node27 -->
<g id="edge26" class="edge">
<title>Node3&#45;&gt;Node27</title>
<path fill="none" stroke="midnightblue" d="M2532.43,-220.97C2723.46,-220.03 3207.05,-212.7 3608,-165 3620.14,-163.56 3633.25,-161.31 3645.11,-159.01"/>
<polygon fill="midnightblue" stroke="midnightblue" points="2532.17,-217.47 2522.18,-221.02 2532.2,-224.47 2532.17,-217.47"/>
</g>
<!-- Node28 -->
<g id="node28" class="node">
<title>Node28</title>
<g id="a_node28"><a xlink:href="f__op__kankyo__mng_8cpp.html" target="_top" xlink:title=" ">
<polygon fill="white" stroke="black" points="3769,-134.5 3769,-164.5 3885,-164.5 3885,-134.5 3769,-134.5"/>
<text text-anchor="start" x="3777" y="-152.5" font-family="Helvetica,sans-Serif" font-size="10.00">src/f/f_op/f_op_kankyo</text>
<text text-anchor="middle" x="3827" y="-141.5" font-family="Helvetica,sans-Serif" font-size="10.00">_mng.cpp</text>
</a>
</g>
</g>
<!-- Node3&#45;&gt;Node28 -->
<g id="edge27" class="edge">
<title>Node3&#45;&gt;Node28</title>
<path fill="none" stroke="midnightblue" d="M2532.17,-219.3C2781.62,-213.92 3520.98,-195.74 3760,-165 3762.83,-164.64 3765.72,-164.21 3768.64,-163.74"/>
<polygon fill="midnightblue" stroke="midnightblue" points="2532,-215.81 2522.08,-219.52 2532.15,-222.8 2532,-215.81"/>
</g>
<!-- Node29 -->
<g id="node29" class="node">
<title>Node29</title>
<g id="a_node29"><a xlink:href="f__op__msg__mng_8cpp.html" target="_top" xlink:title=" ">
<polygon fill="white" stroke="black" points="3903,-134.5 3903,-164.5 4007,-164.5 4007,-134.5 3903,-134.5"/>
<text text-anchor="start" x="3911" y="-152.5" font-family="Helvetica,sans-Serif" font-size="10.00">src/f/f_op/f_op_msg</text>
<text text-anchor="middle" x="3955" y="-141.5" font-family="Helvetica,sans-Serif" font-size="10.00">_mng.cpp</text>
</a>
</g>
</g>
<!-- Node3&#45;&gt;Node29 -->
<g id="edge28" class="edge">
<title>Node3&#45;&gt;Node29</title>
<path fill="none" stroke="midnightblue" d="M2532.75,-219.9C2799.67,-216.04 3628.29,-201.38 3894,-165 3896.91,-164.6 3899.89,-164.13 3902.88,-163.59"/>
<polygon fill="midnightblue" stroke="midnightblue" points="2532.31,-216.4 2522.36,-220.04 2532.41,-223.4 2532.31,-216.4"/>
</g>
<!-- Node30 -->
<g id="node30" class="node">
<title>Node30</title>
<g id="a_node30"><a xlink:href="f__pc__manager_8cpp.html" target="_top" xlink:title=" ">
<polygon fill="white" stroke="black" points="419,-73 419,-92 559,-92 559,-73 419,-73"/>
<text text-anchor="middle" x="489" y="-80" font-family="Helvetica,sans-Serif" font-size="10.00">src/f/f_pc/f_pc_manager.cpp</text>
</a>
</g>
</g>
<!-- Node3&#45;&gt;Node30 -->
<g id="edge29" class="edge">
<title>Node3&#45;&gt;Node30</title>
<path fill="none" stroke="midnightblue" d="M2365.59,-219.76C2042.98,-214.75 886.91,-194.88 725,-165 641.03,-149.5 546.54,-109.59 507.45,-92.02"/>
<polygon fill="midnightblue" stroke="midnightblue" points="2365.75,-223.26 2375.8,-219.92 2365.85,-216.26 2365.75,-223.26"/>
</g>
<!-- Node31 -->
<g id="node31" class="node">
<title>Node31</title>
<g id="a_node31"><a xlink:href="m__Do__audio_8cpp.html" target="_top" xlink:title=" ">
<polygon fill="white" stroke="black" points="4025,-140 4025,-159 4159,-159 4159,-140 4025,-140"/>
<text text-anchor="middle" x="4092" y="-147" font-family="Helvetica,sans-Serif" font-size="10.00">src/m_Do/m_Do_audio.cpp</text>
</a>
</g>
</g>
<!-- Node3&#45;&gt;Node31 -->
<g id="edge30" class="edge">
<title>Node3&#45;&gt;Node31</title>
<path fill="none" stroke="midnightblue" d="M2532.51,-219.7C2813.68,-215.06 3724.57,-197.81 4016,-165 4028.28,-163.62 4041.55,-161.36 4053.51,-159.03"/>
<polygon fill="midnightblue" stroke="midnightblue" points="2532.32,-216.2 2522.38,-219.87 2532.43,-223.2 2532.32,-216.2"/>
</g>
<!-- Node32 -->
<g id="node32" class="node">
<title>Node32</title>
<g id="a_node32"><a xlink:href="m__Do__lib_8cpp.html" target="_top" xlink:title=" ">
<polygon fill="white" stroke="black" points="4177,-140 4177,-159 4297,-159 4297,-140 4177,-140"/>
<text text-anchor="middle" x="4237" y="-147" font-family="Helvetica,sans-Serif" font-size="10.00">src/m_Do/m_Do_lib.cpp</text>
</a>
</g>
</g>
<!-- Node3&#45;&gt;Node32 -->
<g id="edge32" class="edge">
<title>Node3&#45;&gt;Node32</title>
<path fill="none" stroke="midnightblue" d="M2532.39,-220.21C2830.92,-217.09 3845.72,-203.81 4168,-165 4179.18,-163.65 4191.24,-161.4 4202.09,-159.07"/>
<polygon fill="midnightblue" stroke="midnightblue" points="2532.04,-216.72 2522.07,-220.32 2532.11,-223.72 2532.04,-216.72"/>
</g>
<!-- Node33 -->
<g id="node33" class="node">
<title>Node33</title>
<g id="a_node33"><a xlink:href="m__Do__machine__exception_8cpp.html" target="_top" xlink:title=" ">
<polygon fill="white" stroke="black" points="4315.5,-134.5 4315.5,-164.5 4444.5,-164.5 4444.5,-134.5 4315.5,-134.5"/>
<text text-anchor="start" x="4323.5" y="-152.5" font-family="Helvetica,sans-Serif" font-size="10.00">src/m_Do/m_Do_machine</text>
<text text-anchor="middle" x="4380" y="-141.5" font-family="Helvetica,sans-Serif" font-size="10.00">_exception.cpp</text>
</a>
</g>
</g>
<!-- Node3&#45;&gt;Node33 -->
<g id="edge33" class="edge">
<title>Node3&#45;&gt;Node33</title>
<path fill="none" stroke="midnightblue" d="M2532.38,-220.3C2846.04,-217.37 3955.1,-204.4 4306,-165 4308.99,-164.66 4312.04,-164.27 4315.12,-163.83"/>
<polygon fill="midnightblue" stroke="midnightblue" points="2531.97,-216.8 2522,-220.39 2532.03,-223.8 2531.97,-216.8"/>
</g>
<!-- Node34 -->
<g id="node34" class="node">
<title>Node34</title>
<g id="a_node34"><a xlink:href="m__Do__main_8cpp.html" target="_top" xlink:title=" ">
<polygon fill="white" stroke="black" points="1166.5,-6 1166.5,-25 1297.5,-25 1297.5,-6 1166.5,-6"/>
<text text-anchor="middle" x="1232" y="-13" font-family="Helvetica,sans-Serif" font-size="10.00">src/m_Do/m_Do_main.cpp</text>
</a>
</g>
</g>
<!-- Node3&#45;&gt;Node34 -->
<g id="edge34" class="edge">
<title>Node3&#45;&gt;Node34</title>
<path fill="none" stroke="midnightblue" d="M2365.89,-219.49C2107.12,-214.45 1330.45,-196.74 1287,-165 1239.94,-130.62 1233.1,-51.34 1232.14,-25.11"/>
<polygon fill="midnightblue" stroke="midnightblue" points="2365.92,-222.99 2375.98,-219.68 2366.05,-215.99 2365.92,-222.99"/>
</g>
<!-- Node35 -->
<g id="node35" class="node">
<title>Node35</title>
<g id="a_node35"><a xlink:href="m__Do__MemCardRWmng_8cpp.html" target="_top" xlink:title=" ">
<polygon fill="white" stroke="black" points="4462.5,-140 4462.5,-159 4649.5,-159 4649.5,-140 4462.5,-140"/>
<text text-anchor="middle" x="4556" y="-147" font-family="Helvetica,sans-Serif" font-size="10.00">src/m_Do/m_Do_MemCardRWmng.cpp</text>
</a>
</g>
</g>
<!-- Node3&#45;&gt;Node35 -->
<g id="edge35" class="edge">
<title>Node3&#45;&gt;Node35</title>
<path fill="none" stroke="midnightblue" d="M2532.54,-219.93C2861.99,-215.52 4071.7,-197.41 4454,-165 4470.4,-163.61 4488.18,-161.35 4504.24,-159.02"/>
<polygon fill="midnightblue" stroke="midnightblue" points="2532.08,-216.44 2522.13,-220.07 2532.17,-223.44 2532.08,-216.44"/>
</g>
<!-- Node36 -->
<g id="node36" class="node">
<title>Node36</title>
<g id="a_node36"><a xlink:href="m__Do__ext_8cpp.html" target="_top" xlink:title=" ">
<polygon fill="white" stroke="black" points="4667.5,-140 4667.5,-159 4790.5,-159 4790.5,-140 4667.5,-140"/>
<text text-anchor="middle" x="4729" y="-147" font-family="Helvetica,sans-Serif" font-size="10.00">src/m_Do/m_Do_ext.cpp</text>
</a>
</g>
</g>
<!-- Node3&#45;&gt;Node36 -->
<g id="edge36" class="edge">
<title>Node3&#45;&gt;Node36</title>
<path fill="none" stroke="midnightblue" d="M2532.33,-220.88C2882.39,-220.08 4235.43,-213.84 4659,-165 4670.47,-163.68 4682.84,-161.4 4693.95,-159.04"/>
<polygon fill="midnightblue" stroke="midnightblue" points="2532.26,-217.38 2522.26,-220.91 2532.27,-224.38 2532.26,-217.38"/>
</g>
<!-- Node37 -->
<g id="node37" class="node">
<title>Node37</title>
<g id="a_node37"><a xlink:href="Z2EnvSeMgr_8cpp.html" target="_top" xlink:title=" ">
<polygon fill="white" stroke="black" points="4808.5,-140 4808.5,-159 4969.5,-159 4969.5,-140 4808.5,-140"/>
<text text-anchor="middle" x="4889" y="-147" font-family="Helvetica,sans-Serif" font-size="10.00">libs/Z2AudioLib/Z2EnvSeMgr.cpp</text>
</a>
</g>
</g>
<!-- Node3&#45;&gt;Node37 -->
<g id="edge37" class="edge">
<title>Node3&#45;&gt;Node37</title>
<path fill="none" stroke="midnightblue" d="M2532.41,-220.55C2896.22,-218.38 4346.26,-207.16 4800,-165 4814.5,-163.65 4830.21,-161.37 4844.33,-159.01"/>
<polygon fill="midnightblue" stroke="midnightblue" points="2532.2,-217.06 2522.22,-220.62 2532.24,-224.06 2532.2,-217.06"/>
</g>
<!-- Node38 -->
<g id="node38" class="node">
<title>Node38</title>
<g id="a_node38"><a xlink:href="Z2LinkMgr_8cpp.html" target="_top" xlink:title=" ">
<polygon fill="white" stroke="black" points="4988,-140 4988,-159 5140,-159 5140,-140 4988,-140"/>
<text text-anchor="middle" x="5064" y="-147" font-family="Helvetica,sans-Serif" font-size="10.00">libs/Z2AudioLib/Z2LinkMgr.cpp</text>
</a>
</g>
</g>
<!-- Node3&#45;&gt;Node38 -->
<g id="edge38" class="edge">
<title>Node3&#45;&gt;Node38</title>
<path fill="none" stroke="midnightblue" d="M2532.11,-220.8C2912.28,-219.65 4488.05,-212.05 4979,-165 4992.86,-163.67 5007.87,-161.4 5021.36,-159.03"/>
<polygon fill="midnightblue" stroke="midnightblue" points="2532,-217.3 2522.01,-220.83 2532.02,-224.3 2532,-217.3"/>
</g>
<!-- Node39 -->
<g id="node39" class="node">
<title>Node39</title>
<g id="a_node39"><a xlink:href="Z2SceneMgr_8cpp.html" target="_top" xlink:title=" ">
<polygon fill="white" stroke="black" points="5158.5,-140 5158.5,-159 5319.5,-159 5319.5,-140 5158.5,-140"/>
<text text-anchor="middle" x="5239" y="-147" font-family="Helvetica,sans-Serif" font-size="10.00">libs/Z2AudioLib/Z2SceneMgr.cpp</text>
</a>
</g>
</g>
<!-- Node3&#45;&gt;Node39 -->
<g id="edge39" class="edge">
<title>Node3&#45;&gt;Node39</title>
<path fill="none" stroke="midnightblue" d="M2532.42,-220.83C2928.58,-219.8 4622.52,-212.64 5149,-165 5163.66,-163.67 5179.54,-161.4 5193.83,-159.04"/>
<polygon fill="midnightblue" stroke="midnightblue" points="2532.18,-217.33 2522.19,-220.86 2532.2,-224.33 2532.18,-217.33"/>
</g>
<!-- Node40 -->
<g id="node40" class="node">
<title>Node40</title>
<g id="a_node40"><a xlink:href="Z2SoundMgr_8cpp.html" target="_top" xlink:title=" ">
<polygon fill="white" stroke="black" points="5337.5,-140 5337.5,-159 5498.5,-159 5498.5,-140 5337.5,-140"/>
<text text-anchor="middle" x="5418" y="-147" font-family="Helvetica,sans-Serif" font-size="10.00">libs/Z2AudioLib/Z2SoundMgr.cpp</text>
</a>
</g>
</g>
<!-- Node3&#45;&gt;Node40 -->
<g id="edge40" class="edge">
<title>Node3&#45;&gt;Node40</title>
<path fill="none" stroke="midnightblue" d="M2532.22,-220.98C2943.85,-220.63 4764.86,-216.18 5329,-165 5343.5,-163.68 5359.21,-161.41 5373.34,-159.05"/>
<polygon fill="midnightblue" stroke="midnightblue" points="2532.18,-217.48 2522.18,-220.99 2532.19,-224.48 2532.18,-217.48"/>
</g>
<!-- Node41 -->
<g id="node41" class="node">
<title>Node41</title>
<g id="a_node41"><a xlink:href="Z2StatusMgr_8cpp.html" target="_top" xlink:title=" ">
<polygon fill="white" stroke="black" points="5516.5,-134.5 5516.5,-164.5 5643.5,-164.5 5643.5,-134.5 5516.5,-134.5"/>
<text text-anchor="start" x="5524.5" y="-152.5" font-family="Helvetica,sans-Serif" font-size="10.00">libs/Z2AudioLib/Z2Status</text>
<text text-anchor="middle" x="5580" y="-141.5" font-family="Helvetica,sans-Serif" font-size="10.00">Mgr.cpp</text>
</a>
</g>
</g>
<!-- Node3&#45;&gt;Node41 -->
<g id="edge41" class="edge">
<title>Node3&#45;&gt;Node41</title>
<path fill="none" stroke="midnightblue" d="M2532.3,-220.37C2991.6,-216.8 5205.36,-197.97 5508,-165 5510.79,-164.7 5513.63,-164.34 5516.49,-163.94"/>
<polygon fill="midnightblue" stroke="midnightblue" points="2532.07,-216.88 2522.1,-220.45 2532.12,-223.87 2532.07,-216.88"/>
</g>
<!-- Node42 -->
<g id="node42" class="node">
<title>Node42</title>
<g id="a_node42"><a xlink:href="d__a__alink_8h.html" target="_top" xlink:title=" ">
<polygon fill="white" stroke="black" points="281.5,-67.5 281.5,-97.5 400.5,-97.5 400.5,-67.5 281.5,-67.5"/>
<text text-anchor="start" x="289.5" y="-85.5" font-family="Helvetica,sans-Serif" font-size="10.00">include/d/d_a/d_a_alink</text>
<text text-anchor="middle" x="341" y="-74.5" font-family="Helvetica,sans-Serif" font-size="10.00">/d_a_alink.h</text>
</a>
</g>
</g>
<!-- Node3&#45;&gt;Node42 -->
<g id="edge42" class="edge">
<title>Node3&#45;&gt;Node42</title>
<path fill="none" stroke="midnightblue" d="M2365.49,-221.37C2053.25,-222.32 954.8,-221.46 610,-165 524.04,-150.92 427.17,-116.85 376.4,-97.52"/>
<polygon fill="midnightblue" stroke="midnightblue" points="2365.83,-224.87 2375.82,-221.34 2365.81,-217.87 2365.83,-224.87"/>
</g>
<!-- Node44 -->
<g id="node44" class="node">
<title>Node44</title>
<g id="a_node44"><a xlink:href="d__item_8h.html" target="_top" xlink:title=" ">
<polygon fill="white" stroke="black" points="1308,-134.5 1308,-164.5 1404,-164.5 1404,-134.5 1308,-134.5"/>
<text text-anchor="start" x="1316" y="-152.5" font-family="Helvetica,sans-Serif" font-size="10.00">include/d/d_item/d</text>
<text text-anchor="middle" x="1356" y="-141.5" font-family="Helvetica,sans-Serif" font-size="10.00">_item/d_item.h</text>
</a>
</g>
</g>
<!-- Node3&#45;&gt;Node44 -->
<g id="edge45" class="edge">
<title>Node3&#45;&gt;Node44</title>
<path fill="none" stroke="midnightblue" d="M2365.53,-221.41C2189.46,-221.2 1767.5,-214.97 1418,-165 1413.51,-164.36 1408.87,-163.55 1404.24,-162.65"/>
<polygon fill="midnightblue" stroke="midnightblue" points="2365.75,-224.91 2375.76,-221.42 2365.76,-217.91 2365.75,-224.91"/>
</g>
<!-- Node45 -->
<g id="node45" class="node">
<title>Node45</title>
<g id="a_node45"><a xlink:href="f__pc__manager_8h.html" target="_top" xlink:title=" ">
<polygon fill="white" stroke="black" points="734.5,-134.5 734.5,-164.5 831.5,-164.5 831.5,-134.5 734.5,-134.5"/>
<text text-anchor="start" x="742.5" y="-152.5" font-family="Helvetica,sans-Serif" font-size="10.00">include/f/f_pc/f_pc</text>
<text text-anchor="middle" x="783" y="-141.5" font-family="Helvetica,sans-Serif" font-size="10.00">_manager.h</text>
</a>
</g>
</g>
<!-- Node3&#45;&gt;Node45 -->
<g id="edge48" class="edge">
<title>Node3&#45;&gt;Node45</title>
<path fill="none" stroke="midnightblue" d="M2365.9,-217.57C2156.05,-208.89 1587.73,-185.31 1114,-165 1013.58,-160.69 896.02,-155.51 831.51,-152.65"/>
<polygon fill="midnightblue" stroke="midnightblue" points="2365.78,-221.07 2375.92,-217.98 2366.07,-214.07 2365.78,-221.07"/>
</g>
<!-- Node42&#45;&gt;Node4 -->
<g id="edge43" class="edge">
<title>Node42&#45;&gt;Node4</title>
<path fill="none" stroke="midnightblue" d="M341,-57.25C341,-46.02 341,-33.38 341,-25.19"/>
<polygon fill="midnightblue" stroke="midnightblue" points="337.5,-57.4 341,-67.4 344.5,-57.4 337.5,-57.4"/>
</g>
<!-- Node43 -->
<g id="node43" class="node">
<title>Node43</title>
<g id="a_node43"><a xlink:href="d__a__alink_8cpp.html" target="_top" xlink:title=" ">
<polygon fill="white" stroke="black" points="527.5,-6 527.5,-25 646.5,-25 646.5,-6 527.5,-6"/>
<text text-anchor="middle" x="587" y="-13" font-family="Helvetica,sans-Serif" font-size="10.00">src/d/d_a/d_a_alink.cpp</text>
</a>
</g>
</g>
<!-- Node42&#45;&gt;Node43 -->
<g id="edge44" class="edge">
<title>Node42&#45;&gt;Node43</title>
<path fill="none" stroke="midnightblue" d="M403.79,-64.91C451.96,-52.18 516.5,-35.13 554.72,-25.03"/>
<polygon fill="midnightblue" stroke="midnightblue" points="402.85,-61.54 394.08,-67.48 404.64,-68.31 402.85,-61.54"/>
</g>
<!-- Node44&#45;&gt;Node6 -->
<g id="edge46" class="edge">
<title>Node44&#45;&gt;Node6</title>
<path fill="none" stroke="midnightblue" d="M1346.6,-124.99C1342.92,-115.8 1338.83,-105.58 1335.63,-97.58"/>
<polygon fill="midnightblue" stroke="midnightblue" points="1343.39,-126.41 1350.36,-134.4 1349.89,-123.81 1343.39,-126.41"/>
</g>
<!-- Node44&#45;&gt;Node8 -->
<g id="edge47" class="edge">
<title>Node44&#45;&gt;Node8</title>
<path fill="none" stroke="midnightblue" d="M1389.07,-129.31C1410.41,-116.93 1437.11,-101.43 1453.34,-92.01"/>
<polygon fill="midnightblue" stroke="midnightblue" points="1387.19,-126.35 1380.3,-134.4 1390.71,-132.4 1387.19,-126.35"/>
</g>
<!-- Node45&#45;&gt;Node30 -->
<g id="edge53" class="edge">
<title>Node45&#45;&gt;Node30</title>
<path fill="none" stroke="midnightblue" d="M724.63,-135.59C666.22,-122.68 578.03,-103.18 527.75,-92.07"/>
<polygon fill="midnightblue" stroke="midnightblue" points="723.93,-139.03 734.45,-137.77 725.44,-132.19 723.93,-139.03"/>
</g>
<!-- Node45&#45;&gt;Node43 -->
<g id="edge49" class="edge">
<title>Node45&#45;&gt;Node43</title>
<path fill="none" stroke="midnightblue" d="M724.36,-146.57C685.58,-142.14 636.44,-129.97 606,-98 586.66,-77.69 585.68,-41.68 586.37,-25.19"/>
<polygon fill="midnightblue" stroke="midnightblue" points="724.19,-150.07 734.49,-147.58 724.89,-143.11 724.19,-150.07"/>
</g>
<!-- Node46 -->
<g id="node46" class="node">
<title>Node46</title>
<g id="a_node46"><a xlink:href="f__ap__game_8cpp.html" target="_top" xlink:title=" ">
<polygon fill="white" stroke="black" points="730.5,-73 730.5,-92 835.5,-92 835.5,-73 730.5,-73"/>
<text text-anchor="middle" x="783" y="-80" font-family="Helvetica,sans-Serif" font-size="10.00">src/f/f_ap_game.cpp</text>
</a>
</g>
</g>
<!-- Node45&#45;&gt;Node46 -->
<g id="edge50" class="edge">
<title>Node45&#45;&gt;Node46</title>
<path fill="none" stroke="midnightblue" d="M783,-124.25C783,-113.02 783,-100.38 783,-92.19"/>
<polygon fill="midnightblue" stroke="midnightblue" points="779.5,-124.4 783,-134.4 786.5,-124.4 779.5,-124.4"/>
</g>
<!-- Node47 -->
<g id="node47" class="node">
<title>Node47</title>
<g id="a_node47"><a xlink:href="f__op__overlap__req_8cpp.html" target="_top" xlink:title=" ">
<polygon fill="white" stroke="black" points="854,-67.5 854,-97.5 970,-97.5 970,-67.5 854,-67.5"/>
<text text-anchor="start" x="862" y="-85.5" font-family="Helvetica,sans-Serif" font-size="10.00">src/f/f_op/f_op_overlap</text>
<text text-anchor="middle" x="912" y="-74.5" font-family="Helvetica,sans-Serif" font-size="10.00">_req.cpp</text>
</a>
</g>
</g>
<!-- Node45&#45;&gt;Node47 -->
<g id="edge51" class="edge">
<title>Node45&#45;&gt;Node47</title>
<path fill="none" stroke="midnightblue" d="M820.01,-129.85C840.4,-119.58 865.31,-107.03 884.06,-97.58"/>
<polygon fill="midnightblue" stroke="midnightblue" points="818.35,-126.77 810.99,-134.4 821.5,-133.02 818.35,-126.77"/>
</g>
<!-- Node48 -->
<g id="node48" class="node">
<title>Node48</title>
<g id="a_node48"><a xlink:href="f__op__scene__pause_8cpp.html" target="_top" xlink:title=" ">
<polygon fill="white" stroke="black" points="988.5,-67.5 988.5,-97.5 1099.5,-97.5 1099.5,-67.5 988.5,-67.5"/>
<text text-anchor="start" x="996.5" y="-85.5" font-family="Helvetica,sans-Serif" font-size="10.00">src/f/f_op/f_op_scene</text>
<text text-anchor="middle" x="1044" y="-74.5" font-family="Helvetica,sans-Serif" font-size="10.00">_pause.cpp</text>
</a>
</g>
</g>
<!-- Node45&#45;&gt;Node48 -->
<g id="edge52" class="edge">
<title>Node45&#45;&gt;Node48</title>
<path fill="none" stroke="midnightblue" d="M841.73,-133.87C885.57,-122.96 945.09,-108.13 988.21,-97.39"/>
<polygon fill="midnightblue" stroke="midnightblue" points="840.64,-130.54 831.79,-136.35 842.34,-137.33 840.64,-130.54"/>
</g>
<!-- Node49 -->
<g id="node49" class="node">
<title>Node49</title>
<g id="a_node49"><a xlink:href="f__op__actor__mng_8h.html" target="_top" xlink:title=" ">
<polygon fill="white" stroke="black" points="615.5,-67.5 615.5,-97.5 712.5,-97.5 712.5,-67.5 615.5,-67.5"/>
<text text-anchor="start" x="623.5" y="-85.5" font-family="Helvetica,sans-Serif" font-size="10.00">include/f/f_op/f_op</text>
<text text-anchor="middle" x="664" y="-74.5" font-family="Helvetica,sans-Serif" font-size="10.00">_actor_mng.h</text>
</a>
</g>
</g>
<!-- Node45&#45;&gt;Node49 -->
<g id="edge54" class="edge">
<title>Node45&#45;&gt;Node49</title>
<path fill="none" stroke="midnightblue" d="M748.35,-129.57C729.63,-119.35 706.91,-106.94 689.77,-97.58"/>
<polygon fill="midnightblue" stroke="midnightblue" points="746.72,-132.67 757.18,-134.4 750.08,-126.53 746.72,-132.67"/>
</g>
<!-- Node49&#45;&gt;Node4 -->
<g id="edge55" class="edge">
<title>Node49&#45;&gt;Node4</title>
<path fill="none" stroke="midnightblue" d="M605.34,-69.7C541.26,-56.8 440.2,-36.46 383.39,-25.03"/>
<polygon fill="midnightblue" stroke="midnightblue" points="604.8,-73.16 615.29,-71.7 606.18,-66.29 604.8,-73.16"/>
</g>
<!-- Node49&#45;&gt;Node5 -->
<g id="edge56" class="edge">
<title>Node49&#45;&gt;Node5</title>
<path fill="none" stroke="midnightblue" d="M701.11,-62.8C725.84,-50.34 757.17,-34.56 776.12,-25.01"/>
<polygon fill="midnightblue" stroke="midnightblue" points="699.35,-59.77 691.99,-67.4 702.5,-66.02 699.35,-59.77"/>
</g>
<!-- Node49&#45;&gt;Node24 -->
<g id="edge58" class="edge">
<title>Node49&#45;&gt;Node24</title>
<path fill="none" stroke="midnightblue" d="M722.66,-66.64C792.66,-50.01 863.7,-34.42 906.91,-25.09"/>
<polygon fill="midnightblue" stroke="midnightblue" points="721.71,-63.26 712.79,-68.99 723.33,-70.07 721.71,-63.26"/>
</g>
<!-- Node49&#45;&gt;Node25 -->
<g id="edge59" class="edge">
<title>Node49&#45;&gt;Node25</title>
<path fill="none" stroke="midnightblue" d="M722.63,-66.82C846.86,-43.7 881.26,-49.52 1003,-31 1012.15,-29.61 1021.85,-28.01 1031.25,-26.39"/>
<polygon fill="midnightblue" stroke="midnightblue" points="721.91,-63.39 712.73,-68.69 723.21,-70.27 721.91,-63.39"/>
</g>
<!-- Node49&#45;&gt;Node34 -->
<g id="edge60" class="edge">
<title>Node49&#45;&gt;Node34</title>
<path fill="none" stroke="midnightblue" d="M722.63,-66.89C910.57,-36.08 962.32,-54.81 1148,-31 1160.62,-29.38 1174.25,-27.21 1186.77,-25.05"/>
<polygon fill="midnightblue" stroke="midnightblue" points="721.99,-63.45 712.7,-68.55 723.14,-70.36 721.99,-63.45"/>
</g>
<!-- Node49&#45;&gt;Node43 -->
<g id="edge57" class="edge">
<title>Node49&#45;&gt;Node43</title>
<path fill="none" stroke="midnightblue" d="M639.33,-60.67C625.11,-48.67 607.99,-34.22 597.3,-25.19"/>
<polygon fill="midnightblue" stroke="midnightblue" points="637.39,-63.62 647.29,-67.4 641.91,-58.27 637.39,-63.62"/>
</g>
<!-- Node50&#45;&gt;Node7 -->
<g id="edge62" class="edge">
<title>Node50&#45;&gt;Node7</title>
<path fill="none" stroke="midnightblue" d="M205,-191.08C205,-182.01 205,-172.45 205,-164.89"/>
<polygon fill="midnightblue" stroke="midnightblue" points="201.5,-191.36 205,-201.36 208.5,-191.36 201.5,-191.36"/>
</g>
</g>
</svg>
