<?xml version="1.0" encoding="UTF-8" standalone="no"?>
<!DOCTYPE svg PUBLIC "-//W3C//DTD SVG 1.1//EN"
 "http://www.w3.org/Graphics/SVG/1.1/DTD/svg11.dtd">
<!-- Generated by graphviz version 2.46.0 (20210122.1329)
 -->
<!-- Title: include/d/d_event/d_event/d_event.h Pages: 1 -->
<!--zoomable 240 -->
<svg id="main" version="1.1" xmlns="http://www.w3.org/2000/svg" xmlns:xlink="http://www.w3.org/1999/xlink" xml:space="preserve" onload="init(evt)">
<style type="text/css"><![CDATA[
.edge:hover path { stroke: red; }
.edge:hover polygon { stroke: red; fill: red; }
]]></style>
<script type="text/javascript"><![CDATA[
var edges = document.getElementsByTagName('g');
if (edges && edges.length) {
  for (var i=0;i<edges.length;i++) {
    if (edges[i].id.substr(0,4)=='edge') {
      edges[i].setAttribute('class','edge');
    }
  }
}
]]></script>
        <defs>
                <circle id="rim" cx="0" cy="0" r="7"/>
                <circle id="rim2" cx="0" cy="0" r="3.5"/>
                <g id="zoomPlus">
                        <use xlink:href="#rim" fill="#404040">
                                <set attributeName="fill" to="#808080" begin="zoomplus.mouseover" end="zoomplus.mouseout"/>
                        </use>
                        <path d="M-4,0h8M0,-4v8" fill="none" stroke="white" stroke-width="1.5" pointer-events="none"/>
                </g>
                <g id="zoomMin">
                        <use xlink:href="#rim" fill="#404040">
                                <set attributeName="fill" to="#808080" begin="zoomminus.mouseover" end="zoomminus.mouseout"/>
                        </use>
                        <path d="M-4,0h8" fill="none" stroke="white" stroke-width="1.5" pointer-events="none"/>
                </g>
                <g id="dirArrow">
                        <path fill="none" stroke="white" stroke-width="1.5" d="M0,-3.0v7 M-2.5,-0.5L0,-3.0L2.5,-0.5"/>
                </g>
               <g id="resetDef">
                       <use xlink:href="#rim2" fill="#404040">
                               <set attributeName="fill" to="#808080" begin="reset.mouseover" end="reset.mouseout"/>
                       </use>
               </g>
        </defs>

<script type="text/javascript">
var viewWidth = 4167;
var viewHeight = 240;
var sectionId = 'dynsection-1';
</script>
<script xlink:href="svgpan.js"/>
<svg id="graph" class="graph">
<g id="viewport">
<title>include/d/d_event/d_event/d_event.h</title>
<polygon fill="white" stroke="transparent" points="-4,4 -4,-236 4162.5,-236 4162.5,4 -4,4"/>
<!-- Node1 -->
<g id="node1" class="node">
<title>Node1</title>
<g id="a_node1"><a xlink:title=" ">
<polygon fill="#bfbfbf" stroke="black" points="1703.5,-201.5 1703.5,-231.5 1804.5,-231.5 1804.5,-201.5 1703.5,-201.5"/>
<text text-anchor="start" x="1711.5" y="-219.5" font-family="Helvetica,sans-Serif" font-size="10.00">include/d/d_event/d</text>
<text text-anchor="middle" x="1754" y="-208.5" font-family="Helvetica,sans-Serif" font-size="10.00">_event/d_event.h</text>
</a>
</g>
</g>
<!-- Node2 -->
<g id="node2" class="node">
<title>Node2</title>
<g id="a_node2"><a xlink:href="d__lib_8cpp.html" target="_top" xlink:title=" ">
<polygon fill="white" stroke="black" points="1649,-140 1649,-159 1729,-159 1729,-140 1649,-140"/>
<text text-anchor="middle" x="1689" y="-147" font-family="Helvetica,sans-Serif" font-size="10.00">src/d/d_lib.cpp</text>
</a>
</g>
</g>
<!-- Node1&#45;&gt;Node2 -->
<g id="edge1" class="edge">
<title>Node1&#45;&gt;Node2</title>
<path fill="none" stroke="midnightblue" d="M1732.5,-194C1720.63,-182.13 1706.55,-168.05 1697.69,-159.19"/>
<polygon fill="midnightblue" stroke="midnightblue" points="1730.35,-196.8 1739.9,-201.4 1735.3,-191.85 1730.35,-196.8"/>
</g>
<!-- Node3 -->
<g id="node3" class="node">
<title>Node3</title>
<g id="a_node3"><a xlink:href="d__com__inf__game_8h.html" target="_top" xlink:title=" ">
<polygon fill="white" stroke="black" points="1747,-134.5 1747,-164.5 1893,-164.5 1893,-134.5 1747,-134.5"/>
<text text-anchor="start" x="1755" y="-152.5" font-family="Helvetica,sans-Serif" font-size="10.00">include/d/d_com/d_com</text>
<text text-anchor="middle" x="1820" y="-141.5" font-family="Helvetica,sans-Serif" font-size="10.00">_inf_game/d_com_inf_game.h</text>
</a>
</g>
</g>
<!-- Node1&#45;&gt;Node3 -->
<g id="edge2" class="edge">
<title>Node1&#45;&gt;Node3</title>
<path fill="none" stroke="midnightblue" d="M1775.51,-194.31C1785.41,-184.56 1796.89,-173.26 1805.71,-164.58"/>
<polygon fill="midnightblue" stroke="midnightblue" points="1772.99,-191.89 1768.32,-201.4 1777.9,-196.87 1772.99,-191.89"/>
</g>
<!-- Node4 -->
<g id="node4" class="node">
<title>Node4</title>
<g id="a_node4"><a xlink:href="d__attention_8cpp.html" target="_top" xlink:title=" ">
<polygon fill="white" stroke="black" points="295.5,-6 295.5,-25 402.5,-25 402.5,-6 295.5,-6"/>
<text text-anchor="middle" x="349" y="-13" font-family="Helvetica,sans-Serif" font-size="10.00">src/d/d_attention.cpp</text>
</a>
</g>
</g>
<!-- Node3&#45;&gt;Node4 -->
<g id="edge3" class="edge">
<title>Node3&#45;&gt;Node4</title>
<path fill="none" stroke="midnightblue" d="M1736.66,-134.46C1604.02,-129.76 358.28,-124.97 332,-98 312.53,-78.02 332.08,-41.85 342.88,-25.25"/>
<polygon fill="midnightblue" stroke="midnightblue" points="1736.59,-137.96 1746.76,-134.99 1736.95,-130.97 1736.59,-137.96"/>
</g>
<!-- Node5 -->
<g id="node5" class="node">
<title>Node5</title>
<g id="a_node5"><a xlink:href="d__camera_8cpp.html" target="_top" xlink:title=" ">
<polygon fill="white" stroke="black" points="479,-73 479,-92 581,-92 581,-73 479,-73"/>
<text text-anchor="middle" x="530" y="-80" font-family="Helvetica,sans-Serif" font-size="10.00">src/d/d_camera.cpp</text>
</a>
</g>
</g>
<!-- Node3&#45;&gt;Node5 -->
<g id="edge4" class="edge">
<title>Node3&#45;&gt;Node5</title>
<path fill="none" stroke="midnightblue" d="M1736.63,-133.97C1230.68,-82.66 1095.93,-161.19 595,-98 584.33,-96.65 572.84,-94.37 562.52,-92.01"/>
<polygon fill="midnightblue" stroke="midnightblue" points="1736.45,-137.47 1746.76,-135.01 1737.17,-130.51 1736.45,-137.47"/>
</g>
<!-- Node6 -->
<g id="node6" class="node">
<title>Node6</title>
<g id="a_node6"><a xlink:href="d__com__inf__game_8cpp.html" target="_top" xlink:title=" ">
<polygon fill="white" stroke="black" points="563.5,-0.5 563.5,-30.5 682.5,-30.5 682.5,-0.5 563.5,-0.5"/>
<text text-anchor="start" x="571.5" y="-18.5" font-family="Helvetica,sans-Serif" font-size="10.00">src/d/d_com/d_com_inf</text>
<text text-anchor="middle" x="623" y="-7.5" font-family="Helvetica,sans-Serif" font-size="10.00">_game.cpp</text>
</a>
</g>
</g>
<!-- Node3&#45;&gt;Node6 -->
<g id="edge5" class="edge">
<title>Node3&#45;&gt;Node6</title>
<path fill="none" stroke="midnightblue" d="M1736.75,-134.34C1610.99,-128.44 670.78,-139.57 628,-98 610.21,-80.71 614.4,-48.98 618.84,-30.62"/>
<polygon fill="midnightblue" stroke="midnightblue" points="1736.54,-137.84 1746.76,-135.01 1737.01,-130.85 1736.54,-137.84"/>
</g>
<!-- Node7 -->
<g id="node7" class="node">
<title>Node7</title>
<g id="a_node7"><a xlink:href="d__file__sel__info_8cpp.html" target="_top" xlink:title=" ">
<polygon fill="white" stroke="black" points="789.5,-67.5 789.5,-97.5 878.5,-97.5 878.5,-67.5 789.5,-67.5"/>
<text text-anchor="start" x="797.5" y="-85.5" font-family="Helvetica,sans-Serif" font-size="10.00">src/d/d_file/d_file</text>
<text text-anchor="middle" x="834" y="-74.5" font-family="Helvetica,sans-Serif" font-size="10.00">_sel_info.cpp</text>
</a>
</g>
</g>
<!-- Node3&#45;&gt;Node7 -->
<g id="edge6" class="edge">
<title>Node3&#45;&gt;Node7</title>
<path fill="none" stroke="midnightblue" d="M1736.68,-133.97C1360.33,-94.08 1258.45,-154.87 888,-98 884.93,-97.53 881.78,-96.95 878.63,-96.29"/>
<polygon fill="midnightblue" stroke="midnightblue" points="1736.43,-137.46 1746.75,-135.05 1737.18,-130.5 1736.43,-137.46"/>
</g>
<!-- Node8 -->
<g id="node8" class="node">
<title>Node8</title>
<g id="a_node8"><a xlink:href="d__item_8cpp.html" target="_top" xlink:title=" ">
<polygon fill="white" stroke="black" points="700.5,-6 700.5,-25 821.5,-25 821.5,-6 700.5,-6"/>
<text text-anchor="middle" x="761" y="-13" font-family="Helvetica,sans-Serif" font-size="10.00">src/d/d_item/d_item.cpp</text>
</a>
</g>
</g>
<!-- Node3&#45;&gt;Node8 -->
<g id="edge7" class="edge">
<title>Node3&#45;&gt;Node8</title>
<path fill="none" stroke="midnightblue" d="M1736.66,-134.33C1622.19,-128.55 820.71,-130.37 781,-98 758.98,-80.05 758.9,-42.16 760.11,-25.12"/>
<polygon fill="midnightblue" stroke="midnightblue" points="1736.53,-137.83 1746.75,-135.03 1737.02,-130.85 1736.53,-137.83"/>
</g>
<!-- Node9 -->
<g id="node9" class="node">
<title>Node9</title>
<g id="a_node9"><a xlink:href="d__kankyo__rain_8cpp.html" target="_top" xlink:title=" ">
<polygon fill="white" stroke="black" points="896.5,-67.5 896.5,-97.5 1023.5,-97.5 1023.5,-67.5 896.5,-67.5"/>
<text text-anchor="start" x="904.5" y="-85.5" font-family="Helvetica,sans-Serif" font-size="10.00">src/d/d_kankyo/d_kankyo</text>
<text text-anchor="middle" x="960" y="-74.5" font-family="Helvetica,sans-Serif" font-size="10.00">_rain.cpp</text>
</a>
</g>
</g>
<!-- Node3&#45;&gt;Node9 -->
<g id="edge8" class="edge">
<title>Node3&#45;&gt;Node9</title>
<path fill="none" stroke="midnightblue" d="M1736.5,-133.93C1424.47,-99.43 1341.01,-136.25 1033,-98 1029.92,-97.62 1026.78,-97.18 1023.61,-96.7"/>
<polygon fill="midnightblue" stroke="midnightblue" points="1736.42,-137.45 1746.75,-135.08 1737.2,-130.49 1736.42,-137.45"/>
</g>
<!-- Node10 -->
<g id="node10" class="node">
<title>Node10</title>
<g id="a_node10"><a xlink:href="d__kankyo__wether_8cpp.html" target="_top" xlink:title=" ">
<polygon fill="white" stroke="black" points="1041.5,-67.5 1041.5,-97.5 1168.5,-97.5 1168.5,-67.5 1041.5,-67.5"/>
<text text-anchor="start" x="1049.5" y="-85.5" font-family="Helvetica,sans-Serif" font-size="10.00">src/d/d_kankyo/d_kankyo</text>
<text text-anchor="middle" x="1105" y="-74.5" font-family="Helvetica,sans-Serif" font-size="10.00">_wether.cpp</text>
</a>
</g>
</g>
<!-- Node3&#45;&gt;Node10 -->
<g id="edge9" class="edge">
<title>Node3&#45;&gt;Node10</title>
<path fill="none" stroke="midnightblue" d="M1736.7,-133.94C1488.63,-104.92 1422.03,-129.94 1178,-98 1174.93,-97.6 1171.79,-97.14 1168.62,-96.65"/>
<polygon fill="midnightblue" stroke="midnightblue" points="1736.4,-137.43 1746.74,-135.13 1737.22,-130.48 1736.4,-137.43"/>
</g>
<!-- Node11 -->
<g id="node11" class="node">
<title>Node11</title>
<g id="a_node11"><a xlink:href="d__kankyo_8cpp.html" target="_top" xlink:title=" ">
<polygon fill="white" stroke="black" points="1186.5,-73 1186.5,-92 1287.5,-92 1287.5,-73 1186.5,-73"/>
<text text-anchor="middle" x="1237" y="-80" font-family="Helvetica,sans-Serif" font-size="10.00">src/d/d_kankyo.cpp</text>
</a>
</g>
</g>
<!-- Node3&#45;&gt;Node11 -->
<g id="edge10" class="edge">
<title>Node3&#45;&gt;Node11</title>
<path fill="none" stroke="midnightblue" d="M1736.71,-133.92C1541.2,-109.51 1487.94,-128.67 1297,-98 1287.58,-96.49 1277.46,-94.27 1268.26,-92.03"/>
<polygon fill="midnightblue" stroke="midnightblue" points="1736.37,-137.41 1746.73,-135.19 1737.26,-130.46 1736.37,-137.41"/>
</g>
<!-- Node12 -->
<g id="node12" class="node">
<title>Node12</title>
<g id="a_node12"><a xlink:href="d__kantera__icon__meter_8cpp.html" target="_top" xlink:title=" ">
<polygon fill="white" stroke="black" points="1305.5,-67.5 1305.5,-97.5 1412.5,-97.5 1412.5,-67.5 1305.5,-67.5"/>
<text text-anchor="start" x="1313.5" y="-85.5" font-family="Helvetica,sans-Serif" font-size="10.00">src/d/d_kantera_icon</text>
<text text-anchor="middle" x="1359" y="-74.5" font-family="Helvetica,sans-Serif" font-size="10.00">_meter.cpp</text>
</a>
</g>
</g>
<!-- Node3&#45;&gt;Node12 -->
<g id="edge11" class="edge">
<title>Node3&#45;&gt;Node12</title>
<path fill="none" stroke="midnightblue" d="M1736.45,-133.84C1596.33,-114.05 1558.05,-121.33 1422,-98 1418.9,-97.47 1415.73,-96.88 1412.53,-96.25"/>
<polygon fill="midnightblue" stroke="midnightblue" points="1736.32,-137.36 1746.72,-135.31 1737.32,-130.43 1736.32,-137.36"/>
</g>
<!-- Node13 -->
<g id="node13" class="node">
<title>Node13</title>
<g id="a_node13"><a xlink:href="d__meter__button_8cpp.html" target="_top" xlink:title=" ">
<polygon fill="white" stroke="black" points="1430.5,-67.5 1430.5,-97.5 1545.5,-97.5 1545.5,-67.5 1430.5,-67.5"/>
<text text-anchor="start" x="1438.5" y="-85.5" font-family="Helvetica,sans-Serif" font-size="10.00">src/d/d_meter/d_meter</text>
<text text-anchor="middle" x="1488" y="-74.5" font-family="Helvetica,sans-Serif" font-size="10.00">_button.cpp</text>
</a>
</g>
</g>
<!-- Node3&#45;&gt;Node13 -->
<g id="edge12" class="edge">
<title>Node3&#45;&gt;Node13</title>
<path fill="none" stroke="midnightblue" d="M1736.9,-133.21C1684.62,-123.46 1615.79,-110.37 1555,-98 1551.97,-97.38 1548.86,-96.74 1545.72,-96.09"/>
<polygon fill="midnightblue" stroke="midnightblue" points="1736.32,-136.66 1746.79,-135.05 1737.6,-129.78 1736.32,-136.66"/>
</g>
<!-- Node14 -->
<g id="node14" class="node">
<title>Node14</title>
<g id="a_node14"><a xlink:href="d__meter__haihai_8cpp.html" target="_top" xlink:title=" ">
<polygon fill="white" stroke="black" points="1563.5,-67.5 1563.5,-97.5 1678.5,-97.5 1678.5,-67.5 1563.5,-67.5"/>
<text text-anchor="start" x="1571.5" y="-85.5" font-family="Helvetica,sans-Serif" font-size="10.00">src/d/d_meter/d_meter</text>
<text text-anchor="middle" x="1621" y="-74.5" font-family="Helvetica,sans-Serif" font-size="10.00">_haihai.cpp</text>
</a>
</g>
</g>
<!-- Node3&#45;&gt;Node14 -->
<g id="edge13" class="edge">
<title>Node3&#45;&gt;Node14</title>
<path fill="none" stroke="midnightblue" d="M1767.12,-131.23C1734.93,-120.71 1694.33,-107.45 1664.1,-97.58"/>
<polygon fill="midnightblue" stroke="midnightblue" points="1766.23,-134.62 1776.82,-134.4 1768.4,-127.96 1766.23,-134.62"/>
</g>
<!-- Node15 -->
<g id="node15" class="node">
<title>Node15</title>
<g id="a_node15"><a xlink:href="d__meter__hakusha_8cpp.html" target="_top" xlink:title=" ">
<polygon fill="white" stroke="black" points="1696.5,-67.5 1696.5,-97.5 1811.5,-97.5 1811.5,-67.5 1696.5,-67.5"/>
<text text-anchor="start" x="1704.5" y="-85.5" font-family="Helvetica,sans-Serif" font-size="10.00">src/d/d_meter/d_meter</text>
<text text-anchor="middle" x="1754" y="-74.5" font-family="Helvetica,sans-Serif" font-size="10.00">_hakusha.cpp</text>
</a>
</g>
</g>
<!-- Node3&#45;&gt;Node15 -->
<g id="edge14" class="edge">
<title>Node3&#45;&gt;Node15</title>
<path fill="none" stroke="midnightblue" d="M1798.49,-127.31C1788.59,-117.56 1777.11,-106.26 1768.29,-97.58"/>
<polygon fill="midnightblue" stroke="midnightblue" points="1796.1,-129.87 1805.68,-134.4 1801.01,-124.89 1796.1,-129.87"/>
</g>
<!-- Node16 -->
<g id="node16" class="node">
<title>Node16</title>
<g id="a_node16"><a xlink:href="d__meter__map_8cpp.html" target="_top" xlink:title=" ">
<polygon fill="white" stroke="black" points="1829.5,-67.5 1829.5,-97.5 1944.5,-97.5 1944.5,-67.5 1829.5,-67.5"/>
<text text-anchor="start" x="1837.5" y="-85.5" font-family="Helvetica,sans-Serif" font-size="10.00">src/d/d_meter/d_meter</text>
<text text-anchor="middle" x="1887" y="-74.5" font-family="Helvetica,sans-Serif" font-size="10.00">_map.cpp</text>
</a>
</g>
</g>
<!-- Node3&#45;&gt;Node16 -->
<g id="edge15" class="edge">
<title>Node3&#45;&gt;Node16</title>
<path fill="none" stroke="midnightblue" d="M1841.84,-127.31C1851.89,-117.56 1863.54,-106.26 1872.49,-97.58"/>
<polygon fill="midnightblue" stroke="midnightblue" points="1839.28,-124.92 1834.54,-134.4 1844.15,-129.94 1839.28,-124.92"/>
</g>
<!-- Node17 -->
<g id="node17" class="node">
<title>Node17</title>
<g id="a_node17"><a xlink:href="d__meter__string_8cpp.html" target="_top" xlink:title=" ">
<polygon fill="white" stroke="black" points="1962.5,-67.5 1962.5,-97.5 2077.5,-97.5 2077.5,-67.5 1962.5,-67.5"/>
<text text-anchor="start" x="1970.5" y="-85.5" font-family="Helvetica,sans-Serif" font-size="10.00">src/d/d_meter/d_meter</text>
<text text-anchor="middle" x="2020" y="-74.5" font-family="Helvetica,sans-Serif" font-size="10.00">_string.cpp</text>
</a>
</g>
</g>
<!-- Node3&#45;&gt;Node17 -->
<g id="edge16" class="edge">
<title>Node3&#45;&gt;Node17</title>
<path fill="none" stroke="midnightblue" d="M1873.15,-131.23C1905.5,-120.71 1946.31,-107.45 1976.69,-97.58"/>
<polygon fill="midnightblue" stroke="midnightblue" points="1871.83,-127.98 1863.4,-134.4 1873.99,-134.63 1871.83,-127.98"/>
</g>
<!-- Node18 -->
<g id="node18" class="node">
<title>Node18</title>
<g id="a_node18"><a xlink:href="d__meter2__draw_8cpp.html" target="_top" xlink:title=" ">
<polygon fill="white" stroke="black" points="2095.5,-67.5 2095.5,-97.5 2220.5,-97.5 2220.5,-67.5 2095.5,-67.5"/>
<text text-anchor="start" x="2103.5" y="-85.5" font-family="Helvetica,sans-Serif" font-size="10.00">src/d/d_meter2/d_meter2</text>
<text text-anchor="middle" x="2158" y="-74.5" font-family="Helvetica,sans-Serif" font-size="10.00">_draw.cpp</text>
</a>
</g>
</g>
<!-- Node3&#45;&gt;Node18 -->
<g id="edge17" class="edge">
<title>Node3&#45;&gt;Node18</title>
<path fill="none" stroke="midnightblue" d="M1903.13,-133.1C1955.84,-123.25 2025.47,-110.1 2087,-98 2089.72,-97.47 2092.49,-96.92 2095.29,-96.36"/>
<polygon fill="midnightblue" stroke="midnightblue" points="1902.34,-129.69 1893.15,-134.96 1903.62,-136.57 1902.34,-129.69"/>
</g>
<!-- Node19 -->
<g id="node19" class="node">
<title>Node19</title>
<g id="a_node19"><a xlink:href="d__meter2__info_8cpp.html" target="_top" xlink:title=" ">
<polygon fill="white" stroke="black" points="2238.5,-67.5 2238.5,-97.5 2363.5,-97.5 2363.5,-67.5 2238.5,-67.5"/>
<text text-anchor="start" x="2246.5" y="-85.5" font-family="Helvetica,sans-Serif" font-size="10.00">src/d/d_meter2/d_meter2</text>
<text text-anchor="middle" x="2301" y="-74.5" font-family="Helvetica,sans-Serif" font-size="10.00">_info.cpp</text>
</a>
</g>
</g>
<!-- Node3&#45;&gt;Node19 -->
<g id="edge18" class="edge">
<title>Node3&#45;&gt;Node19</title>
<path fill="none" stroke="midnightblue" d="M1903.33,-140.18C1986.37,-131.44 2117.38,-116.41 2230,-98 2232.73,-97.55 2235.52,-97.08 2238.33,-96.58"/>
<polygon fill="midnightblue" stroke="midnightblue" points="1902.78,-136.72 1893.2,-141.25 1903.51,-143.68 1902.78,-136.72"/>
</g>
<!-- Node20 -->
<g id="node20" class="node">
<title>Node20</title>
<g id="a_node20"><a xlink:href="d__meter2_8cpp.html" target="_top" xlink:title=" ">
<polygon fill="white" stroke="black" points="2382,-73 2382,-92 2482,-92 2482,-73 2382,-73"/>
<text text-anchor="middle" x="2432" y="-80" font-family="Helvetica,sans-Serif" font-size="10.00">src/d/d_meter2.cpp</text>
</a>
</g>
</g>
<!-- Node3&#45;&gt;Node20 -->
<g id="edge19" class="edge">
<title>Node3&#45;&gt;Node20</title>
<path fill="none" stroke="midnightblue" d="M1903.6,-144.77C2012.33,-139.04 2207.89,-125.67 2373,-98 2382.15,-96.47 2391.99,-94.27 2400.95,-92.06"/>
<polygon fill="midnightblue" stroke="midnightblue" points="1903.16,-141.29 1893.36,-145.31 1903.52,-148.28 1903.16,-141.29"/>
</g>
<!-- Node21 -->
<g id="node21" class="node">
<title>Node21</title>
<g id="a_node21"><a xlink:href="d__save_8cpp.html" target="_top" xlink:title=" ">
<polygon fill="white" stroke="black" points="2500.5,-73 2500.5,-92 2625.5,-92 2625.5,-73 2500.5,-73"/>
<text text-anchor="middle" x="2563" y="-80" font-family="Helvetica,sans-Serif" font-size="10.00">src/d/d_save/d_save.cpp</text>
</a>
</g>
</g>
<!-- Node3&#45;&gt;Node21 -->
<g id="edge20" class="edge">
<title>Node3&#45;&gt;Node21</title>
<path fill="none" stroke="midnightblue" d="M1903.35,-145.54C2030.57,-140.28 2280.57,-126.99 2491,-98 2502.12,-96.47 2514.1,-94.28 2525.04,-92.06"/>
<polygon fill="midnightblue" stroke="midnightblue" points="1903.14,-142.05 1893.29,-145.95 1903.43,-149.04 1903.14,-142.05"/>
</g>
<!-- Node22 -->
<g id="node22" class="node">
<title>Node22</title>
<g id="a_node22"><a xlink:href="d__save__HIO_8cpp.html" target="_top" xlink:title=" ">
<polygon fill="white" stroke="black" points="2643.5,-67.5 2643.5,-97.5 2750.5,-97.5 2750.5,-67.5 2643.5,-67.5"/>
<text text-anchor="start" x="2651.5" y="-85.5" font-family="Helvetica,sans-Serif" font-size="10.00">src/d/d_save/d_save</text>
<text text-anchor="middle" x="2697" y="-74.5" font-family="Helvetica,sans-Serif" font-size="10.00">_HIO.cpp</text>
</a>
</g>
</g>
<!-- Node3&#45;&gt;Node22 -->
<g id="edge21" class="edge">
<title>Node3&#45;&gt;Node22</title>
<path fill="none" stroke="midnightblue" d="M1903.58,-147.94C2051.73,-145.91 2369.79,-136.95 2635,-98 2637.73,-97.6 2640.53,-97.14 2643.34,-96.63"/>
<polygon fill="midnightblue" stroke="midnightblue" points="1903.16,-144.44 1893.21,-148.07 1903.25,-151.44 1903.16,-144.44"/>
</g>
<!-- Node23 -->
<g id="node23" class="node">
<title>Node23</title>
<g id="a_node23"><a xlink:href="d__stage_8cpp.html" target="_top" xlink:title=" ">
<polygon fill="white" stroke="black" points="2769,-73 2769,-92 2863,-92 2863,-73 2769,-73"/>
<text text-anchor="middle" x="2816" y="-80" font-family="Helvetica,sans-Serif" font-size="10.00">src/d/d_stage.cpp</text>
</a>
</g>
</g>
<!-- Node3&#45;&gt;Node23 -->
<g id="edge22" class="edge">
<title>Node3&#45;&gt;Node23</title>
<path fill="none" stroke="midnightblue" d="M1903.19,-146.16C2101.19,-140.25 2596.09,-123.36 2760,-98 2769.03,-96.6 2778.72,-94.37 2787.45,-92.06"/>
<polygon fill="midnightblue" stroke="midnightblue" points="1903.03,-142.67 1893.14,-146.46 1903.24,-149.66 1903.03,-142.67"/>
</g>
<!-- Node24 -->
<g id="node24" class="node">
<title>Node24</title>
<g id="a_node24"><a xlink:href="f__pc__manager_8cpp.html" target="_top" xlink:title=" ">
<polygon fill="white" stroke="black" points="0,-6 0,-25 140,-25 140,-6 0,-6"/>
<text text-anchor="middle" x="70" y="-13" font-family="Helvetica,sans-Serif" font-size="10.00">src/f/f_pc/f_pc_manager.cpp</text>
</a>
</g>
</g>
<!-- Node3&#45;&gt;Node24 -->
<g id="edge23" class="edge">
<title>Node3&#45;&gt;Node24</title>
<path fill="none" stroke="midnightblue" d="M1736.47,-134.25C1577.34,-125.58 239.31,-129.62 160,-98 121.43,-82.62 88.92,-42.65 75.99,-25.04"/>
<polygon fill="midnightblue" stroke="midnightblue" points="1736.54,-137.76 1746.76,-134.98 1737.03,-130.78 1736.54,-137.76"/>
</g>
<!-- Node25 -->
<g id="node25" class="node">
<title>Node25</title>
<g id="a_node25"><a xlink:href="m__Do__audio_8cpp.html" target="_top" xlink:title=" ">
<polygon fill="white" stroke="black" points="2881,-73 2881,-92 3015,-92 3015,-73 2881,-73"/>
<text text-anchor="middle" x="2948" y="-80" font-family="Helvetica,sans-Serif" font-size="10.00">src/m_Do/m_Do_audio.cpp</text>
</a>
</g>
</g>
<!-- Node3&#45;&gt;Node25 -->
<g id="edge24" class="edge">
<title>Node3&#45;&gt;Node25</title>
<path fill="none" stroke="midnightblue" d="M1903.41,-148.47C2081.79,-147.53 2513.32,-140.61 2872,-98 2884.14,-96.56 2897.25,-94.31 2909.11,-92.01"/>
<polygon fill="midnightblue" stroke="midnightblue" points="1903.29,-144.97 1893.31,-148.52 1903.33,-151.97 1903.29,-144.97"/>
</g>
<!-- Node26 -->
<g id="node26" class="node">
<title>Node26</title>
<g id="a_node26"><a xlink:href="m__Do__ext_8cpp.html" target="_top" xlink:title=" ">
<polygon fill="white" stroke="black" points="3033.5,-73 3033.5,-92 3156.5,-92 3156.5,-73 3033.5,-73"/>
<text text-anchor="middle" x="3095" y="-80" font-family="Helvetica,sans-Serif" font-size="10.00">src/m_Do/m_Do_ext.cpp</text>
</a>
</g>
</g>
<!-- Node3&#45;&gt;Node26 -->
<g id="edge25" class="edge">
<title>Node3&#45;&gt;Node26</title>
<path fill="none" stroke="midnightblue" d="M1903.59,-146.73C2139.36,-141.47 2806.59,-124.59 3024,-98 3035.36,-96.61 3047.62,-94.38 3058.7,-92.07"/>
<polygon fill="midnightblue" stroke="midnightblue" points="1903.28,-143.24 1893.36,-146.96 1903.44,-150.24 1903.28,-143.24"/>
</g>
<!-- Node27 -->
<g id="node27" class="node">
<title>Node27</title>
<g id="a_node27"><a xlink:href="m__Do__main_8cpp.html" target="_top" xlink:title=" ">
<polygon fill="white" stroke="black" points="3174.5,-73 3174.5,-92 3305.5,-92 3305.5,-73 3174.5,-73"/>
<text text-anchor="middle" x="3240" y="-80" font-family="Helvetica,sans-Serif" font-size="10.00">src/m_Do/m_Do_main.cpp</text>
</a>
</g>
</g>
<!-- Node3&#45;&gt;Node27 -->
<g id="edge26" class="edge">
<title>Node3&#45;&gt;Node27</title>
<path fill="none" stroke="midnightblue" d="M1903.58,-147.07C2157.85,-142.46 2919.71,-126.57 3166,-98 3177.96,-96.61 3190.89,-94.35 3202.53,-92.02"/>
<polygon fill="midnightblue" stroke="midnightblue" points="1903.24,-143.58 1893.3,-147.26 1903.36,-150.58 1903.24,-143.58"/>
</g>
<!-- Node28 -->
<g id="node28" class="node">
<title>Node28</title>
<g id="a_node28"><a xlink:href="Z2EnvSeMgr_8cpp.html" target="_top" xlink:title=" ">
<polygon fill="white" stroke="black" points="3323.5,-73 3323.5,-92 3484.5,-92 3484.5,-73 3323.5,-73"/>
<text text-anchor="middle" x="3404" y="-80" font-family="Helvetica,sans-Serif" font-size="10.00">libs/Z2AudioLib/Z2EnvSeMgr.cpp</text>
</a>
</g>
</g>
<!-- Node3&#45;&gt;Node28 -->
<g id="edge27" class="edge">
<title>Node3&#45;&gt;Node28</title>
<path fill="none" stroke="midnightblue" d="M1903.3,-147.09C2175.61,-142.26 3037.81,-125.15 3315,-98 3329.18,-96.61 3344.52,-94.38 3358.41,-92.08"/>
<polygon fill="midnightblue" stroke="midnightblue" points="1903.03,-143.59 1893.09,-147.27 1903.15,-150.59 1903.03,-143.59"/>
</g>
<!-- Node29 -->
<g id="node29" class="node">
<title>Node29</title>
<g id="a_node29"><a xlink:href="Z2LinkMgr_8cpp.html" target="_top" xlink:title=" ">
<polygon fill="white" stroke="black" points="3503,-73 3503,-92 3655,-92 3655,-73 3503,-73"/>
<text text-anchor="middle" x="3579" y="-80" font-family="Helvetica,sans-Serif" font-size="10.00">libs/Z2AudioLib/Z2LinkMgr.cpp</text>
</a>
</g>
</g>
<!-- Node3&#45;&gt;Node29 -->
<g id="edge28" class="edge">
<title>Node3&#45;&gt;Node29</title>
<path fill="none" stroke="midnightblue" d="M1903.15,-147.52C2196.21,-143.83 3180.2,-129.35 3494,-98 3507.7,-96.63 3522.54,-94.37 3535.92,-92.04"/>
<polygon fill="midnightblue" stroke="midnightblue" points="1902.98,-144.02 1893.02,-147.65 1903.06,-151.02 1902.98,-144.02"/>
</g>
<!-- Node30 -->
<g id="node30" class="node">
<title>Node30</title>
<g id="a_node30"><a xlink:href="Z2SceneMgr_8cpp.html" target="_top" xlink:title=" ">
<polygon fill="white" stroke="black" points="3673.5,-73 3673.5,-92 3834.5,-92 3834.5,-73 3673.5,-73"/>
<text text-anchor="middle" x="3754" y="-80" font-family="Helvetica,sans-Serif" font-size="10.00">libs/Z2AudioLib/Z2SceneMgr.cpp</text>
</a>
</g>
</g>
<!-- Node3&#45;&gt;Node30 -->
<g id="edge29" class="edge">
<title>Node3&#45;&gt;Node30</title>
<path fill="none" stroke="midnightblue" d="M1903.55,-147.68C2215.95,-144.4 3315.22,-130.73 3664,-98 3678.5,-96.64 3694.2,-94.38 3708.36,-92.05"/>
<polygon fill="midnightblue" stroke="midnightblue" points="1903.17,-144.19 1893.21,-147.79 1903.25,-151.19 1903.17,-144.19"/>
</g>
<!-- Node31 -->
<g id="node31" class="node">
<title>Node31</title>
<g id="a_node31"><a xlink:href="Z2SoundMgr_8cpp.html" target="_top" xlink:title=" ">
<polygon fill="white" stroke="black" points="3852.5,-73 3852.5,-92 4013.5,-92 4013.5,-73 3852.5,-73"/>
<text text-anchor="middle" x="3933" y="-80" font-family="Helvetica,sans-Serif" font-size="10.00">libs/Z2AudioLib/Z2SoundMgr.cpp</text>
</a>
</g>
</g>
<!-- Node3&#45;&gt;Node31 -->
<g id="edge30" class="edge">
<title>Node3&#45;&gt;Node31</title>
<path fill="none" stroke="midnightblue" d="M1903.52,-147.94C2234.94,-145.47 3458.08,-134.08 3844,-98 3858.5,-96.64 3874.21,-94.36 3888.33,-92"/>
<polygon fill="midnightblue" stroke="midnightblue" points="1903.01,-144.44 1893.04,-148.02 1903.06,-151.44 1903.01,-144.44"/>
</g>
<!-- Node32 -->
<g id="node32" class="node">
<title>Node32</title>
<g id="a_node32"><a xlink:href="Z2StatusMgr_8cpp.html" target="_top" xlink:title=" ">
<polygon fill="white" stroke="black" points="4031.5,-67.5 4031.5,-97.5 4158.5,-97.5 4158.5,-67.5 4031.5,-67.5"/>
<text text-anchor="start" x="4039.5" y="-85.5" font-family="Helvetica,sans-Serif" font-size="10.00">libs/Z2AudioLib/Z2Status</text>
<text text-anchor="middle" x="4095" y="-74.5" font-family="Helvetica,sans-Serif" font-size="10.00">Mgr.cpp</text>
</a>
</g>
</g>
<!-- Node3&#45;&gt;Node32 -->
<g id="edge31" class="edge">
<title>Node3&#45;&gt;Node32</title>
<path fill="none" stroke="midnightblue" d="M1903.05,-148.55C2251.98,-148.46 3600.61,-145 4023,-98 4025.79,-97.69 4028.63,-97.33 4031.49,-96.92"/>
<polygon fill="midnightblue" stroke="midnightblue" points="1903.02,-145.05 1893.02,-148.55 1903.02,-152.05 1903.02,-145.05"/>
</g>
<!-- Node33 -->
<g id="node33" class="node">
<title>Node33</title>
<g id="a_node33"><a xlink:href="d__a__alink_8h.html" target="_top" xlink:title=" ">
<polygon fill="white" stroke="black" points="341.5,-67.5 341.5,-97.5 460.5,-97.5 460.5,-67.5 341.5,-67.5"/>
<text text-anchor="start" x="349.5" y="-85.5" font-family="Helvetica,sans-Serif" font-size="10.00">include/d/d_a/d_a_alink</text>
<text text-anchor="middle" x="401" y="-74.5" font-family="Helvetica,sans-Serif" font-size="10.00">/d_a_alink.h</text>
</a>
</g>
</g>
<!-- Node3&#45;&gt;Node33 -->
<g id="edge32" class="edge">
<title>Node3&#45;&gt;Node33</title>
<path fill="none" stroke="midnightblue" d="M1736.79,-133.99C1175.39,-77.78 1026.6,-163.85 470,-98 466.96,-97.64 463.86,-97.21 460.73,-96.73"/>
<polygon fill="midnightblue" stroke="midnightblue" points="1736.46,-137.48 1746.76,-135 1737.16,-130.51 1736.46,-137.48"/>
</g>
<!-- Node36 -->
<g id="node36" class="node">
<title>Node36</title>
<g id="a_node36"><a xlink:href="d__item_8h.html" target="_top" xlink:title=" ">
<polygon fill="white" stroke="black" points="637,-67.5 637,-97.5 733,-97.5 733,-67.5 637,-67.5"/>
<text text-anchor="start" x="645" y="-85.5" font-family="Helvetica,sans-Serif" font-size="10.00">include/d/d_item/d</text>
<text text-anchor="middle" x="685" y="-74.5" font-family="Helvetica,sans-Serif" font-size="10.00">_item/d_item.h</text>
</a>
</g>
</g>
<!-- Node3&#45;&gt;Node36 -->
<g id="edge37" class="edge">
<title>Node3&#45;&gt;Node36</title>
<path fill="none" stroke="midnightblue" d="M1736.66,-133.97C1297.95,-88.55 1180.53,-156.01 747,-98 742.51,-97.4 737.86,-96.62 733.23,-95.73"/>
<polygon fill="midnightblue" stroke="midnightblue" points="1736.44,-137.47 1746.75,-135.03 1737.17,-130.5 1736.44,-137.47"/>
</g>
<!-- Node37 -->
<g id="node37" class="node">
<title>Node37</title>
<g id="a_node37"><a xlink:href="f__pc__manager_8h.html" target="_top" xlink:title=" ">
<polygon fill="white" stroke="black" points="169.5,-67.5 169.5,-97.5 266.5,-97.5 266.5,-67.5 169.5,-67.5"/>
<text text-anchor="start" x="177.5" y="-85.5" font-family="Helvetica,sans-Serif" font-size="10.00">include/f/f_pc/f_pc</text>
<text text-anchor="middle" x="218" y="-74.5" font-family="Helvetica,sans-Serif" font-size="10.00">_manager.h</text>
</a>
</g>
</g>
<!-- Node3&#45;&gt;Node37 -->
<g id="edge40" class="edge">
<title>Node3&#45;&gt;Node37</title>
<path fill="none" stroke="midnightblue" d="M1736.4,-133.96C1099.65,-71.11 932.07,-162.21 299,-98 288.48,-96.93 277.28,-95.27 266.66,-93.45"/>
<polygon fill="midnightblue" stroke="midnightblue" points="1736.46,-137.48 1746.76,-134.99 1737.15,-130.51 1736.46,-137.48"/>
</g>
<!-- Node33&#45;&gt;Node4 -->
<g id="edge33" class="edge">
<title>Node33&#45;&gt;Node4</title>
<path fill="none" stroke="midnightblue" d="M383.25,-59.32C373.88,-47.6 362.91,-33.88 355.96,-25.19"/>
<polygon fill="midnightblue" stroke="midnightblue" points="380.74,-61.77 389.72,-67.4 386.2,-57.4 380.74,-61.77"/>
</g>
<!-- Node34 -->
<g id="node34" class="node">
<title>Node34</title>
<g id="a_node34"><a xlink:href="d__a__alink_8cpp.html" target="_top" xlink:title=" ">
<polygon fill="white" stroke="black" points="158.5,-6 158.5,-25 277.5,-25 277.5,-6 158.5,-6"/>
<text text-anchor="middle" x="218" y="-13" font-family="Helvetica,sans-Serif" font-size="10.00">src/d/d_a/d_a_alink.cpp</text>
</a>
</g>
</g>
<!-- Node33&#45;&gt;Node34 -->
<g id="edge34" class="edge">
<title>Node33&#45;&gt;Node34</title>
<path fill="none" stroke="midnightblue" d="M351.58,-63.95C316.04,-51.32 269.66,-34.85 241.95,-25.01"/>
<polygon fill="midnightblue" stroke="midnightblue" points="350.7,-67.35 361.29,-67.4 353.04,-60.75 350.7,-67.35"/>
</g>
<!-- Node35 -->
<g id="node35" class="node">
<title>Node35</title>
<g id="a_node35"><a xlink:href="d__a__player_8h.html" target="_top" xlink:title=" ">
<polygon fill="white" stroke="black" points="421,-0.5 421,-30.5 545,-30.5 545,-0.5 421,-0.5"/>
<text text-anchor="start" x="429" y="-18.5" font-family="Helvetica,sans-Serif" font-size="10.00">include/d/d_a/d_a_player</text>
<text text-anchor="middle" x="483" y="-7.5" font-family="Helvetica,sans-Serif" font-size="10.00">/d_a_player.h</text>
</a>
</g>
</g>
<!-- Node33&#45;&gt;Node35 -->
<g id="edge35" class="edge">
<title>Node33&#45;&gt;Node35</title>
<path fill="none" stroke="midnightblue" d="M421.02,-60.6C432.7,-50.78 447.35,-39.34 459.57,-30.58"/>
<polygon fill="midnightblue" stroke="midnightblue" points="418.41,-58.22 413.11,-67.4 422.98,-63.53 418.41,-58.22"/>
</g>
<!-- Node35&#45;&gt;Node33 -->
<g id="edge36" class="edge">
<title>Node35&#45;&gt;Node33</title>
<path fill="none" stroke="midnightblue" d="M463.02,-37.37C451.35,-47.18 436.69,-58.62 424.47,-67.4"/>
<polygon fill="midnightblue" stroke="midnightblue" points="465.62,-39.75 470.92,-30.58 461.05,-34.45 465.62,-39.75"/>
</g>
<!-- Node36&#45;&gt;Node6 -->
<g id="edge38" class="edge">
<title>Node36&#45;&gt;Node6</title>
<path fill="none" stroke="midnightblue" d="M664.52,-60.02C655.28,-50.34 644.63,-39.17 636.43,-30.58"/>
<polygon fill="midnightblue" stroke="midnightblue" points="662.11,-62.58 671.55,-67.4 667.18,-57.74 662.11,-62.58"/>
</g>
<!-- Node36&#45;&gt;Node8 -->
<g id="edge39" class="edge">
<title>Node36&#45;&gt;Node8</title>
<path fill="none" stroke="midnightblue" d="M709.35,-60.67C723.39,-48.67 740.28,-34.22 750.83,-25.19"/>
<polygon fill="midnightblue" stroke="midnightblue" points="706.82,-58.24 701.49,-67.4 711.37,-63.56 706.82,-58.24"/>
</g>
<!-- Node37&#45;&gt;Node24 -->
<g id="edge42" class="edge">
<title>Node37&#45;&gt;Node24</title>
<path fill="none" stroke="midnightblue" d="M176.55,-63.3C148.01,-50.76 111.4,-34.68 89.37,-25.01"/>
<polygon fill="midnightblue" stroke="midnightblue" points="175.32,-66.58 185.89,-67.4 178.14,-60.17 175.32,-66.58"/>
</g>
<!-- Node37&#45;&gt;Node34 -->
<g id="edge41" class="edge">
<title>Node37&#45;&gt;Node34</title>
<path fill="none" stroke="midnightblue" d="M218,-57.25C218,-46.02 218,-33.38 218,-25.19"/>
<polygon fill="midnightblue" stroke="midnightblue" points="214.5,-57.4 218,-67.4 221.5,-57.4 214.5,-57.4"/>
</g>
</g>
</svg>
        <g id="navigator" transform="translate(0 0)" fill="#404254">
                <rect fill="#f2f5e9" fill-opacity="0.5" stroke="#606060" stroke-width=".5" x="0" y="0" width="60" height="60"/>
                <use id="zoomplus" xlink:href="#zoomPlus" x="17" y="9" onmousedown="handleZoom(evt,'in')"/>
                <use id="zoomminus" xlink:href="#zoomMin" x="42" y="9" onmousedown="handleZoom(evt,'out')"/>
                <use id="reset" xlink:href="#resetDef" x="30" y="36" onmousedown="handleReset()"/>
                <g id="arrowUp" xlink:href="#dirArrow" transform="translate(30 24)" onmousedown="handlePan(0,-1)">
                  <use xlink:href="#rim" fill="#404040">
                        <set attributeName="fill" to="#808080" begin="arrowUp.mouseover" end="arrowUp.mouseout"/>
                  </use>
                  <path fill="none" stroke="white" stroke-width="1.5" d="M0,-3.0v7 M-2.5,-0.5L0,-3.0L2.5,-0.5"/>
                </g>
                <g id="arrowRight" xlink:href="#dirArrow" transform="rotate(90) translate(36 -43)" onmousedown="handlePan(1,0)">
                  <use xlink:href="#rim" fill="#404040">
                        <set attributeName="fill" to="#808080" begin="arrowRight.mouseover" end="arrowRight.mouseout"/>
                  </use>
                  <path fill="none" stroke="white" stroke-width="1.5" d="M0,-3.0v7 M-2.5,-0.5L0,-3.0L2.5,-0.5"/>
                </g>
                <g id="arrowDown" xlink:href="#dirArrow" transform="rotate(180) translate(-30 -48)" onmousedown="handlePan(0,1)">
                  <use xlink:href="#rim" fill="#404040">
                        <set attributeName="fill" to="#808080" begin="arrowDown.mouseover" end="arrowDown.mouseout"/>
                  </use>
                  <path fill="none" stroke="white" stroke-width="1.5" d="M0,-3.0v7 M-2.5,-0.5L0,-3.0L2.5,-0.5"/>
                </g>
                <g id="arrowLeft" xlink:href="#dirArrow" transform="rotate(270) translate(-36 17)" onmousedown="handlePan(-1,0)">
                  <use xlink:href="#rim" fill="#404040">
                        <set attributeName="fill" to="#808080" begin="arrowLeft.mouseover" end="arrowLeft.mouseout"/>
                  </use>
                  <path fill="none" stroke="white" stroke-width="1.5" d="M0,-3.0v7 M-2.5,-0.5L0,-3.0L2.5,-0.5"/>
                </g>
        </g>
        <svg viewBox="0 0 15 15" width="100%" height="30px" preserveAspectRatio="xMaxYMin meet">
         <g id="arrow_out" transform="scale(0.3 0.3)">
          <a xlink:href="d__event_8h__dep__incl_org.svg" target="_base">
           <rect id="button" ry="5" rx="5" y="6" x="6" height="38" width="38"
                fill="#f2f5e9" fill-opacity="0.5" stroke="#606060" stroke-width="1.0"/>
           <path id="arrow"
             d="M 11.500037,31.436501 C 11.940474,20.09759 22.043105,11.32322 32.158766,21.979434 L 37.068811,17.246167 C 37.068811,17.246167 37.088388,32 37.088388,32 L 22.160133,31.978069 C 22.160133,31.978069 26.997745,27.140456 26.997745,27.140456 C 18.528582,18.264221 13.291696,25.230495 11.500037,31.436501 z"
             style="fill:#404040;"/>
          </a>
         </g>
        </svg>
</svg>
