<?xml version="1.0" encoding="UTF-8" standalone="no"?>
<!DOCTYPE svg PUBLIC "-//W3C//DTD SVG 1.1//EN"
 "http://www.w3.org/Graphics/SVG/1.1/DTD/svg11.dtd">
<!-- Generated by graphviz version 2.47.0 (20210316.2052)
 -->
<!-- Title: src/d/d_kankyo/d_kankyo_data.cpp Pages: 1 -->
<svg width="2229pt" height="397pt"
 viewBox="0.00 0.00 2228.50 397.00" xmlns="http://www.w3.org/2000/svg" xmlns:xlink="http://www.w3.org/1999/xlink">
<g id="graph0" class="graph" transform="scale(1 1) rotate(0) translate(4 393)">
<title>src/d/d_kankyo/d_kankyo_data.cpp</title>
<polygon fill="white" stroke="transparent" points="-4,4 -4,-393 2224.5,-393 2224.5,4 -4,4"/>
<!-- Node1 -->
<g id="node1" class="node">
<title>Node1</title>
<g id="a_node1"><a xlink:title=" ">
<polygon fill="#bfbfbf" stroke="black" points="1057,-358.5 1057,-388.5 1184,-388.5 1184,-358.5 1057,-358.5"/>
<text text-anchor="start" x="1065" y="-376.5" font-family="Helvetica,sans-Serif" font-size="10.00">src/d/d_kankyo/d_kankyo</text>
<text text-anchor="middle" x="1120.5" y="-365.5" font-family="Helvetica,sans-Serif" font-size="10.00">_data.cpp</text>
</a>
</g>
</g>
<!-- Node2 -->
<g id="node2" class="node">
<title>Node2</title>
<g id="a_node2"><a xlink:href="d__kankyo_8h.html" target="_top" xlink:title=" ">
<polygon fill="white" stroke="black" points="152.5,-297 152.5,-316 270.5,-316 270.5,-297 152.5,-297"/>
<text text-anchor="middle" x="211.5" y="-304" font-family="Helvetica,sans-Serif" font-size="10.00">d/d_kankyo/d_kankyo.h</text>
</a>
</g>
</g>
<!-- Node1&#45;&gt;Node2 -->
<g id="edge1" class="edge">
<title>Node1&#45;&gt;Node2</title>
<path fill="none" stroke="midnightblue" d="M1056.81,-371.03C917.92,-367.3 577.56,-355.27 294.5,-322 284.9,-320.87 274.73,-319.36 264.92,-317.74"/>
<polygon fill="midnightblue" stroke="midnightblue" points="265.32,-314.26 254.87,-316.02 264.14,-321.16 265.32,-314.26"/>
</g>
<!-- Node4 -->
<g id="node4" class="node">
<title>Node4</title>
<g id="a_node4"><a xlink:href="global_8h.html" target="_top" xlink:title=" ">
<polygon fill="white" stroke="black" points="160.5,-168.5 160.5,-187.5 210.5,-187.5 210.5,-168.5 160.5,-168.5"/>
<text text-anchor="middle" x="185.5" y="-175.5" font-family="Helvetica,sans-Serif" font-size="10.00">global.h</text>
</a>
</g>
</g>
<!-- Node1&#45;&gt;Node4 -->
<g id="edge15" class="edge">
<title>Node1&#45;&gt;Node4</title>
<path fill="none" stroke="midnightblue" d="M1056.96,-372.33C879.17,-371.32 385.75,-364.67 327.5,-322 289.81,-294.39 321.89,-257.66 289.5,-224 270.93,-204.7 242.69,-193.2 220.33,-186.66"/>
<polygon fill="midnightblue" stroke="midnightblue" points="221.09,-183.24 210.52,-184 219.25,-190 221.09,-183.24"/>
</g>
<!-- Node12 -->
<g id="node12" class="node">
<title>Node12</title>
<g id="a_node12"><a xlink:title=" ">
<polygon fill="white" stroke="#bfbfbf" points="336.5,-291.5 336.5,-321.5 478.5,-321.5 478.5,-291.5 336.5,-291.5"/>
<text text-anchor="start" x="344.5" y="-309.5" font-family="Helvetica,sans-Serif" font-size="10.00">d/d_kankyo/d_kankyo</text>
<text text-anchor="middle" x="407.5" y="-298.5" font-family="Helvetica,sans-Serif" font-size="10.00">_data/asm/func_800569DC.s</text>
</a>
</g>
</g>
<!-- Node1&#45;&gt;Node12 -->
<g id="edge16" class="edge">
<title>Node1&#45;&gt;Node12</title>
<path fill="none" stroke="midnightblue" d="M1056.94,-369.53C944.42,-363.81 702.65,-349.46 488.71,-322.07"/>
<polygon fill="midnightblue" stroke="midnightblue" points="488.91,-318.57 478.54,-320.76 488.01,-325.51 488.91,-318.57"/>
</g>
<!-- Node13 -->
<g id="node13" class="node">
<title>Node13</title>
<g id="a_node13"><a xlink:title=" ">
<polygon fill="white" stroke="#bfbfbf" points="496.5,-291.5 496.5,-321.5 636.5,-321.5 636.5,-291.5 496.5,-291.5"/>
<text text-anchor="start" x="504.5" y="-309.5" font-family="Helvetica,sans-Serif" font-size="10.00">d/d_kankyo/d_kankyo</text>
<text text-anchor="middle" x="566.5" y="-298.5" font-family="Helvetica,sans-Serif" font-size="10.00">_data/asm/func_800569E8.s</text>
</a>
</g>
</g>
<!-- Node1&#45;&gt;Node13 -->
<g id="edge17" class="edge">
<title>Node1&#45;&gt;Node13</title>
<path fill="none" stroke="midnightblue" d="M1056.92,-367.28C967.59,-359.6 799.62,-343.92 646.71,-322.11"/>
<polygon fill="midnightblue" stroke="midnightblue" points="647.06,-318.62 636.67,-320.66 646.07,-325.55 647.06,-318.62"/>
</g>
<!-- Node14 -->
<g id="node14" class="node">
<title>Node14</title>
<g id="a_node14"><a xlink:title=" ">
<polygon fill="white" stroke="#bfbfbf" points="654.5,-291.5 654.5,-321.5 794.5,-321.5 794.5,-291.5 654.5,-291.5"/>
<text text-anchor="start" x="662.5" y="-309.5" font-family="Helvetica,sans-Serif" font-size="10.00">d/d_kankyo/d_kankyo</text>
<text text-anchor="middle" x="724.5" y="-298.5" font-family="Helvetica,sans-Serif" font-size="10.00">_data/asm/func_800569F4.s</text>
</a>
</g>
</g>
<!-- Node1&#45;&gt;Node14 -->
<g id="edge18" class="edge">
<title>Node1&#45;&gt;Node14</title>
<path fill="none" stroke="midnightblue" d="M1056.97,-362.83C995.11,-353.31 898.15,-338.12 804.61,-322.17"/>
<polygon fill="midnightblue" stroke="midnightblue" points="805.14,-318.71 794.7,-320.47 803.96,-325.61 805.14,-318.71"/>
</g>
<!-- Node15 -->
<g id="node15" class="node">
<title>Node15</title>
<g id="a_node15"><a xlink:title=" ">
<polygon fill="white" stroke="#bfbfbf" points="812.5,-291.5 812.5,-321.5 952.5,-321.5 952.5,-291.5 812.5,-291.5"/>
<text text-anchor="start" x="820.5" y="-309.5" font-family="Helvetica,sans-Serif" font-size="10.00">d/d_kankyo/d_kankyo</text>
<text text-anchor="middle" x="882.5" y="-298.5" font-family="Helvetica,sans-Serif" font-size="10.00">_data/asm/func_80056A00.s</text>
</a>
</g>
</g>
<!-- Node1&#45;&gt;Node15 -->
<g id="edge19" class="edge">
<title>Node1&#45;&gt;Node15</title>
<path fill="none" stroke="midnightblue" d="M1069.15,-358.48C1032.52,-348.47 983.09,-334.97 944.3,-324.38"/>
<polygon fill="midnightblue" stroke="midnightblue" points="944.74,-320.87 934.17,-321.61 942.89,-327.62 944.74,-320.87"/>
</g>
<!-- Node16 -->
<g id="node16" class="node">
<title>Node16</title>
<g id="a_node16"><a xlink:title=" ">
<polygon fill="white" stroke="#bfbfbf" points="970.5,-291.5 970.5,-321.5 1112.5,-321.5 1112.5,-291.5 970.5,-291.5"/>
<text text-anchor="start" x="978.5" y="-309.5" font-family="Helvetica,sans-Serif" font-size="10.00">d/d_kankyo/d_kankyo</text>
<text text-anchor="middle" x="1041.5" y="-298.5" font-family="Helvetica,sans-Serif" font-size="10.00">_data/asm/func_80056A0C.s</text>
</a>
</g>
</g>
<!-- Node1&#45;&gt;Node16 -->
<g id="edge20" class="edge">
<title>Node1&#45;&gt;Node16</title>
<path fill="none" stroke="midnightblue" d="M1103.36,-358.4C1092.59,-349.54 1078.52,-337.96 1066.52,-328.09"/>
<polygon fill="midnightblue" stroke="midnightblue" points="1068.55,-325.23 1058.61,-321.58 1064.11,-330.63 1068.55,-325.23"/>
</g>
<!-- Node17 -->
<g id="node17" class="node">
<title>Node17</title>
<g id="a_node17"><a xlink:title=" ">
<polygon fill="white" stroke="#bfbfbf" points="1130.5,-291.5 1130.5,-321.5 1270.5,-321.5 1270.5,-291.5 1130.5,-291.5"/>
<text text-anchor="start" x="1138.5" y="-309.5" font-family="Helvetica,sans-Serif" font-size="10.00">d/d_kankyo/d_kankyo</text>
<text text-anchor="middle" x="1200.5" y="-298.5" font-family="Helvetica,sans-Serif" font-size="10.00">_data/asm/func_80056A18.s</text>
</a>
</g>
</g>
<!-- Node1&#45;&gt;Node17 -->
<g id="edge21" class="edge">
<title>Node1&#45;&gt;Node17</title>
<path fill="none" stroke="midnightblue" d="M1137.86,-358.4C1148.76,-349.54 1163.01,-337.96 1175.16,-328.09"/>
<polygon fill="midnightblue" stroke="midnightblue" points="1177.62,-330.6 1183.18,-321.58 1173.21,-325.17 1177.62,-330.6"/>
</g>
<!-- Node18 -->
<g id="node18" class="node">
<title>Node18</title>
<g id="a_node18"><a xlink:title=" ">
<polygon fill="white" stroke="#bfbfbf" points="1288.5,-291.5 1288.5,-321.5 1428.5,-321.5 1428.5,-291.5 1288.5,-291.5"/>
<text text-anchor="start" x="1296.5" y="-309.5" font-family="Helvetica,sans-Serif" font-size="10.00">d/d_kankyo/d_kankyo</text>
<text text-anchor="middle" x="1358.5" y="-298.5" font-family="Helvetica,sans-Serif" font-size="10.00">_data/asm/func_80056A24.s</text>
</a>
</g>
</g>
<!-- Node1&#45;&gt;Node18 -->
<g id="edge22" class="edge">
<title>Node1&#45;&gt;Node18</title>
<path fill="none" stroke="midnightblue" d="M1171.85,-358.48C1208.48,-348.47 1257.91,-334.97 1296.7,-324.38"/>
<polygon fill="midnightblue" stroke="midnightblue" points="1298.11,-327.62 1306.83,-321.61 1296.26,-320.87 1298.11,-327.62"/>
</g>
<!-- Node19 -->
<g id="node19" class="node">
<title>Node19</title>
<g id="a_node19"><a xlink:title=" ">
<polygon fill="white" stroke="#bfbfbf" points="1446.5,-291.5 1446.5,-321.5 1586.5,-321.5 1586.5,-291.5 1446.5,-291.5"/>
<text text-anchor="start" x="1454.5" y="-309.5" font-family="Helvetica,sans-Serif" font-size="10.00">d/d_kankyo/d_kankyo</text>
<text text-anchor="middle" x="1516.5" y="-298.5" font-family="Helvetica,sans-Serif" font-size="10.00">_data/asm/func_80056A64.s</text>
</a>
</g>
</g>
<!-- Node1&#45;&gt;Node19 -->
<g id="edge23" class="edge">
<title>Node1&#45;&gt;Node19</title>
<path fill="none" stroke="midnightblue" d="M1184.03,-362.83C1245.89,-353.31 1342.85,-338.12 1436.39,-322.17"/>
<polygon fill="midnightblue" stroke="midnightblue" points="1437.04,-325.61 1446.3,-320.47 1435.86,-318.71 1437.04,-325.61"/>
</g>
<!-- Node20 -->
<g id="node20" class="node">
<title>Node20</title>
<g id="a_node20"><a xlink:title=" ">
<polygon fill="white" stroke="#bfbfbf" points="1604.5,-291.5 1604.5,-321.5 1744.5,-321.5 1744.5,-291.5 1604.5,-291.5"/>
<text text-anchor="start" x="1612.5" y="-309.5" font-family="Helvetica,sans-Serif" font-size="10.00">d/d_kankyo/d_kankyo</text>
<text text-anchor="middle" x="1674.5" y="-298.5" font-family="Helvetica,sans-Serif" font-size="10.00">_data/asm/func_80056A70.s</text>
</a>
</g>
</g>
<!-- Node1&#45;&gt;Node20 -->
<g id="edge24" class="edge">
<title>Node1&#45;&gt;Node20</title>
<path fill="none" stroke="midnightblue" d="M1184.08,-367.28C1273.41,-359.6 1441.38,-343.92 1594.29,-322.11"/>
<polygon fill="midnightblue" stroke="midnightblue" points="1594.93,-325.55 1604.33,-320.66 1593.94,-318.62 1594.93,-325.55"/>
</g>
<!-- Node21 -->
<g id="node21" class="node">
<title>Node21</title>
<g id="a_node21"><a xlink:title=" ">
<polygon fill="white" stroke="#bfbfbf" points="1762.5,-291.5 1762.5,-321.5 1904.5,-321.5 1904.5,-291.5 1762.5,-291.5"/>
<text text-anchor="start" x="1770.5" y="-309.5" font-family="Helvetica,sans-Serif" font-size="10.00">d/d_kankyo/d_kankyo</text>
<text text-anchor="middle" x="1833.5" y="-298.5" font-family="Helvetica,sans-Serif" font-size="10.00">_data/asm/func_80056A7C.s</text>
</a>
</g>
</g>
<!-- Node1&#45;&gt;Node21 -->
<g id="edge25" class="edge">
<title>Node1&#45;&gt;Node21</title>
<path fill="none" stroke="midnightblue" d="M1184.06,-369.53C1296.58,-363.81 1538.35,-349.46 1752.29,-322.07"/>
<polygon fill="midnightblue" stroke="midnightblue" points="1752.99,-325.51 1762.46,-320.76 1752.09,-318.57 1752.99,-325.51"/>
</g>
<!-- Node22 -->
<g id="node22" class="node">
<title>Node22</title>
<g id="a_node22"><a xlink:title=" ">
<polygon fill="white" stroke="#bfbfbf" points="1922.5,-291.5 1922.5,-321.5 2062.5,-321.5 2062.5,-291.5 1922.5,-291.5"/>
<text text-anchor="start" x="1930.5" y="-309.5" font-family="Helvetica,sans-Serif" font-size="10.00">d/d_kankyo/d_kankyo</text>
<text text-anchor="middle" x="1992.5" y="-298.5" font-family="Helvetica,sans-Serif" font-size="10.00">_data/asm/func_80056A88.s</text>
</a>
</g>
</g>
<!-- Node1&#45;&gt;Node22 -->
<g id="edge26" class="edge">
<title>Node1&#45;&gt;Node22</title>
<path fill="none" stroke="midnightblue" d="M1184.21,-370.99C1317.52,-367.28 1635.71,-355.54 1912.13,-322.07"/>
<polygon fill="midnightblue" stroke="midnightblue" points="1912.85,-325.51 1922.35,-320.82 1912,-318.56 1912.85,-325.51"/>
</g>
<!-- Node23 -->
<g id="node23" class="node">
<title>Node23</title>
<g id="a_node23"><a xlink:title=" ">
<polygon fill="white" stroke="#bfbfbf" points="2080.5,-291.5 2080.5,-321.5 2220.5,-321.5 2220.5,-291.5 2080.5,-291.5"/>
<text text-anchor="start" x="2088.5" y="-309.5" font-family="Helvetica,sans-Serif" font-size="10.00">d/d_kankyo/d_kankyo</text>
<text text-anchor="middle" x="2150.5" y="-298.5" font-family="Helvetica,sans-Serif" font-size="10.00">_data/asm/func_80056A94.s</text>
</a>
</g>
</g>
<!-- Node1&#45;&gt;Node23 -->
<g id="edge27" class="edge">
<title>Node1&#45;&gt;Node23</title>
<path fill="none" stroke="midnightblue" d="M1184.18,-371.94C1335.98,-369.99 1731.17,-361.35 2070.34,-322.03"/>
<polygon fill="midnightblue" stroke="midnightblue" points="2070.83,-325.5 2080.36,-320.86 2070.02,-318.54 2070.83,-325.5"/>
</g>
<!-- Node3 -->
<g id="node3" class="node">
<title>Node3</title>
<g id="a_node3"><a xlink:href="Z2EnvSeMgr_8h.html" target="_top" xlink:title=" ">
<polygon fill="white" stroke="black" points="0,-224.5 0,-254.5 125,-254.5 125,-224.5 0,-224.5"/>
<text text-anchor="start" x="8" y="-242.5" font-family="Helvetica,sans-Serif" font-size="10.00">Z2AudioLib/Z2EnvSeMgr</text>
<text text-anchor="middle" x="62.5" y="-231.5" font-family="Helvetica,sans-Serif" font-size="10.00">/Z2EnvSeMgr.h</text>
</a>
</g>
</g>
<!-- Node2&#45;&gt;Node3 -->
<g id="edge2" class="edge">
<title>Node2&#45;&gt;Node3</title>
<path fill="none" stroke="midnightblue" d="M191.71,-296.87C169.45,-287.16 132.67,-271.11 104.02,-258.61"/>
<polygon fill="midnightblue" stroke="midnightblue" points="105.22,-255.32 94.66,-254.53 102.42,-261.73 105.22,-255.32"/>
</g>
<!-- Node11 -->
<g id="node11" class="node">
<title>Node11</title>
<g id="a_node11"><a xlink:href="d__kankyo__wether_8h.html" target="_top" xlink:title=" ">
<polygon fill="white" stroke="black" points="143,-224.5 143,-254.5 280,-254.5 280,-224.5 143,-224.5"/>
<text text-anchor="start" x="151" y="-242.5" font-family="Helvetica,sans-Serif" font-size="10.00">d/d_kankyo/d_kankyo</text>
<text text-anchor="middle" x="211.5" y="-231.5" font-family="Helvetica,sans-Serif" font-size="10.00">_wether/d_kankyo_wether.h</text>
</a>
</g>
</g>
<!-- Node2&#45;&gt;Node11 -->
<g id="edge14" class="edge">
<title>Node2&#45;&gt;Node11</title>
<path fill="none" stroke="midnightblue" d="M211.5,-296.73C211.5,-288.54 211.5,-275.92 211.5,-264.71"/>
<polygon fill="midnightblue" stroke="midnightblue" points="215,-264.59 211.5,-254.59 208,-264.59 215,-264.59"/>
</g>
<!-- Node3&#45;&gt;Node4 -->
<g id="edge3" class="edge">
<title>Node3&#45;&gt;Node4</title>
<path fill="none" stroke="midnightblue" d="M91.65,-224.4C111.92,-214.59 138.74,-201.62 158.52,-192.05"/>
<polygon fill="midnightblue" stroke="midnightblue" points="160.12,-195.16 167.6,-187.66 157.08,-188.86 160.12,-195.16"/>
</g>
<!-- Node5 -->
<g id="node5" class="node">
<title>Node5</title>
<g id="a_node5"><a xlink:href="types_8h.html" target="_top" xlink:title=" ">
<polygon fill="white" stroke="black" points="178,-0.5 178,-19.5 259,-19.5 259,-0.5 178,-0.5"/>
<text text-anchor="middle" x="218.5" y="-7.5" font-family="Helvetica,sans-Serif" font-size="10.00">dolphin/types.h</text>
</a>
</g>
</g>
<!-- Node4&#45;&gt;Node5 -->
<g id="edge4" class="edge">
<title>Node4&#45;&gt;Node5</title>
<path fill="none" stroke="midnightblue" d="M173.21,-168.32C146.26,-148.22 86.45,-97.02 113.5,-56 125.8,-37.35 147.61,-26.4 168.18,-19.98"/>
<polygon fill="midnightblue" stroke="midnightblue" points="169.14,-23.35 177.81,-17.26 167.24,-16.61 169.14,-23.35"/>
</g>
<!-- Node6 -->
<g id="node6" class="node">
<title>Node6</title>
<g id="a_node6"><a xlink:href="AR_8h.html" target="_top" xlink:title=" ">
<polygon fill="white" stroke="black" points="123,-56.5 123,-75.5 172,-75.5 172,-56.5 123,-56.5"/>
<text text-anchor="middle" x="147.5" y="-63.5" font-family="Helvetica,sans-Serif" font-size="10.00">ar/AR.h</text>
</a>
</g>
</g>
<!-- Node4&#45;&gt;Node6 -->
<g id="edge5" class="edge">
<title>Node4&#45;&gt;Node6</title>
<path fill="none" stroke="midnightblue" d="M182.52,-168.37C176.36,-150.54 162.11,-109.3 153.81,-85.27"/>
<polygon fill="midnightblue" stroke="midnightblue" points="157.04,-83.9 150.47,-75.59 150.43,-86.19 157.04,-83.9"/>
</g>
<!-- Node7 -->
<g id="node7" class="node">
<title>Node7</title>
<g id="a_node7"><a xlink:href="ARQ_8h.html" target="_top" xlink:title=" ">
<polygon fill="white" stroke="black" points="190.5,-56.5 190.5,-75.5 246.5,-75.5 246.5,-56.5 190.5,-56.5"/>
<text text-anchor="middle" x="218.5" y="-63.5" font-family="Helvetica,sans-Serif" font-size="10.00">ar/ARQ.h</text>
</a>
</g>
</g>
<!-- Node4&#45;&gt;Node7 -->
<g id="edge7" class="edge">
<title>Node4&#45;&gt;Node7</title>
<path fill="none" stroke="midnightblue" d="M188.03,-168.15C191.63,-155.63 198.46,-132.04 204.5,-112 207.16,-103.18 210.19,-93.41 212.75,-85.23"/>
<polygon fill="midnightblue" stroke="midnightblue" points="216.11,-86.2 215.77,-75.61 209.44,-84.1 216.11,-86.2"/>
</g>
<!-- Node8 -->
<g id="node8" class="node">
<title>Node8</title>
<g id="a_node8"><a xlink:href="mwcc_8h.html" target="_top" xlink:title=" ">
<polygon fill="white" stroke="black" points="213.5,-112.5 213.5,-131.5 263.5,-131.5 263.5,-112.5 213.5,-112.5"/>
<text text-anchor="middle" x="238.5" y="-119.5" font-family="Helvetica,sans-Serif" font-size="10.00">mwcc.h</text>
</a>
</g>
</g>
<!-- Node4&#45;&gt;Node8 -->
<g id="edge9" class="edge">
<title>Node4&#45;&gt;Node8</title>
<path fill="none" stroke="midnightblue" d="M194.25,-168.08C201.97,-160.22 213.4,-148.57 222.72,-139.08"/>
<polygon fill="midnightblue" stroke="midnightblue" points="225.4,-141.34 229.91,-131.75 220.41,-136.44 225.4,-141.34"/>
</g>
<!-- Node9 -->
<g id="node9" class="node">
<title>Node9</title>
<g id="a_node9"><a xlink:href="OS_8h.html" target="_top" xlink:title=" ">
<polygon fill="white" stroke="black" points="281.5,-112.5 281.5,-131.5 333.5,-131.5 333.5,-112.5 281.5,-112.5"/>
<text text-anchor="middle" x="307.5" y="-119.5" font-family="Helvetica,sans-Serif" font-size="10.00">os/OS.h</text>
</a>
</g>
</g>
<!-- Node4&#45;&gt;Node9 -->
<g id="edge10" class="edge">
<title>Node4&#45;&gt;Node9</title>
<path fill="none" stroke="midnightblue" d="M204.83,-168.44C224.82,-159.6 256.24,-145.69 279.06,-135.59"/>
<polygon fill="midnightblue" stroke="midnightblue" points="280.53,-138.76 288.26,-131.52 277.7,-132.36 280.53,-138.76"/>
</g>
<!-- Node6&#45;&gt;Node5 -->
<g id="edge6" class="edge">
<title>Node6&#45;&gt;Node5</title>
<path fill="none" stroke="midnightblue" d="M158.91,-56.32C169.61,-48.18 185.84,-35.84 198.66,-26.09"/>
<polygon fill="midnightblue" stroke="midnightblue" points="201.04,-28.67 206.89,-19.83 196.81,-23.1 201.04,-28.67"/>
</g>
<!-- Node7&#45;&gt;Node5 -->
<g id="edge8" class="edge">
<title>Node7&#45;&gt;Node5</title>
<path fill="none" stroke="midnightblue" d="M218.5,-56.08C218.5,-49.01 218.5,-38.86 218.5,-29.99"/>
<polygon fill="midnightblue" stroke="midnightblue" points="222,-29.75 218.5,-19.75 215,-29.75 222,-29.75"/>
</g>
<!-- Node9&#45;&gt;Node5 -->
<g id="edge11" class="edge">
<title>Node9&#45;&gt;Node5</title>
<path fill="none" stroke="midnightblue" d="M300.47,-112.14C290.51,-99.6 271.7,-75.98 255.5,-56 247.76,-46.46 239.03,-35.83 232,-27.31"/>
<polygon fill="midnightblue" stroke="midnightblue" points="234.7,-25.08 225.63,-19.6 229.3,-29.54 234.7,-25.08"/>
</g>
<!-- Node10 -->
<g id="node10" class="node">
<title>Node10</title>
<g id="a_node10"><a xlink:href="dvd_8h.html" target="_top" xlink:title=" ">
<polygon fill="white" stroke="black" points="303,-56.5 303,-75.5 362,-75.5 362,-56.5 303,-56.5"/>
<text text-anchor="middle" x="332.5" y="-63.5" font-family="Helvetica,sans-Serif" font-size="10.00">dvd/dvd.h</text>
</a>
</g>
</g>
<!-- Node9&#45;&gt;Node10 -->
<g id="edge12" class="edge">
<title>Node9&#45;&gt;Node10</title>
<path fill="none" stroke="midnightblue" d="M311.63,-112.08C315.01,-104.77 319.92,-94.18 324.12,-85.1"/>
<polygon fill="midnightblue" stroke="midnightblue" points="327.42,-86.3 328.45,-75.75 321.07,-83.36 327.42,-86.3"/>
</g>
<!-- Node10&#45;&gt;Node5 -->
<g id="edge13" class="edge">
<title>Node10&#45;&gt;Node5</title>
<path fill="none" stroke="midnightblue" d="M314.44,-56.44C295.93,-47.68 266.92,-33.94 245.64,-23.86"/>
<polygon fill="midnightblue" stroke="midnightblue" points="247.01,-20.63 236.48,-19.52 244.02,-26.96 247.01,-20.63"/>
</g>
</g>
</svg>
