<?xml version="1.0" encoding="UTF-8" standalone="no"?>
<!DOCTYPE svg PUBLIC "-//W3C//DTD SVG 1.1//EN"
 "http://www.w3.org/Graphics/SVG/1.1/DTD/svg11.dtd">
<!-- Generated by graphviz version 7.0.5 (20221223.1930)
 -->
<!-- Title: include/d/msg/d_msg_string.h Pages: 1 -->
<svg width="2514pt" height="159pt"
 viewBox="0.00 0.00 2514.00 159.00" xmlns="http://www.w3.org/2000/svg" xmlns:xlink="http://www.w3.org/1999/xlink">
<g id="graph0" class="graph" transform="scale(1 1) rotate(0) translate(4 155)">
<title>include/d/msg/d_msg_string.h</title>
<!-- Node1 -->
<g id="node1" class="node">
<title>Node1</title>
<g id="a_node1"><a xlink:title=" ">
<polygon fill="#999999" stroke="#666666" points="1348,-151 1238,-151 1238,-121 1348,-121 1348,-151"/>
<text text-anchor="start" x="1246" y="-139" font-family="Helvetica,sans-Serif" font-size="10.00">include/d/msg/d_msg</text>
<text text-anchor="middle" x="1293" y="-128" font-family="Helvetica,sans-Serif" font-size="10.00">_string.h</text>
</a>
</g>
</g>
<!-- Node2 -->
<g id="node2" class="node">
<title>Node2</title>
<g id="a_node2"><a xlink:href="d__file__select_8h.html" target="_top" xlink:title=" ">
<polygon fill="white" stroke="#666666" points="112,-85 16,-85 16,-55 112,-55 112,-85"/>
<text text-anchor="start" x="24" y="-73" font-family="Helvetica,sans-Serif" font-size="10.00">include/d/file/d_file</text>
<text text-anchor="middle" x="64" y="-62" font-family="Helvetica,sans-Serif" font-size="10.00">_select.h</text>
</a>
</g>
</g>
<!-- Node1&#45;&gt;Node2 -->
<g id="edge1" class="edge">
<title>Node1&#45;&gt;Node2</title>
<path fill="none" stroke="#63b8ff" d="M1226.38,-133.86C1011.42,-129.9 337.67,-115.34 122,-85 118.82,-84.55 115.56,-84.01 112.29,-83.4"/>
<polygon fill="#63b8ff" stroke="#63b8ff" points="1226.2,-137.35 1236.26,-134.04 1226.33,-130.36 1226.2,-137.35"/>
</g>
<!-- Node4 -->
<g id="node4" class="node">
<title>Node4</title>
<g id="a_node4"><a xlink:href="d__bright__check_8cpp.html" target="_top" xlink:title=" ">
<polygon fill="white" stroke="#666666" points="255.5,-79.5 130.5,-79.5 130.5,-60.5 255.5,-60.5 255.5,-79.5"/>
<text text-anchor="middle" x="193" y="-67.5" font-family="Helvetica,sans-Serif" font-size="10.00">src/d/d_bright_check.cpp</text>
</a>
</g>
</g>
<!-- Node1&#45;&gt;Node4 -->
<g id="edge3" class="edge">
<title>Node1&#45;&gt;Node4</title>
<path fill="none" stroke="#63b8ff" d="M1226.26,-135.06C1062.1,-134.49 625.76,-128.62 265,-85 254.76,-83.76 243.79,-81.91 233.58,-79.95"/>
<polygon fill="#63b8ff" stroke="#63b8ff" points="1226.08,-138.56 1236.09,-135.09 1226.1,-131.56 1226.08,-138.56"/>
</g>
<!-- Node5 -->
<g id="node5" class="node">
<title>Node5</title>
<g id="a_node5"><a xlink:href="d__file__sel__warning__NONMATCHING_8cpp.html" target="_top" xlink:title=" ">
<polygon fill="white" stroke="#666666" points="428.5,-85 273.5,-85 273.5,-55 428.5,-55 428.5,-85"/>
<text text-anchor="start" x="281.5" y="-73" font-family="Helvetica,sans-Serif" font-size="10.00">src/d/file/d_file_sel</text>
<text text-anchor="middle" x="351" y="-62" font-family="Helvetica,sans-Serif" font-size="10.00">_warning_NONMATCHING.cpp</text>
</a>
</g>
</g>
<!-- Node1&#45;&gt;Node5 -->
<g id="edge4" class="edge">
<title>Node1&#45;&gt;Node5</title>
<path fill="none" stroke="#63b8ff" d="M1226.32,-133.4C1082.12,-129.42 730.68,-117.02 438,-85 434.96,-84.67 431.86,-84.3 428.74,-83.91"/>
<polygon fill="#63b8ff" stroke="#63b8ff" points="1225.97,-136.89 1236.06,-133.66 1226.16,-129.89 1225.97,-136.89"/>
</g>
<!-- Node6 -->
<g id="node6" class="node">
<title>Node6</title>
<g id="a_node6"><a xlink:href="d__menu__calibration_8cpp.html" target="_top" xlink:title=" ">
<polygon fill="white" stroke="#666666" points="617,-79.5 447,-79.5 447,-60.5 617,-60.5 617,-79.5"/>
<text text-anchor="middle" x="532" y="-67.5" font-family="Helvetica,sans-Serif" font-size="10.00">src/d/menu/d_menu_calibration.cpp</text>
</a>
</g>
</g>
<!-- Node1&#45;&gt;Node6 -->
<g id="edge5" class="edge">
<title>Node1&#45;&gt;Node6</title>
<path fill="none" stroke="#63b8ff" d="M1226.45,-131.58C1106.42,-125.06 845.82,-109.31 627,-85 614.49,-83.61 601.1,-81.82 588.43,-79.99"/>
<polygon fill="#63b8ff" stroke="#63b8ff" points="1225.93,-135.06 1236.11,-132.1 1226.31,-128.07 1225.93,-135.06"/>
</g>
<!-- Node7 -->
<g id="node7" class="node">
<title>Node7</title>
<g id="a_node7"><a xlink:href="d__menu__collect_8cpp.html" target="_top" xlink:title=" ">
<polygon fill="white" stroke="#666666" points="790.5,-79.5 635.5,-79.5 635.5,-60.5 790.5,-60.5 790.5,-79.5"/>
<text text-anchor="middle" x="713" y="-67.5" font-family="Helvetica,sans-Serif" font-size="10.00">src/d/menu/d_menu_collect.cpp</text>
</a>
</g>
</g>
<!-- Node1&#45;&gt;Node7 -->
<g id="edge6" class="edge">
<title>Node1&#45;&gt;Node7</title>
<path fill="none" stroke="#63b8ff" d="M1226.37,-129.49C1131.5,-121.36 952.1,-104.93 800,-85 788.78,-83.53 776.77,-81.74 765.37,-79.94"/>
<polygon fill="#63b8ff" stroke="#63b8ff" points="1226.03,-132.97 1236.29,-130.33 1226.62,-126 1226.03,-132.97"/>
</g>
<!-- Node8 -->
<g id="node8" class="node">
<title>Node8</title>
<g id="a_node8"><a xlink:href="d__menu__fishing_8cpp.html" target="_top" xlink:title=" ">
<polygon fill="white" stroke="#666666" points="963,-79.5 809,-79.5 809,-60.5 963,-60.5 963,-79.5"/>
<text text-anchor="middle" x="886" y="-67.5" font-family="Helvetica,sans-Serif" font-size="10.00">src/d/menu/d_menu_fishing.cpp</text>
</a>
</g>
</g>
<!-- Node1&#45;&gt;Node8 -->
<g id="edge7" class="edge">
<title>Node1&#45;&gt;Node8</title>
<path fill="none" stroke="#63b8ff" d="M1226.31,-124.75C1161.37,-114.73 1059.88,-99 972,-85 961.84,-83.38 951.01,-81.64 940.58,-79.94"/>
<polygon fill="#63b8ff" stroke="#63b8ff" points="1225.69,-128.19 1236.1,-126.26 1226.75,-121.28 1225.69,-128.19"/>
</g>
<!-- Node9 -->
<g id="node9" class="node">
<title>Node9</title>
<g id="a_node9"><a xlink:href="d__menu__insect_8cpp.html" target="_top" xlink:title=" ">
<polygon fill="white" stroke="#666666" points="1133,-79.5 981,-79.5 981,-60.5 1133,-60.5 1133,-79.5"/>
<text text-anchor="middle" x="1057" y="-67.5" font-family="Helvetica,sans-Serif" font-size="10.00">src/d/menu/d_menu_insect.cpp</text>
</a>
</g>
</g>
<!-- Node1&#45;&gt;Node9 -->
<g id="edge8" class="edge">
<title>Node1&#45;&gt;Node9</title>
<path fill="none" stroke="#63b8ff" d="M1228.65,-117.55C1183.81,-105.39 1125.84,-89.67 1090.05,-79.96"/>
<polygon fill="#63b8ff" stroke="#63b8ff" points="1227.71,-120.92 1238.28,-120.16 1229.55,-114.17 1227.71,-120.92"/>
</g>
<!-- Node10 -->
<g id="node10" class="node">
<title>Node10</title>
<g id="a_node10"><a xlink:href="d__menu__item__explain_8cpp.html" target="_top" xlink:title=" ">
<polygon fill="white" stroke="#666666" points="1278.5,-85 1151.5,-85 1151.5,-55 1278.5,-55 1278.5,-85"/>
<text text-anchor="start" x="1159.5" y="-73" font-family="Helvetica,sans-Serif" font-size="10.00">src/d/menu/d_menu_item</text>
<text text-anchor="middle" x="1215" y="-62" font-family="Helvetica,sans-Serif" font-size="10.00">_explain.cpp</text>
</a>
</g>
</g>
<!-- Node1&#45;&gt;Node10 -->
<g id="edge9" class="edge">
<title>Node1&#45;&gt;Node10</title>
<path fill="none" stroke="#63b8ff" d="M1267.04,-113.7C1255.7,-104.4 1242.7,-93.73 1232.53,-85.39"/>
<polygon fill="#63b8ff" stroke="#63b8ff" points="1264.57,-116.2 1274.52,-119.84 1269.01,-110.79 1264.57,-116.2"/>
</g>
<!-- Node11 -->
<g id="node11" class="node">
<title>Node11</title>
<g id="a_node11"><a xlink:href="d__menu__letter_8cpp.html" target="_top" xlink:title=" ">
<polygon fill="white" stroke="#666666" points="1445,-79.5 1297,-79.5 1297,-60.5 1445,-60.5 1445,-79.5"/>
<text text-anchor="middle" x="1371" y="-67.5" font-family="Helvetica,sans-Serif" font-size="10.00">src/d/menu/d_menu_letter.cpp</text>
</a>
</g>
</g>
<!-- Node1&#45;&gt;Node11 -->
<g id="edge10" class="edge">
<title>Node1&#45;&gt;Node11</title>
<path fill="none" stroke="#63b8ff" d="M1319.08,-113.6C1333.1,-102.1 1349.64,-88.52 1360.22,-79.84"/>
<polygon fill="#63b8ff" stroke="#63b8ff" points="1316.99,-110.79 1311.48,-119.84 1321.43,-116.2 1316.99,-110.79"/>
</g>
<!-- Node12 -->
<g id="node12" class="node">
<title>Node12</title>
<g id="a_node12"><a xlink:href="d__menu__option_8cpp.html" target="_top" xlink:title=" ">
<polygon fill="white" stroke="#666666" points="1615,-79.5 1463,-79.5 1463,-60.5 1615,-60.5 1615,-79.5"/>
<text text-anchor="middle" x="1539" y="-67.5" font-family="Helvetica,sans-Serif" font-size="10.00">src/d/menu/d_menu_option.cpp</text>
</a>
</g>
</g>
<!-- Node1&#45;&gt;Node12 -->
<g id="edge11" class="edge">
<title>Node1&#45;&gt;Node12</title>
<path fill="none" stroke="#63b8ff" d="M1359.18,-117.78C1406,-105.6 1466.91,-89.76 1504.46,-79.99"/>
<polygon fill="#63b8ff" stroke="#63b8ff" points="1358.47,-114.35 1349.67,-120.26 1360.23,-121.13 1358.47,-114.35"/>
</g>
<!-- Node13 -->
<g id="node13" class="node">
<title>Node13</title>
<g id="a_node13"><a xlink:href="d__menu__ring_8cpp.html" target="_top" xlink:title=" ">
<polygon fill="white" stroke="#666666" points="1775,-79.5 1633,-79.5 1633,-60.5 1775,-60.5 1775,-79.5"/>
<text text-anchor="middle" x="1704" y="-67.5" font-family="Helvetica,sans-Serif" font-size="10.00">src/d/menu/d_menu_ring.cpp</text>
</a>
</g>
</g>
<!-- Node1&#45;&gt;Node13 -->
<g id="edge12" class="edge">
<title>Node1&#45;&gt;Node13</title>
<path fill="none" stroke="#63b8ff" d="M1359.61,-125.4C1426.51,-115.66 1532.5,-99.92 1624,-85 1633.6,-83.43 1643.84,-81.7 1653.67,-79.99"/>
<polygon fill="#63b8ff" stroke="#63b8ff" points="1359.3,-121.91 1349.9,-126.82 1360.3,-128.84 1359.3,-121.91"/>
</g>
<!-- Node14 -->
<g id="node14" class="node">
<title>Node14</title>
<g id="a_node14"><a xlink:href="d__menu__save_8cpp.html" target="_top" xlink:title=" ">
<polygon fill="white" stroke="#666666" points="1940.5,-79.5 1793.5,-79.5 1793.5,-60.5 1940.5,-60.5 1940.5,-79.5"/>
<text text-anchor="middle" x="1867" y="-67.5" font-family="Helvetica,sans-Serif" font-size="10.00">src/d/menu/d_menu_save.cpp</text>
</a>
</g>
</g>
<!-- Node1&#45;&gt;Node14 -->
<g id="edge13" class="edge">
<title>Node1&#45;&gt;Node14</title>
<path fill="none" stroke="#63b8ff" d="M1359.76,-129.6C1454.37,-121.63 1632.79,-105.43 1784,-85 1794.72,-83.55 1806.17,-81.77 1817.05,-79.97"/>
<polygon fill="#63b8ff" stroke="#63b8ff" points="1359.55,-126.11 1349.87,-130.43 1360.13,-133.08 1359.55,-126.11"/>
</g>
<!-- Node15 -->
<g id="node15" class="node">
<title>Node15</title>
<g id="a_node15"><a xlink:href="d__menu__skill_8cpp.html" target="_top" xlink:title=" ">
<polygon fill="white" stroke="#666666" points="2101.5,-79.5 1958.5,-79.5 1958.5,-60.5 2101.5,-60.5 2101.5,-79.5"/>
<text text-anchor="middle" x="2030" y="-67.5" font-family="Helvetica,sans-Serif" font-size="10.00">src/d/menu/d_menu_skill.cpp</text>
</a>
</g>
</g>
<!-- Node1&#45;&gt;Node15 -->
<g id="edge14" class="edge">
<title>Node1&#45;&gt;Node15</title>
<path fill="none" stroke="#63b8ff" d="M1359.53,-132.08C1478.41,-126.38 1734.97,-111.93 1950,-85 1960.77,-83.65 1972.3,-81.85 1983.16,-79.98"/>
<polygon fill="#63b8ff" stroke="#63b8ff" points="1359.46,-128.58 1349.64,-132.55 1359.79,-135.57 1359.46,-128.58"/>
</g>
<!-- Node16 -->
<g id="node16" class="node">
<title>Node16</title>
<g id="a_node16"><a xlink:href="d__meter__button_8cpp.html" target="_top" xlink:title=" ">
<polygon fill="white" stroke="#666666" points="2224,-85 2120,-85 2120,-55 2224,-55 2224,-85"/>
<text text-anchor="start" x="2128" y="-73" font-family="Helvetica,sans-Serif" font-size="10.00">src/d/meter/d_meter</text>
<text text-anchor="middle" x="2172" y="-62" font-family="Helvetica,sans-Serif" font-size="10.00">_button.cpp</text>
</a>
</g>
</g>
<!-- Node1&#45;&gt;Node16 -->
<g id="edge15" class="edge">
<title>Node1&#45;&gt;Node16</title>
<path fill="none" stroke="#63b8ff" d="M1359.71,-134.63C1499.68,-133.04 1833.98,-124.98 2111,-85 2113.8,-84.6 2116.65,-84.13 2119.53,-83.62"/>
<polygon fill="#63b8ff" stroke="#63b8ff" points="1359.85,-131.13 1349.89,-134.73 1359.92,-138.13 1359.85,-131.13"/>
</g>
<!-- Node17 -->
<g id="node17" class="node">
<title>Node17</title>
<g id="a_node17"><a xlink:href="d__msg__string_8cpp.html" target="_top" xlink:title=" ">
<polygon fill="white" stroke="#666666" points="2382,-79.5 2242,-79.5 2242,-60.5 2382,-60.5 2382,-79.5"/>
<text text-anchor="middle" x="2312" y="-67.5" font-family="Helvetica,sans-Serif" font-size="10.00">src/d/msg/d_msg_string.cpp</text>
</a>
</g>
</g>
<!-- Node1&#45;&gt;Node17 -->
<g id="edge16" class="edge">
<title>Node1&#45;&gt;Node17</title>
<path fill="none" stroke="#63b8ff" d="M1359.4,-134.25C1513.41,-131.91 1906.71,-122.45 2233,-85 2244.07,-83.73 2255.94,-81.89 2267.02,-79.95"/>
<polygon fill="#63b8ff" stroke="#63b8ff" points="1359.75,-130.75 1349.8,-134.39 1359.85,-137.75 1359.75,-130.75"/>
</g>
<!-- Node18 -->
<g id="node18" class="node">
<title>Node18</title>
<g id="a_node18"><a xlink:href="d__msg__scrn__explain_8cpp.html" target="_top" xlink:title=" ">
<polygon fill="white" stroke="#666666" points="2506,-85 2400,-85 2400,-55 2506,-55 2506,-85"/>
<text text-anchor="start" x="2408" y="-73" font-family="Helvetica,sans-Serif" font-size="10.00">src/msg/scrn/d_msg</text>
<text text-anchor="middle" x="2453" y="-62" font-family="Helvetica,sans-Serif" font-size="10.00">_scrn_explain.cpp</text>
</a>
</g>
</g>
<!-- Node1&#45;&gt;Node18 -->
<g id="edge17" class="edge">
<title>Node1&#45;&gt;Node18</title>
<path fill="none" stroke="#63b8ff" d="M1359.62,-133.51C1565.54,-128.66 2189.96,-112.06 2391,-85 2393.84,-84.62 2396.75,-84.17 2399.67,-83.67"/>
<polygon fill="#63b8ff" stroke="#63b8ff" points="1359.83,-130 1349.91,-133.74 1359.99,-137 1359.83,-130"/>
</g>
<!-- Node3 -->
<g id="node3" class="node">
<title>Node3</title>
<g id="a_node3"><a xlink:href="d__file__select_8cpp.html" target="_top" xlink:title=" ">
<polygon fill="white" stroke="#666666" points="128,-19 0,-19 0,0 128,0 128,-19"/>
<text text-anchor="middle" x="64" y="-7" font-family="Helvetica,sans-Serif" font-size="10.00">src/d/file/d_file_select.cpp</text>
</a>
</g>
</g>
<!-- Node2&#45;&gt;Node3 -->
<g id="edge2" class="edge">
<title>Node2&#45;&gt;Node3</title>
<path fill="none" stroke="#63b8ff" d="M64,-43.3C64,-34.65 64,-25.58 64,-19.18"/>
<polygon fill="#63b8ff" stroke="#63b8ff" points="60.5,-43.03 64,-53.03 67.5,-43.03 60.5,-43.03"/>
</g>
</g>
</svg>
