<?xml version="1.0" encoding="UTF-8" standalone="no"?>
<!DOCTYPE svg PUBLIC "-//W3C//DTD SVG 1.1//EN"
 "http://www.w3.org/Graphics/SVG/1.1/DTD/svg11.dtd">
<!-- Generated by graphviz version 7.0.5 (20221223.1930)
 -->
<!-- Title: include/d/pane/d_pane_class.h Pages: 1 -->
<svg width="3730pt" height="357pt"
 viewBox="0.00 0.00 3729.50 357.00" xmlns="http://www.w3.org/2000/svg" xmlns:xlink="http://www.w3.org/1999/xlink">
<g id="graph0" class="graph" transform="scale(1 1) rotate(0) translate(4 353)">
<title>include/d/pane/d_pane_class.h</title>
<!-- Node1 -->
<g id="node1" class="node">
<title>Node1</title>
<g id="a_node1"><a xlink:title=" ">
<polygon fill="#999999" stroke="#666666" points="2328.5,-349 2214.5,-349 2214.5,-319 2328.5,-319 2328.5,-349"/>
<text text-anchor="start" x="2222.5" y="-337" font-family="Helvetica,sans-Serif" font-size="10.00">include/d/pane/d_pane</text>
<text text-anchor="middle" x="2271.5" y="-326" font-family="Helvetica,sans-Serif" font-size="10.00">_class.h</text>
</a>
</g>
</g>
<!-- Node2 -->
<g id="node2" class="node">
<title>Node2</title>
<g id="a_node2"><a xlink:href="d__scope_8h.html" target="_top" xlink:title=" ">
<polygon fill="white" stroke="#666666" points="960,-277.5 857,-277.5 857,-258.5 960,-258.5 960,-277.5"/>
<text text-anchor="middle" x="908.5" y="-265.5" font-family="Helvetica,sans-Serif" font-size="10.00">include/d/d_scope.h</text>
</a>
</g>
</g>
<!-- Node1&#45;&gt;Node2 -->
<g id="edge1" class="edge">
<title>Node1&#45;&gt;Node2</title>
<path fill="none" stroke="#63b8ff" d="M2202.97,-333.67C2010.57,-334.83 1449.25,-333.29 986.5,-283 975.42,-281.8 963.54,-279.95 952.48,-277.99"/>
<polygon fill="#63b8ff" stroke="#63b8ff" points="2202.8,-337.17 2212.78,-333.6 2202.76,-330.17 2202.8,-337.17"/>
</g>
<!-- Node5 -->
<g id="node5" class="node">
<title>Node5</title>
<g id="a_node5"><a xlink:href="d__select__icon_8h.html" target="_top" xlink:title=" ">
<polygon fill="white" stroke="#666666" points="1249,-283 1154,-283 1154,-253 1249,-253 1249,-283"/>
<text text-anchor="start" x="1162" y="-271" font-family="Helvetica,sans-Serif" font-size="10.00">include/d/d_select</text>
<text text-anchor="middle" x="1201.5" y="-260" font-family="Helvetica,sans-Serif" font-size="10.00">_icon.h</text>
</a>
</g>
</g>
<!-- Node1&#45;&gt;Node5 -->
<g id="edge4" class="edge">
<title>Node1&#45;&gt;Node5</title>
<path fill="none" stroke="#63b8ff" d="M2202.78,-332.78C2040.73,-331.56 1622.19,-324.3 1275.5,-283 1266.93,-281.98 1257.86,-280.55 1249.12,-279"/>
<polygon fill="#63b8ff" stroke="#63b8ff" points="2202.47,-336.28 2212.49,-332.85 2202.52,-329.28 2202.47,-336.28"/>
</g>
<!-- Node17 -->
<g id="node17" class="node">
<title>Node17</title>
<g id="a_node17"><a xlink:href="d__menu__collect_8cpp.html" target="_top" xlink:title=" ">
<polygon fill="white" stroke="#666666" points="155,-145.5 0,-145.5 0,-126.5 155,-126.5 155,-145.5"/>
<text text-anchor="middle" x="77.5" y="-133.5" font-family="Helvetica,sans-Serif" font-size="10.00">src/d/menu/d_menu_collect.cpp</text>
</a>
</g>
</g>
<!-- Node1&#45;&gt;Node17 -->
<g id="edge32" class="edge">
<title>Node1&#45;&gt;Node17</title>
<path fill="none" stroke="#63b8ff" d="M2202.68,-331.7C1973.7,-327.14 1246.22,-310.61 1144.5,-283 1083.87,-266.54 1072.15,-251.27 1019.5,-217 1001.47,-205.26 1001.67,-194.5 981.5,-187 810.96,-123.56 344.5,-169.65 163.5,-151 151.46,-149.76 138.55,-147.93 126.48,-145.99"/>
<polygon fill="#63b8ff" stroke="#63b8ff" points="2202.58,-335.2 2212.65,-331.9 2202.72,-328.2 2202.58,-335.2"/>
</g>
<!-- Node23 -->
<g id="node23" class="node">
<title>Node23</title>
<g id="a_node23"><a xlink:href="d__menu__ring_8cpp.html" target="_top" xlink:title=" ">
<polygon fill="white" stroke="#666666" points="2201.5,-145.5 2059.5,-145.5 2059.5,-126.5 2201.5,-126.5 2201.5,-145.5"/>
<text text-anchor="middle" x="2130.5" y="-133.5" font-family="Helvetica,sans-Serif" font-size="10.00">src/d/menu/d_menu_ring.cpp</text>
</a>
</g>
</g>
<!-- Node1&#45;&gt;Node23 -->
<g id="edge33" class="edge">
<title>Node1&#45;&gt;Node23</title>
<path fill="none" stroke="#63b8ff" d="M2202.7,-331.99C1987.45,-328.51 1339.24,-315.37 1308.5,-283 1193.19,-161.54 1885.03,-176.84 2050.5,-151 2060.39,-149.46 2070.95,-147.69 2081.04,-145.95"/>
<polygon fill="#63b8ff" stroke="#63b8ff" points="2202.57,-335.49 2212.63,-332.15 2202.68,-328.49 2202.57,-335.49"/>
</g>
<!-- Node28 -->
<g id="node28" class="node">
<title>Node28</title>
<g id="a_node28"><a xlink:href="d__a__alink_8cpp.html" target="_top" xlink:title=" ">
<polygon fill="white" stroke="#666666" points="1427,-277.5 1318,-277.5 1318,-258.5 1427,-258.5 1427,-277.5"/>
<text text-anchor="middle" x="1372.5" y="-265.5" font-family="Helvetica,sans-Serif" font-size="10.00">src/d/a/d_a_alink.cpp</text>
</a>
</g>
</g>
<!-- Node1&#45;&gt;Node28 -->
<g id="edge27" class="edge">
<title>Node1&#45;&gt;Node28</title>
<path fill="none" stroke="#63b8ff" d="M2202.98,-332.58C2059.76,-330.89 1718.52,-322.65 1435.5,-283 1426.62,-281.76 1417.14,-279.92 1408.3,-277.99"/>
<polygon fill="#63b8ff" stroke="#63b8ff" points="2202.62,-336.07 2212.66,-332.68 2202.7,-329.08 2202.62,-336.07"/>
</g>
<!-- Node29 -->
<g id="node29" class="node">
<title>Node29</title>
<g id="a_node29"><a xlink:href="d__kantera__icon__meter_8cpp.html" target="_top" xlink:title=" ">
<polygon fill="white" stroke="#666666" points="1552,-283 1445,-283 1445,-253 1552,-253 1552,-283"/>
<text text-anchor="start" x="1453" y="-271" font-family="Helvetica,sans-Serif" font-size="10.00">src/d/d_kantera_icon</text>
<text text-anchor="middle" x="1498.5" y="-260" font-family="Helvetica,sans-Serif" font-size="10.00">_meter.cpp</text>
</a>
</g>
</g>
<!-- Node1&#45;&gt;Node29 -->
<g id="edge28" class="edge">
<title>Node1&#45;&gt;Node29</title>
<path fill="none" stroke="#63b8ff" d="M2202.67,-331.54C2075.44,-328.09 1795.1,-316.99 1561.5,-283 1558.51,-282.56 1555.44,-282.06 1552.36,-281.52"/>
<polygon fill="#63b8ff" stroke="#63b8ff" points="2202.53,-335.04 2212.62,-331.8 2202.71,-328.04 2202.53,-335.04"/>
</g>
<!-- Node30 -->
<g id="node30" class="node">
<title>Node30</title>
<g id="a_node30"><a xlink:href="d__timer_8cpp.html" target="_top" xlink:title=" ">
<polygon fill="white" stroke="#666666" points="1662.5,-277.5 1570.5,-277.5 1570.5,-258.5 1662.5,-258.5 1662.5,-277.5"/>
<text text-anchor="middle" x="1616.5" y="-265.5" font-family="Helvetica,sans-Serif" font-size="10.00">src/d/d_timer.cpp</text>
</a>
</g>
</g>
<!-- Node1&#45;&gt;Node30 -->
<g id="edge29" class="edge">
<title>Node1&#45;&gt;Node30</title>
<path fill="none" stroke="#63b8ff" d="M2202.7,-330.87C2090.85,-326.6 1862.92,-314.54 1672.5,-283 1664.69,-281.71 1656.37,-279.88 1648.59,-277.97"/>
<polygon fill="#63b8ff" stroke="#63b8ff" points="2202.5,-334.37 2212.62,-331.24 2202.76,-327.37 2202.5,-334.37"/>
</g>
<!-- Node31 -->
<g id="node31" class="node">
<title>Node31</title>
<g id="a_node31"><a xlink:href="d__file__sel__info_8cpp.html" target="_top" xlink:title=" ">
<polygon fill="white" stroke="#666666" points="1778,-283 1681,-283 1681,-253 1778,-253 1778,-283"/>
<text text-anchor="start" x="1689" y="-271" font-family="Helvetica,sans-Serif" font-size="10.00">src/d/file/d_file_sel</text>
<text text-anchor="middle" x="1729.5" y="-260" font-family="Helvetica,sans-Serif" font-size="10.00">_info.cpp</text>
</a>
</g>
</g>
<!-- Node1&#45;&gt;Node31 -->
<g id="edge30" class="edge">
<title>Node1&#45;&gt;Node31</title>
<path fill="none" stroke="#63b8ff" d="M2202.8,-328.81C2108.63,-322.41 1934.36,-308.19 1787.5,-283 1784.54,-282.49 1781.5,-281.92 1778.45,-281.3"/>
<polygon fill="#63b8ff" stroke="#63b8ff" points="2202.44,-332.29 2212.65,-329.47 2202.91,-325.31 2202.44,-332.29"/>
</g>
<!-- Node32 -->
<g id="node32" class="node">
<title>Node32</title>
<g id="a_node32"><a xlink:href="d__file__sel__warning__NONMATCHING_8cpp.html" target="_top" xlink:title=" ">
<polygon fill="white" stroke="#666666" points="1951,-283 1796,-283 1796,-253 1951,-253 1951,-283"/>
<text text-anchor="start" x="1804" y="-271" font-family="Helvetica,sans-Serif" font-size="10.00">src/d/file/d_file_sel</text>
<text text-anchor="middle" x="1873.5" y="-260" font-family="Helvetica,sans-Serif" font-size="10.00">_warning_NONMATCHING.cpp</text>
</a>
</g>
</g>
<!-- Node1&#45;&gt;Node32 -->
<g id="edge31" class="edge">
<title>Node1&#45;&gt;Node32</title>
<path fill="none" stroke="#63b8ff" d="M2203.2,-322.02C2140.19,-311.89 2044.03,-296.44 1960.5,-283 1957.48,-282.51 1954.4,-282.02 1951.29,-281.52"/>
<polygon fill="#63b8ff" stroke="#63b8ff" points="2202.26,-325.42 2212.69,-323.55 2203.37,-318.5 2202.26,-325.42"/>
</g>
<!-- Node33 -->
<g id="node33" class="node">
<title>Node33</title>
<g id="a_node33"><a xlink:href="d__meter2__draw_8cpp.html" target="_top" xlink:title=" ">
<polygon fill="white" stroke="#666666" points="2079.5,-283 1969.5,-283 1969.5,-253 2079.5,-253 2079.5,-283"/>
<text text-anchor="start" x="1977.5" y="-271" font-family="Helvetica,sans-Serif" font-size="10.00">src/d/meter/d_meter2</text>
<text text-anchor="middle" x="2024.5" y="-260" font-family="Helvetica,sans-Serif" font-size="10.00">_draw.cpp</text>
</a>
</g>
</g>
<!-- Node1&#45;&gt;Node33 -->
<g id="edge34" class="edge">
<title>Node1&#45;&gt;Node33</title>
<path fill="none" stroke="#63b8ff" d="M2204.72,-315.7C2165.53,-305.54 2116.59,-292.86 2079.61,-283.28"/>
<polygon fill="#63b8ff" stroke="#63b8ff" points="2203.74,-319.06 2214.3,-318.18 2205.49,-312.28 2203.74,-319.06"/>
</g>
<!-- Node34 -->
<g id="node34" class="node">
<title>Node34</title>
<g id="a_node34"><a xlink:href="d__meter__button_8cpp.html" target="_top" xlink:title=" ">
<polygon fill="white" stroke="#666666" points="2201.5,-283 2097.5,-283 2097.5,-253 2201.5,-253 2201.5,-283"/>
<text text-anchor="start" x="2105.5" y="-271" font-family="Helvetica,sans-Serif" font-size="10.00">src/d/meter/d_meter</text>
<text text-anchor="middle" x="2149.5" y="-260" font-family="Helvetica,sans-Serif" font-size="10.00">_button.cpp</text>
</a>
</g>
</g>
<!-- Node1&#45;&gt;Node34 -->
<g id="edge35" class="edge">
<title>Node1&#45;&gt;Node34</title>
<path fill="none" stroke="#63b8ff" d="M2233.98,-313.32C2215.51,-303.63 2193.64,-292.16 2176.79,-283.31"/>
<polygon fill="#63b8ff" stroke="#63b8ff" points="2232.3,-316.39 2242.78,-317.93 2235.55,-310.19 2232.3,-316.39"/>
</g>
<!-- Node35 -->
<g id="node35" class="node">
<title>Node35</title>
<g id="a_node35"><a xlink:href="d__meter__haihai_8cpp.html" target="_top" xlink:title=" ">
<polygon fill="white" stroke="#666666" points="2323.5,-283 2219.5,-283 2219.5,-253 2323.5,-253 2323.5,-283"/>
<text text-anchor="start" x="2227.5" y="-271" font-family="Helvetica,sans-Serif" font-size="10.00">src/d/meter/d_meter</text>
<text text-anchor="middle" x="2271.5" y="-260" font-family="Helvetica,sans-Serif" font-size="10.00">_haihai.cpp</text>
</a>
</g>
</g>
<!-- Node1&#45;&gt;Node35 -->
<g id="edge36" class="edge">
<title>Node1&#45;&gt;Node35</title>
<path fill="none" stroke="#63b8ff" d="M2271.5,-307.39C2271.5,-299.13 2271.5,-290.28 2271.5,-283.16"/>
<polygon fill="#63b8ff" stroke="#63b8ff" points="2268,-307.28 2271.5,-317.28 2275,-307.28 2268,-307.28"/>
</g>
<!-- Node36 -->
<g id="node36" class="node">
<title>Node36</title>
<g id="a_node36"><a xlink:href="d__meter__hakusha_8cpp.html" target="_top" xlink:title=" ">
<polygon fill="white" stroke="#666666" points="2445.5,-283 2341.5,-283 2341.5,-253 2445.5,-253 2445.5,-283"/>
<text text-anchor="start" x="2349.5" y="-271" font-family="Helvetica,sans-Serif" font-size="10.00">src/d/meter/d_meter</text>
<text text-anchor="middle" x="2393.5" y="-260" font-family="Helvetica,sans-Serif" font-size="10.00">_hakusha.cpp</text>
</a>
</g>
</g>
<!-- Node1&#45;&gt;Node36 -->
<g id="edge37" class="edge">
<title>Node1&#45;&gt;Node36</title>
<path fill="none" stroke="#63b8ff" d="M2309.02,-313.32C2327.49,-303.63 2349.36,-292.16 2366.21,-283.31"/>
<polygon fill="#63b8ff" stroke="#63b8ff" points="2307.45,-310.19 2300.22,-317.93 2310.7,-316.39 2307.45,-310.19"/>
</g>
<!-- Node37 -->
<g id="node37" class="node">
<title>Node37</title>
<g id="a_node37"><a xlink:href="d__meter__string_8cpp.html" target="_top" xlink:title=" ">
<polygon fill="white" stroke="#666666" points="2567.5,-283 2463.5,-283 2463.5,-253 2567.5,-253 2567.5,-283"/>
<text text-anchor="start" x="2471.5" y="-271" font-family="Helvetica,sans-Serif" font-size="10.00">src/d/meter/d_meter</text>
<text text-anchor="middle" x="2515.5" y="-260" font-family="Helvetica,sans-Serif" font-size="10.00">_string.cpp</text>
</a>
</g>
</g>
<!-- Node1&#45;&gt;Node37 -->
<g id="edge38" class="edge">
<title>Node1&#45;&gt;Node37</title>
<path fill="none" stroke="#63b8ff" d="M2337.66,-315.65C2377.09,-305.3 2426.44,-292.36 2463.15,-282.73"/>
<polygon fill="#63b8ff" stroke="#63b8ff" points="2336.81,-312.25 2328.03,-318.17 2338.59,-319.02 2336.81,-312.25"/>
</g>
<!-- Node38 -->
<g id="node38" class="node">
<title>Node38</title>
<g id="a_node38"><a xlink:href="d__pane__class_8cpp.html" target="_top" xlink:title=" ">
<polygon fill="white" stroke="#666666" points="2729,-277.5 2586,-277.5 2586,-258.5 2729,-258.5 2729,-277.5"/>
<text text-anchor="middle" x="2657.5" y="-265.5" font-family="Helvetica,sans-Serif" font-size="10.00">src/d/pane/d_pane_class.cpp</text>
</a>
</g>
</g>
<!-- Node1&#45;&gt;Node38 -->
<g id="edge39" class="edge">
<title>Node1&#45;&gt;Node38</title>
<path fill="none" stroke="#63b8ff" d="M2340.03,-321.94C2401.86,-311.92 2495.3,-296.67 2576.5,-283 2586.07,-281.39 2596.27,-279.65 2606.09,-277.95"/>
<polygon fill="#63b8ff" stroke="#63b8ff" points="2339.67,-318.45 2330.36,-323.51 2340.79,-325.36 2339.67,-318.45"/>
</g>
<!-- Node39 -->
<g id="node39" class="node">
<title>Node39</title>
<g id="a_node39"><a xlink:href="d__msg__scrn__arrow_8cpp.html" target="_top" xlink:title=" ">
<polygon fill="white" stroke="#666666" points="2853.5,-283 2747.5,-283 2747.5,-253 2853.5,-253 2853.5,-283"/>
<text text-anchor="start" x="2755.5" y="-271" font-family="Helvetica,sans-Serif" font-size="10.00">src/msg/scrn/d_msg</text>
<text text-anchor="middle" x="2800.5" y="-260" font-family="Helvetica,sans-Serif" font-size="10.00">_scrn_arrow.cpp</text>
</a>
</g>
</g>
<!-- Node1&#45;&gt;Node39 -->
<g id="edge40" class="edge">
<title>Node1&#45;&gt;Node39</title>
<path fill="none" stroke="#63b8ff" d="M2340.25,-328.14C2431.62,-321.1 2597.91,-306.32 2738.5,-283 2741.33,-282.53 2744.23,-282.01 2747.14,-281.46"/>
<polygon fill="#63b8ff" stroke="#63b8ff" points="2340.16,-324.63 2330.45,-328.88 2340.69,-331.61 2340.16,-324.63"/>
</g>
<!-- Node40 -->
<g id="node40" class="node">
<title>Node40</title>
<g id="a_node40"><a xlink:href="d__msg__scrn__base_8cpp.html" target="_top" xlink:title=" ">
<polygon fill="white" stroke="#666666" points="2977.5,-283 2871.5,-283 2871.5,-253 2977.5,-253 2977.5,-283"/>
<text text-anchor="start" x="2879.5" y="-271" font-family="Helvetica,sans-Serif" font-size="10.00">src/msg/scrn/d_msg</text>
<text text-anchor="middle" x="2924.5" y="-260" font-family="Helvetica,sans-Serif" font-size="10.00">_scrn_base.cpp</text>
</a>
</g>
</g>
<!-- Node1&#45;&gt;Node40 -->
<g id="edge41" class="edge">
<title>Node1&#45;&gt;Node40</title>
<path fill="none" stroke="#63b8ff" d="M2340.17,-330.26C2450.72,-325.17 2674.77,-311.99 2862.5,-283 2865.34,-282.56 2868.23,-282.07 2871.15,-281.54"/>
<polygon fill="#63b8ff" stroke="#63b8ff" points="2340.21,-326.76 2330.37,-330.7 2340.52,-333.75 2340.21,-326.76"/>
</g>
<!-- Node41 -->
<g id="node41" class="node">
<title>Node41</title>
<g id="a_node41"><a xlink:href="d__msg__scrn__boss_8cpp.html" target="_top" xlink:title=" ">
<polygon fill="white" stroke="#666666" points="3101.5,-283 2995.5,-283 2995.5,-253 3101.5,-253 3101.5,-283"/>
<text text-anchor="start" x="3003.5" y="-271" font-family="Helvetica,sans-Serif" font-size="10.00">src/msg/scrn/d_msg</text>
<text text-anchor="middle" x="3048.5" y="-260" font-family="Helvetica,sans-Serif" font-size="10.00">_scrn_boss.cpp</text>
</a>
</g>
</g>
<!-- Node1&#45;&gt;Node41 -->
<g id="edge42" class="edge">
<title>Node1&#45;&gt;Node41</title>
<path fill="none" stroke="#63b8ff" d="M2339.95,-331.68C2467.69,-328.44 2750.78,-317.65 2986.5,-283 2989.34,-282.58 2992.24,-282.11 2995.16,-281.59"/>
<polygon fill="#63b8ff" stroke="#63b8ff" points="2340.24,-328.17 2330.33,-331.91 2340.41,-335.17 2340.24,-328.17"/>
</g>
<!-- Node42 -->
<g id="node42" class="node">
<title>Node42</title>
<g id="a_node42"><a xlink:href="d__msg__scrn__explain_8cpp.html" target="_top" xlink:title=" ">
<polygon fill="white" stroke="#666666" points="3225.5,-283 3119.5,-283 3119.5,-253 3225.5,-253 3225.5,-283"/>
<text text-anchor="start" x="3127.5" y="-271" font-family="Helvetica,sans-Serif" font-size="10.00">src/msg/scrn/d_msg</text>
<text text-anchor="middle" x="3172.5" y="-260" font-family="Helvetica,sans-Serif" font-size="10.00">_scrn_explain.cpp</text>
</a>
</g>
</g>
<!-- Node1&#45;&gt;Node42 -->
<g id="edge43" class="edge">
<title>Node1&#45;&gt;Node42</title>
<path fill="none" stroke="#63b8ff" d="M2340.01,-332.68C2483.61,-331.18 2826.36,-323.27 3110.5,-283 3113.34,-282.6 3116.24,-282.13 3119.17,-281.62"/>
<polygon fill="#63b8ff" stroke="#63b8ff" points="2340.27,-329.17 2330.3,-332.77 2340.34,-336.17 2340.27,-329.17"/>
</g>
<!-- Node43 -->
<g id="node43" class="node">
<title>Node43</title>
<g id="a_node43"><a xlink:href="d__msg__scrn__howl_8cpp.html" target="_top" xlink:title=" ">
<polygon fill="white" stroke="#666666" points="3349.5,-283 3243.5,-283 3243.5,-253 3349.5,-253 3349.5,-283"/>
<text text-anchor="start" x="3251.5" y="-271" font-family="Helvetica,sans-Serif" font-size="10.00">src/msg/scrn/d_msg</text>
<text text-anchor="middle" x="3296.5" y="-260" font-family="Helvetica,sans-Serif" font-size="10.00">_scrn_howl.cpp</text>
</a>
</g>
</g>
<!-- Node1&#45;&gt;Node43 -->
<g id="edge44" class="edge">
<title>Node1&#45;&gt;Node43</title>
<path fill="none" stroke="#63b8ff" d="M2340.24,-333.43C2498.7,-333.55 2901.61,-328.89 3234.5,-283 3237.34,-282.61 3240.25,-282.15 3243.17,-281.65"/>
<polygon fill="#63b8ff" stroke="#63b8ff" points="2340.32,-329.93 2330.32,-333.42 2340.31,-336.93 2340.32,-329.93"/>
</g>
<!-- Node44 -->
<g id="node44" class="node">
<title>Node44</title>
<g id="a_node44"><a xlink:href="d__msg__scrn__place_8cpp.html" target="_top" xlink:title=" ">
<polygon fill="white" stroke="#666666" points="3473.5,-283 3367.5,-283 3367.5,-253 3473.5,-253 3473.5,-283"/>
<text text-anchor="start" x="3375.5" y="-271" font-family="Helvetica,sans-Serif" font-size="10.00">src/msg/scrn/d_msg</text>
<text text-anchor="middle" x="3420.5" y="-260" font-family="Helvetica,sans-Serif" font-size="10.00">_scrn_place.cpp</text>
</a>
</g>
</g>
<!-- Node1&#45;&gt;Node44 -->
<g id="edge45" class="edge">
<title>Node1&#45;&gt;Node44</title>
<path fill="none" stroke="#63b8ff" d="M2339.95,-331.43C2546.3,-326.45 3160.28,-309.73 3358.5,-283 3361.34,-282.62 3364.25,-282.17 3367.17,-281.67"/>
<polygon fill="#63b8ff" stroke="#63b8ff" points="2340.11,-327.93 2330.2,-331.66 2340.28,-334.92 2340.11,-327.93"/>
</g>
<!-- Node45 -->
<g id="node45" class="node">
<title>Node45</title>
<g id="a_node45"><a xlink:href="d__msg__scrn__staff_8cpp.html" target="_top" xlink:title=" ">
<polygon fill="white" stroke="#666666" points="3597.5,-283 3491.5,-283 3491.5,-253 3597.5,-253 3597.5,-283"/>
<text text-anchor="start" x="3499.5" y="-271" font-family="Helvetica,sans-Serif" font-size="10.00">src/msg/scrn/d_msg</text>
<text text-anchor="middle" x="3544.5" y="-260" font-family="Helvetica,sans-Serif" font-size="10.00">_scrn_staff.cpp</text>
</a>
</g>
</g>
<!-- Node1&#45;&gt;Node45 -->
<g id="edge46" class="edge">
<title>Node1&#45;&gt;Node45</title>
<path fill="none" stroke="#63b8ff" d="M2340.43,-331.79C2562.73,-327.65 3259.25,-312.57 3482.5,-283 3485.34,-282.62 3488.25,-282.18 3491.18,-281.68"/>
<polygon fill="#63b8ff" stroke="#63b8ff" points="2340.4,-328.29 2330.47,-331.98 2340.53,-335.29 2340.4,-328.29"/>
</g>
<!-- Node46 -->
<g id="node46" class="node">
<title>Node46</title>
<g id="a_node46"><a xlink:href="d__msg__scrn__tree_8cpp.html" target="_top" xlink:title=" ">
<polygon fill="white" stroke="#666666" points="3721.5,-283 3615.5,-283 3615.5,-253 3721.5,-253 3721.5,-283"/>
<text text-anchor="start" x="3623.5" y="-271" font-family="Helvetica,sans-Serif" font-size="10.00">src/msg/scrn/d_msg</text>
<text text-anchor="middle" x="3668.5" y="-260" font-family="Helvetica,sans-Serif" font-size="10.00">_scrn_tree.cpp</text>
</a>
</g>
</g>
<!-- Node1&#45;&gt;Node46 -->
<g id="edge47" class="edge">
<title>Node1&#45;&gt;Node46</title>
<path fill="none" stroke="#63b8ff" d="M2339.81,-332.11C2576.08,-328.77 3357.74,-315.46 3606.5,-283 3609.34,-282.63 3612.25,-282.19 3615.18,-281.7"/>
<polygon fill="#63b8ff" stroke="#63b8ff" points="2340.11,-328.6 2330.16,-332.24 2340.21,-335.6 2340.11,-328.6"/>
</g>
<!-- Node3 -->
<g id="node3" class="node">
<title>Node3</title>
<g id="a_node3"><a xlink:href="d__scope_8cpp.html" target="_top" xlink:title=" ">
<polygon fill="white" stroke="#666666" points="826.5,-211.5 730.5,-211.5 730.5,-192.5 826.5,-192.5 826.5,-211.5"/>
<text text-anchor="middle" x="778.5" y="-199.5" font-family="Helvetica,sans-Serif" font-size="10.00">src/d/d_scope.cpp</text>
</a>
</g>
</g>
<!-- Node2&#45;&gt;Node3 -->
<g id="edge2" class="edge">
<title>Node2&#45;&gt;Node3</title>
<path fill="none" stroke="#63b8ff" d="M880.27,-253.1C854.79,-240.56 818.08,-222.49 796.42,-211.82"/>
<polygon fill="#63b8ff" stroke="#63b8ff" points="878.55,-256.16 889.07,-257.43 881.64,-249.88 878.55,-256.16"/>
</g>
<!-- Node4 -->
<g id="node4" class="node">
<title>Node4</title>
<g id="a_node4"><a xlink:href="d__meter2_8cpp.html" target="_top" xlink:title=" ">
<polygon fill="white" stroke="#666666" points="972.5,-211.5 844.5,-211.5 844.5,-192.5 972.5,-192.5 972.5,-211.5"/>
<text text-anchor="middle" x="908.5" y="-199.5" font-family="Helvetica,sans-Serif" font-size="10.00">src/d/meter/d_meter2.cpp</text>
</a>
</g>
</g>
<!-- Node2&#45;&gt;Node4 -->
<g id="edge3" class="edge">
<title>Node2&#45;&gt;Node4</title>
<path fill="none" stroke="#63b8ff" d="M908.5,-246.68C908.5,-234.94 908.5,-220.77 908.5,-211.82"/>
<polygon fill="#63b8ff" stroke="#63b8ff" points="905,-246.59 908.5,-256.59 912,-246.59 905,-246.59"/>
</g>
<!-- Node6 -->
<g id="node6" class="node">
<title>Node6</title>
<g id="a_node6"><a xlink:href="d__select__cursor_8h.html" target="_top" xlink:title=" ">
<polygon fill="white" stroke="#666666" points="1124,-217 1029,-217 1029,-187 1124,-187 1124,-217"/>
<text text-anchor="start" x="1037" y="-205" font-family="Helvetica,sans-Serif" font-size="10.00">include/d/d_select</text>
<text text-anchor="middle" x="1076.5" y="-194" font-family="Helvetica,sans-Serif" font-size="10.00">_cursor.h</text>
</a>
</g>
</g>
<!-- Node5&#45;&gt;Node6 -->
<g id="edge5" class="edge">
<title>Node5&#45;&gt;Node6</title>
<path fill="none" stroke="#63b8ff" d="M1163.32,-247.45C1144.34,-237.73 1121.81,-226.2 1104.46,-217.31"/>
<polygon fill="#63b8ff" stroke="#63b8ff" points="1161.6,-250.51 1172.1,-251.95 1164.79,-244.27 1161.6,-250.51"/>
</g>
<!-- Node27 -->
<g id="node27" class="node">
<title>Node27</title>
<g id="a_node27"><a xlink:href="d__select__icon_8cpp.html" target="_top" xlink:title=" ">
<polygon fill="white" stroke="#666666" points="1261,-211.5 1142,-211.5 1142,-192.5 1261,-192.5 1261,-211.5"/>
<text text-anchor="middle" x="1201.5" y="-199.5" font-family="Helvetica,sans-Serif" font-size="10.00">src/d/d_select_icon.cpp</text>
</a>
</g>
</g>
<!-- Node5&#45;&gt;Node27 -->
<g id="edge26" class="edge">
<title>Node5&#45;&gt;Node27</title>
<path fill="none" stroke="#63b8ff" d="M1201.5,-241.59C1201.5,-231.06 1201.5,-219.53 1201.5,-211.84"/>
<polygon fill="#63b8ff" stroke="#63b8ff" points="1198,-241.28 1201.5,-251.28 1205,-241.28 1198,-241.28"/>
</g>
<!-- Node7 -->
<g id="node7" class="node">
<title>Node7</title>
<g id="a_node7"><a xlink:href="d__name_8h.html" target="_top" xlink:title=" ">
<polygon fill="white" stroke="#666666" points="274,-145.5 173,-145.5 173,-126.5 274,-126.5 274,-145.5"/>
<text text-anchor="middle" x="223.5" y="-133.5" font-family="Helvetica,sans-Serif" font-size="10.00">include/d/d_name.h</text>
</a>
</g>
</g>
<!-- Node6&#45;&gt;Node7 -->
<g id="edge6" class="edge">
<title>Node6&#45;&gt;Node7</title>
<path fill="none" stroke="#63b8ff" d="M1017.53,-187.44C1016.52,-187.28 1015.5,-187.14 1014.5,-187 692.21,-143.01 605.64,-196.14 283.5,-151 274.92,-149.8 265.76,-147.95 257.25,-146"/>
<polygon fill="#63b8ff" stroke="#63b8ff" points="1016.65,-190.83 1027.09,-189.07 1017.82,-183.93 1016.65,-190.83"/>
</g>
<!-- Node11 -->
<g id="node11" class="node">
<title>Node11</title>
<g id="a_node11"><a xlink:href="d__menu__dmap_8h.html" target="_top" xlink:title=" ">
<polygon fill="white" stroke="#666666" points="412.5,-151 292.5,-151 292.5,-121 412.5,-121 412.5,-151"/>
<text text-anchor="start" x="300.5" y="-139" font-family="Helvetica,sans-Serif" font-size="10.00">include/d/menu/d_menu</text>
<text text-anchor="middle" x="352.5" y="-128" font-family="Helvetica,sans-Serif" font-size="10.00">_dmap.h</text>
</a>
</g>
</g>
<!-- Node6&#45;&gt;Node11 -->
<g id="edge10" class="edge">
<title>Node6&#45;&gt;Node11</title>
<path fill="none" stroke="#63b8ff" d="M1017.53,-187.45C1016.52,-187.29 1015.5,-187.14 1014.5,-187 753.09,-149.8 683.3,-185.34 421.5,-151 418.59,-150.62 415.62,-150.19 412.63,-149.71"/>
<polygon fill="#63b8ff" stroke="#63b8ff" points="1016.63,-190.85 1027.09,-189.12 1017.84,-183.95 1016.63,-190.85"/>
</g>
<!-- Node15 -->
<g id="node15" class="node">
<title>Node15</title>
<g id="a_node15"><a xlink:href="d__select__cursor_8cpp.html" target="_top" xlink:title=" ">
<polygon fill="white" stroke="#666666" points="558.5,-145.5 430.5,-145.5 430.5,-126.5 558.5,-126.5 558.5,-145.5"/>
<text text-anchor="middle" x="494.5" y="-133.5" font-family="Helvetica,sans-Serif" font-size="10.00">src/d/d_select_cursor.cpp</text>
</a>
</g>
</g>
<!-- Node6&#45;&gt;Node15 -->
<g id="edge14" class="edge">
<title>Node6&#45;&gt;Node15</title>
<path fill="none" stroke="#63b8ff" d="M1017.53,-187.48C1016.51,-187.31 1015.5,-187.15 1014.5,-187 817.46,-156.97 765,-177.81 567.5,-151 557.53,-149.65 546.85,-147.82 536.83,-145.93"/>
<polygon fill="#63b8ff" stroke="#63b8ff" points="1016.61,-190.87 1027.07,-189.2 1017.86,-183.98 1016.61,-190.87"/>
</g>
<!-- Node16 -->
<g id="node16" class="node">
<title>Node16</title>
<g id="a_node16"><a xlink:href="d__menu__calibration_8cpp.html" target="_top" xlink:title=" ">
<polygon fill="white" stroke="#666666" points="746.5,-145.5 576.5,-145.5 576.5,-126.5 746.5,-126.5 746.5,-145.5"/>
<text text-anchor="middle" x="661.5" y="-133.5" font-family="Helvetica,sans-Serif" font-size="10.00">src/d/menu/d_menu_calibration.cpp</text>
</a>
</g>
</g>
<!-- Node6&#45;&gt;Node16 -->
<g id="edge15" class="edge">
<title>Node6&#45;&gt;Node16</title>
<path fill="none" stroke="#63b8ff" d="M1017.52,-187.56C1016.5,-187.37 1015.5,-187.18 1014.5,-187 900.16,-166.18 870.53,-167.56 755.5,-151 744.39,-149.4 732.56,-147.66 721.16,-145.97"/>
<polygon fill="#63b8ff" stroke="#63b8ff" points="1016.54,-190.93 1027.03,-189.45 1017.91,-184.07 1016.54,-190.93"/>
</g>
<!-- Node6&#45;&gt;Node17 -->
<g id="edge16" class="edge">
<title>Node6&#45;&gt;Node17</title>
<path fill="none" stroke="#63b8ff" d="M1017.54,-187.43C1016.52,-187.28 1015.5,-187.13 1014.5,-187 639.24,-137.11 540.1,-189.48 163.5,-151 151.31,-149.75 138.22,-147.9 126.03,-145.94"/>
<polygon fill="#63b8ff" stroke="#63b8ff" points="1016.66,-190.83 1027.1,-189.04 1017.82,-183.92 1016.66,-190.83"/>
</g>
<!-- Node18 -->
<g id="node18" class="node">
<title>Node18</title>
<g id="a_node18"><a xlink:href="d__menu__insect_8cpp.html" target="_top" xlink:title=" ">
<polygon fill="white" stroke="#666666" points="916.5,-145.5 764.5,-145.5 764.5,-126.5 916.5,-126.5 916.5,-145.5"/>
<text text-anchor="middle" x="840.5" y="-133.5" font-family="Helvetica,sans-Serif" font-size="10.00">src/d/menu/d_menu_insect.cpp</text>
</a>
</g>
</g>
<!-- Node6&#45;&gt;Node18 -->
<g id="edge17" class="edge">
<title>Node6&#45;&gt;Node18</title>
<path fill="none" stroke="#63b8ff" d="M1017.81,-185.09C972.23,-172.72 910.69,-156.03 873.39,-145.92"/>
<polygon fill="#63b8ff" stroke="#63b8ff" points="1016.71,-188.41 1027.28,-187.65 1018.55,-181.66 1016.71,-188.41"/>
</g>
<!-- Node19 -->
<g id="node19" class="node">
<title>Node19</title>
<g id="a_node19"><a xlink:href="d__menu__item__explain_8cpp.html" target="_top" xlink:title=" ">
<polygon fill="white" stroke="#666666" points="1062,-151 935,-151 935,-121 1062,-121 1062,-151"/>
<text text-anchor="start" x="943" y="-139" font-family="Helvetica,sans-Serif" font-size="10.00">src/d/menu/d_menu_item</text>
<text text-anchor="middle" x="998.5" y="-128" font-family="Helvetica,sans-Serif" font-size="10.00">_explain.cpp</text>
</a>
</g>
</g>
<!-- Node6&#45;&gt;Node19 -->
<g id="edge18" class="edge">
<title>Node6&#45;&gt;Node19</title>
<path fill="none" stroke="#63b8ff" d="M1050.54,-179.7C1039.2,-170.4 1026.2,-159.73 1016.03,-151.39"/>
<polygon fill="#63b8ff" stroke="#63b8ff" points="1048.07,-182.2 1058.02,-185.84 1052.51,-176.79 1048.07,-182.2"/>
</g>
<!-- Node20 -->
<g id="node20" class="node">
<title>Node20</title>
<g id="a_node20"><a xlink:href="d__menu__letter_8cpp.html" target="_top" xlink:title=" ">
<polygon fill="white" stroke="#666666" points="1228.5,-145.5 1080.5,-145.5 1080.5,-126.5 1228.5,-126.5 1228.5,-145.5"/>
<text text-anchor="middle" x="1154.5" y="-133.5" font-family="Helvetica,sans-Serif" font-size="10.00">src/d/menu/d_menu_letter.cpp</text>
</a>
</g>
</g>
<!-- Node6&#45;&gt;Node20 -->
<g id="edge19" class="edge">
<title>Node6&#45;&gt;Node20</title>
<path fill="none" stroke="#63b8ff" d="M1102.58,-179.6C1116.6,-168.1 1133.14,-154.52 1143.72,-145.84"/>
<polygon fill="#63b8ff" stroke="#63b8ff" points="1100.49,-176.79 1094.98,-185.84 1104.93,-182.2 1100.49,-176.79"/>
</g>
<!-- Node21 -->
<g id="node21" class="node">
<title>Node21</title>
<g id="a_node21"><a xlink:href="d__menu__map__common_8cpp.html" target="_top" xlink:title=" ">
<polygon fill="white" stroke="#666666" points="1374,-151 1247,-151 1247,-121 1374,-121 1374,-151"/>
<text text-anchor="start" x="1255" y="-139" font-family="Helvetica,sans-Serif" font-size="10.00">src/d/menu/d_menu_map</text>
<text text-anchor="middle" x="1310.5" y="-128" font-family="Helvetica,sans-Serif" font-size="10.00">_common.cpp</text>
</a>
</g>
</g>
<!-- Node6&#45;&gt;Node21 -->
<g id="edge20" class="edge">
<title>Node6&#45;&gt;Node21</title>
<path fill="none" stroke="#63b8ff" d="M1135.23,-184.94C1172.88,-174.64 1221.34,-161.39 1257.76,-151.43"/>
<polygon fill="#63b8ff" stroke="#63b8ff" points="1134.6,-181.48 1125.88,-187.49 1136.45,-188.23 1134.6,-181.48"/>
</g>
<!-- Node22 -->
<g id="node22" class="node">
<title>Node22</title>
<g id="a_node22"><a xlink:href="d__menu__option_8cpp.html" target="_top" xlink:title=" ">
<polygon fill="white" stroke="#666666" points="1544.5,-145.5 1392.5,-145.5 1392.5,-126.5 1544.5,-126.5 1544.5,-145.5"/>
<text text-anchor="middle" x="1468.5" y="-133.5" font-family="Helvetica,sans-Serif" font-size="10.00">src/d/menu/d_menu_option.cpp</text>
</a>
</g>
</g>
<!-- Node6&#45;&gt;Node22 -->
<g id="edge21" class="edge">
<title>Node6&#45;&gt;Node22</title>
<path fill="none" stroke="#63b8ff" d="M1135.55,-186.51C1244.6,-165.51 1275.12,-167.47 1382.5,-151 1392.82,-149.42 1403.82,-147.67 1414.39,-145.96"/>
<polygon fill="#63b8ff" stroke="#63b8ff" points="1135.02,-183.05 1125.87,-188.4 1136.36,-189.92 1135.02,-183.05"/>
</g>
<!-- Node6&#45;&gt;Node23 -->
<g id="edge22" class="edge">
<title>Node6&#45;&gt;Node23</title>
<path fill="none" stroke="#63b8ff" d="M1135.73,-186.74C1538.72,-130.38 1648.25,-193.89 2050.5,-151 2061.86,-149.79 2074.04,-147.94 2085.38,-145.98"/>
<polygon fill="#63b8ff" stroke="#63b8ff" points="1135.24,-183.27 1125.83,-188.14 1136.22,-190.2 1135.24,-183.27"/>
</g>
<!-- Node24 -->
<g id="node24" class="node">
<title>Node24</title>
<g id="a_node24"><a xlink:href="d__menu__save_8cpp.html" target="_top" xlink:title=" ">
<polygon fill="white" stroke="#666666" points="1710,-145.5 1563,-145.5 1563,-126.5 1710,-126.5 1710,-145.5"/>
<text text-anchor="middle" x="1636.5" y="-133.5" font-family="Helvetica,sans-Serif" font-size="10.00">src/d/menu/d_menu_save.cpp</text>
</a>
</g>
</g>
<!-- Node6&#45;&gt;Node24 -->
<g id="edge23" class="edge">
<title>Node6&#45;&gt;Node24</title>
<path fill="none" stroke="#63b8ff" d="M1135.52,-186.66C1319.72,-156.84 1370.84,-174.18 1553.5,-151 1564.52,-149.6 1576.31,-147.8 1587.44,-145.96"/>
<polygon fill="#63b8ff" stroke="#63b8ff" points="1135.15,-183.18 1125.85,-188.26 1136.28,-190.08 1135.15,-183.18"/>
</g>
<!-- Node25 -->
<g id="node25" class="node">
<title>Node25</title>
<g id="a_node25"><a xlink:href="d__menu__skill_8cpp.html" target="_top" xlink:title=" ">
<polygon fill="white" stroke="#666666" points="1871,-145.5 1728,-145.5 1728,-126.5 1871,-126.5 1871,-145.5"/>
<text text-anchor="middle" x="1799.5" y="-133.5" font-family="Helvetica,sans-Serif" font-size="10.00">src/d/menu/d_menu_skill.cpp</text>
</a>
</g>
</g>
<!-- Node6&#45;&gt;Node25 -->
<g id="edge24" class="edge">
<title>Node6&#45;&gt;Node25</title>
<path fill="none" stroke="#63b8ff" d="M1135.55,-186.72C1392.82,-148.1 1463.59,-181.14 1719.5,-151 1730.56,-149.7 1742.42,-147.86 1753.52,-145.95"/>
<polygon fill="#63b8ff" stroke="#63b8ff" points="1135.2,-183.23 1125.84,-188.2 1136.25,-190.15 1135.2,-183.23"/>
</g>
<!-- Node26 -->
<g id="node26" class="node">
<title>Node26</title>
<g id="a_node26"><a xlink:href="d__shop__system_8cpp.html" target="_top" xlink:title=" ">
<polygon fill="white" stroke="#666666" points="2041.5,-145.5 1889.5,-145.5 1889.5,-126.5 2041.5,-126.5 2041.5,-145.5"/>
<text text-anchor="middle" x="1965.5" y="-133.5" font-family="Helvetica,sans-Serif" font-size="10.00">src/d/shop/d_shop_system.cpp</text>
</a>
</g>
</g>
<!-- Node6&#45;&gt;Node26 -->
<g id="edge25" class="edge">
<title>Node6&#45;&gt;Node26</title>
<path fill="none" stroke="#63b8ff" d="M1135.61,-186.74C1463.76,-139.46 1553.24,-185.71 1880.5,-151 1892.4,-149.74 1905.16,-147.9 1917.09,-145.96"/>
<polygon fill="#63b8ff" stroke="#63b8ff" points="1135.22,-183.26 1125.83,-188.16 1136.24,-190.18 1135.22,-183.26"/>
</g>
<!-- Node8 -->
<g id="node8" class="node">
<title>Node8</title>
<g id="a_node8"><a xlink:href="d__file__select_8h.html" target="_top" xlink:title=" ">
<polygon fill="white" stroke="#666666" points="147.5,-85 51.5,-85 51.5,-55 147.5,-55 147.5,-85"/>
<text text-anchor="start" x="59.5" y="-73" font-family="Helvetica,sans-Serif" font-size="10.00">include/d/file/d_file</text>
<text text-anchor="middle" x="99.5" y="-62" font-family="Helvetica,sans-Serif" font-size="10.00">_select.h</text>
</a>
</g>
</g>
<!-- Node7&#45;&gt;Node8 -->
<g id="edge7" class="edge">
<title>Node7&#45;&gt;Node8</title>
<path fill="none" stroke="#63b8ff" d="M196.08,-120.85C175.72,-110.34 148.05,-96.06 127.55,-85.48"/>
<polygon fill="#63b8ff" stroke="#63b8ff" points="194.42,-123.93 204.91,-125.41 197.63,-117.71 194.42,-123.93"/>
</g>
<!-- Node10 -->
<g id="node10" class="node">
<title>Node10</title>
<g id="a_node10"><a xlink:href="d__name_8cpp.html" target="_top" xlink:title=" ">
<polygon fill="white" stroke="#666666" points="259.5,-79.5 165.5,-79.5 165.5,-60.5 259.5,-60.5 259.5,-79.5"/>
<text text-anchor="middle" x="212.5" y="-67.5" font-family="Helvetica,sans-Serif" font-size="10.00">src/d/d_name.cpp</text>
</a>
</g>
</g>
<!-- Node7&#45;&gt;Node10 -->
<g id="edge9" class="edge">
<title>Node7&#45;&gt;Node10</title>
<path fill="none" stroke="#63b8ff" d="M220.07,-115.05C218.04,-103.24 215.57,-88.87 214.02,-79.82"/>
<polygon fill="#63b8ff" stroke="#63b8ff" points="216.57,-115.35 221.71,-124.61 223.47,-114.16 216.57,-115.35"/>
</g>
<!-- Node9 -->
<g id="node9" class="node">
<title>Node9</title>
<g id="a_node9"><a xlink:href="d__file__select_8cpp.html" target="_top" xlink:title=" ">
<polygon fill="white" stroke="#666666" points="163.5,-19 35.5,-19 35.5,0 163.5,0 163.5,-19"/>
<text text-anchor="middle" x="99.5" y="-7" font-family="Helvetica,sans-Serif" font-size="10.00">src/d/file/d_file_select.cpp</text>
</a>
</g>
</g>
<!-- Node8&#45;&gt;Node9 -->
<g id="edge8" class="edge">
<title>Node8&#45;&gt;Node9</title>
<path fill="none" stroke="#63b8ff" d="M99.5,-43.3C99.5,-34.65 99.5,-25.58 99.5,-19.18"/>
<polygon fill="#63b8ff" stroke="#63b8ff" points="96,-43.03 99.5,-53.03 103,-43.03 96,-43.03"/>
</g>
<!-- Node12 -->
<g id="node12" class="node">
<title>Node12</title>
<g id="a_node12"><a xlink:href="d__menu__dmap_8cpp.html" target="_top" xlink:title=" ">
<polygon fill="white" stroke="#666666" points="427.5,-79.5 277.5,-79.5 277.5,-60.5 427.5,-60.5 427.5,-79.5"/>
<text text-anchor="middle" x="352.5" y="-67.5" font-family="Helvetica,sans-Serif" font-size="10.00">src/d/menu/d_menu_dmap.cpp</text>
</a>
</g>
</g>
<!-- Node11&#45;&gt;Node12 -->
<g id="edge11" class="edge">
<title>Node11&#45;&gt;Node12</title>
<path fill="none" stroke="#63b8ff" d="M352.5,-109.59C352.5,-99.06 352.5,-87.53 352.5,-79.84"/>
<polygon fill="#63b8ff" stroke="#63b8ff" points="349,-109.28 352.5,-119.28 356,-109.28 349,-109.28"/>
</g>
<!-- Node13 -->
<g id="node13" class="node">
<title>Node13</title>
<g id="a_node13"><a xlink:href="d__menu__fishing_8cpp.html" target="_top" xlink:title=" ">
<polygon fill="white" stroke="#666666" points="599.5,-79.5 445.5,-79.5 445.5,-60.5 599.5,-60.5 599.5,-79.5"/>
<text text-anchor="middle" x="522.5" y="-67.5" font-family="Helvetica,sans-Serif" font-size="10.00">src/d/menu/d_menu_fishing.cpp</text>
</a>
</g>
</g>
<!-- Node11&#45;&gt;Node13 -->
<g id="edge12" class="edge">
<title>Node11&#45;&gt;Node13</title>
<path fill="none" stroke="#63b8ff" d="M401.12,-116.69C433.06,-104.67 473.45,-89.47 498.63,-79.99"/>
<polygon fill="#63b8ff" stroke="#63b8ff" points="400.19,-113.3 392.07,-120.1 402.66,-119.86 400.19,-113.3"/>
</g>
<!-- Node14 -->
<g id="node14" class="node">
<title>Node14</title>
<g id="a_node14"><a xlink:href="d__menu__window_8cpp.html" target="_top" xlink:title=" ">
<polygon fill="white" stroke="#666666" points="777,-79.5 618,-79.5 618,-60.5 777,-60.5 777,-79.5"/>
<text text-anchor="middle" x="697.5" y="-67.5" font-family="Helvetica,sans-Serif" font-size="10.00">src/d/menu/d_menu_window.cpp</text>
</a>
</g>
</g>
<!-- Node11&#45;&gt;Node14 -->
<g id="edge13" class="edge">
<title>Node11&#45;&gt;Node14</title>
<path fill="none" stroke="#63b8ff" d="M423.93,-120.56C507.44,-104.6 592.97,-89.34 646.06,-79.99"/>
<polygon fill="#63b8ff" stroke="#63b8ff" points="423.35,-117.1 414.18,-122.42 424.66,-123.98 423.35,-117.1"/>
</g>
</g>
</svg>
