<?xml version="1.0" encoding="UTF-8" standalone="no"?>
<!DOCTYPE svg PUBLIC "-//W3C//DTD SVG 1.1//EN"
 "http://www.w3.org/Graphics/SVG/1.1/DTD/svg11.dtd">
<!-- Generated by graphviz version 7.0.5 (20221223.1930)
 -->
<!-- Title: src/d/d_spline_path.cpp Pages: 1 -->
<!--zoomable 335 -->
<svg id="main" version="1.1" xmlns="http://www.w3.org/2000/svg" xmlns:xlink="http://www.w3.org/1999/xlink" xml:space="preserve" onload="init(evt)">
<style type="text/css"><![CDATA[
.edge:hover path { stroke: red; }
.edge:hover polygon { stroke: red; fill: red; }
]]></style>
<script type="text/javascript"><![CDATA[
var edges = document.getElementsByTagName('g');
if (edges && edges.length) {
  for (var i=0;i<edges.length;i++) {
    if (edges[i].id.substr(0,4)=='edge') {
      edges[i].setAttribute('class','edge');
    }
  }
}
]]></script>
        <defs>
                <circle id="rim" cx="0" cy="0" r="7"/>
                <circle id="rim2" cx="0" cy="0" r="3.5"/>
                <g id="zoomPlus">
                        <use xlink:href="#rim" fill="#404040">
                                <set attributeName="fill" to="#808080" begin="zoomplus.mouseover" end="zoomplus.mouseout"/>
                        </use>
                        <path d="M-4,0h8M0,-4v8" fill="none" stroke="white" stroke-width="1.5" pointer-events="none"/>
                </g>
                <g id="zoomMin">
                        <use xlink:href="#rim" fill="#404040">
                                <set attributeName="fill" to="#808080" begin="zoomminus.mouseover" end="zoomminus.mouseout"/>
                        </use>
                        <path d="M-4,0h8" fill="none" stroke="white" stroke-width="1.5" pointer-events="none"/>
                </g>
                <g id="dirArrow">
                        <path fill="none" stroke="white" stroke-width="1.5" d="M0,-3.0v7 M-2.5,-0.5L0,-3.0L2.5,-0.5"/>
                </g>
               <g id="resetDef">
                       <use xlink:href="#rim2" fill="#404040">
                               <set attributeName="fill" to="#808080" begin="reset.mouseover" end="reset.mouseout"/>
                       </use>
               </g>
        </defs>

<script type="text/javascript">
var viewWidth = 1045;
var viewHeight = 335;
var sectionId = 'dynsection-0';
</script>
<script xlink:href="svgpan.js"/>
<svg id="graph" class="graph">
<g id="viewport">
<title>src/d/d_spline_path.cpp</title>
<!-- Node1 -->
<g id="node1" class="node">
<title>Node1</title>
<g id="a_node1"><a xlink:title=" ">
<polygon fill="#999999" stroke="#666666" points="507.5,-327 388.5,-327 388.5,-308 507.5,-308 507.5,-327"/>
<text text-anchor="middle" x="448" y="-315" font-family="Helvetica,sans-Serif" font-size="10.00">src/d/d_spline_path.cpp</text>
</a>
</g>
</g>
<!-- Node2 -->
<g id="node2" class="node">
<title>Node2</title>
<g id="a_node2"><a xlink:href="d__spline__path_8h.html" target="_top" xlink:title=" ">
<polygon fill="white" stroke="#666666" points="114,-261 22,-261 22,-242 114,-242 114,-261"/>
<text text-anchor="middle" x="68" y="-249" font-family="Helvetica,sans-Serif" font-size="10.00">d/d_spline_path.h</text>
</a>
</g>
</g>
<!-- Node1&#45;&gt;Node2 -->
<g id="edge1" class="edge">
<title>Node1&#45;&gt;Node2</title>
<path fill="none" stroke="#63b8ff" d="M388.22,-311.87C322.7,-305.97 214.82,-293.82 124,-272 116.49,-270.2 108.57,-267.77 101.13,-265.25"/>
<polygon fill="#63b8ff" stroke="#63b8ff" points="102.33,-261.96 91.74,-261.92 99.99,-268.56 102.33,-261.96"/>
</g>
<!-- Node10 -->
<g id="node10" class="node">
<title>Node10</title>
<g id="a_node10"><a xlink:href="dol2asm_8h.html" target="_top" xlink:title=" ">
<polygon fill="white" stroke="#666666" points="193.5,-261 132.5,-261 132.5,-242 193.5,-242 193.5,-261"/>
<text text-anchor="middle" x="163" y="-249" font-family="Helvetica,sans-Serif" font-size="10.00">dol2asm.h</text>
</a>
</g>
</g>
<!-- Node1&#45;&gt;Node10 -->
<g id="edge9" class="edge">
<title>Node1&#45;&gt;Node10</title>
<path fill="none" stroke="#63b8ff" d="M388.21,-310.28C337.9,-303.96 264.52,-292.16 203,-272 198.29,-270.46 193.43,-268.46 188.79,-266.34"/>
<polygon fill="#63b8ff" stroke="#63b8ff" points="190.42,-263.24 179.9,-261.98 187.34,-269.53 190.42,-263.24"/>
</g>
<!-- Node11 -->
<g id="node11" class="node">
<title>Node11</title>
<g id="a_node11"><a xlink:title=" ">
<polygon fill="#e0e0e0" stroke="#999999" points="354.5,-266.5 211.5,-266.5 211.5,-236.5 354.5,-236.5 354.5,-266.5"/>
<text text-anchor="start" x="219.5" y="-254.5" font-family="Helvetica,sans-Serif" font-size="10.00">asm/d/d_spline_path</text>
<text text-anchor="middle" x="283" y="-243.5" font-family="Helvetica,sans-Serif" font-size="10.00">/Init__14d2DBSplinePathFll.s</text>
</a>
</g>
</g>
<!-- Node1&#45;&gt;Node11 -->
<g id="edge10" class="edge">
<title>Node1&#45;&gt;Node11</title>
<path fill="none" stroke="#63b8ff" d="M425.06,-307.6C400.82,-298.2 361.89,-283.1 330.91,-271.09"/>
<polygon fill="#63b8ff" stroke="#63b8ff" points="332.33,-267.88 321.74,-267.52 329.79,-274.4 332.33,-267.88"/>
</g>
<!-- Node12 -->
<g id="node12" class="node">
<title>Node12</title>
<g id="a_node12"><a xlink:title=" ">
<polygon fill="#e0e0e0" stroke="#999999" points="523.5,-266.5 372.5,-266.5 372.5,-236.5 523.5,-236.5 523.5,-266.5"/>
<text text-anchor="start" x="380.5" y="-254.5" font-family="Helvetica,sans-Serif" font-size="10.00">asm/d/d_spline_path</text>
<text text-anchor="middle" x="448" y="-243.5" font-family="Helvetica,sans-Serif" font-size="10.00">/Step__14d2DBSplinePathFv.s</text>
</a>
</g>
</g>
<!-- Node1&#45;&gt;Node12 -->
<g id="edge11" class="edge">
<title>Node1&#45;&gt;Node12</title>
<path fill="none" stroke="#63b8ff" d="M448,-307.6C448,-299.91 448,-288.42 448,-277.92"/>
<polygon fill="#63b8ff" stroke="#63b8ff" points="451.5,-278.25 448,-268.25 444.5,-278.25 451.5,-278.25"/>
</g>
<!-- Node13 -->
<g id="node13" class="node">
<title>Node13</title>
<g id="a_node13"><a xlink:title=" ">
<polygon fill="#e0e0e0" stroke="#999999" points="696.5,-272 541.5,-272 541.5,-231 696.5,-231 696.5,-272"/>
<text text-anchor="start" x="549.5" y="-260" font-family="Helvetica,sans-Serif" font-size="10.00">asm/d/d_spline_path</text>
<text text-anchor="start" x="549.5" y="-249" font-family="Helvetica,sans-Serif" font-size="10.00">/Calc__14d2DBSplinePathFP4c</text>
<text text-anchor="middle" x="619" y="-238" font-family="Helvetica,sans-Serif" font-size="10.00">Xyz.s</text>
</a>
</g>
</g>
<!-- Node1&#45;&gt;Node13 -->
<g id="edge12" class="edge">
<title>Node1&#45;&gt;Node13</title>
<path fill="none" stroke="#63b8ff" d="M471.78,-307.6C493.35,-299.53 526.16,-287.25 555.33,-276.33"/>
<polygon fill="#63b8ff" stroke="#63b8ff" points="556.33,-279.69 564.47,-272.91 553.88,-273.14 556.33,-279.69"/>
</g>
<!-- Node14 -->
<g id="node14" class="node">
<title>Node14</title>
<g id="a_node14"><a xlink:title=" ">
<polygon fill="#e0e0e0" stroke="#999999" points="873,-266.5 715,-266.5 715,-236.5 873,-236.5 873,-266.5"/>
<text text-anchor="start" x="723" y="-254.5" font-family="Helvetica,sans-Serif" font-size="10.00">asm/d/d_spline_path</text>
<text text-anchor="middle" x="794" y="-243.5" font-family="Helvetica,sans-Serif" font-size="10.00">/Spot__14d2DBSplinePathFPff.s</text>
</a>
</g>
</g>
<!-- Node1&#45;&gt;Node14 -->
<g id="edge13" class="edge">
<title>Node1&#45;&gt;Node14</title>
<path fill="none" stroke="#63b8ff" d="M504.76,-307.5C557.13,-299.01 636.99,-285.59 706,-272 710.37,-271.14 714.85,-270.23 719.37,-269.29"/>
<polygon fill="#63b8ff" stroke="#63b8ff" points="720.08,-272.72 729.15,-267.23 718.64,-265.87 720.08,-272.72"/>
</g>
<!-- Node15 -->
<g id="node15" class="node">
<title>Node15</title>
<g id="a_node15"><a xlink:title=" ">
<polygon fill="#e0e0e0" stroke="#999999" points="1037,-266.5 891,-266.5 891,-236.5 1037,-236.5 1037,-266.5"/>
<text text-anchor="start" x="899" y="-254.5" font-family="Helvetica,sans-Serif" font-size="10.00">asm/d/d_spline_path</text>
<text text-anchor="middle" x="964" y="-243.5" font-family="Helvetica,sans-Serif" font-size="10.00">/bSpline2__10dPathCurveFf.s</text>
</a>
</g>
</g>
<!-- Node1&#45;&gt;Node15 -->
<g id="edge14" class="edge">
<title>Node1&#45;&gt;Node15</title>
<path fill="none" stroke="#63b8ff" d="M507.65,-312.87C591.62,-307.2 749.26,-294.49 882,-272 886.84,-271.18 891.81,-270.24 896.81,-269.23"/>
<polygon fill="#63b8ff" stroke="#63b8ff" points="897.2,-272.72 906.26,-267.22 895.75,-265.88 897.2,-272.72"/>
</g>
<!-- Node3 -->
<g id="node3" class="node">
<title>Node3</title>
<g id="a_node3"><a xlink:href="c__xyz_8h.html" target="_top" xlink:title=" ">
<polygon fill="white" stroke="#666666" points="126,-195 10,-195 10,-165 126,-165 126,-195"/>
<text text-anchor="start" x="18" y="-183" font-family="Helvetica,sans-Serif" font-size="10.00">SSystem/SComponent</text>
<text text-anchor="middle" x="68" y="-172" font-family="Helvetica,sans-Serif" font-size="10.00">/c_xyz.h</text>
</a>
</g>
</g>
<!-- Node2&#45;&gt;Node3 -->
<g id="edge2" class="edge">
<title>Node2&#45;&gt;Node3</title>
<path fill="none" stroke="#63b8ff" d="M68,-241.7C68,-232.93 68,-219.05 68,-206.77"/>
<polygon fill="#63b8ff" stroke="#63b8ff" points="71.5,-206.79 68,-196.79 64.5,-206.79 71.5,-206.79"/>
</g>
<!-- Node4 -->
<g id="node4" class="node">
<title>Node4</title>
<g id="a_node4"><a xlink:href="math_8h.html" target="_top" xlink:title=" ">
<polygon fill="white" stroke="#666666" points="48,-129 2,-129 2,-110 48,-110 48,-129"/>
<text text-anchor="middle" x="25" y="-117" font-family="Helvetica,sans-Serif" font-size="10.00">math.h</text>
</a>
</g>
</g>
<!-- Node3&#45;&gt;Node4 -->
<g id="edge3" class="edge">
<title>Node3&#45;&gt;Node4</title>
<path fill="none" stroke="#63b8ff" d="M57.37,-164.54C51.57,-156.65 44.34,-146.81 38.18,-138.44"/>
<polygon fill="#63b8ff" stroke="#63b8ff" points="41.02,-136.38 32.27,-130.39 35.38,-140.53 41.02,-136.38"/>
</g>
<!-- Node7 -->
<g id="node7" class="node">
<title>Node7</title>
<g id="a_node7"><a xlink:href="vec_8h.html" target="_top" xlink:title=" ">
<polygon fill="white" stroke="#666666" points="158,-129 66,-129 66,-110 158,-110 158,-129"/>
<text text-anchor="middle" x="112" y="-117" font-family="Helvetica,sans-Serif" font-size="10.00">dolphin/mtx/vec.h</text>
</a>
</g>
</g>
<!-- Node3&#45;&gt;Node7 -->
<g id="edge6" class="edge">
<title>Node3&#45;&gt;Node7</title>
<path fill="none" stroke="#63b8ff" d="M78.88,-164.54C84.88,-156.56 92.37,-146.59 98.72,-138.16"/>
<polygon fill="#63b8ff" stroke="#63b8ff" points="101.35,-140.48 104.57,-130.38 95.76,-136.27 101.35,-140.48"/>
</g>
<!-- Node5 -->
<g id="node5" class="node">
<title>Node5</title>
<g id="a_node5"><a xlink:href="float_8h.html" target="_top" xlink:title=" ">
<polygon fill="white" stroke="#666666" points="46,-74 4,-74 4,-55 46,-55 46,-74"/>
<text text-anchor="middle" x="25" y="-62" font-family="Helvetica,sans-Serif" font-size="10.00">float.h</text>
</a>
</g>
</g>
<!-- Node4&#45;&gt;Node5 -->
<g id="edge4" class="edge">
<title>Node4&#45;&gt;Node5</title>
<path fill="none" stroke="#63b8ff" d="M25,-109.75C25,-103.27 25,-94.16 25,-85.9"/>
<polygon fill="#63b8ff" stroke="#63b8ff" points="28.5,-85.96 25,-75.96 21.5,-85.96 28.5,-85.96"/>
</g>
<!-- Node6 -->
<g id="node6" class="node">
<title>Node6</title>
<g id="a_node6"><a xlink:href="fdlibm_8h.html" target="_top" xlink:title=" ">
<polygon fill="white" stroke="#666666" points="50,-19 0,-19 0,0 50,0 50,-19"/>
<text text-anchor="middle" x="25" y="-7" font-family="Helvetica,sans-Serif" font-size="10.00">fdlibm.h</text>
</a>
</g>
</g>
<!-- Node5&#45;&gt;Node6 -->
<g id="edge5" class="edge">
<title>Node5&#45;&gt;Node6</title>
<path fill="none" stroke="#63b8ff" d="M25,-54.75C25,-48.27 25,-39.16 25,-30.9"/>
<polygon fill="#63b8ff" stroke="#63b8ff" points="28.5,-30.96 25,-20.96 21.5,-30.96 28.5,-30.96"/>
</g>
<!-- Node8 -->
<g id="node8" class="node">
<title>Node8</title>
<g id="a_node8"><a xlink:href="types_8h.html" target="_top" xlink:title=" ">
<polygon fill="white" stroke="#666666" points="152.5,-74 71.5,-74 71.5,-55 152.5,-55 152.5,-74"/>
<text text-anchor="middle" x="112" y="-62" font-family="Helvetica,sans-Serif" font-size="10.00">dolphin/types.h</text>
</a>
</g>
</g>
<!-- Node7&#45;&gt;Node8 -->
<g id="edge7" class="edge">
<title>Node7&#45;&gt;Node8</title>
<path fill="none" stroke="#63b8ff" d="M112,-109.75C112,-103.27 112,-94.16 112,-85.9"/>
<polygon fill="#63b8ff" stroke="#63b8ff" points="115.5,-85.96 112,-75.96 108.5,-85.96 115.5,-85.96"/>
</g>
<!-- Node9 -->
<g id="node9" class="node">
<title>Node9</title>
<g id="a_node9"><a xlink:href="stddef_8h.html" target="_top" xlink:title=" ">
<polygon fill="white" stroke="#666666" points="137.5,-19 86.5,-19 86.5,0 137.5,0 137.5,-19"/>
<text text-anchor="middle" x="112" y="-7" font-family="Helvetica,sans-Serif" font-size="10.00">stddef.h</text>
</a>
</g>
</g>
<!-- Node8&#45;&gt;Node9 -->
<g id="edge8" class="edge">
<title>Node8&#45;&gt;Node9</title>
<path fill="none" stroke="#63b8ff" d="M112,-54.75C112,-48.27 112,-39.16 112,-30.9"/>
<polygon fill="#63b8ff" stroke="#63b8ff" points="115.5,-30.96 112,-20.96 108.5,-30.96 115.5,-30.96"/>
</g>
</g>
</svg>
        <g id="navigator" transform="translate(0 0)" fill="#404254">
                <rect fill="#f2f5e9" fill-opacity="0.5" stroke="#606060" stroke-width=".5" x="0" y="0" width="60" height="60"/>
                <use id="zoomplus" xlink:href="#zoomPlus" x="17" y="9" onmousedown="handleZoom(evt,'in')"/>
                <use id="zoomminus" xlink:href="#zoomMin" x="42" y="9" onmousedown="handleZoom(evt,'out')"/>
                <use id="reset" xlink:href="#resetDef" x="30" y="36" onmousedown="handleReset()"/>
                <g id="arrowUp" xlink:href="#dirArrow" transform="translate(30 24)" onmousedown="handlePan(0,-1)">
                  <use xlink:href="#rim" fill="#404040">
                        <set attributeName="fill" to="#808080" begin="arrowUp.mouseover" end="arrowUp.mouseout"/>
                  </use>
                  <path fill="none" stroke="white" stroke-width="1.5" d="M0,-3.0v7 M-2.5,-0.5L0,-3.0L2.5,-0.5"/>
                </g>
                <g id="arrowRight" xlink:href="#dirArrow" transform="rotate(90) translate(36 -43)" onmousedown="handlePan(1,0)">
                  <use xlink:href="#rim" fill="#404040">
                        <set attributeName="fill" to="#808080" begin="arrowRight.mouseover" end="arrowRight.mouseout"/>
                  </use>
                  <path fill="none" stroke="white" stroke-width="1.5" d="M0,-3.0v7 M-2.5,-0.5L0,-3.0L2.5,-0.5"/>
                </g>
                <g id="arrowDown" xlink:href="#dirArrow" transform="rotate(180) translate(-30 -48)" onmousedown="handlePan(0,1)">
                  <use xlink:href="#rim" fill="#404040">
                        <set attributeName="fill" to="#808080" begin="arrowDown.mouseover" end="arrowDown.mouseout"/>
                  </use>
                  <path fill="none" stroke="white" stroke-width="1.5" d="M0,-3.0v7 M-2.5,-0.5L0,-3.0L2.5,-0.5"/>
                </g>
                <g id="arrowLeft" xlink:href="#dirArrow" transform="rotate(270) translate(-36 17)" onmousedown="handlePan(-1,0)">
                  <use xlink:href="#rim" fill="#404040">
                        <set attributeName="fill" to="#808080" begin="arrowLeft.mouseover" end="arrowLeft.mouseout"/>
                  </use>
                  <path fill="none" stroke="white" stroke-width="1.5" d="M0,-3.0v7 M-2.5,-0.5L0,-3.0L2.5,-0.5"/>
                </g>
        </g>
        <svg viewBox="0 0 15 15" width="100%" height="30px" preserveAspectRatio="xMaxYMin meet">
         <g id="arrow_out" transform="scale(0.3 0.3)">
          <a xlink:href="d__spline__path_8cpp__incl_org.svg" target="_base">
           <rect id="button" ry="5" rx="5" y="6" x="6" height="38" width="38"
                fill="#f2f5e9" fill-opacity="0.5" stroke="#606060" stroke-width="1.0"/>
           <path id="arrow"
             d="M 11.500037,31.436501 C 11.940474,20.09759 22.043105,11.32322 32.158766,21.979434 L 37.068811,17.246167 C 37.068811,17.246167 37.088388,32 37.088388,32 L 22.160133,31.978069 C 22.160133,31.978069 26.997745,27.140456 26.997745,27.140456 C 18.528582,18.264221 13.291696,25.230495 11.500037,31.436501 z"
             style="fill:#404040;"/>
          </a>
         </g>
        </svg>
</svg>
