<?xml version="1.0" encoding="UTF-8" standalone="no"?>
<!DOCTYPE svg PUBLIC "-//W3C//DTD SVG 1.1//EN"
 "http://www.w3.org/Graphics/SVG/1.1/DTD/svg11.dtd">
<!-- Generated by graphviz version 2.46.1 (20210215.1649)
 -->
<!-- Title: include/d/d_stage/d_stage.h Pages: 1 -->
<svg width="4964pt" height="307pt"
 viewBox="0.00 0.00 4964.22 307.00" xmlns="http://www.w3.org/2000/svg" xmlns:xlink="http://www.w3.org/1999/xlink">
<g id="graph0" class="graph" transform="scale(1 1) rotate(0) translate(4 303)">
<title>include/d/d_stage/d_stage.h</title>
<polygon fill="white" stroke="transparent" points="-4,4 -4,-303 4960.22,-303 4960.22,4 -4,4"/>
<!-- Node1 -->
<g id="node1" class="node">
<title>Node1</title>
<g id="a_node1"><a xlink:title=" ">
<polygon fill="#bfbfbf" stroke="black" points="3,-268.5 3,-298.5 104,-298.5 104,-268.5 3,-268.5"/>
<text text-anchor="start" x="11" y="-286.5" font-family="Helvetica,sans-Serif" font-size="10.00">include/d/d_stage/d</text>
<text text-anchor="middle" x="53.5" y="-275.5" font-family="Helvetica,sans-Serif" font-size="10.00">_stage.h</text>
</a>
</g>
</g>
<!-- Node2 -->
<g id="node2" class="node">
<title>Node2</title>
<g id="a_node2"><a xlink:href="d__stage_8cpp.html" target="_top" xlink:title=" ">
<polygon fill="white" stroke="black" points="125.5,-6 125.5,-25 219.5,-25 219.5,-6 125.5,-6"/>
<text text-anchor="middle" x="172.5" y="-13" font-family="Helvetica,sans-Serif" font-size="10.00">src/d/d_stage.cpp</text>
</a>
</g>
</g>
<!-- Node1&#45;&gt;Node2 -->
<g id="edge1" class="edge">
<title>Node1&#45;&gt;Node2</title>
<path fill="none" stroke="midnightblue" d="M61.98,-258.86C76.69,-218.66 108.6,-134.77 142.5,-67 150.07,-51.86 160.44,-35.12 166.79,-25.22"/>
<polygon fill="midnightblue" stroke="midnightblue" points="58.67,-257.73 58.54,-268.32 65.25,-260.12 58.67,-257.73"/>
</g>
<!-- Node3 -->
<g id="node3" class="node">
<title>Node3</title>
<g id="a_node3"><a xlink:href="f__op__actor__mng_8cpp.html" target="_top" xlink:title=" ">
<polygon fill="white" stroke="black" points="0,-0.5 0,-30.5 107,-30.5 107,-0.5 0,-0.5"/>
<text text-anchor="start" x="8" y="-18.5" font-family="Helvetica,sans-Serif" font-size="10.00">src/f/f_op/f_op_actor</text>
<text text-anchor="middle" x="53.5" y="-7.5" font-family="Helvetica,sans-Serif" font-size="10.00">_mng.cpp</text>
</a>
</g>
</g>
<!-- Node1&#45;&gt;Node3 -->
<g id="edge2" class="edge">
<title>Node1&#45;&gt;Node3</title>
<path fill="none" stroke="midnightblue" d="M45.39,-258.38C42.99,-250.12 40.69,-240.75 39.5,-232 29.61,-159.34 29.61,-139.66 39.5,-67 41.19,-54.56 45.13,-40.86 48.4,-30.87"/>
<polygon fill="midnightblue" stroke="midnightblue" points="42.1,-259.61 48.4,-268.13 48.79,-257.54 42.1,-259.61"/>
</g>
<!-- Node4 -->
<g id="node4" class="node">
<title>Node4</title>
<g id="a_node4"><a xlink:href="d__com__inf__game_8h.html" target="_top" xlink:title=" ">
<polygon fill="white" stroke="black" points="2166.5,-201.5 2166.5,-231.5 2312.5,-231.5 2312.5,-201.5 2166.5,-201.5"/>
<text text-anchor="start" x="2174.5" y="-219.5" font-family="Helvetica,sans-Serif" font-size="10.00">include/d/d_com/d_com</text>
<text text-anchor="middle" x="2239.5" y="-208.5" font-family="Helvetica,sans-Serif" font-size="10.00">_inf_game/d_com_inf_game.h</text>
</a>
</g>
</g>
<!-- Node1&#45;&gt;Node4 -->
<g id="edge3" class="edge">
<title>Node1&#45;&gt;Node4</title>
<path fill="none" stroke="midnightblue" d="M114.19,-280.7C424.11,-271.48 1828.77,-229.71 2166.38,-219.67"/>
<polygon fill="midnightblue" stroke="midnightblue" points="113.94,-277.2 104.05,-281 114.15,-284.2 113.94,-277.2"/>
</g>
<!-- Node4&#45;&gt;Node2 -->
<g id="edge24" class="edge">
<title>Node4&#45;&gt;Node2</title>
<path fill="none" stroke="midnightblue" d="M2156.32,-215.37C1784.92,-214.52 292.48,-208.44 203.5,-165 168.88,-148.1 161.48,-134.27 148.5,-98 139.16,-71.89 156.48,-40.18 166.34,-25.17"/>
<polygon fill="midnightblue" stroke="midnightblue" points="2156.45,-218.87 2166.46,-215.39 2156.47,-211.87 2156.45,-218.87"/>
</g>
<!-- Node4&#45;&gt;Node3 -->
<g id="edge25" class="edge">
<title>Node4&#45;&gt;Node3</title>
<path fill="none" stroke="midnightblue" d="M2156.11,-215.53C1779.42,-215.41 251.11,-212.01 161.5,-165 105.32,-135.53 71.22,-62.14 58.82,-30.92"/>
<polygon fill="midnightblue" stroke="midnightblue" points="2156.39,-219.03 2166.39,-215.53 2156.39,-212.03 2156.39,-219.03"/>
</g>
<!-- Node5 -->
<g id="node5" class="node">
<title>Node5</title>
<g id="a_node5"><a xlink:href="d__attention_8cpp.html" target="_top" xlink:title=" ">
<polygon fill="white" stroke="black" points="600,-6 600,-25 707,-25 707,-6 600,-6"/>
<text text-anchor="middle" x="653.5" y="-13" font-family="Helvetica,sans-Serif" font-size="10.00">src/d/d_attention.cpp</text>
</a>
</g>
</g>
<!-- Node4&#45;&gt;Node5 -->
<g id="edge4" class="edge">
<title>Node4&#45;&gt;Node5</title>
<path fill="none" stroke="midnightblue" d="M2322.68,-215.48C2763.77,-215.18 4811.08,-211.31 4856.5,-165 4866.15,-155.16 4866.07,-143.91 4856.5,-134 4780.83,-55.65 1190.64,-21.24 707.15,-16.96"/>
<polygon fill="midnightblue" stroke="midnightblue" points="2322.55,-211.98 2312.56,-215.49 2322.56,-218.98 2322.55,-211.98"/>
</g>
<!-- Node6 -->
<g id="node6" class="node">
<title>Node6</title>
<g id="a_node6"><a xlink:href="d__camera_8cpp.html" target="_top" xlink:title=" ">
<polygon fill="white" stroke="black" points="2756.5,-6 2756.5,-25 2858.5,-25 2858.5,-6 2756.5,-6"/>
<text text-anchor="middle" x="2807.5" y="-13" font-family="Helvetica,sans-Serif" font-size="10.00">src/d/d_camera.cpp</text>
</a>
</g>
</g>
<!-- Node4&#45;&gt;Node6 -->
<g id="edge5" class="edge">
<title>Node4&#45;&gt;Node6</title>
<path fill="none" stroke="midnightblue" d="M2322.93,-215.51C2770.05,-215.39 4864.08,-212.31 4910.5,-165 4941.01,-133.91 4940.93,-98.17 4910.5,-67 4892,-48.05 3178.94,-21.96 2858.74,-17.24"/>
<polygon fill="midnightblue" stroke="midnightblue" points="2322.68,-212.01 2312.68,-215.52 2322.68,-219.01 2322.68,-212.01"/>
</g>
<!-- Node7 -->
<g id="node7" class="node">
<title>Node7</title>
<g id="a_node7"><a xlink:href="d__com__inf__game_8cpp.html" target="_top" xlink:title=" ">
<polygon fill="white" stroke="black" points="729,-67.5 729,-97.5 848,-97.5 848,-67.5 729,-67.5"/>
<text text-anchor="start" x="737" y="-85.5" font-family="Helvetica,sans-Serif" font-size="10.00">src/d/d_com/d_com_inf</text>
<text text-anchor="middle" x="788.5" y="-74.5" font-family="Helvetica,sans-Serif" font-size="10.00">_game.cpp</text>
</a>
</g>
</g>
<!-- Node4&#45;&gt;Node7 -->
<g id="edge6" class="edge">
<title>Node4&#45;&gt;Node7</title>
<path fill="none" stroke="midnightblue" d="M2156.08,-214.77C1801.91,-211.47 439.36,-196.72 408.5,-165 398.89,-155.12 399.33,-144.29 408.5,-134 454.78,-82.05 650.83,-109.17 719.5,-98 722.52,-97.51 725.61,-96.98 728.72,-96.41"/>
<polygon fill="midnightblue" stroke="midnightblue" points="2156.23,-218.27 2166.27,-214.86 2156.3,-211.27 2156.23,-218.27"/>
</g>
<!-- Node8 -->
<g id="node8" class="node">
<title>Node8</title>
<g id="a_node8"><a xlink:href="d__file__sel__info_8cpp.html" target="_top" xlink:title=" ">
<polygon fill="white" stroke="black" points="532,-134.5 532,-164.5 621,-164.5 621,-134.5 532,-134.5"/>
<text text-anchor="start" x="540" y="-152.5" font-family="Helvetica,sans-Serif" font-size="10.00">src/d/d_file/d_file</text>
<text text-anchor="middle" x="576.5" y="-141.5" font-family="Helvetica,sans-Serif" font-size="10.00">_sel_info.cpp</text>
</a>
</g>
</g>
<!-- Node4&#45;&gt;Node8 -->
<g id="edge7" class="edge">
<title>Node4&#45;&gt;Node8</title>
<path fill="none" stroke="midnightblue" d="M2156.06,-215.48C1869.71,-214.99 928.28,-209.91 629.5,-165 626.76,-164.59 623.97,-164.08 621.16,-163.51"/>
<polygon fill="midnightblue" stroke="midnightblue" points="2156.36,-218.98 2166.37,-215.49 2156.37,-211.98 2156.36,-218.98"/>
</g>
<!-- Node9 -->
<g id="node9" class="node">
<title>Node9</title>
<g id="a_node9"><a xlink:href="d__item_8cpp.html" target="_top" xlink:title=" ">
<polygon fill="white" stroke="black" points="2807,-73 2807,-92 2928,-92 2928,-73 2807,-73"/>
<text text-anchor="middle" x="2867.5" y="-80" font-family="Helvetica,sans-Serif" font-size="10.00">src/d/d_item/d_item.cpp</text>
</a>
</g>
</g>
<!-- Node4&#45;&gt;Node9 -->
<g id="edge8" class="edge">
<title>Node4&#45;&gt;Node9</title>
<path fill="none" stroke="midnightblue" d="M2322.85,-215.47C2762.57,-215.11 4794.4,-210.98 4839.5,-165 4849.15,-155.16 4849.12,-143.87 4839.5,-134 4805.31,-98.92 3256.01,-86.2 2928.07,-83.9"/>
<polygon fill="midnightblue" stroke="midnightblue" points="2322.76,-211.97 2312.76,-215.48 2322.76,-218.97 2322.76,-211.97"/>
</g>
<!-- Node10 -->
<g id="node10" class="node">
<title>Node10</title>
<g id="a_node10"><a xlink:href="d__kankyo__rain_8cpp.html" target="_top" xlink:title=" ">
<polygon fill="white" stroke="black" points="639,-134.5 639,-164.5 766,-164.5 766,-134.5 639,-134.5"/>
<text text-anchor="start" x="647" y="-152.5" font-family="Helvetica,sans-Serif" font-size="10.00">src/d/d_kankyo/d_kankyo</text>
<text text-anchor="middle" x="702.5" y="-141.5" font-family="Helvetica,sans-Serif" font-size="10.00">_rain.cpp</text>
</a>
</g>
</g>
<!-- Node4&#45;&gt;Node10 -->
<g id="edge9" class="edge">
<title>Node4&#45;&gt;Node10</title>
<path fill="none" stroke="midnightblue" d="M2155.97,-214.43C1886.96,-210.68 1044.95,-196.68 774.5,-165 771.71,-164.67 768.87,-164.3 766.01,-163.88"/>
<polygon fill="midnightblue" stroke="midnightblue" points="2156.02,-217.93 2166.06,-214.57 2156.11,-210.93 2156.02,-217.93"/>
</g>
<!-- Node11 -->
<g id="node11" class="node">
<title>Node11</title>
<g id="a_node11"><a xlink:href="d__kankyo__wether_8cpp.html" target="_top" xlink:title=" ">
<polygon fill="white" stroke="black" points="784,-134.5 784,-164.5 911,-164.5 911,-134.5 784,-134.5"/>
<text text-anchor="start" x="792" y="-152.5" font-family="Helvetica,sans-Serif" font-size="10.00">src/d/d_kankyo/d_kankyo</text>
<text text-anchor="middle" x="847.5" y="-141.5" font-family="Helvetica,sans-Serif" font-size="10.00">_wether.cpp</text>
</a>
</g>
</g>
<!-- Node4&#45;&gt;Node11 -->
<g id="edge10" class="edge">
<title>Node4&#45;&gt;Node11</title>
<path fill="none" stroke="midnightblue" d="M2156.22,-214.06C1905.54,-209.46 1160.54,-193.69 919.5,-165 916.71,-164.67 913.88,-164.29 911.01,-163.87"/>
<polygon fill="midnightblue" stroke="midnightblue" points="2156.29,-217.57 2166.36,-214.25 2156.42,-210.57 2156.29,-217.57"/>
</g>
<!-- Node12 -->
<g id="node12" class="node">
<title>Node12</title>
<g id="a_node12"><a xlink:href="d__kankyo_8cpp.html" target="_top" xlink:title=" ">
<polygon fill="white" stroke="black" points="929,-140 929,-159 1030,-159 1030,-140 929,-140"/>
<text text-anchor="middle" x="979.5" y="-147" font-family="Helvetica,sans-Serif" font-size="10.00">src/d/d_kankyo.cpp</text>
</a>
</g>
</g>
<!-- Node4&#45;&gt;Node12 -->
<g id="edge11" class="edge">
<title>Node4&#45;&gt;Node12</title>
<path fill="none" stroke="midnightblue" d="M2156.06,-214.15C1920.73,-210.01 1254.8,-195.81 1038.5,-165 1028.89,-163.63 1018.57,-161.37 1009.29,-159.04"/>
<polygon fill="midnightblue" stroke="midnightblue" points="2156.21,-217.65 2166.27,-214.33 2156.33,-210.66 2156.21,-217.65"/>
</g>
<!-- Node13 -->
<g id="node13" class="node">
<title>Node13</title>
<g id="a_node13"><a xlink:href="d__kantera__icon__meter_8cpp.html" target="_top" xlink:title=" ">
<polygon fill="white" stroke="black" points="1048,-134.5 1048,-164.5 1155,-164.5 1155,-134.5 1048,-134.5"/>
<text text-anchor="start" x="1056" y="-152.5" font-family="Helvetica,sans-Serif" font-size="10.00">src/d/d_kantera_icon</text>
<text text-anchor="middle" x="1101.5" y="-141.5" font-family="Helvetica,sans-Serif" font-size="10.00">_meter.cpp</text>
</a>
</g>
</g>
<!-- Node4&#45;&gt;Node13 -->
<g id="edge12" class="edge">
<title>Node4&#45;&gt;Node13</title>
<path fill="none" stroke="midnightblue" d="M2156.12,-213.56C1938.12,-208.17 1354.83,-191.64 1163.5,-165 1160.76,-164.62 1157.97,-164.17 1155.16,-163.68"/>
<polygon fill="midnightblue" stroke="midnightblue" points="2156.14,-217.06 2166.23,-213.81 2156.31,-210.06 2156.14,-217.06"/>
</g>
<!-- Node14 -->
<g id="node14" class="node">
<title>Node14</title>
<g id="a_node14"><a xlink:href="d__kyeff_8cpp.html" target="_top" xlink:title=" ">
<polygon fill="white" stroke="black" points="1173,-140 1173,-159 1286,-159 1286,-140 1173,-140"/>
<text text-anchor="middle" x="1229.5" y="-147" font-family="Helvetica,sans-Serif" font-size="10.00">src/d/d_ky/d_kyeff.cpp</text>
</a>
</g>
</g>
<!-- Node4&#45;&gt;Node14 -->
<g id="edge13" class="edge">
<title>Node4&#45;&gt;Node14</title>
<path fill="none" stroke="midnightblue" d="M2156.41,-215.68C1991.35,-215.02 1610.77,-208.42 1294.5,-165 1284.08,-163.57 1272.85,-161.32 1262.71,-159.02"/>
<polygon fill="midnightblue" stroke="midnightblue" points="2156.48,-219.18 2166.49,-215.71 2156.5,-212.18 2156.48,-219.18"/>
</g>
<!-- Node15 -->
<g id="node15" class="node">
<title>Node15</title>
<g id="a_node15"><a xlink:href="d__meter__button_8cpp.html" target="_top" xlink:title=" ">
<polygon fill="white" stroke="black" points="1304,-134.5 1304,-164.5 1419,-164.5 1419,-134.5 1304,-134.5"/>
<text text-anchor="start" x="1312" y="-152.5" font-family="Helvetica,sans-Serif" font-size="10.00">src/d/d_meter/d_meter</text>
<text text-anchor="middle" x="1361.5" y="-141.5" font-family="Helvetica,sans-Serif" font-size="10.00">_button.cpp</text>
</a>
</g>
</g>
<!-- Node4&#45;&gt;Node15 -->
<g id="edge14" class="edge">
<title>Node4&#45;&gt;Node15</title>
<path fill="none" stroke="midnightblue" d="M2156,-214.54C2008.35,-211.91 1691.82,-202.03 1427.5,-165 1424.83,-164.63 1422.1,-164.2 1419.36,-163.74"/>
<polygon fill="midnightblue" stroke="midnightblue" points="2156.28,-218.05 2166.33,-214.72 2156.4,-211.05 2156.28,-218.05"/>
</g>
<!-- Node16 -->
<g id="node16" class="node">
<title>Node16</title>
<g id="a_node16"><a xlink:href="d__meter__haihai_8cpp.html" target="_top" xlink:title=" ">
<polygon fill="white" stroke="black" points="1437,-134.5 1437,-164.5 1552,-164.5 1552,-134.5 1437,-134.5"/>
<text text-anchor="start" x="1445" y="-152.5" font-family="Helvetica,sans-Serif" font-size="10.00">src/d/d_meter/d_meter</text>
<text text-anchor="middle" x="1494.5" y="-141.5" font-family="Helvetica,sans-Serif" font-size="10.00">_haihai.cpp</text>
</a>
</g>
</g>
<!-- Node4&#45;&gt;Node16 -->
<g id="edge15" class="edge">
<title>Node4&#45;&gt;Node16</title>
<path fill="none" stroke="midnightblue" d="M2156.12,-213.11C2027.63,-208.57 1773.74,-196.19 1560.5,-165 1557.71,-164.59 1554.87,-164.13 1552,-163.64"/>
<polygon fill="midnightblue" stroke="midnightblue" points="2156.16,-216.61 2166.28,-213.46 2156.4,-209.62 2156.16,-216.61"/>
</g>
<!-- Node17 -->
<g id="node17" class="node">
<title>Node17</title>
<g id="a_node17"><a xlink:href="d__meter__hakusha_8cpp.html" target="_top" xlink:title=" ">
<polygon fill="white" stroke="black" points="1570,-134.5 1570,-164.5 1685,-164.5 1685,-134.5 1570,-134.5"/>
<text text-anchor="start" x="1578" y="-152.5" font-family="Helvetica,sans-Serif" font-size="10.00">src/d/d_meter/d_meter</text>
<text text-anchor="middle" x="1627.5" y="-141.5" font-family="Helvetica,sans-Serif" font-size="10.00">_hakusha.cpp</text>
</a>
</g>
</g>
<!-- Node4&#45;&gt;Node17 -->
<g id="edge16" class="edge">
<title>Node4&#45;&gt;Node17</title>
<path fill="none" stroke="midnightblue" d="M2156.16,-211.01C2048.73,-204.5 1856.39,-190.33 1693.5,-165 1690.72,-164.57 1687.88,-164.09 1685.01,-163.58"/>
<polygon fill="midnightblue" stroke="midnightblue" points="2156.09,-214.52 2166.28,-211.62 2156.51,-207.53 2156.09,-214.52"/>
</g>
<!-- Node18 -->
<g id="node18" class="node">
<title>Node18</title>
<g id="a_node18"><a xlink:href="d__meter__map_8cpp.html" target="_top" xlink:title=" ">
<polygon fill="white" stroke="black" points="1703,-134.5 1703,-164.5 1818,-164.5 1818,-134.5 1703,-134.5"/>
<text text-anchor="start" x="1711" y="-152.5" font-family="Helvetica,sans-Serif" font-size="10.00">src/d/d_meter/d_meter</text>
<text text-anchor="middle" x="1760.5" y="-141.5" font-family="Helvetica,sans-Serif" font-size="10.00">_map.cpp</text>
</a>
</g>
</g>
<!-- Node4&#45;&gt;Node18 -->
<g id="edge17" class="edge">
<title>Node4&#45;&gt;Node18</title>
<path fill="none" stroke="midnightblue" d="M2156.51,-207.68C2072.87,-199.26 1940.26,-184.41 1826.5,-165 1823.72,-164.53 1820.89,-164.01 1818.03,-163.47"/>
<polygon fill="midnightblue" stroke="midnightblue" points="2156.16,-211.17 2166.46,-208.68 2156.86,-204.2 2156.16,-211.17"/>
</g>
<!-- Node19 -->
<g id="node19" class="node">
<title>Node19</title>
<g id="a_node19"><a xlink:href="d__meter__string_8cpp.html" target="_top" xlink:title=" ">
<polygon fill="white" stroke="black" points="1836,-134.5 1836,-164.5 1951,-164.5 1951,-134.5 1836,-134.5"/>
<text text-anchor="start" x="1844" y="-152.5" font-family="Helvetica,sans-Serif" font-size="10.00">src/d/d_meter/d_meter</text>
<text text-anchor="middle" x="1893.5" y="-141.5" font-family="Helvetica,sans-Serif" font-size="10.00">_string.cpp</text>
</a>
</g>
</g>
<!-- Node4&#45;&gt;Node19 -->
<g id="edge18" class="edge">
<title>Node4&#45;&gt;Node19</title>
<path fill="none" stroke="midnightblue" d="M2156.07,-201.3C2100.32,-191.61 2025.39,-178.17 1959.5,-165 1956.74,-164.45 1953.92,-163.87 1951.07,-163.28"/>
<polygon fill="midnightblue" stroke="midnightblue" points="2155.8,-204.81 2166.25,-203.07 2157,-197.91 2155.8,-204.81"/>
</g>
<!-- Node20 -->
<g id="node20" class="node">
<title>Node20</title>
<g id="a_node20"><a xlink:href="d__meter2__draw_8cpp.html" target="_top" xlink:title=" ">
<polygon fill="white" stroke="black" points="1969,-134.5 1969,-164.5 2094,-164.5 2094,-134.5 1969,-134.5"/>
<text text-anchor="start" x="1977" y="-152.5" font-family="Helvetica,sans-Serif" font-size="10.00">src/d/d_meter2/d_meter2</text>
<text text-anchor="middle" x="2031.5" y="-141.5" font-family="Helvetica,sans-Serif" font-size="10.00">_draw.cpp</text>
</a>
</g>
</g>
<!-- Node4&#45;&gt;Node20 -->
<g id="edge19" class="edge">
<title>Node4&#45;&gt;Node20</title>
<path fill="none" stroke="midnightblue" d="M2184.92,-198.44C2151.2,-187.91 2108.46,-174.55 2076.65,-164.61"/>
<polygon fill="midnightblue" stroke="midnightblue" points="2184.03,-201.83 2194.62,-201.48 2186.12,-195.15 2184.03,-201.83"/>
</g>
<!-- Node21 -->
<g id="node21" class="node">
<title>Node21</title>
<g id="a_node21"><a xlink:href="d__meter2__info_8cpp.html" target="_top" xlink:title=" ">
<polygon fill="white" stroke="black" points="2112,-134.5 2112,-164.5 2237,-164.5 2237,-134.5 2112,-134.5"/>
<text text-anchor="start" x="2120" y="-152.5" font-family="Helvetica,sans-Serif" font-size="10.00">src/d/d_meter2/d_meter2</text>
<text text-anchor="middle" x="2174.5" y="-141.5" font-family="Helvetica,sans-Serif" font-size="10.00">_info.cpp</text>
</a>
</g>
</g>
<!-- Node4&#45;&gt;Node21 -->
<g id="edge20" class="edge">
<title>Node4&#45;&gt;Node21</title>
<path fill="none" stroke="midnightblue" d="M2218.31,-194.31C2208.56,-184.56 2197.26,-173.26 2188.58,-164.58"/>
<polygon fill="midnightblue" stroke="midnightblue" points="2215.85,-196.8 2225.4,-201.4 2220.8,-191.85 2215.85,-196.8"/>
</g>
<!-- Node22 -->
<g id="node22" class="node">
<title>Node22</title>
<g id="a_node22"><a xlink:href="d__meter2_8cpp.html" target="_top" xlink:title=" ">
<polygon fill="white" stroke="black" points="2255.5,-140 2255.5,-159 2355.5,-159 2355.5,-140 2255.5,-140"/>
<text text-anchor="middle" x="2305.5" y="-147" font-family="Helvetica,sans-Serif" font-size="10.00">src/d/d_meter2.cpp</text>
</a>
</g>
</g>
<!-- Node4&#45;&gt;Node22 -->
<g id="edge21" class="edge">
<title>Node4&#45;&gt;Node22</title>
<path fill="none" stroke="midnightblue" d="M2260.99,-194.34C2273.11,-182.4 2287.59,-168.14 2296.67,-159.19"/>
<polygon fill="midnightblue" stroke="midnightblue" points="2258.49,-191.89 2253.82,-201.4 2263.4,-196.87 2258.49,-191.89"/>
</g>
<!-- Node23 -->
<g id="node23" class="node">
<title>Node23</title>
<g id="a_node23"><a xlink:href="d__save_8cpp.html" target="_top" xlink:title=" ">
<polygon fill="white" stroke="black" points="2374,-140 2374,-159 2499,-159 2499,-140 2374,-140"/>
<text text-anchor="middle" x="2436.5" y="-147" font-family="Helvetica,sans-Serif" font-size="10.00">src/d/d_save/d_save.cpp</text>
</a>
</g>
</g>
<!-- Node4&#45;&gt;Node23 -->
<g id="edge22" class="edge">
<title>Node4&#45;&gt;Node23</title>
<path fill="none" stroke="midnightblue" d="M2292.21,-198.11C2330.54,-185.46 2380.76,-168.89 2410.72,-159.01"/>
<polygon fill="midnightblue" stroke="midnightblue" points="2290.65,-194.94 2282.25,-201.4 2292.84,-201.59 2290.65,-194.94"/>
</g>
<!-- Node24 -->
<g id="node24" class="node">
<title>Node24</title>
<g id="a_node24"><a xlink:href="d__save__HIO_8cpp.html" target="_top" xlink:title=" ">
<polygon fill="white" stroke="black" points="2517,-134.5 2517,-164.5 2624,-164.5 2624,-134.5 2517,-134.5"/>
<text text-anchor="start" x="2525" y="-152.5" font-family="Helvetica,sans-Serif" font-size="10.00">src/d/d_save/d_save</text>
<text text-anchor="middle" x="2570.5" y="-141.5" font-family="Helvetica,sans-Serif" font-size="10.00">_HIO.cpp</text>
</a>
</g>
</g>
<!-- Node4&#45;&gt;Node24 -->
<g id="edge23" class="edge">
<title>Node4&#45;&gt;Node24</title>
<path fill="none" stroke="midnightblue" d="M2322.81,-200.84C2376.04,-191.23 2446.47,-178.07 2508.5,-165 2511.2,-164.43 2513.97,-163.83 2516.76,-163.22"/>
<polygon fill="midnightblue" stroke="midnightblue" points="2321.96,-197.44 2312.74,-202.65 2323.2,-204.33 2321.96,-197.44"/>
</g>
<!-- Node25 -->
<g id="node25" class="node">
<title>Node25</title>
<g id="a_node25"><a xlink:href="f__op__camera_8cpp.html" target="_top" xlink:title=" ">
<polygon fill="white" stroke="black" points="2642,-140 2642,-159 2777,-159 2777,-140 2642,-140"/>
<text text-anchor="middle" x="2709.5" y="-147" font-family="Helvetica,sans-Serif" font-size="10.00">src/f/f_op/f_op_camera.cpp</text>
</a>
</g>
</g>
<!-- Node4&#45;&gt;Node25 -->
<g id="edge26" class="edge">
<title>Node4&#45;&gt;Node25</title>
<path fill="none" stroke="midnightblue" d="M2322.67,-206.33C2402.56,-197.18 2526.55,-182.04 2633.5,-165 2644.51,-163.25 2656.37,-161.1 2667.37,-159.01"/>
<polygon fill="midnightblue" stroke="midnightblue" points="2322.21,-202.86 2312.67,-207.48 2323,-209.82 2322.21,-202.86"/>
</g>
<!-- Node26 -->
<g id="node26" class="node">
<title>Node26</title>
<g id="a_node26"><a xlink:href="f__op__kankyo__mng_8cpp.html" target="_top" xlink:title=" ">
<polygon fill="white" stroke="black" points="2795.5,-134.5 2795.5,-164.5 2911.5,-164.5 2911.5,-134.5 2795.5,-134.5"/>
<text text-anchor="start" x="2803.5" y="-152.5" font-family="Helvetica,sans-Serif" font-size="10.00">src/f/f_op/f_op_kankyo</text>
<text text-anchor="middle" x="2853.5" y="-141.5" font-family="Helvetica,sans-Serif" font-size="10.00">_mng.cpp</text>
</a>
</g>
</g>
<!-- Node4&#45;&gt;Node26 -->
<g id="edge27" class="edge">
<title>Node4&#45;&gt;Node26</title>
<path fill="none" stroke="midnightblue" d="M2322.98,-210.94C2430.59,-204.35 2623.27,-190.1 2786.5,-165 2789.44,-164.55 2792.45,-164.05 2795.48,-163.51"/>
<polygon fill="midnightblue" stroke="midnightblue" points="2322.61,-207.46 2312.84,-211.56 2323.03,-214.45 2322.61,-207.46"/>
</g>
<!-- Node27 -->
<g id="node27" class="node">
<title>Node27</title>
<g id="a_node27"><a xlink:href="f__op__msg__mng_8cpp.html" target="_top" xlink:title=" ">
<polygon fill="white" stroke="black" points="2929.5,-134.5 2929.5,-164.5 3033.5,-164.5 3033.5,-134.5 2929.5,-134.5"/>
<text text-anchor="start" x="2937.5" y="-152.5" font-family="Helvetica,sans-Serif" font-size="10.00">src/f/f_op/f_op_msg</text>
<text text-anchor="middle" x="2981.5" y="-141.5" font-family="Helvetica,sans-Serif" font-size="10.00">_mng.cpp</text>
</a>
</g>
</g>
<!-- Node4&#45;&gt;Node27 -->
<g id="edge28" class="edge">
<title>Node4&#45;&gt;Node27</title>
<path fill="none" stroke="midnightblue" d="M2322.94,-213.59C2451.82,-209.68 2706.77,-198.11 2920.5,-165 2923.4,-164.55 2926.37,-164.03 2929.36,-163.47"/>
<polygon fill="midnightblue" stroke="midnightblue" points="2322.64,-210.1 2312.75,-213.89 2322.85,-217.09 2322.64,-210.1"/>
</g>
<!-- Node28 -->
<g id="node28" class="node">
<title>Node28</title>
<g id="a_node28"><a xlink:href="f__pc__manager_8cpp.html" target="_top" xlink:title=" ">
<polygon fill="white" stroke="black" points="157.5,-73 157.5,-92 297.5,-92 297.5,-73 157.5,-73"/>
<text text-anchor="middle" x="227.5" y="-80" font-family="Helvetica,sans-Serif" font-size="10.00">src/f/f_pc/f_pc_manager.cpp</text>
</a>
</g>
</g>
<!-- Node4&#45;&gt;Node28 -->
<g id="edge29" class="edge">
<title>Node4&#45;&gt;Node28</title>
<path fill="none" stroke="midnightblue" d="M2156.48,-215C1780.12,-212.52 250.91,-200.28 216.5,-165 197.16,-145.17 213.45,-108.59 222.47,-92.04"/>
<polygon fill="midnightblue" stroke="midnightblue" points="2156.46,-218.5 2166.48,-215.06 2156.51,-211.5 2156.46,-218.5"/>
</g>
<!-- Node29 -->
<g id="node29" class="node">
<title>Node29</title>
<g id="a_node29"><a xlink:href="m__Do__audio_8cpp.html" target="_top" xlink:title=" ">
<polygon fill="white" stroke="black" points="3051.5,-140 3051.5,-159 3185.5,-159 3185.5,-140 3051.5,-140"/>
<text text-anchor="middle" x="3118.5" y="-147" font-family="Helvetica,sans-Serif" font-size="10.00">src/m_Do/m_Do_audio.cpp</text>
</a>
</g>
</g>
<!-- Node4&#45;&gt;Node29 -->
<g id="edge30" class="edge">
<title>Node4&#45;&gt;Node29</title>
<path fill="none" stroke="midnightblue" d="M2322.83,-213.71C2469.05,-209.8 2781.13,-198.02 3042.5,-165 3054.36,-163.5 3067.16,-161.29 3078.81,-159.05"/>
<polygon fill="midnightblue" stroke="midnightblue" points="2322.49,-210.22 2312.59,-213.98 2322.68,-217.21 2322.49,-210.22"/>
</g>
<!-- Node30 -->
<g id="node30" class="node">
<title>Node30</title>
<g id="a_node30"><a xlink:href="m__Do__graphic_8cpp.html" target="_top" xlink:title=" ">
<polygon fill="white" stroke="black" points="3203.5,-140 3203.5,-159 3345.5,-159 3345.5,-140 3203.5,-140"/>
<text text-anchor="middle" x="3274.5" y="-147" font-family="Helvetica,sans-Serif" font-size="10.00">src/m_Do/m_Do_graphic.cpp</text>
</a>
</g>
</g>
<!-- Node4&#45;&gt;Node30 -->
<g id="edge31" class="edge">
<title>Node4&#45;&gt;Node30</title>
<path fill="none" stroke="midnightblue" d="M2322.7,-214.63C2488.91,-212.12 2873.66,-202.41 3194.5,-165 3207.12,-163.53 3220.75,-161.3 3233.13,-159.03"/>
<polygon fill="midnightblue" stroke="midnightblue" points="2322.5,-211.14 2312.55,-214.78 2322.6,-218.14 2322.5,-211.14"/>
</g>
<!-- Node31 -->
<g id="node31" class="node">
<title>Node31</title>
<g id="a_node31"><a xlink:href="m__Do__lib_8cpp.html" target="_top" xlink:title=" ">
<polygon fill="white" stroke="black" points="3363.5,-140 3363.5,-159 3483.5,-159 3483.5,-140 3363.5,-140"/>
<text text-anchor="middle" x="3423.5" y="-147" font-family="Helvetica,sans-Serif" font-size="10.00">src/m_Do/m_Do_lib.cpp</text>
</a>
</g>
</g>
<!-- Node4&#45;&gt;Node31 -->
<g id="edge32" class="edge">
<title>Node4&#45;&gt;Node31</title>
<path fill="none" stroke="midnightblue" d="M2322.82,-216.32C2508.74,-217.14 2971.27,-213.62 3354.5,-165 3365.55,-163.6 3377.46,-161.36 3388.23,-159.06"/>
<polygon fill="midnightblue" stroke="midnightblue" points="2322.59,-212.82 2312.58,-216.27 2322.56,-219.82 2322.59,-212.82"/>
</g>
<!-- Node32 -->
<g id="node32" class="node">
<title>Node32</title>
<g id="a_node32"><a xlink:href="m__Do__machine__exception_8cpp.html" target="_top" xlink:title=" ">
<polygon fill="white" stroke="black" points="3502,-134.5 3502,-164.5 3631,-164.5 3631,-134.5 3502,-134.5"/>
<text text-anchor="start" x="3510" y="-152.5" font-family="Helvetica,sans-Serif" font-size="10.00">src/m_Do/m_Do_machine</text>
<text text-anchor="middle" x="3566.5" y="-141.5" font-family="Helvetica,sans-Serif" font-size="10.00">_exception.cpp</text>
</a>
</g>
</g>
<!-- Node4&#45;&gt;Node32 -->
<g id="edge33" class="edge">
<title>Node4&#45;&gt;Node32</title>
<path fill="none" stroke="midnightblue" d="M2322.69,-213.81C2564.58,-208.64 3264.95,-191.72 3492.5,-165 3495.49,-164.65 3498.54,-164.24 3501.62,-163.8"/>
<polygon fill="midnightblue" stroke="midnightblue" points="2322.47,-210.32 2312.55,-214.03 2322.62,-217.31 2322.47,-210.32"/>
</g>
<!-- Node33 -->
<g id="node33" class="node">
<title>Node33</title>
<g id="a_node33"><a xlink:href="m__Do__main_8cpp.html" target="_top" xlink:title=" ">
<polygon fill="white" stroke="black" points="3893,-6 3893,-25 4024,-25 4024,-6 3893,-6"/>
<text text-anchor="middle" x="3958.5" y="-13" font-family="Helvetica,sans-Serif" font-size="10.00">src/m_Do/m_Do_main.cpp</text>
</a>
</g>
</g>
<!-- Node4&#45;&gt;Node33 -->
<g id="edge34" class="edge">
<title>Node4&#45;&gt;Node33</title>
<path fill="none" stroke="midnightblue" d="M2322.92,-215.53C2772.32,-215.48 4886.65,-212.73 4933.5,-165 4964.01,-133.91 4963.49,-98.58 4933.5,-67 4902.19,-34.02 4238.07,-20.85 4024.22,-17.45"/>
<polygon fill="midnightblue" stroke="midnightblue" points="2322.61,-212.03 2312.61,-215.53 2322.61,-219.03 2322.61,-212.03"/>
</g>
<!-- Node34 -->
<g id="node34" class="node">
<title>Node34</title>
<g id="a_node34"><a xlink:href="m__Do__MemCardRWmng_8cpp.html" target="_top" xlink:title=" ">
<polygon fill="white" stroke="black" points="3649,-140 3649,-159 3836,-159 3836,-140 3649,-140"/>
<text text-anchor="middle" x="3742.5" y="-147" font-family="Helvetica,sans-Serif" font-size="10.00">src/m_Do/m_Do_MemCardRWmng.cpp</text>
</a>
</g>
</g>
<!-- Node4&#45;&gt;Node34 -->
<g id="edge35" class="edge">
<title>Node4&#45;&gt;Node34</title>
<path fill="none" stroke="midnightblue" d="M2322.64,-215.55C2539.79,-215.02 3141.73,-209.32 3640.5,-165 3656.71,-163.56 3674.29,-161.31 3690.21,-159.01"/>
<polygon fill="midnightblue" stroke="midnightblue" points="2322.59,-212.05 2312.59,-215.57 2322.6,-219.05 2322.59,-212.05"/>
</g>
<!-- Node35 -->
<g id="node35" class="node">
<title>Node35</title>
<g id="a_node35"><a xlink:href="m__Do__ext_8cpp.html" target="_top" xlink:title=" ">
<polygon fill="white" stroke="black" points="3854,-140 3854,-159 3977,-159 3977,-140 3854,-140"/>
<text text-anchor="middle" x="3915.5" y="-147" font-family="Helvetica,sans-Serif" font-size="10.00">src/m_Do/m_Do_ext.cpp</text>
</a>
</g>
</g>
<!-- Node4&#45;&gt;Node35 -->
<g id="edge36" class="edge">
<title>Node4&#45;&gt;Node35</title>
<path fill="none" stroke="midnightblue" d="M2323.13,-214.78C2609.05,-212.02 3546.38,-200.41 3845.5,-165 3856.84,-163.66 3869.07,-161.41 3880.08,-159.08"/>
<polygon fill="midnightblue" stroke="midnightblue" points="2322.8,-211.28 2312.84,-214.88 2322.87,-218.28 2322.8,-211.28"/>
</g>
<!-- Node36 -->
<g id="node36" class="node">
<title>Node36</title>
<g id="a_node36"><a xlink:href="Z2EnvSeMgr_8cpp.html" target="_top" xlink:title=" ">
<polygon fill="white" stroke="black" points="3995,-140 3995,-159 4156,-159 4156,-140 3995,-140"/>
<text text-anchor="middle" x="4075.5" y="-147" font-family="Helvetica,sans-Serif" font-size="10.00">libs/Z2AudioLib/Z2EnvSeMgr.cpp</text>
</a>
</g>
</g>
<!-- Node4&#45;&gt;Node36 -->
<g id="edge37" class="edge">
<title>Node4&#45;&gt;Node36</title>
<path fill="none" stroke="midnightblue" d="M2323.16,-214.55C2625.05,-210.91 3657.76,-196.39 3986.5,-165 4000.84,-163.63 4016.36,-161.37 4030.37,-159.04"/>
<polygon fill="midnightblue" stroke="midnightblue" points="2322.69,-211.06 2312.73,-214.68 2322.77,-218.06 2322.69,-211.06"/>
</g>
<!-- Node37 -->
<g id="node37" class="node">
<title>Node37</title>
<g id="a_node37"><a xlink:href="Z2LinkMgr_8cpp.html" target="_top" xlink:title=" ">
<polygon fill="white" stroke="black" points="4174.5,-140 4174.5,-159 4326.5,-159 4326.5,-140 4174.5,-140"/>
<text text-anchor="middle" x="4250.5" y="-147" font-family="Helvetica,sans-Serif" font-size="10.00">libs/Z2AudioLib/Z2LinkMgr.cpp</text>
</a>
</g>
</g>
<!-- Node4&#45;&gt;Node37 -->
<g id="edge38" class="edge">
<title>Node4&#45;&gt;Node37</title>
<path fill="none" stroke="midnightblue" d="M2322.73,-214.9C2643.51,-212.34 3799.85,-200.8 4165.5,-165 4179.21,-163.66 4194.04,-161.41 4207.42,-159.08"/>
<polygon fill="midnightblue" stroke="midnightblue" points="2322.55,-211.4 2312.58,-214.98 2322.61,-218.4 2322.55,-211.4"/>
</g>
<!-- Node38 -->
<g id="node38" class="node">
<title>Node38</title>
<g id="a_node38"><a xlink:href="Z2SceneMgr_8cpp.html" target="_top" xlink:title=" ">
<polygon fill="white" stroke="black" points="4345,-140 4345,-159 4506,-159 4506,-140 4345,-140"/>
<text text-anchor="middle" x="4425.5" y="-147" font-family="Helvetica,sans-Serif" font-size="10.00">libs/Z2AudioLib/Z2SceneMgr.cpp</text>
</a>
</g>
</g>
<!-- Node4&#45;&gt;Node38 -->
<g id="edge39" class="edge">
<title>Node4&#45;&gt;Node38</title>
<path fill="none" stroke="midnightblue" d="M2322.9,-215C2661.53,-212.75 3934.61,-201.95 4335.5,-165 4350.16,-163.65 4366.04,-161.37 4380.33,-159.01"/>
<polygon fill="midnightblue" stroke="midnightblue" points="2322.66,-211.5 2312.68,-215.07 2322.71,-218.5 2322.66,-211.5"/>
</g>
<!-- Node39 -->
<g id="node39" class="node">
<title>Node39</title>
<g id="a_node39"><a xlink:href="Z2SoundMgr_8cpp.html" target="_top" xlink:title=" ">
<polygon fill="white" stroke="black" points="4524,-140 4524,-159 4685,-159 4685,-140 4524,-140"/>
<text text-anchor="middle" x="4604.5" y="-147" font-family="Helvetica,sans-Serif" font-size="10.00">libs/Z2AudioLib/Z2SoundMgr.cpp</text>
</a>
</g>
</g>
<!-- Node4&#45;&gt;Node39 -->
<g id="edge40" class="edge">
<title>Node4&#45;&gt;Node39</title>
<path fill="none" stroke="midnightblue" d="M2322.87,-215.21C2679.36,-213.72 4077.3,-205.36 4515.5,-165 4530,-163.66 4545.71,-161.39 4559.84,-159.03"/>
<polygon fill="midnightblue" stroke="midnightblue" points="2322.61,-211.71 2312.63,-215.25 2322.64,-218.71 2322.61,-211.71"/>
</g>
<!-- Node40 -->
<g id="node40" class="node">
<title>Node40</title>
<g id="a_node40"><a xlink:href="Z2StatusMgr_8cpp.html" target="_top" xlink:title=" ">
<polygon fill="white" stroke="black" points="4703,-134.5 4703,-164.5 4830,-164.5 4830,-134.5 4703,-134.5"/>
<text text-anchor="start" x="4711" y="-152.5" font-family="Helvetica,sans-Serif" font-size="10.00">libs/Z2AudioLib/Z2Status</text>
<text text-anchor="middle" x="4766.5" y="-141.5" font-family="Helvetica,sans-Serif" font-size="10.00">Mgr.cpp</text>
</a>
</g>
</g>
<!-- Node4&#45;&gt;Node40 -->
<g id="edge41" class="edge">
<title>Node4&#45;&gt;Node40</title>
<path fill="none" stroke="midnightblue" d="M2322.92,-215.78C2696.71,-216.73 4219.98,-217.24 4694.5,-165 4697.29,-164.69 4700.13,-164.33 4702.99,-163.93"/>
<polygon fill="midnightblue" stroke="midnightblue" points="2322.73,-212.28 2312.72,-215.75 2322.71,-219.28 2322.73,-212.28"/>
</g>
<!-- Node41 -->
<g id="node41" class="node">
<title>Node41</title>
<g id="a_node41"><a xlink:href="d__a__alink_8h.html" target="_top" xlink:title=" ">
<polygon fill="white" stroke="black" points="592,-67.5 592,-97.5 711,-97.5 711,-67.5 592,-67.5"/>
<text text-anchor="start" x="600" y="-85.5" font-family="Helvetica,sans-Serif" font-size="10.00">include/d/d_a/d_a_alink</text>
<text text-anchor="middle" x="651.5" y="-74.5" font-family="Helvetica,sans-Serif" font-size="10.00">/d_a_alink.h</text>
</a>
</g>
</g>
<!-- Node4&#45;&gt;Node41 -->
<g id="edge42" class="edge">
<title>Node4&#45;&gt;Node41</title>
<path fill="none" stroke="midnightblue" d="M2156.18,-214.78C1800.8,-211.53 428.57,-196.93 397.5,-165 295.54,-60.2 222.79,-170.79 582.5,-98 585.5,-97.39 588.57,-96.77 591.67,-96.13"/>
<polygon fill="midnightblue" stroke="midnightblue" points="2156.36,-218.29 2166.39,-214.88 2156.42,-211.29 2156.36,-218.29"/>
</g>
<!-- Node43 -->
<g id="node43" class="node">
<title>Node43</title>
<g id="a_node43"><a xlink:href="d__item_8h.html" target="_top" xlink:title=" ">
<polygon fill="white" stroke="black" points="417.5,-134.5 417.5,-164.5 513.5,-164.5 513.5,-134.5 417.5,-134.5"/>
<text text-anchor="start" x="425.5" y="-152.5" font-family="Helvetica,sans-Serif" font-size="10.00">include/d/d_item/d</text>
<text text-anchor="middle" x="465.5" y="-141.5" font-family="Helvetica,sans-Serif" font-size="10.00">_item/d_item.h</text>
</a>
</g>
</g>
<!-- Node4&#45;&gt;Node43 -->
<g id="edge45" class="edge">
<title>Node4&#45;&gt;Node43</title>
<path fill="none" stroke="midnightblue" d="M2156.15,-215.47C1857.77,-214.99 843.56,-210 522.5,-165 519.57,-164.59 516.57,-164.09 513.55,-163.51"/>
<polygon fill="midnightblue" stroke="midnightblue" points="2156.45,-218.97 2166.46,-215.49 2156.46,-211.97 2156.45,-218.97"/>
</g>
<!-- Node44 -->
<g id="node44" class="node">
<title>Node44</title>
<g id="a_node44"><a xlink:href="f__pc__manager_8h.html" target="_top" xlink:title=" ">
<polygon fill="white" stroke="black" points="226,-134.5 226,-164.5 323,-164.5 323,-134.5 226,-134.5"/>
<text text-anchor="start" x="234" y="-152.5" font-family="Helvetica,sans-Serif" font-size="10.00">include/f/f_pc/f_pc</text>
<text text-anchor="middle" x="274.5" y="-141.5" font-family="Helvetica,sans-Serif" font-size="10.00">_manager.h</text>
</a>
</g>
</g>
<!-- Node4&#45;&gt;Node44 -->
<g id="edge48" class="edge">
<title>Node4&#45;&gt;Node44</title>
<path fill="none" stroke="midnightblue" d="M2156.43,-215.5C1838.26,-215.16 697.13,-210.69 337.5,-165 332.82,-164.41 327.99,-163.62 323.17,-162.71"/>
<polygon fill="midnightblue" stroke="midnightblue" points="2156.5,-219 2166.5,-215.51 2156.5,-212 2156.5,-219"/>
</g>
<!-- Node41&#45;&gt;Node5 -->
<g id="edge43" class="edge">
<title>Node41&#45;&gt;Node5</title>
<path fill="none" stroke="midnightblue" d="M652.25,-57.25C652.59,-46.02 652.98,-33.38 653.23,-25.19"/>
<polygon fill="midnightblue" stroke="midnightblue" points="648.74,-57.29 651.93,-67.4 655.74,-57.51 648.74,-57.29"/>
</g>
<!-- Node42 -->
<g id="node42" class="node">
<title>Node42</title>
<g id="a_node42"><a xlink:href="d__a__alink_8cpp.html" target="_top" xlink:title=" ">
<polygon fill="white" stroke="black" points="463,-6 463,-25 582,-25 582,-6 463,-6"/>
<text text-anchor="middle" x="522.5" y="-13" font-family="Helvetica,sans-Serif" font-size="10.00">src/d/d_a/d_a_alink.cpp</text>
</a>
</g>
</g>
<!-- Node41&#45;&gt;Node42 -->
<g id="edge44" class="edge">
<title>Node41&#45;&gt;Node42</title>
<path fill="none" stroke="midnightblue" d="M614.39,-62.8C589.66,-50.34 558.33,-34.56 539.38,-25.01"/>
<polygon fill="midnightblue" stroke="midnightblue" points="613,-66.02 623.51,-67.4 616.15,-59.77 613,-66.02"/>
</g>
<!-- Node43&#45;&gt;Node7 -->
<g id="edge46" class="edge">
<title>Node43&#45;&gt;Node7</title>
<path fill="none" stroke="midnightblue" d="M523.49,-133.87C611.13,-115.01 635.23,-114.55 719.5,-98 722.5,-97.41 725.58,-96.8 728.68,-96.17"/>
<polygon fill="midnightblue" stroke="midnightblue" points="522.68,-130.46 513.65,-136.01 524.16,-137.3 522.68,-130.46"/>
</g>
<!-- Node43&#45;&gt;Node9 -->
<g id="edge47" class="edge">
<title>Node43&#45;&gt;Node9</title>
<path fill="none" stroke="midnightblue" d="M523.84,-134.16C799.22,-102.01 2466.11,-86.79 2806.75,-83.98"/>
<polygon fill="midnightblue" stroke="midnightblue" points="523.03,-130.73 513.55,-135.46 523.91,-137.68 523.03,-130.73"/>
</g>
<!-- Node44&#45;&gt;Node28 -->
<g id="edge51" class="edge">
<title>Node44&#45;&gt;Node28</title>
<path fill="none" stroke="midnightblue" d="M258.21,-125.97C249.79,-114.33 240.01,-100.8 233.79,-92.19"/>
<polygon fill="midnightblue" stroke="midnightblue" points="255.61,-128.34 264.3,-134.4 261.28,-124.24 255.61,-128.34"/>
</g>
<!-- Node44&#45;&gt;Node42 -->
<g id="edge50" class="edge">
<title>Node44&#45;&gt;Node42</title>
<path fill="none" stroke="midnightblue" d="M288.34,-126.05C300.84,-107.59 320.87,-82.11 344.5,-67 380.23,-44.16 426.43,-31.45 462.82,-24.49"/>
<polygon fill="midnightblue" stroke="midnightblue" points="285.38,-124.18 282.83,-134.47 291.24,-128.02 285.38,-124.18"/>
</g>
<!-- Node45 -->
<g id="node45" class="node">
<title>Node45</title>
<g id="a_node45"><a xlink:href="f__ap__game_8cpp.html" target="_top" xlink:title=" ">
<polygon fill="white" stroke="black" points="354,-73 354,-92 459,-92 459,-73 354,-73"/>
<text text-anchor="middle" x="406.5" y="-80" font-family="Helvetica,sans-Serif" font-size="10.00">src/f/f_ap_game.cpp</text>
</a>
</g>
</g>
<!-- Node44&#45;&gt;Node45 -->
<g id="edge49" class="edge">
<title>Node44&#45;&gt;Node45</title>
<path fill="none" stroke="midnightblue" d="M312.14,-129.97C337.49,-117.48 369.75,-101.6 389.22,-92.01"/>
<polygon fill="midnightblue" stroke="midnightblue" points="310.57,-126.84 303.14,-134.4 313.66,-133.12 310.57,-126.84"/>
</g>
<!-- Node46 -->
<g id="node46" class="node">
<title>Node46</title>
<g id="a_node46"><a xlink:href="f__op__actor__mng_8h.html" target="_top" xlink:title=" ">
<polygon fill="white" stroke="black" points="477,-67.5 477,-97.5 574,-97.5 574,-67.5 477,-67.5"/>
<text text-anchor="start" x="485" y="-85.5" font-family="Helvetica,sans-Serif" font-size="10.00">include/f/f_op/f_op</text>
<text text-anchor="middle" x="525.5" y="-74.5" font-family="Helvetica,sans-Serif" font-size="10.00">_actor_mng.h</text>
</a>
</g>
</g>
<!-- Node44&#45;&gt;Node46 -->
<g id="edge52" class="edge">
<title>Node44&#45;&gt;Node46</title>
<path fill="none" stroke="midnightblue" d="M333.11,-133.32C376.83,-122 435.85,-106.72 476.94,-96.07"/>
<polygon fill="midnightblue" stroke="midnightblue" points="332,-130 323.19,-135.89 333.75,-136.77 332,-130"/>
</g>
<!-- Node46&#45;&gt;Node2 -->
<g id="edge55" class="edge">
<title>Node46&#45;&gt;Node2</title>
<path fill="none" stroke="midnightblue" d="M466.94,-66.98C373.6,-47.6 276.14,-32.02 219.71,-23.46"/>
<polygon fill="midnightblue" stroke="midnightblue" points="466.32,-70.43 476.83,-69.05 467.76,-63.57 466.32,-70.43"/>
</g>
<!-- Node46&#45;&gt;Node3 -->
<g id="edge56" class="edge">
<title>Node46&#45;&gt;Node3</title>
<path fill="none" stroke="midnightblue" d="M466.95,-67.09C311.28,-40.58 268.04,-56.11 116.5,-31 113.4,-30.49 110.22,-29.91 107.03,-29.3"/>
<polygon fill="midnightblue" stroke="midnightblue" points="466.42,-70.55 476.87,-68.81 467.62,-63.65 466.42,-70.55"/>
</g>
<!-- Node46&#45;&gt;Node5 -->
<g id="edge53" class="edge">
<title>Node46&#45;&gt;Node5</title>
<path fill="none" stroke="midnightblue" d="M562.32,-62.8C586.86,-50.34 617.94,-34.56 636.75,-25.01"/>
<polygon fill="midnightblue" stroke="midnightblue" points="560.61,-59.75 553.27,-67.4 563.78,-65.99 560.61,-59.75"/>
</g>
<!-- Node46&#45;&gt;Node6 -->
<g id="edge54" class="edge">
<title>Node46&#45;&gt;Node6</title>
<path fill="none" stroke="midnightblue" d="M584.39,-67.06C848.66,-36.25 2448.67,-19.86 2756.35,-16.97"/>
<polygon fill="midnightblue" stroke="midnightblue" points="583.66,-63.62 574.17,-68.35 584.53,-70.57 583.66,-63.62"/>
</g>
<!-- Node46&#45;&gt;Node33 -->
<g id="edge58" class="edge">
<title>Node46&#45;&gt;Node33</title>
<path fill="none" stroke="midnightblue" d="M584.41,-67.68C776.5,-59.3 3438.16,-23.47 3892.71,-17.38"/>
<polygon fill="midnightblue" stroke="midnightblue" points="583.93,-64.2 574.17,-68.32 584.37,-71.19 583.93,-64.2"/>
</g>
<!-- Node46&#45;&gt;Node42 -->
<g id="edge57" class="edge">
<title>Node46&#45;&gt;Node42</title>
<path fill="none" stroke="midnightblue" d="M524.38,-57.25C523.86,-46.02 523.28,-33.38 522.9,-25.19"/>
<polygon fill="midnightblue" stroke="midnightblue" points="520.89,-57.57 524.85,-67.4 527.88,-57.25 520.89,-57.57"/>
</g>
</g>
</svg>
