<?xml version="1.0" encoding="UTF-8" standalone="no"?>
<!DOCTYPE svg PUBLIC "-//W3C//DTD SVG 1.1//EN"
 "http://www.w3.org/Graphics/SVG/1.1/DTD/svg11.dtd">
<!-- Generated by graphviz version 2.46.0 (20210122.1329)
 -->
<!-- Title: include/d/d_stage/d_stage.h Pages: 1 -->
<!--zoomable 240 -->
<svg id="main" version="1.1" xmlns="http://www.w3.org/2000/svg" xmlns:xlink="http://www.w3.org/1999/xlink" xml:space="preserve" onload="init(evt)">
<style type="text/css"><![CDATA[
.edge:hover path { stroke: red; }
.edge:hover polygon { stroke: red; fill: red; }
]]></style>
<script type="text/javascript"><![CDATA[
var edges = document.getElementsByTagName('g');
if (edges && edges.length) {
  for (var i=0;i<edges.length;i++) {
    if (edges[i].id.substr(0,4)=='edge') {
      edges[i].setAttribute('class','edge');
    }
  }
}
]]></script>
        <defs>
                <circle id="rim" cx="0" cy="0" r="7"/>
                <circle id="rim2" cx="0" cy="0" r="3.5"/>
                <g id="zoomPlus">
                        <use xlink:href="#rim" fill="#404040">
                                <set attributeName="fill" to="#808080" begin="zoomplus.mouseover" end="zoomplus.mouseout"/>
                        </use>
                        <path d="M-4,0h8M0,-4v8" fill="none" stroke="white" stroke-width="1.5" pointer-events="none"/>
                </g>
                <g id="zoomMin">
                        <use xlink:href="#rim" fill="#404040">
                                <set attributeName="fill" to="#808080" begin="zoomminus.mouseover" end="zoomminus.mouseout"/>
                        </use>
                        <path d="M-4,0h8" fill="none" stroke="white" stroke-width="1.5" pointer-events="none"/>
                </g>
                <g id="dirArrow">
                        <path fill="none" stroke="white" stroke-width="1.5" d="M0,-3.0v7 M-2.5,-0.5L0,-3.0L2.5,-0.5"/>
                </g>
               <g id="resetDef">
                       <use xlink:href="#rim2" fill="#404040">
                               <set attributeName="fill" to="#808080" begin="reset.mouseover" end="reset.mouseout"/>
                       </use>
               </g>
        </defs>

<script type="text/javascript">
var viewWidth = 4261;
var viewHeight = 240;
var sectionId = 'dynsection-1';
</script>
<script xlink:href="svgpan.js"/>
<svg id="graph" class="graph">
<g id="viewport">
<title>include/d/d_stage/d_stage.h</title>
<polygon fill="white" stroke="transparent" points="-4,4 -4,-236 4256.5,-236 4256.5,4 -4,4"/>
<!-- Node1 -->
<g id="node1" class="node">
<title>Node1</title>
<g id="a_node1"><a xlink:title=" ">
<polygon fill="#bfbfbf" stroke="black" points="986.5,-201.5 986.5,-231.5 1087.5,-231.5 1087.5,-201.5 986.5,-201.5"/>
<text text-anchor="start" x="994.5" y="-219.5" font-family="Helvetica,sans-Serif" font-size="10.00">include/d/d_stage/d</text>
<text text-anchor="middle" x="1037" y="-208.5" font-family="Helvetica,sans-Serif" font-size="10.00">_stage.h</text>
</a>
</g>
</g>
<!-- Node2 -->
<g id="node2" class="node">
<title>Node2</title>
<g id="a_node2"><a xlink:href="d__stage_8cpp.html" target="_top" xlink:title=" ">
<polygon fill="white" stroke="black" points="0,-73 0,-92 94,-92 94,-73 0,-73"/>
<text text-anchor="middle" x="47" y="-80" font-family="Helvetica,sans-Serif" font-size="10.00">src/d/d_stage.cpp</text>
</a>
</g>
</g>
<!-- Node1&#45;&gt;Node2 -->
<g id="edge1" class="edge">
<title>Node1&#45;&gt;Node2</title>
<path fill="none" stroke="midnightblue" d="M975.92,-210.55C826.18,-197.82 429.24,-160.49 103,-98 94.52,-96.38 85.41,-94.21 77.06,-92.04"/>
<polygon fill="midnightblue" stroke="midnightblue" points="976.01,-214.07 986.27,-211.42 976.6,-207.09 976.01,-214.07"/>
</g>
<!-- Node3 -->
<g id="node3" class="node">
<title>Node3</title>
<g id="a_node3"><a xlink:href="d__com__inf__game_8h.html" target="_top" xlink:title=" ">
<polygon fill="white" stroke="black" points="1889,-134.5 1889,-164.5 2035,-164.5 2035,-134.5 1889,-134.5"/>
<text text-anchor="start" x="1897" y="-152.5" font-family="Helvetica,sans-Serif" font-size="10.00">include/d/d_com/d_com</text>
<text text-anchor="middle" x="1962" y="-141.5" font-family="Helvetica,sans-Serif" font-size="10.00">_inf_game/d_com_inf_game.h</text>
</a>
</g>
</g>
<!-- Node1&#45;&gt;Node3 -->
<g id="edge2" class="edge">
<title>Node1&#45;&gt;Node3</title>
<path fill="none" stroke="midnightblue" d="M1098.1,-211.21C1262.14,-199.68 1711.69,-168.09 1888.85,-155.64"/>
<polygon fill="midnightblue" stroke="midnightblue" points="1097.45,-207.74 1087.72,-211.94 1097.94,-214.73 1097.45,-207.74"/>
</g>
<!-- Node3&#45;&gt;Node2 -->
<g id="edge22" class="edge">
<title>Node3&#45;&gt;Node2</title>
<path fill="none" stroke="midnightblue" d="M1878.69,-147.35C1540.5,-142.51 279.89,-122.98 103,-98 93.75,-96.69 83.83,-94.42 74.95,-92.06"/>
<polygon fill="midnightblue" stroke="midnightblue" points="1878.85,-150.85 1888.9,-147.49 1878.95,-143.85 1878.85,-150.85"/>
</g>
<!-- Node4 -->
<g id="node4" class="node">
<title>Node4</title>
<g id="a_node4"><a xlink:href="d__attention_8cpp.html" target="_top" xlink:title=" ">
<polygon fill="white" stroke="black" points="4145.5,-6 4145.5,-25 4252.5,-25 4252.5,-6 4145.5,-6"/>
<text text-anchor="middle" x="4199" y="-13" font-family="Helvetica,sans-Serif" font-size="10.00">src/d/d_attention.cpp</text>
</a>
</g>
</g>
<!-- Node3&#45;&gt;Node4 -->
<g id="edge3" class="edge">
<title>Node3&#45;&gt;Node4</title>
<path fill="none" stroke="midnightblue" d="M2045.28,-148.53C2432.12,-148.43 4038.93,-145.15 4134,-98 4165.78,-82.24 4187,-42.84 4195.2,-25.23"/>
<polygon fill="midnightblue" stroke="midnightblue" points="2045,-145.03 2035,-148.53 2045,-152.03 2045,-145.03"/>
</g>
<!-- Node5 -->
<g id="node5" class="node">
<title>Node5</title>
<g id="a_node5"><a xlink:href="d__camera_8cpp.html" target="_top" xlink:title=" ">
<polygon fill="white" stroke="black" points="112,-73 112,-92 214,-92 214,-73 112,-73"/>
<text text-anchor="middle" x="163" y="-80" font-family="Helvetica,sans-Serif" font-size="10.00">src/d/d_camera.cpp</text>
</a>
</g>
</g>
<!-- Node3&#45;&gt;Node5 -->
<g id="edge4" class="edge">
<title>Node3&#45;&gt;Node5</title>
<path fill="none" stroke="midnightblue" d="M1878.74,-147.01C1555.34,-141.08 392.4,-118.54 228,-98 217.33,-96.67 205.83,-94.39 195.52,-92.03"/>
<polygon fill="midnightblue" stroke="midnightblue" points="1878.91,-150.51 1888.97,-147.19 1879.04,-143.51 1878.91,-150.51"/>
</g>
<!-- Node6 -->
<g id="node6" class="node">
<title>Node6</title>
<g id="a_node6"><a xlink:href="d__com__inf__game_8cpp.html" target="_top" xlink:title=" ">
<polygon fill="white" stroke="black" points="285.5,-0.5 285.5,-30.5 404.5,-30.5 404.5,-0.5 285.5,-0.5"/>
<text text-anchor="start" x="293.5" y="-18.5" font-family="Helvetica,sans-Serif" font-size="10.00">src/d/d_com/d_com_inf</text>
<text text-anchor="middle" x="345" y="-7.5" font-family="Helvetica,sans-Serif" font-size="10.00">_game.cpp</text>
</a>
</g>
</g>
<!-- Node3&#45;&gt;Node6 -->
<g id="edge5" class="edge">
<title>Node3&#45;&gt;Node6</title>
<path fill="none" stroke="midnightblue" d="M1878.71,-147.59C1540.9,-143.7 289.47,-127.33 261,-98 237.43,-73.72 280.06,-46.55 312.74,-30.52"/>
<polygon fill="midnightblue" stroke="midnightblue" points="1878.88,-151.09 1888.92,-147.71 1878.96,-144.09 1878.88,-151.09"/>
</g>
<!-- Node7 -->
<g id="node7" class="node">
<title>Node7</title>
<g id="a_node7"><a xlink:href="d__file__sel__info_8cpp.html" target="_top" xlink:title=" ">
<polygon fill="white" stroke="black" points="270.5,-67.5 270.5,-97.5 359.5,-97.5 359.5,-67.5 270.5,-67.5"/>
<text text-anchor="start" x="278.5" y="-85.5" font-family="Helvetica,sans-Serif" font-size="10.00">src/d/d_file/d_file</text>
<text text-anchor="middle" x="315" y="-74.5" font-family="Helvetica,sans-Serif" font-size="10.00">_sel_info.cpp</text>
</a>
</g>
</g>
<!-- Node3&#45;&gt;Node7 -->
<g id="edge6" class="edge">
<title>Node3&#45;&gt;Node7</title>
<path fill="none" stroke="midnightblue" d="M1878.65,-146.98C1572.27,-141.25 518.45,-120.13 369,-98 365.93,-97.54 362.78,-96.98 359.62,-96.33"/>
<polygon fill="midnightblue" stroke="midnightblue" points="1878.73,-150.49 1888.8,-147.17 1878.86,-143.49 1878.73,-150.49"/>
</g>
<!-- Node8 -->
<g id="node8" class="node">
<title>Node8</title>
<g id="a_node8"><a xlink:href="d__item_8cpp.html" target="_top" xlink:title=" ">
<polygon fill="white" stroke="black" points="445.5,-6 445.5,-25 566.5,-25 566.5,-6 445.5,-6"/>
<text text-anchor="middle" x="506" y="-13" font-family="Helvetica,sans-Serif" font-size="10.00">src/d/d_item/d_item.cpp</text>
</a>
</g>
</g>
<!-- Node3&#45;&gt;Node8 -->
<g id="edge7" class="edge">
<title>Node3&#45;&gt;Node8</title>
<path fill="none" stroke="midnightblue" d="M2045.24,-143.61C2154.76,-136.32 2335.82,-120.94 2356,-98 2365.1,-87.66 2365.61,-76.87 2356,-67 2324.08,-34.2 882.36,-19.77 566.67,-17"/>
<polygon fill="midnightblue" stroke="midnightblue" points="2044.95,-140.12 2035.2,-144.27 2045.41,-147.11 2044.95,-140.12"/>
</g>
<!-- Node9 -->
<g id="node9" class="node">
<title>Node9</title>
<g id="a_node9"><a xlink:href="d__kankyo__rain_8cpp.html" target="_top" xlink:title=" ">
<polygon fill="white" stroke="black" points="492.5,-67.5 492.5,-97.5 619.5,-97.5 619.5,-67.5 492.5,-67.5"/>
<text text-anchor="start" x="500.5" y="-85.5" font-family="Helvetica,sans-Serif" font-size="10.00">src/d/d_kankyo/d_kankyo</text>
<text text-anchor="middle" x="556" y="-74.5" font-family="Helvetica,sans-Serif" font-size="10.00">_rain.cpp</text>
</a>
</g>
</g>
<!-- Node3&#45;&gt;Node9 -->
<g id="edge8" class="edge">
<title>Node3&#45;&gt;Node9</title>
<path fill="none" stroke="midnightblue" d="M1878.78,-147.07C1626.52,-142.47 872.74,-126.64 629,-98 625.92,-97.64 622.78,-97.22 619.61,-96.75"/>
<polygon fill="midnightblue" stroke="midnightblue" points="1878.92,-150.58 1888.98,-147.26 1879.05,-143.58 1878.92,-150.58"/>
</g>
<!-- Node10 -->
<g id="node10" class="node">
<title>Node10</title>
<g id="a_node10"><a xlink:href="d__kankyo__wether_8cpp.html" target="_top" xlink:title=" ">
<polygon fill="white" stroke="black" points="637.5,-67.5 637.5,-97.5 764.5,-97.5 764.5,-67.5 637.5,-67.5"/>
<text text-anchor="start" x="645.5" y="-85.5" font-family="Helvetica,sans-Serif" font-size="10.00">src/d/d_kankyo/d_kankyo</text>
<text text-anchor="middle" x="701" y="-74.5" font-family="Helvetica,sans-Serif" font-size="10.00">_wether.cpp</text>
</a>
</g>
</g>
<!-- Node3&#45;&gt;Node10 -->
<g id="edge9" class="edge">
<title>Node3&#45;&gt;Node10</title>
<path fill="none" stroke="midnightblue" d="M1878.54,-149.34C1684.14,-150.35 1186.3,-147.41 774,-98 770.92,-97.63 767.78,-97.2 764.61,-96.73"/>
<polygon fill="midnightblue" stroke="midnightblue" points="1878.7,-152.84 1888.68,-149.29 1878.66,-145.84 1878.7,-152.84"/>
</g>
<!-- Node11 -->
<g id="node11" class="node">
<title>Node11</title>
<g id="a_node11"><a xlink:href="d__kankyo_8cpp.html" target="_top" xlink:title=" ">
<polygon fill="white" stroke="black" points="782.5,-73 782.5,-92 883.5,-92 883.5,-73 782.5,-73"/>
<text text-anchor="middle" x="833" y="-80" font-family="Helvetica,sans-Serif" font-size="10.00">src/d/d_kankyo.cpp</text>
</a>
</g>
</g>
<!-- Node3&#45;&gt;Node11 -->
<g id="edge10" class="edge">
<title>Node3&#45;&gt;Node11</title>
<path fill="none" stroke="midnightblue" d="M1878.77,-146.61C1661.85,-141.37 1082.88,-125.18 893,-98 883.24,-96.6 872.75,-94.34 863.31,-92.01"/>
<polygon fill="midnightblue" stroke="midnightblue" points="1878.74,-150.11 1888.82,-146.85 1878.91,-143.11 1878.74,-150.11"/>
</g>
<!-- Node12 -->
<g id="node12" class="node">
<title>Node12</title>
<g id="a_node12"><a xlink:href="d__kantera__icon__meter_8cpp.html" target="_top" xlink:title=" ">
<polygon fill="white" stroke="black" points="901.5,-67.5 901.5,-97.5 1008.5,-97.5 1008.5,-67.5 901.5,-67.5"/>
<text text-anchor="start" x="909.5" y="-85.5" font-family="Helvetica,sans-Serif" font-size="10.00">src/d/d_kantera_icon</text>
<text text-anchor="middle" x="955" y="-74.5" font-family="Helvetica,sans-Serif" font-size="10.00">_meter.cpp</text>
</a>
</g>
</g>
<!-- Node3&#45;&gt;Node12 -->
<g id="edge11" class="edge">
<title>Node3&#45;&gt;Node12</title>
<path fill="none" stroke="midnightblue" d="M1878.66,-148.86C1713.56,-148.51 1333.59,-142.42 1018,-98 1015,-97.58 1011.93,-97.08 1008.84,-96.54"/>
<polygon fill="midnightblue" stroke="midnightblue" points="1878.74,-152.36 1888.75,-148.87 1878.75,-145.36 1878.74,-152.36"/>
</g>
<!-- Node13 -->
<g id="node13" class="node">
<title>Node13</title>
<g id="a_node13"><a xlink:href="d__meter__button_8cpp.html" target="_top" xlink:title=" ">
<polygon fill="white" stroke="black" points="1026.5,-67.5 1026.5,-97.5 1141.5,-97.5 1141.5,-67.5 1026.5,-67.5"/>
<text text-anchor="start" x="1034.5" y="-85.5" font-family="Helvetica,sans-Serif" font-size="10.00">src/d/d_meter/d_meter</text>
<text text-anchor="middle" x="1084" y="-74.5" font-family="Helvetica,sans-Serif" font-size="10.00">_button.cpp</text>
</a>
</g>
</g>
<!-- Node3&#45;&gt;Node13 -->
<g id="edge12" class="edge">
<title>Node3&#45;&gt;Node13</title>
<path fill="none" stroke="midnightblue" d="M1878.61,-147.45C1731.17,-144.67 1415.05,-134.58 1151,-98 1147.93,-97.58 1144.8,-97.09 1141.64,-96.55"/>
<polygon fill="midnightblue" stroke="midnightblue" points="1878.87,-150.96 1888.93,-147.64 1879,-143.96 1878.87,-150.96"/>
</g>
<!-- Node14 -->
<g id="node14" class="node">
<title>Node14</title>
<g id="a_node14"><a xlink:href="d__meter__haihai_8cpp.html" target="_top" xlink:title=" ">
<polygon fill="white" stroke="black" points="1159.5,-67.5 1159.5,-97.5 1274.5,-97.5 1274.5,-67.5 1159.5,-67.5"/>
<text text-anchor="start" x="1167.5" y="-85.5" font-family="Helvetica,sans-Serif" font-size="10.00">src/d/d_meter/d_meter</text>
<text text-anchor="middle" x="1217" y="-74.5" font-family="Helvetica,sans-Serif" font-size="10.00">_haihai.cpp</text>
</a>
</g>
</g>
<!-- Node3&#45;&gt;Node14 -->
<g id="edge13" class="edge">
<title>Node3&#45;&gt;Node14</title>
<path fill="none" stroke="midnightblue" d="M1878.75,-146.02C1750.47,-141.36 1496.97,-128.82 1284,-98 1280.94,-97.56 1277.81,-97.05 1274.65,-96.51"/>
<polygon fill="midnightblue" stroke="midnightblue" points="1878.78,-149.52 1888.9,-146.38 1879.03,-142.53 1878.78,-149.52"/>
</g>
<!-- Node15 -->
<g id="node15" class="node">
<title>Node15</title>
<g id="a_node15"><a xlink:href="d__meter__hakusha_8cpp.html" target="_top" xlink:title=" ">
<polygon fill="white" stroke="black" points="1292.5,-67.5 1292.5,-97.5 1407.5,-97.5 1407.5,-67.5 1292.5,-67.5"/>
<text text-anchor="start" x="1300.5" y="-85.5" font-family="Helvetica,sans-Serif" font-size="10.00">src/d/d_meter/d_meter</text>
<text text-anchor="middle" x="1350" y="-74.5" font-family="Helvetica,sans-Serif" font-size="10.00">_hakusha.cpp</text>
</a>
</g>
</g>
<!-- Node3&#45;&gt;Node15 -->
<g id="edge14" class="edge">
<title>Node3&#45;&gt;Node15</title>
<path fill="none" stroke="midnightblue" d="M1878.82,-143.92C1771.61,-137.31 1579.63,-123.04 1417,-98 1413.94,-97.53 1410.81,-97 1407.66,-96.44"/>
<polygon fill="midnightblue" stroke="midnightblue" points="1878.74,-147.43 1888.93,-144.54 1879.16,-140.44 1878.74,-147.43"/>
</g>
<!-- Node16 -->
<g id="node16" class="node">
<title>Node16</title>
<g id="a_node16"><a xlink:href="d__meter__map_8cpp.html" target="_top" xlink:title=" ">
<polygon fill="white" stroke="black" points="1425.5,-67.5 1425.5,-97.5 1540.5,-97.5 1540.5,-67.5 1425.5,-67.5"/>
<text text-anchor="start" x="1433.5" y="-85.5" font-family="Helvetica,sans-Serif" font-size="10.00">src/d/d_meter/d_meter</text>
<text text-anchor="middle" x="1483" y="-74.5" font-family="Helvetica,sans-Serif" font-size="10.00">_map.cpp</text>
</a>
</g>
</g>
<!-- Node3&#45;&gt;Node16 -->
<g id="edge15" class="edge">
<title>Node3&#45;&gt;Node16</title>
<path fill="none" stroke="midnightblue" d="M1878.59,-140.53C1795.13,-132.03 1663.23,-117.15 1550,-98 1546.95,-97.48 1543.83,-96.92 1540.68,-96.33"/>
<polygon fill="midnightblue" stroke="midnightblue" points="1878.47,-144.04 1888.77,-141.56 1879.18,-137.07 1878.47,-144.04"/>
</g>
<!-- Node17 -->
<g id="node17" class="node">
<title>Node17</title>
<g id="a_node17"><a xlink:href="d__meter__string_8cpp.html" target="_top" xlink:title=" ">
<polygon fill="white" stroke="black" points="1558.5,-67.5 1558.5,-97.5 1673.5,-97.5 1673.5,-67.5 1558.5,-67.5"/>
<text text-anchor="start" x="1566.5" y="-85.5" font-family="Helvetica,sans-Serif" font-size="10.00">src/d/d_meter/d_meter</text>
<text text-anchor="middle" x="1616" y="-74.5" font-family="Helvetica,sans-Serif" font-size="10.00">_string.cpp</text>
</a>
</g>
</g>
<!-- Node3&#45;&gt;Node17 -->
<g id="edge16" class="edge">
<title>Node3&#45;&gt;Node17</title>
<path fill="none" stroke="midnightblue" d="M1878.6,-134.17C1823.08,-124.44 1748.56,-111.02 1683,-98 1679.96,-97.4 1676.86,-96.77 1673.72,-96.12"/>
<polygon fill="midnightblue" stroke="midnightblue" points="1878.28,-137.67 1888.74,-135.94 1879.49,-130.77 1878.28,-137.67"/>
</g>
<!-- Node18 -->
<g id="node18" class="node">
<title>Node18</title>
<g id="a_node18"><a xlink:href="d__meter2__draw_8cpp.html" target="_top" xlink:title=" ">
<polygon fill="white" stroke="black" points="1691.5,-67.5 1691.5,-97.5 1816.5,-97.5 1816.5,-67.5 1691.5,-67.5"/>
<text text-anchor="start" x="1699.5" y="-85.5" font-family="Helvetica,sans-Serif" font-size="10.00">src/d/d_meter2/d_meter2</text>
<text text-anchor="middle" x="1754" y="-74.5" font-family="Helvetica,sans-Serif" font-size="10.00">_draw.cpp</text>
</a>
</g>
</g>
<!-- Node3&#45;&gt;Node18 -->
<g id="edge17" class="edge">
<title>Node3&#45;&gt;Node18</title>
<path fill="none" stroke="midnightblue" d="M1907.42,-131.44C1873.7,-120.91 1830.96,-107.55 1799.15,-97.61"/>
<polygon fill="midnightblue" stroke="midnightblue" points="1906.53,-134.83 1917.12,-134.48 1908.62,-128.15 1906.53,-134.83"/>
</g>
<!-- Node19 -->
<g id="node19" class="node">
<title>Node19</title>
<g id="a_node19"><a xlink:href="d__meter2__info_8cpp.html" target="_top" xlink:title=" ">
<polygon fill="white" stroke="black" points="1834.5,-67.5 1834.5,-97.5 1959.5,-97.5 1959.5,-67.5 1834.5,-67.5"/>
<text text-anchor="start" x="1842.5" y="-85.5" font-family="Helvetica,sans-Serif" font-size="10.00">src/d/d_meter2/d_meter2</text>
<text text-anchor="middle" x="1897" y="-74.5" font-family="Helvetica,sans-Serif" font-size="10.00">_info.cpp</text>
</a>
</g>
</g>
<!-- Node3&#45;&gt;Node19 -->
<g id="edge18" class="edge">
<title>Node3&#45;&gt;Node19</title>
<path fill="none" stroke="midnightblue" d="M1940.81,-127.31C1931.06,-117.56 1919.76,-106.26 1911.08,-97.58"/>
<polygon fill="midnightblue" stroke="midnightblue" points="1938.35,-129.8 1947.9,-134.4 1943.3,-124.85 1938.35,-129.8"/>
</g>
<!-- Node20 -->
<g id="node20" class="node">
<title>Node20</title>
<g id="a_node20"><a xlink:href="d__meter2_8cpp.html" target="_top" xlink:title=" ">
<polygon fill="white" stroke="black" points="1978,-73 1978,-92 2078,-92 2078,-73 1978,-73"/>
<text text-anchor="middle" x="2028" y="-80" font-family="Helvetica,sans-Serif" font-size="10.00">src/d/d_meter2.cpp</text>
</a>
</g>
</g>
<!-- Node3&#45;&gt;Node20 -->
<g id="edge19" class="edge">
<title>Node3&#45;&gt;Node20</title>
<path fill="none" stroke="midnightblue" d="M1983.49,-127.34C1995.61,-115.4 2010.09,-101.14 2019.17,-92.19"/>
<polygon fill="midnightblue" stroke="midnightblue" points="1980.99,-124.89 1976.32,-134.4 1985.9,-129.87 1980.99,-124.89"/>
</g>
<!-- Node21 -->
<g id="node21" class="node">
<title>Node21</title>
<g id="a_node21"><a xlink:href="d__save_8cpp.html" target="_top" xlink:title=" ">
<polygon fill="white" stroke="black" points="2096.5,-73 2096.5,-92 2221.5,-92 2221.5,-73 2096.5,-73"/>
<text text-anchor="middle" x="2159" y="-80" font-family="Helvetica,sans-Serif" font-size="10.00">src/d/d_save/d_save.cpp</text>
</a>
</g>
</g>
<!-- Node3&#45;&gt;Node21 -->
<g id="edge20" class="edge">
<title>Node3&#45;&gt;Node21</title>
<path fill="none" stroke="midnightblue" d="M2014.71,-131.11C2053.04,-118.46 2103.26,-101.89 2133.22,-92.01"/>
<polygon fill="midnightblue" stroke="midnightblue" points="2013.15,-127.94 2004.75,-134.4 2015.34,-134.59 2013.15,-127.94"/>
</g>
<!-- Node22 -->
<g id="node22" class="node">
<title>Node22</title>
<g id="a_node22"><a xlink:href="d__save__HIO_8cpp.html" target="_top" xlink:title=" ">
<polygon fill="white" stroke="black" points="2239.5,-67.5 2239.5,-97.5 2346.5,-97.5 2346.5,-67.5 2239.5,-67.5"/>
<text text-anchor="start" x="2247.5" y="-85.5" font-family="Helvetica,sans-Serif" font-size="10.00">src/d/d_save/d_save</text>
<text text-anchor="middle" x="2293" y="-74.5" font-family="Helvetica,sans-Serif" font-size="10.00">_HIO.cpp</text>
</a>
</g>
</g>
<!-- Node3&#45;&gt;Node22 -->
<g id="edge21" class="edge">
<title>Node3&#45;&gt;Node22</title>
<path fill="none" stroke="midnightblue" d="M2045.31,-133.84C2098.54,-124.23 2168.97,-111.07 2231,-98 2233.7,-97.43 2236.47,-96.83 2239.26,-96.22"/>
<polygon fill="midnightblue" stroke="midnightblue" points="2044.46,-130.44 2035.24,-135.65 2045.7,-137.33 2044.46,-130.44"/>
</g>
<!-- Node23 -->
<g id="node23" class="node">
<title>Node23</title>
<g id="a_node23"><a xlink:href="f__pc__manager_8cpp.html" target="_top" xlink:title=" ">
<polygon fill="white" stroke="black" points="3707,-6 3707,-25 3847,-25 3847,-6 3707,-6"/>
<text text-anchor="middle" x="3777" y="-13" font-family="Helvetica,sans-Serif" font-size="10.00">src/f/f_pc/f_pc_manager.cpp</text>
</a>
</g>
</g>
<!-- Node3&#45;&gt;Node23 -->
<g id="edge23" class="edge">
<title>Node3&#45;&gt;Node23</title>
<path fill="none" stroke="midnightblue" d="M2045.29,-147.82C2403.64,-144.67 3797.47,-130.39 3829,-98 3851.36,-75.03 3811.41,-40.97 3789.68,-25.15"/>
<polygon fill="midnightblue" stroke="midnightblue" points="2045.22,-144.32 2035.25,-147.9 2045.28,-151.32 2045.22,-144.32"/>
</g>
<!-- Node24 -->
<g id="node24" class="node">
<title>Node24</title>
<g id="a_node24"><a xlink:href="m__Do__audio_8cpp.html" target="_top" xlink:title=" ">
<polygon fill="white" stroke="black" points="2403,-73 2403,-92 2537,-92 2537,-73 2403,-73"/>
<text text-anchor="middle" x="2470" y="-80" font-family="Helvetica,sans-Serif" font-size="10.00">src/m_Do/m_Do_audio.cpp</text>
</a>
</g>
</g>
<!-- Node3&#45;&gt;Node24 -->
<g id="edge24" class="edge">
<title>Node3&#45;&gt;Node24</title>
<path fill="none" stroke="midnightblue" d="M2045.07,-140.15C2131.26,-131.15 2269.85,-115.69 2389,-98 2400.73,-96.26 2413.37,-94.12 2425.09,-92.03"/>
<polygon fill="midnightblue" stroke="midnightblue" points="2044.67,-136.68 2035.09,-141.19 2045.39,-143.64 2044.67,-136.68"/>
</g>
<!-- Node25 -->
<g id="node25" class="node">
<title>Node25</title>
<g id="a_node25"><a xlink:href="m__Do__ext_8cpp.html" target="_top" xlink:title=" ">
<polygon fill="white" stroke="black" points="2555.5,-73 2555.5,-92 2678.5,-92 2678.5,-73 2555.5,-73"/>
<text text-anchor="middle" x="2617" y="-80" font-family="Helvetica,sans-Serif" font-size="10.00">src/m_Do/m_Do_ext.cpp</text>
</a>
</g>
</g>
<!-- Node3&#45;&gt;Node25 -->
<g id="edge25" class="edge">
<title>Node3&#45;&gt;Node25</title>
<path fill="none" stroke="midnightblue" d="M2045.16,-144.33C2158.75,-137.95 2368.56,-123.7 2546,-98 2556.83,-96.43 2568.5,-94.25 2579.19,-92.06"/>
<polygon fill="midnightblue" stroke="midnightblue" points="2044.94,-140.84 2035.15,-144.89 2045.33,-147.83 2044.94,-140.84"/>
</g>
<!-- Node26 -->
<g id="node26" class="node">
<title>Node26</title>
<g id="a_node26"><a xlink:href="m__Do__lib_8cpp.html" target="_top" xlink:title=" ">
<polygon fill="white" stroke="black" points="2697,-73 2697,-92 2817,-92 2817,-73 2697,-73"/>
<text text-anchor="middle" x="2757" y="-80" font-family="Helvetica,sans-Serif" font-size="10.00">src/m_Do/m_Do_lib.cpp</text>
</a>
</g>
</g>
<!-- Node3&#45;&gt;Node26 -->
<g id="edge26" class="edge">
<title>Node3&#45;&gt;Node26</title>
<path fill="none" stroke="midnightblue" d="M2045.55,-146.42C2181.01,-142.22 2456.73,-130.19 2688,-98 2698.79,-96.5 2710.42,-94.29 2721,-92.04"/>
<polygon fill="midnightblue" stroke="midnightblue" points="2045.14,-142.93 2035.25,-146.74 2045.35,-149.93 2045.14,-142.93"/>
</g>
<!-- Node27 -->
<g id="node27" class="node">
<title>Node27</title>
<g id="a_node27"><a xlink:href="m__Do__main_8cpp.html" target="_top" xlink:title=" ">
<polygon fill="white" stroke="black" points="2835.5,-73 2835.5,-92 2966.5,-92 2966.5,-73 2835.5,-73"/>
<text text-anchor="middle" x="2901" y="-80" font-family="Helvetica,sans-Serif" font-size="10.00">src/m_Do/m_Do_main.cpp</text>
</a>
</g>
</g>
<!-- Node3&#45;&gt;Node27 -->
<g id="edge27" class="edge">
<title>Node3&#45;&gt;Node27</title>
<path fill="none" stroke="midnightblue" d="M2045.48,-147.29C2200.06,-144.25 2541.08,-133.71 2826,-98 2837.84,-96.52 2850.63,-94.28 2862.23,-92.01"/>
<polygon fill="midnightblue" stroke="midnightblue" points="2045.05,-143.8 2035.12,-147.49 2045.19,-150.8 2045.05,-143.8"/>
</g>
<!-- Node28 -->
<g id="node28" class="node">
<title>Node28</title>
<g id="a_node28"><a xlink:href="Z2EnvSeMgr_8cpp.html" target="_top" xlink:title=" ">
<polygon fill="white" stroke="black" points="2984.5,-73 2984.5,-92 3145.5,-92 3145.5,-73 2984.5,-73"/>
<text text-anchor="middle" x="3065" y="-80" font-family="Helvetica,sans-Serif" font-size="10.00">libs/Z2AudioLib/Z2EnvSeMgr.cpp</text>
</a>
</g>
</g>
<!-- Node3&#45;&gt;Node28 -->
<g id="edge28" class="edge">
<title>Node3&#45;&gt;Node28</title>
<path fill="none" stroke="midnightblue" d="M2045.15,-147.5C2218.64,-144.72 2631.65,-134.51 2976,-98 2990.01,-96.51 3005.17,-94.28 3018.94,-92.01"/>
<polygon fill="midnightblue" stroke="midnightblue" points="2045.02,-144 2035.07,-147.66 2045.13,-151 2045.02,-144"/>
</g>
<!-- Node29 -->
<g id="node29" class="node">
<title>Node29</title>
<g id="a_node29"><a xlink:href="Z2LinkMgr_8cpp.html" target="_top" xlink:title=" ">
<polygon fill="white" stroke="black" points="3164,-73 3164,-92 3316,-92 3316,-73 3164,-73"/>
<text text-anchor="middle" x="3240" y="-80" font-family="Helvetica,sans-Serif" font-size="10.00">libs/Z2AudioLib/Z2LinkMgr.cpp</text>
</a>
</g>
</g>
<!-- Node3&#45;&gt;Node29 -->
<g id="edge29" class="edge">
<title>Node3&#45;&gt;Node29</title>
<path fill="none" stroke="midnightblue" d="M2045.36,-148.59C2240.15,-148.03 2740.08,-141.99 3155,-98 3168.55,-96.56 3183.2,-94.32 3196.47,-92.02"/>
<polygon fill="midnightblue" stroke="midnightblue" points="2045.19,-145.09 2035.2,-148.62 2045.21,-152.09 2045.19,-145.09"/>
</g>
<!-- Node30 -->
<g id="node30" class="node">
<title>Node30</title>
<g id="a_node30"><a xlink:href="Z2SceneMgr_8cpp.html" target="_top" xlink:title=" ">
<polygon fill="white" stroke="black" points="3334.5,-73 3334.5,-92 3495.5,-92 3495.5,-73 3334.5,-73"/>
<text text-anchor="middle" x="3415" y="-80" font-family="Helvetica,sans-Serif" font-size="10.00">libs/Z2AudioLib/Z2SceneMgr.cpp</text>
</a>
</g>
</g>
<!-- Node3&#45;&gt;Node30 -->
<g id="edge30" class="edge">
<title>Node3&#45;&gt;Node30</title>
<path fill="none" stroke="midnightblue" d="M2045.54,-148.96C2259.1,-149.38 2842.17,-145.66 3325,-98 3339.33,-96.59 3354.85,-94.34 3368.89,-92.04"/>
<polygon fill="midnightblue" stroke="midnightblue" points="2045.36,-145.46 2035.35,-148.94 2045.34,-152.46 2045.36,-145.46"/>
</g>
<!-- Node31 -->
<g id="node31" class="node">
<title>Node31</title>
<g id="a_node31"><a xlink:href="Z2SoundMgr_8cpp.html" target="_top" xlink:title=" ">
<polygon fill="white" stroke="black" points="3513.5,-73 3513.5,-92 3674.5,-92 3674.5,-73 3513.5,-73"/>
<text text-anchor="middle" x="3594" y="-80" font-family="Helvetica,sans-Serif" font-size="10.00">libs/Z2AudioLib/Z2SoundMgr.cpp</text>
</a>
</g>
</g>
<!-- Node3&#45;&gt;Node31 -->
<g id="edge31" class="edge">
<title>Node3&#45;&gt;Node31</title>
<path fill="none" stroke="midnightblue" d="M2045.15,-147.19C2323.02,-142.6 3217.94,-125.96 3505,-98 3519.33,-96.6 3534.86,-94.34 3548.87,-92.01"/>
<polygon fill="midnightblue" stroke="midnightblue" points="2045.08,-143.69 2035.14,-147.36 2045.19,-150.69 2045.08,-143.69"/>
</g>
<!-- Node32 -->
<g id="node32" class="node">
<title>Node32</title>
<g id="a_node32"><a xlink:href="Z2StatusMgr_8cpp.html" target="_top" xlink:title=" ">
<polygon fill="white" stroke="black" points="3692.5,-67.5 3692.5,-97.5 3819.5,-97.5 3819.5,-67.5 3692.5,-67.5"/>
<text text-anchor="start" x="3700.5" y="-85.5" font-family="Helvetica,sans-Serif" font-size="10.00">libs/Z2AudioLib/Z2Status</text>
<text text-anchor="middle" x="3756" y="-74.5" font-family="Helvetica,sans-Serif" font-size="10.00">Mgr.cpp</text>
</a>
</g>
</g>
<!-- Node3&#45;&gt;Node32 -->
<g id="edge32" class="edge">
<title>Node3&#45;&gt;Node32</title>
<path fill="none" stroke="midnightblue" d="M2045.52,-147.93C2344.53,-145.58 3360.97,-134.99 3684,-98 3686.79,-97.68 3689.63,-97.31 3692.49,-96.9"/>
<polygon fill="midnightblue" stroke="midnightblue" points="2045.16,-144.43 2035.19,-148.01 2045.22,-151.43 2045.16,-144.43"/>
</g>
<!-- Node33 -->
<g id="node33" class="node">
<title>Node33</title>
<g id="a_node33"><a xlink:href="d__a__alink_8h.html" target="_top" xlink:title=" ">
<polygon fill="white" stroke="black" points="4005.5,-67.5 4005.5,-97.5 4124.5,-97.5 4124.5,-67.5 4005.5,-67.5"/>
<text text-anchor="start" x="4013.5" y="-85.5" font-family="Helvetica,sans-Serif" font-size="10.00">include/d/d_a/d_a_alink</text>
<text text-anchor="middle" x="4065" y="-74.5" font-family="Helvetica,sans-Serif" font-size="10.00">/d_a_alink.h</text>
</a>
</g>
</g>
<!-- Node3&#45;&gt;Node33 -->
<g id="edge33" class="edge">
<title>Node3&#45;&gt;Node33</title>
<path fill="none" stroke="midnightblue" d="M2045.69,-148.08C2377.08,-146.18 3598.01,-136.63 3983,-98 3990.19,-97.28 3997.7,-96.29 4005.13,-95.15"/>
<polygon fill="midnightblue" stroke="midnightblue" points="2045.19,-144.59 2035.21,-148.14 2045.23,-151.59 2045.19,-144.59"/>
</g>
<!-- Node36 -->
<g id="node36" class="node">
<title>Node36</title>
<g id="a_node36"><a xlink:href="d__item_8h.html" target="_top" xlink:title=" ">
<polygon fill="white" stroke="black" points="378,-67.5 378,-97.5 474,-97.5 474,-67.5 378,-67.5"/>
<text text-anchor="start" x="386" y="-85.5" font-family="Helvetica,sans-Serif" font-size="10.00">include/d/d_item/d</text>
<text text-anchor="middle" x="426" y="-74.5" font-family="Helvetica,sans-Serif" font-size="10.00">_item/d_item.h</text>
</a>
</g>
</g>
<!-- Node3&#45;&gt;Node36 -->
<g id="edge38" class="edge">
<title>Node3&#45;&gt;Node36</title>
<path fill="none" stroke="midnightblue" d="M1878.54,-148.01C1607.76,-146.04 755.46,-136.85 483,-98 480.07,-97.58 477.07,-97.07 474.06,-96.5"/>
<polygon fill="midnightblue" stroke="midnightblue" points="1878.67,-151.51 1888.7,-148.08 1878.72,-144.51 1878.67,-151.51"/>
</g>
<!-- Node37 -->
<g id="node37" class="node">
<title>Node37</title>
<g id="a_node37"><a xlink:href="f__pc__manager_8h.html" target="_top" xlink:title=" ">
<polygon fill="white" stroke="black" points="3876.5,-67.5 3876.5,-97.5 3973.5,-97.5 3973.5,-67.5 3876.5,-67.5"/>
<text text-anchor="start" x="3884.5" y="-85.5" font-family="Helvetica,sans-Serif" font-size="10.00">include/f/f_pc/f_pc</text>
<text text-anchor="middle" x="3925" y="-74.5" font-family="Helvetica,sans-Serif" font-size="10.00">_manager.h</text>
</a>
</g>
</g>
<!-- Node3&#45;&gt;Node37 -->
<g id="edge41" class="edge">
<title>Node3&#45;&gt;Node37</title>
<path fill="none" stroke="midnightblue" d="M2045.25,-148.5C2363.46,-148.14 3502.85,-143.64 3862,-98 3866.68,-97.41 3871.51,-96.62 3876.33,-95.71"/>
<polygon fill="midnightblue" stroke="midnightblue" points="2045.18,-145 2035.18,-148.51 2045.18,-152 2045.18,-145"/>
</g>
<!-- Node33&#45;&gt;Node4 -->
<g id="edge34" class="edge">
<title>Node33&#45;&gt;Node4</title>
<path fill="none" stroke="midnightblue" d="M4103.21,-62.97C4128.95,-50.48 4161.69,-34.6 4181.46,-25.01"/>
<polygon fill="midnightblue" stroke="midnightblue" points="4101.55,-59.88 4094.08,-67.4 4104.6,-66.18 4101.55,-59.88"/>
</g>
<!-- Node34 -->
<g id="node34" class="node">
<title>Node34</title>
<g id="a_node34"><a xlink:href="d__a__alink_8cpp.html" target="_top" xlink:title=" ">
<polygon fill="white" stroke="black" points="3865.5,-6 3865.5,-25 3984.5,-25 3984.5,-6 3865.5,-6"/>
<text text-anchor="middle" x="3925" y="-13" font-family="Helvetica,sans-Serif" font-size="10.00">src/d/d_a/d_a_alink.cpp</text>
</a>
</g>
</g>
<!-- Node33&#45;&gt;Node34 -->
<g id="edge35" class="edge">
<title>Node33&#45;&gt;Node34</title>
<path fill="none" stroke="midnightblue" d="M4025.44,-63.13C3998.49,-50.62 3964.07,-34.64 3943.32,-25.01"/>
<polygon fill="midnightblue" stroke="midnightblue" points="4024.08,-66.36 4034.62,-67.4 4027.03,-60.01 4024.08,-66.36"/>
</g>
<!-- Node35 -->
<g id="node35" class="node">
<title>Node35</title>
<g id="a_node35"><a xlink:href="d__a__player_8h.html" target="_top" xlink:title=" ">
<polygon fill="white" stroke="black" points="4003,-0.5 4003,-30.5 4127,-30.5 4127,-0.5 4003,-0.5"/>
<text text-anchor="start" x="4011" y="-18.5" font-family="Helvetica,sans-Serif" font-size="10.00">include/d/d_a/d_a_player</text>
<text text-anchor="middle" x="4065" y="-7.5" font-family="Helvetica,sans-Serif" font-size="10.00">/d_a_player.h</text>
</a>
</g>
</g>
<!-- Node33&#45;&gt;Node35 -->
<g id="edge36" class="edge">
<title>Node33&#45;&gt;Node35</title>
<path fill="none" stroke="midnightblue" d="M4058.45,-57.4C4058.01,-48.37 4058.3,-38.41 4059.33,-30.58"/>
<polygon fill="midnightblue" stroke="midnightblue" points="4054.97,-57.74 4059.32,-67.4 4061.94,-57.13 4054.97,-57.74"/>
</g>
<!-- Node35&#45;&gt;Node33 -->
<g id="edge37" class="edge">
<title>Node35&#45;&gt;Node33</title>
<path fill="none" stroke="midnightblue" d="M4071.54,-40.57C4071.99,-49.6 4071.71,-59.56 4070.68,-67.4"/>
<polygon fill="midnightblue" stroke="midnightblue" points="4075.03,-40.24 4070.67,-30.58 4068.05,-40.84 4075.03,-40.24"/>
</g>
<!-- Node36&#45;&gt;Node6 -->
<g id="edge39" class="edge">
<title>Node36&#45;&gt;Node6</title>
<path fill="none" stroke="midnightblue" d="M400.31,-60.88C388,-51.01 373.57,-39.43 362.54,-30.58"/>
<polygon fill="midnightblue" stroke="midnightblue" points="398.43,-63.87 408.42,-67.4 402.82,-58.41 398.43,-63.87"/>
</g>
<!-- Node36&#45;&gt;Node8 -->
<g id="edge40" class="edge">
<title>Node36&#45;&gt;Node8</title>
<path fill="none" stroke="midnightblue" d="M451.22,-61.01C466.07,-48.94 484.09,-34.3 495.3,-25.19"/>
<polygon fill="midnightblue" stroke="midnightblue" points="448.91,-58.37 443.36,-67.4 453.33,-63.81 448.91,-58.37"/>
</g>
<!-- Node37&#45;&gt;Node23 -->
<g id="edge42" class="edge">
<title>Node37&#45;&gt;Node23</title>
<path fill="none" stroke="midnightblue" d="M3883.55,-63.3C3855.01,-50.76 3818.4,-34.68 3796.37,-25.01"/>
<polygon fill="midnightblue" stroke="midnightblue" points="3882.32,-66.58 3892.89,-67.4 3885.14,-60.17 3882.32,-66.58"/>
</g>
<!-- Node37&#45;&gt;Node34 -->
<g id="edge43" class="edge">
<title>Node37&#45;&gt;Node34</title>
<path fill="none" stroke="midnightblue" d="M3925,-57.25C3925,-46.02 3925,-33.38 3925,-25.19"/>
<polygon fill="midnightblue" stroke="midnightblue" points="3921.5,-57.4 3925,-67.4 3928.5,-57.4 3921.5,-57.4"/>
</g>
</g>
</svg>
        <g id="navigator" transform="translate(0 0)" fill="#404254">
                <rect fill="#f2f5e9" fill-opacity="0.5" stroke="#606060" stroke-width=".5" x="0" y="0" width="60" height="60"/>
                <use id="zoomplus" xlink:href="#zoomPlus" x="17" y="9" onmousedown="handleZoom(evt,'in')"/>
                <use id="zoomminus" xlink:href="#zoomMin" x="42" y="9" onmousedown="handleZoom(evt,'out')"/>
                <use id="reset" xlink:href="#resetDef" x="30" y="36" onmousedown="handleReset()"/>
                <g id="arrowUp" xlink:href="#dirArrow" transform="translate(30 24)" onmousedown="handlePan(0,-1)">
                  <use xlink:href="#rim" fill="#404040">
                        <set attributeName="fill" to="#808080" begin="arrowUp.mouseover" end="arrowUp.mouseout"/>
                  </use>
                  <path fill="none" stroke="white" stroke-width="1.5" d="M0,-3.0v7 M-2.5,-0.5L0,-3.0L2.5,-0.5"/>
                </g>
                <g id="arrowRight" xlink:href="#dirArrow" transform="rotate(90) translate(36 -43)" onmousedown="handlePan(1,0)">
                  <use xlink:href="#rim" fill="#404040">
                        <set attributeName="fill" to="#808080" begin="arrowRight.mouseover" end="arrowRight.mouseout"/>
                  </use>
                  <path fill="none" stroke="white" stroke-width="1.5" d="M0,-3.0v7 M-2.5,-0.5L0,-3.0L2.5,-0.5"/>
                </g>
                <g id="arrowDown" xlink:href="#dirArrow" transform="rotate(180) translate(-30 -48)" onmousedown="handlePan(0,1)">
                  <use xlink:href="#rim" fill="#404040">
                        <set attributeName="fill" to="#808080" begin="arrowDown.mouseover" end="arrowDown.mouseout"/>
                  </use>
                  <path fill="none" stroke="white" stroke-width="1.5" d="M0,-3.0v7 M-2.5,-0.5L0,-3.0L2.5,-0.5"/>
                </g>
                <g id="arrowLeft" xlink:href="#dirArrow" transform="rotate(270) translate(-36 17)" onmousedown="handlePan(-1,0)">
                  <use xlink:href="#rim" fill="#404040">
                        <set attributeName="fill" to="#808080" begin="arrowLeft.mouseover" end="arrowLeft.mouseout"/>
                  </use>
                  <path fill="none" stroke="white" stroke-width="1.5" d="M0,-3.0v7 M-2.5,-0.5L0,-3.0L2.5,-0.5"/>
                </g>
        </g>
        <svg viewBox="0 0 15 15" width="100%" height="30px" preserveAspectRatio="xMaxYMin meet">
         <g id="arrow_out" transform="scale(0.3 0.3)">
          <a xlink:href="d__stage_8h__dep__incl_org.svg" target="_base">
           <rect id="button" ry="5" rx="5" y="6" x="6" height="38" width="38"
                fill="#f2f5e9" fill-opacity="0.5" stroke="#606060" stroke-width="1.0"/>
           <path id="arrow"
             d="M 11.500037,31.436501 C 11.940474,20.09759 22.043105,11.32322 32.158766,21.979434 L 37.068811,17.246167 C 37.068811,17.246167 37.088388,32 37.088388,32 L 22.160133,31.978069 C 22.160133,31.978069 26.997745,27.140456 26.997745,27.140456 C 18.528582,18.264221 13.291696,25.230495 11.500037,31.436501 z"
             style="fill:#404040;"/>
          </a>
         </g>
        </svg>
</svg>
