<?xml version="1.0" encoding="UTF-8" standalone="no"?>
<!DOCTYPE svg PUBLIC "-//W3C//DTD SVG 1.1//EN"
 "http://www.w3.org/Graphics/SVG/1.1/DTD/svg11.dtd">
<!-- Generated by graphviz version 2.46.1 (20210215.1649)
 -->
<!-- Title: include/d/d_save/d_save/d_save.h Pages: 1 -->
<svg width="5519pt" height="318pt"
 viewBox="0.00 0.00 5519.00 318.00" xmlns="http://www.w3.org/2000/svg" xmlns:xlink="http://www.w3.org/1999/xlink">
<g id="graph0" class="graph" transform="scale(1 1) rotate(0) translate(4 314)">
<title>include/d/d_save/d_save/d_save.h</title>
<polygon fill="white" stroke="transparent" points="-4,4 -4,-314 5515,-314 5515,4 -4,4"/>
<!-- Node1 -->
<g id="node1" class="node">
<title>Node1</title>
<g id="a_node1"><a xlink:title=" ">
<polygon fill="#bfbfbf" stroke="black" points="142.5,-279.5 142.5,-309.5 240.5,-309.5 240.5,-279.5 142.5,-279.5"/>
<text text-anchor="start" x="150.5" y="-297.5" font-family="Helvetica,sans-Serif" font-size="10.00">include/d/d_save/d</text>
<text text-anchor="middle" x="191.5" y="-286.5" font-family="Helvetica,sans-Serif" font-size="10.00">_save/d_save.h</text>
</a>
</g>
</g>
<!-- Node2 -->
<g id="node2" class="node">
<title>Node2</title>
<g id="a_node2"><a xlink:href="d__save_8cpp.html" target="_top" xlink:title=" ">
<polygon fill="white" stroke="black" points="0,-140 0,-159 125,-159 125,-140 0,-140"/>
<text text-anchor="middle" x="62.5" y="-147" font-family="Helvetica,sans-Serif" font-size="10.00">src/d/d_save/d_save.cpp</text>
</a>
</g>
</g>
<!-- Node1&#45;&gt;Node2 -->
<g id="edge1" class="edge">
<title>Node1&#45;&gt;Node2</title>
<path fill="none" stroke="midnightblue" d="M168.67,-272.33C159.4,-263.48 148.72,-252.95 139.5,-243 112.1,-213.41 82.25,-175.86 69.22,-159.17"/>
<polygon fill="midnightblue" stroke="midnightblue" points="166.39,-275 176.06,-279.32 171.2,-269.91 166.39,-275"/>
</g>
<!-- Node3 -->
<g id="node3" class="node">
<title>Node3</title>
<g id="a_node3"><a xlink:href="d__a__alink_8h.html" target="_top" xlink:title=" ">
<polygon fill="white" stroke="black" points="94,-67.5 94,-97.5 213,-97.5 213,-67.5 94,-67.5"/>
<text text-anchor="start" x="102" y="-85.5" font-family="Helvetica,sans-Serif" font-size="10.00">include/d/d_a/d_a_alink</text>
<text text-anchor="middle" x="153.5" y="-74.5" font-family="Helvetica,sans-Serif" font-size="10.00">/d_a_alink.h</text>
</a>
</g>
</g>
<!-- Node1&#45;&gt;Node3 -->
<g id="edge2" class="edge">
<title>Node1&#45;&gt;Node3</title>
<path fill="none" stroke="midnightblue" d="M181.22,-269.76C177.98,-261.43 174.68,-251.93 172.5,-243 159.68,-190.44 155.38,-125.94 154.05,-97.79"/>
<polygon fill="midnightblue" stroke="midnightblue" points="178.05,-271.26 185.06,-279.21 184.54,-268.63 178.05,-271.26"/>
</g>
<!-- Node6 -->
<g id="node6" class="node">
<title>Node6</title>
<g id="a_node6"><a xlink:href="d__com__inf__game_8h.html" target="_top" xlink:title=" ">
<polygon fill="white" stroke="black" points="2227.5,-207 2227.5,-237 2373.5,-237 2373.5,-207 2227.5,-207"/>
<text text-anchor="start" x="2235.5" y="-225" font-family="Helvetica,sans-Serif" font-size="10.00">include/d/d_com/d_com</text>
<text text-anchor="middle" x="2300.5" y="-214" font-family="Helvetica,sans-Serif" font-size="10.00">_inf_game/d_com_inf_game.h</text>
</a>
</g>
</g>
<!-- Node1&#45;&gt;Node6 -->
<g id="edge5" class="edge">
<title>Node1&#45;&gt;Node6</title>
<path fill="none" stroke="midnightblue" d="M250.74,-291.52C550.3,-281.51 1897,-236.49 2227.22,-225.45"/>
<polygon fill="midnightblue" stroke="midnightblue" points="250.4,-288.03 240.53,-291.86 250.64,-295.02 250.4,-288.03"/>
</g>
<!-- Node50 -->
<g id="node50" class="node">
<title>Node50</title>
<g id="a_node50"><a xlink:href="d__file__sel__info_8h.html" target="_top" xlink:title=" ">
<polygon fill="white" stroke="black" points="181.5,-201.5 181.5,-242.5 279.5,-242.5 279.5,-201.5 181.5,-201.5"/>
<text text-anchor="start" x="189.5" y="-230.5" font-family="Helvetica,sans-Serif" font-size="10.00">include/d/d_file/d</text>
<text text-anchor="start" x="189.5" y="-219.5" font-family="Helvetica,sans-Serif" font-size="10.00">_file_sel_info/d_file</text>
<text text-anchor="middle" x="230.5" y="-208.5" font-family="Helvetica,sans-Serif" font-size="10.00">_sel_info.h</text>
</a>
</g>
</g>
<!-- Node1&#45;&gt;Node50 -->
<g id="edge64" class="edge">
<title>Node1&#45;&gt;Node50</title>
<path fill="none" stroke="midnightblue" d="M204.27,-270.41C209.25,-261.42 214.89,-251.22 219.66,-242.59"/>
<polygon fill="midnightblue" stroke="midnightblue" points="201.17,-268.79 199.39,-279.23 207.3,-272.18 201.17,-268.79"/>
</g>
<!-- Node4 -->
<g id="node4" class="node">
<title>Node4</title>
<g id="a_node4"><a xlink:href="d__attention_8cpp.html" target="_top" xlink:title=" ">
<polygon fill="white" stroke="black" points="188,-6 188,-25 295,-25 295,-6 188,-6"/>
<text text-anchor="middle" x="241.5" y="-13" font-family="Helvetica,sans-Serif" font-size="10.00">src/d/d_attention.cpp</text>
</a>
</g>
</g>
<!-- Node3&#45;&gt;Node4 -->
<g id="edge3" class="edge">
<title>Node3&#45;&gt;Node4</title>
<path fill="none" stroke="midnightblue" d="M180.84,-61.31C197.36,-49.1 217.57,-34.18 229.98,-25.01"/>
<polygon fill="midnightblue" stroke="midnightblue" points="178.56,-58.64 172.59,-67.4 182.72,-64.27 178.56,-58.64"/>
</g>
<!-- Node5 -->
<g id="node5" class="node">
<title>Node5</title>
<g id="a_node5"><a xlink:href="d__a__alink_8cpp.html" target="_top" xlink:title=" ">
<polygon fill="white" stroke="black" points="354,-6 354,-25 473,-25 473,-6 354,-6"/>
<text text-anchor="middle" x="413.5" y="-13" font-family="Helvetica,sans-Serif" font-size="10.00">src/d/d_a/d_a_alink.cpp</text>
</a>
</g>
</g>
<!-- Node3&#45;&gt;Node5 -->
<g id="edge4" class="edge">
<title>Node3&#45;&gt;Node5</title>
<path fill="none" stroke="midnightblue" d="M219.54,-64.99C270.49,-52.25 338.91,-35.15 379.39,-25.03"/>
<polygon fill="midnightblue" stroke="midnightblue" points="218.45,-61.66 209.6,-67.48 220.15,-68.45 218.45,-61.66"/>
</g>
<!-- Node6&#45;&gt;Node2 -->
<g id="edge24" class="edge">
<title>Node6&#45;&gt;Node2</title>
<path fill="none" stroke="midnightblue" d="M2217.29,-219.96C1875.89,-215.53 581.38,-196.92 173.5,-165 155.67,-163.6 136.33,-161.34 118.85,-159.01"/>
<polygon fill="midnightblue" stroke="midnightblue" points="2217.31,-223.46 2227.35,-220.09 2217.4,-216.46 2217.31,-223.46"/>
</g>
<!-- Node6&#45;&gt;Node3 -->
<g id="edge45" class="edge">
<title>Node6&#45;&gt;Node3</title>
<path fill="none" stroke="midnightblue" d="M2217.28,-220.01C1853.16,-215.49 414.35,-195.76 323.5,-165 301.18,-157.44 301.16,-145.33 280.5,-134 253.66,-119.28 221.62,-106.58 196.44,-97.59"/>
<polygon fill="midnightblue" stroke="midnightblue" points="2217.44,-223.51 2227.48,-220.13 2217.52,-216.51 2217.44,-223.51"/>
</g>
<!-- Node6&#45;&gt;Node4 -->
<g id="edge6" class="edge">
<title>Node6&#45;&gt;Node4</title>
<path fill="none" stroke="midnightblue" d="M2217.08,-221.44C1906.46,-222.6 817.25,-222.39 475.5,-165 426.15,-156.71 294.57,-134.66 260.5,-98 241.51,-77.57 240.32,-41.94 240.91,-25.4"/>
<polygon fill="midnightblue" stroke="midnightblue" points="2217.38,-224.94 2227.36,-221.4 2217.35,-217.94 2217.38,-224.94"/>
</g>
<!-- Node7 -->
<g id="node7" class="node">
<title>Node7</title>
<g id="a_node7"><a xlink:href="d__camera_8cpp.html" target="_top" xlink:title=" ">
<polygon fill="white" stroke="black" points="594.5,-6 594.5,-25 696.5,-25 696.5,-6 594.5,-6"/>
<text text-anchor="middle" x="645.5" y="-13" font-family="Helvetica,sans-Serif" font-size="10.00">src/d/d_camera.cpp</text>
</a>
</g>
</g>
<!-- Node6&#45;&gt;Node7 -->
<g id="edge7" class="edge">
<title>Node6&#45;&gt;Node7</title>
<path fill="none" stroke="midnightblue" d="M2217.12,-221.35C1968.74,-221.78 1245.33,-218.39 1154.5,-165 1110.27,-139 1136.88,-94.39 1093.5,-67 1060.49,-46.16 806.86,-27.13 696.51,-19.75"/>
<polygon fill="midnightblue" stroke="midnightblue" points="2217.18,-224.85 2227.18,-221.33 2217.17,-217.85 2217.18,-224.85"/>
</g>
<!-- Node8 -->
<g id="node8" class="node">
<title>Node8</title>
<g id="a_node8"><a xlink:href="d__com__inf__game_8cpp.html" target="_top" xlink:title=" ">
<polygon fill="white" stroke="black" points="1255,-67.5 1255,-97.5 1374,-97.5 1374,-67.5 1255,-67.5"/>
<text text-anchor="start" x="1263" y="-85.5" font-family="Helvetica,sans-Serif" font-size="10.00">src/d/d_com/d_com_inf</text>
<text text-anchor="middle" x="1314.5" y="-74.5" font-family="Helvetica,sans-Serif" font-size="10.00">_game.cpp</text>
</a>
</g>
</g>
<!-- Node6&#45;&gt;Node8 -->
<g id="edge8" class="edge">
<title>Node6&#45;&gt;Node8</title>
<path fill="none" stroke="midnightblue" d="M2217.33,-219.35C2006.97,-214.69 1465.12,-199.45 1391.5,-165 1360.29,-150.4 1335.43,-117.03 1323.06,-97.82"/>
<polygon fill="midnightblue" stroke="midnightblue" points="2217.32,-222.85 2227.4,-219.57 2217.48,-215.85 2217.32,-222.85"/>
</g>
<!-- Node9 -->
<g id="node9" class="node">
<title>Node9</title>
<g id="a_node9"><a xlink:href="d__file__sel__info_8cpp.html" target="_top" xlink:title=" ">
<polygon fill="white" stroke="black" points="182,-134.5 182,-164.5 271,-164.5 271,-134.5 182,-134.5"/>
<text text-anchor="start" x="190" y="-152.5" font-family="Helvetica,sans-Serif" font-size="10.00">src/d/d_file/d_file</text>
<text text-anchor="middle" x="226.5" y="-141.5" font-family="Helvetica,sans-Serif" font-size="10.00">_sel_info.cpp</text>
</a>
</g>
</g>
<!-- Node6&#45;&gt;Node9 -->
<g id="edge9" class="edge">
<title>Node6&#45;&gt;Node9</title>
<path fill="none" stroke="midnightblue" d="M2216.97,-221.05C1886.23,-220.88 667.82,-216.69 285.5,-165 280.8,-164.36 275.92,-163.5 271.09,-162.52"/>
<polygon fill="midnightblue" stroke="midnightblue" points="2217.43,-224.55 2227.43,-221.05 2217.43,-217.55 2217.43,-224.55"/>
</g>
<!-- Node10 -->
<g id="node10" class="node">
<title>Node10</title>
<g id="a_node10"><a xlink:href="d__item_8cpp.html" target="_top" xlink:title=" ">
<polygon fill="white" stroke="black" points="1392,-73 1392,-92 1513,-92 1513,-73 1392,-73"/>
<text text-anchor="middle" x="1452.5" y="-80" font-family="Helvetica,sans-Serif" font-size="10.00">src/d/d_item/d_item.cpp</text>
</a>
</g>
</g>
<!-- Node6&#45;&gt;Node10 -->
<g id="edge10" class="edge">
<title>Node6&#45;&gt;Node10</title>
<path fill="none" stroke="midnightblue" d="M2217.33,-218.86C2000.04,-212.88 1430.17,-194.45 1402.5,-165 1380.79,-141.89 1419.31,-107.9 1440.27,-92.13"/>
<polygon fill="midnightblue" stroke="midnightblue" points="2217.31,-222.37 2227.4,-219.14 2217.5,-215.37 2217.31,-222.37"/>
</g>
<!-- Node11 -->
<g id="node11" class="node">
<title>Node11</title>
<g id="a_node11"><a xlink:href="d__kankyo__rain_8cpp.html" target="_top" xlink:title=" ">
<polygon fill="white" stroke="black" points="1445,-134.5 1445,-164.5 1572,-164.5 1572,-134.5 1445,-134.5"/>
<text text-anchor="start" x="1453" y="-152.5" font-family="Helvetica,sans-Serif" font-size="10.00">src/d/d_kankyo/d_kankyo</text>
<text text-anchor="middle" x="1508.5" y="-141.5" font-family="Helvetica,sans-Serif" font-size="10.00">_rain.cpp</text>
</a>
</g>
</g>
<!-- Node6&#45;&gt;Node11 -->
<g id="edge11" class="edge">
<title>Node6&#45;&gt;Node11</title>
<path fill="none" stroke="midnightblue" d="M2217.27,-217.72C2082.98,-211.71 1810.42,-196.54 1581.5,-165 1578.43,-164.58 1575.29,-164.11 1572.13,-163.6"/>
<polygon fill="midnightblue" stroke="midnightblue" points="2217.33,-221.23 2227.48,-218.17 2217.64,-214.23 2217.33,-221.23"/>
</g>
<!-- Node12 -->
<g id="node12" class="node">
<title>Node12</title>
<g id="a_node12"><a xlink:href="d__kankyo__wether_8cpp.html" target="_top" xlink:title=" ">
<polygon fill="white" stroke="black" points="1590,-134.5 1590,-164.5 1717,-164.5 1717,-134.5 1590,-134.5"/>
<text text-anchor="start" x="1598" y="-152.5" font-family="Helvetica,sans-Serif" font-size="10.00">src/d/d_kankyo/d_kankyo</text>
<text text-anchor="middle" x="1653.5" y="-141.5" font-family="Helvetica,sans-Serif" font-size="10.00">_wether.cpp</text>
</a>
</g>
</g>
<!-- Node6&#45;&gt;Node12 -->
<g id="edge12" class="edge">
<title>Node6&#45;&gt;Node12</title>
<path fill="none" stroke="midnightblue" d="M2217.06,-215.46C2105.07,-207.43 1900.11,-190.65 1726.5,-165 1723.43,-164.55 1720.3,-164.05 1717.14,-163.52"/>
<polygon fill="midnightblue" stroke="midnightblue" points="2217.05,-218.97 2227.28,-216.18 2217.55,-211.98 2217.05,-218.97"/>
</g>
<!-- Node13 -->
<g id="node13" class="node">
<title>Node13</title>
<g id="a_node13"><a xlink:href="d__kankyo_8cpp.html" target="_top" xlink:title=" ">
<polygon fill="white" stroke="black" points="1735,-140 1735,-159 1836,-159 1836,-140 1735,-140"/>
<text text-anchor="middle" x="1785.5" y="-147" font-family="Helvetica,sans-Serif" font-size="10.00">src/d/d_kankyo.cpp</text>
</a>
</g>
</g>
<!-- Node6&#45;&gt;Node13 -->
<g id="edge13" class="edge">
<title>Node6&#45;&gt;Node13</title>
<path fill="none" stroke="midnightblue" d="M2217.17,-213.64C2125.6,-204.87 1974.38,-188.42 1845.5,-165 1836.43,-163.35 1826.69,-161.17 1817.74,-159.01"/>
<polygon fill="midnightblue" stroke="midnightblue" points="2216.93,-217.13 2227.22,-214.59 2217.59,-210.16 2216.93,-217.13"/>
</g>
<!-- Node14 -->
<g id="node14" class="node">
<title>Node14</title>
<g id="a_node14"><a xlink:href="d__kantera__icon__meter_8cpp.html" target="_top" xlink:title=" ">
<polygon fill="white" stroke="black" points="1854,-134.5 1854,-164.5 1961,-164.5 1961,-134.5 1854,-134.5"/>
<text text-anchor="start" x="1862" y="-152.5" font-family="Helvetica,sans-Serif" font-size="10.00">src/d/d_kantera_icon</text>
<text text-anchor="middle" x="1907.5" y="-141.5" font-family="Helvetica,sans-Serif" font-size="10.00">_meter.cpp</text>
</a>
</g>
</g>
<!-- Node6&#45;&gt;Node14 -->
<g id="edge14" class="edge">
<title>Node6&#45;&gt;Node14</title>
<path fill="none" stroke="midnightblue" d="M2217.14,-208.23C2150.27,-197.65 2054.11,-181.7 1970.5,-165 1967.42,-164.38 1964.26,-163.73 1961.07,-163.05"/>
<polygon fill="midnightblue" stroke="midnightblue" points="2216.78,-211.71 2227.2,-209.81 2217.87,-204.8 2216.78,-211.71"/>
</g>
<!-- Node15 -->
<g id="node15" class="node">
<title>Node15</title>
<g id="a_node15"><a xlink:href="d__kyeff_8cpp.html" target="_top" xlink:title=" ">
<polygon fill="white" stroke="black" points="1979,-140 1979,-159 2092,-159 2092,-140 1979,-140"/>
<text text-anchor="middle" x="2035.5" y="-147" font-family="Helvetica,sans-Serif" font-size="10.00">src/d/d_ky/d_kyeff.cpp</text>
</a>
</g>
</g>
<!-- Node6&#45;&gt;Node15 -->
<g id="edge15" class="edge">
<title>Node6&#45;&gt;Node15</title>
<path fill="none" stroke="midnightblue" d="M2238.11,-204.4C2184.65,-190.18 2109.81,-170.27 2067.66,-159.05"/>
<polygon fill="midnightblue" stroke="midnightblue" points="2237.26,-207.8 2247.83,-206.99 2239.06,-201.03 2237.26,-207.8"/>
</g>
<!-- Node16 -->
<g id="node16" class="node">
<title>Node16</title>
<g id="a_node16"><a xlink:href="d__meter__button_8cpp.html" target="_top" xlink:title=" ">
<polygon fill="white" stroke="black" points="2110,-134.5 2110,-164.5 2225,-164.5 2225,-134.5 2110,-134.5"/>
<text text-anchor="start" x="2118" y="-152.5" font-family="Helvetica,sans-Serif" font-size="10.00">src/d/d_meter/d_meter</text>
<text text-anchor="middle" x="2167.5" y="-141.5" font-family="Helvetica,sans-Serif" font-size="10.00">_button.cpp</text>
</a>
</g>
</g>
<!-- Node6&#45;&gt;Node16 -->
<g id="edge16" class="edge">
<title>Node6&#45;&gt;Node16</title>
<path fill="none" stroke="midnightblue" d="M2265.06,-202.22C2242.75,-190.39 2214.42,-175.37 2194.05,-164.57"/>
<polygon fill="midnightblue" stroke="midnightblue" points="2263.43,-205.31 2273.91,-206.9 2266.71,-199.13 2263.43,-205.31"/>
</g>
<!-- Node17 -->
<g id="node17" class="node">
<title>Node17</title>
<g id="a_node17"><a xlink:href="d__meter__haihai_8cpp.html" target="_top" xlink:title=" ">
<polygon fill="white" stroke="black" points="2243,-134.5 2243,-164.5 2358,-164.5 2358,-134.5 2243,-134.5"/>
<text text-anchor="start" x="2251" y="-152.5" font-family="Helvetica,sans-Serif" font-size="10.00">src/d/d_meter/d_meter</text>
<text text-anchor="middle" x="2300.5" y="-141.5" font-family="Helvetica,sans-Serif" font-size="10.00">_haihai.cpp</text>
</a>
</g>
</g>
<!-- Node6&#45;&gt;Node17 -->
<g id="edge17" class="edge">
<title>Node6&#45;&gt;Node17</title>
<path fill="none" stroke="midnightblue" d="M2300.5,-196.73C2300.5,-186.07 2300.5,-173.91 2300.5,-164.75"/>
<polygon fill="midnightblue" stroke="midnightblue" points="2297,-196.73 2300.5,-206.73 2304,-196.73 2297,-196.73"/>
</g>
<!-- Node18 -->
<g id="node18" class="node">
<title>Node18</title>
<g id="a_node18"><a xlink:href="d__meter__hakusha_8cpp.html" target="_top" xlink:title=" ">
<polygon fill="white" stroke="black" points="2376,-134.5 2376,-164.5 2491,-164.5 2491,-134.5 2376,-134.5"/>
<text text-anchor="start" x="2384" y="-152.5" font-family="Helvetica,sans-Serif" font-size="10.00">src/d/d_meter/d_meter</text>
<text text-anchor="middle" x="2433.5" y="-141.5" font-family="Helvetica,sans-Serif" font-size="10.00">_hakusha.cpp</text>
</a>
</g>
</g>
<!-- Node6&#45;&gt;Node18 -->
<g id="edge18" class="edge">
<title>Node6&#45;&gt;Node18</title>
<path fill="none" stroke="midnightblue" d="M2335.94,-202.22C2358.25,-190.39 2386.58,-175.37 2406.95,-164.57"/>
<polygon fill="midnightblue" stroke="midnightblue" points="2334.29,-199.13 2327.09,-206.9 2337.57,-205.31 2334.29,-199.13"/>
</g>
<!-- Node19 -->
<g id="node19" class="node">
<title>Node19</title>
<g id="a_node19"><a xlink:href="d__meter__map_8cpp.html" target="_top" xlink:title=" ">
<polygon fill="white" stroke="black" points="2509,-134.5 2509,-164.5 2624,-164.5 2624,-134.5 2509,-134.5"/>
<text text-anchor="start" x="2517" y="-152.5" font-family="Helvetica,sans-Serif" font-size="10.00">src/d/d_meter/d_meter</text>
<text text-anchor="middle" x="2566.5" y="-141.5" font-family="Helvetica,sans-Serif" font-size="10.00">_map.cpp</text>
</a>
</g>
</g>
<!-- Node6&#45;&gt;Node19 -->
<g id="edge19" class="edge">
<title>Node6&#45;&gt;Node19</title>
<path fill="none" stroke="midnightblue" d="M2363.16,-204.39C2408.81,-192.29 2469.98,-176.08 2513.27,-164.61"/>
<polygon fill="midnightblue" stroke="midnightblue" points="2362.14,-201.04 2353.37,-206.99 2363.93,-207.81 2362.14,-201.04"/>
</g>
<!-- Node20 -->
<g id="node20" class="node">
<title>Node20</title>
<g id="a_node20"><a xlink:href="d__meter__string_8cpp.html" target="_top" xlink:title=" ">
<polygon fill="white" stroke="black" points="2642,-134.5 2642,-164.5 2757,-164.5 2757,-134.5 2642,-134.5"/>
<text text-anchor="start" x="2650" y="-152.5" font-family="Helvetica,sans-Serif" font-size="10.00">src/d/d_meter/d_meter</text>
<text text-anchor="middle" x="2699.5" y="-141.5" font-family="Helvetica,sans-Serif" font-size="10.00">_string.cpp</text>
</a>
</g>
</g>
<!-- Node6&#45;&gt;Node20 -->
<g id="edge20" class="edge">
<title>Node6&#45;&gt;Node20</title>
<path fill="none" stroke="midnightblue" d="M2383.92,-208.15C2451.4,-197.47 2548.79,-181.42 2633.5,-165 2636.26,-164.46 2639.09,-163.9 2641.94,-163.32"/>
<polygon fill="midnightblue" stroke="midnightblue" points="2383.1,-204.73 2373.77,-209.75 2384.19,-211.65 2383.1,-204.73"/>
</g>
<!-- Node21 -->
<g id="node21" class="node">
<title>Node21</title>
<g id="a_node21"><a xlink:href="d__meter2__draw_8cpp.html" target="_top" xlink:title=" ">
<polygon fill="white" stroke="black" points="2775,-134.5 2775,-164.5 2900,-164.5 2900,-134.5 2775,-134.5"/>
<text text-anchor="start" x="2783" y="-152.5" font-family="Helvetica,sans-Serif" font-size="10.00">src/d/d_meter2/d_meter2</text>
<text text-anchor="middle" x="2837.5" y="-141.5" font-family="Helvetica,sans-Serif" font-size="10.00">_draw.cpp</text>
</a>
</g>
</g>
<!-- Node6&#45;&gt;Node21 -->
<g id="edge21" class="edge">
<title>Node6&#45;&gt;Node21</title>
<path fill="none" stroke="midnightblue" d="M2383.77,-213.07C2477.22,-203.69 2633.21,-186.58 2766.5,-165 2769.23,-164.56 2772.02,-164.08 2774.83,-163.59"/>
<polygon fill="midnightblue" stroke="midnightblue" points="2383.41,-209.59 2373.81,-214.06 2384.1,-216.55 2383.41,-209.59"/>
</g>
<!-- Node22 -->
<g id="node22" class="node">
<title>Node22</title>
<g id="a_node22"><a xlink:href="d__meter2__info_8cpp.html" target="_top" xlink:title=" ">
<polygon fill="white" stroke="black" points="2918,-134.5 2918,-164.5 3043,-164.5 3043,-134.5 2918,-134.5"/>
<text text-anchor="start" x="2926" y="-152.5" font-family="Helvetica,sans-Serif" font-size="10.00">src/d/d_meter2/d_meter2</text>
<text text-anchor="middle" x="2980.5" y="-141.5" font-family="Helvetica,sans-Serif" font-size="10.00">_info.cpp</text>
</a>
</g>
</g>
<!-- Node6&#45;&gt;Node22 -->
<g id="edge22" class="edge">
<title>Node6&#45;&gt;Node22</title>
<path fill="none" stroke="midnightblue" d="M2383.95,-216.24C2501.6,-208.86 2722.73,-192.57 2909.5,-165 2912.24,-164.6 2915.03,-164.15 2917.85,-163.68"/>
<polygon fill="midnightblue" stroke="midnightblue" points="2383.69,-212.75 2373.93,-216.86 2384.13,-219.73 2383.69,-212.75"/>
</g>
<!-- Node23 -->
<g id="node23" class="node">
<title>Node23</title>
<g id="a_node23"><a xlink:href="d__meter2_8cpp.html" target="_top" xlink:title=" ">
<polygon fill="white" stroke="black" points="3061.5,-140 3061.5,-159 3161.5,-159 3161.5,-140 3061.5,-140"/>
<text text-anchor="middle" x="3111.5" y="-147" font-family="Helvetica,sans-Serif" font-size="10.00">src/d/d_meter2.cpp</text>
</a>
</g>
</g>
<!-- Node6&#45;&gt;Node23 -->
<g id="edge23" class="edge">
<title>Node6&#45;&gt;Node23</title>
<path fill="none" stroke="midnightblue" d="M2383.73,-219.33C2522.97,-215.51 2811.58,-203.3 3052.5,-165 3061.88,-163.51 3071.95,-161.27 3081.08,-159"/>
<polygon fill="midnightblue" stroke="midnightblue" points="2383.46,-215.83 2373.56,-219.6 2383.65,-222.83 2383.46,-215.83"/>
</g>
<!-- Node24 -->
<g id="node24" class="node">
<title>Node24</title>
<g id="a_node24"><a xlink:href="d__save__HIO_8cpp.html" target="_top" xlink:title=" ">
<polygon fill="white" stroke="black" points="3180,-134.5 3180,-164.5 3287,-164.5 3287,-134.5 3180,-134.5"/>
<text text-anchor="start" x="3188" y="-152.5" font-family="Helvetica,sans-Serif" font-size="10.00">src/d/d_save/d_save</text>
<text text-anchor="middle" x="3233.5" y="-141.5" font-family="Helvetica,sans-Serif" font-size="10.00">_HIO.cpp</text>
</a>
</g>
</g>
<!-- Node6&#45;&gt;Node24 -->
<g id="edge25" class="edge">
<title>Node6&#45;&gt;Node24</title>
<path fill="none" stroke="midnightblue" d="M2384.09,-220.11C2539.68,-217.46 2883.93,-206.92 3170.5,-165 3173.61,-164.55 3176.79,-164.02 3180,-163.44"/>
<polygon fill="midnightblue" stroke="midnightblue" points="2383.61,-216.62 2373.67,-220.28 2383.73,-223.62 2383.61,-216.62"/>
</g>
<!-- Node25 -->
<g id="node25" class="node">
<title>Node25</title>
<g id="a_node25"><a xlink:href="d__stage_8cpp.html" target="_top" xlink:title=" ">
<polygon fill="white" stroke="black" points="919.5,-6 919.5,-25 1013.5,-25 1013.5,-6 919.5,-6"/>
<text text-anchor="middle" x="966.5" y="-13" font-family="Helvetica,sans-Serif" font-size="10.00">src/d/d_stage.cpp</text>
</a>
</g>
</g>
<!-- Node6&#45;&gt;Node25 -->
<g id="edge26" class="edge">
<title>Node6&#45;&gt;Node25</title>
<path fill="none" stroke="midnightblue" d="M2217.09,-221.36C1972.87,-221.77 1270.96,-218.27 1183.5,-165 1140.47,-138.79 1165.84,-98.48 1126.5,-67 1094.09,-41.07 1048.19,-28.36 1013.85,-22.18"/>
<polygon fill="midnightblue" stroke="midnightblue" points="2217.34,-224.86 2227.33,-221.34 2217.33,-217.86 2217.34,-224.86"/>
</g>
<!-- Node26 -->
<g id="node26" class="node">
<title>Node26</title>
<g id="a_node26"><a xlink:href="f__op__actor__mng_8cpp.html" target="_top" xlink:title=" ">
<polygon fill="white" stroke="black" points="1135,-0.5 1135,-30.5 1242,-30.5 1242,-0.5 1135,-0.5"/>
<text text-anchor="start" x="1143" y="-18.5" font-family="Helvetica,sans-Serif" font-size="10.00">src/f/f_op/f_op_actor</text>
<text text-anchor="middle" x="1188.5" y="-7.5" font-family="Helvetica,sans-Serif" font-size="10.00">_mng.cpp</text>
</a>
</g>
</g>
<!-- Node6&#45;&gt;Node26 -->
<g id="edge27" class="edge">
<title>Node6&#45;&gt;Node26</title>
<path fill="none" stroke="midnightblue" d="M2217.35,-219.63C1968.49,-215.14 1244.4,-199.19 1207.5,-165 1169.75,-130.02 1179.03,-60.32 1185.17,-30.53"/>
<polygon fill="midnightblue" stroke="midnightblue" points="2217.36,-223.13 2227.42,-219.81 2217.49,-216.13 2217.36,-223.13"/>
</g>
<!-- Node27 -->
<g id="node27" class="node">
<title>Node27</title>
<g id="a_node27"><a xlink:href="f__op__camera_8cpp.html" target="_top" xlink:title=" ">
<polygon fill="white" stroke="black" points="3305,-140 3305,-159 3440,-159 3440,-140 3305,-140"/>
<text text-anchor="middle" x="3372.5" y="-147" font-family="Helvetica,sans-Serif" font-size="10.00">src/f/f_op/f_op_camera.cpp</text>
</a>
</g>
</g>
<!-- Node6&#45;&gt;Node27 -->
<g id="edge28" class="edge">
<title>Node6&#45;&gt;Node27</title>
<path fill="none" stroke="midnightblue" d="M2383.8,-220.03C2555.26,-217.23 2959.8,-206.4 3296.5,-165 3308.5,-163.52 3321.45,-161.29 3333.21,-159.02"/>
<polygon fill="midnightblue" stroke="midnightblue" points="2383.53,-216.54 2373.59,-220.2 2383.64,-223.54 2383.53,-216.54"/>
</g>
<!-- Node28 -->
<g id="node28" class="node">
<title>Node28</title>
<g id="a_node28"><a xlink:href="f__op__kankyo_8cpp.html" target="_top" xlink:title=" ">
<polygon fill="white" stroke="black" points="3458.5,-140 3458.5,-159 3592.5,-159 3592.5,-140 3458.5,-140"/>
<text text-anchor="middle" x="3525.5" y="-147" font-family="Helvetica,sans-Serif" font-size="10.00">src/f/f_op/f_op_kankyo.cpp</text>
</a>
</g>
</g>
<!-- Node6&#45;&gt;Node28 -->
<g id="edge29" class="edge">
<title>Node6&#45;&gt;Node28</title>
<path fill="none" stroke="midnightblue" d="M2383.91,-220.92C2573.77,-219.87 3052.49,-212.31 3449.5,-165 3461.64,-163.55 3474.75,-161.3 3486.61,-159"/>
<polygon fill="midnightblue" stroke="midnightblue" points="2383.7,-217.42 2373.72,-220.97 2383.74,-224.42 2383.7,-217.42"/>
</g>
<!-- Node29 -->
<g id="node29" class="node">
<title>Node29</title>
<g id="a_node29"><a xlink:href="f__op__kankyo__mng_8cpp.html" target="_top" xlink:title=" ">
<polygon fill="white" stroke="black" points="269.5,-67.5 269.5,-97.5 385.5,-97.5 385.5,-67.5 269.5,-67.5"/>
<text text-anchor="start" x="277.5" y="-85.5" font-family="Helvetica,sans-Serif" font-size="10.00">src/f/f_op/f_op_kankyo</text>
<text text-anchor="middle" x="327.5" y="-74.5" font-family="Helvetica,sans-Serif" font-size="10.00">_mng.cpp</text>
</a>
</g>
</g>
<!-- Node6&#45;&gt;Node29 -->
<g id="edge30" class="edge">
<title>Node6&#45;&gt;Node29</title>
<path fill="none" stroke="midnightblue" d="M2217.2,-220.89C1922.52,-220.08 930.2,-213.71 616.5,-165 524.81,-150.76 420.9,-116.92 366.1,-97.62"/>
<polygon fill="midnightblue" stroke="midnightblue" points="2217.38,-224.39 2227.39,-220.91 2217.4,-217.39 2217.38,-224.39"/>
</g>
<!-- Node30 -->
<g id="node30" class="node">
<title>Node30</title>
<g id="a_node30"><a xlink:href="f__op__msg__mng_8cpp.html" target="_top" xlink:title=" ">
<polygon fill="white" stroke="black" points="3610.5,-134.5 3610.5,-164.5 3714.5,-164.5 3714.5,-134.5 3610.5,-134.5"/>
<text text-anchor="start" x="3618.5" y="-152.5" font-family="Helvetica,sans-Serif" font-size="10.00">src/f/f_op/f_op_msg</text>
<text text-anchor="middle" x="3662.5" y="-141.5" font-family="Helvetica,sans-Serif" font-size="10.00">_mng.cpp</text>
</a>
</g>
</g>
<!-- Node6&#45;&gt;Node30 -->
<g id="edge31" class="edge">
<title>Node6&#45;&gt;Node30</title>
<path fill="none" stroke="midnightblue" d="M2383.93,-219.49C2632.41,-214.64 3364.9,-197.91 3601.5,-165 3604.41,-164.6 3607.39,-164.11 3610.38,-163.58"/>
<polygon fill="midnightblue" stroke="midnightblue" points="2383.81,-215.99 2373.88,-219.68 2383.95,-222.99 2383.81,-215.99"/>
</g>
<!-- Node31 -->
<g id="node31" class="node">
<title>Node31</title>
<g id="a_node31"><a xlink:href="f__pc__manager_8cpp.html" target="_top" xlink:title=" ">
<polygon fill="white" stroke="black" points="944.5,-73 944.5,-92 1084.5,-92 1084.5,-73 944.5,-73"/>
<text text-anchor="middle" x="1014.5" y="-80" font-family="Helvetica,sans-Serif" font-size="10.00">src/f/f_pc/f_pc_manager.cpp</text>
</a>
</g>
</g>
<!-- Node6&#45;&gt;Node31 -->
<g id="edge32" class="edge">
<title>Node6&#45;&gt;Node31</title>
<path fill="none" stroke="midnightblue" d="M2216.75,-220.51C1960.83,-218.56 1200.32,-209.06 1098.5,-165 1061.95,-149.18 1032.13,-109.81 1020.16,-92.23"/>
<polygon fill="midnightblue" stroke="midnightblue" points="2217.07,-224.02 2227.1,-220.59 2217.12,-217.02 2217.07,-224.02"/>
</g>
<!-- Node32 -->
<g id="node32" class="node">
<title>Node32</title>
<g id="a_node32"><a xlink:href="m__Do__audio_8cpp.html" target="_top" xlink:title=" ">
<polygon fill="white" stroke="black" points="3732.5,-140 3732.5,-159 3866.5,-159 3866.5,-140 3732.5,-140"/>
<text text-anchor="middle" x="3799.5" y="-147" font-family="Helvetica,sans-Serif" font-size="10.00">src/m_Do/m_Do_audio.cpp</text>
</a>
</g>
</g>
<!-- Node6&#45;&gt;Node32 -->
<g id="edge33" class="edge">
<title>Node6&#45;&gt;Node32</title>
<path fill="none" stroke="midnightblue" d="M2383.83,-219.36C2647.47,-213.89 3461.41,-194.99 3723.5,-165 3735.64,-163.61 3748.76,-161.38 3760.62,-159.07"/>
<polygon fill="midnightblue" stroke="midnightblue" points="2383.49,-215.86 2373.56,-219.57 2383.63,-222.86 2383.49,-215.86"/>
</g>
<!-- Node33 -->
<g id="node33" class="node">
<title>Node33</title>
<g id="a_node33"><a xlink:href="m__Do__graphic_8cpp.html" target="_top" xlink:title=" ">
<polygon fill="white" stroke="black" points="3884.5,-140 3884.5,-159 4026.5,-159 4026.5,-140 3884.5,-140"/>
<text text-anchor="middle" x="3955.5" y="-147" font-family="Helvetica,sans-Serif" font-size="10.00">src/m_Do/m_Do_graphic.cpp</text>
</a>
</g>
</g>
<!-- Node6&#45;&gt;Node33 -->
<g id="edge34" class="edge">
<title>Node6&#45;&gt;Node33</title>
<path fill="none" stroke="midnightblue" d="M2383.94,-219.62C2665.95,-214.7 3582.27,-196.62 3875.5,-165 3888.41,-163.61 3902.37,-161.34 3914.97,-159.01"/>
<polygon fill="midnightblue" stroke="midnightblue" points="2383.72,-216.12 2373.78,-219.79 2383.84,-223.12 2383.72,-216.12"/>
</g>
<!-- Node34 -->
<g id="node34" class="node">
<title>Node34</title>
<g id="a_node34"><a xlink:href="m__Do__lib_8cpp.html" target="_top" xlink:title=" ">
<polygon fill="white" stroke="black" points="4044.5,-140 4044.5,-159 4164.5,-159 4164.5,-140 4044.5,-140"/>
<text text-anchor="middle" x="4104.5" y="-147" font-family="Helvetica,sans-Serif" font-size="10.00">src/m_Do/m_Do_lib.cpp</text>
</a>
</g>
</g>
<!-- Node6&#45;&gt;Node34 -->
<g id="edge35" class="edge">
<title>Node6&#45;&gt;Node34</title>
<path fill="none" stroke="midnightblue" d="M2384.15,-220.24C2684.81,-217.2 3710.03,-204.14 4035.5,-165 4046.68,-163.66 4058.74,-161.4 4069.6,-159.07"/>
<polygon fill="midnightblue" stroke="midnightblue" points="2383.73,-216.74 2373.77,-220.34 2383.8,-223.74 2383.73,-216.74"/>
</g>
<!-- Node35 -->
<g id="node35" class="node">
<title>Node35</title>
<g id="a_node35"><a xlink:href="m__Do__machine__exception_8cpp.html" target="_top" xlink:title=" ">
<polygon fill="white" stroke="black" points="4183,-134.5 4183,-164.5 4312,-164.5 4312,-134.5 4183,-134.5"/>
<text text-anchor="start" x="4191" y="-152.5" font-family="Helvetica,sans-Serif" font-size="10.00">src/m_Do/m_Do_machine</text>
<text text-anchor="middle" x="4247.5" y="-141.5" font-family="Helvetica,sans-Serif" font-size="10.00">_exception.cpp</text>
</a>
</g>
</g>
<!-- Node6&#45;&gt;Node35 -->
<g id="edge36" class="edge">
<title>Node6&#45;&gt;Node35</title>
<path fill="none" stroke="midnightblue" d="M2384.06,-220.32C2699.7,-217.47 3819.38,-204.72 4173.5,-165 4176.49,-164.66 4179.54,-164.27 4182.62,-163.84"/>
<polygon fill="midnightblue" stroke="midnightblue" points="2383.59,-216.82 2373.62,-220.41 2383.65,-223.82 2383.59,-216.82"/>
</g>
<!-- Node36 -->
<g id="node36" class="node">
<title>Node36</title>
<g id="a_node36"><a xlink:href="m__Do__main_8cpp.html" target="_top" xlink:title=" ">
<polygon fill="white" stroke="black" points="1368,-6 1368,-25 1499,-25 1499,-6 1368,-6"/>
<text text-anchor="middle" x="1433.5" y="-13" font-family="Helvetica,sans-Serif" font-size="10.00">src/m_Do/m_Do_main.cpp</text>
</a>
</g>
</g>
<!-- Node6&#45;&gt;Node36 -->
<g id="edge37" class="edge">
<title>Node6&#45;&gt;Node36</title>
<path fill="none" stroke="midnightblue" d="M2217.15,-218.65C2005.66,-212.27 1462.95,-193.22 1436.5,-165 1386.42,-111.57 1499.26,-132.92 1522.5,-98 1530.13,-86.53 1529.43,-78.91 1522.5,-67 1510.07,-45.66 1484.9,-32.61 1464.49,-25.13"/>
<polygon fill="midnightblue" stroke="midnightblue" points="2217.17,-222.15 2227.27,-218.95 2217.38,-215.15 2217.17,-222.15"/>
</g>
<!-- Node37 -->
<g id="node37" class="node">
<title>Node37</title>
<g id="a_node37"><a xlink:href="m__Do__MemCardRWmng_8cpp.html" target="_top" xlink:title=" ">
<polygon fill="white" stroke="black" points="4330,-140 4330,-159 4517,-159 4517,-140 4330,-140"/>
<text text-anchor="middle" x="4423.5" y="-147" font-family="Helvetica,sans-Serif" font-size="10.00">src/m_Do/m_Do_MemCardRWmng.cpp</text>
</a>
</g>
</g>
<!-- Node6&#45;&gt;Node37 -->
<g id="edge38" class="edge">
<title>Node6&#45;&gt;Node37</title>
<path fill="none" stroke="midnightblue" d="M2384.15,-219.95C2715.42,-215.6 3935.93,-197.64 4321.5,-165 4337.9,-163.61 4355.68,-161.35 4371.74,-159.02"/>
<polygon fill="midnightblue" stroke="midnightblue" points="2383.63,-216.46 2373.68,-220.09 2383.72,-223.46 2383.63,-216.46"/>
</g>
<!-- Node38 -->
<g id="node38" class="node">
<title>Node38</title>
<g id="a_node38"><a xlink:href="m__Do__ext_8cpp.html" target="_top" xlink:title=" ">
<polygon fill="white" stroke="black" points="4535,-140 4535,-159 4658,-159 4658,-140 4535,-140"/>
<text text-anchor="middle" x="4596.5" y="-147" font-family="Helvetica,sans-Serif" font-size="10.00">src/m_Do/m_Do_ext.cpp</text>
</a>
</g>
</g>
<!-- Node6&#45;&gt;Node38 -->
<g id="edge39" class="edge">
<title>Node6&#45;&gt;Node38</title>
<path fill="none" stroke="midnightblue" d="M2383.84,-220.9C2735.51,-220.17 4099.62,-214.18 4526.5,-165 4537.97,-163.68 4550.34,-161.4 4561.45,-159.04"/>
<polygon fill="midnightblue" stroke="midnightblue" points="2383.73,-217.4 2373.73,-220.92 2383.74,-224.4 2383.73,-217.4"/>
</g>
<!-- Node39 -->
<g id="node39" class="node">
<title>Node39</title>
<g id="a_node39"><a xlink:href="Z2EnvSeMgr_8cpp.html" target="_top" xlink:title=" ">
<polygon fill="white" stroke="black" points="4676,-140 4676,-159 4837,-159 4837,-140 4676,-140"/>
<text text-anchor="middle" x="4756.5" y="-147" font-family="Helvetica,sans-Serif" font-size="10.00">libs/Z2AudioLib/Z2EnvSeMgr.cpp</text>
</a>
</g>
</g>
<!-- Node6&#45;&gt;Node39 -->
<g id="edge40" class="edge">
<title>Node6&#45;&gt;Node39</title>
<path fill="none" stroke="midnightblue" d="M2383.87,-220.57C2749.14,-218.45 4210.42,-207.44 4667.5,-165 4682,-163.65 4697.71,-161.37 4711.83,-159.01"/>
<polygon fill="midnightblue" stroke="midnightblue" points="2383.62,-217.07 2373.64,-220.63 2383.66,-224.07 2383.62,-217.07"/>
</g>
<!-- Node40 -->
<g id="node40" class="node">
<title>Node40</title>
<g id="a_node40"><a xlink:href="Z2SceneMgr_8cpp.html" target="_top" xlink:title=" ">
<polygon fill="white" stroke="black" points="4855,-140 4855,-159 5016,-159 5016,-140 4855,-140"/>
<text text-anchor="middle" x="4935.5" y="-147" font-family="Helvetica,sans-Serif" font-size="10.00">libs/Z2AudioLib/Z2SceneMgr.cpp</text>
</a>
</g>
</g>
<!-- Node6&#45;&gt;Node40 -->
<g id="edge41" class="edge">
<title>Node6&#45;&gt;Node40</title>
<path fill="none" stroke="midnightblue" d="M2383.81,-220.73C2765.79,-219.26 4352.14,-210.48 4846.5,-165 4861,-163.67 4876.71,-161.39 4890.84,-159.03"/>
<polygon fill="midnightblue" stroke="midnightblue" points="2383.66,-217.23 2373.67,-220.77 2383.68,-224.23 2383.66,-217.23"/>
</g>
<!-- Node41 -->
<g id="node41" class="node">
<title>Node41</title>
<g id="a_node41"><a xlink:href="Z2LinkMgr_8cpp.html" target="_top" xlink:title=" ">
<polygon fill="white" stroke="black" points="5034.5,-140 5034.5,-159 5186.5,-159 5186.5,-140 5034.5,-140"/>
<text text-anchor="middle" x="5110.5" y="-147" font-family="Helvetica,sans-Serif" font-size="10.00">libs/Z2AudioLib/Z2LinkMgr.cpp</text>
</a>
</g>
</g>
<!-- Node6&#45;&gt;Node41 -->
<g id="edge42" class="edge">
<title>Node6&#45;&gt;Node41</title>
<path fill="none" stroke="midnightblue" d="M2384.05,-220.96C2782.69,-220.48 4494.08,-215.51 5025.5,-165 5039.36,-163.68 5054.37,-161.41 5067.86,-159.05"/>
<polygon fill="midnightblue" stroke="midnightblue" points="2383.75,-217.46 2373.75,-220.97 2383.76,-224.46 2383.75,-217.46"/>
</g>
<!-- Node42 -->
<g id="node42" class="node">
<title>Node42</title>
<g id="a_node42"><a xlink:href="Z2SoundMgr_8cpp.html" target="_top" xlink:title=" ">
<polygon fill="white" stroke="black" points="5205,-140 5205,-159 5366,-159 5366,-140 5205,-140"/>
<text text-anchor="middle" x="5285.5" y="-147" font-family="Helvetica,sans-Serif" font-size="10.00">libs/Z2AudioLib/Z2SoundMgr.cpp</text>
</a>
</g>
</g>
<!-- Node6&#45;&gt;Node42 -->
<g id="edge43" class="edge">
<title>Node6&#45;&gt;Node42</title>
<path fill="none" stroke="midnightblue" d="M2383.81,-220.97C2796.91,-220.57 4628.22,-215.93 5195.5,-165 5210.16,-163.68 5226.05,-161.41 5240.33,-159.05"/>
<polygon fill="midnightblue" stroke="midnightblue" points="2383.74,-217.47 2373.74,-220.98 2383.74,-224.47 2383.74,-217.47"/>
</g>
<!-- Node43 -->
<g id="node43" class="node">
<title>Node43</title>
<g id="a_node43"><a xlink:href="Z2StatusMgr_8cpp.html" target="_top" xlink:title=" ">
<polygon fill="white" stroke="black" points="5384,-134.5 5384,-164.5 5511,-164.5 5511,-134.5 5384,-134.5"/>
<text text-anchor="start" x="5392" y="-152.5" font-family="Helvetica,sans-Serif" font-size="10.00">libs/Z2AudioLib/Z2Status</text>
<text text-anchor="middle" x="5447.5" y="-141.5" font-family="Helvetica,sans-Serif" font-size="10.00">Mgr.cpp</text>
</a>
</g>
</g>
<!-- Node6&#45;&gt;Node43 -->
<g id="edge44" class="edge">
<title>Node6&#45;&gt;Node43</title>
<path fill="none" stroke="midnightblue" d="M2383.86,-220.38C2844.74,-216.84 5071.2,-198.14 5375.5,-165 5378.29,-164.7 5381.13,-164.34 5383.99,-163.94"/>
<polygon fill="midnightblue" stroke="midnightblue" points="2383.6,-216.88 2373.62,-220.46 2383.65,-223.88 2383.6,-216.88"/>
</g>
<!-- Node44 -->
<g id="node44" class="node">
<title>Node44</title>
<g id="a_node44"><a xlink:href="d__item_8h.html" target="_top" xlink:title=" ">
<polygon fill="white" stroke="black" points="1216.5,-134.5 1216.5,-164.5 1312.5,-164.5 1312.5,-134.5 1216.5,-134.5"/>
<text text-anchor="start" x="1224.5" y="-152.5" font-family="Helvetica,sans-Serif" font-size="10.00">include/d/d_item/d</text>
<text text-anchor="middle" x="1264.5" y="-141.5" font-family="Helvetica,sans-Serif" font-size="10.00">_item/d_item.h</text>
</a>
</g>
</g>
<!-- Node6&#45;&gt;Node44 -->
<g id="edge46" class="edge">
<title>Node6&#45;&gt;Node44</title>
<path fill="none" stroke="midnightblue" d="M2217.31,-221.03C2048.47,-220.04 1653.82,-212.32 1326.5,-165 1322.01,-164.35 1317.38,-163.54 1312.75,-162.63"/>
<polygon fill="midnightblue" stroke="midnightblue" points="2217.35,-224.53 2227.37,-221.08 2217.39,-217.53 2217.35,-224.53"/>
</g>
<!-- Node45 -->
<g id="node45" class="node">
<title>Node45</title>
<g id="a_node45"><a xlink:href="f__pc__manager_8h.html" target="_top" xlink:title=" ">
<polygon fill="white" stroke="black" points="625,-134.5 625,-164.5 722,-164.5 722,-134.5 625,-134.5"/>
<text text-anchor="start" x="633" y="-152.5" font-family="Helvetica,sans-Serif" font-size="10.00">include/f/f_pc/f_pc</text>
<text text-anchor="middle" x="673.5" y="-141.5" font-family="Helvetica,sans-Serif" font-size="10.00">_manager.h</text>
</a>
</g>
</g>
<!-- Node6&#45;&gt;Node45 -->
<g id="edge50" class="edge">
<title>Node6&#45;&gt;Node45</title>
<path fill="none" stroke="midnightblue" d="M2217.33,-217.4C1925.21,-204.74 951.45,-162.54 722.15,-152.61"/>
<polygon fill="midnightblue" stroke="midnightblue" points="2217.29,-220.9 2227.43,-217.83 2217.59,-213.9 2217.29,-220.9"/>
</g>
<!-- Node44&#45;&gt;Node8 -->
<g id="edge47" class="edge">
<title>Node44&#45;&gt;Node8</title>
<path fill="none" stroke="midnightblue" d="M1281.46,-126.45C1288.81,-116.9 1297.19,-106 1303.67,-97.58"/>
<polygon fill="midnightblue" stroke="midnightblue" points="1278.67,-124.34 1275.35,-134.4 1284.22,-128.6 1278.67,-124.34"/>
</g>
<!-- Node44&#45;&gt;Node10 -->
<g id="edge48" class="edge">
<title>Node44&#45;&gt;Node10</title>
<path fill="none" stroke="midnightblue" d="M1314.8,-131.11C1351.38,-118.46 1399.3,-101.89 1427.9,-92.01"/>
<polygon fill="midnightblue" stroke="midnightblue" points="1313.6,-127.82 1305.29,-134.4 1315.89,-134.44 1313.6,-127.82"/>
</g>
<!-- Node44&#45;&gt;Node26 -->
<g id="edge49" class="edge">
<title>Node44&#45;&gt;Node26</title>
<path fill="none" stroke="midnightblue" d="M1251.24,-125.48C1235.47,-98.07 1209.62,-53.19 1196.57,-30.52"/>
<polygon fill="midnightblue" stroke="midnightblue" points="1248.34,-127.45 1256.37,-134.37 1254.41,-123.96 1248.34,-127.45"/>
</g>
<!-- Node45&#45;&gt;Node5 -->
<g id="edge52" class="edge">
<title>Node45&#45;&gt;Node5</title>
<path fill="none" stroke="midnightblue" d="M614.8,-143.28C552.28,-136.51 458.9,-122.57 433.5,-98 413.18,-78.35 412.17,-41.68 412.88,-25.07"/>
<polygon fill="midnightblue" stroke="midnightblue" points="614.62,-146.78 624.93,-144.34 615.35,-139.81 614.62,-146.78"/>
</g>
<!-- Node45&#45;&gt;Node29 -->
<g id="edge53" class="edge">
<title>Node45&#45;&gt;Node29</title>
<path fill="none" stroke="midnightblue" d="M614.94,-138C559.43,-127.97 473.72,-112.31 399.5,-98 394.99,-97.13 390.33,-96.22 385.64,-95.29"/>
<polygon fill="midnightblue" stroke="midnightblue" points="614.49,-141.47 624.95,-139.8 615.73,-134.58 614.49,-141.47"/>
</g>
<!-- Node45&#45;&gt;Node31 -->
<g id="edge56" class="edge">
<title>Node45&#45;&gt;Node31</title>
<path fill="none" stroke="midnightblue" d="M732.41,-137.27C799.89,-124.41 908.95,-103.62 969.81,-92.02"/>
<polygon fill="midnightblue" stroke="midnightblue" points="731.52,-133.88 722.36,-139.19 732.84,-140.75 731.52,-133.88"/>
</g>
<!-- Node46 -->
<g id="node46" class="node">
<title>Node46</title>
<g id="a_node46"><a xlink:href="f__ap__game_8cpp.html" target="_top" xlink:title=" ">
<polygon fill="white" stroke="black" points="557,-73 557,-92 662,-92 662,-73 557,-73"/>
<text text-anchor="middle" x="609.5" y="-80" font-family="Helvetica,sans-Serif" font-size="10.00">src/f/f_ap_game.cpp</text>
</a>
</g>
</g>
<!-- Node45&#45;&gt;Node46 -->
<g id="edge51" class="edge">
<title>Node45&#45;&gt;Node46</title>
<path fill="none" stroke="midnightblue" d="M652.33,-127C640.65,-115.13 626.78,-101.05 618.06,-92.19"/>
<polygon fill="midnightblue" stroke="midnightblue" points="650.1,-129.73 659.61,-134.4 655.09,-124.81 650.1,-129.73"/>
</g>
<!-- Node47 -->
<g id="node47" class="node">
<title>Node47</title>
<g id="a_node47"><a xlink:href="f__op__overlap__req_8cpp.html" target="_top" xlink:title=" ">
<polygon fill="white" stroke="black" points="680.5,-67.5 680.5,-97.5 796.5,-97.5 796.5,-67.5 680.5,-67.5"/>
<text text-anchor="start" x="688.5" y="-85.5" font-family="Helvetica,sans-Serif" font-size="10.00">src/f/f_op/f_op_overlap</text>
<text text-anchor="middle" x="738.5" y="-74.5" font-family="Helvetica,sans-Serif" font-size="10.00">_req.cpp</text>
</a>
</g>
</g>
<!-- Node45&#45;&gt;Node47 -->
<g id="edge54" class="edge">
<title>Node45&#45;&gt;Node47</title>
<path fill="none" stroke="midnightblue" d="M694.69,-127.31C704.44,-117.56 715.74,-106.26 724.42,-97.58"/>
<polygon fill="midnightblue" stroke="midnightblue" points="692.2,-124.85 687.6,-134.4 697.15,-129.8 692.2,-124.85"/>
</g>
<!-- Node48 -->
<g id="node48" class="node">
<title>Node48</title>
<g id="a_node48"><a xlink:href="f__op__scene__pause_8cpp.html" target="_top" xlink:title=" ">
<polygon fill="white" stroke="black" points="815,-67.5 815,-97.5 926,-97.5 926,-67.5 815,-67.5"/>
<text text-anchor="start" x="823" y="-85.5" font-family="Helvetica,sans-Serif" font-size="10.00">src/f/f_op/f_op_scene</text>
<text text-anchor="middle" x="870.5" y="-74.5" font-family="Helvetica,sans-Serif" font-size="10.00">_pause.cpp</text>
</a>
</g>
</g>
<!-- Node45&#45;&gt;Node48 -->
<g id="edge55" class="edge">
<title>Node45&#45;&gt;Node48</title>
<path fill="none" stroke="midnightblue" d="M725.85,-131.23C757.72,-120.71 797.91,-107.45 827.84,-97.58"/>
<polygon fill="midnightblue" stroke="midnightblue" points="724.65,-127.94 716.25,-134.4 726.84,-134.59 724.65,-127.94"/>
</g>
<!-- Node49 -->
<g id="node49" class="node">
<title>Node49</title>
<g id="a_node49"><a xlink:href="f__op__actor__mng_8h.html" target="_top" xlink:title=" ">
<polygon fill="white" stroke="black" points="442,-67.5 442,-97.5 539,-97.5 539,-67.5 442,-67.5"/>
<text text-anchor="start" x="450" y="-85.5" font-family="Helvetica,sans-Serif" font-size="10.00">include/f/f_op/f_op</text>
<text text-anchor="middle" x="490.5" y="-74.5" font-family="Helvetica,sans-Serif" font-size="10.00">_actor_mng.h</text>
</a>
</g>
</g>
<!-- Node45&#45;&gt;Node49 -->
<g id="edge57" class="edge">
<title>Node45&#45;&gt;Node49</title>
<path fill="none" stroke="midnightblue" d="M624.1,-130.96C594.63,-120.48 557.69,-107.37 530.13,-97.58"/>
<polygon fill="midnightblue" stroke="midnightblue" points="623.2,-134.35 633.79,-134.4 625.54,-127.75 623.2,-134.35"/>
</g>
<!-- Node49&#45;&gt;Node4 -->
<g id="edge58" class="edge">
<title>Node49&#45;&gt;Node4</title>
<path fill="none" stroke="midnightblue" d="M432.01,-66.23C382.77,-53.38 314.15,-35.46 274.11,-25.01"/>
<polygon fill="midnightblue" stroke="midnightblue" points="431.34,-69.67 441.9,-68.81 433.11,-62.9 431.34,-69.67"/>
</g>
<!-- Node49&#45;&gt;Node5 -->
<g id="edge62" class="edge">
<title>Node49&#45;&gt;Node5</title>
<path fill="none" stroke="midnightblue" d="M465.83,-60.67C451.61,-48.67 434.49,-34.22 423.8,-25.19"/>
<polygon fill="midnightblue" stroke="midnightblue" points="463.89,-63.62 473.79,-67.4 468.41,-58.27 463.89,-63.62"/>
</g>
<!-- Node49&#45;&gt;Node7 -->
<g id="edge59" class="edge">
<title>Node49&#45;&gt;Node7</title>
<path fill="none" stroke="midnightblue" d="M533.52,-63.46C563.47,-50.9 602.04,-34.72 625.21,-25.01"/>
<polygon fill="midnightblue" stroke="midnightblue" points="532,-60.3 524.13,-67.4 534.71,-66.76 532,-60.3"/>
</g>
<!-- Node49&#45;&gt;Node25 -->
<g id="edge60" class="edge">
<title>Node49&#45;&gt;Node25</title>
<path fill="none" stroke="midnightblue" d="M549.2,-67.03C689.28,-41.66 843.24,-26.77 919.19,-20.28"/>
<polygon fill="midnightblue" stroke="midnightblue" points="548.34,-63.63 539.14,-68.87 549.61,-70.51 548.34,-63.63"/>
</g>
<!-- Node49&#45;&gt;Node26 -->
<g id="edge61" class="edge">
<title>Node49&#45;&gt;Node26</title>
<path fill="none" stroke="midnightblue" d="M549.21,-67.09C758.81,-33.72 815.22,-47.92 1022.5,-31 1059.98,-27.94 1102.2,-24.25 1134.69,-21.36"/>
<polygon fill="midnightblue" stroke="midnightblue" points="548.43,-63.67 539.11,-68.71 549.54,-70.58 548.43,-63.67"/>
</g>
<!-- Node49&#45;&gt;Node36 -->
<g id="edge63" class="edge">
<title>Node49&#45;&gt;Node36</title>
<path fill="none" stroke="midnightblue" d="M549.29,-67.11C859.71,-21.5 942.67,-51.21 1251.5,-31 1290.09,-28.48 1333.23,-25.06 1367.82,-22.18"/>
<polygon fill="midnightblue" stroke="midnightblue" points="548.47,-63.69 539.1,-68.62 549.5,-70.62 548.47,-63.69"/>
</g>
<!-- Node50&#45;&gt;Node9 -->
<g id="edge65" class="edge">
<title>Node50&#45;&gt;Node9</title>
<path fill="none" stroke="midnightblue" d="M228.82,-191.38C228.3,-182.21 227.75,-172.53 227.32,-164.89"/>
<polygon fill="midnightblue" stroke="midnightblue" points="225.32,-191.58 229.39,-201.36 232.31,-191.18 225.32,-191.58"/>
</g>
</g>
</svg>
