<?xml version="1.0" encoding="UTF-8" standalone="no"?>
<!DOCTYPE svg PUBLIC "-//W3C//DTD SVG 1.1//EN"
 "http://www.w3.org/Graphics/SVG/1.1/DTD/svg11.dtd">
<!-- Generated by graphviz version 7.0.5 (20221223.1930)
 -->
<!-- Title: src/d/save/d_save.cpp Pages: 1 -->
<svg width="3057pt" height="335pt"
 viewBox="0.00 0.00 3056.50 335.00" xmlns="http://www.w3.org/2000/svg" xmlns:xlink="http://www.w3.org/1999/xlink">
<g id="graph0" class="graph" transform="scale(1 1) rotate(0) translate(4 331)">
<title>src/d/save/d_save.cpp</title>
<!-- Node1 -->
<g id="node1" class="node">
<title>Node1</title>
<g id="a_node1"><a xlink:title=" ">
<polygon fill="#999999" stroke="#666666" points="1185,-327 1070,-327 1070,-308 1185,-308 1185,-327"/>
<text text-anchor="middle" x="1127.5" y="-315" font-family="Helvetica,sans-Serif" font-size="10.00">src/d/save/d_save.cpp</text>
</a>
</g>
</g>
<!-- Node2 -->
<g id="node2" class="node">
<title>Node2</title>
<g id="a_node2"><a xlink:href="d__save_8h.html" target="_top" xlink:title=" ">
<polygon fill="white" stroke="#666666" points="320.5,-145.5 232.5,-145.5 232.5,-126.5 320.5,-126.5 320.5,-145.5"/>
<text text-anchor="middle" x="276.5" y="-133.5" font-family="Helvetica,sans-Serif" font-size="10.00">d/save/d_save.h</text>
</a>
</g>
</g>
<!-- Node1&#45;&gt;Node2 -->
<g id="edge1" class="edge">
<title>Node1&#45;&gt;Node2</title>
<path fill="none" stroke="#63b8ff" d="M1069.67,-315.32C965.7,-312.47 740.62,-302.95 553.5,-272 436.73,-252.69 379.95,-288.92 295.5,-206 282.48,-193.21 278.14,-172.39 276.82,-156.95"/>
<polygon fill="#63b8ff" stroke="#63b8ff" points="280.32,-156.89 276.35,-147.07 273.32,-157.22 280.32,-156.89"/>
</g>
<!-- Node16 -->
<g id="node11" class="node">
<title>Node16</title>
<g id="a_node11"><a xlink:href="d__save__init_8h.html" target="_top" xlink:title=" ">
<polygon fill="white" stroke="#666666" points="668.5,-266.5 562.5,-266.5 562.5,-247.5 668.5,-247.5 668.5,-266.5"/>
<text text-anchor="middle" x="615.5" y="-254.5" font-family="Helvetica,sans-Serif" font-size="10.00">d/save/d_save_init.h</text>
</a>
</g>
</g>
<!-- Node1&#45;&gt;Node16 -->
<g id="edge11" class="edge">
<title>Node1&#45;&gt;Node16</title>
<path fill="none" stroke="#63b8ff" d="M1069.67,-313.07C983.72,-307.47 817.39,-294.62 677.5,-272 672.78,-271.24 667.89,-270.33 663.01,-269.35"/>
<polygon fill="#63b8ff" stroke="#63b8ff" points="663.73,-265.93 653.23,-267.29 662.28,-272.78 663.73,-265.93"/>
</g>
<!-- Node17 -->
<g id="node12" class="node">
<title>Node17</title>
<g id="a_node12"><a xlink:href="JUTGamePad_8h.html" target="_top" xlink:title=" ">
<polygon fill="white" stroke="#666666" points="2936.5,-151 2800.5,-151 2800.5,-121 2936.5,-121 2936.5,-151"/>
<text text-anchor="start" x="2808.5" y="-139" font-family="Helvetica,sans-Serif" font-size="10.00">JSystem/JUtility/JUTGame</text>
<text text-anchor="middle" x="2868.5" y="-128" font-family="Helvetica,sans-Serif" font-size="10.00">Pad.h</text>
</a>
</g>
</g>
<!-- Node1&#45;&gt;Node17 -->
<g id="edge12" class="edge">
<title>Node1&#45;&gt;Node17</title>
<path fill="none" stroke="#63b8ff" d="M1185.3,-310.84C1271.25,-302.41 1437.87,-286.04 1579.5,-272 2114.52,-218.96 2253.53,-226.27 2789,-151.29"/>
<polygon fill="#63b8ff" stroke="#63b8ff" points="2789.2,-154.8 2798.61,-149.94 2788.22,-147.86 2789.2,-154.8"/>
</g>
<!-- Node21 -->
<g id="node15" class="node">
<title>Node21</title>
<g id="a_node15"><a xlink:href="stdio_8h.html" target="_top" xlink:title=" ">
<polygon fill="white" stroke="#666666" points="732,-266.5 687,-266.5 687,-247.5 732,-247.5 732,-266.5"/>
<text text-anchor="middle" x="709.5" y="-254.5" font-family="Helvetica,sans-Serif" font-size="10.00">stdio.h</text>
</a>
</g>
</g>
<!-- Node1&#45;&gt;Node21 -->
<g id="edge18" class="edge">
<title>Node1&#45;&gt;Node21</title>
<path fill="none" stroke="#63b8ff" d="M1069.82,-308.43C981.35,-296.05 814.92,-272.75 743.48,-262.76"/>
<polygon fill="#63b8ff" stroke="#63b8ff" points="744.35,-259.34 733.96,-261.42 743.38,-266.28 744.35,-259.34"/>
</g>
<!-- Node27 -->
<g id="node20" class="node">
<title>Node27</title>
<g id="a_node20"><a xlink:href="d__com__inf__game_8h.html" target="_top" xlink:title=" ">
<polygon fill="white" stroke="#666666" points="1064.5,-206 936.5,-206 936.5,-187 1064.5,-187 1064.5,-206"/>
<text text-anchor="middle" x="1000.5" y="-194" font-family="Helvetica,sans-Serif" font-size="10.00">d/com/d_com_inf_game.h</text>
</a>
</g>
</g>
<!-- Node1&#45;&gt;Node27 -->
<g id="edge25" class="edge">
<title>Node1&#45;&gt;Node27</title>
<path fill="none" stroke="#63b8ff" d="M1082.46,-307.54C1060.91,-301.07 1036.41,-290.16 1020.5,-272 1007.28,-256.91 1002.68,-233.97 1001.14,-217.53"/>
<polygon fill="#63b8ff" stroke="#63b8ff" points="1004.66,-217.75 1000.56,-207.98 997.68,-218.17 1004.66,-217.75"/>
</g>
<!-- Node226 -->
<g id="node30" class="node">
<title>Node226</title>
<g id="a_node30"><a xlink:href="d__meter2__info_8h.html" target="_top" xlink:title=" ">
<polygon fill="white" stroke="#666666" points="1340.5,-206 1218.5,-206 1218.5,-187 1340.5,-187 1340.5,-206"/>
<text text-anchor="middle" x="1279.5" y="-194" font-family="Helvetica,sans-Serif" font-size="10.00">d/meter/d_meter2_info.h</text>
</a>
</g>
</g>
<!-- Node1&#45;&gt;Node226 -->
<g id="edge44" class="edge">
<title>Node1&#45;&gt;Node226</title>
<path fill="none" stroke="#63b8ff" d="M1133.17,-307.69C1143.22,-292.63 1165.47,-261.68 1190.5,-242 1206.92,-229.09 1227.68,-218.45 1245.02,-210.81"/>
<polygon fill="#63b8ff" stroke="#63b8ff" points="1246.07,-214.17 1253.91,-207.04 1243.34,-207.72 1246.07,-214.17"/>
</g>
<!-- Node227 -->
<g id="node31" class="node">
<title>Node227</title>
<g id="a_node31"><a xlink:href="dol2asm_8h.html" target="_top" xlink:title=" ">
<polygon fill="white" stroke="#666666" points="1260,-266.5 1199,-266.5 1199,-247.5 1260,-247.5 1260,-266.5"/>
<text text-anchor="middle" x="1229.5" y="-254.5" font-family="Helvetica,sans-Serif" font-size="10.00">dol2asm.h</text>
</a>
</g>
</g>
<!-- Node1&#45;&gt;Node227 -->
<g id="edge46" class="edge">
<title>Node1&#45;&gt;Node227</title>
<path fill="none" stroke="#63b8ff" d="M1142.99,-307.62C1159.17,-298.34 1184.8,-283.63 1203.98,-272.64"/>
<polygon fill="#63b8ff" stroke="#63b8ff" points="1205.62,-275.73 1212.55,-267.72 1202.13,-269.66 1205.62,-275.73"/>
</g>
<!-- Node98 -->
<g id="node32" class="node">
<title>Node98</title>
<g id="a_node32"><a xlink:href="os_8h.html" target="_top" xlink:title=" ">
<polygon fill="#fff0f0" stroke="red" points="2037.5,-206 1969.5,-206 1969.5,-187 2037.5,-187 2037.5,-206"/>
<text text-anchor="middle" x="2003.5" y="-194" font-family="Helvetica,sans-Serif" font-size="10.00">dolphin/os.h</text>
</a>
</g>
</g>
<!-- Node1&#45;&gt;Node98 -->
<g id="edge47" class="edge">
<title>Node1&#45;&gt;Node98</title>
<path fill="none" stroke="#63b8ff" d="M1185.32,-308.65C1348.51,-286.48 1810.43,-223.73 1957.75,-203.72"/>
<polygon fill="#63b8ff" stroke="#63b8ff" points="1958.07,-207.2 1967.51,-202.39 1957.13,-200.27 1958.07,-207.2"/>
</g>
<!-- Node228 -->
<g id="node49" class="node">
<title>Node228</title>
<g id="a_node49"><a xlink:href="d__a__obj__carry_8h.html" target="_top" xlink:title=" ">
<polygon fill="#fff0f0" stroke="red" points="1142,-272 1029,-272 1029,-242 1142,-242 1142,-272"/>
<text text-anchor="start" x="1037" y="-260" font-family="Helvetica,sans-Serif" font-size="10.00">rel/d/a/obj/d_a_obj</text>
<text text-anchor="middle" x="1085.5" y="-249" font-family="Helvetica,sans-Serif" font-size="10.00">_carry/d_a_obj_carry.h</text>
</a>
</g>
</g>
<!-- Node1&#45;&gt;Node228 -->
<g id="edge80" class="edge">
<title>Node1&#45;&gt;Node228</title>
<path fill="none" stroke="#63b8ff" d="M1121.3,-307.87C1116.29,-300.89 1108.99,-290.71 1102.28,-281.38"/>
<polygon fill="#63b8ff" stroke="#63b8ff" points="1105.19,-279.43 1096.52,-273.34 1099.51,-283.51 1105.19,-279.43"/>
</g>
<!-- Node241 -->
<g id="node50" class="node">
<title>Node241</title>
<g id="a_node50"><a xlink:title=" ">
<polygon fill="#e0e0e0" stroke="#999999" points="2245.5,-272 2093.5,-272 2093.5,-242 2245.5,-242 2245.5,-272"/>
<text text-anchor="start" x="2101.5" y="-260" font-family="Helvetica,sans-Serif" font-size="10.00">asm/d/save/d_save/memory</text>
<text text-anchor="middle" x="2169.5" y="-249" font-family="Helvetica,sans-Serif" font-size="10.00">_to_card__10dSv_info_cFPci.s</text>
</a>
</g>
</g>
<!-- Node1&#45;&gt;Node241 -->
<g id="edge82" class="edge">
<title>Node1&#45;&gt;Node241</title>
<path fill="none" stroke="#63b8ff" d="M1185.34,-315.96C1334.07,-314.11 1741.82,-306.06 2079.5,-272 2080.36,-271.91 2081.22,-271.82 2082.08,-271.73"/>
<polygon fill="#63b8ff" stroke="#63b8ff" points="2082.43,-275.22 2091.96,-270.59 2081.63,-268.26 2082.43,-275.22"/>
</g>
<!-- Node3 -->
<g id="node3" class="node">
<title>Node3</title>
<g id="a_node3"><a xlink:href="string_8h.html" target="_top" xlink:title=" ">
<polygon fill="#fff0f0" stroke="red" points="173.5,-79.5 125.5,-79.5 125.5,-60.5 173.5,-60.5 173.5,-79.5"/>
<text text-anchor="middle" x="149.5" y="-67.5" font-family="Helvetica,sans-Serif" font-size="10.00">string.h</text>
</a>
</g>
</g>
<!-- Node2&#45;&gt;Node3 -->
<g id="edge2" class="edge">
<title>Node2&#45;&gt;Node3</title>
<path fill="none" stroke="#63b8ff" d="M258.84,-126.1C237.71,-115.45 202.06,-97.49 177.24,-84.98"/>
<polygon fill="#63b8ff" stroke="#63b8ff" points="178.87,-81.88 168.36,-80.5 175.72,-88.13 178.87,-81.88"/>
</g>
<!-- Node6 -->
<g id="node5" class="node">
<title>Node6</title>
<g id="a_node5"><a xlink:href="c__xyz_8h.html" target="_top" xlink:title=" ">
<polygon fill="#fff0f0" stroke="red" points="770.5,-85 654.5,-85 654.5,-55 770.5,-55 770.5,-85"/>
<text text-anchor="start" x="662.5" y="-73" font-family="Helvetica,sans-Serif" font-size="10.00">SSystem/SComponent</text>
<text text-anchor="middle" x="712.5" y="-62" font-family="Helvetica,sans-Serif" font-size="10.00">/c_xyz.h</text>
</a>
</g>
</g>
<!-- Node2&#45;&gt;Node6 -->
<g id="edge4" class="edge">
<title>Node2&#45;&gt;Node6</title>
<path fill="none" stroke="#63b8ff" d="M320.71,-128.51C396.59,-117.37 552.19,-94.53 642.8,-81.23"/>
<polygon fill="#63b8ff" stroke="#63b8ff" points="643.18,-84.71 652.56,-79.8 642.16,-77.79 643.18,-84.71"/>
</g>
<!-- Node12 -->
<g id="node6" class="node">
<title>Node12</title>
<g id="a_node6"><a xlink:href="OSTime_8h.html" target="_top" xlink:title=" ">
<polygon fill="white" stroke="#666666" points="2602,-79.5 2495,-79.5 2495,-60.5 2602,-60.5 2602,-79.5"/>
<text text-anchor="middle" x="2548.5" y="-67.5" font-family="Helvetica,sans-Serif" font-size="10.00">dolphin/os/OSTime.h</text>
</a>
</g>
</g>
<!-- Node2&#45;&gt;Node12 -->
<g id="edge5" class="edge">
<title>Node2&#45;&gt;Node12</title>
<path fill="none" stroke="#63b8ff" d="M320.92,-127.86C339.3,-125.21 360.88,-122.48 380.5,-121 847.24,-85.72 2021.77,-140.84 2486.5,-85 2492.11,-84.33 2497.95,-83.36 2503.71,-82.25"/>
<polygon fill="#63b8ff" stroke="#63b8ff" points="2504.06,-85.75 2513.13,-80.28 2502.62,-78.9 2504.06,-85.75"/>
</g>
<!-- Node13 -->
<g id="node8" class="node">
<title>Node13</title>
<g id="a_node8"><a xlink:href="global_8h.html" target="_top" xlink:title=" ">
<polygon fill="white" stroke="#666666" points="1197.5,-79.5 1147.5,-79.5 1147.5,-60.5 1197.5,-60.5 1197.5,-79.5"/>
<text text-anchor="middle" x="1172.5" y="-67.5" font-family="Helvetica,sans-Serif" font-size="10.00">global.h</text>
</a>
</g>
</g>
<!-- Node2&#45;&gt;Node13 -->
<g id="edge7" class="edge">
<title>Node2&#45;&gt;Node13</title>
<path fill="none" stroke="#63b8ff" d="M320.96,-128.31C339.35,-125.73 360.92,-122.93 380.5,-121 670.87,-92.33 1022.84,-76.88 1135.77,-72.39"/>
<polygon fill="#63b8ff" stroke="#63b8ff" points="1135.78,-75.9 1145.63,-72.01 1135.5,-68.9 1135.78,-75.9"/>
</g>
<!-- Node14 -->
<g id="node9" class="node">
<title>Node14</title>
<g id="a_node9"><a xlink:href="d__save__bit__labels_8inc.html" target="_top" xlink:title=" ">
<polygon fill="white" stroke="#666666" points="333.5,-79.5 191.5,-79.5 191.5,-60.5 333.5,-60.5 333.5,-79.5"/>
<text text-anchor="middle" x="262.5" y="-67.5" font-family="Helvetica,sans-Serif" font-size="10.00">d/save/d_save_bit_labels.inc</text>
</a>
</g>
</g>
<!-- Node2&#45;&gt;Node14 -->
<g id="edge9" class="edge">
<title>Node2&#45;&gt;Node14</title>
<path fill="none" stroke="#63b8ff" d="M274.55,-126.1C272.57,-117.03 269.42,-102.64 266.84,-90.85"/>
<polygon fill="#63b8ff" stroke="#63b8ff" points="270.31,-90.32 264.75,-81.3 263.47,-91.82 270.31,-90.32"/>
</g>
<!-- Node15 -->
<g id="node10" class="node">
<title>Node15</title>
<g id="a_node10"><a xlink:href="d__save__temp__bit__labels_8inc.html" target="_top" xlink:title=" ">
<polygon fill="white" stroke="#666666" points="107,-85 0,-85 0,-55 107,-55 107,-85"/>
<text text-anchor="start" x="8" y="-73" font-family="Helvetica,sans-Serif" font-size="10.00">d/save/d_save_temp</text>
<text text-anchor="middle" x="53.5" y="-62" font-family="Helvetica,sans-Serif" font-size="10.00">_bit_labels.inc</text>
</a>
</g>
</g>
<!-- Node2&#45;&gt;Node15 -->
<g id="edge10" class="edge">
<title>Node2&#45;&gt;Node15</title>
<path fill="none" stroke="#63b8ff" d="M245.49,-126.1C211.88,-116.45 157.36,-100.81 114.99,-88.65"/>
<polygon fill="#63b8ff" stroke="#63b8ff" points="115.98,-85.29 105.4,-85.9 114.05,-92.02 115.98,-85.29"/>
</g>
<!-- Node5 -->
<g id="node4" class="node">
<title>Node5</title>
<g id="a_node4"><a xlink:href="extras_8h.html" target="_top" xlink:title=" ">
<polygon fill="white" stroke="#666666" points="280.5,-19 230.5,-19 230.5,0 280.5,0 280.5,-19"/>
<text text-anchor="middle" x="255.5" y="-7" font-family="Helvetica,sans-Serif" font-size="10.00">extras.h</text>
</a>
</g>
</g>
<!-- Node3&#45;&gt;Node5 -->
<g id="edge3" class="edge">
<title>Node3&#45;&gt;Node5</title>
<path fill="none" stroke="#63b8ff" d="M165.6,-60.12C182.49,-50.79 209.3,-36 229.25,-24.99"/>
<polygon fill="#63b8ff" stroke="#63b8ff" points="230.86,-28.1 237.92,-20.2 227.48,-21.97 230.86,-28.1"/>
</g>
<!-- Node11 -->
<g id="node7" class="node">
<title>Node11</title>
<g id="a_node7"><a xlink:href="types_8h.html" target="_top" xlink:title=" ">
<polygon fill="#fff0f0" stroke="red" points="1821,-19 1740,-19 1740,0 1821,0 1821,-19"/>
<text text-anchor="middle" x="1780.5" y="-7" font-family="Helvetica,sans-Serif" font-size="10.00">dolphin/types.h</text>
</a>
</g>
</g>
<!-- Node12&#45;&gt;Node11 -->
<g id="edge6" class="edge">
<title>Node12&#45;&gt;Node11</title>
<path fill="none" stroke="#63b8ff" d="M2513.27,-60.02C2504.57,-58.09 2495.24,-56.25 2486.5,-55 2243.8,-20.18 1950.27,-12.6 1832.79,-10.96"/>
<polygon fill="#63b8ff" stroke="#63b8ff" points="1832.88,-7.46 1822.84,-10.83 1832.79,-14.46 1832.88,-7.46"/>
</g>
<!-- Node13&#45;&gt;Node11 -->
<g id="edge8" class="edge">
<title>Node13&#45;&gt;Node11</title>
<path fill="none" stroke="#63b8ff" d="M1197.88,-63.01C1210.61,-60.21 1226.3,-57.04 1240.5,-55 1418.37,-29.46 1631.48,-17.26 1728.18,-12.71"/>
<polygon fill="#63b8ff" stroke="#63b8ff" points="1728.33,-16.21 1738.15,-12.25 1728,-9.21 1728.33,-16.21"/>
</g>
<!-- Node17&#45;&gt;Node12 -->
<g id="edge14" class="edge">
<title>Node17&#45;&gt;Node12</title>
<path fill="none" stroke="#63b8ff" d="M2800.22,-122.23C2748.38,-112.4 2675.36,-98.3 2611.5,-85 2607.48,-84.16 2603.32,-83.28 2599.14,-82.38"/>
<polygon fill="#63b8ff" stroke="#63b8ff" points="2600.12,-79.01 2589.6,-80.3 2598.62,-85.85 2600.12,-79.01"/>
</g>
<!-- Node17&#45;&gt;Node11 -->
<g id="edge17" class="edge">
<title>Node17&#45;&gt;Node11</title>
<path fill="none" stroke="#63b8ff" d="M2868.64,-120.7C2867.96,-102.2 2863.7,-70.51 2843.5,-55 2803.06,-23.94 2041.35,-13.35 1832.86,-11.03"/>
<polygon fill="#63b8ff" stroke="#63b8ff" points="1832.91,-7.53 1822.87,-10.92 1832.83,-14.53 1832.91,-7.53"/>
</g>
<!-- Node18 -->
<g id="node13" class="node">
<title>Node18</title>
<g id="a_node13"><a xlink:href="JKRDisposer_8h.html" target="_top" xlink:title=" ">
<polygon fill="#fff0f0" stroke="red" points="3048.5,-79.5 2890.5,-79.5 2890.5,-60.5 3048.5,-60.5 3048.5,-79.5"/>
<text text-anchor="middle" x="2969.5" y="-67.5" font-family="Helvetica,sans-Serif" font-size="10.00">JSystem/JKernel/JKRDisposer.h</text>
</a>
</g>
</g>
<!-- Node17&#45;&gt;Node18 -->
<g id="edge13" class="edge">
<title>Node17&#45;&gt;Node18</title>
<path fill="none" stroke="#63b8ff" d="M2891.17,-120.64C2907.45,-110.32 2929.34,-96.45 2945.84,-85.99"/>
<polygon fill="#63b8ff" stroke="#63b8ff" points="2947.47,-89.1 2954.04,-80.8 2943.72,-83.19 2947.47,-89.1"/>
</g>
<!-- Node20 -->
<g id="node14" class="node">
<title>Node20</title>
<g id="a_node14"><a xlink:href="pad_8h.html" target="_top" xlink:title=" ">
<polygon fill="white" stroke="#666666" points="2834.5,-79.5 2760.5,-79.5 2760.5,-60.5 2834.5,-60.5 2834.5,-79.5"/>
<text text-anchor="middle" x="2797.5" y="-67.5" font-family="Helvetica,sans-Serif" font-size="10.00">dolphin/pad.h</text>
</a>
</g>
</g>
<!-- Node17&#45;&gt;Node20 -->
<g id="edge15" class="edge">
<title>Node17&#45;&gt;Node20</title>
<path fill="none" stroke="#63b8ff" d="M2852.74,-120.8C2841.78,-110.92 2827.14,-97.72 2815.68,-87.39"/>
<polygon fill="#63b8ff" stroke="#63b8ff" points="2818.21,-84.95 2808.44,-80.86 2813.52,-90.15 2818.21,-84.95"/>
</g>
<!-- Node20&#45;&gt;Node11 -->
<g id="edge16" class="edge">
<title>Node20&#45;&gt;Node11</title>
<path fill="none" stroke="#63b8ff" d="M2772.47,-60.15C2765.74,-58.11 2758.41,-56.19 2751.5,-55 2572.47,-24.15 2007.76,-13.72 1832.74,-11.18"/>
<polygon fill="#63b8ff" stroke="#63b8ff" points="1832.87,-7.68 1822.82,-11.04 1832.77,-14.68 1832.87,-7.68"/>
</g>
<!-- Node21&#45;&gt;Node5 -->
<g id="edge24" class="edge">
<title>Node21&#45;&gt;Node5</title>
<path fill="none" stroke="#63b8ff" d="M690.01,-247.05C685.92,-245.29 681.59,-243.52 677.5,-242 612.77,-218.02 431.21,-197.83 380.5,-151 346.79,-119.87 373.36,-88.97 342.5,-55 328.71,-39.82 308.54,-29.05 291.09,-21.91"/>
<polygon fill="#63b8ff" stroke="#63b8ff" points="292.66,-18.77 282.07,-18.47 290.17,-25.31 292.66,-18.77"/>
</g>
<!-- Node22 -->
<g id="node16" class="node">
<title>Node22</title>
<g id="a_node16"><a xlink:href="char__io_8h.html" target="_top" xlink:title=" ">
<polygon fill="#fff0f0" stroke="red" points="360.5,-206 304.5,-206 304.5,-187 360.5,-187 360.5,-206"/>
<text text-anchor="middle" x="332.5" y="-194" font-family="Helvetica,sans-Serif" font-size="10.00">char_io.h</text>
</a>
</g>
</g>
<!-- Node21&#45;&gt;Node22 -->
<g id="edge19" class="edge">
<title>Node21&#45;&gt;Node22</title>
<path fill="none" stroke="#63b8ff" d="M691.56,-247.04C687.06,-245.11 682.18,-243.27 677.5,-242 547.98,-206.94 507.44,-228.27 371.94,-206.21"/>
<polygon fill="#63b8ff" stroke="#63b8ff" points="372.65,-202.78 362.21,-204.57 371.49,-209.68 372.65,-202.78"/>
</g>
<!-- Node24 -->
<g id="node17" class="node">
<title>Node24</title>
<g id="a_node17"><a xlink:href="file__io_8h.html" target="_top" xlink:title=" ">
<polygon fill="#fff0f0" stroke="red" points="428,-206 379,-206 379,-187 428,-187 428,-206"/>
<text text-anchor="middle" x="403.5" y="-194" font-family="Helvetica,sans-Serif" font-size="10.00">file_io.h</text>
</a>
</g>
</g>
<!-- Node21&#45;&gt;Node24 -->
<g id="edge20" class="edge">
<title>Node21&#45;&gt;Node24</title>
<path fill="none" stroke="#63b8ff" d="M691.19,-247.02C686.79,-245.13 682.04,-243.32 677.5,-242 576.02,-212.58 546.39,-225.26 442.5,-206 441.49,-205.81 440.46,-205.62 439.42,-205.42"/>
<polygon fill="#63b8ff" stroke="#63b8ff" points="440.19,-202 429.69,-203.43 438.79,-208.86 440.19,-202"/>
</g>
<!-- Node25 -->
<g id="node18" class="node">
<title>Node25</title>
<g id="a_node18"><a xlink:href="printf_8h.html" target="_top" xlink:title=" ">
<polygon fill="#fff0f0" stroke="red" points="1164.5,-206 1118.5,-206 1118.5,-187 1164.5,-187 1164.5,-206"/>
<text text-anchor="middle" x="1141.5" y="-194" font-family="Helvetica,sans-Serif" font-size="10.00">printf.h</text>
</a>
</g>
</g>
<!-- Node21&#45;&gt;Node25 -->
<g id="edge21" class="edge">
<title>Node21&#45;&gt;Node25</title>
<path fill="none" stroke="#63b8ff" d="M732.42,-252.9C803.65,-243.25 1021.48,-213.75 1106.75,-202.21"/>
<polygon fill="#63b8ff" stroke="#63b8ff" points="1107.17,-205.68 1116.61,-200.87 1106.23,-198.74 1107.17,-205.68"/>
</g>
<!-- Node26 -->
<g id="node19" class="node">
<title>Node26</title>
<g id="a_node19"><a xlink:href="____va__arg_8h.html" target="_top" xlink:title=" ">
<polygon fill="white" stroke="#666666" points="1442.5,-145.5 1378.5,-145.5 1378.5,-126.5 1442.5,-126.5 1442.5,-145.5"/>
<text text-anchor="middle" x="1410.5" y="-133.5" font-family="Helvetica,sans-Serif" font-size="10.00">__va_arg.h</text>
</a>
</g>
</g>
<!-- Node25&#45;&gt;Node26 -->
<g id="edge22" class="edge">
<title>Node25&#45;&gt;Node26</title>
<path fill="none" stroke="#63b8ff" d="M1164.9,-190.41C1210.08,-180.59 1309.92,-158.87 1367.42,-146.37"/>
<polygon fill="#63b8ff" stroke="#63b8ff" points="1367.82,-149.86 1376.85,-144.32 1366.34,-143.02 1367.82,-149.86"/>
</g>
<!-- Node26&#45;&gt;Node11 -->
<g id="edge23" class="edge">
<title>Node26&#45;&gt;Node11</title>
<path fill="none" stroke="#63b8ff" d="M1414.88,-126.21C1423.86,-109.25 1446.07,-72.15 1476.5,-55 1518.6,-31.27 1653.4,-18.84 1728.59,-13.6"/>
<polygon fill="#63b8ff" stroke="#63b8ff" points="1728.42,-17.12 1738.16,-12.95 1727.95,-10.14 1728.42,-17.12"/>
</g>
<!-- Node27&#45;&gt;Node13 -->
<g id="edge43" class="edge">
<title>Node27&#45;&gt;Node13</title>
<path fill="none" stroke="#63b8ff" d="M1064.92,-188.57C1136.38,-180.23 1243.3,-165.51 1255.5,-151 1276.67,-125.81 1236.41,-99.98 1204.9,-84.72"/>
<polygon fill="#63b8ff" stroke="#63b8ff" points="1206.56,-81.63 1196.02,-80.6 1203.62,-87.99 1206.56,-81.63"/>
</g>
<!-- Node28 -->
<g id="node21" class="node">
<title>Node28</title>
<g id="a_node21"><a xlink:href="d__bg__s_8h.html" target="_top" xlink:title=" ">
<polygon fill="#fff0f0" stroke="red" points="1039,-145.5 962,-145.5 962,-126.5 1039,-126.5 1039,-145.5"/>
<text text-anchor="middle" x="1000.5" y="-133.5" font-family="Helvetica,sans-Serif" font-size="10.00">d/bg/d_bg_s.h</text>
</a>
</g>
</g>
<!-- Node27&#45;&gt;Node28 -->
<g id="edge26" class="edge">
<title>Node27&#45;&gt;Node28</title>
<path fill="none" stroke="#63b8ff" d="M1000.5,-186.87C1000.5,-179 1000.5,-167.1 1000.5,-156.89"/>
<polygon fill="#63b8ff" stroke="#63b8ff" points="1004,-157.18 1000.5,-147.18 997,-157.18 1004,-157.18"/>
</g>
<!-- Node34 -->
<g id="node22" class="node">
<title>Node34</title>
<g id="a_node22"><a xlink:href="d__cc__s_8h.html" target="_top" xlink:title=" ">
<polygon fill="#fff0f0" stroke="red" points="1134,-145.5 1057,-145.5 1057,-126.5 1134,-126.5 1134,-145.5"/>
<text text-anchor="middle" x="1095.5" y="-133.5" font-family="Helvetica,sans-Serif" font-size="10.00">d/cc/d_cc_s.h</text>
</a>
</g>
</g>
<!-- Node27&#45;&gt;Node34 -->
<g id="edge29" class="edge">
<title>Node27&#45;&gt;Node34</title>
<path fill="none" stroke="#63b8ff" d="M1014.93,-186.62C1029.85,-177.42 1053.43,-162.91 1071.23,-151.94"/>
<polygon fill="#63b8ff" stroke="#63b8ff" points="1072.97,-154.99 1079.65,-146.76 1069.3,-149.03 1072.97,-154.99"/>
</g>
<!-- Node44 -->
<g id="node23" class="node">
<title>Node44</title>
<g id="a_node23"><a xlink:href="d__attention_8h.html" target="_top" xlink:title=" ">
<polygon fill="#fff0f0" stroke="red" points="469.5,-145.5 389.5,-145.5 389.5,-126.5 469.5,-126.5 469.5,-145.5"/>
<text text-anchor="middle" x="429.5" y="-133.5" font-family="Helvetica,sans-Serif" font-size="10.00">d/d_attention.h</text>
</a>
</g>
</g>
<!-- Node27&#45;&gt;Node44 -->
<g id="edge31" class="edge">
<title>Node27&#45;&gt;Node44</title>
<path fill="none" stroke="#63b8ff" d="M936.09,-194.01C837,-190.81 641.54,-180.95 478.5,-151 475.13,-150.38 471.65,-149.63 468.19,-148.8"/>
<polygon fill="#63b8ff" stroke="#63b8ff" points="469.29,-145.47 458.73,-146.32 467.52,-152.24 469.29,-145.47"/>
</g>
<!-- Node161 -->
<g id="node24" class="node">
<title>Node161</title>
<g id="a_node24"><a xlink:href="d__resorce_8h.html" target="_top" xlink:title=" ">
<polygon fill="#fff0f0" stroke="red" points="563,-145.5 488,-145.5 488,-126.5 563,-126.5 563,-145.5"/>
<text text-anchor="middle" x="525.5" y="-133.5" font-family="Helvetica,sans-Serif" font-size="10.00">d/d_resorce.h</text>
</a>
</g>
</g>
<!-- Node27&#45;&gt;Node161 -->
<g id="edge32" class="edge">
<title>Node27&#45;&gt;Node161</title>
<path fill="none" stroke="#63b8ff" d="M936.32,-192.69C851.94,-188.12 699.39,-176.84 571.5,-151 568.53,-150.4 565.49,-149.69 562.44,-148.91"/>
<polygon fill="#63b8ff" stroke="#63b8ff" points="563.58,-145.6 553.01,-146.28 561.7,-152.34 563.58,-145.6"/>
</g>
<!-- Node180 -->
<g id="node25" class="node">
<title>Node180</title>
<g id="a_node25"><a xlink:href="d__vibration_8h.html" target="_top" xlink:title=" ">
<polygon fill="#fff0f0" stroke="red" points="816.5,-145.5 736.5,-145.5 736.5,-126.5 816.5,-126.5 816.5,-145.5"/>
<text text-anchor="middle" x="776.5" y="-133.5" font-family="Helvetica,sans-Serif" font-size="10.00">d/d_vibration.h</text>
</a>
</g>
</g>
<!-- Node27&#45;&gt;Node180 -->
<g id="edge33" class="edge">
<title>Node27&#45;&gt;Node180</title>
<path fill="none" stroke="#63b8ff" d="M963.88,-186.52C928.42,-177.75 873.17,-163.87 825.5,-151 823.11,-150.35 820.65,-149.68 818.17,-149"/>
<polygon fill="#63b8ff" stroke="#63b8ff" points="819.34,-145.69 808.76,-146.36 817.45,-152.43 819.34,-145.69"/>
</g>
<!-- Node182 -->
<g id="node26" class="node">
<title>Node182</title>
<g id="a_node26"><a xlink:href="d__event_8h.html" target="_top" xlink:title=" ">
<polygon fill="#fff0f0" stroke="red" points="1246.5,-145.5 1152.5,-145.5 1152.5,-126.5 1246.5,-126.5 1246.5,-145.5"/>
<text text-anchor="middle" x="1199.5" y="-133.5" font-family="Helvetica,sans-Serif" font-size="10.00">d/event/d_event.h</text>
</a>
</g>
</g>
<!-- Node27&#45;&gt;Node182 -->
<g id="edge35" class="edge">
<title>Node27&#45;&gt;Node182</title>
<path fill="none" stroke="#63b8ff" d="M1030.72,-186.62C1064.77,-176.61 1120.29,-160.29 1158.29,-149.12"/>
<polygon fill="#63b8ff" stroke="#63b8ff" points="1158.93,-152.57 1167.54,-146.4 1156.96,-145.86 1158.93,-152.57"/>
</g>
<!-- Node203 -->
<g id="node27" class="node">
<title>Node203</title>
<g id="a_node27"><a xlink:href="d__event__manager_8h.html" target="_top" xlink:title=" ">
<polygon fill="#fff0f0" stroke="red" points="718,-145.5 581,-145.5 581,-126.5 718,-126.5 718,-145.5"/>
<text text-anchor="middle" x="649.5" y="-133.5" font-family="Helvetica,sans-Serif" font-size="10.00">d/event/d_event_manager.h</text>
</a>
</g>
</g>
<!-- Node27&#45;&gt;Node203 -->
<g id="edge37" class="edge">
<title>Node27&#45;&gt;Node203</title>
<path fill="none" stroke="#63b8ff" d="M943.73,-186.52C888.48,-177.71 802.17,-163.79 727.5,-151 721.65,-150 715.56,-148.94 709.47,-147.86"/>
<polygon fill="#63b8ff" stroke="#63b8ff" points="710.52,-144.5 700.07,-146.2 709.3,-151.39 710.52,-144.5"/>
</g>
<!-- Node205 -->
<g id="node28" class="node">
<title>Node205</title>
<g id="a_node28"><a xlink:href="d__particle_8h.html" target="_top" xlink:title=" ">
<polygon fill="#fff0f0" stroke="red" points="944,-145.5 835,-145.5 835,-126.5 944,-126.5 944,-145.5"/>
<text text-anchor="middle" x="889.5" y="-133.5" font-family="Helvetica,sans-Serif" font-size="10.00">d/particle/d_particle.h</text>
</a>
</g>
</g>
<!-- Node27&#45;&gt;Node205 -->
<g id="edge39" class="edge">
<title>Node27&#45;&gt;Node205</title>
<path fill="none" stroke="#63b8ff" d="M983.64,-186.62C965.88,-177.25 937.62,-162.36 916.7,-151.33"/>
<polygon fill="#63b8ff" stroke="#63b8ff" points="918.33,-148.24 907.86,-146.67 915.07,-154.43 918.33,-148.24"/>
</g>
<!-- Node213 -->
<g id="node29" class="node">
<title>Node213</title>
<g id="a_node29"><a xlink:href="f__op__camera__mng_8h.html" target="_top" xlink:title=" ">
<polygon fill="#fff0f0" stroke="red" points="1375.5,-79.5 1249.5,-79.5 1249.5,-60.5 1375.5,-60.5 1375.5,-79.5"/>
<text text-anchor="middle" x="1312.5" y="-67.5" font-family="Helvetica,sans-Serif" font-size="10.00">f_op/f_op_camera_mng.h</text>
</a>
</g>
</g>
<!-- Node27&#45;&gt;Node213 -->
<g id="edge41" class="edge">
<title>Node27&#45;&gt;Node213</title>
<path fill="none" stroke="#63b8ff" d="M1064.84,-188.01C1139.65,-178.83 1255.03,-163.01 1271.5,-151 1291.37,-136.51 1302.31,-109.55 1307.79,-90.96"/>
<polygon fill="#63b8ff" stroke="#63b8ff" points="1311.15,-91.95 1310.31,-81.39 1304.38,-90.17 1311.15,-91.95"/>
</g>
<!-- Node28&#45;&gt;Node11 -->
<g id="edge27" class="edge">
<title>Node28&#45;&gt;Node11</title>
<path fill="none" stroke="#63b8ff" d="M1011.48,-126.23C1033.82,-108.96 1086.87,-70.82 1138.5,-55 1248.29,-21.37 1595.66,-13.05 1728.31,-11.08"/>
<polygon fill="#63b8ff" stroke="#63b8ff" points="1728.26,-14.59 1738.21,-10.94 1728.16,-7.59 1728.26,-14.59"/>
</g>
<!-- Node28&#45;&gt;Node13 -->
<g id="edge28" class="edge">
<title>Node28&#45;&gt;Node13</title>
<path fill="none" stroke="#63b8ff" d="M1024.42,-126.1C1053.86,-115.15 1104.08,-96.46 1137.77,-83.92"/>
<polygon fill="#63b8ff" stroke="#63b8ff" points="1138.94,-87.22 1147.09,-80.45 1136.5,-80.66 1138.94,-87.22"/>
</g>
<!-- Node34&#45;&gt;Node13 -->
<g id="edge30" class="edge">
<title>Node34&#45;&gt;Node13</title>
<path fill="none" stroke="#63b8ff" d="M1106.21,-126.1C1118.39,-115.98 1138.52,-99.24 1153.41,-86.87"/>
<polygon fill="#63b8ff" stroke="#63b8ff" points="1155.27,-89.87 1160.72,-80.79 1150.79,-84.49 1155.27,-89.87"/>
</g>
<!-- Node180&#45;&gt;Node6 -->
<g id="edge34" class="edge">
<title>Node180&#45;&gt;Node6</title>
<path fill="none" stroke="#63b8ff" d="M767.6,-126.1C759.09,-117.59 745.91,-104.41 734.57,-93.07"/>
<polygon fill="#63b8ff" stroke="#63b8ff" points="737.35,-90.9 727.8,-86.3 732.4,-95.85 737.35,-90.9"/>
</g>
<!-- Node182&#45;&gt;Node13 -->
<g id="edge36" class="edge">
<title>Node182&#45;&gt;Node13</title>
<path fill="none" stroke="#63b8ff" d="M1195.75,-126.1C1191.84,-116.84 1185.59,-102.04 1180.56,-90.11"/>
<polygon fill="#63b8ff" stroke="#63b8ff" points="1183.92,-89.07 1176.81,-81.22 1177.47,-91.79 1183.92,-89.07"/>
</g>
<!-- Node203&#45;&gt;Node6 -->
<g id="edge38" class="edge">
<title>Node203&#45;&gt;Node6</title>
<path fill="none" stroke="#63b8ff" d="M658.26,-126.1C666.56,-117.67 679.36,-104.66 690.45,-93.4"/>
<polygon fill="#63b8ff" stroke="#63b8ff" points="692.91,-95.89 697.43,-86.31 687.92,-90.98 692.91,-95.89"/>
</g>
<!-- Node205&#45;&gt;Node11 -->
<g id="edge40" class="edge">
<title>Node205&#45;&gt;Node11</title>
<path fill="none" stroke="#63b8ff" d="M904.35,-126.24C934.46,-108.99 1005.42,-70.88 1070.5,-55 1195.37,-24.52 1586.56,-14.19 1728.44,-11.39"/>
<polygon fill="#63b8ff" stroke="#63b8ff" points="1728.36,-14.89 1738.29,-11.2 1728.23,-7.89 1728.36,-14.89"/>
</g>
<!-- Node213&#45;&gt;Node11 -->
<g id="edge42" class="edge">
<title>Node213&#45;&gt;Node11</title>
<path fill="none" stroke="#63b8ff" d="M1358.84,-60.06C1368.92,-58.26 1379.55,-56.47 1389.5,-55 1510.52,-37.13 1653.53,-22.49 1728.57,-15.3"/>
<polygon fill="#63b8ff" stroke="#63b8ff" points="1728.44,-18.83 1738.07,-14.4 1727.78,-11.86 1728.44,-18.83"/>
</g>
<!-- Node226&#45;&gt;Node6 -->
<g id="edge45" class="edge">
<title>Node226&#45;&gt;Node6</title>
<path fill="none" stroke="#63b8ff" d="M1279.56,-186.67C1279.15,-170.71 1275.75,-137.23 1255.5,-121 1219.3,-92 920.26,-78.1 782.06,-73.17"/>
<polygon fill="#63b8ff" stroke="#63b8ff" points="782.42,-69.68 772.3,-72.83 782.18,-76.68 782.42,-69.68"/>
</g>
<!-- Node98&#45;&gt;Node12 -->
<g id="edge79" class="edge">
<title>Node98&#45;&gt;Node12</title>
<path fill="none" stroke="#63b8ff" d="M2037.8,-189.11C2042.4,-188.35 2047.06,-187.62 2051.5,-187 2207.69,-165.24 2254.05,-198.26 2404.5,-151 2404.6,-150.97 2481.18,-108.41 2522.61,-85.39"/>
<polygon fill="#63b8ff" stroke="#63b8ff" points="2524.19,-88.52 2531.23,-80.6 2520.79,-82.4 2524.19,-88.52"/>
</g>
<!-- Node98&#45;&gt;Node26 -->
<g id="edge48" class="edge">
<title>Node98&#45;&gt;Node26</title>
<path fill="none" stroke="#63b8ff" d="M1969.16,-195.68C1881.78,-195.49 1644.24,-191.02 1451.5,-151 1449.05,-150.49 1446.54,-149.88 1444.03,-149.19"/>
<polygon fill="#63b8ff" stroke="#63b8ff" points="1445.24,-145.9 1434.65,-146.32 1443.19,-152.6 1445.24,-145.9"/>
</g>
<!-- Node99 -->
<g id="node33" class="node">
<title>Node99</title>
<g id="a_node33"><a xlink:href="dvd_8h.html" target="_top" xlink:title=" ">
<polygon fill="white" stroke="#666666" points="1581.5,-79.5 1507.5,-79.5 1507.5,-60.5 1581.5,-60.5 1581.5,-79.5"/>
<text text-anchor="middle" x="1544.5" y="-67.5" font-family="Helvetica,sans-Serif" font-size="10.00">dolphin/dvd.h</text>
</a>
</g>
</g>
<!-- Node98&#45;&gt;Node99 -->
<g id="edge49" class="edge">
<title>Node98&#45;&gt;Node99</title>
<path fill="none" stroke="#63b8ff" d="M1969.37,-186.51C1944.69,-179.14 1911.14,-167.26 1884.5,-151 1867.58,-140.68 1869.45,-129.4 1851.5,-121 1745.84,-71.55 1705.51,-109.72 1591.5,-85 1588.73,-84.4 1585.89,-83.72 1583.04,-82.99"/>
<polygon fill="#63b8ff" stroke="#63b8ff" points="1584.18,-79.67 1573.61,-80.4 1582.33,-86.42 1584.18,-79.67"/>
</g>
<!-- Node100 -->
<g id="node34" class="node">
<title>Node100</title>
<g id="a_node34"><a xlink:href="OSAlarm_8h.html" target="_top" xlink:title=" ">
<polygon fill="white" stroke="#666666" points="2368,-145.5 2257,-145.5 2257,-126.5 2368,-126.5 2368,-145.5"/>
<text text-anchor="middle" x="2312.5" y="-133.5" font-family="Helvetica,sans-Serif" font-size="10.00">dolphin/os/OSAlarm.h</text>
</a>
</g>
</g>
<!-- Node98&#45;&gt;Node100 -->
<g id="edge51" class="edge">
<title>Node98&#45;&gt;Node100</title>
<path fill="none" stroke="#63b8ff" d="M2037.96,-189.23C2084.44,-180.75 2169.77,-165.04 2242.5,-151 2247.15,-150.1 2251.98,-149.16 2256.82,-148.21"/>
<polygon fill="#63b8ff" stroke="#63b8ff" points="2257.47,-151.65 2266.6,-146.27 2256.11,-144.78 2257.47,-151.65"/>
</g>
<!-- Node101 -->
<g id="node35" class="node">
<title>Node101</title>
<g id="a_node35"><a xlink:href="OSError_8h.html" target="_top" xlink:title=" ">
<polygon fill="white" stroke="#666666" points="2353.5,-79.5 2247.5,-79.5 2247.5,-60.5 2353.5,-60.5 2353.5,-79.5"/>
<text text-anchor="middle" x="2300.5" y="-67.5" font-family="Helvetica,sans-Serif" font-size="10.00">dolphin/os/OSError.h</text>
</a>
</g>
</g>
<!-- Node98&#45;&gt;Node101 -->
<g id="edge64" class="edge">
<title>Node98&#45;&gt;Node101</title>
<path fill="none" stroke="#63b8ff" d="M2037.88,-189.01C2084.1,-179.99 2163.59,-163.38 2190.5,-151 2226.22,-134.57 2262.01,-105.67 2282.66,-87.47"/>
<polygon fill="#63b8ff" stroke="#63b8ff" points="2284.81,-90.25 2289.91,-80.96 2280.13,-85.04 2284.81,-90.25"/>
</g>
<!-- Node102 -->
<g id="node36" class="node">
<title>Node102</title>
<g id="a_node36"><a xlink:href="OSAlloc_8h.html" target="_top" xlink:title=" ">
<polygon fill="white" stroke="#666666" points="1707,-79.5 1600,-79.5 1600,-60.5 1707,-60.5 1707,-79.5"/>
<text text-anchor="middle" x="1653.5" y="-67.5" font-family="Helvetica,sans-Serif" font-size="10.00">dolphin/os/OSAlloc.h</text>
</a>
</g>
</g>
<!-- Node98&#45;&gt;Node102 -->
<g id="edge55" class="edge">
<title>Node98&#45;&gt;Node102</title>
<path fill="none" stroke="#63b8ff" d="M1985.3,-186.6C1968.55,-178.15 1943.23,-164.74 1922.5,-151 1904.56,-139.11 1903.97,-130.16 1884.5,-121 1815.4,-88.5 1791.11,-101.28 1716.5,-85 1712.66,-84.16 1708.69,-83.29 1704.7,-82.41"/>
<polygon fill="#63b8ff" stroke="#63b8ff" points="1705.48,-79 1694.96,-80.26 1703.97,-85.84 1705.48,-79"/>
</g>
<!-- Node103 -->
<g id="node37" class="node">
<title>Node103</title>
<g id="a_node37"><a xlink:href="OSArena_8h.html" target="_top" xlink:title=" ">
<polygon fill="white" stroke="#666666" points="1836,-79.5 1725,-79.5 1725,-60.5 1836,-60.5 1836,-79.5"/>
<text text-anchor="middle" x="1780.5" y="-67.5" font-family="Helvetica,sans-Serif" font-size="10.00">dolphin/os/OSArena.h</text>
</a>
</g>
</g>
<!-- Node98&#45;&gt;Node103 -->
<g id="edge57" class="edge">
<title>Node98&#45;&gt;Node103</title>
<path fill="none" stroke="#63b8ff" d="M1994.88,-186.73C1977.5,-169.19 1938.55,-130.64 1922.5,-121 1893.72,-103.71 1858.08,-91.18 1829.7,-82.99"/>
<polygon fill="#63b8ff" stroke="#63b8ff" points="1830.84,-79.68 1820.27,-80.36 1828.96,-86.42 1830.84,-79.68"/>
</g>
<!-- Node104 -->
<g id="node38" class="node">
<title>Node104</title>
<g id="a_node38"><a xlink:href="OSAudioSystem_8h.html" target="_top" xlink:title=" ">
<polygon fill="white" stroke="#666666" points="2782,-145.5 2639,-145.5 2639,-126.5 2782,-126.5 2782,-145.5"/>
<text text-anchor="middle" x="2710.5" y="-133.5" font-family="Helvetica,sans-Serif" font-size="10.00">dolphin/os/OSAudioSystem.h</text>
</a>
</g>
</g>
<!-- Node98&#45;&gt;Node104 -->
<g id="edge59" class="edge">
<title>Node98&#45;&gt;Node104</title>
<path fill="none" stroke="#63b8ff" d="M2037.78,-188.94C2042.38,-188.21 2047.05,-187.53 2051.5,-187 2307.07,-156.51 2373.86,-180.96 2629.5,-151 2637.02,-150.12 2644.91,-149 2652.68,-147.78"/>
<polygon fill="#63b8ff" stroke="#63b8ff" points="2653.14,-151.25 2662.45,-146.19 2652.01,-144.35 2653.14,-151.25"/>
</g>
<!-- Node105 -->
<g id="node39" class="node">
<title>Node105</title>
<g id="a_node39"><a xlink:href="OSCache_8h.html" target="_top" xlink:title=" ">
<polygon fill="white" stroke="#666666" points="1967,-79.5 1854,-79.5 1854,-60.5 1967,-60.5 1967,-79.5"/>
<text text-anchor="middle" x="1910.5" y="-67.5" font-family="Helvetica,sans-Serif" font-size="10.00">dolphin/os/OSCache.h</text>
</a>
</g>
</g>
<!-- Node98&#45;&gt;Node105 -->
<g id="edge60" class="edge">
<title>Node98&#45;&gt;Node105</title>
<path fill="none" stroke="#63b8ff" d="M1999.41,-186.78C1992.45,-172.38 1977.41,-143.04 1960.5,-121 1951.23,-108.92 1939.21,-96.81 1929.27,-87.53"/>
<polygon fill="#63b8ff" stroke="#63b8ff" points="1931.75,-85.05 1922,-80.91 1927.04,-90.23 1931.75,-85.05"/>
</g>
<!-- Node70 -->
<g id="node40" class="node">
<title>Node70</title>
<g id="a_node40"><a xlink:href="OSContext_8h.html" target="_top" xlink:title=" ">
<polygon fill="white" stroke="#666666" points="2104,-79.5 1985,-79.5 1985,-60.5 2104,-60.5 2104,-79.5"/>
<text text-anchor="middle" x="2044.5" y="-67.5" font-family="Helvetica,sans-Serif" font-size="10.00">dolphin/os/OSContext.h</text>
</a>
</g>
</g>
<!-- Node98&#45;&gt;Node70 -->
<g id="edge62" class="edge">
<title>Node98&#45;&gt;Node70</title>
<path fill="none" stroke="#63b8ff" d="M2006.45,-186.55C2013.04,-166.54 2029.09,-117.81 2038.09,-90.45"/>
<polygon fill="#63b8ff" stroke="#63b8ff" points="2041.3,-91.9 2041.1,-81.31 2034.65,-89.71 2041.3,-91.9"/>
</g>
<!-- Node106 -->
<g id="node41" class="node">
<title>Node106</title>
<g id="a_node41"><a xlink:href="OSExec_8h.html" target="_top" xlink:title=" ">
<polygon fill="white" stroke="#666666" points="2229,-79.5 2122,-79.5 2122,-60.5 2229,-60.5 2229,-79.5"/>
<text text-anchor="middle" x="2175.5" y="-67.5" font-family="Helvetica,sans-Serif" font-size="10.00">dolphin/os/OSExec.h</text>
</a>
</g>
</g>
<!-- Node98&#45;&gt;Node106 -->
<g id="edge65" class="edge">
<title>Node98&#45;&gt;Node106</title>
<path fill="none" stroke="#63b8ff" d="M2037.65,-188.69C2084.25,-179.07 2163,-161.49 2171.5,-151 2185.02,-134.31 2183.68,-108.64 2180.49,-90.9"/>
<polygon fill="#63b8ff" stroke="#63b8ff" points="2183.96,-90.37 2178.41,-81.34 2177.12,-91.86 2183.96,-90.37"/>
</g>
<!-- Node107 -->
<g id="node42" class="node">
<title>Node107</title>
<g id="a_node42"><a xlink:href="OSFont_8h.html" target="_top" xlink:title=" ">
<polygon fill="white" stroke="#666666" points="2477,-79.5 2372,-79.5 2372,-60.5 2477,-60.5 2477,-79.5"/>
<text text-anchor="middle" x="2424.5" y="-67.5" font-family="Helvetica,sans-Serif" font-size="10.00">dolphin/os/OSFont.h</text>
</a>
</g>
</g>
<!-- Node98&#45;&gt;Node107 -->
<g id="edge67" class="edge">
<title>Node98&#45;&gt;Node107</title>
<path fill="none" stroke="#63b8ff" d="M2037.8,-189.14C2042.4,-188.38 2047.06,-187.64 2051.5,-187 2123.64,-176.64 2316.33,-190.63 2377.5,-151 2399.02,-137.06 2411.94,-109.54 2418.65,-90.71"/>
<polygon fill="#63b8ff" stroke="#63b8ff" points="2421.96,-91.85 2421.71,-81.25 2415.3,-89.69 2421.96,-91.85"/>
</g>
<!-- Node108 -->
<g id="node43" class="node">
<title>Node108</title>
<g id="a_node43"><a xlink:href="OSInterrupt_8h.html" target="_top" xlink:title=" ">
<polygon fill="white" stroke="#666666" points="2742.5,-79.5 2620.5,-79.5 2620.5,-60.5 2742.5,-60.5 2742.5,-79.5"/>
<text text-anchor="middle" x="2681.5" y="-67.5" font-family="Helvetica,sans-Serif" font-size="10.00">dolphin/os/OSInterrupt.h</text>
</a>
</g>
</g>
<!-- Node98&#45;&gt;Node108 -->
<g id="edge69" class="edge">
<title>Node98&#45;&gt;Node108</title>
<path fill="none" stroke="#63b8ff" d="M2037.79,-189.07C2042.39,-188.31 2047.05,-187.6 2051.5,-187 2224.9,-163.73 2277.71,-206.88 2443.5,-151 2467.34,-142.96 2468.41,-130.98 2491.5,-121 2516.36,-110.26 2583.46,-93.61 2630.85,-82.51"/>
<polygon fill="#63b8ff" stroke="#63b8ff" points="2631.42,-85.97 2640.36,-80.3 2629.83,-79.15 2631.42,-85.97"/>
</g>
<!-- Node109 -->
<g id="node44" class="node">
<title>Node109</title>
<g id="a_node44"><a xlink:href="OSLink_8h.html" target="_top" xlink:title=" ">
<polygon fill="white" stroke="#666666" points="1564.5,-145.5 1460.5,-145.5 1460.5,-126.5 1564.5,-126.5 1564.5,-145.5"/>
<text text-anchor="middle" x="1512.5" y="-133.5" font-family="Helvetica,sans-Serif" font-size="10.00">dolphin/os/OSLink.h</text>
</a>
</g>
</g>
<!-- Node98&#45;&gt;Node109 -->
<g id="edge71" class="edge">
<title>Node98&#45;&gt;Node109</title>
<path fill="none" stroke="#63b8ff" d="M1969.12,-193.33C1896.09,-188.4 1720.25,-174.93 1574.5,-151 1569.78,-150.23 1564.89,-149.31 1560.01,-148.33"/>
<polygon fill="#63b8ff" stroke="#63b8ff" points="1560.74,-144.91 1550.23,-146.26 1559.29,-151.75 1560.74,-144.91"/>
</g>
<!-- Node110 -->
<g id="node45" class="node">
<title>Node110</title>
<g id="a_node45"><a xlink:href="OSMemory_8h.html" target="_top" xlink:title=" ">
<polygon fill="white" stroke="#666666" points="2620.5,-145.5 2500.5,-145.5 2500.5,-126.5 2620.5,-126.5 2620.5,-145.5"/>
<text text-anchor="middle" x="2560.5" y="-133.5" font-family="Helvetica,sans-Serif" font-size="10.00">dolphin/os/OSMemory.h</text>
</a>
</g>
</g>
<!-- Node98&#45;&gt;Node110 -->
<g id="edge73" class="edge">
<title>Node98&#45;&gt;Node110</title>
<path fill="none" stroke="#63b8ff" d="M2037.79,-189.03C2042.39,-188.28 2047.05,-187.58 2051.5,-187 2243.88,-162.06 2294.26,-177.07 2486.5,-151 2492.89,-150.13 2499.57,-149.08 2506.18,-147.95"/>
<polygon fill="#63b8ff" stroke="#63b8ff" points="2506.47,-151.45 2515.7,-146.24 2505.24,-144.56 2506.47,-151.45"/>
</g>
<!-- Node111 -->
<g id="node46" class="node">
<title>Node111</title>
<g id="a_node46"><a xlink:href="OSMessage_8h.html" target="_top" xlink:title=" ">
<polygon fill="#fff0f0" stroke="red" points="1708,-145.5 1583,-145.5 1583,-126.5 1708,-126.5 1708,-145.5"/>
<text text-anchor="middle" x="1645.5" y="-133.5" font-family="Helvetica,sans-Serif" font-size="10.00">dolphin/os/OSMessage.h</text>
</a>
</g>
</g>
<!-- Node98&#45;&gt;Node111 -->
<g id="edge75" class="edge">
<title>Node98&#45;&gt;Node111</title>
<path fill="none" stroke="#63b8ff" d="M1969.09,-190.57C1915.31,-182.78 1808.08,-166.85 1717.5,-151 1712.29,-150.09 1706.87,-149.1 1701.45,-148.09"/>
<polygon fill="#63b8ff" stroke="#63b8ff" points="1702.35,-144.7 1691.88,-146.28 1701.05,-151.58 1702.35,-144.7"/>
</g>
<!-- Node112 -->
<g id="node47" class="node">
<title>Node112</title>
<g id="a_node47"><a xlink:href="OSMutex_8h.html" target="_top" xlink:title=" ">
<polygon fill="#fff0f0" stroke="red" points="2162.5,-145.5 2050.5,-145.5 2050.5,-126.5 2162.5,-126.5 2162.5,-145.5"/>
<text text-anchor="middle" x="2106.5" y="-133.5" font-family="Helvetica,sans-Serif" font-size="10.00">dolphin/os/OSMutex.h</text>
</a>
</g>
</g>
<!-- Node98&#45;&gt;Node112 -->
<g id="edge76" class="edge">
<title>Node98&#45;&gt;Node112</title>
<path fill="none" stroke="#63b8ff" d="M2019.14,-186.62C2035.48,-177.34 2061.37,-162.63 2080.73,-151.64"/>
<polygon fill="#63b8ff" stroke="#63b8ff" points="2082.43,-154.7 2089.39,-146.72 2078.97,-148.61 2082.43,-154.7"/>
</g>
<!-- Node113 -->
<g id="node48" class="node">
<title>Node113</title>
<g id="a_node48"><a xlink:href="OSReboot_8h.html" target="_top" xlink:title=" ">
<polygon fill="white" stroke="#666666" points="1842.5,-145.5 1726.5,-145.5 1726.5,-126.5 1842.5,-126.5 1842.5,-145.5"/>
<text text-anchor="middle" x="1784.5" y="-133.5" font-family="Helvetica,sans-Serif" font-size="10.00">dolphin/os/OSReboot.h</text>
</a>
</g>
</g>
<!-- Node98&#45;&gt;Node113 -->
<g id="edge77" class="edge">
<title>Node98&#45;&gt;Node113</title>
<path fill="none" stroke="#63b8ff" d="M1970.24,-186.62C1932.53,-176.54 1870.89,-160.08 1829.05,-148.9"/>
<polygon fill="#63b8ff" stroke="#63b8ff" points="1830.1,-145.56 1819.54,-146.36 1828.29,-152.32 1830.1,-145.56"/>
</g>
<!-- Node99&#45;&gt;Node11 -->
<g id="edge50" class="edge">
<title>Node99&#45;&gt;Node11</title>
<path fill="none" stroke="#63b8ff" d="M1573.51,-60.07C1579.44,-58.33 1585.66,-56.56 1591.5,-55 1637.75,-42.68 1690.83,-30.34 1728.95,-21.79"/>
<polygon fill="#63b8ff" stroke="#63b8ff" points="1729.3,-25.29 1738.3,-19.7 1727.77,-18.46 1729.3,-25.29"/>
</g>
<!-- Node100&#45;&gt;Node12 -->
<g id="edge54" class="edge">
<title>Node100&#45;&gt;Node12</title>
<path fill="none" stroke="#63b8ff" d="M2345.56,-126.03C2387.17,-114.75 2458.74,-95.34 2504.81,-82.85"/>
<polygon fill="#63b8ff" stroke="#63b8ff" points="2505.46,-86.3 2514.2,-80.3 2503.63,-79.54 2505.46,-86.3"/>
</g>
<!-- Node100&#45;&gt;Node101 -->
<g id="edge52" class="edge">
<title>Node100&#45;&gt;Node101</title>
<path fill="none" stroke="#63b8ff" d="M2310.83,-126.1C2309.13,-117.03 2306.43,-102.64 2304.22,-90.85"/>
<polygon fill="#63b8ff" stroke="#63b8ff" points="2307.72,-90.49 2302.43,-81.31 2300.84,-91.78 2307.72,-90.49"/>
</g>
<!-- Node101&#45;&gt;Node11 -->
<g id="edge53" class="edge">
<title>Node101&#45;&gt;Node11</title>
<path fill="none" stroke="#63b8ff" d="M2264.26,-60.02C2255.84,-58.15 2246.89,-56.35 2238.5,-55 2092.55,-31.53 1918.29,-18.74 1832.91,-13.45"/>
<polygon fill="#63b8ff" stroke="#63b8ff" points="1833.17,-9.96 1822.98,-12.85 1832.74,-16.95 1833.17,-9.96"/>
</g>
<!-- Node102&#45;&gt;Node11 -->
<g id="edge56" class="edge">
<title>Node102&#45;&gt;Node11</title>
<path fill="none" stroke="#63b8ff" d="M1672.79,-60.12C1693.49,-50.58 1726.63,-35.31 1750.69,-24.23"/>
<polygon fill="#63b8ff" stroke="#63b8ff" points="1752.04,-27.46 1759.66,-20.1 1749.11,-21.11 1752.04,-27.46"/>
</g>
<!-- Node103&#45;&gt;Node11 -->
<g id="edge58" class="edge">
<title>Node103&#45;&gt;Node11</title>
<path fill="none" stroke="#63b8ff" d="M1780.5,-60.37C1780.5,-52.5 1780.5,-40.6 1780.5,-30.39"/>
<polygon fill="#63b8ff" stroke="#63b8ff" points="1784,-30.68 1780.5,-20.68 1777,-30.68 1784,-30.68"/>
</g>
<!-- Node105&#45;&gt;Node11 -->
<g id="edge61" class="edge">
<title>Node105&#45;&gt;Node11</title>
<path fill="none" stroke="#63b8ff" d="M1890.76,-60.12C1869.47,-50.54 1835.33,-35.18 1810.68,-24.08"/>
<polygon fill="#63b8ff" stroke="#63b8ff" points="1812.37,-21 1801.81,-20.09 1809.49,-27.39 1812.37,-21"/>
</g>
<!-- Node70&#45;&gt;Node11 -->
<g id="edge63" class="edge">
<title>Node70&#45;&gt;Node11</title>
<path fill="none" stroke="#63b8ff" d="M2004.12,-60.05C1957.92,-49.82 1882.19,-33.03 1831.84,-21.88"/>
<polygon fill="#63b8ff" stroke="#63b8ff" points="1832.88,-18.52 1822.36,-19.78 1831.36,-25.36 1832.88,-18.52"/>
</g>
<!-- Node106&#45;&gt;Node11 -->
<g id="edge66" class="edge">
<title>Node106&#45;&gt;Node11</title>
<path fill="none" stroke="#63b8ff" d="M2138.23,-60.02C2130.11,-58.22 2121.54,-56.44 2113.5,-55 2014.8,-37.3 1898.47,-23.3 1832.72,-16.02"/>
<polygon fill="#63b8ff" stroke="#63b8ff" points="1833.26,-12.56 1822.94,-14.94 1832.5,-19.52 1833.26,-12.56"/>
</g>
<!-- Node107&#45;&gt;Node11 -->
<g id="edge68" class="edge">
<title>Node107&#45;&gt;Node11</title>
<path fill="none" stroke="#63b8ff" d="M2388.93,-60.04C2380.33,-58.13 2371.12,-56.3 2362.5,-55 2168.31,-25.81 1934.63,-15.31 1832.51,-11.94"/>
<polygon fill="#63b8ff" stroke="#63b8ff" points="1832.92,-8.45 1822.81,-11.62 1832.7,-15.44 1832.92,-8.45"/>
</g>
<!-- Node108&#45;&gt;Node11 -->
<g id="edge70" class="edge">
<title>Node108&#45;&gt;Node11</title>
<path fill="none" stroke="#63b8ff" d="M2641.68,-60.01C2631.86,-58.07 2621.34,-56.24 2611.5,-55 2318.6,-18.06 1963.86,-11.74 1832.59,-10.69"/>
<polygon fill="#63b8ff" stroke="#63b8ff" points="1832.86,-7.19 1822.84,-10.62 1832.81,-14.19 1832.86,-7.19"/>
</g>
<!-- Node109&#45;&gt;Node11 -->
<g id="edge72" class="edge">
<title>Node109&#45;&gt;Node11</title>
<path fill="none" stroke="#63b8ff" d="M1504.98,-126.22C1492.22,-110.24 1469.38,-76.08 1487.5,-55 1517.97,-19.56 1652.75,-12.01 1728.45,-10.61"/>
<polygon fill="#63b8ff" stroke="#63b8ff" points="1728.16,-14.12 1738.11,-10.47 1728.05,-7.12 1728.16,-14.12"/>
</g>
<!-- Node110&#45;&gt;Node108 -->
<g id="edge74" class="edge">
<title>Node110&#45;&gt;Node108</title>
<path fill="none" stroke="#63b8ff" d="M2577.32,-126.1C2597.37,-115.5 2631.12,-97.65 2654.76,-85.15"/>
<polygon fill="#63b8ff" stroke="#63b8ff" points="2656.28,-88.3 2663.48,-80.53 2653,-82.11 2656.28,-88.3"/>
</g>
<!-- Node113&#45;&gt;Node11 -->
<g id="edge78" class="edge">
<title>Node113&#45;&gt;Node11</title>
<path fill="none" stroke="#63b8ff" d="M1743.1,-126.06C1734.64,-124.31 1725.79,-122.55 1717.5,-121 1669.02,-111.95 1530.42,-122.6 1498.5,-85 1489.87,-74.84 1489.84,-65.14 1498.5,-55 1527.5,-21.07 1655.29,-12.85 1728.5,-10.97"/>
<polygon fill="#63b8ff" stroke="#63b8ff" points="1728.32,-14.47 1738.24,-10.75 1728.17,-7.47 1728.32,-14.47"/>
</g>
<!-- Node228&#45;&gt;Node27 -->
<g id="edge81" class="edge">
<title>Node228&#45;&gt;Node27</title>
<path fill="none" stroke="#63b8ff" d="M1064.49,-241.54C1051.64,-232.7 1035.23,-221.4 1022.25,-212.47"/>
<polygon fill="#63b8ff" stroke="#63b8ff" points="1024.57,-209.82 1014.35,-207.03 1020.61,-215.59 1024.57,-209.82"/>
</g>
</g>
</svg>
