<?xml version="1.0" encoding="UTF-8" standalone="no"?>
<!DOCTYPE svg PUBLIC "-//W3C//DTD SVG 1.1//EN"
 "http://www.w3.org/Graphics/SVG/1.1/DTD/svg11.dtd">
<!-- Generated by graphviz version 2.46.0 (20210122.1329)
 -->
<!-- Title: include/d/d_save/d_save/d_save.h Pages: 1 -->
<!--zoomable 620 -->
<svg id="main" version="1.1" xmlns="http://www.w3.org/2000/svg" xmlns:xlink="http://www.w3.org/1999/xlink" xml:space="preserve" onload="init(evt)">
<style type="text/css"><![CDATA[
.edge:hover path { stroke: red; }
.edge:hover polygon { stroke: red; fill: red; }
]]></style>
<script type="text/javascript"><![CDATA[
var edges = document.getElementsByTagName('g');
if (edges && edges.length) {
  for (var i=0;i<edges.length;i++) {
    if (edges[i].id.substr(0,4)=='edge') {
      edges[i].setAttribute('class','edge');
    }
  }
}
]]></script>
        <defs>
                <circle id="rim" cx="0" cy="0" r="7"/>
                <circle id="rim2" cx="0" cy="0" r="3.5"/>
                <g id="zoomPlus">
                        <use xlink:href="#rim" fill="#404040">
                                <set attributeName="fill" to="#808080" begin="zoomplus.mouseover" end="zoomplus.mouseout"/>
                        </use>
                        <path d="M-4,0h8M0,-4v8" fill="none" stroke="white" stroke-width="1.5" pointer-events="none"/>
                </g>
                <g id="zoomMin">
                        <use xlink:href="#rim" fill="#404040">
                                <set attributeName="fill" to="#808080" begin="zoomminus.mouseover" end="zoomminus.mouseout"/>
                        </use>
                        <path d="M-4,0h8" fill="none" stroke="white" stroke-width="1.5" pointer-events="none"/>
                </g>
                <g id="dirArrow">
                        <path fill="none" stroke="white" stroke-width="1.5" d="M0,-3.0v7 M-2.5,-0.5L0,-3.0L2.5,-0.5"/>
                </g>
               <g id="resetDef">
                       <use xlink:href="#rim2" fill="#404040">
                               <set attributeName="fill" to="#808080" begin="reset.mouseover" end="reset.mouseout"/>
                       </use>
               </g>
        </defs>

<script type="text/javascript">
var viewWidth = 1075;
var viewHeight = 620;
var sectionId = 'dynsection-0';
</script>
<script xlink:href="svgpan.js"/>
<svg id="graph" class="graph">
<g id="viewport">
<title>include/d/d_save/d_save/d_save.h</title>
<polygon fill="white" stroke="transparent" points="-4,4 -4,-616 1071.3,-616 1071.3,4 -4,4"/>
<!-- Node1 -->
<g id="node1" class="node">
<title>Node1</title>
<g id="a_node1"><a xlink:title=" ">
<polygon fill="#bfbfbf" stroke="black" points="486,-581.5 486,-611.5 584,-611.5 584,-581.5 486,-581.5"/>
<text text-anchor="start" x="494" y="-599.5" font-family="Helvetica,sans-Serif" font-size="10.00">include/d/d_save/d</text>
<text text-anchor="middle" x="535" y="-588.5" font-family="Helvetica,sans-Serif" font-size="10.00">_save/d_save.h</text>
</a>
</g>
</g>
<!-- Node2 -->
<g id="node2" class="node">
<title>Node2</title>
<g id="a_node2"><a xlink:href="c__xyz_2c__xyz_8h.html" target="_top" xlink:title=" ">
<polygon fill="white" stroke="black" points="576,-514.5 576,-544.5 684,-544.5 684,-514.5 576,-514.5"/>
<text text-anchor="start" x="584" y="-532.5" font-family="Helvetica,sans-Serif" font-size="10.00">SComponent/c_xyz/c</text>
<text text-anchor="middle" x="630" y="-521.5" font-family="Helvetica,sans-Serif" font-size="10.00">_xyz.h</text>
</a>
</g>
</g>
<!-- Node1&#45;&gt;Node2 -->
<g id="edge1" class="edge">
<title>Node1&#45;&gt;Node2</title>
<path fill="none" stroke="midnightblue" d="M555.61,-581.4C568.93,-572.28 586.46,-560.29 601.16,-550.24"/>
<polygon fill="midnightblue" stroke="midnightblue" points="603.15,-553.11 609.43,-544.58 599.2,-547.33 603.15,-553.11"/>
</g>
<!-- Node3 -->
<g id="node3" class="node">
<title>Node3</title>
<g id="a_node3"><a xlink:href="global_8h.html" target="_top" xlink:title=" ">
<polygon fill="white" stroke="black" points="743,-386 743,-405 793,-405 793,-386 743,-386"/>
<text text-anchor="middle" x="768" y="-393" font-family="Helvetica,sans-Serif" font-size="10.00">global.h</text>
</a>
</g>
</g>
<!-- Node1&#45;&gt;Node3 -->
<g id="edge49" class="edge">
<title>Node1&#45;&gt;Node3</title>
<path fill="none" stroke="midnightblue" d="M584.07,-585.21C616.36,-577.16 658.81,-564.1 693,-545 732.9,-522.71 751.93,-519.53 771,-478 780.21,-457.95 777.09,-432.1 773.25,-414.95"/>
<polygon fill="midnightblue" stroke="midnightblue" points="776.59,-413.91 770.73,-405.08 769.81,-415.64 776.59,-413.91"/>
</g>
<!-- Node4 -->
<g id="node4" class="node">
<title>Node4</title>
<g id="a_node4"><a xlink:href="types_8h.html" target="_top" xlink:title=" ">
<polygon fill="white" stroke="black" points="497.5,-0.5 497.5,-19.5 578.5,-19.5 578.5,-0.5 497.5,-0.5"/>
<text text-anchor="middle" x="538" y="-7.5" font-family="Helvetica,sans-Serif" font-size="10.00">dolphin/types.h</text>
</a>
</g>
</g>
<!-- Node1&#45;&gt;Node4 -->
<g id="edge48" class="edge">
<title>Node1&#45;&gt;Node4</title>
<path fill="none" stroke="midnightblue" d="M485.63,-593.81C353.18,-587.95 0,-562.99 0,-463.5 0,-463.5 0,-463.5 0,-137.5 0,-87.67 32.25,-77.92 77,-56 148.13,-21.15 382.75,-13.29 487.14,-11.52"/>
<polygon fill="midnightblue" stroke="midnightblue" points="487.48,-15.01 497.42,-11.35 487.37,-8.01 487.48,-15.01"/>
</g>
<!-- Node20 -->
<g id="node20" class="node">
<title>Node20</title>
<g id="a_node20"><a xlink:href="d__meter2__info_8h.html" target="_top" xlink:title=" ">
<polygon fill="white" stroke="black" points="292,-514.5 292,-544.5 402,-544.5 402,-514.5 292,-514.5"/>
<text text-anchor="start" x="300" y="-532.5" font-family="Helvetica,sans-Serif" font-size="10.00">d/d_meter2/d_meter2</text>
<text text-anchor="middle" x="347" y="-521.5" font-family="Helvetica,sans-Serif" font-size="10.00">_info/d_meter2_info.h</text>
</a>
</g>
</g>
<!-- Node1&#45;&gt;Node20 -->
<g id="edge35" class="edge">
<title>Node1&#45;&gt;Node20</title>
<path fill="none" stroke="midnightblue" d="M494.21,-581.4C465.75,-571.56 427.6,-558.37 397.27,-547.88"/>
<polygon fill="midnightblue" stroke="midnightblue" points="398.31,-544.54 387.71,-544.58 396.02,-551.15 398.31,-544.54"/>
</g>
<!-- Node2&#45;&gt;Node3 -->
<g id="edge2" class="edge">
<title>Node2&#45;&gt;Node3</title>
<path fill="none" stroke="midnightblue" d="M684.02,-517.2C707.13,-509.74 732.53,-497.58 749,-478 763.8,-460.4 767.56,-433.42 768.28,-415.38"/>
<polygon fill="midnightblue" stroke="midnightblue" points="771.78,-415.27 768.4,-405.23 764.78,-415.19 771.78,-415.27"/>
</g>
<!-- Node3&#45;&gt;Node4 -->
<g id="edge3" class="edge">
<title>Node3&#45;&gt;Node4</title>
<path fill="none" stroke="midnightblue" d="M752.31,-385.96C725.13,-370.3 669.47,-334.34 641,-288 621.53,-256.31 622,-243.69 622,-206.5 622,-206.5 622,-206.5 622,-137.5 622,-90.84 581.85,-48.23 557.06,-26.38"/>
<polygon fill="midnightblue" stroke="midnightblue" points="559.21,-23.61 549.33,-19.78 554.67,-28.93 559.21,-23.61"/>
</g>
<!-- Node5 -->
<g id="node5" class="node">
<title>Node5</title>
<g id="a_node5"><a xlink:href="AR_8h.html" target="_top" xlink:title=" ">
<polygon fill="white" stroke="black" points="783.5,-129 783.5,-148 832.5,-148 832.5,-129 783.5,-129"/>
<text text-anchor="middle" x="808" y="-136" font-family="Helvetica,sans-Serif" font-size="10.00">ar/AR.h</text>
</a>
</g>
</g>
<!-- Node3&#45;&gt;Node5 -->
<g id="edge4" class="edge">
<title>Node3&#45;&gt;Node5</title>
<path fill="none" stroke="midnightblue" d="M772.79,-385.87C778,-376.05 786.08,-359.38 790,-344 806.98,-277.31 808.59,-194.87 808.35,-158.39"/>
<polygon fill="midnightblue" stroke="midnightblue" points="811.85,-158.2 808.23,-148.24 804.85,-158.28 811.85,-158.2"/>
</g>
<!-- Node6 -->
<g id="node6" class="node">
<title>Node6</title>
<g id="a_node6"><a xlink:href="ARQ_8h.html" target="_top" xlink:title=" ">
<polygon fill="white" stroke="black" points="798,-62 798,-81 854,-81 854,-62 798,-62"/>
<text text-anchor="middle" x="826" y="-69" font-family="Helvetica,sans-Serif" font-size="10.00">ar/ARQ.h</text>
</a>
</g>
</g>
<!-- Node3&#45;&gt;Node6 -->
<g id="edge6" class="edge">
<title>Node3&#45;&gt;Node6</title>
<path fill="none" stroke="midnightblue" d="M781.47,-386C807.46,-368.43 862,-325.37 862,-273.5 862,-273.5 862,-273.5 862,-204.5 862,-162.52 844.84,-115.58 834.21,-90.55"/>
<polygon fill="midnightblue" stroke="midnightblue" points="837.35,-88.99 830.13,-81.24 830.94,-91.8 837.35,-88.99"/>
</g>
<!-- Node7 -->
<g id="node7" class="node">
<title>Node7</title>
<g id="a_node7"><a xlink:href="functions_8h.html" target="_top" xlink:title=" ">
<polygon fill="white" stroke="black" points="929,-324.5 929,-343.5 993,-343.5 993,-324.5 929,-324.5"/>
<text text-anchor="middle" x="961" y="-331.5" font-family="Helvetica,sans-Serif" font-size="10.00">functions.h</text>
</a>
</g>
</g>
<!-- Node3&#45;&gt;Node7 -->
<g id="edge8" class="edge">
<title>Node3&#45;&gt;Node7</title>
<path fill="none" stroke="midnightblue" d="M793.23,-386.72C826.44,-376.49 885.07,-358.41 923.48,-346.57"/>
<polygon fill="midnightblue" stroke="midnightblue" points="924.74,-349.84 933.26,-343.55 922.68,-343.15 924.74,-349.84"/>
</g>
<!-- Node9 -->
<g id="node9" class="node">
<title>Node9</title>
<g id="a_node9"><a xlink:href="mwcc_8h.html" target="_top" xlink:title=" ">
<polygon fill="white" stroke="black" points="890,-263 890,-282 940,-282 940,-263 890,-263"/>
<text text-anchor="middle" x="915" y="-270" font-family="Helvetica,sans-Serif" font-size="10.00">mwcc.h</text>
</a>
</g>
</g>
<!-- Node3&#45;&gt;Node9 -->
<g id="edge16" class="edge">
<title>Node3&#45;&gt;Node9</title>
<path fill="none" stroke="midnightblue" d="M793.31,-387.64C817.01,-380.15 852.25,-366.19 876,-344 891.45,-329.57 902.25,-307.61 908.5,-292.04"/>
<polygon fill="midnightblue" stroke="midnightblue" points="911.87,-293.04 912.11,-282.45 905.31,-290.57 911.87,-293.04"/>
</g>
<!-- Node10 -->
<g id="node10" class="node">
<title>Node10</title>
<g id="a_node10"><a xlink:href="OS_8h.html" target="_top" xlink:title=" ">
<polygon fill="white" stroke="black" points="996,-263 996,-282 1048,-282 1048,-263 996,-263"/>
<text text-anchor="middle" x="1022" y="-270" font-family="Helvetica,sans-Serif" font-size="10.00">os/OS.h</text>
</a>
</g>
</g>
<!-- Node3&#45;&gt;Node10 -->
<g id="edge17" class="edge">
<title>Node3&#45;&gt;Node10</title>
<path fill="none" stroke="midnightblue" d="M793.15,-392.31C847.17,-387.11 971.84,-372.29 1002,-344 1016.04,-330.83 1020.47,-308.61 1021.74,-292.63"/>
<polygon fill="midnightblue" stroke="midnightblue" points="1025.26,-292.46 1022.21,-282.32 1018.26,-292.15 1025.26,-292.46"/>
</g>
<!-- Node12 -->
<g id="node12" class="node">
<title>Node12</title>
<g id="a_node12"><a xlink:href="variables_8h.html" target="_top" xlink:title=" ">
<polygon fill="white" stroke="black" points="552.5,-324.5 552.5,-343.5 615.5,-343.5 615.5,-324.5 552.5,-324.5"/>
<text text-anchor="middle" x="584" y="-331.5" font-family="Helvetica,sans-Serif" font-size="10.00">variables.h</text>
</a>
</g>
</g>
<!-- Node3&#45;&gt;Node12 -->
<g id="edge18" class="edge">
<title>Node3&#45;&gt;Node12</title>
<path fill="none" stroke="midnightblue" d="M742.8,-386.35C711.04,-376.08 656.24,-358.36 620.06,-346.66"/>
<polygon fill="midnightblue" stroke="midnightblue" points="620.97,-343.28 610.38,-343.53 618.82,-349.94 620.97,-343.28"/>
</g>
<!-- Node5&#45;&gt;Node4 -->
<g id="edge5" class="edge">
<title>Node5&#45;&gt;Node4</title>
<path fill="none" stroke="midnightblue" d="M789.96,-128.86C758.67,-113.91 692.3,-82.26 636,-56 612.49,-45.03 585.71,-32.75 566.1,-23.79"/>
<polygon fill="midnightblue" stroke="midnightblue" points="567.37,-20.53 556.82,-19.56 564.46,-26.9 567.37,-20.53"/>
</g>
<!-- Node6&#45;&gt;Node4 -->
<g id="edge7" class="edge">
<title>Node6&#45;&gt;Node4</title>
<path fill="none" stroke="midnightblue" d="M797.86,-64.69C749.43,-54.68 649.65,-34.07 588.8,-21.5"/>
<polygon fill="midnightblue" stroke="midnightblue" points="589.15,-17.99 578.65,-19.4 587.74,-24.85 589.15,-17.99"/>
</g>
<!-- Node8 -->
<g id="node8" class="node">
<title>Node8</title>
<g id="a_node8"><a xlink:href="mtx__vec_8h.html" target="_top" xlink:title=" ">
<polygon fill="white" stroke="black" points="896.5,-62 896.5,-81 957.5,-81 957.5,-62 896.5,-62"/>
<text text-anchor="middle" x="927" y="-69" font-family="Helvetica,sans-Serif" font-size="10.00">mtx_vec.h</text>
</a>
</g>
</g>
<!-- Node7&#45;&gt;Node8 -->
<g id="edge9" class="edge">
<title>Node7&#45;&gt;Node8</title>
<path fill="none" stroke="midnightblue" d="M959.87,-324.33C955.06,-287.48 936.24,-143.33 929.46,-91.33"/>
<polygon fill="midnightblue" stroke="midnightblue" points="932.9,-90.66 928.14,-81.2 925.96,-91.57 932.9,-90.66"/>
</g>
<!-- Node7&#45;&gt;Node9 -->
<g id="edge11" class="edge">
<title>Node7&#45;&gt;Node9</title>
<path fill="none" stroke="midnightblue" d="M954.41,-324.48C947.51,-315.55 936.5,-301.31 927.87,-290.14"/>
<polygon fill="midnightblue" stroke="midnightblue" points="930.46,-287.78 921.58,-282.01 924.93,-292.06 930.46,-287.78"/>
</g>
<!-- Node7&#45;&gt;Node10 -->
<g id="edge12" class="edge">
<title>Node7&#45;&gt;Node10</title>
<path fill="none" stroke="midnightblue" d="M969.74,-324.48C979.16,-315.28 994.36,-300.46 1005.95,-289.16"/>
<polygon fill="midnightblue" stroke="midnightblue" points="1008.56,-291.5 1013.28,-282.01 1003.67,-286.49 1008.56,-291.5"/>
</g>
<!-- Node8&#45;&gt;Node4 -->
<g id="edge10" class="edge">
<title>Node8&#45;&gt;Node4</title>
<path fill="none" stroke="midnightblue" d="M896.18,-62.96C885.69,-60.54 873.87,-57.98 863,-56 766.65,-38.45 653.13,-24.18 588.96,-16.69"/>
<polygon fill="midnightblue" stroke="midnightblue" points="589.05,-13.18 578.71,-15.51 588.24,-20.13 589.05,-13.18"/>
</g>
<!-- Node10&#45;&gt;Node4 -->
<g id="edge13" class="edge">
<title>Node10&#45;&gt;Node4</title>
<path fill="none" stroke="midnightblue" d="M1028.04,-262.87C1043.51,-239.64 1081.92,-174.06 1061,-123 1045.15,-84.32 1032.72,-74.01 995,-56 924.23,-22.2 692.32,-13.78 588.75,-11.68"/>
<polygon fill="midnightblue" stroke="midnightblue" points="588.61,-8.18 578.54,-11.49 588.47,-15.18 588.61,-8.18"/>
</g>
<!-- Node11 -->
<g id="node11" class="node">
<title>Node11</title>
<g id="a_node11"><a xlink:href="dvd_8h.html" target="_top" xlink:title=" ">
<polygon fill="white" stroke="black" points="992.5,-129 992.5,-148 1051.5,-148 1051.5,-129 992.5,-129"/>
<text text-anchor="middle" x="1022" y="-136" font-family="Helvetica,sans-Serif" font-size="10.00">dvd/dvd.h</text>
</a>
</g>
</g>
<!-- Node10&#45;&gt;Node11 -->
<g id="edge14" class="edge">
<title>Node10&#45;&gt;Node11</title>
<path fill="none" stroke="midnightblue" d="M1022,-262.84C1022,-241.67 1022,-186.95 1022,-158.03"/>
<polygon fill="midnightblue" stroke="midnightblue" points="1025.5,-158.02 1022,-148.02 1018.5,-158.02 1025.5,-158.02"/>
</g>
<!-- Node11&#45;&gt;Node4 -->
<g id="edge15" class="edge">
<title>Node11&#45;&gt;Node4</title>
<path fill="none" stroke="midnightblue" d="M1018.98,-128.74C1012.51,-111.45 995.54,-73.14 967,-56 904.37,-18.39 688.05,-11.97 588.66,-11.04"/>
<polygon fill="midnightblue" stroke="midnightblue" points="588.58,-7.54 578.56,-10.96 588.53,-14.54 588.58,-7.54"/>
</g>
<!-- Node13 -->
<g id="node13" class="node">
<title>Node13</title>
<g id="a_node13"><a xlink:href="JSUList_8h.html" target="_top" xlink:title=" ">
<polygon fill="white" stroke="black" points="374,-56.5 374,-86.5 510,-86.5 510,-56.5 374,-56.5"/>
<text text-anchor="start" x="382" y="-74.5" font-family="Helvetica,sans-Serif" font-size="10.00">JSystem/JSupport/JSUList</text>
<text text-anchor="middle" x="442" y="-63.5" font-family="Helvetica,sans-Serif" font-size="10.00">/JSUList.h</text>
</a>
</g>
</g>
<!-- Node12&#45;&gt;Node13 -->
<g id="edge19" class="edge">
<title>Node12&#45;&gt;Node13</title>
<path fill="none" stroke="midnightblue" d="M552.23,-328.8C509.45,-322.42 436.83,-308.79 421,-288 412.65,-277.04 417.01,-270.19 421,-257 426.57,-238.6 435.2,-237.55 445,-221 462.12,-192.09 471.99,-186.63 480,-154 483.28,-140.62 484.37,-136.07 480,-123 476.56,-112.7 470.09,-102.81 463.46,-94.56"/>
<polygon fill="midnightblue" stroke="midnightblue" points="466.05,-92.2 456.88,-86.9 460.74,-96.76 466.05,-92.2"/>
</g>
<!-- Node14 -->
<g id="node14" class="node">
<title>Node14</title>
<g id="a_node14"><a xlink:href="JUTXfb_8h.html" target="_top" xlink:title=" ">
<polygon fill="white" stroke="black" points="430.5,-257.5 430.5,-287.5 555.5,-287.5 555.5,-257.5 430.5,-257.5"/>
<text text-anchor="start" x="438.5" y="-275.5" font-family="Helvetica,sans-Serif" font-size="10.00">JSystem/JUtility/JUTXfb</text>
<text text-anchor="middle" x="493" y="-264.5" font-family="Helvetica,sans-Serif" font-size="10.00">/JUTXfb.h</text>
</a>
</g>
</g>
<!-- Node12&#45;&gt;Node14 -->
<g id="edge21" class="edge">
<title>Node12&#45;&gt;Node14</title>
<path fill="none" stroke="midnightblue" d="M570.96,-324.48C558.52,-316.34 539.33,-303.79 523.1,-293.18"/>
<polygon fill="midnightblue" stroke="midnightblue" points="524.73,-290.07 514.45,-287.52 520.9,-295.92 524.73,-290.07"/>
</g>
<!-- Node18 -->
<g id="node18" class="node">
<title>Node18</title>
<g id="a_node18"><a xlink:href="c__xyz_8h.html" target="_top" xlink:title=" ">
<polygon fill="white" stroke="black" points="650.5,-263 650.5,-282 757.5,-282 757.5,-263 650.5,-263"/>
<text text-anchor="middle" x="704" y="-270" font-family="Helvetica,sans-Serif" font-size="10.00">SComponent/c_xyz.h</text>
</a>
</g>
</g>
<!-- Node12&#45;&gt;Node18 -->
<g id="edge31" class="edge">
<title>Node12&#45;&gt;Node18</title>
<path fill="none" stroke="midnightblue" d="M601.19,-324.48C621.24,-314.53 654.6,-297.99 677.86,-286.46"/>
<polygon fill="midnightblue" stroke="midnightblue" points="679.43,-289.59 686.84,-282.01 676.32,-283.32 679.43,-289.59"/>
</g>
<!-- Node13&#45;&gt;Node4 -->
<g id="edge20" class="edge">
<title>Node13&#45;&gt;Node4</title>
<path fill="none" stroke="midnightblue" d="M464.75,-56.4C479.99,-46.95 499.99,-34.56 515.24,-25.11"/>
<polygon fill="midnightblue" stroke="midnightblue" points="517.38,-27.9 524.03,-19.66 513.69,-21.95 517.38,-27.9"/>
</g>
<!-- Node14&#45;&gt;Node4 -->
<g id="edge28" class="edge">
<title>Node14&#45;&gt;Node4</title>
<path fill="none" stroke="midnightblue" d="M495.57,-257.4C499.58,-235.35 507.53,-191.37 514,-154 521.71,-109.51 530.4,-57.16 534.91,-29.81"/>
<polygon fill="midnightblue" stroke="midnightblue" points="538.4,-30.15 536.57,-19.71 531.49,-29.01 538.4,-30.15"/>
</g>
<!-- Node15 -->
<g id="node15" class="node">
<title>Node15</title>
<g id="a_node15"><a xlink:href="JKRHeap_8h.html" target="_top" xlink:title=" ">
<polygon fill="white" stroke="black" points="300,-190.5 300,-220.5 436,-220.5 436,-190.5 300,-190.5"/>
<text text-anchor="start" x="308" y="-208.5" font-family="Helvetica,sans-Serif" font-size="10.00">JSystem/JKernel/JKRHeap</text>
<text text-anchor="middle" x="368" y="-197.5" font-family="Helvetica,sans-Serif" font-size="10.00">/JKRHeap.h</text>
</a>
</g>
</g>
<!-- Node14&#45;&gt;Node15 -->
<g id="edge22" class="edge">
<title>Node14&#45;&gt;Node15</title>
<path fill="none" stroke="midnightblue" d="M465.88,-257.4C447.78,-247.98 423.77,-235.5 404.07,-225.26"/>
<polygon fill="midnightblue" stroke="midnightblue" points="405.56,-222.08 395.07,-220.58 402.33,-228.3 405.56,-222.08"/>
</g>
<!-- Node17 -->
<g id="node17" class="node">
<title>Node17</title>
<g id="a_node17"><a xlink:href="GX_8h.html" target="_top" xlink:title=" ">
<polygon fill="white" stroke="black" points="542.5,-196 542.5,-215 593.5,-215 593.5,-196 542.5,-196"/>
<text text-anchor="middle" x="568" y="-203" font-family="Helvetica,sans-Serif" font-size="10.00">gx/GX.h</text>
</a>
</g>
</g>
<!-- Node14&#45;&gt;Node17 -->
<g id="edge29" class="edge">
<title>Node14&#45;&gt;Node17</title>
<path fill="none" stroke="midnightblue" d="M509.27,-257.4C521.32,-246.96 537.71,-232.75 550.12,-222"/>
<polygon fill="midnightblue" stroke="midnightblue" points="552.7,-224.39 557.97,-215.19 548.12,-219.1 552.7,-224.39"/>
</g>
<!-- Node15&#45;&gt;Node3 -->
<g id="edge27" class="edge">
<title>Node15&#45;&gt;Node3</title>
<path fill="none" stroke="midnightblue" d="M367.63,-220.74C367.94,-238.63 371.15,-269.26 388,-288 434.67,-339.9 647.77,-376.65 732.81,-389.49"/>
<polygon fill="midnightblue" stroke="midnightblue" points="732.35,-392.96 742.76,-390.97 733.38,-386.04 732.35,-392.96"/>
</g>
<!-- Node15&#45;&gt;Node4 -->
<g id="edge26" class="edge">
<title>Node15&#45;&gt;Node4</title>
<path fill="none" stroke="midnightblue" d="M344.12,-190.41C331.75,-181.66 317.84,-169.19 311,-154 291.33,-110.29 316.74,-83.49 356,-56 394.79,-28.84 448.28,-18.01 487.23,-13.73"/>
<polygon fill="midnightblue" stroke="midnightblue" points="487.69,-17.2 497.3,-12.73 487,-10.24 487.69,-17.2"/>
</g>
<!-- Node16 -->
<g id="node16" class="node">
<title>Node16</title>
<g id="a_node16"><a xlink:href="JKRDisposer_8h.html" target="_top" xlink:title=" ">
<polygon fill="white" stroke="black" points="320.5,-123.5 320.5,-153.5 471.5,-153.5 471.5,-123.5 320.5,-123.5"/>
<text text-anchor="start" x="328.5" y="-141.5" font-family="Helvetica,sans-Serif" font-size="10.00">JSystem/JKernel/JKRDisposer</text>
<text text-anchor="middle" x="396" y="-130.5" font-family="Helvetica,sans-Serif" font-size="10.00">/JKRDisposer.h</text>
</a>
</g>
</g>
<!-- Node15&#45;&gt;Node16 -->
<g id="edge23" class="edge">
<title>Node15&#45;&gt;Node16</title>
<path fill="none" stroke="midnightblue" d="M374.08,-190.4C377.52,-182.39 381.93,-172.16 385.89,-162.98"/>
<polygon fill="midnightblue" stroke="midnightblue" points="389.19,-164.15 389.94,-153.58 382.77,-161.38 389.19,-164.15"/>
</g>
<!-- Node16&#45;&gt;Node4 -->
<g id="edge25" class="edge">
<title>Node16&#45;&gt;Node4</title>
<path fill="none" stroke="midnightblue" d="M382.78,-123.28C368.32,-105.96 349.17,-76.48 365,-56 379.91,-36.71 441.68,-24.15 487.18,-17.32"/>
<polygon fill="midnightblue" stroke="midnightblue" points="487.8,-20.77 497.2,-15.87 486.8,-13.84 487.8,-20.77"/>
</g>
<!-- Node16&#45;&gt;Node13 -->
<g id="edge24" class="edge">
<title>Node16&#45;&gt;Node13</title>
<path fill="none" stroke="midnightblue" d="M405.98,-123.4C411.89,-115.05 419.5,-104.29 426.21,-94.81"/>
<polygon fill="midnightblue" stroke="midnightblue" points="429.12,-96.76 432.04,-86.58 423.4,-92.72 429.12,-96.76"/>
</g>
<!-- Node17&#45;&gt;Node4 -->
<g id="edge30" class="edge">
<title>Node17&#45;&gt;Node4</title>
<path fill="none" stroke="midnightblue" d="M567.65,-195.7C566.6,-172.59 562.85,-108.3 552,-56 550.15,-47.09 547.27,-37.42 544.59,-29.34"/>
<polygon fill="midnightblue" stroke="midnightblue" points="547.88,-28.14 541.31,-19.83 541.26,-30.43 547.88,-28.14"/>
</g>
<!-- Node18&#45;&gt;Node3 -->
<g id="edge34" class="edge">
<title>Node18&#45;&gt;Node3</title>
<path fill="none" stroke="midnightblue" d="M708.56,-282.12C718.99,-301.84 744.76,-350.55 758.69,-376.9"/>
<polygon fill="midnightblue" stroke="midnightblue" points="755.63,-378.59 763.4,-385.8 761.82,-375.32 755.63,-378.59"/>
</g>
<!-- Node19 -->
<g id="node19" class="node">
<title>Node19</title>
<g id="a_node19"><a xlink:href="c__math_8h.html" target="_top" xlink:title=" ">
<polygon fill="white" stroke="black" points="665,-196 665,-215 781,-215 781,-196 665,-196"/>
<text text-anchor="middle" x="723" y="-203" font-family="Helvetica,sans-Serif" font-size="10.00">SComponent/c_math.h</text>
</a>
</g>
</g>
<!-- Node18&#45;&gt;Node19 -->
<g id="edge32" class="edge">
<title>Node18&#45;&gt;Node19</title>
<path fill="none" stroke="midnightblue" d="M706.56,-262.73C709.38,-253.09 714,-237.3 717.62,-224.91"/>
<polygon fill="midnightblue" stroke="midnightblue" points="721.03,-225.71 720.48,-215.13 714.31,-223.74 721.03,-225.71"/>
</g>
<!-- Node19&#45;&gt;Node3 -->
<g id="edge33" class="edge">
<title>Node19&#45;&gt;Node3</title>
<path fill="none" stroke="midnightblue" d="M733.87,-215.2C744.34,-224.34 759.51,-239.76 766,-257 781.08,-297.08 776.01,-348.5 771.62,-375.69"/>
<polygon fill="midnightblue" stroke="midnightblue" points="768.14,-375.3 769.85,-385.76 775.03,-376.52 768.14,-375.3"/>
</g>
<!-- Node20&#45;&gt;Node4 -->
<g id="edge47" class="edge">
<title>Node20&#45;&gt;Node4</title>
<path fill="none" stroke="midnightblue" d="M291.76,-528.68C202.88,-525.74 38,-505.59 38,-396.5 38,-396.5 38,-396.5 38,-137.5 38,-45.62 359.35,-19.76 486.8,-13.11"/>
<polygon fill="midnightblue" stroke="midnightblue" points="487.27,-16.59 497.08,-12.6 486.92,-9.6 487.27,-16.59"/>
</g>
<!-- Node21 -->
<g id="node21" class="node">
<title>Node21</title>
<g id="a_node21"><a xlink:href="J2DPicture_8h.html" target="_top" xlink:title=" ">
<polygon fill="white" stroke="black" points="430,-447.5 430,-477.5 582,-477.5 582,-447.5 430,-447.5"/>
<text text-anchor="start" x="438" y="-465.5" font-family="Helvetica,sans-Serif" font-size="10.00">JSystem/J2DGraph/J2DPicture</text>
<text text-anchor="middle" x="506" y="-454.5" font-family="Helvetica,sans-Serif" font-size="10.00">/J2DPicture.h</text>
</a>
</g>
</g>
<!-- Node20&#45;&gt;Node21 -->
<g id="edge36" class="edge">
<title>Node20&#45;&gt;Node21</title>
<path fill="none" stroke="midnightblue" d="M381.5,-514.4C405.15,-504.73 436.72,-491.82 462.15,-481.43"/>
<polygon fill="midnightblue" stroke="midnightblue" points="463.63,-484.6 471.57,-477.58 460.99,-478.12 463.63,-484.6"/>
</g>
<!-- Node22 -->
<g id="node22" class="node">
<title>Node22</title>
<g id="a_node22"><a xlink:href="J2DScreen_8h.html" target="_top" xlink:title=" ">
<polygon fill="white" stroke="black" points="66,-129 66,-148 226,-148 226,-129 66,-129"/>
<text text-anchor="middle" x="146" y="-136" font-family="Helvetica,sans-Serif" font-size="10.00">JSystem/J2DGraph/J2DScreen.h</text>
</a>
</g>
</g>
<!-- Node20&#45;&gt;Node22 -->
<g id="edge38" class="edge">
<title>Node20&#45;&gt;Node22</title>
<path fill="none" stroke="midnightblue" d="M291.9,-516.26C234.24,-499.82 152,-464.47 152,-396.5 152,-396.5 152,-396.5 152,-271.5 152,-231.12 149.16,-183.85 147.39,-158.27"/>
<polygon fill="midnightblue" stroke="midnightblue" points="150.87,-157.87 146.67,-148.14 143.89,-158.37 150.87,-157.87"/>
</g>
<!-- Node23 -->
<g id="node23" class="node">
<title>Node23</title>
<g id="a_node23"><a xlink:href="J2DTextBox_8h.html" target="_top" xlink:title=" ">
<polygon fill="white" stroke="black" points="600,-447.5 600,-477.5 740,-477.5 740,-447.5 600,-447.5"/>
<text text-anchor="start" x="608" y="-465.5" font-family="Helvetica,sans-Serif" font-size="10.00">JSystem/J2DGraph/J2DText</text>
<text text-anchor="middle" x="670" y="-454.5" font-family="Helvetica,sans-Serif" font-size="10.00">Box/J2DTextBox.h</text>
</a>
</g>
</g>
<!-- Node20&#45;&gt;Node23 -->
<g id="edge40" class="edge">
<title>Node20&#45;&gt;Node23</title>
<path fill="none" stroke="midnightblue" d="M402.16,-517.4C453.94,-506.98 531.97,-491.28 590.47,-479.5"/>
<polygon fill="midnightblue" stroke="midnightblue" points="591.31,-482.91 600.42,-477.5 589.93,-476.04 591.31,-482.91"/>
</g>
<!-- Node24 -->
<g id="node24" class="node">
<title>Node24</title>
<g id="a_node24"><a xlink:href="control_8h.html" target="_top" xlink:title=" ">
<polygon fill="white" stroke="black" points="186.5,-380.5 186.5,-410.5 321.5,-410.5 321.5,-380.5 186.5,-380.5"/>
<text text-anchor="start" x="194.5" y="-398.5" font-family="Helvetica,sans-Serif" font-size="10.00">JSystem/JMessage/control</text>
<text text-anchor="middle" x="254" y="-387.5" font-family="Helvetica,sans-Serif" font-size="10.00">/control.h</text>
</a>
</g>
</g>
<!-- Node20&#45;&gt;Node24 -->
<g id="edge42" class="edge">
<title>Node20&#45;&gt;Node24</title>
<path fill="none" stroke="midnightblue" d="M316.21,-514.34C301.03,-505.86 283.72,-493.66 273,-478 261.48,-461.19 256.88,-438.33 255.08,-421.1"/>
<polygon fill="midnightblue" stroke="midnightblue" points="258.53,-420.4 254.25,-410.71 251.56,-420.96 258.53,-420.4"/>
</g>
<!-- Node25 -->
<g id="node25" class="node">
<title>Node25</title>
<g id="a_node25"><a xlink:href="JUTFont_8h.html" target="_top" xlink:title=" ">
<polygon fill="white" stroke="black" points="282.5,-447.5 282.5,-477.5 411.5,-477.5 411.5,-447.5 282.5,-447.5"/>
<text text-anchor="start" x="290.5" y="-465.5" font-family="Helvetica,sans-Serif" font-size="10.00">JSystem/JUtility/JUTFont</text>
<text text-anchor="middle" x="347" y="-454.5" font-family="Helvetica,sans-Serif" font-size="10.00">/JUTFont.h</text>
</a>
</g>
</g>
<!-- Node20&#45;&gt;Node25 -->
<g id="edge44" class="edge">
<title>Node20&#45;&gt;Node25</title>
<path fill="none" stroke="midnightblue" d="M347,-514.4C347,-506.64 347,-496.81 347,-487.86"/>
<polygon fill="midnightblue" stroke="midnightblue" points="350.5,-487.58 347,-477.58 343.5,-487.58 350.5,-487.58"/>
</g>
<!-- Node21&#45;&gt;Node3 -->
<g id="edge37" class="edge">
<title>Node21&#45;&gt;Node3</title>
<path fill="none" stroke="midnightblue" d="M562.53,-447.48C614.33,-434.62 689.41,-416 733.01,-405.18"/>
<polygon fill="midnightblue" stroke="midnightblue" points="734,-408.54 742.87,-402.74 732.32,-401.75 734,-408.54"/>
</g>
<!-- Node22&#45;&gt;Node4 -->
<g id="edge39" class="edge">
<title>Node22&#45;&gt;Node4</title>
<path fill="none" stroke="midnightblue" d="M152.95,-128.83C167.23,-111.69 201.75,-73.64 240,-56 320.85,-18.72 425.87,-11.12 487.22,-10.21"/>
<polygon fill="midnightblue" stroke="midnightblue" points="487.45,-13.71 497.42,-10.12 487.38,-6.71 487.45,-13.71"/>
</g>
<!-- Node23&#45;&gt;Node3 -->
<g id="edge41" class="edge">
<title>Node23&#45;&gt;Node3</title>
<path fill="none" stroke="midnightblue" d="M691.26,-447.4C707.7,-436.5 730.34,-421.48 746.77,-410.58"/>
<polygon fill="midnightblue" stroke="midnightblue" points="748.78,-413.45 755.17,-405.01 744.91,-407.62 748.78,-413.45"/>
</g>
<!-- Node24&#45;&gt;Node4 -->
<g id="edge43" class="edge">
<title>Node24&#45;&gt;Node4</title>
<path fill="none" stroke="midnightblue" d="M254,-380.34C254,-357.75 254,-312.15 254,-273.5 254,-273.5 254,-273.5 254,-137.5 254,-36.56 405.54,-15.59 487.23,-11.62"/>
<polygon fill="midnightblue" stroke="midnightblue" points="487.46,-15.11 497.31,-11.2 487.17,-8.12 487.46,-15.11"/>
</g>
<!-- Node25&#45;&gt;Node3 -->
<g id="edge45" class="edge">
<title>Node25&#45;&gt;Node3</title>
<path fill="none" stroke="midnightblue" d="M411.54,-448.66C414.74,-448.09 417.9,-447.53 421,-447 534.46,-427.64 669.59,-409.33 732.51,-401.08"/>
<polygon fill="midnightblue" stroke="midnightblue" points="733.22,-404.52 742.68,-399.75 732.31,-397.58 733.22,-404.52"/>
</g>
<!-- Node25&#45;&gt;Node17 -->
<g id="edge46" class="edge">
<title>Node25&#45;&gt;Node17</title>
<path fill="none" stroke="midnightblue" d="M378.04,-447.4C427.63,-422.98 523.26,-367.66 564,-288 574.05,-268.34 573.35,-242.41 571.26,-225.13"/>
<polygon fill="midnightblue" stroke="midnightblue" points="574.71,-224.56 569.78,-215.18 567.79,-225.58 574.71,-224.56"/>
</g>
</g>
</svg>
        <g id="navigator" transform="translate(0 0)" fill="#404254">
                <rect fill="#f2f5e9" fill-opacity="0.5" stroke="#606060" stroke-width=".5" x="0" y="0" width="60" height="60"/>
                <use id="zoomplus" xlink:href="#zoomPlus" x="17" y="9" onmousedown="handleZoom(evt,'in')"/>
                <use id="zoomminus" xlink:href="#zoomMin" x="42" y="9" onmousedown="handleZoom(evt,'out')"/>
                <use id="reset" xlink:href="#resetDef" x="30" y="36" onmousedown="handleReset()"/>
                <g id="arrowUp" xlink:href="#dirArrow" transform="translate(30 24)" onmousedown="handlePan(0,-1)">
                  <use xlink:href="#rim" fill="#404040">
                        <set attributeName="fill" to="#808080" begin="arrowUp.mouseover" end="arrowUp.mouseout"/>
                  </use>
                  <path fill="none" stroke="white" stroke-width="1.5" d="M0,-3.0v7 M-2.5,-0.5L0,-3.0L2.5,-0.5"/>
                </g>
                <g id="arrowRight" xlink:href="#dirArrow" transform="rotate(90) translate(36 -43)" onmousedown="handlePan(1,0)">
                  <use xlink:href="#rim" fill="#404040">
                        <set attributeName="fill" to="#808080" begin="arrowRight.mouseover" end="arrowRight.mouseout"/>
                  </use>
                  <path fill="none" stroke="white" stroke-width="1.5" d="M0,-3.0v7 M-2.5,-0.5L0,-3.0L2.5,-0.5"/>
                </g>
                <g id="arrowDown" xlink:href="#dirArrow" transform="rotate(180) translate(-30 -48)" onmousedown="handlePan(0,1)">
                  <use xlink:href="#rim" fill="#404040">
                        <set attributeName="fill" to="#808080" begin="arrowDown.mouseover" end="arrowDown.mouseout"/>
                  </use>
                  <path fill="none" stroke="white" stroke-width="1.5" d="M0,-3.0v7 M-2.5,-0.5L0,-3.0L2.5,-0.5"/>
                </g>
                <g id="arrowLeft" xlink:href="#dirArrow" transform="rotate(270) translate(-36 17)" onmousedown="handlePan(-1,0)">
                  <use xlink:href="#rim" fill="#404040">
                        <set attributeName="fill" to="#808080" begin="arrowLeft.mouseover" end="arrowLeft.mouseout"/>
                  </use>
                  <path fill="none" stroke="white" stroke-width="1.5" d="M0,-3.0v7 M-2.5,-0.5L0,-3.0L2.5,-0.5"/>
                </g>
        </g>
        <svg viewBox="0 0 15 15" width="100%" height="30px" preserveAspectRatio="xMaxYMin meet">
         <g id="arrow_out" transform="scale(0.3 0.3)">
          <a xlink:href="d__save_8h__incl_org.svg" target="_base">
           <rect id="button" ry="5" rx="5" y="6" x="6" height="38" width="38"
                fill="#f2f5e9" fill-opacity="0.5" stroke="#606060" stroke-width="1.0"/>
           <path id="arrow"
             d="M 11.500037,31.436501 C 11.940474,20.09759 22.043105,11.32322 32.158766,21.979434 L 37.068811,17.246167 C 37.068811,17.246167 37.088388,32 37.088388,32 L 22.160133,31.978069 C 22.160133,31.978069 26.997745,27.140456 26.997745,27.140456 C 18.528582,18.264221 13.291696,25.230495 11.500037,31.436501 z"
             style="fill:#404040;"/>
          </a>
         </g>
        </svg>
</svg>
