<?xml version="1.0" encoding="UTF-8" standalone="no"?>
<!DOCTYPE svg PUBLIC "-//W3C//DTD SVG 1.1//EN"
 "http://www.w3.org/Graphics/SVG/1.1/DTD/svg11.dtd">
<!-- Generated by graphviz version 2.46.1 (20210215.1649)
 -->
<!-- Title: include/d/d_save/d_save/d_save.h Pages: 1 -->
<svg width="5103pt" height="318pt"
 viewBox="0.00 0.00 5103.00 318.00" xmlns="http://www.w3.org/2000/svg" xmlns:xlink="http://www.w3.org/1999/xlink">
<g id="graph0" class="graph" transform="scale(1 1) rotate(0) translate(4 314)">
<title>include/d/d_save/d_save/d_save.h</title>
<polygon fill="white" stroke="transparent" points="-4,4 -4,-314 5099,-314 5099,4 -4,4"/>
<!-- Node1 -->
<g id="node1" class="node">
<title>Node1</title>
<g id="a_node1"><a xlink:title=" ">
<polygon fill="#bfbfbf" stroke="black" points="142.5,-279.5 142.5,-309.5 240.5,-309.5 240.5,-279.5 142.5,-279.5"/>
<text text-anchor="start" x="150.5" y="-297.5" font-family="Helvetica,sans-Serif" font-size="10.00">include/d/d_save/d</text>
<text text-anchor="middle" x="191.5" y="-286.5" font-family="Helvetica,sans-Serif" font-size="10.00">_save/d_save.h</text>
</a>
</g>
</g>
<!-- Node2 -->
<g id="node2" class="node">
<title>Node2</title>
<g id="a_node2"><a xlink:href="d__save_8cpp.html" target="_top" xlink:title=" ">
<polygon fill="white" stroke="black" points="0,-140 0,-159 125,-159 125,-140 0,-140"/>
<text text-anchor="middle" x="62.5" y="-147" font-family="Helvetica,sans-Serif" font-size="10.00">src/d/d_save/d_save.cpp</text>
</a>
</g>
</g>
<!-- Node1&#45;&gt;Node2 -->
<g id="edge1" class="edge">
<title>Node1&#45;&gt;Node2</title>
<path fill="none" stroke="midnightblue" d="M168.67,-272.33C159.4,-263.48 148.72,-252.95 139.5,-243 112.1,-213.41 82.25,-175.86 69.22,-159.17"/>
<polygon fill="midnightblue" stroke="midnightblue" points="166.39,-275 176.06,-279.32 171.2,-269.91 166.39,-275"/>
</g>
<!-- Node3 -->
<g id="node3" class="node">
<title>Node3</title>
<g id="a_node3"><a xlink:href="d__a__alink_8h.html" target="_top" xlink:title=" ">
<polygon fill="white" stroke="black" points="94,-67.5 94,-97.5 213,-97.5 213,-67.5 94,-67.5"/>
<text text-anchor="start" x="102" y="-85.5" font-family="Helvetica,sans-Serif" font-size="10.00">include/d/d_a/d_a_alink</text>
<text text-anchor="middle" x="153.5" y="-74.5" font-family="Helvetica,sans-Serif" font-size="10.00">/d_a_alink.h</text>
</a>
</g>
</g>
<!-- Node1&#45;&gt;Node3 -->
<g id="edge2" class="edge">
<title>Node1&#45;&gt;Node3</title>
<path fill="none" stroke="midnightblue" d="M181.22,-269.76C177.98,-261.43 174.68,-251.93 172.5,-243 159.68,-190.44 155.38,-125.94 154.05,-97.79"/>
<polygon fill="midnightblue" stroke="midnightblue" points="178.05,-271.26 185.06,-279.21 184.54,-268.63 178.05,-271.26"/>
</g>
<!-- Node6 -->
<g id="node6" class="node">
<title>Node6</title>
<g id="a_node6"><a xlink:href="d__com__inf__game_8h.html" target="_top" xlink:title=" ">
<polygon fill="white" stroke="black" points="1895.5,-207 1895.5,-237 2041.5,-237 2041.5,-207 1895.5,-207"/>
<text text-anchor="start" x="1903.5" y="-225" font-family="Helvetica,sans-Serif" font-size="10.00">include/d/d_com/d_com</text>
<text text-anchor="middle" x="1968.5" y="-214" font-family="Helvetica,sans-Serif" font-size="10.00">_inf_game/d_com_inf_game.h</text>
</a>
</g>
</g>
<!-- Node1&#45;&gt;Node6 -->
<g id="edge5" class="edge">
<title>Node1&#45;&gt;Node6</title>
<path fill="none" stroke="midnightblue" d="M251.14,-291.13C518.04,-280.54 1602.56,-237.52 1895.35,-225.9"/>
<polygon fill="midnightblue" stroke="midnightblue" points="250.74,-287.65 240.88,-291.54 251.01,-294.64 250.74,-287.65"/>
</g>
<!-- Node47 -->
<g id="node47" class="node">
<title>Node47</title>
<g id="a_node47"><a xlink:href="d__file__sel__info_8h.html" target="_top" xlink:title=" ">
<polygon fill="white" stroke="black" points="181.5,-201.5 181.5,-242.5 279.5,-242.5 279.5,-201.5 181.5,-201.5"/>
<text text-anchor="start" x="189.5" y="-230.5" font-family="Helvetica,sans-Serif" font-size="10.00">include/d/d_file/d</text>
<text text-anchor="start" x="189.5" y="-219.5" font-family="Helvetica,sans-Serif" font-size="10.00">_file_sel_info/d_file</text>
<text text-anchor="middle" x="230.5" y="-208.5" font-family="Helvetica,sans-Serif" font-size="10.00">_sel_info.h</text>
</a>
</g>
</g>
<!-- Node1&#45;&gt;Node47 -->
<g id="edge59" class="edge">
<title>Node1&#45;&gt;Node47</title>
<path fill="none" stroke="midnightblue" d="M204.27,-270.41C209.25,-261.42 214.89,-251.22 219.66,-242.59"/>
<polygon fill="midnightblue" stroke="midnightblue" points="201.17,-268.79 199.39,-279.23 207.3,-272.18 201.17,-268.79"/>
</g>
<!-- Node4 -->
<g id="node4" class="node">
<title>Node4</title>
<g id="a_node4"><a xlink:href="d__attention_8cpp.html" target="_top" xlink:title=" ">
<polygon fill="white" stroke="black" points="121,-6 121,-25 228,-25 228,-6 121,-6"/>
<text text-anchor="middle" x="174.5" y="-13" font-family="Helvetica,sans-Serif" font-size="10.00">src/d/d_attention.cpp</text>
</a>
</g>
</g>
<!-- Node3&#45;&gt;Node4 -->
<g id="edge3" class="edge">
<title>Node3&#45;&gt;Node4</title>
<path fill="none" stroke="midnightblue" d="M161.22,-57.6C164.88,-46.28 169.02,-33.46 171.69,-25.19"/>
<polygon fill="midnightblue" stroke="midnightblue" points="157.8,-56.8 158.06,-67.4 164.46,-58.96 157.8,-56.8"/>
</g>
<!-- Node5 -->
<g id="node5" class="node">
<title>Node5</title>
<g id="a_node5"><a xlink:href="d__a__alink_8cpp.html" target="_top" xlink:title=" ">
<polygon fill="white" stroke="black" points="246,-6 246,-25 365,-25 365,-6 246,-6"/>
<text text-anchor="middle" x="305.5" y="-13" font-family="Helvetica,sans-Serif" font-size="10.00">src/d/d_a/d_a_alink.cpp</text>
</a>
</g>
</g>
<!-- Node3&#45;&gt;Node5 -->
<g id="edge4" class="edge">
<title>Node3&#45;&gt;Node5</title>
<path fill="none" stroke="midnightblue" d="M195.69,-63.46C225.06,-50.9 262.88,-34.72 285.61,-25.01"/>
<polygon fill="midnightblue" stroke="midnightblue" points="194.3,-60.25 186.48,-67.4 197.05,-66.68 194.3,-60.25"/>
</g>
<!-- Node6&#45;&gt;Node2 -->
<g id="edge24" class="edge">
<title>Node6&#45;&gt;Node2</title>
<path fill="none" stroke="midnightblue" d="M1884.87,-221.36C1628.44,-221.82 830.71,-218.51 172.5,-165 155.03,-163.58 136.08,-161.34 118.91,-159.04"/>
<polygon fill="midnightblue" stroke="midnightblue" points="1885.23,-224.86 1895.22,-221.34 1885.21,-217.86 1885.23,-224.86"/>
</g>
<!-- Node6&#45;&gt;Node3 -->
<g id="edge44" class="edge">
<title>Node6&#45;&gt;Node3</title>
<path fill="none" stroke="midnightblue" d="M1884.96,-220.95C1570.97,-220.38 471.87,-214.81 323.5,-165 300.82,-157.39 300.52,-145.42 279.5,-134 252.58,-119.38 220.51,-106.59 195.46,-97.53"/>
<polygon fill="midnightblue" stroke="midnightblue" points="1885.35,-224.45 1895.35,-220.97 1885.36,-217.45 1885.35,-224.45"/>
</g>
<!-- Node6&#45;&gt;Node4 -->
<g id="edge6" class="edge">
<title>Node6&#45;&gt;Node4</title>
<path fill="none" stroke="midnightblue" d="M1884.66,-220.1C1582.46,-216.55 559.49,-201.93 417.5,-165 315.1,-138.37 214.09,-52.49 183.71,-25.03"/>
<polygon fill="midnightblue" stroke="midnightblue" points="1885.06,-223.6 1895.1,-220.22 1885.14,-216.6 1885.06,-223.6"/>
</g>
<!-- Node7 -->
<g id="node7" class="node">
<title>Node7</title>
<g id="a_node7"><a xlink:href="d__camera_8cpp.html" target="_top" xlink:title=" ">
<polygon fill="white" stroke="black" points="394.5,-6 394.5,-25 496.5,-25 496.5,-6 394.5,-6"/>
<text text-anchor="middle" x="445.5" y="-13" font-family="Helvetica,sans-Serif" font-size="10.00">src/d/d_camera.cpp</text>
</a>
</g>
</g>
<!-- Node6&#45;&gt;Node7 -->
<g id="edge7" class="edge">
<title>Node6&#45;&gt;Node7</title>
<path fill="none" stroke="midnightblue" d="M1885.17,-221.14C1629.65,-221.02 868.53,-216.3 770.5,-165 721.91,-139.57 742.12,-95.9 695.5,-67 624.3,-22.87 592.5,-48.12 510.5,-31 501.56,-29.13 491.95,-27.04 482.93,-25.03"/>
<polygon fill="midnightblue" stroke="midnightblue" points="1885.5,-224.64 1895.5,-221.14 1885.5,-217.64 1885.5,-224.64"/>
</g>
<!-- Node8 -->
<g id="node8" class="node">
<title>Node8</title>
<g id="a_node8"><a xlink:href="d__com__inf__game_8cpp.html" target="_top" xlink:title=" ">
<polygon fill="white" stroke="black" points="857,-67.5 857,-97.5 976,-97.5 976,-67.5 857,-67.5"/>
<text text-anchor="start" x="865" y="-85.5" font-family="Helvetica,sans-Serif" font-size="10.00">src/d/d_com/d_com_inf</text>
<text text-anchor="middle" x="916.5" y="-74.5" font-family="Helvetica,sans-Serif" font-size="10.00">_game.cpp</text>
</a>
</g>
</g>
<!-- Node6&#45;&gt;Node8 -->
<g id="edge8" class="edge">
<title>Node6&#45;&gt;Node8</title>
<path fill="none" stroke="midnightblue" d="M1885.05,-219.79C1637.09,-215.78 919.79,-201.1 885.5,-165 867.47,-146.01 887.96,-115.47 903.15,-97.66"/>
<polygon fill="midnightblue" stroke="midnightblue" points="1885.03,-223.29 1895.09,-219.95 1885.14,-216.29 1885.03,-223.29"/>
</g>
<!-- Node9 -->
<g id="node9" class="node">
<title>Node9</title>
<g id="a_node9"><a xlink:href="d__file__sel__info_8cpp.html" target="_top" xlink:title=" ">
<polygon fill="white" stroke="black" points="182,-134.5 182,-164.5 271,-164.5 271,-134.5 182,-134.5"/>
<text text-anchor="start" x="190" y="-152.5" font-family="Helvetica,sans-Serif" font-size="10.00">src/d/d_file/d_file</text>
<text text-anchor="middle" x="226.5" y="-141.5" font-family="Helvetica,sans-Serif" font-size="10.00">_sel_info.cpp</text>
</a>
</g>
</g>
<!-- Node6&#45;&gt;Node9 -->
<g id="edge9" class="edge">
<title>Node6&#45;&gt;Node9</title>
<path fill="none" stroke="midnightblue" d="M1885.31,-220.52C1590.98,-218.45 599.8,-208.37 285.5,-165 280.8,-164.35 275.93,-163.48 271.09,-162.49"/>
<polygon fill="midnightblue" stroke="midnightblue" points="1885.46,-224.02 1895.48,-220.59 1885.51,-217.02 1885.46,-224.02"/>
</g>
<!-- Node10 -->
<g id="node10" class="node">
<title>Node10</title>
<g id="a_node10"><a xlink:href="d__item_8cpp.html" target="_top" xlink:title=" ">
<polygon fill="white" stroke="black" points="994,-73 994,-92 1115,-92 1115,-73 994,-73"/>
<text text-anchor="middle" x="1054.5" y="-80" font-family="Helvetica,sans-Serif" font-size="10.00">src/d/d_item/d_item.cpp</text>
</a>
</g>
</g>
<!-- Node6&#45;&gt;Node10 -->
<g id="edge10" class="edge">
<title>Node6&#45;&gt;Node10</title>
<path fill="none" stroke="midnightblue" d="M1885.49,-219.06C1662.85,-213.44 1067.32,-195.61 1038.5,-165 1019.42,-144.74 1038.2,-108.71 1048.6,-92.2"/>
<polygon fill="midnightblue" stroke="midnightblue" points="1885.4,-222.55 1895.49,-219.31 1885.58,-215.56 1885.4,-222.55"/>
</g>
<!-- Node11 -->
<g id="node11" class="node">
<title>Node11</title>
<g id="a_node11"><a xlink:href="d__kankyo__rain_8cpp.html" target="_top" xlink:title=" ">
<polygon fill="white" stroke="black" points="1047,-134.5 1047,-164.5 1174,-164.5 1174,-134.5 1047,-134.5"/>
<text text-anchor="start" x="1055" y="-152.5" font-family="Helvetica,sans-Serif" font-size="10.00">src/d/d_kankyo/d_kankyo</text>
<text text-anchor="middle" x="1110.5" y="-141.5" font-family="Helvetica,sans-Serif" font-size="10.00">_rain.cpp</text>
</a>
</g>
</g>
<!-- Node6&#45;&gt;Node11 -->
<g id="edge11" class="edge">
<title>Node6&#45;&gt;Node11</title>
<path fill="none" stroke="midnightblue" d="M1885.34,-218.48C1741.67,-213.36 1437.89,-199.2 1183.5,-165 1180.43,-164.59 1177.29,-164.12 1174.12,-163.62"/>
<polygon fill="midnightblue" stroke="midnightblue" points="1885.29,-221.98 1895.41,-218.83 1885.54,-214.98 1885.29,-221.98"/>
</g>
<!-- Node12 -->
<g id="node12" class="node">
<title>Node12</title>
<g id="a_node12"><a xlink:href="d__kankyo__wether_8cpp.html" target="_top" xlink:title=" ">
<polygon fill="white" stroke="black" points="1192,-134.5 1192,-164.5 1319,-164.5 1319,-134.5 1192,-134.5"/>
<text text-anchor="start" x="1200" y="-152.5" font-family="Helvetica,sans-Serif" font-size="10.00">src/d/d_kankyo/d_kankyo</text>
<text text-anchor="middle" x="1255.5" y="-141.5" font-family="Helvetica,sans-Serif" font-size="10.00">_wether.cpp</text>
</a>
</g>
</g>
<!-- Node6&#45;&gt;Node12 -->
<g id="edge12" class="edge">
<title>Node6&#45;&gt;Node12</title>
<path fill="none" stroke="midnightblue" d="M1885.2,-216.61C1762.76,-209.51 1527.19,-193.34 1328.5,-165 1325.43,-164.56 1322.29,-164.08 1319.13,-163.56"/>
<polygon fill="midnightblue" stroke="midnightblue" points="1885.07,-220.11 1895.26,-217.19 1885.48,-213.12 1885.07,-220.11"/>
</g>
<!-- Node13 -->
<g id="node13" class="node">
<title>Node13</title>
<g id="a_node13"><a xlink:href="d__kankyo_8cpp.html" target="_top" xlink:title=" ">
<polygon fill="white" stroke="black" points="1337,-140 1337,-159 1438,-159 1438,-140 1337,-140"/>
<text text-anchor="middle" x="1387.5" y="-147" font-family="Helvetica,sans-Serif" font-size="10.00">src/d/d_kankyo.cpp</text>
</a>
</g>
</g>
<!-- Node6&#45;&gt;Node13 -->
<g id="edge13" class="edge">
<title>Node6&#45;&gt;Node13</title>
<path fill="none" stroke="midnightblue" d="M1885.12,-215.4C1781.85,-207.69 1600.81,-191.65 1447.5,-165 1438.31,-163.4 1428.44,-161.22 1419.41,-159.03"/>
<polygon fill="midnightblue" stroke="midnightblue" points="1884.94,-218.89 1895.17,-216.14 1885.46,-211.91 1884.94,-218.89"/>
</g>
<!-- Node14 -->
<g id="node14" class="node">
<title>Node14</title>
<g id="a_node14"><a xlink:href="d__kantera__icon__meter_8cpp.html" target="_top" xlink:title=" ">
<polygon fill="white" stroke="black" points="1456,-134.5 1456,-164.5 1563,-164.5 1563,-134.5 1456,-134.5"/>
<text text-anchor="start" x="1464" y="-152.5" font-family="Helvetica,sans-Serif" font-size="10.00">src/d/d_kantera_icon</text>
<text text-anchor="middle" x="1509.5" y="-141.5" font-family="Helvetica,sans-Serif" font-size="10.00">_meter.cpp</text>
</a>
</g>
</g>
<!-- Node6&#45;&gt;Node14 -->
<g id="edge14" class="edge">
<title>Node6&#45;&gt;Node14</title>
<path fill="none" stroke="midnightblue" d="M1885.15,-211.32C1804.78,-201.49 1679.87,-184.91 1572.5,-165 1569.41,-164.43 1566.24,-163.81 1563.05,-163.15"/>
<polygon fill="midnightblue" stroke="midnightblue" points="1884.86,-214.81 1895.21,-212.55 1885.7,-207.86 1884.86,-214.81"/>
</g>
<!-- Node15 -->
<g id="node15" class="node">
<title>Node15</title>
<g id="a_node15"><a xlink:href="d__kyeff_8cpp.html" target="_top" xlink:title=" ">
<polygon fill="white" stroke="black" points="1581,-140 1581,-159 1694,-159 1694,-140 1581,-140"/>
<text text-anchor="middle" x="1637.5" y="-147" font-family="Helvetica,sans-Serif" font-size="10.00">src/d/d_ky/d_kyeff.cpp</text>
</a>
</g>
</g>
<!-- Node6&#45;&gt;Node15 -->
<g id="edge15" class="edge">
<title>Node6&#45;&gt;Node15</title>
<path fill="none" stroke="midnightblue" d="M1891.5,-204.9C1838.6,-193.79 1766.77,-178.63 1703.5,-165 1694.67,-163.1 1685.18,-161.03 1676.23,-159.06"/>
<polygon fill="midnightblue" stroke="midnightblue" points="1890.98,-208.37 1901.49,-206.99 1892.42,-201.51 1890.98,-208.37"/>
</g>
<!-- Node16 -->
<g id="node16" class="node">
<title>Node16</title>
<g id="a_node16"><a xlink:href="d__meter__button_8cpp.html" target="_top" xlink:title=" ">
<polygon fill="white" stroke="black" points="1712,-134.5 1712,-164.5 1827,-164.5 1827,-134.5 1712,-134.5"/>
<text text-anchor="start" x="1720" y="-152.5" font-family="Helvetica,sans-Serif" font-size="10.00">src/d/d_meter/d_meter</text>
<text text-anchor="middle" x="1769.5" y="-141.5" font-family="Helvetica,sans-Serif" font-size="10.00">_button.cpp</text>
</a>
</g>
</g>
<!-- Node6&#45;&gt;Node16 -->
<g id="edge16" class="edge">
<title>Node6&#45;&gt;Node16</title>
<path fill="none" stroke="midnightblue" d="M1919,-203.46C1885.12,-191.46 1840.79,-175.76 1809.22,-164.57"/>
<polygon fill="midnightblue" stroke="midnightblue" points="1918.11,-206.86 1928.71,-206.9 1920.45,-200.26 1918.11,-206.86"/>
</g>
<!-- Node17 -->
<g id="node17" class="node">
<title>Node17</title>
<g id="a_node17"><a xlink:href="d__meter__haihai_8cpp.html" target="_top" xlink:title=" ">
<polygon fill="white" stroke="black" points="1845,-134.5 1845,-164.5 1960,-164.5 1960,-134.5 1845,-134.5"/>
<text text-anchor="start" x="1853" y="-152.5" font-family="Helvetica,sans-Serif" font-size="10.00">src/d/d_meter/d_meter</text>
<text text-anchor="middle" x="1902.5" y="-141.5" font-family="Helvetica,sans-Serif" font-size="10.00">_haihai.cpp</text>
</a>
</g>
</g>
<!-- Node6&#45;&gt;Node17 -->
<g id="edge17" class="edge">
<title>Node6&#45;&gt;Node17</title>
<path fill="none" stroke="midnightblue" d="M1948.25,-199.36C1937.71,-188.11 1925.14,-174.68 1915.84,-164.75"/>
<polygon fill="midnightblue" stroke="midnightblue" points="1945.75,-201.83 1955.14,-206.73 1950.86,-197.04 1945.75,-201.83"/>
</g>
<!-- Node18 -->
<g id="node18" class="node">
<title>Node18</title>
<g id="a_node18"><a xlink:href="d__meter__hakusha_8cpp.html" target="_top" xlink:title=" ">
<polygon fill="white" stroke="black" points="1978,-134.5 1978,-164.5 2093,-164.5 2093,-134.5 1978,-134.5"/>
<text text-anchor="start" x="1986" y="-152.5" font-family="Helvetica,sans-Serif" font-size="10.00">src/d/d_meter/d_meter</text>
<text text-anchor="middle" x="2035.5" y="-141.5" font-family="Helvetica,sans-Serif" font-size="10.00">_hakusha.cpp</text>
</a>
</g>
</g>
<!-- Node6&#45;&gt;Node18 -->
<g id="edge18" class="edge">
<title>Node6&#45;&gt;Node18</title>
<path fill="none" stroke="midnightblue" d="M1989.06,-199.36C1999.75,-188.11 2012.52,-174.68 2021.96,-164.75"/>
<polygon fill="midnightblue" stroke="midnightblue" points="1986.41,-197.07 1982.06,-206.73 1991.48,-201.9 1986.41,-197.07"/>
</g>
<!-- Node19 -->
<g id="node19" class="node">
<title>Node19</title>
<g id="a_node19"><a xlink:href="d__meter__map_8cpp.html" target="_top" xlink:title=" ">
<polygon fill="white" stroke="black" points="2111,-134.5 2111,-164.5 2226,-164.5 2226,-134.5 2111,-134.5"/>
<text text-anchor="start" x="2119" y="-152.5" font-family="Helvetica,sans-Serif" font-size="10.00">src/d/d_meter/d_meter</text>
<text text-anchor="middle" x="2168.5" y="-141.5" font-family="Helvetica,sans-Serif" font-size="10.00">_map.cpp</text>
</a>
</g>
</g>
<!-- Node6&#45;&gt;Node19 -->
<g id="edge19" class="edge">
<title>Node6&#45;&gt;Node19</title>
<path fill="none" stroke="midnightblue" d="M2018.25,-203.46C2052.3,-191.46 2096.85,-175.76 2128.58,-164.57"/>
<polygon fill="midnightblue" stroke="midnightblue" points="2016.76,-200.28 2008.49,-206.9 2019.09,-206.88 2016.76,-200.28"/>
</g>
<!-- Node20 -->
<g id="node20" class="node">
<title>Node20</title>
<g id="a_node20"><a xlink:href="d__meter__string_8cpp.html" target="_top" xlink:title=" ">
<polygon fill="white" stroke="black" points="2244,-134.5 2244,-164.5 2359,-164.5 2359,-134.5 2244,-134.5"/>
<text text-anchor="start" x="2252" y="-152.5" font-family="Helvetica,sans-Serif" font-size="10.00">src/d/d_meter/d_meter</text>
<text text-anchor="middle" x="2301.5" y="-141.5" font-family="Helvetica,sans-Serif" font-size="10.00">_string.cpp</text>
</a>
</g>
</g>
<!-- Node6&#45;&gt;Node20 -->
<g id="edge20" class="edge">
<title>Node6&#45;&gt;Node20</title>
<path fill="none" stroke="midnightblue" d="M2046.36,-204.87C2099.64,-193.79 2171.88,-178.66 2235.5,-165 2238.25,-164.41 2241.07,-163.8 2243.91,-163.19"/>
<polygon fill="midnightblue" stroke="midnightblue" points="2045.38,-201.5 2036.3,-206.97 2046.8,-208.36 2045.38,-201.5"/>
</g>
<!-- Node21 -->
<g id="node21" class="node">
<title>Node21</title>
<g id="a_node21"><a xlink:href="d__meter2__draw_8cpp.html" target="_top" xlink:title=" ">
<polygon fill="white" stroke="black" points="2377,-134.5 2377,-164.5 2502,-164.5 2502,-134.5 2377,-134.5"/>
<text text-anchor="start" x="2385" y="-152.5" font-family="Helvetica,sans-Serif" font-size="10.00">src/d/d_meter2/d_meter2</text>
<text text-anchor="middle" x="2439.5" y="-141.5" font-family="Helvetica,sans-Serif" font-size="10.00">_draw.cpp</text>
</a>
</g>
</g>
<!-- Node6&#45;&gt;Node21 -->
<g id="edge21" class="edge">
<title>Node6&#45;&gt;Node21</title>
<path fill="none" stroke="midnightblue" d="M2051.85,-210.87C2132.93,-200.65 2259.48,-183.74 2368.5,-165 2371.23,-164.53 2374.01,-164.04 2376.82,-163.52"/>
<polygon fill="midnightblue" stroke="midnightblue" points="2051.19,-207.42 2041.7,-212.14 2052.06,-214.37 2051.19,-207.42"/>
</g>
<!-- Node22 -->
<g id="node22" class="node">
<title>Node22</title>
<g id="a_node22"><a xlink:href="d__meter2__info_8cpp.html" target="_top" xlink:title=" ">
<polygon fill="white" stroke="black" points="2520,-134.5 2520,-164.5 2645,-164.5 2645,-134.5 2520,-134.5"/>
<text text-anchor="start" x="2528" y="-152.5" font-family="Helvetica,sans-Serif" font-size="10.00">src/d/d_meter2/d_meter2</text>
<text text-anchor="middle" x="2582.5" y="-141.5" font-family="Helvetica,sans-Serif" font-size="10.00">_info.cpp</text>
</a>
</g>
</g>
<!-- Node6&#45;&gt;Node22 -->
<g id="edge22" class="edge">
<title>Node6&#45;&gt;Node22</title>
<path fill="none" stroke="midnightblue" d="M2051.76,-214.98C2158.61,-206.67 2349.51,-189.83 2511.5,-165 2514.24,-164.58 2517.03,-164.13 2519.84,-163.65"/>
<polygon fill="midnightblue" stroke="midnightblue" points="2051.39,-211.5 2041.69,-215.76 2051.93,-218.48 2051.39,-211.5"/>
</g>
<!-- Node23 -->
<g id="node23" class="node">
<title>Node23</title>
<g id="a_node23"><a xlink:href="d__meter2_8cpp.html" target="_top" xlink:title=" ">
<polygon fill="white" stroke="black" points="2663.5,-140 2663.5,-159 2763.5,-159 2763.5,-140 2663.5,-140"/>
<text text-anchor="middle" x="2713.5" y="-147" font-family="Helvetica,sans-Serif" font-size="10.00">src/d/d_meter2.cpp</text>
</a>
</g>
</g>
<!-- Node6&#45;&gt;Node23 -->
<g id="edge23" class="edge">
<title>Node6&#45;&gt;Node23</title>
<path fill="none" stroke="midnightblue" d="M2051.81,-218.48C2181.42,-213.61 2438.9,-200.06 2654.5,-165 2663.77,-163.49 2673.72,-161.28 2682.76,-159.04"/>
<polygon fill="midnightblue" stroke="midnightblue" points="2051.42,-214.99 2041.56,-218.86 2051.68,-221.99 2051.42,-214.99"/>
</g>
<!-- Node24 -->
<g id="node24" class="node">
<title>Node24</title>
<g id="a_node24"><a xlink:href="d__save__HIO_8cpp.html" target="_top" xlink:title=" ">
<polygon fill="white" stroke="black" points="2782,-134.5 2782,-164.5 2889,-164.5 2889,-134.5 2782,-134.5"/>
<text text-anchor="start" x="2790" y="-152.5" font-family="Helvetica,sans-Serif" font-size="10.00">src/d/d_save/d_save</text>
<text text-anchor="middle" x="2835.5" y="-141.5" font-family="Helvetica,sans-Serif" font-size="10.00">_HIO.cpp</text>
</a>
</g>
</g>
<!-- Node6&#45;&gt;Node24 -->
<g id="edge25" class="edge">
<title>Node6&#45;&gt;Node24</title>
<path fill="none" stroke="midnightblue" d="M2051.79,-219.49C2198.29,-215.88 2511.32,-203.91 2772.5,-165 2775.61,-164.54 2778.79,-164 2781.99,-163.42"/>
<polygon fill="midnightblue" stroke="midnightblue" points="2051.44,-216 2041.53,-219.74 2051.61,-223 2051.44,-216"/>
</g>
<!-- Node25 -->
<g id="node25" class="node">
<title>Node25</title>
<g id="a_node25"><a xlink:href="d__stage_8cpp.html" target="_top" xlink:title=" ">
<polygon fill="white" stroke="black" points="519.5,-6 519.5,-25 613.5,-25 613.5,-6 519.5,-6"/>
<text text-anchor="middle" x="566.5" y="-13" font-family="Helvetica,sans-Serif" font-size="10.00">src/d/d_stage.cpp</text>
</a>
</g>
</g>
<!-- Node6&#45;&gt;Node25 -->
<g id="edge26" class="edge">
<title>Node6&#45;&gt;Node25</title>
<path fill="none" stroke="midnightblue" d="M1885.11,-220.93C1634.85,-220.17 901.69,-213.76 806.5,-165 756.95,-139.62 774.43,-98.45 728.5,-67 717.5,-59.47 641.07,-37.34 597.23,-25.02"/>
<polygon fill="midnightblue" stroke="midnightblue" points="1885.22,-224.43 1895.23,-220.96 1885.24,-217.43 1885.22,-224.43"/>
</g>
<!-- Node26 -->
<g id="node26" class="node">
<title>Node26</title>
<g id="a_node26"><a xlink:href="f__op__actor__mng_8cpp.html" target="_top" xlink:title=" ">
<polygon fill="white" stroke="black" points="635,-0.5 635,-30.5 742,-30.5 742,-0.5 635,-0.5"/>
<text text-anchor="start" x="643" y="-18.5" font-family="Helvetica,sans-Serif" font-size="10.00">src/f/f_op/f_op_actor</text>
<text text-anchor="middle" x="688.5" y="-7.5" font-family="Helvetica,sans-Serif" font-size="10.00">_mng.cpp</text>
</a>
</g>
</g>
<!-- Node6&#45;&gt;Node26 -->
<g id="edge27" class="edge">
<title>Node6&#45;&gt;Node26</title>
<path fill="none" stroke="midnightblue" d="M1884.91,-220.78C1640.11,-219.58 936.18,-212.05 844.5,-165 794.97,-139.58 807.74,-104.39 766.5,-67 750.85,-52.8 730.79,-39.91 714.93,-30.71"/>
<polygon fill="midnightblue" stroke="midnightblue" points="1885.16,-224.28 1895.17,-220.83 1885.19,-217.28 1885.16,-224.28"/>
</g>
<!-- Node27 -->
<g id="node27" class="node">
<title>Node27</title>
<g id="a_node27"><a xlink:href="f__op__camera_8cpp.html" target="_top" xlink:title=" ">
<polygon fill="white" stroke="black" points="2907,-140 2907,-159 3042,-159 3042,-140 2907,-140"/>
<text text-anchor="middle" x="2974.5" y="-147" font-family="Helvetica,sans-Serif" font-size="10.00">src/f/f_op/f_op_camera.cpp</text>
</a>
</g>
</g>
<!-- Node6&#45;&gt;Node27 -->
<g id="edge28" class="edge">
<title>Node6&#45;&gt;Node27</title>
<path fill="none" stroke="midnightblue" d="M2052.19,-219.56C2215.52,-215.95 2587.93,-203.81 2898.5,-165 2910.36,-163.52 2923.16,-161.31 2934.81,-159.07"/>
<polygon fill="midnightblue" stroke="midnightblue" points="2051.66,-216.07 2041.74,-219.78 2051.81,-223.07 2051.66,-216.07"/>
</g>
<!-- Node28 -->
<g id="node28" class="node">
<title>Node28</title>
<g id="a_node28"><a xlink:href="f__op__kankyo__mng_8cpp.html" target="_top" xlink:title=" ">
<polygon fill="white" stroke="black" points="3060.5,-134.5 3060.5,-164.5 3176.5,-164.5 3176.5,-134.5 3060.5,-134.5"/>
<text text-anchor="start" x="3068.5" y="-152.5" font-family="Helvetica,sans-Serif" font-size="10.00">src/f/f_op/f_op_kankyo</text>
<text text-anchor="middle" x="3118.5" y="-141.5" font-family="Helvetica,sans-Serif" font-size="10.00">_mng.cpp</text>
</a>
</g>
</g>
<!-- Node6&#45;&gt;Node28 -->
<g id="edge29" class="edge">
<title>Node6&#45;&gt;Node28</title>
<path fill="none" stroke="midnightblue" d="M2051.81,-221.26C2233.97,-220.83 2681.06,-214.33 3051.5,-165 3054.45,-164.61 3057.46,-164.15 3060.5,-163.65"/>
<polygon fill="midnightblue" stroke="midnightblue" points="2051.76,-217.76 2041.76,-221.28 2051.77,-224.76 2051.76,-217.76"/>
</g>
<!-- Node29 -->
<g id="node29" class="node">
<title>Node29</title>
<g id="a_node29"><a xlink:href="f__op__msg__mng_8cpp.html" target="_top" xlink:title=" ">
<polygon fill="white" stroke="black" points="3194.5,-134.5 3194.5,-164.5 3298.5,-164.5 3298.5,-134.5 3194.5,-134.5"/>
<text text-anchor="start" x="3202.5" y="-152.5" font-family="Helvetica,sans-Serif" font-size="10.00">src/f/f_op/f_op_msg</text>
<text text-anchor="middle" x="3246.5" y="-141.5" font-family="Helvetica,sans-Serif" font-size="10.00">_mng.cpp</text>
</a>
</g>
</g>
<!-- Node6&#45;&gt;Node29 -->
<g id="edge30" class="edge">
<title>Node6&#45;&gt;Node29</title>
<path fill="none" stroke="midnightblue" d="M2052.2,-219.19C2289.9,-213.73 2965.96,-195.87 3185.5,-165 3188.41,-164.59 3191.39,-164.11 3194.38,-163.57"/>
<polygon fill="midnightblue" stroke="midnightblue" points="2051.81,-215.7 2041.89,-219.43 2051.97,-222.7 2051.81,-215.7"/>
</g>
<!-- Node30 -->
<g id="node30" class="node">
<title>Node30</title>
<g id="a_node30"><a xlink:href="f__pc__manager_8cpp.html" target="_top" xlink:title=" ">
<polygon fill="white" stroke="black" points="546.5,-73 546.5,-92 686.5,-92 686.5,-73 546.5,-73"/>
<text text-anchor="middle" x="616.5" y="-80" font-family="Helvetica,sans-Serif" font-size="10.00">src/f/f_pc/f_pc_manager.cpp</text>
</a>
</g>
</g>
<!-- Node6&#45;&gt;Node30 -->
<g id="edge31" class="edge">
<title>Node6&#45;&gt;Node30</title>
<path fill="none" stroke="midnightblue" d="M1884.73,-220.74C1619.4,-219.43 808.57,-211.61 700.5,-165 663.93,-149.23 634.12,-109.83 622.15,-92.23"/>
<polygon fill="midnightblue" stroke="midnightblue" points="1885.06,-224.24 1895.07,-220.79 1885.09,-217.24 1885.06,-224.24"/>
</g>
<!-- Node31 -->
<g id="node31" class="node">
<title>Node31</title>
<g id="a_node31"><a xlink:href="m__Do__audio_8cpp.html" target="_top" xlink:title=" ">
<polygon fill="white" stroke="black" points="3316.5,-140 3316.5,-159 3450.5,-159 3450.5,-140 3316.5,-140"/>
<text text-anchor="middle" x="3383.5" y="-147" font-family="Helvetica,sans-Serif" font-size="10.00">src/m_Do/m_Do_audio.cpp</text>
</a>
</g>
</g>
<!-- Node6&#45;&gt;Node31 -->
<g id="edge32" class="edge">
<title>Node6&#45;&gt;Node31</title>
<path fill="none" stroke="midnightblue" d="M2051.8,-221.75C2262.74,-222.73 2834.79,-219.68 3307.5,-165 3319.64,-163.6 3332.76,-161.36 3344.62,-159.06"/>
<polygon fill="midnightblue" stroke="midnightblue" points="2051.75,-218.25 2041.73,-221.7 2051.71,-225.25 2051.75,-218.25"/>
</g>
<!-- Node32 -->
<g id="node32" class="node">
<title>Node32</title>
<g id="a_node32"><a xlink:href="m__Do__graphic_8cpp.html" target="_top" xlink:title=" ">
<polygon fill="white" stroke="black" points="3468.5,-140 3468.5,-159 3610.5,-159 3610.5,-140 3468.5,-140"/>
<text text-anchor="middle" x="3539.5" y="-147" font-family="Helvetica,sans-Serif" font-size="10.00">src/m_Do/m_Do_graphic.cpp</text>
</a>
</g>
</g>
<!-- Node6&#45;&gt;Node32 -->
<g id="edge33" class="edge">
<title>Node6&#45;&gt;Node32</title>
<path fill="none" stroke="midnightblue" d="M2052.07,-219.42C2324.24,-214.04 3183.48,-195.04 3459.5,-165 3472.27,-163.61 3486.07,-161.38 3498.55,-159.07"/>
<polygon fill="midnightblue" stroke="midnightblue" points="2051.79,-215.93 2041.86,-219.62 2051.93,-222.93 2051.79,-215.93"/>
</g>
<!-- Node33 -->
<g id="node33" class="node">
<title>Node33</title>
<g id="a_node33"><a xlink:href="m__Do__lib_8cpp.html" target="_top" xlink:title=" ">
<polygon fill="white" stroke="black" points="3628.5,-140 3628.5,-159 3748.5,-159 3748.5,-140 3628.5,-140"/>
<text text-anchor="middle" x="3688.5" y="-147" font-family="Helvetica,sans-Serif" font-size="10.00">src/m_Do/m_Do_lib.cpp</text>
</a>
</g>
</g>
<!-- Node6&#45;&gt;Node33 -->
<g id="edge34" class="edge">
<title>Node6&#45;&gt;Node33</title>
<path fill="none" stroke="midnightblue" d="M2051.55,-220.09C2341.96,-216.59 3311.04,-202.36 3619.5,-165 3630.68,-163.65 3642.74,-161.39 3653.59,-159.06"/>
<polygon fill="midnightblue" stroke="midnightblue" points="2051.46,-216.59 2041.51,-220.21 2051.55,-223.59 2051.46,-216.59"/>
</g>
<!-- Node34 -->
<g id="node34" class="node">
<title>Node34</title>
<g id="a_node34"><a xlink:href="m__Do__machine__exception_8cpp.html" target="_top" xlink:title=" ">
<polygon fill="white" stroke="black" points="3767,-134.5 3767,-164.5 3896,-164.5 3896,-134.5 3767,-134.5"/>
<text text-anchor="start" x="3775" y="-152.5" font-family="Helvetica,sans-Serif" font-size="10.00">src/m_Do/m_Do_machine</text>
<text text-anchor="middle" x="3831.5" y="-141.5" font-family="Helvetica,sans-Serif" font-size="10.00">_exception.cpp</text>
</a>
</g>
</g>
<!-- Node6&#45;&gt;Node34 -->
<g id="edge35" class="edge">
<title>Node6&#45;&gt;Node34</title>
<path fill="none" stroke="midnightblue" d="M2051.66,-220.19C2357.63,-216.92 3420.51,-203.04 3757.5,-165 3760.49,-164.66 3763.54,-164.27 3766.62,-163.83"/>
<polygon fill="midnightblue" stroke="midnightblue" points="2051.49,-216.69 2041.53,-220.3 2051.57,-223.69 2051.49,-216.69"/>
</g>
<!-- Node35 -->
<g id="node35" class="node">
<title>Node35</title>
<g id="a_node35"><a xlink:href="m__Do__main_8cpp.html" target="_top" xlink:title=" ">
<polygon fill="white" stroke="black" points="761,-6 761,-25 892,-25 892,-6 761,-6"/>
<text text-anchor="middle" x="826.5" y="-13" font-family="Helvetica,sans-Serif" font-size="10.00">src/m_Do/m_Do_main.cpp</text>
</a>
</g>
</g>
<!-- Node6&#45;&gt;Node35 -->
<g id="edge36" class="edge">
<title>Node6&#45;&gt;Node35</title>
<path fill="none" stroke="midnightblue" d="M1885.21,-219.17C1636.75,-213.41 915.47,-194.22 874.5,-165 827.73,-131.65 825.51,-51.7 826.12,-25.2"/>
<polygon fill="midnightblue" stroke="midnightblue" points="1885.18,-222.67 1895.26,-219.41 1885.35,-215.68 1885.18,-222.67"/>
</g>
<!-- Node36 -->
<g id="node36" class="node">
<title>Node36</title>
<g id="a_node36"><a xlink:href="m__Do__MemCardRWmng_8cpp.html" target="_top" xlink:title=" ">
<polygon fill="white" stroke="black" points="3914,-140 3914,-159 4101,-159 4101,-140 3914,-140"/>
<text text-anchor="middle" x="4007.5" y="-147" font-family="Helvetica,sans-Serif" font-size="10.00">src/m_Do/m_Do_MemCardRWmng.cpp</text>
</a>
</g>
</g>
<!-- Node6&#45;&gt;Node36 -->
<g id="edge37" class="edge">
<title>Node6&#45;&gt;Node36</title>
<path fill="none" stroke="midnightblue" d="M2051.91,-219.84C2374.04,-215.16 3537.21,-196.4 3905.5,-165 3921.9,-163.6 3939.68,-161.34 3955.74,-159.01"/>
<polygon fill="midnightblue" stroke="midnightblue" points="2051.67,-216.34 2041.72,-219.99 2051.77,-223.34 2051.67,-216.34"/>
</g>
<!-- Node37 -->
<g id="node37" class="node">
<title>Node37</title>
<g id="a_node37"><a xlink:href="m__Do__ext_8cpp.html" target="_top" xlink:title=" ">
<polygon fill="white" stroke="black" points="4119,-140 4119,-159 4242,-159 4242,-140 4119,-140"/>
<text text-anchor="middle" x="4180.5" y="-147" font-family="Helvetica,sans-Serif" font-size="10.00">src/m_Do/m_Do_ext.cpp</text>
</a>
</g>
</g>
<!-- Node6&#45;&gt;Node37 -->
<g id="edge38" class="edge">
<title>Node6&#45;&gt;Node37</title>
<path fill="none" stroke="midnightblue" d="M2051.8,-220.81C2395.05,-219.7 3700.99,-212.38 4110.5,-165 4121.97,-163.67 4134.34,-161.4 4145.45,-159.04"/>
<polygon fill="midnightblue" stroke="midnightblue" points="2051.67,-217.31 2041.68,-220.84 2051.7,-224.31 2051.67,-217.31"/>
</g>
<!-- Node38 -->
<g id="node38" class="node">
<title>Node38</title>
<g id="a_node38"><a xlink:href="Z2EnvSeMgr_8cpp.html" target="_top" xlink:title=" ">
<polygon fill="white" stroke="black" points="4260,-140 4260,-159 4421,-159 4421,-140 4260,-140"/>
<text text-anchor="middle" x="4340.5" y="-147" font-family="Helvetica,sans-Serif" font-size="10.00">libs/Z2AudioLib/Z2EnvSeMgr.cpp</text>
</a>
</g>
</g>
<!-- Node6&#45;&gt;Node38 -->
<g id="edge39" class="edge">
<title>Node6&#45;&gt;Node38</title>
<path fill="none" stroke="midnightblue" d="M2051.83,-220.49C2408.94,-218.05 3811.85,-206.01 4251.5,-165 4266,-163.65 4281.71,-161.36 4295.83,-159"/>
<polygon fill="midnightblue" stroke="midnightblue" points="2051.55,-216.99 2041.57,-220.56 2051.59,-223.99 2051.55,-216.99"/>
</g>
<!-- Node39 -->
<g id="node39" class="node">
<title>Node39</title>
<g id="a_node39"><a xlink:href="Z2LinkMgr_8cpp.html" target="_top" xlink:title=" ">
<polygon fill="white" stroke="black" points="4439.5,-140 4439.5,-159 4591.5,-159 4591.5,-140 4439.5,-140"/>
<text text-anchor="middle" x="4515.5" y="-147" font-family="Helvetica,sans-Serif" font-size="10.00">libs/Z2AudioLib/Z2LinkMgr.cpp</text>
</a>
</g>
</g>
<!-- Node6&#45;&gt;Node39 -->
<g id="edge40" class="edge">
<title>Node6&#45;&gt;Node39</title>
<path fill="none" stroke="midnightblue" d="M2051.81,-220.74C2426,-219.33 3953.79,-210.83 4430.5,-165 4444.36,-163.67 4459.37,-161.39 4472.86,-159.03"/>
<polygon fill="midnightblue" stroke="midnightblue" points="2051.59,-217.24 2041.6,-220.78 2051.62,-224.24 2051.59,-217.24"/>
</g>
<!-- Node40 -->
<g id="node40" class="node">
<title>Node40</title>
<g id="a_node40"><a xlink:href="Z2SceneMgr_8cpp.html" target="_top" xlink:title=" ">
<polygon fill="white" stroke="black" points="4610,-140 4610,-159 4771,-159 4771,-140 4610,-140"/>
<text text-anchor="middle" x="4690.5" y="-147" font-family="Helvetica,sans-Serif" font-size="10.00">libs/Z2AudioLib/Z2SceneMgr.cpp</text>
</a>
</g>
</g>
<!-- Node6&#45;&gt;Node40 -->
<g id="edge41" class="edge">
<title>Node6&#45;&gt;Node40</title>
<path fill="none" stroke="midnightblue" d="M2051.74,-220.78C2441.44,-219.52 4088.13,-211.5 4600.5,-165 4615.16,-163.67 4631.04,-161.39 4645.33,-159.03"/>
<polygon fill="midnightblue" stroke="midnightblue" points="2051.66,-217.28 2041.67,-220.81 2051.68,-224.28 2051.66,-217.28"/>
</g>
<!-- Node41 -->
<g id="node41" class="node">
<title>Node41</title>
<g id="a_node41"><a xlink:href="Z2SoundMgr_8cpp.html" target="_top" xlink:title=" ">
<polygon fill="white" stroke="black" points="4789,-140 4789,-159 4950,-159 4950,-140 4789,-140"/>
<text text-anchor="middle" x="4869.5" y="-147" font-family="Helvetica,sans-Serif" font-size="10.00">libs/Z2AudioLib/Z2SoundMgr.cpp</text>
</a>
</g>
</g>
<!-- Node6&#45;&gt;Node41 -->
<g id="edge42" class="edge">
<title>Node6&#45;&gt;Node41</title>
<path fill="none" stroke="midnightblue" d="M2051.71,-220.93C2457.4,-220.37 4230.57,-215.02 4780.5,-165 4795,-163.68 4810.71,-161.41 4824.84,-159.05"/>
<polygon fill="midnightblue" stroke="midnightblue" points="2051.53,-217.43 2041.53,-220.95 2051.54,-224.43 2051.53,-217.43"/>
</g>
<!-- Node42 -->
<g id="node42" class="node">
<title>Node42</title>
<g id="a_node42"><a xlink:href="Z2StatusMgr_8cpp.html" target="_top" xlink:title=" ">
<polygon fill="white" stroke="black" points="4968,-134.5 4968,-164.5 5095,-164.5 5095,-134.5 4968,-134.5"/>
<text text-anchor="start" x="4976" y="-152.5" font-family="Helvetica,sans-Serif" font-size="10.00">libs/Z2AudioLib/Z2Status</text>
<text text-anchor="middle" x="5031.5" y="-141.5" font-family="Helvetica,sans-Serif" font-size="10.00">Mgr.cpp</text>
</a>
</g>
</g>
<!-- Node6&#45;&gt;Node42 -->
<g id="edge43" class="edge">
<title>Node6&#45;&gt;Node42</title>
<path fill="none" stroke="midnightblue" d="M2051.78,-220.34C2504.9,-216.61 4664,-197.26 4959.5,-165 4962.29,-164.7 4965.13,-164.34 4967.99,-163.93"/>
<polygon fill="midnightblue" stroke="midnightblue" points="2051.68,-216.84 2041.71,-220.42 2051.74,-223.84 2051.68,-216.84"/>
</g>
<!-- Node43 -->
<g id="node43" class="node">
<title>Node43</title>
<g id="a_node43"><a xlink:href="d__item_8h.html" target="_top" xlink:title=" ">
<polygon fill="white" stroke="black" points="894.5,-134.5 894.5,-164.5 990.5,-164.5 990.5,-134.5 894.5,-134.5"/>
<text text-anchor="start" x="902.5" y="-152.5" font-family="Helvetica,sans-Serif" font-size="10.00">include/d/d_item/d</text>
<text text-anchor="middle" x="942.5" y="-141.5" font-family="Helvetica,sans-Serif" font-size="10.00">_item/d_item.h</text>
</a>
</g>
</g>
<!-- Node6&#45;&gt;Node43 -->
<g id="edge45" class="edge">
<title>Node6&#45;&gt;Node43</title>
<path fill="none" stroke="midnightblue" d="M1884.96,-220.96C1717.19,-219.81 1327.69,-211.83 1004.5,-165 1000.01,-164.35 995.38,-163.54 990.75,-162.63"/>
<polygon fill="midnightblue" stroke="midnightblue" points="1885.19,-224.46 1895.21,-221.02 1885.23,-217.46 1885.19,-224.46"/>
</g>
<!-- Node44 -->
<g id="node44" class="node">
<title>Node44</title>
<g id="a_node44"><a xlink:href="f__pc__manager_8h.html" target="_top" xlink:title=" ">
<polygon fill="white" stroke="black" points="427,-134.5 427,-164.5 524,-164.5 524,-134.5 427,-134.5"/>
<text text-anchor="start" x="435" y="-152.5" font-family="Helvetica,sans-Serif" font-size="10.00">include/f/f_pc/f_pc</text>
<text text-anchor="middle" x="475.5" y="-141.5" font-family="Helvetica,sans-Serif" font-size="10.00">_manager.h</text>
</a>
</g>
</g>
<!-- Node6&#45;&gt;Node44 -->
<g id="edge48" class="edge">
<title>Node6&#45;&gt;Node44</title>
<path fill="none" stroke="midnightblue" d="M1885.26,-218.96C1675.08,-213.51 1105.95,-196.77 632.5,-165 596.18,-162.56 555.22,-158.74 524.25,-155.64"/>
<polygon fill="midnightblue" stroke="midnightblue" points="1885.21,-222.46 1895.29,-219.22 1885.39,-215.47 1885.21,-222.46"/>
</g>
<!-- Node43&#45;&gt;Node8 -->
<g id="edge46" class="edge">
<title>Node43&#45;&gt;Node8</title>
<path fill="none" stroke="midnightblue" d="M933.1,-124.99C929.42,-115.8 925.33,-105.58 922.13,-97.58"/>
<polygon fill="midnightblue" stroke="midnightblue" points="929.89,-126.41 936.86,-134.4 936.39,-123.81 929.89,-126.41"/>
</g>
<!-- Node43&#45;&gt;Node10 -->
<g id="edge47" class="edge">
<title>Node43&#45;&gt;Node10</title>
<path fill="none" stroke="midnightblue" d="M975.57,-129.31C996.91,-116.93 1023.61,-101.43 1039.84,-92.01"/>
<polygon fill="midnightblue" stroke="midnightblue" points="973.69,-126.35 966.8,-134.4 977.21,-132.4 973.69,-126.35"/>
</g>
<!-- Node44&#45;&gt;Node5 -->
<g id="edge50" class="edge">
<title>Node44&#45;&gt;Node5</title>
<path fill="none" stroke="midnightblue" d="M417.01,-139.53C371.22,-131.18 312.94,-117.13 298.5,-98 282.08,-76.23 294.23,-41.27 301.33,-25.15"/>
<polygon fill="midnightblue" stroke="midnightblue" points="416.41,-142.98 426.87,-141.28 417.63,-136.09 416.41,-142.98"/>
</g>
<!-- Node44&#45;&gt;Node30 -->
<g id="edge51" class="edge">
<title>Node44&#45;&gt;Node30</title>
<path fill="none" stroke="midnightblue" d="M515.35,-130.13C542.48,-117.62 577.15,-101.64 598.05,-92.01"/>
<polygon fill="midnightblue" stroke="midnightblue" points="513.71,-127.03 506.09,-134.4 516.64,-133.39 513.71,-127.03"/>
</g>
<!-- Node45 -->
<g id="node45" class="node">
<title>Node45</title>
<g id="a_node45"><a xlink:href="f__ap__game_8cpp.html" target="_top" xlink:title=" ">
<polygon fill="white" stroke="black" points="423,-73 423,-92 528,-92 528,-73 423,-73"/>
<text text-anchor="middle" x="475.5" y="-80" font-family="Helvetica,sans-Serif" font-size="10.00">src/f/f_ap_game.cpp</text>
</a>
</g>
</g>
<!-- Node44&#45;&gt;Node45 -->
<g id="edge49" class="edge">
<title>Node44&#45;&gt;Node45</title>
<path fill="none" stroke="midnightblue" d="M475.5,-124.25C475.5,-113.02 475.5,-100.38 475.5,-92.19"/>
<polygon fill="midnightblue" stroke="midnightblue" points="472,-124.4 475.5,-134.4 479,-124.4 472,-124.4"/>
</g>
<!-- Node46 -->
<g id="node46" class="node">
<title>Node46</title>
<g id="a_node46"><a xlink:href="f__op__actor__mng_8h.html" target="_top" xlink:title=" ">
<polygon fill="white" stroke="black" points="308,-67.5 308,-97.5 405,-97.5 405,-67.5 308,-67.5"/>
<text text-anchor="start" x="316" y="-85.5" font-family="Helvetica,sans-Serif" font-size="10.00">include/f/f_op/f_op</text>
<text text-anchor="middle" x="356.5" y="-74.5" font-family="Helvetica,sans-Serif" font-size="10.00">_actor_mng.h</text>
</a>
</g>
</g>
<!-- Node44&#45;&gt;Node46 -->
<g id="edge52" class="edge">
<title>Node44&#45;&gt;Node46</title>
<path fill="none" stroke="midnightblue" d="M440.85,-129.57C422.13,-119.35 399.41,-106.94 382.27,-97.58"/>
<polygon fill="midnightblue" stroke="midnightblue" points="439.22,-132.67 449.68,-134.4 442.58,-126.53 439.22,-132.67"/>
</g>
<!-- Node46&#45;&gt;Node4 -->
<g id="edge53" class="edge">
<title>Node46&#45;&gt;Node4</title>
<path fill="none" stroke="midnightblue" d="M307.35,-63.95C272,-51.32 225.88,-34.85 198.32,-25.01"/>
<polygon fill="midnightblue" stroke="midnightblue" points="306.41,-67.33 317.01,-67.4 308.77,-60.74 306.41,-67.33"/>
</g>
<!-- Node46&#45;&gt;Node5 -->
<g id="edge57" class="edge">
<title>Node46&#45;&gt;Node5</title>
<path fill="none" stroke="midnightblue" d="M339.09,-59.32C329.9,-47.6 319.14,-33.88 312.32,-25.19"/>
<polygon fill="midnightblue" stroke="midnightblue" points="336.51,-61.69 345.43,-67.4 342.01,-57.37 336.51,-61.69"/>
</g>
<!-- Node46&#45;&gt;Node7 -->
<g id="edge54" class="edge">
<title>Node46&#45;&gt;Node7</title>
<path fill="none" stroke="midnightblue" d="M384.15,-61.31C400.86,-49.1 421.3,-34.18 433.85,-25.01"/>
<polygon fill="midnightblue" stroke="midnightblue" points="381.82,-58.67 375.81,-67.4 385.95,-64.32 381.82,-58.67"/>
</g>
<!-- Node46&#45;&gt;Node25 -->
<g id="edge55" class="edge">
<title>Node46&#45;&gt;Node25</title>
<path fill="none" stroke="midnightblue" d="M411.39,-64.51C452.37,-51.83 506.66,-35.02 538.95,-25.03"/>
<polygon fill="midnightblue" stroke="midnightblue" points="410.33,-61.18 401.81,-67.48 412.4,-67.86 410.33,-61.18"/>
</g>
<!-- Node46&#45;&gt;Node26 -->
<g id="edge56" class="edge">
<title>Node46&#45;&gt;Node26</title>
<path fill="none" stroke="midnightblue" d="M415.3,-66.71C507.43,-47.46 533.16,-48.5 622.5,-31 626.53,-30.21 630.69,-29.37 634.87,-28.5"/>
<polygon fill="midnightblue" stroke="midnightblue" points="414.32,-63.34 405.26,-68.83 415.77,-70.19 414.32,-63.34"/>
</g>
<!-- Node46&#45;&gt;Node35 -->
<g id="edge58" class="edge">
<title>Node46&#45;&gt;Node35</title>
<path fill="none" stroke="midnightblue" d="M415.15,-66.86C563.51,-40.9 604.71,-52.66 750.5,-31 761.79,-29.32 773.97,-27.16 785.19,-25.02"/>
<polygon fill="midnightblue" stroke="midnightblue" points="414.45,-63.42 405.22,-68.62 415.68,-70.32 414.45,-63.42"/>
</g>
<!-- Node47&#45;&gt;Node9 -->
<g id="edge60" class="edge">
<title>Node47&#45;&gt;Node9</title>
<path fill="none" stroke="midnightblue" d="M228.82,-191.38C228.3,-182.21 227.75,-172.53 227.32,-164.89"/>
<polygon fill="midnightblue" stroke="midnightblue" points="225.32,-191.58 229.39,-201.36 232.31,-191.18 225.32,-191.58"/>
</g>
</g>
</svg>
