<?xml version="1.0" encoding="UTF-8" standalone="no"?>
<!DOCTYPE svg PUBLIC "-//W3C//DTD SVG 1.1//EN"
 "http://www.w3.org/Graphics/SVG/1.1/DTD/svg11.dtd">
<!-- Generated by graphviz version 7.0.5 (20221223.1930)
 -->
<!-- Title: include/rel/d/a/d_a_mg_rod Pages: 1 -->
<svg width="185pt" height="125pt"
 viewBox="0.00 0.00 184.50 125.00" xmlns="http://www.w3.org/2000/svg" xmlns:xlink="http://www.w3.org/1999/xlink">
<g id="graph0" class="graph" transform="scale(1 1) rotate(0) translate(4 121)">
<title>include/rel/d/a/d_a_mg_rod</title>
<g id="clust1" class="cluster">
<title>clusterdir_b81c1d082692bb1b2b34ed3bfe8a0f4a</title>
<g id="a_clust1"><a xlink:href="dir_b81c1d082692bb1b2b34ed3bfe8a0f4a.html" target="_top" xlink:title="a">
<polygon fill="#edf0f7" stroke="#7f7f7f" stroke-dasharray="5,2" points="8,-39 8,-109 160,-109 160,-39 8,-39"/>
<text text-anchor="middle" x="84" y="-97" font-family="Helvetica,sans-Serif" font-size="10.00">a</text>
</a>
</g>
</g>
<g id="clust2" class="cluster">
<title>clusterdir_6552eea0e3a1457807a348e42d9d2b81</title>
<g id="a_clust2"><a xlink:href="dir_6552eea0e3a1457807a348e42d9d2b81.html" target="_top">
<polygon fill="#edf0f7" stroke="#404040" stroke-width="2" points="16,-47 16,-82 152,-82 152,-47 16,-47"/>
</a>
</g>
</g>
<!-- dir_6552eea0e3a1457807a348e42d9d2b81 -->
<g id="node1" class="node">
<title>dir_6552eea0e3a1457807a348e42d9d2b81</title>
<text text-anchor="middle" x="109" y="-62" font-family="Helvetica,sans-Serif" font-size="10.00">d_a_mg_rod</text>
</g>
<!-- dir_81939fb769658ab66ba54ec390580a1a -->
<g id="node3" class="node">
<title>dir_81939fb769658ab66ba54ec390580a1a</title>
<g id="a_node3"><a xlink:href="dir_81939fb769658ab66ba54ec390580a1a.html" target="_top" xlink:title="Z2AudioLib">
<polygon fill="#edf0f7" stroke="#7f7f7f" points="76,-19 10,-19 10,0 76,0 76,-19"/>
<text text-anchor="middle" x="43" y="-7" font-family="Helvetica,sans-Serif" font-size="10.00">Z2AudioLib</text>
</a>
</g>
</g>
<!-- dir_6552eea0e3a1457807a348e42d9d2b81&#45;&gt;dir_81939fb769658ab66ba54ec390580a1a -->
<g id="edge1" class="edge">
<title>dir_6552eea0e3a1457807a348e42d9d2b81&#45;&gt;dir_81939fb769658ab66ba54ec390580a1a</title>
<path fill="none" stroke="#63b8ff" d="M98.69,-55.22C89.08,-47.5 74.49,-35.78 62.65,-26.28"/>
<polygon fill="#63b8ff" stroke="#63b8ff" points="65.07,-23.73 55.08,-20.2 60.68,-29.19 65.07,-23.73"/>
<g id="a_edge1&#45;headlabel"><a xlink:href="dir_000209_001732.html" target="_top" xlink:title="1">
<text text-anchor="middle" x="68.47" y="-20.32" font-family="Helvetica,sans-Serif" font-size="10.00" fill="#63b8ff">1</text>
</a>
</g>
</g>
<!-- dir_cc3ad1aed4be3f446fdd7af78322f5bf -->
<g id="node4" class="node">
<title>dir_cc3ad1aed4be3f446fdd7af78322f5bf</title>
<g id="a_node4"><a xlink:href="dir_cc3ad1aed4be3f446fdd7af78322f5bf.html" target="_top" xlink:title="d">
<polygon fill="#edf0f7" stroke="red" stroke-dasharray="5,2" points="123.5,-19 94.5,-19 94.5,0 123.5,0 123.5,-19"/>
<text text-anchor="middle" x="109" y="-7" font-family="Helvetica,sans-Serif" font-size="10.00">d</text>
</a>
</g>
</g>
<!-- dir_6552eea0e3a1457807a348e42d9d2b81&#45;&gt;dir_cc3ad1aed4be3f446fdd7af78322f5bf -->
<g id="edge2" class="edge">
<title>dir_6552eea0e3a1457807a348e42d9d2b81&#45;&gt;dir_cc3ad1aed4be3f446fdd7af78322f5bf</title>
<path fill="none" stroke="#63b8ff" d="M109,-55.22C109,-48.65 109,-39.18 109,-30.64"/>
<polygon fill="#63b8ff" stroke="#63b8ff" points="112.5,-30.77 109,-20.77 105.5,-30.77 112.5,-30.77"/>
<g id="a_edge2&#45;headlabel"><a xlink:href="dir_000209_000022.html" target="_top" xlink:title="3">
<text text-anchor="middle" x="115.34" y="-30.35" font-family="Helvetica,sans-Serif" font-size="10.00" fill="#63b8ff">3</text>
</a>
</g>
</g>
<!-- dir_fbb29e8cafd745cbb7106b56de6b5377 -->
<g id="node5" class="node">
<title>dir_fbb29e8cafd745cbb7106b56de6b5377</title>
<g id="a_node5"><a xlink:href="dir_fbb29e8cafd745cbb7106b56de6b5377.html" target="_top" xlink:title="f_op">
<polygon fill="#edf0f7" stroke="#7f7f7f" points="176.5,-19 141.5,-19 141.5,0 176.5,0 176.5,-19"/>
<text text-anchor="middle" x="159" y="-7" font-family="Helvetica,sans-Serif" font-size="10.00">f_op</text>
</a>
</g>
</g>
<!-- dir_6552eea0e3a1457807a348e42d9d2b81&#45;&gt;dir_fbb29e8cafd745cbb7106b56de6b5377 -->
<g id="edge3" class="edge">
<title>dir_6552eea0e3a1457807a348e42d9d2b81&#45;&gt;dir_fbb29e8cafd745cbb7106b56de6b5377</title>
<path fill="none" stroke="#63b8ff" d="M116.81,-55.22C123.81,-47.81 134.28,-36.71 143.04,-27.42"/>
<polygon fill="#63b8ff" stroke="#63b8ff" points="145.39,-30.03 149.7,-20.35 140.3,-25.22 145.39,-30.03"/>
<g id="a_edge3&#45;headlabel"><a xlink:href="dir_000209_000808.html" target="_top" xlink:title="1">
<text text-anchor="middle" x="146.03" y="-30.99" font-family="Helvetica,sans-Serif" font-size="10.00" fill="#63b8ff">1</text>
</a>
</g>
</g>
<!-- dir_bda4a6dfdb2cfe26af031c2c31ab8a7b -->
<g id="node2" class="node">
<title>dir_bda4a6dfdb2cfe26af031c2c31ab8a7b</title>
<g id="a_node2"><a xlink:href="dir_bda4a6dfdb2cfe26af031c2c31ab8a7b.html" target="_top" xlink:title="libs">
<polygon fill="#a2b4d6" stroke="#404040" points="56,-74 24,-74 24,-55 56,-55 56,-74"/>
<text text-anchor="middle" x="40" y="-62" font-family="Helvetica,sans-Serif" font-size="10.00">libs</text>
</a>
</g>
</g>
</g>
</svg>
