<?xml version="1.0" encoding="UTF-8" standalone="no"?>
<!DOCTYPE svg PUBLIC "-//W3C//DTD SVG 1.1//EN"
 "http://www.w3.org/Graphics/SVG/1.1/DTD/svg11.dtd">
<!-- Generated by graphviz version 7.0.5 (20221223.1930)
 -->
<!-- Title: libs Pages: 1 -->
<!--zoomable 153 -->
<svg id="main" version="1.1" xmlns="http://www.w3.org/2000/svg" xmlns:xlink="http://www.w3.org/1999/xlink" xml:space="preserve" onload="init(evt)">
<style type="text/css"><![CDATA[
.edge:hover path { stroke: red; }
.edge:hover polygon { stroke: red; fill: red; }
]]></style>
<script type="text/javascript"><![CDATA[
var edges = document.getElementsByTagName('g');
if (edges && edges.length) {
  for (var i=0;i<edges.length;i++) {
    if (edges[i].id.substr(0,4)=='edge') {
      edges[i].setAttribute('class','edge');
    }
  }
}
]]></script>
        <defs>
                <circle id="rim" cx="0" cy="0" r="7"/>
                <circle id="rim2" cx="0" cy="0" r="3.5"/>
                <g id="zoomPlus">
                        <use xlink:href="#rim" fill="#404040">
                                <set attributeName="fill" to="#808080" begin="zoomplus.mouseover" end="zoomplus.mouseout"/>
                        </use>
                        <path d="M-4,0h8M0,-4v8" fill="none" stroke="white" stroke-width="1.5" pointer-events="none"/>
                </g>
                <g id="zoomMin">
                        <use xlink:href="#rim" fill="#404040">
                                <set attributeName="fill" to="#808080" begin="zoomminus.mouseover" end="zoomminus.mouseout"/>
                        </use>
                        <path d="M-4,0h8" fill="none" stroke="white" stroke-width="1.5" pointer-events="none"/>
                </g>
                <g id="dirArrow">
                        <path fill="none" stroke="white" stroke-width="1.5" d="M0,-3.0v7 M-2.5,-0.5L0,-3.0L2.5,-0.5"/>
                </g>
               <g id="resetDef">
                       <use xlink:href="#rim2" fill="#404040">
                               <set attributeName="fill" to="#808080" begin="reset.mouseover" end="reset.mouseout"/>
                       </use>
               </g>
        </defs>

<script type="text/javascript">
var viewWidth = 521;
var viewHeight = 153;
var sectionId = 'dynsection-0';
</script>
<script xlink:href="svgpan.js"/>
<svg id="graph" class="graph">
<g id="viewport">
<title>libs</title>
<g id="clust1" class="cluster">
<title>clusterdir_6719ab1f1f7655efc2fa43f7eb574fd1</title>
<g id="a_clust1"><a xlink:href="dir_6719ab1f1f7655efc2fa43f7eb574fd1.html" target="_top">
<polygon fill="#edf0f7" stroke="#404040" stroke-width="2" points="8,-47 8,-137 505,-137 505,-47 8,-47"/>
</a>
</g>
</g>
<!-- dir_6719ab1f1f7655efc2fa43f7eb574fd1 -->
<g id="node1" class="node">
<title>dir_6719ab1f1f7655efc2fa43f7eb574fd1</title>
<text text-anchor="middle" x="481" y="-117" font-family="Helvetica,sans-Serif" font-size="10.00">libs</text>
</g>
<!-- dir_22235b545bd11e9cf035754dc4797b88 -->
<g id="node2" class="node">
<title>dir_22235b545bd11e9cf035754dc4797b88</title>
<g id="a_node2"><a xlink:href="dir_22235b545bd11e9cf035754dc4797b88.html" target="_top" xlink:title="dolphin">
<polygon fill="#a2b4d6" stroke="#404040" points="373.5,-129 326.5,-129 326.5,-110 373.5,-110 373.5,-129"/>
<text text-anchor="middle" x="350" y="-117" font-family="Helvetica,sans-Serif" font-size="10.00">dolphin</text>
</a>
</g>
</g>
<!-- dir_db1709413e4853dbf382363385ab04a7 -->
<g id="node4" class="node">
<title>dir_db1709413e4853dbf382363385ab04a7</title>
<g id="a_node4"><a xlink:href="dir_db1709413e4853dbf382363385ab04a7.html" target="_top" xlink:title="PowerPC_EABI_Support">
<polygon fill="#a2b4d6" stroke="#404040" points="213.5,-74 88.5,-74 88.5,-55 213.5,-55 213.5,-74"/>
<text text-anchor="middle" x="151" y="-62" font-family="Helvetica,sans-Serif" font-size="10.00">PowerPC_EABI_Support</text>
</a>
</g>
</g>
<!-- dir_22235b545bd11e9cf035754dc4797b88&#45;&gt;dir_db1709413e4853dbf382363385ab04a7 -->
<g id="edge2" class="edge">
<title>dir_22235b545bd11e9cf035754dc4797b88&#45;&gt;dir_db1709413e4853dbf382363385ab04a7</title>
<path fill="none" stroke="#63b8ff" d="M326.39,-112.21C294.21,-103.64 235.94,-88.12 195.44,-77.34"/>
<polygon fill="#63b8ff" stroke="#63b8ff" points="196.55,-74.01 185.98,-74.82 194.75,-80.77 196.55,-74.01"/>
<g id="a_edge2&#45;headlabel"><a xlink:href="dir_000785_001311.html" target="_top" xlink:title="13">
<text text-anchor="middle" x="199.29" y="-69.3" font-family="Helvetica,sans-Serif" font-size="10.00" fill="#63b8ff">13</text>
</a>
</g>
</g>
<!-- dir_d44c64559bbebec7f509842c48db8b23 -->
<g id="node8" class="node">
<title>dir_d44c64559bbebec7f509842c48db8b23</title>
<g id="a_node8"><a xlink:href="dir_d44c64559bbebec7f509842c48db8b23.html" target="_top" xlink:title="include">
<polygon fill="#edf0f7" stroke="red" points="322.5,-19 275.5,-19 275.5,0 322.5,0 322.5,-19"/>
<text text-anchor="middle" x="299" y="-7" font-family="Helvetica,sans-Serif" font-size="10.00">include</text>
</a>
</g>
</g>
<!-- dir_22235b545bd11e9cf035754dc4797b88&#45;&gt;dir_d44c64559bbebec7f509842c48db8b23 -->
<g id="edge1" class="edge">
<title>dir_22235b545bd11e9cf035754dc4797b88&#45;&gt;dir_d44c64559bbebec7f509842c48db8b23</title>
<path fill="none" stroke="#63b8ff" d="M345.83,-109.66C337.61,-92.26 319.16,-53.19 308.03,-29.62"/>
<polygon fill="#63b8ff" stroke="#63b8ff" points="311.31,-28.38 303.88,-20.83 304.98,-31.37 311.31,-28.38"/>
<g id="a_edge1&#45;headlabel"><a xlink:href="dir_000785_000829.html" target="_top" xlink:title="257">
<text text-anchor="middle" x="314.77" y="-26.55" font-family="Helvetica,sans-Serif" font-size="10.00" fill="#63b8ff">257</text>
</a>
</g>
</g>
<!-- dir_003060a984452b2ac376c290647dff95 -->
<g id="node3" class="node">
<title>dir_003060a984452b2ac376c290647dff95</title>
<g id="a_node3"><a xlink:href="dir_003060a984452b2ac376c290647dff95.html" target="_top" xlink:title="JSystem">
<polygon fill="#a2b4d6" stroke="#404040" points="446.5,-129 391.5,-129 391.5,-110 446.5,-110 446.5,-129"/>
<text text-anchor="middle" x="419" y="-117" font-family="Helvetica,sans-Serif" font-size="10.00">JSystem</text>
</a>
</g>
</g>
<!-- dir_003060a984452b2ac376c290647dff95&#45;&gt;dir_db1709413e4853dbf382363385ab04a7 -->
<g id="edge4" class="edge">
<title>dir_003060a984452b2ac376c290647dff95&#45;&gt;dir_db1709413e4853dbf382363385ab04a7</title>
<path fill="none" stroke="#63b8ff" d="M391.12,-111.79C388.38,-111.17 385.64,-110.56 383,-110 325.2,-97.64 258.95,-85.09 212.09,-76.49"/>
<polygon fill="#63b8ff" stroke="#63b8ff" points="212.86,-73.07 202.39,-74.71 211.6,-79.96 212.86,-73.07"/>
<g id="a_edge4&#45;headlabel"><a xlink:href="dir_000873_001311.html" target="_top" xlink:title="55">
<text text-anchor="middle" x="215.42" y="-68.15" font-family="Helvetica,sans-Serif" font-size="10.00" fill="#63b8ff">55</text>
</a>
</g>
</g>
<!-- dir_003060a984452b2ac376c290647dff95&#45;&gt;dir_d44c64559bbebec7f509842c48db8b23 -->
<g id="edge3" class="edge">
<title>dir_003060a984452b2ac376c290647dff95&#45;&gt;dir_d44c64559bbebec7f509842c48db8b23</title>
<path fill="none" stroke="#63b8ff" d="M409.18,-109.66C389.14,-91.62 343.25,-50.32 317.46,-27.12"/>
<polygon fill="#63b8ff" stroke="#63b8ff" points="319.86,-24.56 310.08,-20.47 315.17,-29.76 319.86,-24.56"/>
<g id="a_edge3&#45;headlabel"><a xlink:href="dir_000873_000829.html" target="_top" xlink:title="899">
<text text-anchor="middle" x="323.3" y="-21.34" font-family="Helvetica,sans-Serif" font-size="10.00" fill="#63b8ff">899</text>
</a>
</g>
</g>
<!-- dir_db1709413e4853dbf382363385ab04a7&#45;&gt;dir_d44c64559bbebec7f509842c48db8b23 -->
<g id="edge5" class="edge">
<title>dir_db1709413e4853dbf382363385ab04a7&#45;&gt;dir_d44c64559bbebec7f509842c48db8b23</title>
<path fill="none" stroke="#63b8ff" d="M176.11,-54.51C200.46,-45.79 237.6,-32.49 264.68,-22.79"/>
<polygon fill="#63b8ff" stroke="#63b8ff" points="265.58,-26.18 273.82,-19.52 263.22,-19.59 265.58,-26.18"/>
<g id="a_edge5&#45;headlabel"><a xlink:href="dir_001311_000829.html" target="_top" xlink:title="19">
<text text-anchor="middle" x="264.58" y="-27.06" font-family="Helvetica,sans-Serif" font-size="10.00" fill="#63b8ff">19</text>
</a>
</g>
</g>
<!-- dir_1cd32b914603311b5711a192cd0b3625 -->
<g id="node5" class="node">
<title>dir_1cd32b914603311b5711a192cd0b3625</title>
<g id="a_node5"><a xlink:href="dir_1cd32b914603311b5711a192cd0b3625.html" target="_top" xlink:title="SSystem">
<polygon fill="#a2b4d6" stroke="#404040" points="72,-129 16,-129 16,-110 72,-110 72,-129"/>
<text text-anchor="middle" x="44" y="-117" font-family="Helvetica,sans-Serif" font-size="10.00">SSystem</text>
</a>
</g>
</g>
<!-- dir_1cd32b914603311b5711a192cd0b3625&#45;&gt;dir_db1709413e4853dbf382363385ab04a7 -->
<g id="edge7" class="edge">
<title>dir_1cd32b914603311b5711a192cd0b3625&#45;&gt;dir_db1709413e4853dbf382363385ab04a7</title>
<path fill="none" stroke="#63b8ff" d="M62.15,-109.51C78.78,-101.27 103.64,-88.96 122.85,-79.45"/>
<polygon fill="#63b8ff" stroke="#63b8ff" points="124.35,-82.6 131.76,-75.03 121.25,-76.33 124.35,-82.6"/>
<g id="a_edge7&#45;headlabel"><a xlink:href="dir_001724_001311.html" target="_top" xlink:title="3">
<text text-anchor="middle" x="123.75" y="-83.57" font-family="Helvetica,sans-Serif" font-size="10.00" fill="#63b8ff">3</text>
</a>
</g>
</g>
<!-- dir_1cd32b914603311b5711a192cd0b3625&#45;&gt;dir_d44c64559bbebec7f509842c48db8b23 -->
<g id="edge6" class="edge">
<title>dir_1cd32b914603311b5711a192cd0b3625&#45;&gt;dir_d44c64559bbebec7f509842c48db8b23</title>
<path fill="none" stroke="#63b8ff" d="M72.21,-111.84C120.9,-100.29 216.22,-77.44 223,-74 224.63,-73.17 257.85,-45.24 279.83,-26.7"/>
<polygon fill="#63b8ff" stroke="#63b8ff" points="281.89,-29.54 287.27,-20.41 277.37,-24.19 281.89,-29.54"/>
<g id="a_edge6&#45;headlabel"><a xlink:href="dir_001724_000829.html" target="_top" xlink:title="83">
<text text-anchor="middle" x="282.13" y="-30.55" font-family="Helvetica,sans-Serif" font-size="10.00" fill="#63b8ff">83</text>
</a>
</g>
</g>
<!-- dir_6b67cfcdbcbf1df04fac4a98c3b947ab -->
<g id="node6" class="node">
<title>dir_6b67cfcdbcbf1df04fac4a98c3b947ab</title>
<g id="a_node6"><a xlink:href="dir_6b67cfcdbcbf1df04fac4a98c3b947ab.html" target="_top" xlink:title="TRK_MINNOW_DOLPHIN">
<polygon fill="#a2b4d6" stroke="#404040" points="224,-129 90,-129 90,-110 224,-110 224,-129"/>
<text text-anchor="middle" x="157" y="-117" font-family="Helvetica,sans-Serif" font-size="10.00">TRK_MINNOW_DOLPHIN</text>
</a>
</g>
</g>
<!-- dir_6b67cfcdbcbf1df04fac4a98c3b947ab&#45;&gt;dir_db1709413e4853dbf382363385ab04a7 -->
<g id="edge9" class="edge">
<title>dir_6b67cfcdbcbf1df04fac4a98c3b947ab&#45;&gt;dir_db1709413e4853dbf382363385ab04a7</title>
<path fill="none" stroke="#63b8ff" d="M156.01,-109.75C155.27,-103.19 154.22,-93.95 153.28,-85.6"/>
<polygon fill="#63b8ff" stroke="#63b8ff" points="156.79,-85.49 152.18,-75.95 149.83,-86.28 156.79,-85.49"/>
<g id="a_edge9&#45;headlabel"><a xlink:href="dir_001728_001311.html" target="_top" xlink:title="12">
<text text-anchor="middle" x="159.84" y="-84.74" font-family="Helvetica,sans-Serif" font-size="10.00" fill="#63b8ff">12</text>
</a>
</g>
</g>
<!-- dir_6b67cfcdbcbf1df04fac4a98c3b947ab&#45;&gt;dir_d44c64559bbebec7f509842c48db8b23 -->
<g id="edge8" class="edge">
<title>dir_6b67cfcdbcbf1df04fac4a98c3b947ab&#45;&gt;dir_d44c64559bbebec7f509842c48db8b23</title>
<path fill="none" stroke="#63b8ff" d="M188.02,-109.52C208.88,-102.36 236.09,-90.73 256,-74 270.64,-61.7 282.38,-43.21 289.88,-29.36"/>
<polygon fill="#63b8ff" stroke="#63b8ff" points="292.82,-31.29 294.26,-20.79 286.59,-28.1 292.82,-31.29"/>
<g id="a_edge8&#45;headlabel"><a xlink:href="dir_001728_000829.html" target="_top" xlink:title="71">
<text text-anchor="middle" x="294.4" y="-31.93" font-family="Helvetica,sans-Serif" font-size="10.00" fill="#63b8ff">71</text>
</a>
</g>
</g>
<!-- dir_604e56504269bc9a128cd8b15a4d6a95 -->
<g id="node7" class="node">
<title>dir_604e56504269bc9a128cd8b15a4d6a95</title>
<g id="a_node7"><a xlink:href="dir_604e56504269bc9a128cd8b15a4d6a95.html" target="_top" xlink:title="Z2AudioLib">
<polygon fill="#a2b4d6" stroke="#404040" points="308,-129 242,-129 242,-110 308,-110 308,-129"/>
<text text-anchor="middle" x="275" y="-117" font-family="Helvetica,sans-Serif" font-size="10.00">Z2AudioLib</text>
</a>
</g>
</g>
<!-- dir_604e56504269bc9a128cd8b15a4d6a95&#45;&gt;dir_db1709413e4853dbf382363385ab04a7 -->
<g id="edge11" class="edge">
<title>dir_604e56504269bc9a128cd8b15a4d6a95&#45;&gt;dir_db1709413e4853dbf382363385ab04a7</title>
<path fill="none" stroke="#63b8ff" d="M253.97,-109.51C234.25,-101.08 204.53,-88.38 182.09,-78.79"/>
<polygon fill="#63b8ff" stroke="#63b8ff" points="183.69,-75.66 173.12,-74.95 180.94,-82.1 183.69,-75.66"/>
<g id="a_edge11&#45;headlabel"><a xlink:href="dir_001733_001311.html" target="_top" xlink:title="3">
<text text-anchor="middle" x="186.72" y="-71.37" font-family="Helvetica,sans-Serif" font-size="10.00" fill="#63b8ff">3</text>
</a>
</g>
</g>
<!-- dir_604e56504269bc9a128cd8b15a4d6a95&#45;&gt;dir_d44c64559bbebec7f509842c48db8b23 -->
<g id="edge10" class="edge">
<title>dir_604e56504269bc9a128cd8b15a4d6a95&#45;&gt;dir_d44c64559bbebec7f509842c48db8b23</title>
<path fill="none" stroke="#63b8ff" d="M279.83,-109.6C284.34,-100.82 290.83,-86.89 294,-74 297.49,-59.81 298.71,-43.36 299.07,-30.75"/>
<polygon fill="#63b8ff" stroke="#63b8ff" points="302.57,-30.82 299.18,-20.78 295.57,-30.74 302.57,-30.82"/>
<g id="a_edge10&#45;headlabel"><a xlink:href="dir_001733_000829.html" target="_top" xlink:title="120">
<text text-anchor="middle" x="305.39" y="-30.43" font-family="Helvetica,sans-Serif" font-size="10.00" fill="#63b8ff">120</text>
</a>
</g>
</g>
</g>
</svg>
        <g id="navigator" transform="translate(0 0)" fill="#404254">
                <rect fill="#f2f5e9" fill-opacity="0.5" stroke="#606060" stroke-width=".5" x="0" y="0" width="60" height="60"/>
                <use id="zoomplus" xlink:href="#zoomPlus" x="17" y="9" onmousedown="handleZoom(evt,'in')"/>
                <use id="zoomminus" xlink:href="#zoomMin" x="42" y="9" onmousedown="handleZoom(evt,'out')"/>
                <use id="reset" xlink:href="#resetDef" x="30" y="36" onmousedown="handleReset()"/>
                <g id="arrowUp" xlink:href="#dirArrow" transform="translate(30 24)" onmousedown="handlePan(0,-1)">
                  <use xlink:href="#rim" fill="#404040">
                        <set attributeName="fill" to="#808080" begin="arrowUp.mouseover" end="arrowUp.mouseout"/>
                  </use>
                  <path fill="none" stroke="white" stroke-width="1.5" d="M0,-3.0v7 M-2.5,-0.5L0,-3.0L2.5,-0.5"/>
                </g>
                <g id="arrowRight" xlink:href="#dirArrow" transform="rotate(90) translate(36 -43)" onmousedown="handlePan(1,0)">
                  <use xlink:href="#rim" fill="#404040">
                        <set attributeName="fill" to="#808080" begin="arrowRight.mouseover" end="arrowRight.mouseout"/>
                  </use>
                  <path fill="none" stroke="white" stroke-width="1.5" d="M0,-3.0v7 M-2.5,-0.5L0,-3.0L2.5,-0.5"/>
                </g>
                <g id="arrowDown" xlink:href="#dirArrow" transform="rotate(180) translate(-30 -48)" onmousedown="handlePan(0,1)">
                  <use xlink:href="#rim" fill="#404040">
                        <set attributeName="fill" to="#808080" begin="arrowDown.mouseover" end="arrowDown.mouseout"/>
                  </use>
                  <path fill="none" stroke="white" stroke-width="1.5" d="M0,-3.0v7 M-2.5,-0.5L0,-3.0L2.5,-0.5"/>
                </g>
                <g id="arrowLeft" xlink:href="#dirArrow" transform="rotate(270) translate(-36 17)" onmousedown="handlePan(-1,0)">
                  <use xlink:href="#rim" fill="#404040">
                        <set attributeName="fill" to="#808080" begin="arrowLeft.mouseover" end="arrowLeft.mouseout"/>
                  </use>
                  <path fill="none" stroke="white" stroke-width="1.5" d="M0,-3.0v7 M-2.5,-0.5L0,-3.0L2.5,-0.5"/>
                </g>
        </g>
        <svg viewBox="0 0 15 15" width="100%" height="30px" preserveAspectRatio="xMaxYMin meet">
         <g id="arrow_out" transform="scale(0.3 0.3)">
          <a xlink:href="dir_6719ab1f1f7655efc2fa43f7eb574fd1_dep_org.svg" target="_base">
           <rect id="button" ry="5" rx="5" y="6" x="6" height="38" width="38"
                fill="#f2f5e9" fill-opacity="0.5" stroke="#606060" stroke-width="1.0"/>
           <path id="arrow"
             d="M 11.500037,31.436501 C 11.940474,20.09759 22.043105,11.32322 32.158766,21.979434 L 37.068811,17.246167 C 37.068811,17.246167 37.088388,32 37.088388,32 L 22.160133,31.978069 C 22.160133,31.978069 26.997745,27.140456 26.997745,27.140456 C 18.528582,18.264221 13.291696,25.230495 11.500037,31.436501 z"
             style="fill:#404040;"/>
          </a>
         </g>
        </svg>
</svg>
