<?xml version="1.0" encoding="UTF-8" standalone="no"?>
<!DOCTYPE svg PUBLIC "-//W3C//DTD SVG 1.1//EN"
 "http://www.w3.org/Graphics/SVG/1.1/DTD/svg11.dtd">
<!-- Generated by graphviz version 2.47.0 (20210316.2052)
 -->
<!-- Title: include/JSystem Pages: 1 -->
<svg width="1059pt" height="391pt"
 viewBox="0.00 0.00 1059.45 391.00" xmlns="http://www.w3.org/2000/svg" xmlns:xlink="http://www.w3.org/1999/xlink">
<g id="graph0" class="graph" transform="scale(1 1) rotate(0) translate(4 387)">
<title>include/JSystem</title>
<polygon fill="white" stroke="transparent" points="-4,4 -4,-387 1055.45,-387 1055.45,4 -4,4"/>
<g id="clust1" class="cluster">
<title>clusterdir_d44c64559bbebec7f509842c48db8b23</title>
<g id="a_clust1"><a xlink:href="dir_d44c64559bbebec7f509842c48db8b23.html" target="_top" xlink:title="include">
<polygon fill="#ddddee" stroke="black" points="8,-8 8,-375 1036,-375 1036,-8 8,-8"/>
<text text-anchor="middle" x="522" y="-363" font-family="Helvetica,sans-Serif" font-size="10.00">include</text>
</a>
</g>
</g>
<g id="clust2" class="cluster">
<title>clusterdir_4f0979a7f5e3194619cde56505e372d8</title>
<g id="a_clust2"><a xlink:href="dir_4f0979a7f5e3194619cde56505e372d8.html" target="_top">
<polygon fill="#eeeeff" stroke="black" points="262,-80 262,-348 826,-348 826,-80 262,-80"/>
</a>
</g>
</g>
<!-- dir_65d600aab5b7177ee2dccfac7c04bb8a -->
<g id="node1" class="node">
<title>dir_65d600aab5b7177ee2dccfac7c04bb8a</title>
<g id="a_node1"><a xlink:href="dir_65d600aab5b7177ee2dccfac7c04bb8a.html" target="_top" xlink:title="ar">
<polygon fill="none" stroke="black" points="888,-124 834,-124 834,-88 888,-88 888,-124"/>
<text text-anchor="middle" x="861" y="-103.5" font-family="Helvetica,sans-Serif" font-size="10.00">ar</text>
</a>
</g>
</g>
<!-- dir_b778c3f297ab88300258a2935792c8cc -->
<g id="node5" class="node">
<title>dir_b778c3f297ab88300258a2935792c8cc</title>
<g id="a_node5"><a xlink:href="dir_b778c3f297ab88300258a2935792c8cc.html" target="_top" xlink:title="dolphin">
<polygon fill="none" stroke="black" points="888,-52 834,-52 834,-16 888,-16 888,-52"/>
<text text-anchor="middle" x="861" y="-31.5" font-family="Helvetica,sans-Serif" font-size="10.00">dolphin</text>
</a>
</g>
</g>
<!-- dir_65d600aab5b7177ee2dccfac7c04bb8a&#45;&gt;dir_b778c3f297ab88300258a2935792c8cc -->
<g id="edge15" class="edge">
<title>dir_65d600aab5b7177ee2dccfac7c04bb8a&#45;&gt;dir_b778c3f297ab88300258a2935792c8cc</title>
<path fill="none" stroke="black" d="M861,-87.7C861,-79.98 861,-70.71 861,-62.11"/>
<polygon fill="black" stroke="black" points="864.5,-62.1 861,-52.1 857.5,-62.1 864.5,-62.1"/>
<g id="a_edge15&#45;headlabel"><a xlink:href="dir_000002_000046.html" target="_top" xlink:title="2">
<text text-anchor="middle" x="867.34" y="-63.2" font-family="Helvetica,sans-Serif" font-size="10.00">2</text>
</a>
</g>
</g>
<!-- dir_7b371d9fdb0359ac564866f88df60f77 -->
<g id="node2" class="node">
<title>dir_7b371d9fdb0359ac564866f88df60f77</title>
<g id="a_node2"><a xlink:href="dir_7b371d9fdb0359ac564866f88df60f77.html" target="_top" xlink:title="os">
<polygon fill="none" stroke="black" points="182,-196 128,-196 128,-160 182,-160 182,-196"/>
<text text-anchor="middle" x="155" y="-175.5" font-family="Helvetica,sans-Serif" font-size="10.00">os</text>
</a>
</g>
</g>
<!-- dir_b2a98ef39d7a74ac1f5af67b89b07b4d -->
<g id="node4" class="node">
<title>dir_b2a98ef39d7a74ac1f5af67b89b07b4d</title>
<g id="a_node4"><a xlink:href="dir_b2a98ef39d7a74ac1f5af67b89b07b4d.html" target="_top" xlink:title="dvd">
<polygon fill="none" stroke="black" points="254,-124 200,-124 200,-88 254,-88 254,-124"/>
<text text-anchor="middle" x="227" y="-103.5" font-family="Helvetica,sans-Serif" font-size="10.00">dvd</text>
</a>
</g>
</g>
<!-- dir_7b371d9fdb0359ac564866f88df60f77&#45;&gt;dir_b2a98ef39d7a74ac1f5af67b89b07b4d -->
<g id="edge21" class="edge">
<title>dir_7b371d9fdb0359ac564866f88df60f77&#45;&gt;dir_b2a98ef39d7a74ac1f5af67b89b07b4d</title>
<path fill="none" stroke="black" d="M172.8,-159.7C181.6,-151.14 192.38,-140.66 202,-131.3"/>
<polygon fill="black" stroke="black" points="204.68,-133.58 209.41,-124.1 199.8,-128.57 204.68,-133.58"/>
<g id="a_edge21&#45;headlabel"><a xlink:href="dir_000121_000047.html" target="_top" xlink:title="1">
<text text-anchor="middle" x="204.08" y="-135.63" font-family="Helvetica,sans-Serif" font-size="10.00">1</text>
</a>
</g>
</g>
<!-- dir_7b371d9fdb0359ac564866f88df60f77&#45;&gt;dir_b778c3f297ab88300258a2935792c8cc -->
<g id="edge22" class="edge">
<title>dir_7b371d9fdb0359ac564866f88df60f77&#45;&gt;dir_b778c3f297ab88300258a2935792c8cc</title>
<path fill="none" stroke="black" d="M155.97,-159.66C158.24,-137.23 165.81,-98.8 191,-80 241.82,-42.06 690.35,-36.11 823.74,-35.17"/>
<polygon fill="black" stroke="black" points="823.89,-38.67 833.87,-35.11 823.85,-31.67 823.89,-38.67"/>
<g id="a_edge22&#45;headlabel"><a xlink:href="dir_000121_000046.html" target="_top" xlink:title="1">
<text text-anchor="middle" x="820.32" y="-39.03" font-family="Helvetica,sans-Serif" font-size="10.00">1</text>
</a>
</g>
</g>
<!-- dir_a279ed5c4175293b5b2f0cc1c8e2c220 -->
<g id="node3" class="node">
<title>dir_a279ed5c4175293b5b2f0cc1c8e2c220</title>
<g id="a_node3"><a xlink:href="dir_a279ed5c4175293b5b2f0cc1c8e2c220.html" target="_top" xlink:title="gx">
<polygon fill="none" stroke="black" points="928,-196 874,-196 874,-160 928,-160 928,-196"/>
<text text-anchor="middle" x="901" y="-175.5" font-family="Helvetica,sans-Serif" font-size="10.00">gx</text>
</a>
</g>
</g>
<!-- dir_a279ed5c4175293b5b2f0cc1c8e2c220&#45;&gt;dir_b778c3f297ab88300258a2935792c8cc -->
<g id="edge25" class="edge">
<title>dir_a279ed5c4175293b5b2f0cc1c8e2c220&#45;&gt;dir_b778c3f297ab88300258a2935792c8cc</title>
<path fill="none" stroke="black" d="M908.16,-159.69C915.31,-139.62 923.71,-105.95 912,-80 908.37,-71.95 902.51,-64.77 896.03,-58.63"/>
<polygon fill="black" stroke="black" points="898.1,-55.8 888.25,-51.92 893.53,-61.1 898.1,-55.8"/>
<g id="a_edge25&#45;headlabel"><a xlink:href="dir_000052_000046.html" target="_top" xlink:title="1">
<text text-anchor="middle" x="902.68" y="-53.49" font-family="Helvetica,sans-Serif" font-size="10.00">1</text>
</a>
</g>
</g>
<!-- dir_b2a98ef39d7a74ac1f5af67b89b07b4d&#45;&gt;dir_b778c3f297ab88300258a2935792c8cc -->
<g id="edge16" class="edge">
<title>dir_b2a98ef39d7a74ac1f5af67b89b07b4d&#45;&gt;dir_b778c3f297ab88300258a2935792c8cc</title>
<path fill="none" stroke="black" d="M244.51,-87.91C248.64,-84.76 253.24,-81.88 258,-80 361.78,-38.96 709.1,-35.05 823.85,-34.9"/>
<polygon fill="black" stroke="black" points="823.91,-38.4 833.9,-34.9 823.9,-31.4 823.91,-38.4"/>
<g id="a_edge16&#45;headlabel"><a xlink:href="dir_000047_000046.html" target="_top" xlink:title="1">
<text text-anchor="middle" x="820.31" y="-38.74" font-family="Helvetica,sans-Serif" font-size="10.00">1</text>
</a>
</g>
</g>
<!-- dir_fbee22fe0c165caa3600c214f3fde6f6 -->
<g id="node6" class="node">
<title>dir_fbee22fe0c165caa3600c214f3fde6f6</title>
<g id="a_node6"><a xlink:href="dir_fbee22fe0c165caa3600c214f3fde6f6.html" target="_top" xlink:title="pad">
<polygon fill="none" stroke="black" points="254,-196 200,-196 200,-160 254,-160 254,-196"/>
<text text-anchor="middle" x="227" y="-175.5" font-family="Helvetica,sans-Serif" font-size="10.00">pad</text>
</a>
</g>
</g>
<!-- dir_f31be668b848c94749c2480e14c4b615 -->
<g id="node7" class="node">
<title>dir_f31be668b848c94749c2480e14c4b615</title>
<g id="a_node7"><a xlink:href="dir_f31be668b848c94749c2480e14c4b615.html" target="_top" xlink:title="vi">
<polygon fill="none" stroke="black" points="90,-196 36,-196 36,-160 90,-160 90,-196"/>
<text text-anchor="middle" x="63" y="-175.5" font-family="Helvetica,sans-Serif" font-size="10.00">vi</text>
</a>
</g>
</g>
<!-- dir_f31be668b848c94749c2480e14c4b615&#45;&gt;dir_b778c3f297ab88300258a2935792c8cc -->
<g id="edge17" class="edge">
<title>dir_f31be668b848c94749c2480e14c4b615&#45;&gt;dir_b778c3f297ab88300258a2935792c8cc</title>
<path fill="none" stroke="black" d="M64.81,-159.94C68.2,-137.45 77.72,-98.57 104,-80 163.14,-38.22 679.67,-35.01 823.8,-34.94"/>
<polygon fill="black" stroke="black" points="823.91,-38.44 833.91,-34.94 823.91,-31.44 823.91,-38.44"/>
<g id="a_edge17&#45;headlabel"><a xlink:href="dir_000127_000046.html" target="_top" xlink:title="1">
<text text-anchor="middle" x="820.31" y="-38.78" font-family="Helvetica,sans-Serif" font-size="10.00">1</text>
</a>
</g>
</g>
<!-- dir_4f0979a7f5e3194619cde56505e372d8 -->
<g id="node8" class="node">
<title>dir_4f0979a7f5e3194619cde56505e372d8</title>
<text text-anchor="middle" x="790" y="-319.5" font-family="Helvetica,sans-Serif" font-size="10.00">JSystem</text>
</g>
<!-- dir_a9517e75d808b51ad9f5947a3cea1d31 -->
<g id="node9" class="node">
<title>dir_a9517e75d808b51ad9f5947a3cea1d31</title>
<g id="a_node9"><a xlink:href="dir_a9517e75d808b51ad9f5947a3cea1d31.html" target="_top" xlink:title="J2DGraph">
<polygon fill="white" stroke="red" points="330,-340 270,-340 270,-304 330,-304 330,-340"/>
<text text-anchor="middle" x="300" y="-319.5" font-family="Helvetica,sans-Serif" font-size="10.00">J2DGraph</text>
</a>
</g>
</g>
<!-- dir_a9517e75d808b51ad9f5947a3cea1d31&#45;&gt;dir_a279ed5c4175293b5b2f0cc1c8e2c220 -->
<g id="edge5" class="edge">
<title>dir_a9517e75d808b51ad9f5947a3cea1d31&#45;&gt;dir_a279ed5c4175293b5b2f0cc1c8e2c220</title>
<path fill="none" stroke="black" d="M330.42,-307C333.29,-305.91 336.18,-304.88 339,-304 417.27,-279.47 439.66,-284.5 520,-268 671.31,-236.93 712.48,-241.78 860,-196 861.43,-195.56 862.87,-195.08 864.32,-194.59"/>
<polygon fill="black" stroke="black" points="865.74,-197.8 873.91,-191.05 863.32,-191.23 865.74,-197.8"/>
<g id="a_edge5&#45;headlabel"><a xlink:href="dir_000054_000052.html" target="_top" xlink:title="1">
<text text-anchor="middle" x="863.35" y="-199.2" font-family="Helvetica,sans-Serif" font-size="10.00">1</text>
</a>
</g>
</g>
<!-- dir_a9517e75d808b51ad9f5947a3cea1d31&#45;&gt;dir_b778c3f297ab88300258a2935792c8cc -->
<g id="edge6" class="edge">
<title>dir_a9517e75d808b51ad9f5947a3cea1d31&#45;&gt;dir_b778c3f297ab88300258a2935792c8cc</title>
<path fill="none" stroke="black" d="M330.36,-306.79C333.24,-305.74 336.15,-304.78 339,-304 469.21,-268.22 852.93,-301.68 937,-196 954.58,-173.9 931.54,-99.73 919,-80 913.2,-70.87 904.87,-62.85 896.32,-56.2"/>
<polygon fill="black" stroke="black" points="898.29,-53.31 888.14,-50.26 894.18,-58.97 898.29,-53.31"/>
<g id="a_edge6&#45;headlabel"><a xlink:href="dir_000054_000046.html" target="_top" xlink:title="4">
<text text-anchor="middle" x="902.87" y="-50.62" font-family="Helvetica,sans-Serif" font-size="10.00">4</text>
</a>
</g>
</g>
<!-- dir_85a59ac5b5c6745914cd8bd3a6827926 -->
<g id="node13" class="node">
<title>dir_85a59ac5b5c6745914cd8bd3a6827926</title>
<g id="a_node13"><a xlink:href="dir_85a59ac5b5c6745914cd8bd3a6827926.html" target="_top" xlink:title="JGeometry">
<polygon fill="white" stroke="black" points="334,-268 270,-268 270,-232 334,-232 334,-268"/>
<text text-anchor="middle" x="302" y="-247.5" font-family="Helvetica,sans-Serif" font-size="10.00">JGeometry</text>
</a>
</g>
</g>
<!-- dir_a9517e75d808b51ad9f5947a3cea1d31&#45;&gt;dir_85a59ac5b5c6745914cd8bd3a6827926 -->
<g id="edge8" class="edge">
<title>dir_a9517e75d808b51ad9f5947a3cea1d31&#45;&gt;dir_85a59ac5b5c6745914cd8bd3a6827926</title>
<path fill="none" stroke="black" d="M300.49,-303.7C300.71,-295.98 300.98,-286.71 301.23,-278.11"/>
<polygon fill="black" stroke="black" points="304.72,-278.2 301.51,-268.1 297.73,-278 304.72,-278.2"/>
<g id="a_edge8&#45;headlabel"><a xlink:href="dir_000054_000069.html" target="_top" xlink:title="1">
<text text-anchor="middle" x="307.46" y="-279.37" font-family="Helvetica,sans-Serif" font-size="10.00">1</text>
</a>
</g>
</g>
<!-- dir_cd1009b6de6f257cf504091b6f95eba2 -->
<g id="node14" class="node">
<title>dir_cd1009b6de6f257cf504091b6f95eba2</title>
<g id="a_node14"><a xlink:href="dir_cd1009b6de6f257cf504091b6f95eba2.html" target="_top" xlink:title="JKernel">
<polygon fill="white" stroke="red" points="544,-196 490,-196 490,-160 544,-160 544,-196"/>
<text text-anchor="middle" x="517" y="-175.5" font-family="Helvetica,sans-Serif" font-size="10.00">JKernel</text>
</a>
</g>
</g>
<!-- dir_a9517e75d808b51ad9f5947a3cea1d31&#45;&gt;dir_cd1009b6de6f257cf504091b6f95eba2 -->
<g id="edge7" class="edge">
<title>dir_a9517e75d808b51ad9f5947a3cea1d31&#45;&gt;dir_cd1009b6de6f257cf504091b6f95eba2</title>
<path fill="none" stroke="black" d="M330,-307.21C333.01,-306.05 336.05,-304.95 339,-304 411.7,-280.63 455.75,-324.61 507,-268 521.88,-251.56 523.29,-225.83 521.61,-206.25"/>
<polygon fill="black" stroke="black" points="525.06,-205.63 520.43,-196.1 518.11,-206.44 525.06,-205.63"/>
<g id="a_edge7&#45;headlabel"><a xlink:href="dir_000054_000070.html" target="_top" xlink:title="1">
<text text-anchor="middle" x="528.3" y="-206.37" font-family="Helvetica,sans-Serif" font-size="10.00">1</text>
</a>
</g>
</g>
<!-- dir_45593f23b58a9cb34ecfe1ccd7e4e81f -->
<g id="node18" class="node">
<title>dir_45593f23b58a9cb34ecfe1ccd7e4e81f</title>
<g id="a_node18"><a xlink:href="dir_45593f23b58a9cb34ecfe1ccd7e4e81f.html" target="_top" xlink:title="JSupport">
<polygon fill="white" stroke="red" points="522,-124 466,-124 466,-88 522,-88 522,-124"/>
<text text-anchor="middle" x="494" y="-103.5" font-family="Helvetica,sans-Serif" font-size="10.00">JSupport</text>
</a>
</g>
</g>
<!-- dir_a9517e75d808b51ad9f5947a3cea1d31&#45;&gt;dir_45593f23b58a9cb34ecfe1ccd7e4e81f -->
<g id="edge4" class="edge">
<title>dir_a9517e75d808b51ad9f5947a3cea1d31&#45;&gt;dir_45593f23b58a9cb34ecfe1ccd7e4e81f</title>
<path fill="none" stroke="black" d="M330.25,-307.66C363.2,-293.04 411.7,-271.22 415,-268 420.26,-262.87 460.7,-177.8 481.59,-133.45"/>
<polygon fill="black" stroke="black" points="484.88,-134.67 485.97,-124.14 478.55,-131.69 484.88,-134.67"/>
<g id="a_edge4&#45;headlabel"><a xlink:href="dir_000054_000098.html" target="_top" xlink:title="2">
<text text-anchor="middle" x="485.92" y="-136.64" font-family="Helvetica,sans-Serif" font-size="10.00">2</text>
</a>
</g>
</g>
<!-- dir_25682d7fe27d5da48e7af3ae8c2abb7f -->
<g id="node19" class="node">
<title>dir_25682d7fe27d5da48e7af3ae8c2abb7f</title>
<g id="a_node19"><a xlink:href="dir_25682d7fe27d5da48e7af3ae8c2abb7f.html" target="_top" xlink:title="JUtility">
<polygon fill="white" stroke="red" points="498,-268 444,-268 444,-232 498,-232 498,-268"/>
<text text-anchor="middle" x="471" y="-247.5" font-family="Helvetica,sans-Serif" font-size="10.00">JUtility</text>
</a>
</g>
</g>
<!-- dir_a9517e75d808b51ad9f5947a3cea1d31&#45;&gt;dir_25682d7fe27d5da48e7af3ae8c2abb7f -->
<g id="edge3" class="edge">
<title>dir_a9517e75d808b51ad9f5947a3cea1d31&#45;&gt;dir_25682d7fe27d5da48e7af3ae8c2abb7f</title>
<path fill="none" stroke="black" d="M330.19,-307.72C333.16,-306.45 336.14,-305.19 339,-304 379.16,-287.31 389.69,-284.33 430,-268 431.38,-267.44 432.79,-266.87 434.22,-266.29"/>
<polygon fill="black" stroke="black" points="435.76,-269.44 443.68,-262.4 433.1,-262.96 435.76,-269.44"/>
<g id="a_edge3&#45;headlabel"><a xlink:href="dir_000054_000102.html" target="_top" xlink:title="4">
<text text-anchor="middle" x="433.51" y="-270.93" font-family="Helvetica,sans-Serif" font-size="10.00">4</text>
</a>
</g>
</g>
<!-- dir_d068c98d77942e923a6396bfbdef05f0 -->
<g id="node10" class="node">
<title>dir_d068c98d77942e923a6396bfbdef05f0</title>
<g id="a_node10"><a xlink:href="dir_d068c98d77942e923a6396bfbdef05f0.html" target="_top" xlink:title="J3DGraphAnimator">
<polygon fill="white" stroke="black" points="663.5,-340 564.5,-340 564.5,-304 663.5,-304 663.5,-340"/>
<text text-anchor="middle" x="614" y="-319.5" font-family="Helvetica,sans-Serif" font-size="10.00">J3DGraphAnimator</text>
</a>
</g>
</g>
<!-- dir_939d1828e03278096bc671d6c97dec06 -->
<g id="node11" class="node">
<title>dir_939d1828e03278096bc671d6c97dec06</title>
<g id="a_node11"><a xlink:href="dir_939d1828e03278096bc671d6c97dec06.html" target="_top" xlink:title="JAudio2">
<polygon fill="white" stroke="red" points="474,-340 420,-340 420,-304 474,-304 474,-340"/>
<text text-anchor="middle" x="447" y="-319.5" font-family="Helvetica,sans-Serif" font-size="10.00">JAudio2</text>
</a>
</g>
</g>
<!-- dir_939d1828e03278096bc671d6c97dec06&#45;&gt;dir_b778c3f297ab88300258a2935792c8cc -->
<g id="edge19" class="edge">
<title>dir_939d1828e03278096bc671d6c97dec06&#45;&gt;dir_b778c3f297ab88300258a2935792c8cc</title>
<path fill="none" stroke="black" d="M474.12,-306.93C477.07,-305.78 480.06,-304.77 483,-304 535.69,-290.13 934.92,-307.91 972,-268 1000.44,-237.39 995.34,-114.65 972,-80 955.66,-55.75 923.78,-44.56 898.36,-39.4"/>
<polygon fill="black" stroke="black" points="898.74,-35.92 888.28,-37.6 897.5,-42.81 898.74,-35.92"/>
<g id="a_edge19&#45;headlabel"><a xlink:href="dir_000058_000046.html" target="_top" xlink:title="1">
<text text-anchor="middle" x="902.78" y="-31.26" font-family="Helvetica,sans-Serif" font-size="10.00">1</text>
</a>
</g>
</g>
<!-- dir_2adf73cd42e23ea1cf49f138568984bb -->
<g id="node12" class="node">
<title>dir_2adf73cd42e23ea1cf49f138568984bb</title>
<g id="a_node12"><a xlink:href="dir_2adf73cd42e23ea1cf49f138568984bb.html" target="_top" xlink:title="JGadget">
<polygon fill="white" stroke="black" points="406,-268 352,-268 352,-232 406,-232 406,-268"/>
<text text-anchor="middle" x="379" y="-247.5" font-family="Helvetica,sans-Serif" font-size="10.00">JGadget</text>
</a>
</g>
</g>
<!-- dir_2adf73cd42e23ea1cf49f138568984bb&#45;&gt;dir_b778c3f297ab88300258a2935792c8cc -->
<g id="edge1" class="edge">
<title>dir_2adf73cd42e23ea1cf49f138568984bb&#45;&gt;dir_b778c3f297ab88300258a2935792c8cc</title>
<path fill="none" stroke="black" d="M351.8,-235.18C348.88,-233.99 345.91,-232.9 343,-232 294.84,-217.09 151.7,-234.37 119,-196 88.49,-160.2 145.79,-89.32 160,-80 215.66,-43.48 686.29,-36.52 823.56,-35.26"/>
<polygon fill="black" stroke="black" points="824,-38.76 833.96,-35.17 823.93,-31.76 824,-38.76"/>
<g id="a_edge1&#45;headlabel"><a xlink:href="dir_000067_000046.html" target="_top" xlink:title="2">
<text text-anchor="middle" x="820.43" y="-39.13" font-family="Helvetica,sans-Serif" font-size="10.00">2</text>
</a>
</g>
</g>
<!-- dir_85a59ac5b5c6745914cd8bd3a6827926&#45;&gt;dir_b778c3f297ab88300258a2935792c8cc -->
<g id="edge18" class="edge">
<title>dir_85a59ac5b5c6745914cd8bd3a6827926&#45;&gt;dir_b778c3f297ab88300258a2935792c8cc</title>
<path fill="none" stroke="black" d="M269.77,-247.74C203.9,-244.41 57.49,-232.93 27,-196 -3.78,-158.72 57.25,-88.12 70,-80 133.94,-39.26 674.48,-35.32 823.24,-35.01"/>
<polygon fill="black" stroke="black" points="823.66,-38.51 833.66,-34.99 823.65,-31.51 823.66,-38.51"/>
<g id="a_edge18&#45;headlabel"><a xlink:href="dir_000069_000046.html" target="_top" xlink:title="1">
<text text-anchor="middle" x="820.07" y="-38.85" font-family="Helvetica,sans-Serif" font-size="10.00">1</text>
</a>
</g>
</g>
<!-- dir_cd1009b6de6f257cf504091b6f95eba2&#45;&gt;dir_65d600aab5b7177ee2dccfac7c04bb8a -->
<g id="edge12" class="edge">
<title>dir_cd1009b6de6f257cf504091b6f95eba2&#45;&gt;dir_65d600aab5b7177ee2dccfac7c04bb8a</title>
<path fill="none" stroke="black" d="M544.13,-161.4C545.42,-160.89 546.72,-160.42 548,-160 664.99,-121.97 707.59,-160.9 824.22,-125.63"/>
<polygon fill="black" stroke="black" points="825.38,-128.94 833.87,-122.6 823.28,-122.26 825.38,-128.94"/>
<g id="a_edge12&#45;headlabel"><a xlink:href="dir_000070_000002.html" target="_top" xlink:title="1">
<text text-anchor="middle" x="822.8" y="-130.22" font-family="Helvetica,sans-Serif" font-size="10.00">1</text>
</a>
</g>
</g>
<!-- dir_cd1009b6de6f257cf504091b6f95eba2&#45;&gt;dir_7b371d9fdb0359ac564866f88df60f77 -->
<g id="edge13" class="edge">
<title>dir_cd1009b6de6f257cf504091b6f95eba2&#45;&gt;dir_7b371d9fdb0359ac564866f88df60f77</title>
<path fill="none" stroke="black" d="M497.69,-196.25C489,-203.23 478.2,-210.39 467,-214 410.53,-232.21 255.99,-233.64 200,-214 192.86,-211.5 186.01,-207.33 179.91,-202.7"/>
<polygon fill="black" stroke="black" points="182.01,-199.9 172.08,-196.22 177.55,-205.29 182.01,-199.9"/>
<g id="a_edge13&#45;headlabel"><a xlink:href="dir_000070_000121.html" target="_top" xlink:title="1">
<text text-anchor="middle" x="186.59" y="-197.51" font-family="Helvetica,sans-Serif" font-size="10.00">1</text>
</a>
</g>
</g>
<!-- dir_cd1009b6de6f257cf504091b6f95eba2&#45;&gt;dir_b2a98ef39d7a74ac1f5af67b89b07b4d -->
<g id="edge14" class="edge">
<title>dir_cd1009b6de6f257cf504091b6f95eba2&#45;&gt;dir_b2a98ef39d7a74ac1f5af67b89b07b4d</title>
<path fill="none" stroke="black" d="M489.85,-161.45C488.57,-160.92 487.28,-160.44 486,-160 392.05,-127.91 357.33,-155.27 263.7,-125.7"/>
<polygon fill="black" stroke="black" points="264.74,-122.36 254.15,-122.55 262.55,-129 264.74,-122.36"/>
<g id="a_edge14&#45;headlabel"><a xlink:href="dir_000070_000047.html" target="_top" xlink:title="2">
<text text-anchor="middle" x="269.04" y="-118.28" font-family="Helvetica,sans-Serif" font-size="10.00">2</text>
</a>
</g>
</g>
<!-- dir_cd1009b6de6f257cf504091b6f95eba2&#45;&gt;dir_b778c3f297ab88300258a2935792c8cc -->
<g id="edge10" class="edge">
<title>dir_cd1009b6de6f257cf504091b6f95eba2&#45;&gt;dir_b778c3f297ab88300258a2935792c8cc</title>
<path fill="none" stroke="black" d="M544.29,-161.8C545.54,-161.18 546.78,-160.58 548,-160 645.55,-113.98 764.9,-69.42 824.08,-48.08"/>
<polygon fill="black" stroke="black" points="825.5,-51.29 833.73,-44.62 823.14,-44.7 825.5,-51.29"/>
<g id="a_edge10&#45;headlabel"><a xlink:href="dir_000070_000046.html" target="_top" xlink:title="26">
<text text-anchor="middle" x="823.08" y="-52.68" font-family="Helvetica,sans-Serif" font-size="10.00">26</text>
</a>
</g>
</g>
<!-- dir_cd1009b6de6f257cf504091b6f95eba2&#45;&gt;dir_45593f23b58a9cb34ecfe1ccd7e4e81f -->
<g id="edge11" class="edge">
<title>dir_cd1009b6de6f257cf504091b6f95eba2&#45;&gt;dir_45593f23b58a9cb34ecfe1ccd7e4e81f</title>
<path fill="none" stroke="black" d="M511.31,-159.7C508.75,-151.9 505.67,-142.51 502.82,-133.83"/>
<polygon fill="black" stroke="black" points="506.07,-132.51 499.62,-124.1 499.42,-134.7 506.07,-132.51"/>
<g id="a_edge11&#45;headlabel"><a xlink:href="dir_000070_000098.html" target="_top" xlink:title="6">
<text text-anchor="middle" x="509.89" y="-132.54" font-family="Helvetica,sans-Serif" font-size="10.00">6</text>
</a>
</g>
</g>
<!-- dir_745c4d827b885b106b58a37f86b4723a -->
<g id="node15" class="node">
<title>dir_745c4d827b885b106b58a37f86b4723a</title>
<g id="a_node15"><a xlink:href="dir_745c4d827b885b106b58a37f86b4723a.html" target="_top" xlink:title="JMath">
<polygon fill="white" stroke="black" points="546,-340 492,-340 492,-304 546,-304 546,-340"/>
<text text-anchor="middle" x="519" y="-319.5" font-family="Helvetica,sans-Serif" font-size="10.00">JMath</text>
</a>
</g>
</g>
<!-- dir_745c4d827b885b106b58a37f86b4723a&#45;&gt;dir_b778c3f297ab88300258a2935792c8cc -->
<g id="edge9" class="edge">
<title>dir_745c4d827b885b106b58a37f86b4723a&#45;&gt;dir_b778c3f297ab88300258a2935792c8cc</title>
<path fill="none" stroke="black" d="M546.09,-307.27C549.37,-306 552.72,-304.86 556,-304 603.02,-291.67 959.07,-303.76 992,-268 1020.3,-237.27 1016.27,-114 992,-80 970.94,-50.5 929.27,-40.14 898.55,-36.6"/>
<polygon fill="black" stroke="black" points="898.49,-33.08 888.2,-35.62 897.82,-40.05 898.49,-33.08"/>
<g id="a_edge9&#45;headlabel"><a xlink:href="dir_000068_000046.html" target="_top" xlink:title="2">
<text text-anchor="middle" x="902.33" y="-28.1" font-family="Helvetica,sans-Serif" font-size="10.00">2</text>
</a>
</g>
</g>
<!-- dir_49a47a08903d444eb2abc0c220e49786 -->
<g id="node16" class="node">
<title>dir_49a47a08903d444eb2abc0c220e49786</title>
<g id="a_node16"><a xlink:href="dir_49a47a08903d444eb2abc0c220e49786.html" target="_top" xlink:title="JMessage">
<polygon fill="white" stroke="red" points="744,-340 682,-340 682,-304 744,-304 744,-340"/>
<text text-anchor="middle" x="713" y="-319.5" font-family="Helvetica,sans-Serif" font-size="10.00">JMessage</text>
</a>
</g>
</g>
<!-- dir_49a47a08903d444eb2abc0c220e49786&#45;&gt;dir_b778c3f297ab88300258a2935792c8cc -->
<g id="edge20" class="edge">
<title>dir_49a47a08903d444eb2abc0c220e49786&#45;&gt;dir_b778c3f297ab88300258a2935792c8cc</title>
<path fill="none" stroke="black" d="M744.05,-307.17C747.37,-305.98 750.73,-304.89 754,-304 809.86,-288.79 974,-311.67 1012,-268 1066.85,-204.97 1061.94,-146.99 1012,-80 985.96,-45.07 933.87,-36.18 898.23,-34.46"/>
<polygon fill="black" stroke="black" points="898.3,-30.96 888.19,-34.14 898.08,-37.95 898.3,-30.96"/>
<g id="a_edge20&#45;headlabel"><a xlink:href="dir_000095_000046.html" target="_top" xlink:title="1">
<text text-anchor="middle" x="901.98" y="-25.73" font-family="Helvetica,sans-Serif" font-size="10.00">1</text>
</a>
</g>
</g>
<!-- dir_ddc9133ecf11e60602f1406a8bd2a6d3 -->
<g id="node17" class="node">
<title>dir_ddc9133ecf11e60602f1406a8bd2a6d3</title>
<g id="a_node17"><a xlink:href="dir_ddc9133ecf11e60602f1406a8bd2a6d3.html" target="_top" xlink:title="JStudio">
<polygon fill="white" stroke="black" points="402,-340 348,-340 348,-304 402,-304 402,-340"/>
<text text-anchor="middle" x="375" y="-319.5" font-family="Helvetica,sans-Serif" font-size="10.00">JStudio</text>
</a>
</g>
</g>
<!-- dir_ddc9133ecf11e60602f1406a8bd2a6d3&#45;&gt;dir_b778c3f297ab88300258a2935792c8cc -->
<g id="edge24" class="edge">
<title>dir_ddc9133ecf11e60602f1406a8bd2a6d3&#45;&gt;dir_b778c3f297ab88300258a2935792c8cc</title>
<path fill="none" stroke="black" d="M402.12,-306.91C405.06,-305.77 408.06,-304.76 411,-304 469.31,-288.87 910.84,-311.99 952,-268 980.54,-237.49 974.04,-115.49 952,-80 940.15,-60.92 917.54,-49.68 897.82,-43.21"/>
<polygon fill="black" stroke="black" points="898.72,-39.83 888.14,-40.32 896.72,-46.53 898.72,-39.83"/>
<g id="a_edge24&#45;headlabel"><a xlink:href="dir_000097_000046.html" target="_top" xlink:title="1">
<text text-anchor="middle" x="902.98" y="-35.63" font-family="Helvetica,sans-Serif" font-size="10.00">1</text>
</a>
</g>
</g>
<!-- dir_ddc9133ecf11e60602f1406a8bd2a6d3&#45;&gt;dir_2adf73cd42e23ea1cf49f138568984bb -->
<g id="edge23" class="edge">
<title>dir_ddc9133ecf11e60602f1406a8bd2a6d3&#45;&gt;dir_2adf73cd42e23ea1cf49f138568984bb</title>
<path fill="none" stroke="black" d="M375.99,-303.7C376.43,-295.98 376.96,-286.71 377.45,-278.11"/>
<polygon fill="black" stroke="black" points="380.95,-278.29 378.02,-268.1 373.96,-277.89 380.95,-278.29"/>
<g id="a_edge23&#45;headlabel"><a xlink:href="dir_000097_000067.html" target="_top" xlink:title="6">
<text text-anchor="middle" x="383.58" y="-279.54" font-family="Helvetica,sans-Serif" font-size="10.00">6</text>
</a>
</g>
</g>
<!-- dir_45593f23b58a9cb34ecfe1ccd7e4e81f&#45;&gt;dir_b778c3f297ab88300258a2935792c8cc -->
<g id="edge2" class="edge">
<title>dir_45593f23b58a9cb34ecfe1ccd7e4e81f&#45;&gt;dir_b778c3f297ab88300258a2935792c8cc</title>
<path fill="none" stroke="black" d="M512.58,-87.87C516.74,-84.81 521.32,-81.97 526,-80 579.14,-57.63 748.09,-43.09 823.74,-37.54"/>
<polygon fill="black" stroke="black" points="824.05,-41.02 833.78,-36.81 823.55,-34.04 824.05,-41.02"/>
<g id="a_edge2&#45;headlabel"><a xlink:href="dir_000098_000046.html" target="_top" xlink:title="5">
<text text-anchor="middle" x="820.67" y="-41.61" font-family="Helvetica,sans-Serif" font-size="10.00">5</text>
</a>
</g>
</g>
<!-- dir_25682d7fe27d5da48e7af3ae8c2abb7f&#45;&gt;dir_7b371d9fdb0359ac564866f88df60f77 -->
<g id="edge27" class="edge">
<title>dir_25682d7fe27d5da48e7af3ae8c2abb7f&#45;&gt;dir_7b371d9fdb0359ac564866f88df60f77</title>
<path fill="none" stroke="black" d="M443.86,-239.95C434.75,-237.14 424.5,-234.2 415,-232 319.82,-210.01 289.23,-224.83 191.84,-195.77"/>
<polygon fill="black" stroke="black" points="192.78,-192.4 182.2,-192.82 190.73,-199.09 192.78,-192.4"/>
<g id="a_edge27&#45;headlabel"><a xlink:href="dir_000102_000121.html" target="_top" xlink:title="2">
<text text-anchor="middle" x="197.05" y="-188.24" font-family="Helvetica,sans-Serif" font-size="10.00">2</text>
</a>
</g>
</g>
<!-- dir_25682d7fe27d5da48e7af3ae8c2abb7f&#45;&gt;dir_a279ed5c4175293b5b2f0cc1c8e2c220 -->
<g id="edge28" class="edge">
<title>dir_25682d7fe27d5da48e7af3ae8c2abb7f&#45;&gt;dir_a279ed5c4175293b5b2f0cc1c8e2c220</title>
<path fill="none" stroke="black" d="M498.12,-233.36C499.41,-232.86 500.71,-232.4 502,-232 654.73,-184.6 704.93,-235.04 860,-196 861.26,-195.68 862.53,-195.33 863.81,-194.96"/>
<polygon fill="black" stroke="black" points="865.23,-198.17 873.59,-191.65 862.99,-191.54 865.23,-198.17"/>
<g id="a_edge28&#45;headlabel"><a xlink:href="dir_000102_000052.html" target="_top" xlink:title="3">
<text text-anchor="middle" x="862.74" y="-199.51" font-family="Helvetica,sans-Serif" font-size="10.00">3</text>
</a>
</g>
</g>
<!-- dir_25682d7fe27d5da48e7af3ae8c2abb7f&#45;&gt;dir_b778c3f297ab88300258a2935792c8cc -->
<g id="edge29" class="edge">
<title>dir_25682d7fe27d5da48e7af3ae8c2abb7f&#45;&gt;dir_b778c3f297ab88300258a2935792c8cc</title>
<path fill="none" stroke="black" d="M498.21,-233.62C499.48,-233.05 500.75,-232.51 502,-232 670.73,-163.78 786.57,-268.67 897,-124 908.87,-108.46 903.47,-98.45 897,-80 894.5,-72.86 890.33,-66.01 885.7,-59.91"/>
<polygon fill="black" stroke="black" points="888.29,-57.55 879.22,-52.08 882.9,-62.01 888.29,-57.55"/>
<g id="a_edge29&#45;headlabel"><a xlink:href="dir_000102_000046.html" target="_top" xlink:title="4">
<text text-anchor="middle" x="892.77" y="-56" font-family="Helvetica,sans-Serif" font-size="10.00">4</text>
</a>
</g>
</g>
<!-- dir_25682d7fe27d5da48e7af3ae8c2abb7f&#45;&gt;dir_fbee22fe0c165caa3600c214f3fde6f6 -->
<g id="edge31" class="edge">
<title>dir_25682d7fe27d5da48e7af3ae8c2abb7f&#45;&gt;dir_fbee22fe0c165caa3600c214f3fde6f6</title>
<path fill="none" stroke="black" d="M443.76,-240.32C434.66,-237.53 424.43,-234.51 415,-232 349.06,-214.45 326.98,-220.77 263.82,-198.02"/>
<polygon fill="black" stroke="black" points="264.78,-194.64 254.19,-194.44 262.34,-201.2 264.78,-194.64"/>
<g id="a_edge31&#45;headlabel"><a xlink:href="dir_000102_000122.html" target="_top" xlink:title="1">
<text text-anchor="middle" x="269.14" y="-190.73" font-family="Helvetica,sans-Serif" font-size="10.00">1</text>
</a>
</g>
</g>
<!-- dir_25682d7fe27d5da48e7af3ae8c2abb7f&#45;&gt;dir_f31be668b848c94749c2480e14c4b615 -->
<g id="edge32" class="edge">
<title>dir_25682d7fe27d5da48e7af3ae8c2abb7f&#45;&gt;dir_f31be668b848c94749c2480e14c4b615</title>
<path fill="none" stroke="black" d="M443.9,-239.74C434.8,-236.91 424.54,-234.01 415,-232 285.33,-204.65 248.67,-223.35 119,-196 112.74,-194.68 106.16,-192.98 99.82,-191.17"/>
<polygon fill="black" stroke="black" points="100.68,-187.77 90.1,-188.26 98.68,-194.48 100.68,-187.77"/>
<g id="a_edge32&#45;headlabel"><a xlink:href="dir_000102_000127.html" target="_top" xlink:title="1">
<text text-anchor="middle" x="104.94" y="-183.58" font-family="Helvetica,sans-Serif" font-size="10.00">1</text>
</a>
</g>
</g>
<!-- dir_25682d7fe27d5da48e7af3ae8c2abb7f&#45;&gt;dir_cd1009b6de6f257cf504091b6f95eba2 -->
<g id="edge30" class="edge">
<title>dir_25682d7fe27d5da48e7af3ae8c2abb7f&#45;&gt;dir_cd1009b6de6f257cf504091b6f95eba2</title>
<path fill="none" stroke="black" d="M482.37,-231.7C487.72,-223.56 494.2,-213.69 500.11,-204.7"/>
<polygon fill="black" stroke="black" points="503.19,-206.38 505.76,-196.1 497.34,-202.54 503.19,-206.38"/>
<g id="a_edge30&#45;headlabel"><a xlink:href="dir_000102_000070.html" target="_top" xlink:title="4">
<text text-anchor="middle" x="503.59" y="-208.45" font-family="Helvetica,sans-Serif" font-size="10.00">4</text>
</a>
</g>
</g>
<!-- dir_25682d7fe27d5da48e7af3ae8c2abb7f&#45;&gt;dir_45593f23b58a9cb34ecfe1ccd7e4e81f -->
<g id="edge26" class="edge">
<title>dir_25682d7fe27d5da48e7af3ae8c2abb7f&#45;&gt;dir_45593f23b58a9cb34ecfe1ccd7e4e81f</title>
<path fill="none" stroke="black" d="M472.27,-231.84C473.75,-213.85 476.58,-184.8 481,-160 482.52,-151.47 484.61,-142.28 486.67,-133.98"/>
<polygon fill="black" stroke="black" points="490.12,-134.62 489.22,-124.07 483.34,-132.88 490.12,-134.62"/>
<g id="a_edge26&#45;headlabel"><a xlink:href="dir_000102_000098.html" target="_top" xlink:title="2">
<text text-anchor="middle" x="491.97" y="-136.31" font-family="Helvetica,sans-Serif" font-size="10.00">2</text>
</a>
</g>
</g>
</g>
</svg>
