<?xml version="1.0" encoding="UTF-8" standalone="no"?>
<!DOCTYPE svg PUBLIC "-//W3C//DTD SVG 1.1//EN"
 "http://www.w3.org/Graphics/SVG/1.1/DTD/svg11.dtd">
<!-- Generated by graphviz version 2.46.0 (20210122.1329)
 -->
<!-- Title: include/SComponent Pages: 1 -->
<svg width="338pt" height="183pt"
 viewBox="0.00 0.00 338.00 183.00" xmlns="http://www.w3.org/2000/svg" xmlns:xlink="http://www.w3.org/1999/xlink">
<g id="graph0" class="graph" transform="scale(1 1) rotate(0) translate(4 179)">
<title>include/SComponent</title>
<polygon fill="white" stroke="transparent" points="-4,4 -4,-179 334,-179 334,4 -4,4"/>
<g id="clust1" class="cluster">
<title>clusterdir_d44c64559bbebec7f509842c48db8b23</title>
<g id="a_clust1"><a xlink:href="dir_d44c64559bbebec7f509842c48db8b23.html" target="_top" xlink:title="include">
<polygon fill="#ddddee" stroke="black" points="8,-8 8,-167 322,-167 322,-8 8,-8"/>
<text text-anchor="middle" x="165" y="-155" font-family="Helvetica,sans-Serif" font-size="10.00">include</text>
</a>
</g>
</g>
<g id="clust2" class="cluster">
<title>clusterdir_76ec03b56887a0e8201bcb48abf48018</title>
<g id="a_clust2"><a xlink:href="dir_76ec03b56887a0e8201bcb48abf48018.html" target="_top">
<polygon fill="#eeeeff" stroke="black" points="16,-16 16,-140 178,-140 178,-16 16,-16"/>
</a>
</g>
</g>
<!-- dir_33eed416d00e84841337708fc7e11b48 -->
<g id="node1" class="node">
<title>dir_33eed416d00e84841337708fc7e11b48</title>
<g id="a_node1"><a xlink:href="dir_33eed416d00e84841337708fc7e11b48.html" target="_top" xlink:title="f">
<polygon fill="white" stroke="red" points="240,-60 186,-60 186,-24 240,-24 240,-60"/>
<text text-anchor="middle" x="213" y="-39.5" font-family="Helvetica,sans-Serif" font-size="10.00">f</text>
</a>
</g>
</g>
<!-- dir_4f0979a7f5e3194619cde56505e372d8 -->
<g id="node2" class="node">
<title>dir_4f0979a7f5e3194619cde56505e372d8</title>
<g id="a_node2"><a xlink:href="dir_4f0979a7f5e3194619cde56505e372d8.html" target="_top" xlink:title="JSystem">
<polygon fill="white" stroke="red" points="313.5,-60 258.5,-60 258.5,-24 313.5,-24 313.5,-60"/>
<text text-anchor="middle" x="286" y="-39.5" font-family="Helvetica,sans-Serif" font-size="10.00">JSystem</text>
</a>
</g>
</g>
<!-- dir_76ec03b56887a0e8201bcb48abf48018 -->
<g id="node3" class="node">
<title>dir_76ec03b56887a0e8201bcb48abf48018</title>
<text text-anchor="middle" x="133" y="-111.5" font-family="Helvetica,sans-Serif" font-size="10.00">SComponent</text>
</g>
<!-- dir_76ec03b56887a0e8201bcb48abf48018&#45;&gt;dir_33eed416d00e84841337708fc7e11b48 -->
<g id="edge1" class="edge">
<title>dir_76ec03b56887a0e8201bcb48abf48018&#45;&gt;dir_33eed416d00e84841337708fc7e11b48</title>
<path fill="none" stroke="black" d="M152.78,-95.7C162.75,-86.97 175.01,-76.24 185.86,-66.75"/>
<polygon fill="black" stroke="black" points="188.23,-69.32 193.45,-60.1 183.62,-64.06 188.23,-69.32"/>
<g id="a_edge1&#45;headlabel"><a xlink:href="dir_000113_000044.html" target="_top" xlink:title="1">
<text text-anchor="middle" x="187.4" y="-71.33" font-family="Helvetica,sans-Serif" font-size="10.00">1</text>
</a>
</g>
</g>
<!-- dir_76ec03b56887a0e8201bcb48abf48018&#45;&gt;dir_4f0979a7f5e3194619cde56505e372d8 -->
<g id="edge2" class="edge">
<title>dir_76ec03b56887a0e8201bcb48abf48018&#45;&gt;dir_4f0979a7f5e3194619cde56505e372d8</title>
<path fill="none" stroke="black" d="M169.58,-96.31C192.42,-85.88 222.43,-72.17 249,-60 249.09,-59.96 249.18,-59.92 249.28,-59.87"/>
<polygon fill="black" stroke="black" points="250.49,-63.17 258.12,-55.82 247.57,-56.8 250.49,-63.17"/>
<g id="a_edge2&#45;headlabel"><a xlink:href="dir_000113_000048.html" target="_top" xlink:title="1">
<text text-anchor="middle" x="248.41" y="-64.75" font-family="Helvetica,sans-Serif" font-size="10.00">1</text>
</a>
</g>
</g>
<!-- dir_3486577814a4b6bd54a338a9428f09a3 -->
<g id="node4" class="node">
<title>dir_3486577814a4b6bd54a338a9428f09a3</title>
<g id="a_node4"><a xlink:href="dir_3486577814a4b6bd54a338a9428f09a3.html" target="_top" xlink:title="c_cc_d">
<polygon fill="white" stroke="black" points="78,-60 24,-60 24,-24 78,-24 78,-60"/>
<text text-anchor="middle" x="51" y="-39.5" font-family="Helvetica,sans-Serif" font-size="10.00">c_cc_d</text>
</a>
</g>
</g>
<!-- dir_557297f20c632f9569ac87b97e86b672 -->
<g id="node5" class="node">
<title>dir_557297f20c632f9569ac87b97e86b672</title>
<g id="a_node5"><a xlink:href="dir_557297f20c632f9569ac87b97e86b672.html" target="_top" xlink:title="c_cc_s">
<polygon fill="white" stroke="black" points="78,-132 24,-132 24,-96 78,-96 78,-132"/>
<text text-anchor="middle" x="51" y="-111.5" font-family="Helvetica,sans-Serif" font-size="10.00">c_cc_s</text>
</a>
</g>
</g>
<!-- dir_557297f20c632f9569ac87b97e86b672&#45;&gt;dir_3486577814a4b6bd54a338a9428f09a3 -->
<g id="edge3" class="edge">
<title>dir_557297f20c632f9569ac87b97e86b672&#45;&gt;dir_3486577814a4b6bd54a338a9428f09a3</title>
<path fill="none" stroke="black" d="M51,-95.7C51,-87.98 51,-78.71 51,-70.11"/>
<polygon fill="black" stroke="black" points="54.5,-70.1 51,-60.1 47.5,-70.1 54.5,-70.1"/>
<g id="a_edge3&#45;headlabel"><a xlink:href="dir_000115_000114.html" target="_top" xlink:title="1">
<text text-anchor="middle" x="57.34" y="-71.2" font-family="Helvetica,sans-Serif" font-size="10.00">1</text>
</a>
</g>
</g>
</g>
</svg>
