<?xml version="1.0" encoding="UTF-8" standalone="no"?>
<!DOCTYPE svg PUBLIC "-//W3C//DTD SVG 1.1//EN"
 "http://www.w3.org/Graphics/SVG/1.1/DTD/svg11.dtd">
<!-- Generated by graphviz version 7.0.5 (20221223.1930)
 -->
<!-- Title: include/dolphin Pages: 1 -->
<svg width="518pt" height="204pt"
 viewBox="0.00 0.00 518.00 204.00" xmlns="http://www.w3.org/2000/svg" xmlns:xlink="http://www.w3.org/1999/xlink">
<g id="graph0" class="graph" transform="scale(1 1) rotate(0) translate(4 200)">
<title>include/dolphin</title>
<g id="clust1" class="cluster">
<title>clusterdir_d44c64559bbebec7f509842c48db8b23</title>
<g id="a_clust1"><a xlink:href="dir_d44c64559bbebec7f509842c48db8b23.html" target="_top" xlink:title="include">
<polygon fill="#edf0f7" stroke="#404040" stroke-dasharray="5,2" points="8,-8 8,-188 470,-188 470,-8 8,-8"/>
<text text-anchor="middle" x="239" y="-176" font-family="Helvetica,sans-Serif" font-size="10.00">include</text>
</a>
</g>
</g>
<g id="clust2" class="cluster">
<title>clusterdir_b778c3f297ab88300258a2935792c8cc</title>
<g id="a_clust2"><a xlink:href="dir_b778c3f297ab88300258a2935792c8cc.html" target="_top">
<polygon fill="#edf0f7" stroke="#404040" stroke-width="2" points="16,-16 16,-161 462,-161 462,-16 16,-16"/>
</a>
</g>
</g>
<!-- dir_b778c3f297ab88300258a2935792c8cc -->
<g id="node1" class="node">
<title>dir_b778c3f297ab88300258a2935792c8cc</title>
<text text-anchor="middle" x="430" y="-141" font-family="Helvetica,sans-Serif" font-size="10.00">dolphin</text>
</g>
<!-- dir_90cb8ad8b5d23ff836273423134b4fcb -->
<g id="node2" class="node">
<title>dir_90cb8ad8b5d23ff836273423134b4fcb</title>
<g id="a_node2"><a xlink:href="dir_90cb8ad8b5d23ff836273423134b4fcb.html" target="_top" xlink:title="amcstubs">
<polygon fill="#a2b4d6" stroke="#404040" points="336.5,-98 277.5,-98 277.5,-79 336.5,-79 336.5,-98"/>
<text text-anchor="middle" x="307" y="-86" font-family="Helvetica,sans-Serif" font-size="10.00">amcstubs</text>
</a>
</g>
</g>
<!-- dir_b778c3f297ab88300258a2935792c8cc&#45;&gt;dir_90cb8ad8b5d23ff836273423134b4fcb -->
<g id="edge3" class="edge">
<title>dir_b778c3f297ab88300258a2935792c8cc&#45;&gt;dir_90cb8ad8b5d23ff836273423134b4fcb</title>
<path fill="none" stroke="#63b8ff" d="M410.51,-134.1C391.07,-125.72 360.89,-112.72 338.13,-102.91"/>
<polygon fill="#63b8ff" stroke="#63b8ff" points="339.59,-99.73 329.02,-98.99 336.82,-106.16 339.59,-99.73"/>
<g id="a_edge3&#45;headlabel"><a xlink:href="dir_000783_000004.html" target="_top" xlink:title="1">
<text text-anchor="middle" x="342.62" y="-95.45" font-family="Helvetica,sans-Serif" font-size="10.00" fill="#63b8ff">1</text>
</a>
</g>
</g>
<!-- dir_a77b964d850efb05d208e24b02ac9b71 -->
<g id="node8" class="node">
<title>dir_a77b964d850efb05d208e24b02ac9b71</title>
<g id="a_node8"><a xlink:href="dir_a77b964d850efb05d208e24b02ac9b71.html" target="_top" xlink:title="gd">
<polygon fill="#a2b4d6" stroke="#404040" points="383.5,-98 354.5,-98 354.5,-79 383.5,-79 383.5,-98"/>
<text text-anchor="middle" x="369" y="-86" font-family="Helvetica,sans-Serif" font-size="10.00">gd</text>
</a>
</g>
</g>
<!-- dir_b778c3f297ab88300258a2935792c8cc&#45;&gt;dir_a77b964d850efb05d208e24b02ac9b71 -->
<g id="edge4" class="edge">
<title>dir_b778c3f297ab88300258a2935792c8cc&#45;&gt;dir_a77b964d850efb05d208e24b02ac9b71</title>
<path fill="none" stroke="#63b8ff" d="M420.47,-134.22C411.67,-126.58 398.37,-115.02 387.49,-105.56"/>
<polygon fill="#63b8ff" stroke="#63b8ff" points="390.06,-103.16 380.22,-99.24 385.47,-108.45 390.06,-103.16"/>
<g id="a_edge4&#45;headlabel"><a xlink:href="dir_000783_000820.html" target="_top" xlink:title="2">
<text text-anchor="middle" x="393.49" y="-99.88" font-family="Helvetica,sans-Serif" font-size="10.00" fill="#63b8ff">2</text>
</a>
</g>
</g>
<!-- dir_0a946831413905238e39a80608042579 -->
<g id="node10" class="node">
<title>dir_0a946831413905238e39a80608042579</title>
<g id="a_node10"><a xlink:href="dir_0a946831413905238e39a80608042579.html" target="_top" xlink:title="gx">
<polygon fill="#a2b4d6" stroke="#404040" points="206.5,-98 177.5,-98 177.5,-79 206.5,-79 206.5,-98"/>
<text text-anchor="middle" x="192" y="-86" font-family="Helvetica,sans-Serif" font-size="10.00">gx</text>
</a>
</g>
</g>
<!-- dir_b778c3f297ab88300258a2935792c8cc&#45;&gt;dir_0a946831413905238e39a80608042579 -->
<g id="edge1" class="edge">
<title>dir_b778c3f297ab88300258a2935792c8cc&#45;&gt;dir_0a946831413905238e39a80608042579</title>
<path fill="none" stroke="#63b8ff" d="M406.6,-136.3C403.38,-135.5 400.11,-134.71 397,-134 320.47,-116.55 297.08,-119.45 217.89,-98.16"/>
<polygon fill="#63b8ff" stroke="#63b8ff" points="218.9,-94.81 208.33,-95.54 217.05,-101.56 218.9,-94.81"/>
<g id="a_edge1&#45;headlabel"><a xlink:href="dir_000783_000826.html" target="_top" xlink:title="16">
<text text-anchor="middle" x="221.66" y="-90.12" font-family="Helvetica,sans-Serif" font-size="10.00" fill="#63b8ff">16</text>
</a>
</g>
</g>
<!-- dir_c18583810381222ac4660cab2f94c87b -->
<g id="node11" class="node">
<title>dir_c18583810381222ac4660cab2f94c87b</title>
<g id="a_node11"><a xlink:href="dir_c18583810381222ac4660cab2f94c87b.html" target="_top" xlink:title="mtx">
<polygon fill="#a2b4d6" stroke="#404040" points="434,-98 402,-98 402,-79 434,-79 434,-98"/>
<text text-anchor="middle" x="418" y="-86" font-family="Helvetica,sans-Serif" font-size="10.00">mtx</text>
</a>
</g>
</g>
<!-- dir_b778c3f297ab88300258a2935792c8cc&#45;&gt;dir_c18583810381222ac4660cab2f94c87b -->
<g id="edge5" class="edge">
<title>dir_b778c3f297ab88300258a2935792c8cc&#45;&gt;dir_c18583810381222ac4660cab2f94c87b</title>
<path fill="none" stroke="#63b8ff" d="M428.12,-134.22C426.62,-127.57 424.44,-117.96 422.49,-109.34"/>
<polygon fill="#63b8ff" stroke="#63b8ff" points="425.94,-108.71 420.32,-99.73 419.11,-110.25 425.94,-108.71"/>
<g id="a_edge5&#45;headlabel"><a xlink:href="dir_000783_001288.html" target="_top" xlink:title="3">
<text text-anchor="middle" x="429.17" y="-107.61" font-family="Helvetica,sans-Serif" font-size="10.00" fill="#63b8ff">3</text>
</a>
</g>
</g>
<!-- dir_cae10961887f0d641c054afc85dac474 -->
<g id="node13" class="node">
<title>dir_cae10961887f0d641c054afc85dac474</title>
<g id="a_node13"><a xlink:href="dir_cae10961887f0d641c054afc85dac474.html" target="_top" xlink:title="os">
<polygon fill="#a2b4d6" stroke="#404040" points="231.5,-43 202.5,-43 202.5,-24 231.5,-24 231.5,-43"/>
<text text-anchor="middle" x="217" y="-31" font-family="Helvetica,sans-Serif" font-size="10.00">os</text>
</a>
</g>
</g>
<!-- dir_b778c3f297ab88300258a2935792c8cc&#45;&gt;dir_cae10961887f0d641c054afc85dac474 -->
<g id="edge6" class="edge">
<title>dir_b778c3f297ab88300258a2935792c8cc&#45;&gt;dir_cae10961887f0d641c054afc85dac474</title>
<path fill="none" stroke="#63b8ff" d="M435.63,-134.05C443.68,-120.8 456.15,-94.99 443,-79 417.9,-48.48 296.89,-38.56 242.99,-35.63"/>
<polygon fill="#63b8ff" stroke="#63b8ff" points="243.37,-32.14 233.21,-35.14 243.02,-39.13 243.37,-32.14"/>
<g id="a_edge6&#45;headlabel"><a xlink:href="dir_000783_001297.html" target="_top" xlink:title="28">
<text text-anchor="middle" x="245.59" y="-26.91" font-family="Helvetica,sans-Serif" font-size="10.00" fill="#63b8ff">28</text>
</a>
</g>
</g>
<!-- dir_6719ab1f1f7655efc2fa43f7eb574fd1 -->
<g id="node16" class="node">
<title>dir_6719ab1f1f7655efc2fa43f7eb574fd1</title>
<g id="a_node16"><a xlink:href="dir_6719ab1f1f7655efc2fa43f7eb574fd1.html" target="_top" xlink:title="libs">
<polygon fill="#edf0f7" stroke="red" points="510,-98 478,-98 478,-79 510,-79 510,-98"/>
<text text-anchor="middle" x="494" y="-86" font-family="Helvetica,sans-Serif" font-size="10.00">libs</text>
</a>
</g>
</g>
<!-- dir_b778c3f297ab88300258a2935792c8cc&#45;&gt;dir_6719ab1f1f7655efc2fa43f7eb574fd1 -->
<g id="edge2" class="edge">
<title>dir_b778c3f297ab88300258a2935792c8cc&#45;&gt;dir_6719ab1f1f7655efc2fa43f7eb574fd1</title>
<path fill="none" stroke="#63b8ff" d="M440,-134.22C449.23,-126.58 463.19,-115.02 474.6,-105.56"/>
<polygon fill="#63b8ff" stroke="#63b8ff" points="476.8,-108.29 482.27,-99.22 472.33,-102.9 476.8,-108.29"/>
<g id="a_edge2&#45;headlabel"><a xlink:href="dir_000783_001264.html" target="_top" xlink:title="2">
<text text-anchor="middle" x="477" y="-109.31" font-family="Helvetica,sans-Serif" font-size="10.00" fill="#63b8ff">2</text>
</a>
</g>
</g>
<!-- dir_79a1ec55bd3d63dbffc944250452287c -->
<g id="node3" class="node">
<title>dir_79a1ec55bd3d63dbffc944250452287c</title>
<g id="a_node3"><a xlink:href="dir_79a1ec55bd3d63dbffc944250452287c.html" target="_top" xlink:title="base">
<polygon fill="#a2b4d6" stroke="#404040" points="388,-153 350,-153 350,-134 388,-134 388,-153"/>
<text text-anchor="middle" x="369" y="-141" font-family="Helvetica,sans-Serif" font-size="10.00">base</text>
</a>
</g>
</g>
<!-- dir_0ef040c2f93dc84452aa976ac860f1af -->
<g id="node4" class="node">
<title>dir_0ef040c2f93dc84452aa976ac860f1af</title>
<g id="a_node4"><a xlink:href="dir_0ef040c2f93dc84452aa976ac860f1af.html" target="_top" xlink:title="card">
<polygon fill="#a2b4d6" stroke="#404040" points="259.5,-98 224.5,-98 224.5,-79 259.5,-79 259.5,-98"/>
<text text-anchor="middle" x="242" y="-86" font-family="Helvetica,sans-Serif" font-size="10.00">card</text>
</a>
</g>
</g>
<!-- dir_0ef040c2f93dc84452aa976ac860f1af&#45;&gt;dir_cae10961887f0d641c054afc85dac474 -->
<g id="edge7" class="edge">
<title>dir_0ef040c2f93dc84452aa976ac860f1af&#45;&gt;dir_cae10961887f0d641c054afc85dac474</title>
<path fill="none" stroke="#63b8ff" d="M237.87,-78.75C234.67,-71.96 230.11,-62.3 226.07,-53.73"/>
<polygon fill="#63b8ff" stroke="#63b8ff" points="229.3,-52.36 221.86,-44.81 222.96,-55.35 229.3,-52.36"/>
<g id="a_edge7&#45;headlabel"><a xlink:href="dir_000014_001297.html" target="_top" xlink:title="2">
<text text-anchor="middle" x="232.75" y="-50.53" font-family="Helvetica,sans-Serif" font-size="10.00" fill="#63b8ff">2</text>
</a>
</g>
</g>
<!-- dir_09cbebe37d76dbc976deecd2ab12d8d9 -->
<g id="node5" class="node">
<title>dir_09cbebe37d76dbc976deecd2ab12d8d9</title>
<g id="a_node5"><a xlink:href="dir_09cbebe37d76dbc976deecd2ab12d8d9.html" target="_top" xlink:title="dsp">
<polygon fill="#a2b4d6" stroke="#404040" points="332,-153 300,-153 300,-134 332,-134 332,-153"/>
<text text-anchor="middle" x="316" y="-141" font-family="Helvetica,sans-Serif" font-size="10.00">dsp</text>
</a>
</g>
</g>
<!-- dir_29bcf741baa82324f70900332eca16cc -->
<g id="node6" class="node">
<title>dir_29bcf741baa82324f70900332eca16cc</title>
<g id="a_node6"><a xlink:href="dir_29bcf741baa82324f70900332eca16cc.html" target="_top" xlink:title="dvd">
<polygon fill="#a2b4d6" stroke="#404040" points="282,-153 250,-153 250,-134 282,-134 282,-153"/>
<text text-anchor="middle" x="266" y="-141" font-family="Helvetica,sans-Serif" font-size="10.00">dvd</text>
</a>
</g>
</g>
<!-- dir_6f6beed2686d731e2bd60d8768419109 -->
<g id="node7" class="node">
<title>dir_6f6beed2686d731e2bd60d8768419109</title>
<g id="a_node7"><a xlink:href="dir_6f6beed2686d731e2bd60d8768419109.html" target="_top" xlink:title="exi">
<polygon fill="#a2b4d6" stroke="#404040" points="231.5,-153 202.5,-153 202.5,-134 231.5,-134 231.5,-153"/>
<text text-anchor="middle" x="217" y="-141" font-family="Helvetica,sans-Serif" font-size="10.00">exi</text>
</a>
</g>
</g>
<!-- dir_da4e8bf8a3e0570034fe2e3a47ee8420 -->
<g id="node9" class="node">
<title>dir_da4e8bf8a3e0570034fe2e3a47ee8420</title>
<g id="a_node9"><a xlink:href="dir_da4e8bf8a3e0570034fe2e3a47ee8420.html" target="_top" xlink:title="gf">
<polygon fill="#a2b4d6" stroke="#404040" points="184.5,-153 155.5,-153 155.5,-134 184.5,-134 184.5,-153"/>
<text text-anchor="middle" x="170" y="-141" font-family="Helvetica,sans-Serif" font-size="10.00">gf</text>
</a>
</g>
</g>
<!-- dir_da4e8bf8a3e0570034fe2e3a47ee8420&#45;&gt;dir_0a946831413905238e39a80608042579 -->
<g id="edge8" class="edge">
<title>dir_da4e8bf8a3e0570034fe2e3a47ee8420&#45;&gt;dir_0a946831413905238e39a80608042579</title>
<path fill="none" stroke="#63b8ff" d="M173.63,-133.75C176.42,-127.04 180.37,-117.52 183.9,-109.02"/>
<polygon fill="#63b8ff" stroke="#63b8ff" points="187.11,-110.42 187.71,-99.84 180.64,-107.73 187.11,-110.42"/>
<g id="a_edge8&#45;headlabel"><a xlink:href="dir_000824_000826.html" target="_top" xlink:title="2">
<text text-anchor="middle" x="188.93" y="-110.93" font-family="Helvetica,sans-Serif" font-size="10.00" fill="#63b8ff">2</text>
</a>
</g>
</g>
<!-- dir_0a946831413905238e39a80608042579&#45;&gt;dir_cae10961887f0d641c054afc85dac474 -->
<g id="edge9" class="edge">
<title>dir_0a946831413905238e39a80608042579&#45;&gt;dir_cae10961887f0d641c054afc85dac474</title>
<path fill="none" stroke="#63b8ff" d="M196.13,-78.75C199.33,-71.96 203.89,-62.3 207.93,-53.73"/>
<polygon fill="#63b8ff" stroke="#63b8ff" points="211.04,-55.35 212.14,-44.81 204.7,-52.36 211.04,-55.35"/>
<g id="a_edge9&#45;headlabel"><a xlink:href="dir_000826_001297.html" target="_top" xlink:title="1">
<text text-anchor="middle" x="212.72" y="-55.94" font-family="Helvetica,sans-Serif" font-size="10.00" fill="#63b8ff">1</text>
</a>
</g>
</g>
<!-- dir_465e5d8dfd3a7b82fb9f4125c1b58933 -->
<g id="node12" class="node">
<title>dir_465e5d8dfd3a7b82fb9f4125c1b58933</title>
<g id="a_node12"><a xlink:href="dir_465e5d8dfd3a7b82fb9f4125c1b58933.html" target="_top" xlink:title="odemuexi2">
<polygon fill="#a2b4d6" stroke="#404040" points="137.5,-153 74.5,-153 74.5,-134 137.5,-134 137.5,-153"/>
<text text-anchor="middle" x="106" y="-141" font-family="Helvetica,sans-Serif" font-size="10.00">odemuexi2</text>
</a>
</g>
</g>
<!-- dir_80850d49484b7deac3e56f29f2c142bb -->
<g id="node14" class="node">
<title>dir_80850d49484b7deac3e56f29f2c142bb</title>
<g id="a_node14"><a xlink:href="dir_80850d49484b7deac3e56f29f2c142bb.html" target="_top" xlink:title="pad">
<polygon fill="#a2b4d6" stroke="#404040" points="56,-153 24,-153 24,-134 56,-134 56,-153"/>
<text text-anchor="middle" x="40" y="-141" font-family="Helvetica,sans-Serif" font-size="10.00">pad</text>
</a>
</g>
</g>
<!-- dir_b02b9d991b880b57acc1b523a1a5973b -->
<g id="node15" class="node">
<title>dir_b02b9d991b880b57acc1b523a1a5973b</title>
<g id="a_node15"><a xlink:href="dir_b02b9d991b880b57acc1b523a1a5973b.html" target="_top" xlink:title="si">
<polygon fill="#a2b4d6" stroke="#404040" points="159.5,-98 130.5,-98 130.5,-79 159.5,-79 159.5,-98"/>
<text text-anchor="middle" x="145" y="-86" font-family="Helvetica,sans-Serif" font-size="10.00">si</text>
</a>
</g>
</g>
<!-- dir_b02b9d991b880b57acc1b523a1a5973b&#45;&gt;dir_cae10961887f0d641c054afc85dac474 -->
<g id="edge10" class="edge">
<title>dir_b02b9d991b880b57acc1b523a1a5973b&#45;&gt;dir_cae10961887f0d641c054afc85dac474</title>
<path fill="none" stroke="#63b8ff" d="M157.21,-78.51C167.83,-70.7 183.44,-59.21 196.04,-49.93"/>
<polygon fill="#63b8ff" stroke="#63b8ff" points="197.77,-53 203.75,-44.26 193.62,-47.36 197.77,-53"/>
<g id="a_edge10&#45;headlabel"><a xlink:href="dir_001712_001297.html" target="_top" xlink:title="2">
<text text-anchor="middle" x="197.78" y="-54.02" font-family="Helvetica,sans-Serif" font-size="10.00" fill="#63b8ff">2</text>
</a>
</g>
</g>
</g>
</svg>
