<?xml version="1.0" encoding="UTF-8" standalone="no"?>
<!DOCTYPE svg PUBLIC "-//W3C//DTD SVG 1.1//EN"
 "http://www.w3.org/Graphics/SVG/1.1/DTD/svg11.dtd">
<!-- Generated by graphviz version 7.0.5 (20221223.1930)
 -->
<!-- Title: include Pages: 1 -->
<!--zoomable 483 -->
<svg id="main" version="1.1" xmlns="http://www.w3.org/2000/svg" xmlns:xlink="http://www.w3.org/1999/xlink" xml:space="preserve" onload="init(evt)">
<style type="text/css"><![CDATA[
.edge:hover path { stroke: red; }
.edge:hover polygon { stroke: red; fill: red; }
]]></style>
<script type="text/javascript"><![CDATA[
var edges = document.getElementsByTagName('g');
if (edges && edges.length) {
  for (var i=0;i<edges.length;i++) {
    if (edges[i].id.substr(0,4)=='edge') {
      edges[i].setAttribute('class','edge');
    }
  }
}
]]></script>
        <defs>
                <circle id="rim" cx="0" cy="0" r="7"/>
                <circle id="rim2" cx="0" cy="0" r="3.5"/>
                <g id="zoomPlus">
                        <use xlink:href="#rim" fill="#404040">
                                <set attributeName="fill" to="#808080" begin="zoomplus.mouseover" end="zoomplus.mouseout"/>
                        </use>
                        <path d="M-4,0h8M0,-4v8" fill="none" stroke="white" stroke-width="1.5" pointer-events="none"/>
                </g>
                <g id="zoomMin">
                        <use xlink:href="#rim" fill="#404040">
                                <set attributeName="fill" to="#808080" begin="zoomminus.mouseover" end="zoomminus.mouseout"/>
                        </use>
                        <path d="M-4,0h8" fill="none" stroke="white" stroke-width="1.5" pointer-events="none"/>
                </g>
                <g id="dirArrow">
                        <path fill="none" stroke="white" stroke-width="1.5" d="M0,-3.0v7 M-2.5,-0.5L0,-3.0L2.5,-0.5"/>
                </g>
               <g id="resetDef">
                       <use xlink:href="#rim2" fill="#404040">
                               <set attributeName="fill" to="#808080" begin="reset.mouseover" end="reset.mouseout"/>
                       </use>
               </g>
        </defs>

<script type="text/javascript">
var viewWidth = 561;
var viewHeight = 483;
var sectionId = 'dynsection-0';
</script>
<script xlink:href="svgpan.js"/>
<svg id="graph" class="graph">
<g id="viewport">
<title>include</title>
<g id="clust1" class="cluster">
<title>clusterdir_d44c64559bbebec7f509842c48db8b23</title>
<g id="a_clust1"><a xlink:href="dir_d44c64559bbebec7f509842c48db8b23.html" target="_top">
<polygon fill="#edf0f7" stroke="#404040" stroke-width="2" points="8,-47 8,-467 457,-467 457,-47 8,-47"/>
</a>
</g>
</g>
<!-- dir_d44c64559bbebec7f509842c48db8b23 -->
<g id="node1" class="node">
<title>dir_d44c64559bbebec7f509842c48db8b23</title>
<text text-anchor="middle" x="180" y="-117" font-family="Helvetica,sans-Serif" font-size="10.00">include</text>
</g>
<!-- dir_b778c3f297ab88300258a2935792c8cc -->
<g id="node4" class="node">
<title>dir_b778c3f297ab88300258a2935792c8cc</title>
<g id="a_node4"><a xlink:href="dir_b778c3f297ab88300258a2935792c8cc.html" target="_top" xlink:title="dolphin">
<polygon fill="#a2b4d6" stroke="#404040" points="150.5,-74 103.5,-74 103.5,-55 150.5,-55 150.5,-74"/>
<text text-anchor="middle" x="127" y="-62" font-family="Helvetica,sans-Serif" font-size="10.00">dolphin</text>
</a>
</g>
</g>
<!-- dir_d44c64559bbebec7f509842c48db8b23&#45;&gt;dir_b778c3f297ab88300258a2935792c8cc -->
<g id="edge1" class="edge">
<title>dir_d44c64559bbebec7f509842c48db8b23&#45;&gt;dir_b778c3f297ab88300258a2935792c8cc</title>
<path fill="none" stroke="#63b8ff" d="M171.72,-110.22C164.23,-102.73 152.98,-91.48 143.63,-82.13"/>
<polygon fill="#63b8ff" stroke="#63b8ff" points="146.37,-79.92 136.82,-75.32 141.42,-84.87 146.37,-79.92"/>
<g id="a_edge1&#45;headlabel"><a xlink:href="dir_000829_000783.html" target="_top" xlink:title="888">
<text text-anchor="middle" x="149.85" y="-76.88" font-family="Helvetica,sans-Serif" font-size="10.00" fill="#63b8ff">888</text>
</a>
</g>
</g>
<!-- dir_f0bbaeb96b1b216779501c980a5af6c6 -->
<g id="node2" class="node">
<title>dir_f0bbaeb96b1b216779501c980a5af6c6</title>
<g id="a_node2"><a xlink:href="dir_f0bbaeb96b1b216779501c980a5af6c6.html" target="_top" xlink:title="c">
<polygon fill="#a2b4d6" stroke="#404040" points="131.5,-349 102.5,-349 102.5,-330 131.5,-330 131.5,-349"/>
<text text-anchor="middle" x="117" y="-337" font-family="Helvetica,sans-Serif" font-size="10.00">c</text>
</a>
</g>
</g>
<!-- dir_fbb29e8cafd745cbb7106b56de6b5377 -->
<g id="node6" class="node">
<title>dir_fbb29e8cafd745cbb7106b56de6b5377</title>
<g id="a_node6"><a xlink:href="dir_fbb29e8cafd745cbb7106b56de6b5377.html" target="_top" xlink:title="f_op">
<polygon fill="#a2b4d6" stroke="#404040" points="151.5,-294 116.5,-294 116.5,-275 151.5,-275 151.5,-294"/>
<text text-anchor="middle" x="134" y="-282" font-family="Helvetica,sans-Serif" font-size="10.00">f_op</text>
</a>
</g>
</g>
<!-- dir_f0bbaeb96b1b216779501c980a5af6c6&#45;&gt;dir_fbb29e8cafd745cbb7106b56de6b5377 -->
<g id="edge3" class="edge">
<title>dir_f0bbaeb96b1b216779501c980a5af6c6&#45;&gt;dir_fbb29e8cafd745cbb7106b56de6b5377</title>
<path fill="none" stroke="#63b8ff" d="M119.81,-329.75C121.94,-323.11 124.94,-313.73 127.64,-305.31"/>
<polygon fill="#63b8ff" stroke="#63b8ff" points="130.95,-306.47 130.67,-295.88 124.28,-304.34 130.95,-306.47"/>
<g id="a_edge3&#45;headlabel"><a xlink:href="dir_000012_000808.html" target="_top" xlink:title="1">
<text text-anchor="middle" x="133.02" y="-306.82" font-family="Helvetica,sans-Serif" font-size="10.00" fill="#63b8ff">1</text>
</a>
</g>
</g>
<!-- dir_4f0979a7f5e3194619cde56505e372d8 -->
<g id="node8" class="node">
<title>dir_4f0979a7f5e3194619cde56505e372d8</title>
<g id="a_node8"><a xlink:href="dir_4f0979a7f5e3194619cde56505e372d8.html" target="_top" xlink:title="JSystem">
<polygon fill="#a2b4d6" stroke="#404040" points="276.5,-129 221.5,-129 221.5,-110 276.5,-110 276.5,-129"/>
<text text-anchor="middle" x="249" y="-117" font-family="Helvetica,sans-Serif" font-size="10.00">JSystem</text>
</a>
</g>
</g>
<!-- dir_f0bbaeb96b1b216779501c980a5af6c6&#45;&gt;dir_4f0979a7f5e3194619cde56505e372d8 -->
<g id="edge2" class="edge">
<title>dir_f0bbaeb96b1b216779501c980a5af6c6&#45;&gt;dir_4f0979a7f5e3194619cde56505e372d8</title>
<path fill="none" stroke="#63b8ff" d="M110.85,-329.67C97.46,-309.29 68.4,-257.79 88,-220 112.62,-172.51 171.05,-145.18 210.32,-131.58"/>
<polygon fill="#63b8ff" stroke="#63b8ff" points="211.25,-134.95 219.65,-128.49 209.06,-128.3 211.25,-134.95"/>
<g id="a_edge2&#45;headlabel"><a xlink:href="dir_000012_000872.html" target="_top" xlink:title="1">
<text text-anchor="middle" x="210.17" y="-135.8" font-family="Helvetica,sans-Serif" font-size="10.00" fill="#63b8ff">1</text>
</a>
</g>
</g>
<!-- dir_cc3ad1aed4be3f446fdd7af78322f5bf -->
<g id="node3" class="node">
<title>dir_cc3ad1aed4be3f446fdd7af78322f5bf</title>
<g id="a_node3"><a xlink:href="dir_cc3ad1aed4be3f446fdd7af78322f5bf.html" target="_top" xlink:title="d">
<polygon fill="#a2b4d6" stroke="#404040" points="225.5,-404 196.5,-404 196.5,-385 225.5,-385 225.5,-404"/>
<text text-anchor="middle" x="211" y="-392" font-family="Helvetica,sans-Serif" font-size="10.00">d</text>
</a>
</g>
</g>
<!-- dir_cc3ad1aed4be3f446fdd7af78322f5bf&#45;&gt;dir_b778c3f297ab88300258a2935792c8cc -->
<g id="edge10" class="edge">
<title>dir_cc3ad1aed4be3f446fdd7af78322f5bf&#45;&gt;dir_b778c3f297ab88300258a2935792c8cc</title>
<path fill="none" stroke="#63b8ff" d="M196.16,-391.52C154.09,-385.01 37,-360.16 37,-285.5 37,-285.5 37,-285.5 37,-173.5 37,-132.6 75.57,-98.96 102.21,-80.61"/>
<polygon fill="#63b8ff" stroke="#63b8ff" points="104.04,-83.6 110.47,-75.17 100.19,-77.75 104.04,-83.6"/>
<g id="a_edge10&#45;headlabel"><a xlink:href="dir_000022_000783.html" target="_top" xlink:title="49">
<text text-anchor="middle" x="103.86" y="-84.61" font-family="Helvetica,sans-Serif" font-size="10.00" fill="#63b8ff">49</text>
</a>
</g>
</g>
<!-- dir_cc3ad1aed4be3f446fdd7af78322f5bf&#45;&gt;dir_fbb29e8cafd745cbb7106b56de6b5377 -->
<g id="edge12" class="edge">
<title>dir_cc3ad1aed4be3f446fdd7af78322f5bf&#45;&gt;dir_fbb29e8cafd745cbb7106b56de6b5377</title>
<path fill="none" stroke="#63b8ff" d="M196.1,-386.63C183.84,-378.43 167.86,-363.93 157,-349 147.09,-335.38 138.66,-318.25 134.3,-305.21"/>
<polygon fill="#63b8ff" stroke="#63b8ff" points="137.73,-304.49 131.84,-295.68 130.95,-306.24 137.73,-304.49"/>
<g id="a_edge12&#45;headlabel"><a xlink:href="dir_000022_000808.html" target="_top" xlink:title="31">
<text text-anchor="middle" x="141" y="-303.29" font-family="Helvetica,sans-Serif" font-size="10.00" fill="#63b8ff">31</text>
</a>
</g>
</g>
<!-- dir_14c28d3bb977da9b21a3aa2d366ba228 -->
<g id="node7" class="node">
<title>dir_14c28d3bb977da9b21a3aa2d366ba228</title>
<g id="a_node7"><a xlink:href="dir_14c28d3bb977da9b21a3aa2d366ba228.html" target="_top" xlink:title="f_pc">
<polygon fill="#a2b4d6" stroke="#404040" points="131.5,-239 96.5,-239 96.5,-220 131.5,-220 131.5,-239"/>
<text text-anchor="middle" x="114" y="-227" font-family="Helvetica,sans-Serif" font-size="10.00">f_pc</text>
</a>
</g>
</g>
<!-- dir_cc3ad1aed4be3f446fdd7af78322f5bf&#45;&gt;dir_14c28d3bb977da9b21a3aa2d366ba228 -->
<g id="edge4" class="edge">
<title>dir_cc3ad1aed4be3f446fdd7af78322f5bf&#45;&gt;dir_14c28d3bb977da9b21a3aa2d366ba228</title>
<path fill="none" stroke="#63b8ff" d="M196.35,-392.93C170.53,-391.04 117.44,-382.99 94,-349 73.25,-318.91 90.26,-274.52 103.07,-249.48"/>
<polygon fill="#63b8ff" stroke="#63b8ff" points="106.09,-251.25 107.79,-240.79 99.94,-247.91 106.09,-251.25"/>
<g id="a_edge4&#45;headlabel"><a xlink:href="dir_000022_000810.html" target="_top" xlink:title="1">
<text text-anchor="middle" x="107.6" y="-251.93" font-family="Helvetica,sans-Serif" font-size="10.00" fill="#63b8ff">1</text>
</a>
</g>
</g>
<!-- dir_cc3ad1aed4be3f446fdd7af78322f5bf&#45;&gt;dir_4f0979a7f5e3194619cde56505e372d8 -->
<g id="edge5" class="edge">
<title>dir_cc3ad1aed4be3f446fdd7af78322f5bf&#45;&gt;dir_4f0979a7f5e3194619cde56505e372d8</title>
<path fill="none" stroke="#63b8ff" d="M205.27,-384.67C194.21,-366.74 171,-324.49 171,-285.5 171,-285.5 171,-285.5 171,-228.5 171,-189.67 204.54,-155.33 227.63,-136.28"/>
<polygon fill="#63b8ff" stroke="#63b8ff" points="229.6,-139.19 235.28,-130.25 225.26,-133.69 229.6,-139.19"/>
<g id="a_edge5&#45;headlabel"><a xlink:href="dir_000022_000872.html" target="_top" xlink:title="26">
<text text-anchor="middle" x="229.72" y="-140.21" font-family="Helvetica,sans-Serif" font-size="10.00" fill="#63b8ff">26</text>
</a>
</g>
</g>
<!-- dir_6bdfff2c28f90f381b6da5bee088878b -->
<g id="node9" class="node">
<title>dir_6bdfff2c28f90f381b6da5bee088878b</title>
<g id="a_node9"><a xlink:href="dir_6bdfff2c28f90f381b6da5bee088878b.html" target="_top" xlink:title="m_Do">
<polygon fill="#a2b4d6" stroke="#404040" points="232,-294 190,-294 190,-275 232,-275 232,-294"/>
<text text-anchor="middle" x="211" y="-282" font-family="Helvetica,sans-Serif" font-size="10.00">m_Do</text>
</a>
</g>
</g>
<!-- dir_cc3ad1aed4be3f446fdd7af78322f5bf&#45;&gt;dir_6bdfff2c28f90f381b6da5bee088878b -->
<g id="edge8" class="edge">
<title>dir_cc3ad1aed4be3f446fdd7af78322f5bf&#45;&gt;dir_6bdfff2c28f90f381b6da5bee088878b</title>
<path fill="none" stroke="#63b8ff" d="M211,-384.66C211,-367.57 211,-329.61 211,-305.92"/>
<polygon fill="#63b8ff" stroke="#63b8ff" points="214.5,-305.97 211,-295.97 207.5,-305.97 214.5,-305.97"/>
<g id="a_edge8&#45;headlabel"><a xlink:href="dir_000022_001265.html" target="_top" xlink:title="8">
<text text-anchor="middle" x="217.34" y="-305.55" font-family="Helvetica,sans-Serif" font-size="10.00" fill="#63b8ff">8</text>
</a>
</g>
</g>
<!-- dir_d1e95842203b094e4f127fa85baf24b5 -->
<g id="node11" class="node">
<title>dir_d1e95842203b094e4f127fa85baf24b5</title>
<g id="a_node11"><a xlink:href="dir_d1e95842203b094e4f127fa85baf24b5.html" target="_top" xlink:title="rel">
<polygon fill="#a2b4d6" stroke="#404040" points="299.5,-349 270.5,-349 270.5,-330 299.5,-330 299.5,-349"/>
<text text-anchor="middle" x="285" y="-337" font-family="Helvetica,sans-Serif" font-size="10.00">rel</text>
</a>
</g>
</g>
<!-- dir_cc3ad1aed4be3f446fdd7af78322f5bf&#45;&gt;dir_d1e95842203b094e4f127fa85baf24b5 -->
<g id="edge11" class="edge">
<title>dir_cc3ad1aed4be3f446fdd7af78322f5bf&#45;&gt;dir_d1e95842203b094e4f127fa85baf24b5</title>
<path fill="none" stroke="#63b8ff" d="M218.34,-384.51C228.36,-376.06 245.91,-363.32 260.61,-353.72"/>
<polygon fill="#63b8ff" stroke="#63b8ff" points="262.34,-356.77 268.93,-348.47 258.6,-350.85 262.34,-356.77"/>
<g id="a_edge11&#45;headlabel"><a xlink:href="dir_000022_001315.html" target="_top" xlink:title="3">
<text text-anchor="middle" x="262.1" y="-357.78" font-family="Helvetica,sans-Serif" font-size="10.00" fill="#63b8ff">3</text>
</a>
</g>
</g>
<!-- dir_54283da8a0cf1311a88c964d76512876 -->
<g id="node12" class="node">
<title>dir_54283da8a0cf1311a88c964d76512876</title>
<g id="a_node12"><a xlink:href="dir_54283da8a0cf1311a88c964d76512876.html" target="_top" xlink:title="SSystem">
<polygon fill="#a2b4d6" stroke="#404040" points="286,-184 230,-184 230,-165 286,-165 286,-184"/>
<text text-anchor="middle" x="258" y="-172" font-family="Helvetica,sans-Serif" font-size="10.00">SSystem</text>
</a>
</g>
</g>
<!-- dir_cc3ad1aed4be3f446fdd7af78322f5bf&#45;&gt;dir_54283da8a0cf1311a88c964d76512876 -->
<g id="edge6" class="edge">
<title>dir_cc3ad1aed4be3f446fdd7af78322f5bf&#45;&gt;dir_54283da8a0cf1311a88c964d76512876</title>
<path fill="none" stroke="#63b8ff" d="M225.9,-390.74C247.35,-385.99 286.77,-374.24 309,-349 325.91,-329.8 320.81,-319.05 326,-294 332.69,-261.69 348.24,-248.72 332,-220 324.18,-206.17 310.15,-196.16 296.39,-189.19"/>
<polygon fill="#63b8ff" stroke="#63b8ff" points="297.96,-186.05 287.41,-185.06 295.04,-192.41 297.96,-186.05"/>
<g id="a_edge6&#45;headlabel"><a xlink:href="dir_000022_001723.html" target="_top" xlink:title="52">
<text text-anchor="middle" x="301.04" y="-181.84" font-family="Helvetica,sans-Serif" font-size="10.00" fill="#63b8ff">52</text>
</a>
</g>
</g>
<!-- dir_81939fb769658ab66ba54ec390580a1a -->
<g id="node15" class="node">
<title>dir_81939fb769658ab66ba54ec390580a1a</title>
<g id="a_node15"><a xlink:href="dir_81939fb769658ab66ba54ec390580a1a.html" target="_top" xlink:title="Z2AudioLib">
<polygon fill="#a2b4d6" stroke="#404040" points="316,-239 250,-239 250,-220 316,-220 316,-239"/>
<text text-anchor="middle" x="283" y="-227" font-family="Helvetica,sans-Serif" font-size="10.00">Z2AudioLib</text>
</a>
</g>
</g>
<!-- dir_cc3ad1aed4be3f446fdd7af78322f5bf&#45;&gt;dir_81939fb769658ab66ba54ec390580a1a -->
<g id="edge9" class="edge">
<title>dir_cc3ad1aed4be3f446fdd7af78322f5bf&#45;&gt;dir_81939fb769658ab66ba54ec390580a1a</title>
<path fill="none" stroke="#63b8ff" d="M214.87,-384.74C226.1,-359.31 258.89,-285.08 274.52,-249.69"/>
<polygon fill="#63b8ff" stroke="#63b8ff" points="277.66,-251.25 278.5,-240.69 271.26,-248.42 277.66,-251.25"/>
<g id="a_edge9&#45;headlabel"><a xlink:href="dir_000022_001732.html" target="_top" xlink:title="7">
<text text-anchor="middle" x="279.42" y="-251.8" font-family="Helvetica,sans-Serif" font-size="10.00" fill="#63b8ff">7</text>
</a>
</g>
</g>
<!-- dir_6719ab1f1f7655efc2fa43f7eb574fd1 -->
<g id="node16" class="node">
<title>dir_6719ab1f1f7655efc2fa43f7eb574fd1</title>
<g id="a_node16"><a xlink:href="dir_6719ab1f1f7655efc2fa43f7eb574fd1.html" target="_top" xlink:title="libs">
<polygon fill="#edf0f7" stroke="red" points="469,-19 437,-19 437,0 469,0 469,-19"/>
<text text-anchor="middle" x="453" y="-7" font-family="Helvetica,sans-Serif" font-size="10.00">libs</text>
</a>
</g>
</g>
<!-- dir_cc3ad1aed4be3f446fdd7af78322f5bf&#45;&gt;dir_6719ab1f1f7655efc2fa43f7eb574fd1 -->
<g id="edge7" class="edge">
<title>dir_cc3ad1aed4be3f446fdd7af78322f5bf&#45;&gt;dir_6719ab1f1f7655efc2fa43f7eb574fd1</title>
<path fill="none" stroke="#63b8ff" d="M225.7,-392.13C291.16,-385.62 553,-355.24 553,-285.5 553,-285.5 553,-285.5 553,-118.5 553,-74.84 508.46,-41.35 478.83,-23.91"/>
<polygon fill="#63b8ff" stroke="#63b8ff" points="480.82,-21.01 470.39,-19.15 477.38,-27.11 480.82,-21.01"/>
<g id="a_edge7&#45;headlabel"><a xlink:href="dir_000022_001264.html" target="_top" xlink:title="2">
<text text-anchor="middle" x="484.02" y="-17.05" font-family="Helvetica,sans-Serif" font-size="10.00" fill="#63b8ff">2</text>
</a>
</g>
</g>
<!-- dir_b778c3f297ab88300258a2935792c8cc&#45;&gt;dir_6719ab1f1f7655efc2fa43f7eb574fd1 -->
<g id="edge13" class="edge">
<title>dir_b778c3f297ab88300258a2935792c8cc&#45;&gt;dir_6719ab1f1f7655efc2fa43f7eb574fd1</title>
<path fill="none" stroke="#63b8ff" d="M150.97,-59.6C210.11,-49.99 362.7,-25.18 425.44,-14.98"/>
<polygon fill="#63b8ff" stroke="#63b8ff" points="425.93,-18.45 435.24,-13.39 424.81,-11.54 425.93,-18.45"/>
<g id="a_edge13&#45;headlabel"><a xlink:href="dir_000783_001264.html" target="_top" xlink:title="2">
<text text-anchor="middle" x="424.33" y="-19.08" font-family="Helvetica,sans-Serif" font-size="10.00" fill="#63b8ff">2</text>
</a>
</g>
</g>
<!-- dir_842110f85f767812b47b9e09c1085d00 -->
<g id="node5" class="node">
<title>dir_842110f85f767812b47b9e09c1085d00</title>
<g id="a_node5"><a xlink:href="dir_842110f85f767812b47b9e09c1085d00.html" target="_top" xlink:title="f_ap">
<polygon fill="#a2b4d6" stroke="#404040" points="399.5,-184 364.5,-184 364.5,-165 399.5,-165 399.5,-184"/>
<text text-anchor="middle" x="382" y="-172" font-family="Helvetica,sans-Serif" font-size="10.00">f_ap</text>
</a>
</g>
</g>
<!-- dir_842110f85f767812b47b9e09c1085d00&#45;&gt;dir_4f0979a7f5e3194619cde56505e372d8 -->
<g id="edge14" class="edge">
<title>dir_842110f85f767812b47b9e09c1085d00&#45;&gt;dir_4f0979a7f5e3194619cde56505e372d8</title>
<path fill="none" stroke="#63b8ff" d="M364.06,-166.35C343.09,-158 307.96,-143.99 282.02,-133.66"/>
<polygon fill="#63b8ff" stroke="#63b8ff" points="283.52,-130.49 272.94,-130.04 280.93,-136.99 283.52,-130.49"/>
<g id="a_edge14&#45;headlabel"><a xlink:href="dir_000806_000872.html" target="_top" xlink:title="1">
<text text-anchor="middle" x="286.51" y="-126.12" font-family="Helvetica,sans-Serif" font-size="10.00" fill="#63b8ff">1</text>
</a>
</g>
</g>
<!-- dir_fbb29e8cafd745cbb7106b56de6b5377&#45;&gt;dir_cc3ad1aed4be3f446fdd7af78322f5bf -->
<g id="edge18" class="edge">
<title>dir_fbb29e8cafd745cbb7106b56de6b5377&#45;&gt;dir_cc3ad1aed4be3f446fdd7af78322f5bf</title>
<path fill="none" stroke="#63b8ff" d="M143.2,-294.22C151.42,-306.94 161.93,-331.03 175,-349 182.25,-358.96 191.78,-368.73 199.45,-376.57"/>
<polygon fill="#63b8ff" stroke="#63b8ff" points="196.84,-378.91 206.29,-383.69 201.88,-374.06 196.84,-378.91"/>
<g id="a_edge18&#45;headlabel"><a xlink:href="dir_000808_000022.html" target="_top" xlink:title="5">
<text text-anchor="middle" x="193.35" y="-376.88" font-family="Helvetica,sans-Serif" font-size="10.00" fill="#63b8ff">5</text>
</a>
</g>
</g>
<!-- dir_fbb29e8cafd745cbb7106b56de6b5377&#45;&gt;dir_b778c3f297ab88300258a2935792c8cc -->
<g id="edge17" class="edge">
<title>dir_fbb29e8cafd745cbb7106b56de6b5377&#45;&gt;dir_b778c3f297ab88300258a2935792c8cc</title>
<path fill="none" stroke="#63b8ff" d="M120.36,-274.76C109.41,-266.89 94.78,-254.22 88,-239 68.09,-194.31 84.89,-177.91 84,-129 83.85,-120.56 80.84,-117.83 84,-110 88.43,-99.03 97.01,-89.26 105.35,-81.69"/>
<polygon fill="#63b8ff" stroke="#63b8ff" points="107.5,-84.45 112.93,-75.36 103.01,-79.08 107.5,-84.45"/>
<g id="a_edge17&#45;headlabel"><a xlink:href="dir_000808_000783.html" target="_top" xlink:title="2">
<text text-anchor="middle" x="107.73" y="-85.47" font-family="Helvetica,sans-Serif" font-size="10.00" fill="#63b8ff">2</text>
</a>
</g>
</g>
<!-- dir_fbb29e8cafd745cbb7106b56de6b5377&#45;&gt;dir_14c28d3bb977da9b21a3aa2d366ba228 -->
<g id="edge15" class="edge">
<title>dir_fbb29e8cafd745cbb7106b56de6b5377&#45;&gt;dir_14c28d3bb977da9b21a3aa2d366ba228</title>
<path fill="none" stroke="#63b8ff" d="M130.7,-274.75C128.17,-268.04 124.57,-258.52 121.37,-250.02"/>
<polygon fill="#63b8ff" stroke="#63b8ff" points="124.71,-248.98 117.91,-240.86 118.16,-251.45 124.71,-248.98"/>
<g id="a_edge15&#45;headlabel"><a xlink:href="dir_000808_000810.html" target="_top" xlink:title="14">
<text text-anchor="middle" x="128.11" y="-247.42" font-family="Helvetica,sans-Serif" font-size="10.00" fill="#63b8ff">14</text>
</a>
</g>
</g>
<!-- dir_fbb29e8cafd745cbb7106b56de6b5377&#45;&gt;dir_54283da8a0cf1311a88c964d76512876 -->
<g id="edge16" class="edge">
<title>dir_fbb29e8cafd745cbb7106b56de6b5377&#45;&gt;dir_54283da8a0cf1311a88c964d76512876</title>
<path fill="none" stroke="#63b8ff" d="M144.15,-274.66C164.95,-256.55 212.69,-214.96 239.27,-191.81"/>
<polygon fill="#63b8ff" stroke="#63b8ff" points="241.33,-194.66 246.57,-185.45 236.73,-189.38 241.33,-194.66"/>
<g id="a_edge16&#45;headlabel"><a xlink:href="dir_000808_001723.html" target="_top" xlink:title="10">
<text text-anchor="middle" x="241.62" y="-195.67" font-family="Helvetica,sans-Serif" font-size="10.00" fill="#63b8ff">10</text>
</a>
</g>
</g>
<!-- dir_14c28d3bb977da9b21a3aa2d366ba228&#45;&gt;dir_b778c3f297ab88300258a2935792c8cc -->
<g id="edge20" class="edge">
<title>dir_14c28d3bb977da9b21a3aa2d366ba228&#45;&gt;dir_b778c3f297ab88300258a2935792c8cc</title>
<path fill="none" stroke="#63b8ff" d="M109.34,-219.65C99.44,-199.63 78.31,-149.55 92,-110 95.52,-99.83 102.43,-90.22 109.19,-82.55"/>
<polygon fill="#63b8ff" stroke="#63b8ff" points="111.69,-84.99 116.07,-75.35 106.63,-80.16 111.69,-84.99"/>
<g id="a_edge20&#45;headlabel"><a xlink:href="dir_000810_000783.html" target="_top" xlink:title="12">
<text text-anchor="middle" x="112.31" y="-85.96" font-family="Helvetica,sans-Serif" font-size="10.00" fill="#63b8ff">12</text>
</a>
</g>
</g>
<!-- dir_14c28d3bb977da9b21a3aa2d366ba228&#45;&gt;dir_54283da8a0cf1311a88c964d76512876 -->
<g id="edge19" class="edge">
<title>dir_14c28d3bb977da9b21a3aa2d366ba228&#45;&gt;dir_54283da8a0cf1311a88c964d76512876</title>
<path fill="none" stroke="#63b8ff" d="M131.95,-221.89C154.68,-213.53 194.34,-198.93 223.12,-188.34"/>
<polygon fill="#63b8ff" stroke="#63b8ff" points="223.96,-191.76 232.14,-185.02 221.55,-185.19 223.96,-191.76"/>
<g id="a_edge19&#45;headlabel"><a xlink:href="dir_000810_001723.html" target="_top" xlink:title="12">
<text text-anchor="middle" x="222.99" y="-192.64" font-family="Helvetica,sans-Serif" font-size="10.00" fill="#63b8ff">12</text>
</a>
</g>
</g>
<!-- dir_4f0979a7f5e3194619cde56505e372d8&#45;&gt;dir_b778c3f297ab88300258a2935792c8cc -->
<g id="edge22" class="edge">
<title>dir_4f0979a7f5e3194619cde56505e372d8&#45;&gt;dir_b778c3f297ab88300258a2935792c8cc</title>
<path fill="none" stroke="#63b8ff" d="M228.3,-109.51C209,-101.12 179.94,-88.5 157.89,-78.92"/>
<polygon fill="#63b8ff" stroke="#63b8ff" points="159.34,-75.74 148.78,-74.96 156.56,-82.16 159.34,-75.74"/>
<g id="a_edge22&#45;headlabel"><a xlink:href="dir_000872_000783.html" target="_top" xlink:title="179">
<text text-anchor="middle" x="162.38" y="-71.46" font-family="Helvetica,sans-Serif" font-size="10.00" fill="#63b8ff">179</text>
</a>
</g>
</g>
<!-- dir_4f0979a7f5e3194619cde56505e372d8&#45;&gt;dir_6719ab1f1f7655efc2fa43f7eb574fd1 -->
<g id="edge21" class="edge">
<title>dir_4f0979a7f5e3194619cde56505e372d8&#45;&gt;dir_6719ab1f1f7655efc2fa43f7eb574fd1</title>
<path fill="none" stroke="#63b8ff" d="M265.69,-109.66C301.13,-90.9 384.13,-46.96 426.74,-24.4"/>
<polygon fill="#63b8ff" stroke="#63b8ff" points="428.11,-27.64 435.31,-19.87 424.83,-21.45 428.11,-27.64"/>
<g id="a_edge21&#45;headlabel"><a xlink:href="dir_000872_001264.html" target="_top" xlink:title="11">
<text text-anchor="middle" x="427.6" y="-28.62" font-family="Helvetica,sans-Serif" font-size="10.00" fill="#63b8ff">11</text>
</a>
</g>
</g>
<!-- dir_6bdfff2c28f90f381b6da5bee088878b&#45;&gt;dir_b778c3f297ab88300258a2935792c8cc -->
<g id="edge28" class="edge">
<title>dir_6bdfff2c28f90f381b6da5bee088878b&#45;&gt;dir_b778c3f297ab88300258a2935792c8cc</title>
<path fill="none" stroke="#63b8ff" d="M203.41,-274.53C184.86,-251.95 137.51,-190.14 121,-129 117.15,-114.73 118.94,-98.07 121.55,-85.4"/>
<polygon fill="#63b8ff" stroke="#63b8ff" points="124.93,-86.31 123.88,-75.76 118.12,-84.66 124.93,-86.31"/>
<g id="a_edge28&#45;headlabel"><a xlink:href="dir_001265_000783.html" target="_top" xlink:title="12">
<text text-anchor="middle" x="127.2" y="-86.5" font-family="Helvetica,sans-Serif" font-size="10.00" fill="#63b8ff">12</text>
</a>
</g>
</g>
<!-- dir_6bdfff2c28f90f381b6da5bee088878b&#45;&gt;dir_14c28d3bb977da9b21a3aa2d366ba228 -->
<g id="edge23" class="edge">
<title>dir_6bdfff2c28f90f381b6da5bee088878b&#45;&gt;dir_14c28d3bb977da9b21a3aa2d366ba228</title>
<path fill="none" stroke="#63b8ff" d="M194.55,-274.51C179.68,-266.39 157.56,-254.3 140.25,-244.85"/>
<polygon fill="#63b8ff" stroke="#63b8ff" points="141.99,-241.81 131.54,-240.08 138.64,-247.95 141.99,-241.81"/>
<g id="a_edge23&#45;headlabel"><a xlink:href="dir_001265_000810.html" target="_top" xlink:title="1">
<text text-anchor="middle" x="145.18" y="-237.81" font-family="Helvetica,sans-Serif" font-size="10.00" fill="#63b8ff">1</text>
</a>
</g>
</g>
<!-- dir_6bdfff2c28f90f381b6da5bee088878b&#45;&gt;dir_4f0979a7f5e3194619cde56505e372d8 -->
<g id="edge24" class="edge">
<title>dir_6bdfff2c28f90f381b6da5bee088878b&#45;&gt;dir_4f0979a7f5e3194619cde56505e372d8</title>
<path fill="none" stroke="#63b8ff" d="M210.35,-274.59C209.16,-254.46 207.9,-204.16 221,-165 224.14,-155.61 229.65,-146.19 234.95,-138.45"/>
<polygon fill="#63b8ff" stroke="#63b8ff" points="237.61,-140.74 240.69,-130.61 231.96,-136.61 237.61,-140.74"/>
<g id="a_edge24&#45;headlabel"><a xlink:href="dir_001265_000872.html" target="_top" xlink:title="7">
<text text-anchor="middle" x="238.67" y="-141.6" font-family="Helvetica,sans-Serif" font-size="10.00" fill="#63b8ff">7</text>
</a>
</g>
</g>
<!-- dir_6bdfff2c28f90f381b6da5bee088878b&#45;&gt;dir_54283da8a0cf1311a88c964d76512876 -->
<g id="edge25" class="edge">
<title>dir_6bdfff2c28f90f381b6da5bee088878b&#45;&gt;dir_54283da8a0cf1311a88c964d76512876</title>
<path fill="none" stroke="#63b8ff" d="M214.85,-274.66C222.39,-257.34 239.27,-218.55 249.54,-194.95"/>
<polygon fill="#63b8ff" stroke="#63b8ff" points="252.72,-196.41 253.5,-185.85 246.3,-193.62 252.72,-196.41"/>
<g id="a_edge25&#45;headlabel"><a xlink:href="dir_001265_001723.html" target="_top" xlink:title="3">
<text text-anchor="middle" x="254.49" y="-196.96" font-family="Helvetica,sans-Serif" font-size="10.00" fill="#63b8ff">3</text>
</a>
</g>
</g>
<!-- dir_6bdfff2c28f90f381b6da5bee088878b&#45;&gt;dir_81939fb769658ab66ba54ec390580a1a -->
<g id="edge27" class="edge">
<title>dir_6bdfff2c28f90f381b6da5bee088878b&#45;&gt;dir_81939fb769658ab66ba54ec390580a1a</title>
<path fill="none" stroke="#63b8ff" d="M223.21,-274.51C233.83,-266.7 249.44,-255.21 262.04,-245.93"/>
<polygon fill="#63b8ff" stroke="#63b8ff" points="263.77,-249 269.75,-240.26 259.62,-243.36 263.77,-249"/>
<g id="a_edge27&#45;headlabel"><a xlink:href="dir_001265_001732.html" target="_top" xlink:title="3">
<text text-anchor="middle" x="263.78" y="-250.02" font-family="Helvetica,sans-Serif" font-size="10.00" fill="#63b8ff">3</text>
</a>
</g>
</g>
<!-- dir_6bdfff2c28f90f381b6da5bee088878b&#45;&gt;dir_6719ab1f1f7655efc2fa43f7eb574fd1 -->
<g id="edge26" class="edge">
<title>dir_6bdfff2c28f90f381b6da5bee088878b&#45;&gt;dir_6719ab1f1f7655efc2fa43f7eb574fd1</title>
<path fill="none" stroke="#63b8ff" d="M232.38,-280.64C301.57,-270.8 515,-235.57 515,-175.5 515,-175.5 515,-175.5 515,-118.5 515,-82.32 488.5,-47.28 470.15,-27.36"/>
<polygon fill="#63b8ff" stroke="#63b8ff" points="472.92,-25.19 463.47,-20.41 467.88,-30.05 472.92,-25.19"/>
<g id="a_edge26&#45;headlabel"><a xlink:href="dir_001265_001264.html" target="_top" xlink:title="1">
<text text-anchor="middle" x="476.41" y="-22.22" font-family="Helvetica,sans-Serif" font-size="10.00" fill="#63b8ff">1</text>
</a>
</g>
</g>
<!-- dir_f4a0ada2a696f9fa1f0722f1cc886f9d -->
<g id="node10" class="node">
<title>dir_f4a0ada2a696f9fa1f0722f1cc886f9d</title>
<g id="a_node10"><a xlink:href="dir_f4a0ada2a696f9fa1f0722f1cc886f9d.html" target="_top" xlink:title="msg">
<polygon fill="#a2b4d6" stroke="#404040" points="228.5,-459 193.5,-459 193.5,-440 228.5,-440 228.5,-459"/>
<text text-anchor="middle" x="211" y="-447" font-family="Helvetica,sans-Serif" font-size="10.00">msg</text>
</a>
</g>
</g>
<!-- dir_f4a0ada2a696f9fa1f0722f1cc886f9d&#45;&gt;dir_cc3ad1aed4be3f446fdd7af78322f5bf -->
<g id="edge29" class="edge">
<title>dir_f4a0ada2a696f9fa1f0722f1cc886f9d&#45;&gt;dir_cc3ad1aed4be3f446fdd7af78322f5bf</title>
<path fill="none" stroke="#63b8ff" d="M211,-439.75C211,-433.27 211,-424.16 211,-415.9"/>
<polygon fill="#63b8ff" stroke="#63b8ff" points="214.5,-415.96 211,-405.96 207.5,-415.96 214.5,-415.96"/>
<g id="a_edge29&#45;headlabel"><a xlink:href="dir_001279_000022.html" target="_top" xlink:title="2">
<text text-anchor="middle" x="217.34" y="-415.54" font-family="Helvetica,sans-Serif" font-size="10.00" fill="#63b8ff">2</text>
</a>
</g>
</g>
<!-- dir_f4a0ada2a696f9fa1f0722f1cc886f9d&#45;&gt;dir_b778c3f297ab88300258a2935792c8cc -->
<g id="edge30" class="edge">
<title>dir_f4a0ada2a696f9fa1f0722f1cc886f9d&#45;&gt;dir_b778c3f297ab88300258a2935792c8cc</title>
<path fill="none" stroke="#63b8ff" d="M193.1,-446.99C145.07,-441.86 17,-420.68 17,-340.5 17,-340.5 17,-340.5 17,-173.5 17,-142.09 26.46,-132.85 48,-110 60.46,-96.79 77.73,-86.44 92.95,-79.07"/>
<polygon fill="#63b8ff" stroke="#63b8ff" points="94.06,-82.41 101.7,-75.07 91.15,-76.04 94.06,-82.41"/>
<g id="a_edge30&#45;headlabel"><a xlink:href="dir_001279_000783.html" target="_top" xlink:title="6">
<text text-anchor="middle" x="93.35" y="-83.36" font-family="Helvetica,sans-Serif" font-size="10.00" fill="#63b8ff">6</text>
</a>
</g>
</g>
<!-- dir_f4a0ada2a696f9fa1f0722f1cc886f9d&#45;&gt;dir_4f0979a7f5e3194619cde56505e372d8 -->
<g id="edge31" class="edge">
<title>dir_f4a0ada2a696f9fa1f0722f1cc886f9d&#45;&gt;dir_4f0979a7f5e3194619cde56505e372d8</title>
<path fill="none" stroke="#63b8ff" d="M228.75,-447.41C278.38,-443.33 415,-424.45 415,-340.5 415,-340.5 415,-340.5 415,-283.5 415,-214.01 364.6,-211.54 313,-165 300.91,-154.1 286.05,-143.61 273.69,-135.56"/>
<polygon fill="#63b8ff" stroke="#63b8ff" points="275.61,-132.63 265.29,-130.23 271.86,-138.54 275.61,-132.63"/>
<g id="a_edge31&#45;headlabel"><a xlink:href="dir_001279_000872.html" target="_top" xlink:title="1">
<text text-anchor="middle" x="278.89" y="-128.85" font-family="Helvetica,sans-Serif" font-size="10.00" fill="#63b8ff">1</text>
</a>
</g>
</g>
<!-- dir_d1e95842203b094e4f127fa85baf24b5&#45;&gt;dir_cc3ad1aed4be3f446fdd7af78322f5bf -->
<g id="edge37" class="edge">
<title>dir_d1e95842203b094e4f127fa85baf24b5&#45;&gt;dir_cc3ad1aed4be3f446fdd7af78322f5bf</title>
<path fill="none" stroke="#63b8ff" d="M277.9,-349.29C267.92,-357.73 250.23,-370.58 235.43,-380.25"/>
<polygon fill="#63b8ff" stroke="#63b8ff" points="233.64,-377.25 227.05,-385.54 237.37,-383.17 233.64,-377.25"/>
<g id="a_edge37&#45;headlabel"><a xlink:href="dir_001315_000022.html" target="_top" xlink:title="269">
<text text-anchor="middle" x="233.88" y="-371.24" font-family="Helvetica,sans-Serif" font-size="10.00" fill="#63b8ff">269</text>
</a>
</g>
</g>
<!-- dir_d1e95842203b094e4f127fa85baf24b5&#45;&gt;dir_b778c3f297ab88300258a2935792c8cc -->
<g id="edge36" class="edge">
<title>dir_d1e95842203b094e4f127fa85baf24b5&#45;&gt;dir_b778c3f297ab88300258a2935792c8cc</title>
<path fill="none" stroke="#63b8ff" d="M299.93,-329.85C341.73,-304.54 454,-228.4 409,-165 380.93,-125.46 347.39,-154.26 306,-129 295.53,-122.61 296.66,-116.05 286,-110 246.64,-87.66 195.35,-75.95 161.82,-70.25"/>
<polygon fill="#63b8ff" stroke="#63b8ff" points="162.67,-66.84 152.24,-68.72 161.56,-73.76 162.67,-66.84"/>
<g id="a_edge36&#45;headlabel"><a xlink:href="dir_001315_000783.html" target="_top" xlink:title="527">
<text text-anchor="middle" x="165.17" y="-61.87" font-family="Helvetica,sans-Serif" font-size="10.00" fill="#63b8ff">527</text>
</a>
</g>
</g>
<!-- dir_d1e95842203b094e4f127fa85baf24b5&#45;&gt;dir_fbb29e8cafd745cbb7106b56de6b5377 -->
<g id="edge38" class="edge">
<title>dir_d1e95842203b094e4f127fa85baf24b5&#45;&gt;dir_fbb29e8cafd745cbb7106b56de6b5377</title>
<path fill="none" stroke="#63b8ff" d="M270.25,-333.32C245.29,-324.56 194.32,-306.67 162.29,-295.43"/>
<polygon fill="#63b8ff" stroke="#63b8ff" points="163.85,-292.27 153.25,-292.26 161.53,-298.87 163.85,-292.27"/>
<g id="a_edge38&#45;headlabel"><a xlink:href="dir_001315_000808.html" target="_top" xlink:title="203">
<text text-anchor="middle" x="166.75" y="-287.78" font-family="Helvetica,sans-Serif" font-size="10.00" fill="#63b8ff">203</text>
</a>
</g>
</g>
<!-- dir_d1e95842203b094e4f127fa85baf24b5&#45;&gt;dir_4f0979a7f5e3194619cde56505e372d8 -->
<g id="edge32" class="edge">
<title>dir_d1e95842203b094e4f127fa85baf24b5&#45;&gt;dir_4f0979a7f5e3194619cde56505e372d8</title>
<path fill="none" stroke="#63b8ff" d="M296.53,-329.63C306.18,-321.5 319.39,-308.54 326,-294 339.65,-263.96 340.38,-251.92 332,-220 324.88,-192.86 318.82,-186.67 301,-165 292.19,-154.29 280.61,-144.1 270.61,-136.17"/>
<polygon fill="#63b8ff" stroke="#63b8ff" points="272.93,-133.54 262.86,-130.25 268.68,-139.1 272.93,-133.54"/>
<g id="a_edge32&#45;headlabel"><a xlink:href="dir_001315_000872.html" target="_top" xlink:title="13">
<text text-anchor="middle" x="276.3" y="-130.05" font-family="Helvetica,sans-Serif" font-size="10.00" fill="#63b8ff">13</text>
</a>
</g>
</g>
<!-- dir_d1e95842203b094e4f127fa85baf24b5&#45;&gt;dir_6bdfff2c28f90f381b6da5bee088878b -->
<g id="edge34" class="edge">
<title>dir_d1e95842203b094e4f127fa85baf24b5&#45;&gt;dir_6bdfff2c28f90f381b6da5bee088878b</title>
<path fill="none" stroke="#63b8ff" d="M272.45,-329.51C261.54,-321.7 245.5,-310.21 232.54,-300.93"/>
<polygon fill="#63b8ff" stroke="#63b8ff" points="234.77,-298.22 224.6,-295.24 230.69,-303.91 234.77,-298.22"/>
<g id="a_edge34&#45;headlabel"><a xlink:href="dir_001315_001265.html" target="_top" xlink:title="24">
<text text-anchor="middle" x="238.11" y="-294.62" font-family="Helvetica,sans-Serif" font-size="10.00" fill="#63b8ff">24</text>
</a>
</g>
</g>
<!-- dir_d1e95842203b094e4f127fa85baf24b5&#45;&gt;dir_54283da8a0cf1311a88c964d76512876 -->
<g id="edge33" class="edge">
<title>dir_d1e95842203b094e4f127fa85baf24b5&#45;&gt;dir_54283da8a0cf1311a88c964d76512876</title>
<path fill="none" stroke="#63b8ff" d="M292.6,-329.77C309.2,-309.58 345.63,-258.46 325,-220 317.87,-206.7 304.81,-196.69 292.11,-189.58"/>
<polygon fill="#63b8ff" stroke="#63b8ff" points="293.96,-186.59 283.46,-185.17 290.78,-192.83 293.96,-186.59"/>
<g id="a_edge33&#45;headlabel"><a xlink:href="dir_001315_001723.html" target="_top" xlink:title="31">
<text text-anchor="middle" x="297.1" y="-182.51" font-family="Helvetica,sans-Serif" font-size="10.00" fill="#63b8ff">31</text>
</a>
</g>
</g>
<!-- dir_d1e95842203b094e4f127fa85baf24b5&#45;&gt;dir_81939fb769658ab66ba54ec390580a1a -->
<g id="edge35" class="edge">
<title>dir_d1e95842203b094e4f127fa85baf24b5&#45;&gt;dir_81939fb769658ab66ba54ec390580a1a</title>
<path fill="none" stroke="#63b8ff" d="M284.84,-329.66C284.52,-312.57 283.82,-274.61 283.38,-250.92"/>
<polygon fill="#63b8ff" stroke="#63b8ff" points="286.88,-250.91 283.19,-240.97 279.88,-251.04 286.88,-250.91"/>
<g id="a_edge35&#45;headlabel"><a xlink:href="dir_001315_001732.html" target="_top" xlink:title="10">
<text text-anchor="middle" x="289.76" y="-250.44" font-family="Helvetica,sans-Serif" font-size="10.00" fill="#63b8ff">10</text>
</a>
</g>
</g>
<!-- dir_54283da8a0cf1311a88c964d76512876&#45;&gt;dir_b778c3f297ab88300258a2935792c8cc -->
<g id="edge41" class="edge">
<title>dir_54283da8a0cf1311a88c964d76512876&#45;&gt;dir_b778c3f297ab88300258a2935792c8cc</title>
<path fill="none" stroke="#63b8ff" d="M229.86,-168.96C205.09,-163.55 169.69,-152.15 148,-129 136.94,-117.19 131.7,-99.43 129.22,-85.69"/>
<polygon fill="#63b8ff" stroke="#63b8ff" points="132.71,-85.39 127.84,-75.98 125.78,-86.38 132.71,-85.39"/>
<g id="a_edge41&#45;headlabel"><a xlink:href="dir_001723_000783.html" target="_top" xlink:title="20">
<text text-anchor="middle" x="135.81" y="-84.55" font-family="Helvetica,sans-Serif" font-size="10.00" fill="#63b8ff">20</text>
</a>
</g>
</g>
<!-- dir_54283da8a0cf1311a88c964d76512876&#45;&gt;dir_4f0979a7f5e3194619cde56505e372d8 -->
<g id="edge39" class="edge">
<title>dir_54283da8a0cf1311a88c964d76512876&#45;&gt;dir_4f0979a7f5e3194619cde56505e372d8</title>
<path fill="none" stroke="#63b8ff" d="M256.51,-164.75C255.4,-158.19 253.83,-148.95 252.41,-140.6"/>
<polygon fill="#63b8ff" stroke="#63b8ff" points="255.9,-140.21 250.77,-130.93 249,-141.38 255.9,-140.21"/>
<g id="a_edge39&#45;headlabel"><a xlink:href="dir_001723_000872.html" target="_top" xlink:title="1">
<text text-anchor="middle" x="259.04" y="-139.28" font-family="Helvetica,sans-Serif" font-size="10.00" fill="#63b8ff">1</text>
</a>
</g>
</g>
<!-- dir_54283da8a0cf1311a88c964d76512876&#45;&gt;dir_6719ab1f1f7655efc2fa43f7eb574fd1 -->
<g id="edge40" class="edge">
<title>dir_54283da8a0cf1311a88c964d76512876&#45;&gt;dir_6719ab1f1f7655efc2fa43f7eb574fd1</title>
<path fill="none" stroke="#63b8ff" d="M286.42,-171.44C336.4,-167.17 436.8,-155.43 458,-129 480.58,-100.85 469.9,-55.71 460.92,-30.03"/>
<polygon fill="#63b8ff" stroke="#63b8ff" points="464.26,-28.97 457.45,-20.86 457.71,-31.45 464.26,-28.97"/>
<g id="a_edge40&#45;headlabel"><a xlink:href="dir_001723_001264.html" target="_top" xlink:title="2">
<text text-anchor="middle" x="467.65" y="-27.42" font-family="Helvetica,sans-Serif" font-size="10.00" fill="#63b8ff">2</text>
</a>
</g>
</g>
<!-- dir_e0d81b93568b4756b3de33c83e93881b -->
<g id="node13" class="node">
<title>dir_e0d81b93568b4756b3de33c83e93881b</title>
<g id="a_node13"><a xlink:href="dir_e0d81b93568b4756b3de33c83e93881b.html" target="_top" xlink:title="std">
<polygon fill="#a2b4d6" stroke="#404040" points="111,-459 81,-459 81,-440 111,-440 111,-459"/>
<text text-anchor="middle" x="96" y="-447" font-family="Helvetica,sans-Serif" font-size="10.00">std</text>
</a>
</g>
</g>
<!-- dir_1cf8c5ae6c227b033e49e3be60b350ef -->
<g id="node14" class="node">
<title>dir_1cf8c5ae6c227b033e49e3be60b350ef</title>
<g id="a_node14"><a xlink:href="dir_1cf8c5ae6c227b033e49e3be60b350ef.html" target="_top" xlink:title="TRK_MINNOW_DOLPHIN">
<polygon fill="#a2b4d6" stroke="#404040" points="449,-129 315,-129 315,-110 449,-110 449,-129"/>
<text text-anchor="middle" x="382" y="-117" font-family="Helvetica,sans-Serif" font-size="10.00">TRK_MINNOW_DOLPHIN</text>
</a>
</g>
</g>
<!-- dir_1cf8c5ae6c227b033e49e3be60b350ef&#45;&gt;dir_b778c3f297ab88300258a2935792c8cc -->
<g id="edge43" class="edge">
<title>dir_1cf8c5ae6c227b033e49e3be60b350ef&#45;&gt;dir_b778c3f297ab88300258a2935792c8cc</title>
<path fill="none" stroke="#63b8ff" d="M338.74,-109.51C288.94,-99.16 208.1,-82.36 162.05,-72.78"/>
<polygon fill="#63b8ff" stroke="#63b8ff" points="162.84,-69.38 152.34,-70.77 161.42,-76.23 162.84,-69.38"/>
<g id="a_edge43&#45;headlabel"><a xlink:href="dir_001727_000783.html" target="_top" xlink:title="19">
<text text-anchor="middle" x="165.46" y="-64.52" font-family="Helvetica,sans-Serif" font-size="10.00" fill="#63b8ff">19</text>
</a>
</g>
</g>
<!-- dir_1cf8c5ae6c227b033e49e3be60b350ef&#45;&gt;dir_6719ab1f1f7655efc2fa43f7eb574fd1 -->
<g id="edge42" class="edge">
<title>dir_1cf8c5ae6c227b033e49e3be60b350ef&#45;&gt;dir_6719ab1f1f7655efc2fa43f7eb574fd1</title>
<path fill="none" stroke="#63b8ff" d="M387.81,-109.66C399.36,-92.1 425.4,-52.48 440.85,-28.98"/>
<polygon fill="#63b8ff" stroke="#63b8ff" points="443.71,-31 446.28,-20.72 437.86,-27.16 443.71,-31"/>
<g id="a_edge42&#45;headlabel"><a xlink:href="dir_001727_001264.html" target="_top" xlink:title="9">
<text text-anchor="middle" x="444.94" y="-31.8" font-family="Helvetica,sans-Serif" font-size="10.00" fill="#63b8ff">9</text>
</a>
</g>
</g>
<!-- dir_81939fb769658ab66ba54ec390580a1a&#45;&gt;dir_b778c3f297ab88300258a2935792c8cc -->
<g id="edge46" class="edge">
<title>dir_81939fb769658ab66ba54ec390580a1a&#45;&gt;dir_b778c3f297ab88300258a2935792c8cc</title>
<path fill="none" stroke="#63b8ff" d="M256.81,-219.59C221.62,-206.1 160.25,-176.85 132,-129 124.33,-116.01 123.41,-98.84 124.23,-85.62"/>
<polygon fill="#63b8ff" stroke="#63b8ff" points="127.69,-86.25 125.23,-75.94 120.72,-85.53 127.69,-86.25"/>
<g id="a_edge46&#45;headlabel"><a xlink:href="dir_001732_000783.html" target="_top" xlink:title="8">
<text text-anchor="middle" x="130.3" y="-86.11" font-family="Helvetica,sans-Serif" font-size="10.00" fill="#63b8ff">8</text>
</a>
</g>
</g>
<!-- dir_81939fb769658ab66ba54ec390580a1a&#45;&gt;dir_4f0979a7f5e3194619cde56505e372d8 -->
<g id="edge44" class="edge">
<title>dir_81939fb769658ab66ba54ec390580a1a&#45;&gt;dir_4f0979a7f5e3194619cde56505e372d8</title>
<path fill="none" stroke="#63b8ff" d="M287.83,-219.53C293.95,-206.9 302.8,-183.39 295,-165 290.24,-153.76 281.09,-143.98 272.2,-136.46"/>
<polygon fill="#63b8ff" stroke="#63b8ff" points="274.47,-133.79 264.42,-130.42 270.17,-139.32 274.47,-133.79"/>
<g id="a_edge44&#45;headlabel"><a xlink:href="dir_001732_000872.html" target="_top" xlink:title="36">
<text text-anchor="middle" x="277.85" y="-130.32" font-family="Helvetica,sans-Serif" font-size="10.00" fill="#63b8ff">36</text>
</a>
</g>
</g>
<!-- dir_81939fb769658ab66ba54ec390580a1a&#45;&gt;dir_54283da8a0cf1311a88c964d76512876 -->
<g id="edge45" class="edge">
<title>dir_81939fb769658ab66ba54ec390580a1a&#45;&gt;dir_54283da8a0cf1311a88c964d76512876</title>
<path fill="none" stroke="#63b8ff" d="M278.87,-219.75C275.67,-212.96 271.11,-203.3 267.07,-194.73"/>
<polygon fill="#63b8ff" stroke="#63b8ff" points="270.3,-193.36 262.86,-185.81 263.96,-196.35 270.3,-193.36"/>
<g id="a_edge45&#45;headlabel"><a xlink:href="dir_001732_001723.html" target="_top" xlink:title="1">
<text text-anchor="middle" x="273.75" y="-191.53" font-family="Helvetica,sans-Serif" font-size="10.00" fill="#63b8ff">1</text>
</a>
</g>
</g>
</g>
</svg>
        <g id="navigator" transform="translate(0 0)" fill="#404254">
                <rect fill="#f2f5e9" fill-opacity="0.5" stroke="#606060" stroke-width=".5" x="0" y="0" width="60" height="60"/>
                <use id="zoomplus" xlink:href="#zoomPlus" x="17" y="9" onmousedown="handleZoom(evt,'in')"/>
                <use id="zoomminus" xlink:href="#zoomMin" x="42" y="9" onmousedown="handleZoom(evt,'out')"/>
                <use id="reset" xlink:href="#resetDef" x="30" y="36" onmousedown="handleReset()"/>
                <g id="arrowUp" xlink:href="#dirArrow" transform="translate(30 24)" onmousedown="handlePan(0,-1)">
                  <use xlink:href="#rim" fill="#404040">
                        <set attributeName="fill" to="#808080" begin="arrowUp.mouseover" end="arrowUp.mouseout"/>
                  </use>
                  <path fill="none" stroke="white" stroke-width="1.5" d="M0,-3.0v7 M-2.5,-0.5L0,-3.0L2.5,-0.5"/>
                </g>
                <g id="arrowRight" xlink:href="#dirArrow" transform="rotate(90) translate(36 -43)" onmousedown="handlePan(1,0)">
                  <use xlink:href="#rim" fill="#404040">
                        <set attributeName="fill" to="#808080" begin="arrowRight.mouseover" end="arrowRight.mouseout"/>
                  </use>
                  <path fill="none" stroke="white" stroke-width="1.5" d="M0,-3.0v7 M-2.5,-0.5L0,-3.0L2.5,-0.5"/>
                </g>
                <g id="arrowDown" xlink:href="#dirArrow" transform="rotate(180) translate(-30 -48)" onmousedown="handlePan(0,1)">
                  <use xlink:href="#rim" fill="#404040">
                        <set attributeName="fill" to="#808080" begin="arrowDown.mouseover" end="arrowDown.mouseout"/>
                  </use>
                  <path fill="none" stroke="white" stroke-width="1.5" d="M0,-3.0v7 M-2.5,-0.5L0,-3.0L2.5,-0.5"/>
                </g>
                <g id="arrowLeft" xlink:href="#dirArrow" transform="rotate(270) translate(-36 17)" onmousedown="handlePan(-1,0)">
                  <use xlink:href="#rim" fill="#404040">
                        <set attributeName="fill" to="#808080" begin="arrowLeft.mouseover" end="arrowLeft.mouseout"/>
                  </use>
                  <path fill="none" stroke="white" stroke-width="1.5" d="M0,-3.0v7 M-2.5,-0.5L0,-3.0L2.5,-0.5"/>
                </g>
        </g>
        <svg viewBox="0 0 15 15" width="100%" height="30px" preserveAspectRatio="xMaxYMin meet">
         <g id="arrow_out" transform="scale(0.3 0.3)">
          <a xlink:href="dir_d44c64559bbebec7f509842c48db8b23_dep_org.svg" target="_base">
           <rect id="button" ry="5" rx="5" y="6" x="6" height="38" width="38"
                fill="#f2f5e9" fill-opacity="0.5" stroke="#606060" stroke-width="1.0"/>
           <path id="arrow"
             d="M 11.500037,31.436501 C 11.940474,20.09759 22.043105,11.32322 32.158766,21.979434 L 37.068811,17.246167 C 37.068811,17.246167 37.088388,32 37.088388,32 L 22.160133,31.978069 C 22.160133,31.978069 26.997745,27.140456 26.997745,27.140456 C 18.528582,18.264221 13.291696,25.230495 11.500037,31.436501 z"
             style="fill:#404040;"/>
          </a>
         </g>
        </svg>
</svg>
