<?xml version="1.0" encoding="UTF-8" standalone="no"?>
<!DOCTYPE svg PUBLIC "-//W3C//DTD SVG 1.1//EN"
 "http://www.w3.org/Graphics/SVG/1.1/DTD/svg11.dtd">
<!-- Generated by graphviz version 7.0.5 (20221223.1930)
 -->
<!-- Title: libs/SSystem Pages: 1 -->
<svg width="332pt" height="141pt"
 viewBox="0.00 0.00 331.50 141.00" xmlns="http://www.w3.org/2000/svg" xmlns:xlink="http://www.w3.org/1999/xlink">
<g id="graph0" class="graph" transform="scale(1 1) rotate(0) translate(4 137)">
<title>libs/SSystem</title>
<g id="clust1" class="cluster">
<title>clusterdir_6719ab1f1f7655efc2fa43f7eb574fd1</title>
<g id="a_clust1"><a xlink:href="dir_6719ab1f1f7655efc2fa43f7eb574fd1.html" target="_top" xlink:title="libs">
<polygon fill="#edf0f7" stroke="#404040" stroke-dasharray="5,2" points="8,-8 8,-125 268,-125 268,-8 8,-8"/>
<text text-anchor="middle" x="138" y="-113" font-family="Helvetica,sans-Serif" font-size="10.00">libs</text>
</a>
</g>
</g>
<g id="clust2" class="cluster">
<title>clusterdir_1cd32b914603311b5711a192cd0b3625</title>
<g id="a_clust2"><a xlink:href="dir_1cd32b914603311b5711a192cd0b3625.html" target="_top">
<polygon fill="#edf0f7" stroke="#404040" stroke-width="2" points="16,-63 16,-98 260,-98 260,-63 16,-63"/>
</a>
</g>
</g>
<!-- dir_db1709413e4853dbf382363385ab04a7 -->
<g id="node1" class="node">
<title>dir_db1709413e4853dbf382363385ab04a7</title>
<g id="a_node1"><a xlink:href="dir_db1709413e4853dbf382363385ab04a7.html" target="_top" xlink:title="PowerPC_EABI_Support">
<polygon fill="#a2b4d6" stroke="red" points="141.5,-35 16.5,-35 16.5,-16 141.5,-16 141.5,-35"/>
<text text-anchor="middle" x="79" y="-23" font-family="Helvetica,sans-Serif" font-size="10.00">PowerPC_EABI_Support</text>
</a>
</g>
</g>
<!-- dir_1cd32b914603311b5711a192cd0b3625 -->
<g id="node2" class="node">
<title>dir_1cd32b914603311b5711a192cd0b3625</title>
<text text-anchor="middle" x="224" y="-78" font-family="Helvetica,sans-Serif" font-size="10.00">SSystem</text>
</g>
<!-- dir_150585a965dcd87342332cc7d754f677 -->
<g id="node3" class="node">
<title>dir_150585a965dcd87342332cc7d754f677</title>
<g id="a_node3"><a xlink:href="dir_150585a965dcd87342332cc7d754f677.html" target="_top" xlink:title="SComponent">
<polygon fill="#a2b4d6" stroke="#404040" points="97.5,-90 24.5,-90 24.5,-71 97.5,-71 97.5,-90"/>
<text text-anchor="middle" x="61" y="-78" font-family="Helvetica,sans-Serif" font-size="10.00">SComponent</text>
</a>
</g>
</g>
<!-- dir_150585a965dcd87342332cc7d754f677&#45;&gt;dir_db1709413e4853dbf382363385ab04a7 -->
<g id="edge2" class="edge">
<title>dir_150585a965dcd87342332cc7d754f677&#45;&gt;dir_db1709413e4853dbf382363385ab04a7</title>
<path fill="none" stroke="#63b8ff" d="M63.97,-70.75C66.23,-64.11 69.41,-54.73 72.27,-46.31"/>
<polygon fill="#63b8ff" stroke="#63b8ff" points="75.57,-47.47 75.48,-36.88 68.95,-45.22 75.57,-47.47"/>
<g id="a_edge2&#45;headlabel"><a xlink:href="dir_001707_001311.html" target="_top" xlink:title="3">
<text text-anchor="middle" x="77.59" y="-47.85" font-family="Helvetica,sans-Serif" font-size="10.00" fill="#63b8ff">3</text>
</a>
</g>
</g>
<!-- dir_d44c64559bbebec7f509842c48db8b23 -->
<g id="node5" class="node">
<title>dir_d44c64559bbebec7f509842c48db8b23</title>
<g id="a_node5"><a xlink:href="dir_d44c64559bbebec7f509842c48db8b23.html" target="_top" xlink:title="include">
<polygon fill="#edf0f7" stroke="red" points="323.5,-35 276.5,-35 276.5,-16 323.5,-16 323.5,-35"/>
<text text-anchor="middle" x="300" y="-23" font-family="Helvetica,sans-Serif" font-size="10.00">include</text>
</a>
</g>
</g>
<!-- dir_150585a965dcd87342332cc7d754f677&#45;&gt;dir_d44c64559bbebec7f509842c48db8b23 -->
<g id="edge1" class="edge">
<title>dir_150585a965dcd87342332cc7d754f677&#45;&gt;dir_d44c64559bbebec7f509842c48db8b23</title>
<path fill="none" stroke="#63b8ff" d="M83.21,-70.64C90.68,-67.9 99.12,-65.06 107,-63 175.44,-45.07 197.46,-51.35 265.39,-36.41"/>
<polygon fill="#63b8ff" stroke="#63b8ff" points="265.78,-39.92 274.75,-34.28 264.22,-33.09 265.78,-39.92"/>
<g id="a_edge1&#45;headlabel"><a xlink:href="dir_001707_000829.html" target="_top" xlink:title="81">
<text text-anchor="middle" x="264.38" y="-40.65" font-family="Helvetica,sans-Serif" font-size="10.00" fill="#63b8ff">81</text>
</a>
</g>
</g>
<!-- dir_16661087ee8fcc3f1d5f6f6c3139103f -->
<g id="node4" class="node">
<title>dir_16661087ee8fcc3f1d5f6f6c3139103f</title>
<g id="a_node4"><a xlink:href="dir_16661087ee8fcc3f1d5f6f6c3139103f.html" target="_top" xlink:title="SStandard">
<polygon fill="#a2b4d6" stroke="#404040" points="178,-90 116,-90 116,-71 178,-71 178,-90"/>
<text text-anchor="middle" x="147" y="-78" font-family="Helvetica,sans-Serif" font-size="10.00">SStandard</text>
</a>
</g>
</g>
<!-- dir_16661087ee8fcc3f1d5f6f6c3139103f&#45;&gt;dir_d44c64559bbebec7f509842c48db8b23 -->
<g id="edge3" class="edge">
<title>dir_16661087ee8fcc3f1d5f6f6c3139103f&#45;&gt;dir_d44c64559bbebec7f509842c48db8b23</title>
<path fill="none" stroke="#63b8ff" d="M167.64,-70.62C173.83,-68.06 180.65,-65.33 187,-63 201.54,-57.66 237.96,-46.01 265.55,-37.3"/>
<polygon fill="#63b8ff" stroke="#63b8ff" points="266.44,-40.69 274.93,-34.35 264.34,-34.01 266.44,-40.69"/>
<g id="a_edge3&#45;headlabel"><a xlink:href="dir_001722_000829.html" target="_top" xlink:title="2">
<text text-anchor="middle" x="265.31" y="-41.52" font-family="Helvetica,sans-Serif" font-size="10.00" fill="#63b8ff">2</text>
</a>
</g>
</g>
</g>
</svg>
