<?xml version="1.0" encoding="UTF-8" standalone="no"?>
<!DOCTYPE svg PUBLIC "-//W3C//DTD SVG 1.1//EN"
 "http://www.w3.org/Graphics/SVG/1.1/DTD/svg11.dtd">
<!-- Generated by graphviz version 7.0.5 (20221223.1930)
 -->
<!-- Title: include/TRK_MINNOW_DOLPHIN/Os/dolphin/dolphin_trk_glue.h Pages: 1 -->
<svg width="502pt" height="126pt"
 viewBox="0.00 0.00 501.50 126.00" xmlns="http://www.w3.org/2000/svg" xmlns:xlink="http://www.w3.org/1999/xlink">
<g id="graph0" class="graph" transform="scale(1 1) rotate(0) translate(4 122)">
<title>include/TRK_MINNOW_DOLPHIN/Os/dolphin/dolphin_trk_glue.h</title>
<!-- Node1 -->
<g id="node1" class="node">
<title>Node1</title>
<g id="a_node1"><a xlink:title=" ">
<polygon fill="#999999" stroke="#666666" points="306.5,-118 188.5,-118 188.5,-77 306.5,-77 306.5,-118"/>
<text text-anchor="start" x="196.5" y="-106" font-family="Helvetica,sans-Serif" font-size="10.00">include/TRK_MINNOW</text>
<text text-anchor="start" x="196.5" y="-95" font-family="Helvetica,sans-Serif" font-size="10.00">_DOLPHIN/Os/dolphin</text>
<text text-anchor="middle" x="247.5" y="-84" font-family="Helvetica,sans-Serif" font-size="10.00">/dolphin_trk_glue.h</text>
</a>
</g>
</g>
<!-- Node2 -->
<g id="node2" class="node">
<title>Node2</title>
<g id="a_node2"><a xlink:href="msghndlr_8c.html" target="_top" xlink:title=" ">
<polygon fill="white" stroke="#666666" points="153,-35.5 0,-35.5 0,-5.5 153,-5.5 153,-35.5"/>
<text text-anchor="start" x="8" y="-23.5" font-family="Helvetica,sans-Serif" font-size="10.00">libs/TRK_MINNOW_DOLPHIN</text>
<text text-anchor="middle" x="76.5" y="-12.5" font-family="Helvetica,sans-Serif" font-size="10.00">/MetroTRK/Portable/msghndlr.c</text>
</a>
</g>
</g>
<!-- Node1&#45;&gt;Node2 -->
<g id="edge1" class="edge">
<title>Node1&#45;&gt;Node2</title>
<path fill="none" stroke="#63b8ff" d="M191.92,-72.12C164.63,-60.16 132.69,-46.15 109.34,-35.9"/>
<polygon fill="#63b8ff" stroke="#63b8ff" points="190.17,-75.18 200.74,-75.99 192.99,-68.77 190.17,-75.18"/>
</g>
<!-- Node3 -->
<g id="node3" class="node">
<title>Node3</title>
<g id="a_node3"><a xlink:href="dolphin__trk_8c.html" target="_top" xlink:title=" ">
<polygon fill="white" stroke="#666666" points="323.5,-35.5 171.5,-35.5 171.5,-5.5 323.5,-5.5 323.5,-35.5"/>
<text text-anchor="start" x="179.5" y="-23.5" font-family="Helvetica,sans-Serif" font-size="10.00">libs/TRK_MINNOW_DOLPHIN</text>
<text text-anchor="middle" x="247.5" y="-12.5" font-family="Helvetica,sans-Serif" font-size="10.00">/Os/dolphin/dolphin_trk.c</text>
</a>
</g>
</g>
<!-- Node1&#45;&gt;Node3 -->
<g id="edge2" class="edge">
<title>Node1&#45;&gt;Node3</title>
<path fill="none" stroke="#63b8ff" d="M247.5,-65.28C247.5,-55.07 247.5,-44.21 247.5,-35.86"/>
<polygon fill="#63b8ff" stroke="#63b8ff" points="244,-65.28 247.5,-75.28 251,-65.28 244,-65.28"/>
</g>
<!-- Node4 -->
<g id="node4" class="node">
<title>Node4</title>
<g id="a_node4"><a xlink:href="dolphin__trk__glue_8c.html" target="_top" xlink:title=" ">
<polygon fill="white" stroke="#666666" points="493.5,-41 341.5,-41 341.5,0 493.5,0 493.5,-41"/>
<text text-anchor="start" x="349.5" y="-29" font-family="Helvetica,sans-Serif" font-size="10.00">libs/TRK_MINNOW_DOLPHIN</text>
<text text-anchor="start" x="349.5" y="-18" font-family="Helvetica,sans-Serif" font-size="10.00">/Os/dolphin/dolphin_trk</text>
<text text-anchor="middle" x="417.5" y="-7" font-family="Helvetica,sans-Serif" font-size="10.00">_glue.c</text>
</a>
</g>
</g>
<!-- Node1&#45;&gt;Node4 -->
<g id="edge3" class="edge">
<title>Node1&#45;&gt;Node4</title>
<path fill="none" stroke="#63b8ff" d="M302.99,-72.02C325.39,-62.13 350.92,-50.87 372.18,-41.49"/>
<polygon fill="#63b8ff" stroke="#63b8ff" points="301.73,-68.75 294,-75.99 304.56,-75.15 301.73,-68.75"/>
</g>
</g>
</svg>
