<?xml version="1.0" encoding="UTF-8" standalone="no"?>
<!DOCTYPE svg PUBLIC "-//W3C//DTD SVG 1.1//EN"
 "http://www.w3.org/Graphics/SVG/1.1/DTD/svg11.dtd">
<!-- Generated by graphviz version 2.47.0 (20210316.2052)
 -->
<!-- Title: src/f/f_op/f_op_view.cpp Pages: 1 -->
<svg width="753pt" height="263pt"
 viewBox="0.00 0.00 752.57 263.00" xmlns="http://www.w3.org/2000/svg" xmlns:xlink="http://www.w3.org/1999/xlink">
<g id="graph0" class="graph" transform="scale(1 1) rotate(0) translate(4 259)">
<title>src/f/f_op/f_op_view.cpp</title>
<polygon fill="white" stroke="transparent" points="-4,4 -4,-259 748.57,-259 748.57,4 -4,4"/>
<!-- Node1 -->
<g id="node1" class="node">
<title>Node1</title>
<g id="a_node1"><a xlink:title=" ">
<polygon fill="#bfbfbf" stroke="black" points="308.07,-235.5 308.07,-254.5 431.07,-254.5 431.07,-235.5 308.07,-235.5"/>
<text text-anchor="middle" x="369.57" y="-242.5" font-family="Helvetica,sans-Serif" font-size="10.00">src/f/f_op/f_op_view.cpp</text>
</a>
</g>
</g>
<!-- Node2 -->
<g id="node2" class="node">
<title>Node2</title>
<g id="a_node2"><a xlink:href="global_8h.html" target="_top" xlink:title=" ">
<polygon fill="white" stroke="black" points="54.57,-174 54.57,-193 104.57,-193 104.57,-174 54.57,-174"/>
<text text-anchor="middle" x="79.57" y="-181" font-family="Helvetica,sans-Serif" font-size="10.00">global.h</text>
</a>
</g>
</g>
<!-- Node1&#45;&gt;Node2 -->
<g id="edge1" class="edge">
<title>Node1&#45;&gt;Node2</title>
<path fill="none" stroke="midnightblue" d="M307.89,-237.18C255.46,-230.44 178.57,-218.29 113.57,-199 111.42,-198.36 109.23,-197.63 107.04,-196.84"/>
<polygon fill="midnightblue" stroke="midnightblue" points="108.23,-193.54 97.64,-193.11 105.65,-200.05 108.23,-193.54"/>
</g>
<!-- Node9 -->
<g id="node9" class="node">
<title>Node9</title>
<g id="a_node9"><a xlink:title=" ">
<polygon fill="white" stroke="#bfbfbf" points="122.57,-168.5 122.57,-198.5 232.57,-198.5 232.57,-168.5 122.57,-168.5"/>
<text text-anchor="start" x="130.57" y="-186.5" font-family="Helvetica,sans-Serif" font-size="10.00">f/f_op/f_op_view/asm</text>
<text text-anchor="middle" x="177.57" y="-175.5" font-family="Helvetica,sans-Serif" font-size="10.00">/func_8001F1A8.s</text>
</a>
</g>
</g>
<!-- Node1&#45;&gt;Node9 -->
<g id="edge12" class="edge">
<title>Node1&#45;&gt;Node9</title>
<path fill="none" stroke="midnightblue" d="M342.06,-235.48C313.63,-226.66 268.47,-212.67 232.65,-201.57"/>
<polygon fill="midnightblue" stroke="midnightblue" points="233.41,-198.14 222.82,-198.52 231.34,-204.83 233.41,-198.14"/>
</g>
<!-- Node10 -->
<g id="node10" class="node">
<title>Node10</title>
<g id="a_node10"><a xlink:title=" ">
<polygon fill="white" stroke="#bfbfbf" points="250.57,-168.5 250.57,-198.5 360.57,-198.5 360.57,-168.5 250.57,-168.5"/>
<text text-anchor="start" x="258.57" y="-186.5" font-family="Helvetica,sans-Serif" font-size="10.00">f/f_op/f_op_view/asm</text>
<text text-anchor="middle" x="305.57" y="-175.5" font-family="Helvetica,sans-Serif" font-size="10.00">/func_8001F1D0.s</text>
</a>
</g>
</g>
<!-- Node1&#45;&gt;Node10 -->
<g id="edge13" class="edge">
<title>Node1&#45;&gt;Node10</title>
<path fill="none" stroke="midnightblue" d="M360.4,-235.48C351.98,-227.64 339.15,-215.71 328.02,-205.37"/>
<polygon fill="midnightblue" stroke="midnightblue" points="330.36,-202.77 320.66,-198.52 325.6,-207.9 330.36,-202.77"/>
</g>
<!-- Node11 -->
<g id="node11" class="node">
<title>Node11</title>
<g id="a_node11"><a xlink:title=" ">
<polygon fill="white" stroke="#bfbfbf" points="378.57,-168.5 378.57,-198.5 488.57,-198.5 488.57,-168.5 378.57,-168.5"/>
<text text-anchor="start" x="386.57" y="-186.5" font-family="Helvetica,sans-Serif" font-size="10.00">f/f_op/f_op_view/asm</text>
<text text-anchor="middle" x="433.57" y="-175.5" font-family="Helvetica,sans-Serif" font-size="10.00">/func_8001F1F8.s</text>
</a>
</g>
</g>
<!-- Node1&#45;&gt;Node11 -->
<g id="edge14" class="edge">
<title>Node1&#45;&gt;Node11</title>
<path fill="none" stroke="midnightblue" d="M378.74,-235.48C387.17,-227.64 400,-215.71 411.13,-205.37"/>
<polygon fill="midnightblue" stroke="midnightblue" points="413.55,-207.9 418.49,-198.52 408.78,-202.77 413.55,-207.9"/>
</g>
<!-- Node12 -->
<g id="node12" class="node">
<title>Node12</title>
<g id="a_node12"><a xlink:title=" ">
<polygon fill="white" stroke="#bfbfbf" points="506.57,-168.5 506.57,-198.5 616.57,-198.5 616.57,-168.5 506.57,-168.5"/>
<text text-anchor="start" x="514.57" y="-186.5" font-family="Helvetica,sans-Serif" font-size="10.00">f/f_op/f_op_view/asm</text>
<text text-anchor="middle" x="561.57" y="-175.5" font-family="Helvetica,sans-Serif" font-size="10.00">/func_8001F220.s</text>
</a>
</g>
</g>
<!-- Node1&#45;&gt;Node12 -->
<g id="edge15" class="edge">
<title>Node1&#45;&gt;Node12</title>
<path fill="none" stroke="midnightblue" d="M397.08,-235.48C425.52,-226.66 470.68,-212.67 506.49,-201.57"/>
<polygon fill="midnightblue" stroke="midnightblue" points="507.81,-204.83 516.32,-198.52 505.73,-198.14 507.81,-204.83"/>
</g>
<!-- Node13 -->
<g id="node13" class="node">
<title>Node13</title>
<g id="a_node13"><a xlink:title=" ">
<polygon fill="white" stroke="#bfbfbf" points="634.57,-168.5 634.57,-198.5 744.57,-198.5 744.57,-168.5 634.57,-168.5"/>
<text text-anchor="start" x="642.57" y="-186.5" font-family="Helvetica,sans-Serif" font-size="10.00">f/f_op/f_op_view/asm</text>
<text text-anchor="middle" x="689.57" y="-175.5" font-family="Helvetica,sans-Serif" font-size="10.00">/func_8001F248.s</text>
</a>
</g>
</g>
<!-- Node1&#45;&gt;Node13 -->
<g id="edge16" class="edge">
<title>Node1&#45;&gt;Node13</title>
<path fill="none" stroke="midnightblue" d="M422.67,-235.44C472.31,-227.27 548.75,-214.23 624.29,-199.2"/>
<polygon fill="midnightblue" stroke="midnightblue" points="625.33,-202.56 634.45,-197.17 623.96,-195.7 625.33,-202.56"/>
</g>
<!-- Node3 -->
<g id="node3" class="node">
<title>Node3</title>
<g id="a_node3"><a xlink:href="types_8h.html" target="_top" xlink:title=" ">
<polygon fill="white" stroke="black" points="72.07,-0.5 72.07,-19.5 153.07,-19.5 153.07,-0.5 72.07,-0.5"/>
<text text-anchor="middle" x="112.57" y="-7.5" font-family="Helvetica,sans-Serif" font-size="10.00">dolphin/types.h</text>
</a>
</g>
</g>
<!-- Node2&#45;&gt;Node3 -->
<g id="edge2" class="edge">
<title>Node2&#45;&gt;Node3</title>
<path fill="none" stroke="midnightblue" d="M67.96,-173.99C41.15,-153.28 -20.67,-98.83 7.57,-56 19.87,-37.35 41.68,-26.4 62.25,-19.98"/>
<polygon fill="midnightblue" stroke="midnightblue" points="63.21,-23.35 71.88,-17.26 61.31,-16.61 63.21,-23.35"/>
</g>
<!-- Node4 -->
<g id="node4" class="node">
<title>Node4</title>
<g id="a_node4"><a xlink:href="AR_8h.html" target="_top" xlink:title=" ">
<polygon fill="white" stroke="black" points="17.07,-56.5 17.07,-75.5 66.07,-75.5 66.07,-56.5 17.07,-56.5"/>
<text text-anchor="middle" x="41.57" y="-63.5" font-family="Helvetica,sans-Serif" font-size="10.00">ar/AR.h</text>
</a>
</g>
</g>
<!-- Node2&#45;&gt;Node4 -->
<g id="edge3" class="edge">
<title>Node2&#45;&gt;Node4</title>
<path fill="none" stroke="midnightblue" d="M76.72,-173.82C70.55,-155.09 55.9,-110.55 47.59,-85.29"/>
<polygon fill="midnightblue" stroke="midnightblue" points="50.91,-84.19 44.46,-75.78 44.26,-86.37 50.91,-84.19"/>
</g>
<!-- Node5 -->
<g id="node5" class="node">
<title>Node5</title>
<g id="a_node5"><a xlink:href="ARQ_8h.html" target="_top" xlink:title=" ">
<polygon fill="white" stroke="black" points="84.57,-56.5 84.57,-75.5 140.57,-75.5 140.57,-56.5 84.57,-56.5"/>
<text text-anchor="middle" x="112.57" y="-63.5" font-family="Helvetica,sans-Serif" font-size="10.00">ar/ARQ.h</text>
</a>
</g>
</g>
<!-- Node2&#45;&gt;Node5 -->
<g id="edge5" class="edge">
<title>Node2&#45;&gt;Node5</title>
<path fill="none" stroke="midnightblue" d="M81.81,-173.79C85.25,-160.44 92.14,-134.16 98.57,-112 101.14,-103.15 104.16,-93.37 106.73,-85.2"/>
<polygon fill="midnightblue" stroke="midnightblue" points="110.09,-86.19 109.79,-75.6 103.42,-84.07 110.09,-86.19"/>
</g>
<!-- Node6 -->
<g id="node6" class="node">
<title>Node6</title>
<g id="a_node6"><a xlink:href="mwcc_8h.html" target="_top" xlink:title=" ">
<polygon fill="white" stroke="black" points="107.57,-112.5 107.57,-131.5 157.57,-131.5 157.57,-112.5 107.57,-112.5"/>
<text text-anchor="middle" x="132.57" y="-119.5" font-family="Helvetica,sans-Serif" font-size="10.00">mwcc.h</text>
</a>
</g>
</g>
<!-- Node2&#45;&gt;Node6 -->
<g id="edge7" class="edge">
<title>Node2&#45;&gt;Node6</title>
<path fill="none" stroke="midnightblue" d="M87.17,-173.98C95.27,-164.87 108.31,-150.24 118.34,-138.98"/>
<polygon fill="midnightblue" stroke="midnightblue" points="120.95,-141.3 124.99,-131.51 115.73,-136.65 120.95,-141.3"/>
</g>
<!-- Node7 -->
<g id="node7" class="node">
<title>Node7</title>
<g id="a_node7"><a xlink:href="OS_8h.html" target="_top" xlink:title=" ">
<polygon fill="white" stroke="black" points="175.57,-112.5 175.57,-131.5 227.57,-131.5 227.57,-112.5 175.57,-112.5"/>
<text text-anchor="middle" x="201.57" y="-119.5" font-family="Helvetica,sans-Serif" font-size="10.00">os/OS.h</text>
</a>
</g>
</g>
<!-- Node2&#45;&gt;Node7 -->
<g id="edge8" class="edge">
<title>Node2&#45;&gt;Node7</title>
<path fill="none" stroke="midnightblue" d="M97.05,-173.98C117.44,-164.03 151.35,-147.49 175,-135.96"/>
<polygon fill="midnightblue" stroke="midnightblue" points="176.67,-139.04 184.13,-131.51 173.6,-132.75 176.67,-139.04"/>
</g>
<!-- Node4&#45;&gt;Node3 -->
<g id="edge4" class="edge">
<title>Node4&#45;&gt;Node3</title>
<path fill="none" stroke="midnightblue" d="M52.98,-56.32C63.68,-48.18 79.91,-35.84 92.74,-26.09"/>
<polygon fill="midnightblue" stroke="midnightblue" points="95.12,-28.67 100.96,-19.83 90.88,-23.1 95.12,-28.67"/>
</g>
<!-- Node5&#45;&gt;Node3 -->
<g id="edge6" class="edge">
<title>Node5&#45;&gt;Node3</title>
<path fill="none" stroke="midnightblue" d="M112.57,-56.08C112.57,-49.01 112.57,-38.86 112.57,-29.99"/>
<polygon fill="midnightblue" stroke="midnightblue" points="116.07,-29.75 112.57,-19.75 109.07,-29.75 116.07,-29.75"/>
</g>
<!-- Node7&#45;&gt;Node3 -->
<g id="edge9" class="edge">
<title>Node7&#45;&gt;Node3</title>
<path fill="none" stroke="midnightblue" d="M194.54,-112.14C184.59,-99.6 165.78,-75.98 149.57,-56 141.83,-46.46 133.1,-35.83 126.07,-27.31"/>
<polygon fill="midnightblue" stroke="midnightblue" points="128.77,-25.08 119.7,-19.6 123.37,-29.54 128.77,-25.08"/>
</g>
<!-- Node8 -->
<g id="node8" class="node">
<title>Node8</title>
<g id="a_node8"><a xlink:href="dvd_8h.html" target="_top" xlink:title=" ">
<polygon fill="white" stroke="black" points="197.07,-56.5 197.07,-75.5 256.07,-75.5 256.07,-56.5 197.07,-56.5"/>
<text text-anchor="middle" x="226.57" y="-63.5" font-family="Helvetica,sans-Serif" font-size="10.00">dvd/dvd.h</text>
</a>
</g>
</g>
<!-- Node7&#45;&gt;Node8 -->
<g id="edge10" class="edge">
<title>Node7&#45;&gt;Node8</title>
<path fill="none" stroke="midnightblue" d="M205.7,-112.08C209.09,-104.77 213.99,-94.18 218.19,-85.1"/>
<polygon fill="midnightblue" stroke="midnightblue" points="221.5,-86.3 222.52,-75.75 215.14,-83.36 221.5,-86.3"/>
</g>
<!-- Node8&#45;&gt;Node3 -->
<g id="edge11" class="edge">
<title>Node8&#45;&gt;Node3</title>
<path fill="none" stroke="midnightblue" d="M208.51,-56.44C190,-47.68 160.99,-33.94 139.72,-23.86"/>
<polygon fill="midnightblue" stroke="midnightblue" points="141.09,-20.63 130.55,-19.52 138.09,-26.96 141.09,-20.63"/>
</g>
</g>
</svg>
