<?xml version="1.0" encoding="UTF-8" standalone="no"?>
<!DOCTYPE svg PUBLIC "-//W3C//DTD SVG 1.1//EN"
 "http://www.w3.org/Graphics/SVG/1.1/DTD/svg11.dtd">
<!-- Generated by graphviz version 2.46.1 (20210215.1649)
 -->
<!-- Title: src/f/f_op/f_op_overlap_mng.cpp Pages: 1 -->
<svg width="1031pt" height="1012pt"
 viewBox="0.00 0.00 1031.00 1012.00" xmlns="http://www.w3.org/2000/svg" xmlns:xlink="http://www.w3.org/1999/xlink">
<g id="graph0" class="graph" transform="scale(1 1) rotate(0) translate(4 1008)">
<title>src/f/f_op/f_op_overlap_mng.cpp</title>
<polygon fill="white" stroke="transparent" points="-4,4 -4,-1008 1027,-1008 1027,4 -4,4"/>
<!-- Node1 -->
<g id="node1" class="node">
<title>Node1</title>
<g id="a_node1"><a xlink:title=" ">
<polygon fill="#bfbfbf" stroke="black" points="745,-973.5 745,-1003.5 861,-1003.5 861,-973.5 745,-973.5"/>
<text text-anchor="start" x="753" y="-991.5" font-family="Helvetica,sans-Serif" font-size="10.00">src/f/f_op/f_op_overlap</text>
<text text-anchor="middle" x="803" y="-980.5" font-family="Helvetica,sans-Serif" font-size="10.00">_mng.cpp</text>
</a>
</g>
</g>
<!-- Node2 -->
<g id="node2" class="node">
<title>Node2</title>
<g id="a_node2"><a xlink:href="f__op__overlap__mng_8h.html" target="_top" xlink:title=" ">
<polygon fill="white" stroke="black" points="519,-906.5 519,-936.5 619,-936.5 619,-906.5 519,-906.5"/>
<text text-anchor="start" x="527" y="-924.5" font-family="Helvetica,sans-Serif" font-size="10.00">f/f_op/f_op_overlap</text>
<text text-anchor="middle" x="569" y="-913.5" font-family="Helvetica,sans-Serif" font-size="10.00">_mng.h</text>
</a>
</g>
</g>
<!-- Node1&#45;&gt;Node2 -->
<g id="edge1" class="edge">
<title>Node1&#45;&gt;Node2</title>
<path fill="none" stroke="midnightblue" d="M752.51,-973.48C716.38,-963.44 667.56,-949.88 629.37,-939.27"/>
<polygon fill="midnightblue" stroke="midnightblue" points="629.97,-935.8 619.4,-936.5 628.09,-942.55 629.97,-935.8"/>
</g>
<!-- Node3 -->
<g id="node3" class="node">
<title>Node3</title>
<g id="a_node3"><a xlink:href="c__request_8h.html" target="_top" xlink:title=" ">
<polygon fill="white" stroke="black" points="511,-850.5 511,-869.5 637,-869.5 637,-850.5 511,-850.5"/>
<text text-anchor="middle" x="574" y="-857.5" font-family="Helvetica,sans-Serif" font-size="10.00">SComponent/c_request.h</text>
</a>
</g>
</g>
<!-- Node1&#45;&gt;Node3 -->
<g id="edge65" class="edge">
<title>Node1&#45;&gt;Node3</title>
<path fill="none" stroke="midnightblue" d="M752.7,-973.46C725.98,-964.91 693.14,-952.6 666,-937 663.95,-935.82 618.18,-897.79 591.99,-875.99"/>
<polygon fill="midnightblue" stroke="midnightblue" points="594.17,-873.25 584.25,-869.54 589.7,-878.63 594.17,-873.25"/>
</g>
<!-- Node9 -->
<g id="node9" class="node">
<title>Node9</title>
<g id="a_node9"><a xlink:href="global_8h.html" target="_top" xlink:title=" ">
<polygon fill="white" stroke="black" points="426,-380.5 426,-399.5 476,-399.5 476,-380.5 426,-380.5"/>
<text text-anchor="middle" x="451" y="-387.5" font-family="Helvetica,sans-Serif" font-size="10.00">global.h</text>
</a>
</g>
</g>
<!-- Node1&#45;&gt;Node9 -->
<g id="edge75" class="edge">
<title>Node1&#45;&gt;Node9</title>
<path fill="none" stroke="midnightblue" d="M810.15,-973.5C821.16,-950.59 841,-903.42 841,-861 841,-861 841,-861 841,-501 841,-467.08 829.49,-454.4 801,-436 749.52,-402.74 564.7,-393.98 486.42,-391.74"/>
<polygon fill="midnightblue" stroke="midnightblue" points="486.2,-388.24 476.11,-391.47 486.02,-395.23 486.2,-388.24"/>
</g>
<!-- Node31 -->
<g id="node31" class="node">
<title>Node31</title>
<g id="a_node31"><a xlink:href="f__op__overlap__req_8h.html" target="_top" xlink:title=" ">
<polygon fill="white" stroke="black" points="675,-906.5 675,-936.5 775,-936.5 775,-906.5 675,-906.5"/>
<text text-anchor="start" x="683" y="-924.5" font-family="Helvetica,sans-Serif" font-size="10.00">f/f_op/f_op_overlap</text>
<text text-anchor="middle" x="725" y="-913.5" font-family="Helvetica,sans-Serif" font-size="10.00">_req.h</text>
</a>
</g>
</g>
<!-- Node1&#45;&gt;Node31 -->
<g id="edge66" class="edge">
<title>Node1&#45;&gt;Node31</title>
<path fill="none" stroke="midnightblue" d="M786.08,-973.4C775.45,-964.54 761.55,-952.96 749.7,-943.09"/>
<polygon fill="midnightblue" stroke="midnightblue" points="751.81,-940.29 741.89,-936.58 747.33,-945.67 751.81,-940.29"/>
</g>
<!-- Node32 -->
<g id="node32" class="node">
<title>Node32</title>
<g id="a_node32"><a xlink:href="f__op__scene__pause_8h.html" target="_top" xlink:title=" ">
<polygon fill="white" stroke="black" points="869,-604.5 869,-623.5 1003,-623.5 1003,-604.5 869,-604.5"/>
<text text-anchor="middle" x="936" y="-611.5" font-family="Helvetica,sans-Serif" font-size="10.00">f/f_op/f_op_scene_pause.h</text>
</a>
</g>
</g>
<!-- Node1&#45;&gt;Node32 -->
<g id="edge69" class="edge">
<title>Node1&#45;&gt;Node32</title>
<path fill="none" stroke="midnightblue" d="M821.64,-973.38C832.72,-964.12 846.28,-951.14 855,-937 873.6,-906.86 879,-896.42 879,-861 879,-861 879,-861 879,-741.5 879,-698.97 906.11,-654.93 922.94,-631.7"/>
<polygon fill="midnightblue" stroke="midnightblue" points="925.82,-633.7 929.01,-623.6 920.21,-629.5 925.82,-633.7"/>
</g>
<!-- Node33 -->
<g id="node33" class="node">
<title>Node33</title>
<g id="a_node33"><a xlink:href="f__pc__executor_8h.html" target="_top" xlink:title=" ">
<polygon fill="white" stroke="black" points="661.5,-850.5 661.5,-869.5 774.5,-869.5 774.5,-850.5 661.5,-850.5"/>
<text text-anchor="middle" x="718" y="-857.5" font-family="Helvetica,sans-Serif" font-size="10.00">f/f_pc/f_pc_executor.h</text>
</a>
</g>
</g>
<!-- Node1&#45;&gt;Node33 -->
<g id="edge71" class="edge">
<title>Node1&#45;&gt;Node33</title>
<path fill="none" stroke="midnightblue" d="M802.75,-973.29C801.8,-955.97 798.04,-926.49 784,-906 774.7,-892.43 759.85,-881.77 746.59,-874.24"/>
<polygon fill="midnightblue" stroke="midnightblue" points="748.22,-871.15 737.75,-869.53 744.93,-877.32 748.22,-871.15"/>
</g>
<!-- Node35 -->
<g id="node35" class="node">
<title>Node35</title>
<g id="a_node35"><a xlink:title=" ">
<polygon fill="white" stroke="#bfbfbf" points="907,-906.5 907,-936.5 1023,-936.5 1023,-906.5 907,-906.5"/>
<text text-anchor="start" x="915" y="-924.5" font-family="Helvetica,sans-Serif" font-size="10.00">f/f_op_overlap_mng</text>
<text text-anchor="middle" x="965" y="-913.5" font-family="Helvetica,sans-Serif" font-size="10.00">/asm/func_8001E504.s</text>
</a>
</g>
</g>
<!-- Node1&#45;&gt;Node35 -->
<g id="edge76" class="edge">
<title>Node1&#45;&gt;Node35</title>
<path fill="none" stroke="midnightblue" d="M838.15,-973.4C862.25,-963.73 894.41,-950.82 920.32,-940.43"/>
<polygon fill="midnightblue" stroke="midnightblue" points="921.94,-943.55 929.92,-936.58 919.33,-937.05 921.94,-943.55"/>
</g>
<!-- Node2&#45;&gt;Node3 -->
<g id="edge2" class="edge">
<title>Node2&#45;&gt;Node3</title>
<path fill="none" stroke="midnightblue" d="M570.18,-906.4C570.85,-898.47 571.69,-888.46 572.42,-879.86"/>
<polygon fill="midnightblue" stroke="midnightblue" points="575.92,-879.92 573.27,-869.66 568.95,-879.33 575.92,-879.92"/>
</g>
<!-- Node4 -->
<g id="node4" class="node">
<title>Node4</title>
<g id="a_node4"><a xlink:href="types_8h.html" target="_top" xlink:title=" ">
<polygon fill="white" stroke="black" points="420.5,-0.5 420.5,-19.5 501.5,-19.5 501.5,-0.5 420.5,-0.5"/>
<text text-anchor="middle" x="461" y="-7.5" font-family="Helvetica,sans-Serif" font-size="10.00">dolphin/types.h</text>
</a>
</g>
</g>
<!-- Node2&#45;&gt;Node4 -->
<g id="edge64" class="edge">
<title>Node2&#45;&gt;Node4</title>
<path fill="none" stroke="midnightblue" d="M518.51,-920.9C379.25,-920.66 0,-910.34 0,-805 0,-805 0,-805 0,-137.5 0,-87.36 33.12,-78.36 78,-56 135.2,-27.51 320.05,-16.49 410.38,-12.72"/>
<polygon fill="midnightblue" stroke="midnightblue" points="410.54,-16.22 420.39,-12.32 410.26,-9.22 410.54,-16.22"/>
</g>
<!-- Node3&#45;&gt;Node4 -->
<g id="edge3" class="edge">
<title>Node3&#45;&gt;Node4</title>
<path fill="none" stroke="midnightblue" d="M510.94,-858.55C369.25,-855.85 38,-839.29 38,-743.5 38,-743.5 38,-743.5 38,-137.5 38,-60.57 298.08,-26.51 410.37,-15.38"/>
<polygon fill="midnightblue" stroke="midnightblue" points="410.82,-18.86 420.44,-14.41 410.15,-11.89 410.82,-18.86"/>
</g>
<!-- Node5 -->
<g id="node5" class="node">
<title>Node5</title>
<g id="a_node5"><a xlink:href="f__pc__base_8h.html" target="_top" xlink:title=" ">
<polygon fill="white" stroke="black" points="525.5,-794.5 525.5,-813.5 622.5,-813.5 622.5,-794.5 525.5,-794.5"/>
<text text-anchor="middle" x="574" y="-801.5" font-family="Helvetica,sans-Serif" font-size="10.00">f/f_pc/f_pc_base.h</text>
</a>
</g>
</g>
<!-- Node3&#45;&gt;Node5 -->
<g id="edge4" class="edge">
<title>Node3&#45;&gt;Node5</title>
<path fill="none" stroke="midnightblue" d="M574,-850.08C574,-843.01 574,-832.86 574,-823.99"/>
<polygon fill="midnightblue" stroke="midnightblue" points="577.5,-823.75 574,-813.75 570.5,-823.75 577.5,-823.75"/>
</g>
<!-- Node6 -->
<g id="node6" class="node">
<title>Node6</title>
<g id="a_node6"><a xlink:href="c__tag_8h.html" target="_top" xlink:title=" ">
<polygon fill="white" stroke="black" points="273.5,-604.5 273.5,-623.5 380.5,-623.5 380.5,-604.5 273.5,-604.5"/>
<text text-anchor="middle" x="327" y="-611.5" font-family="Helvetica,sans-Serif" font-size="10.00">SComponent/c_tag.h</text>
</a>
</g>
</g>
<!-- Node5&#45;&gt;Node6 -->
<g id="edge5" class="edge">
<title>Node5&#45;&gt;Node6</title>
<path fill="none" stroke="midnightblue" d="M525.31,-797.51C493.15,-791.88 451.48,-780.58 421,-758 376.16,-724.77 346.51,-663.31 333.9,-632.94"/>
<polygon fill="midnightblue" stroke="midnightblue" points="337.13,-631.58 330.16,-623.59 330.63,-634.18 337.13,-631.58"/>
</g>
<!-- Node5&#45;&gt;Node9 -->
<g id="edge39" class="edge">
<title>Node5&#45;&gt;Node9</title>
<path fill="none" stroke="midnightblue" d="M585.16,-794.29C606.17,-777.15 651.17,-736.7 670,-691 694.26,-632.12 708.63,-604.37 679,-548 638.04,-470.06 538.95,-423.27 485.9,-402.96"/>
<polygon fill="midnightblue" stroke="midnightblue" points="486.83,-399.58 476.24,-399.36 484.39,-406.14 486.83,-399.58"/>
</g>
<!-- Node23 -->
<g id="node23" class="node">
<title>Node23</title>
<g id="a_node23"><a xlink:href="f__pc__delete__tag_8h.html" target="_top" xlink:title=" ">
<polygon fill="white" stroke="black" points="241.5,-727.5 241.5,-757.5 336.5,-757.5 336.5,-727.5 241.5,-727.5"/>
<text text-anchor="start" x="249.5" y="-745.5" font-family="Helvetica,sans-Serif" font-size="10.00">f/f_pc/f_pc_delete</text>
<text text-anchor="middle" x="289" y="-734.5" font-family="Helvetica,sans-Serif" font-size="10.00">_tag.h</text>
</a>
</g>
</g>
<!-- Node5&#45;&gt;Node23 -->
<g id="edge40" class="edge">
<title>Node5&#45;&gt;Node23</title>
<path fill="none" stroke="midnightblue" d="M529.49,-794.43C484.42,-785.66 412.75,-771.45 351,-758 349.55,-757.68 348.08,-757.36 346.6,-757.03"/>
<polygon fill="midnightblue" stroke="midnightblue" points="347.22,-753.59 336.69,-754.81 345.68,-760.42 347.22,-753.59"/>
</g>
<!-- Node25 -->
<g id="node25" class="node">
<title>Node25</title>
<g id="a_node25"><a xlink:href="f__pc__layer__tag_8h.html" target="_top" xlink:title=" ">
<polygon fill="white" stroke="black" points="108.5,-733 108.5,-752 223.5,-752 223.5,-733 108.5,-733"/>
<text text-anchor="middle" x="166" y="-740" font-family="Helvetica,sans-Serif" font-size="10.00">f/f_pc/f_pc_layer_tag.h</text>
</a>
</g>
</g>
<!-- Node5&#45;&gt;Node25 -->
<g id="edge48" class="edge">
<title>Node5&#45;&gt;Node25</title>
<path fill="none" stroke="midnightblue" d="M525.38,-797.93C458.88,-790.69 335.96,-776.23 232,-758 225.63,-756.88 218.94,-755.58 212.37,-754.21"/>
<polygon fill="midnightblue" stroke="midnightblue" points="212.71,-750.7 202.2,-752.04 211.25,-757.55 212.71,-750.7"/>
</g>
<!-- Node26 -->
<g id="node26" class="node">
<title>Node26</title>
<g id="a_node26"><a xlink:href="f__pc__line__tag_8h.html" target="_top" xlink:title=" ">
<polygon fill="white" stroke="black" points="551,-666 551,-685 661,-685 661,-666 551,-666"/>
<text text-anchor="middle" x="606" y="-673" font-family="Helvetica,sans-Serif" font-size="10.00">f/f_pc/f_pc_line_tag.h</text>
</a>
</g>
</g>
<!-- Node5&#45;&gt;Node26 -->
<g id="edge52" class="edge">
<title>Node5&#45;&gt;Node26</title>
<path fill="none" stroke="midnightblue" d="M576.2,-794.31C581.34,-773.99 594.22,-723.05 601.25,-695.28"/>
<polygon fill="midnightblue" stroke="midnightblue" points="604.73,-695.81 603.79,-685.26 597.94,-694.09 604.73,-695.81"/>
</g>
<!-- Node27 -->
<g id="node27" class="node">
<title>Node27</title>
<g id="a_node27"><a xlink:href="f__pc__priority_8h.html" target="_top" xlink:title=" ">
<polygon fill="white" stroke="black" points="430,-733 430,-752 534,-752 534,-733 430,-733"/>
<text text-anchor="middle" x="482" y="-740" font-family="Helvetica,sans-Serif" font-size="10.00">f/f_pc/f_pc_priority.h</text>
</a>
</g>
</g>
<!-- Node5&#45;&gt;Node27 -->
<g id="edge55" class="edge">
<title>Node5&#45;&gt;Node27</title>
<path fill="none" stroke="midnightblue" d="M560.82,-794.48C545.93,-784.84 521.46,-769.02 503.73,-757.55"/>
<polygon fill="midnightblue" stroke="midnightblue" points="505.45,-754.5 495.16,-752.01 501.65,-760.38 505.45,-754.5"/>
</g>
<!-- Node29 -->
<g id="node29" class="node">
<title>Node29</title>
<g id="a_node29"><a xlink:href="f__pc__profile_8h.html" target="_top" xlink:title=" ">
<polygon fill="white" stroke="black" points="711.5,-492.5 711.5,-511.5 812.5,-511.5 812.5,-492.5 711.5,-492.5"/>
<text text-anchor="middle" x="762" y="-499.5" font-family="Helvetica,sans-Serif" font-size="10.00">f/f_pc/f_pc_profile.h</text>
</a>
</g>
</g>
<!-- Node5&#45;&gt;Node29 -->
<g id="edge60" class="edge">
<title>Node5&#45;&gt;Node29</title>
<path fill="none" stroke="midnightblue" d="M622.66,-797.58C649.97,-792.02 682.57,-780.78 703,-758 764.82,-689.09 765.61,-568.36 763.36,-521.93"/>
<polygon fill="midnightblue" stroke="midnightblue" points="766.84,-521.58 762.75,-511.8 759.86,-522 766.84,-521.58"/>
</g>
<!-- Node7 -->
<g id="node7" class="node">
<title>Node7</title>
<g id="a_node7"><a xlink:href="c__list_8h.html" target="_top" xlink:title=" ">
<polygon fill="white" stroke="black" points="220.5,-492.5 220.5,-511.5 327.5,-511.5 327.5,-492.5 220.5,-492.5"/>
<text text-anchor="middle" x="274" y="-499.5" font-family="Helvetica,sans-Serif" font-size="10.00">SComponent/c_list.h</text>
</a>
</g>
</g>
<!-- Node6&#45;&gt;Node7 -->
<g id="edge6" class="edge">
<title>Node6&#45;&gt;Node7</title>
<path fill="none" stroke="midnightblue" d="M323.64,-604.46C318.64,-591.92 308.76,-567.85 299,-548 294.47,-538.78 288.96,-528.76 284.27,-520.52"/>
<polygon fill="midnightblue" stroke="midnightblue" points="287.28,-518.73 279.25,-511.82 281.22,-522.23 287.28,-518.73"/>
</g>
<!-- Node8 -->
<g id="node8" class="node">
<title>Node8</title>
<g id="a_node8"><a xlink:href="c__node_8h.html" target="_top" xlink:title=" ">
<polygon fill="white" stroke="black" points="233.5,-436.5 233.5,-455.5 348.5,-455.5 348.5,-436.5 233.5,-436.5"/>
<text text-anchor="middle" x="291" y="-443.5" font-family="Helvetica,sans-Serif" font-size="10.00">SComponent/c_node.h</text>
</a>
</g>
</g>
<!-- Node6&#45;&gt;Node8 -->
<g id="edge34" class="edge">
<title>Node6&#45;&gt;Node8</title>
<path fill="none" stroke="midnightblue" d="M330.21,-604.37C337.27,-583.92 352.28,-531.31 336,-492 331.08,-480.12 321.33,-469.74 312.17,-461.96"/>
<polygon fill="midnightblue" stroke="midnightblue" points="314.08,-459.01 304.06,-455.56 309.75,-464.51 314.08,-459.01"/>
</g>
<!-- Node6&#45;&gt;Node9 -->
<g id="edge38" class="edge">
<title>Node6&#45;&gt;Node9</title>
<path fill="none" stroke="midnightblue" d="M333.14,-604.25C339.27,-595.33 348.8,-581.01 356,-568 387.4,-511.3 384.9,-491.73 418,-436 423.81,-426.21 431.24,-415.93 437.58,-407.67"/>
<polygon fill="midnightblue" stroke="midnightblue" points="440.48,-409.64 443.9,-399.62 434.97,-405.32 440.48,-409.64"/>
</g>
<!-- Node22 -->
<g id="node22" class="node">
<title>Node22</title>
<g id="a_node22"><a xlink:href="c__tree_8h.html" target="_top" xlink:title=" ">
<polygon fill="white" stroke="black" points="180,-548.5 180,-567.5 290,-567.5 290,-548.5 180,-548.5"/>
<text text-anchor="middle" x="235" y="-555.5" font-family="Helvetica,sans-Serif" font-size="10.00">SComponent/c_tree.h</text>
</a>
</g>
</g>
<!-- Node6&#45;&gt;Node22 -->
<g id="edge35" class="edge">
<title>Node6&#45;&gt;Node22</title>
<path fill="none" stroke="midnightblue" d="M312.22,-604.32C297.73,-595.82 275.43,-582.73 258.51,-572.8"/>
<polygon fill="midnightblue" stroke="midnightblue" points="260.14,-569.7 249.74,-567.65 256.6,-575.74 260.14,-569.7"/>
</g>
<!-- Node7&#45;&gt;Node8 -->
<g id="edge7" class="edge">
<title>Node7&#45;&gt;Node8</title>
<path fill="none" stroke="midnightblue" d="M276.81,-492.08C279.08,-484.85 282.37,-474.41 285.21,-465.4"/>
<polygon fill="midnightblue" stroke="midnightblue" points="288.58,-466.34 288.25,-455.75 281.9,-464.24 288.58,-466.34"/>
</g>
<!-- Node8&#45;&gt;Node9 -->
<g id="edge8" class="edge">
<title>Node8&#45;&gt;Node9</title>
<path fill="none" stroke="midnightblue" d="M316.35,-436.44C343.27,-427.36 386,-412.94 416.09,-402.78"/>
<polygon fill="midnightblue" stroke="midnightblue" points="417.41,-406.03 425.77,-399.52 415.17,-399.4 417.41,-406.03"/>
</g>
<!-- Node9&#45;&gt;Node4 -->
<g id="edge9" class="edge">
<title>Node9&#45;&gt;Node4</title>
<path fill="none" stroke="midnightblue" d="M425.85,-388.12C365.23,-384.52 216,-366.24 216,-273.5 216,-273.5 216,-273.5 216,-137.5 216,-50.92 338.28,-23.54 410.06,-14.92"/>
<polygon fill="midnightblue" stroke="midnightblue" points="410.72,-18.37 420.27,-13.78 409.94,-11.41 410.72,-18.37"/>
</g>
<!-- Node10 -->
<g id="node10" class="node">
<title>Node10</title>
<g id="a_node10"><a xlink:href="AR_8h.html" target="_top" xlink:title=" ">
<polygon fill="white" stroke="black" points="244.5,-196 244.5,-215 293.5,-215 293.5,-196 244.5,-196"/>
<text text-anchor="middle" x="269" y="-203" font-family="Helvetica,sans-Serif" font-size="10.00">ar/AR.h</text>
</a>
</g>
</g>
<!-- Node9&#45;&gt;Node10 -->
<g id="edge10" class="edge">
<title>Node9&#45;&gt;Node10</title>
<path fill="none" stroke="midnightblue" d="M433.43,-380.48C404.09,-365.48 344.85,-331.76 309,-288 293.2,-268.71 281.66,-242.15 275.14,-224.66"/>
<polygon fill="midnightblue" stroke="midnightblue" points="278.38,-223.34 271.74,-215.09 271.79,-225.69 278.38,-223.34"/>
</g>
<!-- Node11 -->
<g id="node11" class="node">
<title>Node11</title>
<g id="a_node11"><a xlink:href="ARQ_8h.html" target="_top" xlink:title=" ">
<polygon fill="white" stroke="black" points="318,-263 318,-282 374,-282 374,-263 318,-263"/>
<text text-anchor="middle" x="346" y="-270" font-family="Helvetica,sans-Serif" font-size="10.00">ar/ARQ.h</text>
</a>
</g>
</g>
<!-- Node9&#45;&gt;Node11 -->
<g id="edge12" class="edge">
<title>Node9&#45;&gt;Node11</title>
<path fill="none" stroke="midnightblue" d="M440.81,-380.47C430.58,-371.72 414.59,-357.53 402,-344 385.77,-326.57 369.02,-304.91 358.12,-290.23"/>
<polygon fill="midnightblue" stroke="midnightblue" points="360.89,-288.09 352.15,-282.1 355.25,-292.23 360.89,-288.09"/>
</g>
<!-- Node12 -->
<g id="node12" class="node">
<title>Node12</title>
<g id="a_node12"><a xlink:href="mwcc_8h.html" target="_top" xlink:title=" ">
<polygon fill="white" stroke="black" points="699,-324.5 699,-343.5 749,-343.5 749,-324.5 699,-324.5"/>
<text text-anchor="middle" x="724" y="-331.5" font-family="Helvetica,sans-Serif" font-size="10.00">mwcc.h</text>
</a>
</g>
</g>
<!-- Node9&#45;&gt;Node12 -->
<g id="edge14" class="edge">
<title>Node9&#45;&gt;Node12</title>
<path fill="none" stroke="midnightblue" d="M476.12,-384.8C519.65,-377.4 611.84,-361.2 689,-344 689.1,-343.98 689.2,-343.96 689.3,-343.93"/>
<polygon fill="midnightblue" stroke="midnightblue" points="689.89,-347.39 698.81,-341.68 688.28,-340.58 689.89,-347.39"/>
</g>
<!-- Node13 -->
<g id="node13" class="node">
<title>Node13</title>
<g id="a_node13"><a xlink:href="OS_8h.html" target="_top" xlink:title=" ">
<polygon fill="white" stroke="black" points="373,-129 373,-148 425,-148 425,-129 373,-129"/>
<text text-anchor="middle" x="399" y="-136" font-family="Helvetica,sans-Serif" font-size="10.00">os/OS.h</text>
</a>
</g>
</g>
<!-- Node9&#45;&gt;Node13 -->
<g id="edge15" class="edge">
<title>Node9&#45;&gt;Node13</title>
<path fill="none" stroke="midnightblue" d="M449.21,-380.41C441.79,-344.8 413.33,-208.25 402.88,-158.11"/>
<polygon fill="midnightblue" stroke="midnightblue" points="406.25,-157.13 400.78,-148.05 399.4,-158.56 406.25,-157.13"/>
</g>
<!-- Node15 -->
<g id="node15" class="node">
<title>Node15</title>
<g id="a_node15"><a xlink:href="variables_8h.html" target="_top" xlink:title=" ">
<polygon fill="white" stroke="black" points="617.5,-324.5 617.5,-343.5 680.5,-343.5 680.5,-324.5 617.5,-324.5"/>
<text text-anchor="middle" x="649" y="-331.5" font-family="Helvetica,sans-Serif" font-size="10.00">variables.h</text>
</a>
</g>
</g>
<!-- Node9&#45;&gt;Node15 -->
<g id="edge19" class="edge">
<title>Node9&#45;&gt;Node15</title>
<path fill="none" stroke="midnightblue" d="M476.08,-382.16C509.27,-373.11 568.22,-357.03 607.95,-346.2"/>
<polygon fill="midnightblue" stroke="midnightblue" points="608.88,-349.57 617.61,-343.56 607.04,-342.82 608.88,-349.57"/>
</g>
<!-- Node10&#45;&gt;Node4 -->
<g id="edge11" class="edge">
<title>Node10&#45;&gt;Node4</title>
<path fill="none" stroke="midnightblue" d="M267.49,-195.78C263.64,-170.55 256.24,-96.7 293,-56 308.68,-38.64 366.91,-25.81 410.45,-18.39"/>
<polygon fill="midnightblue" stroke="midnightblue" points="411.04,-21.84 420.33,-16.75 409.89,-14.93 411.04,-21.84"/>
</g>
<!-- Node11&#45;&gt;Node4 -->
<g id="edge13" class="edge">
<title>Node11&#45;&gt;Node4</title>
<path fill="none" stroke="midnightblue" d="M341.43,-262.62C325.84,-230.99 278.33,-122.15 326,-56 345.06,-29.56 380.33,-18.42 410.05,-13.83"/>
<polygon fill="midnightblue" stroke="midnightblue" points="410.84,-17.26 420.29,-12.47 409.91,-10.32 410.84,-17.26"/>
</g>
<!-- Node13&#45;&gt;Node4 -->
<g id="edge16" class="edge">
<title>Node13&#45;&gt;Node4</title>
<path fill="none" stroke="midnightblue" d="M403.26,-128.81C413.3,-108.31 438.63,-56.65 452.16,-29.04"/>
<polygon fill="midnightblue" stroke="midnightblue" points="455.45,-30.28 456.71,-19.76 449.16,-27.19 455.45,-30.28"/>
</g>
<!-- Node14 -->
<g id="node14" class="node">
<title>Node14</title>
<g id="a_node14"><a xlink:href="dvd_8h.html" target="_top" xlink:title=" ">
<polygon fill="white" stroke="black" points="335.5,-62 335.5,-81 394.5,-81 394.5,-62 335.5,-62"/>
<text text-anchor="middle" x="365" y="-69" font-family="Helvetica,sans-Serif" font-size="10.00">dvd/dvd.h</text>
</a>
</g>
</g>
<!-- Node13&#45;&gt;Node14 -->
<g id="edge17" class="edge">
<title>Node13&#45;&gt;Node14</title>
<path fill="none" stroke="midnightblue" d="M394.41,-128.73C389.27,-118.89 380.78,-102.66 374.24,-90.16"/>
<polygon fill="midnightblue" stroke="midnightblue" points="377.25,-88.37 369.51,-81.13 371.05,-91.61 377.25,-88.37"/>
</g>
<!-- Node14&#45;&gt;Node4 -->
<g id="edge18" class="edge">
<title>Node14&#45;&gt;Node4</title>
<path fill="none" stroke="midnightblue" d="M378.75,-61.98C394.37,-52.3 420.06,-36.37 438.58,-24.89"/>
<polygon fill="midnightblue" stroke="midnightblue" points="440.62,-27.75 447.27,-19.51 436.93,-21.8 440.62,-27.75"/>
</g>
<!-- Node16 -->
<g id="node16" class="node">
<title>Node16</title>
<g id="a_node16"><a xlink:href="JSUList_8h.html" target="_top" xlink:title=" ">
<polygon fill="white" stroke="black" points="527,-56.5 527,-86.5 663,-86.5 663,-56.5 527,-56.5"/>
<text text-anchor="start" x="535" y="-74.5" font-family="Helvetica,sans-Serif" font-size="10.00">JSystem/JSupport/JSUList</text>
<text text-anchor="middle" x="595" y="-63.5" font-family="Helvetica,sans-Serif" font-size="10.00">/JSUList.h</text>
</a>
</g>
</g>
<!-- Node15&#45;&gt;Node16 -->
<g id="edge20" class="edge">
<title>Node15&#45;&gt;Node16</title>
<path fill="none" stroke="midnightblue" d="M650.74,-324.15C656.16,-294.38 670.71,-195.6 641,-123 636.53,-112.08 628.58,-102.01 620.54,-93.79"/>
<polygon fill="midnightblue" stroke="midnightblue" points="622.86,-91.17 613.22,-86.79 618.02,-96.23 622.86,-91.17"/>
</g>
<!-- Node17 -->
<g id="node17" class="node">
<title>Node17</title>
<g id="a_node17"><a xlink:href="JUTXfb_8h.html" target="_top" xlink:title=" ">
<polygon fill="white" stroke="black" points="677.5,-257.5 677.5,-287.5 802.5,-287.5 802.5,-257.5 677.5,-257.5"/>
<text text-anchor="start" x="685.5" y="-275.5" font-family="Helvetica,sans-Serif" font-size="10.00">JSystem/JUtility/JUTXfb</text>
<text text-anchor="middle" x="740" y="-264.5" font-family="Helvetica,sans-Serif" font-size="10.00">/JUTXfb.h</text>
</a>
</g>
</g>
<!-- Node15&#45;&gt;Node17 -->
<g id="edge22" class="edge">
<title>Node15&#45;&gt;Node17</title>
<path fill="none" stroke="midnightblue" d="M662.04,-324.48C674.48,-316.34 693.67,-303.79 709.9,-293.18"/>
<polygon fill="midnightblue" stroke="midnightblue" points="712.1,-295.92 718.55,-287.52 708.27,-290.07 712.1,-295.92"/>
</g>
<!-- Node21 -->
<g id="node21" class="node">
<title>Node21</title>
<g id="a_node21"><a xlink:href="mtx__vec_8h.html" target="_top" xlink:title=" ">
<polygon fill="white" stroke="black" points="789.5,-129 789.5,-148 850.5,-148 850.5,-129 789.5,-129"/>
<text text-anchor="middle" x="820" y="-136" font-family="Helvetica,sans-Serif" font-size="10.00">mtx_vec.h</text>
</a>
</g>
</g>
<!-- Node15&#45;&gt;Node21 -->
<g id="edge32" class="edge">
<title>Node15&#45;&gt;Node21</title>
<path fill="none" stroke="midnightblue" d="M680.74,-325.19C726.71,-313.73 806.82,-293.16 811,-288 841.38,-250.44 832.17,-188.5 825.01,-157.85"/>
<polygon fill="midnightblue" stroke="midnightblue" points="828.38,-156.91 822.54,-148.08 821.59,-158.63 828.38,-156.91"/>
</g>
<!-- Node16&#45;&gt;Node4 -->
<g id="edge21" class="edge">
<title>Node16&#45;&gt;Node4</title>
<path fill="none" stroke="midnightblue" d="M563.24,-56.4C540.96,-46.51 511.41,-33.38 489.81,-23.79"/>
<polygon fill="midnightblue" stroke="midnightblue" points="491.06,-20.52 480.5,-19.66 488.22,-26.91 491.06,-20.52"/>
</g>
<!-- Node17&#45;&gt;Node4 -->
<g id="edge29" class="edge">
<title>Node17&#45;&gt;Node4</title>
<path fill="none" stroke="midnightblue" d="M745.69,-257.25C759.83,-219.25 791.89,-114.38 741,-56 711.78,-22.48 584.42,-13.86 511.94,-11.69"/>
<polygon fill="midnightblue" stroke="midnightblue" points="511.75,-8.18 501.66,-11.41 511.56,-15.18 511.75,-8.18"/>
</g>
<!-- Node18 -->
<g id="node18" class="node">
<title>Node18</title>
<g id="a_node18"><a xlink:href="JKRHeap_8h.html" target="_top" xlink:title=" ">
<polygon fill="white" stroke="black" points="467,-190.5 467,-220.5 603,-220.5 603,-190.5 467,-190.5"/>
<text text-anchor="start" x="475" y="-208.5" font-family="Helvetica,sans-Serif" font-size="10.00">JSystem/JKernel/JKRHeap</text>
<text text-anchor="middle" x="535" y="-197.5" font-family="Helvetica,sans-Serif" font-size="10.00">/JKRHeap.h</text>
</a>
</g>
</g>
<!-- Node17&#45;&gt;Node18 -->
<g id="edge23" class="edge">
<title>Node17&#45;&gt;Node18</title>
<path fill="none" stroke="midnightblue" d="M695.77,-257.48C664.49,-247.56 622.36,-234.2 589.08,-223.65"/>
<polygon fill="midnightblue" stroke="midnightblue" points="590.09,-220.3 579.5,-220.61 587.98,-226.97 590.09,-220.3"/>
</g>
<!-- Node20 -->
<g id="node20" class="node">
<title>Node20</title>
<g id="a_node20"><a xlink:href="GX_8h.html" target="_top" xlink:title=" ">
<polygon fill="white" stroke="black" points="681.5,-62 681.5,-81 732.5,-81 732.5,-62 681.5,-62"/>
<text text-anchor="middle" x="707" y="-69" font-family="Helvetica,sans-Serif" font-size="10.00">gx/GX.h</text>
</a>
</g>
</g>
<!-- Node17&#45;&gt;Node20 -->
<g id="edge30" class="edge">
<title>Node17&#45;&gt;Node20</title>
<path fill="none" stroke="midnightblue" d="M737.63,-257.19C731.78,-221.91 716.66,-130.78 710.11,-91.25"/>
<polygon fill="midnightblue" stroke="midnightblue" points="713.56,-90.65 708.47,-81.36 706.65,-91.8 713.56,-90.65"/>
</g>
<!-- Node18&#45;&gt;Node4 -->
<g id="edge27" class="edge">
<title>Node18&#45;&gt;Node4</title>
<path fill="none" stroke="midnightblue" d="M508.5,-190.33C495.15,-181.7 480.12,-169.37 472,-154 450.84,-113.94 454.2,-58.6 457.92,-29.92"/>
<polygon fill="midnightblue" stroke="midnightblue" points="461.43,-30.1 459.41,-19.7 454.5,-29.09 461.43,-30.1"/>
</g>
<!-- Node18&#45;&gt;Node9 -->
<g id="edge28" class="edge">
<title>Node18&#45;&gt;Node9</title>
<path fill="none" stroke="midnightblue" d="M528.47,-220.69C513.37,-253.49 476.1,-334.48 459.36,-370.83"/>
<polygon fill="midnightblue" stroke="midnightblue" points="456.05,-369.65 455.05,-380.2 462.41,-372.58 456.05,-369.65"/>
</g>
<!-- Node19 -->
<g id="node19" class="node">
<title>Node19</title>
<g id="a_node19"><a xlink:href="JKRDisposer_8h.html" target="_top" xlink:title=" ">
<polygon fill="white" stroke="black" points="481.5,-123.5 481.5,-153.5 632.5,-153.5 632.5,-123.5 481.5,-123.5"/>
<text text-anchor="start" x="489.5" y="-141.5" font-family="Helvetica,sans-Serif" font-size="10.00">JSystem/JKernel/JKRDisposer</text>
<text text-anchor="middle" x="557" y="-130.5" font-family="Helvetica,sans-Serif" font-size="10.00">/JKRDisposer.h</text>
</a>
</g>
</g>
<!-- Node18&#45;&gt;Node19 -->
<g id="edge24" class="edge">
<title>Node18&#45;&gt;Node19</title>
<path fill="none" stroke="midnightblue" d="M539.77,-190.4C542.45,-182.47 545.87,-172.38 548.95,-163.27"/>
<polygon fill="midnightblue" stroke="midnightblue" points="552.34,-164.17 552.24,-153.58 545.71,-161.93 552.34,-164.17"/>
</g>
<!-- Node19&#45;&gt;Node4 -->
<g id="edge26" class="edge">
<title>Node19&#45;&gt;Node4</title>
<path fill="none" stroke="midnightblue" d="M546.02,-123.39C538.18,-113.29 527.39,-99.34 518,-87 502.64,-66.81 485.16,-43.45 473.65,-28.01"/>
<polygon fill="midnightblue" stroke="midnightblue" points="476.41,-25.85 467.63,-19.92 470.79,-30.03 476.41,-25.85"/>
</g>
<!-- Node19&#45;&gt;Node16 -->
<g id="edge25" class="edge">
<title>Node19&#45;&gt;Node16</title>
<path fill="none" stroke="midnightblue" d="M565.25,-123.4C570.03,-115.22 576.16,-104.73 581.62,-95.39"/>
<polygon fill="midnightblue" stroke="midnightblue" points="584.75,-96.98 586.77,-86.58 578.7,-93.44 584.75,-96.98"/>
</g>
<!-- Node20&#45;&gt;Node4 -->
<g id="edge31" class="edge">
<title>Node20&#45;&gt;Node4</title>
<path fill="none" stroke="midnightblue" d="M687.98,-61.88C682.86,-59.77 677.28,-57.64 672,-56 618.19,-39.27 554.76,-26.66 511.6,-19.11"/>
<polygon fill="midnightblue" stroke="midnightblue" points="512.07,-15.64 501.62,-17.39 510.88,-22.54 512.07,-15.64"/>
</g>
<!-- Node21&#45;&gt;Node4 -->
<g id="edge33" class="edge">
<title>Node21&#45;&gt;Node4</title>
<path fill="none" stroke="midnightblue" d="M817.97,-128.87C813.47,-111.82 800.94,-73.91 775,-56 733.31,-27.21 589.35,-16.56 511.66,-12.85"/>
<polygon fill="midnightblue" stroke="midnightblue" points="511.76,-9.35 501.61,-12.39 511.44,-16.34 511.76,-9.35"/>
</g>
<!-- Node22&#45;&gt;Node7 -->
<g id="edge36" class="edge">
<title>Node22&#45;&gt;Node7</title>
<path fill="none" stroke="midnightblue" d="M241.44,-548.08C246.95,-540.46 255.03,-529.26 261.76,-519.94"/>
<polygon fill="midnightblue" stroke="midnightblue" points="264.66,-521.91 267.68,-511.75 258.99,-517.81 264.66,-521.91"/>
</g>
<!-- Node22&#45;&gt;Node8 -->
<g id="edge37" class="edge">
<title>Node22&#45;&gt;Node8</title>
<path fill="none" stroke="midnightblue" d="M227.02,-548.16C216.37,-535.23 200.07,-510.69 211,-492 219.86,-476.85 235.91,-466.41 251.31,-459.42"/>
<polygon fill="midnightblue" stroke="midnightblue" points="252.85,-462.57 260.75,-455.51 250.17,-456.11 252.85,-462.57"/>
</g>
<!-- Node23&#45;&gt;Node6 -->
<g id="edge41" class="edge">
<title>Node23&#45;&gt;Node6</title>
<path fill="none" stroke="midnightblue" d="M293.1,-727.35C297.82,-711.07 305.86,-683.58 313,-660 315.67,-651.18 318.7,-641.41 321.26,-633.23"/>
<polygon fill="midnightblue" stroke="midnightblue" points="324.62,-634.2 324.28,-623.61 317.94,-632.11 324.62,-634.2"/>
</g>
<!-- Node23&#45;&gt;Node9 -->
<g id="edge47" class="edge">
<title>Node23&#45;&gt;Node9</title>
<path fill="none" stroke="midnightblue" d="M305.03,-727.19C327.17,-706.54 366.87,-666.24 389,-624 427.63,-550.27 443.65,-450.51 448.88,-409.63"/>
<polygon fill="midnightblue" stroke="midnightblue" points="452.38,-409.88 450.11,-399.53 445.43,-409.04 452.38,-409.88"/>
</g>
<!-- Node24 -->
<g id="node24" class="node">
<title>Node24</title>
<g id="a_node24"><a xlink:href="f__pc__layer_8h.html" target="_top" xlink:title=" ">
<polygon fill="white" stroke="black" points="120,-666 120,-685 216,-685 216,-666 120,-666"/>
<text text-anchor="middle" x="168" y="-673" font-family="Helvetica,sans-Serif" font-size="10.00">f/f_pc/f_pc_layer.h</text>
</a>
</g>
</g>
<!-- Node23&#45;&gt;Node24 -->
<g id="edge42" class="edge">
<title>Node23&#45;&gt;Node24</title>
<path fill="none" stroke="midnightblue" d="M262.74,-727.4C241.98,-716.24 213.2,-700.78 192.82,-689.83"/>
<polygon fill="midnightblue" stroke="midnightblue" points="194.3,-686.66 183.84,-685.01 190.99,-692.82 194.3,-686.66"/>
</g>
<!-- Node24&#45;&gt;Node6 -->
<g id="edge44" class="edge">
<title>Node24&#45;&gt;Node6</title>
<path fill="none" stroke="midnightblue" d="M190.78,-665.98C218.05,-655.77 263.91,-638.61 294.8,-627.05"/>
<polygon fill="midnightblue" stroke="midnightblue" points="296.12,-630.29 304.26,-623.51 293.67,-623.74 296.12,-630.29"/>
</g>
<!-- Node24&#45;&gt;Node8 -->
<g id="edge43" class="edge">
<title>Node24&#45;&gt;Node8</title>
<path fill="none" stroke="midnightblue" d="M166.76,-665.99C164.04,-645.3 158.76,-590.88 171,-548 178.93,-520.22 183.02,-511.86 204,-492 218.87,-477.93 238.99,-467.14 256.14,-459.66"/>
<polygon fill="midnightblue" stroke="midnightblue" points="257.93,-462.71 265.83,-455.64 255.25,-456.24 257.93,-462.71"/>
</g>
<!-- Node24&#45;&gt;Node9 -->
<g id="edge46" class="edge">
<title>Node24&#45;&gt;Node9</title>
<path fill="none" stroke="midnightblue" d="M160.72,-665.87C145.98,-647.5 114,-602.61 114,-559 114,-559 114,-559 114,-501 114,-438.01 329.49,-405.42 415.84,-394.89"/>
<polygon fill="midnightblue" stroke="midnightblue" points="416.43,-398.35 425.95,-393.69 415.6,-391.39 416.43,-398.35"/>
</g>
<!-- Node24&#45;&gt;Node22 -->
<g id="edge45" class="edge">
<title>Node24&#45;&gt;Node22</title>
<path fill="none" stroke="midnightblue" d="M173.04,-665.82C184,-646.92 210.2,-601.75 224.78,-576.62"/>
<polygon fill="midnightblue" stroke="midnightblue" points="227.92,-578.19 229.91,-567.78 221.86,-574.68 227.92,-578.19"/>
</g>
<!-- Node25&#45;&gt;Node6 -->
<g id="edge49" class="edge">
<title>Node25&#45;&gt;Node6</title>
<path fill="none" stroke="midnightblue" d="M177.07,-732.81C204.07,-711.59 273.59,-656.96 307.64,-630.22"/>
<polygon fill="midnightblue" stroke="midnightblue" points="310.16,-632.69 315.86,-623.76 305.83,-627.18 310.16,-632.69"/>
</g>
<!-- Node25&#45;&gt;Node9 -->
<g id="edge51" class="edge">
<title>Node25&#45;&gt;Node9</title>
<path fill="none" stroke="midnightblue" d="M153.86,-732.9C129.3,-714.39 76,-668.1 76,-615 76,-615 76,-615 76,-501 76,-456.55 111.57,-454.47 152,-436 240.55,-395.55 357.72,-390.09 415.57,-390.15"/>
<polygon fill="midnightblue" stroke="midnightblue" points="415.64,-393.65 425.66,-390.22 415.69,-386.65 415.64,-393.65"/>
</g>
<!-- Node25&#45;&gt;Node24 -->
<g id="edge50" class="edge">
<title>Node25&#45;&gt;Node24</title>
<path fill="none" stroke="midnightblue" d="M166.27,-732.73C166.56,-723.18 167.04,-707.62 167.42,-695.28"/>
<polygon fill="midnightblue" stroke="midnightblue" points="170.93,-695.23 167.73,-685.13 163.93,-695.01 170.93,-695.23"/>
</g>
<!-- Node26&#45;&gt;Node6 -->
<g id="edge53" class="edge">
<title>Node26&#45;&gt;Node6</title>
<path fill="none" stroke="midnightblue" d="M568.21,-665.99C559.29,-664 549.81,-661.91 541,-660 485.52,-647.98 421.85,-634.65 378.48,-625.64"/>
<polygon fill="midnightblue" stroke="midnightblue" points="378.96,-622.17 368.46,-623.56 377.54,-629.02 378.96,-622.17"/>
</g>
<!-- Node26&#45;&gt;Node9 -->
<g id="edge54" class="edge">
<title>Node26&#45;&gt;Node9</title>
<path fill="none" stroke="midnightblue" d="M598.3,-665.98C582.97,-648.63 548.27,-607.53 527,-568 497.43,-513.02 506.3,-492.14 479,-436 474.32,-426.38 468.12,-416.22 462.74,-407.99"/>
<polygon fill="midnightblue" stroke="midnightblue" points="465.62,-406 457.14,-399.65 459.81,-409.91 465.62,-406"/>
</g>
<!-- Node27&#45;&gt;Node6 -->
<g id="edge56" class="edge">
<title>Node27&#45;&gt;Node6</title>
<path fill="none" stroke="midnightblue" d="M471.35,-732.81C445.35,-711.59 378.42,-656.96 345.64,-630.22"/>
<polygon fill="midnightblue" stroke="midnightblue" points="347.69,-627.37 337.73,-623.76 343.26,-632.79 347.69,-627.37"/>
</g>
<!-- Node28 -->
<g id="node28" class="node">
<title>Node28</title>
<g id="a_node28"><a xlink:href="f__pc__method__tag_8h.html" target="_top" xlink:title=" ">
<polygon fill="white" stroke="black" points="431.5,-660.5 431.5,-690.5 532.5,-690.5 532.5,-660.5 431.5,-660.5"/>
<text text-anchor="start" x="439.5" y="-678.5" font-family="Helvetica,sans-Serif" font-size="10.00">f/f_pc/f_pc_method</text>
<text text-anchor="middle" x="482" y="-667.5" font-family="Helvetica,sans-Serif" font-size="10.00">_tag.h</text>
</a>
</g>
</g>
<!-- Node27&#45;&gt;Node28 -->
<g id="edge57" class="edge">
<title>Node27&#45;&gt;Node28</title>
<path fill="none" stroke="midnightblue" d="M482,-732.73C482,-724.54 482,-711.92 482,-700.71"/>
<polygon fill="midnightblue" stroke="midnightblue" points="485.5,-700.59 482,-690.59 478.5,-700.59 485.5,-700.59"/>
</g>
<!-- Node28&#45;&gt;Node6 -->
<g id="edge58" class="edge">
<title>Node28&#45;&gt;Node6</title>
<path fill="none" stroke="midnightblue" d="M445.27,-660.4C419.03,-650.33 384.07,-636.91 358.98,-627.28"/>
<polygon fill="midnightblue" stroke="midnightblue" points="360.14,-623.97 349.55,-623.66 357.64,-630.51 360.14,-623.97"/>
</g>
<!-- Node28&#45;&gt;Node9 -->
<g id="edge59" class="edge">
<title>Node28&#45;&gt;Node9</title>
<path fill="none" stroke="midnightblue" d="M479.57,-660.32C476.07,-638.59 470,-595.69 470,-559 470,-559 470,-559 470,-501 470,-468.49 461.84,-431.35 456.22,-409.61"/>
<polygon fill="midnightblue" stroke="midnightblue" points="459.54,-408.5 453.56,-399.75 452.78,-410.32 459.54,-408.5"/>
</g>
<!-- Node29&#45;&gt;Node9 -->
<g id="edge63" class="edge">
<title>Node29&#45;&gt;Node9</title>
<path fill="none" stroke="midnightblue" d="M769.67,-492.38C780.75,-478.86 798.43,-452.51 784,-436 745.64,-392.11 564.23,-389.32 486.5,-390.21"/>
<polygon fill="midnightblue" stroke="midnightblue" points="486.19,-386.71 476.24,-390.36 486.29,-393.71 486.19,-386.71"/>
</g>
<!-- Node30 -->
<g id="node30" class="node">
<title>Node30</title>
<g id="a_node30"><a xlink:href="f__pc__method_8h.html" target="_top" xlink:title=" ">
<polygon fill="white" stroke="black" points="667,-436.5 667,-455.5 775,-455.5 775,-436.5 667,-436.5"/>
<text text-anchor="middle" x="721" y="-443.5" font-family="Helvetica,sans-Serif" font-size="10.00">f/f_pc/f_pc_method.h</text>
</a>
</g>
</g>
<!-- Node29&#45;&gt;Node30 -->
<g id="edge61" class="edge">
<title>Node29&#45;&gt;Node30</title>
<path fill="none" stroke="midnightblue" d="M755.23,-492.08C749.44,-484.46 740.94,-473.26 733.86,-463.94"/>
<polygon fill="midnightblue" stroke="midnightblue" points="736.48,-461.6 727.64,-455.75 730.9,-465.83 736.48,-461.6"/>
</g>
<!-- Node30&#45;&gt;Node9 -->
<g id="edge62" class="edge">
<title>Node30&#45;&gt;Node9</title>
<path fill="none" stroke="midnightblue" d="M678.22,-436.44C625.05,-425.81 535.32,-407.86 486.03,-398.01"/>
<polygon fill="midnightblue" stroke="midnightblue" points="486.65,-394.56 476.16,-396.03 485.28,-401.42 486.65,-394.56"/>
</g>
<!-- Node31&#45;&gt;Node3 -->
<g id="edge67" class="edge">
<title>Node31&#45;&gt;Node3</title>
<path fill="none" stroke="midnightblue" d="M689.22,-906.4C663.77,-896.37 629.9,-883.03 605.48,-873.4"/>
<polygon fill="midnightblue" stroke="midnightblue" points="606.56,-870.07 595.97,-869.66 603.99,-876.58 606.56,-870.07"/>
</g>
<!-- Node31&#45;&gt;Node4 -->
<g id="edge68" class="edge">
<title>Node31&#45;&gt;Node4</title>
<path fill="none" stroke="midnightblue" d="M746.45,-906.42C758.73,-897.35 773.54,-884.55 783,-870 799.47,-844.66 803,-835.23 803,-805 803,-805 803,-805 803,-613 803,-531.86 879,-528.14 879,-447 879,-447 879,-447 879,-137.5 879,-87.67 846.37,-78.68 802,-56 752.41,-30.65 594.06,-18.35 511.76,-13.54"/>
<polygon fill="midnightblue" stroke="midnightblue" points="511.81,-10.04 501.63,-12.97 511.42,-17.03 511.81,-10.04"/>
</g>
<!-- Node32&#45;&gt;Node4 -->
<g id="edge70" class="edge">
<title>Node32&#45;&gt;Node4</title>
<path fill="none" stroke="midnightblue" d="M934.69,-604.47C931.98,-586.01 926,-540.97 926,-503 926,-503 926,-503 926,-137.5 926,-98.42 924.23,-79.49 893,-56 863.08,-33.49 619.5,-18.82 511.85,-13.38"/>
<polygon fill="midnightblue" stroke="midnightblue" points="511.72,-9.86 501.56,-12.86 511.37,-16.86 511.72,-9.86"/>
</g>
<!-- Node33&#45;&gt;Node5 -->
<g id="edge74" class="edge">
<title>Node33&#45;&gt;Node5</title>
<path fill="none" stroke="midnightblue" d="M695.18,-850.44C671.17,-841.44 633.17,-827.19 606.13,-817.05"/>
<polygon fill="midnightblue" stroke="midnightblue" points="607.3,-813.75 596.71,-813.52 604.84,-820.3 607.3,-813.75"/>
</g>
<!-- Node34 -->
<g id="node34" class="node">
<title>Node34</title>
<g id="a_node34"><a xlink:href="c__node__iter_8h.html" target="_top" xlink:title=" ">
<polygon fill="white" stroke="black" points="536,-548.5 536,-567.5 670,-567.5 670,-548.5 536,-548.5"/>
<text text-anchor="middle" x="603" y="-555.5" font-family="Helvetica,sans-Serif" font-size="10.00">SComponent/c_node_iter.h</text>
</a>
</g>
</g>
<!-- Node33&#45;&gt;Node34 -->
<g id="edge72" class="edge">
<title>Node33&#45;&gt;Node34</title>
<path fill="none" stroke="midnightblue" d="M718.03,-850.46C717.91,-829.16 716.25,-772.15 703,-727 685.07,-665.9 639.72,-604.14 616.76,-575.49"/>
<polygon fill="midnightblue" stroke="midnightblue" points="619.45,-573.24 610.41,-567.7 614.02,-577.66 619.45,-573.24"/>
</g>
<!-- Node34&#45;&gt;Node8 -->
<g id="edge73" class="edge">
<title>Node34&#45;&gt;Node8</title>
<path fill="none" stroke="midnightblue" d="M578.78,-548.46C523.6,-529.01 388.44,-481.36 324.97,-458.98"/>
<polygon fill="midnightblue" stroke="midnightblue" points="326.02,-455.63 315.42,-455.61 323.69,-462.24 326.02,-455.63"/>
</g>
</g>
</svg>
