<?xml version="1.0" encoding="UTF-8" standalone="no"?>
<!DOCTYPE svg PUBLIC "-//W3C//DTD SVG 1.1//EN"
 "http://www.w3.org/Graphics/SVG/1.1/DTD/svg11.dtd">
<!-- Generated by graphviz version 2.47.0 (20210316.2052)
 -->
<!-- Title: src/f/f_op/f_op_draw_iter.cpp Pages: 1 -->
<!--zoomable 554 -->
<svg id="main" version="1.1" xmlns="http://www.w3.org/2000/svg" xmlns:xlink="http://www.w3.org/1999/xlink" xml:space="preserve" onload="init(evt)">
<style type="text/css"><![CDATA[
.edge:hover path { stroke: red; }
.edge:hover polygon { stroke: red; fill: red; }
]]></style>
<script type="text/javascript"><![CDATA[
var edges = document.getElementsByTagName('g');
if (edges && edges.length) {
  for (var i=0;i<edges.length;i++) {
    if (edges[i].id.substr(0,4)=='edge') {
      edges[i].setAttribute('class','edge');
    }
  }
}
]]></script>
        <defs>
                <circle id="rim" cx="0" cy="0" r="7"/>
                <circle id="rim2" cx="0" cy="0" r="3.5"/>
                <g id="zoomPlus">
                        <use xlink:href="#rim" fill="#404040">
                                <set attributeName="fill" to="#808080" begin="zoomplus.mouseover" end="zoomplus.mouseout"/>
                        </use>
                        <path d="M-4,0h8M0,-4v8" fill="none" stroke="white" stroke-width="1.5" pointer-events="none"/>
                </g>
                <g id="zoomMin">
                        <use xlink:href="#rim" fill="#404040">
                                <set attributeName="fill" to="#808080" begin="zoomminus.mouseover" end="zoomminus.mouseout"/>
                        </use>
                        <path d="M-4,0h8" fill="none" stroke="white" stroke-width="1.5" pointer-events="none"/>
                </g>
                <g id="dirArrow">
                        <path fill="none" stroke="white" stroke-width="1.5" d="M0,-3.0v7 M-2.5,-0.5L0,-3.0L2.5,-0.5"/>
                </g>
               <g id="resetDef">
                       <use xlink:href="#rim2" fill="#404040">
                               <set attributeName="fill" to="#808080" begin="reset.mouseover" end="reset.mouseout"/>
                       </use>
               </g>
        </defs>

<script type="text/javascript">
var viewWidth = 637;
var viewHeight = 554;
var sectionId = 'dynsection-0';
</script>
<script xlink:href="svgpan.js"/>
<svg id="graph" class="graph">
<g id="viewport">
<title>src/f/f_op/f_op_draw_iter.cpp</title>
<polygon fill="white" stroke="transparent" points="-4,4 -4,-550 633,-550 633,4 -4,4"/>
<!-- Node1 -->
<g id="node1" class="node">
<title>Node1</title>
<g id="a_node1"><a xlink:title=" ">
<polygon fill="#bfbfbf" stroke="black" points="209.5,-515.5 209.5,-545.5 315.5,-545.5 315.5,-515.5 209.5,-515.5"/>
<text text-anchor="start" x="217.5" y="-533.5" font-family="Helvetica,sans-Serif" font-size="10.00">src/f/f_op/f_op_draw</text>
<text text-anchor="middle" x="262.5" y="-522.5" font-family="Helvetica,sans-Serif" font-size="10.00">_iter.cpp</text>
</a>
</g>
</g>
<!-- Node2 -->
<g id="node2" class="node">
<title>Node2</title>
<g id="a_node2"><a xlink:href="f__op__draw__iter_8h.html" target="_top" xlink:title=" ">
<polygon fill="white" stroke="black" points="6.5,-454 6.5,-473 122.5,-473 122.5,-454 6.5,-454"/>
<text text-anchor="middle" x="64.5" y="-461" font-family="Helvetica,sans-Serif" font-size="10.00">f/f_op/f_op_draw_iter.h</text>
</a>
</g>
</g>
<!-- Node1&#45;&gt;Node2 -->
<g id="edge1" class="edge">
<title>Node1&#45;&gt;Node2</title>
<path fill="none" stroke="midnightblue" d="M219.54,-515.4C183.87,-503.69 133.74,-487.23 100.24,-476.23"/>
<polygon fill="midnightblue" stroke="midnightblue" points="101.01,-472.8 90.41,-473.01 98.82,-479.45 101.01,-472.8"/>
</g>
<!-- Node6 -->
<g id="node6" class="node">
<title>Node6</title>
<g id="a_node6"><a xlink:href="global_8h.html" target="_top" xlink:title=" ">
<polygon fill="white" stroke="black" points="72.5,-168.5 72.5,-187.5 122.5,-187.5 122.5,-168.5 72.5,-168.5"/>
<text text-anchor="middle" x="97.5" y="-175.5" font-family="Helvetica,sans-Serif" font-size="10.00">global.h</text>
</a>
</g>
</g>
<!-- Node1&#45;&gt;Node6 -->
<g id="edge22" class="edge">
<title>Node1&#45;&gt;Node6</title>
<path fill="none" stroke="midnightblue" d="M254.21,-515.24C241.71,-492.36 219.5,-445.68 219.5,-403 219.5,-403 219.5,-403 219.5,-289 219.5,-240.57 165.81,-207.99 129.67,-191.54"/>
<polygon fill="midnightblue" stroke="midnightblue" points="131.01,-188.31 120.45,-187.52 128.21,-194.72 131.01,-188.31"/>
</g>
<!-- Node13 -->
<g id="node13" class="node">
<title>Node13</title>
<g id="a_node13"><a xlink:href="c__tree_8h.html" target="_top" xlink:title=" ">
<polygon fill="white" stroke="black" points="81.5,-336.5 81.5,-355.5 191.5,-355.5 191.5,-336.5 81.5,-336.5"/>
<text text-anchor="middle" x="136.5" y="-343.5" font-family="Helvetica,sans-Serif" font-size="10.00">SComponent/c_tree.h</text>
</a>
</g>
</g>
<!-- Node1&#45;&gt;Node13 -->
<g id="edge21" class="edge">
<title>Node1&#45;&gt;Node13</title>
<path fill="none" stroke="midnightblue" d="M243.17,-515.32C231.29,-505.94 216.33,-492.85 205.5,-479 176.8,-442.3 154.32,-391.87 143.52,-365.22"/>
<polygon fill="midnightblue" stroke="midnightblue" points="146.67,-363.67 139.74,-355.66 140.16,-366.24 146.67,-363.67"/>
</g>
<!-- Node14 -->
<g id="node14" class="node">
<title>Node14</title>
<g id="a_node14"><a xlink:title=" ">
<polygon fill="white" stroke="#bfbfbf" points="248,-448.5 248,-478.5 363,-478.5 363,-448.5 248,-448.5"/>
<text text-anchor="start" x="256" y="-466.5" font-family="Helvetica,sans-Serif" font-size="10.00">f/f_op/f_op_draw_iter</text>
<text text-anchor="middle" x="305.5" y="-455.5" font-family="Helvetica,sans-Serif" font-size="10.00">/asm/func_80020400.s</text>
</a>
</g>
</g>
<!-- Node1&#45;&gt;Node14 -->
<g id="edge23" class="edge">
<title>Node1&#45;&gt;Node14</title>
<path fill="none" stroke="midnightblue" d="M271.83,-515.4C277.3,-507.13 284.33,-496.51 290.55,-487.1"/>
<polygon fill="midnightblue" stroke="midnightblue" points="293.59,-488.85 296.19,-478.58 287.75,-484.99 293.59,-488.85"/>
</g>
<!-- Node15 -->
<g id="node15" class="node">
<title>Node15</title>
<g id="a_node15"><a xlink:title=" ">
<polygon fill="white" stroke="#bfbfbf" points="381,-448.5 381,-478.5 496,-478.5 496,-448.5 381,-448.5"/>
<text text-anchor="start" x="389" y="-466.5" font-family="Helvetica,sans-Serif" font-size="10.00">f/f_op/f_op_draw_iter</text>
<text text-anchor="middle" x="438.5" y="-455.5" font-family="Helvetica,sans-Serif" font-size="10.00">/asm/func_80020444.s</text>
</a>
</g>
</g>
<!-- Node1&#45;&gt;Node15 -->
<g id="edge24" class="edge">
<title>Node1&#45;&gt;Node15</title>
<path fill="none" stroke="midnightblue" d="M300.69,-515.4C327.1,-505.64 362.43,-492.59 390.7,-482.15"/>
<polygon fill="midnightblue" stroke="midnightblue" points="392.22,-485.32 400.39,-478.58 389.79,-478.76 392.22,-485.32"/>
</g>
<!-- Node16 -->
<g id="node16" class="node">
<title>Node16</title>
<g id="a_node16"><a xlink:title=" ">
<polygon fill="white" stroke="#bfbfbf" points="514,-448.5 514,-478.5 629,-478.5 629,-448.5 514,-448.5"/>
<text text-anchor="start" x="522" y="-466.5" font-family="Helvetica,sans-Serif" font-size="10.00">f/f_op/f_op_draw_iter</text>
<text text-anchor="middle" x="571.5" y="-455.5" font-family="Helvetica,sans-Serif" font-size="10.00">/asm/func_80020480.s</text>
</a>
</g>
</g>
<!-- Node1&#45;&gt;Node16 -->
<g id="edge25" class="edge">
<title>Node1&#45;&gt;Node16</title>
<path fill="none" stroke="midnightblue" d="M315.63,-518.64C362.67,-508.98 433.47,-494.35 503.97,-479.31"/>
<polygon fill="midnightblue" stroke="midnightblue" points="504.87,-482.7 513.92,-477.19 503.4,-475.86 504.87,-482.7"/>
</g>
<!-- Node3 -->
<g id="node3" class="node">
<title>Node3</title>
<g id="a_node3"><a xlink:href="c__tag_8h.html" target="_top" xlink:title=" ">
<polygon fill="white" stroke="black" points="0,-392.5 0,-411.5 107,-411.5 107,-392.5 0,-392.5"/>
<text text-anchor="middle" x="53.5" y="-399.5" font-family="Helvetica,sans-Serif" font-size="10.00">SComponent/c_tag.h</text>
</a>
</g>
</g>
<!-- Node2&#45;&gt;Node3 -->
<g id="edge2" class="edge">
<title>Node2&#45;&gt;Node3</title>
<path fill="none" stroke="midnightblue" d="M62.92,-453.98C61.37,-445.58 58.95,-432.48 56.95,-421.66"/>
<polygon fill="midnightblue" stroke="midnightblue" points="60.33,-420.71 55.07,-411.51 53.45,-421.98 60.33,-420.71"/>
</g>
<!-- Node4 -->
<g id="node4" class="node">
<title>Node4</title>
<g id="a_node4"><a xlink:href="c__list_8h.html" target="_top" xlink:title=" ">
<polygon fill="white" stroke="black" points="44,-280.5 44,-299.5 151,-299.5 151,-280.5 44,-280.5"/>
<text text-anchor="middle" x="97.5" y="-287.5" font-family="Helvetica,sans-Serif" font-size="10.00">SComponent/c_list.h</text>
</a>
</g>
</g>
<!-- Node3&#45;&gt;Node4 -->
<g id="edge3" class="edge">
<title>Node3&#45;&gt;Node4</title>
<path fill="none" stroke="midnightblue" d="M55.37,-392.38C58.26,-379.73 64.34,-355.53 72.5,-336 76.46,-326.52 81.91,-316.47 86.71,-308.29"/>
<polygon fill="midnightblue" stroke="midnightblue" points="89.74,-310.04 91.92,-299.67 83.75,-306.42 89.74,-310.04"/>
</g>
<!-- Node5 -->
<g id="node5" class="node">
<title>Node5</title>
<g id="a_node5"><a xlink:href="c__node_8h.html" target="_top" xlink:title=" ">
<polygon fill="white" stroke="black" points="40,-224.5 40,-243.5 155,-243.5 155,-224.5 40,-224.5"/>
<text text-anchor="middle" x="97.5" y="-231.5" font-family="Helvetica,sans-Serif" font-size="10.00">SComponent/c_node.h</text>
</a>
</g>
</g>
<!-- Node3&#45;&gt;Node5 -->
<g id="edge16" class="edge">
<title>Node3&#45;&gt;Node5</title>
<path fill="none" stroke="midnightblue" d="M48.7,-392.22C38.04,-371.45 14.85,-318.19 34.5,-280 41.58,-266.25 55.02,-255.77 67.68,-248.39"/>
<polygon fill="midnightblue" stroke="midnightblue" points="69.5,-251.39 76.65,-243.57 66.19,-245.22 69.5,-251.39"/>
</g>
<!-- Node3&#45;&gt;Node6 -->
<g id="edge20" class="edge">
<title>Node3&#45;&gt;Node6</title>
<path fill="none" stroke="midnightblue" d="M46.14,-392.39C39.32,-383.82 29.62,-369.94 25.5,-356 8.87,-299.7 0.16,-274.26 30.5,-224 38.91,-210.06 53.49,-199.51 66.9,-192.13"/>
<polygon fill="midnightblue" stroke="midnightblue" points="68.6,-195.2 75.91,-187.54 65.42,-188.96 68.6,-195.2"/>
</g>
<!-- Node3&#45;&gt;Node13 -->
<g id="edge17" class="edge">
<title>Node3&#45;&gt;Node13</title>
<path fill="none" stroke="midnightblue" d="M66.84,-392.32C79.66,-383.98 99.28,-371.21 114.44,-361.35"/>
<polygon fill="midnightblue" stroke="midnightblue" points="116.72,-364.04 123.2,-355.65 112.91,-358.17 116.72,-364.04"/>
</g>
<!-- Node4&#45;&gt;Node5 -->
<g id="edge4" class="edge">
<title>Node4&#45;&gt;Node5</title>
<path fill="none" stroke="midnightblue" d="M97.5,-280.08C97.5,-273.01 97.5,-262.86 97.5,-253.99"/>
<polygon fill="midnightblue" stroke="midnightblue" points="101,-253.75 97.5,-243.75 94,-253.75 101,-253.75"/>
</g>
<!-- Node5&#45;&gt;Node6 -->
<g id="edge5" class="edge">
<title>Node5&#45;&gt;Node6</title>
<path fill="none" stroke="midnightblue" d="M97.5,-224.08C97.5,-217.01 97.5,-206.86 97.5,-197.99"/>
<polygon fill="midnightblue" stroke="midnightblue" points="101,-197.75 97.5,-187.75 94,-197.75 101,-197.75"/>
</g>
<!-- Node7 -->
<g id="node7" class="node">
<title>Node7</title>
<g id="a_node7"><a xlink:href="types_8h.html" target="_top" xlink:title=" ">
<polygon fill="white" stroke="black" points="90,-0.5 90,-19.5 171,-19.5 171,-0.5 90,-0.5"/>
<text text-anchor="middle" x="130.5" y="-7.5" font-family="Helvetica,sans-Serif" font-size="10.00">dolphin/types.h</text>
</a>
</g>
</g>
<!-- Node6&#45;&gt;Node7 -->
<g id="edge6" class="edge">
<title>Node6&#45;&gt;Node7</title>
<path fill="none" stroke="midnightblue" d="M85.21,-168.32C58.26,-148.22 -1.55,-97.02 25.5,-56 37.8,-37.35 59.61,-26.4 80.18,-19.98"/>
<polygon fill="midnightblue" stroke="midnightblue" points="81.14,-23.35 89.81,-17.26 79.24,-16.61 81.14,-23.35"/>
</g>
<!-- Node8 -->
<g id="node8" class="node">
<title>Node8</title>
<g id="a_node8"><a xlink:href="AR_8h.html" target="_top" xlink:title=" ">
<polygon fill="white" stroke="black" points="35,-56.5 35,-75.5 84,-75.5 84,-56.5 35,-56.5"/>
<text text-anchor="middle" x="59.5" y="-63.5" font-family="Helvetica,sans-Serif" font-size="10.00">ar/AR.h</text>
</a>
</g>
</g>
<!-- Node6&#45;&gt;Node8 -->
<g id="edge7" class="edge">
<title>Node6&#45;&gt;Node8</title>
<path fill="none" stroke="midnightblue" d="M94.52,-168.37C88.36,-150.54 74.11,-109.3 65.81,-85.27"/>
<polygon fill="midnightblue" stroke="midnightblue" points="69.04,-83.9 62.47,-75.59 62.43,-86.19 69.04,-83.9"/>
</g>
<!-- Node9 -->
<g id="node9" class="node">
<title>Node9</title>
<g id="a_node9"><a xlink:href="ARQ_8h.html" target="_top" xlink:title=" ">
<polygon fill="white" stroke="black" points="102.5,-56.5 102.5,-75.5 158.5,-75.5 158.5,-56.5 102.5,-56.5"/>
<text text-anchor="middle" x="130.5" y="-63.5" font-family="Helvetica,sans-Serif" font-size="10.00">ar/ARQ.h</text>
</a>
</g>
</g>
<!-- Node6&#45;&gt;Node9 -->
<g id="edge9" class="edge">
<title>Node6&#45;&gt;Node9</title>
<path fill="none" stroke="midnightblue" d="M100.03,-168.15C103.63,-155.63 110.46,-132.04 116.5,-112 119.16,-103.18 122.19,-93.41 124.75,-85.23"/>
<polygon fill="midnightblue" stroke="midnightblue" points="128.11,-86.2 127.77,-75.61 121.44,-84.1 128.11,-86.2"/>
</g>
<!-- Node10 -->
<g id="node10" class="node">
<title>Node10</title>
<g id="a_node10"><a xlink:href="mwcc_8h.html" target="_top" xlink:title=" ">
<polygon fill="white" stroke="black" points="125.5,-112.5 125.5,-131.5 175.5,-131.5 175.5,-112.5 125.5,-112.5"/>
<text text-anchor="middle" x="150.5" y="-119.5" font-family="Helvetica,sans-Serif" font-size="10.00">mwcc.h</text>
</a>
</g>
</g>
<!-- Node6&#45;&gt;Node10 -->
<g id="edge11" class="edge">
<title>Node6&#45;&gt;Node10</title>
<path fill="none" stroke="midnightblue" d="M106.25,-168.08C113.97,-160.22 125.4,-148.57 134.72,-139.08"/>
<polygon fill="midnightblue" stroke="midnightblue" points="137.4,-141.34 141.91,-131.75 132.41,-136.44 137.4,-141.34"/>
</g>
<!-- Node11 -->
<g id="node11" class="node">
<title>Node11</title>
<g id="a_node11"><a xlink:href="OS_8h.html" target="_top" xlink:title=" ">
<polygon fill="white" stroke="black" points="193.5,-112.5 193.5,-131.5 245.5,-131.5 245.5,-112.5 193.5,-112.5"/>
<text text-anchor="middle" x="219.5" y="-119.5" font-family="Helvetica,sans-Serif" font-size="10.00">os/OS.h</text>
</a>
</g>
</g>
<!-- Node6&#45;&gt;Node11 -->
<g id="edge12" class="edge">
<title>Node6&#45;&gt;Node11</title>
<path fill="none" stroke="midnightblue" d="M116.83,-168.44C136.82,-159.6 168.24,-145.69 191.06,-135.59"/>
<polygon fill="midnightblue" stroke="midnightblue" points="192.53,-138.76 200.26,-131.52 189.7,-132.36 192.53,-138.76"/>
</g>
<!-- Node8&#45;&gt;Node7 -->
<g id="edge8" class="edge">
<title>Node8&#45;&gt;Node7</title>
<path fill="none" stroke="midnightblue" d="M70.91,-56.32C81.61,-48.18 97.84,-35.84 110.66,-26.09"/>
<polygon fill="midnightblue" stroke="midnightblue" points="113.04,-28.67 118.89,-19.83 108.81,-23.1 113.04,-28.67"/>
</g>
<!-- Node9&#45;&gt;Node7 -->
<g id="edge10" class="edge">
<title>Node9&#45;&gt;Node7</title>
<path fill="none" stroke="midnightblue" d="M130.5,-56.08C130.5,-49.01 130.5,-38.86 130.5,-29.99"/>
<polygon fill="midnightblue" stroke="midnightblue" points="134,-29.75 130.5,-19.75 127,-29.75 134,-29.75"/>
</g>
<!-- Node11&#45;&gt;Node7 -->
<g id="edge13" class="edge">
<title>Node11&#45;&gt;Node7</title>
<path fill="none" stroke="midnightblue" d="M227.89,-112.43C239.57,-99.42 257.97,-74.27 245.5,-56 231.01,-34.77 204.88,-23.56 181.18,-17.63"/>
<polygon fill="midnightblue" stroke="midnightblue" points="181.73,-14.17 171.21,-15.4 180.21,-21 181.73,-14.17"/>
</g>
<!-- Node12 -->
<g id="node12" class="node">
<title>Node12</title>
<g id="a_node12"><a xlink:href="dvd_8h.html" target="_top" xlink:title=" ">
<polygon fill="white" stroke="black" points="177,-56.5 177,-75.5 236,-75.5 236,-56.5 177,-56.5"/>
<text text-anchor="middle" x="206.5" y="-63.5" font-family="Helvetica,sans-Serif" font-size="10.00">dvd/dvd.h</text>
</a>
</g>
</g>
<!-- Node11&#45;&gt;Node12 -->
<g id="edge14" class="edge">
<title>Node11&#45;&gt;Node12</title>
<path fill="none" stroke="midnightblue" d="M217.35,-112.08C215.63,-104.93 213.15,-94.64 211,-85.69"/>
<polygon fill="midnightblue" stroke="midnightblue" points="214.35,-84.65 208.61,-75.75 207.54,-86.29 214.35,-84.65"/>
</g>
<!-- Node12&#45;&gt;Node7 -->
<g id="edge15" class="edge">
<title>Node12&#45;&gt;Node7</title>
<path fill="none" stroke="midnightblue" d="M194.29,-56.32C182.72,-48.11 165.12,-35.6 151.34,-25.81"/>
<polygon fill="midnightblue" stroke="midnightblue" points="153.11,-22.77 142.93,-19.83 149.06,-28.48 153.11,-22.77"/>
</g>
<!-- Node13&#45;&gt;Node4 -->
<g id="edge18" class="edge">
<title>Node13&#45;&gt;Node4</title>
<path fill="none" stroke="midnightblue" d="M130.06,-336.08C124.55,-328.46 116.47,-317.26 109.74,-307.94"/>
<polygon fill="midnightblue" stroke="midnightblue" points="112.51,-305.81 103.82,-299.75 106.84,-309.91 112.51,-305.81"/>
</g>
<!-- Node13&#45;&gt;Node5 -->
<g id="edge19" class="edge">
<title>Node13&#45;&gt;Node5</title>
<path fill="none" stroke="midnightblue" d="M143.97,-336.29C153.94,-323.53 169.29,-299.2 159.5,-280 152.5,-266.27 139.13,-255.75 126.6,-248.35"/>
<polygon fill="midnightblue" stroke="midnightblue" points="128.18,-245.22 117.72,-243.51 124.83,-251.37 128.18,-245.22"/>
</g>
</g>
</svg>
        <g id="navigator" transform="translate(0 0)" fill="#404254">
                <rect fill="#f2f5e9" fill-opacity="0.5" stroke="#606060" stroke-width=".5" x="0" y="0" width="60" height="60"/>
                <use id="zoomplus" xlink:href="#zoomPlus" x="17" y="9" onmousedown="handleZoom(evt,'in')"/>
                <use id="zoomminus" xlink:href="#zoomMin" x="42" y="9" onmousedown="handleZoom(evt,'out')"/>
                <use id="reset" xlink:href="#resetDef" x="30" y="36" onmousedown="handleReset()"/>
                <g id="arrowUp" xlink:href="#dirArrow" transform="translate(30 24)" onmousedown="handlePan(0,-1)">
                  <use xlink:href="#rim" fill="#404040">
                        <set attributeName="fill" to="#808080" begin="arrowUp.mouseover" end="arrowUp.mouseout"/>
                  </use>
                  <path fill="none" stroke="white" stroke-width="1.5" d="M0,-3.0v7 M-2.5,-0.5L0,-3.0L2.5,-0.5"/>
                </g>
                <g id="arrowRight" xlink:href="#dirArrow" transform="rotate(90) translate(36 -43)" onmousedown="handlePan(1,0)">
                  <use xlink:href="#rim" fill="#404040">
                        <set attributeName="fill" to="#808080" begin="arrowRight.mouseover" end="arrowRight.mouseout"/>
                  </use>
                  <path fill="none" stroke="white" stroke-width="1.5" d="M0,-3.0v7 M-2.5,-0.5L0,-3.0L2.5,-0.5"/>
                </g>
                <g id="arrowDown" xlink:href="#dirArrow" transform="rotate(180) translate(-30 -48)" onmousedown="handlePan(0,1)">
                  <use xlink:href="#rim" fill="#404040">
                        <set attributeName="fill" to="#808080" begin="arrowDown.mouseover" end="arrowDown.mouseout"/>
                  </use>
                  <path fill="none" stroke="white" stroke-width="1.5" d="M0,-3.0v7 M-2.5,-0.5L0,-3.0L2.5,-0.5"/>
                </g>
                <g id="arrowLeft" xlink:href="#dirArrow" transform="rotate(270) translate(-36 17)" onmousedown="handlePan(-1,0)">
                  <use xlink:href="#rim" fill="#404040">
                        <set attributeName="fill" to="#808080" begin="arrowLeft.mouseover" end="arrowLeft.mouseout"/>
                  </use>
                  <path fill="none" stroke="white" stroke-width="1.5" d="M0,-3.0v7 M-2.5,-0.5L0,-3.0L2.5,-0.5"/>
                </g>
        </g>
        <svg viewBox="0 0 15 15" width="100%" height="30px" preserveAspectRatio="xMaxYMin meet">
         <g id="arrow_out" transform="scale(0.3 0.3)">
          <a xlink:href="f__op__draw__iter_8cpp__incl_org.svg" target="_base">
           <rect id="button" ry="5" rx="5" y="6" x="6" height="38" width="38"
                fill="#f2f5e9" fill-opacity="0.5" stroke="#606060" stroke-width="1.0"/>
           <path id="arrow"
             d="M 11.500037,31.436501 C 11.940474,20.09759 22.043105,11.32322 32.158766,21.979434 L 37.068811,17.246167 C 37.068811,17.246167 37.088388,32 37.088388,32 L 22.160133,31.978069 C 22.160133,31.978069 26.997745,27.140456 26.997745,27.140456 C 18.528582,18.264221 13.291696,25.230495 11.500037,31.436501 z"
             style="fill:#404040;"/>
          </a>
         </g>
        </svg>
</svg>
