<?xml version="1.0" encoding="UTF-8" standalone="no"?>
<!DOCTYPE svg PUBLIC "-//W3C//DTD SVG 1.1//EN"
 "http://www.w3.org/Graphics/SVG/1.1/DTD/svg11.dtd">
<!-- Generated by graphviz version 7.0.5 (20221223.1930)
 -->
<!-- Title: src/f_op/f_op_overlap_req.cpp Pages: 1 -->
<!--zoomable 533 -->
<svg id="main" version="1.1" xmlns="http://www.w3.org/2000/svg" xmlns:xlink="http://www.w3.org/1999/xlink" xml:space="preserve" onload="init(evt)">
<style type="text/css"><![CDATA[
.edge:hover path { stroke: red; }
.edge:hover polygon { stroke: red; fill: red; }
]]></style>
<script type="text/javascript"><![CDATA[
var edges = document.getElementsByTagName('g');
if (edges && edges.length) {
  for (var i=0;i<edges.length;i++) {
    if (edges[i].id.substr(0,4)=='edge') {
      edges[i].setAttribute('class','edge');
    }
  }
}
]]></script>
        <defs>
                <circle id="rim" cx="0" cy="0" r="7"/>
                <circle id="rim2" cx="0" cy="0" r="3.5"/>
                <g id="zoomPlus">
                        <use xlink:href="#rim" fill="#404040">
                                <set attributeName="fill" to="#808080" begin="zoomplus.mouseover" end="zoomplus.mouseout"/>
                        </use>
                        <path d="M-4,0h8M0,-4v8" fill="none" stroke="white" stroke-width="1.5" pointer-events="none"/>
                </g>
                <g id="zoomMin">
                        <use xlink:href="#rim" fill="#404040">
                                <set attributeName="fill" to="#808080" begin="zoomminus.mouseover" end="zoomminus.mouseout"/>
                        </use>
                        <path d="M-4,0h8" fill="none" stroke="white" stroke-width="1.5" pointer-events="none"/>
                </g>
                <g id="dirArrow">
                        <path fill="none" stroke="white" stroke-width="1.5" d="M0,-3.0v7 M-2.5,-0.5L0,-3.0L2.5,-0.5"/>
                </g>
               <g id="resetDef">
                       <use xlink:href="#rim2" fill="#404040">
                               <set attributeName="fill" to="#808080" begin="reset.mouseover" end="reset.mouseout"/>
                       </use>
               </g>
        </defs>

<script type="text/javascript">
var viewWidth = 1363;
var viewHeight = 533;
var sectionId = 'dynsection-0';
</script>
<script xlink:href="svgpan.js"/>
<svg id="graph" class="graph">
<g id="viewport">
<title>src/f_op/f_op_overlap_req.cpp</title>
<!-- Node1 -->
<g id="node1" class="node">
<title>Node1</title>
<g id="a_node1"><a xlink:title=" ">
<polygon fill="#999999" stroke="#666666" points="982.42,-525 872.42,-525 872.42,-495 982.42,-495 982.42,-525"/>
<text text-anchor="start" x="880.42" y="-513" font-family="Helvetica,sans-Serif" font-size="10.00">src/f_op/f_op_overlap</text>
<text text-anchor="middle" x="927.42" y="-502" font-family="Helvetica,sans-Serif" font-size="10.00">_req.cpp</text>
</a>
</g>
</g>
<!-- Node2 -->
<g id="node2" class="node">
<title>Node2</title>
<g id="a_node2"><a xlink:href="c__request_8h.html" target="_top" xlink:title=" ">
<polygon fill="white" stroke="#666666" points="1126.42,-459 1010.42,-459 1010.42,-429 1126.42,-429 1126.42,-459"/>
<text text-anchor="start" x="1018.42" y="-447" font-family="Helvetica,sans-Serif" font-size="10.00">SSystem/SComponent</text>
<text text-anchor="middle" x="1068.42" y="-436" font-family="Helvetica,sans-Serif" font-size="10.00">/c_request.h</text>
</a>
</g>
</g>
<!-- Node1&#45;&gt;Node2 -->
<g id="edge1" class="edge">
<title>Node1&#45;&gt;Node2</title>
<path fill="none" stroke="#63b8ff" d="M959.06,-494.64C979.01,-485.58 1005.01,-473.78 1026.65,-463.96"/>
<polygon fill="#63b8ff" stroke="#63b8ff" points="1027.84,-467.26 1035.5,-459.94 1024.95,-460.89 1027.84,-467.26"/>
</g>
<!-- Node5 -->
<g id="node5" class="node">
<title>Node5</title>
<g id="a_node5"><a xlink:href="f__op__overlap__req_8h.html" target="_top" xlink:title=" ">
<polygon fill="white" stroke="#666666" points="1302.42,-453.5 1182.42,-453.5 1182.42,-434.5 1302.42,-434.5 1302.42,-453.5"/>
<text text-anchor="middle" x="1242.42" y="-441.5" font-family="Helvetica,sans-Serif" font-size="10.00">f_op/f_op_overlap_req.h</text>
</a>
</g>
</g>
<!-- Node1&#45;&gt;Node5 -->
<g id="edge4" class="edge">
<title>Node1&#45;&gt;Node5</title>
<path fill="none" stroke="#63b8ff" d="M982.64,-497.78C1040.21,-486.08 1129.89,-467.86 1187.38,-456.18"/>
<polygon fill="#63b8ff" stroke="#63b8ff" points="1187.85,-459.66 1196.95,-454.24 1186.45,-452.8 1187.85,-459.66"/>
</g>
<!-- Node7 -->
<g id="node7" class="node">
<title>Node7</title>
<g id="a_node7"><a xlink:href="f__pc__manager_8h.html" target="_top" xlink:title=" ">
<polygon fill="white" stroke="#666666" points="915.92,-453.5 808.92,-453.5 808.92,-434.5 915.92,-434.5 915.92,-453.5"/>
<text text-anchor="middle" x="862.42" y="-441.5" font-family="Helvetica,sans-Serif" font-size="10.00">f_pc/f_pc_manager.h</text>
</a>
</g>
</g>
<!-- Node1&#45;&gt;Node7 -->
<g id="edge7" class="edge">
<title>Node1&#45;&gt;Node7</title>
<path fill="none" stroke="#63b8ff" d="M912.99,-494.8C903.06,-485.01 889.82,-471.98 879.38,-461.7"/>
<polygon fill="#63b8ff" stroke="#63b8ff" points="882.06,-459.43 872.48,-454.91 877.15,-464.42 882.06,-459.43"/>
</g>
<!-- Node28 -->
<g id="node28" class="node">
<title>Node28</title>
<g id="a_node28"><a xlink:href="f__pc__stdcreate__req_8h.html" target="_top" xlink:title=" ">
<polygon fill="white" stroke="#666666" points="660.92,-393 557.92,-393 557.92,-363 660.92,-363 660.92,-393"/>
<text text-anchor="start" x="565.92" y="-381" font-family="Helvetica,sans-Serif" font-size="10.00">f_pc/f_pc_stdcreate</text>
<text text-anchor="middle" x="609.42" y="-370" font-family="Helvetica,sans-Serif" font-size="10.00">_req.h</text>
</a>
</g>
</g>
<!-- Node1&#45;&gt;Node28 -->
<g id="edge50" class="edge">
<title>Node1&#45;&gt;Node28</title>
<path fill="none" stroke="#63b8ff" d="M889.79,-494.6C864.23,-484.74 829.7,-471.29 799.42,-459 749.09,-438.58 691.68,-414.26 653.25,-397.84"/>
<polygon fill="#63b8ff" stroke="#63b8ff" points="654.9,-394.74 644.33,-394.02 652.15,-401.18 654.9,-394.74"/>
</g>
<!-- Node3 -->
<g id="node3" class="node">
<title>Node3</title>
<g id="a_node3"><a xlink:href="types_8h.html" target="_top" xlink:title=" ">
<polygon fill="white" stroke="#666666" points="940.92,-79.5 859.92,-79.5 859.92,-60.5 940.92,-60.5 940.92,-79.5"/>
<text text-anchor="middle" x="900.42" y="-67.5" font-family="Helvetica,sans-Serif" font-size="10.00">dolphin/types.h</text>
</a>
</g>
</g>
<!-- Node2&#45;&gt;Node3 -->
<g id="edge2" class="edge">
<title>Node2&#45;&gt;Node3</title>
<path fill="none" stroke="#63b8ff" d="M1107.49,-428.58C1149.83,-410.14 1211.42,-373.8 1211.42,-318.5 1211.42,-318.5 1211.42,-318.5 1211.42,-201 1211.42,-162.87 1209.85,-145.24 1180.42,-121 1146.43,-93.01 1023.93,-79.75 952.72,-74.29"/>
<polygon fill="#63b8ff" stroke="#63b8ff" points="953.07,-70.8 942.84,-73.56 952.55,-77.78 953.07,-70.8"/>
</g>
<!-- Node4 -->
<g id="node4" class="node">
<title>Node4</title>
<g id="a_node4"><a xlink:href="stddef_8h.html" target="_top" xlink:title=" ">
<polygon fill="white" stroke="#666666" points="925.92,-19 874.92,-19 874.92,0 925.92,0 925.92,-19"/>
<text text-anchor="middle" x="900.42" y="-7" font-family="Helvetica,sans-Serif" font-size="10.00">stddef.h</text>
</a>
</g>
</g>
<!-- Node3&#45;&gt;Node4 -->
<g id="edge3" class="edge">
<title>Node3&#45;&gt;Node4</title>
<path fill="none" stroke="#63b8ff" d="M900.42,-60.37C900.42,-52.5 900.42,-40.6 900.42,-30.39"/>
<polygon fill="#63b8ff" stroke="#63b8ff" points="903.92,-30.68 900.42,-20.68 896.92,-30.68 903.92,-30.68"/>
</g>
<!-- Node6 -->
<g id="node6" class="node">
<title>Node6</title>
<g id="a_node6"><a xlink:href="c__phase_8h.html" target="_top" xlink:title=" ">
<polygon fill="white" stroke="#666666" points="1355.42,-217 1239.42,-217 1239.42,-187 1355.42,-187 1355.42,-217"/>
<text text-anchor="start" x="1247.42" y="-205" font-family="Helvetica,sans-Serif" font-size="10.00">SSystem/SComponent</text>
<text text-anchor="middle" x="1297.42" y="-194" font-family="Helvetica,sans-Serif" font-size="10.00">/c_phase.h</text>
</a>
</g>
</g>
<!-- Node5&#45;&gt;Node6 -->
<g id="edge5" class="edge">
<title>Node5&#45;&gt;Node6</title>
<path fill="none" stroke="#63b8ff" d="M1244.44,-434.17C1252.1,-400.75 1279.5,-281.18 1291.6,-228.38"/>
<polygon fill="#63b8ff" stroke="#63b8ff" points="1294.97,-229.33 1293.79,-218.8 1288.15,-227.77 1294.97,-229.33"/>
</g>
<!-- Node6&#45;&gt;Node3 -->
<g id="edge6" class="edge">
<title>Node6&#45;&gt;Node3</title>
<path fill="none" stroke="#63b8ff" d="M1288.99,-186.71C1277.27,-168.22 1254.19,-136.54 1225.42,-121 1179.28,-96.08 1031.99,-81.17 952.48,-74.75"/>
<polygon fill="#63b8ff" stroke="#63b8ff" points="953.02,-71.28 942.77,-73.98 952.47,-78.26 953.02,-71.28"/>
</g>
<!-- Node8 -->
<g id="node8" class="node">
<title>Node8</title>
<g id="a_node8"><a xlink:href="f__pc__create__iter_8h.html" target="_top" xlink:title=" ">
<polygon fill="white" stroke="#666666" points="1171.42,-145.5 1055.42,-145.5 1055.42,-126.5 1171.42,-126.5 1171.42,-145.5"/>
<text text-anchor="middle" x="1113.42" y="-133.5" font-family="Helvetica,sans-Serif" font-size="10.00">f_pc/f_pc_create_iter.h</text>
</a>
</g>
</g>
<!-- Node7&#45;&gt;Node8 -->
<g id="edge8" class="edge">
<title>Node7&#45;&gt;Node8</title>
<path fill="none" stroke="#63b8ff" d="M911.01,-434.02C998.48,-416.45 1173.42,-374.33 1173.42,-318.5 1173.42,-318.5 1173.42,-318.5 1173.42,-261.5 1173.42,-220.12 1146.18,-177.98 1128.41,-154.89"/>
<polygon fill="#63b8ff" stroke="#63b8ff" points="1131.19,-152.76 1122.21,-147.14 1125.72,-157.14 1131.19,-152.76"/>
</g>
<!-- Node9 -->
<g id="node9" class="node">
<title>Node9</title>
<g id="a_node9"><a xlink:href="f__pc__executor_8h.html" target="_top" xlink:title=" ">
<polygon fill="white" stroke="#666666" points="1018.92,-387.5 911.92,-387.5 911.92,-368.5 1018.92,-368.5 1018.92,-387.5"/>
<text text-anchor="middle" x="965.42" y="-375.5" font-family="Helvetica,sans-Serif" font-size="10.00">f_pc/f_pc_executor.h</text>
</a>
</g>
</g>
<!-- Node7&#45;&gt;Node9 -->
<g id="edge10" class="edge">
<title>Node7&#45;&gt;Node9</title>
<path fill="none" stroke="#63b8ff" d="M876.74,-434.1C893.49,-423.69 921.5,-406.29 941.55,-393.83"/>
<polygon fill="#63b8ff" stroke="#63b8ff" points="943.28,-396.87 949.93,-388.62 939.59,-390.93 943.28,-396.87"/>
</g>
<!-- Node12 -->
<g id="node12" class="node">
<title>Node12</title>
<g id="a_node12"><a xlink:href="f__pc__leaf_8h.html" target="_top" xlink:title=" ">
<polygon fill="white" stroke="#666666" points="874.42,-387.5 788.42,-387.5 788.42,-368.5 874.42,-368.5 874.42,-387.5"/>
<text text-anchor="middle" x="831.42" y="-375.5" font-family="Helvetica,sans-Serif" font-size="10.00">f_pc/f_pc_leaf.h</text>
</a>
</g>
</g>
<!-- Node7&#45;&gt;Node12 -->
<g id="edge14" class="edge">
<title>Node7&#45;&gt;Node12</title>
<path fill="none" stroke="#63b8ff" d="M858.11,-434.1C853.62,-424.84 846.45,-410.04 840.67,-398.11"/>
<polygon fill="#63b8ff" stroke="#63b8ff" points="843.86,-396.66 836.35,-389.19 837.56,-399.71 843.86,-396.66"/>
</g>
<!-- Node24 -->
<g id="node24" class="node">
<title>Node24</title>
<g id="a_node24"><a xlink:href="f__pc__node_8h.html" target="_top" xlink:title=" ">
<polygon fill="white" stroke="#666666" points="769.92,-387.5 678.92,-387.5 678.92,-368.5 769.92,-368.5 769.92,-387.5"/>
<text text-anchor="middle" x="724.42" y="-375.5" font-family="Helvetica,sans-Serif" font-size="10.00">f_pc/f_pc_node.h</text>
</a>
</g>
</g>
<!-- Node7&#45;&gt;Node24 -->
<g id="edge33" class="edge">
<title>Node7&#45;&gt;Node24</title>
<path fill="none" stroke="#63b8ff" d="M843.23,-434.1C820.05,-423.35 780.83,-405.16 753.83,-392.64"/>
<polygon fill="#63b8ff" stroke="#63b8ff" points="755.36,-389.49 744.81,-388.46 752.41,-395.84 755.36,-389.49"/>
</g>
<!-- Node7&#45;&gt;Node28 -->
<g id="edge42" class="edge">
<title>Node7&#45;&gt;Node28</title>
<path fill="none" stroke="#63b8ff" d="M826.97,-434.03C786.98,-423.92 721.15,-407.26 672.36,-394.92"/>
<polygon fill="#63b8ff" stroke="#63b8ff" points="673.31,-391.55 662.76,-392.49 671.59,-398.34 673.31,-391.55"/>
</g>
<!-- Node8&#45;&gt;Node3 -->
<g id="edge9" class="edge">
<title>Node8&#45;&gt;Node3</title>
<path fill="none" stroke="#63b8ff" d="M1083.8,-126.1C1046.63,-114.93 982.7,-95.72 941,-83.19"/>
<polygon fill="#63b8ff" stroke="#63b8ff" points="942.16,-79.89 931.57,-80.36 940.14,-86.59 942.16,-79.89"/>
</g>
<!-- Node10 -->
<g id="node10" class="node">
<title>Node10</title>
<g id="a_node10"><a xlink:href="f__pc__layer__iter_8h.html" target="_top" xlink:title=" ">
<polygon fill="white" stroke="#666666" points="1144.92,-327 1035.92,-327 1035.92,-308 1144.92,-308 1144.92,-327"/>
<text text-anchor="middle" x="1090.42" y="-315" font-family="Helvetica,sans-Serif" font-size="10.00">f_pc/f_pc_layer_iter.h</text>
</a>
</g>
</g>
<!-- Node9&#45;&gt;Node10 -->
<g id="edge11" class="edge">
<title>Node9&#45;&gt;Node10</title>
<path fill="none" stroke="#63b8ff" d="M984.4,-368.12C1004.77,-358.58 1037.4,-343.31 1061.08,-332.23"/>
<polygon fill="#63b8ff" stroke="#63b8ff" points="1062.31,-335.52 1069.88,-328.11 1059.34,-329.18 1062.31,-335.52"/>
</g>
<!-- Node11 -->
<g id="node11" class="node">
<title>Node11</title>
<g id="a_node11"><a xlink:href="f__pc__line__iter_8h.html" target="_top" xlink:title=" ">
<polygon fill="white" stroke="#666666" points="1017.42,-327 913.42,-327 913.42,-308 1017.42,-308 1017.42,-327"/>
<text text-anchor="middle" x="965.42" y="-315" font-family="Helvetica,sans-Serif" font-size="10.00">f_pc/f_pc_line_iter.h</text>
</a>
</g>
</g>
<!-- Node9&#45;&gt;Node11 -->
<g id="edge13" class="edge">
<title>Node9&#45;&gt;Node11</title>
<path fill="none" stroke="#63b8ff" d="M965.42,-368.37C965.42,-360.5 965.42,-348.6 965.42,-338.39"/>
<polygon fill="#63b8ff" stroke="#63b8ff" points="968.92,-338.68 965.42,-328.68 961.92,-338.68 968.92,-338.68"/>
</g>
<!-- Node10&#45;&gt;Node3 -->
<g id="edge12" class="edge">
<title>Node10&#45;&gt;Node3</title>
<path fill="none" stroke="#63b8ff" d="M1086.79,-307.85C1074.32,-278.81 1030.73,-183.17 972.42,-121 959.13,-106.84 941.21,-94.38 926.57,-85.44"/>
<polygon fill="#63b8ff" stroke="#63b8ff" points="928.75,-82.66 918.36,-80.6 925.2,-88.69 928.75,-82.66"/>
</g>
<!-- Node13 -->
<g id="node13" class="node">
<title>Node13</title>
<g id="a_node13"><a xlink:href="f__pc__base_8h.html" target="_top" xlink:title=" ">
<polygon fill="white" stroke="#666666" points="468.92,-327 377.92,-327 377.92,-308 468.92,-308 468.92,-327"/>
<text text-anchor="middle" x="423.42" y="-315" font-family="Helvetica,sans-Serif" font-size="10.00">f_pc/f_pc_base.h</text>
</a>
</g>
</g>
<!-- Node12&#45;&gt;Node13 -->
<g id="edge15" class="edge">
<title>Node12&#45;&gt;Node13</title>
<path fill="none" stroke="#63b8ff" d="M800.19,-368.01C793.07,-366.17 785.52,-364.38 778.42,-363 674.3,-342.82 551.14,-329.76 480.67,-323.3"/>
<polygon fill="#63b8ff" stroke="#63b8ff" points="481.18,-319.84 470.9,-322.42 480.55,-326.81 481.18,-319.84"/>
</g>
<!-- Node21 -->
<g id="node21" class="node">
<title>Node21</title>
<g id="a_node21"><a xlink:href="f__pc__draw__priority_8h.html" target="_top" xlink:title=" ">
<polygon fill="white" stroke="#666666" points="962.92,-145.5 837.92,-145.5 837.92,-126.5 962.92,-126.5 962.92,-145.5"/>
<text text-anchor="middle" x="900.42" y="-133.5" font-family="Helvetica,sans-Serif" font-size="10.00">f_pc/f_pc_draw_priority.h</text>
</a>
</g>
</g>
<!-- Node12&#45;&gt;Node21 -->
<g id="edge27" class="edge">
<title>Node12&#45;&gt;Node21</title>
<path fill="none" stroke="#63b8ff" d="M839.19,-368.09C847.06,-358.57 858.96,-342.73 865.42,-327 889.59,-268.14 897.15,-192.18 899.45,-156.79"/>
<polygon fill="#63b8ff" stroke="#63b8ff" points="902.92,-157.38 900,-147.2 895.94,-156.98 902.92,-157.38"/>
</g>
<!-- Node22 -->
<g id="node22" class="node">
<title>Node22</title>
<g id="a_node22"><a xlink:href="f__pc__method_8h.html" target="_top" xlink:title=" ">
<polygon fill="white" stroke="#666666" points="763.42,-211.5 661.42,-211.5 661.42,-192.5 763.42,-192.5 763.42,-211.5"/>
<text text-anchor="middle" x="712.42" y="-199.5" font-family="Helvetica,sans-Serif" font-size="10.00">f_pc/f_pc_method.h</text>
</a>
</g>
</g>
<!-- Node12&#45;&gt;Node22 -->
<g id="edge29" class="edge">
<title>Node12&#45;&gt;Node22</title>
<path fill="none" stroke="#63b8ff" d="M809.31,-368.12C791.56,-359.92 767.23,-346.12 752.42,-327 728.12,-295.65 718.34,-249.09 714.59,-222.85"/>
<polygon fill="#63b8ff" stroke="#63b8ff" points="718.11,-222.74 713.39,-213.26 711.16,-223.62 718.11,-222.74"/>
</g>
<!-- Node23 -->
<g id="node23" class="node">
<title>Node23</title>
<g id="a_node23"><a xlink:href="f__pc__profile_8h.html" target="_top" xlink:title=" ">
<polygon fill="white" stroke="#666666" points="856.92,-327 761.92,-327 761.92,-308 856.92,-308 856.92,-327"/>
<text text-anchor="middle" x="809.42" y="-315" font-family="Helvetica,sans-Serif" font-size="10.00">f_pc/f_pc_profile.h</text>
</a>
</g>
</g>
<!-- Node12&#45;&gt;Node23 -->
<g id="edge31" class="edge">
<title>Node12&#45;&gt;Node23</title>
<path fill="none" stroke="#63b8ff" d="M828.17,-368.37C825.15,-360.33 820.54,-348.07 816.64,-337.72"/>
<polygon fill="#63b8ff" stroke="#63b8ff" points="820,-336.71 813.21,-328.58 813.45,-339.18 820,-336.71"/>
</g>
<!-- Node14 -->
<g id="node14" class="node">
<title>Node14</title>
<g id="a_node14"><a xlink:href="f__pc__delete__tag_8h.html" target="_top" xlink:title=" ">
<polygon fill="white" stroke="#666666" points="289.92,-272 174.92,-272 174.92,-253 289.92,-253 289.92,-272"/>
<text text-anchor="middle" x="232.42" y="-260" font-family="Helvetica,sans-Serif" font-size="10.00">f_pc/f_pc_delete_tag.h</text>
</a>
</g>
</g>
<!-- Node13&#45;&gt;Node14 -->
<g id="edge16" class="edge">
<title>Node13&#45;&gt;Node14</title>
<path fill="none" stroke="#63b8ff" d="M391.02,-307.51C359.23,-298.69 310.55,-285.18 275.51,-275.46"/>
<polygon fill="#63b8ff" stroke="#63b8ff" points="276.69,-272.15 266.11,-272.85 274.81,-278.9 276.69,-272.15"/>
</g>
<!-- Node17 -->
<g id="node17" class="node">
<title>Node17</title>
<g id="a_node17"><a xlink:href="f__pc__layer__tag_8h.html" target="_top" xlink:title=" ">
<polygon fill="white" stroke="#666666" points="416.92,-272 307.92,-272 307.92,-253 416.92,-253 416.92,-272"/>
<text text-anchor="middle" x="362.42" y="-260" font-family="Helvetica,sans-Serif" font-size="10.00">f_pc/f_pc_layer_tag.h</text>
</a>
</g>
</g>
<!-- Node13&#45;&gt;Node17 -->
<g id="edge20" class="edge">
<title>Node13&#45;&gt;Node17</title>
<path fill="none" stroke="#63b8ff" d="M413.07,-307.51C404.34,-299.93 391.63,-288.88 381.12,-279.75"/>
<polygon fill="#63b8ff" stroke="#63b8ff" points="383.6,-277.27 373.75,-273.35 379.01,-282.55 383.6,-277.27"/>
</g>
<!-- Node18 -->
<g id="node18" class="node">
<title>Node18</title>
<g id="a_node18"><a xlink:href="f__pc__line__tag_8h.html" target="_top" xlink:title=" ">
<polygon fill="white" stroke="#666666" points="156.42,-272 52.42,-272 52.42,-253 156.42,-253 156.42,-272"/>
<text text-anchor="middle" x="104.42" y="-260" font-family="Helvetica,sans-Serif" font-size="10.00">f_pc/f_pc_line_tag.h</text>
</a>
</g>
</g>
<!-- Node13&#45;&gt;Node18 -->
<g id="edge22" class="edge">
<title>Node13&#45;&gt;Node18</title>
<path fill="none" stroke="#63b8ff" d="M377.71,-308.91C322.65,-299.76 229.84,-284.34 167.86,-274.04"/>
<polygon fill="#63b8ff" stroke="#63b8ff" points="168.59,-270.61 158.15,-272.43 167.45,-277.52 168.59,-270.61"/>
</g>
<!-- Node19 -->
<g id="node19" class="node">
<title>Node19</title>
<g id="a_node19"><a xlink:href="f__pc__priority_8h.html" target="_top" xlink:title=" ">
<polygon fill="white" stroke="#666666" points="533.42,-272 435.42,-272 435.42,-253 533.42,-253 533.42,-272"/>
<text text-anchor="middle" x="484.42" y="-260" font-family="Helvetica,sans-Serif" font-size="10.00">f_pc/f_pc_priority.h</text>
</a>
</g>
</g>
<!-- Node13&#45;&gt;Node19 -->
<g id="edge24" class="edge">
<title>Node13&#45;&gt;Node19</title>
<path fill="none" stroke="#63b8ff" d="M433.76,-307.51C442.49,-299.93 455.21,-288.88 465.71,-279.75"/>
<polygon fill="#63b8ff" stroke="#63b8ff" points="467.82,-282.55 473.08,-273.35 463.23,-277.27 467.82,-282.55"/>
</g>
<!-- Node15 -->
<g id="node15" class="node">
<title>Node15</title>
<g id="a_node15"><a xlink:href="c__tag_8h.html" target="_top" xlink:title=" ">
<polygon fill="white" stroke="#666666" points="436.42,-151 320.42,-151 320.42,-121 436.42,-121 436.42,-151"/>
<text text-anchor="start" x="328.42" y="-139" font-family="Helvetica,sans-Serif" font-size="10.00">SSystem/SComponent</text>
<text text-anchor="middle" x="378.42" y="-128" font-family="Helvetica,sans-Serif" font-size="10.00">/c_tag.h</text>
</a>
</g>
</g>
<!-- Node14&#45;&gt;Node15 -->
<g id="edge17" class="edge">
<title>Node14&#45;&gt;Node15</title>
<path fill="none" stroke="#63b8ff" d="M258.16,-252.53C277.07,-245.06 302.64,-233.06 321.42,-217 339.77,-201.3 355.26,-178.49 365.44,-161.24"/>
<polygon fill="#63b8ff" stroke="#63b8ff" points="368.42,-163.07 370.32,-152.65 362.33,-159.61 368.42,-163.07"/>
</g>
<!-- Node15&#45;&gt;Node3 -->
<g id="edge19" class="edge">
<title>Node15&#45;&gt;Node3</title>
<path fill="none" stroke="#63b8ff" d="M436.78,-127.84C539.29,-115.28 750.11,-89.43 848.15,-77.41"/>
<polygon fill="#63b8ff" stroke="#63b8ff" points="848.53,-80.89 858.03,-76.2 847.68,-73.94 848.53,-80.89"/>
</g>
<!-- Node16 -->
<g id="node16" class="node">
<title>Node16</title>
<g id="a_node16"><a xlink:href="c__node_8h.html" target="_top" xlink:title=" ">
<polygon fill="white" stroke="#666666" points="240.42,-85 124.42,-85 124.42,-55 240.42,-55 240.42,-85"/>
<text text-anchor="start" x="132.42" y="-73" font-family="Helvetica,sans-Serif" font-size="10.00">SSystem/SComponent</text>
<text text-anchor="middle" x="182.42" y="-62" font-family="Helvetica,sans-Serif" font-size="10.00">/c_node.h</text>
</a>
</g>
</g>
<!-- Node15&#45;&gt;Node16 -->
<g id="edge18" class="edge">
<title>Node15&#45;&gt;Node16</title>
<path fill="none" stroke="#63b8ff" d="M334.43,-120.64C305.78,-111.28 268.18,-99 237.54,-89"/>
<polygon fill="#63b8ff" stroke="#63b8ff" points="238.62,-85.67 228.03,-85.9 236.45,-92.33 238.62,-85.67"/>
</g>
<!-- Node17&#45;&gt;Node15 -->
<g id="edge21" class="edge">
<title>Node17&#45;&gt;Node15</title>
<path fill="none" stroke="#63b8ff" d="M363.57,-252.55C365.95,-233.99 371.51,-190.75 375.11,-162.75"/>
<polygon fill="#63b8ff" stroke="#63b8ff" points="378.56,-163.31 376.37,-152.95 371.62,-162.42 378.56,-163.31"/>
</g>
<!-- Node18&#45;&gt;Node15 -->
<g id="edge23" class="edge">
<title>Node18&#45;&gt;Node15</title>
<path fill="none" stroke="#63b8ff" d="M111.66,-252.67C124.99,-237.03 155.02,-204.44 187.42,-187 208.54,-175.63 263.65,-161.75 309.28,-151.5"/>
<polygon fill="#63b8ff" stroke="#63b8ff" points="309.87,-154.95 318.87,-149.37 308.35,-148.12 309.87,-154.95"/>
</g>
<!-- Node20 -->
<g id="node20" class="node">
<title>Node20</title>
<g id="a_node20"><a xlink:href="f__pc__method__tag_8h.html" target="_top" xlink:title=" ">
<polygon fill="white" stroke="#666666" points="544.92,-211.5 423.92,-211.5 423.92,-192.5 544.92,-192.5 544.92,-211.5"/>
<text text-anchor="middle" x="484.42" y="-199.5" font-family="Helvetica,sans-Serif" font-size="10.00">f_pc/f_pc_method_tag.h</text>
</a>
</g>
</g>
<!-- Node19&#45;&gt;Node20 -->
<g id="edge25" class="edge">
<title>Node19&#45;&gt;Node20</title>
<path fill="none" stroke="#63b8ff" d="M484.42,-252.87C484.42,-245 484.42,-233.1 484.42,-222.89"/>
<polygon fill="#63b8ff" stroke="#63b8ff" points="487.92,-223.18 484.42,-213.18 480.92,-223.18 487.92,-223.18"/>
</g>
<!-- Node20&#45;&gt;Node15 -->
<g id="edge26" class="edge">
<title>Node20&#45;&gt;Node15</title>
<path fill="none" stroke="#63b8ff" d="M469.68,-192.1C454.85,-183.15 431.48,-169.04 412.1,-157.34"/>
<polygon fill="#63b8ff" stroke="#63b8ff" points="414.06,-154.43 403.69,-152.26 410.44,-160.42 414.06,-154.43"/>
</g>
<!-- Node21&#45;&gt;Node3 -->
<g id="edge28" class="edge">
<title>Node21&#45;&gt;Node3</title>
<path fill="none" stroke="#63b8ff" d="M900.42,-126.1C900.42,-117.12 900.42,-102.95 900.42,-91.22"/>
<polygon fill="#63b8ff" stroke="#63b8ff" points="903.92,-91.34 900.42,-81.34 896.92,-91.34 903.92,-91.34"/>
</g>
<!-- Node22&#45;&gt;Node3 -->
<g id="edge30" class="edge">
<title>Node22&#45;&gt;Node3</title>
<path fill="none" stroke="#63b8ff" d="M719.89,-192.11C733.58,-176.23 764.15,-142.65 795.42,-121 817.32,-105.83 844.55,-93.01 865.79,-84.15"/>
<polygon fill="#63b8ff" stroke="#63b8ff" points="866.94,-87.46 874.89,-80.46 864.31,-80.97 866.94,-87.46"/>
</g>
<!-- Node23&#45;&gt;Node3 -->
<g id="edge32" class="edge">
<title>Node23&#45;&gt;Node3</title>
<path fill="none" stroke="#63b8ff" d="M807.8,-307.52C803.03,-278.27 791.5,-183.95 828.42,-121 837.61,-105.32 853.9,-93.39 868.66,-85.12"/>
<polygon fill="#63b8ff" stroke="#63b8ff" points="869.93,-88.4 877.18,-80.68 866.7,-82.19 869.93,-88.4"/>
</g>
<!-- Node24&#45;&gt;Node13 -->
<g id="edge34" class="edge">
<title>Node24&#45;&gt;Node13</title>
<path fill="none" stroke="#63b8ff" d="M690.76,-368.04C683.73,-366.27 676.35,-364.51 669.42,-363 605.09,-349.01 530.62,-335.98 480.62,-327.68"/>
<polygon fill="#63b8ff" stroke="#63b8ff" points="481.33,-324.25 470.89,-326.07 480.19,-331.15 481.33,-324.25"/>
</g>
<!-- Node24&#45;&gt;Node22 -->
<g id="edge40" class="edge">
<title>Node24&#45;&gt;Node22</title>
<path fill="none" stroke="#63b8ff" d="M723.41,-368.16C722.31,-358.17 720.54,-341.44 719.42,-327 716.55,-290.37 714.4,-247.58 713.28,-223.04"/>
<polygon fill="#63b8ff" stroke="#63b8ff" points="716.78,-223.08 712.85,-213.24 709.79,-223.39 716.78,-223.08"/>
</g>
<!-- Node24&#45;&gt;Node23 -->
<g id="edge41" class="edge">
<title>Node24&#45;&gt;Node23</title>
<path fill="none" stroke="#63b8ff" d="M737.33,-368.12C750.56,-359.01 771.38,-344.68 787.25,-333.75"/>
<polygon fill="#63b8ff" stroke="#63b8ff" points="788.88,-336.88 795.14,-328.33 784.92,-331.11 788.88,-336.88"/>
</g>
<!-- Node25 -->
<g id="node25" class="node">
<title>Node25</title>
<g id="a_node25"><a xlink:href="f__pc__layer_8h.html" target="_top" xlink:title=" ">
<polygon fill="white" stroke="#666666" points="117.42,-211.5 27.42,-211.5 27.42,-192.5 117.42,-192.5 117.42,-211.5"/>
<text text-anchor="middle" x="72.42" y="-199.5" font-family="Helvetica,sans-Serif" font-size="10.00">f_pc/f_pc_layer.h</text>
</a>
</g>
</g>
<!-- Node24&#45;&gt;Node25 -->
<g id="edge35" class="edge">
<title>Node24&#45;&gt;Node25</title>
<path fill="none" stroke="#63b8ff" d="M692,-368C684.62,-366.16 676.78,-364.37 669.42,-363 531.22,-337.26 134.14,-379.37 43.42,-272 30.64,-256.88 43.34,-235.31 55.73,-220.33"/>
<polygon fill="#63b8ff" stroke="#63b8ff" points="58.13,-222.9 62.16,-213.1 52.89,-218.25 58.13,-222.9"/>
</g>
<!-- Node25&#45;&gt;Node3 -->
<g id="edge39" class="edge">
<title>Node25&#45;&gt;Node3</title>
<path fill="none" stroke="#63b8ff" d="M84.35,-192.25C97.81,-182.34 120.3,-165.67 139.42,-151 156.48,-137.9 157.34,-128.75 177.42,-121 299.97,-73.65 703.74,-70.28 848.33,-70.64"/>
<polygon fill="#63b8ff" stroke="#63b8ff" points="847.97,-74.14 857.99,-70.68 848,-67.14 847.97,-74.14"/>
</g>
<!-- Node25&#45;&gt;Node16 -->
<g id="edge37" class="edge">
<title>Node25&#45;&gt;Node16</title>
<path fill="none" stroke="#63b8ff" d="M55.15,-192.12C29.19,-177.6 -14.81,-147.73 5.42,-121 18.71,-103.43 69.1,-90.28 112.73,-81.88"/>
<polygon fill="#63b8ff" stroke="#63b8ff" points="113.26,-85.34 122.45,-80.07 111.98,-78.46 113.26,-85.34"/>
</g>
<!-- Node26 -->
<g id="node26" class="node">
<title>Node26</title>
<g id="a_node26"><a xlink:href="c__list_8h.html" target="_top" xlink:title=" ">
<polygon fill="white" stroke="#666666" points="302.42,-151 186.42,-151 186.42,-121 302.42,-121 302.42,-151"/>
<text text-anchor="start" x="194.42" y="-139" font-family="Helvetica,sans-Serif" font-size="10.00">SSystem/SComponent</text>
<text text-anchor="middle" x="244.42" y="-128" font-family="Helvetica,sans-Serif" font-size="10.00">/c_list.h</text>
</a>
</g>
</g>
<!-- Node25&#45;&gt;Node26 -->
<g id="edge36" class="edge">
<title>Node25&#45;&gt;Node26</title>
<path fill="none" stroke="#63b8ff" d="M96.33,-192.1C121.71,-182.66 162.53,-167.47 194.89,-155.43"/>
<polygon fill="#63b8ff" stroke="#63b8ff" points="195.94,-158.77 204.09,-152.01 193.5,-152.21 195.94,-158.77"/>
</g>
<!-- Node27 -->
<g id="node27" class="node">
<title>Node27</title>
<g id="a_node27"><a xlink:href="c__tree_8h.html" target="_top" xlink:title=" ">
<polygon fill="white" stroke="#666666" points="130.42,-151 14.42,-151 14.42,-121 130.42,-121 130.42,-151"/>
<text text-anchor="start" x="22.42" y="-139" font-family="Helvetica,sans-Serif" font-size="10.00">SSystem/SComponent</text>
<text text-anchor="middle" x="72.42" y="-128" font-family="Helvetica,sans-Serif" font-size="10.00">/c_tree.h</text>
</a>
</g>
</g>
<!-- Node25&#45;&gt;Node27 -->
<g id="edge38" class="edge">
<title>Node25&#45;&gt;Node27</title>
<path fill="none" stroke="#63b8ff" d="M72.42,-192.1C72.42,-184.41 72.42,-172.92 72.42,-162.42"/>
<polygon fill="#63b8ff" stroke="#63b8ff" points="75.92,-162.75 72.42,-152.75 68.92,-162.75 75.92,-162.75"/>
</g>
<!-- Node29 -->
<g id="node29" class="node">
<title>Node29</title>
<g id="a_node29"><a xlink:href="f__pc__create__req_8h.html" target="_top" xlink:title=" ">
<polygon fill="white" stroke="#666666" points="667.42,-272 551.42,-272 551.42,-253 667.42,-253 667.42,-272"/>
<text text-anchor="middle" x="609.42" y="-260" font-family="Helvetica,sans-Serif" font-size="10.00">f_pc/f_pc_create_req.h</text>
</a>
</g>
</g>
<!-- Node28&#45;&gt;Node29 -->
<g id="edge43" class="edge">
<title>Node28&#45;&gt;Node29</title>
<path fill="none" stroke="#63b8ff" d="M609.42,-362.63C609.42,-342.59 609.42,-306.17 609.42,-283.49"/>
<polygon fill="#63b8ff" stroke="#63b8ff" points="612.92,-283.74 609.42,-273.74 605.92,-283.74 612.92,-283.74"/>
</g>
<!-- Node29&#45;&gt;Node6 -->
<g id="edge44" class="edge">
<title>Node29&#45;&gt;Node6</title>
<path fill="none" stroke="#63b8ff" d="M667.78,-256.54C794.04,-245.8 1092.12,-220.46 1227.88,-208.91"/>
<polygon fill="#63b8ff" stroke="#63b8ff" points="1228.15,-212.4 1237.82,-208.07 1227.56,-205.43 1228.15,-212.4"/>
</g>
<!-- Node29&#45;&gt;Node20 -->
<g id="edge49" class="edge">
<title>Node29&#45;&gt;Node20</title>
<path fill="none" stroke="#63b8ff" d="M590.43,-252.62C570.06,-243.08 537.44,-227.81 513.75,-216.73"/>
<polygon fill="#63b8ff" stroke="#63b8ff" points="515.49,-213.68 504.95,-212.61 512.52,-220.02 515.49,-213.68"/>
</g>
<!-- Node29&#45;&gt;Node22 -->
<g id="edge48" class="edge">
<title>Node29&#45;&gt;Node22</title>
<path fill="none" stroke="#63b8ff" d="M625.06,-252.62C641.39,-243.34 667.28,-228.63 686.64,-217.64"/>
<polygon fill="#63b8ff" stroke="#63b8ff" points="688.34,-220.7 695.31,-212.72 684.88,-214.61 688.34,-220.7"/>
</g>
<!-- Node30 -->
<g id="node30" class="node">
<title>Node30</title>
<g id="a_node30"><a xlink:href="f__pc__create__tag_8h.html" target="_top" xlink:title=" ">
<polygon fill="white" stroke="#666666" points="312.42,-211.5 196.42,-211.5 196.42,-192.5 312.42,-192.5 312.42,-211.5"/>
<text text-anchor="middle" x="254.42" y="-199.5" font-family="Helvetica,sans-Serif" font-size="10.00">f_pc/f_pc_create_tag.h</text>
</a>
</g>
</g>
<!-- Node29&#45;&gt;Node30 -->
<g id="edge45" class="edge">
<title>Node29&#45;&gt;Node30</title>
<path fill="none" stroke="#63b8ff" d="M555.11,-252.55C491.91,-242.14 387.6,-224.95 319.95,-213.8"/>
<polygon fill="#63b8ff" stroke="#63b8ff" points="320.93,-210.41 310.5,-212.24 319.8,-217.32 320.93,-210.41"/>
</g>
<!-- Node30&#45;&gt;Node15 -->
<g id="edge47" class="edge">
<title>Node30&#45;&gt;Node15</title>
<path fill="none" stroke="#63b8ff" d="M271.66,-192.1C289.32,-182.99 317.35,-168.52 340.26,-156.7"/>
<polygon fill="#63b8ff" stroke="#63b8ff" points="341.74,-159.87 349.02,-152.17 338.53,-153.65 341.74,-159.87"/>
</g>
<!-- Node30&#45;&gt;Node26 -->
<g id="edge46" class="edge">
<title>Node30&#45;&gt;Node26</title>
<path fill="none" stroke="#63b8ff" d="M253.03,-192.1C251.82,-184.41 250.03,-172.92 248.39,-162.42"/>
<polygon fill="#63b8ff" stroke="#63b8ff" points="251.88,-162.07 246.87,-152.73 244.96,-163.15 251.88,-162.07"/>
</g>
</g>
</svg>
        <g id="navigator" transform="translate(0 0)" fill="#404254">
                <rect fill="#f2f5e9" fill-opacity="0.5" stroke="#606060" stroke-width=".5" x="0" y="0" width="60" height="60"/>
                <use id="zoomplus" xlink:href="#zoomPlus" x="17" y="9" onmousedown="handleZoom(evt,'in')"/>
                <use id="zoomminus" xlink:href="#zoomMin" x="42" y="9" onmousedown="handleZoom(evt,'out')"/>
                <use id="reset" xlink:href="#resetDef" x="30" y="36" onmousedown="handleReset()"/>
                <g id="arrowUp" xlink:href="#dirArrow" transform="translate(30 24)" onmousedown="handlePan(0,-1)">
                  <use xlink:href="#rim" fill="#404040">
                        <set attributeName="fill" to="#808080" begin="arrowUp.mouseover" end="arrowUp.mouseout"/>
                  </use>
                  <path fill="none" stroke="white" stroke-width="1.5" d="M0,-3.0v7 M-2.5,-0.5L0,-3.0L2.5,-0.5"/>
                </g>
                <g id="arrowRight" xlink:href="#dirArrow" transform="rotate(90) translate(36 -43)" onmousedown="handlePan(1,0)">
                  <use xlink:href="#rim" fill="#404040">
                        <set attributeName="fill" to="#808080" begin="arrowRight.mouseover" end="arrowRight.mouseout"/>
                  </use>
                  <path fill="none" stroke="white" stroke-width="1.5" d="M0,-3.0v7 M-2.5,-0.5L0,-3.0L2.5,-0.5"/>
                </g>
                <g id="arrowDown" xlink:href="#dirArrow" transform="rotate(180) translate(-30 -48)" onmousedown="handlePan(0,1)">
                  <use xlink:href="#rim" fill="#404040">
                        <set attributeName="fill" to="#808080" begin="arrowDown.mouseover" end="arrowDown.mouseout"/>
                  </use>
                  <path fill="none" stroke="white" stroke-width="1.5" d="M0,-3.0v7 M-2.5,-0.5L0,-3.0L2.5,-0.5"/>
                </g>
                <g id="arrowLeft" xlink:href="#dirArrow" transform="rotate(270) translate(-36 17)" onmousedown="handlePan(-1,0)">
                  <use xlink:href="#rim" fill="#404040">
                        <set attributeName="fill" to="#808080" begin="arrowLeft.mouseover" end="arrowLeft.mouseout"/>
                  </use>
                  <path fill="none" stroke="white" stroke-width="1.5" d="M0,-3.0v7 M-2.5,-0.5L0,-3.0L2.5,-0.5"/>
                </g>
        </g>
        <svg viewBox="0 0 15 15" width="100%" height="30px" preserveAspectRatio="xMaxYMin meet">
         <g id="arrow_out" transform="scale(0.3 0.3)">
          <a xlink:href="f__op__overlap__req_8cpp__incl_org.svg" target="_base">
           <rect id="button" ry="5" rx="5" y="6" x="6" height="38" width="38"
                fill="#f2f5e9" fill-opacity="0.5" stroke="#606060" stroke-width="1.0"/>
           <path id="arrow"
             d="M 11.500037,31.436501 C 11.940474,20.09759 22.043105,11.32322 32.158766,21.979434 L 37.068811,17.246167 C 37.068811,17.246167 37.088388,32 37.088388,32 L 22.160133,31.978069 C 22.160133,31.978069 26.997745,27.140456 26.997745,27.140456 C 18.528582,18.264221 13.291696,25.230495 11.500037,31.436501 z"
             style="fill:#404040;"/>
          </a>
         </g>
        </svg>
</svg>
