<?xml version="1.0" encoding="UTF-8" standalone="no"?>
<!DOCTYPE svg PUBLIC "-//W3C//DTD SVG 1.1//EN"
 "http://www.w3.org/Graphics/SVG/1.1/DTD/svg11.dtd">
<!-- Generated by graphviz version 7.0.5 (20221223.1930)
 -->
<!-- Title: include/f_op/f_op_scene_mng.h Pages: 1 -->
<svg width="1504pt" height="159pt"
 viewBox="0.00 0.00 1504.00 159.00" xmlns="http://www.w3.org/2000/svg" xmlns:xlink="http://www.w3.org/1999/xlink">
<g id="graph0" class="graph" transform="scale(1 1) rotate(0) translate(4 155)">
<title>include/f_op/f_op_scene_mng.h</title>
<!-- Node1 -->
<g id="node1" class="node">
<title>Node1</title>
<g id="a_node1"><a xlink:title=" ">
<polygon fill="#999999" stroke="#666666" points="899.5,-151 777.5,-151 777.5,-121 899.5,-121 899.5,-151"/>
<text text-anchor="start" x="785.5" y="-139" font-family="Helvetica,sans-Serif" font-size="10.00">include/f_op/f_op_scene</text>
<text text-anchor="middle" x="838.5" y="-128" font-family="Helvetica,sans-Serif" font-size="10.00">_mng.h</text>
</a>
</g>
</g>
<!-- Node2 -->
<g id="node2" class="node">
<title>Node2</title>
<g id="a_node2"><a xlink:href="c__dylink_8h.html" target="_top" xlink:title=" ">
<polygon fill="white" stroke="#666666" points="354,-79.5 253,-79.5 253,-60.5 354,-60.5 354,-79.5"/>
<text text-anchor="middle" x="303.5" y="-67.5" font-family="Helvetica,sans-Serif" font-size="10.00">include/c/c_dylink.h</text>
</a>
</g>
</g>
<!-- Node1&#45;&gt;Node2 -->
<g id="edge1" class="edge">
<title>Node1&#45;&gt;Node2</title>
<path fill="none" stroke="#63b8ff" d="M765.82,-126.31C655.77,-113.14 449.62,-88.48 354.26,-77.07"/>
<polygon fill="#63b8ff" stroke="#63b8ff" points="765.28,-129.77 775.63,-127.48 766.11,-122.82 765.28,-129.77"/>
</g>
<!-- Node5 -->
<g id="node5" class="node">
<title>Node5</title>
<g id="a_node5"><a xlink:href="d__s__play_8cpp.html" target="_top" xlink:title=" ">
<polygon fill="white" stroke="#666666" points="493.5,-19 387.5,-19 387.5,0 493.5,0 493.5,-19"/>
<text text-anchor="middle" x="440.5" y="-7" font-family="Helvetica,sans-Serif" font-size="10.00">src/d/s/d_s_play.cpp</text>
</a>
</g>
</g>
<!-- Node1&#45;&gt;Node5 -->
<g id="edge11" class="edge">
<title>Node1&#45;&gt;Node5</title>
<path fill="none" stroke="#63b8ff" d="M765.79,-134.7C668.93,-132.77 504.62,-123.69 460.5,-85 441.37,-68.22 439.62,-35.31 439.99,-19.46"/>
<polygon fill="#63b8ff" stroke="#63b8ff" points="765.68,-138.2 775.74,-134.87 765.8,-131.2 765.68,-138.2"/>
</g>
<!-- Node7 -->
<g id="node7" class="node">
<title>Node7</title>
<g id="a_node7"><a xlink:href="d__s__room_8h.html" target="_top" xlink:title=" ">
<polygon fill="white" stroke="#666666" points="586,-79.5 469,-79.5 469,-60.5 586,-60.5 586,-79.5"/>
<text text-anchor="middle" x="527.5" y="-67.5" font-family="Helvetica,sans-Serif" font-size="10.00">include/d/s/d_s_room.h</text>
</a>
</g>
</g>
<!-- Node1&#45;&gt;Node7 -->
<g id="edge6" class="edge">
<title>Node1&#45;&gt;Node7</title>
<path fill="none" stroke="#63b8ff" d="M766.05,-120.09C705.54,-107.64 621.3,-90.3 570.8,-79.91"/>
<polygon fill="#63b8ff" stroke="#63b8ff" points="765.07,-123.46 775.57,-122.05 766.48,-116.61 765.07,-123.46"/>
</g>
<!-- Node9 -->
<g id="node9" class="node">
<title>Node9</title>
<g id="a_node9"><a xlink:href="d__com__inf__game_8cpp.html" target="_top" xlink:title=" ">
<polygon fill="white" stroke="#666666" points="712.5,-85 604.5,-85 604.5,-55 712.5,-55 712.5,-85"/>
<text text-anchor="start" x="612.5" y="-73" font-family="Helvetica,sans-Serif" font-size="10.00">src/d/com/d_com_inf</text>
<text text-anchor="middle" x="658.5" y="-62" font-family="Helvetica,sans-Serif" font-size="10.00">_game.cpp</text>
</a>
</g>
</g>
<!-- Node1&#45;&gt;Node9 -->
<g id="edge8" class="edge">
<title>Node1&#45;&gt;Node9</title>
<path fill="none" stroke="#63b8ff" d="M787.33,-116.8C759.35,-106.86 725.19,-94.71 699.07,-85.43"/>
<polygon fill="#63b8ff" stroke="#63b8ff" points="786.08,-120.08 796.68,-120.13 788.43,-113.48 786.08,-120.08"/>
</g>
<!-- Node10 -->
<g id="node10" class="node">
<title>Node10</title>
<g id="a_node10"><a xlink:href="d__stage_8cpp.html" target="_top" xlink:title=" ">
<polygon fill="white" stroke="#666666" points="824.5,-79.5 730.5,-79.5 730.5,-60.5 824.5,-60.5 824.5,-79.5"/>
<text text-anchor="middle" x="777.5" y="-67.5" font-family="Helvetica,sans-Serif" font-size="10.00">src/d/d_stage.cpp</text>
</a>
</g>
</g>
<!-- Node1&#45;&gt;Node10 -->
<g id="edge9" class="edge">
<title>Node1&#45;&gt;Node10</title>
<path fill="none" stroke="#63b8ff" d="M817.16,-112.61C806.4,-101.32 793.97,-88.28 785.93,-79.84"/>
<polygon fill="#63b8ff" stroke="#63b8ff" points="814.48,-114.88 823.92,-119.7 819.55,-110.05 814.48,-114.88"/>
</g>
<!-- Node11 -->
<g id="node11" class="node">
<title>Node11</title>
<g id="a_node11"><a xlink:href="d__s__name_8cpp.html" target="_top" xlink:title=" ">
<polygon fill="white" stroke="#666666" points="956,-79.5 843,-79.5 843,-60.5 956,-60.5 956,-79.5"/>
<text text-anchor="middle" x="899.5" y="-67.5" font-family="Helvetica,sans-Serif" font-size="10.00">src/d/s/d_s_name.cpp</text>
</a>
</g>
</g>
<!-- Node1&#45;&gt;Node11 -->
<g id="edge10" class="edge">
<title>Node1&#45;&gt;Node11</title>
<path fill="none" stroke="#63b8ff" d="M859.84,-112.61C870.6,-101.32 883.03,-88.28 891.07,-79.84"/>
<polygon fill="#63b8ff" stroke="#63b8ff" points="857.45,-110.05 853.08,-119.7 862.52,-114.88 857.45,-110.05"/>
</g>
<!-- Node12 -->
<g id="node12" class="node">
<title>Node12</title>
<g id="a_node12"><a xlink:href="f__ap__game_8cpp.html" target="_top" xlink:title=" ">
<polygon fill="white" stroke="#666666" points="1095,-79.5 974,-79.5 974,-60.5 1095,-60.5 1095,-79.5"/>
<text text-anchor="middle" x="1034.5" y="-67.5" font-family="Helvetica,sans-Serif" font-size="10.00">src/f_ap/f_ap_game.cpp</text>
</a>
</g>
</g>
<!-- Node1&#45;&gt;Node12 -->
<g id="edge12" class="edge">
<title>Node1&#45;&gt;Node12</title>
<path fill="none" stroke="#63b8ff" d="M893.13,-117.16C930.17,-105.07 977.57,-89.59 1006.98,-79.99"/>
<polygon fill="#63b8ff" stroke="#63b8ff" points="892.34,-113.74 883.93,-120.17 894.52,-120.39 892.34,-113.74"/>
</g>
<!-- Node13 -->
<g id="node13" class="node">
<title>Node13</title>
<g id="a_node13"><a xlink:href="f__op__actor__mng_8cpp.html" target="_top" xlink:title=" ">
<polygon fill="white" stroke="#666666" points="1214,-85 1113,-85 1113,-55 1214,-55 1214,-85"/>
<text text-anchor="start" x="1121" y="-73" font-family="Helvetica,sans-Serif" font-size="10.00">src/f_op/f_op_actor</text>
<text text-anchor="middle" x="1163.5" y="-62" font-family="Helvetica,sans-Serif" font-size="10.00">_mng.cpp</text>
</a>
</g>
</g>
<!-- Node1&#45;&gt;Node13 -->
<g id="edge13" class="edge">
<title>Node1&#45;&gt;Node13</title>
<path fill="none" stroke="#63b8ff" d="M911.04,-122.32C964.63,-112.72 1039.28,-98.86 1104.5,-85 1107.18,-84.43 1109.92,-83.83 1112.69,-83.22"/>
<polygon fill="#63b8ff" stroke="#63b8ff" points="910.66,-118.83 901.43,-124.03 911.89,-125.72 910.66,-118.83"/>
</g>
<!-- Node14 -->
<g id="node14" class="node">
<title>Node14</title>
<g id="a_node14"><a xlink:href="f__op__msg__mng_8cpp.html" target="_top" xlink:title=" ">
<polygon fill="white" stroke="#666666" points="1372.5,-79.5 1232.5,-79.5 1232.5,-60.5 1372.5,-60.5 1372.5,-79.5"/>
<text text-anchor="middle" x="1302.5" y="-67.5" font-family="Helvetica,sans-Serif" font-size="10.00">src/f_op/f_op_msg_mng.cpp</text>
</a>
</g>
</g>
<!-- Node1&#45;&gt;Node14 -->
<g id="edge14" class="edge">
<title>Node1&#45;&gt;Node14</title>
<path fill="none" stroke="#63b8ff" d="M911.04,-126.59C988.54,-117.38 1114.92,-101.66 1223.5,-85 1233.41,-83.48 1244,-81.71 1254.09,-79.94"/>
<polygon fill="#63b8ff" stroke="#63b8ff" points="910.99,-123.07 901.47,-127.73 911.81,-130.03 910.99,-123.07"/>
</g>
<!-- Node15 -->
<g id="node15" class="node">
<title>Node15</title>
<g id="a_node15"><a xlink:href="f__op__scene__mng_8cpp.html" target="_top" xlink:title=" ">
<polygon fill="white" stroke="#666666" points="1496,-85 1391,-85 1391,-55 1496,-55 1496,-85"/>
<text text-anchor="start" x="1399" y="-73" font-family="Helvetica,sans-Serif" font-size="10.00">src/f_op/f_op_scene</text>
<text text-anchor="middle" x="1443.5" y="-62" font-family="Helvetica,sans-Serif" font-size="10.00">_mng.cpp</text>
</a>
</g>
</g>
<!-- Node1&#45;&gt;Node15 -->
<g id="edge15" class="edge">
<title>Node1&#45;&gt;Node15</title>
<path fill="none" stroke="#63b8ff" d="M911.25,-131.32C1015.79,-125.35 1214.31,-111.46 1381.5,-85 1384.55,-84.52 1387.68,-83.97 1390.83,-83.38"/>
<polygon fill="#63b8ff" stroke="#63b8ff" points="911.2,-127.82 901.41,-131.87 911.59,-134.81 911.2,-127.82"/>
</g>
<!-- Node3 -->
<g id="node3" class="node">
<title>Node3</title>
<g id="a_node3"><a xlink:href="c__dylink_8cpp.html" target="_top" xlink:title=" ">
<polygon fill="white" stroke="#666666" points="95,-19 0,-19 0,0 95,0 95,-19"/>
<text text-anchor="middle" x="47.5" y="-7" font-family="Helvetica,sans-Serif" font-size="10.00">src/c/c_dylink.cpp</text>
</a>
</g>
</g>
<!-- Node2&#45;&gt;Node3 -->
<g id="edge2" class="edge">
<title>Node2&#45;&gt;Node3</title>
<path fill="none" stroke="#63b8ff" d="M253.4,-57.55C204.58,-46.39 131.35,-29.66 86.66,-19.45"/>
<polygon fill="#63b8ff" stroke="#63b8ff" points="252.34,-60.9 262.86,-59.71 253.9,-54.07 252.34,-60.9"/>
</g>
<!-- Node4 -->
<g id="node4" class="node">
<title>Node4</title>
<g id="a_node4"><a xlink:href="d__s__logo_8cpp.html" target="_top" xlink:title=" ">
<polygon fill="white" stroke="#666666" points="220,-19 113,-19 113,0 220,0 220,-19"/>
<text text-anchor="middle" x="166.5" y="-7" font-family="Helvetica,sans-Serif" font-size="10.00">src/d/s/d_s_logo.cpp</text>
</a>
</g>
</g>
<!-- Node2&#45;&gt;Node4 -->
<g id="edge3" class="edge">
<title>Node2&#45;&gt;Node4</title>
<path fill="none" stroke="#63b8ff" d="M272.27,-55.66C246.32,-44.58 210.11,-29.12 187.5,-19.47"/>
<polygon fill="#63b8ff" stroke="#63b8ff" points="270.73,-58.81 281.3,-59.52 273.48,-52.37 270.73,-58.81"/>
</g>
<!-- Node2&#45;&gt;Node5 -->
<g id="edge4" class="edge">
<title>Node2&#45;&gt;Node5</title>
<path fill="none" stroke="#63b8ff" d="M334.73,-55.66C360.68,-44.58 396.89,-29.12 419.5,-19.47"/>
<polygon fill="#63b8ff" stroke="#63b8ff" points="333.52,-52.37 325.7,-59.52 336.27,-58.81 333.52,-52.37"/>
</g>
<!-- Node6 -->
<g id="node6" class="node">
<title>Node6</title>
<g id="a_node6"><a xlink:href="m__Do__main_8cpp.html" target="_top" xlink:title=" ">
<polygon fill="white" stroke="#666666" points="369,-19 238,-19 238,0 369,0 369,-19"/>
<text text-anchor="middle" x="303.5" y="-7" font-family="Helvetica,sans-Serif" font-size="10.00">src/m_Do/m_Do_main.cpp</text>
</a>
</g>
</g>
<!-- Node2&#45;&gt;Node6 -->
<g id="edge5" class="edge">
<title>Node2&#45;&gt;Node6</title>
<path fill="none" stroke="#63b8ff" d="M303.5,-49.16C303.5,-38.95 303.5,-27.04 303.5,-19.17"/>
<polygon fill="#63b8ff" stroke="#63b8ff" points="300,-48.85 303.5,-58.85 307,-48.85 300,-48.85"/>
</g>
<!-- Node8 -->
<g id="node8" class="node">
<title>Node8</title>
<g id="a_node8"><a xlink:href="d__s__room_8cpp.html" target="_top" xlink:title=" ">
<polygon fill="white" stroke="#666666" points="621.5,-19 511.5,-19 511.5,0 621.5,0 621.5,-19"/>
<text text-anchor="middle" x="566.5" y="-7" font-family="Helvetica,sans-Serif" font-size="10.00">src/d/s/d_s_room.cpp</text>
</a>
</g>
</g>
<!-- Node7&#45;&gt;Node8 -->
<g id="edge7" class="edge">
<title>Node7&#45;&gt;Node8</title>
<path fill="none" stroke="#63b8ff" d="M539.62,-50.82C546.65,-40.28 555.18,-27.48 560.72,-19.17"/>
<polygon fill="#63b8ff" stroke="#63b8ff" points="536.73,-48.85 534.09,-59.11 542.55,-52.73 536.73,-48.85"/>
</g>
</g>
</svg>
