<?xml version="1.0" encoding="UTF-8" standalone="no"?>
<!DOCTYPE svg PUBLIC "-//W3C//DTD SVG 1.1//EN"
 "http://www.w3.org/Graphics/SVG/1.1/DTD/svg11.dtd">
<!-- Generated by graphviz version 7.0.5 (20221223.1930)
 -->
<!-- Title: include/f_op/f_op_scene_tag.h Pages: 1 -->
<svg width="2619pt" height="302pt"
 viewBox="0.00 0.00 2618.50 302.00" xmlns="http://www.w3.org/2000/svg" xmlns:xlink="http://www.w3.org/1999/xlink">
<g id="graph0" class="graph" transform="scale(1 1) rotate(0) translate(4 298)">
<title>include/f_op/f_op_scene_tag.h</title>
<!-- Node1 -->
<g id="node1" class="node">
<title>Node1</title>
<g id="a_node1"><a xlink:title=" ">
<polygon fill="#999999" stroke="#666666" points="2241,-294 2119,-294 2119,-264 2241,-264 2241,-294"/>
<text text-anchor="start" x="2127" y="-282" font-family="Helvetica,sans-Serif" font-size="10.00">include/f_op/f_op_scene</text>
<text text-anchor="middle" x="2180" y="-271" font-family="Helvetica,sans-Serif" font-size="10.00">_tag.h</text>
</a>
</g>
</g>
<!-- Node2 -->
<g id="node2" class="node">
<title>Node2</title>
<g id="a_node2"><a xlink:href="f__op__scene_8h.html" target="_top" xlink:title=" ">
<polygon fill="white" stroke="#666666" points="2109,-222.5 1979,-222.5 1979,-203.5 2109,-203.5 2109,-222.5"/>
<text text-anchor="middle" x="2044" y="-210.5" font-family="Helvetica,sans-Serif" font-size="10.00">include/f_op/f_op_scene.h</text>
</a>
</g>
</g>
<!-- Node1&#45;&gt;Node2 -->
<g id="edge1" class="edge">
<title>Node1&#45;&gt;Node2</title>
<path fill="none" stroke="#63b8ff" d="M2139.09,-258.75C2113.87,-246.88 2082.72,-232.22 2063.09,-222.99"/>
<polygon fill="#63b8ff" stroke="#63b8ff" points="2137.57,-261.9 2148.11,-262.99 2140.55,-255.57 2137.57,-261.9"/>
</g>
<!-- Node37 -->
<g id="node37" class="node">
<title>Node37</title>
<g id="a_node37"><a xlink:href="f__op__scene__iter_8cpp.html" target="_top" xlink:title=" ">
<polygon fill="white" stroke="#666666" points="2232.5,-228 2127.5,-228 2127.5,-198 2232.5,-198 2232.5,-228"/>
<text text-anchor="start" x="2135.5" y="-216" font-family="Helvetica,sans-Serif" font-size="10.00">src/f_op/f_op_scene</text>
<text text-anchor="middle" x="2180" y="-205" font-family="Helvetica,sans-Serif" font-size="10.00">_iter.cpp</text>
</a>
</g>
</g>
<!-- Node1&#45;&gt;Node37 -->
<g id="edge41" class="edge">
<title>Node1&#45;&gt;Node37</title>
<path fill="none" stroke="#63b8ff" d="M2180,-252.39C2180,-244.13 2180,-235.28 2180,-228.16"/>
<polygon fill="#63b8ff" stroke="#63b8ff" points="2176.5,-252.28 2180,-262.28 2183.5,-252.28 2176.5,-252.28"/>
</g>
<!-- Node38 -->
<g id="node38" class="node">
<title>Node38</title>
<g id="a_node38"><a xlink:href="f__op__scene__tag_8cpp.html" target="_top" xlink:title=" ">
<polygon fill="white" stroke="#666666" points="2355.5,-228 2250.5,-228 2250.5,-198 2355.5,-198 2355.5,-228"/>
<text text-anchor="start" x="2258.5" y="-216" font-family="Helvetica,sans-Serif" font-size="10.00">src/f_op/f_op_scene</text>
<text text-anchor="middle" x="2303" y="-205" font-family="Helvetica,sans-Serif" font-size="10.00">_tag.cpp</text>
</a>
</g>
</g>
<!-- Node1&#45;&gt;Node38 -->
<g id="edge42" class="edge">
<title>Node1&#45;&gt;Node38</title>
<path fill="none" stroke="#63b8ff" d="M2217.57,-258.45C2236.25,-248.73 2258.41,-237.2 2275.49,-228.31"/>
<polygon fill="#63b8ff" stroke="#63b8ff" points="2216.2,-255.22 2208.95,-262.94 2219.43,-261.43 2216.2,-255.22"/>
</g>
<!-- Node3 -->
<g id="node3" class="node">
<title>Node3</title>
<g id="a_node3"><a xlink:href="d__s__logo_8h.html" target="_top" xlink:title=" ">
<polygon fill="white" stroke="#666666" points="1969.5,-156.5 1856.5,-156.5 1856.5,-137.5 1969.5,-137.5 1969.5,-156.5"/>
<text text-anchor="middle" x="1913" y="-144.5" font-family="Helvetica,sans-Serif" font-size="10.00">include/d/s/d_s_logo.h</text>
</a>
</g>
</g>
<!-- Node2&#45;&gt;Node3 -->
<g id="edge2" class="edge">
<title>Node2&#45;&gt;Node3</title>
<path fill="none" stroke="#63b8ff" d="M2015.55,-198.1C1989.88,-185.56 1952.89,-167.49 1931.06,-156.82"/>
<polygon fill="#63b8ff" stroke="#63b8ff" points="2013.9,-201.19 2024.43,-202.44 2016.98,-194.9 2013.9,-201.19"/>
</g>
<!-- Node5 -->
<g id="node5" class="node">
<title>Node5</title>
<g id="a_node5"><a xlink:href="d__s__name_8h.html" target="_top" xlink:title=" ">
<polygon fill="white" stroke="#666666" points="1555.5,-156.5 1436.5,-156.5 1436.5,-137.5 1555.5,-137.5 1555.5,-156.5"/>
<text text-anchor="middle" x="1496" y="-144.5" font-family="Helvetica,sans-Serif" font-size="10.00">include/d/s/d_s_name.h</text>
</a>
</g>
</g>
<!-- Node2&#45;&gt;Node5 -->
<g id="edge4" class="edge">
<title>Node2&#45;&gt;Node5</title>
<path fill="none" stroke="#63b8ff" d="M1967.36,-203.05C1857.07,-190.17 1655.91,-166.68 1555.84,-154.99"/>
<polygon fill="#63b8ff" stroke="#63b8ff" points="1966.87,-206.52 1977.21,-204.2 1967.68,-199.56 1966.87,-206.52"/>
</g>
<!-- Node7 -->
<g id="node7" class="node">
<title>Node7</title>
<g id="a_node7"><a xlink:href="d__s__play_8h.html" target="_top" xlink:title=" ">
<polygon fill="white" stroke="#666666" points="1049.5,-90.5 936.5,-90.5 936.5,-71.5 1049.5,-71.5 1049.5,-90.5"/>
<text text-anchor="middle" x="993" y="-78.5" font-family="Helvetica,sans-Serif" font-size="10.00">include/d/s/d_s_play.h</text>
</a>
</g>
</g>
<!-- Node2&#45;&gt;Node7 -->
<g id="edge6" class="edge">
<title>Node2&#45;&gt;Node7</title>
<path fill="none" stroke="#63b8ff" d="M1967.63,-208.31C1850.8,-202.1 1620.84,-187.65 1427,-162 1281.36,-142.73 1110.4,-107.44 1033.77,-90.95"/>
<polygon fill="#63b8ff" stroke="#63b8ff" points="1967.24,-211.79 1977.41,-208.82 1967.61,-204.8 1967.24,-211.79"/>
</g>
<!-- Node21 -->
<g id="node21" class="node">
<title>Node21</title>
<g id="a_node21"><a xlink:href="f__op__scene__mng_8h.html" target="_top" xlink:title=" ">
<polygon fill="white" stroke="#666666" points="1838,-162 1716,-162 1716,-132 1838,-132 1838,-162"/>
<text text-anchor="start" x="1724" y="-150" font-family="Helvetica,sans-Serif" font-size="10.00">include/f_op/f_op_scene</text>
<text text-anchor="middle" x="1777" y="-139" font-family="Helvetica,sans-Serif" font-size="10.00">_mng.h</text>
</a>
</g>
</g>
<!-- Node2&#45;&gt;Node21 -->
<g id="edge20" class="edge">
<title>Node2&#45;&gt;Node21</title>
<path fill="none" stroke="#63b8ff" d="M1995.5,-200.37C1951.05,-189.72 1885.08,-173.91 1837.26,-162.45"/>
<polygon fill="#63b8ff" stroke="#63b8ff" points="1994.58,-203.75 2005.12,-202.68 1996.21,-196.95 1994.58,-203.75"/>
</g>
<!-- Node32 -->
<g id="node32" class="node">
<title>Node32</title>
<g id="a_node32"><a xlink:href="d__s__menu_8cpp.html" target="_top" xlink:title=" ">
<polygon fill="white" stroke="#666666" points="2100.5,-156.5 1987.5,-156.5 1987.5,-137.5 2100.5,-137.5 2100.5,-156.5"/>
<text text-anchor="middle" x="2044" y="-144.5" font-family="Helvetica,sans-Serif" font-size="10.00">src/d/s/d_s_menu.cpp</text>
</a>
</g>
</g>
<!-- Node2&#45;&gt;Node32 -->
<g id="edge36" class="edge">
<title>Node2&#45;&gt;Node32</title>
<path fill="none" stroke="#63b8ff" d="M2044,-191.68C2044,-179.94 2044,-165.77 2044,-156.82"/>
<polygon fill="#63b8ff" stroke="#63b8ff" points="2040.5,-191.59 2044,-201.59 2047.5,-191.59 2040.5,-191.59"/>
</g>
<!-- Node33 -->
<g id="node33" class="node">
<title>Node33</title>
<g id="a_node33"><a xlink:href="d__s__title_8cpp.html" target="_top" xlink:title=" ">
<polygon fill="white" stroke="#666666" points="2223,-156.5 2119,-156.5 2119,-137.5 2223,-137.5 2223,-156.5"/>
<text text-anchor="middle" x="2171" y="-144.5" font-family="Helvetica,sans-Serif" font-size="10.00">src/d/s/d_s_title.cpp</text>
</a>
</g>
</g>
<!-- Node2&#45;&gt;Node33 -->
<g id="edge37" class="edge">
<title>Node2&#45;&gt;Node33</title>
<path fill="none" stroke="#63b8ff" d="M2071.91,-197.93C2096.79,-185.4 2132.42,-167.44 2153.49,-156.82"/>
<polygon fill="#63b8ff" stroke="#63b8ff" points="2070.37,-194.79 2063.01,-202.42 2073.52,-201.05 2070.37,-194.79"/>
</g>
<!-- Node34 -->
<g id="node34" class="node">
<title>Node34</title>
<g id="a_node34"><a xlink:href="f__op__scene_8cpp.html" target="_top" xlink:title=" ">
<polygon fill="white" stroke="#666666" points="2364.5,-156.5 2241.5,-156.5 2241.5,-137.5 2364.5,-137.5 2364.5,-156.5"/>
<text text-anchor="middle" x="2303" y="-144.5" font-family="Helvetica,sans-Serif" font-size="10.00">src/f_op/f_op_scene.cpp</text>
</a>
</g>
</g>
<!-- Node2&#45;&gt;Node34 -->
<g id="edge38" class="edge">
<title>Node2&#45;&gt;Node34</title>
<path fill="none" stroke="#63b8ff" d="M2091.26,-200.32C2141.89,-187.81 2221.13,-168.23 2266.96,-156.91"/>
<polygon fill="#63b8ff" stroke="#63b8ff" points="2090.62,-196.87 2081.75,-202.67 2092.3,-203.67 2090.62,-196.87"/>
</g>
<!-- Node35 -->
<g id="node35" class="node">
<title>Node35</title>
<g id="a_node35"><a xlink:href="f__op__scene__pause_8cpp.html" target="_top" xlink:title=" ">
<polygon fill="white" stroke="#666666" points="2487.5,-162 2382.5,-162 2382.5,-132 2487.5,-132 2487.5,-162"/>
<text text-anchor="start" x="2390.5" y="-150" font-family="Helvetica,sans-Serif" font-size="10.00">src/f_op/f_op_scene</text>
<text text-anchor="middle" x="2435" y="-139" font-family="Helvetica,sans-Serif" font-size="10.00">_pause.cpp</text>
</a>
</g>
</g>
<!-- Node2&#45;&gt;Node35 -->
<g id="edge39" class="edge">
<title>Node2&#45;&gt;Node35</title>
<path fill="none" stroke="#63b8ff" d="M2101.58,-200.98C2107.46,-199.94 2113.34,-198.93 2119,-198 2231.95,-179.49 2261.45,-182.82 2374,-162 2376.67,-161.51 2379.4,-160.97 2382.16,-160.42"/>
<polygon fill="#63b8ff" stroke="#63b8ff" points="2101.06,-197.52 2091.84,-202.75 2102.31,-204.41 2101.06,-197.52"/>
</g>
<!-- Node36 -->
<g id="node36" class="node">
<title>Node36</title>
<g id="a_node36"><a xlink:href="f__op__scene__req_8cpp.html" target="_top" xlink:title=" ">
<polygon fill="white" stroke="#666666" points="2610.5,-162 2505.5,-162 2505.5,-132 2610.5,-132 2610.5,-162"/>
<text text-anchor="start" x="2513.5" y="-150" font-family="Helvetica,sans-Serif" font-size="10.00">src/f_op/f_op_scene</text>
<text text-anchor="middle" x="2558" y="-139" font-family="Helvetica,sans-Serif" font-size="10.00">_req.cpp</text>
</a>
</g>
</g>
<!-- Node2&#45;&gt;Node36 -->
<g id="edge40" class="edge">
<title>Node2&#45;&gt;Node36</title>
<path fill="none" stroke="#63b8ff" d="M2099.33,-201.09C2105.94,-199.96 2112.61,-198.9 2119,-198 2286.11,-174.49 2330.4,-188.93 2497,-162 2499.68,-161.57 2502.42,-161.08 2505.18,-160.57"/>
<polygon fill="#63b8ff" stroke="#63b8ff" points="2099.03,-197.59 2089.8,-202.78 2100.26,-204.48 2099.03,-197.59"/>
</g>
<!-- Node4 -->
<g id="node4" class="node">
<title>Node4</title>
<g id="a_node4"><a xlink:href="d__s__logo_8cpp.html" target="_top" xlink:title=" ">
<polygon fill="white" stroke="#666666" points="2371.5,-24.5 2264.5,-24.5 2264.5,-5.5 2371.5,-5.5 2371.5,-24.5"/>
<text text-anchor="middle" x="2318" y="-12.5" font-family="Helvetica,sans-Serif" font-size="10.00">src/d/s/d_s_logo.cpp</text>
</a>
</g>
</g>
<!-- Node3&#45;&gt;Node4 -->
<g id="edge3" class="edge">
<title>Node3&#45;&gt;Node4</title>
<path fill="none" stroke="#63b8ff" d="M1961.83,-134.85C1967.6,-133.77 1973.42,-132.78 1979,-132 2035.58,-124.05 2453.04,-137.79 2492,-96 2531.51,-53.62 2436.62,-31.87 2371.98,-22.3"/>
<polygon fill="#63b8ff" stroke="#63b8ff" points="1961.49,-131.35 1952.37,-136.73 1962.86,-138.22 1961.49,-131.35"/>
</g>
<!-- Node6 -->
<g id="node6" class="node">
<title>Node6</title>
<g id="a_node6"><a xlink:href="d__s__name_8cpp.html" target="_top" xlink:title=" ">
<polygon fill="white" stroke="#666666" points="1411.5,-90.5 1298.5,-90.5 1298.5,-71.5 1411.5,-71.5 1411.5,-90.5"/>
<text text-anchor="middle" x="1355" y="-78.5" font-family="Helvetica,sans-Serif" font-size="10.00">src/d/s/d_s_name.cpp</text>
</a>
</g>
</g>
<!-- Node5&#45;&gt;Node6 -->
<g id="edge5" class="edge">
<title>Node5&#45;&gt;Node6</title>
<path fill="none" stroke="#63b8ff" d="M1466.12,-132.44C1438.46,-119.88 1398.14,-101.58 1374.44,-90.82"/>
<polygon fill="#63b8ff" stroke="#63b8ff" points="1464.46,-135.53 1475.02,-136.48 1467.36,-129.16 1464.46,-135.53"/>
</g>
<!-- Node8 -->
<g id="node8" class="node">
<title>Node8</title>
<g id="a_node8"><a xlink:href="Z2StatusMgr_8cpp.html" target="_top" xlink:title=" ">
<polygon fill="white" stroke="#666666" points="1266.5,-30 1139.5,-30 1139.5,0 1266.5,0 1266.5,-30"/>
<text text-anchor="start" x="1147.5" y="-18" font-family="Helvetica,sans-Serif" font-size="10.00">libs/Z2AudioLib/Z2Status</text>
<text text-anchor="middle" x="1203" y="-7" font-family="Helvetica,sans-Serif" font-size="10.00">Mgr.cpp</text>
</a>
</g>
</g>
<!-- Node7&#45;&gt;Node8 -->
<g id="edge7" class="edge">
<title>Node7&#45;&gt;Node8</title>
<path fill="none" stroke="#63b8ff" d="M1032.93,-67.83C1067.82,-57.2 1118.53,-41.74 1155.5,-30.48"/>
<polygon fill="#63b8ff" stroke="#63b8ff" points="1032.19,-64.4 1023.65,-70.66 1034.23,-71.09 1032.19,-64.4"/>
</g>
<!-- Node9 -->
<g id="node9" class="node">
<title>Node9</title>
<g id="a_node9"><a xlink:href="d__cc__uty_8cpp.html" target="_top" xlink:title=" ">
<polygon fill="white" stroke="#666666" points="1397,-24.5 1285,-24.5 1285,-5.5 1397,-5.5 1397,-24.5"/>
<text text-anchor="middle" x="1341" y="-12.5" font-family="Helvetica,sans-Serif" font-size="10.00">src/d/cc/d_cc_uty.cpp</text>
</a>
</g>
</g>
<!-- Node7&#45;&gt;Node9 -->
<g id="edge8" class="edge">
<title>Node7&#45;&gt;Node9</title>
<path fill="none" stroke="#63b8ff" d="M1057.69,-69.16C1114.92,-59.43 1200.65,-44.47 1275,-30 1283.05,-28.43 1291.63,-26.68 1299.85,-24.95"/>
<polygon fill="#63b8ff" stroke="#63b8ff" points="1057.4,-65.66 1048.13,-70.79 1058.57,-72.56 1057.4,-65.66"/>
</g>
<!-- Node10 -->
<g id="node10" class="node">
<title>Node10</title>
<g id="a_node10"><a xlink:href="d__drawlist_8cpp.html" target="_top" xlink:title=" ">
<polygon fill="white" stroke="#666666" points="1519,-24.5 1415,-24.5 1415,-5.5 1519,-5.5 1519,-24.5"/>
<text text-anchor="middle" x="1467" y="-12.5" font-family="Helvetica,sans-Serif" font-size="10.00">src/d/d_drawlist.cpp</text>
</a>
</g>
</g>
<!-- Node7&#45;&gt;Node10 -->
<g id="edge9" class="edge">
<title>Node7&#45;&gt;Node10</title>
<path fill="none" stroke="#63b8ff" d="M1061.15,-73.96C1143.3,-66.18 1285.34,-51.09 1406,-30 1414.03,-28.6 1422.59,-26.81 1430.68,-24.99"/>
<polygon fill="#63b8ff" stroke="#63b8ff" points="1060.86,-70.48 1051.23,-74.9 1061.52,-77.45 1060.86,-70.48"/>
</g>
<!-- Node11 -->
<g id="node11" class="node">
<title>Node11</title>
<g id="a_node11"><a xlink:href="d__eye__hl_8cpp.html" target="_top" xlink:title=" ">
<polygon fill="white" stroke="#666666" points="98,-24.5 0,-24.5 0,-5.5 98,-5.5 98,-24.5"/>
<text text-anchor="middle" x="49" y="-12.5" font-family="Helvetica,sans-Serif" font-size="10.00">src/d/d_eye_hl.cpp</text>
</a>
</g>
</g>
<!-- Node7&#45;&gt;Node11 -->
<g id="edge10" class="edge">
<title>Node7&#45;&gt;Node11</title>
<path fill="none" stroke="#63b8ff" d="M924.95,-80.33C775.88,-80.13 409.65,-74.69 107,-30 98.7,-28.77 89.85,-26.92 81.62,-24.96"/>
<polygon fill="#63b8ff" stroke="#63b8ff" points="924.63,-83.83 934.64,-80.33 924.64,-76.83 924.63,-83.83"/>
</g>
<!-- Node12 -->
<g id="node12" class="node">
<title>Node12</title>
<g id="a_node12"><a xlink:href="d__file__select_8cpp.html" target="_top" xlink:title=" ">
<polygon fill="white" stroke="#666666" points="244,-24.5 116,-24.5 116,-5.5 244,-5.5 244,-24.5"/>
<text text-anchor="middle" x="180" y="-12.5" font-family="Helvetica,sans-Serif" font-size="10.00">src/d/file/d_file_select.cpp</text>
</a>
</g>
</g>
<!-- Node7&#45;&gt;Node12 -->
<g id="edge11" class="edge">
<title>Node7&#45;&gt;Node12</title>
<path fill="none" stroke="#63b8ff" d="M924.75,-78.17C793.94,-74.05 499.07,-61.79 253,-30 242.89,-28.69 232.07,-26.86 221.94,-24.95"/>
<polygon fill="#63b8ff" stroke="#63b8ff" points="924.52,-81.67 934.63,-78.48 924.74,-74.67 924.52,-81.67"/>
</g>
<!-- Node13 -->
<g id="node13" class="node">
<title>Node13</title>
<g id="a_node13"><a xlink:href="d__ovlp__fade2_8cpp.html" target="_top" xlink:title=" ">
<polygon fill="white" stroke="#666666" points="400,-24.5 262,-24.5 262,-5.5 400,-5.5 400,-24.5"/>
<text text-anchor="middle" x="331" y="-12.5" font-family="Helvetica,sans-Serif" font-size="10.00">src/d/ovlp/d_ovlp_fade2.cpp</text>
</a>
</g>
</g>
<!-- Node7&#45;&gt;Node13 -->
<g id="edge12" class="edge">
<title>Node7&#45;&gt;Node13</title>
<path fill="none" stroke="#63b8ff" d="M924.86,-76.21C815.66,-69.68 594.85,-54.58 409,-30 398.63,-28.63 387.55,-26.84 377.08,-25"/>
<polygon fill="#63b8ff" stroke="#63b8ff" points="924.32,-79.68 934.51,-76.78 924.74,-72.7 924.32,-79.68"/>
</g>
<!-- Node14 -->
<g id="node14" class="node">
<title>Node14</title>
<g id="a_node14"><a xlink:href="d__ovlp__fade3_8cpp.html" target="_top" xlink:title=" ">
<polygon fill="white" stroke="#666666" points="556,-24.5 418,-24.5 418,-5.5 556,-5.5 556,-24.5"/>
<text text-anchor="middle" x="487" y="-12.5" font-family="Helvetica,sans-Serif" font-size="10.00">src/d/ovlp/d_ovlp_fade3.cpp</text>
</a>
</g>
</g>
<!-- Node7&#45;&gt;Node14 -->
<g id="edge13" class="edge">
<title>Node7&#45;&gt;Node14</title>
<path fill="none" stroke="#63b8ff" d="M924.83,-73.34C840.23,-64.77 691.65,-48.75 565,-30 555.06,-28.53 544.45,-26.76 534.36,-24.98"/>
<polygon fill="#63b8ff" stroke="#63b8ff" points="924.28,-76.8 934.58,-74.32 924.98,-69.84 924.28,-76.8"/>
</g>
<!-- Node15 -->
<g id="node15" class="node">
<title>Node15</title>
<g id="a_node15"><a xlink:href="d__s__play_8cpp.html" target="_top" xlink:title=" ">
<polygon fill="white" stroke="#666666" points="1771,-24.5 1665,-24.5 1665,-5.5 1771,-5.5 1771,-24.5"/>
<text text-anchor="middle" x="1718" y="-12.5" font-family="Helvetica,sans-Serif" font-size="10.00">src/d/s/d_s_play.cpp</text>
</a>
</g>
</g>
<!-- Node7&#45;&gt;Node15 -->
<g id="edge14" class="edge">
<title>Node7&#45;&gt;Node15</title>
<path fill="none" stroke="#63b8ff" d="M1061.17,-76.13C1206.49,-67.68 1542.7,-46.97 1656,-30 1664.62,-28.71 1673.83,-26.88 1682.43,-24.97"/>
<polygon fill="#63b8ff" stroke="#63b8ff" points="1061.09,-72.63 1051.3,-76.71 1061.49,-79.62 1061.09,-72.63"/>
</g>
<!-- Node16 -->
<g id="node16" class="node">
<title>Node16</title>
<g id="a_node16"><a xlink:href="d__s__room_8cpp.html" target="_top" xlink:title=" ">
<polygon fill="white" stroke="#666666" points="1647,-24.5 1537,-24.5 1537,-5.5 1647,-5.5 1647,-24.5"/>
<text text-anchor="middle" x="1592" y="-12.5" font-family="Helvetica,sans-Serif" font-size="10.00">src/d/s/d_s_room.cpp</text>
</a>
</g>
</g>
<!-- Node7&#45;&gt;Node16 -->
<g id="edge15" class="edge">
<title>Node7&#45;&gt;Node16</title>
<path fill="none" stroke="#63b8ff" d="M1061.26,-76.3C1163.27,-70.16 1361.36,-55.91 1528,-30 1536.65,-28.65 1545.89,-26.85 1554.58,-24.99"/>
<polygon fill="#63b8ff" stroke="#63b8ff" points="1061.19,-72.8 1051.41,-76.88 1061.6,-79.78 1061.19,-72.8"/>
</g>
<!-- Node17 -->
<g id="node17" class="node">
<title>Node17</title>
<g id="a_node17"><a xlink:href="f__op__actor_8cpp.html" target="_top" xlink:title=" ">
<polygon fill="white" stroke="#666666" points="693.5,-24.5 574.5,-24.5 574.5,-5.5 693.5,-5.5 693.5,-24.5"/>
<text text-anchor="middle" x="634" y="-12.5" font-family="Helvetica,sans-Serif" font-size="10.00">src/f_op/f_op_actor.cpp</text>
</a>
</g>
</g>
<!-- Node7&#45;&gt;Node17 -->
<g id="edge16" class="edge">
<title>Node7&#45;&gt;Node17</title>
<path fill="none" stroke="#63b8ff" d="M926.35,-69.19C867.29,-59.46 778.78,-44.5 702,-30 693.71,-28.43 684.87,-26.68 676.4,-24.95"/>
<polygon fill="#63b8ff" stroke="#63b8ff" points="925.46,-72.59 935.89,-70.76 926.59,-65.68 925.46,-72.59"/>
</g>
<!-- Node18 -->
<g id="node18" class="node">
<title>Node18</title>
<g id="a_node18"><a xlink:href="f__op__camera_8cpp.html" target="_top" xlink:title=" ">
<polygon fill="white" stroke="#666666" points="840.5,-24.5 711.5,-24.5 711.5,-5.5 840.5,-5.5 840.5,-24.5"/>
<text text-anchor="middle" x="776" y="-12.5" font-family="Helvetica,sans-Serif" font-size="10.00">src/f_op/f_op_camera.cpp</text>
</a>
</g>
</g>
<!-- Node7&#45;&gt;Node18 -->
<g id="edge17" class="edge">
<title>Node7&#45;&gt;Node18</title>
<path fill="none" stroke="#63b8ff" d="M952.03,-67.92C909.59,-55.4 844.26,-36.13 806.27,-24.93"/>
<polygon fill="#63b8ff" stroke="#63b8ff" points="950.79,-71.2 961.38,-70.67 952.77,-64.49 950.79,-71.2"/>
</g>
<!-- Node19 -->
<g id="node19" class="node">
<title>Node19</title>
<g id="a_node19"><a xlink:href="f__op__kankyo_8cpp.html" target="_top" xlink:title=" ">
<polygon fill="white" stroke="#666666" points="987,-24.5 859,-24.5 859,-5.5 987,-5.5 987,-24.5"/>
<text text-anchor="middle" x="923" y="-12.5" font-family="Helvetica,sans-Serif" font-size="10.00">src/f_op/f_op_kankyo.cpp</text>
</a>
</g>
</g>
<!-- Node7&#45;&gt;Node19 -->
<g id="edge18" class="edge">
<title>Node7&#45;&gt;Node19</title>
<path fill="none" stroke="#63b8ff" d="M974.77,-63.33C961.3,-51.02 943.48,-34.73 932.65,-24.82"/>
<polygon fill="#63b8ff" stroke="#63b8ff" points="972.41,-65.92 982.15,-70.08 977.13,-60.75 972.41,-65.92"/>
</g>
<!-- Node20 -->
<g id="node20" class="node">
<title>Node20</title>
<g id="a_node20"><a xlink:href="f__op__msg_8cpp.html" target="_top" xlink:title=" ">
<polygon fill="white" stroke="#666666" points="1121,-24.5 1005,-24.5 1005,-5.5 1121,-5.5 1121,-24.5"/>
<text text-anchor="middle" x="1063" y="-12.5" font-family="Helvetica,sans-Serif" font-size="10.00">src/f_op/f_op_msg.cpp</text>
</a>
</g>
</g>
<!-- Node7&#45;&gt;Node20 -->
<g id="edge19" class="edge">
<title>Node7&#45;&gt;Node20</title>
<path fill="none" stroke="#63b8ff" d="M1011.23,-63.33C1024.7,-51.02 1042.52,-34.73 1053.35,-24.82"/>
<polygon fill="#63b8ff" stroke="#63b8ff" points="1008.87,-60.75 1003.85,-70.08 1013.59,-65.92 1008.87,-60.75"/>
</g>
<!-- Node21&#45;&gt;Node6 -->
<g id="edge30" class="edge">
<title>Node21&#45;&gt;Node6</title>
<path fill="none" stroke="#63b8ff" d="M1704.27,-137.39C1631.96,-128.46 1517.97,-113.39 1420,-96 1411.7,-94.53 1402.85,-92.76 1394.44,-90.98"/>
<polygon fill="#63b8ff" stroke="#63b8ff" points="1703.65,-140.84 1714.01,-138.59 1704.51,-133.9 1703.65,-140.84"/>
</g>
<!-- Node21&#45;&gt;Node15 -->
<g id="edge31" class="edge">
<title>Node21&#45;&gt;Node15</title>
<path fill="none" stroke="#63b8ff" d="M1742.15,-124.83C1732.51,-117.07 1723.26,-107.36 1718,-96 1707.02,-72.31 1712.17,-40.27 1715.68,-24.92"/>
<polygon fill="#63b8ff" stroke="#63b8ff" points="1740.06,-127.64 1750.18,-130.77 1744.22,-122.01 1740.06,-127.64"/>
</g>
<!-- Node22 -->
<g id="node22" class="node">
<title>Node22</title>
<g id="a_node22"><a xlink:href="c__dylink_8h.html" target="_top" xlink:title=" ">
<polygon fill="white" stroke="#666666" points="1827.5,-90.5 1726.5,-90.5 1726.5,-71.5 1827.5,-71.5 1827.5,-90.5"/>
<text text-anchor="middle" x="1777" y="-78.5" font-family="Helvetica,sans-Serif" font-size="10.00">include/c/c_dylink.h</text>
</a>
</g>
</g>
<!-- Node21&#45;&gt;Node22 -->
<g id="edge21" class="edge">
<title>Node21&#45;&gt;Node22</title>
<path fill="none" stroke="#63b8ff" d="M1777,-120.59C1777,-110.06 1777,-98.53 1777,-90.84"/>
<polygon fill="#63b8ff" stroke="#63b8ff" points="1773.5,-120.28 1777,-130.28 1780.5,-120.28 1773.5,-120.28"/>
</g>
<!-- Node25 -->
<g id="node25" class="node">
<title>Node25</title>
<g id="a_node25"><a xlink:href="d__s__room_8h.html" target="_top" xlink:title=" ">
<polygon fill="white" stroke="#666666" points="1669.5,-90.5 1552.5,-90.5 1552.5,-71.5 1669.5,-71.5 1669.5,-90.5"/>
<text text-anchor="middle" x="1611" y="-78.5" font-family="Helvetica,sans-Serif" font-size="10.00">include/d/s/d_s_room.h</text>
</a>
</g>
</g>
<!-- Node21&#45;&gt;Node25 -->
<g id="edge26" class="edge">
<title>Node21&#45;&gt;Node25</title>
<path fill="none" stroke="#63b8ff" d="M1729.11,-127.54C1697.99,-115.54 1658.79,-100.43 1634.31,-90.99"/>
<polygon fill="#63b8ff" stroke="#63b8ff" points="1727.74,-130.76 1738.33,-131.09 1730.26,-124.23 1727.74,-130.76"/>
</g>
<!-- Node26 -->
<g id="node26" class="node">
<title>Node26</title>
<g id="a_node26"><a xlink:href="d__com__inf__game_8cpp.html" target="_top" xlink:title=" ">
<polygon fill="white" stroke="#666666" points="1954,-96 1846,-96 1846,-66 1954,-66 1954,-96"/>
<text text-anchor="start" x="1854" y="-84" font-family="Helvetica,sans-Serif" font-size="10.00">src/d/com/d_com_inf</text>
<text text-anchor="middle" x="1900" y="-73" font-family="Helvetica,sans-Serif" font-size="10.00">_game.cpp</text>
</a>
</g>
</g>
<!-- Node21&#45;&gt;Node26 -->
<g id="edge28" class="edge">
<title>Node21&#45;&gt;Node26</title>
<path fill="none" stroke="#63b8ff" d="M1814.57,-126.45C1833.25,-116.73 1855.41,-105.2 1872.49,-96.31"/>
<polygon fill="#63b8ff" stroke="#63b8ff" points="1813.2,-123.22 1805.95,-130.94 1816.43,-129.43 1813.2,-123.22"/>
</g>
<!-- Node27 -->
<g id="node27" class="node">
<title>Node27</title>
<g id="a_node27"><a xlink:href="d__stage_8cpp.html" target="_top" xlink:title=" ">
<polygon fill="white" stroke="#666666" points="2066,-90.5 1972,-90.5 1972,-71.5 2066,-71.5 2066,-90.5"/>
<text text-anchor="middle" x="2019" y="-78.5" font-family="Helvetica,sans-Serif" font-size="10.00">src/d/d_stage.cpp</text>
</a>
</g>
</g>
<!-- Node21&#45;&gt;Node27 -->
<g id="edge29" class="edge">
<title>Node21&#45;&gt;Node27</title>
<path fill="none" stroke="#63b8ff" d="M1842.7,-128.63C1888.72,-116.46 1948.33,-100.69 1985.11,-90.96"/>
<polygon fill="#63b8ff" stroke="#63b8ff" points="1841.85,-125.23 1833.07,-131.17 1843.64,-132 1841.85,-125.23"/>
</g>
<!-- Node28 -->
<g id="node28" class="node">
<title>Node28</title>
<g id="a_node28"><a xlink:href="f__ap__game_8cpp.html" target="_top" xlink:title=" ">
<polygon fill="white" stroke="#666666" points="2205.5,-90.5 2084.5,-90.5 2084.5,-71.5 2205.5,-71.5 2205.5,-90.5"/>
<text text-anchor="middle" x="2145" y="-78.5" font-family="Helvetica,sans-Serif" font-size="10.00">src/f_ap/f_ap_game.cpp</text>
</a>
</g>
</g>
<!-- Node21&#45;&gt;Node28 -->
<g id="edge32" class="edge">
<title>Node21&#45;&gt;Node28</title>
<path fill="none" stroke="#63b8ff" d="M1849.19,-131.84C1950.43,-114.09 1977.89,-113.4 2075,-96 2083.66,-94.45 2092.9,-92.68 2101.74,-90.93"/>
<polygon fill="#63b8ff" stroke="#63b8ff" points="1848.89,-128.34 1839.65,-133.53 1850.11,-135.23 1848.89,-128.34"/>
</g>
<!-- Node29 -->
<g id="node29" class="node">
<title>Node29</title>
<g id="a_node29"><a xlink:href="f__op__actor__mng_8cpp.html" target="_top" xlink:title=" ">
<polygon fill="white" stroke="#666666" points="2324.5,-96 2223.5,-96 2223.5,-66 2324.5,-66 2324.5,-96"/>
<text text-anchor="start" x="2231.5" y="-84" font-family="Helvetica,sans-Serif" font-size="10.00">src/f_op/f_op_actor</text>
<text text-anchor="middle" x="2274" y="-73" font-family="Helvetica,sans-Serif" font-size="10.00">_mng.cpp</text>
</a>
</g>
</g>
<!-- Node21&#45;&gt;Node29 -->
<g id="edge33" class="edge">
<title>Node21&#45;&gt;Node29</title>
<path fill="none" stroke="#63b8ff" d="M1849.04,-131.97C2012.06,-108.74 2056.82,-122.4 2215,-96 2217.7,-95.55 2220.46,-95.05 2223.24,-94.5"/>
<polygon fill="#63b8ff" stroke="#63b8ff" points="1849.02,-128.44 1839.62,-133.34 1850.02,-135.37 1849.02,-128.44"/>
</g>
<!-- Node30 -->
<g id="node30" class="node">
<title>Node30</title>
<g id="a_node30"><a xlink:href="f__op__msg__mng_8cpp.html" target="_top" xlink:title=" ">
<polygon fill="white" stroke="#666666" points="2483,-90.5 2343,-90.5 2343,-71.5 2483,-71.5 2483,-90.5"/>
<text text-anchor="middle" x="2413" y="-78.5" font-family="Helvetica,sans-Serif" font-size="10.00">src/f_op/f_op_msg_mng.cpp</text>
</a>
</g>
</g>
<!-- Node21&#45;&gt;Node30 -->
<g id="edge34" class="edge">
<title>Node21&#45;&gt;Node30</title>
<path fill="none" stroke="#63b8ff" d="M1849.84,-131.89C2064.62,-103.66 2122.76,-122.47 2334,-96 2344.78,-94.65 2356.33,-92.82 2367.17,-90.93"/>
<polygon fill="#63b8ff" stroke="#63b8ff" points="1849.45,-128.41 1840,-133.2 1850.37,-135.35 1849.45,-128.41"/>
</g>
<!-- Node31 -->
<g id="node31" class="node">
<title>Node31</title>
<g id="a_node31"><a xlink:href="f__op__scene__mng_8cpp.html" target="_top" xlink:title=" ">
<polygon fill="white" stroke="#666666" points="1534.5,-96 1429.5,-96 1429.5,-66 1534.5,-66 1534.5,-96"/>
<text text-anchor="start" x="1437.5" y="-84" font-family="Helvetica,sans-Serif" font-size="10.00">src/f_op/f_op_scene</text>
<text text-anchor="middle" x="1482" y="-73" font-family="Helvetica,sans-Serif" font-size="10.00">_mng.cpp</text>
</a>
</g>
</g>
<!-- Node21&#45;&gt;Node31 -->
<g id="edge35" class="edge">
<title>Node21&#45;&gt;Node31</title>
<path fill="none" stroke="#63b8ff" d="M1704.57,-130.67C1658.56,-120.87 1597.75,-107.84 1544,-96 1540.98,-95.34 1537.88,-94.65 1534.76,-93.95"/>
<polygon fill="#63b8ff" stroke="#63b8ff" points="1703.65,-134.05 1714.16,-132.7 1705.11,-127.2 1703.65,-134.05"/>
</g>
<!-- Node22&#45;&gt;Node4 -->
<g id="edge23" class="edge">
<title>Node22&#45;&gt;Node4</title>
<path fill="none" stroke="#63b8ff" d="M1822.97,-68.66C1827.69,-67.68 1832.43,-66.77 1837,-66 1991,-40.13 2175.14,-25.46 2264.32,-19.37"/>
<polygon fill="#63b8ff" stroke="#63b8ff" points="1822.57,-65.16 1813.55,-70.72 1824.06,-72 1822.57,-65.16"/>
</g>
<!-- Node22&#45;&gt;Node15 -->
<g id="edge24" class="edge">
<title>Node22&#45;&gt;Node15</title>
<path fill="none" stroke="#63b8ff" d="M1761.31,-62.98C1749.99,-50.7 1735.17,-34.63 1726.13,-24.82"/>
<polygon fill="#63b8ff" stroke="#63b8ff" points="1758.42,-65.01 1767.77,-69.99 1763.57,-60.26 1758.42,-65.01"/>
</g>
<!-- Node23 -->
<g id="node23" class="node">
<title>Node23</title>
<g id="a_node23"><a xlink:href="c__dylink_8cpp.html" target="_top" xlink:title=" ">
<polygon fill="white" stroke="#666666" points="1884.5,-24.5 1789.5,-24.5 1789.5,-5.5 1884.5,-5.5 1884.5,-24.5"/>
<text text-anchor="middle" x="1837" y="-12.5" font-family="Helvetica,sans-Serif" font-size="10.00">src/c/c_dylink.cpp</text>
</a>
</g>
</g>
<!-- Node22&#45;&gt;Node23 -->
<g id="edge22" class="edge">
<title>Node22&#45;&gt;Node23</title>
<path fill="none" stroke="#63b8ff" d="M1792.96,-62.98C1804.47,-50.7 1819.53,-34.63 1828.73,-24.82"/>
<polygon fill="#63b8ff" stroke="#63b8ff" points="1790.66,-60.31 1786.38,-70 1795.77,-65.1 1790.66,-60.31"/>
</g>
<!-- Node24 -->
<g id="node24" class="node">
<title>Node24</title>
<g id="a_node24"><a xlink:href="m__Do__main_8cpp.html" target="_top" xlink:title=" ">
<polygon fill="white" stroke="#666666" points="2033.5,-24.5 1902.5,-24.5 1902.5,-5.5 2033.5,-5.5 2033.5,-24.5"/>
<text text-anchor="middle" x="1968" y="-12.5" font-family="Helvetica,sans-Serif" font-size="10.00">src/m_Do/m_Do_main.cpp</text>
</a>
</g>
</g>
<!-- Node22&#45;&gt;Node24 -->
<g id="edge25" class="edge">
<title>Node22&#45;&gt;Node24</title>
<path fill="none" stroke="#63b8ff" d="M1814.02,-67.6C1851.39,-55.07 1908.2,-36.04 1941.36,-24.93"/>
<polygon fill="#63b8ff" stroke="#63b8ff" points="1813.36,-64.12 1804.99,-70.62 1815.59,-70.76 1813.36,-64.12"/>
</g>
<!-- Node25&#45;&gt;Node16 -->
<g id="edge27" class="edge">
<title>Node25&#45;&gt;Node16</title>
<path fill="none" stroke="#63b8ff" d="M1605.19,-60.43C1601.66,-48.55 1597.33,-33.96 1594.62,-24.82"/>
<polygon fill="#63b8ff" stroke="#63b8ff" points="1601.73,-61.06 1607.93,-69.65 1608.44,-59.07 1601.73,-61.06"/>
</g>
</g>
</svg>
