<?xml version="1.0" encoding="UTF-8" standalone="no"?>
<!DOCTYPE svg PUBLIC "-//W3C//DTD SVG 1.1//EN"
 "http://www.w3.org/Graphics/SVG/1.1/DTD/svg11.dtd">
<!-- Generated by graphviz version 2.46.1 (20210215.1649)
 -->
<!-- Title: src/f/f_op/f_op_scene_mng.cpp Pages: 1 -->
<!--zoomable 274 -->
<svg id="main" version="1.1" xmlns="http://www.w3.org/2000/svg" xmlns:xlink="http://www.w3.org/1999/xlink" xml:space="preserve" onload="init(evt)">
<style type="text/css"><![CDATA[
.edge:hover path { stroke: red; }
.edge:hover polygon { stroke: red; fill: red; }
]]></style>
<script type="text/javascript"><![CDATA[
var edges = document.getElementsByTagName('g');
if (edges && edges.length) {
  for (var i=0;i<edges.length;i++) {
    if (edges[i].id.substr(0,4)=='edge') {
      edges[i].setAttribute('class','edge');
    }
  }
}
]]></script>
        <defs>
                <circle id="rim" cx="0" cy="0" r="7"/>
                <circle id="rim2" cx="0" cy="0" r="3.5"/>
                <g id="zoomPlus">
                        <use xlink:href="#rim" fill="#404040">
                                <set attributeName="fill" to="#808080" begin="zoomplus.mouseover" end="zoomplus.mouseout"/>
                        </use>
                        <path d="M-4,0h8M0,-4v8" fill="none" stroke="white" stroke-width="1.5" pointer-events="none"/>
                </g>
                <g id="zoomMin">
                        <use xlink:href="#rim" fill="#404040">
                                <set attributeName="fill" to="#808080" begin="zoomminus.mouseover" end="zoomminus.mouseout"/>
                        </use>
                        <path d="M-4,0h8" fill="none" stroke="white" stroke-width="1.5" pointer-events="none"/>
                </g>
                <g id="dirArrow">
                        <path fill="none" stroke="white" stroke-width="1.5" d="M0,-3.0v7 M-2.5,-0.5L0,-3.0L2.5,-0.5"/>
                </g>
               <g id="resetDef">
                       <use xlink:href="#rim2" fill="#404040">
                               <set attributeName="fill" to="#808080" begin="reset.mouseover" end="reset.mouseout"/>
                       </use>
               </g>
        </defs>

<script type="text/javascript">
var viewWidth = 1238;
var viewHeight = 274;
var sectionId = 'dynsection-0';
</script>
<script xlink:href="svgpan.js"/>
<svg id="graph" class="graph">
<g id="viewport">
<title>src/f/f_op/f_op_scene_mng.cpp</title>
<polygon fill="white" stroke="transparent" points="-4,4 -4,-270 1233.5,-270 1233.5,4 -4,4"/>
<!-- Node1 -->
<g id="node1" class="node">
<title>Node1</title>
<g id="a_node1"><a xlink:title=" ">
<polygon fill="#bfbfbf" stroke="black" points="497.5,-235.5 497.5,-265.5 608.5,-265.5 608.5,-235.5 497.5,-235.5"/>
<text text-anchor="start" x="505.5" y="-253.5" font-family="Helvetica,sans-Serif" font-size="10.00">src/f/f_op/f_op_scene</text>
<text text-anchor="middle" x="553" y="-242.5" font-family="Helvetica,sans-Serif" font-size="10.00">_mng.cpp</text>
</a>
</g>
</g>
<!-- Node2 -->
<g id="node2" class="node">
<title>Node2</title>
<g id="a_node2"><a xlink:href="f__op__scene__mng_8h.html" target="_top" xlink:title=" ">
<polygon fill="white" stroke="black" points="0,-174 0,-193 126,-193 126,-174 0,-174"/>
<text text-anchor="middle" x="63" y="-181" font-family="Helvetica,sans-Serif" font-size="10.00">f/f_op/f_op_scene_mng.h</text>
</a>
</g>
</g>
<!-- Node1&#45;&gt;Node2 -->
<g id="edge1" class="edge">
<title>Node1&#45;&gt;Node2</title>
<path fill="none" stroke="midnightblue" d="M497.4,-243.85C417.94,-235.52 267.42,-218.77 140,-199 132.07,-197.77 123.7,-196.34 115.52,-194.86"/>
<polygon fill="midnightblue" stroke="midnightblue" points="116.15,-191.41 105.68,-193.04 114.88,-198.3 116.15,-191.41"/>
</g>
<!-- Node3 -->
<g id="node3" class="node">
<title>Node3</title>
<g id="a_node3"><a xlink:href="f__op__scene__iter_8h.html" target="_top" xlink:title=" ">
<polygon fill="white" stroke="black" points="42.5,-56.5 42.5,-75.5 163.5,-75.5 163.5,-56.5 42.5,-56.5"/>
<text text-anchor="middle" x="103" y="-63.5" font-family="Helvetica,sans-Serif" font-size="10.00">f/f_op/f_op_scene_iter.h</text>
</a>
</g>
</g>
<!-- Node1&#45;&gt;Node3 -->
<g id="edge2" class="edge">
<title>Node1&#45;&gt;Node3</title>
<path fill="none" stroke="midnightblue" d="M497.43,-246.15C413.43,-240.29 258.84,-226.13 211,-199 162.85,-171.69 127.42,-113.87 111.82,-84.67"/>
<polygon fill="midnightblue" stroke="midnightblue" points="114.85,-82.9 107.14,-75.63 108.63,-86.12 114.85,-82.9"/>
</g>
<!-- Node5 -->
<g id="node5" class="node">
<title>Node5</title>
<g id="a_node5"><a xlink:href="global_8h.html" target="_top" xlink:title=" ">
<polygon fill="white" stroke="black" points="220,-174 220,-193 270,-193 270,-174 220,-174"/>
<text text-anchor="middle" x="245" y="-181" font-family="Helvetica,sans-Serif" font-size="10.00">global.h</text>
</a>
</g>
</g>
<!-- Node1&#45;&gt;Node5 -->
<g id="edge4" class="edge">
<title>Node1&#45;&gt;Node5</title>
<path fill="none" stroke="midnightblue" d="M497.3,-242.91C441.33,-235.43 352.99,-221.3 279,-199 276.85,-198.35 274.66,-197.61 272.47,-196.82"/>
<polygon fill="midnightblue" stroke="midnightblue" points="273.66,-193.52 263.08,-193.08 271.08,-200.03 273.66,-193.52"/>
</g>
<!-- Node11 -->
<g id="node11" class="node">
<title>Node11</title>
<g id="a_node11"><a xlink:title=" ">
<polygon fill="white" stroke="#bfbfbf" points="288.5,-168.5 288.5,-198.5 407.5,-198.5 407.5,-168.5 288.5,-168.5"/>
<text text-anchor="start" x="296.5" y="-186.5" font-family="Helvetica,sans-Serif" font-size="10.00">f/f_op_scene_mng/asm</text>
<text text-anchor="middle" x="348" y="-175.5" font-family="Helvetica,sans-Serif" font-size="10.00">/func_8001ECB0.s</text>
</a>
</g>
</g>
<!-- Node1&#45;&gt;Node11 -->
<g id="edge15" class="edge">
<title>Node1&#45;&gt;Node11</title>
<path fill="none" stroke="midnightblue" d="M508.77,-235.48C477.49,-225.56 435.36,-212.2 402.08,-201.65"/>
<polygon fill="midnightblue" stroke="midnightblue" points="403.09,-198.3 392.5,-198.61 400.98,-204.97 403.09,-198.3"/>
</g>
<!-- Node12 -->
<g id="node12" class="node">
<title>Node12</title>
<g id="a_node12"><a xlink:title=" ">
<polygon fill="white" stroke="#bfbfbf" points="425.5,-168.5 425.5,-198.5 544.5,-198.5 544.5,-168.5 425.5,-168.5"/>
<text text-anchor="start" x="433.5" y="-186.5" font-family="Helvetica,sans-Serif" font-size="10.00">f/f_op_scene_mng/asm</text>
<text text-anchor="middle" x="485" y="-175.5" font-family="Helvetica,sans-Serif" font-size="10.00">/func_8001ECE0.s</text>
</a>
</g>
</g>
<!-- Node1&#45;&gt;Node12 -->
<g id="edge16" class="edge">
<title>Node1&#45;&gt;Node12</title>
<path fill="none" stroke="midnightblue" d="M538.25,-235.4C529.16,-226.71 517.33,-215.4 507.13,-205.66"/>
<polygon fill="midnightblue" stroke="midnightblue" points="509.37,-202.96 499.73,-198.58 504.54,-208.02 509.37,-202.96"/>
</g>
<!-- Node13 -->
<g id="node13" class="node">
<title>Node13</title>
<g id="a_node13"><a xlink:title=" ">
<polygon fill="white" stroke="#bfbfbf" points="562.5,-168.5 562.5,-198.5 681.5,-198.5 681.5,-168.5 562.5,-168.5"/>
<text text-anchor="start" x="570.5" y="-186.5" font-family="Helvetica,sans-Serif" font-size="10.00">f/f_op_scene_mng/asm</text>
<text text-anchor="middle" x="622" y="-175.5" font-family="Helvetica,sans-Serif" font-size="10.00">/func_8001ED3C.s</text>
</a>
</g>
</g>
<!-- Node1&#45;&gt;Node13 -->
<g id="edge17" class="edge">
<title>Node1&#45;&gt;Node13</title>
<path fill="none" stroke="midnightblue" d="M567.97,-235.4C577.19,-226.71 589.19,-215.4 599.54,-205.66"/>
<polygon fill="midnightblue" stroke="midnightblue" points="602.18,-207.98 607.06,-198.58 597.38,-202.89 602.18,-207.98"/>
</g>
<!-- Node14 -->
<g id="node14" class="node">
<title>Node14</title>
<g id="a_node14"><a xlink:title=" ">
<polygon fill="white" stroke="#bfbfbf" points="699.5,-168.5 699.5,-198.5 818.5,-198.5 818.5,-168.5 699.5,-168.5"/>
<text text-anchor="start" x="707.5" y="-186.5" font-family="Helvetica,sans-Serif" font-size="10.00">f/f_op_scene_mng/asm</text>
<text text-anchor="middle" x="759" y="-175.5" font-family="Helvetica,sans-Serif" font-size="10.00">/func_8001ED84.s</text>
</a>
</g>
</g>
<!-- Node1&#45;&gt;Node14 -->
<g id="edge18" class="edge">
<title>Node1&#45;&gt;Node14</title>
<path fill="none" stroke="midnightblue" d="M597.45,-235.48C628.88,-225.56 671.21,-212.2 704.65,-201.65"/>
<polygon fill="midnightblue" stroke="midnightblue" points="705.8,-204.96 714.28,-198.61 703.69,-198.28 705.8,-204.96"/>
</g>
<!-- Node15 -->
<g id="node15" class="node">
<title>Node15</title>
<g id="a_node15"><a xlink:title=" ">
<polygon fill="white" stroke="#bfbfbf" points="836.5,-168.5 836.5,-198.5 955.5,-198.5 955.5,-168.5 836.5,-168.5"/>
<text text-anchor="start" x="844.5" y="-186.5" font-family="Helvetica,sans-Serif" font-size="10.00">f/f_op_scene_mng/asm</text>
<text text-anchor="middle" x="896" y="-175.5" font-family="Helvetica,sans-Serif" font-size="10.00">/func_8001EDCC.s</text>
</a>
</g>
</g>
<!-- Node1&#45;&gt;Node15 -->
<g id="edge19" class="edge">
<title>Node1&#45;&gt;Node15</title>
<path fill="none" stroke="midnightblue" d="M608.66,-239.76C662.1,-230.3 745.36,-215.27 826.44,-199.28"/>
<polygon fill="midnightblue" stroke="midnightblue" points="827.19,-202.7 836.32,-197.33 825.83,-195.84 827.19,-202.7"/>
</g>
<!-- Node16 -->
<g id="node16" class="node">
<title>Node16</title>
<g id="a_node16"><a xlink:title=" ">
<polygon fill="white" stroke="#bfbfbf" points="973.5,-168.5 973.5,-198.5 1092.5,-198.5 1092.5,-168.5 973.5,-168.5"/>
<text text-anchor="start" x="981.5" y="-186.5" font-family="Helvetica,sans-Serif" font-size="10.00">f/f_op_scene_mng/asm</text>
<text text-anchor="middle" x="1033" y="-175.5" font-family="Helvetica,sans-Serif" font-size="10.00">/func_8001EE10.s</text>
</a>
</g>
</g>
<!-- Node1&#45;&gt;Node16 -->
<g id="edge20" class="edge">
<title>Node1&#45;&gt;Node16</title>
<path fill="none" stroke="midnightblue" d="M608.53,-244.26C685.94,-236.61 830.84,-221.04 963.42,-199.18"/>
<polygon fill="midnightblue" stroke="midnightblue" points="964.06,-202.62 973.35,-197.53 962.91,-195.72 964.06,-202.62"/>
</g>
<!-- Node17 -->
<g id="node17" class="node">
<title>Node17</title>
<g id="a_node17"><a xlink:title=" ">
<polygon fill="white" stroke="#bfbfbf" points="1110.5,-168.5 1110.5,-198.5 1229.5,-198.5 1229.5,-168.5 1110.5,-168.5"/>
<text text-anchor="start" x="1118.5" y="-186.5" font-family="Helvetica,sans-Serif" font-size="10.00">f/f_op_scene_mng/asm</text>
<text text-anchor="middle" x="1170" y="-175.5" font-family="Helvetica,sans-Serif" font-size="10.00">/func_8001EE30.s</text>
</a>
</g>
</g>
<!-- Node1&#45;&gt;Node17 -->
<g id="edge21" class="edge">
<title>Node1&#45;&gt;Node17</title>
<path fill="none" stroke="midnightblue" d="M608.59,-246.57C706.27,-240.94 915.17,-226.78 1100.45,-199.13"/>
<polygon fill="midnightblue" stroke="midnightblue" points="1101,-202.59 1110.37,-197.63 1099.96,-195.66 1101,-202.59"/>
</g>
<!-- Node4 -->
<g id="node4" class="node">
<title>Node4</title>
<g id="a_node4"><a xlink:href="types_8h.html" target="_top" xlink:title=" ">
<polygon fill="white" stroke="black" points="231.5,-0.5 231.5,-19.5 312.5,-19.5 312.5,-0.5 231.5,-0.5"/>
<text text-anchor="middle" x="272" y="-7.5" font-family="Helvetica,sans-Serif" font-size="10.00">dolphin/types.h</text>
</a>
</g>
</g>
<!-- Node3&#45;&gt;Node4 -->
<g id="edge3" class="edge">
<title>Node3&#45;&gt;Node4</title>
<path fill="none" stroke="midnightblue" d="M129.78,-56.44C158.33,-47.32 203.73,-32.81 235.54,-22.65"/>
<polygon fill="midnightblue" stroke="midnightblue" points="236.89,-25.89 245.35,-19.52 234.76,-19.23 236.89,-25.89"/>
</g>
<!-- Node5&#45;&gt;Node4 -->
<g id="edge5" class="edge">
<title>Node5&#45;&gt;Node4</title>
<path fill="none" stroke="midnightblue" d="M236.05,-173.78C223.91,-160.84 204.44,-135.56 211,-112 220.11,-79.29 243,-46.6 258,-27.61"/>
<polygon fill="midnightblue" stroke="midnightblue" points="260.86,-29.64 264.45,-19.68 255.42,-25.23 260.86,-29.64"/>
</g>
<!-- Node6 -->
<g id="node6" class="node">
<title>Node6</title>
<g id="a_node6"><a xlink:href="AR_8h.html" target="_top" xlink:title=" ">
<polygon fill="white" stroke="black" points="220.5,-112.5 220.5,-131.5 269.5,-131.5 269.5,-112.5 220.5,-112.5"/>
<text text-anchor="middle" x="245" y="-119.5" font-family="Helvetica,sans-Serif" font-size="10.00">ar/AR.h</text>
</a>
</g>
</g>
<!-- Node5&#45;&gt;Node6 -->
<g id="edge6" class="edge">
<title>Node5&#45;&gt;Node6</title>
<path fill="none" stroke="midnightblue" d="M245,-173.98C245,-165.58 245,-152.48 245,-141.66"/>
<polygon fill="midnightblue" stroke="midnightblue" points="248.5,-141.51 245,-131.51 241.5,-141.51 248.5,-141.51"/>
</g>
<!-- Node7 -->
<g id="node7" class="node">
<title>Node7</title>
<g id="a_node7"><a xlink:href="ARQ_8h.html" target="_top" xlink:title=" ">
<polygon fill="white" stroke="black" points="272,-56.5 272,-75.5 328,-75.5 328,-56.5 272,-56.5"/>
<text text-anchor="middle" x="300" y="-63.5" font-family="Helvetica,sans-Serif" font-size="10.00">ar/ARQ.h</text>
</a>
</g>
</g>
<!-- Node5&#45;&gt;Node7 -->
<g id="edge8" class="edge">
<title>Node5&#45;&gt;Node7</title>
<path fill="none" stroke="midnightblue" d="M251.55,-173.96C258.78,-164.23 270.4,-147.64 278,-132 285.33,-116.93 291.24,-98.81 295.09,-85.53"/>
<polygon fill="midnightblue" stroke="midnightblue" points="298.52,-86.26 297.81,-75.69 291.77,-84.39 298.52,-86.26"/>
</g>
<!-- Node8 -->
<g id="node8" class="node">
<title>Node8</title>
<g id="a_node8"><a xlink:href="mwcc_8h.html" target="_top" xlink:title=" ">
<polygon fill="white" stroke="black" points="326,-112.5 326,-131.5 376,-131.5 376,-112.5 326,-112.5"/>
<text text-anchor="middle" x="351" y="-119.5" font-family="Helvetica,sans-Serif" font-size="10.00">mwcc.h</text>
</a>
</g>
</g>
<!-- Node5&#45;&gt;Node8 -->
<g id="edge10" class="edge">
<title>Node5&#45;&gt;Node8</title>
<path fill="none" stroke="midnightblue" d="M260.19,-173.98C277.66,-164.17 306.58,-147.93 327.08,-136.42"/>
<polygon fill="midnightblue" stroke="midnightblue" points="328.83,-139.46 335.84,-131.51 325.41,-133.35 328.83,-139.46"/>
</g>
<!-- Node9 -->
<g id="node9" class="node">
<title>Node9</title>
<g id="a_node9"><a xlink:href="OS_8h.html" target="_top" xlink:title=" ">
<polygon fill="white" stroke="black" points="394,-112.5 394,-131.5 446,-131.5 446,-112.5 394,-112.5"/>
<text text-anchor="middle" x="420" y="-119.5" font-family="Helvetica,sans-Serif" font-size="10.00">os/OS.h</text>
</a>
</g>
</g>
<!-- Node5&#45;&gt;Node9 -->
<g id="edge11" class="edge">
<title>Node5&#45;&gt;Node9</title>
<path fill="none" stroke="midnightblue" d="M264.29,-173.9C269.06,-171.88 274.19,-169.79 279,-168 314.33,-154.86 355.47,-142 384.16,-133.42"/>
<polygon fill="midnightblue" stroke="midnightblue" points="385.17,-136.77 393.76,-130.57 383.18,-130.06 385.17,-136.77"/>
</g>
<!-- Node6&#45;&gt;Node4 -->
<g id="edge7" class="edge">
<title>Node6&#45;&gt;Node4</title>
<path fill="none" stroke="midnightblue" d="M247.12,-112.37C251.48,-94.62 261.53,-53.67 267.44,-29.6"/>
<polygon fill="midnightblue" stroke="midnightblue" points="270.91,-30.14 269.89,-19.59 264.11,-28.47 270.91,-30.14"/>
</g>
<!-- Node7&#45;&gt;Node4 -->
<g id="edge9" class="edge">
<title>Node7&#45;&gt;Node4</title>
<path fill="none" stroke="midnightblue" d="M295.38,-56.08C291.54,-48.69 285.98,-37.95 281.24,-28.81"/>
<polygon fill="midnightblue" stroke="midnightblue" points="284.25,-27.02 276.54,-19.75 278.03,-30.24 284.25,-27.02"/>
</g>
<!-- Node9&#45;&gt;Node4 -->
<g id="edge12" class="edge">
<title>Node9&#45;&gt;Node4</title>
<path fill="none" stroke="midnightblue" d="M409.41,-112.38C393.78,-99.74 363.52,-75.54 337,-56 322.77,-45.52 306.42,-34.2 293.67,-25.53"/>
<polygon fill="midnightblue" stroke="midnightblue" points="295.35,-22.45 285.11,-19.74 291.43,-28.24 295.35,-22.45"/>
</g>
<!-- Node10 -->
<g id="node10" class="node">
<title>Node10</title>
<g id="a_node10"><a xlink:href="dvd_8h.html" target="_top" xlink:title=" ">
<polygon fill="white" stroke="black" points="388.5,-56.5 388.5,-75.5 447.5,-75.5 447.5,-56.5 388.5,-56.5"/>
<text text-anchor="middle" x="418" y="-63.5" font-family="Helvetica,sans-Serif" font-size="10.00">dvd/dvd.h</text>
</a>
</g>
</g>
<!-- Node9&#45;&gt;Node10 -->
<g id="edge13" class="edge">
<title>Node9&#45;&gt;Node10</title>
<path fill="none" stroke="midnightblue" d="M419.67,-112.08C419.41,-105.01 419.03,-94.86 418.7,-85.99"/>
<polygon fill="midnightblue" stroke="midnightblue" points="422.19,-85.61 418.32,-75.75 415.2,-85.87 422.19,-85.61"/>
</g>
<!-- Node10&#45;&gt;Node4 -->
<g id="edge14" class="edge">
<title>Node10&#45;&gt;Node4</title>
<path fill="none" stroke="midnightblue" d="M394.87,-56.44C370.52,-47.44 331.99,-33.19 304.58,-23.05"/>
<polygon fill="midnightblue" stroke="midnightblue" points="305.62,-19.7 295.03,-19.52 303.19,-26.27 305.62,-19.7"/>
</g>
</g>
</svg>
        <g id="navigator" transform="translate(0 0)" fill="#404254">
                <rect fill="#f2f5e9" fill-opacity="0.5" stroke="#606060" stroke-width=".5" x="0" y="0" width="60" height="60"/>
                <use id="zoomplus" xlink:href="#zoomPlus" x="17" y="9" onmousedown="handleZoom(evt,'in')"/>
                <use id="zoomminus" xlink:href="#zoomMin" x="42" y="9" onmousedown="handleZoom(evt,'out')"/>
                <use id="reset" xlink:href="#resetDef" x="30" y="36" onmousedown="handleReset()"/>
                <g id="arrowUp" xlink:href="#dirArrow" transform="translate(30 24)" onmousedown="handlePan(0,-1)">
                  <use xlink:href="#rim" fill="#404040">
                        <set attributeName="fill" to="#808080" begin="arrowUp.mouseover" end="arrowUp.mouseout"/>
                  </use>
                  <path fill="none" stroke="white" stroke-width="1.5" d="M0,-3.0v7 M-2.5,-0.5L0,-3.0L2.5,-0.5"/>
                </g>
                <g id="arrowRight" xlink:href="#dirArrow" transform="rotate(90) translate(36 -43)" onmousedown="handlePan(1,0)">
                  <use xlink:href="#rim" fill="#404040">
                        <set attributeName="fill" to="#808080" begin="arrowRight.mouseover" end="arrowRight.mouseout"/>
                  </use>
                  <path fill="none" stroke="white" stroke-width="1.5" d="M0,-3.0v7 M-2.5,-0.5L0,-3.0L2.5,-0.5"/>
                </g>
                <g id="arrowDown" xlink:href="#dirArrow" transform="rotate(180) translate(-30 -48)" onmousedown="handlePan(0,1)">
                  <use xlink:href="#rim" fill="#404040">
                        <set attributeName="fill" to="#808080" begin="arrowDown.mouseover" end="arrowDown.mouseout"/>
                  </use>
                  <path fill="none" stroke="white" stroke-width="1.5" d="M0,-3.0v7 M-2.5,-0.5L0,-3.0L2.5,-0.5"/>
                </g>
                <g id="arrowLeft" xlink:href="#dirArrow" transform="rotate(270) translate(-36 17)" onmousedown="handlePan(-1,0)">
                  <use xlink:href="#rim" fill="#404040">
                        <set attributeName="fill" to="#808080" begin="arrowLeft.mouseover" end="arrowLeft.mouseout"/>
                  </use>
                  <path fill="none" stroke="white" stroke-width="1.5" d="M0,-3.0v7 M-2.5,-0.5L0,-3.0L2.5,-0.5"/>
                </g>
        </g>
        <svg viewBox="0 0 15 15" width="100%" height="30px" preserveAspectRatio="xMaxYMin meet">
         <g id="arrow_out" transform="scale(0.3 0.3)">
          <a xlink:href="f__op__scene__mng_8cpp__incl_org.svg" target="_base">
           <rect id="button" ry="5" rx="5" y="6" x="6" height="38" width="38"
                fill="#f2f5e9" fill-opacity="0.5" stroke="#606060" stroke-width="1.0"/>
           <path id="arrow"
             d="M 11.500037,31.436501 C 11.940474,20.09759 22.043105,11.32322 32.158766,21.979434 L 37.068811,17.246167 C 37.068811,17.246167 37.088388,32 37.088388,32 L 22.160133,31.978069 C 22.160133,31.978069 26.997745,27.140456 26.997745,27.140456 C 18.528582,18.264221 13.291696,25.230495 11.500037,31.436501 z"
             style="fill:#404040;"/>
          </a>
         </g>
        </svg>
</svg>
