<?xml version="1.0" encoding="UTF-8" standalone="no"?>
<!DOCTYPE svg PUBLIC "-//W3C//DTD SVG 1.1//EN"
 "http://www.w3.org/Graphics/SVG/1.1/DTD/svg11.dtd">
<!-- Generated by graphviz version 2.46.0 (20210122.1329)
 -->
<!-- Title: include/f/f_pc/f_pc_node.h Pages: 1 -->
<!--zoomable 307 -->
<svg id="main" version="1.1" xmlns="http://www.w3.org/2000/svg" xmlns:xlink="http://www.w3.org/1999/xlink" xml:space="preserve" onload="init(evt)">
<style type="text/css"><![CDATA[
.edge:hover path { stroke: red; }
.edge:hover polygon { stroke: red; fill: red; }
]]></style>
<script type="text/javascript"><![CDATA[
var edges = document.getElementsByTagName('g');
if (edges && edges.length) {
  for (var i=0;i<edges.length;i++) {
    if (edges[i].id.substr(0,4)=='edge') {
      edges[i].setAttribute('class','edge');
    }
  }
}
]]></script>
        <defs>
                <circle id="rim" cx="0" cy="0" r="7"/>
                <circle id="rim2" cx="0" cy="0" r="3.5"/>
                <g id="zoomPlus">
                        <use xlink:href="#rim" fill="#404040">
                                <set attributeName="fill" to="#808080" begin="zoomplus.mouseover" end="zoomplus.mouseout"/>
                        </use>
                        <path d="M-4,0h8M0,-4v8" fill="none" stroke="white" stroke-width="1.5" pointer-events="none"/>
                </g>
                <g id="zoomMin">
                        <use xlink:href="#rim" fill="#404040">
                                <set attributeName="fill" to="#808080" begin="zoomminus.mouseover" end="zoomminus.mouseout"/>
                        </use>
                        <path d="M-4,0h8" fill="none" stroke="white" stroke-width="1.5" pointer-events="none"/>
                </g>
                <g id="dirArrow">
                        <path fill="none" stroke="white" stroke-width="1.5" d="M0,-3.0v7 M-2.5,-0.5L0,-3.0L2.5,-0.5"/>
                </g>
               <g id="resetDef">
                       <use xlink:href="#rim2" fill="#404040">
                               <set attributeName="fill" to="#808080" begin="reset.mouseover" end="reset.mouseout"/>
                       </use>
               </g>
        </defs>

<script type="text/javascript">
var viewWidth = 1094;
var viewHeight = 307;
var sectionId = 'dynsection-1';
</script>
<script xlink:href="svgpan.js"/>
<svg id="graph" class="graph">
<g id="viewport">
<title>include/f/f_pc/f_pc_node.h</title>
<polygon fill="white" stroke="transparent" points="-4,4 -4,-303 1090,-303 1090,4 -4,4"/>
<!-- Node1 -->
<g id="node1" class="node">
<title>Node1</title>
<g id="a_node1"><a xlink:title=" ">
<polygon fill="#bfbfbf" stroke="black" points="450.5,-268.5 450.5,-298.5 547.5,-298.5 547.5,-268.5 450.5,-268.5"/>
<text text-anchor="start" x="458.5" y="-286.5" font-family="Helvetica,sans-Serif" font-size="10.00">include/f/f_pc/f_pc</text>
<text text-anchor="middle" x="499" y="-275.5" font-family="Helvetica,sans-Serif" font-size="10.00">_node.h</text>
</a>
</g>
</g>
<!-- Node2 -->
<g id="node2" class="node">
<title>Node2</title>
<g id="a_node2"><a xlink:href="f__pc__deletor_8cpp.html" target="_top" xlink:title=" ">
<polygon fill="white" stroke="black" points="0,-207 0,-226 132,-226 132,-207 0,-207"/>
<text text-anchor="middle" x="66" y="-214" font-family="Helvetica,sans-Serif" font-size="10.00">src/f/f_pc/f_pc_deletor.cpp</text>
</a>
</g>
</g>
<!-- Node1&#45;&gt;Node2 -->
<g id="edge1" class="edge">
<title>Node1&#45;&gt;Node2</title>
<path fill="none" stroke="midnightblue" d="M440.14,-275.13C369.08,-266.02 246.03,-249.55 141,-232 130.27,-230.21 118.72,-228.08 107.98,-226.01"/>
<polygon fill="midnightblue" stroke="midnightblue" points="439.88,-278.62 450.24,-276.42 440.76,-271.68 439.88,-278.62"/>
</g>
<!-- Node3 -->
<g id="node3" class="node">
<title>Node3</title>
<g id="a_node3"><a xlink:href="f__pc__executor_8cpp.html" target="_top" xlink:title=" ">
<polygon fill="white" stroke="black" points="150,-207 150,-226 290,-226 290,-207 150,-207"/>
<text text-anchor="middle" x="220" y="-214" font-family="Helvetica,sans-Serif" font-size="10.00">src/f/f_pc/f_pc_executor.cpp</text>
</a>
</g>
</g>
<!-- Node1&#45;&gt;Node3 -->
<g id="edge2" class="edge">
<title>Node1&#45;&gt;Node3</title>
<path fill="none" stroke="midnightblue" d="M440.35,-268.84C384.84,-255.9 303.24,-236.89 256.49,-226"/>
<polygon fill="midnightblue" stroke="midnightblue" points="439.87,-272.32 450.4,-271.18 441.46,-265.5 439.87,-272.32"/>
</g>
<!-- Node4 -->
<g id="node4" class="node">
<title>Node4</title>
<g id="a_node4"><a xlink:href="f__pc__node_8cpp.html" target="_top" xlink:title=" ">
<polygon fill="white" stroke="black" points="308,-207 308,-226 432,-226 432,-207 308,-207"/>
<text text-anchor="middle" x="370" y="-214" font-family="Helvetica,sans-Serif" font-size="10.00">src/f/f_pc/f_pc_node.cpp</text>
</a>
</g>
</g>
<!-- Node1&#45;&gt;Node4 -->
<g id="edge3" class="edge">
<title>Node1&#45;&gt;Node4</title>
<path fill="none" stroke="midnightblue" d="M461.89,-263.8C437.16,-251.34 405.83,-235.56 386.88,-226.01"/>
<polygon fill="midnightblue" stroke="midnightblue" points="460.5,-267.02 471.01,-268.4 463.65,-260.77 460.5,-267.02"/>
</g>
<!-- Node5 -->
<g id="node5" class="node">
<title>Node5</title>
<g id="a_node5"><a xlink:href="f__pc__pause_8cpp.html" target="_top" xlink:title=" ">
<polygon fill="white" stroke="black" points="634.5,-140 634.5,-159 763.5,-159 763.5,-140 634.5,-140"/>
<text text-anchor="middle" x="699" y="-147" font-family="Helvetica,sans-Serif" font-size="10.00">src/f/f_pc/f_pc_pause.cpp</text>
</a>
</g>
</g>
<!-- Node1&#45;&gt;Node5 -->
<g id="edge4" class="edge">
<title>Node1&#45;&gt;Node5</title>
<path fill="none" stroke="midnightblue" d="M557.78,-275.73C610.64,-268.28 682.59,-254.32 700,-232 716.71,-210.58 707.79,-175.44 702.29,-159.22"/>
<polygon fill="midnightblue" stroke="midnightblue" points="557.25,-272.27 547.81,-277.09 558.19,-279.2 557.25,-272.27"/>
</g>
<!-- Node6 -->
<g id="node6" class="node">
<title>Node6</title>
<g id="a_node6"><a xlink:href="f__pc__stdcreate__req_8cpp.html" target="_top" xlink:title=" ">
<polygon fill="white" stroke="black" points="565.5,-201.5 565.5,-231.5 690.5,-231.5 690.5,-201.5 565.5,-201.5"/>
<text text-anchor="start" x="573.5" y="-219.5" font-family="Helvetica,sans-Serif" font-size="10.00">src/f/f_pc/f_pc_stdcreate</text>
<text text-anchor="middle" x="628" y="-208.5" font-family="Helvetica,sans-Serif" font-size="10.00">_req.cpp</text>
</a>
</g>
</g>
<!-- Node1&#45;&gt;Node6 -->
<g id="edge5" class="edge">
<title>Node1&#45;&gt;Node6</title>
<path fill="none" stroke="midnightblue" d="M536.01,-263.85C556.4,-253.58 581.31,-241.03 600.06,-231.58"/>
<polygon fill="midnightblue" stroke="midnightblue" points="534.35,-260.77 526.99,-268.4 537.5,-267.02 534.35,-260.77"/>
</g>
<!-- Node7 -->
<g id="node7" class="node">
<title>Node7</title>
<g id="a_node7"><a xlink:href="f__pc__node__req_8h.html" target="_top" xlink:title=" ">
<polygon fill="white" stroke="black" points="450.5,-201.5 450.5,-231.5 547.5,-231.5 547.5,-201.5 450.5,-201.5"/>
<text text-anchor="start" x="458.5" y="-219.5" font-family="Helvetica,sans-Serif" font-size="10.00">include/f/f_pc/f_pc</text>
<text text-anchor="middle" x="499" y="-208.5" font-family="Helvetica,sans-Serif" font-size="10.00">_node_req.h</text>
</a>
</g>
</g>
<!-- Node1&#45;&gt;Node7 -->
<g id="edge6" class="edge">
<title>Node1&#45;&gt;Node7</title>
<path fill="none" stroke="midnightblue" d="M499,-258.11C499,-249.15 499,-239.32 499,-231.58"/>
<polygon fill="midnightblue" stroke="midnightblue" points="495.5,-258.4 499,-268.4 502.5,-258.4 495.5,-258.4"/>
</g>
<!-- Node19 -->
<g id="node19" class="node">
<title>Node19</title>
<g id="a_node19"><a xlink:href="f__pc__pause_8h.html" target="_top" xlink:title=" ">
<polygon fill="white" stroke="black" points="747.5,-201.5 747.5,-231.5 844.5,-231.5 844.5,-201.5 747.5,-201.5"/>
<text text-anchor="start" x="755.5" y="-219.5" font-family="Helvetica,sans-Serif" font-size="10.00">include/f/f_pc/f_pc</text>
<text text-anchor="middle" x="796" y="-208.5" font-family="Helvetica,sans-Serif" font-size="10.00">_pause.h</text>
</a>
</g>
</g>
<!-- Node1&#45;&gt;Node19 -->
<g id="edge20" class="edge">
<title>Node1&#45;&gt;Node19</title>
<path fill="none" stroke="midnightblue" d="M557.97,-270.01C605.31,-259.92 673.48,-245.27 733,-232 737.6,-230.97 742.39,-229.89 747.18,-228.81"/>
<polygon fill="midnightblue" stroke="midnightblue" points="556.95,-266.65 547.89,-272.15 558.4,-273.49 556.95,-266.65"/>
</g>
<!-- Node8 -->
<g id="node8" class="node">
<title>Node8</title>
<g id="a_node8"><a xlink:href="f__pc__manager_8cpp.html" target="_top" xlink:title=" ">
<polygon fill="white" stroke="black" points="610,-73 610,-92 750,-92 750,-73 610,-73"/>
<text text-anchor="middle" x="680" y="-80" font-family="Helvetica,sans-Serif" font-size="10.00">src/f/f_pc/f_pc_manager.cpp</text>
</a>
</g>
</g>
<!-- Node7&#45;&gt;Node8 -->
<g id="edge7" class="edge">
<title>Node7&#45;&gt;Node8</title>
<path fill="none" stroke="midnightblue" d="M526.66,-195.32C566.88,-165.99 639.79,-112.82 668.21,-92.1"/>
<polygon fill="midnightblue" stroke="midnightblue" points="524.39,-192.65 518.37,-201.37 528.51,-198.31 524.39,-192.65"/>
</g>
<!-- Node9 -->
<g id="node9" class="node">
<title>Node9</title>
<g id="a_node9"><a xlink:href="f__pc__node__req_8cpp.html" target="_top" xlink:title=" ">
<polygon fill="white" stroke="black" points="332,-134.5 332,-164.5 438,-164.5 438,-134.5 332,-134.5"/>
<text text-anchor="start" x="340" y="-152.5" font-family="Helvetica,sans-Serif" font-size="10.00">src/f/f_pc/f_pc_node</text>
<text text-anchor="middle" x="385" y="-141.5" font-family="Helvetica,sans-Serif" font-size="10.00">_req.cpp</text>
</a>
</g>
</g>
<!-- Node7&#45;&gt;Node9 -->
<g id="edge8" class="edge">
<title>Node7&#45;&gt;Node9</title>
<path fill="none" stroke="midnightblue" d="M465.32,-196.3C447.48,-186.12 425.96,-173.85 409.69,-164.58"/>
<polygon fill="midnightblue" stroke="midnightblue" points="463.84,-199.48 474.26,-201.4 467.31,-193.4 463.84,-199.48"/>
</g>
<!-- Node10 -->
<g id="node10" class="node">
<title>Node10</title>
<g id="a_node10"><a xlink:href="f__pc__manager_8h.html" target="_top" xlink:title=" ">
<polygon fill="white" stroke="black" points="455.5,-134.5 455.5,-164.5 552.5,-164.5 552.5,-134.5 455.5,-134.5"/>
<text text-anchor="start" x="463.5" y="-152.5" font-family="Helvetica,sans-Serif" font-size="10.00">include/f/f_pc/f_pc</text>
<text text-anchor="middle" x="504" y="-141.5" font-family="Helvetica,sans-Serif" font-size="10.00">_manager.h</text>
</a>
</g>
</g>
<!-- Node7&#45;&gt;Node10 -->
<g id="edge9" class="edge">
<title>Node7&#45;&gt;Node10</title>
<path fill="none" stroke="midnightblue" d="M500.85,-191.4C501.55,-182.37 502.31,-172.41 502.92,-164.58"/>
<polygon fill="midnightblue" stroke="midnightblue" points="497.36,-191.16 500.08,-201.4 504.34,-191.69 497.36,-191.16"/>
</g>
<!-- Node10&#45;&gt;Node8 -->
<g id="edge12" class="edge">
<title>Node10&#45;&gt;Node8</title>
<path fill="none" stroke="midnightblue" d="M551.97,-130.78C586.1,-118.18 630.43,-101.81 656.97,-92.01"/>
<polygon fill="midnightblue" stroke="midnightblue" points="550.36,-127.65 542.19,-134.4 552.78,-134.21 550.36,-127.65"/>
</g>
<!-- Node11 -->
<g id="node11" class="node">
<title>Node11</title>
<g id="a_node11"><a xlink:href="f__ap__game_8cpp.html" target="_top" xlink:title=" ">
<polygon fill="white" stroke="black" points="332.5,-73 332.5,-92 437.5,-92 437.5,-73 332.5,-73"/>
<text text-anchor="middle" x="385" y="-80" font-family="Helvetica,sans-Serif" font-size="10.00">src/f/f_ap_game.cpp</text>
</a>
</g>
</g>
<!-- Node10&#45;&gt;Node11 -->
<g id="edge10" class="edge">
<title>Node10&#45;&gt;Node11</title>
<path fill="none" stroke="midnightblue" d="M469.17,-129.47C446.45,-117.06 417.9,-101.47 400.57,-92.01"/>
<polygon fill="midnightblue" stroke="midnightblue" points="467.72,-132.67 478.18,-134.4 471.08,-126.53 467.72,-132.67"/>
</g>
<!-- Node12 -->
<g id="node12" class="node">
<title>Node12</title>
<g id="a_node12"><a xlink:href="d__a__alink_8cpp.html" target="_top" xlink:title=" ">
<polygon fill="white" stroke="black" points="238.5,-6 238.5,-25 357.5,-25 357.5,-6 238.5,-6"/>
<text text-anchor="middle" x="298" y="-13" font-family="Helvetica,sans-Serif" font-size="10.00">src/d/d_a/d_a_alink.cpp</text>
</a>
</g>
</g>
<!-- Node10&#45;&gt;Node12 -->
<g id="edge11" class="edge">
<title>Node10&#45;&gt;Node12</title>
<path fill="none" stroke="midnightblue" d="M492.64,-125.24C482.66,-107.03 466.54,-82.31 446,-67 427.44,-53.17 367.96,-35.36 330.29,-25.01"/>
<polygon fill="midnightblue" stroke="midnightblue" points="489.67,-127.1 497.42,-134.33 495.87,-123.85 489.67,-127.1"/>
</g>
<!-- Node13 -->
<g id="node13" class="node">
<title>Node13</title>
<g id="a_node13"><a xlink:href="f__op__actor__mng_8h.html" target="_top" xlink:title=" ">
<polygon fill="white" stroke="black" points="494.5,-67.5 494.5,-97.5 591.5,-97.5 591.5,-67.5 494.5,-67.5"/>
<text text-anchor="start" x="502.5" y="-85.5" font-family="Helvetica,sans-Serif" font-size="10.00">include/f/f_op/f_op</text>
<text text-anchor="middle" x="543" y="-74.5" font-family="Helvetica,sans-Serif" font-size="10.00">_actor_mng.h</text>
</a>
</g>
</g>
<!-- Node10&#45;&gt;Node13 -->
<g id="edge13" class="edge">
<title>Node10&#45;&gt;Node13</title>
<path fill="none" stroke="midnightblue" d="M517.75,-125.58C523.36,-116.24 529.65,-105.75 534.55,-97.58"/>
<polygon fill="midnightblue" stroke="midnightblue" points="514.61,-124.02 512.46,-134.4 520.61,-127.62 514.61,-124.02"/>
</g>
<!-- Node13&#45;&gt;Node12 -->
<g id="edge18" class="edge">
<title>Node13&#45;&gt;Node12</title>
<path fill="none" stroke="midnightblue" d="M484.59,-66C436.25,-53.18 369.39,-35.44 330.21,-25.05"/>
<polygon fill="midnightblue" stroke="midnightblue" points="483.74,-69.4 494.3,-68.58 485.53,-62.63 483.74,-69.4"/>
</g>
<!-- Node14 -->
<g id="node14" class="node">
<title>Node14</title>
<g id="a_node14"><a xlink:href="d__attention_8cpp.html" target="_top" xlink:title=" ">
<polygon fill="white" stroke="black" points="882.5,-6 882.5,-25 989.5,-25 989.5,-6 882.5,-6"/>
<text text-anchor="middle" x="936" y="-13" font-family="Helvetica,sans-Serif" font-size="10.00">src/d/d_attention.cpp</text>
</a>
</g>
</g>
<!-- Node13&#45;&gt;Node14 -->
<g id="edge14" class="edge">
<title>Node13&#45;&gt;Node14</title>
<path fill="none" stroke="midnightblue" d="M601.7,-67.02C722.99,-44.57 756.78,-52.38 874,-31 883.24,-29.31 893.18,-27.15 902.34,-25.01"/>
<polygon fill="midnightblue" stroke="midnightblue" points="600.83,-63.62 591.65,-68.91 602.12,-70.5 600.83,-63.62"/>
</g>
<!-- Node15 -->
<g id="node15" class="node">
<title>Node15</title>
<g id="a_node15"><a xlink:href="d__camera_8cpp.html" target="_top" xlink:title=" ">
<polygon fill="white" stroke="black" points="376,-6 376,-25 478,-25 478,-6 376,-6"/>
<text text-anchor="middle" x="427" y="-13" font-family="Helvetica,sans-Serif" font-size="10.00">src/d/d_camera.cpp</text>
</a>
</g>
</g>
<!-- Node13&#45;&gt;Node15 -->
<g id="edge15" class="edge">
<title>Node13&#45;&gt;Node15</title>
<path fill="none" stroke="midnightblue" d="M509.04,-62.47C486.9,-50.06 459.07,-34.47 442.18,-25.01"/>
<polygon fill="midnightblue" stroke="midnightblue" points="507.4,-65.56 517.83,-67.4 510.82,-59.45 507.4,-65.56"/>
</g>
<!-- Node16 -->
<g id="node16" class="node">
<title>Node16</title>
<g id="a_node16"><a xlink:href="d__stage_8cpp.html" target="_top" xlink:title=" ">
<polygon fill="white" stroke="black" points="496,-6 496,-25 590,-25 590,-6 496,-6"/>
<text text-anchor="middle" x="543" y="-13" font-family="Helvetica,sans-Serif" font-size="10.00">src/d/d_stage.cpp</text>
</a>
</g>
</g>
<!-- Node13&#45;&gt;Node16 -->
<g id="edge16" class="edge">
<title>Node13&#45;&gt;Node16</title>
<path fill="none" stroke="midnightblue" d="M543,-57.25C543,-46.02 543,-33.38 543,-25.19"/>
<polygon fill="midnightblue" stroke="midnightblue" points="539.5,-57.4 543,-67.4 546.5,-57.4 539.5,-57.4"/>
</g>
<!-- Node17 -->
<g id="node17" class="node">
<title>Node17</title>
<g id="a_node17"><a xlink:href="f__op__actor__mng_8cpp.html" target="_top" xlink:title=" ">
<polygon fill="white" stroke="black" points="608.5,-0.5 608.5,-30.5 715.5,-30.5 715.5,-0.5 608.5,-0.5"/>
<text text-anchor="start" x="616.5" y="-18.5" font-family="Helvetica,sans-Serif" font-size="10.00">src/f/f_op/f_op_actor</text>
<text text-anchor="middle" x="662" y="-7.5" font-family="Helvetica,sans-Serif" font-size="10.00">_mng.cpp</text>
</a>
</g>
</g>
<!-- Node13&#45;&gt;Node17 -->
<g id="edge17" class="edge">
<title>Node13&#45;&gt;Node17</title>
<path fill="none" stroke="midnightblue" d="M577.65,-62.57C596.37,-52.35 619.09,-39.94 636.23,-30.58"/>
<polygon fill="midnightblue" stroke="midnightblue" points="575.92,-59.53 568.82,-67.4 579.28,-65.67 575.92,-59.53"/>
</g>
<!-- Node18 -->
<g id="node18" class="node">
<title>Node18</title>
<g id="a_node18"><a xlink:href="m__Do__main_8cpp.html" target="_top" xlink:title=" ">
<polygon fill="white" stroke="black" points="733.5,-6 733.5,-25 864.5,-25 864.5,-6 733.5,-6"/>
<text text-anchor="middle" x="799" y="-13" font-family="Helvetica,sans-Serif" font-size="10.00">src/m_Do/m_Do_main.cpp</text>
</a>
</g>
</g>
<!-- Node13&#45;&gt;Node18 -->
<g id="edge19" class="edge">
<title>Node13&#45;&gt;Node18</title>
<path fill="none" stroke="midnightblue" d="M601.61,-66.62C652.35,-53.73 723.95,-35.56 765.52,-25"/>
<polygon fill="midnightblue" stroke="midnightblue" points="600.59,-63.27 591.75,-69.12 602.31,-70.05 600.59,-63.27"/>
</g>
<!-- Node19&#45;&gt;Node5 -->
<g id="edge24" class="edge">
<title>Node19&#45;&gt;Node5</title>
<path fill="none" stroke="midnightblue" d="M766.36,-195.64C748.06,-183.37 725.51,-168.26 711.7,-159.01"/>
<polygon fill="midnightblue" stroke="midnightblue" points="764.7,-198.74 774.95,-201.4 768.59,-192.92 764.7,-198.74"/>
</g>
<!-- Node19&#45;&gt;Node8 -->
<g id="edge23" class="edge">
<title>Node19&#45;&gt;Node8</title>
<path fill="none" stroke="midnightblue" d="M794.16,-191.27C791.72,-173.74 786.07,-150.36 773,-134 756.37,-113.19 728.74,-99.75 707.91,-92.01"/>
<polygon fill="midnightblue" stroke="midnightblue" points="790.69,-191.77 795.3,-201.31 797.64,-190.98 790.69,-191.77"/>
</g>
<!-- Node20 -->
<g id="node20" class="node">
<title>Node20</title>
<g id="a_node20"><a xlink:href="f__pc__base_8cpp.html" target="_top" xlink:title=" ">
<polygon fill="white" stroke="black" points="820,-140 820,-159 944,-159 944,-140 820,-140"/>
<text text-anchor="middle" x="882" y="-147" font-family="Helvetica,sans-Serif" font-size="10.00">src/f/f_pc/f_pc_base.cpp</text>
</a>
</g>
</g>
<!-- Node19&#45;&gt;Node20 -->
<g id="edge21" class="edge">
<title>Node19&#45;&gt;Node20</title>
<path fill="none" stroke="midnightblue" d="M822.67,-195.34C838.72,-183.21 858.33,-168.39 870.5,-159.19"/>
<polygon fill="midnightblue" stroke="midnightblue" points="820.53,-192.57 814.66,-201.4 824.75,-198.16 820.53,-192.57"/>
</g>
<!-- Node21 -->
<g id="node21" class="node">
<title>Node21</title>
<g id="a_node21"><a xlink:href="f__pc__draw_8cpp.html" target="_top" xlink:title=" ">
<polygon fill="white" stroke="black" points="962,-140 962,-159 1086,-159 1086,-140 962,-140"/>
<text text-anchor="middle" x="1024" y="-147" font-family="Helvetica,sans-Serif" font-size="10.00">src/f/f_pc/f_pc_draw.cpp</text>
</a>
</g>
</g>
<!-- Node19&#45;&gt;Node21 -->
<g id="edge22" class="edge">
<title>Node19&#45;&gt;Node21</title>
<path fill="none" stroke="midnightblue" d="M854.47,-198.83C899.03,-186.13 958.56,-169.16 993.93,-159.07"/>
<polygon fill="midnightblue" stroke="midnightblue" points="853.29,-195.53 844.63,-201.64 855.21,-202.26 853.29,-195.53"/>
</g>
</g>
</svg>
        <g id="navigator" transform="translate(0 0)" fill="#404254">
                <rect fill="#f2f5e9" fill-opacity="0.5" stroke="#606060" stroke-width=".5" x="0" y="0" width="60" height="60"/>
                <use id="zoomplus" xlink:href="#zoomPlus" x="17" y="9" onmousedown="handleZoom(evt,'in')"/>
                <use id="zoomminus" xlink:href="#zoomMin" x="42" y="9" onmousedown="handleZoom(evt,'out')"/>
                <use id="reset" xlink:href="#resetDef" x="30" y="36" onmousedown="handleReset()"/>
                <g id="arrowUp" xlink:href="#dirArrow" transform="translate(30 24)" onmousedown="handlePan(0,-1)">
                  <use xlink:href="#rim" fill="#404040">
                        <set attributeName="fill" to="#808080" begin="arrowUp.mouseover" end="arrowUp.mouseout"/>
                  </use>
                  <path fill="none" stroke="white" stroke-width="1.5" d="M0,-3.0v7 M-2.5,-0.5L0,-3.0L2.5,-0.5"/>
                </g>
                <g id="arrowRight" xlink:href="#dirArrow" transform="rotate(90) translate(36 -43)" onmousedown="handlePan(1,0)">
                  <use xlink:href="#rim" fill="#404040">
                        <set attributeName="fill" to="#808080" begin="arrowRight.mouseover" end="arrowRight.mouseout"/>
                  </use>
                  <path fill="none" stroke="white" stroke-width="1.5" d="M0,-3.0v7 M-2.5,-0.5L0,-3.0L2.5,-0.5"/>
                </g>
                <g id="arrowDown" xlink:href="#dirArrow" transform="rotate(180) translate(-30 -48)" onmousedown="handlePan(0,1)">
                  <use xlink:href="#rim" fill="#404040">
                        <set attributeName="fill" to="#808080" begin="arrowDown.mouseover" end="arrowDown.mouseout"/>
                  </use>
                  <path fill="none" stroke="white" stroke-width="1.5" d="M0,-3.0v7 M-2.5,-0.5L0,-3.0L2.5,-0.5"/>
                </g>
                <g id="arrowLeft" xlink:href="#dirArrow" transform="rotate(270) translate(-36 17)" onmousedown="handlePan(-1,0)">
                  <use xlink:href="#rim" fill="#404040">
                        <set attributeName="fill" to="#808080" begin="arrowLeft.mouseover" end="arrowLeft.mouseout"/>
                  </use>
                  <path fill="none" stroke="white" stroke-width="1.5" d="M0,-3.0v7 M-2.5,-0.5L0,-3.0L2.5,-0.5"/>
                </g>
        </g>
        <svg viewBox="0 0 15 15" width="100%" height="30px" preserveAspectRatio="xMaxYMin meet">
         <g id="arrow_out" transform="scale(0.3 0.3)">
          <a xlink:href="f__pc__node_8h__dep__incl_org.svg" target="_base">
           <rect id="button" ry="5" rx="5" y="6" x="6" height="38" width="38"
                fill="#f2f5e9" fill-opacity="0.5" stroke="#606060" stroke-width="1.0"/>
           <path id="arrow"
             d="M 11.500037,31.436501 C 11.940474,20.09759 22.043105,11.32322 32.158766,21.979434 L 37.068811,17.246167 C 37.068811,17.246167 37.088388,32 37.088388,32 L 22.160133,31.978069 C 22.160133,31.978069 26.997745,27.140456 26.997745,27.140456 C 18.528582,18.264221 13.291696,25.230495 11.500037,31.436501 z"
             style="fill:#404040;"/>
          </a>
         </g>
        </svg>
</svg>
