<?xml version="1.0" encoding="UTF-8" standalone="no"?>
<!DOCTYPE svg PUBLIC "-//W3C//DTD SVG 1.1//EN"
 "http://www.w3.org/Graphics/SVG/1.1/DTD/svg11.dtd">
<!-- Generated by graphviz version 2.46.1 (20210215.1649)
 -->
<!-- Title: include/f/f_pc/f_pc_node.h Pages: 1 -->
<svg width="1094pt" height="307pt"
 viewBox="0.00 0.00 1094.00 307.00" xmlns="http://www.w3.org/2000/svg" xmlns:xlink="http://www.w3.org/1999/xlink">
<g id="graph0" class="graph" transform="scale(1 1) rotate(0) translate(4 303)">
<title>include/f/f_pc/f_pc_node.h</title>
<polygon fill="white" stroke="transparent" points="-4,4 -4,-303 1090,-303 1090,4 -4,4"/>
<!-- Node1 -->
<g id="node1" class="node">
<title>Node1</title>
<g id="a_node1"><a xlink:title=" ">
<polygon fill="#bfbfbf" stroke="black" points="450.5,-268.5 450.5,-298.5 547.5,-298.5 547.5,-268.5 450.5,-268.5"/>
<text text-anchor="start" x="458.5" y="-286.5" font-family="Helvetica,sans-Serif" font-size="10.00">include/f/f_pc/f_pc</text>
<text text-anchor="middle" x="499" y="-275.5" font-family="Helvetica,sans-Serif" font-size="10.00">_node.h</text>
</a>
</g>
</g>
<!-- Node2 -->
<g id="node2" class="node">
<title>Node2</title>
<g id="a_node2"><a xlink:href="f__pc__deletor_8cpp.html" target="_top" xlink:title=" ">
<polygon fill="white" stroke="black" points="0,-207 0,-226 132,-226 132,-207 0,-207"/>
<text text-anchor="middle" x="66" y="-214" font-family="Helvetica,sans-Serif" font-size="10.00">src/f/f_pc/f_pc_deletor.cpp</text>
</a>
</g>
</g>
<!-- Node1&#45;&gt;Node2 -->
<g id="edge1" class="edge">
<title>Node1&#45;&gt;Node2</title>
<path fill="none" stroke="midnightblue" d="M440.14,-275.13C369.08,-266.02 246.03,-249.55 141,-232 130.27,-230.21 118.72,-228.08 107.98,-226.01"/>
<polygon fill="midnightblue" stroke="midnightblue" points="439.88,-278.62 450.24,-276.42 440.76,-271.68 439.88,-278.62"/>
</g>
<!-- Node3 -->
<g id="node3" class="node">
<title>Node3</title>
<g id="a_node3"><a xlink:href="f__pc__executor_8cpp.html" target="_top" xlink:title=" ">
<polygon fill="white" stroke="black" points="150,-207 150,-226 290,-226 290,-207 150,-207"/>
<text text-anchor="middle" x="220" y="-214" font-family="Helvetica,sans-Serif" font-size="10.00">src/f/f_pc/f_pc_executor.cpp</text>
</a>
</g>
</g>
<!-- Node1&#45;&gt;Node3 -->
<g id="edge2" class="edge">
<title>Node1&#45;&gt;Node3</title>
<path fill="none" stroke="midnightblue" d="M440.35,-268.84C384.84,-255.9 303.24,-236.89 256.49,-226"/>
<polygon fill="midnightblue" stroke="midnightblue" points="439.87,-272.32 450.4,-271.18 441.46,-265.5 439.87,-272.32"/>
</g>
<!-- Node4 -->
<g id="node4" class="node">
<title>Node4</title>
<g id="a_node4"><a xlink:href="f__pc__node_8cpp.html" target="_top" xlink:title=" ">
<polygon fill="white" stroke="black" points="308,-207 308,-226 432,-226 432,-207 308,-207"/>
<text text-anchor="middle" x="370" y="-214" font-family="Helvetica,sans-Serif" font-size="10.00">src/f/f_pc/f_pc_node.cpp</text>
</a>
</g>
</g>
<!-- Node1&#45;&gt;Node4 -->
<g id="edge3" class="edge">
<title>Node1&#45;&gt;Node4</title>
<path fill="none" stroke="midnightblue" d="M461.89,-263.8C437.16,-251.34 405.83,-235.56 386.88,-226.01"/>
<polygon fill="midnightblue" stroke="midnightblue" points="460.5,-267.02 471.01,-268.4 463.65,-260.77 460.5,-267.02"/>
</g>
<!-- Node5 -->
<g id="node5" class="node">
<title>Node5</title>
<g id="a_node5"><a xlink:href="f__pc__pause_8cpp.html" target="_top" xlink:title=" ">
<polygon fill="white" stroke="black" points="634.5,-140 634.5,-159 763.5,-159 763.5,-140 634.5,-140"/>
<text text-anchor="middle" x="699" y="-147" font-family="Helvetica,sans-Serif" font-size="10.00">src/f/f_pc/f_pc_pause.cpp</text>
</a>
</g>
</g>
<!-- Node1&#45;&gt;Node5 -->
<g id="edge4" class="edge">
<title>Node1&#45;&gt;Node5</title>
<path fill="none" stroke="midnightblue" d="M557.78,-275.73C610.64,-268.28 682.59,-254.32 700,-232 716.71,-210.58 707.79,-175.44 702.29,-159.22"/>
<polygon fill="midnightblue" stroke="midnightblue" points="557.25,-272.27 547.81,-277.09 558.19,-279.2 557.25,-272.27"/>
</g>
<!-- Node6 -->
<g id="node6" class="node">
<title>Node6</title>
<g id="a_node6"><a xlink:href="f__pc__stdcreate__req_8cpp.html" target="_top" xlink:title=" ">
<polygon fill="white" stroke="black" points="565.5,-201.5 565.5,-231.5 690.5,-231.5 690.5,-201.5 565.5,-201.5"/>
<text text-anchor="start" x="573.5" y="-219.5" font-family="Helvetica,sans-Serif" font-size="10.00">src/f/f_pc/f_pc_stdcreate</text>
<text text-anchor="middle" x="628" y="-208.5" font-family="Helvetica,sans-Serif" font-size="10.00">_req.cpp</text>
</a>
</g>
</g>
<!-- Node1&#45;&gt;Node6 -->
<g id="edge5" class="edge">
<title>Node1&#45;&gt;Node6</title>
<path fill="none" stroke="midnightblue" d="M536.01,-263.85C556.4,-253.58 581.31,-241.03 600.06,-231.58"/>
<polygon fill="midnightblue" stroke="midnightblue" points="534.35,-260.77 526.99,-268.4 537.5,-267.02 534.35,-260.77"/>
</g>
<!-- Node7 -->
<g id="node7" class="node">
<title>Node7</title>
<g id="a_node7"><a xlink:href="f__pc__node__req_8h.html" target="_top" xlink:title=" ">
<polygon fill="white" stroke="black" points="450.5,-201.5 450.5,-231.5 547.5,-231.5 547.5,-201.5 450.5,-201.5"/>
<text text-anchor="start" x="458.5" y="-219.5" font-family="Helvetica,sans-Serif" font-size="10.00">include/f/f_pc/f_pc</text>
<text text-anchor="middle" x="499" y="-208.5" font-family="Helvetica,sans-Serif" font-size="10.00">_node_req.h</text>
</a>
</g>
</g>
<!-- Node1&#45;&gt;Node7 -->
<g id="edge6" class="edge">
<title>Node1&#45;&gt;Node7</title>
<path fill="none" stroke="midnightblue" d="M499,-258.11C499,-249.15 499,-239.32 499,-231.58"/>
<polygon fill="midnightblue" stroke="midnightblue" points="495.5,-258.4 499,-268.4 502.5,-258.4 495.5,-258.4"/>
</g>
<!-- Node21 -->
<g id="node21" class="node">
<title>Node21</title>
<g id="a_node21"><a xlink:href="f__pc__pause_8h.html" target="_top" xlink:title=" ">
<polygon fill="white" stroke="black" points="747.5,-201.5 747.5,-231.5 844.5,-231.5 844.5,-201.5 747.5,-201.5"/>
<text text-anchor="start" x="755.5" y="-219.5" font-family="Helvetica,sans-Serif" font-size="10.00">include/f/f_pc/f_pc</text>
<text text-anchor="middle" x="796" y="-208.5" font-family="Helvetica,sans-Serif" font-size="10.00">_pause.h</text>
</a>
</g>
</g>
<!-- Node1&#45;&gt;Node21 -->
<g id="edge22" class="edge">
<title>Node1&#45;&gt;Node21</title>
<path fill="none" stroke="midnightblue" d="M557.97,-270.01C605.31,-259.92 673.48,-245.27 733,-232 737.6,-230.97 742.39,-229.89 747.18,-228.81"/>
<polygon fill="midnightblue" stroke="midnightblue" points="556.95,-266.65 547.89,-272.15 558.4,-273.49 556.95,-266.65"/>
</g>
<!-- Node8 -->
<g id="node8" class="node">
<title>Node8</title>
<g id="a_node8"><a xlink:href="f__pc__manager_8cpp.html" target="_top" xlink:title=" ">
<polygon fill="white" stroke="black" points="714,-73 714,-92 854,-92 854,-73 714,-73"/>
<text text-anchor="middle" x="784" y="-80" font-family="Helvetica,sans-Serif" font-size="10.00">src/f/f_pc/f_pc_manager.cpp</text>
</a>
</g>
</g>
<!-- Node7&#45;&gt;Node8 -->
<g id="edge7" class="edge">
<title>Node7&#45;&gt;Node8</title>
<path fill="none" stroke="midnightblue" d="M528.07,-195.59C559.08,-174.57 606.39,-143.23 626,-134 666.39,-114.99 715.79,-100.49 748.48,-92"/>
<polygon fill="midnightblue" stroke="midnightblue" points="526.09,-192.7 519.79,-201.21 530.03,-198.49 526.09,-192.7"/>
</g>
<!-- Node9 -->
<g id="node9" class="node">
<title>Node9</title>
<g id="a_node9"><a xlink:href="f__pc__node__req_8cpp.html" target="_top" xlink:title=" ">
<polygon fill="white" stroke="black" points="344,-134.5 344,-164.5 450,-164.5 450,-134.5 344,-134.5"/>
<text text-anchor="start" x="352" y="-152.5" font-family="Helvetica,sans-Serif" font-size="10.00">src/f/f_pc/f_pc_node</text>
<text text-anchor="middle" x="397" y="-141.5" font-family="Helvetica,sans-Serif" font-size="10.00">_req.cpp</text>
</a>
</g>
</g>
<!-- Node7&#45;&gt;Node9 -->
<g id="edge8" class="edge">
<title>Node7&#45;&gt;Node9</title>
<path fill="none" stroke="midnightblue" d="M468.42,-196.02C452.55,-185.9 433.52,-173.77 419.09,-164.58"/>
<polygon fill="midnightblue" stroke="midnightblue" points="466.55,-198.97 476.87,-201.4 470.32,-193.07 466.55,-198.97"/>
</g>
<!-- Node10 -->
<g id="node10" class="node">
<title>Node10</title>
<g id="a_node10"><a xlink:href="f__pc__manager_8h.html" target="_top" xlink:title=" ">
<polygon fill="white" stroke="black" points="467.5,-134.5 467.5,-164.5 564.5,-164.5 564.5,-134.5 467.5,-134.5"/>
<text text-anchor="start" x="475.5" y="-152.5" font-family="Helvetica,sans-Serif" font-size="10.00">include/f/f_pc/f_pc</text>
<text text-anchor="middle" x="516" y="-141.5" font-family="Helvetica,sans-Serif" font-size="10.00">_manager.h</text>
</a>
</g>
</g>
<!-- Node7&#45;&gt;Node10 -->
<g id="edge9" class="edge">
<title>Node7&#45;&gt;Node10</title>
<path fill="none" stroke="midnightblue" d="M505.23,-191.7C507.61,-182.59 510.25,-172.49 512.32,-164.58"/>
<polygon fill="midnightblue" stroke="midnightblue" points="501.83,-190.84 502.69,-201.4 508.61,-192.61 501.83,-190.84"/>
</g>
<!-- Node10&#45;&gt;Node8 -->
<g id="edge14" class="edge">
<title>Node10&#45;&gt;Node8</title>
<path fill="none" stroke="midnightblue" d="M574.5,-134.31C627.64,-121.42 704.31,-102.83 748.65,-92.07"/>
<polygon fill="midnightblue" stroke="midnightblue" points="573.43,-130.97 564.53,-136.73 575.08,-137.77 573.43,-130.97"/>
</g>
<!-- Node11 -->
<g id="node11" class="node">
<title>Node11</title>
<g id="a_node11"><a xlink:href="f__ap__game_8cpp.html" target="_top" xlink:title=" ">
<polygon fill="white" stroke="black" points="173.5,-73 173.5,-92 278.5,-92 278.5,-73 173.5,-73"/>
<text text-anchor="middle" x="226" y="-80" font-family="Helvetica,sans-Serif" font-size="10.00">src/f/f_ap_game.cpp</text>
</a>
</g>
</g>
<!-- Node10&#45;&gt;Node11 -->
<g id="edge10" class="edge">
<title>Node10&#45;&gt;Node11</title>
<path fill="none" stroke="midnightblue" d="M457.32,-133.74C424.33,-126.45 322.35,-104.36 265.3,-92.01"/>
<polygon fill="midnightblue" stroke="midnightblue" points="456.69,-137.19 467.21,-135.97 458.22,-130.36 456.69,-137.19"/>
</g>
<!-- Node12 -->
<g id="node12" class="node">
<title>Node12</title>
<g id="a_node12"><a xlink:href="d__a__alink_8cpp.html" target="_top" xlink:title=" ">
<polygon fill="white" stroke="black" points="247.5,-6 247.5,-25 366.5,-25 366.5,-6 247.5,-6"/>
<text text-anchor="middle" x="307" y="-13" font-family="Helvetica,sans-Serif" font-size="10.00">src/d/d_a/d_a_alink.cpp</text>
</a>
</g>
</g>
<!-- Node10&#45;&gt;Node12 -->
<g id="edge11" class="edge">
<title>Node10&#45;&gt;Node12</title>
<path fill="none" stroke="midnightblue" d="M457.74,-133.39C402.33,-118.97 327.2,-99.24 326,-98 306.48,-77.87 305.59,-41.77 306.34,-25.22"/>
<polygon fill="midnightblue" stroke="midnightblue" points="456.93,-136.8 467.49,-135.93 458.69,-130.02 456.93,-136.8"/>
</g>
<!-- Node13 -->
<g id="node13" class="node">
<title>Node13</title>
<g id="a_node13"><a xlink:href="f__op__overlap__req_8cpp.html" target="_top" xlink:title=" ">
<polygon fill="white" stroke="black" points="335,-67.5 335,-97.5 451,-97.5 451,-67.5 335,-67.5"/>
<text text-anchor="start" x="343" y="-85.5" font-family="Helvetica,sans-Serif" font-size="10.00">src/f/f_op/f_op_overlap</text>
<text text-anchor="middle" x="393" y="-74.5" font-family="Helvetica,sans-Serif" font-size="10.00">_req.cpp</text>
</a>
</g>
</g>
<!-- Node10&#45;&gt;Node13 -->
<g id="edge12" class="edge">
<title>Node10&#45;&gt;Node13</title>
<path fill="none" stroke="midnightblue" d="M480.45,-129.71C461.05,-119.46 437.44,-106.98 419.64,-97.58"/>
<polygon fill="midnightblue" stroke="midnightblue" points="478.83,-132.82 489.31,-134.4 482.1,-126.63 478.83,-132.82"/>
</g>
<!-- Node14 -->
<g id="node14" class="node">
<title>Node14</title>
<g id="a_node14"><a xlink:href="f__op__scene__pause_8cpp.html" target="_top" xlink:title=" ">
<polygon fill="white" stroke="black" points="469.5,-67.5 469.5,-97.5 580.5,-97.5 580.5,-67.5 469.5,-67.5"/>
<text text-anchor="start" x="477.5" y="-85.5" font-family="Helvetica,sans-Serif" font-size="10.00">src/f/f_op/f_op_scene</text>
<text text-anchor="middle" x="525" y="-74.5" font-family="Helvetica,sans-Serif" font-size="10.00">_pause.cpp</text>
</a>
</g>
</g>
<!-- Node10&#45;&gt;Node14 -->
<g id="edge13" class="edge">
<title>Node10&#45;&gt;Node14</title>
<path fill="none" stroke="midnightblue" d="M519.34,-124.4C520.59,-115.37 521.97,-105.41 523.05,-97.58"/>
<polygon fill="midnightblue" stroke="midnightblue" points="515.86,-124.01 517.95,-134.4 522.79,-124.97 515.86,-124.01"/>
</g>
<!-- Node15 -->
<g id="node15" class="node">
<title>Node15</title>
<g id="a_node15"><a xlink:href="f__op__actor__mng_8h.html" target="_top" xlink:title=" ">
<polygon fill="white" stroke="black" points="598.5,-67.5 598.5,-97.5 695.5,-97.5 695.5,-67.5 598.5,-67.5"/>
<text text-anchor="start" x="606.5" y="-85.5" font-family="Helvetica,sans-Serif" font-size="10.00">include/f/f_op/f_op</text>
<text text-anchor="middle" x="647" y="-74.5" font-family="Helvetica,sans-Serif" font-size="10.00">_actor_mng.h</text>
</a>
</g>
</g>
<!-- Node10&#45;&gt;Node15 -->
<g id="edge15" class="edge">
<title>Node10&#45;&gt;Node15</title>
<path fill="none" stroke="midnightblue" d="M553.58,-129.85C574.29,-119.58 599.59,-107.03 618.63,-97.58"/>
<polygon fill="midnightblue" stroke="midnightblue" points="551.83,-126.82 544.43,-134.4 554.94,-133.09 551.83,-126.82"/>
</g>
<!-- Node15&#45;&gt;Node12 -->
<g id="edge19" class="edge">
<title>Node15&#45;&gt;Node12</title>
<path fill="none" stroke="midnightblue" d="M588.27,-66.73C493.9,-47.19 467.62,-48.33 376,-31 366.38,-29.18 356.03,-27.08 346.35,-25.06"/>
<polygon fill="midnightblue" stroke="midnightblue" points="587.74,-70.19 598.24,-68.82 589.17,-63.34 587.74,-70.19"/>
</g>
<!-- Node16 -->
<g id="node16" class="node">
<title>Node16</title>
<g id="a_node16"><a xlink:href="d__attention_8cpp.html" target="_top" xlink:title=" ">
<polygon fill="white" stroke="black" points="891.5,-6 891.5,-25 998.5,-25 998.5,-6 891.5,-6"/>
<text text-anchor="middle" x="945" y="-13" font-family="Helvetica,sans-Serif" font-size="10.00">src/d/d_attention.cpp</text>
</a>
</g>
</g>
<!-- Node15&#45;&gt;Node16 -->
<g id="edge16" class="edge">
<title>Node15&#45;&gt;Node16</title>
<path fill="none" stroke="midnightblue" d="M705.71,-66.9C785.41,-49.1 807.22,-47.52 883,-31 891.53,-29.14 900.7,-27.05 909.31,-25.04"/>
<polygon fill="midnightblue" stroke="midnightblue" points="704.68,-63.55 695.7,-69.16 706.22,-70.38 704.68,-63.55"/>
</g>
<!-- Node17 -->
<g id="node17" class="node">
<title>Node17</title>
<g id="a_node17"><a xlink:href="d__camera_8cpp.html" target="_top" xlink:title=" ">
<polygon fill="white" stroke="black" points="385,-6 385,-25 487,-25 487,-6 385,-6"/>
<text text-anchor="middle" x="436" y="-13" font-family="Helvetica,sans-Serif" font-size="10.00">src/d/d_camera.cpp</text>
</a>
</g>
</g>
<!-- Node15&#45;&gt;Node17 -->
<g id="edge17" class="edge">
<title>Node15&#45;&gt;Node17</title>
<path fill="none" stroke="midnightblue" d="M591.85,-64.51C550.67,-51.83 496.12,-35.02 463.69,-25.03"/>
<polygon fill="midnightblue" stroke="midnightblue" points="590.89,-67.88 601.48,-67.48 592.95,-61.19 590.89,-67.88"/>
</g>
<!-- Node18 -->
<g id="node18" class="node">
<title>Node18</title>
<g id="a_node18"><a xlink:href="d__stage_8cpp.html" target="_top" xlink:title=" ">
<polygon fill="white" stroke="black" points="505,-6 505,-25 599,-25 599,-6 505,-6"/>
<text text-anchor="middle" x="552" y="-13" font-family="Helvetica,sans-Serif" font-size="10.00">src/d/d_stage.cpp</text>
</a>
</g>
</g>
<!-- Node15&#45;&gt;Node18 -->
<g id="edge18" class="edge">
<title>Node15&#45;&gt;Node18</title>
<path fill="none" stroke="midnightblue" d="M617.98,-61.64C600.05,-49.37 577.96,-34.26 564.43,-25.01"/>
<polygon fill="midnightblue" stroke="midnightblue" points="616.16,-64.64 626.39,-67.4 620.11,-58.86 616.16,-64.64"/>
</g>
<!-- Node19 -->
<g id="node19" class="node">
<title>Node19</title>
<g id="a_node19"><a xlink:href="f__op__actor__mng_8cpp.html" target="_top" xlink:title=" ">
<polygon fill="white" stroke="black" points="617.5,-0.5 617.5,-30.5 724.5,-30.5 724.5,-0.5 617.5,-0.5"/>
<text text-anchor="start" x="625.5" y="-18.5" font-family="Helvetica,sans-Serif" font-size="10.00">src/f/f_op/f_op_actor</text>
<text text-anchor="middle" x="671" y="-7.5" font-family="Helvetica,sans-Serif" font-size="10.00">_mng.cpp</text>
</a>
</g>
</g>
<!-- Node15&#45;&gt;Node19 -->
<g id="edge20" class="edge">
<title>Node15&#45;&gt;Node19</title>
<path fill="none" stroke="midnightblue" d="M655.68,-57.99C659.07,-48.8 662.85,-38.58 665.8,-30.58"/>
<polygon fill="midnightblue" stroke="midnightblue" points="652.39,-56.8 652.21,-67.4 658.95,-59.23 652.39,-56.8"/>
</g>
<!-- Node20 -->
<g id="node20" class="node">
<title>Node20</title>
<g id="a_node20"><a xlink:href="m__Do__main_8cpp.html" target="_top" xlink:title=" ">
<polygon fill="white" stroke="black" points="742.5,-6 742.5,-25 873.5,-25 873.5,-6 742.5,-6"/>
<text text-anchor="middle" x="808" y="-13" font-family="Helvetica,sans-Serif" font-size="10.00">src/m_Do/m_Do_main.cpp</text>
</a>
</g>
</g>
<!-- Node15&#45;&gt;Node20 -->
<g id="edge21" class="edge">
<title>Node15&#45;&gt;Node20</title>
<path fill="none" stroke="midnightblue" d="M691.28,-63.62C722.45,-51.04 762.76,-34.77 786.93,-25.01"/>
<polygon fill="midnightblue" stroke="midnightblue" points="689.9,-60.41 681.93,-67.4 692.52,-66.9 689.9,-60.41"/>
</g>
<!-- Node21&#45;&gt;Node5 -->
<g id="edge26" class="edge">
<title>Node21&#45;&gt;Node5</title>
<path fill="none" stroke="midnightblue" d="M766.36,-195.64C748.06,-183.37 725.51,-168.26 711.7,-159.01"/>
<polygon fill="midnightblue" stroke="midnightblue" points="764.7,-198.74 774.95,-201.4 768.59,-192.92 764.7,-198.74"/>
</g>
<!-- Node21&#45;&gt;Node8 -->
<g id="edge25" class="edge">
<title>Node21&#45;&gt;Node8</title>
<path fill="none" stroke="midnightblue" d="M793.8,-191.32C791.08,-161.38 786.58,-111.91 784.78,-92.1"/>
<polygon fill="midnightblue" stroke="midnightblue" points="790.32,-191.73 794.72,-201.37 797.3,-191.1 790.32,-191.73"/>
</g>
<!-- Node22 -->
<g id="node22" class="node">
<title>Node22</title>
<g id="a_node22"><a xlink:href="f__pc__base_8cpp.html" target="_top" xlink:title=" ">
<polygon fill="white" stroke="black" points="820,-140 820,-159 944,-159 944,-140 820,-140"/>
<text text-anchor="middle" x="882" y="-147" font-family="Helvetica,sans-Serif" font-size="10.00">src/f/f_pc/f_pc_base.cpp</text>
</a>
</g>
</g>
<!-- Node21&#45;&gt;Node22 -->
<g id="edge23" class="edge">
<title>Node21&#45;&gt;Node22</title>
<path fill="none" stroke="midnightblue" d="M822.67,-195.34C838.72,-183.21 858.33,-168.39 870.5,-159.19"/>
<polygon fill="midnightblue" stroke="midnightblue" points="820.53,-192.57 814.66,-201.4 824.75,-198.16 820.53,-192.57"/>
</g>
<!-- Node23 -->
<g id="node23" class="node">
<title>Node23</title>
<g id="a_node23"><a xlink:href="f__pc__draw_8cpp.html" target="_top" xlink:title=" ">
<polygon fill="white" stroke="black" points="962,-140 962,-159 1086,-159 1086,-140 962,-140"/>
<text text-anchor="middle" x="1024" y="-147" font-family="Helvetica,sans-Serif" font-size="10.00">src/f/f_pc/f_pc_draw.cpp</text>
</a>
</g>
</g>
<!-- Node21&#45;&gt;Node23 -->
<g id="edge24" class="edge">
<title>Node21&#45;&gt;Node23</title>
<path fill="none" stroke="midnightblue" d="M854.47,-198.83C899.03,-186.13 958.56,-169.16 993.93,-159.07"/>
<polygon fill="midnightblue" stroke="midnightblue" points="853.29,-195.53 844.63,-201.64 855.21,-202.26 853.29,-195.53"/>
</g>
</g>
</svg>
