<?xml version="1.0" encoding="UTF-8" standalone="no"?>
<!DOCTYPE svg PUBLIC "-//W3C//DTD SVG 1.1//EN"
 "http://www.w3.org/Graphics/SVG/1.1/DTD/svg11.dtd">
<!-- Generated by graphviz version 2.46.1 (20210215.1649)
 -->
<!-- Title: include/f/f_pc/f_pc_leaf.h Pages: 1 -->
<svg width="615pt" height="229pt"
 viewBox="0.00 0.00 615.46 229.00" xmlns="http://www.w3.org/2000/svg" xmlns:xlink="http://www.w3.org/1999/xlink">
<g id="graph0" class="graph" transform="scale(1 1) rotate(0) translate(4 225)">
<title>include/f/f_pc/f_pc_leaf.h</title>
<polygon fill="white" stroke="transparent" points="-4,4 -4,-225 611.46,-225 611.46,4 -4,4"/>
<!-- Node1 -->
<g id="node1" class="node">
<title>Node1</title>
<g id="a_node1"><a xlink:title=" ">
<polygon fill="#bfbfbf" stroke="black" points="80.46,-190.5 80.46,-220.5 177.46,-220.5 177.46,-190.5 80.46,-190.5"/>
<text text-anchor="start" x="88.46" y="-208.5" font-family="Helvetica,sans-Serif" font-size="10.00">include/f/f_pc/f_pc</text>
<text text-anchor="middle" x="128.96" y="-197.5" font-family="Helvetica,sans-Serif" font-size="10.00">_leaf.h</text>
</a>
</g>
</g>
<!-- Node2 -->
<g id="node2" class="node">
<title>Node2</title>
<g id="a_node2"><a xlink:href="f__op__camera_8cpp.html" target="_top" xlink:title=" ">
<polygon fill="white" stroke="black" points="207.46,-0.5 207.46,-19.5 342.46,-19.5 342.46,-0.5 207.46,-0.5"/>
<text text-anchor="middle" x="274.96" y="-7.5" font-family="Helvetica,sans-Serif" font-size="10.00">src/f/f_op/f_op_camera.cpp</text>
</a>
</g>
</g>
<!-- Node1&#45;&gt;Node2 -->
<g id="edge1" class="edge">
<title>Node1&#45;&gt;Node2</title>
<path fill="none" stroke="midnightblue" d="M94.13,-185.16C46.91,-156.54 -27.35,-101.39 10.96,-56 35.63,-26.78 137.6,-16.53 207.35,-12.94"/>
<polygon fill="midnightblue" stroke="midnightblue" points="92.49,-188.26 102.88,-190.36 96.07,-182.24 92.49,-188.26"/>
</g>
<!-- Node3 -->
<g id="node3" class="node">
<title>Node3</title>
<g id="a_node3"><a xlink:href="f__pc__leaf_8cpp.html" target="_top" xlink:title=" ">
<polygon fill="white" stroke="black" points="69.46,-129 69.46,-148 188.46,-148 188.46,-129 69.46,-129"/>
<text text-anchor="middle" x="128.96" y="-136" font-family="Helvetica,sans-Serif" font-size="10.00">src/f/f_pc/f_pc_leaf.cpp</text>
</a>
</g>
</g>
<!-- Node1&#45;&gt;Node3 -->
<g id="edge2" class="edge">
<title>Node1&#45;&gt;Node3</title>
<path fill="none" stroke="midnightblue" d="M128.96,-180.25C128.96,-169.02 128.96,-156.38 128.96,-148.19"/>
<polygon fill="midnightblue" stroke="midnightblue" points="125.46,-180.4 128.96,-190.4 132.46,-180.4 125.46,-180.4"/>
</g>
<!-- Node4 -->
<g id="node4" class="node">
<title>Node4</title>
<g id="a_node4"><a xlink:href="f__op__camera__mng_8h.html" target="_top" xlink:title=" ">
<polygon fill="white" stroke="black" points="231.46,-123.5 231.46,-153.5 328.46,-153.5 328.46,-123.5 231.46,-123.5"/>
<text text-anchor="start" x="239.46" y="-141.5" font-family="Helvetica,sans-Serif" font-size="10.00">include/f/f_op/f_op</text>
<text text-anchor="middle" x="279.96" y="-130.5" font-family="Helvetica,sans-Serif" font-size="10.00">_camera_mng.h</text>
</a>
</g>
</g>
<!-- Node1&#45;&gt;Node4 -->
<g id="edge3" class="edge">
<title>Node1&#45;&gt;Node4</title>
<path fill="none" stroke="midnightblue" d="M171,-186.41C195.1,-176.03 224.92,-163.2 247.26,-153.58"/>
<polygon fill="midnightblue" stroke="midnightblue" points="169.53,-183.23 161.73,-190.4 172.3,-189.66 169.53,-183.23"/>
</g>
<!-- Node5 -->
<g id="node5" class="node">
<title>Node5</title>
<g id="a_node5"><a xlink:href="d__camera_8cpp.html" target="_top" xlink:title=" ">
<polygon fill="white" stroke="black" points="19.96,-62 19.96,-81 121.96,-81 121.96,-62 19.96,-62"/>
<text text-anchor="middle" x="70.96" y="-69" font-family="Helvetica,sans-Serif" font-size="10.00">src/d/d_camera.cpp</text>
</a>
</g>
</g>
<!-- Node4&#45;&gt;Node5 -->
<g id="edge4" class="edge">
<title>Node4&#45;&gt;Node5</title>
<path fill="none" stroke="midnightblue" d="M225.08,-120.43C184.32,-107.75 130.45,-91 98.39,-81.03"/>
<polygon fill="midnightblue" stroke="midnightblue" points="224.28,-123.85 234.87,-123.48 226.36,-117.16 224.28,-123.85"/>
</g>
<!-- Node6 -->
<g id="node6" class="node">
<title>Node6</title>
<g id="a_node6"><a xlink:href="d__stage_8cpp.html" target="_top" xlink:title=" ">
<polygon fill="white" stroke="black" points="139.96,-62 139.96,-81 233.96,-81 233.96,-62 139.96,-62"/>
<text text-anchor="middle" x="186.96" y="-69" font-family="Helvetica,sans-Serif" font-size="10.00">src/d/d_stage.cpp</text>
</a>
</g>
</g>
<!-- Node4&#45;&gt;Node6 -->
<g id="edge5" class="edge">
<title>Node4&#45;&gt;Node6</title>
<path fill="none" stroke="midnightblue" d="M251.55,-117.64C234,-105.37 212.38,-90.26 199.13,-81.01"/>
<polygon fill="midnightblue" stroke="midnightblue" points="249.58,-120.54 259.78,-123.4 253.59,-114.8 249.58,-120.54"/>
</g>
<!-- Node7 -->
<g id="node7" class="node">
<title>Node7</title>
<g id="a_node7"><a xlink:href="f__ap__game_8cpp.html" target="_top" xlink:title=" ">
<polygon fill="white" stroke="black" points="252.46,-62 252.46,-81 357.46,-81 357.46,-62 252.46,-62"/>
<text text-anchor="middle" x="304.96" y="-69" font-family="Helvetica,sans-Serif" font-size="10.00">src/f/f_ap_game.cpp</text>
</a>
</g>
</g>
<!-- Node4&#45;&gt;Node7 -->
<g id="edge6" class="edge">
<title>Node4&#45;&gt;Node7</title>
<path fill="none" stroke="midnightblue" d="M289.02,-113.94C293.41,-102.54 298.41,-89.55 301.62,-81.19"/>
<polygon fill="midnightblue" stroke="midnightblue" points="285.71,-112.81 285.39,-123.4 292.24,-115.32 285.71,-112.81"/>
</g>
<!-- Node8 -->
<g id="node8" class="node">
<title>Node8</title>
<g id="a_node8"><a xlink:href="f__op__camera__mng_8cpp.html" target="_top" xlink:title=" ">
<polygon fill="white" stroke="black" points="375.46,-56.5 375.46,-86.5 492.46,-86.5 492.46,-56.5 375.46,-56.5"/>
<text text-anchor="start" x="383.46" y="-74.5" font-family="Helvetica,sans-Serif" font-size="10.00">src/f/f_op/f_op_camera</text>
<text text-anchor="middle" x="433.96" y="-63.5" font-family="Helvetica,sans-Serif" font-size="10.00">_mng.cpp</text>
</a>
</g>
</g>
<!-- Node4&#45;&gt;Node8 -->
<g id="edge7" class="edge">
<title>Node4&#45;&gt;Node8</title>
<path fill="none" stroke="midnightblue" d="M322.83,-119.41C347.42,-109.03 377.82,-96.2 400.61,-86.58"/>
<polygon fill="midnightblue" stroke="midnightblue" points="321.23,-116.28 313.38,-123.4 323.95,-122.73 321.23,-116.28"/>
</g>
<!-- Node9 -->
<g id="node9" class="node">
<title>Node9</title>
<g id="a_node9"><a xlink:href="f__op__camera_8h.html" target="_top" xlink:title=" ">
<polygon fill="white" stroke="black" points="510.46,-56.5 510.46,-86.5 607.46,-86.5 607.46,-56.5 510.46,-56.5"/>
<text text-anchor="start" x="518.46" y="-74.5" font-family="Helvetica,sans-Serif" font-size="10.00">include/f/f_op/f_op</text>
<text text-anchor="middle" x="558.96" y="-63.5" font-family="Helvetica,sans-Serif" font-size="10.00">_camera.h</text>
</a>
</g>
</g>
<!-- Node4&#45;&gt;Node9 -->
<g id="edge8" class="edge">
<title>Node4&#45;&gt;Node9</title>
<path fill="none" stroke="midnightblue" d="M338.39,-124.63C383.21,-114.66 446.59,-100.34 501.96,-87 504.64,-86.35 507.39,-85.68 510.17,-85"/>
<polygon fill="midnightblue" stroke="midnightblue" points="337.55,-121.24 328.55,-126.82 339.07,-128.07 337.55,-121.24"/>
</g>
<!-- Node9&#45;&gt;Node2 -->
<g id="edge9" class="edge">
<title>Node9&#45;&gt;Node2</title>
<path fill="none" stroke="midnightblue" d="M500.31,-55.69C433.36,-40.71 365.93,-27.74 322.07,-19.58"/>
<polygon fill="midnightblue" stroke="midnightblue" points="499.66,-59.13 510.19,-57.91 501.2,-52.3 499.66,-59.13"/>
</g>
</g>
</svg>
