<?xml version="1.0" encoding="UTF-8" standalone="no"?>
<!DOCTYPE svg PUBLIC "-//W3C//DTD SVG 1.1//EN"
 "http://www.w3.org/Graphics/SVG/1.1/DTD/svg11.dtd">
<!-- Generated by graphviz version 2.47.0 (20210316.2052)
 -->
<!-- Title: include/f/f_pc/f_pc_create_tag.h Pages: 1 -->
<svg width="1527pt" height="307pt"
 viewBox="0.00 0.00 1527.00 307.00" xmlns="http://www.w3.org/2000/svg" xmlns:xlink="http://www.w3.org/1999/xlink">
<g id="graph0" class="graph" transform="scale(1 1) rotate(0) translate(4 303)">
<title>include/f/f_pc/f_pc_create_tag.h</title>
<polygon fill="white" stroke="transparent" points="-4,4 -4,-303 1523,-303 1523,4 -4,4"/>
<!-- Node1 -->
<g id="node1" class="node">
<title>Node1</title>
<g id="a_node1"><a xlink:title=" ">
<polygon fill="#bfbfbf" stroke="black" points="410.5,-268.5 410.5,-298.5 507.5,-298.5 507.5,-268.5 410.5,-268.5"/>
<text text-anchor="start" x="418.5" y="-286.5" font-family="Helvetica,sans-Serif" font-size="10.00">include/f/f_pc/f_pc</text>
<text text-anchor="middle" x="459" y="-275.5" font-family="Helvetica,sans-Serif" font-size="10.00">_create_tag.h</text>
</a>
</g>
</g>
<!-- Node2 -->
<g id="node2" class="node">
<title>Node2</title>
<g id="a_node2"><a xlink:href="f__pc__create__tag_8cpp.html" target="_top" xlink:title=" ">
<polygon fill="white" stroke="black" points="281,-201.5 281,-231.5 393,-231.5 393,-201.5 281,-201.5"/>
<text text-anchor="start" x="289" y="-219.5" font-family="Helvetica,sans-Serif" font-size="10.00">src/f/f_pc/f_pc_create</text>
<text text-anchor="middle" x="337" y="-208.5" font-family="Helvetica,sans-Serif" font-size="10.00">_tag.cpp</text>
</a>
</g>
</g>
<!-- Node1&#45;&gt;Node2 -->
<g id="edge1" class="edge">
<title>Node1&#45;&gt;Node2</title>
<path fill="none" stroke="midnightblue" d="M423.48,-263.57C404.29,-253.35 381,-240.94 363.42,-231.58"/>
<polygon fill="midnightblue" stroke="midnightblue" points="422.06,-266.78 432.53,-268.4 425.35,-260.6 422.06,-266.78"/>
</g>
<!-- Node3 -->
<g id="node3" class="node">
<title>Node3</title>
<g id="a_node3"><a xlink:href="f__pc__create__iter_8h.html" target="_top" xlink:title=" ">
<polygon fill="white" stroke="black" points="410.5,-201.5 410.5,-231.5 507.5,-231.5 507.5,-201.5 410.5,-201.5"/>
<text text-anchor="start" x="418.5" y="-219.5" font-family="Helvetica,sans-Serif" font-size="10.00">include/f/f_pc/f_pc</text>
<text text-anchor="middle" x="459" y="-208.5" font-family="Helvetica,sans-Serif" font-size="10.00">_create_iter.h</text>
</a>
</g>
</g>
<!-- Node1&#45;&gt;Node3 -->
<g id="edge2" class="edge">
<title>Node1&#45;&gt;Node3</title>
<path fill="none" stroke="midnightblue" d="M459,-258.11C459,-249.15 459,-239.32 459,-231.58"/>
<polygon fill="midnightblue" stroke="midnightblue" points="455.5,-258.4 459,-268.4 462.5,-258.4 455.5,-258.4"/>
</g>
<!-- Node19 -->
<g id="node19" class="node">
<title>Node19</title>
<g id="a_node19"><a xlink:href="f__pc__create__req_8h.html" target="_top" xlink:title=" ">
<polygon fill="white" stroke="black" points="747.5,-201.5 747.5,-231.5 844.5,-231.5 844.5,-201.5 747.5,-201.5"/>
<text text-anchor="start" x="755.5" y="-219.5" font-family="Helvetica,sans-Serif" font-size="10.00">include/f/f_pc/f_pc</text>
<text text-anchor="middle" x="796" y="-208.5" font-family="Helvetica,sans-Serif" font-size="10.00">_create_req.h</text>
</a>
</g>
</g>
<!-- Node1&#45;&gt;Node19 -->
<g id="edge20" class="edge">
<title>Node1&#45;&gt;Node19</title>
<path fill="none" stroke="midnightblue" d="M517.75,-271.17C582.85,-258.61 686.65,-238.59 747.37,-226.88"/>
<polygon fill="midnightblue" stroke="midnightblue" points="516.8,-267.79 507.64,-273.12 518.12,-274.66 516.8,-267.79"/>
</g>
<!-- Node4 -->
<g id="node4" class="node">
<title>Node4</title>
<g id="a_node4"><a xlink:href="f__pc__create__iter_8cpp.html" target="_top" xlink:title=" ">
<polygon fill="white" stroke="black" points="403,-134.5 403,-164.5 515,-164.5 515,-134.5 403,-134.5"/>
<text text-anchor="start" x="411" y="-152.5" font-family="Helvetica,sans-Serif" font-size="10.00">src/f/f_pc/f_pc_create</text>
<text text-anchor="middle" x="459" y="-141.5" font-family="Helvetica,sans-Serif" font-size="10.00">_iter.cpp</text>
</a>
</g>
</g>
<!-- Node3&#45;&gt;Node4 -->
<g id="edge3" class="edge">
<title>Node3&#45;&gt;Node4</title>
<path fill="none" stroke="midnightblue" d="M459,-191.11C459,-182.15 459,-172.32 459,-164.58"/>
<polygon fill="midnightblue" stroke="midnightblue" points="455.5,-191.4 459,-201.4 462.5,-191.4 455.5,-191.4"/>
</g>
<!-- Node5 -->
<g id="node5" class="node">
<title>Node5</title>
<g id="a_node5"><a xlink:href="f__pc__create__req_8cpp.html" target="_top" xlink:title=" ">
<polygon fill="white" stroke="black" points="533,-134.5 533,-164.5 645,-164.5 645,-134.5 533,-134.5"/>
<text text-anchor="start" x="541" y="-152.5" font-family="Helvetica,sans-Serif" font-size="10.00">src/f/f_pc/f_pc_create</text>
<text text-anchor="middle" x="589" y="-141.5" font-family="Helvetica,sans-Serif" font-size="10.00">_req.cpp</text>
</a>
</g>
</g>
<!-- Node3&#45;&gt;Node5 -->
<g id="edge4" class="edge">
<title>Node3&#45;&gt;Node5</title>
<path fill="none" stroke="midnightblue" d="M496.29,-196.85C516.85,-186.58 541.95,-174.03 560.85,-164.58"/>
<polygon fill="midnightblue" stroke="midnightblue" points="494.59,-193.79 487.21,-201.4 497.72,-200.05 494.59,-193.79"/>
</g>
<!-- Node6 -->
<g id="node6" class="node">
<title>Node6</title>
<g id="a_node6"><a xlink:href="f__pc__manager_8cpp.html" target="_top" xlink:title=" ">
<polygon fill="white" stroke="black" points="0,-73 0,-92 140,-92 140,-73 0,-73"/>
<text text-anchor="middle" x="70" y="-80" font-family="Helvetica,sans-Serif" font-size="10.00">src/f/f_pc/f_pc_manager.cpp</text>
</a>
</g>
</g>
<!-- Node3&#45;&gt;Node6 -->
<g id="edge5" class="edge">
<title>Node3&#45;&gt;Node6</title>
<path fill="none" stroke="midnightblue" d="M400.41,-199.73C356.95,-187.91 301.49,-172.52 279,-165 208.45,-141.41 126.83,-107.65 89.94,-92.03"/>
<polygon fill="midnightblue" stroke="midnightblue" points="399.76,-203.18 410.33,-202.42 401.6,-196.43 399.76,-203.18"/>
</g>
<!-- Node7 -->
<g id="node7" class="node">
<title>Node7</title>
<g id="a_node7"><a xlink:href="f__pc__manager_8h.html" target="_top" xlink:title=" ">
<polygon fill="white" stroke="black" points="288.5,-134.5 288.5,-164.5 385.5,-164.5 385.5,-134.5 288.5,-134.5"/>
<text text-anchor="start" x="296.5" y="-152.5" font-family="Helvetica,sans-Serif" font-size="10.00">include/f/f_pc/f_pc</text>
<text text-anchor="middle" x="337" y="-141.5" font-family="Helvetica,sans-Serif" font-size="10.00">_manager.h</text>
</a>
</g>
</g>
<!-- Node3&#45;&gt;Node7 -->
<g id="edge6" class="edge">
<title>Node3&#45;&gt;Node7</title>
<path fill="none" stroke="midnightblue" d="M423.48,-196.57C404.29,-186.35 381,-173.94 363.42,-164.58"/>
<polygon fill="midnightblue" stroke="midnightblue" points="422.06,-199.78 432.53,-201.4 425.35,-193.6 422.06,-199.78"/>
</g>
<!-- Node7&#45;&gt;Node6 -->
<g id="edge12" class="edge">
<title>Node7&#45;&gt;Node6</title>
<path fill="none" stroke="midnightblue" d="M278.4,-134.23C225.43,-121.34 149.21,-102.78 105.13,-92.05"/>
<polygon fill="midnightblue" stroke="midnightblue" points="277.79,-137.69 288.34,-136.65 279.45,-130.89 277.79,-137.69"/>
</g>
<!-- Node8 -->
<g id="node8" class="node">
<title>Node8</title>
<g id="a_node8"><a xlink:href="f__ap__game_8cpp.html" target="_top" xlink:title=" ">
<polygon fill="white" stroke="black" points="158.5,-73 158.5,-92 263.5,-92 263.5,-73 158.5,-73"/>
<text text-anchor="middle" x="211" y="-80" font-family="Helvetica,sans-Serif" font-size="10.00">src/f/f_ap_game.cpp</text>
</a>
</g>
</g>
<!-- Node7&#45;&gt;Node8 -->
<g id="edge7" class="edge">
<title>Node7&#45;&gt;Node8</title>
<path fill="none" stroke="midnightblue" d="M300.76,-129.8C276.6,-117.34 246,-101.56 227.49,-92.01"/>
<polygon fill="midnightblue" stroke="midnightblue" points="299.17,-132.92 309.66,-134.4 302.38,-126.7 299.17,-132.92"/>
</g>
<!-- Node9 -->
<g id="node9" class="node">
<title>Node9</title>
<g id="a_node9"><a xlink:href="d__a__alink_8cpp.html" target="_top" xlink:title=" ">
<polygon fill="white" stroke="black" points="336.5,-6 336.5,-25 455.5,-25 455.5,-6 336.5,-6"/>
<text text-anchor="middle" x="396" y="-13" font-family="Helvetica,sans-Serif" font-size="10.00">src/d/d_a/d_a_alink.cpp</text>
</a>
</g>
</g>
<!-- Node7&#45;&gt;Node9 -->
<g id="edge8" class="edge">
<title>Node7&#45;&gt;Node9</title>
<path fill="none" stroke="midnightblue" d="M373.12,-128.8C384.15,-120.81 394.95,-110.48 401,-98 412.75,-73.76 404.3,-40.61 399.17,-25.13"/>
<polygon fill="midnightblue" stroke="midnightblue" points="371.07,-125.97 364.72,-134.46 374.98,-131.78 371.07,-125.97"/>
</g>
<!-- Node10 -->
<g id="node10" class="node">
<title>Node10</title>
<g id="a_node10"><a xlink:href="f__op__kankyo__mng_8cpp.html" target="_top" xlink:title=" ">
<polygon fill="white" stroke="black" points="705,-67.5 705,-97.5 821,-97.5 821,-67.5 705,-67.5"/>
<text text-anchor="start" x="713" y="-85.5" font-family="Helvetica,sans-Serif" font-size="10.00">src/f/f_op/f_op_kankyo</text>
<text text-anchor="middle" x="763" y="-74.5" font-family="Helvetica,sans-Serif" font-size="10.00">_mng.cpp</text>
</a>
</g>
</g>
<!-- Node7&#45;&gt;Node10 -->
<g id="edge9" class="edge">
<title>Node7&#45;&gt;Node10</title>
<path fill="none" stroke="midnightblue" d="M395.91,-133.79C529.15,-109.76 566.54,-120.03 697,-98 699.54,-97.57 702.14,-97.11 704.76,-96.62"/>
<polygon fill="midnightblue" stroke="midnightblue" points="394.93,-130.41 385.72,-135.66 396.19,-137.3 394.93,-130.41"/>
</g>
<!-- Node11 -->
<g id="node11" class="node">
<title>Node11</title>
<g id="a_node11"><a xlink:href="f__op__overlap__req_8cpp.html" target="_top" xlink:title=" ">
<polygon fill="white" stroke="black" points="839,-67.5 839,-97.5 955,-97.5 955,-67.5 839,-67.5"/>
<text text-anchor="start" x="847" y="-85.5" font-family="Helvetica,sans-Serif" font-size="10.00">src/f/f_op/f_op_overlap</text>
<text text-anchor="middle" x="897" y="-74.5" font-family="Helvetica,sans-Serif" font-size="10.00">_req.cpp</text>
</a>
</g>
</g>
<!-- Node7&#45;&gt;Node11 -->
<g id="edge10" class="edge">
<title>Node7&#45;&gt;Node11</title>
<path fill="none" stroke="midnightblue" d="M395.83,-133.87C587.59,-102.75 640.97,-126.14 830,-98 832.94,-97.56 835.95,-97.07 838.98,-96.54"/>
<polygon fill="midnightblue" stroke="midnightblue" points="395,-130.46 385.7,-135.54 396.14,-137.37 395,-130.46"/>
</g>
<!-- Node12 -->
<g id="node12" class="node">
<title>Node12</title>
<g id="a_node12"><a xlink:href="f__op__scene__pause_8cpp.html" target="_top" xlink:title=" ">
<polygon fill="white" stroke="black" points="281.5,-67.5 281.5,-97.5 392.5,-97.5 392.5,-67.5 281.5,-67.5"/>
<text text-anchor="start" x="289.5" y="-85.5" font-family="Helvetica,sans-Serif" font-size="10.00">src/f/f_op/f_op_scene</text>
<text text-anchor="middle" x="337" y="-74.5" font-family="Helvetica,sans-Serif" font-size="10.00">_pause.cpp</text>
</a>
</g>
</g>
<!-- Node7&#45;&gt;Node12 -->
<g id="edge11" class="edge">
<title>Node7&#45;&gt;Node12</title>
<path fill="none" stroke="midnightblue" d="M337,-124.11C337,-115.15 337,-105.32 337,-97.58"/>
<polygon fill="midnightblue" stroke="midnightblue" points="333.5,-124.4 337,-134.4 340.5,-124.4 333.5,-124.4"/>
</g>
<!-- Node13 -->
<g id="node13" class="node">
<title>Node13</title>
<g id="a_node13"><a xlink:href="f__op__actor__mng_8h.html" target="_top" xlink:title=" ">
<polygon fill="white" stroke="black" points="590.5,-67.5 590.5,-97.5 687.5,-97.5 687.5,-67.5 590.5,-67.5"/>
<text text-anchor="start" x="598.5" y="-85.5" font-family="Helvetica,sans-Serif" font-size="10.00">include/f/f_op/f_op</text>
<text text-anchor="middle" x="639" y="-74.5" font-family="Helvetica,sans-Serif" font-size="10.00">_actor_mng.h</text>
</a>
</g>
</g>
<!-- Node7&#45;&gt;Node13 -->
<g id="edge13" class="edge">
<title>Node7&#45;&gt;Node13</title>
<path fill="none" stroke="midnightblue" d="M395.65,-133.71C478.75,-115.55 502.04,-115.81 582,-98 584.69,-97.4 587.45,-96.77 590.23,-96.11"/>
<polygon fill="midnightblue" stroke="midnightblue" points="394.78,-130.31 385.77,-135.89 396.29,-137.15 394.78,-130.31"/>
</g>
<!-- Node13&#45;&gt;Node9 -->
<g id="edge17" class="edge">
<title>Node13&#45;&gt;Node9</title>
<path fill="none" stroke="midnightblue" d="M580.47,-65.84C532.55,-53.02 466.55,-35.37 427.87,-25.02"/>
<polygon fill="midnightblue" stroke="midnightblue" points="579.84,-69.3 590.41,-68.5 581.65,-62.54 579.84,-69.3"/>
</g>
<!-- Node14 -->
<g id="node14" class="node">
<title>Node14</title>
<g id="a_node14"><a xlink:href="d__attention_8cpp.html" target="_top" xlink:title=" ">
<polygon fill="white" stroke="black" points="747.5,-6 747.5,-25 854.5,-25 854.5,-6 747.5,-6"/>
<text text-anchor="middle" x="801" y="-13" font-family="Helvetica,sans-Serif" font-size="10.00">src/d/d_attention.cpp</text>
</a>
</g>
</g>
<!-- Node13&#45;&gt;Node14 -->
<g id="edge14" class="edge">
<title>Node13&#45;&gt;Node14</title>
<path fill="none" stroke="midnightblue" d="M683.56,-63.62C714.92,-51.04 755.48,-34.77 779.8,-25.01"/>
<polygon fill="midnightblue" stroke="midnightblue" points="682.13,-60.42 674.15,-67.4 684.74,-66.92 682.13,-60.42"/>
</g>
<!-- Node15 -->
<g id="node15" class="node">
<title>Node15</title>
<g id="a_node15"><a xlink:href="d__camera_8cpp.html" target="_top" xlink:title=" ">
<polygon fill="white" stroke="black" points="872,-6 872,-25 974,-25 974,-6 872,-6"/>
<text text-anchor="middle" x="923" y="-13" font-family="Helvetica,sans-Serif" font-size="10.00">src/d/d_camera.cpp</text>
</a>
</g>
</g>
<!-- Node13&#45;&gt;Node15 -->
<g id="edge15" class="edge">
<title>Node13&#45;&gt;Node15</title>
<path fill="none" stroke="midnightblue" d="M697.64,-66.66C772.02,-49.44 792.63,-47.41 864,-31 872.12,-29.13 880.85,-27.04 889.03,-25.03"/>
<polygon fill="midnightblue" stroke="midnightblue" points="696.73,-63.28 687.79,-68.96 698.32,-70.1 696.73,-63.28"/>
</g>
<!-- Node16 -->
<g id="node16" class="node">
<title>Node16</title>
<g id="a_node16"><a xlink:href="d__stage_8cpp.html" target="_top" xlink:title=" ">
<polygon fill="white" stroke="black" points="1110,-6 1110,-25 1204,-25 1204,-6 1110,-6"/>
<text text-anchor="middle" x="1157" y="-13" font-family="Helvetica,sans-Serif" font-size="10.00">src/d/d_stage.cpp</text>
</a>
</g>
</g>
<!-- Node13&#45;&gt;Node16 -->
<g id="edge16" class="edge">
<title>Node13&#45;&gt;Node16</title>
<path fill="none" stroke="midnightblue" d="M697.71,-66.88C791.49,-51.13 1012.72,-29.85 1109.96,-20.81"/>
<polygon fill="midnightblue" stroke="midnightblue" points="696.97,-63.46 687.72,-68.63 698.17,-70.36 696.97,-63.46"/>
</g>
<!-- Node17 -->
<g id="node17" class="node">
<title>Node17</title>
<g id="a_node17"><a xlink:href="f__op__actor__mng_8cpp.html" target="_top" xlink:title=" ">
<polygon fill="white" stroke="black" points="473.5,-0.5 473.5,-30.5 580.5,-30.5 580.5,-0.5 473.5,-0.5"/>
<text text-anchor="start" x="481.5" y="-18.5" font-family="Helvetica,sans-Serif" font-size="10.00">src/f/f_op/f_op_actor</text>
<text text-anchor="middle" x="527" y="-7.5" font-family="Helvetica,sans-Serif" font-size="10.00">_mng.cpp</text>
</a>
</g>
</g>
<!-- Node13&#45;&gt;Node17 -->
<g id="edge18" class="edge">
<title>Node13&#45;&gt;Node17</title>
<path fill="none" stroke="midnightblue" d="M605.91,-62.3C588.38,-52.12 567.24,-39.85 551.25,-30.58"/>
<polygon fill="midnightblue" stroke="midnightblue" points="604.29,-65.4 614.7,-67.4 607.81,-59.35 604.29,-65.4"/>
</g>
<!-- Node18 -->
<g id="node18" class="node">
<title>Node18</title>
<g id="a_node18"><a xlink:href="m__Do__main_8cpp.html" target="_top" xlink:title=" ">
<polygon fill="white" stroke="black" points="598.5,-6 598.5,-25 729.5,-25 729.5,-6 598.5,-6"/>
<text text-anchor="middle" x="664" y="-13" font-family="Helvetica,sans-Serif" font-size="10.00">src/m_Do/m_Do_main.cpp</text>
</a>
</g>
</g>
<!-- Node13&#45;&gt;Node18 -->
<g id="edge19" class="edge">
<title>Node13&#45;&gt;Node18</title>
<path fill="none" stroke="midnightblue" d="M648.06,-57.94C652.45,-46.54 657.44,-33.55 660.66,-25.19"/>
<polygon fill="midnightblue" stroke="midnightblue" points="644.75,-56.81 644.42,-67.4 651.28,-59.32 644.75,-56.81"/>
</g>
<!-- Node19&#45;&gt;Node5 -->
<g id="edge21" class="edge">
<title>Node19&#45;&gt;Node5</title>
<path fill="none" stroke="midnightblue" d="M741.68,-198.44C708.13,-187.91 665.59,-174.55 633.94,-164.61"/>
<polygon fill="midnightblue" stroke="midnightblue" points="740.75,-201.82 751.34,-201.48 742.85,-195.14 740.75,-201.82"/>
</g>
<!-- Node20 -->
<g id="node20" class="node">
<title>Node20</title>
<g id="a_node20"><a xlink:href="f__pc__creator_8cpp.html" target="_top" xlink:title=" ">
<polygon fill="white" stroke="black" points="663.5,-140 663.5,-159 796.5,-159 796.5,-140 663.5,-140"/>
<text text-anchor="middle" x="730" y="-147" font-family="Helvetica,sans-Serif" font-size="10.00">src/f/f_pc/f_pc_creator.cpp</text>
</a>
</g>
</g>
<!-- Node19&#45;&gt;Node20 -->
<g id="edge22" class="edge">
<title>Node19&#45;&gt;Node20</title>
<path fill="none" stroke="midnightblue" d="M774.51,-194.34C762.39,-182.4 747.91,-168.14 738.83,-159.19"/>
<polygon fill="midnightblue" stroke="midnightblue" points="772.1,-196.87 781.68,-201.4 777.01,-191.89 772.1,-196.87"/>
</g>
<!-- Node21 -->
<g id="node21" class="node">
<title>Node21</title>
<g id="a_node21"><a xlink:href="f__pc__node__req_8cpp.html" target="_top" xlink:title=" ">
<polygon fill="white" stroke="black" points="973,-67.5 973,-97.5 1079,-97.5 1079,-67.5 973,-67.5"/>
<text text-anchor="start" x="981" y="-85.5" font-family="Helvetica,sans-Serif" font-size="10.00">src/f/f_pc/f_pc_node</text>
<text text-anchor="middle" x="1026" y="-74.5" font-family="Helvetica,sans-Serif" font-size="10.00">_req.cpp</text>
</a>
</g>
</g>
<!-- Node19&#45;&gt;Node21 -->
<g id="edge23" class="edge">
<title>Node19&#45;&gt;Node21</title>
<path fill="none" stroke="midnightblue" d="M848.59,-197.95C871.51,-189.37 898.28,-178.07 921,-165 955.4,-145.21 990.98,-115.22 1010.62,-97.67"/>
<polygon fill="midnightblue" stroke="midnightblue" points="847.21,-194.73 839.02,-201.45 849.62,-201.3 847.21,-194.73"/>
</g>
<!-- Node22 -->
<g id="node22" class="node">
<title>Node22</title>
<g id="a_node22"><a xlink:href="f__pc__fstcreate__req_8h.html" target="_top" xlink:title=" ">
<polygon fill="white" stroke="black" points="814.5,-134.5 814.5,-164.5 911.5,-164.5 911.5,-134.5 814.5,-134.5"/>
<text text-anchor="start" x="822.5" y="-152.5" font-family="Helvetica,sans-Serif" font-size="10.00">include/f/f_pc/f_pc</text>
<text text-anchor="middle" x="863" y="-141.5" font-family="Helvetica,sans-Serif" font-size="10.00">_fstcreate_req.h</text>
</a>
</g>
</g>
<!-- Node19&#45;&gt;Node22 -->
<g id="edge24" class="edge">
<title>Node19&#45;&gt;Node22</title>
<path fill="none" stroke="midnightblue" d="M817.84,-194.31C827.89,-184.56 839.54,-173.26 848.49,-164.58"/>
<polygon fill="midnightblue" stroke="midnightblue" points="815.28,-191.92 810.54,-201.4 820.15,-196.94 815.28,-191.92"/>
</g>
<!-- Node24 -->
<g id="node24" class="node">
<title>Node24</title>
<g id="a_node24"><a xlink:href="f__pc__stdcreate__req_8h.html" target="_top" xlink:title=" ">
<polygon fill="white" stroke="black" points="977.5,-134.5 977.5,-164.5 1074.5,-164.5 1074.5,-134.5 977.5,-134.5"/>
<text text-anchor="start" x="985.5" y="-152.5" font-family="Helvetica,sans-Serif" font-size="10.00">include/f/f_pc/f_pc</text>
<text text-anchor="middle" x="1026" y="-141.5" font-family="Helvetica,sans-Serif" font-size="10.00">_stdcreate_req.h</text>
</a>
</g>
</g>
<!-- Node19&#45;&gt;Node24 -->
<g id="edge28" class="edge">
<title>Node19&#45;&gt;Node24</title>
<path fill="none" stroke="midnightblue" d="M854.68,-198.92C892.64,-188.19 941.48,-174.39 977.29,-164.26"/>
<polygon fill="midnightblue" stroke="midnightblue" points="853.45,-195.63 844.78,-201.72 855.35,-202.36 853.45,-195.63"/>
</g>
<!-- Node22&#45;&gt;Node6 -->
<g id="edge26" class="edge">
<title>Node22&#45;&gt;Node6</title>
<path fill="none" stroke="midnightblue" d="M804.37,-133.94C515.16,-90.69 436.14,-132.08 149,-98 136.54,-96.52 123.07,-94.29 110.85,-92.02"/>
<polygon fill="midnightblue" stroke="midnightblue" points="803.9,-137.41 814.31,-135.45 804.95,-130.49 803.9,-137.41"/>
</g>
<!-- Node22&#45;&gt;Node13 -->
<g id="edge27" class="edge">
<title>Node22&#45;&gt;Node13</title>
<path fill="none" stroke="midnightblue" d="M804.69,-131.58C768.31,-121.02 722.03,-107.59 687.63,-97.61"/>
<polygon fill="midnightblue" stroke="midnightblue" points="804.09,-135.05 814.67,-134.48 806.04,-128.33 804.09,-135.05"/>
</g>
<!-- Node23 -->
<g id="node23" class="node">
<title>Node23</title>
<g id="a_node23"><a xlink:href="f__pc__fstcreate__req_8cpp.html" target="_top" xlink:title=" ">
<polygon fill="white" stroke="black" points="449.5,-67.5 449.5,-97.5 572.5,-97.5 572.5,-67.5 449.5,-67.5"/>
<text text-anchor="start" x="457.5" y="-85.5" font-family="Helvetica,sans-Serif" font-size="10.00">src/f/f_pc/f_pc_fstcreate</text>
<text text-anchor="middle" x="511" y="-74.5" font-family="Helvetica,sans-Serif" font-size="10.00">_req.cpp</text>
</a>
</g>
</g>
<!-- Node22&#45;&gt;Node23 -->
<g id="edge25" class="edge">
<title>Node22&#45;&gt;Node23</title>
<path fill="none" stroke="midnightblue" d="M804.45,-133.78C705.56,-113.69 678.1,-115.53 582,-98 578.91,-97.44 575.74,-96.84 572.54,-96.23"/>
<polygon fill="midnightblue" stroke="midnightblue" points="803.75,-137.21 814.25,-135.79 805.16,-130.35 803.75,-137.21"/>
</g>
<!-- Node24&#45;&gt;Node10 -->
<g id="edge31" class="edge">
<title>Node24&#45;&gt;Node10</title>
<path fill="none" stroke="midnightblue" d="M967.48,-134.04C923.49,-123.17 863.56,-108.35 819.95,-97.58"/>
<polygon fill="midnightblue" stroke="midnightblue" points="966.91,-137.5 977.46,-136.5 968.59,-130.71 966.91,-137.5"/>
</g>
<!-- Node24&#45;&gt;Node11 -->
<g id="edge33" class="edge">
<title>Node24&#45;&gt;Node11</title>
<path fill="none" stroke="midnightblue" d="M988.99,-129.85C968.6,-119.58 943.69,-107.03 924.94,-97.58"/>
<polygon fill="midnightblue" stroke="midnightblue" points="987.5,-133.02 998.01,-134.4 990.65,-126.77 987.5,-133.02"/>
</g>
<!-- Node24&#45;&gt;Node13 -->
<g id="edge36" class="edge">
<title>Node24&#45;&gt;Node13</title>
<path fill="none" stroke="midnightblue" d="M967.34,-140.22C886.93,-128.76 746.66,-108.29 696,-98 693.3,-97.45 690.53,-96.86 687.75,-96.23"/>
<polygon fill="midnightblue" stroke="midnightblue" points="966.93,-143.7 977.32,-141.65 967.91,-136.77 966.93,-143.7"/>
</g>
<!-- Node24&#45;&gt;Node16 -->
<g id="edge29" class="edge">
<title>Node24&#45;&gt;Node16</title>
<path fill="none" stroke="midnightblue" d="M1084.77,-142.13C1139.06,-134.89 1213.96,-121 1232,-98 1240.5,-87.16 1238.47,-79.16 1232,-67 1221.16,-46.63 1198.04,-33 1180.32,-25.09"/>
<polygon fill="midnightblue" stroke="midnightblue" points="1084.02,-138.7 1074.55,-143.45 1084.92,-145.64 1084.02,-138.7"/>
</g>
<!-- Node24&#45;&gt;Node21 -->
<g id="edge34" class="edge">
<title>Node24&#45;&gt;Node21</title>
<path fill="none" stroke="midnightblue" d="M1026,-124.11C1026,-115.15 1026,-105.32 1026,-97.58"/>
<polygon fill="midnightblue" stroke="midnightblue" points="1022.5,-124.4 1026,-134.4 1029.5,-124.4 1022.5,-124.4"/>
</g>
<!-- Node25 -->
<g id="node25" class="node">
<title>Node25</title>
<g id="a_node25"><a xlink:href="f__op__camera__mng_8cpp.html" target="_top" xlink:title=" ">
<polygon fill="white" stroke="black" points="1279.5,-67.5 1279.5,-97.5 1396.5,-97.5 1396.5,-67.5 1279.5,-67.5"/>
<text text-anchor="start" x="1287.5" y="-85.5" font-family="Helvetica,sans-Serif" font-size="10.00">src/f/f_op/f_op_camera</text>
<text text-anchor="middle" x="1338" y="-74.5" font-family="Helvetica,sans-Serif" font-size="10.00">_mng.cpp</text>
</a>
</g>
</g>
<!-- Node24&#45;&gt;Node25 -->
<g id="edge30" class="edge">
<title>Node24&#45;&gt;Node25</title>
<path fill="none" stroke="midnightblue" d="M1084.83,-136.24C1140.58,-124.63 1223.85,-107.28 1279.5,-95.69"/>
<polygon fill="midnightblue" stroke="midnightblue" points="1083.83,-132.88 1074.75,-138.34 1085.25,-139.73 1083.83,-132.88"/>
</g>
<!-- Node26 -->
<g id="node26" class="node">
<title>Node26</title>
<g id="a_node26"><a xlink:href="f__op__msg__mng_8cpp.html" target="_top" xlink:title=" ">
<polygon fill="white" stroke="black" points="1415,-67.5 1415,-97.5 1519,-97.5 1519,-67.5 1415,-67.5"/>
<text text-anchor="start" x="1423" y="-85.5" font-family="Helvetica,sans-Serif" font-size="10.00">src/f/f_op/f_op_msg</text>
<text text-anchor="middle" x="1467" y="-74.5" font-family="Helvetica,sans-Serif" font-size="10.00">_mng.cpp</text>
</a>
</g>
</g>
<!-- Node24&#45;&gt;Node26 -->
<g id="edge32" class="edge">
<title>Node24&#45;&gt;Node26</title>
<path fill="none" stroke="midnightblue" d="M1084.71,-142.56C1159.62,-134.56 1293.02,-118.88 1406,-98 1408.89,-97.47 1411.85,-96.88 1414.83,-96.27"/>
<polygon fill="midnightblue" stroke="midnightblue" points="1084.11,-139.11 1074.54,-143.64 1084.85,-146.07 1084.11,-139.11"/>
</g>
<!-- Node27 -->
<g id="node27" class="node">
<title>Node27</title>
<g id="a_node27"><a xlink:href="f__pc__stdcreate__req_8cpp.html" target="_top" xlink:title=" ">
<polygon fill="white" stroke="black" points="1097.5,-67.5 1097.5,-97.5 1222.5,-97.5 1222.5,-67.5 1097.5,-67.5"/>
<text text-anchor="start" x="1105.5" y="-85.5" font-family="Helvetica,sans-Serif" font-size="10.00">src/f/f_pc/f_pc_stdcreate</text>
<text text-anchor="middle" x="1160" y="-74.5" font-family="Helvetica,sans-Serif" font-size="10.00">_req.cpp</text>
</a>
</g>
</g>
<!-- Node24&#45;&gt;Node27 -->
<g id="edge35" class="edge">
<title>Node24&#45;&gt;Node27</title>
<path fill="none" stroke="midnightblue" d="M1064.15,-129.99C1085.39,-119.69 1111.41,-107.07 1130.98,-97.58"/>
<polygon fill="midnightblue" stroke="midnightblue" points="1062.55,-126.88 1055.08,-134.4 1065.6,-133.18 1062.55,-126.88"/>
</g>
</g>
</svg>
