<?xml version="1.0" encoding="UTF-8" standalone="no"?>
<!DOCTYPE svg PUBLIC "-//W3C//DTD SVG 1.1//EN"
 "http://www.w3.org/Graphics/SVG/1.1/DTD/svg11.dtd">
<!-- Generated by graphviz version 2.47.0 (20210316.2052)
 -->
<!-- Title: include/f/f_pc/f_pc_leaf.h Pages: 1 -->
<svg width="752pt" height="229pt"
 viewBox="0.00 0.00 752.19 229.00" xmlns="http://www.w3.org/2000/svg" xmlns:xlink="http://www.w3.org/1999/xlink">
<g id="graph0" class="graph" transform="scale(1 1) rotate(0) translate(4 225)">
<title>include/f/f_pc/f_pc_leaf.h</title>
<polygon fill="white" stroke="transparent" points="-4,4 -4,-225 748.19,-225 748.19,4 -4,4"/>
<!-- Node1 -->
<g id="node1" class="node">
<title>Node1</title>
<g id="a_node1"><a xlink:title=" ">
<polygon fill="#bfbfbf" stroke="black" points="187.19,-190.5 187.19,-220.5 284.19,-220.5 284.19,-190.5 187.19,-190.5"/>
<text text-anchor="start" x="195.19" y="-208.5" font-family="Helvetica,sans-Serif" font-size="10.00">include/f/f_pc/f_pc</text>
<text text-anchor="middle" x="235.69" y="-197.5" font-family="Helvetica,sans-Serif" font-size="10.00">_leaf.h</text>
</a>
</g>
</g>
<!-- Node2 -->
<g id="node2" class="node">
<title>Node2</title>
<g id="a_node2"><a xlink:href="f__op__camera_8cpp.html" target="_top" xlink:title=" ">
<polygon fill="white" stroke="black" points="242.19,-0.5 242.19,-19.5 377.19,-19.5 377.19,-0.5 242.19,-0.5"/>
<text text-anchor="middle" x="309.69" y="-7.5" font-family="Helvetica,sans-Serif" font-size="10.00">src/f/f_op/f_op_camera.cpp</text>
</a>
</g>
</g>
<!-- Node1&#45;&gt;Node2 -->
<g id="edge1" class="edge">
<title>Node1&#45;&gt;Node2</title>
<path fill="none" stroke="midnightblue" d="M177.06,-204.16C96.88,-201.35 -32.71,-187.12 7.69,-123 57.1,-44.58 169.13,-20.76 241.98,-13.71"/>
<polygon fill="midnightblue" stroke="midnightblue" points="176.96,-207.65 187.06,-204.46 177.17,-200.66 176.96,-207.65"/>
</g>
<!-- Node3 -->
<g id="node3" class="node">
<title>Node3</title>
<g id="a_node3"><a xlink:href="f__op__kankyo_8cpp.html" target="_top" xlink:title=" ">
<polygon fill="white" stroke="black" points="16.69,-129 16.69,-148 150.69,-148 150.69,-129 16.69,-129"/>
<text text-anchor="middle" x="83.69" y="-136" font-family="Helvetica,sans-Serif" font-size="10.00">src/f/f_op/f_op_kankyo.cpp</text>
</a>
</g>
</g>
<!-- Node1&#45;&gt;Node3 -->
<g id="edge2" class="edge">
<title>Node1&#45;&gt;Node3</title>
<path fill="none" stroke="midnightblue" d="M193.5,-186.46C164.14,-173.9 126.31,-157.72 103.59,-148.01"/>
<polygon fill="midnightblue" stroke="midnightblue" points="192.14,-189.68 202.71,-190.4 194.89,-183.25 192.14,-189.68"/>
</g>
<!-- Node4 -->
<g id="node4" class="node">
<title>Node4</title>
<g id="a_node4"><a xlink:href="f__op__overlap_8cpp.html" target="_top" xlink:title=" ">
<polygon fill="white" stroke="black" points="168.69,-129 168.69,-148 302.69,-148 302.69,-129 168.69,-129"/>
<text text-anchor="middle" x="235.69" y="-136" font-family="Helvetica,sans-Serif" font-size="10.00">src/f/f_op/f_op_overlap.cpp</text>
</a>
</g>
</g>
<!-- Node1&#45;&gt;Node4 -->
<g id="edge3" class="edge">
<title>Node1&#45;&gt;Node4</title>
<path fill="none" stroke="midnightblue" d="M235.69,-180.25C235.69,-169.02 235.69,-156.38 235.69,-148.19"/>
<polygon fill="midnightblue" stroke="midnightblue" points="232.19,-180.4 235.69,-190.4 239.19,-180.4 232.19,-180.4"/>
</g>
<!-- Node5 -->
<g id="node5" class="node">
<title>Node5</title>
<g id="a_node5"><a xlink:href="f__pc__leaf_8cpp.html" target="_top" xlink:title=" ">
<polygon fill="white" stroke="black" points="321.19,-129 321.19,-148 440.19,-148 440.19,-129 321.19,-129"/>
<text text-anchor="middle" x="380.69" y="-136" font-family="Helvetica,sans-Serif" font-size="10.00">src/f/f_pc/f_pc_leaf.cpp</text>
</a>
</g>
</g>
<!-- Node1&#45;&gt;Node5 -->
<g id="edge4" class="edge">
<title>Node1&#45;&gt;Node5</title>
<path fill="none" stroke="midnightblue" d="M276.3,-186.3C304.27,-173.76 340.13,-157.68 361.72,-148.01"/>
<polygon fill="midnightblue" stroke="midnightblue" points="274.85,-183.11 267.16,-190.4 277.71,-189.5 274.85,-183.11"/>
</g>
<!-- Node6 -->
<g id="node6" class="node">
<title>Node6</title>
<g id="a_node6"><a xlink:href="f__op__camera__mng_8h.html" target="_top" xlink:title=" ">
<polygon fill="white" stroke="black" points="458.19,-123.5 458.19,-153.5 555.19,-153.5 555.19,-123.5 458.19,-123.5"/>
<text text-anchor="start" x="466.19" y="-141.5" font-family="Helvetica,sans-Serif" font-size="10.00">include/f/f_op/f_op</text>
<text text-anchor="middle" x="506.69" y="-130.5" font-family="Helvetica,sans-Serif" font-size="10.00">_camera_mng.h</text>
</a>
</g>
</g>
<!-- Node1&#45;&gt;Node6 -->
<g id="edge5" class="edge">
<title>Node1&#45;&gt;Node6</title>
<path fill="none" stroke="midnightblue" d="M293.94,-191.04C337.01,-181.02 397.07,-166.9 449.69,-154 452.37,-153.34 455.12,-152.66 457.89,-151.97"/>
<polygon fill="midnightblue" stroke="midnightblue" points="293.14,-187.63 284.2,-193.31 294.73,-194.45 293.14,-187.63"/>
</g>
<!-- Node7 -->
<g id="node7" class="node">
<title>Node7</title>
<g id="a_node7"><a xlink:href="d__camera_8cpp.html" target="_top" xlink:title=" ">
<polygon fill="white" stroke="black" points="156.69,-62 156.69,-81 258.69,-81 258.69,-62 156.69,-62"/>
<text text-anchor="middle" x="207.69" y="-69" font-family="Helvetica,sans-Serif" font-size="10.00">src/d/d_camera.cpp</text>
</a>
</g>
</g>
<!-- Node6&#45;&gt;Node7 -->
<g id="edge6" class="edge">
<title>Node6&#45;&gt;Node7</title>
<path fill="none" stroke="midnightblue" d="M447.83,-122.64C367.53,-104.79 345.08,-104 267.69,-87 259.32,-85.16 250.32,-83.06 241.9,-81.03"/>
<polygon fill="midnightblue" stroke="midnightblue" points="447.39,-126.13 457.92,-124.91 448.93,-119.3 447.39,-126.13"/>
</g>
<!-- Node8 -->
<g id="node8" class="node">
<title>Node8</title>
<g id="a_node8"><a xlink:href="d__stage_8cpp.html" target="_top" xlink:title=" ">
<polygon fill="white" stroke="black" points="276.69,-62 276.69,-81 370.69,-81 370.69,-62 276.69,-62"/>
<text text-anchor="middle" x="323.69" y="-69" font-family="Helvetica,sans-Serif" font-size="10.00">src/d/d_stage.cpp</text>
</a>
</g>
</g>
<!-- Node6&#45;&gt;Node8 -->
<g id="edge7" class="edge">
<title>Node6&#45;&gt;Node8</title>
<path fill="none" stroke="midnightblue" d="M457.27,-119.95C421.73,-107.32 375.36,-90.85 347.64,-81.01"/>
<polygon fill="midnightblue" stroke="midnightblue" points="456.39,-123.35 466.99,-123.4 458.73,-116.75 456.39,-123.35"/>
</g>
<!-- Node9 -->
<g id="node9" class="node">
<title>Node9</title>
<g id="a_node9"><a xlink:href="f__ap__game_8cpp.html" target="_top" xlink:title=" ">
<polygon fill="white" stroke="black" points="389.19,-62 389.19,-81 494.19,-81 494.19,-62 389.19,-62"/>
<text text-anchor="middle" x="441.69" y="-69" font-family="Helvetica,sans-Serif" font-size="10.00">src/f/f_ap_game.cpp</text>
</a>
</g>
</g>
<!-- Node6&#45;&gt;Node9 -->
<g id="edge8" class="edge">
<title>Node6&#45;&gt;Node9</title>
<path fill="none" stroke="midnightblue" d="M485.19,-116C473.33,-104.13 459.24,-90.05 450.39,-81.19"/>
<polygon fill="midnightblue" stroke="midnightblue" points="483.04,-118.8 492.59,-123.4 487.99,-113.85 483.04,-118.8"/>
</g>
<!-- Node10 -->
<g id="node10" class="node">
<title>Node10</title>
<g id="a_node10"><a xlink:href="f__op__camera__mng_8cpp.html" target="_top" xlink:title=" ">
<polygon fill="white" stroke="black" points="512.19,-56.5 512.19,-86.5 629.19,-86.5 629.19,-56.5 512.19,-56.5"/>
<text text-anchor="start" x="520.19" y="-74.5" font-family="Helvetica,sans-Serif" font-size="10.00">src/f/f_op/f_op_camera</text>
<text text-anchor="middle" x="570.69" y="-63.5" font-family="Helvetica,sans-Serif" font-size="10.00">_mng.cpp</text>
</a>
</g>
</g>
<!-- Node6&#45;&gt;Node10 -->
<g id="edge9" class="edge">
<title>Node6&#45;&gt;Node10</title>
<path fill="none" stroke="midnightblue" d="M527.84,-116.02C537.37,-106.34 548.37,-95.17 556.83,-86.58"/>
<polygon fill="midnightblue" stroke="midnightblue" points="525.1,-113.81 520.58,-123.4 530.09,-118.73 525.1,-113.81"/>
</g>
<!-- Node11 -->
<g id="node11" class="node">
<title>Node11</title>
<g id="a_node11"><a xlink:href="f__op__camera_8h.html" target="_top" xlink:title=" ">
<polygon fill="white" stroke="black" points="647.19,-56.5 647.19,-86.5 744.19,-86.5 744.19,-56.5 647.19,-56.5"/>
<text text-anchor="start" x="655.19" y="-74.5" font-family="Helvetica,sans-Serif" font-size="10.00">include/f/f_op/f_op</text>
<text text-anchor="middle" x="695.69" y="-63.5" font-family="Helvetica,sans-Serif" font-size="10.00">_camera.h</text>
</a>
</g>
</g>
<!-- Node6&#45;&gt;Node11 -->
<g id="edge10" class="edge">
<title>Node6&#45;&gt;Node11</title>
<path fill="none" stroke="midnightblue" d="M557.31,-120.09C587.82,-109.6 626.18,-96.41 654.76,-86.58"/>
<polygon fill="midnightblue" stroke="midnightblue" points="556.02,-116.83 547.7,-123.4 558.3,-123.45 556.02,-116.83"/>
</g>
<!-- Node11&#45;&gt;Node2 -->
<g id="edge11" class="edge">
<title>Node11&#45;&gt;Node2</title>
<path fill="none" stroke="midnightblue" d="M636.89,-55.77C541.89,-37.63 441.98,-25.18 377.48,-18"/>
<polygon fill="midnightblue" stroke="midnightblue" points="636.48,-59.25 646.96,-57.72 637.8,-52.38 636.48,-59.25"/>
</g>
</g>
</svg>
