<?xml version="1.0" encoding="UTF-8" standalone="no"?>
<!DOCTYPE svg PUBLIC "-//W3C//DTD SVG 1.1//EN"
 "http://www.w3.org/Graphics/SVG/1.1/DTD/svg11.dtd">
<!-- Generated by graphviz version 7.0.5 (20221223.1930)
 -->
<!-- Title: src/f_pc/f_pc_deletor.cpp Pages: 1 -->
<svg width="1185pt" height="456pt"
 viewBox="0.00 0.00 1185.00 456.00" xmlns="http://www.w3.org/2000/svg" xmlns:xlink="http://www.w3.org/1999/xlink">
<g id="graph0" class="graph" transform="scale(1 1) rotate(0) translate(4 452)">
<title>src/f_pc/f_pc_deletor.cpp</title>
<!-- Node1 -->
<g id="node1" class="node">
<title>Node1</title>
<g id="a_node1"><a xlink:title=" ">
<polygon fill="#999999" stroke="#666666" points="404,-448 278,-448 278,-429 404,-429 404,-448"/>
<text text-anchor="middle" x="341" y="-436" font-family="Helvetica,sans-Serif" font-size="10.00">src/f_pc/f_pc_deletor.cpp</text>
</a>
</g>
</g>
<!-- Node2 -->
<g id="node2" class="node">
<title>Node2</title>
<g id="a_node2"><a xlink:href="f__pc__deletor_8h.html" target="_top" xlink:title=" ">
<polygon fill="white" stroke="#666666" points="332.5,-206 233.5,-206 233.5,-187 332.5,-187 332.5,-206"/>
<text text-anchor="middle" x="283" y="-194" font-family="Helvetica,sans-Serif" font-size="10.00">f_pc/f_pc_deletor.h</text>
</a>
</g>
</g>
<!-- Node1&#45;&gt;Node2 -->
<g id="edge1" class="edge">
<title>Node1&#45;&gt;Node2</title>
<path fill="none" stroke="#63b8ff" d="M338.87,-428.67C330.5,-394.05 299.8,-267.01 287.83,-217.47"/>
<polygon fill="#63b8ff" stroke="#63b8ff" points="291.26,-216.78 285.51,-207.88 284.46,-218.42 291.26,-216.78"/>
</g>
<!-- Node5 -->
<g id="node5" class="node">
<title>Node5</title>
<g id="a_node5"><a xlink:href="c__list__iter_8h.html" target="_top" xlink:title=" ">
<polygon fill="white" stroke="#666666" points="928,-393 812,-393 812,-363 928,-363 928,-393"/>
<text text-anchor="start" x="820" y="-381" font-family="Helvetica,sans-Serif" font-size="10.00">SSystem/SComponent</text>
<text text-anchor="middle" x="870" y="-370" font-family="Helvetica,sans-Serif" font-size="10.00">/c_list_iter.h</text>
</a>
</g>
</g>
<!-- Node1&#45;&gt;Node5 -->
<g id="edge4" class="edge">
<title>Node1&#45;&gt;Node5</title>
<path fill="none" stroke="#63b8ff" d="M404.28,-430.5C503.94,-419.48 696.72,-398.16 800.25,-386.71"/>
<polygon fill="#63b8ff" stroke="#63b8ff" points="800.45,-390.21 810,-385.64 799.68,-383.26 800.45,-390.21"/>
</g>
<!-- Node7 -->
<g id="node7" class="node">
<title>Node7</title>
<g id="a_node7"><a xlink:href="f__pc__creator_8h.html" target="_top" xlink:title=" ">
<polygon fill="white" stroke="#666666" points="411,-145.5 311,-145.5 311,-126.5 411,-126.5 411,-145.5"/>
<text text-anchor="middle" x="361" y="-133.5" font-family="Helvetica,sans-Serif" font-size="10.00">f_pc/f_pc_creator.h</text>
</a>
</g>
</g>
<!-- Node1&#45;&gt;Node7 -->
<g id="edge6" class="edge">
<title>Node1&#45;&gt;Node7</title>
<path fill="none" stroke="#63b8ff" d="M341.6,-428.51C344.34,-387.38 355.7,-216.68 359.64,-157.39"/>
<polygon fill="#63b8ff" stroke="#63b8ff" points="363.13,-157.68 360.3,-147.47 356.15,-157.21 363.13,-157.68"/>
</g>
<!-- Node8 -->
<g id="node8" class="node">
<title>Node8</title>
<g id="a_node8"><a xlink:href="f__pc__executor_8h.html" target="_top" xlink:title=" ">
<polygon fill="white" stroke="#666666" points="293.5,-387.5 186.5,-387.5 186.5,-368.5 293.5,-368.5 293.5,-387.5"/>
<text text-anchor="middle" x="240" y="-375.5" font-family="Helvetica,sans-Serif" font-size="10.00">f_pc/f_pc_executor.h</text>
</a>
</g>
</g>
<!-- Node1&#45;&gt;Node8 -->
<g id="edge8" class="edge">
<title>Node1&#45;&gt;Node8</title>
<path fill="none" stroke="#63b8ff" d="M325.66,-428.62C309.64,-419.34 284.26,-404.63 265.27,-393.64"/>
<polygon fill="#63b8ff" stroke="#63b8ff" points="267.2,-390.71 256.79,-388.73 263.69,-396.77 267.2,-390.71"/>
</g>
<!-- Node11 -->
<g id="node11" class="node">
<title>Node11</title>
<g id="a_node11"><a xlink:href="f__pc__load_8h.html" target="_top" xlink:title=" ">
<polygon fill="white" stroke="#666666" points="88,-206 0,-206 0,-187 88,-187 88,-206"/>
<text text-anchor="middle" x="44" y="-194" font-family="Helvetica,sans-Serif" font-size="10.00">f_pc/f_pc_load.h</text>
</a>
</g>
</g>
<!-- Node1&#45;&gt;Node11 -->
<g id="edge12" class="edge">
<title>Node1&#45;&gt;Node11</title>
<path fill="none" stroke="#63b8ff" d="M277.73,-430.93C245.25,-425.07 206.43,-413.97 177,-393 111.26,-346.15 68.04,-255.91 51.53,-216.59"/>
<polygon fill="#63b8ff" stroke="#63b8ff" points="54.85,-215.47 47.84,-207.53 48.37,-218.11 54.85,-215.47"/>
</g>
<!-- Node12 -->
<g id="node12" class="node">
<title>Node12</title>
<g id="a_node12"><a xlink:href="f__pc__node_8h.html" target="_top" xlink:title=" ">
<polygon fill="white" stroke="#666666" points="563.5,-387.5 472.5,-387.5 472.5,-368.5 563.5,-368.5 563.5,-387.5"/>
<text text-anchor="middle" x="518" y="-375.5" font-family="Helvetica,sans-Serif" font-size="10.00">f_pc/f_pc_node.h</text>
</a>
</g>
</g>
<!-- Node1&#45;&gt;Node12 -->
<g id="edge14" class="edge">
<title>Node1&#45;&gt;Node12</title>
<path fill="none" stroke="#63b8ff" d="M367.88,-428.62C397.77,-418.74 446.28,-402.71 480.03,-391.55"/>
<polygon fill="#63b8ff" stroke="#63b8ff" points="481.03,-394.9 489.43,-388.44 478.83,-388.26 481.03,-394.9"/>
</g>
<!-- Node3 -->
<g id="node3" class="node">
<title>Node3</title>
<g id="a_node3"><a xlink:href="types_8h.html" target="_top" xlink:title=" ">
<polygon fill="white" stroke="#666666" points="440.5,-79.5 359.5,-79.5 359.5,-60.5 440.5,-60.5 440.5,-79.5"/>
<text text-anchor="middle" x="400" y="-67.5" font-family="Helvetica,sans-Serif" font-size="10.00">dolphin/types.h</text>
</a>
</g>
</g>
<!-- Node2&#45;&gt;Node3 -->
<g id="edge2" class="edge">
<title>Node2&#45;&gt;Node3</title>
<path fill="none" stroke="#63b8ff" d="M282.99,-186.67C283.43,-171.59 286.33,-140.6 302,-121 315.82,-103.71 337.22,-91.83 356.49,-84"/>
<polygon fill="#63b8ff" stroke="#63b8ff" points="357.68,-87.29 365.8,-80.49 355.21,-80.74 357.68,-87.29"/>
</g>
<!-- Node4 -->
<g id="node4" class="node">
<title>Node4</title>
<g id="a_node4"><a xlink:href="stddef_8h.html" target="_top" xlink:title=" ">
<polygon fill="white" stroke="#666666" points="425.5,-19 374.5,-19 374.5,0 425.5,0 425.5,-19"/>
<text text-anchor="middle" x="400" y="-7" font-family="Helvetica,sans-Serif" font-size="10.00">stddef.h</text>
</a>
</g>
</g>
<!-- Node3&#45;&gt;Node4 -->
<g id="edge3" class="edge">
<title>Node3&#45;&gt;Node4</title>
<path fill="none" stroke="#63b8ff" d="M400,-60.37C400,-52.5 400,-40.6 400,-30.39"/>
<polygon fill="#63b8ff" stroke="#63b8ff" points="403.5,-30.68 400,-20.68 396.5,-30.68 403.5,-30.68"/>
</g>
<!-- Node6 -->
<g id="node6" class="node">
<title>Node6</title>
<g id="a_node6"><a xlink:href="c__node__iter_8h.html" target="_top" xlink:title=" ">
<polygon fill="white" stroke="#666666" points="1177,-327 1061,-327 1061,-297 1177,-297 1177,-327"/>
<text text-anchor="start" x="1069" y="-315" font-family="Helvetica,sans-Serif" font-size="10.00">SSystem/SComponent</text>
<text text-anchor="middle" x="1119" y="-304" font-family="Helvetica,sans-Serif" font-size="10.00">/c_node_iter.h</text>
</a>
</g>
</g>
<!-- Node5&#45;&gt;Node6 -->
<g id="edge5" class="edge">
<title>Node5&#45;&gt;Node6</title>
<path fill="none" stroke="#63b8ff" d="M926.19,-362.56C963.48,-352.97 1012.6,-340.35 1051.94,-330.24"/>
<polygon fill="#63b8ff" stroke="#63b8ff" points="1052.73,-333.65 1061.55,-327.77 1050.99,-326.87 1052.73,-333.65"/>
</g>
<!-- Node7&#45;&gt;Node3 -->
<g id="edge7" class="edge">
<title>Node7&#45;&gt;Node3</title>
<path fill="none" stroke="#63b8ff" d="M366.42,-126.1C372.19,-116.64 381.46,-101.42 388.8,-89.37"/>
<polygon fill="#63b8ff" stroke="#63b8ff" points="391.62,-91.48 393.84,-81.12 385.64,-87.83 391.62,-91.48"/>
</g>
<!-- Node9 -->
<g id="node9" class="node">
<title>Node9</title>
<g id="a_node9"><a xlink:href="f__pc__layer__iter_8h.html" target="_top" xlink:title=" ">
<polygon fill="white" stroke="#666666" points="215.5,-206 106.5,-206 106.5,-187 215.5,-187 215.5,-206"/>
<text text-anchor="middle" x="161" y="-194" font-family="Helvetica,sans-Serif" font-size="10.00">f_pc/f_pc_layer_iter.h</text>
</a>
</g>
</g>
<!-- Node8&#45;&gt;Node9 -->
<g id="edge9" class="edge">
<title>Node8&#45;&gt;Node9</title>
<path fill="none" stroke="#63b8ff" d="M223.6,-368.02C209.59,-359.42 190.14,-345.1 180,-327 160.52,-292.25 158.81,-244.36 159.67,-217.63"/>
<polygon fill="#63b8ff" stroke="#63b8ff" points="163.15,-218.03 160.15,-207.87 156.16,-217.68 163.15,-218.03"/>
</g>
<!-- Node10 -->
<g id="node10" class="node">
<title>Node10</title>
<g id="a_node10"><a xlink:href="f__pc__line__iter_8h.html" target="_top" xlink:title=" ">
<polygon fill="white" stroke="#666666" points="293,-321.5 189,-321.5 189,-302.5 293,-302.5 293,-321.5"/>
<text text-anchor="middle" x="241" y="-309.5" font-family="Helvetica,sans-Serif" font-size="10.00">f_pc/f_pc_line_iter.h</text>
</a>
</g>
</g>
<!-- Node8&#45;&gt;Node10 -->
<g id="edge11" class="edge">
<title>Node8&#45;&gt;Node10</title>
<path fill="none" stroke="#63b8ff" d="M240.14,-368.1C240.28,-359.12 240.5,-344.95 240.68,-333.22"/>
<polygon fill="#63b8ff" stroke="#63b8ff" points="244.18,-333.39 240.84,-323.34 237.18,-333.28 244.18,-333.39"/>
</g>
<!-- Node9&#45;&gt;Node3 -->
<g id="edge10" class="edge">
<title>Node9&#45;&gt;Node3</title>
<path fill="none" stroke="#63b8ff" d="M174.3,-186.61C196.49,-171.96 242.72,-142.27 284,-121 311.09,-107.04 342.96,-93.5 366.43,-84.04"/>
<polygon fill="#63b8ff" stroke="#63b8ff" points="367.5,-87.38 375.49,-80.43 364.91,-80.88 367.5,-87.38"/>
</g>
<!-- Node11&#45;&gt;Node3 -->
<g id="edge13" class="edge">
<title>Node11&#45;&gt;Node3</title>
<path fill="none" stroke="#63b8ff" d="M64.28,-186.57C98.06,-171.86 168.15,-142.09 229,-121 271.19,-106.38 320.18,-92.34 354.88,-82.89"/>
<polygon fill="#63b8ff" stroke="#63b8ff" points="355.42,-86.37 364.16,-80.38 353.59,-79.61 355.42,-86.37"/>
</g>
<!-- Node13 -->
<g id="node13" class="node">
<title>Node13</title>
<g id="a_node13"><a xlink:href="f__pc__base_8h.html" target="_top" xlink:title=" ">
<polygon fill="white" stroke="#666666" points="740.5,-321.5 649.5,-321.5 649.5,-302.5 740.5,-302.5 740.5,-321.5"/>
<text text-anchor="middle" x="695" y="-309.5" font-family="Helvetica,sans-Serif" font-size="10.00">f_pc/f_pc_base.h</text>
</a>
</g>
</g>
<!-- Node12&#45;&gt;Node13 -->
<g id="edge15" class="edge">
<title>Node12&#45;&gt;Node13</title>
<path fill="none" stroke="#63b8ff" d="M542.61,-368.1C573.04,-357.1 625.04,-338.3 659.71,-325.76"/>
<polygon fill="#63b8ff" stroke="#63b8ff" points="660.68,-329.13 668.89,-322.44 658.3,-322.55 660.68,-329.13"/>
</g>
<!-- Node21 -->
<g id="node21" class="node">
<title>Node21</title>
<g id="a_node21"><a xlink:href="f__pc__layer_8h.html" target="_top" xlink:title=" ">
<polygon fill="white" stroke="#666666" points="874,-145.5 784,-145.5 784,-126.5 874,-126.5 874,-145.5"/>
<text text-anchor="middle" x="829" y="-133.5" font-family="Helvetica,sans-Serif" font-size="10.00">f_pc/f_pc_layer.h</text>
</a>
</g>
</g>
<!-- Node12&#45;&gt;Node21 -->
<g id="edge27" class="edge">
<title>Node12&#45;&gt;Node21</title>
<path fill="none" stroke="#63b8ff" d="M563.8,-373.42C675.79,-363.62 958.42,-332.19 1014,-261 1056.77,-206.22 948.28,-167.24 879.85,-148.87"/>
<polygon fill="#63b8ff" stroke="#63b8ff" points="880.85,-145.52 870.29,-146.38 879.09,-152.29 880.85,-145.52"/>
</g>
<!-- Node24 -->
<g id="node24" class="node">
<title>Node24</title>
<g id="a_node24"><a xlink:href="f__pc__method_8h.html" target="_top" xlink:title=" ">
<polygon fill="white" stroke="#666666" points="490,-321.5 388,-321.5 388,-302.5 490,-302.5 490,-321.5"/>
<text text-anchor="middle" x="439" y="-309.5" font-family="Helvetica,sans-Serif" font-size="10.00">f_pc/f_pc_method.h</text>
</a>
</g>
</g>
<!-- Node12&#45;&gt;Node24 -->
<g id="edge32" class="edge">
<title>Node12&#45;&gt;Node24</title>
<path fill="none" stroke="#63b8ff" d="M507.02,-368.1C494.52,-357.98 473.86,-341.24 458.59,-328.87"/>
<polygon fill="#63b8ff" stroke="#63b8ff" points="461.04,-326.35 451.07,-322.78 456.63,-331.79 461.04,-326.35"/>
</g>
<!-- Node25 -->
<g id="node25" class="node">
<title>Node25</title>
<g id="a_node25"><a xlink:href="f__pc__profile_8h.html" target="_top" xlink:title=" ">
<polygon fill="white" stroke="#666666" points="562.5,-145.5 467.5,-145.5 467.5,-126.5 562.5,-126.5 562.5,-145.5"/>
<text text-anchor="middle" x="515" y="-133.5" font-family="Helvetica,sans-Serif" font-size="10.00">f_pc/f_pc_profile.h</text>
</a>
</g>
</g>
<!-- Node12&#45;&gt;Node25 -->
<g id="edge34" class="edge">
<title>Node12&#45;&gt;Node25</title>
<path fill="none" stroke="#63b8ff" d="M517.7,-368.27C517.04,-348.95 515.52,-301.09 515,-261 514.53,-224.32 514.68,-181.54 514.84,-157.03"/>
<polygon fill="#63b8ff" stroke="#63b8ff" points="518.34,-157.26 514.91,-147.23 511.34,-157.21 518.34,-157.26"/>
</g>
<!-- Node14 -->
<g id="node14" class="node">
<title>Node14</title>
<g id="a_node14"><a xlink:href="f__pc__delete__tag_8h.html" target="_top" xlink:title=" ">
<polygon fill="white" stroke="#666666" points="877.5,-261 762.5,-261 762.5,-242 877.5,-242 877.5,-261"/>
<text text-anchor="middle" x="820" y="-249" font-family="Helvetica,sans-Serif" font-size="10.00">f_pc/f_pc_delete_tag.h</text>
</a>
</g>
</g>
<!-- Node13&#45;&gt;Node14 -->
<g id="edge16" class="edge">
<title>Node13&#45;&gt;Node14</title>
<path fill="none" stroke="#63b8ff" d="M713.98,-302.12C734.36,-292.58 766.98,-277.31 790.66,-266.23"/>
<polygon fill="#63b8ff" stroke="#63b8ff" points="791.89,-269.52 799.47,-262.11 788.92,-263.18 791.89,-269.52"/>
</g>
<!-- Node17 -->
<g id="node17" class="node">
<title>Node17</title>
<g id="a_node17"><a xlink:href="f__pc__layer__tag_8h.html" target="_top" xlink:title=" ">
<polygon fill="white" stroke="#666666" points="1004.5,-261 895.5,-261 895.5,-242 1004.5,-242 1004.5,-261"/>
<text text-anchor="middle" x="950" y="-249" font-family="Helvetica,sans-Serif" font-size="10.00">f_pc/f_pc_layer_tag.h</text>
</a>
</g>
</g>
<!-- Node13&#45;&gt;Node17 -->
<g id="edge20" class="edge">
<title>Node13&#45;&gt;Node17</title>
<path fill="none" stroke="#63b8ff" d="M734.01,-302.05C778.44,-291.86 851.16,-275.17 899.79,-264.02"/>
<polygon fill="#63b8ff" stroke="#63b8ff" points="900.56,-267.43 909.52,-261.79 898.99,-260.61 900.56,-267.43"/>
</g>
<!-- Node18 -->
<g id="node18" class="node">
<title>Node18</title>
<g id="a_node18"><a xlink:href="f__pc__line__tag_8h.html" target="_top" xlink:title=" ">
<polygon fill="white" stroke="#666666" points="628,-261 524,-261 524,-242 628,-242 628,-261"/>
<text text-anchor="middle" x="576" y="-249" font-family="Helvetica,sans-Serif" font-size="10.00">f_pc/f_pc_line_tag.h</text>
</a>
</g>
</g>
<!-- Node13&#45;&gt;Node18 -->
<g id="edge22" class="edge">
<title>Node13&#45;&gt;Node18</title>
<path fill="none" stroke="#63b8ff" d="M676.93,-302.12C657.71,-292.67 627.03,-277.59 604.54,-266.53"/>
<polygon fill="#63b8ff" stroke="#63b8ff" points="606.12,-263.41 595.6,-262.14 603.03,-269.69 606.12,-263.41"/>
</g>
<!-- Node19 -->
<g id="node19" class="node">
<title>Node19</title>
<g id="a_node19"><a xlink:href="f__pc__priority_8h.html" target="_top" xlink:title=" ">
<polygon fill="white" stroke="#666666" points="744,-261 646,-261 646,-242 744,-242 744,-261"/>
<text text-anchor="middle" x="695" y="-249" font-family="Helvetica,sans-Serif" font-size="10.00">f_pc/f_pc_priority.h</text>
</a>
</g>
</g>
<!-- Node13&#45;&gt;Node19 -->
<g id="edge24" class="edge">
<title>Node13&#45;&gt;Node19</title>
<path fill="none" stroke="#63b8ff" d="M695,-302.37C695,-294.5 695,-282.6 695,-272.39"/>
<polygon fill="#63b8ff" stroke="#63b8ff" points="698.5,-272.68 695,-262.68 691.5,-272.68 698.5,-272.68"/>
</g>
<!-- Node15 -->
<g id="node15" class="node">
<title>Node15</title>
<g id="a_node15"><a xlink:href="c__tag_8h.html" target="_top" xlink:title=" ">
<polygon fill="white" stroke="#666666" points="753,-151 637,-151 637,-121 753,-121 753,-151"/>
<text text-anchor="start" x="645" y="-139" font-family="Helvetica,sans-Serif" font-size="10.00">SSystem/SComponent</text>
<text text-anchor="middle" x="695" y="-128" font-family="Helvetica,sans-Serif" font-size="10.00">/c_tag.h</text>
</a>
</g>
</g>
<!-- Node14&#45;&gt;Node15 -->
<g id="edge17" class="edge">
<title>Node14&#45;&gt;Node15</title>
<path fill="none" stroke="#63b8ff" d="M813.47,-241.71C803.72,-228.89 784.41,-204.68 765,-187 753.5,-176.53 739.77,-166.3 727.53,-157.85"/>
<polygon fill="#63b8ff" stroke="#63b8ff" points="729.6,-155.03 719.35,-152.33 725.68,-160.83 729.6,-155.03"/>
</g>
<!-- Node15&#45;&gt;Node3 -->
<g id="edge19" class="edge">
<title>Node15&#45;&gt;Node3</title>
<path fill="none" stroke="#63b8ff" d="M636.72,-122.36C582.86,-110.67 503.58,-93.47 451.87,-82.25"/>
<polygon fill="#63b8ff" stroke="#63b8ff" points="452.63,-78.84 442.11,-80.14 451.14,-85.68 452.63,-78.84"/>
</g>
<!-- Node16 -->
<g id="node16" class="node">
<title>Node16</title>
<g id="a_node16"><a xlink:href="c__node_8h.html" target="_top" xlink:title=" ">
<polygon fill="white" stroke="#666666" points="753,-85 637,-85 637,-55 753,-55 753,-85"/>
<text text-anchor="start" x="645" y="-73" font-family="Helvetica,sans-Serif" font-size="10.00">SSystem/SComponent</text>
<text text-anchor="middle" x="695" y="-62" font-family="Helvetica,sans-Serif" font-size="10.00">/c_node.h</text>
</a>
</g>
</g>
<!-- Node15&#45;&gt;Node16 -->
<g id="edge18" class="edge">
<title>Node15&#45;&gt;Node16</title>
<path fill="none" stroke="#63b8ff" d="M695,-120.8C695,-113.67 695,-104.82 695,-96.56"/>
<polygon fill="#63b8ff" stroke="#63b8ff" points="698.5,-96.68 695,-86.68 691.5,-96.68 698.5,-96.68"/>
</g>
<!-- Node17&#45;&gt;Node15 -->
<g id="edge21" class="edge">
<title>Node17&#45;&gt;Node15</title>
<path fill="none" stroke="#63b8ff" d="M929.99,-241.59C888.74,-223.23 793.44,-180.82 737.7,-156.01"/>
<polygon fill="#63b8ff" stroke="#63b8ff" points="739.38,-152.92 728.82,-152.06 736.54,-159.32 739.38,-152.92"/>
</g>
<!-- Node18&#45;&gt;Node15 -->
<g id="edge23" class="edge">
<title>Node18&#45;&gt;Node15</title>
<path fill="none" stroke="#63b8ff" d="M581.79,-241.66C590.47,-228.78 607.79,-204.5 626,-187 637.11,-176.32 650.6,-166.06 662.7,-157.64"/>
<polygon fill="#63b8ff" stroke="#63b8ff" points="664.47,-160.67 670.78,-152.16 660.54,-154.88 664.47,-160.67"/>
</g>
<!-- Node20 -->
<g id="node20" class="node">
<title>Node20</title>
<g id="a_node20"><a xlink:href="f__pc__method__tag_8h.html" target="_top" xlink:title=" ">
<polygon fill="white" stroke="#666666" points="755.5,-206 634.5,-206 634.5,-187 755.5,-187 755.5,-206"/>
<text text-anchor="middle" x="695" y="-194" font-family="Helvetica,sans-Serif" font-size="10.00">f_pc/f_pc_method_tag.h</text>
</a>
</g>
</g>
<!-- Node19&#45;&gt;Node20 -->
<g id="edge25" class="edge">
<title>Node19&#45;&gt;Node20</title>
<path fill="none" stroke="#63b8ff" d="M695,-241.75C695,-235.27 695,-226.16 695,-217.9"/>
<polygon fill="#63b8ff" stroke="#63b8ff" points="698.5,-217.96 695,-207.96 691.5,-217.96 698.5,-217.96"/>
</g>
<!-- Node20&#45;&gt;Node15 -->
<g id="edge26" class="edge">
<title>Node20&#45;&gt;Node15</title>
<path fill="none" stroke="#63b8ff" d="M695,-186.87C695,-180.4 695,-171.2 695,-162.45"/>
<polygon fill="#63b8ff" stroke="#63b8ff" points="698.5,-162.63 695,-152.63 691.5,-162.63 698.5,-162.63"/>
</g>
<!-- Node21&#45;&gt;Node3 -->
<g id="edge31" class="edge">
<title>Node21&#45;&gt;Node3</title>
<path fill="none" stroke="#63b8ff" d="M788.34,-126.04C779.67,-124.26 770.55,-122.48 762,-121 652.16,-101.96 522.55,-85.5 452.07,-77.05"/>
<polygon fill="#63b8ff" stroke="#63b8ff" points="452.7,-73.6 442.36,-75.89 451.88,-80.55 452.7,-73.6"/>
</g>
<!-- Node21&#45;&gt;Node16 -->
<g id="edge29" class="edge">
<title>Node21&#45;&gt;Node16</title>
<path fill="none" stroke="#63b8ff" d="M810.37,-126.1C791.11,-116.9 760.45,-102.26 735.57,-90.38"/>
<polygon fill="#63b8ff" stroke="#63b8ff" points="737.21,-87.28 726.68,-86.13 734.19,-93.6 737.21,-87.28"/>
</g>
<!-- Node22 -->
<g id="node22" class="node">
<title>Node22</title>
<g id="a_node22"><a xlink:href="c__list_8h.html" target="_top" xlink:title=" ">
<polygon fill="white" stroke="#666666" points="887,-85 771,-85 771,-55 887,-55 887,-85"/>
<text text-anchor="start" x="779" y="-73" font-family="Helvetica,sans-Serif" font-size="10.00">SSystem/SComponent</text>
<text text-anchor="middle" x="829" y="-62" font-family="Helvetica,sans-Serif" font-size="10.00">/c_list.h</text>
</a>
</g>
</g>
<!-- Node21&#45;&gt;Node22 -->
<g id="edge28" class="edge">
<title>Node21&#45;&gt;Node22</title>
<path fill="none" stroke="#63b8ff" d="M829,-126.1C829,-118.41 829,-106.92 829,-96.42"/>
<polygon fill="#63b8ff" stroke="#63b8ff" points="832.5,-96.75 829,-86.75 825.5,-96.75 832.5,-96.75"/>
</g>
<!-- Node23 -->
<g id="node23" class="node">
<title>Node23</title>
<g id="a_node23"><a xlink:href="c__tree_8h.html" target="_top" xlink:title=" ">
<polygon fill="white" stroke="#666666" points="1021,-85 905,-85 905,-55 1021,-55 1021,-85"/>
<text text-anchor="start" x="913" y="-73" font-family="Helvetica,sans-Serif" font-size="10.00">SSystem/SComponent</text>
<text text-anchor="middle" x="963" y="-62" font-family="Helvetica,sans-Serif" font-size="10.00">/c_tree.h</text>
</a>
</g>
</g>
<!-- Node21&#45;&gt;Node23 -->
<g id="edge30" class="edge">
<title>Node21&#45;&gt;Node23</title>
<path fill="none" stroke="#63b8ff" d="M847.63,-126.1C866.89,-116.9 897.55,-102.26 922.43,-90.38"/>
<polygon fill="#63b8ff" stroke="#63b8ff" points="923.81,-93.6 931.32,-86.13 920.79,-87.28 923.81,-93.6"/>
</g>
<!-- Node24&#45;&gt;Node3 -->
<g id="edge33" class="edge">
<title>Node24&#45;&gt;Node3</title>
<path fill="none" stroke="#63b8ff" d="M438.99,-302.14C438.77,-274.77 436.71,-189.26 420,-121 417.44,-110.53 413.12,-99.35 409.16,-90.22"/>
<polygon fill="#63b8ff" stroke="#63b8ff" points="412.44,-88.98 405.11,-81.34 406.07,-91.89 412.44,-88.98"/>
</g>
<!-- Node25&#45;&gt;Node3 -->
<g id="edge35" class="edge">
<title>Node25&#45;&gt;Node3</title>
<path fill="none" stroke="#63b8ff" d="M499.01,-126.1C480.04,-115.55 448.17,-97.81 425.72,-85.32"/>
<polygon fill="#63b8ff" stroke="#63b8ff" points="427.62,-82.36 417.18,-80.56 424.21,-88.48 427.62,-82.36"/>
</g>
</g>
</svg>
