<?xml version="1.0" encoding="UTF-8" standalone="no"?>
<!DOCTYPE svg PUBLIC "-//W3C//DTD SVG 1.1//EN"
 "http://www.w3.org/Graphics/SVG/1.1/DTD/svg11.dtd">
<!-- Generated by graphviz version 2.47.0 (20210316.2052)
 -->
<!-- Title: include/f/f_pc/f_pc_stdcreate_req.h Pages: 1 -->
<svg width="1210pt" height="173pt"
 viewBox="0.00 0.00 1209.92 173.00" xmlns="http://www.w3.org/2000/svg" xmlns:xlink="http://www.w3.org/1999/xlink">
<g id="graph0" class="graph" transform="scale(1 1) rotate(0) translate(4 169)">
<title>include/f/f_pc/f_pc_stdcreate_req.h</title>
<polygon fill="white" stroke="transparent" points="-4,4 -4,-169 1205.92,-169 1205.92,4 -4,4"/>
<!-- Node1 -->
<g id="node1" class="node">
<title>Node1</title>
<g id="a_node1"><a xlink:title=" ">
<polygon fill="#bfbfbf" stroke="black" points="357.92,-134.5 357.92,-164.5 454.92,-164.5 454.92,-134.5 357.92,-134.5"/>
<text text-anchor="start" x="365.92" y="-152.5" font-family="Helvetica,sans-Serif" font-size="10.00">include/f/f_pc/f_pc</text>
<text text-anchor="middle" x="406.42" y="-141.5" font-family="Helvetica,sans-Serif" font-size="10.00">_stdcreate_req.h</text>
</a>
</g>
</g>
<!-- Node2 -->
<g id="node2" class="node">
<title>Node2</title>
<g id="a_node2"><a xlink:href="d__stage_8cpp.html" target="_top" xlink:title=" ">
<polygon fill="white" stroke="black" points="199.42,-6 199.42,-25 293.42,-25 293.42,-6 199.42,-6"/>
<text text-anchor="middle" x="246.42" y="-13" font-family="Helvetica,sans-Serif" font-size="10.00">src/d/d_stage.cpp</text>
</a>
</g>
</g>
<!-- Node1&#45;&gt;Node2 -->
<g id="edge1" class="edge">
<title>Node1&#45;&gt;Node2</title>
<path fill="none" stroke="midnightblue" d="M347.8,-145.22C243.2,-138.76 33.28,-122.83 11.42,-98 -43.29,-35.85 115.8,-21.08 199.11,-17.58"/>
<polygon fill="midnightblue" stroke="midnightblue" points="347.69,-148.72 357.88,-145.83 348.12,-141.73 347.69,-148.72"/>
</g>
<!-- Node3 -->
<g id="node3" class="node">
<title>Node3</title>
<g id="a_node3"><a xlink:href="f__op__camera__mng_8cpp.html" target="_top" xlink:title=" ">
<polygon fill="white" stroke="black" points="20.92,-67.5 20.92,-97.5 137.92,-97.5 137.92,-67.5 20.92,-67.5"/>
<text text-anchor="start" x="28.92" y="-85.5" font-family="Helvetica,sans-Serif" font-size="10.00">src/f/f_op/f_op_camera</text>
<text text-anchor="middle" x="79.42" y="-74.5" font-family="Helvetica,sans-Serif" font-size="10.00">_mng.cpp</text>
</a>
</g>
</g>
<!-- Node1&#45;&gt;Node3 -->
<g id="edge2" class="edge">
<title>Node1&#45;&gt;Node3</title>
<path fill="none" stroke="midnightblue" d="M347.54,-137.32C295,-127.28 216.01,-112 147.42,-98 144.35,-97.37 141.2,-96.72 138.01,-96.06"/>
<polygon fill="midnightblue" stroke="midnightblue" points="347.2,-140.82 357.68,-139.26 348.52,-133.95 347.2,-140.82"/>
</g>
<!-- Node4 -->
<g id="node4" class="node">
<title>Node4</title>
<g id="a_node4"><a xlink:href="f__op__kankyo__mng_8cpp.html" target="_top" xlink:title=" ">
<polygon fill="white" stroke="black" points="156.42,-67.5 156.42,-97.5 272.42,-97.5 272.42,-67.5 156.42,-67.5"/>
<text text-anchor="start" x="164.42" y="-85.5" font-family="Helvetica,sans-Serif" font-size="10.00">src/f/f_op/f_op_kankyo</text>
<text text-anchor="middle" x="214.42" y="-74.5" font-family="Helvetica,sans-Serif" font-size="10.00">_mng.cpp</text>
</a>
</g>
</g>
<!-- Node1&#45;&gt;Node4 -->
<g id="edge3" class="edge">
<title>Node1&#45;&gt;Node4</title>
<path fill="none" stroke="midnightblue" d="M355,-131.09C324.01,-120.6 285.04,-107.41 256,-97.58"/>
<polygon fill="midnightblue" stroke="midnightblue" points="354.17,-134.5 364.76,-134.4 356.41,-127.87 354.17,-134.5"/>
</g>
<!-- Node5 -->
<g id="node5" class="node">
<title>Node5</title>
<g id="a_node5"><a xlink:href="f__op__msg__mng_8cpp.html" target="_top" xlink:title=" ">
<polygon fill="white" stroke="black" points="290.42,-67.5 290.42,-97.5 394.42,-97.5 394.42,-67.5 290.42,-67.5"/>
<text text-anchor="start" x="298.42" y="-85.5" font-family="Helvetica,sans-Serif" font-size="10.00">src/f/f_op/f_op_msg</text>
<text text-anchor="middle" x="342.42" y="-74.5" font-family="Helvetica,sans-Serif" font-size="10.00">_mng.cpp</text>
</a>
</g>
</g>
<!-- Node1&#45;&gt;Node5 -->
<g id="edge4" class="edge">
<title>Node1&#45;&gt;Node5</title>
<path fill="none" stroke="midnightblue" d="M385.28,-127.02C375.74,-117.34 364.75,-106.17 356.28,-97.58"/>
<polygon fill="midnightblue" stroke="midnightblue" points="383.02,-129.73 392.54,-134.4 388.01,-124.81 383.02,-129.73"/>
</g>
<!-- Node6 -->
<g id="node6" class="node">
<title>Node6</title>
<g id="a_node6"><a xlink:href="f__op__overlap__req_8cpp.html" target="_top" xlink:title=" ">
<polygon fill="white" stroke="black" points="412.42,-67.5 412.42,-97.5 528.42,-97.5 528.42,-67.5 412.42,-67.5"/>
<text text-anchor="start" x="420.42" y="-85.5" font-family="Helvetica,sans-Serif" font-size="10.00">src/f/f_op/f_op_overlap</text>
<text text-anchor="middle" x="470.42" y="-74.5" font-family="Helvetica,sans-Serif" font-size="10.00">_req.cpp</text>
</a>
</g>
</g>
<!-- Node1&#45;&gt;Node6 -->
<g id="edge5" class="edge">
<title>Node1&#45;&gt;Node6</title>
<path fill="none" stroke="midnightblue" d="M427.57,-127.02C437.1,-117.34 448.1,-106.17 456.56,-97.58"/>
<polygon fill="midnightblue" stroke="midnightblue" points="424.83,-124.81 420.31,-134.4 429.82,-129.73 424.83,-124.81"/>
</g>
<!-- Node7 -->
<g id="node7" class="node">
<title>Node7</title>
<g id="a_node7"><a xlink:href="f__pc__node__req_8cpp.html" target="_top" xlink:title=" ">
<polygon fill="white" stroke="black" points="546.42,-67.5 546.42,-97.5 652.42,-97.5 652.42,-67.5 546.42,-67.5"/>
<text text-anchor="start" x="554.42" y="-85.5" font-family="Helvetica,sans-Serif" font-size="10.00">src/f/f_pc/f_pc_node</text>
<text text-anchor="middle" x="599.42" y="-74.5" font-family="Helvetica,sans-Serif" font-size="10.00">_req.cpp</text>
</a>
</g>
</g>
<!-- Node1&#45;&gt;Node7 -->
<g id="edge6" class="edge">
<title>Node1&#45;&gt;Node7</title>
<path fill="none" stroke="midnightblue" d="M458.11,-131.09C489.27,-120.6 528.43,-107.41 557.63,-97.58"/>
<polygon fill="midnightblue" stroke="midnightblue" points="456.66,-127.89 448.3,-134.4 458.89,-134.52 456.66,-127.89"/>
</g>
<!-- Node8 -->
<g id="node8" class="node">
<title>Node8</title>
<g id="a_node8"><a xlink:href="f__pc__stdcreate__req_8cpp.html" target="_top" xlink:title=" ">
<polygon fill="white" stroke="black" points="670.92,-67.5 670.92,-97.5 795.92,-97.5 795.92,-67.5 670.92,-67.5"/>
<text text-anchor="start" x="678.92" y="-85.5" font-family="Helvetica,sans-Serif" font-size="10.00">src/f/f_pc/f_pc_stdcreate</text>
<text text-anchor="middle" x="733.42" y="-74.5" font-family="Helvetica,sans-Serif" font-size="10.00">_req.cpp</text>
</a>
</g>
</g>
<!-- Node1&#45;&gt;Node8 -->
<g id="edge7" class="edge">
<title>Node1&#45;&gt;Node8</title>
<path fill="none" stroke="midnightblue" d="M465.3,-136.89C516.99,-126.69 594.21,-111.42 661.42,-98 664.42,-97.4 667.49,-96.79 670.6,-96.16"/>
<polygon fill="midnightblue" stroke="midnightblue" points="464.45,-133.5 455.32,-138.87 465.8,-140.36 464.45,-133.5"/>
</g>
<!-- Node9 -->
<g id="node9" class="node">
<title>Node9</title>
<g id="a_node9"><a xlink:href="f__op__actor__mng_8h.html" target="_top" xlink:title=" ">
<polygon fill="white" stroke="black" points="813.92,-67.5 813.92,-97.5 910.92,-97.5 910.92,-67.5 813.92,-67.5"/>
<text text-anchor="start" x="821.92" y="-85.5" font-family="Helvetica,sans-Serif" font-size="10.00">include/f/f_op/f_op</text>
<text text-anchor="middle" x="862.42" y="-74.5" font-family="Helvetica,sans-Serif" font-size="10.00">_actor_mng.h</text>
</a>
</g>
</g>
<!-- Node1&#45;&gt;Node9 -->
<g id="edge8" class="edge">
<title>Node1&#45;&gt;Node9</title>
<path fill="none" stroke="midnightblue" d="M465.06,-143.36C543.17,-135.99 685.44,-120.76 805.42,-98 808.13,-97.49 810.9,-96.92 813.69,-96.32"/>
<polygon fill="midnightblue" stroke="midnightblue" points="464.57,-139.89 454.94,-144.3 465.22,-146.86 464.57,-139.89"/>
</g>
<!-- Node9&#45;&gt;Node2 -->
<g id="edge11" class="edge">
<title>Node9&#45;&gt;Node2</title>
<path fill="none" stroke="midnightblue" d="M803.62,-66.85C609.68,-34.38 388.43,-22.25 293.5,-18.23"/>
<polygon fill="midnightblue" stroke="midnightblue" points="803.27,-70.34 813.71,-68.57 804.44,-63.44 803.27,-70.34"/>
</g>
<!-- Node10 -->
<g id="node10" class="node">
<title>Node10</title>
<g id="a_node10"><a xlink:href="d__attention_8cpp.html" target="_top" xlink:title=" ">
<polygon fill="white" stroke="black" points="564.92,-6 564.92,-25 671.92,-25 671.92,-6 564.92,-6"/>
<text text-anchor="middle" x="618.42" y="-13" font-family="Helvetica,sans-Serif" font-size="10.00">src/d/d_attention.cpp</text>
</a>
</g>
</g>
<!-- Node9&#45;&gt;Node10 -->
<g id="edge9" class="edge">
<title>Node9&#45;&gt;Node10</title>
<path fill="none" stroke="midnightblue" d="M803.96,-65.92C755.81,-53.1 689.34,-35.39 650.42,-25.02"/>
<polygon fill="midnightblue" stroke="midnightblue" points="803.07,-69.31 813.63,-68.5 804.87,-62.55 803.07,-69.31"/>
</g>
<!-- Node11 -->
<g id="node11" class="node">
<title>Node11</title>
<g id="a_node11"><a xlink:href="d__camera_8cpp.html" target="_top" xlink:title=" ">
<polygon fill="white" stroke="black" points="689.42,-6 689.42,-25 791.42,-25 791.42,-6 689.42,-6"/>
<text text-anchor="middle" x="740.42" y="-13" font-family="Helvetica,sans-Serif" font-size="10.00">src/d/d_camera.cpp</text>
</a>
</g>
</g>
<!-- Node9&#45;&gt;Node11 -->
<g id="edge10" class="edge">
<title>Node9&#45;&gt;Node11</title>
<path fill="none" stroke="midnightblue" d="M827.02,-62.64C803.68,-50.2 774.23,-34.51 756.39,-25.01"/>
<polygon fill="midnightblue" stroke="midnightblue" points="825.48,-65.78 835.95,-67.4 828.77,-59.6 825.48,-65.78"/>
</g>
<!-- Node12 -->
<g id="node12" class="node">
<title>Node12</title>
<g id="a_node12"><a xlink:href="f__op__actor__mng_8cpp.html" target="_top" xlink:title=" ">
<polygon fill="white" stroke="black" points="808.92,-0.5 808.92,-30.5 915.92,-30.5 915.92,-0.5 808.92,-0.5"/>
<text text-anchor="start" x="816.92" y="-18.5" font-family="Helvetica,sans-Serif" font-size="10.00">src/f/f_op/f_op_actor</text>
<text text-anchor="middle" x="862.42" y="-7.5" font-family="Helvetica,sans-Serif" font-size="10.00">_mng.cpp</text>
</a>
</g>
</g>
<!-- Node9&#45;&gt;Node12 -->
<g id="edge12" class="edge">
<title>Node9&#45;&gt;Node12</title>
<path fill="none" stroke="midnightblue" d="M862.42,-57.11C862.42,-48.15 862.42,-38.32 862.42,-30.58"/>
<polygon fill="midnightblue" stroke="midnightblue" points="858.92,-57.4 862.42,-67.4 865.92,-57.4 858.92,-57.4"/>
</g>
<!-- Node13 -->
<g id="node13" class="node">
<title>Node13</title>
<g id="a_node13"><a xlink:href="d__a__alink_8cpp.html" target="_top" xlink:title=" ">
<polygon fill="white" stroke="black" points="933.92,-6 933.92,-25 1052.92,-25 1052.92,-6 933.92,-6"/>
<text text-anchor="middle" x="993.42" y="-13" font-family="Helvetica,sans-Serif" font-size="10.00">src/d/d_a/d_a_alink.cpp</text>
</a>
</g>
</g>
<!-- Node9&#45;&gt;Node13 -->
<g id="edge13" class="edge">
<title>Node9&#45;&gt;Node13</title>
<path fill="none" stroke="midnightblue" d="M900.1,-62.8C925.22,-50.34 957.03,-34.56 976.28,-25.01"/>
<polygon fill="midnightblue" stroke="midnightblue" points="898.25,-59.82 890.85,-67.4 901.36,-66.09 898.25,-59.82"/>
</g>
<!-- Node14 -->
<g id="node14" class="node">
<title>Node14</title>
<g id="a_node14"><a xlink:href="m__Do__main_8cpp.html" target="_top" xlink:title=" ">
<polygon fill="white" stroke="black" points="1070.92,-6 1070.92,-25 1201.92,-25 1201.92,-6 1070.92,-6"/>
<text text-anchor="middle" x="1136.42" y="-13" font-family="Helvetica,sans-Serif" font-size="10.00">src/m_Do/m_Do_main.cpp</text>
</a>
</g>
</g>
<!-- Node9&#45;&gt;Node14 -->
<g id="edge14" class="edge">
<title>Node9&#45;&gt;Node14</title>
<path fill="none" stroke="midnightblue" d="M920.95,-67.62C975.39,-54.7 1054.76,-35.87 1100.43,-25.04"/>
<polygon fill="midnightblue" stroke="midnightblue" points="920.01,-64.24 911.09,-69.95 921.63,-71.05 920.01,-64.24"/>
</g>
</g>
</svg>
