<?xml version="1.0" encoding="UTF-8" standalone="no"?>
<!DOCTYPE svg PUBLIC "-//W3C//DTD SVG 1.1//EN"
 "http://www.w3.org/Graphics/SVG/1.1/DTD/svg11.dtd">
<!-- Generated by graphviz version 2.47.0 (20210316.2052)
 -->
<!-- Title: include/f/f_pc/f_pc_node.h Pages: 1 -->
<!--zoomable 307 -->
<svg id="main" version="1.1" xmlns="http://www.w3.org/2000/svg" xmlns:xlink="http://www.w3.org/1999/xlink" xml:space="preserve" onload="init(evt)">
<style type="text/css"><![CDATA[
.edge:hover path { stroke: red; }
.edge:hover polygon { stroke: red; fill: red; }
]]></style>
<script type="text/javascript"><![CDATA[
var edges = document.getElementsByTagName('g');
if (edges && edges.length) {
  for (var i=0;i<edges.length;i++) {
    if (edges[i].id.substr(0,4)=='edge') {
      edges[i].setAttribute('class','edge');
    }
  }
}
]]></script>
        <defs>
                <circle id="rim" cx="0" cy="0" r="7"/>
                <circle id="rim2" cx="0" cy="0" r="3.5"/>
                <g id="zoomPlus">
                        <use xlink:href="#rim" fill="#404040">
                                <set attributeName="fill" to="#808080" begin="zoomplus.mouseover" end="zoomplus.mouseout"/>
                        </use>
                        <path d="M-4,0h8M0,-4v8" fill="none" stroke="white" stroke-width="1.5" pointer-events="none"/>
                </g>
                <g id="zoomMin">
                        <use xlink:href="#rim" fill="#404040">
                                <set attributeName="fill" to="#808080" begin="zoomminus.mouseover" end="zoomminus.mouseout"/>
                        </use>
                        <path d="M-4,0h8" fill="none" stroke="white" stroke-width="1.5" pointer-events="none"/>
                </g>
                <g id="dirArrow">
                        <path fill="none" stroke="white" stroke-width="1.5" d="M0,-3.0v7 M-2.5,-0.5L0,-3.0L2.5,-0.5"/>
                </g>
               <g id="resetDef">
                       <use xlink:href="#rim2" fill="#404040">
                               <set attributeName="fill" to="#808080" begin="reset.mouseover" end="reset.mouseout"/>
                       </use>
               </g>
        </defs>

<script type="text/javascript">
var viewWidth = 1377;
var viewHeight = 307;
var sectionId = 'dynsection-1';
</script>
<script xlink:href="svgpan.js"/>
<svg id="graph" class="graph">
<g id="viewport">
<title>include/f/f_pc/f_pc_node.h</title>
<polygon fill="white" stroke="transparent" points="-4,4 -4,-303 1372.5,-303 1372.5,4 -4,4"/>
<!-- Node1 -->
<g id="node1" class="node">
<title>Node1</title>
<g id="a_node1"><a xlink:title=" ">
<polygon fill="#bfbfbf" stroke="black" points="312.5,-268.5 312.5,-298.5 409.5,-298.5 409.5,-268.5 312.5,-268.5"/>
<text text-anchor="start" x="320.5" y="-286.5" font-family="Helvetica,sans-Serif" font-size="10.00">include/f/f_pc/f_pc</text>
<text text-anchor="middle" x="361" y="-275.5" font-family="Helvetica,sans-Serif" font-size="10.00">_node.h</text>
</a>
</g>
</g>
<!-- Node2 -->
<g id="node2" class="node">
<title>Node2</title>
<g id="a_node2"><a xlink:href="f__pc__deletor_8cpp.html" target="_top" xlink:title=" ">
<polygon fill="white" stroke="black" points="86,-207 86,-226 218,-226 218,-207 86,-207"/>
<text text-anchor="middle" x="152" y="-214" font-family="Helvetica,sans-Serif" font-size="10.00">src/f/f_pc/f_pc_deletor.cpp</text>
</a>
</g>
</g>
<!-- Node1&#45;&gt;Node2 -->
<g id="edge1" class="edge">
<title>Node1&#45;&gt;Node2</title>
<path fill="none" stroke="midnightblue" d="M306.11,-265.43C265.36,-252.75 211.49,-236 179.42,-226.03"/>
<polygon fill="midnightblue" stroke="midnightblue" points="305.32,-268.85 315.91,-268.48 307.4,-262.16 305.32,-268.85"/>
</g>
<!-- Node3 -->
<g id="node3" class="node">
<title>Node3</title>
<g id="a_node3"><a xlink:href="f__pc__executor_8cpp.html" target="_top" xlink:title=" ">
<polygon fill="white" stroke="black" points="0,-140 0,-159 140,-159 140,-140 0,-140"/>
<text text-anchor="middle" x="70" y="-147" font-family="Helvetica,sans-Serif" font-size="10.00">src/f/f_pc/f_pc_executor.cpp</text>
</a>
</g>
</g>
<!-- Node1&#45;&gt;Node3 -->
<g id="edge2" class="edge">
<title>Node1&#45;&gt;Node3</title>
<path fill="none" stroke="midnightblue" d="M323.11,-263.57C305.94,-254.58 285.59,-243.34 268,-232 248.8,-219.63 247.27,-211.53 227,-201 188.76,-181.13 141.22,-167.17 108.53,-159.04"/>
<polygon fill="midnightblue" stroke="midnightblue" points="321.79,-266.83 332.28,-268.32 325.01,-260.62 321.79,-266.83"/>
</g>
<!-- Node4 -->
<g id="node4" class="node">
<title>Node4</title>
<g id="a_node4"><a xlink:href="f__pc__node_8cpp.html" target="_top" xlink:title=" ">
<polygon fill="white" stroke="black" points="705,-207 705,-226 829,-226 829,-207 705,-207"/>
<text text-anchor="middle" x="767" y="-214" font-family="Helvetica,sans-Serif" font-size="10.00">src/f/f_pc/f_pc_node.cpp</text>
</a>
</g>
</g>
<!-- Node1&#45;&gt;Node4 -->
<g id="edge3" class="edge">
<title>Node1&#45;&gt;Node4</title>
<path fill="none" stroke="midnightblue" d="M419.43,-274.54C486.22,-265.25 598.73,-248.96 695,-232 705.17,-230.21 716.11,-228.1 726.32,-226.05"/>
<polygon fill="midnightblue" stroke="midnightblue" points="418.94,-271.08 409.52,-275.92 419.9,-278.01 418.94,-271.08"/>
</g>
<!-- Node5 -->
<g id="node5" class="node">
<title>Node5</title>
<g id="a_node5"><a xlink:href="f__pc__pause_8cpp.html" target="_top" xlink:title=" ">
<polygon fill="white" stroke="black" points="158.5,-140 158.5,-159 287.5,-159 287.5,-140 158.5,-140"/>
<text text-anchor="middle" x="223" y="-147" font-family="Helvetica,sans-Serif" font-size="10.00">src/f/f_pc/f_pc_pause.cpp</text>
</a>
</g>
</g>
<!-- Node1&#45;&gt;Node5 -->
<g id="edge4" class="edge">
<title>Node1&#45;&gt;Node5</title>
<path fill="none" stroke="midnightblue" d="M336.57,-261.97C326.07,-252.96 313.76,-242.14 303,-232 275.87,-206.44 245.44,-174.47 231.19,-159.29"/>
<polygon fill="midnightblue" stroke="midnightblue" points="334.31,-264.65 344.19,-268.47 338.86,-259.32 334.31,-264.65"/>
</g>
<!-- Node6 -->
<g id="node6" class="node">
<title>Node6</title>
<g id="a_node6"><a xlink:href="f__pc__stdcreate__req_8cpp.html" target="_top" xlink:title=" ">
<polygon fill="white" stroke="black" points="847.5,-201.5 847.5,-231.5 972.5,-231.5 972.5,-201.5 847.5,-201.5"/>
<text text-anchor="start" x="855.5" y="-219.5" font-family="Helvetica,sans-Serif" font-size="10.00">src/f/f_pc/f_pc_stdcreate</text>
<text text-anchor="middle" x="910" y="-208.5" font-family="Helvetica,sans-Serif" font-size="10.00">_req.cpp</text>
</a>
</g>
</g>
<!-- Node1&#45;&gt;Node6 -->
<g id="edge5" class="edge">
<title>Node1&#45;&gt;Node6</title>
<path fill="none" stroke="midnightblue" d="M419.64,-278.06C509.86,-270.84 688,-254.99 838,-232 841.02,-231.54 844.12,-231.03 847.23,-230.5"/>
<polygon fill="midnightblue" stroke="midnightblue" points="419.3,-274.58 409.6,-278.86 419.85,-281.56 419.3,-274.58"/>
</g>
<!-- Node7 -->
<g id="node7" class="node">
<title>Node7</title>
<g id="a_node7"><a xlink:href="f__pc__node__req_8h.html" target="_top" xlink:title=" ">
<polygon fill="white" stroke="black" points="589.5,-201.5 589.5,-231.5 686.5,-231.5 686.5,-201.5 589.5,-201.5"/>
<text text-anchor="start" x="597.5" y="-219.5" font-family="Helvetica,sans-Serif" font-size="10.00">include/f/f_pc/f_pc</text>
<text text-anchor="middle" x="638" y="-208.5" font-family="Helvetica,sans-Serif" font-size="10.00">_node_req.h</text>
</a>
</g>
</g>
<!-- Node1&#45;&gt;Node7 -->
<g id="edge6" class="edge">
<title>Node1&#45;&gt;Node7</title>
<path fill="none" stroke="midnightblue" d="M419.37,-268.8C469.89,-256.95 542.09,-240.01 589.49,-228.88"/>
<polygon fill="midnightblue" stroke="midnightblue" points="418.5,-265.41 409.57,-271.1 420.1,-272.23 418.5,-265.41"/>
</g>
<!-- Node25 -->
<g id="node25" class="node">
<title>Node25</title>
<g id="a_node25"><a xlink:href="f__pc__pause_8h.html" target="_top" xlink:title=" ">
<polygon fill="white" stroke="black" points="312.5,-201.5 312.5,-231.5 409.5,-231.5 409.5,-201.5 312.5,-201.5"/>
<text text-anchor="start" x="320.5" y="-219.5" font-family="Helvetica,sans-Serif" font-size="10.00">include/f/f_pc/f_pc</text>
<text text-anchor="middle" x="361" y="-208.5" font-family="Helvetica,sans-Serif" font-size="10.00">_pause.h</text>
</a>
</g>
</g>
<!-- Node1&#45;&gt;Node25 -->
<g id="edge26" class="edge">
<title>Node1&#45;&gt;Node25</title>
<path fill="none" stroke="midnightblue" d="M361,-258.11C361,-249.15 361,-239.32 361,-231.58"/>
<polygon fill="midnightblue" stroke="midnightblue" points="357.5,-258.4 361,-268.4 364.5,-258.4 357.5,-258.4"/>
</g>
<!-- Node8 -->
<g id="node8" class="node">
<title>Node8</title>
<g id="a_node8"><a xlink:href="f__pc__manager_8cpp.html" target="_top" xlink:title=" ">
<polygon fill="white" stroke="black" points="296,-73 296,-92 436,-92 436,-73 296,-73"/>
<text text-anchor="middle" x="366" y="-80" font-family="Helvetica,sans-Serif" font-size="10.00">src/f/f_pc/f_pc_manager.cpp</text>
</a>
</g>
</g>
<!-- Node7&#45;&gt;Node8 -->
<g id="edge7" class="edge">
<title>Node7&#45;&gt;Node8</title>
<path fill="none" stroke="midnightblue" d="M638.93,-191.31C638.25,-173.06 634.2,-148.72 619,-134 615.26,-130.38 483.75,-105.43 411.86,-92"/>
<polygon fill="midnightblue" stroke="midnightblue" points="635.43,-191.52 638.98,-201.5 642.43,-191.48 635.43,-191.52"/>
</g>
<!-- Node9 -->
<g id="node9" class="node">
<title>Node9</title>
<g id="a_node9"><a xlink:href="f__pc__node__req_8cpp.html" target="_top" xlink:title=" ">
<polygon fill="white" stroke="black" points="781,-134.5 781,-164.5 887,-164.5 887,-134.5 781,-134.5"/>
<text text-anchor="start" x="789" y="-152.5" font-family="Helvetica,sans-Serif" font-size="10.00">src/f/f_pc/f_pc_node</text>
<text text-anchor="middle" x="834" y="-141.5" font-family="Helvetica,sans-Serif" font-size="10.00">_req.cpp</text>
</a>
</g>
</g>
<!-- Node7&#45;&gt;Node9 -->
<g id="edge8" class="edge">
<title>Node7&#45;&gt;Node9</title>
<path fill="none" stroke="midnightblue" d="M690.08,-198.23C721.79,-187.71 761.78,-174.45 791.55,-164.58"/>
<polygon fill="midnightblue" stroke="midnightblue" points="688.92,-194.93 680.53,-201.4 691.12,-201.57 688.92,-194.93"/>
</g>
<!-- Node10 -->
<g id="node10" class="node">
<title>Node10</title>
<g id="a_node10"><a xlink:href="f__op__scene__req_8h.html" target="_top" xlink:title=" ">
<polygon fill="white" stroke="black" points="1135.5,-134.5 1135.5,-164.5 1232.5,-164.5 1232.5,-134.5 1135.5,-134.5"/>
<text text-anchor="start" x="1143.5" y="-152.5" font-family="Helvetica,sans-Serif" font-size="10.00">include/f/f_op/f_op</text>
<text text-anchor="middle" x="1184" y="-141.5" font-family="Helvetica,sans-Serif" font-size="10.00">_scene_req.h</text>
</a>
</g>
</g>
<!-- Node7&#45;&gt;Node10 -->
<g id="edge9" class="edge">
<title>Node7&#45;&gt;Node10</title>
<path fill="none" stroke="midnightblue" d="M696.54,-201.08C862.83,-172.42 1048.72,-158.63 1135.2,-153.25"/>
<polygon fill="midnightblue" stroke="midnightblue" points="695.88,-197.64 686.63,-202.81 697.08,-204.54 695.88,-197.64"/>
</g>
<!-- Node13 -->
<g id="node13" class="node">
<title>Node13</title>
<g id="a_node13"><a xlink:href="f__pc__manager_8h.html" target="_top" xlink:title=" ">
<polygon fill="white" stroke="black" points="666.5,-134.5 666.5,-164.5 763.5,-164.5 763.5,-134.5 666.5,-134.5"/>
<text text-anchor="start" x="674.5" y="-152.5" font-family="Helvetica,sans-Serif" font-size="10.00">include/f/f_pc/f_pc</text>
<text text-anchor="middle" x="715" y="-141.5" font-family="Helvetica,sans-Serif" font-size="10.00">_manager.h</text>
</a>
</g>
</g>
<!-- Node7&#45;&gt;Node13 -->
<g id="edge12" class="edge">
<title>Node7&#45;&gt;Node13</title>
<path fill="none" stroke="midnightblue" d="M662.42,-194.88C674.12,-185.01 687.84,-173.43 698.32,-164.58"/>
<polygon fill="midnightblue" stroke="midnightblue" points="660.09,-192.27 654.71,-201.4 664.61,-197.62 660.09,-192.27"/>
</g>
<!-- Node11 -->
<g id="node11" class="node">
<title>Node11</title>
<g id="a_node11"><a xlink:href="f__op__scene__mng_8cpp.html" target="_top" xlink:title=" ">
<polygon fill="white" stroke="black" points="1128.5,-67.5 1128.5,-97.5 1239.5,-97.5 1239.5,-67.5 1128.5,-67.5"/>
<text text-anchor="start" x="1136.5" y="-85.5" font-family="Helvetica,sans-Serif" font-size="10.00">src/f/f_op/f_op_scene</text>
<text text-anchor="middle" x="1184" y="-74.5" font-family="Helvetica,sans-Serif" font-size="10.00">_mng.cpp</text>
</a>
</g>
</g>
<!-- Node10&#45;&gt;Node11 -->
<g id="edge10" class="edge">
<title>Node10&#45;&gt;Node11</title>
<path fill="none" stroke="midnightblue" d="M1184,-124.11C1184,-115.15 1184,-105.32 1184,-97.58"/>
<polygon fill="midnightblue" stroke="midnightblue" points="1180.5,-124.4 1184,-134.4 1187.5,-124.4 1180.5,-124.4"/>
</g>
<!-- Node12 -->
<g id="node12" class="node">
<title>Node12</title>
<g id="a_node12"><a xlink:href="f__op__scene__req_8cpp.html" target="_top" xlink:title=" ">
<polygon fill="white" stroke="black" points="1257.5,-67.5 1257.5,-97.5 1368.5,-97.5 1368.5,-67.5 1257.5,-67.5"/>
<text text-anchor="start" x="1265.5" y="-85.5" font-family="Helvetica,sans-Serif" font-size="10.00">src/f/f_op/f_op_scene</text>
<text text-anchor="middle" x="1313" y="-74.5" font-family="Helvetica,sans-Serif" font-size="10.00">_req.cpp</text>
</a>
</g>
</g>
<!-- Node10&#45;&gt;Node12 -->
<g id="edge11" class="edge">
<title>Node10&#45;&gt;Node12</title>
<path fill="none" stroke="midnightblue" d="M1221.01,-129.85C1241.4,-119.58 1266.31,-107.03 1285.06,-97.58"/>
<polygon fill="midnightblue" stroke="midnightblue" points="1219.35,-126.77 1211.99,-134.4 1222.5,-133.02 1219.35,-126.77"/>
</g>
<!-- Node13&#45;&gt;Node8 -->
<g id="edge18" class="edge">
<title>Node13&#45;&gt;Node8</title>
<path fill="none" stroke="midnightblue" d="M656.38,-134.9C654.91,-134.59 653.44,-134.29 652,-134 560.47,-115.52 536.92,-114.43 445,-98 434.29,-96.09 422.78,-93.99 411.94,-92.01"/>
<polygon fill="midnightblue" stroke="midnightblue" points="655.71,-138.33 666.22,-137 657.17,-131.49 655.71,-138.33"/>
</g>
<!-- Node14 -->
<g id="node14" class="node">
<title>Node14</title>
<g id="a_node14"><a xlink:href="f__ap__game_8cpp.html" target="_top" xlink:title=" ">
<polygon fill="white" stroke="black" points="454.5,-73 454.5,-92 559.5,-92 559.5,-73 454.5,-73"/>
<text text-anchor="middle" x="507" y="-80" font-family="Helvetica,sans-Serif" font-size="10.00">src/f/f_ap_game.cpp</text>
</a>
</g>
</g>
<!-- Node13&#45;&gt;Node14 -->
<g id="edge13" class="edge">
<title>Node13&#45;&gt;Node14</title>
<path fill="none" stroke="midnightblue" d="M660.38,-131.43C619.81,-118.75 566.2,-102 534.29,-92.03"/>
<polygon fill="midnightblue" stroke="midnightblue" points="659.53,-134.83 670.12,-134.48 661.62,-128.15 659.53,-134.83"/>
</g>
<!-- Node15 -->
<g id="node15" class="node">
<title>Node15</title>
<g id="a_node15"><a xlink:href="d__a__alink_8cpp.html" target="_top" xlink:title=" ">
<polygon fill="white" stroke="black" points="352.5,-6 352.5,-25 471.5,-25 471.5,-6 352.5,-6"/>
<text text-anchor="middle" x="412" y="-13" font-family="Helvetica,sans-Serif" font-size="10.00">src/d/d_a/d_a_alink.cpp</text>
</a>
</g>
</g>
<!-- Node13&#45;&gt;Node15 -->
<g id="edge14" class="edge">
<title>Node13&#45;&gt;Node15</title>
<path fill="none" stroke="midnightblue" d="M670.89,-130.29C651.13,-121.48 627.86,-110.18 608,-98 588.83,-86.24 587.89,-77.51 568,-67 530.25,-47.05 483.18,-33.14 450.67,-25.04"/>
<polygon fill="midnightblue" stroke="midnightblue" points="669.71,-133.6 680.28,-134.41 672.52,-127.19 669.71,-133.6"/>
</g>
<!-- Node16 -->
<g id="node16" class="node">
<title>Node16</title>
<g id="a_node16"><a xlink:href="f__op__kankyo__mng_8cpp.html" target="_top" xlink:title=" ">
<polygon fill="white" stroke="black" points="731,-67.5 731,-97.5 847,-97.5 847,-67.5 731,-67.5"/>
<text text-anchor="start" x="739" y="-85.5" font-family="Helvetica,sans-Serif" font-size="10.00">src/f/f_op/f_op_kankyo</text>
<text text-anchor="middle" x="789" y="-74.5" font-family="Helvetica,sans-Serif" font-size="10.00">_mng.cpp</text>
</a>
</g>
</g>
<!-- Node13&#45;&gt;Node16 -->
<g id="edge15" class="edge">
<title>Node13&#45;&gt;Node16</title>
<path fill="none" stroke="midnightblue" d="M738.8,-127.6C749.97,-117.78 762.99,-106.34 772.97,-97.58"/>
<polygon fill="midnightblue" stroke="midnightblue" points="736.26,-125.17 731.06,-134.4 740.88,-130.43 736.26,-125.17"/>
</g>
<!-- Node17 -->
<g id="node17" class="node">
<title>Node17</title>
<g id="a_node17"><a xlink:href="f__op__overlap__req_8cpp.html" target="_top" xlink:title=" ">
<polygon fill="white" stroke="black" points="865,-67.5 865,-97.5 981,-97.5 981,-67.5 865,-67.5"/>
<text text-anchor="start" x="873" y="-85.5" font-family="Helvetica,sans-Serif" font-size="10.00">src/f/f_op/f_op_overlap</text>
<text text-anchor="middle" x="923" y="-74.5" font-family="Helvetica,sans-Serif" font-size="10.00">_req.cpp</text>
</a>
</g>
</g>
<!-- Node13&#45;&gt;Node17 -->
<g id="edge16" class="edge">
<title>Node13&#45;&gt;Node17</title>
<path fill="none" stroke="midnightblue" d="M769.58,-131.44C803.3,-120.91 846.04,-107.55 877.85,-97.61"/>
<polygon fill="midnightblue" stroke="midnightblue" points="768.38,-128.15 759.88,-134.48 770.47,-134.83 768.38,-128.15"/>
</g>
<!-- Node18 -->
<g id="node18" class="node">
<title>Node18</title>
<g id="a_node18"><a xlink:href="f__op__scene__pause_8cpp.html" target="_top" xlink:title=" ">
<polygon fill="white" stroke="black" points="999.5,-67.5 999.5,-97.5 1110.5,-97.5 1110.5,-67.5 999.5,-67.5"/>
<text text-anchor="start" x="1007.5" y="-85.5" font-family="Helvetica,sans-Serif" font-size="10.00">src/f/f_op/f_op_scene</text>
<text text-anchor="middle" x="1055" y="-74.5" font-family="Helvetica,sans-Serif" font-size="10.00">_pause.cpp</text>
</a>
</g>
</g>
<!-- Node13&#45;&gt;Node18 -->
<g id="edge17" class="edge">
<title>Node13&#45;&gt;Node18</title>
<path fill="none" stroke="midnightblue" d="M773.6,-133.76C869.83,-114.04 896.7,-116.1 990,-98 993.06,-97.41 996.21,-96.78 999.37,-96.12"/>
<polygon fill="midnightblue" stroke="midnightblue" points="772.83,-130.35 763.75,-135.81 774.26,-137.2 772.83,-130.35"/>
</g>
<!-- Node19 -->
<g id="node19" class="node">
<title>Node19</title>
<g id="a_node19"><a xlink:href="f__op__actor__mng_8h.html" target="_top" xlink:title=" ">
<polygon fill="white" stroke="black" points="616.5,-67.5 616.5,-97.5 713.5,-97.5 713.5,-67.5 616.5,-67.5"/>
<text text-anchor="start" x="624.5" y="-85.5" font-family="Helvetica,sans-Serif" font-size="10.00">include/f/f_op/f_op</text>
<text text-anchor="middle" x="665" y="-74.5" font-family="Helvetica,sans-Serif" font-size="10.00">_actor_mng.h</text>
</a>
</g>
</g>
<!-- Node13&#45;&gt;Node19 -->
<g id="edge19" class="edge">
<title>Node13&#45;&gt;Node19</title>
<path fill="none" stroke="midnightblue" d="M698.04,-126.45C690.69,-116.9 682.31,-106 675.83,-97.58"/>
<polygon fill="midnightblue" stroke="midnightblue" points="695.28,-128.6 704.15,-134.4 700.83,-124.34 695.28,-128.6"/>
</g>
<!-- Node19&#45;&gt;Node15 -->
<g id="edge23" class="edge">
<title>Node19&#45;&gt;Node15</title>
<path fill="none" stroke="midnightblue" d="M606.5,-66.47C556.47,-53.62 486.25,-35.58 445.3,-25.06"/>
<polygon fill="midnightblue" stroke="midnightblue" points="605.66,-69.87 616.22,-68.97 607.4,-63.09 605.66,-69.87"/>
</g>
<!-- Node20 -->
<g id="node20" class="node">
<title>Node20</title>
<g id="a_node20"><a xlink:href="d__attention_8cpp.html" target="_top" xlink:title=" ">
<polygon fill="white" stroke="black" points="489.5,-6 489.5,-25 596.5,-25 596.5,-6 489.5,-6"/>
<text text-anchor="middle" x="543" y="-13" font-family="Helvetica,sans-Serif" font-size="10.00">src/d/d_attention.cpp</text>
</a>
</g>
</g>
<!-- Node19&#45;&gt;Node20 -->
<g id="edge20" class="edge">
<title>Node19&#45;&gt;Node20</title>
<path fill="none" stroke="midnightblue" d="M629.6,-62.64C606.26,-50.2 576.81,-34.51 558.97,-25.01"/>
<polygon fill="midnightblue" stroke="midnightblue" points="628.06,-65.78 638.53,-67.4 631.35,-59.6 628.06,-65.78"/>
</g>
<!-- Node21 -->
<g id="node21" class="node">
<title>Node21</title>
<g id="a_node21"><a xlink:href="d__camera_8cpp.html" target="_top" xlink:title=" ">
<polygon fill="white" stroke="black" points="614,-6 614,-25 716,-25 716,-6 614,-6"/>
<text text-anchor="middle" x="665" y="-13" font-family="Helvetica,sans-Serif" font-size="10.00">src/d/d_camera.cpp</text>
</a>
</g>
</g>
<!-- Node19&#45;&gt;Node21 -->
<g id="edge21" class="edge">
<title>Node19&#45;&gt;Node21</title>
<path fill="none" stroke="midnightblue" d="M665,-57.25C665,-46.02 665,-33.38 665,-25.19"/>
<polygon fill="midnightblue" stroke="midnightblue" points="661.5,-57.4 665,-67.4 668.5,-57.4 661.5,-57.4"/>
</g>
<!-- Node22 -->
<g id="node22" class="node">
<title>Node22</title>
<g id="a_node22"><a xlink:href="d__stage_8cpp.html" target="_top" xlink:title=" ">
<polygon fill="white" stroke="black" points="734,-6 734,-25 828,-25 828,-6 734,-6"/>
<text text-anchor="middle" x="781" y="-13" font-family="Helvetica,sans-Serif" font-size="10.00">src/d/d_stage.cpp</text>
</a>
</g>
</g>
<!-- Node19&#45;&gt;Node22 -->
<g id="edge22" class="edge">
<title>Node19&#45;&gt;Node22</title>
<path fill="none" stroke="midnightblue" d="M698.96,-62.47C721.1,-50.06 748.93,-34.47 765.82,-25.01"/>
<polygon fill="midnightblue" stroke="midnightblue" points="697.18,-59.45 690.17,-67.4 700.6,-65.56 697.18,-59.45"/>
</g>
<!-- Node23 -->
<g id="node23" class="node">
<title>Node23</title>
<g id="a_node23"><a xlink:href="f__op__actor__mng_8cpp.html" target="_top" xlink:title=" ">
<polygon fill="white" stroke="black" points="846.5,-0.5 846.5,-30.5 953.5,-30.5 953.5,-0.5 846.5,-0.5"/>
<text text-anchor="start" x="854.5" y="-18.5" font-family="Helvetica,sans-Serif" font-size="10.00">src/f/f_op/f_op_actor</text>
<text text-anchor="middle" x="900" y="-7.5" font-family="Helvetica,sans-Serif" font-size="10.00">_mng.cpp</text>
</a>
</g>
</g>
<!-- Node19&#45;&gt;Node23 -->
<g id="edge24" class="edge">
<title>Node19&#45;&gt;Node23</title>
<path fill="none" stroke="midnightblue" d="M723.76,-65.25C762.4,-54.56 812.46,-40.71 849.34,-30.51"/>
<polygon fill="midnightblue" stroke="midnightblue" points="722.4,-61.99 713.69,-68.03 724.26,-68.74 722.4,-61.99"/>
</g>
<!-- Node24 -->
<g id="node24" class="node">
<title>Node24</title>
<g id="a_node24"><a xlink:href="m__Do__main_8cpp.html" target="_top" xlink:title=" ">
<polygon fill="white" stroke="black" points="971.5,-6 971.5,-25 1102.5,-25 1102.5,-6 971.5,-6"/>
<text text-anchor="middle" x="1037" y="-13" font-family="Helvetica,sans-Serif" font-size="10.00">src/m_Do/m_Do_main.cpp</text>
</a>
</g>
</g>
<!-- Node19&#45;&gt;Node24 -->
<g id="edge25" class="edge">
<title>Node19&#45;&gt;Node24</title>
<path fill="none" stroke="midnightblue" d="M723.58,-66.79C829.88,-45.83 859.4,-48.88 963,-31 973.45,-29.2 984.7,-27.08 995.19,-25.04"/>
<polygon fill="midnightblue" stroke="midnightblue" points="722.86,-63.37 713.74,-68.76 724.24,-70.23 722.86,-63.37"/>
</g>
<!-- Node25&#45;&gt;Node3 -->
<g id="edge29" class="edge">
<title>Node25&#45;&gt;Node3</title>
<path fill="none" stroke="midnightblue" d="M302.19,-202.36C244.31,-189.44 157.62,-170.07 108.17,-159.03"/>
<polygon fill="midnightblue" stroke="midnightblue" points="301.77,-205.86 312.29,-204.62 303.3,-199.02 301.77,-205.86"/>
</g>
<!-- Node25&#45;&gt;Node5 -->
<g id="edge31" class="edge">
<title>Node25&#45;&gt;Node5</title>
<path fill="none" stroke="midnightblue" d="M322,-197.13C295.44,-184.62 261.51,-168.64 241.06,-159.01"/>
<polygon fill="midnightblue" stroke="midnightblue" points="320.52,-200.3 331.06,-201.4 323.5,-193.97 320.52,-200.3"/>
</g>
<!-- Node25&#45;&gt;Node8 -->
<g id="edge30" class="edge">
<title>Node25&#45;&gt;Node8</title>
<path fill="none" stroke="midnightblue" d="M346.23,-192.47C341.69,-184.15 337.29,-174.47 335,-165 331.76,-151.61 331.26,-147.26 335,-134 339.59,-117.76 351.02,-101.6 358.64,-92.09"/>
<polygon fill="midnightblue" stroke="midnightblue" points="343.25,-194.32 351.3,-201.21 349.3,-190.8 343.25,-194.32"/>
</g>
<!-- Node26 -->
<g id="node26" class="node">
<title>Node26</title>
<g id="a_node26"><a xlink:href="f__pc__base_8cpp.html" target="_top" xlink:title=" ">
<polygon fill="white" stroke="black" points="344,-140 344,-159 468,-159 468,-140 344,-140"/>
<text text-anchor="middle" x="406" y="-147" font-family="Helvetica,sans-Serif" font-size="10.00">src/f/f_pc/f_pc_base.cpp</text>
</a>
</g>
</g>
<!-- Node25&#45;&gt;Node26 -->
<g id="edge27" class="edge">
<title>Node25&#45;&gt;Node26</title>
<path fill="none" stroke="midnightblue" d="M376.59,-192.97C384.65,-181.33 394.02,-167.8 399.98,-159.19"/>
<polygon fill="midnightblue" stroke="midnightblue" points="373.58,-191.18 370.76,-201.4 379.33,-195.17 373.58,-191.18"/>
</g>
<!-- Node27 -->
<g id="node27" class="node">
<title>Node27</title>
<g id="a_node27"><a xlink:href="f__pc__draw_8cpp.html" target="_top" xlink:title=" ">
<polygon fill="white" stroke="black" points="486,-140 486,-159 610,-159 610,-140 486,-140"/>
<text text-anchor="middle" x="548" y="-147" font-family="Helvetica,sans-Serif" font-size="10.00">src/f/f_pc/f_pc_draw.cpp</text>
</a>
</g>
</g>
<!-- Node25&#45;&gt;Node27 -->
<g id="edge28" class="edge">
<title>Node25&#45;&gt;Node27</title>
<path fill="none" stroke="midnightblue" d="M411.04,-198.11C447.42,-185.46 495.09,-168.89 523.53,-159.01"/>
<polygon fill="midnightblue" stroke="midnightblue" points="409.87,-194.81 401.58,-201.4 412.17,-201.42 409.87,-194.81"/>
</g>
</g>
</svg>
        <g id="navigator" transform="translate(0 0)" fill="#404254">
                <rect fill="#f2f5e9" fill-opacity="0.5" stroke="#606060" stroke-width=".5" x="0" y="0" width="60" height="60"/>
                <use id="zoomplus" xlink:href="#zoomPlus" x="17" y="9" onmousedown="handleZoom(evt,'in')"/>
                <use id="zoomminus" xlink:href="#zoomMin" x="42" y="9" onmousedown="handleZoom(evt,'out')"/>
                <use id="reset" xlink:href="#resetDef" x="30" y="36" onmousedown="handleReset()"/>
                <g id="arrowUp" xlink:href="#dirArrow" transform="translate(30 24)" onmousedown="handlePan(0,-1)">
                  <use xlink:href="#rim" fill="#404040">
                        <set attributeName="fill" to="#808080" begin="arrowUp.mouseover" end="arrowUp.mouseout"/>
                  </use>
                  <path fill="none" stroke="white" stroke-width="1.5" d="M0,-3.0v7 M-2.5,-0.5L0,-3.0L2.5,-0.5"/>
                </g>
                <g id="arrowRight" xlink:href="#dirArrow" transform="rotate(90) translate(36 -43)" onmousedown="handlePan(1,0)">
                  <use xlink:href="#rim" fill="#404040">
                        <set attributeName="fill" to="#808080" begin="arrowRight.mouseover" end="arrowRight.mouseout"/>
                  </use>
                  <path fill="none" stroke="white" stroke-width="1.5" d="M0,-3.0v7 M-2.5,-0.5L0,-3.0L2.5,-0.5"/>
                </g>
                <g id="arrowDown" xlink:href="#dirArrow" transform="rotate(180) translate(-30 -48)" onmousedown="handlePan(0,1)">
                  <use xlink:href="#rim" fill="#404040">
                        <set attributeName="fill" to="#808080" begin="arrowDown.mouseover" end="arrowDown.mouseout"/>
                  </use>
                  <path fill="none" stroke="white" stroke-width="1.5" d="M0,-3.0v7 M-2.5,-0.5L0,-3.0L2.5,-0.5"/>
                </g>
                <g id="arrowLeft" xlink:href="#dirArrow" transform="rotate(270) translate(-36 17)" onmousedown="handlePan(-1,0)">
                  <use xlink:href="#rim" fill="#404040">
                        <set attributeName="fill" to="#808080" begin="arrowLeft.mouseover" end="arrowLeft.mouseout"/>
                  </use>
                  <path fill="none" stroke="white" stroke-width="1.5" d="M0,-3.0v7 M-2.5,-0.5L0,-3.0L2.5,-0.5"/>
                </g>
        </g>
        <svg viewBox="0 0 15 15" width="100%" height="30px" preserveAspectRatio="xMaxYMin meet">
         <g id="arrow_out" transform="scale(0.3 0.3)">
          <a xlink:href="f__pc__node_8h__dep__incl_org.svg" target="_base">
           <rect id="button" ry="5" rx="5" y="6" x="6" height="38" width="38"
                fill="#f2f5e9" fill-opacity="0.5" stroke="#606060" stroke-width="1.0"/>
           <path id="arrow"
             d="M 11.500037,31.436501 C 11.940474,20.09759 22.043105,11.32322 32.158766,21.979434 L 37.068811,17.246167 C 37.068811,17.246167 37.088388,32 37.088388,32 L 22.160133,31.978069 C 22.160133,31.978069 26.997745,27.140456 26.997745,27.140456 C 18.528582,18.264221 13.291696,25.230495 11.500037,31.436501 z"
             style="fill:#404040;"/>
          </a>
         </g>
        </svg>
</svg>
