<?xml version="1.0" encoding="UTF-8" standalone="no"?>
<!DOCTYPE svg PUBLIC "-//W3C//DTD SVG 1.1//EN"
 "http://www.w3.org/Graphics/SVG/1.1/DTD/svg11.dtd">
<!-- Generated by graphviz version 7.0.5 (20221223.1930)
 -->
<!-- Title: src/f_pc/f_pc_line_tag.cpp Pages: 1 -->
<svg width="316pt" height="280pt"
 viewBox="0.00 0.00 316.00 280.00" xmlns="http://www.w3.org/2000/svg" xmlns:xlink="http://www.w3.org/1999/xlink">
<g id="graph0" class="graph" transform="scale(1 1) rotate(0) translate(4 276)">
<title>src/f_pc/f_pc_line_tag.cpp</title>
<!-- Node1 -->
<g id="node1" class="node">
<title>Node1</title>
<g id="a_node1"><a xlink:title=" ">
<polygon fill="#999999" stroke="#666666" points="229,-272 135,-272 135,-242 229,-242 229,-272"/>
<text text-anchor="start" x="143" y="-260" font-family="Helvetica,sans-Serif" font-size="10.00">src/f_pc/f_pc_line</text>
<text text-anchor="middle" x="182" y="-249" font-family="Helvetica,sans-Serif" font-size="10.00">_tag.cpp</text>
</a>
</g>
</g>
<!-- Node2 -->
<g id="node2" class="node">
<title>Node2</title>
<g id="a_node2"><a xlink:href="f__pc__line__tag_8h.html" target="_top" xlink:title=" ">
<polygon fill="white" stroke="#666666" points="178,-206 74,-206 74,-187 178,-187 178,-206"/>
<text text-anchor="middle" x="126" y="-194" font-family="Helvetica,sans-Serif" font-size="10.00">f_pc/f_pc_line_tag.h</text>
</a>
</g>
</g>
<!-- Node1&#45;&gt;Node2 -->
<g id="edge1" class="edge">
<title>Node1&#45;&gt;Node2</title>
<path fill="none" stroke="#63b8ff" d="M168.16,-241.54C160.27,-233.3 150.36,-222.94 142.12,-214.34"/>
<polygon fill="#63b8ff" stroke="#63b8ff" points="144.79,-212.07 135.35,-207.27 139.74,-216.91 144.79,-212.07"/>
</g>
<!-- Node7 -->
<g id="node7" class="node">
<title>Node7</title>
<g id="a_node7"><a xlink:href="f__pc__line_8h.html" target="_top" xlink:title=" ">
<polygon fill="white" stroke="#666666" points="286.5,-206 201.5,-206 201.5,-187 286.5,-187 286.5,-206"/>
<text text-anchor="middle" x="244" y="-194" font-family="Helvetica,sans-Serif" font-size="10.00">f_pc/f_pc_line.h</text>
</a>
</g>
</g>
<!-- Node1&#45;&gt;Node7 -->
<g id="edge6" class="edge">
<title>Node1&#45;&gt;Node7</title>
<path fill="none" stroke="#63b8ff" d="M197.33,-241.54C206.15,-233.22 217.27,-222.72 226.44,-214.07"/>
<polygon fill="#63b8ff" stroke="#63b8ff" points="228.83,-216.62 233.7,-207.21 224.03,-211.53 228.83,-216.62"/>
</g>
<!-- Node3 -->
<g id="node3" class="node">
<title>Node3</title>
<g id="a_node3"><a xlink:href="c__tag_8h.html" target="_top" xlink:title=" ">
<polygon fill="white" stroke="#666666" points="174,-151 58,-151 58,-121 174,-121 174,-151"/>
<text text-anchor="start" x="66" y="-139" font-family="Helvetica,sans-Serif" font-size="10.00">SSystem/SComponent</text>
<text text-anchor="middle" x="116" y="-128" font-family="Helvetica,sans-Serif" font-size="10.00">/c_tag.h</text>
</a>
</g>
</g>
<!-- Node2&#45;&gt;Node3 -->
<g id="edge2" class="edge">
<title>Node2&#45;&gt;Node3</title>
<path fill="none" stroke="#63b8ff" d="M124.52,-186.87C123.42,-180.4 121.85,-171.2 120.35,-162.45"/>
<polygon fill="#63b8ff" stroke="#63b8ff" points="123.8,-161.87 118.67,-152.61 116.9,-163.05 123.8,-161.87"/>
</g>
<!-- Node4 -->
<g id="node4" class="node">
<title>Node4</title>
<g id="a_node4"><a xlink:href="c__node_8h.html" target="_top" xlink:title=" ">
<polygon fill="white" stroke="#666666" points="116,-85 0,-85 0,-55 116,-55 116,-85"/>
<text text-anchor="start" x="8" y="-73" font-family="Helvetica,sans-Serif" font-size="10.00">SSystem/SComponent</text>
<text text-anchor="middle" x="58" y="-62" font-family="Helvetica,sans-Serif" font-size="10.00">/c_node.h</text>
</a>
</g>
</g>
<!-- Node3&#45;&gt;Node4 -->
<g id="edge3" class="edge">
<title>Node3&#45;&gt;Node4</title>
<path fill="none" stroke="#63b8ff" d="M103.13,-120.8C95.84,-112.76 86.57,-102.53 78.33,-93.43"/>
<polygon fill="#63b8ff" stroke="#63b8ff" points="81.16,-91.35 71.85,-86.29 75.97,-96.05 81.16,-91.35"/>
</g>
<!-- Node5 -->
<g id="node5" class="node">
<title>Node5</title>
<g id="a_node5"><a xlink:href="types_8h.html" target="_top" xlink:title=" ">
<polygon fill="white" stroke="#666666" points="215.5,-79.5 134.5,-79.5 134.5,-60.5 215.5,-60.5 215.5,-79.5"/>
<text text-anchor="middle" x="175" y="-67.5" font-family="Helvetica,sans-Serif" font-size="10.00">dolphin/types.h</text>
</a>
</g>
</g>
<!-- Node3&#45;&gt;Node5 -->
<g id="edge4" class="edge">
<title>Node3&#45;&gt;Node5</title>
<path fill="none" stroke="#63b8ff" d="M129.09,-120.8C138.02,-111.11 149.89,-98.24 159.32,-88.01"/>
<polygon fill="#63b8ff" stroke="#63b8ff" points="161.62,-90.68 165.82,-80.96 156.47,-85.94 161.62,-90.68"/>
</g>
<!-- Node6 -->
<g id="node6" class="node">
<title>Node6</title>
<g id="a_node6"><a xlink:href="stddef_8h.html" target="_top" xlink:title=" ">
<polygon fill="white" stroke="#666666" points="200.5,-19 149.5,-19 149.5,0 200.5,0 200.5,-19"/>
<text text-anchor="middle" x="175" y="-7" font-family="Helvetica,sans-Serif" font-size="10.00">stddef.h</text>
</a>
</g>
</g>
<!-- Node5&#45;&gt;Node6 -->
<g id="edge5" class="edge">
<title>Node5&#45;&gt;Node6</title>
<path fill="none" stroke="#63b8ff" d="M175,-60.37C175,-52.5 175,-40.6 175,-30.39"/>
<polygon fill="#63b8ff" stroke="#63b8ff" points="178.5,-30.68 175,-20.68 171.5,-30.68 178.5,-30.68"/>
</g>
<!-- Node8 -->
<g id="node8" class="node">
<title>Node8</title>
<g id="a_node8"><a xlink:href="c__tree_8h.html" target="_top" xlink:title=" ">
<polygon fill="white" stroke="#666666" points="308,-151 192,-151 192,-121 308,-121 308,-151"/>
<text text-anchor="start" x="200" y="-139" font-family="Helvetica,sans-Serif" font-size="10.00">SSystem/SComponent</text>
<text text-anchor="middle" x="250" y="-128" font-family="Helvetica,sans-Serif" font-size="10.00">/c_tree.h</text>
</a>
</g>
</g>
<!-- Node7&#45;&gt;Node8 -->
<g id="edge7" class="edge">
<title>Node7&#45;&gt;Node8</title>
<path fill="none" stroke="#63b8ff" d="M244.89,-186.87C245.55,-180.4 246.49,-171.2 247.39,-162.45"/>
<polygon fill="#63b8ff" stroke="#63b8ff" points="250.86,-162.93 248.4,-152.62 243.9,-162.21 250.86,-162.93"/>
</g>
</g>
</svg>
