<?xml version="1.0" encoding="UTF-8" standalone="no"?>
<!DOCTYPE svg PUBLIC "-//W3C//DTD SVG 1.1//EN"
 "http://www.w3.org/Graphics/SVG/1.1/DTD/svg11.dtd">
<!-- Generated by graphviz version 2.46.1 (20210215.1649)
 -->
<!-- Title: src/f/f_pc/f_pc_executor.cpp Pages: 1 -->
<svg width="924pt" height="722pt"
 viewBox="0.00 0.00 924.00 722.00" xmlns="http://www.w3.org/2000/svg" xmlns:xlink="http://www.w3.org/1999/xlink">
<g id="graph0" class="graph" transform="scale(1 1) rotate(0) translate(4 718)">
<title>src/f/f_pc/f_pc_executor.cpp</title>
<polygon fill="white" stroke="transparent" points="-4,4 -4,-718 920,-718 920,4 -4,4"/>
<!-- Node1 -->
<g id="node1" class="node">
<title>Node1</title>
<g id="a_node1"><a xlink:title=" ">
<polygon fill="#bfbfbf" stroke="black" points="541,-694.5 541,-713.5 681,-713.5 681,-694.5 541,-694.5"/>
<text text-anchor="middle" x="611" y="-701.5" font-family="Helvetica,sans-Serif" font-size="10.00">src/f/f_pc/f_pc_executor.cpp</text>
</a>
</g>
</g>
<!-- Node2 -->
<g id="node2" class="node">
<title>Node2</title>
<g id="a_node2"><a xlink:href="f__pc__executor_8h.html" target="_top" xlink:title=" ">
<polygon fill="white" stroke="black" points="393.5,-638.5 393.5,-657.5 506.5,-657.5 506.5,-638.5 393.5,-638.5"/>
<text text-anchor="middle" x="450" y="-645.5" font-family="Helvetica,sans-Serif" font-size="10.00">f/f_pc/f_pc_executor.h</text>
</a>
</g>
</g>
<!-- Node1&#45;&gt;Node2 -->
<g id="edge1" class="edge">
<title>Node1&#45;&gt;Node2</title>
<path fill="none" stroke="midnightblue" d="M585.49,-694.44C558.4,-685.36 515.41,-670.94 485.13,-660.78"/>
<polygon fill="midnightblue" stroke="midnightblue" points="485.99,-657.38 475.39,-657.52 483.76,-664.01 485.99,-657.38"/>
</g>
<!-- Node12 -->
<g id="node12" class="node">
<title>Node12</title>
<g id="a_node12"><a xlink:href="f__pc__base_8h.html" target="_top" xlink:title=" ">
<polygon fill="white" stroke="black" points="505.5,-582.5 505.5,-601.5 602.5,-601.5 602.5,-582.5 505.5,-582.5"/>
<text text-anchor="middle" x="554" y="-589.5" font-family="Helvetica,sans-Serif" font-size="10.00">f/f_pc/f_pc_base.h</text>
</a>
</g>
</g>
<!-- Node1&#45;&gt;Node12 -->
<g id="edge49" class="edge">
<title>Node1&#45;&gt;Node12</title>
<path fill="none" stroke="midnightblue" d="M618.04,-694.09C627.39,-681.08 641.58,-656.43 631,-638 622.38,-622.99 606.61,-612.5 591.57,-605.46"/>
<polygon fill="midnightblue" stroke="midnightblue" points="592.94,-602.24 582.37,-601.51 590.18,-608.67 592.94,-602.24"/>
</g>
<!-- Node17 -->
<g id="node17" class="node">
<title>Node17</title>
<g id="a_node17"><a xlink:href="f__pc__layer_8h.html" target="_top" xlink:title=" ">
<polygon fill="white" stroke="black" points="668,-454 668,-473 764,-473 764,-454 668,-454"/>
<text text-anchor="middle" x="716" y="-461" font-family="Helvetica,sans-Serif" font-size="10.00">f/f_pc/f_pc_layer.h</text>
</a>
</g>
</g>
<!-- Node1&#45;&gt;Node17 -->
<g id="edge50" class="edge">
<title>Node1&#45;&gt;Node17</title>
<path fill="none" stroke="midnightblue" d="M681.06,-698.72C740.52,-693.45 819.24,-682.04 839,-658 866.59,-624.43 921.36,-669.66 799,-515 785.75,-498.26 765.32,-485.73 748.04,-477.34"/>
<polygon fill="midnightblue" stroke="midnightblue" points="749.38,-474.1 738.83,-473.1 746.45,-480.46 749.38,-474.1"/>
</g>
<!-- Node18 -->
<g id="node18" class="node">
<title>Node18</title>
<g id="a_node18"><a xlink:href="f__pc__layer__tag_8h.html" target="_top" xlink:title=" ">
<polygon fill="white" stroke="black" points="658.5,-521 658.5,-540 773.5,-540 773.5,-521 658.5,-521"/>
<text text-anchor="middle" x="716" y="-528" font-family="Helvetica,sans-Serif" font-size="10.00">f/f_pc/f_pc_layer_tag.h</text>
</a>
</g>
</g>
<!-- Node1&#45;&gt;Node18 -->
<g id="edge55" class="edge">
<title>Node1&#45;&gt;Node18</title>
<path fill="none" stroke="midnightblue" d="M618.39,-694.34C625.79,-685.49 637.28,-671.22 646,-658 670.66,-620.62 694.95,-573.9 707.41,-549.01"/>
<polygon fill="midnightblue" stroke="midnightblue" points="710.54,-550.57 711.85,-540.05 704.27,-547.46 710.54,-550.57"/>
</g>
<!-- Node24 -->
<g id="node24" class="node">
<title>Node24</title>
<g id="a_node24"><a xlink:href="f__pc__layer__iter_8h.html" target="_top" xlink:title=" ">
<polygon fill="white" stroke="black" points="131.5,-638.5 131.5,-657.5 246.5,-657.5 246.5,-638.5 131.5,-638.5"/>
<text text-anchor="middle" x="189" y="-645.5" font-family="Helvetica,sans-Serif" font-size="10.00">f/f_pc/f_pc_layer_iter.h</text>
</a>
</g>
</g>
<!-- Node1&#45;&gt;Node24 -->
<g id="edge51" class="edge">
<title>Node1&#45;&gt;Node24</title>
<path fill="none" stroke="midnightblue" d="M542.59,-694.48C473.33,-685.82 362.81,-671.91 256.97,-658.12"/>
<polygon fill="midnightblue" stroke="midnightblue" points="257.11,-654.61 246.74,-656.78 256.2,-661.55 257.11,-654.61"/>
</g>
<!-- Node25 -->
<g id="node25" class="node">
<title>Node25</title>
<g id="a_node25"><a xlink:href="f__pc__line__iter_8h.html" target="_top" xlink:title=" ">
<polygon fill="white" stroke="black" points="265,-638.5 265,-657.5 375,-657.5 375,-638.5 265,-638.5"/>
<text text-anchor="middle" x="320" y="-645.5" font-family="Helvetica,sans-Serif" font-size="10.00">f/f_pc/f_pc_line_iter.h</text>
</a>
</g>
</g>
<!-- Node1&#45;&gt;Node25 -->
<g id="edge56" class="edge">
<title>Node1&#45;&gt;Node25</title>
<path fill="none" stroke="midnightblue" d="M564.89,-694.44C513.59,-684.92 430.73,-669.55 375.81,-659.36"/>
<polygon fill="midnightblue" stroke="midnightblue" points="376.36,-655.9 365.89,-657.52 375.09,-662.78 376.36,-655.9"/>
</g>
<!-- Node26 -->
<g id="node26" class="node">
<title>Node26</title>
<g id="a_node26"><a xlink:href="f__pc__node_8h.html" target="_top" xlink:title=" ">
<polygon fill="white" stroke="black" points="524.5,-638.5 524.5,-657.5 621.5,-657.5 621.5,-638.5 524.5,-638.5"/>
<text text-anchor="middle" x="573" y="-645.5" font-family="Helvetica,sans-Serif" font-size="10.00">f/f_pc/f_pc_node.h</text>
</a>
</g>
</g>
<!-- Node1&#45;&gt;Node26 -->
<g id="edge58" class="edge">
<title>Node1&#45;&gt;Node26</title>
<path fill="none" stroke="midnightblue" d="M604.73,-694.08C599.36,-686.46 591.48,-675.26 584.92,-665.94"/>
<polygon fill="midnightblue" stroke="midnightblue" points="587.78,-663.91 579.16,-657.75 582.05,-667.94 587.78,-663.91"/>
</g>
<!-- Node27 -->
<g id="node27" class="node">
<title>Node27</title>
<g id="a_node27"><a xlink:href="f__pc__searcher_8h.html" target="_top" xlink:title=" ">
<polygon fill="white" stroke="black" points="716.5,-638.5 716.5,-657.5 829.5,-657.5 829.5,-638.5 716.5,-638.5"/>
<text text-anchor="middle" x="773" y="-645.5" font-family="Helvetica,sans-Serif" font-size="10.00">f/f_pc/f_pc_searcher.h</text>
</a>
</g>
</g>
<!-- Node1&#45;&gt;Node27 -->
<g id="edge62" class="edge">
<title>Node1&#45;&gt;Node27</title>
<path fill="none" stroke="midnightblue" d="M636.67,-694.44C663.92,-685.36 707.18,-670.94 737.65,-660.78"/>
<polygon fill="midnightblue" stroke="midnightblue" points="739.07,-664 747.45,-657.52 736.86,-657.36 739.07,-664"/>
</g>
<!-- Node3 -->
<g id="node3" class="node">
<title>Node3</title>
<g id="a_node3"><a xlink:href="c__node__iter_8h.html" target="_top" xlink:title=" ">
<polygon fill="white" stroke="black" points="235,-582.5 235,-601.5 369,-601.5 369,-582.5 235,-582.5"/>
<text text-anchor="middle" x="302" y="-589.5" font-family="Helvetica,sans-Serif" font-size="10.00">SComponent/c_node_iter.h</text>
</a>
</g>
</g>
<!-- Node2&#45;&gt;Node3 -->
<g id="edge2" class="edge">
<title>Node2&#45;&gt;Node3</title>
<path fill="none" stroke="midnightblue" d="M426.55,-638.44C401.87,-629.44 362.81,-615.19 335.02,-605.05"/>
<polygon fill="midnightblue" stroke="midnightblue" points="335.94,-601.66 325.34,-601.52 333.54,-608.23 335.94,-601.66"/>
</g>
<!-- Node2&#45;&gt;Node12 -->
<g id="edge15" class="edge">
<title>Node2&#45;&gt;Node12</title>
<path fill="none" stroke="midnightblue" d="M466.71,-638.32C483.31,-629.7 509,-616.36 528.22,-606.39"/>
<polygon fill="midnightblue" stroke="midnightblue" points="530.07,-609.37 537.33,-601.65 526.84,-603.16 530.07,-609.37"/>
</g>
<!-- Node4 -->
<g id="node4" class="node">
<title>Node4</title>
<g id="a_node4"><a xlink:href="c__node_8h.html" target="_top" xlink:title=" ">
<polygon fill="white" stroke="black" points="389.5,-224.5 389.5,-243.5 504.5,-243.5 504.5,-224.5 389.5,-224.5"/>
<text text-anchor="middle" x="447" y="-231.5" font-family="Helvetica,sans-Serif" font-size="10.00">SComponent/c_node.h</text>
</a>
</g>
</g>
<!-- Node3&#45;&gt;Node4 -->
<g id="edge3" class="edge">
<title>Node3&#45;&gt;Node4</title>
<path fill="none" stroke="midnightblue" d="M246.58,-582.44C160.77,-566.57 10.26,-526.78 57,-448 130.82,-323.58 305.75,-267.15 394.06,-245.86"/>
<polygon fill="midnightblue" stroke="midnightblue" points="394.94,-249.25 403.87,-243.55 393.34,-242.43 394.94,-249.25"/>
</g>
<!-- Node5 -->
<g id="node5" class="node">
<title>Node5</title>
<g id="a_node5"><a xlink:href="global_8h.html" target="_top" xlink:title=" ">
<polygon fill="white" stroke="black" points="379,-168.5 379,-187.5 429,-187.5 429,-168.5 379,-168.5"/>
<text text-anchor="middle" x="404" y="-175.5" font-family="Helvetica,sans-Serif" font-size="10.00">global.h</text>
</a>
</g>
</g>
<!-- Node4&#45;&gt;Node5 -->
<g id="edge4" class="edge">
<title>Node4&#45;&gt;Node5</title>
<path fill="none" stroke="midnightblue" d="M439.9,-224.08C433.76,-216.38 424.73,-205.03 417.26,-195.65"/>
<polygon fill="midnightblue" stroke="midnightblue" points="419.94,-193.39 410.97,-187.75 414.46,-197.75 419.94,-193.39"/>
</g>
<!-- Node6 -->
<g id="node6" class="node">
<title>Node6</title>
<g id="a_node6"><a xlink:href="types_8h.html" target="_top" xlink:title=" ">
<polygon fill="white" stroke="black" points="363.5,-0.5 363.5,-19.5 444.5,-19.5 444.5,-0.5 363.5,-0.5"/>
<text text-anchor="middle" x="404" y="-7.5" font-family="Helvetica,sans-Serif" font-size="10.00">dolphin/types.h</text>
</a>
</g>
</g>
<!-- Node5&#45;&gt;Node6 -->
<g id="edge5" class="edge">
<title>Node5&#45;&gt;Node6</title>
<path fill="none" stroke="midnightblue" d="M386.05,-168.38C348.97,-149.39 269.81,-101.96 300,-56 312.07,-37.63 333.41,-26.72 353.63,-20.26"/>
<polygon fill="midnightblue" stroke="midnightblue" points="354.79,-23.57 363.42,-17.44 352.85,-16.85 354.79,-23.57"/>
</g>
<!-- Node7 -->
<g id="node7" class="node">
<title>Node7</title>
<g id="a_node7"><a xlink:href="AR_8h.html" target="_top" xlink:title=" ">
<polygon fill="white" stroke="black" points="308.5,-56.5 308.5,-75.5 357.5,-75.5 357.5,-56.5 308.5,-56.5"/>
<text text-anchor="middle" x="333" y="-63.5" font-family="Helvetica,sans-Serif" font-size="10.00">ar/AR.h</text>
</a>
</g>
</g>
<!-- Node5&#45;&gt;Node7 -->
<g id="edge6" class="edge">
<title>Node5&#45;&gt;Node7</title>
<path fill="none" stroke="midnightblue" d="M398.43,-168.37C386.76,-150.3 359.58,-108.18 344.17,-84.31"/>
<polygon fill="midnightblue" stroke="midnightblue" points="346.91,-82.1 338.55,-75.59 341.03,-85.89 346.91,-82.1"/>
</g>
<!-- Node8 -->
<g id="node8" class="node">
<title>Node8</title>
<g id="a_node8"><a xlink:href="ARQ_8h.html" target="_top" xlink:title=" ">
<polygon fill="white" stroke="black" points="376,-56.5 376,-75.5 432,-75.5 432,-56.5 376,-56.5"/>
<text text-anchor="middle" x="404" y="-63.5" font-family="Helvetica,sans-Serif" font-size="10.00">ar/ARQ.h</text>
</a>
</g>
</g>
<!-- Node5&#45;&gt;Node8 -->
<g id="edge8" class="edge">
<title>Node5&#45;&gt;Node8</title>
<path fill="none" stroke="midnightblue" d="M404,-168.37C404,-150.62 404,-109.67 404,-85.6"/>
<polygon fill="midnightblue" stroke="midnightblue" points="407.5,-85.59 404,-75.59 400.5,-85.59 407.5,-85.59"/>
</g>
<!-- Node9 -->
<g id="node9" class="node">
<title>Node9</title>
<g id="a_node9"><a xlink:href="mwcc_8h.html" target="_top" xlink:title=" ">
<polygon fill="white" stroke="black" points="503,-112.5 503,-131.5 553,-131.5 553,-112.5 503,-112.5"/>
<text text-anchor="middle" x="528" y="-119.5" font-family="Helvetica,sans-Serif" font-size="10.00">mwcc.h</text>
</a>
</g>
</g>
<!-- Node5&#45;&gt;Node9 -->
<g id="edge10" class="edge">
<title>Node5&#45;&gt;Node9</title>
<path fill="none" stroke="midnightblue" d="M423.65,-168.44C443.96,-159.6 475.9,-145.69 499.1,-135.59"/>
<polygon fill="midnightblue" stroke="midnightblue" points="500.67,-138.72 508.44,-131.52 497.88,-132.3 500.67,-138.72"/>
</g>
<!-- Node10 -->
<g id="node10" class="node">
<title>Node10</title>
<g id="a_node10"><a xlink:href="OS_8h.html" target="_top" xlink:title=" ">
<polygon fill="white" stroke="black" points="433,-112.5 433,-131.5 485,-131.5 485,-112.5 433,-112.5"/>
<text text-anchor="middle" x="459" y="-119.5" font-family="Helvetica,sans-Serif" font-size="10.00">os/OS.h</text>
</a>
</g>
</g>
<!-- Node5&#45;&gt;Node10 -->
<g id="edge11" class="edge">
<title>Node5&#45;&gt;Node10</title>
<path fill="none" stroke="midnightblue" d="M413.08,-168.08C421.17,-160.14 433.2,-148.34 442.91,-138.8"/>
<polygon fill="midnightblue" stroke="midnightblue" points="445.4,-141.25 450.09,-131.75 440.5,-136.26 445.4,-141.25"/>
</g>
<!-- Node7&#45;&gt;Node6 -->
<g id="edge7" class="edge">
<title>Node7&#45;&gt;Node6</title>
<path fill="none" stroke="midnightblue" d="M344.41,-56.32C355.11,-48.18 371.34,-35.84 384.16,-26.09"/>
<polygon fill="midnightblue" stroke="midnightblue" points="386.54,-28.67 392.39,-19.83 382.31,-23.1 386.54,-28.67"/>
</g>
<!-- Node8&#45;&gt;Node6 -->
<g id="edge9" class="edge">
<title>Node8&#45;&gt;Node6</title>
<path fill="none" stroke="midnightblue" d="M404,-56.08C404,-49.01 404,-38.86 404,-29.99"/>
<polygon fill="midnightblue" stroke="midnightblue" points="407.5,-29.75 404,-19.75 400.5,-29.75 407.5,-29.75"/>
</g>
<!-- Node10&#45;&gt;Node6 -->
<g id="edge12" class="edge">
<title>Node10&#45;&gt;Node6</title>
<path fill="none" stroke="midnightblue" d="M457.75,-112.16C455.67,-99.24 450.72,-74.7 441,-56 435.47,-45.36 427.14,-34.93 419.77,-26.8"/>
<polygon fill="midnightblue" stroke="midnightblue" points="422.29,-24.36 412.88,-19.5 417.2,-29.17 422.29,-24.36"/>
</g>
<!-- Node11 -->
<g id="node11" class="node">
<title>Node11</title>
<g id="a_node11"><a xlink:href="dvd_8h.html" target="_top" xlink:title=" ">
<polygon fill="white" stroke="black" points="488.5,-56.5 488.5,-75.5 547.5,-75.5 547.5,-56.5 488.5,-56.5"/>
<text text-anchor="middle" x="518" y="-63.5" font-family="Helvetica,sans-Serif" font-size="10.00">dvd/dvd.h</text>
</a>
</g>
</g>
<!-- Node10&#45;&gt;Node11 -->
<g id="edge13" class="edge">
<title>Node10&#45;&gt;Node11</title>
<path fill="none" stroke="midnightblue" d="M468.48,-112.32C477.2,-104.34 490.34,-92.31 500.9,-82.65"/>
<polygon fill="midnightblue" stroke="midnightblue" points="503.33,-85.17 508.35,-75.83 498.61,-80 503.33,-85.17"/>
</g>
<!-- Node11&#45;&gt;Node6 -->
<g id="edge14" class="edge">
<title>Node11&#45;&gt;Node6</title>
<path fill="none" stroke="midnightblue" d="M499.94,-56.44C481.43,-47.68 452.42,-33.94 431.14,-23.86"/>
<polygon fill="midnightblue" stroke="midnightblue" points="432.51,-20.63 421.98,-19.52 429.52,-26.96 432.51,-20.63"/>
</g>
<!-- Node12&#45;&gt;Node5 -->
<g id="edge24" class="edge">
<title>Node12&#45;&gt;Node5</title>
<path fill="none" stroke="midnightblue" d="M602.75,-588.62C650.73,-584.66 725.03,-574.11 783,-546 833.05,-521.73 878,-520.13 878,-464.5 878,-464.5 878,-464.5 878,-289 878,-198.97 549.39,-182.6 439.39,-179.65"/>
<polygon fill="midnightblue" stroke="midnightblue" points="439.23,-176.14 429.15,-179.39 439.06,-183.14 439.23,-176.14"/>
</g>
<!-- Node13 -->
<g id="node13" class="node">
<title>Node13</title>
<g id="a_node13"><a xlink:href="c__tag_8h.html" target="_top" xlink:title=" ">
<polygon fill="white" stroke="black" points="431.5,-392.5 431.5,-411.5 538.5,-411.5 538.5,-392.5 431.5,-392.5"/>
<text text-anchor="middle" x="485" y="-399.5" font-family="Helvetica,sans-Serif" font-size="10.00">SComponent/c_tag.h</text>
</a>
</g>
</g>
<!-- Node12&#45;&gt;Node13 -->
<g id="edge16" class="edge">
<title>Node12&#45;&gt;Node13</title>
<path fill="none" stroke="midnightblue" d="M537.17,-582.42C524.08,-574.77 506.72,-562.27 498,-546 495.1,-540.6 488.99,-459.11 486.3,-421.62"/>
<polygon fill="midnightblue" stroke="midnightblue" points="489.79,-421.26 485.59,-411.53 482.81,-421.75 489.79,-421.26"/>
</g>
<!-- Node16 -->
<g id="node16" class="node">
<title>Node16</title>
<g id="a_node16"><a xlink:href="f__pc__delete__tag_8h.html" target="_top" xlink:title=" ">
<polygon fill="white" stroke="black" points="506.5,-515.5 506.5,-545.5 601.5,-545.5 601.5,-515.5 506.5,-515.5"/>
<text text-anchor="start" x="514.5" y="-533.5" font-family="Helvetica,sans-Serif" font-size="10.00">f/f_pc/f_pc_delete</text>
<text text-anchor="middle" x="554" y="-522.5" font-family="Helvetica,sans-Serif" font-size="10.00">_tag.h</text>
</a>
</g>
</g>
<!-- Node12&#45;&gt;Node16 -->
<g id="edge25" class="edge">
<title>Node12&#45;&gt;Node16</title>
<path fill="none" stroke="midnightblue" d="M554,-582.48C554,-575.47 554,-565.19 554,-555.7"/>
<polygon fill="midnightblue" stroke="midnightblue" points="557.5,-555.52 554,-545.52 550.5,-555.52 557.5,-555.52"/>
</g>
<!-- Node12&#45;&gt;Node18 -->
<g id="edge33" class="edge">
<title>Node12&#45;&gt;Node18</title>
<path fill="none" stroke="midnightblue" d="M577.21,-582.48C605,-572.27 651.72,-555.11 683.19,-543.55"/>
<polygon fill="midnightblue" stroke="midnightblue" points="684.65,-546.74 692.83,-540.01 682.24,-540.17 684.65,-546.74"/>
</g>
<!-- Node19 -->
<g id="node19" class="node">
<title>Node19</title>
<g id="a_node19"><a xlink:href="f__pc__line__tag_8h.html" target="_top" xlink:title=" ">
<polygon fill="white" stroke="black" points="230,-454 230,-473 340,-473 340,-454 230,-454"/>
<text text-anchor="middle" x="285" y="-461" font-family="Helvetica,sans-Serif" font-size="10.00">f/f_pc/f_pc_line_tag.h</text>
</a>
</g>
</g>
<!-- Node12&#45;&gt;Node19 -->
<g id="edge37" class="edge">
<title>Node12&#45;&gt;Node19</title>
<path fill="none" stroke="midnightblue" d="M505.39,-591.45C458.43,-589.62 387.2,-580.62 337,-546 314.37,-530.4 299.41,-501.4 291.57,-482.54"/>
<polygon fill="midnightblue" stroke="midnightblue" points="294.75,-481.06 287.86,-473.01 288.23,-483.6 294.75,-481.06"/>
</g>
<!-- Node20 -->
<g id="node20" class="node">
<title>Node20</title>
<g id="a_node20"><a xlink:href="f__pc__priority_8h.html" target="_top" xlink:title=" ">
<polygon fill="white" stroke="black" points="346,-521 346,-540 450,-540 450,-521 346,-521"/>
<text text-anchor="middle" x="398" y="-528" font-family="Helvetica,sans-Serif" font-size="10.00">f/f_pc/f_pc_priority.h</text>
</a>
</g>
</g>
<!-- Node12&#45;&gt;Node20 -->
<g id="edge40" class="edge">
<title>Node12&#45;&gt;Node20</title>
<path fill="none" stroke="midnightblue" d="M531.65,-582.48C505.01,-572.31 460.29,-555.26 429.99,-543.7"/>
<polygon fill="midnightblue" stroke="midnightblue" points="430.9,-540.3 420.31,-540.01 428.41,-546.84 430.9,-540.3"/>
</g>
<!-- Node22 -->
<g id="node22" class="node">
<title>Node22</title>
<g id="a_node22"><a xlink:href="f__pc__profile_8h.html" target="_top" xlink:title=" ">
<polygon fill="white" stroke="black" points="188.5,-521 188.5,-540 289.5,-540 289.5,-521 188.5,-521"/>
<text text-anchor="middle" x="239" y="-528" font-family="Helvetica,sans-Serif" font-size="10.00">f/f_pc/f_pc_profile.h</text>
</a>
</g>
</g>
<!-- Node12&#45;&gt;Node22 -->
<g id="edge45" class="edge">
<title>Node12&#45;&gt;Node22</title>
<path fill="none" stroke="midnightblue" d="M505.49,-582.88C455.04,-574.29 373.82,-560.07 304,-546 298.19,-544.83 292.1,-543.55 286.08,-542.24"/>
<polygon fill="midnightblue" stroke="midnightblue" points="286.58,-538.77 276.07,-540.05 285.08,-545.61 286.58,-538.77"/>
</g>
<!-- Node13&#45;&gt;Node4 -->
<g id="edge19" class="edge">
<title>Node13&#45;&gt;Node4</title>
<path fill="none" stroke="midnightblue" d="M476.87,-392.45C461.98,-376.11 430.97,-338.59 421,-300 418.78,-291.39 418.7,-288.59 421,-280 423.65,-270.1 429.07,-260.13 434.27,-252.1"/>
<polygon fill="midnightblue" stroke="midnightblue" points="437.29,-253.89 440.11,-243.68 431.54,-249.91 437.29,-253.89"/>
</g>
<!-- Node13&#45;&gt;Node5 -->
<g id="edge23" class="edge">
<title>Node13&#45;&gt;Node5</title>
<path fill="none" stroke="midnightblue" d="M471.8,-392.32C460.11,-384.1 443.21,-370.83 432,-356 399.03,-312.36 392.6,-297.45 381,-244 379.12,-235.31 378.92,-232.64 381,-224 383.31,-214.42 388.02,-204.58 392.58,-196.56"/>
<polygon fill="midnightblue" stroke="midnightblue" points="395.69,-198.17 397.9,-187.81 389.71,-194.54 395.69,-198.17"/>
</g>
<!-- Node14 -->
<g id="node14" class="node">
<title>Node14</title>
<g id="a_node14"><a xlink:href="c__list_8h.html" target="_top" xlink:title=" ">
<polygon fill="white" stroke="black" points="429.5,-280.5 429.5,-299.5 536.5,-299.5 536.5,-280.5 429.5,-280.5"/>
<text text-anchor="middle" x="483" y="-287.5" font-family="Helvetica,sans-Serif" font-size="10.00">SComponent/c_list.h</text>
</a>
</g>
</g>
<!-- Node13&#45;&gt;Node14 -->
<g id="edge17" class="edge">
<title>Node13&#45;&gt;Node14</title>
<path fill="none" stroke="midnightblue" d="M477.85,-392.36C471.23,-383.76 461.84,-369.87 458,-356 453.38,-339.31 461.75,-320.95 470.03,-308.01"/>
<polygon fill="midnightblue" stroke="midnightblue" points="473.01,-309.86 475.85,-299.65 467.27,-305.86 473.01,-309.86"/>
</g>
<!-- Node15 -->
<g id="node15" class="node">
<title>Node15</title>
<g id="a_node15"><a xlink:href="c__tree_8h.html" target="_top" xlink:title=" ">
<polygon fill="white" stroke="black" points="467,-336.5 467,-355.5 577,-355.5 577,-336.5 467,-336.5"/>
<text text-anchor="middle" x="522" y="-343.5" font-family="Helvetica,sans-Serif" font-size="10.00">SComponent/c_tree.h</text>
</a>
</g>
</g>
<!-- Node13&#45;&gt;Node15 -->
<g id="edge20" class="edge">
<title>Node13&#45;&gt;Node15</title>
<path fill="none" stroke="midnightblue" d="M491.11,-392.08C496.28,-384.53 503.85,-373.49 510.19,-364.23"/>
<polygon fill="midnightblue" stroke="midnightblue" points="513.24,-365.98 516,-355.75 507.46,-362.02 513.24,-365.98"/>
</g>
<!-- Node14&#45;&gt;Node4 -->
<g id="edge18" class="edge">
<title>Node14&#45;&gt;Node4</title>
<path fill="none" stroke="midnightblue" d="M477.06,-280.08C472.02,-272.53 464.66,-261.49 458.49,-252.23"/>
<polygon fill="midnightblue" stroke="midnightblue" points="461.29,-250.13 452.83,-243.75 455.47,-254.01 461.29,-250.13"/>
</g>
<!-- Node15&#45;&gt;Node4 -->
<g id="edge22" class="edge">
<title>Node15&#45;&gt;Node4</title>
<path fill="none" stroke="midnightblue" d="M529.83,-336.46C540.72,-323.49 557.85,-298.41 546,-280 535.69,-263.99 518.15,-253.62 500.67,-246.92"/>
<polygon fill="midnightblue" stroke="midnightblue" points="501.6,-243.54 491.01,-243.56 499.3,-250.15 501.6,-243.54"/>
</g>
<!-- Node15&#45;&gt;Node14 -->
<g id="edge21" class="edge">
<title>Node15&#45;&gt;Node14</title>
<path fill="none" stroke="midnightblue" d="M515.56,-336.08C510.05,-328.46 501.97,-317.26 495.24,-307.94"/>
<polygon fill="midnightblue" stroke="midnightblue" points="498.01,-305.81 489.32,-299.75 492.34,-309.91 498.01,-305.81"/>
</g>
<!-- Node16&#45;&gt;Node5 -->
<g id="edge32" class="edge">
<title>Node16&#45;&gt;Node5</title>
<path fill="none" stroke="midnightblue" d="M560.88,-515.21C574.8,-484.95 605,-411.81 605,-347 605,-347 605,-347 605,-289 605,-214.29 496.82,-190 439.19,-182.35"/>
<polygon fill="midnightblue" stroke="midnightblue" points="439.4,-178.85 429.05,-181.11 438.55,-185.8 439.4,-178.85"/>
</g>
<!-- Node16&#45;&gt;Node13 -->
<g id="edge26" class="edge">
<title>Node16&#45;&gt;Node13</title>
<path fill="none" stroke="midnightblue" d="M554.48,-515.23C554.43,-498.11 552.29,-469.09 540,-448 532.65,-435.38 520.34,-424.81 509.23,-417.1"/>
<polygon fill="midnightblue" stroke="midnightblue" points="510.98,-414.06 500.69,-411.53 507.16,-419.92 510.98,-414.06"/>
</g>
<!-- Node16&#45;&gt;Node17 -->
<g id="edge27" class="edge">
<title>Node16&#45;&gt;Node17</title>
<path fill="none" stroke="midnightblue" d="M589.15,-515.4C617.83,-503.89 657.94,-487.8 685.33,-476.81"/>
<polygon fill="midnightblue" stroke="midnightblue" points="686.82,-479.98 694.8,-473.01 684.21,-473.48 686.82,-479.98"/>
</g>
<!-- Node17&#45;&gt;Node4 -->
<g id="edge28" class="edge">
<title>Node17&#45;&gt;Node4</title>
<path fill="none" stroke="midnightblue" d="M709.59,-453.82C685.37,-421.2 598.91,-306.43 562,-280 540.67,-264.72 513.45,-253.77 490.84,-246.49"/>
<polygon fill="midnightblue" stroke="midnightblue" points="491.74,-243.11 481.15,-243.51 489.67,-249.8 491.74,-243.11"/>
</g>
<!-- Node17&#45;&gt;Node5 -->
<g id="edge31" class="edge">
<title>Node17&#45;&gt;Node5</title>
<path fill="none" stroke="midnightblue" d="M713.59,-453.89C708.48,-434.8 697,-387.44 697,-347 697,-347 697,-347 697,-289 697,-243.87 659.62,-243.65 619,-224 560.01,-195.47 483.35,-184.96 439.31,-181.14"/>
<polygon fill="midnightblue" stroke="midnightblue" points="439.36,-177.63 429.11,-180.33 438.8,-184.61 439.36,-177.63"/>
</g>
<!-- Node17&#45;&gt;Node13 -->
<g id="edge29" class="edge">
<title>Node17&#45;&gt;Node13</title>
<path fill="none" stroke="midnightblue" d="M682.9,-453.98C642.08,-443.46 572.59,-425.56 527.76,-414.01"/>
<polygon fill="midnightblue" stroke="midnightblue" points="528.59,-410.61 518.04,-411.51 526.85,-417.39 528.59,-410.61"/>
</g>
<!-- Node17&#45;&gt;Node15 -->
<g id="edge30" class="edge">
<title>Node17&#45;&gt;Node15</title>
<path fill="none" stroke="midnightblue" d="M701.42,-453.82C667.98,-433.91 585.56,-384.84 545.13,-360.77"/>
<polygon fill="midnightblue" stroke="midnightblue" points="546.87,-357.73 536.49,-355.62 543.29,-363.75 546.87,-357.73"/>
</g>
<!-- Node18&#45;&gt;Node5 -->
<g id="edge36" class="edge">
<title>Node18&#45;&gt;Node5</title>
<path fill="none" stroke="midnightblue" d="M729.65,-520.98C742.75,-512.1 762.1,-496.97 773,-479 791.06,-449.23 792,-437.82 792,-403 792,-403 792,-403 792,-289 792,-216.03 534.78,-188.96 439.2,-181.42"/>
<polygon fill="midnightblue" stroke="midnightblue" points="439.4,-177.93 429.16,-180.66 438.86,-184.91 439.4,-177.93"/>
</g>
<!-- Node18&#45;&gt;Node13 -->
<g id="edge34" class="edge">
<title>Node18&#45;&gt;Node13</title>
<path fill="none" stroke="midnightblue" d="M700.12,-520.81C660.55,-499.13 557.29,-442.59 509.69,-416.52"/>
<polygon fill="midnightblue" stroke="midnightblue" points="511.14,-413.32 500.68,-411.59 507.77,-419.46 511.14,-413.32"/>
</g>
<!-- Node18&#45;&gt;Node17 -->
<g id="edge35" class="edge">
<title>Node18&#45;&gt;Node17</title>
<path fill="none" stroke="midnightblue" d="M716,-520.73C716,-511.18 716,-495.62 716,-483.28"/>
<polygon fill="midnightblue" stroke="midnightblue" points="719.5,-483.13 716,-473.13 712.5,-483.13 719.5,-483.13"/>
</g>
<!-- Node19&#45;&gt;Node5 -->
<g id="edge39" class="edge">
<title>Node19&#45;&gt;Node5</title>
<path fill="none" stroke="midnightblue" d="M280.29,-453.8C270.54,-434.94 249,-388.59 249,-347 249,-347 249,-347 249,-289 249,-230.56 323.18,-200.33 368.91,-187.25"/>
<polygon fill="midnightblue" stroke="midnightblue" points="370.02,-190.58 378.75,-184.57 368.18,-183.82 370.02,-190.58"/>
</g>
<!-- Node19&#45;&gt;Node13 -->
<g id="edge38" class="edge">
<title>Node19&#45;&gt;Node13</title>
<path fill="none" stroke="midnightblue" d="M313.66,-453.98C348.56,-443.59 407.65,-426.01 446.5,-414.45"/>
<polygon fill="midnightblue" stroke="midnightblue" points="447.81,-417.72 456.4,-411.51 445.82,-411.01 447.81,-417.72"/>
</g>
<!-- Node20&#45;&gt;Node13 -->
<g id="edge41" class="edge">
<title>Node20&#45;&gt;Node13</title>
<path fill="none" stroke="midnightblue" d="M417.07,-520.95C433.43,-512.62 456.32,-498.36 469,-479 480.18,-461.94 483.73,-438.5 484.77,-422.18"/>
<polygon fill="midnightblue" stroke="midnightblue" points="488.28,-421.87 485.15,-411.75 481.29,-421.61 488.28,-421.87"/>
</g>
<!-- Node21 -->
<g id="node21" class="node">
<title>Node21</title>
<g id="a_node21"><a xlink:href="f__pc__method__tag_8h.html" target="_top" xlink:title=" ">
<polygon fill="white" stroke="black" points="358.5,-448.5 358.5,-478.5 459.5,-478.5 459.5,-448.5 358.5,-448.5"/>
<text text-anchor="start" x="366.5" y="-466.5" font-family="Helvetica,sans-Serif" font-size="10.00">f/f_pc/f_pc_method</text>
<text text-anchor="middle" x="409" y="-455.5" font-family="Helvetica,sans-Serif" font-size="10.00">_tag.h</text>
</a>
</g>
</g>
<!-- Node20&#45;&gt;Node21 -->
<g id="edge42" class="edge">
<title>Node20&#45;&gt;Node21</title>
<path fill="none" stroke="midnightblue" d="M399.48,-520.73C400.87,-512.54 403.01,-499.92 404.9,-488.71"/>
<polygon fill="midnightblue" stroke="midnightblue" points="408.4,-489.03 406.62,-478.59 401.5,-487.86 408.4,-489.03"/>
</g>
<!-- Node21&#45;&gt;Node5 -->
<g id="edge44" class="edge">
<title>Node21&#45;&gt;Node5</title>
<path fill="none" stroke="midnightblue" d="M375.99,-448.47C339.85,-430.63 287,-396.15 287,-347 287,-347 287,-347 287,-289 287,-241.6 338.6,-208.64 373.27,-191.85"/>
<polygon fill="midnightblue" stroke="midnightblue" points="374.95,-194.93 382.54,-187.54 372,-188.58 374.95,-194.93"/>
</g>
<!-- Node21&#45;&gt;Node13 -->
<g id="edge43" class="edge">
<title>Node21&#45;&gt;Node13</title>
<path fill="none" stroke="midnightblue" d="M427.01,-448.4C438.74,-439.22 454.02,-427.26 465.94,-417.92"/>
<polygon fill="midnightblue" stroke="midnightblue" points="468.22,-420.58 473.94,-411.66 463.91,-415.07 468.22,-420.58"/>
</g>
<!-- Node22&#45;&gt;Node5 -->
<g id="edge48" class="edge">
<title>Node22&#45;&gt;Node5</title>
<path fill="none" stroke="midnightblue" d="M234.61,-520.86C224.81,-500.75 202,-448.99 202,-403 202,-403 202,-403 202,-289 202,-214 310.72,-189.84 368.64,-182.29"/>
<polygon fill="midnightblue" stroke="midnightblue" points="369.31,-185.74 378.82,-181.07 368.48,-178.79 369.31,-185.74"/>
</g>
<!-- Node23 -->
<g id="node23" class="node">
<title>Node23</title>
<g id="a_node23"><a xlink:href="f__pc__method_8h.html" target="_top" xlink:title=" ">
<polygon fill="white" stroke="black" points="66,-454 66,-473 174,-473 174,-454 66,-454"/>
<text text-anchor="middle" x="120" y="-461" font-family="Helvetica,sans-Serif" font-size="10.00">f/f_pc/f_pc_method.h</text>
</a>
</g>
</g>
<!-- Node22&#45;&gt;Node23 -->
<g id="edge46" class="edge">
<title>Node22&#45;&gt;Node23</title>
<path fill="none" stroke="midnightblue" d="M222.95,-520.73C202.88,-509.77 168.3,-490.88 144.81,-478.05"/>
<polygon fill="midnightblue" stroke="midnightblue" points="146.25,-474.85 135.79,-473.13 142.89,-480.99 146.25,-474.85"/>
</g>
<!-- Node23&#45;&gt;Node5 -->
<g id="edge47" class="edge">
<title>Node23&#45;&gt;Node5</title>
<path fill="none" stroke="midnightblue" d="M122.79,-453.91C128.71,-434.88 142,-387.62 142,-347 142,-347 142,-347 142,-289 142,-191.87 296.98,-179.08 368.55,-178.35"/>
<polygon fill="midnightblue" stroke="midnightblue" points="368.89,-181.85 378.88,-178.32 368.87,-174.85 368.89,-181.85"/>
</g>
<!-- Node24&#45;&gt;Node3 -->
<g id="edge52" class="edge">
<title>Node24&#45;&gt;Node3</title>
<path fill="none" stroke="midnightblue" d="M206.91,-638.44C225.25,-629.68 254.01,-615.94 275.09,-605.86"/>
<polygon fill="midnightblue" stroke="midnightblue" points="276.67,-608.99 284.18,-601.52 273.65,-602.67 276.67,-608.99"/>
</g>
<!-- Node24&#45;&gt;Node5 -->
<g id="edge54" class="edge">
<title>Node24&#45;&gt;Node5</title>
<path fill="none" stroke="midnightblue" d="M137.85,-638.45C81.88,-625.83 0,-596.3 0,-531.5 0,-531.5 0,-531.5 0,-289 0,-212.9 270.23,-187.7 368.67,-181.04"/>
<polygon fill="midnightblue" stroke="midnightblue" points="368.98,-184.53 378.73,-180.39 368.52,-177.55 368.98,-184.53"/>
</g>
<!-- Node24&#45;&gt;Node17 -->
<g id="edge53" class="edge">
<title>Node24&#45;&gt;Node17</title>
<path fill="none" stroke="midnightblue" d="M191.1,-638.48C195.15,-624.09 205.49,-595.24 226,-582 298.19,-535.39 531.28,-578.07 611,-546 631.54,-537.74 632.54,-528.62 650,-515 665.53,-502.89 683.26,-489.34 696.43,-479.32"/>
<polygon fill="midnightblue" stroke="midnightblue" points="698.89,-481.85 704.74,-473.02 694.66,-476.27 698.89,-481.85"/>
</g>
<!-- Node25&#45;&gt;Node3 -->
<g id="edge57" class="edge">
<title>Node25&#45;&gt;Node3</title>
<path fill="none" stroke="midnightblue" d="M317.03,-638.08C314.62,-630.85 311.14,-620.41 308.13,-611.4"/>
<polygon fill="midnightblue" stroke="midnightblue" points="311.4,-610.13 304.92,-601.75 304.76,-612.34 311.4,-610.13"/>
</g>
<!-- Node26&#45;&gt;Node12 -->
<g id="edge59" class="edge">
<title>Node26&#45;&gt;Node12</title>
<path fill="none" stroke="midnightblue" d="M569.86,-638.08C567.32,-630.85 563.64,-620.41 560.47,-611.4"/>
<polygon fill="midnightblue" stroke="midnightblue" points="563.7,-610.02 557.08,-601.75 557.1,-612.35 563.7,-610.02"/>
</g>
<!-- Node26&#45;&gt;Node17 -->
<g id="edge60" class="edge">
<title>Node26&#45;&gt;Node17</title>
<path fill="none" stroke="midnightblue" d="M621.65,-638.9C671.9,-627.67 747.79,-602 783,-546 790.33,-534.34 789.15,-527.33 783,-515 774.95,-498.85 759,-486.51 744.69,-478.07"/>
<polygon fill="midnightblue" stroke="midnightblue" points="746.07,-474.83 735.62,-473.08 742.69,-480.97 746.07,-474.83"/>
</g>
<!-- Node26&#45;&gt;Node23 -->
<g id="edge61" class="edge">
<title>Node26&#45;&gt;Node23</title>
<path fill="none" stroke="midnightblue" d="M550.79,-638.44C514.91,-624.89 441.78,-598.34 378,-582 291.36,-559.8 255.87,-593.36 180,-546 155.36,-530.62 137.53,-501.13 127.98,-482.15"/>
<polygon fill="midnightblue" stroke="midnightblue" points="131.12,-480.6 123.65,-473.09 124.8,-483.62 131.12,-480.6"/>
</g>
<!-- Node27&#45;&gt;Node5 -->
<g id="edge64" class="edge">
<title>Node27&#45;&gt;Node5</title>
<path fill="none" stroke="midnightblue" d="M786.97,-638.49C822.95,-615.39 916,-547.62 916,-464.5 916,-464.5 916,-464.5 916,-289 916,-191.25 554.74,-180.1 439.13,-179.04"/>
<polygon fill="midnightblue" stroke="midnightblue" points="439.07,-175.54 429.04,-178.97 439.02,-182.54 439.07,-175.54"/>
</g>
<!-- Node27&#45;&gt;Node12 -->
<g id="edge63" class="edge">
<title>Node27&#45;&gt;Node12</title>
<path fill="none" stroke="midnightblue" d="M738.3,-638.44C700.42,-629.1 639.65,-614.12 598.34,-603.93"/>
<polygon fill="midnightblue" stroke="midnightblue" points="599.09,-600.51 588.54,-601.52 597.41,-607.31 599.09,-600.51"/>
</g>
</g>
</svg>
