<?xml version="1.0" encoding="UTF-8" standalone="no"?>
<!DOCTYPE svg PUBLIC "-//W3C//DTD SVG 1.1//EN"
 "http://www.w3.org/Graphics/SVG/1.1/DTD/svg11.dtd">
<!-- Generated by graphviz version 2.46.1 (20210215.1649)
 -->
<!-- Title: include/f/f_pc/f_pc_executor.h Pages: 1 -->
<svg width="1571pt" height="173pt"
 viewBox="0.00 0.00 1570.50 173.00" xmlns="http://www.w3.org/2000/svg" xmlns:xlink="http://www.w3.org/1999/xlink">
<g id="graph0" class="graph" transform="scale(1 1) rotate(0) translate(4 169)">
<title>include/f/f_pc/f_pc_executor.h</title>
<polygon fill="white" stroke="transparent" points="-4,4 -4,-169 1566.5,-169 1566.5,4 -4,4"/>
<!-- Node1 -->
<g id="node1" class="node">
<title>Node1</title>
<g id="a_node1"><a xlink:title=" ">
<polygon fill="#bfbfbf" stroke="black" points="545.5,-134.5 545.5,-164.5 642.5,-164.5 642.5,-134.5 545.5,-134.5"/>
<text text-anchor="start" x="553.5" y="-152.5" font-family="Helvetica,sans-Serif" font-size="10.00">include/f/f_pc/f_pc</text>
<text text-anchor="middle" x="594" y="-141.5" font-family="Helvetica,sans-Serif" font-size="10.00">_executor.h</text>
</a>
</g>
</g>
<!-- Node2 -->
<g id="node2" class="node">
<title>Node2</title>
<g id="a_node2"><a xlink:href="f__op__overlap__mng_8cpp.html" target="_top" xlink:title=" ">
<polygon fill="white" stroke="black" points="0,-67.5 0,-97.5 116,-97.5 116,-67.5 0,-67.5"/>
<text text-anchor="start" x="8" y="-85.5" font-family="Helvetica,sans-Serif" font-size="10.00">src/f/f_op/f_op_overlap</text>
<text text-anchor="middle" x="58" y="-74.5" font-family="Helvetica,sans-Serif" font-size="10.00">_mng.cpp</text>
</a>
</g>
</g>
<!-- Node1&#45;&gt;Node2 -->
<g id="edge1" class="edge">
<title>Node1&#45;&gt;Node2</title>
<path fill="none" stroke="midnightblue" d="M534.98,-144.16C445.81,-137.15 271.59,-121.69 125,-98 122.06,-97.53 119.06,-97.01 116.03,-96.45"/>
<polygon fill="midnightblue" stroke="midnightblue" points="534.92,-147.67 545.16,-144.95 535.46,-140.69 534.92,-147.67"/>
</g>
<!-- Node3 -->
<g id="node3" class="node">
<title>Node3</title>
<g id="a_node3"><a xlink:href="f__op__overlap__req_8cpp.html" target="_top" xlink:title=" ">
<polygon fill="white" stroke="black" points="134,-67.5 134,-97.5 250,-97.5 250,-67.5 134,-67.5"/>
<text text-anchor="start" x="142" y="-85.5" font-family="Helvetica,sans-Serif" font-size="10.00">src/f/f_op/f_op_overlap</text>
<text text-anchor="middle" x="192" y="-74.5" font-family="Helvetica,sans-Serif" font-size="10.00">_req.cpp</text>
</a>
</g>
</g>
<!-- Node1&#45;&gt;Node3 -->
<g id="edge2" class="edge">
<title>Node1&#45;&gt;Node3</title>
<path fill="none" stroke="midnightblue" d="M535.35,-140.81C468.32,-131.75 355.44,-115.69 259,-98 256.07,-97.46 253.08,-96.89 250.06,-96.3"/>
<polygon fill="midnightblue" stroke="midnightblue" points="534.92,-144.28 545.3,-142.15 535.85,-137.34 534.92,-144.28"/>
</g>
<!-- Node4 -->
<g id="node4" class="node">
<title>Node4</title>
<g id="a_node4"><a xlink:href="f__op__scene__pause_8cpp.html" target="_top" xlink:title=" ">
<polygon fill="white" stroke="black" points="268.5,-67.5 268.5,-97.5 379.5,-97.5 379.5,-67.5 268.5,-67.5"/>
<text text-anchor="start" x="276.5" y="-85.5" font-family="Helvetica,sans-Serif" font-size="10.00">src/f/f_op/f_op_scene</text>
<text text-anchor="middle" x="324" y="-74.5" font-family="Helvetica,sans-Serif" font-size="10.00">_pause.cpp</text>
</a>
</g>
</g>
<!-- Node1&#45;&gt;Node4 -->
<g id="edge3" class="edge">
<title>Node1&#45;&gt;Node4</title>
<path fill="none" stroke="midnightblue" d="M535.54,-134.43C489.29,-123.29 425.15,-107.85 379.65,-96.9"/>
<polygon fill="midnightblue" stroke="midnightblue" points="534.88,-137.87 545.42,-136.8 536.51,-131.06 534.88,-137.87"/>
</g>
<!-- Node5 -->
<g id="node5" class="node">
<title>Node5</title>
<g id="a_node5"><a xlink:href="f__pc__create__req_8cpp.html" target="_top" xlink:title=" ">
<polygon fill="white" stroke="black" points="398,-67.5 398,-97.5 510,-97.5 510,-67.5 398,-67.5"/>
<text text-anchor="start" x="406" y="-85.5" font-family="Helvetica,sans-Serif" font-size="10.00">src/f/f_pc/f_pc_create</text>
<text text-anchor="middle" x="454" y="-74.5" font-family="Helvetica,sans-Serif" font-size="10.00">_req.cpp</text>
</a>
</g>
</g>
<!-- Node1&#45;&gt;Node5 -->
<g id="edge4" class="edge">
<title>Node1&#45;&gt;Node5</title>
<path fill="none" stroke="midnightblue" d="M554.43,-130.13C532.19,-119.8 504.85,-107.11 484.32,-97.58"/>
<polygon fill="midnightblue" stroke="midnightblue" points="553.08,-133.36 563.62,-134.4 556.03,-127.01 553.08,-133.36"/>
</g>
<!-- Node6 -->
<g id="node6" class="node">
<title>Node6</title>
<g id="a_node6"><a xlink:href="f__pc__deletor_8cpp.html" target="_top" xlink:title=" ">
<polygon fill="white" stroke="black" points="528,-73 528,-92 660,-92 660,-73 528,-73"/>
<text text-anchor="middle" x="594" y="-80" font-family="Helvetica,sans-Serif" font-size="10.00">src/f/f_pc/f_pc_deletor.cpp</text>
</a>
</g>
</g>
<!-- Node1&#45;&gt;Node6 -->
<g id="edge5" class="edge">
<title>Node1&#45;&gt;Node6</title>
<path fill="none" stroke="midnightblue" d="M594,-124.25C594,-113.02 594,-100.38 594,-92.19"/>
<polygon fill="midnightblue" stroke="midnightblue" points="590.5,-124.4 594,-134.4 597.5,-124.4 590.5,-124.4"/>
</g>
<!-- Node7 -->
<g id="node7" class="node">
<title>Node7</title>
<g id="a_node7"><a xlink:href="f__pc__executor_8cpp.html" target="_top" xlink:title=" ">
<polygon fill="white" stroke="black" points="678,-73 678,-92 818,-92 818,-73 678,-73"/>
<text text-anchor="middle" x="748" y="-80" font-family="Helvetica,sans-Serif" font-size="10.00">src/f/f_pc/f_pc_executor.cpp</text>
</a>
</g>
</g>
<!-- Node1&#45;&gt;Node7 -->
<g id="edge6" class="edge">
<title>Node1&#45;&gt;Node7</title>
<path fill="none" stroke="midnightblue" d="M636.74,-130.46C666.5,-117.9 704.82,-101.72 727.84,-92.01"/>
<polygon fill="midnightblue" stroke="midnightblue" points="635.27,-127.28 627.42,-134.4 637.99,-133.73 635.27,-127.28"/>
</g>
<!-- Node8 -->
<g id="node8" class="node">
<title>Node8</title>
<g id="a_node8"><a xlink:href="f__pc__node__req_8cpp.html" target="_top" xlink:title=" ">
<polygon fill="white" stroke="black" points="836,-67.5 836,-97.5 942,-97.5 942,-67.5 836,-67.5"/>
<text text-anchor="start" x="844" y="-85.5" font-family="Helvetica,sans-Serif" font-size="10.00">src/f/f_pc/f_pc_node</text>
<text text-anchor="middle" x="889" y="-74.5" font-family="Helvetica,sans-Serif" font-size="10.00">_req.cpp</text>
</a>
</g>
</g>
<!-- Node1&#45;&gt;Node8 -->
<g id="edge7" class="edge">
<title>Node1&#45;&gt;Node8</title>
<path fill="none" stroke="midnightblue" d="M652.73,-136.05C699.87,-125.99 767.75,-111.35 827,-98 829.91,-97.34 832.9,-96.67 835.91,-95.98"/>
<polygon fill="midnightblue" stroke="midnightblue" points="651.74,-132.68 642.69,-138.19 653.2,-139.53 651.74,-132.68"/>
</g>
<!-- Node9 -->
<g id="node9" class="node">
<title>Node9</title>
<g id="a_node9"><a xlink:href="f__pc__manager_8cpp.html" target="_top" xlink:title=" ">
<polygon fill="white" stroke="black" points="960,-73 960,-92 1100,-92 1100,-73 960,-73"/>
<text text-anchor="middle" x="1030" y="-80" font-family="Helvetica,sans-Serif" font-size="10.00">src/f/f_pc/f_pc_manager.cpp</text>
</a>
</g>
</g>
<!-- Node1&#45;&gt;Node9 -->
<g id="edge8" class="edge">
<title>Node1&#45;&gt;Node9</title>
<path fill="none" stroke="midnightblue" d="M652.67,-140.95C723.5,-131.67 846.18,-115.03 951,-98 962.15,-96.19 974.15,-94.07 985.35,-92.02"/>
<polygon fill="midnightblue" stroke="midnightblue" points="652.06,-137.5 642.6,-142.27 652.97,-144.44 652.06,-137.5"/>
</g>
<!-- Node10 -->
<g id="node10" class="node">
<title>Node10</title>
<g id="a_node10"><a xlink:href="f__op__actor__mng_8h.html" target="_top" xlink:title=" ">
<polygon fill="white" stroke="black" points="1118.5,-67.5 1118.5,-97.5 1215.5,-97.5 1215.5,-67.5 1118.5,-67.5"/>
<text text-anchor="start" x="1126.5" y="-85.5" font-family="Helvetica,sans-Serif" font-size="10.00">include/f/f_op/f_op</text>
<text text-anchor="middle" x="1167" y="-74.5" font-family="Helvetica,sans-Serif" font-size="10.00">_actor_mng.h</text>
</a>
</g>
</g>
<!-- Node1&#45;&gt;Node10 -->
<g id="edge9" class="edge">
<title>Node1&#45;&gt;Node10</title>
<path fill="none" stroke="midnightblue" d="M652.69,-145.56C748.68,-140.13 945.01,-126.38 1109,-98 1112.07,-97.47 1115.21,-96.86 1118.38,-96.21"/>
<polygon fill="midnightblue" stroke="midnightblue" points="652.39,-142.07 642.6,-146.12 652.78,-149.06 652.39,-142.07"/>
</g>
<!-- Node11 -->
<g id="node11" class="node">
<title>Node11</title>
<g id="a_node11"><a xlink:href="d__attention_8cpp.html" target="_top" xlink:title=" ">
<polygon fill="white" stroke="black" points="812.5,-6 812.5,-25 919.5,-25 919.5,-6 812.5,-6"/>
<text text-anchor="middle" x="866" y="-13" font-family="Helvetica,sans-Serif" font-size="10.00">src/d/d_attention.cpp</text>
</a>
</g>
</g>
<!-- Node10&#45;&gt;Node11 -->
<g id="edge10" class="edge">
<title>Node10&#45;&gt;Node11</title>
<path fill="none" stroke="midnightblue" d="M1108.14,-66.88C1027.25,-48.97 1005.03,-47.66 928,-31 919.46,-29.15 910.29,-27.07 901.69,-25.06"/>
<polygon fill="midnightblue" stroke="midnightblue" points="1107.78,-70.38 1118.31,-69.14 1109.31,-63.55 1107.78,-70.38"/>
</g>
<!-- Node12 -->
<g id="node12" class="node">
<title>Node12</title>
<g id="a_node12"><a xlink:href="d__camera_8cpp.html" target="_top" xlink:title=" ">
<polygon fill="white" stroke="black" points="937,-6 937,-25 1039,-25 1039,-6 937,-6"/>
<text text-anchor="middle" x="988" y="-13" font-family="Helvetica,sans-Serif" font-size="10.00">src/d/d_camera.cpp</text>
</a>
</g>
</g>
<!-- Node10&#45;&gt;Node12 -->
<g id="edge11" class="edge">
<title>Node10&#45;&gt;Node12</title>
<path fill="none" stroke="midnightblue" d="M1118.66,-63.95C1083.89,-51.32 1038.53,-34.85 1011.43,-25.01"/>
<polygon fill="midnightblue" stroke="midnightblue" points="1117.57,-67.27 1128.16,-67.4 1119.95,-60.69 1117.57,-67.27"/>
</g>
<!-- Node13 -->
<g id="node13" class="node">
<title>Node13</title>
<g id="a_node13"><a xlink:href="d__stage_8cpp.html" target="_top" xlink:title=" ">
<polygon fill="white" stroke="black" points="1057,-6 1057,-25 1151,-25 1151,-6 1057,-6"/>
<text text-anchor="middle" x="1104" y="-13" font-family="Helvetica,sans-Serif" font-size="10.00">src/d/d_stage.cpp</text>
</a>
</g>
</g>
<!-- Node10&#45;&gt;Node13 -->
<g id="edge12" class="edge">
<title>Node10&#45;&gt;Node13</title>
<path fill="none" stroke="midnightblue" d="M1146.16,-60C1134.66,-48.13 1121.01,-34.05 1112.43,-25.19"/>
<polygon fill="midnightblue" stroke="midnightblue" points="1143.86,-62.65 1153.33,-67.4 1148.88,-57.78 1143.86,-62.65"/>
</g>
<!-- Node14 -->
<g id="node14" class="node">
<title>Node14</title>
<g id="a_node14"><a xlink:href="d__a__alink_8cpp.html" target="_top" xlink:title=" ">
<polygon fill="white" stroke="black" points="1169.5,-6 1169.5,-25 1288.5,-25 1288.5,-6 1169.5,-6"/>
<text text-anchor="middle" x="1229" y="-13" font-family="Helvetica,sans-Serif" font-size="10.00">src/d/d_a/d_a_alink.cpp</text>
</a>
</g>
</g>
<!-- Node10&#45;&gt;Node14 -->
<g id="edge13" class="edge">
<title>Node10&#45;&gt;Node14</title>
<path fill="none" stroke="midnightblue" d="M1187.51,-60C1198.83,-48.13 1212.26,-34.05 1220.71,-25.19"/>
<polygon fill="midnightblue" stroke="midnightblue" points="1184.82,-57.74 1180.45,-67.4 1189.89,-62.58 1184.82,-57.74"/>
</g>
<!-- Node15 -->
<g id="node15" class="node">
<title>Node15</title>
<g id="a_node15"><a xlink:href="f__op__actor__mng_8cpp.html" target="_top" xlink:title=" ">
<polygon fill="white" stroke="black" points="1306.5,-0.5 1306.5,-30.5 1413.5,-30.5 1413.5,-0.5 1306.5,-0.5"/>
<text text-anchor="start" x="1314.5" y="-18.5" font-family="Helvetica,sans-Serif" font-size="10.00">src/f/f_op/f_op_actor</text>
<text text-anchor="middle" x="1360" y="-7.5" font-family="Helvetica,sans-Serif" font-size="10.00">_mng.cpp</text>
</a>
</g>
</g>
<!-- Node10&#45;&gt;Node15 -->
<g id="edge14" class="edge">
<title>Node10&#45;&gt;Node15</title>
<path fill="none" stroke="midnightblue" d="M1218.69,-64.09C1249.84,-53.6 1289.01,-40.41 1318.2,-30.58"/>
<polygon fill="midnightblue" stroke="midnightblue" points="1217.24,-60.89 1208.88,-67.4 1219.47,-67.52 1217.24,-60.89"/>
</g>
<!-- Node16 -->
<g id="node16" class="node">
<title>Node16</title>
<g id="a_node16"><a xlink:href="m__Do__main_8cpp.html" target="_top" xlink:title=" ">
<polygon fill="white" stroke="black" points="1431.5,-6 1431.5,-25 1562.5,-25 1562.5,-6 1431.5,-6"/>
<text text-anchor="middle" x="1497" y="-13" font-family="Helvetica,sans-Serif" font-size="10.00">src/m_Do/m_Do_main.cpp</text>
</a>
</g>
</g>
<!-- Node10&#45;&gt;Node16 -->
<g id="edge15" class="edge">
<title>Node10&#45;&gt;Node16</title>
<path fill="none" stroke="midnightblue" d="M1225.84,-69.91C1291.23,-57.03 1395.27,-36.54 1453.64,-25.04"/>
<polygon fill="midnightblue" stroke="midnightblue" points="1224.83,-66.54 1215.69,-71.91 1226.18,-73.41 1224.83,-66.54"/>
</g>
</g>
</svg>
