<?xml version="1.0" encoding="UTF-8" standalone="no"?>
<!DOCTYPE svg PUBLIC "-//W3C//DTD SVG 1.1//EN"
 "http://www.w3.org/Graphics/SVG/1.1/DTD/svg11.dtd">
<!-- Generated by graphviz version 2.47.0 (20210316.2052)
 -->
<!-- Title: include/f/f_pc/f_pc_node_req.h Pages: 1 -->
<!--zoomable 240 -->
<svg id="main" version="1.1" xmlns="http://www.w3.org/2000/svg" xmlns:xlink="http://www.w3.org/1999/xlink" xml:space="preserve" onload="init(evt)">
<style type="text/css"><![CDATA[
.edge:hover path { stroke: red; }
.edge:hover polygon { stroke: red; fill: red; }
]]></style>
<script type="text/javascript"><![CDATA[
var edges = document.getElementsByTagName('g');
if (edges && edges.length) {
  for (var i=0;i<edges.length;i++) {
    if (edges[i].id.substr(0,4)=='edge') {
      edges[i].setAttribute('class','edge');
    }
  }
}
]]></script>
        <defs>
                <circle id="rim" cx="0" cy="0" r="7"/>
                <circle id="rim2" cx="0" cy="0" r="3.5"/>
                <g id="zoomPlus">
                        <use xlink:href="#rim" fill="#404040">
                                <set attributeName="fill" to="#808080" begin="zoomplus.mouseover" end="zoomplus.mouseout"/>
                        </use>
                        <path d="M-4,0h8M0,-4v8" fill="none" stroke="white" stroke-width="1.5" pointer-events="none"/>
                </g>
                <g id="zoomMin">
                        <use xlink:href="#rim" fill="#404040">
                                <set attributeName="fill" to="#808080" begin="zoomminus.mouseover" end="zoomminus.mouseout"/>
                        </use>
                        <path d="M-4,0h8" fill="none" stroke="white" stroke-width="1.5" pointer-events="none"/>
                </g>
                <g id="dirArrow">
                        <path fill="none" stroke="white" stroke-width="1.5" d="M0,-3.0v7 M-2.5,-0.5L0,-3.0L2.5,-0.5"/>
                </g>
               <g id="resetDef">
                       <use xlink:href="#rim2" fill="#404040">
                               <set attributeName="fill" to="#808080" begin="reset.mouseover" end="reset.mouseout"/>
                       </use>
               </g>
        </defs>

<script type="text/javascript">
var viewWidth = 1109;
var viewHeight = 240;
var sectionId = 'dynsection-1';
</script>
<script xlink:href="svgpan.js"/>
<svg id="graph" class="graph">
<g id="viewport">
<title>include/f/f_pc/f_pc_node_req.h</title>
<polygon fill="white" stroke="transparent" points="-4,4 -4,-236 1104.5,-236 1104.5,4 -4,4"/>
<!-- Node1 -->
<g id="node1" class="node">
<title>Node1</title>
<g id="a_node1"><a xlink:title=" ">
<polygon fill="#bfbfbf" stroke="black" points="281,-201.5 281,-231.5 378,-231.5 378,-201.5 281,-201.5"/>
<text text-anchor="start" x="289" y="-219.5" font-family="Helvetica,sans-Serif" font-size="10.00">include/f/f_pc/f_pc</text>
<text text-anchor="middle" x="329.5" y="-208.5" font-family="Helvetica,sans-Serif" font-size="10.00">_node_req.h</text>
</a>
</g>
</g>
<!-- Node2 -->
<g id="node2" class="node">
<title>Node2</title>
<g id="a_node2"><a xlink:href="f__pc__manager_8cpp.html" target="_top" xlink:title=" ">
<polygon fill="white" stroke="black" points="286.5,-73 286.5,-92 426.5,-92 426.5,-73 286.5,-73"/>
<text text-anchor="middle" x="356.5" y="-80" font-family="Helvetica,sans-Serif" font-size="10.00">src/f/f_pc/f_pc_manager.cpp</text>
</a>
</g>
</g>
<!-- Node1&#45;&gt;Node2 -->
<g id="edge1" class="edge">
<title>Node1&#45;&gt;Node2</title>
<path fill="none" stroke="midnightblue" d="M341.65,-192.25C345.48,-183.88 349.28,-174.22 351.5,-165 357.73,-139.09 357.51,-107.28 356.95,-92.21"/>
<polygon fill="midnightblue" stroke="midnightblue" points="338.44,-190.85 337.25,-201.38 344.75,-193.9 338.44,-190.85"/>
</g>
<!-- Node3 -->
<g id="node3" class="node">
<title>Node3</title>
<g id="a_node3"><a xlink:href="f__pc__node__req_8cpp.html" target="_top" xlink:title=" ">
<polygon fill="white" stroke="black" points="236.5,-134.5 236.5,-164.5 342.5,-164.5 342.5,-134.5 236.5,-134.5"/>
<text text-anchor="start" x="244.5" y="-152.5" font-family="Helvetica,sans-Serif" font-size="10.00">src/f/f_pc/f_pc_node</text>
<text text-anchor="middle" x="289.5" y="-141.5" font-family="Helvetica,sans-Serif" font-size="10.00">_req.cpp</text>
</a>
</g>
</g>
<!-- Node1&#45;&gt;Node3 -->
<g id="edge2" class="edge">
<title>Node1&#45;&gt;Node3</title>
<path fill="none" stroke="midnightblue" d="M315.57,-192.87C309.78,-183.46 303.24,-172.83 298.16,-164.58"/>
<polygon fill="midnightblue" stroke="midnightblue" points="312.6,-194.71 320.82,-201.4 318.56,-191.05 312.6,-194.71"/>
</g>
<!-- Node4 -->
<g id="node4" class="node">
<title>Node4</title>
<g id="a_node4"><a xlink:href="f__op__scene__req_8h.html" target="_top" xlink:title=" ">
<polygon fill="white" stroke="black" points="122,-134.5 122,-164.5 219,-164.5 219,-134.5 122,-134.5"/>
<text text-anchor="start" x="130" y="-152.5" font-family="Helvetica,sans-Serif" font-size="10.00">include/f/f_op/f_op</text>
<text text-anchor="middle" x="170.5" y="-141.5" font-family="Helvetica,sans-Serif" font-size="10.00">_scene_req.h</text>
</a>
</g>
</g>
<!-- Node1&#45;&gt;Node4 -->
<g id="edge3" class="edge">
<title>Node1&#45;&gt;Node4</title>
<path fill="none" stroke="midnightblue" d="M285.58,-197.54C260.13,-187.14 228.57,-174.24 204.93,-164.58"/>
<polygon fill="midnightblue" stroke="midnightblue" points="284.42,-200.85 295,-201.4 287.07,-194.37 284.42,-200.85"/>
</g>
<!-- Node7 -->
<g id="node7" class="node">
<title>Node7</title>
<g id="a_node7"><a xlink:href="f__pc__manager_8h.html" target="_top" xlink:title=" ">
<polygon fill="white" stroke="black" points="647,-134.5 647,-164.5 744,-164.5 744,-134.5 647,-134.5"/>
<text text-anchor="start" x="655" y="-152.5" font-family="Helvetica,sans-Serif" font-size="10.00">include/f/f_pc/f_pc</text>
<text text-anchor="middle" x="695.5" y="-141.5" font-family="Helvetica,sans-Serif" font-size="10.00">_manager.h</text>
</a>
</g>
</g>
<!-- Node1&#45;&gt;Node7 -->
<g id="edge6" class="edge">
<title>Node1&#45;&gt;Node7</title>
<path fill="none" stroke="midnightblue" d="M388.33,-205.05C460.14,-192.3 580.22,-170.97 646.99,-159.12"/>
<polygon fill="midnightblue" stroke="midnightblue" points="387.34,-201.67 378.1,-206.87 388.56,-208.57 387.34,-201.67"/>
</g>
<!-- Node5 -->
<g id="node5" class="node">
<title>Node5</title>
<g id="a_node5"><a xlink:href="f__op__scene__mng_8cpp.html" target="_top" xlink:title=" ">
<polygon fill="white" stroke="black" points="129,-67.5 129,-97.5 240,-97.5 240,-67.5 129,-67.5"/>
<text text-anchor="start" x="137" y="-85.5" font-family="Helvetica,sans-Serif" font-size="10.00">src/f/f_op/f_op_scene</text>
<text text-anchor="middle" x="184.5" y="-74.5" font-family="Helvetica,sans-Serif" font-size="10.00">_mng.cpp</text>
</a>
</g>
</g>
<!-- Node4&#45;&gt;Node5 -->
<g id="edge4" class="edge">
<title>Node4&#45;&gt;Node5</title>
<path fill="none" stroke="midnightblue" d="M175.69,-124.4C177.64,-115.37 179.78,-105.41 181.47,-97.58"/>
<polygon fill="midnightblue" stroke="midnightblue" points="172.22,-123.88 173.54,-134.4 179.06,-125.36 172.22,-123.88"/>
</g>
<!-- Node6 -->
<g id="node6" class="node">
<title>Node6</title>
<g id="a_node6"><a xlink:href="f__op__scene__req_8cpp.html" target="_top" xlink:title=" ">
<polygon fill="white" stroke="black" points="0,-67.5 0,-97.5 111,-97.5 111,-67.5 0,-67.5"/>
<text text-anchor="start" x="8" y="-85.5" font-family="Helvetica,sans-Serif" font-size="10.00">src/f/f_op/f_op_scene</text>
<text text-anchor="middle" x="55.5" y="-74.5" font-family="Helvetica,sans-Serif" font-size="10.00">_req.cpp</text>
</a>
</g>
</g>
<!-- Node4&#45;&gt;Node6 -->
<g id="edge5" class="edge">
<title>Node4&#45;&gt;Node6</title>
<path fill="none" stroke="midnightblue" d="M136.52,-129.3C118.53,-119.12 96.82,-106.85 80.4,-97.58"/>
<polygon fill="midnightblue" stroke="midnightblue" points="135.12,-132.52 145.55,-134.4 138.56,-126.43 135.12,-132.52"/>
</g>
<!-- Node7&#45;&gt;Node2 -->
<g id="edge12" class="edge">
<title>Node7&#45;&gt;Node2</title>
<path fill="none" stroke="midnightblue" d="M636.94,-137.27C569.85,-124.41 461.43,-103.62 400.93,-92.02"/>
<polygon fill="midnightblue" stroke="midnightblue" points="636.45,-140.74 646.93,-139.19 637.77,-133.87 636.45,-140.74"/>
</g>
<!-- Node8 -->
<g id="node8" class="node">
<title>Node8</title>
<g id="a_node8"><a xlink:href="f__ap__game_8cpp.html" target="_top" xlink:title=" ">
<polygon fill="white" stroke="black" points="823,-73 823,-92 928,-92 928,-73 823,-73"/>
<text text-anchor="middle" x="875.5" y="-80" font-family="Helvetica,sans-Serif" font-size="10.00">src/f/f_ap_game.cpp</text>
</a>
</g>
</g>
<!-- Node7&#45;&gt;Node8 -->
<g id="edge7" class="edge">
<title>Node7&#45;&gt;Node8</title>
<path fill="none" stroke="midnightblue" d="M744.11,-130.95C779.07,-118.32 824.68,-101.85 851.94,-92.01"/>
<polygon fill="midnightblue" stroke="midnightblue" points="742.77,-127.71 734.56,-134.4 745.15,-134.29 742.77,-127.71"/>
</g>
<!-- Node9 -->
<g id="node9" class="node">
<title>Node9</title>
<g id="a_node9"><a xlink:href="d__a__alink_8cpp.html" target="_top" xlink:title=" ">
<polygon fill="white" stroke="black" points="977,-6 977,-25 1096,-25 1096,-6 977,-6"/>
<text text-anchor="middle" x="1036.5" y="-13" font-family="Helvetica,sans-Serif" font-size="10.00">src/d/d_a/d_a_alink.cpp</text>
</a>
</g>
</g>
<!-- Node7&#45;&gt;Node9 -->
<g id="edge8" class="edge">
<title>Node7&#45;&gt;Node9</title>
<path fill="none" stroke="midnightblue" d="M754.19,-144.19C804.83,-138.65 878.85,-126.13 937.5,-98 938.78,-97.39 1000.89,-46 1026.06,-25.15"/>
<polygon fill="midnightblue" stroke="midnightblue" points="753.65,-140.73 744.07,-145.24 754.37,-147.69 753.65,-140.73"/>
</g>
<!-- Node10 -->
<g id="node10" class="node">
<title>Node10</title>
<g id="a_node10"><a xlink:href="f__op__kankyo__mng_8cpp.html" target="_top" xlink:title=" ">
<polygon fill="white" stroke="black" points="984.5,-67.5 984.5,-97.5 1100.5,-97.5 1100.5,-67.5 984.5,-67.5"/>
<text text-anchor="start" x="992.5" y="-85.5" font-family="Helvetica,sans-Serif" font-size="10.00">src/f/f_op/f_op_kankyo</text>
<text text-anchor="middle" x="1042.5" y="-74.5" font-family="Helvetica,sans-Serif" font-size="10.00">_mng.cpp</text>
</a>
</g>
</g>
<!-- Node7&#45;&gt;Node10 -->
<g id="edge9" class="edge">
<title>Node7&#45;&gt;Node10</title>
<path fill="none" stroke="midnightblue" d="M754.27,-138.01C809.99,-127.99 896.01,-112.34 970.5,-98 975.01,-97.13 979.67,-96.22 984.36,-95.3"/>
<polygon fill="midnightblue" stroke="midnightblue" points="753.45,-134.6 744.23,-139.81 754.69,-141.49 753.45,-134.6"/>
</g>
<!-- Node11 -->
<g id="node11" class="node">
<title>Node11</title>
<g id="a_node11"><a xlink:href="f__op__overlap__req_8cpp.html" target="_top" xlink:title=" ">
<polygon fill="white" stroke="black" points="444.5,-67.5 444.5,-97.5 560.5,-97.5 560.5,-67.5 444.5,-67.5"/>
<text text-anchor="start" x="452.5" y="-85.5" font-family="Helvetica,sans-Serif" font-size="10.00">src/f/f_op/f_op_overlap</text>
<text text-anchor="middle" x="502.5" y="-74.5" font-family="Helvetica,sans-Serif" font-size="10.00">_req.cpp</text>
</a>
</g>
</g>
<!-- Node7&#45;&gt;Node11 -->
<g id="edge10" class="edge">
<title>Node7&#45;&gt;Node11</title>
<path fill="none" stroke="midnightblue" d="M643.81,-131.09C612.66,-120.6 573.49,-107.41 544.3,-97.58"/>
<polygon fill="midnightblue" stroke="midnightblue" points="643.03,-134.52 653.62,-134.4 645.26,-127.89 643.03,-134.52"/>
</g>
<!-- Node12 -->
<g id="node12" class="node">
<title>Node12</title>
<g id="a_node12"><a xlink:href="f__op__scene__pause_8cpp.html" target="_top" xlink:title=" ">
<polygon fill="white" stroke="black" points="579,-67.5 579,-97.5 690,-97.5 690,-67.5 579,-67.5"/>
<text text-anchor="start" x="587" y="-85.5" font-family="Helvetica,sans-Serif" font-size="10.00">src/f/f_op/f_op_scene</text>
<text text-anchor="middle" x="634.5" y="-74.5" font-family="Helvetica,sans-Serif" font-size="10.00">_pause.cpp</text>
</a>
</g>
</g>
<!-- Node7&#45;&gt;Node12 -->
<g id="edge11" class="edge">
<title>Node7&#45;&gt;Node12</title>
<path fill="none" stroke="midnightblue" d="M675.35,-127.02C666.26,-117.34 655.78,-106.17 647.71,-97.58"/>
<polygon fill="midnightblue" stroke="midnightblue" points="672.87,-129.5 682.26,-134.4 677.97,-124.71 672.87,-129.5"/>
</g>
<!-- Node13 -->
<g id="node13" class="node">
<title>Node13</title>
<g id="a_node13"><a xlink:href="f__op__actor__mng_8h.html" target="_top" xlink:title=" ">
<polygon fill="white" stroke="black" points="708,-67.5 708,-97.5 805,-97.5 805,-67.5 708,-67.5"/>
<text text-anchor="start" x="716" y="-85.5" font-family="Helvetica,sans-Serif" font-size="10.00">include/f/f_op/f_op</text>
<text text-anchor="middle" x="756.5" y="-74.5" font-family="Helvetica,sans-Serif" font-size="10.00">_actor_mng.h</text>
</a>
</g>
</g>
<!-- Node7&#45;&gt;Node13 -->
<g id="edge13" class="edge">
<title>Node7&#45;&gt;Node13</title>
<path fill="none" stroke="midnightblue" d="M715.65,-127.02C724.74,-117.34 735.22,-106.17 743.29,-97.58"/>
<polygon fill="midnightblue" stroke="midnightblue" points="713.03,-124.71 708.74,-134.4 718.13,-129.5 713.03,-124.71"/>
</g>
<!-- Node13&#45;&gt;Node9 -->
<g id="edge17" class="edge">
<title>Node13&#45;&gt;Node9</title>
<path fill="none" stroke="midnightblue" d="M815.13,-66.88C885.37,-50.18 955.61,-34.41 997.94,-25.01"/>
<polygon fill="midnightblue" stroke="midnightblue" points="814.13,-63.52 805.22,-69.24 815.75,-70.33 814.13,-63.52"/>
</g>
<!-- Node14 -->
<g id="node14" class="node">
<title>Node14</title>
<g id="a_node14"><a xlink:href="d__attention_8cpp.html" target="_top" xlink:title=" ">
<polygon fill="white" stroke="black" points="346,-6 346,-25 453,-25 453,-6 346,-6"/>
<text text-anchor="middle" x="399.5" y="-13" font-family="Helvetica,sans-Serif" font-size="10.00">src/d/d_attention.cpp</text>
</a>
</g>
</g>
<!-- Node13&#45;&gt;Node14 -->
<g id="edge14" class="edge">
<title>Node13&#45;&gt;Node14</title>
<path fill="none" stroke="midnightblue" d="M697.74,-66.98C592.28,-46.34 562.95,-50.54 461.5,-31 452.49,-29.27 442.81,-27.13 433.83,-25.04"/>
<polygon fill="midnightblue" stroke="midnightblue" points="697.35,-70.47 707.84,-68.98 698.71,-63.6 697.35,-70.47"/>
</g>
<!-- Node15 -->
<g id="node15" class="node">
<title>Node15</title>
<g id="a_node15"><a xlink:href="d__camera_8cpp.html" target="_top" xlink:title=" ">
<polygon fill="white" stroke="black" points="470.5,-6 470.5,-25 572.5,-25 572.5,-6 470.5,-6"/>
<text text-anchor="middle" x="521.5" y="-13" font-family="Helvetica,sans-Serif" font-size="10.00">src/d/d_camera.cpp</text>
</a>
</g>
</g>
<!-- Node13&#45;&gt;Node15 -->
<g id="edge15" class="edge">
<title>Node13&#45;&gt;Node15</title>
<path fill="none" stroke="midnightblue" d="M697.94,-65.3C651.86,-52.56 589.46,-35.3 552.54,-25.09"/>
<polygon fill="midnightblue" stroke="midnightblue" points="697.24,-68.74 707.81,-68.03 699.1,-61.99 697.24,-68.74"/>
</g>
<!-- Node16 -->
<g id="node16" class="node">
<title>Node16</title>
<g id="a_node16"><a xlink:href="d__stage_8cpp.html" target="_top" xlink:title=" ">
<polygon fill="white" stroke="black" points="590.5,-6 590.5,-25 684.5,-25 684.5,-6 590.5,-6"/>
<text text-anchor="middle" x="637.5" y="-13" font-family="Helvetica,sans-Serif" font-size="10.00">src/d/d_stage.cpp</text>
</a>
</g>
</g>
<!-- Node13&#45;&gt;Node16 -->
<g id="edge16" class="edge">
<title>Node13&#45;&gt;Node16</title>
<path fill="none" stroke="midnightblue" d="M721.67,-62.47C698.95,-50.06 670.4,-34.47 653.07,-25.01"/>
<polygon fill="midnightblue" stroke="midnightblue" points="720.22,-65.67 730.68,-67.4 723.58,-59.53 720.22,-65.67"/>
</g>
<!-- Node17 -->
<g id="node17" class="node">
<title>Node17</title>
<g id="a_node17"><a xlink:href="f__op__actor__mng_8cpp.html" target="_top" xlink:title=" ">
<polygon fill="white" stroke="black" points="703,-0.5 703,-30.5 810,-30.5 810,-0.5 703,-0.5"/>
<text text-anchor="start" x="711" y="-18.5" font-family="Helvetica,sans-Serif" font-size="10.00">src/f/f_op/f_op_actor</text>
<text text-anchor="middle" x="756.5" y="-7.5" font-family="Helvetica,sans-Serif" font-size="10.00">_mng.cpp</text>
</a>
</g>
</g>
<!-- Node13&#45;&gt;Node17 -->
<g id="edge18" class="edge">
<title>Node13&#45;&gt;Node17</title>
<path fill="none" stroke="midnightblue" d="M756.5,-57.11C756.5,-48.15 756.5,-38.32 756.5,-30.58"/>
<polygon fill="midnightblue" stroke="midnightblue" points="753,-57.4 756.5,-67.4 760,-57.4 753,-57.4"/>
</g>
<!-- Node18 -->
<g id="node18" class="node">
<title>Node18</title>
<g id="a_node18"><a xlink:href="m__Do__main_8cpp.html" target="_top" xlink:title=" ">
<polygon fill="white" stroke="black" points="828,-6 828,-25 959,-25 959,-6 828,-6"/>
<text text-anchor="middle" x="893.5" y="-13" font-family="Helvetica,sans-Serif" font-size="10.00">src/m_Do/m_Do_main.cpp</text>
</a>
</g>
</g>
<!-- Node13&#45;&gt;Node18 -->
<g id="edge19" class="edge">
<title>Node13&#45;&gt;Node18</title>
<path fill="none" stroke="midnightblue" d="M795.56,-62.97C821.88,-50.48 855.36,-34.6 875.57,-25.01"/>
<polygon fill="midnightblue" stroke="midnightblue" points="793.76,-59.95 786.23,-67.4 796.76,-66.27 793.76,-59.95"/>
</g>
</g>
</svg>
        <g id="navigator" transform="translate(0 0)" fill="#404254">
                <rect fill="#f2f5e9" fill-opacity="0.5" stroke="#606060" stroke-width=".5" x="0" y="0" width="60" height="60"/>
                <use id="zoomplus" xlink:href="#zoomPlus" x="17" y="9" onmousedown="handleZoom(evt,'in')"/>
                <use id="zoomminus" xlink:href="#zoomMin" x="42" y="9" onmousedown="handleZoom(evt,'out')"/>
                <use id="reset" xlink:href="#resetDef" x="30" y="36" onmousedown="handleReset()"/>
                <g id="arrowUp" xlink:href="#dirArrow" transform="translate(30 24)" onmousedown="handlePan(0,-1)">
                  <use xlink:href="#rim" fill="#404040">
                        <set attributeName="fill" to="#808080" begin="arrowUp.mouseover" end="arrowUp.mouseout"/>
                  </use>
                  <path fill="none" stroke="white" stroke-width="1.5" d="M0,-3.0v7 M-2.5,-0.5L0,-3.0L2.5,-0.5"/>
                </g>
                <g id="arrowRight" xlink:href="#dirArrow" transform="rotate(90) translate(36 -43)" onmousedown="handlePan(1,0)">
                  <use xlink:href="#rim" fill="#404040">
                        <set attributeName="fill" to="#808080" begin="arrowRight.mouseover" end="arrowRight.mouseout"/>
                  </use>
                  <path fill="none" stroke="white" stroke-width="1.5" d="M0,-3.0v7 M-2.5,-0.5L0,-3.0L2.5,-0.5"/>
                </g>
                <g id="arrowDown" xlink:href="#dirArrow" transform="rotate(180) translate(-30 -48)" onmousedown="handlePan(0,1)">
                  <use xlink:href="#rim" fill="#404040">
                        <set attributeName="fill" to="#808080" begin="arrowDown.mouseover" end="arrowDown.mouseout"/>
                  </use>
                  <path fill="none" stroke="white" stroke-width="1.5" d="M0,-3.0v7 M-2.5,-0.5L0,-3.0L2.5,-0.5"/>
                </g>
                <g id="arrowLeft" xlink:href="#dirArrow" transform="rotate(270) translate(-36 17)" onmousedown="handlePan(-1,0)">
                  <use xlink:href="#rim" fill="#404040">
                        <set attributeName="fill" to="#808080" begin="arrowLeft.mouseover" end="arrowLeft.mouseout"/>
                  </use>
                  <path fill="none" stroke="white" stroke-width="1.5" d="M0,-3.0v7 M-2.5,-0.5L0,-3.0L2.5,-0.5"/>
                </g>
        </g>
        <svg viewBox="0 0 15 15" width="100%" height="30px" preserveAspectRatio="xMaxYMin meet">
         <g id="arrow_out" transform="scale(0.3 0.3)">
          <a xlink:href="f__pc__node__req_8h__dep__incl_org.svg" target="_base">
           <rect id="button" ry="5" rx="5" y="6" x="6" height="38" width="38"
                fill="#f2f5e9" fill-opacity="0.5" stroke="#606060" stroke-width="1.0"/>
           <path id="arrow"
             d="M 11.500037,31.436501 C 11.940474,20.09759 22.043105,11.32322 32.158766,21.979434 L 37.068811,17.246167 C 37.068811,17.246167 37.088388,32 37.088388,32 L 22.160133,31.978069 C 22.160133,31.978069 26.997745,27.140456 26.997745,27.140456 C 18.528582,18.264221 13.291696,25.230495 11.500037,31.436501 z"
             style="fill:#404040;"/>
          </a>
         </g>
        </svg>
</svg>
