<?xml version="1.0" encoding="UTF-8" standalone="no"?>
<!DOCTYPE svg PUBLIC "-//W3C//DTD SVG 1.1//EN"
 "http://www.w3.org/Graphics/SVG/1.1/DTD/svg11.dtd">
<!-- Generated by graphviz version 7.0.5 (20221223.1930)
 -->
<!-- Title: include/f_pc/f_pc_node_req.h Pages: 1 -->
<svg width="336pt" height="280pt"
 viewBox="0.00 0.00 335.50 280.00" xmlns="http://www.w3.org/2000/svg" xmlns:xlink="http://www.w3.org/1999/xlink">
<g id="graph0" class="graph" transform="scale(1 1) rotate(0) translate(4 276)">
<title>include/f_pc/f_pc_node_req.h</title>
<!-- Node1 -->
<g id="node1" class="node">
<title>Node1</title>
<g id="a_node1"><a xlink:title=" ">
<polygon fill="#999999" stroke="#666666" points="195.5,-272 78.5,-272 78.5,-242 195.5,-242 195.5,-272"/>
<text text-anchor="start" x="86.5" y="-260" font-family="Helvetica,sans-Serif" font-size="10.00">include/f_pc/f_pc_node</text>
<text text-anchor="middle" x="137" y="-249" font-family="Helvetica,sans-Serif" font-size="10.00">_req.h</text>
</a>
</g>
</g>
<!-- Node2 -->
<g id="node2" class="node">
<title>Node2</title>
<g id="a_node2"><a xlink:href="c__phase_8h.html" target="_top" xlink:title=" ">
<polygon fill="white" stroke="#666666" points="116,-151 0,-151 0,-121 116,-121 116,-151"/>
<text text-anchor="start" x="8" y="-139" font-family="Helvetica,sans-Serif" font-size="10.00">SSystem/SComponent</text>
<text text-anchor="middle" x="58" y="-128" font-family="Helvetica,sans-Serif" font-size="10.00">/c_phase.h</text>
</a>
</g>
</g>
<!-- Node1&#45;&gt;Node2 -->
<g id="edge1" class="edge">
<title>Node1&#45;&gt;Node2</title>
<path fill="none" stroke="#63b8ff" d="M113.46,-241.52C100.93,-232.7 86.25,-220.36 77,-206 68.57,-192.91 63.84,-176.11 61.21,-162.36"/>
<polygon fill="#63b8ff" stroke="#63b8ff" points="64.7,-162.03 59.64,-152.73 57.79,-163.16 64.7,-162.03"/>
</g>
<!-- Node5 -->
<g id="node5" class="node">
<title>Node5</title>
<g id="a_node5"><a xlink:href="f__pc__method_8h.html" target="_top" xlink:title=" ">
<polygon fill="white" stroke="#666666" points="188,-206 86,-206 86,-187 188,-187 188,-206"/>
<text text-anchor="middle" x="137" y="-194" font-family="Helvetica,sans-Serif" font-size="10.00">f_pc/f_pc_method.h</text>
</a>
</g>
</g>
<!-- Node1&#45;&gt;Node5 -->
<g id="edge4" class="edge">
<title>Node1&#45;&gt;Node5</title>
<path fill="none" stroke="#63b8ff" d="M137,-241.54C137,-234.34 137,-225.53 137,-217.68"/>
<polygon fill="#63b8ff" stroke="#63b8ff" points="140.5,-217.69 137,-207.69 133.5,-217.69 140.5,-217.69"/>
</g>
<!-- Node6 -->
<g id="node6" class="node">
<title>Node6</title>
<g id="a_node6"><a xlink:href="f__pc__method__tag_8h.html" target="_top" xlink:title=" ">
<polygon fill="white" stroke="#666666" points="327.5,-206 206.5,-206 206.5,-187 327.5,-187 327.5,-206"/>
<text text-anchor="middle" x="267" y="-194" font-family="Helvetica,sans-Serif" font-size="10.00">f_pc/f_pc_method_tag.h</text>
</a>
</g>
</g>
<!-- Node1&#45;&gt;Node6 -->
<g id="edge6" class="edge">
<title>Node1&#45;&gt;Node6</title>
<path fill="none" stroke="#63b8ff" d="M169.13,-241.54C189.91,-232.19 216.77,-220.1 237.09,-210.96"/>
<polygon fill="#63b8ff" stroke="#63b8ff" points="238.28,-214.26 245.96,-206.97 235.41,-207.88 238.28,-214.26"/>
</g>
<!-- Node3 -->
<g id="node3" class="node">
<title>Node3</title>
<g id="a_node3"><a xlink:href="types_8h.html" target="_top" xlink:title=" ">
<polygon fill="white" stroke="#666666" points="184.5,-79.5 103.5,-79.5 103.5,-60.5 184.5,-60.5 184.5,-79.5"/>
<text text-anchor="middle" x="144" y="-67.5" font-family="Helvetica,sans-Serif" font-size="10.00">dolphin/types.h</text>
</a>
</g>
</g>
<!-- Node2&#45;&gt;Node3 -->
<g id="edge2" class="edge">
<title>Node2&#45;&gt;Node3</title>
<path fill="none" stroke="#63b8ff" d="M77.09,-120.8C90.76,-110.62 109.15,-96.93 123.2,-86.48"/>
<polygon fill="#63b8ff" stroke="#63b8ff" points="124.97,-89.53 130.9,-80.75 120.79,-83.91 124.97,-89.53"/>
</g>
<!-- Node4 -->
<g id="node4" class="node">
<title>Node4</title>
<g id="a_node4"><a xlink:href="stddef_8h.html" target="_top" xlink:title=" ">
<polygon fill="white" stroke="#666666" points="169.5,-19 118.5,-19 118.5,0 169.5,0 169.5,-19"/>
<text text-anchor="middle" x="144" y="-7" font-family="Helvetica,sans-Serif" font-size="10.00">stddef.h</text>
</a>
</g>
</g>
<!-- Node3&#45;&gt;Node4 -->
<g id="edge3" class="edge">
<title>Node3&#45;&gt;Node4</title>
<path fill="none" stroke="#63b8ff" d="M144,-60.37C144,-52.5 144,-40.6 144,-30.39"/>
<polygon fill="#63b8ff" stroke="#63b8ff" points="147.5,-30.68 144,-20.68 140.5,-30.68 147.5,-30.68"/>
</g>
<!-- Node5&#45;&gt;Node3 -->
<g id="edge5" class="edge">
<title>Node5&#45;&gt;Node3</title>
<path fill="none" stroke="#63b8ff" d="M137.5,-186.55C138.62,-166.72 141.32,-118.68 142.86,-91.19"/>
<polygon fill="#63b8ff" stroke="#63b8ff" points="146.35,-91.56 143.42,-81.38 139.36,-91.17 146.35,-91.56"/>
</g>
<!-- Node7 -->
<g id="node7" class="node">
<title>Node7</title>
<g id="a_node7"><a xlink:href="c__tag_8h.html" target="_top" xlink:title=" ">
<polygon fill="white" stroke="#666666" points="322,-151 206,-151 206,-121 322,-121 322,-151"/>
<text text-anchor="start" x="214" y="-139" font-family="Helvetica,sans-Serif" font-size="10.00">SSystem/SComponent</text>
<text text-anchor="middle" x="264" y="-128" font-family="Helvetica,sans-Serif" font-size="10.00">/c_tag.h</text>
</a>
</g>
</g>
<!-- Node6&#45;&gt;Node7 -->
<g id="edge7" class="edge">
<title>Node6&#45;&gt;Node7</title>
<path fill="none" stroke="#63b8ff" d="M266.56,-186.87C266.23,-180.4 265.75,-171.2 265.31,-162.45"/>
<polygon fill="#63b8ff" stroke="#63b8ff" points="268.81,-162.43 264.8,-152.63 261.82,-162.79 268.81,-162.43"/>
</g>
<!-- Node7&#45;&gt;Node3 -->
<g id="edge9" class="edge">
<title>Node7&#45;&gt;Node3</title>
<path fill="none" stroke="#63b8ff" d="M237.07,-120.64C217.27,-110.08 190.49,-95.79 170.74,-85.26"/>
<polygon fill="#63b8ff" stroke="#63b8ff" points="172.65,-82.32 162.18,-80.7 169.36,-88.49 172.65,-82.32"/>
</g>
<!-- Node8 -->
<g id="node8" class="node">
<title>Node8</title>
<g id="a_node8"><a xlink:href="c__node_8h.html" target="_top" xlink:title=" ">
<polygon fill="white" stroke="#666666" points="322,-85 206,-85 206,-55 322,-55 322,-85"/>
<text text-anchor="start" x="214" y="-73" font-family="Helvetica,sans-Serif" font-size="10.00">SSystem/SComponent</text>
<text text-anchor="middle" x="264" y="-62" font-family="Helvetica,sans-Serif" font-size="10.00">/c_node.h</text>
</a>
</g>
</g>
<!-- Node7&#45;&gt;Node8 -->
<g id="edge8" class="edge">
<title>Node7&#45;&gt;Node8</title>
<path fill="none" stroke="#63b8ff" d="M264,-120.8C264,-113.67 264,-104.82 264,-96.56"/>
<polygon fill="#63b8ff" stroke="#63b8ff" points="267.5,-96.68 264,-86.68 260.5,-96.68 267.5,-96.68"/>
</g>
</g>
</svg>
