<?xml version="1.0" encoding="UTF-8" standalone="no"?>
<!DOCTYPE svg PUBLIC "-//W3C//DTD SVG 1.1//EN"
 "http://www.w3.org/Graphics/SVG/1.1/DTD/svg11.dtd">
<!-- Generated by graphviz version 2.47.0 (20210316.2052)
 -->
<!-- Title: include/f/f_pc/f_pc_executor.h Pages: 1 -->
<svg width="1821pt" height="173pt"
 viewBox="0.00 0.00 1820.50 173.00" xmlns="http://www.w3.org/2000/svg" xmlns:xlink="http://www.w3.org/1999/xlink">
<g id="graph0" class="graph" transform="scale(1 1) rotate(0) translate(4 169)">
<title>include/f/f_pc/f_pc_executor.h</title>
<polygon fill="white" stroke="transparent" points="-4,4 -4,-169 1816.5,-169 1816.5,4 -4,4"/>
<!-- Node1 -->
<g id="node1" class="node">
<title>Node1</title>
<g id="a_node1"><a xlink:title=" ">
<polygon fill="#bfbfbf" stroke="black" points="656.5,-134.5 656.5,-164.5 753.5,-164.5 753.5,-134.5 656.5,-134.5"/>
<text text-anchor="start" x="664.5" y="-152.5" font-family="Helvetica,sans-Serif" font-size="10.00">include/f/f_pc/f_pc</text>
<text text-anchor="middle" x="705" y="-141.5" font-family="Helvetica,sans-Serif" font-size="10.00">_executor.h</text>
</a>
</g>
</g>
<!-- Node2 -->
<g id="node2" class="node">
<title>Node2</title>
<g id="a_node2"><a xlink:href="f__op__msg__mng_8cpp.html" target="_top" xlink:title=" ">
<polygon fill="white" stroke="black" points="0,-67.5 0,-97.5 104,-97.5 104,-67.5 0,-67.5"/>
<text text-anchor="start" x="8" y="-85.5" font-family="Helvetica,sans-Serif" font-size="10.00">src/f/f_op/f_op_msg</text>
<text text-anchor="middle" x="52" y="-74.5" font-family="Helvetica,sans-Serif" font-size="10.00">_mng.cpp</text>
</a>
</g>
</g>
<!-- Node1&#45;&gt;Node2 -->
<g id="edge1" class="edge">
<title>Node1&#45;&gt;Node2</title>
<path fill="none" stroke="midnightblue" d="M646.11,-146.37C539.29,-141.86 306.68,-129.1 113,-98 110.1,-97.53 107.13,-97 104.14,-96.43"/>
<polygon fill="midnightblue" stroke="midnightblue" points="646.22,-149.88 656.36,-146.79 646.51,-142.88 646.22,-149.88"/>
</g>
<!-- Node3 -->
<g id="node3" class="node">
<title>Node3</title>
<g id="a_node3"><a xlink:href="f__op__overlap__mng_8cpp.html" target="_top" xlink:title=" ">
<polygon fill="white" stroke="black" points="122,-67.5 122,-97.5 238,-97.5 238,-67.5 122,-67.5"/>
<text text-anchor="start" x="130" y="-85.5" font-family="Helvetica,sans-Serif" font-size="10.00">src/f/f_op/f_op_overlap</text>
<text text-anchor="middle" x="180" y="-74.5" font-family="Helvetica,sans-Serif" font-size="10.00">_mng.cpp</text>
</a>
</g>
</g>
<!-- Node1&#45;&gt;Node3 -->
<g id="edge2" class="edge">
<title>Node1&#45;&gt;Node3</title>
<path fill="none" stroke="midnightblue" d="M646.32,-143.98C558.94,-136.82 389.59,-121.23 247,-98 244.06,-97.52 241.06,-97 238.03,-96.44"/>
<polygon fill="midnightblue" stroke="midnightblue" points="646.06,-147.47 656.31,-144.79 646.62,-140.5 646.06,-147.47"/>
</g>
<!-- Node4 -->
<g id="node4" class="node">
<title>Node4</title>
<g id="a_node4"><a xlink:href="f__op__overlap__req_8cpp.html" target="_top" xlink:title=" ">
<polygon fill="white" stroke="black" points="256,-67.5 256,-97.5 372,-97.5 372,-67.5 256,-67.5"/>
<text text-anchor="start" x="264" y="-85.5" font-family="Helvetica,sans-Serif" font-size="10.00">src/f/f_op/f_op_overlap</text>
<text text-anchor="middle" x="314" y="-74.5" font-family="Helvetica,sans-Serif" font-size="10.00">_req.cpp</text>
</a>
</g>
</g>
<!-- Node1&#45;&gt;Node4 -->
<g id="edge3" class="edge">
<title>Node1&#45;&gt;Node4</title>
<path fill="none" stroke="midnightblue" d="M646.21,-140.39C581.16,-131.17 473.31,-115.17 381,-98 378.07,-97.46 375.08,-96.88 372.06,-96.28"/>
<polygon fill="midnightblue" stroke="midnightblue" points="645.88,-143.88 656.27,-141.81 646.86,-136.95 645.88,-143.88"/>
</g>
<!-- Node5 -->
<g id="node5" class="node">
<title>Node5</title>
<g id="a_node5"><a xlink:href="f__op__scene__pause_8cpp.html" target="_top" xlink:title=" ">
<polygon fill="white" stroke="black" points="390.5,-67.5 390.5,-97.5 501.5,-97.5 501.5,-67.5 390.5,-67.5"/>
<text text-anchor="start" x="398.5" y="-85.5" font-family="Helvetica,sans-Serif" font-size="10.00">src/f/f_op/f_op_scene</text>
<text text-anchor="middle" x="446" y="-74.5" font-family="Helvetica,sans-Serif" font-size="10.00">_pause.cpp</text>
</a>
</g>
</g>
<!-- Node1&#45;&gt;Node5 -->
<g id="edge4" class="edge">
<title>Node1&#45;&gt;Node5</title>
<path fill="none" stroke="midnightblue" d="M646.44,-133.8C603.08,-122.92 544.36,-108.19 501.69,-97.48"/>
<polygon fill="midnightblue" stroke="midnightblue" points="645.73,-137.23 656.28,-136.27 647.44,-130.45 645.73,-137.23"/>
</g>
<!-- Node6 -->
<g id="node6" class="node">
<title>Node6</title>
<g id="a_node6"><a xlink:href="f__op__scene__req_8cpp.html" target="_top" xlink:title=" ">
<polygon fill="white" stroke="black" points="519.5,-67.5 519.5,-97.5 630.5,-97.5 630.5,-67.5 519.5,-67.5"/>
<text text-anchor="start" x="527.5" y="-85.5" font-family="Helvetica,sans-Serif" font-size="10.00">src/f/f_op/f_op_scene</text>
<text text-anchor="middle" x="575" y="-74.5" font-family="Helvetica,sans-Serif" font-size="10.00">_req.cpp</text>
</a>
</g>
</g>
<!-- Node1&#45;&gt;Node6 -->
<g id="edge5" class="edge">
<title>Node1&#45;&gt;Node6</title>
<path fill="none" stroke="midnightblue" d="M667.71,-129.85C647.15,-119.58 622.05,-107.03 603.15,-97.58"/>
<polygon fill="midnightblue" stroke="midnightblue" points="666.28,-133.05 676.79,-134.4 669.41,-126.79 666.28,-133.05"/>
</g>
<!-- Node7 -->
<g id="node7" class="node">
<title>Node7</title>
<g id="a_node7"><a xlink:href="f__pc__create__req_8cpp.html" target="_top" xlink:title=" ">
<polygon fill="white" stroke="black" points="649,-67.5 649,-97.5 761,-97.5 761,-67.5 649,-67.5"/>
<text text-anchor="start" x="657" y="-85.5" font-family="Helvetica,sans-Serif" font-size="10.00">src/f/f_pc/f_pc_create</text>
<text text-anchor="middle" x="705" y="-74.5" font-family="Helvetica,sans-Serif" font-size="10.00">_req.cpp</text>
</a>
</g>
</g>
<!-- Node1&#45;&gt;Node7 -->
<g id="edge6" class="edge">
<title>Node1&#45;&gt;Node7</title>
<path fill="none" stroke="midnightblue" d="M705,-124.11C705,-115.15 705,-105.32 705,-97.58"/>
<polygon fill="midnightblue" stroke="midnightblue" points="701.5,-124.4 705,-134.4 708.5,-124.4 701.5,-124.4"/>
</g>
<!-- Node8 -->
<g id="node8" class="node">
<title>Node8</title>
<g id="a_node8"><a xlink:href="f__pc__deletor_8cpp.html" target="_top" xlink:title=" ">
<polygon fill="white" stroke="black" points="779,-73 779,-92 911,-92 911,-73 779,-73"/>
<text text-anchor="middle" x="845" y="-80" font-family="Helvetica,sans-Serif" font-size="10.00">src/f/f_pc/f_pc_deletor.cpp</text>
</a>
</g>
</g>
<!-- Node1&#45;&gt;Node8 -->
<g id="edge7" class="edge">
<title>Node1&#45;&gt;Node8</title>
<path fill="none" stroke="midnightblue" d="M744.56,-130.13C771.51,-117.62 805.93,-101.64 826.68,-92.01"/>
<polygon fill="midnightblue" stroke="midnightblue" points="742.97,-127.01 735.38,-134.4 745.92,-133.36 742.97,-127.01"/>
</g>
<!-- Node9 -->
<g id="node9" class="node">
<title>Node9</title>
<g id="a_node9"><a xlink:href="f__pc__executor_8cpp.html" target="_top" xlink:title=" ">
<polygon fill="white" stroke="black" points="929,-73 929,-92 1069,-92 1069,-73 929,-73"/>
<text text-anchor="middle" x="999" y="-80" font-family="Helvetica,sans-Serif" font-size="10.00">src/f/f_pc/f_pc_executor.cpp</text>
</a>
</g>
</g>
<!-- Node1&#45;&gt;Node9 -->
<g id="edge8" class="edge">
<title>Node1&#45;&gt;Node9</title>
<path fill="none" stroke="midnightblue" d="M763.37,-135.59C821.78,-122.68 909.97,-103.18 960.25,-92.07"/>
<polygon fill="midnightblue" stroke="midnightblue" points="762.56,-132.19 753.55,-137.77 764.07,-139.03 762.56,-132.19"/>
</g>
<!-- Node10 -->
<g id="node10" class="node">
<title>Node10</title>
<g id="a_node10"><a xlink:href="f__pc__manager_8cpp.html" target="_top" xlink:title=" ">
<polygon fill="white" stroke="black" points="1087,-73 1087,-92 1227,-92 1227,-73 1087,-73"/>
<text text-anchor="middle" x="1157" y="-80" font-family="Helvetica,sans-Serif" font-size="10.00">src/f/f_pc/f_pc_manager.cpp</text>
</a>
</g>
</g>
<!-- Node1&#45;&gt;Node10 -->
<g id="edge9" class="edge">
<title>Node1&#45;&gt;Node10</title>
<path fill="none" stroke="midnightblue" d="M763.69,-141.42C837.27,-132.34 967.21,-115.66 1078,-98 1089.15,-96.22 1101.16,-94.12 1112.36,-92.07"/>
<polygon fill="midnightblue" stroke="midnightblue" points="763.19,-137.95 753.69,-142.65 764.04,-144.9 763.19,-137.95"/>
</g>
<!-- Node11 -->
<g id="node11" class="node">
<title>Node11</title>
<g id="a_node11"><a xlink:href="f__pc__node__req_8cpp.html" target="_top" xlink:title=" ">
<polygon fill="white" stroke="black" points="1245,-67.5 1245,-97.5 1351,-97.5 1351,-67.5 1245,-67.5"/>
<text text-anchor="start" x="1253" y="-85.5" font-family="Helvetica,sans-Serif" font-size="10.00">src/f/f_pc/f_pc_node</text>
<text text-anchor="middle" x="1298" y="-74.5" font-family="Helvetica,sans-Serif" font-size="10.00">_req.cpp</text>
</a>
</g>
</g>
<!-- Node1&#45;&gt;Node11 -->
<g id="edge10" class="edge">
<title>Node1&#45;&gt;Node11</title>
<path fill="none" stroke="midnightblue" d="M763.63,-145.52C861.85,-139.94 1065.65,-125.89 1236,-98 1238.95,-97.52 1241.96,-96.98 1244.99,-96.39"/>
<polygon fill="midnightblue" stroke="midnightblue" points="763.39,-142.02 753.6,-146.08 763.78,-149.01 763.39,-142.02"/>
</g>
<!-- Node12 -->
<g id="node12" class="node">
<title>Node12</title>
<g id="a_node12"><a xlink:href="f__op__actor__mng_8h.html" target="_top" xlink:title=" ">
<polygon fill="white" stroke="black" points="1368.5,-67.5 1368.5,-97.5 1465.5,-97.5 1465.5,-67.5 1368.5,-67.5"/>
<text text-anchor="start" x="1376.5" y="-85.5" font-family="Helvetica,sans-Serif" font-size="10.00">include/f/f_op/f_op</text>
<text text-anchor="middle" x="1417" y="-74.5" font-family="Helvetica,sans-Serif" font-size="10.00">_actor_mng.h</text>
</a>
</g>
</g>
<!-- Node1&#45;&gt;Node12 -->
<g id="edge11" class="edge">
<title>Node1&#45;&gt;Node12</title>
<path fill="none" stroke="midnightblue" d="M763.84,-147.35C879.03,-144.36 1142.06,-133.85 1360,-98 1362.72,-97.55 1365.5,-97.04 1368.3,-96.48"/>
<polygon fill="midnightblue" stroke="midnightblue" points="763.73,-143.85 753.82,-147.6 763.91,-150.85 763.73,-143.85"/>
</g>
<!-- Node13 -->
<g id="node13" class="node">
<title>Node13</title>
<g id="a_node13"><a xlink:href="d__attention_8cpp.html" target="_top" xlink:title=" ">
<polygon fill="white" stroke="black" points="1062.5,-6 1062.5,-25 1169.5,-25 1169.5,-6 1062.5,-6"/>
<text text-anchor="middle" x="1116" y="-13" font-family="Helvetica,sans-Serif" font-size="10.00">src/d/d_attention.cpp</text>
</a>
</g>
</g>
<!-- Node12&#45;&gt;Node13 -->
<g id="edge12" class="edge">
<title>Node12&#45;&gt;Node13</title>
<path fill="none" stroke="midnightblue" d="M1358.14,-66.64C1277.84,-48.77 1255.45,-47.71 1178,-31 1169.46,-29.16 1160.29,-27.07 1151.69,-25.07"/>
<polygon fill="midnightblue" stroke="midnightblue" points="1357.7,-70.13 1368.22,-68.91 1359.23,-63.3 1357.7,-70.13"/>
</g>
<!-- Node14 -->
<g id="node14" class="node">
<title>Node14</title>
<g id="a_node14"><a xlink:href="d__camera_8cpp.html" target="_top" xlink:title=" ">
<polygon fill="white" stroke="black" points="1187,-6 1187,-25 1289,-25 1289,-6 1187,-6"/>
<text text-anchor="middle" x="1238" y="-13" font-family="Helvetica,sans-Serif" font-size="10.00">src/d/d_camera.cpp</text>
</a>
</g>
</g>
<!-- Node12&#45;&gt;Node14 -->
<g id="edge13" class="edge">
<title>Node12&#45;&gt;Node14</title>
<path fill="none" stroke="midnightblue" d="M1368.66,-63.95C1333.89,-51.32 1288.53,-34.85 1261.43,-25.01"/>
<polygon fill="midnightblue" stroke="midnightblue" points="1367.57,-67.27 1378.16,-67.4 1369.95,-60.69 1367.57,-67.27"/>
</g>
<!-- Node15 -->
<g id="node15" class="node">
<title>Node15</title>
<g id="a_node15"><a xlink:href="d__stage_8cpp.html" target="_top" xlink:title=" ">
<polygon fill="white" stroke="black" points="1307,-6 1307,-25 1401,-25 1401,-6 1307,-6"/>
<text text-anchor="middle" x="1354" y="-13" font-family="Helvetica,sans-Serif" font-size="10.00">src/d/d_stage.cpp</text>
</a>
</g>
</g>
<!-- Node12&#45;&gt;Node15 -->
<g id="edge14" class="edge">
<title>Node12&#45;&gt;Node15</title>
<path fill="none" stroke="midnightblue" d="M1396.16,-60C1384.66,-48.13 1371.01,-34.05 1362.43,-25.19"/>
<polygon fill="midnightblue" stroke="midnightblue" points="1393.86,-62.65 1403.33,-67.4 1398.88,-57.78 1393.86,-62.65"/>
</g>
<!-- Node16 -->
<g id="node16" class="node">
<title>Node16</title>
<g id="a_node16"><a xlink:href="d__a__alink_8cpp.html" target="_top" xlink:title=" ">
<polygon fill="white" stroke="black" points="1419.5,-6 1419.5,-25 1538.5,-25 1538.5,-6 1419.5,-6"/>
<text text-anchor="middle" x="1479" y="-13" font-family="Helvetica,sans-Serif" font-size="10.00">src/d/d_a/d_a_alink.cpp</text>
</a>
</g>
</g>
<!-- Node12&#45;&gt;Node16 -->
<g id="edge15" class="edge">
<title>Node12&#45;&gt;Node16</title>
<path fill="none" stroke="midnightblue" d="M1437.51,-60C1448.83,-48.13 1462.26,-34.05 1470.71,-25.19"/>
<polygon fill="midnightblue" stroke="midnightblue" points="1434.82,-57.74 1430.45,-67.4 1439.89,-62.58 1434.82,-57.74"/>
</g>
<!-- Node17 -->
<g id="node17" class="node">
<title>Node17</title>
<g id="a_node17"><a xlink:href="f__op__actor__mng_8cpp.html" target="_top" xlink:title=" ">
<polygon fill="white" stroke="black" points="1556.5,-0.5 1556.5,-30.5 1663.5,-30.5 1663.5,-0.5 1556.5,-0.5"/>
<text text-anchor="start" x="1564.5" y="-18.5" font-family="Helvetica,sans-Serif" font-size="10.00">src/f/f_op/f_op_actor</text>
<text text-anchor="middle" x="1610" y="-7.5" font-family="Helvetica,sans-Serif" font-size="10.00">_mng.cpp</text>
</a>
</g>
</g>
<!-- Node12&#45;&gt;Node17 -->
<g id="edge16" class="edge">
<title>Node12&#45;&gt;Node17</title>
<path fill="none" stroke="midnightblue" d="M1468.69,-64.09C1499.84,-53.6 1539.01,-40.41 1568.2,-30.58"/>
<polygon fill="midnightblue" stroke="midnightblue" points="1467.24,-60.89 1458.88,-67.4 1469.47,-67.52 1467.24,-60.89"/>
</g>
<!-- Node18 -->
<g id="node18" class="node">
<title>Node18</title>
<g id="a_node18"><a xlink:href="m__Do__main_8cpp.html" target="_top" xlink:title=" ">
<polygon fill="white" stroke="black" points="1681.5,-6 1681.5,-25 1812.5,-25 1812.5,-6 1681.5,-6"/>
<text text-anchor="middle" x="1747" y="-13" font-family="Helvetica,sans-Serif" font-size="10.00">src/m_Do/m_Do_main.cpp</text>
</a>
</g>
</g>
<!-- Node12&#45;&gt;Node18 -->
<g id="edge17" class="edge">
<title>Node12&#45;&gt;Node18</title>
<path fill="none" stroke="midnightblue" d="M1475.84,-69.91C1541.23,-57.03 1645.27,-36.54 1703.64,-25.04"/>
<polygon fill="midnightblue" stroke="midnightblue" points="1474.83,-66.54 1465.69,-71.91 1476.18,-73.41 1474.83,-66.54"/>
</g>
</g>
</svg>
