<?xml version="1.0" encoding="UTF-8" standalone="no"?>
<!DOCTYPE svg PUBLIC "-//W3C//DTD SVG 1.1//EN"
 "http://www.w3.org/Graphics/SVG/1.1/DTD/svg11.dtd">
<!-- Generated by graphviz version 2.46.0 (20210122.1329)
 -->
<!-- Title: include/f/f_pc/f_pc_manager.h Pages: 1 -->
<svg width="758pt" height="173pt"
 viewBox="0.00 0.00 758.00 173.00" xmlns="http://www.w3.org/2000/svg" xmlns:xlink="http://www.w3.org/1999/xlink">
<g id="graph0" class="graph" transform="scale(1 1) rotate(0) translate(4 169)">
<title>include/f/f_pc/f_pc_manager.h</title>
<polygon fill="white" stroke="transparent" points="-4,4 -4,-169 754,-169 754,4 -4,4"/>
<!-- Node1 -->
<g id="node1" class="node">
<title>Node1</title>
<g id="a_node1"><a xlink:title=" ">
<polygon fill="#bfbfbf" stroke="black" points="123,-134.5 123,-164.5 220,-164.5 220,-134.5 123,-134.5"/>
<text text-anchor="start" x="131" y="-152.5" font-family="Helvetica,sans-Serif" font-size="10.00">include/f/f_pc/f_pc</text>
<text text-anchor="middle" x="171.5" y="-141.5" font-family="Helvetica,sans-Serif" font-size="10.00">_manager.h</text>
</a>
</g>
</g>
<!-- Node2 -->
<g id="node2" class="node">
<title>Node2</title>
<g id="a_node2"><a xlink:href="d__a__alink_8cpp.html" target="_top" xlink:title=" ">
<polygon fill="white" stroke="black" points="0,-6 0,-25 119,-25 119,-6 0,-6"/>
<text text-anchor="middle" x="59.5" y="-13" font-family="Helvetica,sans-Serif" font-size="10.00">src/d/d_a/d_a_alink.cpp</text>
</a>
</g>
</g>
<!-- Node1&#45;&gt;Node2 -->
<g id="edge1" class="edge">
<title>Node1&#45;&gt;Node2</title>
<path fill="none" stroke="midnightblue" d="M131.54,-129.46C117.73,-121.32 103.08,-110.73 92.5,-98 73.77,-75.46 64.57,-40.89 61.14,-25.01"/>
<polygon fill="midnightblue" stroke="midnightblue" points="130,-132.61 140.44,-134.45 133.43,-126.51 130,-132.61"/>
</g>
<!-- Node3 -->
<g id="node3" class="node">
<title>Node3</title>
<g id="a_node3"><a xlink:href="f__pc__manager_8cpp.html" target="_top" xlink:title=" ">
<polygon fill="white" stroke="black" points="101.5,-73 101.5,-92 241.5,-92 241.5,-73 101.5,-73"/>
<text text-anchor="middle" x="171.5" y="-80" font-family="Helvetica,sans-Serif" font-size="10.00">src/f/f_pc/f_pc_manager.cpp</text>
</a>
</g>
</g>
<!-- Node1&#45;&gt;Node3 -->
<g id="edge2" class="edge">
<title>Node1&#45;&gt;Node3</title>
<path fill="none" stroke="midnightblue" d="M171.5,-124.25C171.5,-113.02 171.5,-100.38 171.5,-92.19"/>
<polygon fill="midnightblue" stroke="midnightblue" points="168,-124.4 171.5,-134.4 175,-124.4 168,-124.4"/>
</g>
<!-- Node4 -->
<g id="node4" class="node">
<title>Node4</title>
<g id="a_node4"><a xlink:href="f__op__actor__mng_8h.html" target="_top" xlink:title=" ">
<polygon fill="white" stroke="black" points="264,-67.5 264,-97.5 361,-97.5 361,-67.5 264,-67.5"/>
<text text-anchor="start" x="272" y="-85.5" font-family="Helvetica,sans-Serif" font-size="10.00">include/f/f_op/f_op</text>
<text text-anchor="middle" x="312.5" y="-74.5" font-family="Helvetica,sans-Serif" font-size="10.00">_actor_mng.h</text>
</a>
</g>
</g>
<!-- Node1&#45;&gt;Node4 -->
<g id="edge3" class="edge">
<title>Node1&#45;&gt;Node4</title>
<path fill="none" stroke="midnightblue" d="M211.35,-130.13C233.75,-119.8 261.28,-107.11 281.96,-97.58"/>
<polygon fill="midnightblue" stroke="midnightblue" points="209.71,-127.03 202.09,-134.4 212.64,-133.39 209.71,-127.03"/>
</g>
<!-- Node4&#45;&gt;Node2 -->
<g id="edge8" class="edge">
<title>Node4&#45;&gt;Node2</title>
<path fill="none" stroke="midnightblue" d="M254,-66.47C203.97,-53.62 133.75,-35.58 92.8,-25.06"/>
<polygon fill="midnightblue" stroke="midnightblue" points="253.16,-69.87 263.72,-68.97 254.9,-63.09 253.16,-69.87"/>
</g>
<!-- Node5 -->
<g id="node5" class="node">
<title>Node5</title>
<g id="a_node5"><a xlink:href="d__attention_8cpp.html" target="_top" xlink:title=" ">
<polygon fill="white" stroke="black" points="137,-6 137,-25 244,-25 244,-6 137,-6"/>
<text text-anchor="middle" x="190.5" y="-13" font-family="Helvetica,sans-Serif" font-size="10.00">src/d/d_attention.cpp</text>
</a>
</g>
</g>
<!-- Node4&#45;&gt;Node5 -->
<g id="edge4" class="edge">
<title>Node4&#45;&gt;Node5</title>
<path fill="none" stroke="midnightblue" d="M277.1,-62.64C253.76,-50.2 224.31,-34.51 206.47,-25.01"/>
<polygon fill="midnightblue" stroke="midnightblue" points="275.56,-65.78 286.03,-67.4 278.85,-59.6 275.56,-65.78"/>
</g>
<!-- Node6 -->
<g id="node6" class="node">
<title>Node6</title>
<g id="a_node6"><a xlink:href="d__camera_8cpp.html" target="_top" xlink:title=" ">
<polygon fill="white" stroke="black" points="261.5,-6 261.5,-25 363.5,-25 363.5,-6 261.5,-6"/>
<text text-anchor="middle" x="312.5" y="-13" font-family="Helvetica,sans-Serif" font-size="10.00">src/d/d_camera.cpp</text>
</a>
</g>
</g>
<!-- Node4&#45;&gt;Node6 -->
<g id="edge5" class="edge">
<title>Node4&#45;&gt;Node6</title>
<path fill="none" stroke="midnightblue" d="M312.5,-57.25C312.5,-46.02 312.5,-33.38 312.5,-25.19"/>
<polygon fill="midnightblue" stroke="midnightblue" points="309,-57.4 312.5,-67.4 316,-57.4 309,-57.4"/>
</g>
<!-- Node7 -->
<g id="node7" class="node">
<title>Node7</title>
<g id="a_node7"><a xlink:href="d__stage_8cpp.html" target="_top" xlink:title=" ">
<polygon fill="white" stroke="black" points="381.5,-6 381.5,-25 475.5,-25 475.5,-6 381.5,-6"/>
<text text-anchor="middle" x="428.5" y="-13" font-family="Helvetica,sans-Serif" font-size="10.00">src/d/d_stage.cpp</text>
</a>
</g>
</g>
<!-- Node4&#45;&gt;Node7 -->
<g id="edge6" class="edge">
<title>Node4&#45;&gt;Node7</title>
<path fill="none" stroke="midnightblue" d="M346.46,-62.47C368.6,-50.06 396.43,-34.47 413.32,-25.01"/>
<polygon fill="midnightblue" stroke="midnightblue" points="344.68,-59.45 337.67,-67.4 348.1,-65.56 344.68,-59.45"/>
</g>
<!-- Node8 -->
<g id="node8" class="node">
<title>Node8</title>
<g id="a_node8"><a xlink:href="f__op__actor__mng_8cpp.html" target="_top" xlink:title=" ">
<polygon fill="white" stroke="black" points="494,-0.5 494,-30.5 601,-30.5 601,-0.5 494,-0.5"/>
<text text-anchor="start" x="502" y="-18.5" font-family="Helvetica,sans-Serif" font-size="10.00">src/f/f_op/f_op_actor</text>
<text text-anchor="middle" x="547.5" y="-7.5" font-family="Helvetica,sans-Serif" font-size="10.00">_mng.cpp</text>
</a>
</g>
</g>
<!-- Node4&#45;&gt;Node8 -->
<g id="edge7" class="edge">
<title>Node4&#45;&gt;Node8</title>
<path fill="none" stroke="midnightblue" d="M371.26,-65.25C409.9,-54.56 459.96,-40.71 496.84,-30.51"/>
<polygon fill="midnightblue" stroke="midnightblue" points="369.9,-61.99 361.19,-68.03 371.76,-68.74 369.9,-61.99"/>
</g>
<!-- Node9 -->
<g id="node9" class="node">
<title>Node9</title>
<g id="a_node9"><a xlink:href="m__Do__main_8cpp.html" target="_top" xlink:title=" ">
<polygon fill="white" stroke="black" points="619,-6 619,-25 750,-25 750,-6 619,-6"/>
<text text-anchor="middle" x="684.5" y="-13" font-family="Helvetica,sans-Serif" font-size="10.00">src/m_Do/m_Do_main.cpp</text>
</a>
</g>
</g>
<!-- Node4&#45;&gt;Node9 -->
<g id="edge9" class="edge">
<title>Node4&#45;&gt;Node9</title>
<path fill="none" stroke="midnightblue" d="M371.15,-72.02C431.31,-62.18 527.55,-46.15 610.5,-31 620.67,-29.14 631.62,-27.05 641.88,-25.04"/>
<polygon fill="midnightblue" stroke="midnightblue" points="370.39,-68.59 361.09,-73.66 371.52,-75.5 370.39,-68.59"/>
</g>
</g>
</svg>
