<?xml version="1.0" encoding="UTF-8" standalone="no"?>
<!DOCTYPE svg PUBLIC "-//W3C//DTD SVG 1.1//EN"
 "http://www.w3.org/Graphics/SVG/1.1/DTD/svg11.dtd">
<!-- Generated by graphviz version 2.47.0 (20210316.2052)
 -->
<!-- Title: include/f/f_pc/f_pc_searcher.h Pages: 1 -->
<svg width="967pt" height="173pt"
 viewBox="0.00 0.00 966.50 173.00" xmlns="http://www.w3.org/2000/svg" xmlns:xlink="http://www.w3.org/1999/xlink">
<g id="graph0" class="graph" transform="scale(1 1) rotate(0) translate(4 169)">
<title>include/f/f_pc/f_pc_searcher.h</title>
<polygon fill="white" stroke="transparent" points="-4,4 -4,-169 962.5,-169 962.5,4 -4,4"/>
<!-- Node1 -->
<g id="node1" class="node">
<title>Node1</title>
<g id="a_node1"><a xlink:title=" ">
<polygon fill="#bfbfbf" stroke="black" points="317,-134.5 317,-164.5 414,-164.5 414,-134.5 317,-134.5"/>
<text text-anchor="start" x="325" y="-152.5" font-family="Helvetica,sans-Serif" font-size="10.00">include/f/f_pc/f_pc</text>
<text text-anchor="middle" x="365.5" y="-141.5" font-family="Helvetica,sans-Serif" font-size="10.00">_searcher.h</text>
</a>
</g>
</g>
<!-- Node2 -->
<g id="node2" class="node">
<title>Node2</title>
<g id="a_node2"><a xlink:href="d__attention_8cpp.html" target="_top" xlink:title=" ">
<polygon fill="white" stroke="black" points="0,-6 0,-25 107,-25 107,-6 0,-6"/>
<text text-anchor="middle" x="53.5" y="-13" font-family="Helvetica,sans-Serif" font-size="10.00">src/d/d_attention.cpp</text>
</a>
</g>
</g>
<!-- Node1&#45;&gt;Node2 -->
<g id="edge1" class="edge">
<title>Node1&#45;&gt;Node2</title>
<path fill="none" stroke="midnightblue" d="M306.95,-133.06C275.98,-124.16 237.62,-111.98 204.5,-98 151.81,-75.76 93.22,-41.03 67.21,-25.06"/>
<polygon fill="midnightblue" stroke="midnightblue" points="306.16,-136.47 316.73,-135.83 308.06,-129.73 306.16,-136.47"/>
</g>
<!-- Node3 -->
<g id="node3" class="node">
<title>Node3</title>
<g id="a_node3"><a xlink:href="d__camera_8cpp.html" target="_top" xlink:title=" ">
<polygon fill="white" stroke="black" points="124.5,-6 124.5,-25 226.5,-25 226.5,-6 124.5,-6"/>
<text text-anchor="middle" x="175.5" y="-13" font-family="Helvetica,sans-Serif" font-size="10.00">src/d/d_camera.cpp</text>
</a>
</g>
</g>
<!-- Node1&#45;&gt;Node3 -->
<g id="edge2" class="edge">
<title>Node1&#45;&gt;Node3</title>
<path fill="none" stroke="midnightblue" d="M307.24,-132.66C284.38,-124.64 258.81,-113.3 238.5,-98 211.07,-77.34 189.35,-41.83 180.2,-25.36"/>
<polygon fill="midnightblue" stroke="midnightblue" points="306.26,-136.02 316.85,-135.89 308.49,-129.39 306.26,-136.02"/>
</g>
<!-- Node4 -->
<g id="node4" class="node">
<title>Node4</title>
<g id="a_node4"><a xlink:href="d__a__alink_8cpp.html" target="_top" xlink:title=" ">
<polygon fill="white" stroke="black" points="245,-6 245,-25 364,-25 364,-6 245,-6"/>
<text text-anchor="middle" x="304.5" y="-13" font-family="Helvetica,sans-Serif" font-size="10.00">src/d/d_a/d_a_alink.cpp</text>
</a>
</g>
</g>
<!-- Node1&#45;&gt;Node4 -->
<g id="edge3" class="edge">
<title>Node1&#45;&gt;Node4</title>
<path fill="none" stroke="midnightblue" d="M306.89,-137.79C284.39,-130.51 260.92,-118.33 247.5,-98 229.72,-71.05 268.33,-39.98 290.43,-25.2"/>
<polygon fill="midnightblue" stroke="midnightblue" points="306.2,-141.23 316.78,-140.71 308.18,-134.52 306.2,-141.23"/>
</g>
<!-- Node5 -->
<g id="node5" class="node">
<title>Node5</title>
<g id="a_node5"><a xlink:href="f__op__scene__mng_8cpp.html" target="_top" xlink:title=" ">
<polygon fill="white" stroke="black" points="371,-67.5 371,-97.5 482,-97.5 482,-67.5 371,-67.5"/>
<text text-anchor="start" x="379" y="-85.5" font-family="Helvetica,sans-Serif" font-size="10.00">src/f/f_op/f_op_scene</text>
<text text-anchor="middle" x="426.5" y="-74.5" font-family="Helvetica,sans-Serif" font-size="10.00">_mng.cpp</text>
</a>
</g>
</g>
<!-- Node1&#45;&gt;Node5 -->
<g id="edge4" class="edge">
<title>Node1&#45;&gt;Node5</title>
<path fill="none" stroke="midnightblue" d="M385.65,-127.02C394.74,-117.34 405.22,-106.17 413.29,-97.58"/>
<polygon fill="midnightblue" stroke="midnightblue" points="383.03,-124.71 378.74,-134.4 388.13,-129.5 383.03,-124.71"/>
</g>
<!-- Node6 -->
<g id="node6" class="node">
<title>Node6</title>
<g id="a_node6"><a xlink:href="f__pc__executor_8cpp.html" target="_top" xlink:title=" ">
<polygon fill="white" stroke="black" points="500.5,-73 500.5,-92 640.5,-92 640.5,-73 500.5,-73"/>
<text text-anchor="middle" x="570.5" y="-80" font-family="Helvetica,sans-Serif" font-size="10.00">src/f/f_pc/f_pc_executor.cpp</text>
</a>
</g>
</g>
<!-- Node1&#45;&gt;Node6 -->
<g id="edge5" class="edge">
<title>Node1&#45;&gt;Node6</title>
<path fill="none" stroke="midnightblue" d="M419.34,-131.43C459.31,-118.75 512.15,-102 543.6,-92.03"/>
<polygon fill="midnightblue" stroke="midnightblue" points="418.2,-128.12 409.73,-134.48 420.32,-134.79 418.2,-128.12"/>
</g>
<!-- Node7 -->
<g id="node7" class="node">
<title>Node7</title>
<g id="a_node7"><a xlink:href="f__pc__searcher_8cpp.html" target="_top" xlink:title=" ">
<polygon fill="white" stroke="black" points="658.5,-73 658.5,-92 798.5,-92 798.5,-73 658.5,-73"/>
<text text-anchor="middle" x="728.5" y="-80" font-family="Helvetica,sans-Serif" font-size="10.00">src/f/f_pc/f_pc_searcher.cpp</text>
</a>
</g>
</g>
<!-- Node1&#45;&gt;Node7 -->
<g id="edge6" class="edge">
<title>Node1&#45;&gt;Node7</title>
<path fill="none" stroke="midnightblue" d="M423.99,-138.2C481.42,-128.06 571.51,-112.09 649.5,-98 660.07,-96.09 671.42,-94.02 682.14,-92.05"/>
<polygon fill="midnightblue" stroke="midnightblue" points="423.25,-134.77 414.01,-139.96 424.46,-141.67 423.25,-134.77"/>
</g>
<!-- Node8 -->
<g id="node8" class="node">
<title>Node8</title>
<g id="a_node8"><a xlink:href="m__Do__graphic_8cpp.html" target="_top" xlink:title=" ">
<polygon fill="white" stroke="black" points="816.5,-73 816.5,-92 958.5,-92 958.5,-73 816.5,-73"/>
<text text-anchor="middle" x="887.5" y="-80" font-family="Helvetica,sans-Serif" font-size="10.00">src/m_Do/m_Do_graphic.cpp</text>
</a>
</g>
</g>
<!-- Node1&#45;&gt;Node8 -->
<g id="edge7" class="edge">
<title>Node1&#45;&gt;Node8</title>
<path fill="none" stroke="midnightblue" d="M424.24,-143.03C509.07,-134.84 670.71,-118.19 807.5,-98 819.09,-96.29 831.57,-94.16 843.15,-92.07"/>
<polygon fill="midnightblue" stroke="midnightblue" points="423.65,-139.57 414.03,-144.01 424.32,-146.53 423.65,-139.57"/>
</g>
<!-- Node9 -->
<g id="node9" class="node">
<title>Node9</title>
<g id="a_node9"><a xlink:href="f__op__actor__mng_8h.html" target="_top" xlink:title=" ">
<polygon fill="white" stroke="black" points="256,-67.5 256,-97.5 353,-97.5 353,-67.5 256,-67.5"/>
<text text-anchor="start" x="264" y="-85.5" font-family="Helvetica,sans-Serif" font-size="10.00">include/f/f_op/f_op</text>
<text text-anchor="middle" x="304.5" y="-74.5" font-family="Helvetica,sans-Serif" font-size="10.00">_actor_mng.h</text>
</a>
</g>
</g>
<!-- Node1&#45;&gt;Node9 -->
<g id="edge8" class="edge">
<title>Node1&#45;&gt;Node9</title>
<path fill="none" stroke="midnightblue" d="M345.35,-127.02C336.26,-117.34 325.78,-106.17 317.71,-97.58"/>
<polygon fill="midnightblue" stroke="midnightblue" points="342.87,-129.5 352.26,-134.4 347.97,-124.71 342.87,-129.5"/>
</g>
<!-- Node9&#45;&gt;Node2 -->
<g id="edge9" class="edge">
<title>Node9&#45;&gt;Node2</title>
<path fill="none" stroke="midnightblue" d="M245.85,-66.31C196.22,-53.46 126.91,-35.51 86.46,-25.03"/>
<polygon fill="midnightblue" stroke="midnightblue" points="245.25,-69.77 255.81,-68.89 247,-63 245.25,-69.77"/>
</g>
<!-- Node9&#45;&gt;Node3 -->
<g id="edge10" class="edge">
<title>Node9&#45;&gt;Node3</title>
<path fill="none" stroke="midnightblue" d="M267.39,-62.8C242.66,-50.34 211.33,-34.56 192.38,-25.01"/>
<polygon fill="midnightblue" stroke="midnightblue" points="266,-66.02 276.51,-67.4 269.15,-59.77 266,-66.02"/>
</g>
<!-- Node9&#45;&gt;Node4 -->
<g id="edge12" class="edge">
<title>Node9&#45;&gt;Node4</title>
<path fill="none" stroke="midnightblue" d="M304.5,-57.25C304.5,-46.02 304.5,-33.38 304.5,-25.19"/>
<polygon fill="midnightblue" stroke="midnightblue" points="301,-57.4 304.5,-67.4 308,-57.4 301,-57.4"/>
</g>
<!-- Node10 -->
<g id="node10" class="node">
<title>Node10</title>
<g id="a_node10"><a xlink:href="d__stage_8cpp.html" target="_top" xlink:title=" ">
<polygon fill="white" stroke="black" points="382.5,-6 382.5,-25 476.5,-25 476.5,-6 382.5,-6"/>
<text text-anchor="middle" x="429.5" y="-13" font-family="Helvetica,sans-Serif" font-size="10.00">src/d/d_stage.cpp</text>
</a>
</g>
</g>
<!-- Node9&#45;&gt;Node10 -->
<g id="edge11" class="edge">
<title>Node9&#45;&gt;Node10</title>
<path fill="none" stroke="midnightblue" d="M340.77,-62.64C364.69,-50.2 394.86,-34.51 413.14,-25.01"/>
<polygon fill="midnightblue" stroke="midnightblue" points="338.88,-59.68 331.62,-67.4 342.11,-65.89 338.88,-59.68"/>
</g>
<!-- Node11 -->
<g id="node11" class="node">
<title>Node11</title>
<g id="a_node11"><a xlink:href="f__op__actor__mng_8cpp.html" target="_top" xlink:title=" ">
<polygon fill="white" stroke="black" points="495,-0.5 495,-30.5 602,-30.5 602,-0.5 495,-0.5"/>
<text text-anchor="start" x="503" y="-18.5" font-family="Helvetica,sans-Serif" font-size="10.00">src/f/f_op/f_op_actor</text>
<text text-anchor="middle" x="548.5" y="-7.5" font-family="Helvetica,sans-Serif" font-size="10.00">_mng.cpp</text>
</a>
</g>
</g>
<!-- Node9&#45;&gt;Node11 -->
<g id="edge13" class="edge">
<title>Node9&#45;&gt;Node11</title>
<path fill="none" stroke="midnightblue" d="M362.99,-65.92C403.32,-55.17 456.49,-41.01 495.57,-30.6"/>
<polygon fill="midnightblue" stroke="midnightblue" points="362.05,-62.55 353.29,-68.5 363.85,-69.31 362.05,-62.55"/>
</g>
<!-- Node12 -->
<g id="node12" class="node">
<title>Node12</title>
<g id="a_node12"><a xlink:href="m__Do__main_8cpp.html" target="_top" xlink:title=" ">
<polygon fill="white" stroke="black" points="620,-6 620,-25 751,-25 751,-6 620,-6"/>
<text text-anchor="middle" x="685.5" y="-13" font-family="Helvetica,sans-Serif" font-size="10.00">src/m_Do/m_Do_main.cpp</text>
</a>
</g>
</g>
<!-- Node9&#45;&gt;Node12 -->
<g id="edge14" class="edge">
<title>Node9&#45;&gt;Node12</title>
<path fill="none" stroke="midnightblue" d="M363.06,-67.02C473.92,-45.64 504.39,-49.23 611.5,-31 621.95,-29.22 633.2,-27.12 643.69,-25.07"/>
<polygon fill="midnightblue" stroke="midnightblue" points="362.3,-63.6 353.15,-68.96 363.64,-70.47 362.3,-63.6"/>
</g>
</g>
</svg>
