<?xml version="1.0" encoding="UTF-8" standalone="no"?>
<!DOCTYPE svg PUBLIC "-//W3C//DTD SVG 1.1//EN"
 "http://www.w3.org/Graphics/SVG/1.1/DTD/svg11.dtd">
<!-- Generated by graphviz version 7.0.5 (20221223.1930)
 -->
<!-- Title: include/JSystem/JStudio/JStudio/fvb.h Pages: 1 -->
<!--zoomable 511 -->
<svg id="main" version="1.1" xmlns="http://www.w3.org/2000/svg" xmlns:xlink="http://www.w3.org/1999/xlink" xml:space="preserve" onload="init(evt)">
<style type="text/css"><![CDATA[
.edge:hover path { stroke: red; }
.edge:hover polygon { stroke: red; fill: red; }
]]></style>
<script type="text/javascript"><![CDATA[
var edges = document.getElementsByTagName('g');
if (edges && edges.length) {
  for (var i=0;i<edges.length;i++) {
    if (edges[i].id.substr(0,4)=='edge') {
      edges[i].setAttribute('class','edge');
    }
  }
}
]]></script>
        <defs>
                <circle id="rim" cx="0" cy="0" r="7"/>
                <circle id="rim2" cx="0" cy="0" r="3.5"/>
                <g id="zoomPlus">
                        <use xlink:href="#rim" fill="#404040">
                                <set attributeName="fill" to="#808080" begin="zoomplus.mouseover" end="zoomplus.mouseout"/>
                        </use>
                        <path d="M-4,0h8M0,-4v8" fill="none" stroke="white" stroke-width="1.5" pointer-events="none"/>
                </g>
                <g id="zoomMin">
                        <use xlink:href="#rim" fill="#404040">
                                <set attributeName="fill" to="#808080" begin="zoomminus.mouseover" end="zoomminus.mouseout"/>
                        </use>
                        <path d="M-4,0h8" fill="none" stroke="white" stroke-width="1.5" pointer-events="none"/>
                </g>
                <g id="dirArrow">
                        <path fill="none" stroke="white" stroke-width="1.5" d="M0,-3.0v7 M-2.5,-0.5L0,-3.0L2.5,-0.5"/>
                </g>
               <g id="resetDef">
                       <use xlink:href="#rim2" fill="#404040">
                               <set attributeName="fill" to="#808080" begin="reset.mouseover" end="reset.mouseout"/>
                       </use>
               </g>
        </defs>

<script type="text/javascript">
var viewWidth = 2364;
var viewHeight = 511;
var sectionId = 'dynsection-0';
</script>
<script xlink:href="svgpan.js"/>
<svg id="graph" class="graph">
<g id="viewport">
<title>include/JSystem/JStudio/JStudio/fvb.h</title>
<!-- Node1 -->
<g id="node1" class="node">
<title>Node1</title>
<g id="a_node1"><a xlink:title=" ">
<polygon fill="#999999" stroke="#666666" points="2065.5,-503 1940.5,-503 1940.5,-473 2065.5,-473 2065.5,-503"/>
<text text-anchor="start" x="1948.5" y="-491" font-family="Helvetica,sans-Serif" font-size="10.00">include/JSystem/JStudio</text>
<text text-anchor="middle" x="2003" y="-480" font-family="Helvetica,sans-Serif" font-size="10.00">/JStudio/fvb.h</text>
</a>
</g>
</g>
<!-- Node2 -->
<g id="node2" class="node">
<title>Node2</title>
<g id="a_node2"><a xlink:href="linklist_8h.html" target="_top" xlink:title=" ">
<polygon fill="white" stroke="#666666" points="1549.5,-431.5 1416.5,-431.5 1416.5,-412.5 1549.5,-412.5 1549.5,-431.5"/>
<text text-anchor="middle" x="1483" y="-419.5" font-family="Helvetica,sans-Serif" font-size="10.00">JSystem/JGadget/linklist.h</text>
</a>
</g>
</g>
<!-- Node1&#45;&gt;Node2 -->
<g id="edge1" class="edge">
<title>Node1&#45;&gt;Node2</title>
<path fill="none" stroke="#63b8ff" d="M1940.02,-479.25C1844.89,-467.54 1664.71,-445.36 1561.28,-432.63"/>
<polygon fill="#63b8ff" stroke="#63b8ff" points="1561.83,-429.18 1551.48,-431.43 1560.98,-436.12 1561.83,-429.18"/>
</g>
<!-- Node30 -->
<g id="node30" class="node">
<title>Node30</title>
<g id="a_node30"><a xlink:href="fvb-data-parse_8h.html" target="_top" xlink:title=" ">
<polygon fill="white" stroke="#666666" points="2066.5,-437 1939.5,-437 1939.5,-407 2066.5,-407 2066.5,-437"/>
<text text-anchor="start" x="1947.5" y="-425" font-family="Helvetica,sans-Serif" font-size="10.00">JSystem/JStudio/JStudio</text>
<text text-anchor="middle" x="2003" y="-414" font-family="Helvetica,sans-Serif" font-size="10.00">/fvb&#45;data&#45;parse.h</text>
</a>
</g>
</g>
<!-- Node1&#45;&gt;Node30 -->
<g id="edge53" class="edge">
<title>Node1&#45;&gt;Node30</title>
<path fill="none" stroke="#63b8ff" d="M2003,-472.8C2003,-465.67 2003,-456.82 2003,-448.56"/>
<polygon fill="#63b8ff" stroke="#63b8ff" points="2006.5,-448.68 2003,-438.68 1999.5,-448.68 2006.5,-448.68"/>
</g>
<!-- Node37 -->
<g id="node37" class="node">
<title>Node37</title>
<g id="a_node37"><a xlink:href="object-id_8h.html" target="_top" xlink:title=" ">
<polygon fill="white" stroke="#666666" points="2355.5,-437 2228.5,-437 2228.5,-407 2355.5,-407 2355.5,-437"/>
<text text-anchor="start" x="2236.5" y="-425" font-family="Helvetica,sans-Serif" font-size="10.00">JSystem/JStudio/JStudio</text>
<text text-anchor="middle" x="2292" y="-414" font-family="Helvetica,sans-Serif" font-size="10.00">/object&#45;id.h</text>
</a>
</g>
</g>
<!-- Node1&#45;&gt;Node37 -->
<g id="edge63" class="edge">
<title>Node1&#45;&gt;Node37</title>
<path fill="none" stroke="#63b8ff" d="M2065.71,-473.11C2110.2,-463.26 2170.12,-449.99 2217.12,-439.58"/>
<polygon fill="#63b8ff" stroke="#63b8ff" points="2217.68,-443.04 2226.69,-437.46 2216.17,-436.21 2217.68,-443.04"/>
</g>
<!-- Node3 -->
<g id="node3" class="node">
<title>Node3</title>
<g id="a_node3"><a xlink:href="types_8h.html" target="_top" xlink:title=" ">
<polygon fill="white" stroke="#666666" points="1260.5,-74 1179.5,-74 1179.5,-55 1260.5,-55 1260.5,-74"/>
<text text-anchor="middle" x="1220" y="-62" font-family="Helvetica,sans-Serif" font-size="10.00">dolphin/types.h</text>
</a>
</g>
</g>
<!-- Node2&#45;&gt;Node3 -->
<g id="edge2" class="edge">
<title>Node2&#45;&gt;Node3</title>
<path fill="none" stroke="#63b8ff" d="M1416.4,-419.19C1127.83,-410.94 0,-374.08 0,-302 0,-302 0,-302 0,-173.5 0,-137.85 17.31,-126.33 49,-110 99.33,-84.07 947.82,-69.58 1168.1,-66.25"/>
<polygon fill="#63b8ff" stroke="#63b8ff" points="1167.85,-69.75 1177.79,-66.1 1167.74,-62.75 1167.85,-69.75"/>
</g>
<!-- Node5 -->
<g id="node5" class="node">
<title>Node5</title>
<g id="a_node5"><a xlink:href="JUTAssert_8h.html" target="_top" xlink:title=" ">
<polygon fill="white" stroke="#666666" points="1556,-371 1410,-371 1410,-352 1556,-352 1556,-371"/>
<text text-anchor="middle" x="1483" y="-359" font-family="Helvetica,sans-Serif" font-size="10.00">JSystem/JUtility/JUTAssert.h</text>
</a>
</g>
</g>
<!-- Node2&#45;&gt;Node5 -->
<g id="edge4" class="edge">
<title>Node2&#45;&gt;Node5</title>
<path fill="none" stroke="#63b8ff" d="M1483,-412.37C1483,-404.5 1483,-392.6 1483,-382.39"/>
<polygon fill="#63b8ff" stroke="#63b8ff" points="1486.5,-382.68 1483,-372.68 1479.5,-382.68 1486.5,-382.68"/>
</g>
<!-- Node4 -->
<g id="node4" class="node">
<title>Node4</title>
<g id="a_node4"><a xlink:href="stddef_8h.html" target="_top" xlink:title=" ">
<polygon fill="white" stroke="#666666" points="1245.5,-19 1194.5,-19 1194.5,0 1245.5,0 1245.5,-19"/>
<text text-anchor="middle" x="1220" y="-7" font-family="Helvetica,sans-Serif" font-size="10.00">stddef.h</text>
</a>
</g>
</g>
<!-- Node3&#45;&gt;Node4 -->
<g id="edge3" class="edge">
<title>Node3&#45;&gt;Node4</title>
<path fill="none" stroke="#63b8ff" d="M1220,-54.75C1220,-48.27 1220,-39.16 1220,-30.9"/>
<polygon fill="#63b8ff" stroke="#63b8ff" points="1223.5,-30.96 1220,-20.96 1216.5,-30.96 1223.5,-30.96"/>
</g>
<!-- Node5&#45;&gt;Node3 -->
<g id="edge5" class="edge">
<title>Node5&#45;&gt;Node3</title>
<path fill="none" stroke="#63b8ff" d="M1533.74,-351.52C1623.52,-334.16 1801,-292.69 1801,-236 1801,-236 1801,-236 1801,-173.5 1801,-126.7 1760.66,-126.85 1717,-110 1636.88,-79.08 1382.73,-69.36 1272.19,-66.55"/>
<polygon fill="#63b8ff" stroke="#63b8ff" points="1272.29,-63.05 1262.21,-66.31 1272.12,-70.05 1272.29,-63.05"/>
</g>
<!-- Node6 -->
<g id="node6" class="node">
<title>Node6</title>
<g id="a_node6"><a xlink:href="os_8h.html" target="_top" xlink:title=" ">
<polygon fill="white" stroke="#666666" points="1079,-310.5 1011,-310.5 1011,-291.5 1079,-291.5 1079,-310.5"/>
<text text-anchor="middle" x="1045" y="-298.5" font-family="Helvetica,sans-Serif" font-size="10.00">dolphin/os.h</text>
</a>
</g>
</g>
<!-- Node5&#45;&gt;Node6 -->
<g id="edge6" class="edge">
<title>Node5&#45;&gt;Node6</title>
<path fill="none" stroke="#63b8ff" d="M1416,-351.55C1325.96,-339.53 1168.29,-318.47 1090.73,-308.11"/>
<polygon fill="#63b8ff" stroke="#63b8ff" points="1091.31,-304.65 1080.94,-306.8 1090.39,-311.59 1091.31,-304.65"/>
</g>
<!-- Node7 -->
<g id="node7" class="node">
<title>Node7</title>
<g id="a_node7"><a xlink:href="____va__arg_8h.html" target="_top" xlink:title=" ">
<polygon fill="white" stroke="#666666" points="1100,-129 1036,-129 1036,-110 1100,-110 1100,-129"/>
<text text-anchor="middle" x="1068" y="-117" font-family="Helvetica,sans-Serif" font-size="10.00">__va_arg.h</text>
</a>
</g>
</g>
<!-- Node6&#45;&gt;Node7 -->
<g id="edge7" class="edge">
<title>Node6&#45;&gt;Node7</title>
<path fill="none" stroke="#63b8ff" d="M1060.94,-291.07C1074.44,-282.51 1092.85,-268.2 1101,-250 1116.44,-215.52 1112.85,-200.87 1101,-165 1097.7,-155 1091.18,-145.42 1084.81,-137.72"/>
<polygon fill="#63b8ff" stroke="#63b8ff" points="1087.62,-135.61 1078.34,-130.49 1082.4,-140.28 1087.62,-135.61"/>
</g>
<!-- Node8 -->
<g id="node8" class="node">
<title>Node8</title>
<g id="a_node8"><a xlink:href="dvd_8h.html" target="_top" xlink:title=" ">
<polygon fill="white" stroke="#666666" points="1192,-129 1118,-129 1118,-110 1192,-110 1192,-129"/>
<text text-anchor="middle" x="1155" y="-117" font-family="Helvetica,sans-Serif" font-size="10.00">dolphin/dvd.h</text>
</a>
</g>
</g>
<!-- Node6&#45;&gt;Node8 -->
<g id="edge9" class="edge">
<title>Node6&#45;&gt;Node8</title>
<path fill="none" stroke="#63b8ff" d="M1066.22,-291.02C1083.21,-282.76 1106.39,-268.93 1120,-250 1143.95,-216.69 1151.51,-167.9 1153.9,-140.71"/>
<polygon fill="#63b8ff" stroke="#63b8ff" points="1157.39,-140.99 1154.6,-130.77 1150.41,-140.5 1157.39,-140.99"/>
</g>
<!-- Node9 -->
<g id="node9" class="node">
<title>Node9</title>
<g id="a_node9"><a xlink:href="OSAlarm_8h.html" target="_top" xlink:title=" ">
<polygon fill="white" stroke="#666666" points="253.5,-244.5 142.5,-244.5 142.5,-225.5 253.5,-225.5 253.5,-244.5"/>
<text text-anchor="middle" x="198" y="-232.5" font-family="Helvetica,sans-Serif" font-size="10.00">dolphin/os/OSAlarm.h</text>
</a>
</g>
</g>
<!-- Node6&#45;&gt;Node9 -->
<g id="edge11" class="edge">
<title>Node6&#45;&gt;Node9</title>
<path fill="none" stroke="#63b8ff" d="M1010.76,-299.42C901.8,-297.23 553.46,-287.56 268,-250 261.93,-249.2 255.6,-248.19 249.34,-247.08"/>
<polygon fill="#63b8ff" stroke="#63b8ff" points="250.16,-243.67 239.68,-245.27 248.87,-250.55 250.16,-243.67"/>
</g>
<!-- Node10 -->
<g id="node10" class="node">
<title>Node10</title>
<g id="a_node10"><a xlink:href="OSError_8h.html" target="_top" xlink:title=" ">
<polygon fill="white" stroke="#666666" points="432,-184 326,-184 326,-165 432,-165 432,-184"/>
<text text-anchor="middle" x="379" y="-172" font-family="Helvetica,sans-Serif" font-size="10.00">dolphin/os/OSError.h</text>
</a>
</g>
</g>
<!-- Node6&#45;&gt;Node10 -->
<g id="edge25" class="edge">
<title>Node6&#45;&gt;Node10</title>
<path fill="none" stroke="#63b8ff" d="M1010.77,-300.37C871.18,-301.54 349.96,-302.36 301,-250 291.89,-240.26 294.3,-231.53 301,-220 309.19,-205.9 323.71,-195.89 338.02,-188.98"/>
<polygon fill="#63b8ff" stroke="#63b8ff" points="339.16,-192.31 346.92,-185.1 336.36,-185.89 339.16,-192.31"/>
</g>
<!-- Node11 -->
<g id="node11" class="node">
<title>Node11</title>
<g id="a_node11"><a xlink:href="OSTime_8h.html" target="_top" xlink:title=" ">
<polygon fill="white" stroke="#666666" points="307.5,-184 200.5,-184 200.5,-165 307.5,-165 307.5,-184"/>
<text text-anchor="middle" x="254" y="-172" font-family="Helvetica,sans-Serif" font-size="10.00">dolphin/os/OSTime.h</text>
</a>
</g>
</g>
<!-- Node6&#45;&gt;Node11 -->
<g id="edge52" class="edge">
<title>Node6&#45;&gt;Node11</title>
<path fill="none" stroke="#63b8ff" d="M1010.56,-299.42C847.95,-296.53 163.73,-282.46 133,-250 106.19,-221.68 158.64,-199.92 202.68,-187.43"/>
<polygon fill="#63b8ff" stroke="#63b8ff" points="203.45,-190.84 212.19,-184.85 201.62,-184.09 203.45,-190.84"/>
</g>
<!-- Node12 -->
<g id="node12" class="node">
<title>Node12</title>
<g id="a_node12"><a xlink:href="OSAlloc_8h.html" target="_top" xlink:title=" ">
<polygon fill="white" stroke="#666666" points="1298.5,-184 1191.5,-184 1191.5,-165 1298.5,-165 1298.5,-184"/>
<text text-anchor="middle" x="1245" y="-172" font-family="Helvetica,sans-Serif" font-size="10.00">dolphin/os/OSAlloc.h</text>
</a>
</g>
</g>
<!-- Node6&#45;&gt;Node12 -->
<g id="edge16" class="edge">
<title>Node6&#45;&gt;Node12</title>
<path fill="none" stroke="#63b8ff" d="M1079.35,-291.77C1107.3,-283.99 1146.89,-270.44 1177,-250 1199.79,-234.52 1220.26,-209.93 1232.64,-193.27"/>
<polygon fill="#63b8ff" stroke="#63b8ff" points="1235.37,-195.46 1238.38,-185.3 1229.69,-191.38 1235.37,-195.46"/>
</g>
<!-- Node13 -->
<g id="node13" class="node">
<title>Node13</title>
<g id="a_node13"><a xlink:href="OSArena_8h.html" target="_top" xlink:title=" ">
<polygon fill="white" stroke="#666666" points="1359.5,-129 1248.5,-129 1248.5,-110 1359.5,-110 1359.5,-129"/>
<text text-anchor="middle" x="1304" y="-117" font-family="Helvetica,sans-Serif" font-size="10.00">dolphin/os/OSArena.h</text>
</a>
</g>
</g>
<!-- Node6&#45;&gt;Node13 -->
<g id="edge18" class="edge">
<title>Node6&#45;&gt;Node13</title>
<path fill="none" stroke="#63b8ff" d="M1079.37,-297.46C1139.68,-290.87 1262.4,-267.33 1307,-184 1314.1,-170.73 1312.79,-153.57 1310,-140.44"/>
<polygon fill="#63b8ff" stroke="#63b8ff" points="1313.4,-139.6 1307.5,-130.8 1306.63,-141.36 1313.4,-139.6"/>
</g>
<!-- Node14 -->
<g id="node14" class="node">
<title>Node14</title>
<g id="a_node14"><a xlink:href="OSAudioSystem_8h.html" target="_top" xlink:title=" ">
<polygon fill="white" stroke="#666666" points="765.5,-244.5 622.5,-244.5 622.5,-225.5 765.5,-225.5 765.5,-244.5"/>
<text text-anchor="middle" x="694" y="-232.5" font-family="Helvetica,sans-Serif" font-size="10.00">dolphin/os/OSAudioSystem.h</text>
</a>
</g>
</g>
<!-- Node6&#45;&gt;Node14 -->
<g id="edge20" class="edge">
<title>Node6&#45;&gt;Node14</title>
<path fill="none" stroke="#63b8ff" d="M1010.71,-293.75C951.23,-282.9 828.23,-260.47 754.24,-246.98"/>
<polygon fill="#63b8ff" stroke="#63b8ff" points="755.2,-243.6 744.73,-245.25 753.94,-250.49 755.2,-243.6"/>
</g>
<!-- Node15 -->
<g id="node15" class="node">
<title>Node15</title>
<g id="a_node15"><a xlink:href="OSCache_8h.html" target="_top" xlink:title=" ">
<polygon fill="white" stroke="#666666" points="1490.5,-129 1377.5,-129 1377.5,-110 1490.5,-110 1490.5,-129"/>
<text text-anchor="middle" x="1434" y="-117" font-family="Helvetica,sans-Serif" font-size="10.00">dolphin/os/OSCache.h</text>
</a>
</g>
</g>
<!-- Node6&#45;&gt;Node15 -->
<g id="edge21" class="edge">
<title>Node6&#45;&gt;Node15</title>
<path fill="none" stroke="#63b8ff" d="M1079.36,-297.54C1125.79,-293.13 1210.2,-281.2 1275,-250 1306.21,-234.97 1381.85,-167.95 1416.34,-136.68"/>
<polygon fill="#63b8ff" stroke="#63b8ff" points="1418.38,-139.55 1423.42,-130.23 1413.67,-134.38 1418.38,-139.55"/>
</g>
<!-- Node16 -->
<g id="node16" class="node">
<title>Node16</title>
<g id="a_node16"><a xlink:href="OSContext_8h.html" target="_top" xlink:title=" ">
<polygon fill="white" stroke="#666666" points="859.5,-129 740.5,-129 740.5,-110 859.5,-110 859.5,-129"/>
<text text-anchor="middle" x="800" y="-117" font-family="Helvetica,sans-Serif" font-size="10.00">dolphin/os/OSContext.h</text>
</a>
</g>
</g>
<!-- Node6&#45;&gt;Node16 -->
<g id="edge23" class="edge">
<title>Node6&#45;&gt;Node16</title>
<path fill="none" stroke="#63b8ff" d="M1020.46,-291.12C997.99,-282.39 964.31,-267.82 938,-250 911.88,-232.31 847.29,-168.28 816.65,-137.4"/>
<polygon fill="#63b8ff" stroke="#63b8ff" points="819.22,-135.02 809.7,-130.37 814.24,-139.94 819.22,-135.02"/>
</g>
<!-- Node17 -->
<g id="node17" class="node">
<title>Node17</title>
<g id="a_node17"><a xlink:href="OSExec_8h.html" target="_top" xlink:title=" ">
<polygon fill="white" stroke="#666666" points="1615.5,-129 1508.5,-129 1508.5,-110 1615.5,-110 1615.5,-129"/>
<text text-anchor="middle" x="1562" y="-117" font-family="Helvetica,sans-Serif" font-size="10.00">dolphin/os/OSExec.h</text>
</a>
</g>
</g>
<!-- Node6&#45;&gt;Node17 -->
<g id="edge26" class="edge">
<title>Node6&#45;&gt;Node17</title>
<path fill="none" stroke="#63b8ff" d="M1079.24,-297.51C1130.94,-292.89 1231.35,-280.5 1311,-250 1378.98,-223.97 1385.89,-197.54 1451,-165 1475.31,-152.85 1503.78,-141.49 1525.79,-133.29"/>
<polygon fill="#63b8ff" stroke="#63b8ff" points="1526.75,-136.67 1534.93,-129.94 1524.34,-130.1 1526.75,-136.67"/>
</g>
<!-- Node18 -->
<g id="node18" class="node">
<title>Node18</title>
<g id="a_node18"><a xlink:href="OSFont_8h.html" target="_top" xlink:title=" ">
<polygon fill="white" stroke="#666666" points="1565.5,-184 1460.5,-184 1460.5,-165 1565.5,-165 1565.5,-184"/>
<text text-anchor="middle" x="1513" y="-172" font-family="Helvetica,sans-Serif" font-size="10.00">dolphin/os/OSFont.h</text>
</a>
</g>
</g>
<!-- Node6&#45;&gt;Node18 -->
<g id="edge28" class="edge">
<title>Node6&#45;&gt;Node18</title>
<path fill="none" stroke="#63b8ff" d="M1079.27,-297.68C1159.29,-291.9 1356.22,-275.47 1417,-250 1425.58,-246.4 1467.95,-212.37 1493.44,-191.57"/>
<polygon fill="#63b8ff" stroke="#63b8ff" points="1495.59,-194.33 1501.11,-185.29 1491.15,-188.92 1495.59,-194.33"/>
</g>
<!-- Node19 -->
<g id="node19" class="node">
<title>Node19</title>
<g id="a_node19"><a xlink:href="OSInterrupt_8h.html" target="_top" xlink:title=" ">
<polygon fill="white" stroke="#666666" points="1773,-184 1651,-184 1651,-165 1773,-165 1773,-184"/>
<text text-anchor="middle" x="1712" y="-172" font-family="Helvetica,sans-Serif" font-size="10.00">dolphin/os/OSInterrupt.h</text>
</a>
</g>
</g>
<!-- Node6&#45;&gt;Node19 -->
<g id="edge30" class="edge">
<title>Node6&#45;&gt;Node19</title>
<path fill="none" stroke="#63b8ff" d="M1079.27,-299.44C1185.56,-297.3 1508.28,-287.78 1605,-250 1625.37,-242.04 1626.17,-232.66 1644,-220 1658.48,-209.71 1675.17,-198.78 1688.39,-190.33"/>
<polygon fill="#63b8ff" stroke="#63b8ff" points="1689.88,-193.52 1696.45,-185.21 1686.13,-187.61 1689.88,-193.52"/>
</g>
<!-- Node20 -->
<g id="node20" class="node">
<title>Node20</title>
<g id="a_node20"><a xlink:href="OSLink_8h.html" target="_top" xlink:title=" ">
<polygon fill="white" stroke="#666666" points="162,-129 58,-129 58,-110 162,-110 162,-129"/>
<text text-anchor="middle" x="110" y="-117" font-family="Helvetica,sans-Serif" font-size="10.00">dolphin/os/OSLink.h</text>
</a>
</g>
</g>
<!-- Node6&#45;&gt;Node20 -->
<g id="edge32" class="edge">
<title>Node6&#45;&gt;Node20</title>
<path fill="none" stroke="#63b8ff" d="M1010.72,-299.83C851.72,-298.83 190.26,-292.14 109,-250 69.69,-229.61 38.29,-205.14 57,-165 62.58,-153.03 73.13,-143.14 83.36,-135.75"/>
<polygon fill="#63b8ff" stroke="#63b8ff" points="85.23,-138.71 91.64,-130.27 81.37,-132.87 85.23,-138.71"/>
</g>
<!-- Node21 -->
<g id="node21" class="node">
<title>Node21</title>
<g id="a_node21"><a xlink:href="OSMemory_8h.html" target="_top" xlink:title=" ">
<polygon fill="white" stroke="#666666" points="1773,-244.5 1653,-244.5 1653,-225.5 1773,-225.5 1773,-244.5"/>
<text text-anchor="middle" x="1713" y="-232.5" font-family="Helvetica,sans-Serif" font-size="10.00">dolphin/os/OSMemory.h</text>
</a>
</g>
</g>
<!-- Node6&#45;&gt;Node21 -->
<g id="edge34" class="edge">
<title>Node6&#45;&gt;Node21</title>
<path fill="none" stroke="#63b8ff" d="M1079.29,-298.35C1170.62,-293.7 1427.25,-278.86 1639,-250 1645.39,-249.13 1652.07,-248.07 1658.68,-246.94"/>
<polygon fill="#63b8ff" stroke="#63b8ff" points="1658.97,-250.44 1668.2,-245.23 1657.74,-243.55 1658.97,-250.44"/>
</g>
<!-- Node22 -->
<g id="node22" class="node">
<title>Node22</title>
<g id="a_node22"><a xlink:href="OSMessage_8h.html" target="_top" xlink:title=" ">
<polygon fill="white" stroke="#666666" points="435.5,-244.5 310.5,-244.5 310.5,-225.5 435.5,-225.5 435.5,-244.5"/>
<text text-anchor="middle" x="373" y="-232.5" font-family="Helvetica,sans-Serif" font-size="10.00">dolphin/os/OSMessage.h</text>
</a>
</g>
</g>
<!-- Node6&#45;&gt;Node22 -->
<g id="edge36" class="edge">
<title>Node6&#45;&gt;Node22</title>
<path fill="none" stroke="#63b8ff" d="M1010.67,-298.27C919.21,-293.42 662.21,-278.14 450,-250 443.27,-249.11 436.24,-248.03 429.28,-246.88"/>
<polygon fill="#63b8ff" stroke="#63b8ff" points="430.02,-243.45 419.57,-245.2 428.83,-250.35 430.02,-243.45"/>
</g>
<!-- Node23 -->
<g id="node23" class="node">
<title>Node23</title>
<g id="a_node23"><a xlink:href="OSThread_8h.html" target="_top" xlink:title=" ">
<polygon fill="white" stroke="#666666" points="586,-184 470,-184 470,-165 586,-165 586,-184"/>
<text text-anchor="middle" x="528" y="-172" font-family="Helvetica,sans-Serif" font-size="10.00">dolphin/os/OSThread.h</text>
</a>
</g>
</g>
<!-- Node6&#45;&gt;Node23 -->
<g id="edge51" class="edge">
<title>Node6&#45;&gt;Node23</title>
<path fill="none" stroke="#63b8ff" d="M1010.74,-299.58C894.25,-297.79 518.71,-289.02 483,-250 466.61,-232.08 488.53,-207.3 507.12,-191.34"/>
<polygon fill="#63b8ff" stroke="#63b8ff" points="509.08,-194.26 514.62,-185.23 504.66,-188.83 509.08,-194.26"/>
</g>
<!-- Node24 -->
<g id="node24" class="node">
<title>Node24</title>
<g id="a_node24"><a xlink:href="OSMutex_8h.html" target="_top" xlink:title=" ">
<polygon fill="white" stroke="#666666" points="604,-244.5 492,-244.5 492,-225.5 604,-225.5 604,-244.5"/>
<text text-anchor="middle" x="548" y="-232.5" font-family="Helvetica,sans-Serif" font-size="10.00">dolphin/os/OSMutex.h</text>
</a>
</g>
</g>
<!-- Node6&#45;&gt;Node24 -->
<g id="edge39" class="edge">
<title>Node6&#45;&gt;Node24</title>
<path fill="none" stroke="#63b8ff" d="M1010.68,-297.17C937.36,-290.86 760.12,-274.3 613,-250 608.06,-249.18 602.93,-248.24 597.82,-247.24"/>
<polygon fill="#63b8ff" stroke="#63b8ff" points="598.7,-243.85 588.2,-245.29 597.31,-250.71 598.7,-243.85"/>
</g>
<!-- Node25 -->
<g id="node25" class="node">
<title>Node25</title>
<g id="a_node25"><a xlink:href="OSReboot_8h.html" target="_top" xlink:title=" ">
<polygon fill="white" stroke="#666666" points="182,-184 66,-184 66,-165 182,-165 182,-184"/>
<text text-anchor="middle" x="124" y="-172" font-family="Helvetica,sans-Serif" font-size="10.00">dolphin/os/OSReboot.h</text>
</a>
</g>
</g>
<!-- Node6&#45;&gt;Node25 -->
<g id="edge41" class="edge">
<title>Node6&#45;&gt;Node25</title>
<path fill="none" stroke="#63b8ff" d="M1010.69,-299.45C847.12,-296.65 153.14,-282.88 122,-250 108.4,-235.64 111.75,-211.86 116.67,-195.03"/>
<polygon fill="#63b8ff" stroke="#63b8ff" points="119.94,-196.27 119.82,-185.68 113.31,-194.04 119.94,-196.27"/>
</g>
<!-- Node26 -->
<g id="node26" class="node">
<title>Node26</title>
<g id="a_node26"><a xlink:href="OSReset_8h.html" target="_top" xlink:title=" ">
<polygon fill="white" stroke="#666666" points="1058.5,-244.5 947.5,-244.5 947.5,-225.5 1058.5,-225.5 1058.5,-244.5"/>
<text text-anchor="middle" x="1003" y="-232.5" font-family="Helvetica,sans-Serif" font-size="10.00">dolphin/os/OSReset.h</text>
</a>
</g>
</g>
<!-- Node6&#45;&gt;Node26 -->
<g id="edge43" class="edge">
<title>Node6&#45;&gt;Node26</title>
<path fill="none" stroke="#63b8ff" d="M1039.16,-291.1C1032.95,-281.64 1022.97,-266.42 1015.06,-254.37"/>
<polygon fill="#63b8ff" stroke="#63b8ff" points="1018.03,-252.53 1009.62,-246.09 1012.18,-256.37 1018.03,-252.53"/>
</g>
<!-- Node27 -->
<g id="node27" class="node">
<title>Node27</title>
<g id="a_node27"><a xlink:href="OSResetSW_8h.html" target="_top" xlink:title=" ">
<polygon fill="white" stroke="#666666" points="1596.5,-244.5 1469.5,-244.5 1469.5,-225.5 1596.5,-225.5 1596.5,-244.5"/>
<text text-anchor="middle" x="1533" y="-232.5" font-family="Helvetica,sans-Serif" font-size="10.00">dolphin/os/OSResetSW.h</text>
</a>
</g>
</g>
<!-- Node6&#45;&gt;Node27 -->
<g id="edge45" class="edge">
<title>Node6&#45;&gt;Node27</title>
<path fill="none" stroke="#63b8ff" d="M1079.38,-296.47C1149.94,-289.07 1316.2,-270.9 1455,-250 1461.36,-249.04 1468,-247.97 1474.61,-246.85"/>
<polygon fill="#63b8ff" stroke="#63b8ff" points="1474.89,-250.35 1484.14,-245.2 1473.69,-243.46 1474.89,-250.35"/>
</g>
<!-- Node28 -->
<g id="node28" class="node">
<title>Node28</title>
<g id="a_node28"><a xlink:href="OSRtc_8h.html" target="_top" xlink:title=" ">
<polygon fill="white" stroke="#666666" points="1017.5,-129 916.5,-129 916.5,-110 1017.5,-110 1017.5,-129"/>
<text text-anchor="middle" x="967" y="-117" font-family="Helvetica,sans-Serif" font-size="10.00">dolphin/os/OSRtc.h</text>
</a>
</g>
</g>
<!-- Node6&#45;&gt;Node28 -->
<g id="edge48" class="edge">
<title>Node6&#45;&gt;Node28</title>
<path fill="none" stroke="#63b8ff" d="M1051.03,-291.36C1060.66,-276.43 1077.39,-245.01 1067,-220 1051.63,-183.03 1015.11,-152.7 990.72,-135.61"/>
<polygon fill="#63b8ff" stroke="#63b8ff" points="992.92,-132.87 982.67,-130.16 988.99,-138.67 992.92,-132.87"/>
</g>
<!-- Node29 -->
<g id="node29" class="node">
<title>Node29</title>
<g id="a_node29"><a xlink:href="OSSync_8h.html" target="_top" xlink:title=" ">
<polygon fill="white" stroke="#666666" points="890.5,-244.5 783.5,-244.5 783.5,-225.5 890.5,-225.5 890.5,-244.5"/>
<text text-anchor="middle" x="837" y="-232.5" font-family="Helvetica,sans-Serif" font-size="10.00">dolphin/os/OSSync.h</text>
</a>
</g>
</g>
<!-- Node6&#45;&gt;Node29 -->
<g id="edge50" class="edge">
<title>Node6&#45;&gt;Node29</title>
<path fill="none" stroke="#63b8ff" d="M1016.08,-291.1C979.86,-279.96 917.62,-260.81 876.89,-248.27"/>
<polygon fill="#63b8ff" stroke="#63b8ff" points="878.04,-244.97 867.46,-245.37 875.99,-251.66 878.04,-244.97"/>
</g>
<!-- Node7&#45;&gt;Node3 -->
<g id="edge8" class="edge">
<title>Node7&#45;&gt;Node3</title>
<path fill="none" stroke="#63b8ff" d="M1093.78,-109.51C1118.43,-100.92 1155.81,-87.88 1183.51,-78.22"/>
<polygon fill="#63b8ff" stroke="#63b8ff" points="1184.62,-81.54 1192.91,-74.94 1182.32,-74.93 1184.62,-81.54"/>
</g>
<!-- Node8&#45;&gt;Node3 -->
<g id="edge10" class="edge">
<title>Node8&#45;&gt;Node3</title>
<path fill="none" stroke="#63b8ff" d="M1166.03,-109.51C1175.42,-101.85 1189.15,-90.66 1200.41,-81.47"/>
<polygon fill="#63b8ff" stroke="#63b8ff" points="1202.43,-84.35 1207.96,-75.31 1198,-78.92 1202.43,-84.35"/>
</g>
<!-- Node9&#45;&gt;Node10 -->
<g id="edge12" class="edge">
<title>Node9&#45;&gt;Node10</title>
<path fill="none" stroke="#63b8ff" d="M225.49,-225.12C256.19,-215.19 306.09,-199.07 340.62,-187.9"/>
<polygon fill="#63b8ff" stroke="#63b8ff" points="341.37,-191.34 349.81,-184.93 339.22,-184.68 341.37,-191.34"/>
</g>
<!-- Node9&#45;&gt;Node11 -->
<g id="edge14" class="edge">
<title>Node9&#45;&gt;Node11</title>
<path fill="none" stroke="#63b8ff" d="M206.26,-225.37C214.53,-216.73 227.48,-203.2 237.81,-192.42"/>
<polygon fill="#63b8ff" stroke="#63b8ff" points="240.27,-194.9 244.66,-185.26 235.21,-190.06 240.27,-194.9"/>
</g>
<!-- Node10&#45;&gt;Node3 -->
<g id="edge13" class="edge">
<title>Node10&#45;&gt;Node3</title>
<path fill="none" stroke="#63b8ff" d="M421.89,-164.51C487.98,-150.93 618.85,-125.19 731,-110 889.46,-88.54 1078.24,-74.64 1167.84,-68.74"/>
<polygon fill="#63b8ff" stroke="#63b8ff" points="1168.03,-72.23 1177.78,-68.09 1167.58,-65.25 1168.03,-72.23"/>
</g>
<!-- Node11&#45;&gt;Node3 -->
<g id="edge15" class="edge">
<title>Node11&#45;&gt;Node3</title>
<path fill="none" stroke="#63b8ff" d="M296.37,-164.5C363.02,-150.68 496.53,-124.32 611,-110 816.31,-84.31 1062.57,-71.93 1167.98,-67.49"/>
<polygon fill="#63b8ff" stroke="#63b8ff" points="1167.87,-71 1177.72,-67.09 1167.58,-64 1167.87,-71"/>
</g>
<!-- Node12&#45;&gt;Node3 -->
<g id="edge17" class="edge">
<title>Node12&#45;&gt;Node3</title>
<path fill="none" stroke="#63b8ff" d="M1242.95,-164.66C1238.98,-147.5 1230.13,-109.26 1224.65,-85.6"/>
<polygon fill="#63b8ff" stroke="#63b8ff" points="1228.08,-84.89 1222.42,-75.93 1221.26,-86.47 1228.08,-84.89"/>
</g>
<!-- Node13&#45;&gt;Node3 -->
<g id="edge19" class="edge">
<title>Node13&#45;&gt;Node3</title>
<path fill="none" stroke="#63b8ff" d="M1289.75,-109.51C1277.12,-101.54 1258.44,-89.75 1243.59,-80.38"/>
<polygon fill="#63b8ff" stroke="#63b8ff" points="1245.64,-77.54 1235.32,-75.17 1241.91,-83.46 1245.64,-77.54"/>
</g>
<!-- Node15&#45;&gt;Node3 -->
<g id="edge22" class="edge">
<title>Node15&#45;&gt;Node3</title>
<path fill="none" stroke="#63b8ff" d="M1397.7,-109.51C1361.77,-100.61 1306.6,-86.95 1267.27,-77.21"/>
<polygon fill="#63b8ff" stroke="#63b8ff" points="1268.14,-73.82 1257.59,-74.81 1266.46,-80.61 1268.14,-73.82"/>
</g>
<!-- Node16&#45;&gt;Node3 -->
<g id="edge24" class="edge">
<title>Node16&#45;&gt;Node3</title>
<path fill="none" stroke="#63b8ff" d="M859.73,-110.96C942.3,-100.54 1089.94,-81.91 1168.13,-72.05"/>
<polygon fill="#63b8ff" stroke="#63b8ff" points="1168.16,-75.57 1177.64,-70.85 1167.28,-68.63 1168.16,-75.57"/>
</g>
<!-- Node17&#45;&gt;Node3 -->
<g id="edge27" class="edge">
<title>Node17&#45;&gt;Node3</title>
<path fill="none" stroke="#63b8ff" d="M1508.19,-110.16C1443.5,-100.14 1335.72,-83.43 1271.9,-73.54"/>
<polygon fill="#63b8ff" stroke="#63b8ff" points="1272.81,-70.14 1262.4,-72.07 1271.74,-77.06 1272.81,-70.14"/>
</g>
<!-- Node18&#45;&gt;Node3 -->
<g id="edge29" class="edge">
<title>Node18&#45;&gt;Node3</title>
<path fill="none" stroke="#63b8ff" d="M1558.12,-164.57C1598.42,-154.65 1647.7,-136.46 1624,-110 1600.93,-84.25 1376.49,-71.85 1272.45,-67.45"/>
<polygon fill="#63b8ff" stroke="#63b8ff" points="1272.63,-63.95 1262.49,-67.04 1272.34,-70.95 1272.63,-63.95"/>
</g>
<!-- Node19&#45;&gt;Node3 -->
<g id="edge31" class="edge">
<title>Node19&#45;&gt;Node3</title>
<path fill="none" stroke="#63b8ff" d="M1712.67,-164.94C1713.23,-151.05 1712.06,-123.76 1696,-110 1664.36,-82.88 1389.36,-70.92 1272.35,-67.03"/>
<polygon fill="#63b8ff" stroke="#63b8ff" points="1272.49,-63.53 1262.38,-66.71 1272.26,-70.53 1272.49,-63.53"/>
</g>
<!-- Node20&#45;&gt;Node3 -->
<g id="edge33" class="edge">
<title>Node20&#45;&gt;Node3</title>
<path fill="none" stroke="#63b8ff" d="M162.42,-116C349.21,-107.08 981.11,-76.91 1167.71,-68"/>
<polygon fill="#63b8ff" stroke="#63b8ff" points="1167.75,-71.5 1177.58,-67.53 1167.42,-64.51 1167.75,-71.5"/>
</g>
<!-- Node21&#45;&gt;Node19 -->
<g id="edge35" class="edge">
<title>Node21&#45;&gt;Node19</title>
<path fill="none" stroke="#63b8ff" d="M1712.85,-225.37C1712.72,-217.5 1712.51,-205.6 1712.34,-195.39"/>
<polygon fill="#63b8ff" stroke="#63b8ff" points="1715.84,-195.62 1712.17,-185.68 1708.85,-195.74 1715.84,-195.62"/>
</g>
<!-- Node22&#45;&gt;Node23 -->
<g id="edge37" class="edge">
<title>Node22&#45;&gt;Node23</title>
<path fill="none" stroke="#63b8ff" d="M396.54,-225.12C422.37,-215.37 464.09,-199.62 493.59,-188.49"/>
<polygon fill="#63b8ff" stroke="#63b8ff" points="494.7,-191.81 502.82,-185 492.23,-185.26 494.7,-191.81"/>
</g>
<!-- Node23&#45;&gt;Node16 -->
<g id="edge38" class="edge">
<title>Node23&#45;&gt;Node16</title>
<path fill="none" stroke="#63b8ff" d="M574.14,-164.51C620.68,-155.44 692.64,-141.42 742.79,-131.65"/>
<polygon fill="#63b8ff" stroke="#63b8ff" points="743.46,-135.08 752.6,-129.74 742.12,-128.21 743.46,-135.08"/>
</g>
<!-- Node24&#45;&gt;Node23 -->
<g id="edge40" class="edge">
<title>Node24&#45;&gt;Node23</title>
<path fill="none" stroke="#63b8ff" d="M545.05,-225.37C542.33,-217.42 538.2,-205.33 534.68,-195.05"/>
<polygon fill="#63b8ff" stroke="#63b8ff" points="538,-193.93 531.45,-185.6 531.38,-196.19 538,-193.93"/>
</g>
<!-- Node25&#45;&gt;Node3 -->
<g id="edge42" class="edge">
<title>Node25&#45;&gt;Node3</title>
<path fill="none" stroke="#63b8ff" d="M166.48,-164.52C234.32,-150.54 371.45,-123.76 489,-110 742.29,-80.35 1047.4,-69.85 1167.65,-66.69"/>
<polygon fill="#63b8ff" stroke="#63b8ff" points="1167.62,-70.19 1177.53,-66.43 1167.44,-63.19 1167.62,-70.19"/>
</g>
<!-- Node26&#45;&gt;Node3 -->
<g id="edge44" class="edge">
<title>Node26&#45;&gt;Node3</title>
<path fill="none" stroke="#63b8ff" d="M986.64,-225.01C950.77,-204.2 871.13,-151.33 907,-110 940.13,-71.82 1087.62,-65.55 1167.75,-65.03"/>
<polygon fill="#63b8ff" stroke="#63b8ff" points="1167.57,-68.53 1177.55,-65 1167.54,-61.53 1167.57,-68.53"/>
</g>
<!-- Node27&#45;&gt;Node3 -->
<g id="edge46" class="edge">
<title>Node27&#45;&gt;Node3</title>
<path fill="none" stroke="#63b8ff" d="M1551.57,-225.07C1591.81,-204.58 1680.45,-152.71 1642,-110 1617.66,-82.96 1379.58,-71.15 1272.14,-67.17"/>
<polygon fill="#63b8ff" stroke="#63b8ff" points="1272.57,-63.68 1262.45,-66.82 1272.31,-70.68 1272.57,-63.68"/>
</g>
<!-- Node27&#45;&gt;Node19 -->
<g id="edge47" class="edge">
<title>Node27&#45;&gt;Node19</title>
<path fill="none" stroke="#63b8ff" d="M1560.19,-225.12C1590.54,-215.19 1639.89,-199.07 1674.05,-187.9"/>
<polygon fill="#63b8ff" stroke="#63b8ff" points="1674.7,-191.37 1683.12,-184.94 1672.53,-184.72 1674.7,-191.37"/>
</g>
<!-- Node28&#45;&gt;Node3 -->
<g id="edge49" class="edge">
<title>Node28&#45;&gt;Node3</title>
<path fill="none" stroke="#63b8ff" d="M1009.92,-109.51C1053.68,-100.34 1121.6,-86.11 1168.29,-76.33"/>
<polygon fill="#63b8ff" stroke="#63b8ff" points="1168.83,-79.79 1177.9,-74.32 1167.4,-72.94 1168.83,-79.79"/>
</g>
<!-- Node31 -->
<g id="node31" class="node">
<title>Node31</title>
<g id="a_node31"><a xlink:href="fvb-data_8h.html" target="_top" xlink:title=" ">
<polygon fill="white" stroke="#666666" points="2066.5,-316 1939.5,-316 1939.5,-286 2066.5,-286 2066.5,-316"/>
<text text-anchor="start" x="1947.5" y="-304" font-family="Helvetica,sans-Serif" font-size="10.00">JSystem/JStudio/JStudio</text>
<text text-anchor="middle" x="2003" y="-293" font-family="Helvetica,sans-Serif" font-size="10.00">/fvb&#45;data.h</text>
</a>
</g>
</g>
<!-- Node30&#45;&gt;Node31 -->
<g id="edge54" class="edge">
<title>Node30&#45;&gt;Node31</title>
<path fill="none" stroke="#63b8ff" d="M2003,-406.88C2003,-387.39 2003,-351.92 2003,-327.67"/>
<polygon fill="#63b8ff" stroke="#63b8ff" points="2006.5,-327.98 2003,-317.98 1999.5,-327.98 2006.5,-327.98"/>
</g>
<!-- Node32 -->
<g id="node32" class="node">
<title>Node32</title>
<g id="a_node32"><a xlink:href="binary_8h.html" target="_top" xlink:title=" ">
<polygon fill="white" stroke="#666666" points="1960.5,-184 1829.5,-184 1829.5,-165 1960.5,-165 1960.5,-184"/>
<text text-anchor="middle" x="1895" y="-172" font-family="Helvetica,sans-Serif" font-size="10.00">JSystem/JGadget/binary.h</text>
</a>
</g>
</g>
<!-- Node31&#45;&gt;Node32 -->
<g id="edge55" class="edge">
<title>Node31&#45;&gt;Node32</title>
<path fill="none" stroke="#63b8ff" d="M1990.61,-285.72C1970.66,-262.72 1931.5,-217.57 1910,-192.79"/>
<polygon fill="#63b8ff" stroke="#63b8ff" points="1912.89,-190.79 1903.7,-185.53 1907.61,-195.37 1912.89,-190.79"/>
</g>
<!-- Node33 -->
<g id="node33" class="node">
<title>Node33</title>
<g id="a_node33"><a xlink:href="functionvalue_8h.html" target="_top" xlink:title=" ">
<polygon fill="white" stroke="#666666" points="2117.5,-250 1990.5,-250 1990.5,-220 2117.5,-220 2117.5,-250"/>
<text text-anchor="start" x="1998.5" y="-238" font-family="Helvetica,sans-Serif" font-size="10.00">JSystem/JStudio/JStudio</text>
<text text-anchor="middle" x="2054" y="-227" font-family="Helvetica,sans-Serif" font-size="10.00">/functionvalue.h</text>
</a>
</g>
</g>
<!-- Node31&#45;&gt;Node33 -->
<g id="edge57" class="edge">
<title>Node31&#45;&gt;Node33</title>
<path fill="none" stroke="#63b8ff" d="M2014.32,-285.8C2020.59,-277.92 2028.54,-267.95 2035.68,-258.99"/>
<polygon fill="#63b8ff" stroke="#63b8ff" points="2038.27,-261.35 2041.77,-251.35 2032.8,-256.99 2038.27,-261.35"/>
</g>
<!-- Node32&#45;&gt;Node3 -->
<g id="edge56" class="edge">
<title>Node32&#45;&gt;Node3</title>
<path fill="none" stroke="#63b8ff" d="M1887.22,-164.55C1874.03,-150.09 1845.72,-122.01 1815,-110 1716.77,-71.59 1398.31,-66.13 1272.16,-65.5"/>
<polygon fill="#63b8ff" stroke="#63b8ff" points="1272.45,-62 1262.43,-65.46 1272.42,-69 1272.45,-62"/>
</g>
<!-- Node34 -->
<g id="node34" class="node">
<title>Node34</title>
<g id="a_node34"><a xlink:href="search_8h.html" target="_top" xlink:title=" ">
<polygon fill="white" stroke="#666666" points="2151,-184 2017,-184 2017,-165 2151,-165 2151,-184"/>
<text text-anchor="middle" x="2084" y="-172" font-family="Helvetica,sans-Serif" font-size="10.00">JSystem/JGadget/search.h</text>
</a>
</g>
</g>
<!-- Node33&#45;&gt;Node34 -->
<g id="edge58" class="edge">
<title>Node33&#45;&gt;Node34</title>
<path fill="none" stroke="#63b8ff" d="M2061.42,-219.54C2065.33,-211.91 2070.18,-202.46 2074.37,-194.27"/>
<polygon fill="#63b8ff" stroke="#63b8ff" points="2077.41,-196.02 2078.86,-185.52 2071.18,-192.82 2077.41,-196.02"/>
</g>
<!-- Node35 -->
<g id="node35" class="node">
<title>Node35</title>
<g id="a_node35"><a xlink:href="global_8h.html" target="_top" xlink:title=" ">
<polygon fill="white" stroke="#666666" points="2014,-129 1964,-129 1964,-110 2014,-110 2014,-129"/>
<text text-anchor="middle" x="1989" y="-117" font-family="Helvetica,sans-Serif" font-size="10.00">global.h</text>
</a>
</g>
</g>
<!-- Node33&#45;&gt;Node35 -->
<g id="edge62" class="edge">
<title>Node33&#45;&gt;Node35</title>
<path fill="none" stroke="#63b8ff" d="M2037.5,-219.7C2027.69,-210.4 2015.7,-197.53 2008,-184 2000.24,-170.36 1995.35,-153.22 1992.48,-140.19"/>
<polygon fill="#63b8ff" stroke="#63b8ff" points="1995.98,-139.83 1990.61,-130.69 1989.11,-141.18 1995.98,-139.83"/>
</g>
<!-- Node36 -->
<g id="node36" class="node">
<title>Node36</title>
<g id="a_node36"><a xlink:href="vector_8h.html" target="_top" xlink:title=" ">
<polygon fill="white" stroke="#666666" points="2301,-184 2169,-184 2169,-165 2301,-165 2301,-184"/>
<text text-anchor="middle" x="2235" y="-172" font-family="Helvetica,sans-Serif" font-size="10.00">JSystem/JGadget/vector.h</text>
</a>
</g>
</g>
<!-- Node33&#45;&gt;Node36 -->
<g id="edge61" class="edge">
<title>Node33&#45;&gt;Node36</title>
<path fill="none" stroke="#63b8ff" d="M2098.74,-219.54C2128.78,-209.83 2167.94,-197.17 2196.57,-187.92"/>
<polygon fill="#63b8ff" stroke="#63b8ff" points="2197.48,-191.3 2205.92,-184.9 2195.33,-184.64 2197.48,-191.3"/>
</g>
<!-- Node34&#45;&gt;Node35 -->
<g id="edge59" class="edge">
<title>Node34&#45;&gt;Node35</title>
<path fill="none" stroke="#63b8ff" d="M2067.88,-164.51C2053.33,-156.39 2031.66,-144.3 2014.71,-134.85"/>
<polygon fill="#63b8ff" stroke="#63b8ff" points="2016.64,-131.91 2006.2,-130.1 2013.23,-138.02 2016.64,-131.91"/>
</g>
<!-- Node35&#45;&gt;Node3 -->
<g id="edge60" class="edge">
<title>Node35&#45;&gt;Node3</title>
<path fill="none" stroke="#63b8ff" d="M1963.69,-116.43C1941.81,-114.65 1909.32,-112.07 1881,-110 1654.16,-93.44 1383.35,-75.91 1271.86,-68.79"/>
<polygon fill="#63b8ff" stroke="#63b8ff" points="1272.34,-65.31 1262.14,-68.17 1271.9,-72.3 1272.34,-65.31"/>
</g>
<!-- Node37&#45;&gt;Node3 -->
<g id="edge64" class="edge">
<title>Node37&#45;&gt;Node3</title>
<path fill="none" stroke="#63b8ff" d="M2299.49,-406.79C2310.3,-384.91 2329,-341.38 2329,-302 2329,-302 2329,-302 2329,-173.5 2329,-65.94 1491.95,-63.76 1272.27,-65.03"/>
<polygon fill="#63b8ff" stroke="#63b8ff" points="1272.28,-61.53 1262.3,-65.1 1272.32,-68.53 1272.28,-61.53"/>
</g>
</g>
</svg>
        <g id="navigator" transform="translate(0 0)" fill="#404254">
                <rect fill="#f2f5e9" fill-opacity="0.5" stroke="#606060" stroke-width=".5" x="0" y="0" width="60" height="60"/>
                <use id="zoomplus" xlink:href="#zoomPlus" x="17" y="9" onmousedown="handleZoom(evt,'in')"/>
                <use id="zoomminus" xlink:href="#zoomMin" x="42" y="9" onmousedown="handleZoom(evt,'out')"/>
                <use id="reset" xlink:href="#resetDef" x="30" y="36" onmousedown="handleReset()"/>
                <g id="arrowUp" xlink:href="#dirArrow" transform="translate(30 24)" onmousedown="handlePan(0,-1)">
                  <use xlink:href="#rim" fill="#404040">
                        <set attributeName="fill" to="#808080" begin="arrowUp.mouseover" end="arrowUp.mouseout"/>
                  </use>
                  <path fill="none" stroke="white" stroke-width="1.5" d="M0,-3.0v7 M-2.5,-0.5L0,-3.0L2.5,-0.5"/>
                </g>
                <g id="arrowRight" xlink:href="#dirArrow" transform="rotate(90) translate(36 -43)" onmousedown="handlePan(1,0)">
                  <use xlink:href="#rim" fill="#404040">
                        <set attributeName="fill" to="#808080" begin="arrowRight.mouseover" end="arrowRight.mouseout"/>
                  </use>
                  <path fill="none" stroke="white" stroke-width="1.5" d="M0,-3.0v7 M-2.5,-0.5L0,-3.0L2.5,-0.5"/>
                </g>
                <g id="arrowDown" xlink:href="#dirArrow" transform="rotate(180) translate(-30 -48)" onmousedown="handlePan(0,1)">
                  <use xlink:href="#rim" fill="#404040">
                        <set attributeName="fill" to="#808080" begin="arrowDown.mouseover" end="arrowDown.mouseout"/>
                  </use>
                  <path fill="none" stroke="white" stroke-width="1.5" d="M0,-3.0v7 M-2.5,-0.5L0,-3.0L2.5,-0.5"/>
                </g>
                <g id="arrowLeft" xlink:href="#dirArrow" transform="rotate(270) translate(-36 17)" onmousedown="handlePan(-1,0)">
                  <use xlink:href="#rim" fill="#404040">
                        <set attributeName="fill" to="#808080" begin="arrowLeft.mouseover" end="arrowLeft.mouseout"/>
                  </use>
                  <path fill="none" stroke="white" stroke-width="1.5" d="M0,-3.0v7 M-2.5,-0.5L0,-3.0L2.5,-0.5"/>
                </g>
        </g>
        <svg viewBox="0 0 15 15" width="100%" height="30px" preserveAspectRatio="xMaxYMin meet">
         <g id="arrow_out" transform="scale(0.3 0.3)">
          <a xlink:href="fvb_8h__incl_org.svg" target="_base">
           <rect id="button" ry="5" rx="5" y="6" x="6" height="38" width="38"
                fill="#f2f5e9" fill-opacity="0.5" stroke="#606060" stroke-width="1.0"/>
           <path id="arrow"
             d="M 11.500037,31.436501 C 11.940474,20.09759 22.043105,11.32322 32.158766,21.979434 L 37.068811,17.246167 C 37.068811,17.246167 37.088388,32 37.088388,32 L 22.160133,31.978069 C 22.160133,31.978069 26.997745,27.140456 26.997745,27.140456 C 18.528582,18.264221 13.291696,25.230495 11.500037,31.436501 z"
             style="fill:#404040;"/>
          </a>
         </g>
        </svg>
</svg>
