<?xml version="1.0" encoding="UTF-8" standalone="no"?>
<!DOCTYPE svg PUBLIC "-//W3C//DTD SVG 1.1//EN"
 "http://www.w3.org/Graphics/SVG/1.1/DTD/svg11.dtd">
<!-- Generated by graphviz version 7.0.5 (20221223.1930)
 -->
<!-- Title: include/TRK_MINNOW_DOLPHIN/Os/dolphin/GDEV_Stubs.h Pages: 1 -->
<!--zoomable 434 -->
<svg id="main" version="1.1" xmlns="http://www.w3.org/2000/svg" xmlns:xlink="http://www.w3.org/1999/xlink" xml:space="preserve" onload="init(evt)">
<style type="text/css"><![CDATA[
.edge:hover path { stroke: red; }
.edge:hover polygon { stroke: red; fill: red; }
]]></style>
<script type="text/javascript"><![CDATA[
var edges = document.getElementsByTagName('g');
if (edges && edges.length) {
  for (var i=0;i<edges.length;i++) {
    if (edges[i].id.substr(0,4)=='edge') {
      edges[i].setAttribute('class','edge');
    }
  }
}
]]></script>
        <defs>
                <circle id="rim" cx="0" cy="0" r="7"/>
                <circle id="rim2" cx="0" cy="0" r="3.5"/>
                <g id="zoomPlus">
                        <use xlink:href="#rim" fill="#404040">
                                <set attributeName="fill" to="#808080" begin="zoomplus.mouseover" end="zoomplus.mouseout"/>
                        </use>
                        <path d="M-4,0h8M0,-4v8" fill="none" stroke="white" stroke-width="1.5" pointer-events="none"/>
                </g>
                <g id="zoomMin">
                        <use xlink:href="#rim" fill="#404040">
                                <set attributeName="fill" to="#808080" begin="zoomminus.mouseover" end="zoomminus.mouseout"/>
                        </use>
                        <path d="M-4,0h8" fill="none" stroke="white" stroke-width="1.5" pointer-events="none"/>
                </g>
                <g id="dirArrow">
                        <path fill="none" stroke="white" stroke-width="1.5" d="M0,-3.0v7 M-2.5,-0.5L0,-3.0L2.5,-0.5"/>
                </g>
               <g id="resetDef">
                       <use xlink:href="#rim2" fill="#404040">
                               <set attributeName="fill" to="#808080" begin="reset.mouseover" end="reset.mouseout"/>
                       </use>
               </g>
        </defs>

<script type="text/javascript">
var viewWidth = 1691;
var viewHeight = 434;
var sectionId = 'dynsection-0';
</script>
<script xlink:href="svgpan.js"/>
<svg id="graph" class="graph">
<g id="viewport">
<title>include/TRK_MINNOW_DOLPHIN/Os/dolphin/GDEV_Stubs.h</title>
<!-- Node1 -->
<g id="node1" class="node">
<title>Node1</title>
<g id="a_node1"><a xlink:title=" ">
<polygon fill="#999999" stroke="#666666" points="938,-426 820,-426 820,-385 938,-385 938,-426"/>
<text text-anchor="start" x="828" y="-414" font-family="Helvetica,sans-Serif" font-size="10.00">include/TRK_MINNOW</text>
<text text-anchor="start" x="828" y="-403" font-family="Helvetica,sans-Serif" font-size="10.00">_DOLPHIN/Os/dolphin</text>
<text text-anchor="middle" x="879" y="-392" font-family="Helvetica,sans-Serif" font-size="10.00">/GDEV_Stubs.h</text>
</a>
</g>
</g>
<!-- Node2 -->
<g id="node2" class="node">
<title>Node2</title>
<g id="a_node2"><a xlink:href="os_8h.html" target="_top" xlink:title=" ">
<polygon fill="white" stroke="#666666" points="866,-294 798,-294 798,-275 866,-275 866,-294"/>
<text text-anchor="middle" x="832" y="-282" font-family="Helvetica,sans-Serif" font-size="10.00">dolphin/os.h</text>
</a>
</g>
</g>
<!-- Node1&#45;&gt;Node2 -->
<g id="edge1" class="edge">
<title>Node1&#45;&gt;Node2</title>
<path fill="none" stroke="#63b8ff" d="M867.88,-384.6C862.35,-374.19 855.83,-361.13 851,-349 845.32,-334.73 840.39,-318.07 836.98,-305.4"/>
<polygon fill="#63b8ff" stroke="#63b8ff" points="840.38,-304.56 834.49,-295.76 833.61,-306.32 840.38,-304.56"/>
</g>
<!-- Node28 -->
<g id="node28" class="node">
<title>Node28</title>
<g id="a_node28"><a xlink:href="AmcExi2Stubs_8h.html" target="_top" xlink:title=" ">
<polygon fill="white" stroke="#666666" points="994,-349 860,-349 860,-330 994,-330 994,-349"/>
<text text-anchor="middle" x="927" y="-337" font-family="Helvetica,sans-Serif" font-size="10.00">amcstubs/AmcExi2Stubs.h</text>
</a>
</g>
</g>
<!-- Node1&#45;&gt;Node28 -->
<g id="edge49" class="edge">
<title>Node1&#45;&gt;Node28</title>
<path fill="none" stroke="#63b8ff" d="M893.92,-384.6C900.26,-376.15 907.59,-366.38 913.74,-358.18"/>
<polygon fill="#63b8ff" stroke="#63b8ff" points="916.39,-360.47 919.59,-350.37 910.79,-356.27 916.39,-360.47"/>
</g>
<!-- Node3 -->
<g id="node3" class="node">
<title>Node3</title>
<g id="a_node3"><a xlink:href="____va__arg_8h.html" target="_top" xlink:title=" ">
<polygon fill="white" stroke="#666666" points="1645,-129 1581,-129 1581,-110 1645,-110 1645,-129"/>
<text text-anchor="middle" x="1613" y="-117" font-family="Helvetica,sans-Serif" font-size="10.00">__va_arg.h</text>
</a>
</g>
</g>
<!-- Node2&#45;&gt;Node3 -->
<g id="edge2" class="edge">
<title>Node2&#45;&gt;Node3</title>
<path fill="none" stroke="#63b8ff" d="M866.36,-282.88C1015.39,-280.01 1599.53,-267 1626,-239 1651.27,-212.28 1635.19,-165.55 1623,-139.47"/>
<polygon fill="#63b8ff" stroke="#63b8ff" points="1626.24,-138.14 1618.66,-130.74 1619.97,-141.25 1626.24,-138.14"/>
</g>
<!-- Node6 -->
<g id="node6" class="node">
<title>Node6</title>
<g id="a_node6"><a xlink:href="dvd_8h.html" target="_top" xlink:title=" ">
<polygon fill="white" stroke="#666666" points="74,-129 0,-129 0,-110 74,-110 74,-129"/>
<text text-anchor="middle" x="37" y="-117" font-family="Helvetica,sans-Serif" font-size="10.00">dolphin/dvd.h</text>
</a>
</g>
</g>
<!-- Node2&#45;&gt;Node6 -->
<g id="edge5" class="edge">
<title>Node2&#45;&gt;Node6</title>
<path fill="none" stroke="#63b8ff" d="M797.85,-283.74C675.34,-284.21 258.67,-282.53 134,-239 93.61,-224.9 79.84,-218.83 55,-184 45.82,-171.13 41.31,-153.7 39.1,-140.35"/>
<polygon fill="#63b8ff" stroke="#63b8ff" points="42.59,-140.05 37.81,-130.59 35.65,-140.97 42.59,-140.05"/>
</g>
<!-- Node7 -->
<g id="node7" class="node">
<title>Node7</title>
<g id="a_node7"><a xlink:href="OSAlarm_8h.html" target="_top" xlink:title=" ">
<polygon fill="white" stroke="#666666" points="276.5,-239 165.5,-239 165.5,-220 276.5,-220 276.5,-239"/>
<text text-anchor="middle" x="221" y="-227" font-family="Helvetica,sans-Serif" font-size="10.00">dolphin/os/OSAlarm.h</text>
</a>
</g>
</g>
<!-- Node2&#45;&gt;Node7 -->
<g id="edge7" class="edge">
<title>Node2&#45;&gt;Node7</title>
<path fill="none" stroke="#63b8ff" d="M797.78,-281.15C712.24,-275.17 482.26,-258.47 291,-239 289.99,-238.9 288.97,-238.79 287.94,-238.68"/>
<polygon fill="#63b8ff" stroke="#63b8ff" points="288.59,-235.23 278.27,-237.63 287.83,-242.19 288.59,-235.23"/>
</g>
<!-- Node8 -->
<g id="node8" class="node">
<title>Node8</title>
<g id="a_node8"><a xlink:href="OSError_8h.html" target="_top" xlink:title=" ">
<polygon fill="white" stroke="#666666" points="170,-184 64,-184 64,-165 170,-165 170,-184"/>
<text text-anchor="middle" x="117" y="-172" font-family="Helvetica,sans-Serif" font-size="10.00">dolphin/os/OSError.h</text>
</a>
</g>
</g>
<!-- Node2&#45;&gt;Node8 -->
<g id="edge21" class="edge">
<title>Node2&#45;&gt;Node8</title>
<path fill="none" stroke="#63b8ff" d="M797.62,-283.07C667.69,-281.2 211.2,-272.3 156,-239 139.74,-229.19 129.31,-209.76 123.36,-194.96"/>
<polygon fill="#63b8ff" stroke="#63b8ff" points="126.74,-194 120.05,-185.78 120.15,-196.38 126.74,-194"/>
</g>
<!-- Node9 -->
<g id="node9" class="node">
<title>Node9</title>
<g id="a_node9"><a xlink:href="OSTime_8h.html" target="_top" xlink:title=" ">
<polygon fill="white" stroke="#666666" points="295.5,-184 188.5,-184 188.5,-165 295.5,-165 295.5,-184"/>
<text text-anchor="middle" x="242" y="-172" font-family="Helvetica,sans-Serif" font-size="10.00">dolphin/os/OSTime.h</text>
</a>
</g>
</g>
<!-- Node2&#45;&gt;Node9 -->
<g id="edge48" class="edge">
<title>Node2&#45;&gt;Node9</title>
<path fill="none" stroke="#63b8ff" d="M797.8,-282.13C703.05,-278.06 438.74,-264.66 356,-239 321.26,-228.22 285.25,-205.98 263.23,-190.9"/>
<polygon fill="#63b8ff" stroke="#63b8ff" points="265.32,-188.09 255.12,-185.22 261.3,-193.82 265.32,-188.09"/>
</g>
<!-- Node10 -->
<g id="node10" class="node">
<title>Node10</title>
<g id="a_node10"><a xlink:href="OSAlloc_8h.html" target="_top" xlink:title=" ">
<polygon fill="white" stroke="#666666" points="420.5,-184 313.5,-184 313.5,-165 420.5,-165 420.5,-184"/>
<text text-anchor="middle" x="367" y="-172" font-family="Helvetica,sans-Serif" font-size="10.00">dolphin/os/OSAlloc.h</text>
</a>
</g>
</g>
<!-- Node2&#45;&gt;Node10 -->
<g id="edge12" class="edge">
<title>Node2&#45;&gt;Node10</title>
<path fill="none" stroke="#63b8ff" d="M797.71,-282.82C695.12,-280.43 395.87,-270.77 367,-239 356.45,-227.39 357.63,-209.06 360.76,-195.08"/>
<polygon fill="#63b8ff" stroke="#63b8ff" points="364.07,-196.21 363.36,-185.64 357.33,-194.35 364.07,-196.21"/>
</g>
<!-- Node11 -->
<g id="node11" class="node">
<title>Node11</title>
<g id="a_node11"><a xlink:href="OSArena_8h.html" target="_top" xlink:title=" ">
<polygon fill="white" stroke="#666666" points="579.5,-129 468.5,-129 468.5,-110 579.5,-110 579.5,-129"/>
<text text-anchor="middle" x="524" y="-117" font-family="Helvetica,sans-Serif" font-size="10.00">dolphin/os/OSArena.h</text>
</a>
</g>
</g>
<!-- Node2&#45;&gt;Node11 -->
<g id="edge14" class="edge">
<title>Node2&#45;&gt;Node11</title>
<path fill="none" stroke="#63b8ff" d="M797.74,-282.55C700.23,-279.51 426.52,-268.39 400,-239 394.34,-232.73 396.36,-227.62 400,-220 410.72,-197.54 467.88,-157.34 500.72,-135.55"/>
<polygon fill="#63b8ff" stroke="#63b8ff" points="502.35,-138.66 508.79,-130.25 498.51,-132.81 502.35,-138.66"/>
</g>
<!-- Node12 -->
<g id="node12" class="node">
<title>Node12</title>
<g id="a_node12"><a xlink:href="OSAudioSystem_8h.html" target="_top" xlink:title=" ">
<polygon fill="white" stroke="#666666" points="552.5,-239 409.5,-239 409.5,-220 552.5,-220 552.5,-239"/>
<text text-anchor="middle" x="481" y="-227" font-family="Helvetica,sans-Serif" font-size="10.00">dolphin/os/OSAudioSystem.h</text>
</a>
</g>
</g>
<!-- Node2&#45;&gt;Node12 -->
<g id="edge16" class="edge">
<title>Node2&#45;&gt;Node12</title>
<path fill="none" stroke="#63b8ff" d="M797.71,-278.32C740.93,-269.75 626.29,-252.44 551.63,-241.17"/>
<polygon fill="#63b8ff" stroke="#63b8ff" points="552.37,-237.74 541.96,-239.71 551.33,-244.66 552.37,-237.74"/>
</g>
<!-- Node13 -->
<g id="node13" class="node">
<title>Node13</title>
<g id="a_node13"><a xlink:href="OSCache_8h.html" target="_top" xlink:title=" ">
<polygon fill="white" stroke="#666666" points="590.5,-184 477.5,-184 477.5,-165 590.5,-165 590.5,-184"/>
<text text-anchor="middle" x="534" y="-172" font-family="Helvetica,sans-Serif" font-size="10.00">dolphin/os/OSCache.h</text>
</a>
</g>
</g>
<!-- Node2&#45;&gt;Node13 -->
<g id="edge17" class="edge">
<title>Node2&#45;&gt;Node13</title>
<path fill="none" stroke="#63b8ff" d="M797.89,-282.4C751.84,-279.71 668.28,-270.48 605,-239 582.41,-227.76 561.53,-207.36 548.34,-192.71"/>
<polygon fill="#63b8ff" stroke="#63b8ff" points="551.03,-190.48 541.84,-185.22 545.74,-195.06 551.03,-190.48"/>
</g>
<!-- Node14 -->
<g id="node14" class="node">
<title>Node14</title>
<g id="a_node14"><a xlink:href="OSContext_8h.html" target="_top" xlink:title=" ">
<polygon fill="white" stroke="#666666" points="935.5,-129 816.5,-129 816.5,-110 935.5,-110 935.5,-129"/>
<text text-anchor="middle" x="876" y="-117" font-family="Helvetica,sans-Serif" font-size="10.00">dolphin/os/OSContext.h</text>
</a>
</g>
</g>
<!-- Node2&#45;&gt;Node14 -->
<g id="edge19" class="edge">
<title>Node2&#45;&gt;Node14</title>
<path fill="none" stroke="#63b8ff" d="M797.71,-279.06C756.21,-272.06 694.18,-255.43 714,-220 721.57,-206.46 805.39,-159.15 849.38,-134.97"/>
<polygon fill="#63b8ff" stroke="#63b8ff" points="850.97,-138.09 858.06,-130.22 847.61,-131.95 850.97,-138.09"/>
</g>
<!-- Node15 -->
<g id="node15" class="node">
<title>Node15</title>
<g id="a_node15"><a xlink:href="OSExec_8h.html" target="_top" xlink:title=" ">
<polygon fill="white" stroke="#666666" points="756.5,-129 649.5,-129 649.5,-110 756.5,-110 756.5,-129"/>
<text text-anchor="middle" x="703" y="-117" font-family="Helvetica,sans-Serif" font-size="10.00">dolphin/os/OSExec.h</text>
</a>
</g>
</g>
<!-- Node2&#45;&gt;Node15 -->
<g id="edge22" class="edge">
<title>Node2&#45;&gt;Node15</title>
<path fill="none" stroke="#63b8ff" d="M797.55,-280.99C763.06,-276.95 709.94,-266.42 673,-239 643.79,-217.32 621.03,-197.18 638,-165 644.93,-151.86 657.67,-141.86 670.06,-134.7"/>
<polygon fill="#63b8ff" stroke="#63b8ff" points="671.67,-137.81 678.9,-130.06 668.42,-131.61 671.67,-137.81"/>
</g>
<!-- Node16 -->
<g id="node16" class="node">
<title>Node16</title>
<g id="a_node16"><a xlink:href="OSFont_8h.html" target="_top" xlink:title=" ">
<polygon fill="white" stroke="#666666" points="752.5,-184 647.5,-184 647.5,-165 752.5,-165 752.5,-184"/>
<text text-anchor="middle" x="700" y="-172" font-family="Helvetica,sans-Serif" font-size="10.00">dolphin/os/OSFont.h</text>
</a>
</g>
</g>
<!-- Node2&#45;&gt;Node16 -->
<g id="edge24" class="edge">
<title>Node2&#45;&gt;Node16</title>
<path fill="none" stroke="#63b8ff" d="M797.59,-284.29C761.93,-283.01 707.76,-274.79 681,-239 671.01,-225.63 678.43,-207.03 686.75,-193.42"/>
<polygon fill="#63b8ff" stroke="#63b8ff" points="689.47,-195.65 692.16,-185.4 683.67,-191.73 689.47,-195.65"/>
</g>
<!-- Node17 -->
<g id="node17" class="node">
<title>Node17</title>
<g id="a_node17"><a xlink:href="OSInterrupt_8h.html" target="_top" xlink:title=" ">
<polygon fill="white" stroke="#666666" points="1096,-184 974,-184 974,-165 1096,-165 1096,-184"/>
<text text-anchor="middle" x="1035" y="-172" font-family="Helvetica,sans-Serif" font-size="10.00">dolphin/os/OSInterrupt.h</text>
</a>
</g>
</g>
<!-- Node2&#45;&gt;Node17 -->
<g id="edge26" class="edge">
<title>Node2&#45;&gt;Node17</title>
<path fill="none" stroke="#63b8ff" d="M866.34,-280.25C916.14,-274.81 1004.78,-262.09 1026,-239 1036.61,-227.45 1038.27,-209.38 1037.62,-195.47"/>
<polygon fill="#63b8ff" stroke="#63b8ff" points="1041.11,-195.3 1036.7,-185.67 1034.15,-195.95 1041.11,-195.3"/>
</g>
<!-- Node18 -->
<g id="node18" class="node">
<title>Node18</title>
<g id="a_node18"><a xlink:href="OSLink_8h.html" target="_top" xlink:title=" ">
<polygon fill="white" stroke="#666666" points="1256,-129 1152,-129 1152,-110 1256,-110 1256,-129"/>
<text text-anchor="middle" x="1204" y="-117" font-family="Helvetica,sans-Serif" font-size="10.00">dolphin/os/OSLink.h</text>
</a>
</g>
</g>
<!-- Node2&#45;&gt;Node18 -->
<g id="edge28" class="edge">
<title>Node2&#45;&gt;Node18</title>
<path fill="none" stroke="#63b8ff" d="M866.48,-283.16C976.75,-281.73 1315.48,-274.45 1348,-239 1353.71,-232.78 1352.11,-227.38 1348,-220 1333.25,-193.49 1315.11,-201.02 1290,-184 1267.14,-168.5 1241.8,-149.57 1224.59,-136.43"/>
<polygon fill="#63b8ff" stroke="#63b8ff" points="1226.73,-133.66 1216.67,-130.35 1222.47,-139.22 1226.73,-133.66"/>
</g>
<!-- Node19 -->
<g id="node19" class="node">
<title>Node19</title>
<g id="a_node19"><a xlink:href="OSMemory_8h.html" target="_top" xlink:title=" ">
<polygon fill="white" stroke="#666666" points="1193,-239 1073,-239 1073,-220 1193,-220 1193,-239"/>
<text text-anchor="middle" x="1133" y="-227" font-family="Helvetica,sans-Serif" font-size="10.00">dolphin/os/OSMemory.h</text>
</a>
</g>
</g>
<!-- Node2&#45;&gt;Node19 -->
<g id="edge30" class="edge">
<title>Node2&#45;&gt;Node19</title>
<path fill="none" stroke="#63b8ff" d="M866.24,-277.47C915.92,-268.72 1008.82,-252.37 1070.8,-241.45"/>
<polygon fill="#63b8ff" stroke="#63b8ff" points="1071.27,-244.92 1080.51,-239.74 1070.05,-238.03 1071.27,-244.92"/>
</g>
<!-- Node20 -->
<g id="node20" class="node">
<title>Node20</title>
<g id="a_node20"><a xlink:href="OSMessage_8h.html" target="_top" xlink:title=" ">
<polygon fill="white" stroke="#666666" points="848.5,-239 723.5,-239 723.5,-220 848.5,-220 848.5,-239"/>
<text text-anchor="middle" x="786" y="-227" font-family="Helvetica,sans-Serif" font-size="10.00">dolphin/os/OSMessage.h</text>
</a>
</g>
</g>
<!-- Node2&#45;&gt;Node20 -->
<g id="edge32" class="edge">
<title>Node2&#45;&gt;Node20</title>
<path fill="none" stroke="#63b8ff" d="M824.4,-274.75C818.12,-267.5 808.99,-256.98 801.2,-248.02"/>
<polygon fill="#63b8ff" stroke="#63b8ff" points="803.95,-245.84 794.75,-240.59 798.66,-250.43 803.95,-245.84"/>
</g>
<!-- Node21 -->
<g id="node21" class="node">
<title>Node21</title>
<g id="a_node21"><a xlink:href="OSThread_8h.html" target="_top" xlink:title=" ">
<polygon fill="white" stroke="#666666" points="935,-184 819,-184 819,-165 935,-165 935,-184"/>
<text text-anchor="middle" x="877" y="-172" font-family="Helvetica,sans-Serif" font-size="10.00">dolphin/os/OSThread.h</text>
</a>
</g>
</g>
<!-- Node2&#45;&gt;Node21 -->
<g id="edge47" class="edge">
<title>Node2&#45;&gt;Node21</title>
<path fill="none" stroke="#63b8ff" d="M837.74,-274.58C843.22,-265.79 851.44,-251.85 857,-239 863.19,-224.69 868.41,-207.83 871.96,-195.08"/>
<polygon fill="#63b8ff" stroke="#63b8ff" points="875.25,-196.36 874.45,-185.8 868.48,-194.55 875.25,-196.36"/>
</g>
<!-- Node22 -->
<g id="node22" class="node">
<title>Node22</title>
<g id="a_node22"><a xlink:href="OSMutex_8h.html" target="_top" xlink:title=" ">
<polygon fill="white" stroke="#666666" points="1017,-239 905,-239 905,-220 1017,-220 1017,-239"/>
<text text-anchor="middle" x="961" y="-227" font-family="Helvetica,sans-Serif" font-size="10.00">dolphin/os/OSMutex.h</text>
</a>
</g>
</g>
<!-- Node2&#45;&gt;Node22 -->
<g id="edge35" class="edge">
<title>Node2&#45;&gt;Node22</title>
<path fill="none" stroke="#63b8ff" d="M853.88,-274.51C874.49,-266.04 905.59,-253.27 928.98,-243.66"/>
<polygon fill="#63b8ff" stroke="#63b8ff" points="930.12,-246.97 938.04,-239.93 927.46,-240.5 930.12,-246.97"/>
</g>
<!-- Node23 -->
<g id="node23" class="node">
<title>Node23</title>
<g id="a_node23"><a xlink:href="OSReboot_8h.html" target="_top" xlink:title=" ">
<polygon fill="white" stroke="#666666" points="1415,-184 1299,-184 1299,-165 1415,-165 1415,-184"/>
<text text-anchor="middle" x="1357" y="-172" font-family="Helvetica,sans-Serif" font-size="10.00">dolphin/os/OSReboot.h</text>
</a>
</g>
</g>
<!-- Node2&#45;&gt;Node23 -->
<g id="edge37" class="edge">
<title>Node2&#45;&gt;Node23</title>
<path fill="none" stroke="#63b8ff" d="M866.25,-283.35C980.92,-282.52 1346.07,-276.87 1381,-239 1392.81,-226.19 1382.97,-206.99 1372.55,-193.06"/>
<polygon fill="#63b8ff" stroke="#63b8ff" points="1375.48,-191.12 1366.46,-185.57 1370.06,-195.54 1375.48,-191.12"/>
</g>
<!-- Node24 -->
<g id="node24" class="node">
<title>Node24</title>
<g id="a_node24"><a xlink:href="OSReset_8h.html" target="_top" xlink:title=" ">
<polygon fill="white" stroke="#666666" points="1423.5,-129 1312.5,-129 1312.5,-110 1423.5,-110 1423.5,-129"/>
<text text-anchor="middle" x="1368" y="-117" font-family="Helvetica,sans-Serif" font-size="10.00">dolphin/os/OSReset.h</text>
</a>
</g>
</g>
<!-- Node2&#45;&gt;Node24 -->
<g id="edge39" class="edge">
<title>Node2&#45;&gt;Node24</title>
<path fill="none" stroke="#63b8ff" d="M866.25,-282.76C981.89,-279.98 1353.09,-268.81 1397,-239 1425.96,-219.33 1439.22,-196.53 1424,-165 1418.05,-152.67 1406.84,-142.71 1396,-135.36"/>
<polygon fill="#63b8ff" stroke="#63b8ff" points="1397.94,-132.45 1387.6,-130.15 1394.25,-138.39 1397.94,-132.45"/>
</g>
<!-- Node25 -->
<g id="node25" class="node">
<title>Node25</title>
<g id="a_node25"><a xlink:href="OSResetSW_8h.html" target="_top" xlink:title=" ">
<polygon fill="white" stroke="#666666" points="1338.5,-239 1211.5,-239 1211.5,-220 1338.5,-220 1338.5,-239"/>
<text text-anchor="middle" x="1275" y="-227" font-family="Helvetica,sans-Serif" font-size="10.00">dolphin/os/OSResetSW.h</text>
</a>
</g>
</g>
<!-- Node2&#45;&gt;Node25 -->
<g id="edge41" class="edge">
<title>Node2&#45;&gt;Node25</title>
<path fill="none" stroke="#63b8ff" d="M866.39,-279.39C937.67,-270.86 1102.94,-251.08 1200.05,-239.47"/>
<polygon fill="#63b8ff" stroke="#63b8ff" points="1200.24,-242.97 1209.75,-238.31 1199.41,-236.02 1200.24,-242.97"/>
</g>
<!-- Node26 -->
<g id="node26" class="node">
<title>Node26</title>
<g id="a_node26"><a xlink:href="OSRtc_8h.html" target="_top" xlink:title=" ">
<polygon fill="white" stroke="#666666" points="1542.5,-129 1441.5,-129 1441.5,-110 1542.5,-110 1542.5,-129"/>
<text text-anchor="middle" x="1492" y="-117" font-family="Helvetica,sans-Serif" font-size="10.00">dolphin/os/OSRtc.h</text>
</a>
</g>
</g>
<!-- Node2&#45;&gt;Node26 -->
<g id="edge44" class="edge">
<title>Node2&#45;&gt;Node26</title>
<path fill="none" stroke="#63b8ff" d="M866.37,-282.73C985.17,-279.83 1373.77,-268.16 1421,-239 1457.45,-216.49 1477.6,-167.69 1486.45,-140.26"/>
<polygon fill="#63b8ff" stroke="#63b8ff" points="1489.78,-141.36 1489.31,-130.77 1483.07,-139.34 1489.78,-141.36"/>
</g>
<!-- Node27 -->
<g id="node27" class="node">
<title>Node27</title>
<g id="a_node27"><a xlink:href="OSSync_8h.html" target="_top" xlink:title=" ">
<polygon fill="white" stroke="#666666" points="1616.5,-239 1509.5,-239 1509.5,-220 1616.5,-220 1616.5,-239"/>
<text text-anchor="middle" x="1563" y="-227" font-family="Helvetica,sans-Serif" font-size="10.00">dolphin/os/OSSync.h</text>
</a>
</g>
</g>
<!-- Node2&#45;&gt;Node27 -->
<g id="edge46" class="edge">
<title>Node2&#45;&gt;Node27</title>
<path fill="none" stroke="#63b8ff" d="M866.22,-281.9C964.28,-277.15 1254.71,-262.06 1495,-239 1496.01,-238.9 1497.03,-238.8 1498.05,-238.7"/>
<polygon fill="#63b8ff" stroke="#63b8ff" points="1498.13,-242.21 1507.7,-237.67 1497.39,-235.25 1498.13,-242.21"/>
</g>
<!-- Node4 -->
<g id="node4" class="node">
<title>Node4</title>
<g id="a_node4"><a xlink:href="types_8h.html" target="_top" xlink:title=" ">
<polygon fill="white" stroke="#666666" points="916.5,-74 835.5,-74 835.5,-55 916.5,-55 916.5,-74"/>
<text text-anchor="middle" x="876" y="-62" font-family="Helvetica,sans-Serif" font-size="10.00">dolphin/types.h</text>
</a>
</g>
</g>
<!-- Node3&#45;&gt;Node4 -->
<g id="edge3" class="edge">
<title>Node3&#45;&gt;Node4</title>
<path fill="none" stroke="#63b8ff" d="M1580.76,-113.56C1571.49,-112.26 1561.36,-110.96 1552,-110 1320.06,-86.24 1041.98,-72.59 928.3,-67.65"/>
<polygon fill="#63b8ff" stroke="#63b8ff" points="928.51,-64.15 918.37,-67.22 928.21,-71.14 928.51,-64.15"/>
</g>
<!-- Node5 -->
<g id="node5" class="node">
<title>Node5</title>
<g id="a_node5"><a xlink:href="stddef_8h.html" target="_top" xlink:title=" ">
<polygon fill="white" stroke="#666666" points="901.5,-19 850.5,-19 850.5,0 901.5,0 901.5,-19"/>
<text text-anchor="middle" x="876" y="-7" font-family="Helvetica,sans-Serif" font-size="10.00">stddef.h</text>
</a>
</g>
</g>
<!-- Node4&#45;&gt;Node5 -->
<g id="edge4" class="edge">
<title>Node4&#45;&gt;Node5</title>
<path fill="none" stroke="#63b8ff" d="M876,-54.75C876,-48.27 876,-39.16 876,-30.9"/>
<polygon fill="#63b8ff" stroke="#63b8ff" points="879.5,-30.96 876,-20.96 872.5,-30.96 879.5,-30.96"/>
</g>
<!-- Node6&#45;&gt;Node4 -->
<g id="edge6" class="edge">
<title>Node6&#45;&gt;Node4</title>
<path fill="none" stroke="#63b8ff" d="M74.41,-116.14C209.05,-107.63 669.18,-78.56 824.4,-68.76"/>
<polygon fill="#63b8ff" stroke="#63b8ff" points="824.2,-72.28 833.96,-68.16 823.75,-65.29 824.2,-72.28"/>
</g>
<!-- Node7&#45;&gt;Node8 -->
<g id="edge8" class="edge">
<title>Node7&#45;&gt;Node8</title>
<path fill="none" stroke="#63b8ff" d="M203.36,-219.51C187.27,-211.31 163.25,-199.07 144.63,-189.58"/>
<polygon fill="#63b8ff" stroke="#63b8ff" points="146.23,-186.47 135.73,-185.05 143.05,-192.7 146.23,-186.47"/>
</g>
<!-- Node7&#45;&gt;Node9 -->
<g id="edge10" class="edge">
<title>Node7&#45;&gt;Node9</title>
<path fill="none" stroke="#63b8ff" d="M224.47,-219.75C227.13,-213.04 230.9,-203.52 234.26,-195.02"/>
<polygon fill="#63b8ff" stroke="#63b8ff" points="237.47,-196.44 237.9,-185.85 230.96,-193.86 237.47,-196.44"/>
</g>
<!-- Node8&#45;&gt;Node4 -->
<g id="edge9" class="edge">
<title>Node8&#45;&gt;Node4</title>
<path fill="none" stroke="#63b8ff" d="M143.78,-164.57C187.04,-150.54 275.21,-123.52 352,-110 523.12,-79.87 729.41,-69.94 824,-66.83"/>
<polygon fill="#63b8ff" stroke="#63b8ff" points="823.85,-70.34 833.73,-66.53 823.63,-63.34 823.85,-70.34"/>
</g>
<!-- Node9&#45;&gt;Node4 -->
<g id="edge11" class="edge">
<title>Node9&#45;&gt;Node4</title>
<path fill="none" stroke="#63b8ff" d="M261.81,-164.61C294.18,-150.51 360.76,-123.24 420,-110 563.83,-77.84 738.33,-68.92 823.76,-66.45"/>
<polygon fill="#63b8ff" stroke="#63b8ff" points="823.8,-69.95 833.7,-66.18 823.61,-62.95 823.8,-69.95"/>
</g>
<!-- Node10&#45;&gt;Node4 -->
<g id="edge13" class="edge">
<title>Node10&#45;&gt;Node4</title>
<path fill="none" stroke="#63b8ff" d="M376.28,-164.67C391.93,-150.39 425.16,-122.55 459,-110 524.68,-85.64 727.23,-72.76 823.78,-67.86"/>
<polygon fill="#63b8ff" stroke="#63b8ff" points="823.68,-71.37 833.5,-67.38 823.34,-64.38 823.68,-71.37"/>
</g>
<!-- Node11&#45;&gt;Node4 -->
<g id="edge15" class="edge">
<title>Node11&#45;&gt;Node4</title>
<path fill="none" stroke="#63b8ff" d="M579.78,-110.1C646.8,-100.01 758.38,-83.21 823.78,-73.36"/>
<polygon fill="#63b8ff" stroke="#63b8ff" points="824.18,-76.84 833.55,-71.89 823.14,-69.92 824.18,-76.84"/>
</g>
<!-- Node13&#45;&gt;Node4 -->
<g id="edge18" class="edge">
<title>Node13&#45;&gt;Node4</title>
<path fill="none" stroke="#63b8ff" d="M545.68,-164.58C564.48,-150.69 603.1,-124.02 640,-110 700.8,-86.9 775.13,-75.43 823.93,-69.99"/>
<polygon fill="#63b8ff" stroke="#63b8ff" points="824.07,-73.5 833.65,-68.96 823.33,-66.54 824.07,-73.5"/>
</g>
<!-- Node14&#45;&gt;Node4 -->
<g id="edge20" class="edge">
<title>Node14&#45;&gt;Node4</title>
<path fill="none" stroke="#63b8ff" d="M876,-109.75C876,-103.27 876,-94.16 876,-85.9"/>
<polygon fill="#63b8ff" stroke="#63b8ff" points="879.5,-85.96 876,-75.96 872.5,-85.96 879.5,-85.96"/>
</g>
<!-- Node15&#45;&gt;Node4 -->
<g id="edge23" class="edge">
<title>Node15&#45;&gt;Node4</title>
<path fill="none" stroke="#63b8ff" d="M732.35,-109.51C760.89,-100.76 804.46,-87.42 836.14,-77.71"/>
<polygon fill="#63b8ff" stroke="#63b8ff" points="836.81,-81.17 845.35,-74.89 834.76,-74.47 836.81,-81.17"/>
</g>
<!-- Node16&#45;&gt;Node4 -->
<g id="edge25" class="edge">
<title>Node16&#45;&gt;Node4</title>
<path fill="none" stroke="#63b8ff" d="M714.4,-164.66C744.57,-146.15 814.67,-103.13 851.85,-80.32"/>
<polygon fill="#63b8ff" stroke="#63b8ff" points="853.42,-83.47 860.11,-75.25 849.75,-77.5 853.42,-83.47"/>
</g>
<!-- Node17&#45;&gt;Node4 -->
<g id="edge27" class="edge">
<title>Node17&#45;&gt;Node4</title>
<path fill="none" stroke="#63b8ff" d="M1022.88,-164.71C1005.7,-152.3 973.22,-129.04 945,-110 930.03,-99.9 912.98,-88.89 899.57,-80.36"/>
<polygon fill="#63b8ff" stroke="#63b8ff" points="901.72,-77.58 891.4,-75.18 897.97,-83.49 901.72,-77.58"/>
</g>
<!-- Node18&#45;&gt;Node4 -->
<g id="edge29" class="edge">
<title>Node18&#45;&gt;Node4</title>
<path fill="none" stroke="#63b8ff" d="M1151.66,-110.04C1090.33,-100.13 989.3,-83.81 928.07,-73.91"/>
<polygon fill="#63b8ff" stroke="#63b8ff" points="928.68,-70.47 918.25,-72.33 927.56,-77.38 928.68,-70.47"/>
</g>
<!-- Node19&#45;&gt;Node17 -->
<g id="edge31" class="edge">
<title>Node19&#45;&gt;Node17</title>
<path fill="none" stroke="#63b8ff" d="M1116.38,-219.51C1101.22,-211.31 1078.58,-199.07 1061.03,-189.58"/>
<polygon fill="#63b8ff" stroke="#63b8ff" points="1063.17,-186.76 1052.71,-185.08 1059.84,-192.91 1063.17,-186.76"/>
</g>
<!-- Node20&#45;&gt;Node21 -->
<g id="edge33" class="edge">
<title>Node20&#45;&gt;Node21</title>
<path fill="none" stroke="#63b8ff" d="M801.44,-219.51C815.25,-211.47 835.75,-199.53 851.91,-190.11"/>
<polygon fill="#63b8ff" stroke="#63b8ff" points="853.6,-193.18 860.48,-185.12 850.08,-187.13 853.6,-193.18"/>
</g>
<!-- Node21&#45;&gt;Node14 -->
<g id="edge34" class="edge">
<title>Node21&#45;&gt;Node14</title>
<path fill="none" stroke="#63b8ff" d="M876.83,-164.75C876.71,-158.27 876.54,-149.16 876.38,-140.9"/>
<polygon fill="#63b8ff" stroke="#63b8ff" points="879.89,-140.89 876.2,-130.96 872.89,-141.02 879.89,-140.89"/>
</g>
<!-- Node22&#45;&gt;Node21 -->
<g id="edge36" class="edge">
<title>Node22&#45;&gt;Node21</title>
<path fill="none" stroke="#63b8ff" d="M946.75,-219.51C934.12,-211.54 915.44,-199.75 900.59,-190.38"/>
<polygon fill="#63b8ff" stroke="#63b8ff" points="902.64,-187.54 892.32,-185.17 898.91,-193.46 902.64,-187.54"/>
</g>
<!-- Node23&#45;&gt;Node4 -->
<g id="edge38" class="edge">
<title>Node23&#45;&gt;Node4</title>
<path fill="none" stroke="#63b8ff" d="M1347.71,-164.7C1332.05,-150.46 1298.8,-122.68 1265,-110 1204.56,-87.32 1019.69,-73.8 928.29,-68.33"/>
<polygon fill="#63b8ff" stroke="#63b8ff" points="928.52,-64.84 918.34,-67.75 928.11,-71.83 928.52,-64.84"/>
</g>
<!-- Node24&#45;&gt;Node4 -->
<g id="edge40" class="edge">
<title>Node24&#45;&gt;Node4</title>
<path fill="none" stroke="#63b8ff" d="M1312.22,-111.65C1307.41,-111.08 1302.62,-110.52 1298,-110 1164.74,-94.88 1007.61,-78.76 927.94,-70.71"/>
<polygon fill="#63b8ff" stroke="#63b8ff" points="928.57,-67.26 918.27,-69.73 927.86,-74.22 928.57,-67.26"/>
</g>
<!-- Node25&#45;&gt;Node4 -->
<g id="edge42" class="edge">
<title>Node25&#45;&gt;Node4</title>
<path fill="none" stroke="#63b8ff" d="M1252.98,-219.5C1186.35,-192.29 986.69,-110.72 908.2,-78.65"/>
<polygon fill="#63b8ff" stroke="#63b8ff" points="909.93,-75.58 899.35,-75.04 907.29,-82.06 909.93,-75.58"/>
</g>
<!-- Node25&#45;&gt;Node17 -->
<g id="edge43" class="edge">
<title>Node25&#45;&gt;Node17</title>
<path fill="none" stroke="#63b8ff" d="M1234.29,-219.51C1193.57,-210.52 1130.79,-196.65 1086.6,-186.9"/>
<polygon fill="#63b8ff" stroke="#63b8ff" points="1087.51,-183.51 1076.99,-184.77 1086,-190.35 1087.51,-183.51"/>
</g>
<!-- Node26&#45;&gt;Node4 -->
<g id="edge45" class="edge">
<title>Node26&#45;&gt;Node4</title>
<path fill="none" stroke="#63b8ff" d="M1441.18,-110.97C1438.41,-110.63 1435.67,-110.3 1433,-110 1247.95,-89.3 1027.26,-74.62 928.41,-68.58"/>
<polygon fill="#63b8ff" stroke="#63b8ff" points="928.67,-65.09 918.48,-67.97 928.25,-72.07 928.67,-65.09"/>
</g>
<!-- Node28&#45;&gt;Node2 -->
<g id="edge50" class="edge">
<title>Node28&#45;&gt;Node2</title>
<path fill="none" stroke="#63b8ff" d="M910.88,-329.51C896.33,-321.39 874.66,-309.3 857.71,-299.85"/>
<polygon fill="#63b8ff" stroke="#63b8ff" points="859.64,-296.91 849.2,-295.1 856.23,-303.02 859.64,-296.91"/>
</g>
<!-- Node28&#45;&gt;Node4 -->
<g id="edge51" class="edge">
<title>Node28&#45;&gt;Node4</title>
<path fill="none" stroke="#63b8ff" d="M994.42,-335.91C1179.71,-327.89 1683,-299.73 1683,-230.5 1683,-230.5 1683,-230.5 1683,-173.5 1683,-142.47 1679.61,-127.51 1654,-110 1594.36,-69.22 1092.51,-65.51 927.99,-65.4"/>
<polygon fill="#63b8ff" stroke="#63b8ff" points="928.26,-61.9 918.26,-65.4 928.26,-68.9 928.26,-61.9"/>
</g>
</g>
</svg>
        <g id="navigator" transform="translate(0 0)" fill="#404254">
                <rect fill="#f2f5e9" fill-opacity="0.5" stroke="#606060" stroke-width=".5" x="0" y="0" width="60" height="60"/>
                <use id="zoomplus" xlink:href="#zoomPlus" x="17" y="9" onmousedown="handleZoom(evt,'in')"/>
                <use id="zoomminus" xlink:href="#zoomMin" x="42" y="9" onmousedown="handleZoom(evt,'out')"/>
                <use id="reset" xlink:href="#resetDef" x="30" y="36" onmousedown="handleReset()"/>
                <g id="arrowUp" xlink:href="#dirArrow" transform="translate(30 24)" onmousedown="handlePan(0,-1)">
                  <use xlink:href="#rim" fill="#404040">
                        <set attributeName="fill" to="#808080" begin="arrowUp.mouseover" end="arrowUp.mouseout"/>
                  </use>
                  <path fill="none" stroke="white" stroke-width="1.5" d="M0,-3.0v7 M-2.5,-0.5L0,-3.0L2.5,-0.5"/>
                </g>
                <g id="arrowRight" xlink:href="#dirArrow" transform="rotate(90) translate(36 -43)" onmousedown="handlePan(1,0)">
                  <use xlink:href="#rim" fill="#404040">
                        <set attributeName="fill" to="#808080" begin="arrowRight.mouseover" end="arrowRight.mouseout"/>
                  </use>
                  <path fill="none" stroke="white" stroke-width="1.5" d="M0,-3.0v7 M-2.5,-0.5L0,-3.0L2.5,-0.5"/>
                </g>
                <g id="arrowDown" xlink:href="#dirArrow" transform="rotate(180) translate(-30 -48)" onmousedown="handlePan(0,1)">
                  <use xlink:href="#rim" fill="#404040">
                        <set attributeName="fill" to="#808080" begin="arrowDown.mouseover" end="arrowDown.mouseout"/>
                  </use>
                  <path fill="none" stroke="white" stroke-width="1.5" d="M0,-3.0v7 M-2.5,-0.5L0,-3.0L2.5,-0.5"/>
                </g>
                <g id="arrowLeft" xlink:href="#dirArrow" transform="rotate(270) translate(-36 17)" onmousedown="handlePan(-1,0)">
                  <use xlink:href="#rim" fill="#404040">
                        <set attributeName="fill" to="#808080" begin="arrowLeft.mouseover" end="arrowLeft.mouseout"/>
                  </use>
                  <path fill="none" stroke="white" stroke-width="1.5" d="M0,-3.0v7 M-2.5,-0.5L0,-3.0L2.5,-0.5"/>
                </g>
        </g>
        <svg viewBox="0 0 15 15" width="100%" height="30px" preserveAspectRatio="xMaxYMin meet">
         <g id="arrow_out" transform="scale(0.3 0.3)">
          <a xlink:href="GDEV__Stubs_8h__incl_org.svg" target="_base">
           <rect id="button" ry="5" rx="5" y="6" x="6" height="38" width="38"
                fill="#f2f5e9" fill-opacity="0.5" stroke="#606060" stroke-width="1.0"/>
           <path id="arrow"
             d="M 11.500037,31.436501 C 11.940474,20.09759 22.043105,11.32322 32.158766,21.979434 L 37.068811,17.246167 C 37.068811,17.246167 37.088388,32 37.088388,32 L 22.160133,31.978069 C 22.160133,31.978069 26.997745,27.140456 26.997745,27.140456 C 18.528582,18.264221 13.291696,25.230495 11.500037,31.436501 z"
             style="fill:#404040;"/>
          </a>
         </g>
        </svg>
</svg>
