<?xml version="1.0" encoding="UTF-8" standalone="no"?>
<!DOCTYPE svg PUBLIC "-//W3C//DTD SVG 1.1//EN"
 "http://www.w3.org/Graphics/SVG/1.1/DTD/svg11.dtd">
<!-- Generated by graphviz version 7.0.5 (20221223.1930)
 -->
<!-- Title: libs/dolphin/gx/GXGeometry.c Pages: 1 -->
<!--zoomable 412 -->
<svg id="main" version="1.1" xmlns="http://www.w3.org/2000/svg" xmlns:xlink="http://www.w3.org/1999/xlink" xml:space="preserve" onload="init(evt)">
<style type="text/css"><![CDATA[
.edge:hover path { stroke: red; }
.edge:hover polygon { stroke: red; fill: red; }
]]></style>
<script type="text/javascript"><![CDATA[
var edges = document.getElementsByTagName('g');
if (edges && edges.length) {
  for (var i=0;i<edges.length;i++) {
    if (edges[i].id.substr(0,4)=='edge') {
      edges[i].setAttribute('class','edge');
    }
  }
}
]]></script>
        <defs>
                <circle id="rim" cx="0" cy="0" r="7"/>
                <circle id="rim2" cx="0" cy="0" r="3.5"/>
                <g id="zoomPlus">
                        <use xlink:href="#rim" fill="#404040">
                                <set attributeName="fill" to="#808080" begin="zoomplus.mouseover" end="zoomplus.mouseout"/>
                        </use>
                        <path d="M-4,0h8M0,-4v8" fill="none" stroke="white" stroke-width="1.5" pointer-events="none"/>
                </g>
                <g id="zoomMin">
                        <use xlink:href="#rim" fill="#404040">
                                <set attributeName="fill" to="#808080" begin="zoomminus.mouseover" end="zoomminus.mouseout"/>
                        </use>
                        <path d="M-4,0h8" fill="none" stroke="white" stroke-width="1.5" pointer-events="none"/>
                </g>
                <g id="dirArrow">
                        <path fill="none" stroke="white" stroke-width="1.5" d="M0,-3.0v7 M-2.5,-0.5L0,-3.0L2.5,-0.5"/>
                </g>
               <g id="resetDef">
                       <use xlink:href="#rim2" fill="#404040">
                               <set attributeName="fill" to="#808080" begin="reset.mouseover" end="reset.mouseout"/>
                       </use>
               </g>
        </defs>

<script type="text/javascript">
var viewWidth = 1540;
var viewHeight = 412;
var sectionId = 'dynsection-0';
</script>
<script xlink:href="svgpan.js"/>
<svg id="graph" class="graph">
<g id="viewport">
<title>libs/dolphin/gx/GXGeometry.c</title>
<!-- Node1 -->
<g id="node1" class="node">
<title>Node1</title>
<g id="a_node1"><a xlink:title=" ">
<polygon fill="#999999" stroke="#666666" points="585.5,-404 440.5,-404 440.5,-385 585.5,-385 585.5,-404"/>
<text text-anchor="middle" x="513" y="-392" font-family="Helvetica,sans-Serif" font-size="10.00">libs/dolphin/gx/GXGeometry.c</text>
</a>
</g>
</g>
<!-- Node2 -->
<g id="node2" class="node">
<title>Node2</title>
<g id="a_node2"><a xlink:href="GXGeometry_8h.html" target="_top" xlink:title=" ">
<polygon fill="white" stroke="#666666" points="413.5,-294 286.5,-294 286.5,-275 413.5,-275 413.5,-294"/>
<text text-anchor="middle" x="350" y="-282" font-family="Helvetica,sans-Serif" font-size="10.00">dolphin/gx/GXGeometry.h</text>
</a>
</g>
</g>
<!-- Node1&#45;&gt;Node2 -->
<g id="edge1" class="edge">
<title>Node1&#45;&gt;Node2</title>
<path fill="none" stroke="#63b8ff" d="M499.66,-384.66C471.84,-366.23 407.35,-323.5 372.81,-300.62"/>
<polygon fill="#63b8ff" stroke="#63b8ff" points="375.05,-297.9 364.79,-295.3 371.19,-303.74 375.05,-297.9"/>
</g>
<!-- Node6 -->
<g id="node6" class="node">
<title>Node6</title>
<g id="a_node6"><a xlink:href="gx_8h.html" target="_top" xlink:title=" ">
<polygon fill="white" stroke="#666666" points="709,-349 641,-349 641,-330 709,-330 709,-349"/>
<text text-anchor="middle" x="675" y="-337" font-family="Helvetica,sans-Serif" font-size="10.00">dolphin/gx.h</text>
</a>
</g>
</g>
<!-- Node1&#45;&gt;Node6 -->
<g id="edge5" class="edge">
<title>Node1&#45;&gt;Node6</title>
<path fill="none" stroke="#63b8ff" d="M540.48,-384.51C566.98,-375.84 607.3,-362.65 636.89,-352.97"/>
<polygon fill="#63b8ff" stroke="#63b8ff" points="637.8,-356.35 646.22,-349.92 635.62,-349.7 637.8,-356.35"/>
</g>
<!-- Node3 -->
<g id="node3" class="node">
<title>Node3</title>
<g id="a_node3"><a xlink:href="GXEnum_8h.html" target="_top" xlink:title=" ">
<polygon fill="white" stroke="#666666" points="865,-129 755,-129 755,-110 865,-110 865,-129"/>
<text text-anchor="middle" x="810" y="-117" font-family="Helvetica,sans-Serif" font-size="10.00">dolphin/gx/GXEnum.h</text>
</a>
</g>
</g>
<!-- Node2&#45;&gt;Node3 -->
<g id="edge2" class="edge">
<title>Node2&#45;&gt;Node3</title>
<path fill="none" stroke="#63b8ff" d="M286.24,-282.17C218.97,-278.41 127.28,-265.18 163,-220 215.54,-153.55 713.58,-132.12 741,-129 741.83,-128.91 742.67,-128.81 743.51,-128.71"/>
<polygon fill="#63b8ff" stroke="#63b8ff" points="743.62,-132.22 753.15,-127.59 742.81,-125.27 743.62,-132.22"/>
</g>
<!-- Node4 -->
<g id="node4" class="node">
<title>Node4</title>
<g id="a_node4"><a xlink:href="types_8h.html" target="_top" xlink:title=" ">
<polygon fill="white" stroke="#666666" points="1009.5,-74 928.5,-74 928.5,-55 1009.5,-55 1009.5,-74"/>
<text text-anchor="middle" x="969" y="-62" font-family="Helvetica,sans-Serif" font-size="10.00">dolphin/types.h</text>
</a>
</g>
</g>
<!-- Node3&#45;&gt;Node4 -->
<g id="edge3" class="edge">
<title>Node3&#45;&gt;Node4</title>
<path fill="none" stroke="#63b8ff" d="M836.97,-109.51C862.98,-100.84 902.55,-87.65 931.6,-77.97"/>
<polygon fill="#63b8ff" stroke="#63b8ff" points="932.35,-81.41 940.73,-74.92 930.13,-74.77 932.35,-81.41"/>
</g>
<!-- Node5 -->
<g id="node5" class="node">
<title>Node5</title>
<g id="a_node5"><a xlink:href="stddef_8h.html" target="_top" xlink:title=" ">
<polygon fill="white" stroke="#666666" points="994.5,-19 943.5,-19 943.5,0 994.5,0 994.5,-19"/>
<text text-anchor="middle" x="969" y="-7" font-family="Helvetica,sans-Serif" font-size="10.00">stddef.h</text>
</a>
</g>
</g>
<!-- Node4&#45;&gt;Node5 -->
<g id="edge4" class="edge">
<title>Node4&#45;&gt;Node5</title>
<path fill="none" stroke="#63b8ff" d="M969,-54.75C969,-48.27 969,-39.16 969,-30.9"/>
<polygon fill="#63b8ff" stroke="#63b8ff" points="972.5,-30.96 969,-20.96 965.5,-30.96 972.5,-30.96"/>
</g>
<!-- Node6&#45;&gt;Node2 -->
<g id="edge26" class="edge">
<title>Node6&#45;&gt;Node2</title>
<path fill="none" stroke="#63b8ff" d="M640.53,-332.88C587.29,-324.2 484.14,-307.37 416.17,-296.29"/>
<polygon fill="#63b8ff" stroke="#63b8ff" points="417.09,-292.89 406.65,-294.74 415.96,-299.8 417.09,-292.89"/>
</g>
<!-- Node7 -->
<g id="node7" class="node">
<title>Node7</title>
<g id="a_node7"><a xlink:href="GXAttr_8h.html" target="_top" xlink:title=" ">
<polygon fill="white" stroke="#666666" points="885.5,-294 784.5,-294 784.5,-275 885.5,-275 885.5,-294"/>
<text text-anchor="middle" x="835" y="-282" font-family="Helvetica,sans-Serif" font-size="10.00">dolphin/gx/GXAttr.h</text>
</a>
</g>
</g>
<!-- Node6&#45;&gt;Node7 -->
<g id="edge6" class="edge">
<title>Node6&#45;&gt;Node7</title>
<path fill="none" stroke="#63b8ff" d="M702.14,-329.51C728.31,-320.84 768.14,-307.65 797.36,-297.97"/>
<polygon fill="#63b8ff" stroke="#63b8ff" points="798.16,-301.39 806.56,-294.92 795.96,-294.74 798.16,-301.39"/>
</g>
<!-- Node8 -->
<g id="node8" class="node">
<title>Node8</title>
<g id="a_node8"><a xlink:href="GXBump_8h.html" target="_top" xlink:title=" ">
<polygon fill="white" stroke="#666666" points="1032,-184 922,-184 922,-165 1032,-165 1032,-184"/>
<text text-anchor="middle" x="977" y="-172" font-family="Helvetica,sans-Serif" font-size="10.00">dolphin/gx/GXBump.h</text>
</a>
</g>
</g>
<!-- Node6&#45;&gt;Node8 -->
<g id="edge8" class="edge">
<title>Node6&#45;&gt;Node8</title>
<path fill="none" stroke="#63b8ff" d="M709.41,-336.47C791.08,-331.32 991.29,-316.49 1011,-294 1036.28,-265.15 1009.5,-218.62 991.17,-193.3"/>
<polygon fill="#63b8ff" stroke="#63b8ff" points="994.19,-191.5 985.36,-185.64 988.61,-195.72 994.19,-191.5"/>
</g>
<!-- Node9 -->
<g id="node9" class="node">
<title>Node9</title>
<g id="a_node9"><a xlink:href="GXDisplayList_8h.html" target="_top" xlink:title=" ">
<polygon fill="white" stroke="#666666" points="1531.5,-129 1398.5,-129 1398.5,-110 1531.5,-110 1531.5,-129"/>
<text text-anchor="middle" x="1465" y="-117" font-family="Helvetica,sans-Serif" font-size="10.00">dolphin/gx/GXDisplayList.h</text>
</a>
</g>
</g>
<!-- Node6&#45;&gt;Node9 -->
<g id="edge10" class="edge">
<title>Node6&#45;&gt;Node9</title>
<path fill="none" stroke="#63b8ff" d="M709.33,-337.36C815.08,-333.58 1134.76,-320.25 1235,-294 1347.73,-264.48 1410.22,-282.17 1473,-184 1481.43,-170.82 1478.17,-152.94 1473.53,-139.51"/>
<polygon fill="#63b8ff" stroke="#63b8ff" points="1476.88,-138.47 1469.91,-130.48 1470.38,-141.07 1476.88,-138.47"/>
</g>
<!-- Node10 -->
<g id="node10" class="node">
<title>Node10</title>
<g id="a_node10"><a xlink:href="GXFifo_8h.html" target="_top" xlink:title=" ">
<polygon fill="white" stroke="#666666" points="273.5,-239 172.5,-239 172.5,-220 273.5,-220 273.5,-239"/>
<text text-anchor="middle" x="223" y="-227" font-family="Helvetica,sans-Serif" font-size="10.00">dolphin/gx/GXFifo.h</text>
</a>
</g>
</g>
<!-- Node6&#45;&gt;Node10 -->
<g id="edge12" class="edge">
<title>Node6&#45;&gt;Node10</title>
<path fill="none" stroke="#63b8ff" d="M640.56,-330.91C602.76,-322.45 540.34,-308.1 487,-294 457.9,-286.31 451.15,-282.51 422,-275 373.53,-262.51 317.91,-250.24 277.81,-241.76"/>
<polygon fill="#63b8ff" stroke="#63b8ff" points="278.66,-238.37 268.15,-239.73 277.22,-245.22 278.66,-238.37"/>
</g>
<!-- Node16 -->
<g id="node16" class="node">
<title>Node16</title>
<g id="a_node16"><a xlink:href="GXFrameBuf_8h.html" target="_top" xlink:title=" ">
<polygon fill="white" stroke="#666666" points="420,-239 292,-239 292,-220 420,-220 420,-239"/>
<text text-anchor="middle" x="356" y="-227" font-family="Helvetica,sans-Serif" font-size="10.00">dolphin/gx/GXFrameBuf.h</text>
</a>
</g>
</g>
<!-- Node6&#45;&gt;Node16 -->
<g id="edge23" class="edge">
<title>Node6&#45;&gt;Node16</title>
<path fill="none" stroke="#63b8ff" d="M647.77,-329.55C620.68,-320.62 577.93,-306.47 541,-294 489.39,-276.57 429.83,-256.06 392.53,-243.16"/>
<polygon fill="#63b8ff" stroke="#63b8ff" points="393.74,-239.87 383.14,-239.91 391.45,-246.49 393.74,-239.87"/>
</g>
<!-- Node17 -->
<g id="node17" class="node">
<title>Node17</title>
<g id="a_node17"><a xlink:href="GXInit_8h.html" target="_top" xlink:title=" ">
<polygon fill="white" stroke="#666666" points="1002,-294 904,-294 904,-275 1002,-275 1002,-294"/>
<text text-anchor="middle" x="953" y="-282" font-family="Helvetica,sans-Serif" font-size="10.00">dolphin/gx/GXInit.h</text>
</a>
</g>
</g>
<!-- Node6&#45;&gt;Node17 -->
<g id="edge27" class="edge">
<title>Node6&#45;&gt;Node17</title>
<path fill="none" stroke="#63b8ff" d="M709.37,-331.95C755.71,-323.11 838.89,-307.25 895.01,-296.56"/>
<polygon fill="#63b8ff" stroke="#63b8ff" points="895.55,-300.02 904.71,-294.71 894.24,-293.14 895.55,-300.02"/>
</g>
<!-- Node18 -->
<g id="node18" class="node">
<title>Node18</title>
<g id="a_node18"><a xlink:href="GXTexture_8h.html" target="_top" xlink:title=" ">
<polygon fill="white" stroke="#666666" points="963.5,-239 846.5,-239 846.5,-220 963.5,-220 963.5,-239"/>
<text text-anchor="middle" x="905" y="-227" font-family="Helvetica,sans-Serif" font-size="10.00">dolphin/gx/GXTexture.h</text>
</a>
</g>
</g>
<!-- Node6&#45;&gt;Node18 -->
<g id="edge52" class="edge">
<title>Node6&#45;&gt;Node18</title>
<path fill="none" stroke="#63b8ff" d="M686.78,-329.71C704.95,-316.46 741.26,-291.21 775,-275 802.63,-261.73 835.27,-250.57 860.93,-242.75"/>
<polygon fill="#63b8ff" stroke="#63b8ff" points="861.8,-246.14 870.38,-239.93 859.8,-239.43 861.8,-246.14"/>
</g>
<!-- Node23 -->
<g id="node23" class="node">
<title>Node23</title>
<g id="a_node23"><a xlink:href="GXLight_8h.html" target="_top" xlink:title=" ">
<polygon fill="white" stroke="#666666" points="545.5,-239 438.5,-239 438.5,-220 545.5,-220 545.5,-239"/>
<text text-anchor="middle" x="492" y="-227" font-family="Helvetica,sans-Serif" font-size="10.00">dolphin/gx/GXLight.h</text>
</a>
</g>
</g>
<!-- Node6&#45;&gt;Node23 -->
<g id="edge38" class="edge">
<title>Node6&#45;&gt;Node23</title>
<path fill="none" stroke="#63b8ff" d="M649.82,-329.57C628.63,-321.58 597.88,-308.85 573,-294 549.66,-280.07 525.45,-260.27 509.65,-246.49"/>
<polygon fill="#63b8ff" stroke="#63b8ff" points="512.33,-244.19 502.52,-240.18 507.69,-249.43 512.33,-244.19"/>
</g>
<!-- Node24 -->
<g id="node24" class="node">
<title>Node24</title>
<g id="a_node24"><a xlink:href="GXMisc_8h.html" target="_top" xlink:title=" ">
<polygon fill="white" stroke="#666666" points="728,-294 622,-294 622,-275 728,-275 728,-294"/>
<text text-anchor="middle" x="675" y="-282" font-family="Helvetica,sans-Serif" font-size="10.00">dolphin/gx/GXMisc.h</text>
</a>
</g>
</g>
<!-- Node6&#45;&gt;Node24 -->
<g id="edge41" class="edge">
<title>Node6&#45;&gt;Node24</title>
<path fill="none" stroke="#63b8ff" d="M675,-329.75C675,-323.27 675,-314.16 675,-305.9"/>
<polygon fill="#63b8ff" stroke="#63b8ff" points="678.5,-305.96 675,-295.96 671.5,-305.96 678.5,-305.96"/>
</g>
<!-- Node25 -->
<g id="node25" class="node">
<title>Node25</title>
<g id="a_node25"><a xlink:href="GXPerf_8h.html" target="_top" xlink:title=" ">
<polygon fill="white" stroke="#666666" points="1464.5,-184 1361.5,-184 1361.5,-165 1464.5,-165 1464.5,-184"/>
<text text-anchor="middle" x="1413" y="-172" font-family="Helvetica,sans-Serif" font-size="10.00">dolphin/gx/GXPerf.h</text>
</a>
</g>
</g>
<!-- Node6&#45;&gt;Node25 -->
<g id="edge43" class="edge">
<title>Node6&#45;&gt;Node25</title>
<path fill="none" stroke="#63b8ff" d="M709.49,-337.41C810.52,-333.91 1104.4,-321.59 1196,-294 1273.72,-270.59 1355.03,-217.11 1392.21,-190.75"/>
<polygon fill="#63b8ff" stroke="#63b8ff" points="1393.78,-193.94 1399.86,-185.26 1389.7,-188.25 1393.78,-193.94"/>
</g>
<!-- Node26 -->
<g id="node26" class="node">
<title>Node26</title>
<g id="a_node26"><a xlink:href="GXPixel_8h.html" target="_top" xlink:title=" ">
<polygon fill="white" stroke="#666666" points="670,-239 564,-239 564,-220 670,-220 670,-239"/>
<text text-anchor="middle" x="617" y="-227" font-family="Helvetica,sans-Serif" font-size="10.00">dolphin/gx/GXPixel.h</text>
</a>
</g>
</g>
<!-- Node6&#45;&gt;Node26 -->
<g id="edge46" class="edge">
<title>Node6&#45;&gt;Node26</title>
<path fill="none" stroke="#63b8ff" d="M640.71,-332.11C619.27,-326.15 593.29,-314.9 580,-294 570.06,-278.37 583.3,-260.04 596.62,-247.1"/>
<polygon fill="#63b8ff" stroke="#63b8ff" points="598.9,-249.76 604.02,-240.47 594.23,-244.54 598.9,-249.76"/>
</g>
<!-- Node27 -->
<g id="node27" class="node">
<title>Node27</title>
<g id="a_node27"><a xlink:href="GXTev_8h.html" target="_top" xlink:title=" ">
<polygon fill="white" stroke="#666666" points="789.5,-239 688.5,-239 688.5,-220 789.5,-220 789.5,-239"/>
<text text-anchor="middle" x="739" y="-227" font-family="Helvetica,sans-Serif" font-size="10.00">dolphin/gx/GXTev.h</text>
</a>
</g>
</g>
<!-- Node6&#45;&gt;Node27 -->
<g id="edge49" class="edge">
<title>Node6&#45;&gt;Node27</title>
<path fill="none" stroke="#63b8ff" d="M654.82,-329.67C631.33,-318.11 597.61,-296.76 613,-275 622.07,-262.18 656.78,-250.47 687.48,-242.29"/>
<polygon fill="#63b8ff" stroke="#63b8ff" points="688.28,-245.7 697.09,-239.82 686.53,-238.92 688.28,-245.7"/>
</g>
<!-- Node28 -->
<g id="node28" class="node">
<title>Node28</title>
<g id="a_node28"><a xlink:href="GXTransform_8h.html" target="_top" xlink:title=" ">
<polygon fill="white" stroke="#666666" points="1187.5,-294 1058.5,-294 1058.5,-275 1187.5,-275 1187.5,-294"/>
<text text-anchor="middle" x="1123" y="-282" font-family="Helvetica,sans-Serif" font-size="10.00">dolphin/gx/GXTransform.h</text>
</a>
</g>
</g>
<!-- Node6&#45;&gt;Node28 -->
<g id="edge53" class="edge">
<title>Node6&#45;&gt;Node28</title>
<path fill="none" stroke="#63b8ff" d="M709.41,-334.43C781.25,-325.93 948.65,-306.13 1047.04,-294.49"/>
<polygon fill="#63b8ff" stroke="#63b8ff" points="1047.37,-297.97 1056.89,-293.32 1046.55,-291.02 1047.37,-297.97"/>
</g>
<!-- Node7&#45;&gt;Node3 -->
<g id="edge7" class="edge">
<title>Node7&#45;&gt;Node3</title>
<path fill="none" stroke="#63b8ff" d="M881.05,-274.58C916.43,-266.67 961.05,-254.07 972,-239 976.96,-232.17 976.13,-227.36 972,-220 956.96,-193.21 939.19,-200.06 913,-184 885.89,-167.37 854.81,-148.2 833.95,-135.31"/>
<polygon fill="#63b8ff" stroke="#63b8ff" points="835.95,-132.43 825.6,-130.15 832.27,-138.39 835.95,-132.43"/>
</g>
<!-- Node8&#45;&gt;Node3 -->
<g id="edge9" class="edge">
<title>Node8&#45;&gt;Node3</title>
<path fill="none" stroke="#63b8ff" d="M948.67,-164.51C921.24,-155.8 879.42,-142.53 848.88,-132.84"/>
<polygon fill="#63b8ff" stroke="#63b8ff" points="850.22,-129.59 839.63,-129.9 848.1,-136.27 850.22,-129.59"/>
</g>
<!-- Node9&#45;&gt;Node4 -->
<g id="edge11" class="edge">
<title>Node9&#45;&gt;Node4</title>
<path fill="none" stroke="#63b8ff" d="M1398.11,-111.35C1298.17,-100.67 1111.96,-80.78 1021.3,-71.09"/>
<polygon fill="#63b8ff" stroke="#63b8ff" points="1021.76,-67.62 1011.45,-70.04 1021.02,-74.58 1021.76,-67.62"/>
</g>
<!-- Node10&#45;&gt;Node3 -->
<g id="edge19" class="edge">
<title>Node10&#45;&gt;Node3</title>
<path fill="none" stroke="#63b8ff" d="M255.45,-219.51C304.72,-206.11 401.53,-180.79 485,-165 533.17,-155.89 663.52,-138.91 743.75,-128.76"/>
<polygon fill="#63b8ff" stroke="#63b8ff" points="743.74,-132.29 753.22,-127.57 742.86,-125.35 743.74,-132.29"/>
</g>
<!-- Node11 -->
<g id="node11" class="node">
<title>Node11</title>
<g id="a_node11"><a xlink:href="GXStruct_8h.html" target="_top" xlink:title=" ">
<polygon fill="white" stroke="#666666" points="675.5,-184 564.5,-184 564.5,-165 675.5,-165 675.5,-184"/>
<text text-anchor="middle" x="620" y="-172" font-family="Helvetica,sans-Serif" font-size="10.00">dolphin/gx/GXStruct.h</text>
</a>
</g>
</g>
<!-- Node10&#45;&gt;Node11 -->
<g id="edge13" class="edge">
<title>Node10&#45;&gt;Node11</title>
<path fill="none" stroke="#63b8ff" d="M273.73,-221.28C276.87,-220.84 279.98,-220.41 283,-220 376.55,-207.2 484.8,-193.02 552.83,-184.18"/>
<polygon fill="#63b8ff" stroke="#63b8ff" points="553.26,-187.65 562.72,-182.9 552.36,-180.71 553.26,-187.65"/>
</g>
<!-- Node14 -->
<g id="node14" class="node">
<title>Node14</title>
<g id="a_node14"><a xlink:href="OSThread_8h.html" target="_top" xlink:title=" ">
<polygon fill="white" stroke="#666666" points="116,-184 0,-184 0,-165 116,-165 116,-184"/>
<text text-anchor="middle" x="58" y="-172" font-family="Helvetica,sans-Serif" font-size="10.00">dolphin/os/OSThread.h</text>
</a>
</g>
</g>
<!-- Node10&#45;&gt;Node14 -->
<g id="edge20" class="edge">
<title>Node10&#45;&gt;Node14</title>
<path fill="none" stroke="#63b8ff" d="M195.01,-219.51C167.91,-210.8 126.59,-197.53 96.42,-187.84"/>
<polygon fill="#63b8ff" stroke="#63b8ff" points="97.88,-184.64 87.29,-184.91 95.74,-191.3 97.88,-184.64"/>
</g>
<!-- Node11&#45;&gt;Node3 -->
<g id="edge16" class="edge">
<title>Node11&#45;&gt;Node3</title>
<path fill="none" stroke="#63b8ff" d="M652.23,-164.51C683.85,-155.69 732.27,-142.18 767.13,-132.46"/>
<polygon fill="#63b8ff" stroke="#63b8ff" points="767.78,-135.91 776.47,-129.85 765.9,-129.17 767.78,-135.91"/>
</g>
<!-- Node12 -->
<g id="node12" class="node">
<title>Node12</title>
<g id="a_node12"><a xlink:href="global_8h.html" target="_top" xlink:title=" ">
<polygon fill="white" stroke="#666666" points="647,-129 597,-129 597,-110 647,-110 647,-129"/>
<text text-anchor="middle" x="622" y="-117" font-family="Helvetica,sans-Serif" font-size="10.00">global.h</text>
</a>
</g>
</g>
<!-- Node11&#45;&gt;Node12 -->
<g id="edge14" class="edge">
<title>Node11&#45;&gt;Node12</title>
<path fill="none" stroke="#63b8ff" d="M620.33,-164.75C620.57,-158.27 620.92,-149.16 621.23,-140.9"/>
<polygon fill="#63b8ff" stroke="#63b8ff" points="624.73,-141.08 621.61,-130.95 617.73,-140.82 624.73,-141.08"/>
</g>
<!-- Node13 -->
<g id="node13" class="node">
<title>Node13</title>
<g id="a_node13"><a xlink:href="vi_8h.html" target="_top" xlink:title=" ">
<polygon fill="white" stroke="#666666" points="732.5,-129 667.5,-129 667.5,-110 732.5,-110 732.5,-129"/>
<text text-anchor="middle" x="700" y="-117" font-family="Helvetica,sans-Serif" font-size="10.00">dolphin/vi.h</text>
</a>
</g>
</g>
<!-- Node11&#45;&gt;Node13 -->
<g id="edge17" class="edge">
<title>Node11&#45;&gt;Node13</title>
<path fill="none" stroke="#63b8ff" d="M633.57,-164.51C645.48,-156.62 663.05,-144.98 677.13,-135.65"/>
<polygon fill="#63b8ff" stroke="#63b8ff" points="678.96,-138.63 685.37,-130.19 675.1,-132.8 678.96,-138.63"/>
</g>
<!-- Node12&#45;&gt;Node4 -->
<g id="edge15" class="edge">
<title>Node12&#45;&gt;Node4</title>
<path fill="none" stroke="#63b8ff" d="M647.12,-112.27C650.76,-111.45 654.47,-110.67 658,-110 748.37,-92.9 854.63,-79.02 916.63,-71.54"/>
<polygon fill="#63b8ff" stroke="#63b8ff" points="917.04,-75.01 926.55,-70.35 916.21,-68.06 917.04,-75.01"/>
</g>
<!-- Node13&#45;&gt;Node4 -->
<g id="edge18" class="edge">
<title>Node13&#45;&gt;Node4</title>
<path fill="none" stroke="#63b8ff" d="M732.98,-112C778.96,-102.94 862.76,-86.43 917.14,-75.72"/>
<polygon fill="#63b8ff" stroke="#63b8ff" points="917.65,-79.18 926.79,-73.82 916.3,-72.32 917.65,-79.18"/>
</g>
<!-- Node15 -->
<g id="node15" class="node">
<title>Node15</title>
<g id="a_node15"><a xlink:href="OSContext_8h.html" target="_top" xlink:title=" ">
<polygon fill="white" stroke="#666666" points="349.5,-129 230.5,-129 230.5,-110 349.5,-110 349.5,-129"/>
<text text-anchor="middle" x="290" y="-117" font-family="Helvetica,sans-Serif" font-size="10.00">dolphin/os/OSContext.h</text>
</a>
</g>
</g>
<!-- Node14&#45;&gt;Node15 -->
<g id="edge21" class="edge">
<title>Node14&#45;&gt;Node15</title>
<path fill="none" stroke="#63b8ff" d="M97.36,-164.51C136.64,-155.54 197.14,-141.71 239.85,-131.96"/>
<polygon fill="#63b8ff" stroke="#63b8ff" points="240.39,-135.42 249.36,-129.78 238.84,-128.6 240.39,-135.42"/>
</g>
<!-- Node15&#45;&gt;Node4 -->
<g id="edge22" class="edge">
<title>Node15&#45;&gt;Node4</title>
<path fill="none" stroke="#63b8ff" d="M349.96,-113.82C481.35,-103.56 792.81,-79.25 916.78,-69.58"/>
<polygon fill="#63b8ff" stroke="#63b8ff" points="916.97,-73.07 926.67,-68.8 916.43,-66.09 916.97,-73.07"/>
</g>
<!-- Node16&#45;&gt;Node3 -->
<g id="edge25" class="edge">
<title>Node16&#45;&gt;Node3</title>
<path fill="none" stroke="#63b8ff" d="M380.2,-219.6C417.36,-206.2 490.9,-180.74 555,-165 618.19,-149.48 691.48,-137.28 743.23,-129.61"/>
<polygon fill="#63b8ff" stroke="#63b8ff" points="743.7,-133.08 753.09,-128.17 742.69,-126.15 743.7,-133.08"/>
</g>
<!-- Node16&#45;&gt;Node11 -->
<g id="edge24" class="edge">
<title>Node16&#45;&gt;Node11</title>
<path fill="none" stroke="#63b8ff" d="M400.78,-219.51C445.86,-210.46 515.51,-196.48 564.16,-186.71"/>
<polygon fill="#63b8ff" stroke="#63b8ff" points="564.84,-190.14 573.95,-184.74 563.46,-183.28 564.84,-190.14"/>
</g>
<!-- Node17&#45;&gt;Node18 -->
<g id="edge28" class="edge">
<title>Node17&#45;&gt;Node18</title>
<path fill="none" stroke="#63b8ff" d="M945.07,-274.75C938.44,-267.43 928.78,-256.76 920.61,-247.74"/>
<polygon fill="#63b8ff" stroke="#63b8ff" points="923.42,-245.63 914.11,-240.56 918.23,-250.33 923.42,-245.63"/>
</g>
<!-- Node19 -->
<g id="node19" class="node">
<title>Node19</title>
<g id="a_node19"><a xlink:href="mtx_8h.html" target="_top" xlink:title=" ">
<polygon fill="white" stroke="#666666" points="1173,-239 1099,-239 1099,-220 1173,-220 1173,-239"/>
<text text-anchor="middle" x="1136" y="-227" font-family="Helvetica,sans-Serif" font-size="10.00">dolphin/mtx.h</text>
</a>
</g>
</g>
<!-- Node17&#45;&gt;Node19 -->
<g id="edge31" class="edge">
<title>Node17&#45;&gt;Node19</title>
<path fill="none" stroke="#63b8ff" d="M984.04,-274.51C1014.37,-265.73 1060.73,-252.3 1094.27,-242.59"/>
<polygon fill="#63b8ff" stroke="#63b8ff" points="1095.02,-246.01 1103.66,-239.87 1093.08,-239.29 1095.02,-246.01"/>
</g>
<!-- Node18&#45;&gt;Node3 -->
<g id="edge29" class="edge">
<title>Node18&#45;&gt;Node3</title>
<path fill="none" stroke="#63b8ff" d="M897.23,-219.66C881.57,-201.86 845.98,-161.41 825.43,-138.04"/>
<polygon fill="#63b8ff" stroke="#63b8ff" points="828.11,-135.79 818.88,-130.6 822.86,-140.42 828.11,-135.79"/>
</g>
<!-- Node18&#45;&gt;Node11 -->
<g id="edge30" class="edge">
<title>Node18&#45;&gt;Node11</title>
<path fill="none" stroke="#63b8ff" d="M856.65,-219.51C807.68,-210.4 731.85,-196.3 679.28,-186.52"/>
<polygon fill="#63b8ff" stroke="#63b8ff" points="680.07,-183.11 669.6,-184.72 678.79,-189.99 680.07,-183.11"/>
</g>
<!-- Node20 -->
<g id="node20" class="node">
<title>Node20</title>
<g id="a_node20"><a xlink:href="mtx44_8h.html" target="_top" xlink:title=" ">
<polygon fill="white" stroke="#666666" points="1343.5,-184 1240.5,-184 1240.5,-165 1343.5,-165 1343.5,-184"/>
<text text-anchor="middle" x="1292" y="-172" font-family="Helvetica,sans-Serif" font-size="10.00">dolphin/mtx/mtx44.h</text>
</a>
</g>
</g>
<!-- Node19&#45;&gt;Node20 -->
<g id="edge32" class="edge">
<title>Node19&#45;&gt;Node20</title>
<path fill="none" stroke="#63b8ff" d="M1162.46,-219.51C1187.86,-210.88 1226.47,-197.76 1254.92,-188.1"/>
<polygon fill="#63b8ff" stroke="#63b8ff" points="1255.89,-191.46 1264.23,-184.93 1253.64,-184.84 1255.89,-191.46"/>
</g>
<!-- Node21 -->
<g id="node21" class="node">
<title>Node21</title>
<g id="a_node21"><a xlink:href="quat_8h.html" target="_top" xlink:title=" ">
<polygon fill="white" stroke="#666666" points="1183.5,-184 1088.5,-184 1088.5,-165 1183.5,-165 1183.5,-184"/>
<text text-anchor="middle" x="1136" y="-172" font-family="Helvetica,sans-Serif" font-size="10.00">dolphin/mtx/quat.h</text>
</a>
</g>
</g>
<!-- Node19&#45;&gt;Node21 -->
<g id="edge34" class="edge">
<title>Node19&#45;&gt;Node21</title>
<path fill="none" stroke="#63b8ff" d="M1136,-219.75C1136,-213.27 1136,-204.16 1136,-195.9"/>
<polygon fill="#63b8ff" stroke="#63b8ff" points="1139.5,-195.96 1136,-185.96 1132.5,-195.96 1139.5,-195.96"/>
</g>
<!-- Node22 -->
<g id="node22" class="node">
<title>Node22</title>
<g id="a_node22"><a xlink:href="vec_8h.html" target="_top" xlink:title=" ">
<polygon fill="white" stroke="#666666" points="1182,-129 1090,-129 1090,-110 1182,-110 1182,-129"/>
<text text-anchor="middle" x="1136" y="-117" font-family="Helvetica,sans-Serif" font-size="10.00">dolphin/mtx/vec.h</text>
</a>
</g>
</g>
<!-- Node19&#45;&gt;Node22 -->
<g id="edge37" class="edge">
<title>Node19&#45;&gt;Node22</title>
<path fill="none" stroke="#63b8ff" d="M1154.03,-219.63C1174.27,-208.36 1202.93,-187.64 1192,-165 1186.05,-152.67 1174.84,-142.71 1164,-135.36"/>
<polygon fill="#63b8ff" stroke="#63b8ff" points="1165.94,-132.45 1155.6,-130.15 1162.25,-138.39 1165.94,-132.45"/>
</g>
<!-- Node20&#45;&gt;Node4 -->
<g id="edge33" class="edge">
<title>Node20&#45;&gt;Node4</title>
<path fill="none" stroke="#63b8ff" d="M1280.93,-164.61C1263.09,-150.75 1226.4,-124.12 1191,-110 1135.3,-87.78 1067.14,-76.24 1021.15,-70.54"/>
<polygon fill="#63b8ff" stroke="#63b8ff" points="1021.81,-67.09 1011.46,-69.39 1020.98,-74.05 1021.81,-67.09"/>
</g>
<!-- Node21&#45;&gt;Node22 -->
<g id="edge35" class="edge">
<title>Node21&#45;&gt;Node22</title>
<path fill="none" stroke="#63b8ff" d="M1136,-164.75C1136,-158.27 1136,-149.16 1136,-140.9"/>
<polygon fill="#63b8ff" stroke="#63b8ff" points="1139.5,-140.96 1136,-130.96 1132.5,-140.96 1139.5,-140.96"/>
</g>
<!-- Node22&#45;&gt;Node4 -->
<g id="edge36" class="edge">
<title>Node22&#45;&gt;Node4</title>
<path fill="none" stroke="#63b8ff" d="M1107.67,-109.51C1080.24,-100.8 1038.42,-87.53 1007.88,-77.84"/>
<polygon fill="#63b8ff" stroke="#63b8ff" points="1009.22,-74.59 998.63,-74.9 1007.1,-81.27 1009.22,-74.59"/>
</g>
<!-- Node23&#45;&gt;Node3 -->
<g id="edge40" class="edge">
<title>Node23&#45;&gt;Node3</title>
<path fill="none" stroke="#63b8ff" d="M545.76,-220.23C584.94,-213.2 638.84,-201.45 684,-184 700.15,-177.76 702.65,-172.99 718,-165 738.69,-154.23 762.39,-142.78 780.55,-134.2"/>
<polygon fill="#63b8ff" stroke="#63b8ff" points="781.88,-137.45 789.44,-130.02 778.9,-131.11 781.88,-137.45"/>
</g>
<!-- Node23&#45;&gt;Node11 -->
<g id="edge39" class="edge">
<title>Node23&#45;&gt;Node11</title>
<path fill="none" stroke="#63b8ff" d="M513.71,-219.51C534.16,-211.04 565.02,-198.27 588.23,-188.66"/>
<polygon fill="#63b8ff" stroke="#63b8ff" points="589.31,-192 597.21,-184.94 586.63,-185.53 589.31,-192"/>
</g>
<!-- Node24&#45;&gt;Node3 -->
<g id="edge42" class="edge">
<title>Node24&#45;&gt;Node3</title>
<path fill="none" stroke="#63b8ff" d="M712.9,-274.5C744.92,-266.09 787.25,-252.79 798,-239 820.08,-210.68 817.73,-166.25 813.93,-140.6"/>
<polygon fill="#63b8ff" stroke="#63b8ff" points="817.4,-140.13 812.25,-130.87 810.5,-141.32 817.4,-140.13"/>
</g>
<!-- Node25&#45;&gt;Node3 -->
<g id="edge45" class="edge">
<title>Node25&#45;&gt;Node3</title>
<path fill="none" stroke="#63b8ff" d="M1361.11,-166.07C1358.03,-165.69 1354.98,-165.33 1352,-165 1181.22,-146.11 979.35,-131.59 876.89,-124.77"/>
<polygon fill="#63b8ff" stroke="#63b8ff" points="877.22,-121.28 867.01,-124.12 876.75,-128.27 877.22,-121.28"/>
</g>
<!-- Node25&#45;&gt;Node4 -->
<g id="edge44" class="edge">
<title>Node25&#45;&gt;Node4</title>
<path fill="none" stroke="#63b8ff" d="M1389.93,-164.54C1354.51,-151.08 1284.36,-125.54 1223,-110 1154.01,-92.53 1072.75,-79.6 1021.07,-72.3"/>
<polygon fill="#63b8ff" stroke="#63b8ff" points="1021.75,-68.86 1011.37,-70.95 1020.79,-75.8 1021.75,-68.86"/>
</g>
<!-- Node26&#45;&gt;Node3 -->
<g id="edge48" class="edge">
<title>Node26&#45;&gt;Node3</title>
<path fill="none" stroke="#63b8ff" d="M640.46,-219.63C661.33,-211.4 692.41,-198.3 718,-184 743.73,-169.62 771.31,-149.95 789.49,-136.33"/>
<polygon fill="#63b8ff" stroke="#63b8ff" points="791.49,-139.21 797.35,-130.38 787.26,-133.63 791.49,-139.21"/>
</g>
<!-- Node26&#45;&gt;Node11 -->
<g id="edge47" class="edge">
<title>Node26&#45;&gt;Node11</title>
<path fill="none" stroke="#63b8ff" d="M617.5,-219.75C617.86,-213.27 618.38,-204.16 618.85,-195.9"/>
<polygon fill="#63b8ff" stroke="#63b8ff" points="622.34,-196.13 619.41,-185.95 615.35,-195.74 622.34,-196.13"/>
</g>
<!-- Node27&#45;&gt;Node3 -->
<g id="edge50" class="edge">
<title>Node27&#45;&gt;Node3</title>
<path fill="none" stroke="#63b8ff" d="M744.81,-219.66C756.36,-202.1 782.4,-162.48 797.85,-138.98"/>
<polygon fill="#63b8ff" stroke="#63b8ff" points="800.71,-141 803.28,-130.72 794.86,-137.16 800.71,-141"/>
</g>
<!-- Node27&#45;&gt;Node11 -->
<g id="edge51" class="edge">
<title>Node27&#45;&gt;Node11</title>
<path fill="none" stroke="#63b8ff" d="M718.81,-219.51C699.98,-211.12 671.63,-198.5 650.13,-188.92"/>
<polygon fill="#63b8ff" stroke="#63b8ff" points="651.83,-185.85 641.27,-184.97 648.98,-192.24 651.83,-185.85"/>
</g>
<!-- Node28&#45;&gt;Node3 -->
<g id="edge54" class="edge">
<title>Node28&#45;&gt;Node3</title>
<path fill="none" stroke="#63b8ff" d="M1116.29,-274.74C1109.52,-265.83 1098.83,-251.6 1090,-239 1067.36,-206.7 1073.82,-186.88 1041,-165 1014.6,-147.4 935.14,-134.77 876.76,-127.56"/>
<polygon fill="#63b8ff" stroke="#63b8ff" points="877.24,-124.09 866.89,-126.37 876.4,-131.04 877.24,-124.09"/>
</g>
<!-- Node28&#45;&gt;Node19 -->
<g id="edge55" class="edge">
<title>Node28&#45;&gt;Node19</title>
<path fill="none" stroke="#63b8ff" d="M1125.15,-274.75C1126.76,-268.19 1129.02,-258.95 1131.07,-250.6"/>
<polygon fill="#63b8ff" stroke="#63b8ff" points="1134.46,-251.46 1133.45,-240.91 1127.66,-249.79 1134.46,-251.46"/>
</g>
</g>
</svg>
        <g id="navigator" transform="translate(0 0)" fill="#404254">
                <rect fill="#f2f5e9" fill-opacity="0.5" stroke="#606060" stroke-width=".5" x="0" y="0" width="60" height="60"/>
                <use id="zoomplus" xlink:href="#zoomPlus" x="17" y="9" onmousedown="handleZoom(evt,'in')"/>
                <use id="zoomminus" xlink:href="#zoomMin" x="42" y="9" onmousedown="handleZoom(evt,'out')"/>
                <use id="reset" xlink:href="#resetDef" x="30" y="36" onmousedown="handleReset()"/>
                <g id="arrowUp" xlink:href="#dirArrow" transform="translate(30 24)" onmousedown="handlePan(0,-1)">
                  <use xlink:href="#rim" fill="#404040">
                        <set attributeName="fill" to="#808080" begin="arrowUp.mouseover" end="arrowUp.mouseout"/>
                  </use>
                  <path fill="none" stroke="white" stroke-width="1.5" d="M0,-3.0v7 M-2.5,-0.5L0,-3.0L2.5,-0.5"/>
                </g>
                <g id="arrowRight" xlink:href="#dirArrow" transform="rotate(90) translate(36 -43)" onmousedown="handlePan(1,0)">
                  <use xlink:href="#rim" fill="#404040">
                        <set attributeName="fill" to="#808080" begin="arrowRight.mouseover" end="arrowRight.mouseout"/>
                  </use>
                  <path fill="none" stroke="white" stroke-width="1.5" d="M0,-3.0v7 M-2.5,-0.5L0,-3.0L2.5,-0.5"/>
                </g>
                <g id="arrowDown" xlink:href="#dirArrow" transform="rotate(180) translate(-30 -48)" onmousedown="handlePan(0,1)">
                  <use xlink:href="#rim" fill="#404040">
                        <set attributeName="fill" to="#808080" begin="arrowDown.mouseover" end="arrowDown.mouseout"/>
                  </use>
                  <path fill="none" stroke="white" stroke-width="1.5" d="M0,-3.0v7 M-2.5,-0.5L0,-3.0L2.5,-0.5"/>
                </g>
                <g id="arrowLeft" xlink:href="#dirArrow" transform="rotate(270) translate(-36 17)" onmousedown="handlePan(-1,0)">
                  <use xlink:href="#rim" fill="#404040">
                        <set attributeName="fill" to="#808080" begin="arrowLeft.mouseover" end="arrowLeft.mouseout"/>
                  </use>
                  <path fill="none" stroke="white" stroke-width="1.5" d="M0,-3.0v7 M-2.5,-0.5L0,-3.0L2.5,-0.5"/>
                </g>
        </g>
        <svg viewBox="0 0 15 15" width="100%" height="30px" preserveAspectRatio="xMaxYMin meet">
         <g id="arrow_out" transform="scale(0.3 0.3)">
          <a xlink:href="GXGeometry_8c__incl_org.svg" target="_base">
           <rect id="button" ry="5" rx="5" y="6" x="6" height="38" width="38"
                fill="#f2f5e9" fill-opacity="0.5" stroke="#606060" stroke-width="1.0"/>
           <path id="arrow"
             d="M 11.500037,31.436501 C 11.940474,20.09759 22.043105,11.32322 32.158766,21.979434 L 37.068811,17.246167 C 37.068811,17.246167 37.088388,32 37.088388,32 L 22.160133,31.978069 C 22.160133,31.978069 26.997745,27.140456 26.997745,27.140456 C 18.528582,18.264221 13.291696,25.230495 11.500037,31.436501 z"
             style="fill:#404040;"/>
          </a>
         </g>
        </svg>
</svg>
