<?xml version="1.0" encoding="UTF-8" standalone="no"?>
<!DOCTYPE svg PUBLIC "-//W3C//DTD SVG 1.1//EN"
 "http://www.w3.org/Graphics/SVG/1.1/DTD/svg11.dtd">
<!-- Generated by graphviz version 7.0.5 (20221223.1930)
 -->
<!-- Title: Graphical Class Hierarchy Pages: 1 -->
<svg width="263pt" height="730pt"
 viewBox="0.00 0.00 263.00 730.00" xmlns="http://www.w3.org/2000/svg" xmlns:xlink="http://www.w3.org/1999/xlink">
<g id="graph0" class="graph" transform="scale(1 1) rotate(0) translate(4 726)">
<title>Graphical Class Hierarchy</title>
<!-- Node0 -->
<g id="node1" class="node">
<title>Node0</title>
<g id="a_node1"><a xlink:href="structmDoHIO__entry__c.html" target="_top" xlink:title=" ">
<polygon fill="white" stroke="#666666" points="92,-370 0,-370 0,-351 92,-351 92,-370"/>
<text text-anchor="middle" x="46" y="-358" font-family="Helvetica,sans-Serif" font-size="10.00">mDoHIO_entry_c</text>
</a>
</g>
</g>
<!-- Node1 -->
<g id="node2" class="node">
<title>Node1</title>
<g id="a_node2"><a xlink:href="classdGov__HIO__c.html" target="_top" xlink:title=" ">
<polygon fill="white" stroke="#666666" points="228.5,-722 154.5,-722 154.5,-703 228.5,-703 228.5,-722"/>
<text text-anchor="middle" x="191.5" y="-710" font-family="Helvetica,sans-Serif" font-size="10.00">dGov_HIO_c</text>
</a>
</g>
</g>
<!-- Node0&#45;&gt;Node1 -->
<g id="edge1" class="edge">
<title>Node0&#45;&gt;Node1</title>
<path fill="none" stroke="#63b8ff" d="M49.34,-381.46C57.08,-447.34 83.97,-648.56 128,-694.5 134.95,-701.76 144.63,-706.14 154.29,-708.78"/>
<polygon fill="#63b8ff" stroke="#63b8ff" points="52.83,-381.22 48.21,-371.68 45.88,-382.01 52.83,-381.22"/>
</g>
<!-- Node2 -->
<g id="node3" class="node">
<title>Node2</title>
<g id="a_node3"><a xlink:href="classdScnPly__preLoad__HIO__c.html" target="_top" xlink:title=" ">
<polygon fill="white" stroke="#666666" points="255,-685 128,-685 128,-666 255,-666 255,-685"/>
<text text-anchor="middle" x="191.5" y="-673" font-family="Helvetica,sans-Serif" font-size="10.00">dScnPly_preLoad_HIO_c</text>
</a>
</g>
</g>
<!-- Node0&#45;&gt;Node2 -->
<g id="edge2" class="edge">
<title>Node0&#45;&gt;Node2</title>
<path fill="none" stroke="#63b8ff" d="M46.21,-381.81C45.4,-435.84 51.04,-579.45 128,-657.5 131.17,-660.72 134.88,-663.37 138.87,-665.55"/>
<polygon fill="#63b8ff" stroke="#63b8ff" points="49.7,-381.95 46.46,-371.87 42.71,-381.77 49.7,-381.95"/>
</g>
<!-- Node3 -->
<g id="node4" class="node">
<title>Node3</title>
<g id="a_node4"><a xlink:href="classdaBarDesk__HIO__c.html" target="_top" xlink:title=" ">
<polygon fill="white" stroke="#666666" points="240.5,-648 142.5,-648 142.5,-629 240.5,-629 240.5,-648"/>
<text text-anchor="middle" x="191.5" y="-636" font-family="Helvetica,sans-Serif" font-size="10.00">daBarDesk_HIO_c</text>
</a>
</g>
</g>
<!-- Node0&#45;&gt;Node3 -->
<g id="edge3" class="edge">
<title>Node0&#45;&gt;Node3</title>
<path fill="none" stroke="#63b8ff" d="M47.19,-381.78C48.83,-431.06 59.91,-553.87 128,-620.5 132.04,-624.45 136.88,-627.54 142.06,-629.96"/>
<polygon fill="#63b8ff" stroke="#63b8ff" points="50.7,-381.86 46.98,-371.94 43.7,-382.01 50.7,-381.86"/>
</g>
<!-- Node4 -->
<g id="node5" class="node">
<title>Node4</title>
<g id="a_node5"><a xlink:href="classdaBsGate__HIO__c.html" target="_top" xlink:title=" ">
<polygon fill="white" stroke="#666666" points="238.5,-611 144.5,-611 144.5,-592 238.5,-592 238.5,-611"/>
<text text-anchor="middle" x="191.5" y="-599" font-family="Helvetica,sans-Serif" font-size="10.00">daBsGate_HIO_c</text>
</a>
</g>
</g>
<!-- Node0&#45;&gt;Node4 -->
<g id="edge4" class="edge">
<title>Node0&#45;&gt;Node4</title>
<path fill="none" stroke="#63b8ff" d="M48.44,-381.41C52.62,-425.39 68.55,-527.96 128,-583.5 132.62,-587.82 138.21,-591.11 144.12,-593.61"/>
<polygon fill="#63b8ff" stroke="#63b8ff" points="51.95,-381.39 47.64,-371.71 44.98,-381.96 51.95,-381.39"/>
</g>
<!-- Node5 -->
<g id="node6" class="node">
<title>Node5</title>
<g id="a_node6"><a xlink:href="classdaHsTarget__HIO__c.html" target="_top" xlink:title=" ">
<polygon fill="white" stroke="#666666" points="242,-574 141,-574 141,-555 242,-555 242,-574"/>
<text text-anchor="middle" x="191.5" y="-562" font-family="Helvetica,sans-Serif" font-size="10.00">daHsTarget_HIO_c</text>
</a>
</g>
</g>
<!-- Node0&#45;&gt;Node5 -->
<g id="edge5" class="edge">
<title>Node0&#45;&gt;Node5</title>
<path fill="none" stroke="#8b1a1a" d="M50.19,-381.58C57.16,-420.12 77.34,-502.04 128,-546.5 131.73,-549.78 136.03,-552.46 140.59,-554.65"/>
<polygon fill="#8b1a1a" stroke="#8b1a1a" points="53.66,-381.07 48.56,-371.79 46.75,-382.22 53.66,-381.07"/>
</g>
<!-- Node6 -->
<g id="node7" class="node">
<title>Node6</title>
<g id="a_node7"><a xlink:href="classdaLv1Cdl00__HIO__c.html" target="_top" xlink:title=" ">
<polygon fill="white" stroke="#666666" points="242.5,-537 140.5,-537 140.5,-518 242.5,-518 242.5,-537"/>
<text text-anchor="middle" x="191.5" y="-525" font-family="Helvetica,sans-Serif" font-size="10.00">daLv1Cdl00_HIO_c</text>
</a>
</g>
</g>
<!-- Node0&#45;&gt;Node6 -->
<g id="edge6" class="edge">
<title>Node0&#45;&gt;Node6</title>
<path fill="none" stroke="#63b8ff" d="M52.52,-380.95C62.28,-413.15 85.66,-475.5 128,-509.5 132.05,-512.75 136.66,-515.42 141.5,-517.6"/>
<polygon fill="#63b8ff" stroke="#63b8ff" points="55.98,-380.31 49.86,-371.66 49.25,-382.24 55.98,-380.31"/>
</g>
<!-- Node7 -->
<g id="node8" class="node">
<title>Node7</title>
<g id="a_node8"><a xlink:href="classdaLv1Cdl01__HIO__c.html" target="_top" xlink:title=" ">
<polygon fill="white" stroke="#666666" points="242.5,-500 140.5,-500 140.5,-481 242.5,-481 242.5,-500"/>
<text text-anchor="middle" x="191.5" y="-488" font-family="Helvetica,sans-Serif" font-size="10.00">daLv1Cdl01_HIO_c</text>
</a>
</g>
</g>
<!-- Node0&#45;&gt;Node7 -->
<g id="edge7" class="edge">
<title>Node0&#45;&gt;Node7</title>
<path fill="none" stroke="#63b8ff" d="M56.22,-380.47C68.86,-405.66 93.95,-448.57 128,-472.5 132.62,-475.75 137.82,-478.41 143.19,-480.6"/>
<polygon fill="#63b8ff" stroke="#63b8ff" points="59.45,-379.12 51.95,-371.64 53.15,-382.16 59.45,-379.12"/>
</g>
<!-- Node8 -->
<g id="node9" class="node">
<title>Node8</title>
<g id="a_node9"><a xlink:href="classdaLv2Candle__HIO__c.html" target="_top" xlink:title=" ">
<polygon fill="white" stroke="#666666" points="245,-463 138,-463 138,-444 245,-444 245,-463"/>
<text text-anchor="middle" x="191.5" y="-451" font-family="Helvetica,sans-Serif" font-size="10.00">daLv2Candle_HIO_c</text>
</a>
</g>
</g>
<!-- Node0&#45;&gt;Node8 -->
<g id="edge8" class="edge">
<title>Node0&#45;&gt;Node8</title>
<path fill="none" stroke="#63b8ff" d="M62.23,-378.86C77.29,-395.88 101.8,-420.72 128,-435.5 133.61,-438.66 139.81,-441.31 146.08,-443.51"/>
<polygon fill="#63b8ff" stroke="#63b8ff" points="65.05,-376.77 55.88,-371.47 59.75,-381.34 65.05,-376.77"/>
</g>
<!-- Node9 -->
<g id="node10" class="node">
<title>Node9</title>
<g id="a_node10"><a xlink:href="classdaLv4Gate__HIO__c.html" target="_top" xlink:title=" ">
<polygon fill="white" stroke="#666666" points="240.5,-426 142.5,-426 142.5,-407 240.5,-407 240.5,-426"/>
<text text-anchor="middle" x="191.5" y="-414" font-family="Helvetica,sans-Serif" font-size="10.00">daLv4Gate_HIO_c</text>
</a>
</g>
</g>
<!-- Node0&#45;&gt;Node9 -->
<g id="edge9" class="edge">
<title>Node0&#45;&gt;Node9</title>
<path fill="none" stroke="#63b8ff" d="M75.81,-375.38C91.07,-382.91 110.28,-391.84 128,-398.5 135.72,-401.4 144.11,-404.11 152.18,-406.5"/>
<polygon fill="#63b8ff" stroke="#63b8ff" points="77.81,-372.46 67.3,-371.11 74.67,-378.72 77.81,-372.46"/>
</g>
<!-- Node10 -->
<g id="node11" class="node">
<title>Node10</title>
<g id="a_node11"><a xlink:href="classdaLv4HsTarget__HIO__c.html" target="_top" xlink:title=" ">
<polygon fill="white" stroke="#666666" points="250.5,-389 132.5,-389 132.5,-370 250.5,-370 250.5,-389"/>
<text text-anchor="middle" x="191.5" y="-377" font-family="Helvetica,sans-Serif" font-size="10.00">daLv4HsTarget_HIO_c</text>
</a>
</g>
</g>
<!-- Node0&#45;&gt;Node10 -->
<g id="edge10" class="edge">
<title>Node0&#45;&gt;Node10</title>
<path fill="none" stroke="#63b8ff" d="M103.64,-368C113.04,-369.24 122.8,-370.54 132.24,-371.79"/>
<polygon fill="#63b8ff" stroke="#63b8ff" points="104.28,-364.55 93.9,-366.71 103.36,-371.49 104.28,-364.55"/>
</g>
<!-- Node11 -->
<g id="node12" class="node">
<title>Node11</title>
<g id="a_node12"><a xlink:href="classdaLv4PoGate__HIO__c.html" target="_top" xlink:title=" ">
<polygon fill="white" stroke="#666666" points="246.5,-352 136.5,-352 136.5,-333 246.5,-333 246.5,-352"/>
<text text-anchor="middle" x="191.5" y="-340" font-family="Helvetica,sans-Serif" font-size="10.00">daLv4PoGate_HIO_c</text>
</a>
</g>
</g>
<!-- Node0&#45;&gt;Node11 -->
<g id="edge11" class="edge">
<title>Node0&#45;&gt;Node11</title>
<path fill="none" stroke="#63b8ff" d="M103.74,-353.38C114.39,-352.05 125.51,-350.65 136.1,-349.32"/>
<polygon fill="#63b8ff" stroke="#63b8ff" points="103.39,-349.9 93.91,-354.62 104.26,-356.84 103.39,-349.9"/>
</g>
<!-- Node12 -->
<g id="node13" class="node">
<title>Node12</title>
<g id="a_node13"><a xlink:href="classdaLv6CstaSw__HIO__c.html" target="_top" xlink:title=" ">
<polygon fill="white" stroke="#666666" points="247.5,-315 135.5,-315 135.5,-296 247.5,-296 247.5,-315"/>
<text text-anchor="middle" x="191.5" y="-303" font-family="Helvetica,sans-Serif" font-size="10.00">daLv6CstaSw_HIO_c</text>
</a>
</g>
</g>
<!-- Node0&#45;&gt;Node12 -->
<g id="edge12" class="edge">
<title>Node0&#45;&gt;Node12</title>
<path fill="none" stroke="#63b8ff" d="M77.6,-345.83C92.61,-338.91 111.06,-330.81 128,-324.5 136.71,-321.25 146.26,-318.14 155.21,-315.4"/>
<polygon fill="#63b8ff" stroke="#63b8ff" points="76.3,-342.57 68.72,-349.98 79.26,-348.92 76.3,-342.57"/>
</g>
<!-- Node13 -->
<g id="node14" class="node">
<title>Node13</title>
<g id="a_node14"><a xlink:href="classdaMyna__HIO__c.html" target="_top" xlink:title=" ">
<polygon fill="white" stroke="#666666" points="233.5,-278 149.5,-278 149.5,-259 233.5,-259 233.5,-278"/>
<text text-anchor="middle" x="191.5" y="-266" font-family="Helvetica,sans-Serif" font-size="10.00">daMyna_HIO_c</text>
</a>
</g>
</g>
<!-- Node0&#45;&gt;Node13 -->
<g id="edge13" class="edge">
<title>Node0&#45;&gt;Node13</title>
<path fill="none" stroke="#63b8ff" d="M62.38,-342.73C77.54,-326.25 102.13,-302.12 128,-287.5 134.52,-283.82 141.83,-280.77 149.09,-278.28"/>
<polygon fill="#63b8ff" stroke="#63b8ff" points="60.05,-340.08 55.99,-349.87 65.27,-344.75 60.05,-340.08"/>
</g>
<!-- Node14 -->
<g id="node15" class="node">
<title>Node14</title>
<g id="a_node15"><a xlink:href="classdaSnowEffTag__HIO__c.html" target="_top" xlink:title=" ">
<polygon fill="white" stroke="#666666" points="248,-241 135,-241 135,-222 248,-222 248,-241"/>
<text text-anchor="middle" x="191.5" y="-229" font-family="Helvetica,sans-Serif" font-size="10.00">daSnowEffTag_HIO_c</text>
</a>
</g>
</g>
<!-- Node0&#45;&gt;Node14 -->
<g id="edge14" class="edge">
<title>Node0&#45;&gt;Node14</title>
<path fill="none" stroke="#63b8ff" d="M56.55,-340.6C69.41,-315.89 94.59,-274.13 128,-250.5 133.19,-246.83 139.09,-243.86 145.16,-241.46"/>
<polygon fill="#63b8ff" stroke="#63b8ff" points="53.56,-338.76 52.21,-349.27 59.82,-341.9 53.56,-338.76"/>
</g>
<!-- Node15 -->
<g id="node16" class="node">
<title>Node15</title>
<g id="a_node16"><a xlink:href="classdaTagCstaSw__HIO__c.html" target="_top" xlink:title=" ">
<polygon fill="white" stroke="#666666" points="247.5,-204 135.5,-204 135.5,-185 247.5,-185 247.5,-204"/>
<text text-anchor="middle" x="191.5" y="-192" font-family="Helvetica,sans-Serif" font-size="10.00">daTagCstaSw_HIO_c</text>
</a>
</g>
</g>
<!-- Node0&#45;&gt;Node15 -->
<g id="edge15" class="edge">
<title>Node0&#45;&gt;Node15</title>
<path fill="none" stroke="#63b8ff" d="M52.81,-339.94C62.84,-308.13 86.45,-247.18 128,-213.5 132.58,-209.79 137.88,-206.8 143.42,-204.39"/>
<polygon fill="#63b8ff" stroke="#63b8ff" points="49.57,-338.55 50.05,-349.13 56.28,-340.56 49.57,-338.55"/>
</g>
<!-- Node16 -->
<g id="node17" class="node">
<title>Node16</title>
<g id="a_node17"><a xlink:href="classdaTagPoFire__HIO__c.html" target="_top" xlink:title=" ">
<polygon fill="white" stroke="#666666" points="244.5,-167 138.5,-167 138.5,-148 244.5,-148 244.5,-167"/>
<text text-anchor="middle" x="191.5" y="-155" font-family="Helvetica,sans-Serif" font-size="10.00">daTagPoFire_HIO_c</text>
</a>
</g>
</g>
<!-- Node0&#45;&gt;Node16 -->
<g id="edge16" class="edge">
<title>Node0&#45;&gt;Node16</title>
<path fill="none" stroke="#63b8ff" d="M50.33,-339.71C57.51,-301.7 78.03,-220.82 128,-176.5 132.16,-172.81 137.01,-169.84 142.15,-167.44"/>
<polygon fill="#63b8ff" stroke="#63b8ff" points="46.92,-338.9 48.64,-349.35 53.81,-340.11 46.92,-338.9"/>
</g>
<!-- Node17 -->
<g id="node18" class="node">
<title>Node17</title>
<g id="a_node18"><a xlink:href="classdaTbox__HIO__c.html" target="_top" xlink:title=" ">
<polygon fill="white" stroke="#666666" points="232.5,-130 150.5,-130 150.5,-111 232.5,-111 232.5,-130"/>
<text text-anchor="middle" x="191.5" y="-118" font-family="Helvetica,sans-Serif" font-size="10.00">daTbox_HIO_c</text>
</a>
</g>
</g>
<!-- Node0&#45;&gt;Node17 -->
<g id="edge17" class="edge">
<title>Node0&#45;&gt;Node17</title>
<path fill="none" stroke="#8b1a1a" d="M48.6,-339.56C53.06,-295.94 69.48,-194.82 128,-139.5 134.18,-133.66 142.1,-129.61 150.22,-126.8"/>
<polygon fill="#8b1a1a" stroke="#8b1a1a" points="45.12,-339.14 47.72,-349.41 52.09,-339.76 45.12,-339.14"/>
</g>
<!-- Node18 -->
<g id="node19" class="node">
<title>Node18</title>
<g id="a_node19"><a xlink:href="classdaZrTuraRc__HIO__c.html" target="_top" xlink:title=" ">
<polygon fill="white" stroke="#666666" points="242,-93 141,-93 141,-74 242,-74 242,-93"/>
<text text-anchor="middle" x="191.5" y="-81" font-family="Helvetica,sans-Serif" font-size="10.00">daZrTuraRc_HIO_c</text>
</a>
</g>
</g>
<!-- Node0&#45;&gt;Node18 -->
<g id="edge18" class="edge">
<title>Node0&#45;&gt;Node18</title>
<path fill="none" stroke="#63b8ff" d="M47.31,-339.45C49.21,-290.69 60.81,-169.08 128,-102.5 131.71,-98.83 136.1,-95.86 140.81,-93.47"/>
<polygon fill="#63b8ff" stroke="#63b8ff" points="43.82,-339.08 47.05,-349.17 50.82,-339.27 43.82,-339.08"/>
</g>
<!-- Node19 -->
<g id="node20" class="node">
<title>Node19</title>
<g id="a_node20"><a xlink:href="classdaZrTurara__HIO__c.html" target="_top" xlink:title=" ">
<polygon fill="white" stroke="#666666" points="240.5,-56 142.5,-56 142.5,-37 240.5,-37 240.5,-56"/>
<text text-anchor="middle" x="191.5" y="-44" font-family="Helvetica,sans-Serif" font-size="10.00">daZrTurara_HIO_c</text>
</a>
</g>
</g>
<!-- Node0&#45;&gt;Node19 -->
<g id="edge19" class="edge">
<title>Node0&#45;&gt;Node19</title>
<path fill="none" stroke="#63b8ff" d="M46.32,-339.4C45.8,-285.88 52.03,-143.56 128,-65.5 132.03,-61.36 136.94,-58.11 142.21,-55.56"/>
<polygon fill="#63b8ff" stroke="#63b8ff" points="42.82,-339.3 46.52,-349.23 49.82,-339.16 42.82,-339.3"/>
</g>
<!-- Node20 -->
<g id="node21" class="node">
<title>Node20</title>
<g id="a_node21"><a xlink:href="classdalv4CandleTag__HIO__c.html" target="_top" xlink:title=" ">
<polygon fill="white" stroke="#666666" points="251.5,-19 131.5,-19 131.5,0 251.5,0 251.5,-19"/>
<text text-anchor="middle" x="191.5" y="-7" font-family="Helvetica,sans-Serif" font-size="10.00">dalv4CandleTag_HIO_c</text>
</a>
</g>
</g>
<!-- Node0&#45;&gt;Node20 -->
<g id="edge20" class="edge">
<title>Node0&#45;&gt;Node20</title>
<path fill="none" stroke="#63b8ff" d="M49.43,-339.26C57.39,-273.41 84.62,-74.37 128,-28.5 131.51,-24.79 135.71,-21.8 140.26,-19.39"/>
<polygon fill="#63b8ff" stroke="#63b8ff" points="45.97,-338.72 48.28,-349.06 52.93,-339.54 45.97,-338.72"/>
</g>
</g>
</svg>
