<?xml version="1.0" encoding="UTF-8" standalone="no"?>
<!DOCTYPE svg PUBLIC "-//W3C//DTD SVG 1.1//EN"
 "http://www.w3.org/Graphics/SVG/1.1/DTD/svg11.dtd">
<!-- Generated by graphviz version 7.0.5 (20221223.1930)
 -->
<!-- Title: include/JSystem/J2DGraph/J2DMaterial.h Pages: 1 -->
<!--zoomable 236 -->
<svg id="main" version="1.1" xmlns="http://www.w3.org/2000/svg" xmlns:xlink="http://www.w3.org/1999/xlink" xml:space="preserve" onload="init(evt)">
<style type="text/css"><![CDATA[
.edge:hover path { stroke: red; }
.edge:hover polygon { stroke: red; fill: red; }
]]></style>
<script type="text/javascript"><![CDATA[
var edges = document.getElementsByTagName('g');
if (edges && edges.length) {
  for (var i=0;i<edges.length;i++) {
    if (edges[i].id.substr(0,4)=='edge') {
      edges[i].setAttribute('class','edge');
    }
  }
}
]]></script>
        <defs>
                <circle id="rim" cx="0" cy="0" r="7"/>
                <circle id="rim2" cx="0" cy="0" r="3.5"/>
                <g id="zoomPlus">
                        <use xlink:href="#rim" fill="#404040">
                                <set attributeName="fill" to="#808080" begin="zoomplus.mouseover" end="zoomplus.mouseout"/>
                        </use>
                        <path d="M-4,0h8M0,-4v8" fill="none" stroke="white" stroke-width="1.5" pointer-events="none"/>
                </g>
                <g id="zoomMin">
                        <use xlink:href="#rim" fill="#404040">
                                <set attributeName="fill" to="#808080" begin="zoomminus.mouseover" end="zoomminus.mouseout"/>
                        </use>
                        <path d="M-4,0h8" fill="none" stroke="white" stroke-width="1.5" pointer-events="none"/>
                </g>
                <g id="dirArrow">
                        <path fill="none" stroke="white" stroke-width="1.5" d="M0,-3.0v7 M-2.5,-0.5L0,-3.0L2.5,-0.5"/>
                </g>
               <g id="resetDef">
                       <use xlink:href="#rim2" fill="#404040">
                               <set attributeName="fill" to="#808080" begin="reset.mouseover" end="reset.mouseout"/>
                       </use>
               </g>
        </defs>

<script type="text/javascript">
var viewWidth = 4948;
var viewHeight = 236;
var sectionId = 'dynsection-1';
</script>
<script xlink:href="svgpan.js"/>
<svg id="graph" class="graph">
<g id="viewport">
<title>include/JSystem/J2DGraph/J2DMaterial.h</title>
<!-- Node1 -->
<g id="node1" class="node">
<title>Node1</title>
<g id="a_node1"><a xlink:title=" ">
<polygon fill="#999999" stroke="#666666" points="4601.5,-228 4466.5,-228 4466.5,-198 4601.5,-198 4601.5,-228"/>
<text text-anchor="start" x="4474.5" y="-216" font-family="Helvetica,sans-Serif" font-size="10.00">include/JSystem/J2DGraph</text>
<text text-anchor="middle" x="4534" y="-205" font-family="Helvetica,sans-Serif" font-size="10.00">/J2DMaterial.h</text>
</a>
</g>
</g>
<!-- Node2 -->
<g id="node2" class="node">
<title>Node2</title>
<g id="a_node2"><a xlink:href="J2DTextBox_8h.html" target="_top" xlink:title=" ">
<polygon fill="white" stroke="#666666" points="2442.5,-162 2307.5,-162 2307.5,-132 2442.5,-132 2442.5,-162"/>
<text text-anchor="start" x="2315.5" y="-150" font-family="Helvetica,sans-Serif" font-size="10.00">include/JSystem/J2DGraph</text>
<text text-anchor="middle" x="2375" y="-139" font-family="Helvetica,sans-Serif" font-size="10.00">/J2DTextBox.h</text>
</a>
</g>
</g>
<!-- Node1&#45;&gt;Node2 -->
<g id="edge1" class="edge">
<title>Node1&#45;&gt;Node2</title>
<path fill="none" stroke="#63b8ff" d="M4454.85,-209.65C4112.53,-199.51 2762.31,-159.48 2442.96,-150.01"/>
<polygon fill="#63b8ff" stroke="#63b8ff" points="4454.51,-213.15 4464.61,-209.94 4454.72,-206.15 4454.51,-213.15"/>
</g>
<!-- Node53 -->
<g id="node44" class="node">
<title>Node53</title>
<g id="a_node44"><a xlink:href="J2DWindow_8h.html" target="_top" xlink:title=" ">
<polygon fill="white" stroke="#666666" points="4387.5,-162 4252.5,-162 4252.5,-132 4387.5,-132 4387.5,-162"/>
<text text-anchor="start" x="4260.5" y="-150" font-family="Helvetica,sans-Serif" font-size="10.00">include/JSystem/J2DGraph</text>
<text text-anchor="middle" x="4320" y="-139" font-family="Helvetica,sans-Serif" font-size="10.00">/J2DWindow.h</text>
</a>
</g>
</g>
<!-- Node1&#45;&gt;Node53 -->
<g id="edge46" class="edge">
<title>Node1&#45;&gt;Node53</title>
<path fill="none" stroke="#63b8ff" d="M4475.09,-194.38C4441.44,-184.32 4399.78,-171.86 4368.12,-162.39"/>
<polygon fill="#63b8ff" stroke="#63b8ff" points="4473.67,-197.61 4484.26,-197.12 4475.68,-190.91 4473.67,-197.61"/>
</g>
<!-- Node57 -->
<g id="node47" class="node">
<title>Node57</title>
<g id="a_node47"><a xlink:href="J2DMaterial_8cpp.html" target="_top" xlink:title=" ">
<polygon fill="white" stroke="#666666" points="4524.5,-162 4405.5,-162 4405.5,-132 4524.5,-132 4524.5,-162"/>
<text text-anchor="start" x="4413.5" y="-150" font-family="Helvetica,sans-Serif" font-size="10.00">libs/JSystem/J2DGraph</text>
<text text-anchor="middle" x="4465" y="-139" font-family="Helvetica,sans-Serif" font-size="10.00">/J2DMaterial.cpp</text>
</a>
</g>
</g>
<!-- Node1&#45;&gt;Node57 -->
<g id="edge51" class="edge">
<title>Node1&#45;&gt;Node57</title>
<path fill="none" stroke="#63b8ff" d="M4510.38,-190.09C4500.41,-180.85 4489.11,-170.36 4480.27,-162.16"/>
<polygon fill="#63b8ff" stroke="#63b8ff" points="4507.87,-192.53 4517.58,-196.77 4512.63,-187.4 4507.87,-192.53"/>
</g>
<!-- Node58 -->
<g id="node48" class="node">
<title>Node58</title>
<g id="a_node48"><a xlink:href="J2DMaterialFactory_8cpp.html" target="_top" xlink:title=" ">
<polygon fill="white" stroke="#666666" points="4665,-162 4543,-162 4543,-132 4665,-132 4665,-162"/>
<text text-anchor="start" x="4551" y="-150" font-family="Helvetica,sans-Serif" font-size="10.00">libs/JSystem/J2DGraph</text>
<text text-anchor="middle" x="4604" y="-139" font-family="Helvetica,sans-Serif" font-size="10.00">/J2DMaterialFactory.cpp</text>
</a>
</g>
</g>
<!-- Node1&#45;&gt;Node58 -->
<g id="edge52" class="edge">
<title>Node1&#45;&gt;Node58</title>
<path fill="none" stroke="#63b8ff" d="M4557.97,-190.09C4568.07,-180.85 4579.54,-170.36 4588.51,-162.16"/>
<polygon fill="#63b8ff" stroke="#63b8ff" points="4555.67,-187.44 4550.65,-196.78 4560.39,-192.61 4555.67,-187.44"/>
</g>
<!-- Node59 -->
<g id="node49" class="node">
<title>Node59</title>
<g id="a_node49"><a xlink:href="J2DPicture_8cpp.html" target="_top" xlink:title=" ">
<polygon fill="white" stroke="#666666" points="4802.5,-162 4683.5,-162 4683.5,-132 4802.5,-132 4802.5,-162"/>
<text text-anchor="start" x="4691.5" y="-150" font-family="Helvetica,sans-Serif" font-size="10.00">libs/JSystem/J2DGraph</text>
<text text-anchor="middle" x="4743" y="-139" font-family="Helvetica,sans-Serif" font-size="10.00">/J2DPicture.cpp</text>
</a>
</g>
</g>
<!-- Node1&#45;&gt;Node59 -->
<g id="edge53" class="edge">
<title>Node1&#45;&gt;Node59</title>
<path fill="none" stroke="#63b8ff" d="M4591.96,-194.25C4624.75,-184.21 4665.22,-171.82 4696.01,-162.39"/>
<polygon fill="#63b8ff" stroke="#63b8ff" points="4591.15,-190.84 4582.61,-197.11 4593.2,-197.53 4591.15,-190.84"/>
</g>
<!-- Node60 -->
<g id="node50" class="node">
<title>Node60</title>
<g id="a_node50"><a xlink:href="J2DPictureEx_8cpp.html" target="_top" xlink:title=" ">
<polygon fill="white" stroke="#666666" points="4939.5,-162 4820.5,-162 4820.5,-132 4939.5,-132 4939.5,-162"/>
<text text-anchor="start" x="4828.5" y="-150" font-family="Helvetica,sans-Serif" font-size="10.00">libs/JSystem/J2DGraph</text>
<text text-anchor="middle" x="4880" y="-139" font-family="Helvetica,sans-Serif" font-size="10.00">/J2DPictureEx.cpp</text>
</a>
</g>
</g>
<!-- Node1&#45;&gt;Node60 -->
<g id="edge54" class="edge">
<title>Node1&#45;&gt;Node60</title>
<path fill="none" stroke="#63b8ff" d="M4612.99,-198.34C4668.68,-188.57 4744.99,-174.92 4812,-162 4814.72,-161.48 4817.5,-160.93 4820.31,-160.38"/>
<polygon fill="#63b8ff" stroke="#63b8ff" points="4612.52,-194.87 4603.27,-200.04 4613.73,-201.76 4612.52,-194.87"/>
</g>
<!-- Node3 -->
<g id="node3" class="node">
<title>Node3</title>
<g id="a_node3"><a xlink:href="J2DPrint_8h.html" target="_top" xlink:title=" ">
<polygon fill="white" stroke="#666666" points="4003.5,-96 3868.5,-96 3868.5,-66 4003.5,-66 4003.5,-96"/>
<text text-anchor="start" x="3876.5" y="-84" font-family="Helvetica,sans-Serif" font-size="10.00">include/JSystem/J2DGraph</text>
<text text-anchor="middle" x="3936" y="-73" font-family="Helvetica,sans-Serif" font-size="10.00">/J2DPrint.h</text>
</a>
</g>
</g>
<!-- Node2&#45;&gt;Node3 -->
<g id="edge2" class="edge">
<title>Node2&#45;&gt;Node3</title>
<path fill="none" stroke="#63b8ff" d="M2454.4,-144.73C2720.41,-140.27 3578.85,-124.01 3854,-96 3858.6,-95.53 3863.33,-94.96 3868.08,-94.32"/>
<polygon fill="#63b8ff" stroke="#63b8ff" points="2454.39,-141.23 2444.45,-144.9 2454.5,-148.23 2454.39,-141.23"/>
</g>
<!-- Node5 -->
<g id="node5" class="node">
<title>Node5</title>
<g id="a_node5"><a xlink:href="J2DTextBox_8cpp.html" target="_top" xlink:title=" ">
<polygon fill="white" stroke="#666666" points="3785.5,-30 3666.5,-30 3666.5,0 3785.5,0 3785.5,-30"/>
<text text-anchor="start" x="3674.5" y="-18" font-family="Helvetica,sans-Serif" font-size="10.00">libs/JSystem/J2DGraph</text>
<text text-anchor="middle" x="3726" y="-7" font-family="Helvetica,sans-Serif" font-size="10.00">/J2DTextBox.cpp</text>
</a>
</g>
</g>
<!-- Node2&#45;&gt;Node5 -->
<g id="edge22" class="edge">
<title>Node2&#45;&gt;Node5</title>
<path fill="none" stroke="#63b8ff" d="M2454.09,-146.27C2749.44,-146.89 3773.24,-145.44 3821,-96 3845.19,-70.95 3801.05,-45.67 3765.17,-30.42"/>
<polygon fill="#63b8ff" stroke="#63b8ff" points="2454.17,-142.77 2444.17,-146.25 2454.16,-149.77 2454.17,-142.77"/>
</g>
<!-- Node8 -->
<g id="node8" class="node">
<title>Node8</title>
<g id="a_node8"><a xlink:href="J2DTextBoxEx_8h.html" target="_top" xlink:title=" ">
<polygon fill="white" stroke="#666666" points="4156.5,-96 4021.5,-96 4021.5,-66 4156.5,-66 4156.5,-96"/>
<text text-anchor="start" x="4029.5" y="-84" font-family="Helvetica,sans-Serif" font-size="10.00">include/JSystem/J2DGraph</text>
<text text-anchor="middle" x="4089" y="-73" font-family="Helvetica,sans-Serif" font-size="10.00">/J2DTextBoxEx.h</text>
</a>
</g>
</g>
<!-- Node2&#45;&gt;Node8 -->
<g id="edge7" class="edge">
<title>Node2&#45;&gt;Node8</title>
<path fill="none" stroke="#63b8ff" d="M2454.18,-145.18C2738.23,-141.97 3705.37,-128.84 4013,-96 4015.67,-95.72 4018.38,-95.39 4021.12,-95.03"/>
<polygon fill="#63b8ff" stroke="#63b8ff" points="2454.24,-141.67 2444.28,-145.29 2454.32,-148.67 2454.24,-141.67"/>
</g>
<!-- Node10 -->
<g id="node10" class="node">
<title>Node10</title>
<g id="a_node10"><a xlink:href="d__menu__calibration_8h.html" target="_top" xlink:title=" ">
<polygon fill="white" stroke="#666666" points="324,-96 204,-96 204,-66 324,-66 324,-96"/>
<text text-anchor="start" x="212" y="-84" font-family="Helvetica,sans-Serif" font-size="10.00">include/d/menu/d_menu</text>
<text text-anchor="middle" x="264" y="-73" font-family="Helvetica,sans-Serif" font-size="10.00">_calibration.h</text>
</a>
</g>
</g>
<!-- Node2&#45;&gt;Node10 -->
<g id="edge10" class="edge">
<title>Node2&#45;&gt;Node10</title>
<path fill="none" stroke="#63b8ff" d="M2296.06,-146.43C2028.28,-147.38 1130,-146.34 390,-96 368.59,-94.54 345.21,-92.17 324.47,-89.78"/>
<polygon fill="#63b8ff" stroke="#63b8ff" points="2295.71,-149.93 2305.69,-146.4 2295.68,-142.93 2295.71,-149.93"/>
</g>
<!-- Node12 -->
<g id="node12" class="node">
<title>Node12</title>
<g id="a_node12"><a xlink:href="d__menu__option_8cpp.html" target="_top" xlink:title=" ">
<polygon fill="white" stroke="#666666" points="340,-24.5 188,-24.5 188,-5.5 340,-5.5 340,-24.5"/>
<text text-anchor="middle" x="264" y="-12.5" font-family="Helvetica,sans-Serif" font-size="10.00">src/d/menu/d_menu_option.cpp</text>
</a>
</g>
</g>
<!-- Node2&#45;&gt;Node12 -->
<g id="edge35" class="edge">
<title>Node2&#45;&gt;Node12</title>
<path fill="none" stroke="#63b8ff" d="M2296.12,-145.49C1959.76,-143.11 654.34,-131.64 474,-96 399.37,-81.25 316.59,-42.55 281.38,-24.95"/>
<polygon fill="#63b8ff" stroke="#63b8ff" points="2295.66,-148.99 2305.69,-145.56 2295.71,-141.99 2295.66,-148.99"/>
</g>
<!-- Node13 -->
<g id="node13" class="node">
<title>Node13</title>
<g id="a_node13"><a xlink:href="d__meter__button_8h.html" target="_top" xlink:title=" ">
<polygon fill="white" stroke="#666666" points="605,-96 483,-96 483,-66 605,-66 605,-96"/>
<text text-anchor="start" x="491" y="-84" font-family="Helvetica,sans-Serif" font-size="10.00">include/d/meter/d_meter</text>
<text text-anchor="middle" x="544" y="-73" font-family="Helvetica,sans-Serif" font-size="10.00">_button.h</text>
</a>
</g>
</g>
<!-- Node2&#45;&gt;Node13 -->
<g id="edge13" class="edge">
<title>Node2&#45;&gt;Node13</title>
<path fill="none" stroke="#63b8ff" d="M2295.83,-145.81C2053.28,-144.78 1299.17,-138.15 676,-96 652.89,-94.44 627.58,-91.94 605.36,-89.49"/>
<polygon fill="#63b8ff" stroke="#63b8ff" points="2295.8,-149.31 2305.82,-145.85 2295.83,-142.31 2295.8,-149.31"/>
</g>
<!-- Node16 -->
<g id="node16" class="node">
<title>Node16</title>
<g id="a_node16"><a xlink:href="d__msg__scrn__base_8h.html" target="_top" xlink:title=" ">
<polygon fill="#fff0f0" stroke="red" points="783.5,-96 684.5,-96 684.5,-66 783.5,-66 783.5,-96"/>
<text text-anchor="start" x="692.5" y="-84" font-family="Helvetica,sans-Serif" font-size="10.00">include/msg/scrn/d</text>
<text text-anchor="middle" x="734" y="-73" font-family="Helvetica,sans-Serif" font-size="10.00">_msg_scrn_base.h</text>
</a>
</g>
</g>
<!-- Node2&#45;&gt;Node16 -->
<g id="edge16" class="edge">
<title>Node2&#45;&gt;Node16</title>
<path fill="none" stroke="#63b8ff" d="M2296.11,-145.61C2018.62,-143.9 1088.36,-135.3 793,-96 789.97,-95.6 786.88,-95.11 783.76,-94.55"/>
<polygon fill="#63b8ff" stroke="#63b8ff" points="2295.74,-149.1 2305.76,-145.67 2295.78,-142.11 2295.74,-149.1"/>
</g>
<!-- Node31 -->
<g id="node22" class="node">
<title>Node31</title>
<g id="a_node22"><a xlink:href="d__bright__check_8cpp.html" target="_top" xlink:title=" ">
<polygon fill="white" stroke="#666666" points="926.5,-90.5 801.5,-90.5 801.5,-71.5 926.5,-71.5 926.5,-90.5"/>
<text text-anchor="middle" x="864" y="-78.5" font-family="Helvetica,sans-Serif" font-size="10.00">src/d/d_bright_check.cpp</text>
</a>
</g>
</g>
<!-- Node2&#45;&gt;Node31 -->
<g id="edge23" class="edge">
<title>Node2&#45;&gt;Node31</title>
<path fill="none" stroke="#63b8ff" d="M2295.93,-144.89C2035.01,-140.98 1202.76,-126.38 936,-96 925.63,-94.82 914.51,-92.96 904.19,-90.97"/>
<polygon fill="#63b8ff" stroke="#63b8ff" points="2295.62,-148.39 2305.68,-145.04 2295.73,-141.39 2295.62,-148.39"/>
</g>
<!-- Node32 -->
<g id="node23" class="node">
<title>Node32</title>
<g id="a_node23"><a xlink:href="d__name_8cpp.html" target="_top" xlink:title=" ">
<polygon fill="white" stroke="#666666" points="1039,-90.5 945,-90.5 945,-71.5 1039,-71.5 1039,-90.5"/>
<text text-anchor="middle" x="992" y="-78.5" font-family="Helvetica,sans-Serif" font-size="10.00">src/d/d_name.cpp</text>
</a>
</g>
</g>
<!-- Node2&#45;&gt;Node32 -->
<g id="edge24" class="edge">
<title>Node2&#45;&gt;Node32</title>
<path fill="none" stroke="#63b8ff" d="M2295.81,-145.17C2048.27,-142.23 1291.08,-130.58 1048,-96 1039.77,-94.83 1030.98,-92.94 1022.88,-90.93"/>
<polygon fill="#63b8ff" stroke="#63b8ff" points="2295.66,-148.67 2305.7,-145.28 2295.74,-141.67 2295.66,-148.67"/>
</g>
<!-- Node33 -->
<g id="node24" class="node">
<title>Node33</title>
<g id="a_node24"><a xlink:href="d__timer_8cpp.html" target="_top" xlink:title=" ">
<polygon fill="white" stroke="#666666" points="1149,-90.5 1057,-90.5 1057,-71.5 1149,-71.5 1149,-90.5"/>
<text text-anchor="middle" x="1103" y="-78.5" font-family="Helvetica,sans-Serif" font-size="10.00">src/d/d_timer.cpp</text>
</a>
</g>
</g>
<!-- Node2&#45;&gt;Node33 -->
<g id="edge25" class="edge">
<title>Node2&#45;&gt;Node33</title>
<path fill="none" stroke="#63b8ff" d="M2295.74,-144.85C2062.24,-141.13 1379.57,-127.77 1159,-96 1150.87,-94.83 1142.2,-92.97 1134.17,-90.99"/>
<polygon fill="#63b8ff" stroke="#63b8ff" points="2295.61,-148.35 2305.66,-145.01 2295.72,-141.35 2295.61,-148.35"/>
</g>
<!-- Node34 -->
<g id="node25" class="node">
<title>Node34</title>
<g id="a_node25"><a xlink:href="d__file__sel__info_8cpp.html" target="_top" xlink:title=" ">
<polygon fill="white" stroke="#666666" points="1264.5,-96 1167.5,-96 1167.5,-66 1264.5,-66 1264.5,-96"/>
<text text-anchor="start" x="1175.5" y="-84" font-family="Helvetica,sans-Serif" font-size="10.00">src/d/file/d_file_sel</text>
<text text-anchor="middle" x="1216" y="-73" font-family="Helvetica,sans-Serif" font-size="10.00">_info.cpp</text>
</a>
</g>
</g>
<!-- Node2&#45;&gt;Node34 -->
<g id="edge26" class="edge">
<title>Node2&#45;&gt;Node34</title>
<path fill="none" stroke="#63b8ff" d="M2295.81,-144.37C2077.73,-139.58 1471.51,-124.06 1274,-96 1271.03,-95.58 1267.98,-95.07 1264.92,-94.51"/>
<polygon fill="#63b8ff" stroke="#63b8ff" points="2295.55,-147.87 2305.62,-144.59 2295.7,-140.87 2295.55,-147.87"/>
</g>
<!-- Node35 -->
<g id="node26" class="node">
<title>Node35</title>
<g id="a_node26"><a xlink:href="d__file__sel__warning_8cpp.html" target="_top" xlink:title=" ">
<polygon fill="white" stroke="#666666" points="1379.5,-96 1282.5,-96 1282.5,-66 1379.5,-66 1379.5,-96"/>
<text text-anchor="start" x="1290.5" y="-84" font-family="Helvetica,sans-Serif" font-size="10.00">src/d/file/d_file_sel</text>
<text text-anchor="middle" x="1331" y="-73" font-family="Helvetica,sans-Serif" font-size="10.00">_warning.cpp</text>
</a>
</g>
</g>
<!-- Node2&#45;&gt;Node35 -->
<g id="edge27" class="edge">
<title>Node2&#45;&gt;Node35</title>
<path fill="none" stroke="#63b8ff" d="M2295.77,-143.89C2093.81,-138.2 1563.41,-121.25 1389,-96 1386.03,-95.57 1382.98,-95.06 1379.92,-94.49"/>
<polygon fill="#63b8ff" stroke="#63b8ff" points="2295.55,-147.38 2305.64,-144.16 2295.75,-140.38 2295.55,-147.38"/>
</g>
<!-- Node36 -->
<g id="node27" class="node">
<title>Node36</title>
<g id="a_node27"><a xlink:href="d__file__sel__warning__NONMATCHING_8cpp.html" target="_top" xlink:title=" ">
<polygon fill="white" stroke="#666666" points="1552.5,-96 1397.5,-96 1397.5,-66 1552.5,-66 1552.5,-96"/>
<text text-anchor="start" x="1405.5" y="-84" font-family="Helvetica,sans-Serif" font-size="10.00">src/d/file/d_file_sel</text>
<text text-anchor="middle" x="1475" y="-73" font-family="Helvetica,sans-Serif" font-size="10.00">_warning_NONMATCHING.cpp</text>
</a>
</g>
</g>
<!-- Node2&#45;&gt;Node36 -->
<g id="edge28" class="edge">
<title>Node2&#45;&gt;Node36</title>
<path fill="none" stroke="#63b8ff" d="M2295.63,-143.7C2149.91,-138.92 1830.04,-125.74 1562,-96 1558.96,-95.66 1555.86,-95.29 1552.74,-94.9"/>
<polygon fill="#63b8ff" stroke="#63b8ff" points="2295.47,-147.2 2305.57,-144.03 2295.69,-140.2 2295.47,-147.2"/>
</g>
<!-- Node37 -->
<g id="node28" class="node">
<title>Node37</title>
<g id="a_node28"><a xlink:href="d__file__select_8cpp.html" target="_top" xlink:title=" ">
<polygon fill="white" stroke="#666666" points="1699,-90.5 1571,-90.5 1571,-71.5 1699,-71.5 1699,-90.5"/>
<text text-anchor="middle" x="1635" y="-78.5" font-family="Helvetica,sans-Serif" font-size="10.00">src/d/file/d_file_select.cpp</text>
</a>
</g>
</g>
<!-- Node2&#45;&gt;Node37 -->
<g id="edge29" class="edge">
<title>Node2&#45;&gt;Node37</title>
<path fill="none" stroke="#63b8ff" d="M2295.81,-142.93C2170.73,-137.43 1919.97,-123.79 1709,-96 1698.89,-94.67 1688.07,-92.85 1677.91,-90.96"/>
<polygon fill="#63b8ff" stroke="#63b8ff" points="2295.49,-146.42 2305.64,-143.35 2295.8,-139.42 2295.49,-146.42"/>
</g>
<!-- Node38 -->
<g id="node29" class="node">
<title>Node38</title>
<g id="a_node29"><a xlink:href="d__menu__collect_8cpp.html" target="_top" xlink:title=" ">
<polygon fill="white" stroke="#666666" points="1872.5,-90.5 1717.5,-90.5 1717.5,-71.5 1872.5,-71.5 1872.5,-90.5"/>
<text text-anchor="middle" x="1795" y="-78.5" font-family="Helvetica,sans-Serif" font-size="10.00">src/d/menu/d_menu_collect.cpp</text>
</a>
</g>
</g>
<!-- Node2&#45;&gt;Node38 -->
<g id="edge30" class="edge">
<title>Node2&#45;&gt;Node38</title>
<path fill="none" stroke="#63b8ff" d="M2295.84,-139.41C2198.31,-130.96 2027.64,-115.09 1882,-96 1870.78,-94.53 1858.77,-92.74 1847.37,-90.94"/>
<polygon fill="#63b8ff" stroke="#63b8ff" points="2295.3,-142.87 2305.56,-140.25 2295.9,-135.9 2295.3,-142.87"/>
</g>
<!-- Node39 -->
<g id="node30" class="node">
<title>Node39</title>
<g id="a_node30"><a xlink:href="d__menu__fishing_8cpp.html" target="_top" xlink:title=" ">
<polygon fill="white" stroke="#666666" points="2045,-90.5 1891,-90.5 1891,-71.5 2045,-71.5 2045,-90.5"/>
<text text-anchor="middle" x="1968" y="-78.5" font-family="Helvetica,sans-Serif" font-size="10.00">src/d/menu/d_menu_fishing.cpp</text>
</a>
</g>
</g>
<!-- Node2&#45;&gt;Node39 -->
<g id="edge31" class="edge">
<title>Node2&#45;&gt;Node39</title>
<path fill="none" stroke="#63b8ff" d="M2295.66,-133.8C2230.68,-123.76 2136.36,-109.12 2054,-96 2043.84,-94.38 2033.01,-92.64 2022.58,-90.94"/>
<polygon fill="#63b8ff" stroke="#63b8ff" points="2295.12,-137.25 2305.54,-135.32 2296.19,-130.34 2295.12,-137.25"/>
</g>
<!-- Node40 -->
<g id="node31" class="node">
<title>Node40</title>
<g id="a_node31"><a xlink:href="d__menu__insect_8cpp.html" target="_top" xlink:title=" ">
<polygon fill="white" stroke="#666666" points="2215,-90.5 2063,-90.5 2063,-71.5 2215,-71.5 2215,-90.5"/>
<text text-anchor="middle" x="2139" y="-78.5" font-family="Helvetica,sans-Serif" font-size="10.00">src/d/menu/d_menu_insect.cpp</text>
</a>
</g>
</g>
<!-- Node2&#45;&gt;Node40 -->
<g id="edge32" class="edge">
<title>Node2&#45;&gt;Node40</title>
<path fill="none" stroke="#63b8ff" d="M2310.65,-128.55C2265.81,-116.39 2207.84,-100.67 2172.05,-90.96"/>
<polygon fill="#63b8ff" stroke="#63b8ff" points="2309.71,-131.92 2320.28,-131.16 2311.55,-125.17 2309.71,-131.92"/>
</g>
<!-- Node41 -->
<g id="node32" class="node">
<title>Node41</title>
<g id="a_node32"><a xlink:href="d__menu__item__explain_8cpp.html" target="_top" xlink:title=" ">
<polygon fill="white" stroke="#666666" points="2360.5,-96 2233.5,-96 2233.5,-66 2360.5,-66 2360.5,-96"/>
<text text-anchor="start" x="2241.5" y="-84" font-family="Helvetica,sans-Serif" font-size="10.00">src/d/menu/d_menu_item</text>
<text text-anchor="middle" x="2297" y="-73" font-family="Helvetica,sans-Serif" font-size="10.00">_explain.cpp</text>
</a>
</g>
</g>
<!-- Node2&#45;&gt;Node41 -->
<g id="edge33" class="edge">
<title>Node2&#45;&gt;Node41</title>
<path fill="none" stroke="#63b8ff" d="M2349.04,-124.7C2337.7,-115.4 2324.7,-104.73 2314.53,-96.39"/>
<polygon fill="#63b8ff" stroke="#63b8ff" points="2346.57,-127.2 2356.52,-130.84 2351.01,-121.79 2346.57,-127.2"/>
</g>
<!-- Node42 -->
<g id="node33" class="node">
<title>Node42</title>
<g id="a_node33"><a xlink:href="d__menu__letter_8cpp.html" target="_top" xlink:title=" ">
<polygon fill="white" stroke="#666666" points="2527,-90.5 2379,-90.5 2379,-71.5 2527,-71.5 2527,-90.5"/>
<text text-anchor="middle" x="2453" y="-78.5" font-family="Helvetica,sans-Serif" font-size="10.00">src/d/menu/d_menu_letter.cpp</text>
</a>
</g>
</g>
<!-- Node2&#45;&gt;Node42 -->
<g id="edge34" class="edge">
<title>Node2&#45;&gt;Node42</title>
<path fill="none" stroke="#63b8ff" d="M2401.08,-124.6C2415.1,-113.1 2431.64,-99.52 2442.22,-90.84"/>
<polygon fill="#63b8ff" stroke="#63b8ff" points="2398.99,-121.79 2393.48,-130.84 2403.43,-127.2 2398.99,-121.79"/>
</g>
<!-- Node43 -->
<g id="node34" class="node">
<title>Node43</title>
<g id="a_node34"><a xlink:href="d__menu__ring_8cpp.html" target="_top" xlink:title=" ">
<polygon fill="white" stroke="#666666" points="2687,-90.5 2545,-90.5 2545,-71.5 2687,-71.5 2687,-90.5"/>
<text text-anchor="middle" x="2616" y="-78.5" font-family="Helvetica,sans-Serif" font-size="10.00">src/d/menu/d_menu_ring.cpp</text>
</a>
</g>
</g>
<!-- Node2&#45;&gt;Node43 -->
<g id="edge36" class="edge">
<title>Node2&#45;&gt;Node43</title>
<path fill="none" stroke="#63b8ff" d="M2440.43,-128.63C2486.26,-116.46 2545.63,-100.69 2582.25,-90.96"/>
<polygon fill="#63b8ff" stroke="#63b8ff" points="2439.62,-125.22 2430.85,-131.17 2441.41,-131.98 2439.62,-125.22"/>
</g>
<!-- Node44 -->
<g id="node35" class="node">
<title>Node44</title>
<g id="a_node35"><a xlink:href="d__menu__skill_8cpp.html" target="_top" xlink:title=" ">
<polygon fill="white" stroke="#666666" points="2848.5,-90.5 2705.5,-90.5 2705.5,-71.5 2848.5,-71.5 2848.5,-90.5"/>
<text text-anchor="middle" x="2777" y="-78.5" font-family="Helvetica,sans-Serif" font-size="10.00">src/d/menu/d_menu_skill.cpp</text>
</a>
</g>
</g>
<!-- Node2&#45;&gt;Node44 -->
<g id="edge37" class="edge">
<title>Node2&#45;&gt;Node44</title>
<path fill="none" stroke="#63b8ff" d="M2454.38,-134.01C2519.38,-124.1 2613.7,-109.52 2696,-96 2705.72,-94.4 2716.08,-92.65 2726.04,-90.94"/>
<polygon fill="#63b8ff" stroke="#63b8ff" points="2453.85,-130.55 2444.49,-135.52 2454.91,-137.47 2453.85,-130.55"/>
</g>
<!-- Node45 -->
<g id="node36" class="node">
<title>Node45</title>
<g id="a_node36"><a xlink:href="d__meter2__draw_8cpp.html" target="_top" xlink:title=" ">
<polygon fill="white" stroke="#666666" points="2977,-96 2867,-96 2867,-66 2977,-66 2977,-96"/>
<text text-anchor="start" x="2875" y="-84" font-family="Helvetica,sans-Serif" font-size="10.00">src/d/meter/d_meter2</text>
<text text-anchor="middle" x="2922" y="-73" font-family="Helvetica,sans-Serif" font-size="10.00">_draw.cpp</text>
</a>
</g>
</g>
<!-- Node2&#45;&gt;Node45 -->
<g id="edge38" class="edge">
<title>Node2&#45;&gt;Node45</title>
<path fill="none" stroke="#63b8ff" d="M2454.26,-140.54C2550.24,-133.29 2716.63,-118.71 2858,-96 2860.81,-95.55 2863.68,-95.05 2866.57,-94.52"/>
<polygon fill="#63b8ff" stroke="#63b8ff" points="2454.13,-137.04 2444.42,-141.27 2454.65,-144.02 2454.13,-137.04"/>
</g>
<!-- Node46 -->
<g id="node37" class="node">
<title>Node46</title>
<g id="a_node37"><a xlink:href="d__meter2__info_8cpp.html" target="_top" xlink:title=" ">
<polygon fill="white" stroke="#666666" points="3105,-96 2995,-96 2995,-66 3105,-66 3105,-96"/>
<text text-anchor="start" x="3003" y="-84" font-family="Helvetica,sans-Serif" font-size="10.00">src/d/meter/d_meter2</text>
<text text-anchor="middle" x="3050" y="-73" font-family="Helvetica,sans-Serif" font-size="10.00">_info.cpp</text>
</a>
</g>
</g>
<!-- Node2&#45;&gt;Node46 -->
<g id="edge39" class="edge">
<title>Node2&#45;&gt;Node46</title>
<path fill="none" stroke="#63b8ff" d="M2454,-142.91C2570.81,-137.59 2796.27,-124.38 2986,-96 2988.81,-95.58 2991.69,-95.11 2994.58,-94.6"/>
<polygon fill="#63b8ff" stroke="#63b8ff" points="2454.04,-139.41 2444.21,-143.35 2454.35,-146.4 2454.04,-139.41"/>
</g>
<!-- Node47 -->
<g id="node38" class="node">
<title>Node47</title>
<g id="a_node38"><a xlink:href="d__meter__string_8cpp.html" target="_top" xlink:title=" ">
<polygon fill="white" stroke="#666666" points="3227,-96 3123,-96 3123,-66 3227,-66 3227,-96"/>
<text text-anchor="start" x="3131" y="-84" font-family="Helvetica,sans-Serif" font-size="10.00">src/d/meter/d_meter</text>
<text text-anchor="middle" x="3175" y="-73" font-family="Helvetica,sans-Serif" font-size="10.00">_string.cpp</text>
</a>
</g>
</g>
<!-- Node2&#45;&gt;Node47 -->
<g id="edge40" class="edge">
<title>Node2&#45;&gt;Node47</title>
<path fill="none" stroke="#63b8ff" d="M2454.37,-144.74C2590.19,-141.66 2875.59,-131.2 3114,-96 3116.79,-95.59 3119.65,-95.11 3122.53,-94.6"/>
<polygon fill="#63b8ff" stroke="#63b8ff" points="2454.32,-141.24 2444.4,-144.95 2454.47,-148.23 2454.32,-141.24"/>
</g>
<!-- Node48 -->
<g id="node39" class="node">
<title>Node48</title>
<g id="a_node39"><a xlink:href="d__msg__class_8cpp.html" target="_top" xlink:title=" ">
<polygon fill="white" stroke="#666666" points="3384.5,-90.5 3245.5,-90.5 3245.5,-71.5 3384.5,-71.5 3384.5,-90.5"/>
<text text-anchor="middle" x="3315" y="-78.5" font-family="Helvetica,sans-Serif" font-size="10.00">src/d/msg/d_msg_class.cpp</text>
</a>
</g>
</g>
<!-- Node2&#45;&gt;Node48 -->
<g id="edge41" class="edge">
<title>Node2&#45;&gt;Node48</title>
<path fill="none" stroke="#63b8ff" d="M2454.26,-144.5C2606.33,-140.95 2949.39,-129.6 3236,-96 3246.93,-94.72 3258.64,-92.9 3269.6,-90.99"/>
<polygon fill="#63b8ff" stroke="#63b8ff" points="2454.2,-141 2444.28,-144.73 2454.36,-148 2454.2,-141"/>
</g>
<!-- Node49 -->
<g id="node40" class="node">
<title>Node49</title>
<g id="a_node40"><a xlink:href="d__msg__out__font_8cpp.html" target="_top" xlink:title=" ">
<polygon fill="white" stroke="#666666" points="3513.5,-96 3402.5,-96 3402.5,-66 3513.5,-66 3513.5,-96"/>
<text text-anchor="start" x="3410.5" y="-84" font-family="Helvetica,sans-Serif" font-size="10.00">src/d/msg/d_msg_out</text>
<text text-anchor="middle" x="3458" y="-73" font-family="Helvetica,sans-Serif" font-size="10.00">_font.cpp</text>
</a>
</g>
</g>
<!-- Node2&#45;&gt;Node49 -->
<g id="edge42" class="edge">
<title>Node2&#45;&gt;Node49</title>
<path fill="none" stroke="#63b8ff" d="M2454.17,-146.58C2626.07,-146.87 3046.01,-142.27 3394,-96 3396.71,-95.64 3399.47,-95.22 3402.25,-94.77"/>
<polygon fill="#63b8ff" stroke="#63b8ff" points="2454.24,-143.08 2444.23,-146.56 2454.22,-150.08 2454.24,-143.08"/>
</g>
<!-- Node50 -->
<g id="node41" class="node">
<title>Node50</title>
<g id="a_node41"><a xlink:href="d__msg__string_8cpp.html" target="_top" xlink:title=" ">
<polygon fill="white" stroke="#666666" points="3672,-90.5 3532,-90.5 3532,-71.5 3672,-71.5 3672,-90.5"/>
<text text-anchor="middle" x="3602" y="-78.5" font-family="Helvetica,sans-Serif" font-size="10.00">src/d/msg/d_msg_string.cpp</text>
</a>
</g>
</g>
<!-- Node2&#45;&gt;Node50 -->
<g id="edge43" class="edge">
<title>Node2&#45;&gt;Node50</title>
<path fill="none" stroke="#63b8ff" d="M2454.18,-146.14C2640.9,-145.68 3123.12,-139.95 3523,-96 3534.21,-94.77 3546.24,-92.91 3557.44,-90.95"/>
<polygon fill="#63b8ff" stroke="#63b8ff" points="2454.35,-142.64 2444.36,-146.16 2454.37,-149.64 2454.35,-142.64"/>
</g>
<!-- Node51 -->
<g id="node42" class="node">
<title>Node51</title>
<g id="a_node42"><a xlink:href="d__msg__string__base_8cpp.html" target="_top" xlink:title=" ">
<polygon fill="white" stroke="#666666" points="3812,-96 3690,-96 3690,-66 3812,-66 3812,-96"/>
<text text-anchor="start" x="3698" y="-84" font-family="Helvetica,sans-Serif" font-size="10.00">src/d/msg/d_msg_string</text>
<text text-anchor="middle" x="3751" y="-73" font-family="Helvetica,sans-Serif" font-size="10.00">_base.cpp</text>
</a>
</g>
</g>
<!-- Node2&#45;&gt;Node51 -->
<g id="edge44" class="edge">
<title>Node2&#45;&gt;Node51</title>
<path fill="none" stroke="#63b8ff" d="M2454.14,-144.62C2698.89,-140.1 3441.45,-124.36 3681,-96 3683.83,-95.66 3686.72,-95.28 3689.63,-94.85"/>
<polygon fill="#63b8ff" stroke="#63b8ff" points="2454.31,-141.12 2444.38,-144.8 2454.44,-148.12 2454.31,-141.12"/>
</g>
<!-- Node52 -->
<g id="node43" class="node">
<title>Node52</title>
<g id="a_node43"><a xlink:href="d__pane__class_8cpp.html" target="_top" xlink:title=" ">
<polygon fill="white" stroke="#666666" points="4317.5,-90.5 4174.5,-90.5 4174.5,-71.5 4317.5,-71.5 4317.5,-90.5"/>
<text text-anchor="middle" x="4246" y="-78.5" font-family="Helvetica,sans-Serif" font-size="10.00">src/d/pane/d_pane_class.cpp</text>
</a>
</g>
</g>
<!-- Node2&#45;&gt;Node52 -->
<g id="edge45" class="edge">
<title>Node2&#45;&gt;Node52</title>
<path fill="none" stroke="#63b8ff" d="M2453.93,-145.32C2754.36,-142.51 3826.64,-130.25 4166,-96 4177.64,-94.82 4190.15,-92.94 4201.73,-90.93"/>
<polygon fill="#63b8ff" stroke="#63b8ff" points="2454.21,-141.82 2444.24,-145.41 2454.27,-148.82 2454.21,-141.82"/>
</g>
<!-- Node4 -->
<g id="node4" class="node">
<title>Node4</title>
<g id="a_node4"><a xlink:href="J2DPrint_8cpp.html" target="_top" xlink:title=" ">
<polygon fill="white" stroke="#666666" points="3922.5,-30 3803.5,-30 3803.5,0 3922.5,0 3922.5,-30"/>
<text text-anchor="start" x="3811.5" y="-18" font-family="Helvetica,sans-Serif" font-size="10.00">libs/JSystem/J2DGraph</text>
<text text-anchor="middle" x="3863" y="-7" font-family="Helvetica,sans-Serif" font-size="10.00">/J2DPrint.cpp</text>
</a>
</g>
</g>
<!-- Node3&#45;&gt;Node4 -->
<g id="edge3" class="edge">
<title>Node3&#45;&gt;Node4</title>
<path fill="none" stroke="#63b8ff" d="M3911.39,-58.42C3900.85,-49.18 3888.83,-38.65 3879.41,-30.39"/>
<polygon fill="#63b8ff" stroke="#63b8ff" points="3908.83,-60.84 3918.66,-64.8 3913.45,-55.57 3908.83,-60.84"/>
</g>
<!-- Node3&#45;&gt;Node5 -->
<g id="edge4" class="edge">
<title>Node3&#45;&gt;Node5</title>
<path fill="none" stroke="#63b8ff" d="M3877.76,-62.25C3844.82,-52.21 3804.16,-39.82 3773.22,-30.39"/>
<polygon fill="#63b8ff" stroke="#63b8ff" points="3876.58,-65.55 3887.16,-65.12 3878.62,-58.85 3876.58,-65.55"/>
</g>
<!-- Node6 -->
<g id="node6" class="node">
<title>Node6</title>
<g id="a_node6"><a xlink:href="J2DTextBoxEx_8cpp.html" target="_top" xlink:title=" ">
<polygon fill="white" stroke="#666666" points="4220.5,-30 4101.5,-30 4101.5,0 4220.5,0 4220.5,-30"/>
<text text-anchor="start" x="4109.5" y="-18" font-family="Helvetica,sans-Serif" font-size="10.00">libs/JSystem/J2DGraph</text>
<text text-anchor="middle" x="4161" y="-7" font-family="Helvetica,sans-Serif" font-size="10.00">/J2DTextBoxEx.cpp</text>
</a>
</g>
</g>
<!-- Node3&#45;&gt;Node6 -->
<g id="edge5" class="edge">
<title>Node3&#45;&gt;Node6</title>
<path fill="none" stroke="#63b8ff" d="M3997.48,-62.51C4032.94,-52.43 4076.97,-39.9 4110.41,-30.39"/>
<polygon fill="#63b8ff" stroke="#63b8ff" points="3996.89,-59.04 3988.23,-65.14 3998.81,-65.77 3996.89,-59.04"/>
</g>
<!-- Node7 -->
<g id="node7" class="node">
<title>Node7</title>
<g id="a_node7"><a xlink:href="m__Do__graphic_8cpp.html" target="_top" xlink:title=" ">
<polygon fill="white" stroke="#666666" points="4083,-24.5 3941,-24.5 3941,-5.5 4083,-5.5 4083,-24.5"/>
<text text-anchor="middle" x="4012" y="-12.5" font-family="Helvetica,sans-Serif" font-size="10.00">src/m_Do/m_Do_graphic.cpp</text>
</a>
</g>
</g>
<!-- Node3&#45;&gt;Node7 -->
<g id="edge6" class="edge">
<title>Node3&#45;&gt;Node7</title>
<path fill="none" stroke="#63b8ff" d="M3961.41,-58.6C3975.07,-47.1 3991.19,-33.52 4001.5,-24.84"/>
<polygon fill="#63b8ff" stroke="#63b8ff" points="3959.42,-55.7 3954.02,-64.82 3963.93,-61.06 3959.42,-55.7"/>
</g>
<!-- Node8&#45;&gt;Node6 -->
<g id="edge9" class="edge">
<title>Node8&#45;&gt;Node6</title>
<path fill="none" stroke="#63b8ff" d="M4113.28,-58.42C4123.67,-49.18 4135.52,-38.65 4144.82,-30.39"/>
<polygon fill="#63b8ff" stroke="#63b8ff" points="4111.26,-55.53 4106.11,-64.79 4115.91,-60.76 4111.26,-55.53"/>
</g>
<!-- Node9 -->
<g id="node9" class="node">
<title>Node9</title>
<g id="a_node9"><a xlink:href="J2DScreen_8cpp.html" target="_top" xlink:title=" ">
<polygon fill="white" stroke="#666666" points="4514.5,-30 4395.5,-30 4395.5,0 4514.5,0 4514.5,-30"/>
<text text-anchor="start" x="4403.5" y="-18" font-family="Helvetica,sans-Serif" font-size="10.00">libs/JSystem/J2DGraph</text>
<text text-anchor="middle" x="4455" y="-7" font-family="Helvetica,sans-Serif" font-size="10.00">/J2DScreen.cpp</text>
</a>
</g>
</g>
<!-- Node8&#45;&gt;Node9 -->
<g id="edge8" class="edge">
<title>Node8&#45;&gt;Node9</title>
<path fill="none" stroke="#63b8ff" d="M4167.78,-65.69C4252.84,-50.63 4339.19,-35.77 4395.2,-26.19"/>
<polygon fill="#63b8ff" stroke="#63b8ff" points="4167.33,-62.22 4158.09,-67.41 4168.55,-69.11 4167.33,-62.22"/>
</g>
<!-- Node11 -->
<g id="node11" class="node">
<title>Node11</title>
<g id="a_node11"><a xlink:href="d__menu__calibration_8cpp.html" target="_top" xlink:title=" ">
<polygon fill="white" stroke="#666666" points="170,-24.5 0,-24.5 0,-5.5 170,-5.5 170,-24.5"/>
<text text-anchor="middle" x="85" y="-12.5" font-family="Helvetica,sans-Serif" font-size="10.00">src/d/menu/d_menu_calibration.cpp</text>
</a>
</g>
</g>
<!-- Node10&#45;&gt;Node11 -->
<g id="edge11" class="edge">
<title>Node10&#45;&gt;Node11</title>
<path fill="none" stroke="#63b8ff" d="M213.24,-61.85C179.54,-49.8 136.76,-34.51 110.13,-24.99"/>
<polygon fill="#63b8ff" stroke="#63b8ff" points="211.81,-65.06 222.4,-65.13 214.17,-58.47 211.81,-65.06"/>
</g>
<!-- Node10&#45;&gt;Node12 -->
<g id="edge12" class="edge">
<title>Node10&#45;&gt;Node12</title>
<path fill="none" stroke="#63b8ff" d="M264,-54.59C264,-44.06 264,-32.53 264,-24.84"/>
<polygon fill="#63b8ff" stroke="#63b8ff" points="260.5,-54.28 264,-64.28 267.5,-54.28 260.5,-54.28"/>
</g>
<!-- Node14 -->
<g id="node14" class="node">
<title>Node14</title>
<g id="a_node14"><a xlink:href="d__meter2_8cpp.html" target="_top" xlink:title=" ">
<polygon fill="white" stroke="#666666" points="608,-24.5 480,-24.5 480,-5.5 608,-5.5 608,-24.5"/>
<text text-anchor="middle" x="544" y="-12.5" font-family="Helvetica,sans-Serif" font-size="10.00">src/d/meter/d_meter2.cpp</text>
</a>
</g>
</g>
<!-- Node13&#45;&gt;Node14 -->
<g id="edge14" class="edge">
<title>Node13&#45;&gt;Node14</title>
<path fill="none" stroke="#63b8ff" d="M544,-54.59C544,-44.06 544,-32.53 544,-24.84"/>
<polygon fill="#63b8ff" stroke="#63b8ff" points="540.5,-54.28 544,-64.28 547.5,-54.28 540.5,-54.28"/>
</g>
<!-- Node15 -->
<g id="node15" class="node">
<title>Node15</title>
<g id="a_node15"><a xlink:href="d__meter__button_8cpp.html" target="_top" xlink:title=" ">
<polygon fill="white" stroke="#666666" points="462,-30 358,-30 358,0 462,0 462,-30"/>
<text text-anchor="start" x="366" y="-18" font-family="Helvetica,sans-Serif" font-size="10.00">src/d/meter/d_meter</text>
<text text-anchor="middle" x="410" y="-7" font-family="Helvetica,sans-Serif" font-size="10.00">_button.cpp</text>
</a>
</g>
</g>
<!-- Node13&#45;&gt;Node15 -->
<g id="edge15" class="edge">
<title>Node13&#45;&gt;Node15</title>
<path fill="none" stroke="#63b8ff" d="M503.64,-60.72C483.17,-50.95 458.74,-39.28 439.97,-30.31"/>
<polygon fill="#63b8ff" stroke="#63b8ff" points="502.03,-63.83 512.56,-64.98 505.05,-57.52 502.03,-63.83"/>
</g>
<!-- Node17 -->
<g id="node17" class="node">
<title>Node17</title>
<g id="a_node17"><a xlink:href="d__msg__scrn__boss_8h.html" target="_top" xlink:title=" ">
<polygon fill="#fff0f0" stroke="red" points="842.5,-30 743.5,-30 743.5,0 842.5,0 842.5,-30"/>
<text text-anchor="start" x="751.5" y="-18" font-family="Helvetica,sans-Serif" font-size="10.00">include/msg/scrn/d</text>
<text text-anchor="middle" x="793" y="-7" font-family="Helvetica,sans-Serif" font-size="10.00">_msg_scrn_boss.h</text>
</a>
</g>
</g>
<!-- Node16&#45;&gt;Node17 -->
<g id="edge17" class="edge">
<title>Node16&#45;&gt;Node17</title>
<path fill="none" stroke="#63b8ff" d="M754.72,-57.53C763.11,-48.43 772.54,-38.19 779.94,-30.16"/>
<polygon fill="#63b8ff" stroke="#63b8ff" points="752.32,-54.96 748.12,-64.68 757.47,-59.7 752.32,-54.96"/>
</g>
<!-- Node19 -->
<g id="node18" class="node">
<title>Node19</title>
<g id="a_node18"><a xlink:href="d__msg__scrn__explain_8h.html" target="_top" xlink:title=" ">
<polygon fill="#fff0f0" stroke="red" points="967.5,-30 860.5,-30 860.5,0 967.5,0 967.5,-30"/>
<text text-anchor="start" x="868.5" y="-18" font-family="Helvetica,sans-Serif" font-size="10.00">include/msg/scrn/d</text>
<text text-anchor="middle" x="914" y="-7" font-family="Helvetica,sans-Serif" font-size="10.00">_msg_scrn_explain.h</text>
</a>
</g>
</g>
<!-- Node16&#45;&gt;Node19 -->
<g id="edge18" class="edge">
<title>Node16&#45;&gt;Node19</title>
<path fill="none" stroke="#63b8ff" d="M785.17,-61.8C813.15,-51.86 847.31,-39.71 873.43,-30.43"/>
<polygon fill="#63b8ff" stroke="#63b8ff" points="784.07,-58.48 775.82,-65.13 786.42,-65.08 784.07,-58.48"/>
</g>
<!-- Node22 -->
<g id="node19" class="node">
<title>Node22</title>
<g id="a_node19"><a xlink:href="d__msg__scrn__howl_8h.html" target="_top" xlink:title=" ">
<polygon fill="#fff0f0" stroke="red" points="1084.5,-30 985.5,-30 985.5,0 1084.5,0 1084.5,-30"/>
<text text-anchor="start" x="993.5" y="-18" font-family="Helvetica,sans-Serif" font-size="10.00">include/msg/scrn/d</text>
<text text-anchor="middle" x="1035" y="-7" font-family="Helvetica,sans-Serif" font-size="10.00">_msg_scrn_howl.h</text>
</a>
</g>
</g>
<!-- Node16&#45;&gt;Node22 -->
<g id="edge19" class="edge">
<title>Node16&#45;&gt;Node22</title>
<path fill="none" stroke="#63b8ff" d="M794.67,-65.7C876.28,-48.3 898.93,-47.05 977,-30 979.63,-29.43 982.33,-28.82 985.04,-28.2"/>
<polygon fill="#63b8ff" stroke="#63b8ff" points="794.38,-62.18 785.34,-67.7 795.85,-69.02 794.38,-62.18"/>
</g>
<!-- Node24 -->
<g id="node20" class="node">
<title>Node24</title>
<g id="a_node20"><a xlink:href="d__msg__scrn__place_8h.html" target="_top" xlink:title=" ">
<polygon fill="#fff0f0" stroke="red" points="1203.5,-30 1102.5,-30 1102.5,0 1203.5,0 1203.5,-30"/>
<text text-anchor="start" x="1110.5" y="-18" font-family="Helvetica,sans-Serif" font-size="10.00">include/msg/scrn/d</text>
<text text-anchor="middle" x="1153" y="-7" font-family="Helvetica,sans-Serif" font-size="10.00">_msg_scrn_place.h</text>
</a>
</g>
</g>
<!-- Node16&#45;&gt;Node24 -->
<g id="edge20" class="edge">
<title>Node16&#45;&gt;Node24</title>
<path fill="none" stroke="#63b8ff" d="M794.81,-65.83C927.6,-42.97 964.85,-52.97 1094,-30 1096.69,-29.52 1099.45,-28.99 1102.23,-28.44"/>
<polygon fill="#63b8ff" stroke="#63b8ff" points="794.55,-62.32 785.3,-67.5 795.76,-69.22 794.55,-62.32"/>
</g>
<!-- Node26 -->
<g id="node21" class="node">
<title>Node26</title>
<g id="a_node21"><a xlink:href="d__msg__scrn__staff_8h.html" target="_top" xlink:title=" ">
<polygon fill="#fff0f0" stroke="red" points="725.5,-30 626.5,-30 626.5,0 725.5,0 725.5,-30"/>
<text text-anchor="start" x="634.5" y="-18" font-family="Helvetica,sans-Serif" font-size="10.00">include/msg/scrn/d</text>
<text text-anchor="middle" x="676" y="-7" font-family="Helvetica,sans-Serif" font-size="10.00">_msg_scrn_staff.h</text>
</a>
</g>
</g>
<!-- Node16&#45;&gt;Node26 -->
<g id="edge21" class="edge">
<title>Node16&#45;&gt;Node26</title>
<path fill="none" stroke="#63b8ff" d="M713.63,-57.53C705.39,-48.43 696.11,-38.19 688.84,-30.16"/>
<polygon fill="#63b8ff" stroke="#63b8ff" points="710.8,-59.62 720.11,-64.67 715.99,-54.91 710.8,-59.62"/>
</g>
<!-- Node53&#45;&gt;Node52 -->
<g id="edge50" class="edge">
<title>Node53&#45;&gt;Node52</title>
<path fill="none" stroke="#63b8ff" d="M4294.88,-124.27C4281.66,-112.84 4266.17,-99.44 4256.23,-90.84"/>
<polygon fill="#63b8ff" stroke="#63b8ff" points="4292.58,-126.91 4302.43,-130.81 4297.16,-121.62 4292.58,-126.91"/>
</g>
<!-- Node54 -->
<g id="node45" class="node">
<title>Node54</title>
<g id="a_node45"><a xlink:href="J2DWindowEx_8h.html" target="_top" xlink:title=" ">
<polygon fill="#fff0f0" stroke="red" points="4607.5,-96 4472.5,-96 4472.5,-66 4607.5,-66 4607.5,-96"/>
<text text-anchor="start" x="4480.5" y="-84" font-family="Helvetica,sans-Serif" font-size="10.00">include/JSystem/J2DGraph</text>
<text text-anchor="middle" x="4540" y="-73" font-family="Helvetica,sans-Serif" font-size="10.00">/J2DWindowEx.h</text>
</a>
</g>
</g>
<!-- Node53&#45;&gt;Node54 -->
<g id="edge47" class="edge">
<title>Node53&#45;&gt;Node54</title>
<path fill="none" stroke="#63b8ff" d="M4380.56,-128.38C4415.16,-118.32 4457.98,-105.86 4490.53,-96.39"/>
<polygon fill="#63b8ff" stroke="#63b8ff" points="4379.72,-124.98 4371.1,-131.13 4381.68,-131.7 4379.72,-124.98"/>
</g>
<!-- Node56 -->
<g id="node46" class="node">
<title>Node56</title>
<g id="a_node46"><a xlink:href="J2DWindow_8cpp.html" target="_top" xlink:title=" ">
<polygon fill="white" stroke="#666666" points="4454.5,-96 4335.5,-96 4335.5,-66 4454.5,-66 4454.5,-96"/>
<text text-anchor="start" x="4343.5" y="-84" font-family="Helvetica,sans-Serif" font-size="10.00">libs/JSystem/J2DGraph</text>
<text text-anchor="middle" x="4395" y="-73" font-family="Helvetica,sans-Serif" font-size="10.00">/J2DWindow.cpp</text>
</a>
</g>
</g>
<!-- Node53&#45;&gt;Node56 -->
<g id="edge49" class="edge">
<title>Node53&#45;&gt;Node56</title>
<path fill="none" stroke="#63b8ff" d="M4345.29,-124.42C4356.11,-115.18 4368.46,-104.65 4378.14,-96.39"/>
<polygon fill="#63b8ff" stroke="#63b8ff" points="4343.13,-121.66 4337.8,-130.81 4347.68,-126.99 4343.13,-121.66"/>
</g>
<!-- Node54&#45;&gt;Node9 -->
<g id="edge48" class="edge">
<title>Node54&#45;&gt;Node9</title>
<path fill="none" stroke="#63b8ff" d="M4512.08,-58.97C4499.63,-49.61 4485.3,-38.81 4474.11,-30.39"/>
<polygon fill="#63b8ff" stroke="#63b8ff" points="4509.83,-61.67 4519.93,-64.89 4514.04,-56.07 4509.83,-61.67"/>
</g>
</g>
</svg>
        <g id="navigator" transform="translate(0 0)" fill="#404254">
                <rect fill="#f2f5e9" fill-opacity="0.5" stroke="#606060" stroke-width=".5" x="0" y="0" width="60" height="60"/>
                <use id="zoomplus" xlink:href="#zoomPlus" x="17" y="9" onmousedown="handleZoom(evt,'in')"/>
                <use id="zoomminus" xlink:href="#zoomMin" x="42" y="9" onmousedown="handleZoom(evt,'out')"/>
                <use id="reset" xlink:href="#resetDef" x="30" y="36" onmousedown="handleReset()"/>
                <g id="arrowUp" xlink:href="#dirArrow" transform="translate(30 24)" onmousedown="handlePan(0,-1)">
                  <use xlink:href="#rim" fill="#404040">
                        <set attributeName="fill" to="#808080" begin="arrowUp.mouseover" end="arrowUp.mouseout"/>
                  </use>
                  <path fill="none" stroke="white" stroke-width="1.5" d="M0,-3.0v7 M-2.5,-0.5L0,-3.0L2.5,-0.5"/>
                </g>
                <g id="arrowRight" xlink:href="#dirArrow" transform="rotate(90) translate(36 -43)" onmousedown="handlePan(1,0)">
                  <use xlink:href="#rim" fill="#404040">
                        <set attributeName="fill" to="#808080" begin="arrowRight.mouseover" end="arrowRight.mouseout"/>
                  </use>
                  <path fill="none" stroke="white" stroke-width="1.5" d="M0,-3.0v7 M-2.5,-0.5L0,-3.0L2.5,-0.5"/>
                </g>
                <g id="arrowDown" xlink:href="#dirArrow" transform="rotate(180) translate(-30 -48)" onmousedown="handlePan(0,1)">
                  <use xlink:href="#rim" fill="#404040">
                        <set attributeName="fill" to="#808080" begin="arrowDown.mouseover" end="arrowDown.mouseout"/>
                  </use>
                  <path fill="none" stroke="white" stroke-width="1.5" d="M0,-3.0v7 M-2.5,-0.5L0,-3.0L2.5,-0.5"/>
                </g>
                <g id="arrowLeft" xlink:href="#dirArrow" transform="rotate(270) translate(-36 17)" onmousedown="handlePan(-1,0)">
                  <use xlink:href="#rim" fill="#404040">
                        <set attributeName="fill" to="#808080" begin="arrowLeft.mouseover" end="arrowLeft.mouseout"/>
                  </use>
                  <path fill="none" stroke="white" stroke-width="1.5" d="M0,-3.0v7 M-2.5,-0.5L0,-3.0L2.5,-0.5"/>
                </g>
        </g>
        <svg viewBox="0 0 15 15" width="100%" height="30px" preserveAspectRatio="xMaxYMin meet">
         <g id="arrow_out" transform="scale(0.3 0.3)">
          <a xlink:href="J2DMaterial_8h__dep__incl_org.svg" target="_base">
           <rect id="button" ry="5" rx="5" y="6" x="6" height="38" width="38"
                fill="#f2f5e9" fill-opacity="0.5" stroke="#606060" stroke-width="1.0"/>
           <path id="arrow"
             d="M 11.500037,31.436501 C 11.940474,20.09759 22.043105,11.32322 32.158766,21.979434 L 37.068811,17.246167 C 37.068811,17.246167 37.088388,32 37.088388,32 L 22.160133,31.978069 C 22.160133,31.978069 26.997745,27.140456 26.997745,27.140456 C 18.528582,18.264221 13.291696,25.230495 11.500037,31.436501 z"
             style="fill:#404040;"/>
          </a>
         </g>
        </svg>
</svg>
