<?xml version="1.0" encoding="UTF-8" standalone="no"?>
<!DOCTYPE svg PUBLIC "-//W3C//DTD SVG 1.1//EN"
 "http://www.w3.org/Graphics/SVG/1.1/DTD/svg11.dtd">
<!-- Generated by graphviz version 2.47.0 (20210316.2052)
 -->
<!-- Title: include/JSystem/J3DGraphAnimator/J3DAnimation.h Pages: 1 -->
<svg width="5655pt" height="374pt"
 viewBox="0.00 0.00 5654.53 374.00" xmlns="http://www.w3.org/2000/svg" xmlns:xlink="http://www.w3.org/1999/xlink">
<g id="graph0" class="graph" transform="scale(1 1) rotate(0) translate(4 370)">
<title>include/JSystem/J3DGraphAnimator/J3DAnimation.h</title>
<polygon fill="white" stroke="transparent" points="-4,4 -4,-370 5650.53,-370 5650.53,4 -4,4"/>
<!-- Node1 -->
<g id="node1" class="node">
<title>Node1</title>
<g id="a_node1"><a xlink:title=" ">
<polygon fill="#bfbfbf" stroke="black" points="4423.03,-335.5 4423.03,-365.5 4558.03,-365.5 4558.03,-335.5 4423.03,-335.5"/>
<text text-anchor="start" x="4431.03" y="-353.5" font-family="Helvetica,sans-Serif" font-size="10.00">include/JSystem/J3DGraph</text>
<text text-anchor="middle" x="4490.53" y="-342.5" font-family="Helvetica,sans-Serif" font-size="10.00">Animator/J3DAnimation.h</text>
</a>
</g>
</g>
<!-- Node2 -->
<g id="node2" class="node">
<title>Node2</title>
<g id="a_node2"><a xlink:href="m__Do__ext_8h.html" target="_top" xlink:title=" ">
<polygon fill="white" stroke="black" points="4429.53,-268.5 4429.53,-298.5 4551.53,-298.5 4551.53,-268.5 4429.53,-268.5"/>
<text text-anchor="start" x="4437.53" y="-286.5" font-family="Helvetica,sans-Serif" font-size="10.00">include/m_Do/m_Do_ext</text>
<text text-anchor="middle" x="4490.53" y="-275.5" font-family="Helvetica,sans-Serif" font-size="10.00">/m_Do_ext.h</text>
</a>
</g>
</g>
<!-- Node1&#45;&gt;Node2 -->
<g id="edge1" class="edge">
<title>Node1&#45;&gt;Node2</title>
<path fill="none" stroke="midnightblue" d="M4490.53,-325.11C4490.53,-316.15 4490.53,-306.32 4490.53,-298.58"/>
<polygon fill="midnightblue" stroke="midnightblue" points="4487.03,-325.4 4490.53,-335.4 4494.03,-325.4 4487.03,-325.4"/>
</g>
<!-- Node3 -->
<g id="node3" class="node">
<title>Node3</title>
<g id="a_node3"><a xlink:href="d__attention_8cpp.html" target="_top" xlink:title=" ">
<polygon fill="white" stroke="black" points="135.03,-6 135.03,-25 242.03,-25 242.03,-6 135.03,-6"/>
<text text-anchor="middle" x="188.53" y="-13" font-family="Helvetica,sans-Serif" font-size="10.00">src/d/d_attention.cpp</text>
</a>
</g>
</g>
<!-- Node2&#45;&gt;Node3 -->
<g id="edge2" class="edge">
<title>Node2&#45;&gt;Node3</title>
<path fill="none" stroke="midnightblue" d="M4419.05,-282.43C3970.48,-281.89 1538.53,-276.87 795.53,-232 451.41,-211.22 215.29,-389.67 31.53,-98 4.19,-54.61 79.33,-33.15 134.88,-23.47"/>
<polygon fill="midnightblue" stroke="midnightblue" points="4419.27,-285.93 4429.28,-282.45 4419.28,-278.93 4419.27,-285.93"/>
</g>
<!-- Node4 -->
<g id="node4" class="node">
<title>Node4</title>
<g id="a_node4"><a xlink:href="d__com__inf__game_8cpp.html" target="_top" xlink:title=" ">
<polygon fill="white" stroke="black" points="260.03,-0.5 260.03,-30.5 379.03,-30.5 379.03,-0.5 260.03,-0.5"/>
<text text-anchor="start" x="268.03" y="-18.5" font-family="Helvetica,sans-Serif" font-size="10.00">src/d/d_com/d_com_inf</text>
<text text-anchor="middle" x="319.53" y="-7.5" font-family="Helvetica,sans-Serif" font-size="10.00">_game.cpp</text>
</a>
</g>
</g>
<!-- Node2&#45;&gt;Node4 -->
<g id="edge3" class="edge">
<title>Node2&#45;&gt;Node4</title>
<path fill="none" stroke="midnightblue" d="M4419.11,-282.4C3861.1,-281.29 217.66,-267.54 66.53,-98 -27.82,7.83 -61.22,-94.25 250.53,-31 253.52,-30.39 256.6,-29.76 259.7,-29.13"/>
<polygon fill="midnightblue" stroke="midnightblue" points="4419.42,-285.9 4429.42,-282.42 4419.43,-278.9 4419.42,-285.9"/>
</g>
<!-- Node5 -->
<g id="node5" class="node">
<title>Node5</title>
<g id="a_node5"><a xlink:href="d__meter__HIO_8cpp.html" target="_top" xlink:title=" ">
<polygon fill="white" stroke="black" points="5381.03,-201.5 5381.03,-231.5 5496.03,-231.5 5496.03,-201.5 5381.03,-201.5"/>
<text text-anchor="start" x="5389.03" y="-219.5" font-family="Helvetica,sans-Serif" font-size="10.00">src/d/d_meter/d_meter</text>
<text text-anchor="middle" x="5438.53" y="-208.5" font-family="Helvetica,sans-Serif" font-size="10.00">_HIO.cpp</text>
</a>
</g>
</g>
<!-- Node2&#45;&gt;Node5 -->
<g id="edge4" class="edge">
<title>Node2&#45;&gt;Node5</title>
<path fill="none" stroke="midnightblue" d="M4562.02,-281.79C4711.84,-279.55 5069.41,-270.29 5366.53,-232 5371.2,-231.4 5376.03,-230.67 5380.88,-229.86"/>
<polygon fill="midnightblue" stroke="midnightblue" points="4561.55,-278.3 4551.6,-281.94 4561.65,-285.3 4561.55,-278.3"/>
</g>
<!-- Node6 -->
<g id="node6" class="node">
<title>Node6</title>
<g id="a_node6"><a xlink:href="f__op__actor__mng_8cpp.html" target="_top" xlink:title=" ">
<polygon fill="white" stroke="black" points="4802.03,-0.5 4802.03,-30.5 4909.03,-30.5 4909.03,-0.5 4802.03,-0.5"/>
<text text-anchor="start" x="4810.03" y="-18.5" font-family="Helvetica,sans-Serif" font-size="10.00">src/f/f_op/f_op_actor</text>
<text text-anchor="middle" x="4855.53" y="-7.5" font-family="Helvetica,sans-Serif" font-size="10.00">_mng.cpp</text>
</a>
</g>
</g>
<!-- Node2&#45;&gt;Node6 -->
<g id="edge5" class="edge">
<title>Node2&#45;&gt;Node6</title>
<path fill="none" stroke="midnightblue" d="M4561.87,-270.28C4702.08,-244.64 5005.18,-180.74 5065.53,-98 5073.64,-86.87 5074.05,-77.82 5065.53,-67 5064.28,-65.43 4971,-43.42 4909.2,-28.98"/>
<polygon fill="midnightblue" stroke="midnightblue" points="4560.87,-266.9 4551.66,-272.13 4562.12,-273.79 4560.87,-266.9"/>
</g>
<!-- Node7 -->
<g id="node7" class="node">
<title>Node7</title>
<g id="a_node7"><a xlink:href="f__op__msg__mng_8cpp.html" target="_top" xlink:title=" ">
<polygon fill="white" stroke="black" points="5480.53,-0.5 5480.53,-30.5 5584.53,-30.5 5584.53,-0.5 5480.53,-0.5"/>
<text text-anchor="start" x="5488.53" y="-18.5" font-family="Helvetica,sans-Serif" font-size="10.00">src/f/f_op/f_op_msg</text>
<text text-anchor="middle" x="5532.53" y="-7.5" font-family="Helvetica,sans-Serif" font-size="10.00">_mng.cpp</text>
</a>
</g>
</g>
<!-- Node2&#45;&gt;Node7 -->
<g id="edge6" class="edge">
<title>Node2&#45;&gt;Node7</title>
<path fill="none" stroke="midnightblue" d="M4561.96,-273.51C4628.05,-264.69 4728.89,-249.98 4815.53,-232 5046.68,-184.04 5105.31,-171.9 5329.53,-98 5391.38,-77.61 5461.47,-47.96 5500.99,-30.61"/>
<polygon fill="midnightblue" stroke="midnightblue" points="4561.11,-270.09 4551.65,-274.87 4562.03,-277.03 4561.11,-270.09"/>
</g>
<!-- Node8 -->
<g id="node8" class="node">
<title>Node8</title>
<g id="a_node8"><a xlink:href="m__Do__main_8cpp.html" target="_top" xlink:title=" ">
<polygon fill="white" stroke="black" points="76.03,-73 76.03,-92 207.03,-92 207.03,-73 76.03,-73"/>
<text text-anchor="middle" x="141.53" y="-80" font-family="Helvetica,sans-Serif" font-size="10.00">src/m_Do/m_Do_main.cpp</text>
</a>
</g>
</g>
<!-- Node2&#45;&gt;Node8 -->
<g id="edge7" class="edge">
<title>Node2&#45;&gt;Node8</title>
<path fill="none" stroke="midnightblue" d="M4419.32,-279.72C4228.6,-272.25 3690.33,-251.02 3242.53,-232 1903.74,-175.13 1563.42,-235.75 230.53,-98 216.51,-96.55 201.35,-94.33 187.58,-92.06"/>
<polygon fill="midnightblue" stroke="midnightblue" points="4419.36,-283.22 4429.49,-280.12 4419.63,-276.23 4419.36,-283.22"/>
</g>
<!-- Node9 -->
<g id="node9" class="node">
<title>Node9</title>
<g id="a_node9"><a xlink:href="m__Do__printf_8cpp.html" target="_top" xlink:title=" ">
<polygon fill="white" stroke="black" points="5514.53,-207 5514.53,-226 5646.53,-226 5646.53,-207 5514.53,-207"/>
<text text-anchor="middle" x="5580.53" y="-214" font-family="Helvetica,sans-Serif" font-size="10.00">src/m_Do/m_Do_printf.cpp</text>
</a>
</g>
</g>
<!-- Node2&#45;&gt;Node9 -->
<g id="edge8" class="edge">
<title>Node2&#45;&gt;Node9</title>
<path fill="none" stroke="midnightblue" d="M4561.79,-282.41C4727.84,-281.44 5153.17,-274.61 5505.53,-232 5517.51,-230.55 5530.45,-228.3 5542.15,-226"/>
<polygon fill="midnightblue" stroke="midnightblue" points="4561.68,-278.91 4551.7,-282.46 4561.72,-285.91 4561.68,-278.91"/>
</g>
<!-- Node10 -->
<g id="node10" class="node">
<title>Node10</title>
<g id="a_node10"><a xlink:href="d__attention_8h.html" target="_top" xlink:title=" ">
<polygon fill="white" stroke="black" points="3251.03,-201.5 3251.03,-231.5 3358.03,-231.5 3358.03,-201.5 3251.03,-201.5"/>
<text text-anchor="start" x="3259.03" y="-219.5" font-family="Helvetica,sans-Serif" font-size="10.00">include/d/d_attention</text>
<text text-anchor="middle" x="3304.53" y="-208.5" font-family="Helvetica,sans-Serif" font-size="10.00">/d_attention.h</text>
</a>
</g>
</g>
<!-- Node2&#45;&gt;Node10 -->
<g id="edge9" class="edge">
<title>Node2&#45;&gt;Node10</title>
<path fill="none" stroke="midnightblue" d="M4419.23,-278.59C4201.76,-266.67 3549.98,-230.95 3358.18,-220.44"/>
<polygon fill="midnightblue" stroke="midnightblue" points="4419.08,-282.09 4429.26,-279.14 4419.46,-275.1 4419.08,-282.09"/>
</g>
<!-- Node11 -->
<g id="node11" class="node">
<title>Node11</title>
<g id="a_node11"><a xlink:href="d__com__inf__game_8h.html" target="_top" xlink:title=" ">
<polygon fill="white" stroke="black" points="2638.53,-134.5 2638.53,-164.5 2784.53,-164.5 2784.53,-134.5 2638.53,-134.5"/>
<text text-anchor="start" x="2646.53" y="-152.5" font-family="Helvetica,sans-Serif" font-size="10.00">include/d/d_com/d_com</text>
<text text-anchor="middle" x="2711.53" y="-141.5" font-family="Helvetica,sans-Serif" font-size="10.00">_inf_game/d_com_inf_game.h</text>
</a>
</g>
</g>
<!-- Node10&#45;&gt;Node11 -->
<g id="edge10" class="edge">
<title>Node10&#45;&gt;Node11</title>
<path fill="none" stroke="midnightblue" d="M3240.81,-208.52C3129.89,-196.36 2901.94,-171.37 2784.71,-158.52"/>
<polygon fill="midnightblue" stroke="midnightblue" points="3240.53,-212.01 3250.85,-209.62 3241.3,-205.05 3240.53,-212.01"/>
</g>
<!-- Node11&#45;&gt;Node3 -->
<g id="edge11" class="edge">
<title>Node11&#45;&gt;Node3</title>
<path fill="none" stroke="midnightblue" d="M2628.09,-147.55C2207.46,-142.65 337.38,-119.67 281.53,-98 242.1,-82.7 208.28,-42.68 194.78,-25.05"/>
<polygon fill="midnightblue" stroke="midnightblue" points="2628.3,-151.05 2638.34,-147.67 2628.38,-144.05 2628.3,-151.05"/>
</g>
<!-- Node11&#45;&gt;Node4 -->
<g id="edge13" class="edge">
<title>Node11&#45;&gt;Node4</title>
<path fill="none" stroke="midnightblue" d="M2628.49,-147.55C2205.94,-142.61 313.41,-119.33 292.53,-98 274.38,-79.47 293.37,-48.48 307.4,-30.53"/>
<polygon fill="midnightblue" stroke="midnightblue" points="2628.46,-151.05 2638.5,-147.67 2628.54,-144.05 2628.46,-151.05"/>
</g>
<!-- Node11&#45;&gt;Node6 -->
<g id="edge32" class="edge">
<title>Node11&#45;&gt;Node6</title>
<path fill="none" stroke="midnightblue" d="M2794.99,-148.15C3189.79,-146.27 4852.26,-136.14 4889.53,-98 4908.06,-79.03 4886.02,-48.48 4869.78,-30.66"/>
<polygon fill="midnightblue" stroke="midnightblue" points="2794.77,-144.65 2784.79,-148.19 2794.81,-151.65 2794.77,-144.65"/>
</g>
<!-- Node11&#45;&gt;Node7 -->
<g id="edge36" class="edge">
<title>Node11&#45;&gt;Node7</title>
<path fill="none" stroke="midnightblue" d="M2794.99,-148.19C3224.57,-146.45 5170.93,-136.45 5292.53,-98 5316.03,-90.57 5316.05,-77.14 5338.53,-67 5351.53,-61.13 5427.49,-42.06 5480.41,-29.1"/>
<polygon fill="midnightblue" stroke="midnightblue" points="2794.81,-144.69 2784.83,-148.23 2794.84,-151.69 2794.81,-144.69"/>
</g>
<!-- Node11&#45;&gt;Node8 -->
<g id="edge42" class="edge">
<title>Node11&#45;&gt;Node8</title>
<path fill="none" stroke="midnightblue" d="M2628.25,-147.6C2222.79,-143.11 464.86,-122.36 221.53,-98 208.46,-96.69 194.33,-94.42 181.64,-92.06"/>
<polygon fill="midnightblue" stroke="midnightblue" points="2628.39,-151.1 2638.43,-147.71 2628.47,-144.1 2628.39,-151.1"/>
</g>
<!-- Node12 -->
<g id="node12" class="node">
<title>Node12</title>
<g id="a_node12"><a xlink:href="d__camera_8cpp.html" target="_top" xlink:title=" ">
<polygon fill="white" stroke="black" points="301.53,-73 301.53,-92 403.53,-92 403.53,-73 301.53,-73"/>
<text text-anchor="middle" x="352.53" y="-80" font-family="Helvetica,sans-Serif" font-size="10.00">src/d/d_camera.cpp</text>
</a>
</g>
</g>
<!-- Node11&#45;&gt;Node12 -->
<g id="edge12" class="edge">
<title>Node11&#45;&gt;Node12</title>
<path fill="none" stroke="midnightblue" d="M2628.05,-147.75C2241.44,-144.14 634.2,-127.44 411.53,-98 401.7,-96.7 391.13,-94.4 381.69,-92.01"/>
<polygon fill="midnightblue" stroke="midnightblue" points="2628.29,-151.25 2638.32,-147.85 2628.35,-144.25 2628.29,-151.25"/>
</g>
<!-- Node13 -->
<g id="node13" class="node">
<title>Node13</title>
<g id="a_node13"><a xlink:href="d__file__sel__info_8cpp.html" target="_top" xlink:title=" ">
<polygon fill="white" stroke="black" points="421.03,-67.5 421.03,-97.5 510.03,-97.5 510.03,-67.5 421.03,-67.5"/>
<text text-anchor="start" x="429.03" y="-85.5" font-family="Helvetica,sans-Serif" font-size="10.00">src/d/d_file/d_file</text>
<text text-anchor="middle" x="465.53" y="-74.5" font-family="Helvetica,sans-Serif" font-size="10.00">_sel_info.cpp</text>
</a>
</g>
</g>
<!-- Node11&#45;&gt;Node13 -->
<g id="edge14" class="edge">
<title>Node11&#45;&gt;Node13</title>
<path fill="none" stroke="midnightblue" d="M2628.26,-147.78C2253.19,-144.4 729.75,-128.85 518.53,-98 515.79,-97.6 512.99,-97.1 510.18,-96.54"/>
<polygon fill="midnightblue" stroke="midnightblue" points="2628.46,-151.29 2638.49,-147.88 2628.52,-144.29 2628.46,-151.29"/>
</g>
<!-- Node14 -->
<g id="node14" class="node">
<title>Node14</title>
<g id="a_node14"><a xlink:href="d__item_8cpp.html" target="_top" xlink:title=" ">
<polygon fill="white" stroke="black" points="4663.03,-6 4663.03,-25 4784.03,-25 4784.03,-6 4663.03,-6"/>
<text text-anchor="middle" x="4723.53" y="-13" font-family="Helvetica,sans-Serif" font-size="10.00">src/d/d_item/d_item.cpp</text>
</a>
</g>
</g>
<!-- Node11&#45;&gt;Node14 -->
<g id="edge15" class="edge">
<title>Node11&#45;&gt;Node14</title>
<path fill="none" stroke="midnightblue" d="M2794.67,-148C3171.58,-145.53 4703.06,-133.33 4737.53,-98 4756.97,-78.06 4738.9,-41.54 4729.01,-25.02"/>
<polygon fill="midnightblue" stroke="midnightblue" points="2794.63,-144.5 2784.65,-148.06 2794.67,-151.5 2794.63,-144.5"/>
</g>
<!-- Node15 -->
<g id="node15" class="node">
<title>Node15</title>
<g id="a_node15"><a xlink:href="d__kankyo__rain_8cpp.html" target="_top" xlink:title=" ">
<polygon fill="white" stroke="black" points="528.03,-67.5 528.03,-97.5 655.03,-97.5 655.03,-67.5 528.03,-67.5"/>
<text text-anchor="start" x="536.03" y="-85.5" font-family="Helvetica,sans-Serif" font-size="10.00">src/d/d_kankyo/d_kankyo</text>
<text text-anchor="middle" x="591.53" y="-74.5" font-family="Helvetica,sans-Serif" font-size="10.00">_rain.cpp</text>
</a>
</g>
</g>
<!-- Node11&#45;&gt;Node15 -->
<g id="edge16" class="edge">
<title>Node11&#45;&gt;Node15</title>
<path fill="none" stroke="midnightblue" d="M2628.31,-148.38C2294.77,-147.6 1053.8,-141.77 663.53,-98 660.74,-97.69 657.9,-97.32 655.03,-96.91"/>
<polygon fill="midnightblue" stroke="midnightblue" points="2628.38,-151.88 2638.39,-148.4 2628.39,-144.88 2628.38,-151.88"/>
</g>
<!-- Node16 -->
<g id="node16" class="node">
<title>Node16</title>
<g id="a_node16"><a xlink:href="d__kankyo__wether_8cpp.html" target="_top" xlink:title=" ">
<polygon fill="white" stroke="black" points="673.03,-67.5 673.03,-97.5 800.03,-97.5 800.03,-67.5 673.03,-67.5"/>
<text text-anchor="start" x="681.03" y="-85.5" font-family="Helvetica,sans-Serif" font-size="10.00">src/d/d_kankyo/d_kankyo</text>
<text text-anchor="middle" x="736.53" y="-74.5" font-family="Helvetica,sans-Serif" font-size="10.00">_wether.cpp</text>
</a>
</g>
</g>
<!-- Node11&#45;&gt;Node16 -->
<g id="edge17" class="edge">
<title>Node11&#45;&gt;Node16</title>
<path fill="none" stroke="midnightblue" d="M2628.44,-148.2C2310.25,-146.75 1168.93,-138.77 808.53,-98 805.74,-97.68 802.9,-97.32 800.03,-96.91"/>
<polygon fill="midnightblue" stroke="midnightblue" points="2628.5,-151.7 2638.52,-148.24 2628.53,-144.7 2628.5,-151.7"/>
</g>
<!-- Node17 -->
<g id="node17" class="node">
<title>Node17</title>
<g id="a_node17"><a xlink:href="d__kankyo_8cpp.html" target="_top" xlink:title=" ">
<polygon fill="white" stroke="black" points="818.03,-73 818.03,-92 919.03,-92 919.03,-73 818.03,-73"/>
<text text-anchor="middle" x="868.53" y="-80" font-family="Helvetica,sans-Serif" font-size="10.00">src/d/d_kankyo.cpp</text>
</a>
</g>
</g>
<!-- Node11&#45;&gt;Node17 -->
<g id="edge18" class="edge">
<title>Node11&#45;&gt;Node17</title>
<path fill="none" stroke="midnightblue" d="M2628.01,-148.49C2322,-148.09 1262.43,-143.37 927.53,-98 917.8,-96.68 907.36,-94.41 898,-92.05"/>
<polygon fill="midnightblue" stroke="midnightblue" points="2628.14,-151.99 2638.15,-148.5 2628.15,-144.99 2628.14,-151.99"/>
</g>
<!-- Node18 -->
<g id="node18" class="node">
<title>Node18</title>
<g id="a_node18"><a xlink:href="d__kantera__icon__meter_8cpp.html" target="_top" xlink:title=" ">
<polygon fill="white" stroke="black" points="937.03,-67.5 937.03,-97.5 1044.03,-97.5 1044.03,-67.5 937.03,-67.5"/>
<text text-anchor="start" x="945.03" y="-85.5" font-family="Helvetica,sans-Serif" font-size="10.00">src/d/d_kantera_icon</text>
<text text-anchor="middle" x="990.53" y="-74.5" font-family="Helvetica,sans-Serif" font-size="10.00">_meter.cpp</text>
</a>
</g>
</g>
<!-- Node11&#45;&gt;Node18 -->
<g id="edge19" class="edge">
<title>Node11&#45;&gt;Node18</title>
<path fill="none" stroke="midnightblue" d="M2628.05,-148.16C2336.13,-146.62 1362.07,-138.5 1052.53,-98 1049.78,-97.64 1046.99,-97.21 1044.17,-96.74"/>
<polygon fill="midnightblue" stroke="midnightblue" points="2628.12,-151.66 2638.14,-148.21 2628.16,-144.66 2628.12,-151.66"/>
</g>
<!-- Node19 -->
<g id="node19" class="node">
<title>Node19</title>
<g id="a_node19"><a xlink:href="d__kyeff_8cpp.html" target="_top" xlink:title=" ">
<polygon fill="white" stroke="black" points="1062.03,-73 1062.03,-92 1175.03,-92 1175.03,-73 1062.03,-73"/>
<text text-anchor="middle" x="1118.53" y="-80" font-family="Helvetica,sans-Serif" font-size="10.00">src/d/d_ky/d_kyeff.cpp</text>
</a>
</g>
</g>
<!-- Node11&#45;&gt;Node19 -->
<g id="edge20" class="edge">
<title>Node11&#45;&gt;Node19</title>
<path fill="none" stroke="midnightblue" d="M2627.75,-147.79C2350.81,-145.11 1466.4,-133.91 1183.53,-98 1172.86,-96.65 1161.36,-94.36 1151.05,-92"/>
<polygon fill="midnightblue" stroke="midnightblue" points="2628.09,-151.29 2638.13,-147.89 2628.16,-144.29 2628.09,-151.29"/>
</g>
<!-- Node20 -->
<g id="node20" class="node">
<title>Node20</title>
<g id="a_node20"><a xlink:href="d__meter__button_8cpp.html" target="_top" xlink:title=" ">
<polygon fill="white" stroke="black" points="1193.03,-67.5 1193.03,-97.5 1308.03,-97.5 1308.03,-67.5 1193.03,-67.5"/>
<text text-anchor="start" x="1201.03" y="-85.5" font-family="Helvetica,sans-Serif" font-size="10.00">src/d/d_meter/d_meter</text>
<text text-anchor="middle" x="1250.53" y="-74.5" font-family="Helvetica,sans-Serif" font-size="10.00">_button.cpp</text>
</a>
</g>
</g>
<!-- Node11&#45;&gt;Node20 -->
<g id="edge21" class="edge">
<title>Node11&#45;&gt;Node20</title>
<path fill="none" stroke="midnightblue" d="M2628,-147.45C2367.56,-143.86 1572.46,-130.48 1316.53,-98 1313.85,-97.66 1311.12,-97.26 1308.37,-96.83"/>
<polygon fill="midnightblue" stroke="midnightblue" points="2628.1,-150.95 2638.15,-147.59 2628.2,-143.95 2628.1,-150.95"/>
</g>
<!-- Node21 -->
<g id="node21" class="node">
<title>Node21</title>
<g id="a_node21"><a xlink:href="d__meter__haihai_8cpp.html" target="_top" xlink:title=" ">
<polygon fill="white" stroke="black" points="1326.03,-67.5 1326.03,-97.5 1441.03,-97.5 1441.03,-67.5 1326.03,-67.5"/>
<text text-anchor="start" x="1334.03" y="-85.5" font-family="Helvetica,sans-Serif" font-size="10.00">src/d/d_meter/d_meter</text>
<text text-anchor="middle" x="1383.53" y="-74.5" font-family="Helvetica,sans-Serif" font-size="10.00">_haihai.cpp</text>
</a>
</g>
</g>
<!-- Node11&#45;&gt;Node21 -->
<g id="edge22" class="edge">
<title>Node11&#45;&gt;Node21</title>
<path fill="none" stroke="midnightblue" d="M2628.14,-147.08C2384.82,-142.64 1678.53,-127.5 1449.53,-98 1446.85,-97.66 1444.12,-97.26 1441.37,-96.81"/>
<polygon fill="midnightblue" stroke="midnightblue" points="2628.27,-150.59 2638.33,-147.27 2628.4,-143.59 2628.27,-150.59"/>
</g>
<!-- Node22 -->
<g id="node22" class="node">
<title>Node22</title>
<g id="a_node22"><a xlink:href="d__meter__hakusha_8cpp.html" target="_top" xlink:title=" ">
<polygon fill="white" stroke="black" points="1459.03,-67.5 1459.03,-97.5 1574.03,-97.5 1574.03,-67.5 1459.03,-67.5"/>
<text text-anchor="start" x="1467.03" y="-85.5" font-family="Helvetica,sans-Serif" font-size="10.00">src/d/d_meter/d_meter</text>
<text text-anchor="middle" x="1516.53" y="-74.5" font-family="Helvetica,sans-Serif" font-size="10.00">_hakusha.cpp</text>
</a>
</g>
</g>
<!-- Node11&#45;&gt;Node22 -->
<g id="edge23" class="edge">
<title>Node11&#45;&gt;Node22</title>
<path fill="none" stroke="midnightblue" d="M2628.04,-146.62C2402.56,-141.26 1784.65,-124.52 1582.53,-98 1579.85,-97.65 1577.12,-97.24 1574.37,-96.8"/>
<polygon fill="midnightblue" stroke="midnightblue" points="2628.08,-150.13 2638.16,-146.86 2628.24,-143.13 2628.08,-150.13"/>
</g>
<!-- Node23 -->
<g id="node23" class="node">
<title>Node23</title>
<g id="a_node23"><a xlink:href="d__meter__map_8cpp.html" target="_top" xlink:title=" ">
<polygon fill="white" stroke="black" points="1592.03,-67.5 1592.03,-97.5 1707.03,-97.5 1707.03,-67.5 1592.03,-67.5"/>
<text text-anchor="start" x="1600.03" y="-85.5" font-family="Helvetica,sans-Serif" font-size="10.00">src/d/d_meter/d_meter</text>
<text text-anchor="middle" x="1649.53" y="-74.5" font-family="Helvetica,sans-Serif" font-size="10.00">_map.cpp</text>
</a>
</g>
</g>
<!-- Node11&#45;&gt;Node23 -->
<g id="edge24" class="edge">
<title>Node11&#45;&gt;Node23</title>
<path fill="none" stroke="midnightblue" d="M2628.13,-148.92C2456.5,-148.76 2051.64,-143.13 1715.53,-98 1712.85,-97.64 1710.12,-97.23 1707.38,-96.78"/>
<polygon fill="midnightblue" stroke="midnightblue" points="2628.35,-152.42 2638.35,-148.92 2628.35,-145.42 2628.35,-152.42"/>
</g>
<!-- Node24 -->
<g id="node24" class="node">
<title>Node24</title>
<g id="a_node24"><a xlink:href="d__meter__string_8cpp.html" target="_top" xlink:title=" ">
<polygon fill="white" stroke="black" points="1725.03,-67.5 1725.03,-97.5 1840.03,-97.5 1840.03,-67.5 1725.03,-67.5"/>
<text text-anchor="start" x="1733.03" y="-85.5" font-family="Helvetica,sans-Serif" font-size="10.00">src/d/d_meter/d_meter</text>
<text text-anchor="middle" x="1782.53" y="-74.5" font-family="Helvetica,sans-Serif" font-size="10.00">_string.cpp</text>
</a>
</g>
</g>
<!-- Node11&#45;&gt;Node24 -->
<g id="edge25" class="edge">
<title>Node11&#45;&gt;Node24</title>
<path fill="none" stroke="midnightblue" d="M2628.05,-147.98C2473.51,-146.05 2132.65,-137.27 1848.53,-98 1845.85,-97.63 1843.13,-97.21 1840.38,-96.75"/>
<polygon fill="midnightblue" stroke="midnightblue" points="2628.37,-151.48 2638.41,-148.1 2628.45,-144.49 2628.37,-151.48"/>
</g>
<!-- Node25 -->
<g id="node25" class="node">
<title>Node25</title>
<g id="a_node25"><a xlink:href="d__meter2__draw_8cpp.html" target="_top" xlink:title=" ">
<polygon fill="white" stroke="black" points="1858.03,-67.5 1858.03,-97.5 1983.03,-97.5 1983.03,-67.5 1858.03,-67.5"/>
<text text-anchor="start" x="1866.03" y="-85.5" font-family="Helvetica,sans-Serif" font-size="10.00">src/d/d_meter2/d_meter2</text>
<text text-anchor="middle" x="1920.53" y="-74.5" font-family="Helvetica,sans-Serif" font-size="10.00">_draw.cpp</text>
</a>
</g>
</g>
<!-- Node11&#45;&gt;Node25 -->
<g id="edge26" class="edge">
<title>Node11&#45;&gt;Node25</title>
<path fill="none" stroke="midnightblue" d="M2628.16,-146.21C2493.65,-141.72 2220.67,-129.3 1991.53,-98 1988.78,-97.63 1985.99,-97.21 1983.17,-96.76"/>
<polygon fill="midnightblue" stroke="midnightblue" points="2628.27,-149.71 2638.38,-146.54 2628.5,-142.72 2628.27,-149.71"/>
</g>
<!-- Node26 -->
<g id="node26" class="node">
<title>Node26</title>
<g id="a_node26"><a xlink:href="d__meter2__info_8cpp.html" target="_top" xlink:title=" ">
<polygon fill="white" stroke="black" points="2001.03,-67.5 2001.03,-97.5 2126.03,-97.5 2126.03,-67.5 2001.03,-67.5"/>
<text text-anchor="start" x="2009.03" y="-85.5" font-family="Helvetica,sans-Serif" font-size="10.00">src/d/d_meter2/d_meter2</text>
<text text-anchor="middle" x="2063.53" y="-74.5" font-family="Helvetica,sans-Serif" font-size="10.00">_info.cpp</text>
</a>
</g>
</g>
<!-- Node11&#45;&gt;Node26 -->
<g id="edge27" class="edge">
<title>Node11&#45;&gt;Node26</title>
<path fill="none" stroke="midnightblue" d="M2628.24,-144.11C2515.94,-137.54 2309.92,-123.13 2135.53,-98 2132.5,-97.56 2129.4,-97.08 2126.28,-96.57"/>
<polygon fill="midnightblue" stroke="midnightblue" points="2628.3,-147.62 2638.48,-144.71 2628.7,-140.64 2628.3,-147.62"/>
</g>
<!-- Node27 -->
<g id="node27" class="node">
<title>Node27</title>
<g id="a_node27"><a xlink:href="d__meter2_8cpp.html" target="_top" xlink:title=" ">
<polygon fill="white" stroke="black" points="2144.53,-73 2144.53,-92 2244.53,-92 2244.53,-73 2144.53,-73"/>
<text text-anchor="middle" x="2194.53" y="-80" font-family="Helvetica,sans-Serif" font-size="10.00">src/d/d_meter2.cpp</text>
</a>
</g>
</g>
<!-- Node11&#45;&gt;Node27 -->
<g id="edge28" class="edge">
<title>Node11&#45;&gt;Node27</title>
<path fill="none" stroke="midnightblue" d="M2628.42,-142.63C2536.3,-135.36 2383.54,-121.04 2253.53,-98 2244.49,-96.4 2234.78,-94.21 2225.9,-92.02"/>
<polygon fill="midnightblue" stroke="midnightblue" points="2628.28,-146.13 2638.52,-143.42 2628.83,-139.15 2628.28,-146.13"/>
</g>
<!-- Node28 -->
<g id="node28" class="node">
<title>Node28</title>
<g id="a_node28"><a xlink:href="d__save_8cpp.html" target="_top" xlink:title=" ">
<polygon fill="white" stroke="black" points="2263.03,-73 2263.03,-92 2388.03,-92 2388.03,-73 2263.03,-73"/>
<text text-anchor="middle" x="2325.53" y="-80" font-family="Helvetica,sans-Serif" font-size="10.00">src/d/d_save/d_save.cpp</text>
</a>
</g>
</g>
<!-- Node11&#45;&gt;Node28 -->
<g id="edge29" class="edge">
<title>Node11&#45;&gt;Node28</title>
<path fill="none" stroke="midnightblue" d="M2628.52,-136.18C2564.9,-126.5 2475.01,-112.3 2396.53,-98 2386.5,-96.17 2375.71,-94.05 2365.64,-92"/>
<polygon fill="midnightblue" stroke="midnightblue" points="2628.08,-139.65 2638.49,-137.69 2629.13,-132.73 2628.08,-139.65"/>
</g>
<!-- Node29 -->
<g id="node29" class="node">
<title>Node29</title>
<g id="a_node29"><a xlink:href="d__save__HIO_8cpp.html" target="_top" xlink:title=" ">
<polygon fill="white" stroke="black" points="2406.03,-67.5 2406.03,-97.5 2513.03,-97.5 2513.03,-67.5 2406.03,-67.5"/>
<text text-anchor="start" x="2414.03" y="-85.5" font-family="Helvetica,sans-Serif" font-size="10.00">src/d/d_save/d_save</text>
<text text-anchor="middle" x="2459.53" y="-74.5" font-family="Helvetica,sans-Serif" font-size="10.00">_HIO.cpp</text>
</a>
</g>
</g>
<!-- Node11&#45;&gt;Node29 -->
<g id="edge30" class="edge">
<title>Node11&#45;&gt;Node29</title>
<path fill="none" stroke="midnightblue" d="M2647.43,-131.97C2605.97,-121.27 2552.62,-107.51 2513.36,-97.39"/>
<polygon fill="midnightblue" stroke="midnightblue" points="2646.6,-135.37 2657.16,-134.48 2648.35,-128.59 2646.6,-135.37"/>
</g>
<!-- Node30 -->
<g id="node30" class="node">
<title>Node30</title>
<g id="a_node30"><a xlink:href="d__stage_8cpp.html" target="_top" xlink:title=" ">
<polygon fill="white" stroke="black" points="2531.53,-73 2531.53,-92 2625.53,-92 2625.53,-73 2531.53,-73"/>
<text text-anchor="middle" x="2578.53" y="-80" font-family="Helvetica,sans-Serif" font-size="10.00">src/d/d_stage.cpp</text>
</a>
</g>
</g>
<!-- Node11&#45;&gt;Node30 -->
<g id="edge31" class="edge">
<title>Node11&#45;&gt;Node30</title>
<path fill="none" stroke="midnightblue" d="M2673.6,-129.97C2648.06,-117.48 2615.56,-101.6 2595.93,-92.01"/>
<polygon fill="midnightblue" stroke="midnightblue" points="2672.14,-133.15 2682.67,-134.4 2675.22,-126.86 2672.14,-133.15"/>
</g>
<!-- Node31 -->
<g id="node31" class="node">
<title>Node31</title>
<g id="a_node31"><a xlink:href="f__op__camera_8cpp.html" target="_top" xlink:title=" ">
<polygon fill="white" stroke="black" points="2644.03,-73 2644.03,-92 2779.03,-92 2779.03,-73 2644.03,-73"/>
<text text-anchor="middle" x="2711.53" y="-80" font-family="Helvetica,sans-Serif" font-size="10.00">src/f/f_op/f_op_camera.cpp</text>
</a>
</g>
</g>
<!-- Node11&#45;&gt;Node31 -->
<g id="edge33" class="edge">
<title>Node11&#45;&gt;Node31</title>
<path fill="none" stroke="midnightblue" d="M2711.53,-124.25C2711.53,-113.02 2711.53,-100.38 2711.53,-92.19"/>
<polygon fill="midnightblue" stroke="midnightblue" points="2708.03,-124.4 2711.53,-134.4 2715.03,-124.4 2708.03,-124.4"/>
</g>
<!-- Node32 -->
<g id="node32" class="node">
<title>Node32</title>
<g id="a_node32"><a xlink:href="f__op__kankyo__mng_8cpp.html" target="_top" xlink:title=" ">
<polygon fill="white" stroke="black" points="5064.53,-0.5 5064.53,-30.5 5180.53,-30.5 5180.53,-0.5 5064.53,-0.5"/>
<text text-anchor="start" x="5072.53" y="-18.5" font-family="Helvetica,sans-Serif" font-size="10.00">src/f/f_op/f_op_kankyo</text>
<text text-anchor="middle" x="5122.53" y="-7.5" font-family="Helvetica,sans-Serif" font-size="10.00">_mng.cpp</text>
</a>
</g>
</g>
<!-- Node11&#45;&gt;Node32 -->
<g id="edge34" class="edge">
<title>Node11&#45;&gt;Node32</title>
<path fill="none" stroke="midnightblue" d="M2794.78,-148.82C3201.42,-150.11 4963.52,-152.53 5065.53,-98 5092.63,-83.51 5109.6,-49.77 5117.42,-30.55"/>
<polygon fill="midnightblue" stroke="midnightblue" points="2794.58,-145.32 2784.57,-148.79 2794.55,-152.32 2794.58,-145.32"/>
</g>
<!-- Node33 -->
<g id="node33" class="node">
<title>Node33</title>
<g id="a_node33"><a xlink:href="f__op__kankyo_8cpp.html" target="_top" xlink:title=" ">
<polygon fill="white" stroke="black" points="2797.53,-73 2797.53,-92 2931.53,-92 2931.53,-73 2797.53,-73"/>
<text text-anchor="middle" x="2864.53" y="-80" font-family="Helvetica,sans-Serif" font-size="10.00">src/f/f_op/f_op_kankyo.cpp</text>
</a>
</g>
</g>
<!-- Node11&#45;&gt;Node33 -->
<g id="edge35" class="edge">
<title>Node11&#45;&gt;Node33</title>
<path fill="none" stroke="midnightblue" d="M2753.99,-130.46C2783.55,-117.9 2821.63,-101.72 2844.5,-92.01"/>
<polygon fill="midnightblue" stroke="midnightblue" points="2752.56,-127.26 2744.72,-134.4 2755.3,-133.71 2752.56,-127.26"/>
</g>
<!-- Node34 -->
<g id="node34" class="node">
<title>Node34</title>
<g id="a_node34"><a xlink:href="f__pc__manager_8cpp.html" target="_top" xlink:title=" ">
<polygon fill="white" stroke="black" points="5322.53,-6 5322.53,-25 5462.53,-25 5462.53,-6 5322.53,-6"/>
<text text-anchor="middle" x="5392.53" y="-13" font-family="Helvetica,sans-Serif" font-size="10.00">src/f/f_pc/f_pc_manager.cpp</text>
</a>
</g>
</g>
<!-- Node11&#45;&gt;Node34 -->
<g id="edge37" class="edge">
<title>Node11&#45;&gt;Node34</title>
<path fill="none" stroke="midnightblue" d="M2794.93,-148.24C3220.89,-146.74 5138.29,-137.81 5257.53,-98 5279.87,-90.54 5280.61,-79.58 5300.53,-67 5325.94,-50.95 5356.81,-34.61 5375.55,-25.02"/>
<polygon fill="midnightblue" stroke="midnightblue" points="2794.83,-144.74 2784.84,-148.28 2794.86,-151.74 2794.83,-144.74"/>
</g>
<!-- Node35 -->
<g id="node35" class="node">
<title>Node35</title>
<g id="a_node35"><a xlink:href="m__Do__audio_8cpp.html" target="_top" xlink:title=" ">
<polygon fill="white" stroke="black" points="2949.53,-73 2949.53,-92 3083.53,-92 3083.53,-73 2949.53,-73"/>
<text text-anchor="middle" x="3016.53" y="-80" font-family="Helvetica,sans-Serif" font-size="10.00">src/m_Do/m_Do_audio.cpp</text>
</a>
</g>
</g>
<!-- Node11&#45;&gt;Node35 -->
<g id="edge38" class="edge">
<title>Node11&#45;&gt;Node35</title>
<path fill="none" stroke="midnightblue" d="M2787.13,-132.39C2847.09,-119.61 2928.53,-102.25 2976.51,-92.03"/>
<polygon fill="midnightblue" stroke="midnightblue" points="2786.38,-128.97 2777.33,-134.48 2787.84,-135.81 2786.38,-128.97"/>
</g>
<!-- Node36 -->
<g id="node36" class="node">
<title>Node36</title>
<g id="a_node36"><a xlink:href="m__Do__graphic_8cpp.html" target="_top" xlink:title=" ">
<polygon fill="white" stroke="black" points="3101.53,-73 3101.53,-92 3243.53,-92 3243.53,-73 3101.53,-73"/>
<text text-anchor="middle" x="3172.53" y="-80" font-family="Helvetica,sans-Serif" font-size="10.00">src/m_Do/m_Do_graphic.cpp</text>
</a>
</g>
</g>
<!-- Node11&#45;&gt;Node36 -->
<g id="edge39" class="edge">
<title>Node11&#45;&gt;Node36</title>
<path fill="none" stroke="midnightblue" d="M2794.87,-138.61C2872.17,-129.16 2990.33,-114.03 3092.53,-98 3103.96,-96.21 3116.28,-94.07 3127.74,-92"/>
<polygon fill="midnightblue" stroke="midnightblue" points="2794.22,-135.16 2784.71,-139.85 2795.06,-142.11 2794.22,-135.16"/>
</g>
<!-- Node37 -->
<g id="node37" class="node">
<title>Node37</title>
<g id="a_node37"><a xlink:href="m__Do__lib_8cpp.html" target="_top" xlink:title=" ">
<polygon fill="white" stroke="black" points="3261.53,-73 3261.53,-92 3381.53,-92 3381.53,-73 3261.53,-73"/>
<text text-anchor="middle" x="3321.53" y="-80" font-family="Helvetica,sans-Serif" font-size="10.00">src/m_Do/m_Do_lib.cpp</text>
</a>
</g>
</g>
<!-- Node11&#45;&gt;Node37 -->
<g id="edge40" class="edge">
<title>Node11&#45;&gt;Node37</title>
<path fill="none" stroke="midnightblue" d="M2794.96,-143.67C2901.53,-136.83 3091.46,-122.36 3252.53,-98 3263.05,-96.41 3274.4,-94.22 3284.78,-92.03"/>
<polygon fill="midnightblue" stroke="midnightblue" points="2794.67,-140.19 2784.91,-144.31 2795.11,-147.17 2794.67,-140.19"/>
</g>
<!-- Node38 -->
<g id="node38" class="node">
<title>Node38</title>
<g id="a_node38"><a xlink:href="m__Do__machine__exception_8cpp.html" target="_top" xlink:title=" ">
<polygon fill="white" stroke="black" points="3400.03,-67.5 3400.03,-97.5 3529.03,-97.5 3529.03,-67.5 3400.03,-67.5"/>
<text text-anchor="start" x="3408.03" y="-85.5" font-family="Helvetica,sans-Serif" font-size="10.00">src/m_Do/m_Do_machine</text>
<text text-anchor="middle" x="3464.53" y="-74.5" font-family="Helvetica,sans-Serif" font-size="10.00">_exception.cpp</text>
</a>
</g>
</g>
<!-- Node11&#45;&gt;Node38 -->
<g id="edge41" class="edge">
<title>Node11&#45;&gt;Node38</title>
<path fill="none" stroke="midnightblue" d="M2794.82,-145.51C2923.2,-140.17 3176.95,-126.76 3390.53,-98 3393.51,-97.6 3396.55,-97.15 3399.63,-96.67"/>
<polygon fill="midnightblue" stroke="midnightblue" points="2794.52,-142.02 2784.67,-145.92 2794.81,-149.01 2794.52,-142.02"/>
</g>
<!-- Node39 -->
<g id="node39" class="node">
<title>Node39</title>
<g id="a_node39"><a xlink:href="m__Do__MemCardRWmng_8cpp.html" target="_top" xlink:title=" ">
<polygon fill="white" stroke="black" points="3547.03,-73 3547.03,-92 3734.03,-92 3734.03,-73 3547.03,-73"/>
<text text-anchor="middle" x="3640.53" y="-80" font-family="Helvetica,sans-Serif" font-size="10.00">src/m_Do/m_Do_MemCardRWmng.cpp</text>
</a>
</g>
</g>
<!-- Node11&#45;&gt;Node39 -->
<g id="edge43" class="edge">
<title>Node11&#45;&gt;Node39</title>
<path fill="none" stroke="midnightblue" d="M2794.71,-145.63C2943.99,-139.99 3267.13,-125.53 3538.53,-98 3554.1,-96.42 3570.94,-94.23 3586.36,-92.02"/>
<polygon fill="midnightblue" stroke="midnightblue" points="2794.56,-142.13 2784.7,-146 2794.82,-149.13 2794.56,-142.13"/>
</g>
<!-- Node40 -->
<g id="node40" class="node">
<title>Node40</title>
<g id="a_node40"><a xlink:href="m__Do__ext_8cpp.html" target="_top" xlink:title=" ">
<polygon fill="white" stroke="black" points="3752.03,-73 3752.03,-92 3875.03,-92 3875.03,-73 3752.03,-73"/>
<text text-anchor="middle" x="3813.53" y="-80" font-family="Helvetica,sans-Serif" font-size="10.00">src/m_Do/m_Do_ext.cpp</text>
</a>
</g>
</g>
<!-- Node11&#45;&gt;Node40 -->
<g id="edge44" class="edge">
<title>Node11&#45;&gt;Node40</title>
<path fill="none" stroke="midnightblue" d="M2794.97,-148.8C2971.02,-148.46 3393.06,-142.6 3743.53,-98 3754.73,-96.57 3766.81,-94.33 3777.73,-92.03"/>
<polygon fill="midnightblue" stroke="midnightblue" points="2794.74,-145.3 2784.75,-148.81 2794.75,-152.3 2794.74,-145.3"/>
</g>
<!-- Node41 -->
<g id="node41" class="node">
<title>Node41</title>
<g id="a_node41"><a xlink:href="Z2EnvSeMgr_8cpp.html" target="_top" xlink:title=" ">
<polygon fill="white" stroke="black" points="3893.03,-73 3893.03,-92 4054.03,-92 4054.03,-73 3893.03,-73"/>
<text text-anchor="middle" x="3973.53" y="-80" font-family="Helvetica,sans-Serif" font-size="10.00">libs/Z2AudioLib/Z2EnvSeMgr.cpp</text>
</a>
</g>
</g>
<!-- Node11&#45;&gt;Node41 -->
<g id="edge45" class="edge">
<title>Node11&#45;&gt;Node41</title>
<path fill="none" stroke="midnightblue" d="M2794.88,-148.3C2987.34,-147.09 3477.4,-139.78 3884.53,-98 3898.54,-96.56 3913.7,-94.34 3927.47,-92.07"/>
<polygon fill="midnightblue" stroke="midnightblue" points="2794.81,-144.8 2784.83,-148.36 2794.85,-151.8 2794.81,-144.8"/>
</g>
<!-- Node42 -->
<g id="node42" class="node">
<title>Node42</title>
<g id="a_node42"><a xlink:href="Z2LinkMgr_8cpp.html" target="_top" xlink:title=" ">
<polygon fill="white" stroke="black" points="4072.53,-73 4072.53,-92 4224.53,-92 4224.53,-73 4072.53,-73"/>
<text text-anchor="middle" x="4148.53" y="-80" font-family="Helvetica,sans-Serif" font-size="10.00">libs/Z2AudioLib/Z2LinkMgr.cpp</text>
</a>
</g>
</g>
<!-- Node11&#45;&gt;Node42 -->
<g id="edge46" class="edge">
<title>Node11&#45;&gt;Node42</title>
<path fill="none" stroke="midnightblue" d="M2794.8,-149.19C3007.01,-150.13 3585.1,-147.52 4063.53,-98 4077.08,-96.6 4091.73,-94.36 4105,-92.06"/>
<polygon fill="midnightblue" stroke="midnightblue" points="2794.69,-145.69 2784.67,-149.14 2794.66,-152.69 2794.69,-145.69"/>
</g>
<!-- Node43 -->
<g id="node43" class="node">
<title>Node43</title>
<g id="a_node43"><a xlink:href="Z2SceneMgr_8cpp.html" target="_top" xlink:title=" ">
<polygon fill="white" stroke="black" points="4243.03,-73 4243.03,-92 4404.03,-92 4404.03,-73 4243.03,-73"/>
<text text-anchor="middle" x="4323.53" y="-80" font-family="Helvetica,sans-Serif" font-size="10.00">libs/Z2AudioLib/Z2SceneMgr.cpp</text>
</a>
</g>
</g>
<!-- Node11&#45;&gt;Node43 -->
<g id="edge47" class="edge">
<title>Node11&#45;&gt;Node43</title>
<path fill="none" stroke="midnightblue" d="M2794.9,-147.13C3070.52,-142.36 3950.82,-125.35 4233.53,-98 4248.02,-96.6 4263.72,-94.33 4277.88,-92"/>
<polygon fill="midnightblue" stroke="midnightblue" points="2794.51,-143.63 2784.57,-147.3 2794.63,-150.63 2794.51,-143.63"/>
</g>
<!-- Node44 -->
<g id="node44" class="node">
<title>Node44</title>
<g id="a_node44"><a xlink:href="Z2SoundMgr_8cpp.html" target="_top" xlink:title=" ">
<polygon fill="white" stroke="black" points="4422.03,-73 4422.03,-92 4583.03,-92 4583.03,-73 4422.03,-73"/>
<text text-anchor="middle" x="4502.53" y="-80" font-family="Helvetica,sans-Serif" font-size="10.00">libs/Z2AudioLib/Z2SoundMgr.cpp</text>
</a>
</g>
</g>
<!-- Node11&#45;&gt;Node44 -->
<g id="edge48" class="edge">
<title>Node11&#45;&gt;Node44</title>
<path fill="none" stroke="midnightblue" d="M2795.05,-147.48C3091.71,-143.64 4093.99,-128.64 4413.53,-98 4427.86,-96.63 4443.39,-94.37 4457.4,-92.04"/>
<polygon fill="midnightblue" stroke="midnightblue" points="2794.75,-143.99 2784.79,-147.61 2794.84,-150.98 2794.75,-143.99"/>
</g>
<!-- Node45 -->
<g id="node45" class="node">
<title>Node45</title>
<g id="a_node45"><a xlink:href="Z2StatusMgr_8cpp.html" target="_top" xlink:title=" ">
<polygon fill="white" stroke="black" points="4601.03,-67.5 4601.03,-97.5 4728.03,-97.5 4728.03,-67.5 4601.03,-67.5"/>
<text text-anchor="start" x="4609.03" y="-85.5" font-family="Helvetica,sans-Serif" font-size="10.00">libs/Z2AudioLib/Z2Status</text>
<text text-anchor="middle" x="4664.53" y="-74.5" font-family="Helvetica,sans-Serif" font-size="10.00">Mgr.cpp</text>
</a>
</g>
</g>
<!-- Node11&#45;&gt;Node45 -->
<g id="edge49" class="edge">
<title>Node11&#45;&gt;Node45</title>
<path fill="none" stroke="midnightblue" d="M2794.71,-148.17C3110.71,-146.61 4236.69,-138.3 4592.53,-98 4595.31,-97.68 4598.15,-97.32 4601.02,-96.91"/>
<polygon fill="midnightblue" stroke="midnightblue" points="2794.69,-144.67 2784.71,-148.22 2794.72,-151.67 2794.69,-144.67"/>
</g>
<!-- Node46 -->
<g id="node46" class="node">
<title>Node46</title>
<g id="a_node46"><a xlink:href="d__a__alink_8h.html" target="_top" xlink:title=" ">
<polygon fill="white" stroke="black" points="4937.03,-67.5 4937.03,-97.5 5056.03,-97.5 5056.03,-67.5 4937.03,-67.5"/>
<text text-anchor="start" x="4945.03" y="-85.5" font-family="Helvetica,sans-Serif" font-size="10.00">include/d/d_a/d_a_alink</text>
<text text-anchor="middle" x="4996.53" y="-74.5" font-family="Helvetica,sans-Serif" font-size="10.00">/d_a_alink.h</text>
</a>
</g>
</g>
<!-- Node11&#45;&gt;Node46 -->
<g id="edge50" class="edge">
<title>Node11&#45;&gt;Node46</title>
<path fill="none" stroke="midnightblue" d="M2794.58,-148.5C3144.28,-148.21 4498.36,-144.06 4922.53,-98 4927.21,-97.49 4932.04,-96.84 4936.88,-96.09"/>
<polygon fill="midnightblue" stroke="midnightblue" points="2794.53,-145 2784.53,-148.51 2794.53,-152 2794.53,-145"/>
</g>
<!-- Node48 -->
<g id="node48" class="node">
<title>Node48</title>
<g id="a_node48"><a xlink:href="d__item_8h.html" target="_top" xlink:title=" ">
<polygon fill="white" stroke="black" points="4784.53,-67.5 4784.53,-97.5 4880.53,-97.5 4880.53,-67.5 4784.53,-67.5"/>
<text text-anchor="start" x="4792.53" y="-85.5" font-family="Helvetica,sans-Serif" font-size="10.00">include/d/d_item/d</text>
<text text-anchor="middle" x="4832.53" y="-74.5" font-family="Helvetica,sans-Serif" font-size="10.00">_item/d_item.h</text>
</a>
</g>
</g>
<!-- Node11&#45;&gt;Node48 -->
<g id="edge53" class="edge">
<title>Node11&#45;&gt;Node48</title>
<path fill="none" stroke="midnightblue" d="M2794.66,-148.74C3129.32,-149.33 4378.67,-148.09 4770.53,-98 4775.02,-97.43 4779.67,-96.66 4784.3,-95.79"/>
<polygon fill="midnightblue" stroke="midnightblue" points="2794.56,-145.24 2784.56,-148.72 2794.55,-152.24 2794.56,-145.24"/>
</g>
<!-- Node49 -->
<g id="node49" class="node">
<title>Node49</title>
<g id="a_node49"><a xlink:href="f__pc__manager_8h.html" target="_top" xlink:title=" ">
<polygon fill="white" stroke="red" points="5151.03,-67.5 5151.03,-97.5 5248.03,-97.5 5248.03,-67.5 5151.03,-67.5"/>
<text text-anchor="start" x="5159.03" y="-85.5" font-family="Helvetica,sans-Serif" font-size="10.00">include/f/f_pc/f_pc</text>
<text text-anchor="middle" x="5199.53" y="-74.5" font-family="Helvetica,sans-Serif" font-size="10.00">_manager.h</text>
</a>
</g>
</g>
<!-- Node11&#45;&gt;Node49 -->
<g id="edge57" class="edge">
<title>Node11&#45;&gt;Node49</title>
<path fill="none" stroke="midnightblue" d="M2794.61,-147.78C3193.27,-144.21 4900.56,-127.3 5136.53,-98 5141.2,-97.42 5146.04,-96.64 5150.86,-95.74"/>
<polygon fill="midnightblue" stroke="midnightblue" points="2794.56,-144.28 2784.59,-147.87 2794.62,-151.28 2794.56,-144.28"/>
</g>
<!-- Node46&#45;&gt;Node3 -->
<g id="edge51" class="edge">
<title>Node46&#45;&gt;Node3</title>
<path fill="none" stroke="midnightblue" d="M4926.7,-70.74C4914.34,-69.21 4901.58,-67.86 4889.53,-67 4375.37,-30.32 762.35,-92.07 250.53,-31 240.1,-29.76 228.87,-27.44 218.87,-25.02"/>
<polygon fill="midnightblue" stroke="midnightblue" points="4926.59,-74.25 4936.96,-72.06 4927.49,-67.31 4926.59,-74.25"/>
</g>
<!-- Node47 -->
<g id="node47" class="node">
<title>Node47</title>
<g id="a_node47"><a xlink:href="d__a__alink_8cpp.html" target="_top" xlink:title=" ">
<polygon fill="white" stroke="black" points="4927.03,-6 4927.03,-25 5046.03,-25 5046.03,-6 4927.03,-6"/>
<text text-anchor="middle" x="4986.53" y="-13" font-family="Helvetica,sans-Serif" font-size="10.00">src/d/d_a/d_a_alink.cpp</text>
</a>
</g>
</g>
<!-- Node46&#45;&gt;Node47 -->
<g id="edge52" class="edge">
<title>Node46&#45;&gt;Node47</title>
<path fill="none" stroke="midnightblue" d="M4992.79,-57.25C4991.07,-46.02 4989.12,-33.38 4987.86,-25.19"/>
<polygon fill="midnightblue" stroke="midnightblue" points="4989.38,-58.04 4994.36,-67.4 4996.29,-56.98 4989.38,-58.04"/>
</g>
<!-- Node48&#45;&gt;Node4 -->
<g id="edge54" class="edge">
<title>Node48&#45;&gt;Node4</title>
<path fill="none" stroke="midnightblue" d="M4774.33,-71.3C4762.21,-69.55 4749.48,-67.98 4737.53,-67 4283.83,-29.97 872.98,-18.19 379.07,-16.67"/>
<polygon fill="midnightblue" stroke="midnightblue" points="4773.94,-74.78 4784.35,-72.81 4774.98,-67.86 4773.94,-74.78"/>
</g>
<!-- Node48&#45;&gt;Node6 -->
<g id="edge56" class="edge">
<title>Node48&#45;&gt;Node6</title>
<path fill="none" stroke="midnightblue" d="M4840.95,-57.7C4844.17,-48.59 4847.74,-38.49 4850.54,-30.58"/>
<polygon fill="midnightblue" stroke="midnightblue" points="4837.55,-56.8 4837.52,-67.4 4844.15,-59.14 4837.55,-56.8"/>
</g>
<!-- Node48&#45;&gt;Node14 -->
<g id="edge55" class="edge">
<title>Node48&#45;&gt;Node14</title>
<path fill="none" stroke="midnightblue" d="M4800.06,-62.14C4779.35,-49.79 4753.52,-34.39 4737.79,-25.01"/>
<polygon fill="midnightblue" stroke="midnightblue" points="4798.49,-65.28 4808.87,-67.4 4802.08,-59.27 4798.49,-65.28"/>
</g>
<!-- Node49&#45;&gt;Node7 -->
<g id="edge61" class="edge">
<title>Node49&#45;&gt;Node7</title>
<path fill="none" stroke="midnightblue" d="M5258.27,-71.46C5313.47,-61.83 5398.31,-46.49 5471.53,-31 5474.4,-30.39 5477.35,-29.75 5480.32,-29.09"/>
<polygon fill="midnightblue" stroke="midnightblue" points="5257.56,-68.03 5248.31,-73.2 5258.76,-74.93 5257.56,-68.03"/>
</g>
<!-- Node49&#45;&gt;Node32 -->
<g id="edge60" class="edge">
<title>Node49&#45;&gt;Node32</title>
<path fill="none" stroke="midnightblue" d="M5175.1,-60.88C5163.4,-51.01 5149.69,-39.43 5139.2,-30.58"/>
<polygon fill="midnightblue" stroke="midnightblue" points="5172.92,-63.62 5182.82,-67.4 5177.43,-58.27 5172.92,-63.62"/>
</g>
<!-- Node49&#45;&gt;Node34 -->
<g id="edge62" class="edge">
<title>Node49&#45;&gt;Node34</title>
<path fill="none" stroke="midnightblue" d="M5251.17,-64.11C5288.71,-51.46 5337.91,-34.89 5367.27,-25.01"/>
<polygon fill="midnightblue" stroke="midnightblue" points="5249.76,-60.89 5241.4,-67.4 5252,-67.52 5249.76,-60.89"/>
</g>
<!-- Node49&#45;&gt;Node47 -->
<g id="edge58" class="edge">
<title>Node49&#45;&gt;Node47</title>
<path fill="none" stroke="midnightblue" d="M5143.85,-64.51C5102.28,-51.83 5047.22,-35.02 5014.47,-25.03"/>
<polygon fill="midnightblue" stroke="midnightblue" points="5142.98,-67.9 5153.57,-67.48 5145.03,-61.21 5142.98,-67.9"/>
</g>
<!-- Node50 -->
<g id="node50" class="node">
<title>Node50</title>
<g id="a_node50"><a xlink:href="f__ap__game_8cpp.html" target="_top" xlink:title=" ">
<polygon fill="white" stroke="black" points="5199.03,-6 5199.03,-25 5304.03,-25 5304.03,-6 5199.03,-6"/>
<text text-anchor="middle" x="5251.53" y="-13" font-family="Helvetica,sans-Serif" font-size="10.00">src/f/f_ap_game.cpp</text>
</a>
</g>
</g>
<!-- Node49&#45;&gt;Node50 -->
<g id="edge59" class="edge">
<title>Node49&#45;&gt;Node50</title>
<path fill="none" stroke="midnightblue" d="M5217.27,-59.32C5226.65,-47.6 5237.62,-33.88 5244.57,-25.19"/>
<polygon fill="midnightblue" stroke="midnightblue" points="5214.32,-57.4 5210.81,-67.4 5219.79,-61.77 5214.32,-57.4"/>
</g>
</g>
</svg>
