<?xml version="1.0" encoding="UTF-8" standalone="no"?>
<!DOCTYPE svg PUBLIC "-//W3C//DTD SVG 1.1//EN"
 "http://www.w3.org/Graphics/SVG/1.1/DTD/svg11.dtd">
<!-- Generated by graphviz version 7.0.5 (20221223.1930)
 -->
<!-- Title: include/JSystem/J3DGraphBase/J3DDrawBuffer.h Pages: 1 -->
<!--zoomable 489 -->
<svg id="main" version="1.1" xmlns="http://www.w3.org/2000/svg" xmlns:xlink="http://www.w3.org/1999/xlink" xml:space="preserve" onload="init(evt)">
<style type="text/css"><![CDATA[
.edge:hover path { stroke: red; }
.edge:hover polygon { stroke: red; fill: red; }
]]></style>
<script type="text/javascript"><![CDATA[
var edges = document.getElementsByTagName('g');
if (edges && edges.length) {
  for (var i=0;i<edges.length;i++) {
    if (edges[i].id.substr(0,4)=='edge') {
      edges[i].setAttribute('class','edge');
    }
  }
}
]]></script>
        <defs>
                <circle id="rim" cx="0" cy="0" r="7"/>
                <circle id="rim2" cx="0" cy="0" r="3.5"/>
                <g id="zoomPlus">
                        <use xlink:href="#rim" fill="#404040">
                                <set attributeName="fill" to="#808080" begin="zoomplus.mouseover" end="zoomplus.mouseout"/>
                        </use>
                        <path d="M-4,0h8M0,-4v8" fill="none" stroke="white" stroke-width="1.5" pointer-events="none"/>
                </g>
                <g id="zoomMin">
                        <use xlink:href="#rim" fill="#404040">
                                <set attributeName="fill" to="#808080" begin="zoomminus.mouseover" end="zoomminus.mouseout"/>
                        </use>
                        <path d="M-4,0h8" fill="none" stroke="white" stroke-width="1.5" pointer-events="none"/>
                </g>
                <g id="dirArrow">
                        <path fill="none" stroke="white" stroke-width="1.5" d="M0,-3.0v7 M-2.5,-0.5L0,-3.0L2.5,-0.5"/>
                </g>
               <g id="resetDef">
                       <use xlink:href="#rim2" fill="#404040">
                               <set attributeName="fill" to="#808080" begin="reset.mouseover" end="reset.mouseout"/>
                       </use>
               </g>
        </defs>

<script type="text/javascript">
var viewWidth = 1507;
var viewHeight = 489;
var sectionId = 'dynsection-0';
</script>
<script xlink:href="svgpan.js"/>
<svg id="graph" class="graph">
<g id="viewport">
<title>include/JSystem/J3DGraphBase/J3DDrawBuffer.h</title>
<!-- Node1 -->
<g id="node1" class="node">
<title>Node1</title>
<g id="a_node1"><a xlink:title=" ">
<polygon fill="#999999" stroke="#666666" points="1122.5,-481 987.5,-481 987.5,-451 1122.5,-451 1122.5,-481"/>
<text text-anchor="start" x="995.5" y="-469" font-family="Helvetica,sans-Serif" font-size="10.00">include/JSystem/J3DGraph</text>
<text text-anchor="middle" x="1055" y="-458" font-family="Helvetica,sans-Serif" font-size="10.00">Base/J3DDrawBuffer.h</text>
</a>
</g>
</g>
<!-- Node2 -->
<g id="node2" class="node">
<title>Node2</title>
<g id="a_node2"><a xlink:href="J3DSys_8h.html" target="_top" xlink:title=" ">
<polygon fill="white" stroke="#666666" points="703,-415 579,-415 579,-385 703,-385 703,-415"/>
<text text-anchor="start" x="587" y="-403" font-family="Helvetica,sans-Serif" font-size="10.00">JSystem/J3DGraphBase</text>
<text text-anchor="middle" x="641" y="-392" font-family="Helvetica,sans-Serif" font-size="10.00">/J3DSys.h</text>
</a>
</g>
</g>
<!-- Node1&#45;&gt;Node2 -->
<g id="edge1" class="edge">
<title>Node1&#45;&gt;Node2</title>
<path fill="none" stroke="#63b8ff" d="M987.1,-454.5C912,-442.89 791.42,-424.25 714.24,-412.32"/>
<polygon fill="#63b8ff" stroke="#63b8ff" points="715.09,-408.91 704.68,-410.84 714.02,-415.83 715.09,-408.91"/>
</g>
<!-- Node6 -->
<g id="node6" class="node">
<title>Node6</title>
<g id="a_node6"><a xlink:href="types_8h.html" target="_top" xlink:title=" ">
<polygon fill="white" stroke="#666666" points="711.5,-74 630.5,-74 630.5,-55 711.5,-55 711.5,-74"/>
<text text-anchor="middle" x="671" y="-62" font-family="Helvetica,sans-Serif" font-size="10.00">dolphin/types.h</text>
</a>
</g>
</g>
<!-- Node1&#45;&gt;Node6 -->
<g id="edge57" class="edge">
<title>Node1&#45;&gt;Node6</title>
<path fill="none" stroke="#63b8ff" d="M1122.66,-456.69C1230.91,-441.49 1431,-404.71 1431,-340.5 1431,-340.5 1431,-340.5 1431,-173.5 1431,-161.57 1656.48,-200.53 1283,-110 1177.33,-84.39 851.07,-71.33 723.18,-67.09"/>
<polygon fill="#63b8ff" stroke="#63b8ff" points="723.42,-63.59 713.31,-66.76 723.19,-70.59 723.42,-63.59"/>
</g>
<!-- Node3 -->
<g id="node3" class="node">
<title>Node3</title>
<g id="a_node3"><a xlink:href="gx_8h.html" target="_top" xlink:title=" ">
<polygon fill="white" stroke="#666666" points="675,-349 607,-349 607,-330 675,-330 675,-349"/>
<text text-anchor="middle" x="641" y="-337" font-family="Helvetica,sans-Serif" font-size="10.00">dolphin/gx.h</text>
</a>
</g>
</g>
<!-- Node2&#45;&gt;Node3 -->
<g id="edge2" class="edge">
<title>Node2&#45;&gt;Node3</title>
<path fill="none" stroke="#63b8ff" d="M641,-384.54C641,-377.34 641,-368.53 641,-360.68"/>
<polygon fill="#63b8ff" stroke="#63b8ff" points="644.5,-360.69 641,-350.69 637.5,-360.69 644.5,-360.69"/>
</g>
<!-- Node2&#45;&gt;Node6 -->
<g id="edge56" class="edge">
<title>Node2&#45;&gt;Node6</title>
<path fill="none" stroke="#63b8ff" d="M578.66,-394.48C417.58,-381.96 0,-343.88 0,-285.5 0,-285.5 0,-285.5 0,-173.5 0,-132.47 29.47,-126.58 67,-110 165.16,-66.63 490.8,-64.13 618.74,-64.9"/>
<polygon fill="#63b8ff" stroke="#63b8ff" points="618.6,-68.4 628.62,-64.97 618.65,-61.4 618.6,-68.4"/>
</g>
<!-- Node4 -->
<g id="node4" class="node">
<title>Node4</title>
<g id="a_node4"><a xlink:href="GXAttr_8h.html" target="_top" xlink:title=" ">
<polygon fill="white" stroke="#666666" points="855.5,-184 754.5,-184 754.5,-165 855.5,-165 855.5,-184"/>
<text text-anchor="middle" x="805" y="-172" font-family="Helvetica,sans-Serif" font-size="10.00">dolphin/gx/GXAttr.h</text>
</a>
</g>
</g>
<!-- Node3&#45;&gt;Node4 -->
<g id="edge3" class="edge">
<title>Node3&#45;&gt;Node4</title>
<path fill="none" stroke="#63b8ff" d="M652.64,-329.66C670.24,-316.58 704.96,-291.78 737,-275 775.16,-255.01 802.85,-274.67 827,-239 836.38,-225.14 828.34,-206.88 819.46,-193.5"/>
<polygon fill="#63b8ff" stroke="#63b8ff" points="822.4,-191.59 813.67,-185.59 816.76,-195.73 822.4,-191.59"/>
</g>
<!-- Node8 -->
<g id="node8" class="node">
<title>Node8</title>
<g id="a_node8"><a xlink:href="GXBump_8h.html" target="_top" xlink:title=" ">
<polygon fill="white" stroke="#666666" points="856,-294 746,-294 746,-275 856,-275 856,-294"/>
<text text-anchor="middle" x="801" y="-282" font-family="Helvetica,sans-Serif" font-size="10.00">dolphin/gx/GXBump.h</text>
</a>
</g>
</g>
<!-- Node3&#45;&gt;Node8 -->
<g id="edge7" class="edge">
<title>Node3&#45;&gt;Node8</title>
<path fill="none" stroke="#63b8ff" d="M668.14,-329.51C694.31,-320.84 734.14,-307.65 763.36,-297.97"/>
<polygon fill="#63b8ff" stroke="#63b8ff" points="764.16,-301.39 772.56,-294.92 761.96,-294.74 764.16,-301.39"/>
</g>
<!-- Node9 -->
<g id="node9" class="node">
<title>Node9</title>
<g id="a_node9"><a xlink:href="GXDisplayList_8h.html" target="_top" xlink:title=" ">
<polygon fill="white" stroke="#666666" points="209.5,-129 76.5,-129 76.5,-110 209.5,-110 209.5,-129"/>
<text text-anchor="middle" x="143" y="-117" font-family="Helvetica,sans-Serif" font-size="10.00">dolphin/gx/GXDisplayList.h</text>
</a>
</g>
</g>
<!-- Node3&#45;&gt;Node9 -->
<g id="edge9" class="edge">
<title>Node3&#45;&gt;Node9</title>
<path fill="none" stroke="#63b8ff" d="M606.59,-338.3C491.94,-336.82 126.32,-325.3 57,-239 28.02,-202.92 83.74,-158.24 118.35,-135.43"/>
<polygon fill="#63b8ff" stroke="#63b8ff" points="120.06,-138.49 126.61,-130.15 116.3,-132.59 120.06,-138.49"/>
</g>
<!-- Node10 -->
<g id="node10" class="node">
<title>Node10</title>
<g id="a_node10"><a xlink:href="GXFifo_8h.html" target="_top" xlink:title=" ">
<polygon fill="white" stroke="#666666" points="167.5,-239 66.5,-239 66.5,-220 167.5,-220 167.5,-239"/>
<text text-anchor="middle" x="117" y="-227" font-family="Helvetica,sans-Serif" font-size="10.00">dolphin/gx/GXFifo.h</text>
</a>
</g>
</g>
<!-- Node3&#45;&gt;Node10 -->
<g id="edge11" class="edge">
<title>Node3&#45;&gt;Node10</title>
<path fill="none" stroke="#63b8ff" d="M606.8,-332.9C558.88,-324.94 469.07,-309.57 393,-294 312.5,-277.53 219.49,-255.5 164.6,-242.19"/>
<polygon fill="#63b8ff" stroke="#63b8ff" points="165.5,-238.81 154.96,-239.85 163.85,-245.61 165.5,-238.81"/>
</g>
<!-- Node16 -->
<g id="node16" class="node">
<title>Node16</title>
<g id="a_node16"><a xlink:href="GXFrameBuf_8h.html" target="_top" xlink:title=" ">
<polygon fill="white" stroke="#666666" points="818,-239 690,-239 690,-220 818,-220 818,-239"/>
<text text-anchor="middle" x="754" y="-227" font-family="Helvetica,sans-Serif" font-size="10.00">dolphin/gx/GXFrameBuf.h</text>
</a>
</g>
</g>
<!-- Node3&#45;&gt;Node16 -->
<g id="edge22" class="edge">
<title>Node3&#45;&gt;Node16</title>
<path fill="none" stroke="#63b8ff" d="M649.39,-329.7C661.31,-317.28 683.93,-294.01 704,-275 714.12,-265.41 725.74,-255.03 735.23,-246.71"/>
<polygon fill="#63b8ff" stroke="#63b8ff" points="737.49,-249.39 742.73,-240.18 732.89,-244.11 737.49,-249.39"/>
</g>
<!-- Node17 -->
<g id="node17" class="node">
<title>Node17</title>
<g id="a_node17"><a xlink:href="GXGeometry_8h.html" target="_top" xlink:title=" ">
<polygon fill="white" stroke="#666666" points="1125.5,-294 998.5,-294 998.5,-275 1125.5,-275 1125.5,-294"/>
<text text-anchor="middle" x="1062" y="-282" font-family="Helvetica,sans-Serif" font-size="10.00">dolphin/gx/GXGeometry.h</text>
</a>
</g>
</g>
<!-- Node3&#45;&gt;Node17 -->
<g id="edge25" class="edge">
<title>Node3&#45;&gt;Node17</title>
<path fill="none" stroke="#63b8ff" d="M675.45,-334.16C743.22,-325.63 895.25,-306.49 987.16,-294.92"/>
<polygon fill="#63b8ff" stroke="#63b8ff" points="987.35,-298.43 996.84,-293.7 986.48,-291.48 987.35,-298.43"/>
</g>
<!-- Node18 -->
<g id="node18" class="node">
<title>Node18</title>
<g id="a_node18"><a xlink:href="GXInit_8h.html" target="_top" xlink:title=" ">
<polygon fill="white" stroke="#666666" points="652,-294 554,-294 554,-275 652,-275 652,-294"/>
<text text-anchor="middle" x="603" y="-282" font-family="Helvetica,sans-Serif" font-size="10.00">dolphin/gx/GXInit.h</text>
</a>
</g>
</g>
<!-- Node3&#45;&gt;Node18 -->
<g id="edge27" class="edge">
<title>Node3&#45;&gt;Node18</title>
<path fill="none" stroke="#63b8ff" d="M634.73,-329.75C629.64,-322.66 622.3,-312.42 615.97,-303.59"/>
<polygon fill="#63b8ff" stroke="#63b8ff" points="618.96,-301.76 610.29,-295.67 613.28,-305.84 618.96,-301.76"/>
</g>
<!-- Node19 -->
<g id="node19" class="node">
<title>Node19</title>
<g id="a_node19"><a xlink:href="GXTexture_8h.html" target="_top" xlink:title=" ">
<polygon fill="white" stroke="#666666" points="546.5,-239 429.5,-239 429.5,-220 546.5,-220 546.5,-239"/>
<text text-anchor="middle" x="488" y="-227" font-family="Helvetica,sans-Serif" font-size="10.00">dolphin/gx/GXTexture.h</text>
</a>
</g>
</g>
<!-- Node3&#45;&gt;Node19 -->
<g id="edge52" class="edge">
<title>Node3&#45;&gt;Node19</title>
<path fill="none" stroke="#63b8ff" d="M610.03,-329.61C588.39,-322.38 559.61,-310.63 538,-294 521.87,-281.59 507.97,-262.86 498.95,-248.96"/>
<polygon fill="#63b8ff" stroke="#63b8ff" points="502.09,-247.38 493.84,-240.73 496.14,-251.07 502.09,-247.38"/>
</g>
<!-- Node24 -->
<g id="node24" class="node">
<title>Node24</title>
<g id="a_node24"><a xlink:href="GXLight_8h.html" target="_top" xlink:title=" ">
<polygon fill="white" stroke="#666666" points="671.5,-239 564.5,-239 564.5,-220 671.5,-220 671.5,-239"/>
<text text-anchor="middle" x="618" y="-227" font-family="Helvetica,sans-Serif" font-size="10.00">dolphin/gx/GXLight.h</text>
</a>
</g>
</g>
<!-- Node3&#45;&gt;Node24 -->
<g id="edge38" class="edge">
<title>Node3&#45;&gt;Node24</title>
<path fill="none" stroke="#63b8ff" d="M606.84,-332.34C585.09,-326.46 558.55,-315.21 545,-294 531.71,-273.19 557.75,-255.34 582.34,-243.91"/>
<polygon fill="#63b8ff" stroke="#63b8ff" points="583.51,-247.22 591.28,-240.02 580.71,-240.8 583.51,-247.22"/>
</g>
<!-- Node25 -->
<g id="node25" class="node">
<title>Node25</title>
<g id="a_node25"><a xlink:href="GXMisc_8h.html" target="_top" xlink:title=" ">
<polygon fill="white" stroke="#666666" points="980,-294 874,-294 874,-275 980,-275 980,-294"/>
<text text-anchor="middle" x="927" y="-282" font-family="Helvetica,sans-Serif" font-size="10.00">dolphin/gx/GXMisc.h</text>
</a>
</g>
</g>
<!-- Node3&#45;&gt;Node25 -->
<g id="edge41" class="edge">
<title>Node3&#45;&gt;Node25</title>
<path fill="none" stroke="#63b8ff" d="M675.5,-332.11C722.99,-323.31 809.23,-307.32 867.31,-296.56"/>
<polygon fill="#63b8ff" stroke="#63b8ff" points="867.85,-300.02 877.04,-294.76 866.57,-293.14 867.85,-300.02"/>
</g>
<!-- Node26 -->
<g id="node26" class="node">
<title>Node26</title>
<g id="a_node26"><a xlink:href="GXPerf_8h.html" target="_top" xlink:title=" ">
<polygon fill="white" stroke="#666666" points="1402.5,-184 1299.5,-184 1299.5,-165 1402.5,-165 1402.5,-184"/>
<text text-anchor="middle" x="1351" y="-172" font-family="Helvetica,sans-Serif" font-size="10.00">dolphin/gx/GXPerf.h</text>
</a>
</g>
</g>
<!-- Node3&#45;&gt;Node26 -->
<g id="edge43" class="edge">
<title>Node3&#45;&gt;Node26</title>
<path fill="none" stroke="#63b8ff" d="M675.33,-337.98C800.86,-335.82 1230.32,-326.15 1282,-294 1318.11,-271.54 1337.42,-222.72 1345.8,-195.27"/>
<polygon fill="#63b8ff" stroke="#63b8ff" points="1349.13,-196.36 1348.48,-185.79 1342.39,-194.45 1349.13,-196.36"/>
</g>
<!-- Node27 -->
<g id="node27" class="node">
<title>Node27</title>
<g id="a_node27"><a xlink:href="GXPixel_8h.html" target="_top" xlink:title=" ">
<polygon fill="white" stroke="#666666" points="292,-239 186,-239 186,-220 292,-220 292,-239"/>
<text text-anchor="middle" x="239" y="-227" font-family="Helvetica,sans-Serif" font-size="10.00">dolphin/gx/GXPixel.h</text>
</a>
</g>
</g>
<!-- Node3&#45;&gt;Node27 -->
<g id="edge46" class="edge">
<title>Node3&#45;&gt;Node27</title>
<path fill="none" stroke="#63b8ff" d="M606.53,-330.07C571,-321.31 514.03,-307.08 465,-294 400.57,-276.81 326.17,-255.65 280.87,-242.62"/>
<polygon fill="#63b8ff" stroke="#63b8ff" points="282.03,-239.31 271.46,-239.91 280.1,-246.04 282.03,-239.31"/>
</g>
<!-- Node28 -->
<g id="node28" class="node">
<title>Node28</title>
<g id="a_node28"><a xlink:href="GXTev_8h.html" target="_top" xlink:title=" ">
<polygon fill="white" stroke="#666666" points="411.5,-239 310.5,-239 310.5,-220 411.5,-220 411.5,-239"/>
<text text-anchor="middle" x="361" y="-227" font-family="Helvetica,sans-Serif" font-size="10.00">dolphin/gx/GXTev.h</text>
</a>
</g>
</g>
<!-- Node3&#45;&gt;Node28 -->
<g id="edge49" class="edge">
<title>Node3&#45;&gt;Node28</title>
<path fill="none" stroke="#63b8ff" d="M614.31,-329.52C588.7,-320.8 549.02,-307.01 515,-294 472.18,-277.62 423.34,-257.18 392.35,-243.98"/>
<polygon fill="#63b8ff" stroke="#63b8ff" points="393.75,-240.78 383.18,-240.07 391,-247.21 393.75,-240.78"/>
</g>
<!-- Node29 -->
<g id="node29" class="node">
<title>Node29</title>
<g id="a_node29"><a xlink:href="GXTransform_8h.html" target="_top" xlink:title=" ">
<polygon fill="white" stroke="#666666" points="1272.5,-294 1143.5,-294 1143.5,-275 1272.5,-275 1272.5,-294"/>
<text text-anchor="middle" x="1208" y="-282" font-family="Helvetica,sans-Serif" font-size="10.00">dolphin/gx/GXTransform.h</text>
</a>
</g>
</g>
<!-- Node3&#45;&gt;Node29 -->
<g id="edge53" class="edge">
<title>Node3&#45;&gt;Node29</title>
<path fill="none" stroke="#63b8ff" d="M675.47,-335.71C754.28,-329.25 954,-312.52 1131.73,-294.32"/>
<polygon fill="#63b8ff" stroke="#63b8ff" points="1132.04,-297.8 1141.63,-293.3 1131.32,-290.84 1132.04,-297.8"/>
</g>
<!-- Node5 -->
<g id="node5" class="node">
<title>Node5</title>
<g id="a_node5"><a xlink:href="GXEnum_8h.html" target="_top" xlink:title=" ">
<polygon fill="white" stroke="#666666" points="775,-129 665,-129 665,-110 775,-110 775,-129"/>
<text text-anchor="middle" x="720" y="-117" font-family="Helvetica,sans-Serif" font-size="10.00">dolphin/gx/GXEnum.h</text>
</a>
</g>
</g>
<!-- Node4&#45;&gt;Node5 -->
<g id="edge4" class="edge">
<title>Node4&#45;&gt;Node5</title>
<path fill="none" stroke="#63b8ff" d="M790.58,-164.51C777.8,-156.54 758.9,-144.75 743.87,-135.38"/>
<polygon fill="#63b8ff" stroke="#63b8ff" points="745.83,-132.48 735.49,-130.16 742.12,-138.42 745.83,-132.48"/>
</g>
<!-- Node5&#45;&gt;Node6 -->
<g id="edge5" class="edge">
<title>Node5&#45;&gt;Node6</title>
<path fill="none" stroke="#63b8ff" d="M711.91,-109.75C705.14,-102.43 695.28,-91.76 686.94,-82.74"/>
<polygon fill="#63b8ff" stroke="#63b8ff" points="689.65,-80.52 680.29,-75.55 684.51,-85.27 689.65,-80.52"/>
</g>
<!-- Node7 -->
<g id="node7" class="node">
<title>Node7</title>
<g id="a_node7"><a xlink:href="stddef_8h.html" target="_top" xlink:title=" ">
<polygon fill="white" stroke="#666666" points="696.5,-19 645.5,-19 645.5,0 696.5,0 696.5,-19"/>
<text text-anchor="middle" x="671" y="-7" font-family="Helvetica,sans-Serif" font-size="10.00">stddef.h</text>
</a>
</g>
</g>
<!-- Node6&#45;&gt;Node7 -->
<g id="edge6" class="edge">
<title>Node6&#45;&gt;Node7</title>
<path fill="none" stroke="#63b8ff" d="M671,-54.75C671,-48.27 671,-39.16 671,-30.9"/>
<polygon fill="#63b8ff" stroke="#63b8ff" points="674.5,-30.96 671,-20.96 667.5,-30.96 674.5,-30.96"/>
</g>
<!-- Node8&#45;&gt;Node5 -->
<g id="edge8" class="edge">
<title>Node8&#45;&gt;Node5</title>
<path fill="none" stroke="#63b8ff" d="M820.21,-274.56C833.85,-267.11 851.23,-255.11 860,-239 875.75,-210.07 883.55,-191.51 864,-165 846.11,-140.74 815.15,-129.3 786.52,-124.06"/>
<polygon fill="#63b8ff" stroke="#63b8ff" points="787.19,-120.62 776.77,-122.52 786.1,-127.54 787.19,-120.62"/>
</g>
<!-- Node9&#45;&gt;Node6 -->
<g id="edge10" class="edge">
<title>Node9&#45;&gt;Node6</title>
<path fill="none" stroke="#63b8ff" d="M209.87,-111.79C316.4,-101.09 522.42,-80.41 618.85,-70.73"/>
<polygon fill="#63b8ff" stroke="#63b8ff" points="618.94,-74.24 628.54,-69.76 618.25,-67.28 618.94,-74.24"/>
</g>
<!-- Node10&#45;&gt;Node5 -->
<g id="edge18" class="edge">
<title>Node10&#45;&gt;Node5</title>
<path fill="none" stroke="#63b8ff" d="M149.78,-219.61C200.07,-206.22 299.42,-180.78 385,-165 410.73,-160.26 563.24,-140.52 653.37,-128.99"/>
<polygon fill="#63b8ff" stroke="#63b8ff" points="653.6,-132.48 663.07,-127.74 652.71,-125.54 653.6,-132.48"/>
</g>
<!-- Node11 -->
<g id="node11" class="node">
<title>Node11</title>
<g id="a_node11"><a xlink:href="GXStruct_8h.html" target="_top" xlink:title=" ">
<polygon fill="white" stroke="#666666" points="583.5,-184 472.5,-184 472.5,-165 583.5,-165 583.5,-184"/>
<text text-anchor="middle" x="528" y="-172" font-family="Helvetica,sans-Serif" font-size="10.00">dolphin/gx/GXStruct.h</text>
</a>
</g>
</g>
<!-- Node10&#45;&gt;Node11 -->
<g id="edge12" class="edge">
<title>Node10&#45;&gt;Node11</title>
<path fill="none" stroke="#63b8ff" d="M167.73,-221.26C170.87,-220.83 173.98,-220.41 177,-220 275.61,-206.76 389.96,-192.46 460.65,-183.74"/>
<polygon fill="#63b8ff" stroke="#63b8ff" points="461.04,-187.22 470.54,-182.52 460.18,-180.27 461.04,-187.22"/>
</g>
<!-- Node14 -->
<g id="node14" class="node">
<title>Node14</title>
<g id="a_node14"><a xlink:href="OSThread_8h.html" target="_top" xlink:title=" ">
<polygon fill="white" stroke="#666666" points="207,-184 91,-184 91,-165 207,-165 207,-184"/>
<text text-anchor="middle" x="149" y="-172" font-family="Helvetica,sans-Serif" font-size="10.00">dolphin/os/OSThread.h</text>
</a>
</g>
</g>
<!-- Node10&#45;&gt;Node14 -->
<g id="edge19" class="edge">
<title>Node10&#45;&gt;Node14</title>
<path fill="none" stroke="#63b8ff" d="M122.28,-219.75C126.47,-212.81 132.48,-202.86 137.73,-194.16"/>
<polygon fill="#63b8ff" stroke="#63b8ff" points="140.65,-196.11 142.82,-185.74 134.65,-192.49 140.65,-196.11"/>
</g>
<!-- Node11&#45;&gt;Node5 -->
<g id="edge15" class="edge">
<title>Node11&#45;&gt;Node5</title>
<path fill="none" stroke="#63b8ff" d="M560.57,-164.51C592.53,-155.69 641.45,-142.18 676.68,-132.46"/>
<polygon fill="#63b8ff" stroke="#63b8ff" points="677.42,-135.88 686.13,-129.85 675.56,-129.14 677.42,-135.88"/>
</g>
<!-- Node12 -->
<g id="node12" class="node">
<title>Node12</title>
<g id="a_node12"><a xlink:href="global_8h.html" target="_top" xlink:title=" ">
<polygon fill="white" stroke="#666666" points="644,-129 594,-129 594,-110 644,-110 644,-129"/>
<text text-anchor="middle" x="619" y="-117" font-family="Helvetica,sans-Serif" font-size="10.00">global.h</text>
</a>
</g>
</g>
<!-- Node11&#45;&gt;Node12 -->
<g id="edge13" class="edge">
<title>Node11&#45;&gt;Node12</title>
<path fill="none" stroke="#63b8ff" d="M543.44,-164.51C557.25,-156.47 577.75,-144.53 593.91,-135.11"/>
<polygon fill="#63b8ff" stroke="#63b8ff" points="595.6,-138.18 602.48,-130.12 592.08,-132.13 595.6,-138.18"/>
</g>
<!-- Node13 -->
<g id="node13" class="node">
<title>Node13</title>
<g id="a_node13"><a xlink:href="vi_8h.html" target="_top" xlink:title=" ">
<polygon fill="white" stroke="#666666" points="563.5,-129 498.5,-129 498.5,-110 563.5,-110 563.5,-129"/>
<text text-anchor="middle" x="531" y="-117" font-family="Helvetica,sans-Serif" font-size="10.00">dolphin/vi.h</text>
</a>
</g>
</g>
<!-- Node11&#45;&gt;Node13 -->
<g id="edge16" class="edge">
<title>Node11&#45;&gt;Node13</title>
<path fill="none" stroke="#63b8ff" d="M528.5,-164.75C528.86,-158.27 529.38,-149.16 529.85,-140.9"/>
<polygon fill="#63b8ff" stroke="#63b8ff" points="533.34,-141.13 530.41,-130.95 526.35,-140.74 533.34,-141.13"/>
</g>
<!-- Node12&#45;&gt;Node6 -->
<g id="edge14" class="edge">
<title>Node12&#45;&gt;Node6</title>
<path fill="none" stroke="#63b8ff" d="M627.59,-109.75C634.84,-102.35 645.45,-91.54 654.37,-82.45"/>
<polygon fill="#63b8ff" stroke="#63b8ff" points="656.66,-85.11 661.17,-75.52 651.66,-80.21 656.66,-85.11"/>
</g>
<!-- Node13&#45;&gt;Node6 -->
<g id="edge17" class="edge">
<title>Node13&#45;&gt;Node6</title>
<path fill="none" stroke="#63b8ff" d="M554.75,-109.51C577.31,-100.97 611.47,-88.03 636.94,-78.4"/>
<polygon fill="#63b8ff" stroke="#63b8ff" points="638.07,-81.71 646.19,-74.89 635.59,-75.16 638.07,-81.71"/>
</g>
<!-- Node15 -->
<g id="node15" class="node">
<title>Node15</title>
<g id="a_node15"><a xlink:href="OSContext_8h.html" target="_top" xlink:title=" ">
<polygon fill="white" stroke="#666666" points="435.5,-129 316.5,-129 316.5,-110 435.5,-110 435.5,-129"/>
<text text-anchor="middle" x="376" y="-117" font-family="Helvetica,sans-Serif" font-size="10.00">dolphin/os/OSContext.h</text>
</a>
</g>
</g>
<!-- Node14&#45;&gt;Node15 -->
<g id="edge20" class="edge">
<title>Node14&#45;&gt;Node15</title>
<path fill="none" stroke="#63b8ff" d="M187.51,-164.51C225.86,-155.55 284.89,-141.77 326.66,-132.02"/>
<polygon fill="#63b8ff" stroke="#63b8ff" points="327.27,-135.47 336.21,-129.79 325.68,-128.66 327.27,-135.47"/>
</g>
<!-- Node15&#45;&gt;Node6 -->
<g id="edge21" class="edge">
<title>Node15&#45;&gt;Node6</title>
<path fill="none" stroke="#63b8ff" d="M426.04,-109.51C479.76,-99.86 564.68,-84.6 619.1,-74.82"/>
<polygon fill="#63b8ff" stroke="#63b8ff" points="619.52,-78.31 628.74,-73.09 618.28,-71.42 619.52,-78.31"/>
</g>
<!-- Node16&#45;&gt;Node5 -->
<g id="edge24" class="edge">
<title>Node16&#45;&gt;Node5</title>
<path fill="none" stroke="#63b8ff" d="M751.22,-219.66C745.79,-202.42 733.66,-163.9 726.22,-140.27"/>
<polygon fill="#63b8ff" stroke="#63b8ff" points="729.62,-139.39 723.28,-130.9 722.94,-141.49 729.62,-139.39"/>
</g>
<!-- Node16&#45;&gt;Node11 -->
<g id="edge23" class="edge">
<title>Node16&#45;&gt;Node11</title>
<path fill="none" stroke="#63b8ff" d="M715.66,-219.51C677.48,-210.55 618.71,-196.77 577.12,-187.02"/>
<polygon fill="#63b8ff" stroke="#63b8ff" points="578.16,-183.67 567.62,-184.79 576.56,-190.48 578.16,-183.67"/>
</g>
<!-- Node17&#45;&gt;Node5 -->
<g id="edge26" class="edge">
<title>Node17&#45;&gt;Node5</title>
<path fill="none" stroke="#63b8ff" d="M1043.6,-274.56C1027.31,-266.29 1003.2,-253.16 984,-239 945.29,-210.44 947.35,-187.83 905,-165 868.37,-145.25 823,-134.17 786.35,-128"/>
<polygon fill="#63b8ff" stroke="#63b8ff" points="787.2,-124.59 776.77,-126.47 786.1,-131.5 787.2,-124.59"/>
</g>
<!-- Node18&#45;&gt;Node19 -->
<g id="edge28" class="edge">
<title>Node18&#45;&gt;Node19</title>
<path fill="none" stroke="#63b8ff" d="M583.49,-274.51C565.37,-266.16 538.15,-253.61 517.4,-244.05"/>
<polygon fill="#63b8ff" stroke="#63b8ff" points="519.14,-241 508.59,-239.99 516.21,-247.36 519.14,-241"/>
</g>
<!-- Node20 -->
<g id="node20" class="node">
<title>Node20</title>
<g id="a_node20"><a xlink:href="mtx_8h.html" target="_top" xlink:title=" ">
<polygon fill="white" stroke="#666666" points="1232,-239 1158,-239 1158,-220 1232,-220 1232,-239"/>
<text text-anchor="middle" x="1195" y="-227" font-family="Helvetica,sans-Serif" font-size="10.00">dolphin/mtx.h</text>
</a>
</g>
</g>
<!-- Node18&#45;&gt;Node20 -->
<g id="edge31" class="edge">
<title>Node18&#45;&gt;Node20</title>
<path fill="none" stroke="#63b8ff" d="M652.46,-279.07C764.38,-269.05 1035.93,-244.74 1146.72,-234.82"/>
<polygon fill="#63b8ff" stroke="#63b8ff" points="1146.71,-238.34 1156.36,-233.96 1146.08,-231.37 1146.71,-238.34"/>
</g>
<!-- Node19&#45;&gt;Node5 -->
<g id="edge29" class="edge">
<title>Node19&#45;&gt;Node5</title>
<path fill="none" stroke="#63b8ff" d="M525.41,-219.51C553.82,-211.96 593.41,-199.87 626,-184 653.32,-170.7 681.85,-150.37 700.21,-136.31"/>
<polygon fill="#63b8ff" stroke="#63b8ff" points="702.13,-139.26 707.86,-130.35 697.82,-133.73 702.13,-139.26"/>
</g>
<!-- Node19&#45;&gt;Node11 -->
<g id="edge30" class="edge">
<title>Node19&#45;&gt;Node11</title>
<path fill="none" stroke="#63b8ff" d="M494.61,-219.75C499.96,-212.66 507.68,-202.42 514.35,-193.59"/>
<polygon fill="#63b8ff" stroke="#63b8ff" points="517.11,-195.74 520.34,-185.65 511.52,-191.52 517.11,-195.74"/>
</g>
<!-- Node21 -->
<g id="node21" class="node">
<title>Node21</title>
<g id="a_node21"><a xlink:href="mtx44_8h.html" target="_top" xlink:title=" ">
<polygon fill="white" stroke="#666666" points="1129.5,-184 1026.5,-184 1026.5,-165 1129.5,-165 1129.5,-184"/>
<text text-anchor="middle" x="1078" y="-172" font-family="Helvetica,sans-Serif" font-size="10.00">dolphin/mtx/mtx44.h</text>
</a>
</g>
</g>
<!-- Node20&#45;&gt;Node21 -->
<g id="edge32" class="edge">
<title>Node20&#45;&gt;Node21</title>
<path fill="none" stroke="#63b8ff" d="M1175.15,-219.51C1156.72,-211.16 1129.02,-198.61 1107.91,-189.05"/>
<polygon fill="#63b8ff" stroke="#63b8ff" points="1109.49,-185.92 1098.93,-184.98 1106.6,-192.3 1109.49,-185.92"/>
</g>
<!-- Node22 -->
<g id="node22" class="node">
<title>Node22</title>
<g id="a_node22"><a xlink:href="quat_8h.html" target="_top" xlink:title=" ">
<polygon fill="white" stroke="#666666" points="1242.5,-184 1147.5,-184 1147.5,-165 1242.5,-165 1242.5,-184"/>
<text text-anchor="middle" x="1195" y="-172" font-family="Helvetica,sans-Serif" font-size="10.00">dolphin/mtx/quat.h</text>
</a>
</g>
</g>
<!-- Node20&#45;&gt;Node22 -->
<g id="edge34" class="edge">
<title>Node20&#45;&gt;Node22</title>
<path fill="none" stroke="#63b8ff" d="M1195,-219.75C1195,-213.27 1195,-204.16 1195,-195.9"/>
<polygon fill="#63b8ff" stroke="#63b8ff" points="1198.5,-195.96 1195,-185.96 1191.5,-195.96 1198.5,-195.96"/>
</g>
<!-- Node23 -->
<g id="node23" class="node">
<title>Node23</title>
<g id="a_node23"><a xlink:href="vec_8h.html" target="_top" xlink:title=" ">
<polygon fill="white" stroke="#666666" points="1241,-129 1149,-129 1149,-110 1241,-110 1241,-129"/>
<text text-anchor="middle" x="1195" y="-117" font-family="Helvetica,sans-Serif" font-size="10.00">dolphin/mtx/vec.h</text>
</a>
</g>
</g>
<!-- Node20&#45;&gt;Node23 -->
<g id="edge37" class="edge">
<title>Node20&#45;&gt;Node23</title>
<path fill="none" stroke="#63b8ff" d="M1213.91,-219.57C1227.26,-212.13 1244.13,-200.13 1252,-184 1261.42,-164.7 1241.9,-146.9 1223.19,-135.09"/>
<polygon fill="#63b8ff" stroke="#63b8ff" points="1225.06,-132.12 1214.66,-130.09 1221.52,-138.16 1225.06,-132.12"/>
</g>
<!-- Node21&#45;&gt;Node6 -->
<g id="edge33" class="edge">
<title>Node21&#45;&gt;Node6</title>
<path fill="none" stroke="#63b8ff" d="M1044.35,-164.57C971.22,-145.17 797.83,-99.15 715.66,-77.35"/>
<polygon fill="#63b8ff" stroke="#63b8ff" points="716.72,-74.01 706.16,-74.83 714.92,-80.78 716.72,-74.01"/>
</g>
<!-- Node22&#45;&gt;Node23 -->
<g id="edge35" class="edge">
<title>Node22&#45;&gt;Node23</title>
<path fill="none" stroke="#63b8ff" d="M1195,-164.75C1195,-158.27 1195,-149.16 1195,-140.9"/>
<polygon fill="#63b8ff" stroke="#63b8ff" points="1198.5,-140.96 1195,-130.96 1191.5,-140.96 1198.5,-140.96"/>
</g>
<!-- Node23&#45;&gt;Node6 -->
<g id="edge36" class="edge">
<title>Node23&#45;&gt;Node6</title>
<path fill="none" stroke="#63b8ff" d="M1148.96,-113.84C1051.57,-103.99 825.26,-81.1 722.91,-70.75"/>
<polygon fill="#63b8ff" stroke="#63b8ff" points="723.45,-67.29 713.15,-69.76 722.75,-74.25 723.45,-67.29"/>
</g>
<!-- Node24&#45;&gt;Node5 -->
<g id="edge40" class="edge">
<title>Node24&#45;&gt;Node5</title>
<path fill="none" stroke="#63b8ff" d="M627.73,-219.51C637.19,-210.67 651.88,-196.7 664,-184 678.54,-168.77 694.34,-150.71 705.44,-137.75"/>
<polygon fill="#63b8ff" stroke="#63b8ff" points="707.81,-140.36 711.62,-130.48 702.48,-135.82 707.81,-140.36"/>
</g>
<!-- Node24&#45;&gt;Node11 -->
<g id="edge39" class="edge">
<title>Node24&#45;&gt;Node11</title>
<path fill="none" stroke="#63b8ff" d="M602.73,-219.51C589.07,-211.47 568.8,-199.53 552.82,-190.11"/>
<polygon fill="#63b8ff" stroke="#63b8ff" points="554.74,-187.18 544.35,-185.13 551.19,-193.22 554.74,-187.18"/>
</g>
<!-- Node25&#45;&gt;Node5 -->
<g id="edge42" class="edge">
<title>Node25&#45;&gt;Node5</title>
<path fill="none" stroke="#63b8ff" d="M926.38,-274.56C924.36,-252.52 916.03,-195.22 883,-165 856.86,-141.09 819.11,-129.84 786.52,-124.62"/>
<polygon fill="#63b8ff" stroke="#63b8ff" points="787.13,-121.17 776.74,-123.23 786.14,-128.1 787.13,-121.17"/>
</g>
<!-- Node26&#45;&gt;Node5 -->
<g id="edge45" class="edge">
<title>Node26&#45;&gt;Node5</title>
<path fill="none" stroke="#63b8ff" d="M1299.11,-169.02C1283.93,-167.72 1267.3,-166.3 1252,-165 1084.38,-150.79 887.01,-134.36 786.35,-126"/>
<polygon fill="#63b8ff" stroke="#63b8ff" points="786.91,-122.54 776.65,-125.2 786.33,-129.51 786.91,-122.54"/>
</g>
<!-- Node26&#45;&gt;Node6 -->
<g id="edge44" class="edge">
<title>Node26&#45;&gt;Node6</title>
<path fill="none" stroke="#63b8ff" d="M1340.68,-164.56C1323.32,-150.13 1286.58,-122.08 1250,-110 1152.97,-77.95 846.57,-68.76 723.21,-66.32"/>
<polygon fill="#63b8ff" stroke="#63b8ff" points="723.43,-62.82 713.37,-66.13 723.3,-69.82 723.43,-62.82"/>
</g>
<!-- Node27&#45;&gt;Node5 -->
<g id="edge48" class="edge">
<title>Node27&#45;&gt;Node5</title>
<path fill="none" stroke="#63b8ff" d="M267.04,-219.52C309.22,-206.26 391.66,-181.24 463,-165 527.17,-150.39 601.31,-138.03 653.42,-130.07"/>
<polygon fill="#63b8ff" stroke="#63b8ff" points="653.66,-133.57 663.02,-128.61 652.61,-126.65 653.66,-133.57"/>
</g>
<!-- Node27&#45;&gt;Node11 -->
<g id="edge47" class="edge">
<title>Node27&#45;&gt;Node11</title>
<path fill="none" stroke="#63b8ff" d="M288.02,-219.51C337.79,-210.38 414.9,-196.24 468.22,-186.46"/>
<polygon fill="#63b8ff" stroke="#63b8ff" points="468.52,-189.97 477.73,-184.72 467.26,-183.08 468.52,-189.97"/>
</g>
<!-- Node28&#45;&gt;Node5 -->
<g id="edge50" class="edge">
<title>Node28&#45;&gt;Node5</title>
<path fill="none" stroke="#63b8ff" d="M411.93,-220.63C469.56,-211.39 559.63,-195.81 592,-184 608.26,-178.07 610.61,-172.93 626,-165 647.06,-154.14 671.24,-142.72 689.79,-134.17"/>
<polygon fill="#63b8ff" stroke="#63b8ff" points="691,-137.47 698.63,-130.12 688.08,-131.11 691,-137.47"/>
</g>
<!-- Node28&#45;&gt;Node11 -->
<g id="edge51" class="edge">
<title>Node28&#45;&gt;Node11</title>
<path fill="none" stroke="#63b8ff" d="M389.33,-219.51C416.76,-210.8 458.58,-197.53 489.12,-187.84"/>
<polygon fill="#63b8ff" stroke="#63b8ff" points="489.9,-191.27 498.37,-184.9 487.78,-184.59 489.9,-191.27"/>
</g>
<!-- Node29&#45;&gt;Node5 -->
<g id="edge54" class="edge">
<title>Node29&#45;&gt;Node5</title>
<path fill="none" stroke="#63b8ff" d="M1190.77,-274.62C1148.14,-252.97 1033.87,-196.91 933,-165 884.83,-149.76 828.86,-138.3 786.38,-130.83"/>
<polygon fill="#63b8ff" stroke="#63b8ff" points="787,-127.38 776.55,-129.13 785.81,-134.28 787,-127.38"/>
</g>
<!-- Node29&#45;&gt;Node20 -->
<g id="edge55" class="edge">
<title>Node29&#45;&gt;Node20</title>
<path fill="none" stroke="#63b8ff" d="M1205.85,-274.75C1204.24,-268.19 1201.98,-258.95 1199.93,-250.6"/>
<polygon fill="#63b8ff" stroke="#63b8ff" points="1203.34,-249.79 1197.55,-240.91 1196.54,-251.46 1203.34,-249.79"/>
</g>
</g>
</svg>
        <g id="navigator" transform="translate(0 0)" fill="#404254">
                <rect fill="#f2f5e9" fill-opacity="0.5" stroke="#606060" stroke-width=".5" x="0" y="0" width="60" height="60"/>
                <use id="zoomplus" xlink:href="#zoomPlus" x="17" y="9" onmousedown="handleZoom(evt,'in')"/>
                <use id="zoomminus" xlink:href="#zoomMin" x="42" y="9" onmousedown="handleZoom(evt,'out')"/>
                <use id="reset" xlink:href="#resetDef" x="30" y="36" onmousedown="handleReset()"/>
                <g id="arrowUp" xlink:href="#dirArrow" transform="translate(30 24)" onmousedown="handlePan(0,-1)">
                  <use xlink:href="#rim" fill="#404040">
                        <set attributeName="fill" to="#808080" begin="arrowUp.mouseover" end="arrowUp.mouseout"/>
                  </use>
                  <path fill="none" stroke="white" stroke-width="1.5" d="M0,-3.0v7 M-2.5,-0.5L0,-3.0L2.5,-0.5"/>
                </g>
                <g id="arrowRight" xlink:href="#dirArrow" transform="rotate(90) translate(36 -43)" onmousedown="handlePan(1,0)">
                  <use xlink:href="#rim" fill="#404040">
                        <set attributeName="fill" to="#808080" begin="arrowRight.mouseover" end="arrowRight.mouseout"/>
                  </use>
                  <path fill="none" stroke="white" stroke-width="1.5" d="M0,-3.0v7 M-2.5,-0.5L0,-3.0L2.5,-0.5"/>
                </g>
                <g id="arrowDown" xlink:href="#dirArrow" transform="rotate(180) translate(-30 -48)" onmousedown="handlePan(0,1)">
                  <use xlink:href="#rim" fill="#404040">
                        <set attributeName="fill" to="#808080" begin="arrowDown.mouseover" end="arrowDown.mouseout"/>
                  </use>
                  <path fill="none" stroke="white" stroke-width="1.5" d="M0,-3.0v7 M-2.5,-0.5L0,-3.0L2.5,-0.5"/>
                </g>
                <g id="arrowLeft" xlink:href="#dirArrow" transform="rotate(270) translate(-36 17)" onmousedown="handlePan(-1,0)">
                  <use xlink:href="#rim" fill="#404040">
                        <set attributeName="fill" to="#808080" begin="arrowLeft.mouseover" end="arrowLeft.mouseout"/>
                  </use>
                  <path fill="none" stroke="white" stroke-width="1.5" d="M0,-3.0v7 M-2.5,-0.5L0,-3.0L2.5,-0.5"/>
                </g>
        </g>
        <svg viewBox="0 0 15 15" width="100%" height="30px" preserveAspectRatio="xMaxYMin meet">
         <g id="arrow_out" transform="scale(0.3 0.3)">
          <a xlink:href="J3DDrawBuffer_8h__incl_org.svg" target="_base">
           <rect id="button" ry="5" rx="5" y="6" x="6" height="38" width="38"
                fill="#f2f5e9" fill-opacity="0.5" stroke="#606060" stroke-width="1.0"/>
           <path id="arrow"
             d="M 11.500037,31.436501 C 11.940474,20.09759 22.043105,11.32322 32.158766,21.979434 L 37.068811,17.246167 C 37.068811,17.246167 37.088388,32 37.088388,32 L 22.160133,31.978069 C 22.160133,31.978069 26.997745,27.140456 26.997745,27.140456 C 18.528582,18.264221 13.291696,25.230495 11.500037,31.436501 z"
             style="fill:#404040;"/>
          </a>
         </g>
        </svg>
</svg>
