<?xml version="1.0" encoding="UTF-8" standalone="no"?>
<!DOCTYPE svg PUBLIC "-//W3C//DTD SVG 1.1//EN"
 "http://www.w3.org/Graphics/SVG/1.1/DTD/svg11.dtd">
<!-- Generated by graphviz version 7.0.5 (20221223.1930)
 -->
<!-- Title: include/JSystem/J3DGraphBase/J3DTexture.h Pages: 1 -->
<svg width="516pt" height="379pt"
 viewBox="0.00 0.00 516.12 379.00" xmlns="http://www.w3.org/2000/svg" xmlns:xlink="http://www.w3.org/1999/xlink">
<g id="graph0" class="graph" transform="scale(1 1) rotate(0) translate(4 375)">
<title>include/JSystem/J3DGraphBase/J3DTexture.h</title>
<!-- Node1 -->
<g id="node1" class="node">
<title>Node1</title>
<g id="a_node1"><a xlink:title=" ">
<polygon fill="#999999" stroke="#666666" points="322.14,-371 187.14,-371 187.14,-341 322.14,-341 322.14,-371"/>
<text text-anchor="start" x="195.14" y="-359" font-family="Helvetica,sans-Serif" font-size="10.00">include/JSystem/J3DGraph</text>
<text text-anchor="middle" x="254.64" y="-348" font-family="Helvetica,sans-Serif" font-size="10.00">Base/J3DTexture.h</text>
</a>
</g>
</g>
<!-- Node2 -->
<g id="node2" class="node">
<title>Node2</title>
<g id="a_node2"><a xlink:href="J3DStruct_8h.html" target="_top" xlink:title=" ">
<polygon fill="white" stroke="#666666" points="362.64,-305 238.64,-305 238.64,-275 362.64,-275 362.64,-305"/>
<text text-anchor="start" x="246.64" y="-293" font-family="Helvetica,sans-Serif" font-size="10.00">JSystem/J3DGraphBase</text>
<text text-anchor="middle" x="300.64" y="-282" font-family="Helvetica,sans-Serif" font-size="10.00">/J3DStruct.h</text>
</a>
</g>
</g>
<!-- Node1&#45;&gt;Node2 -->
<g id="edge1" class="edge">
<title>Node1&#45;&gt;Node2</title>
<path fill="none" stroke="#63b8ff" d="M264.85,-340.8C270.45,-333.01 277.53,-323.16 283.91,-314.28"/>
<polygon fill="#63b8ff" stroke="#63b8ff" points="286.58,-316.56 289.58,-306.39 280.9,-312.47 286.58,-316.56"/>
</g>
<!-- Node5 -->
<g id="node5" class="node">
<title>Node5</title>
<g id="a_node5"><a xlink:href="types_8h.html" target="_top" xlink:title=" ">
<polygon fill="white" stroke="#666666" points="260.14,-74 179.14,-74 179.14,-55 260.14,-55 260.14,-74"/>
<text text-anchor="middle" x="219.64" y="-62" font-family="Helvetica,sans-Serif" font-size="10.00">dolphin/types.h</text>
</a>
</g>
</g>
<!-- Node1&#45;&gt;Node5 -->
<g id="edge23" class="edge">
<title>Node1&#45;&gt;Node5</title>
<path fill="none" stroke="#63b8ff" d="M186.91,-350.43C111.66,-341.25 0.64,-313.62 0.64,-230.5 0.64,-230.5 0.64,-230.5 0.64,-173.5 0.64,-144.04 -1.92,-130.07 19.64,-110 40.76,-90.34 115.43,-77.73 167.3,-71.13"/>
<polygon fill="#63b8ff" stroke="#63b8ff" points="167.64,-74.61 177.14,-69.91 166.79,-67.66 167.64,-74.61"/>
</g>
<!-- Node9 -->
<g id="node9" class="node">
<title>Node9</title>
<g id="a_node9"><a xlink:href="mtx_8h.html" target="_top" xlink:title=" ">
<polygon fill="white" stroke="#666666" points="474.64,-239 400.64,-239 400.64,-220 474.64,-220 474.64,-239"/>
<text text-anchor="middle" x="437.64" y="-227" font-family="Helvetica,sans-Serif" font-size="10.00">dolphin/mtx.h</text>
</a>
</g>
</g>
<!-- Node1&#45;&gt;Node9 -->
<g id="edge22" class="edge">
<title>Node1&#45;&gt;Node9</title>
<path fill="none" stroke="#63b8ff" d="M300.98,-340.58C323.54,-332.26 350.32,-320.38 371.64,-305 393.46,-289.26 413.15,-265.11 425.23,-248.6"/>
<polygon fill="#63b8ff" stroke="#63b8ff" points="427.91,-250.87 430.85,-240.69 422.21,-246.82 427.91,-250.87"/>
</g>
<!-- Node13 -->
<g id="node13" class="node">
<title>Node13</title>
<g id="a_node13"><a xlink:href="JUTTexture_8h.html" target="_top" xlink:title=" ">
<polygon fill="white" stroke="#666666" points="234.14,-239 85.14,-239 85.14,-220 234.14,-220 234.14,-239"/>
<text text-anchor="middle" x="159.64" y="-227" font-family="Helvetica,sans-Serif" font-size="10.00">JSystem/JUtility/JUTTexture.h</text>
</a>
</g>
</g>
<!-- Node1&#45;&gt;Node13 -->
<g id="edge19" class="edge">
<title>Node1&#45;&gt;Node13</title>
<path fill="none" stroke="#63b8ff" d="M243.74,-340.72C226.35,-317.93 192.35,-273.37 173.34,-248.45"/>
<polygon fill="#63b8ff" stroke="#63b8ff" points="176.19,-246.41 167.34,-240.59 170.62,-250.66 176.19,-246.41"/>
</g>
<!-- Node3 -->
<g id="node3" class="node">
<title>Node3</title>
<g id="a_node3"><a xlink:href="GXStruct_8h.html" target="_top" xlink:title=" ">
<polygon fill="white" stroke="#666666" points="223.14,-184 112.14,-184 112.14,-165 223.14,-165 223.14,-184"/>
<text text-anchor="middle" x="167.64" y="-172" font-family="Helvetica,sans-Serif" font-size="10.00">dolphin/gx/GXStruct.h</text>
</a>
</g>
</g>
<!-- Node2&#45;&gt;Node3 -->
<g id="edge2" class="edge">
<title>Node2&#45;&gt;Node3</title>
<path fill="none" stroke="#63b8ff" d="M290.74,-274.56C280.06,-259.68 261.97,-236.4 242.64,-220 228.61,-208.1 211.01,-197.47 196.38,-189.59"/>
<polygon fill="#63b8ff" stroke="#63b8ff" points="198.17,-186.57 187.69,-185.05 194.93,-192.78 198.17,-186.57"/>
</g>
<!-- Node2&#45;&gt;Node9 -->
<g id="edge10" class="edge">
<title>Node2&#45;&gt;Node9</title>
<path fill="none" stroke="#63b8ff" d="M334.51,-274.54C356.5,-265.15 384.97,-252.99 406.42,-243.83"/>
<polygon fill="#63b8ff" stroke="#63b8ff" points="407.71,-247.09 415.53,-239.94 404.96,-240.65 407.71,-247.09"/>
</g>
<!-- Node10 -->
<g id="node10" class="node">
<title>Node10</title>
<g id="a_node10"><a xlink:href="mtx44_8h.html" target="_top" xlink:title=" ">
<polygon fill="white" stroke="#666666" points="344.14,-184 241.14,-184 241.14,-165 344.14,-165 344.14,-184"/>
<text text-anchor="middle" x="292.64" y="-172" font-family="Helvetica,sans-Serif" font-size="10.00">dolphin/mtx/mtx44.h</text>
</a>
</g>
</g>
<!-- Node2&#45;&gt;Node10 -->
<g id="edge17" class="edge">
<title>Node2&#45;&gt;Node10</title>
<path fill="none" stroke="#63b8ff" d="M299.63,-274.63C298.22,-254.59 295.65,-218.17 294.05,-195.49"/>
<polygon fill="#63b8ff" stroke="#63b8ff" points="297.56,-195.47 293.36,-185.74 290.57,-195.96 297.56,-195.47"/>
</g>
<!-- Node12 -->
<g id="node12" class="node">
<title>Node12</title>
<g id="a_node12"><a xlink:href="vec_8h.html" target="_top" xlink:title=" ">
<polygon fill="white" stroke="#666666" points="466.64,-129 374.64,-129 374.64,-110 466.64,-110 466.64,-129"/>
<text text-anchor="middle" x="420.64" y="-117" font-family="Helvetica,sans-Serif" font-size="10.00">dolphin/mtx/vec.h</text>
</a>
</g>
</g>
<!-- Node2&#45;&gt;Node12 -->
<g id="edge18" class="edge">
<title>Node2&#45;&gt;Node12</title>
<path fill="none" stroke="#63b8ff" d="M310.87,-274.63C332.75,-243.91 384.05,-171.88 407.96,-138.31"/>
<polygon fill="#63b8ff" stroke="#63b8ff" points="410.61,-140.62 413.56,-130.45 404.9,-136.56 410.61,-140.62"/>
</g>
<!-- Node4 -->
<g id="node4" class="node">
<title>Node4</title>
<g id="a_node4"><a xlink:href="global_8h.html" target="_top" xlink:title=" ">
<polygon fill="white" stroke="#666666" points="206.64,-129 156.64,-129 156.64,-110 206.64,-110 206.64,-129"/>
<text text-anchor="middle" x="181.64" y="-117" font-family="Helvetica,sans-Serif" font-size="10.00">global.h</text>
</a>
</g>
</g>
<!-- Node3&#45;&gt;Node4 -->
<g id="edge3" class="edge">
<title>Node3&#45;&gt;Node4</title>
<path fill="none" stroke="#63b8ff" d="M169.95,-164.75C171.71,-158.11 174.18,-148.73 176.41,-140.31"/>
<polygon fill="#63b8ff" stroke="#63b8ff" points="179.72,-141.47 178.89,-130.91 172.95,-139.68 179.72,-141.47"/>
</g>
<!-- Node7 -->
<g id="node7" class="node">
<title>Node7</title>
<g id="a_node7"><a xlink:href="GXEnum_8h.html" target="_top" xlink:title=" ">
<polygon fill="white" stroke="#666666" points="138.64,-129 28.64,-129 28.64,-110 138.64,-110 138.64,-129"/>
<text text-anchor="middle" x="83.64" y="-117" font-family="Helvetica,sans-Serif" font-size="10.00">dolphin/gx/GXEnum.h</text>
</a>
</g>
</g>
<!-- Node3&#45;&gt;Node7 -->
<g id="edge6" class="edge">
<title>Node3&#45;&gt;Node7</title>
<path fill="none" stroke="#63b8ff" d="M153.39,-164.51C140.77,-156.54 122.08,-144.75 107.23,-135.38"/>
<polygon fill="#63b8ff" stroke="#63b8ff" points="109.29,-132.54 98.96,-130.17 105.55,-138.46 109.29,-132.54"/>
</g>
<!-- Node8 -->
<g id="node8" class="node">
<title>Node8</title>
<g id="a_node8"><a xlink:href="vi_8h.html" target="_top" xlink:title=" ">
<polygon fill="white" stroke="#666666" points="290.14,-129 225.14,-129 225.14,-110 290.14,-110 290.14,-129"/>
<text text-anchor="middle" x="257.64" y="-117" font-family="Helvetica,sans-Serif" font-size="10.00">dolphin/vi.h</text>
</a>
</g>
</g>
<!-- Node3&#45;&gt;Node8 -->
<g id="edge8" class="edge">
<title>Node3&#45;&gt;Node8</title>
<path fill="none" stroke="#63b8ff" d="M182.91,-164.51C196.57,-156.47 216.84,-144.53 232.83,-135.11"/>
<polygon fill="#63b8ff" stroke="#63b8ff" points="234.45,-138.22 241.3,-130.13 230.9,-132.18 234.45,-138.22"/>
</g>
<!-- Node4&#45;&gt;Node5 -->
<g id="edge4" class="edge">
<title>Node4&#45;&gt;Node5</title>
<path fill="none" stroke="#63b8ff" d="M187.92,-109.75C193,-102.66 200.34,-92.42 206.67,-83.59"/>
<polygon fill="#63b8ff" stroke="#63b8ff" points="209.37,-85.84 212.35,-75.67 203.68,-81.76 209.37,-85.84"/>
</g>
<!-- Node6 -->
<g id="node6" class="node">
<title>Node6</title>
<g id="a_node6"><a xlink:href="stddef_8h.html" target="_top" xlink:title=" ">
<polygon fill="white" stroke="#666666" points="245.14,-19 194.14,-19 194.14,0 245.14,0 245.14,-19"/>
<text text-anchor="middle" x="219.64" y="-7" font-family="Helvetica,sans-Serif" font-size="10.00">stddef.h</text>
</a>
</g>
</g>
<!-- Node5&#45;&gt;Node6 -->
<g id="edge5" class="edge">
<title>Node5&#45;&gt;Node6</title>
<path fill="none" stroke="#63b8ff" d="M219.64,-54.75C219.64,-48.27 219.64,-39.16 219.64,-30.9"/>
<polygon fill="#63b8ff" stroke="#63b8ff" points="223.14,-30.96 219.64,-20.96 216.14,-30.96 223.14,-30.96"/>
</g>
<!-- Node7&#45;&gt;Node5 -->
<g id="edge7" class="edge">
<title>Node7&#45;&gt;Node5</title>
<path fill="none" stroke="#63b8ff" d="M106.71,-109.51C128.53,-101.01 161.52,-88.15 186.22,-78.53"/>
<polygon fill="#63b8ff" stroke="#63b8ff" points="187.45,-81.8 195.5,-74.91 184.91,-75.28 187.45,-81.8"/>
</g>
<!-- Node8&#45;&gt;Node5 -->
<g id="edge9" class="edge">
<title>Node8&#45;&gt;Node5</title>
<path fill="none" stroke="#63b8ff" d="M251.37,-109.75C246.28,-102.66 238.95,-92.42 232.61,-83.59"/>
<polygon fill="#63b8ff" stroke="#63b8ff" points="235.61,-81.76 226.93,-75.67 229.92,-85.84 235.61,-81.76"/>
</g>
<!-- Node9&#45;&gt;Node10 -->
<g id="edge11" class="edge">
<title>Node9&#45;&gt;Node10</title>
<path fill="none" stroke="#63b8ff" d="M413.04,-219.51C389.57,-210.93 353.97,-197.92 327.57,-188.27"/>
<polygon fill="#63b8ff" stroke="#63b8ff" points="328.89,-185.02 318.3,-184.88 326.49,-191.6 328.89,-185.02"/>
</g>
<!-- Node11 -->
<g id="node11" class="node">
<title>Node11</title>
<g id="a_node11"><a xlink:href="quat_8h.html" target="_top" xlink:title=" ">
<polygon fill="white" stroke="#666666" points="496.14,-184 401.14,-184 401.14,-165 496.14,-165 496.14,-184"/>
<text text-anchor="middle" x="448.64" y="-172" font-family="Helvetica,sans-Serif" font-size="10.00">dolphin/mtx/quat.h</text>
</a>
</g>
</g>
<!-- Node9&#45;&gt;Node11 -->
<g id="edge13" class="edge">
<title>Node9&#45;&gt;Node11</title>
<path fill="none" stroke="#63b8ff" d="M439.46,-219.75C440.82,-213.19 442.74,-203.95 444.47,-195.6"/>
<polygon fill="#63b8ff" stroke="#63b8ff" points="447.87,-196.43 446.48,-185.92 441.02,-195 447.87,-196.43"/>
</g>
<!-- Node9&#45;&gt;Node12 -->
<g id="edge16" class="edge">
<title>Node9&#45;&gt;Node12</title>
<path fill="none" stroke="#63b8ff" d="M460.44,-219.52C484.94,-208.45 518.61,-188.21 504.64,-165 495.93,-150.52 480.75,-140.51 465.67,-133.7"/>
<polygon fill="#63b8ff" stroke="#63b8ff" points="467.31,-130.59 456.73,-130.06 464.67,-137.08 467.31,-130.59"/>
</g>
<!-- Node10&#45;&gt;Node5 -->
<g id="edge12" class="edge">
<title>Node10&#45;&gt;Node5</title>
<path fill="none" stroke="#63b8ff" d="M296.57,-164.58C301.65,-151.61 308.7,-127.21 298.64,-110 290.33,-95.78 275.62,-85.75 261.13,-78.87"/>
<polygon fill="#63b8ff" stroke="#63b8ff" points="262.67,-75.72 252.1,-74.99 259.91,-82.15 262.67,-75.72"/>
</g>
<!-- Node11&#45;&gt;Node12 -->
<g id="edge14" class="edge">
<title>Node11&#45;&gt;Node12</title>
<path fill="none" stroke="#63b8ff" d="M444.02,-164.75C440.39,-157.88 435.21,-148.08 430.65,-139.45"/>
<polygon fill="#63b8ff" stroke="#63b8ff" points="433.84,-137.99 426.07,-130.78 427.65,-141.26 433.84,-137.99"/>
</g>
<!-- Node12&#45;&gt;Node5 -->
<g id="edge15" class="edge">
<title>Node12&#45;&gt;Node5</title>
<path fill="none" stroke="#63b8ff" d="M386.54,-109.51C352.95,-100.65 301.43,-87.07 264.52,-77.33"/>
<polygon fill="#63b8ff" stroke="#63b8ff" points="265.59,-74 255.03,-74.83 263.81,-80.77 265.59,-74"/>
</g>
<!-- Node13&#45;&gt;Node3 -->
<g id="edge21" class="edge">
<title>Node13&#45;&gt;Node3</title>
<path fill="none" stroke="#63b8ff" d="M160.96,-219.75C161.95,-213.19 163.35,-203.95 164.61,-195.6"/>
<polygon fill="#63b8ff" stroke="#63b8ff" points="168.03,-196.35 166.07,-185.94 161.11,-195.3 168.03,-196.35"/>
</g>
<!-- Node13&#45;&gt;Node7 -->
<g id="edge20" class="edge">
<title>Node13&#45;&gt;Node7</title>
<path fill="none" stroke="#63b8ff" d="M143.36,-219.61C130.54,-211.82 113.12,-199.34 102.64,-184 93.79,-171.04 88.97,-153.86 86.41,-140.64"/>
<polygon fill="#63b8ff" stroke="#63b8ff" points="89.89,-140.24 84.83,-130.94 82.98,-141.37 89.89,-140.24"/>
</g>
</g>
</svg>
