<?xml version="1.0" encoding="UTF-8" standalone="no"?>
<!DOCTYPE svg PUBLIC "-//W3C//DTD SVG 1.1//EN"
 "http://www.w3.org/Graphics/SVG/1.1/DTD/svg11.dtd">
<!-- Generated by graphviz version 7.0.5 (20221223.1930)
 -->
<!-- Title: libs/JSystem/JAudio2/JAIAudience.cpp Pages: 1 -->
<svg width="199pt" height="313pt"
 viewBox="0.00 0.00 199.00 313.00" xmlns="http://www.w3.org/2000/svg" xmlns:xlink="http://www.w3.org/1999/xlink">
<g id="graph0" class="graph" transform="scale(1 1) rotate(0) translate(4 309)">
<title>libs/JSystem/JAudio2/JAIAudience.cpp</title>
<!-- Node1 -->
<g id="node1" class="node">
<title>Node1</title>
<g id="a_node1"><a xlink:title=" ">
<polygon fill="#999999" stroke="#666666" points="189,-305 78,-305 78,-275 189,-275 189,-305"/>
<text text-anchor="start" x="86" y="-293" font-family="Helvetica,sans-Serif" font-size="10.00">libs/JSystem/JAudio2</text>
<text text-anchor="middle" x="133.5" y="-282" font-family="Helvetica,sans-Serif" font-size="10.00">/JAIAudience.cpp</text>
</a>
</g>
</g>
<!-- Node2 -->
<g id="node2" class="node">
<title>Node2</title>
<g id="a_node2"><a xlink:href="JAIAudience_8h.html" target="_top" xlink:title=" ">
<polygon fill="white" stroke="#666666" points="159,-239 0,-239 0,-220 159,-220 159,-239"/>
<text text-anchor="middle" x="79.5" y="-227" font-family="Helvetica,sans-Serif" font-size="10.00">JSystem/JAudio2/JAIAudience.h</text>
</a>
</g>
</g>
<!-- Node1&#45;&gt;Node2 -->
<g id="edge1" class="edge">
<title>Node1&#45;&gt;Node2</title>
<path fill="none" stroke="#63b8ff" d="M120.15,-274.54C112.63,-266.39 103.19,-256.16 95.3,-247.61"/>
<polygon fill="#63b8ff" stroke="#63b8ff" points="97.89,-245.26 88.53,-240.29 92.75,-250.01 97.89,-245.26"/>
</g>
<!-- Node5 -->
<g id="node5" class="node">
<title>Node5</title>
<g id="a_node5"><a xlink:href="types_8h.html" target="_top" xlink:title=" ">
<polygon fill="white" stroke="#666666" points="191,-74 110,-74 110,-55 191,-55 191,-74"/>
<text text-anchor="middle" x="150.5" y="-62" font-family="Helvetica,sans-Serif" font-size="10.00">dolphin/types.h</text>
</a>
</g>
</g>
<!-- Node1&#45;&gt;Node5 -->
<g id="edge9" class="edge">
<title>Node1&#45;&gt;Node5</title>
<path fill="none" stroke="#63b8ff" d="M147.22,-274.56C155.12,-265.22 164.3,-252.34 168.5,-239 185.74,-184.32 179.45,-166.28 168.5,-110 166.83,-101.42 163.51,-92.39 160.16,-84.73"/>
<polygon fill="#63b8ff" stroke="#63b8ff" points="163.36,-83.31 155.93,-75.76 157.03,-86.3 163.36,-83.31"/>
</g>
<!-- Node3 -->
<g id="node3" class="node">
<title>Node3</title>
<g id="a_node3"><a xlink:href="JGeometry_8h.html" target="_top" xlink:title=" ">
<polygon fill="white" stroke="#666666" points="136,-184 23,-184 23,-165 136,-165 136,-184"/>
<text text-anchor="middle" x="79.5" y="-172" font-family="Helvetica,sans-Serif" font-size="10.00">JSystem/JGeometry.h</text>
</a>
</g>
</g>
<!-- Node2&#45;&gt;Node3 -->
<g id="edge2" class="edge">
<title>Node2&#45;&gt;Node3</title>
<path fill="none" stroke="#63b8ff" d="M79.5,-219.75C79.5,-213.27 79.5,-204.16 79.5,-195.9"/>
<polygon fill="#63b8ff" stroke="#63b8ff" points="83,-195.96 79.5,-185.96 76,-195.96 83,-195.96"/>
</g>
<!-- Node4 -->
<g id="node4" class="node">
<title>Node4</title>
<g id="a_node4"><a xlink:href="vec_8h.html" target="_top" xlink:title=" ">
<polygon fill="white" stroke="#666666" points="159.5,-129 67.5,-129 67.5,-110 159.5,-110 159.5,-129"/>
<text text-anchor="middle" x="113.5" y="-117" font-family="Helvetica,sans-Serif" font-size="10.00">dolphin/mtx/vec.h</text>
</a>
</g>
</g>
<!-- Node3&#45;&gt;Node4 -->
<g id="edge3" class="edge">
<title>Node3&#45;&gt;Node4</title>
<path fill="none" stroke="#63b8ff" d="M85.11,-164.75C89.62,-157.73 96.09,-147.64 101.71,-138.87"/>
<polygon fill="#63b8ff" stroke="#63b8ff" points="104.49,-141.02 106.95,-130.72 98.6,-137.24 104.49,-141.02"/>
</g>
<!-- Node7 -->
<g id="node7" class="node">
<title>Node7</title>
<g id="a_node7"><a xlink:href="math_8h.html" target="_top" xlink:title=" ">
<polygon fill="white" stroke="#666666" points="49.5,-129 3.5,-129 3.5,-110 49.5,-110 49.5,-129"/>
<text text-anchor="middle" x="26.5" y="-117" font-family="Helvetica,sans-Serif" font-size="10.00">math.h</text>
</a>
</g>
</g>
<!-- Node3&#45;&gt;Node7 -->
<g id="edge6" class="edge">
<title>Node3&#45;&gt;Node7</title>
<path fill="none" stroke="#63b8ff" d="M70.75,-164.75C63.35,-157.35 52.54,-146.54 43.45,-137.45"/>
<polygon fill="#63b8ff" stroke="#63b8ff" points="46.06,-135.11 36.51,-130.51 41.11,-140.06 46.06,-135.11"/>
</g>
<!-- Node4&#45;&gt;Node5 -->
<g id="edge4" class="edge">
<title>Node4&#45;&gt;Node5</title>
<path fill="none" stroke="#63b8ff" d="M119.61,-109.75C124.51,-102.73 131.55,-92.64 137.67,-83.87"/>
<polygon fill="#63b8ff" stroke="#63b8ff" points="140.54,-85.89 143.39,-75.68 134.8,-81.88 140.54,-85.89"/>
</g>
<!-- Node6 -->
<g id="node6" class="node">
<title>Node6</title>
<g id="a_node6"><a xlink:href="stddef_8h.html" target="_top" xlink:title=" ">
<polygon fill="white" stroke="#666666" points="176,-19 125,-19 125,0 176,0 176,-19"/>
<text text-anchor="middle" x="150.5" y="-7" font-family="Helvetica,sans-Serif" font-size="10.00">stddef.h</text>
</a>
</g>
</g>
<!-- Node5&#45;&gt;Node6 -->
<g id="edge5" class="edge">
<title>Node5&#45;&gt;Node6</title>
<path fill="none" stroke="#63b8ff" d="M150.5,-54.75C150.5,-48.27 150.5,-39.16 150.5,-30.9"/>
<polygon fill="#63b8ff" stroke="#63b8ff" points="154,-30.96 150.5,-20.96 147,-30.96 154,-30.96"/>
</g>
<!-- Node8 -->
<g id="node8" class="node">
<title>Node8</title>
<g id="a_node8"><a xlink:href="float_8h.html" target="_top" xlink:title=" ">
<polygon fill="white" stroke="#666666" points="47.5,-74 5.5,-74 5.5,-55 47.5,-55 47.5,-74"/>
<text text-anchor="middle" x="26.5" y="-62" font-family="Helvetica,sans-Serif" font-size="10.00">float.h</text>
</a>
</g>
</g>
<!-- Node7&#45;&gt;Node8 -->
<g id="edge7" class="edge">
<title>Node7&#45;&gt;Node8</title>
<path fill="none" stroke="#63b8ff" d="M26.5,-109.75C26.5,-103.27 26.5,-94.16 26.5,-85.9"/>
<polygon fill="#63b8ff" stroke="#63b8ff" points="30,-85.96 26.5,-75.96 23,-85.96 30,-85.96"/>
</g>
<!-- Node9 -->
<g id="node9" class="node">
<title>Node9</title>
<g id="a_node9"><a xlink:href="fdlibm_8h.html" target="_top" xlink:title=" ">
<polygon fill="white" stroke="#666666" points="51.5,-19 1.5,-19 1.5,0 51.5,0 51.5,-19"/>
<text text-anchor="middle" x="26.5" y="-7" font-family="Helvetica,sans-Serif" font-size="10.00">fdlibm.h</text>
</a>
</g>
</g>
<!-- Node8&#45;&gt;Node9 -->
<g id="edge8" class="edge">
<title>Node8&#45;&gt;Node9</title>
<path fill="none" stroke="#63b8ff" d="M26.5,-54.75C26.5,-48.27 26.5,-39.16 26.5,-30.9"/>
<polygon fill="#63b8ff" stroke="#63b8ff" points="30,-30.96 26.5,-20.96 23,-30.96 30,-30.96"/>
</g>
</g>
</svg>
