<?xml version="1.0" encoding="UTF-8" standalone="no"?>
<!DOCTYPE svg PUBLIC "-//W3C//DTD SVG 1.1//EN"
 "http://www.w3.org/Graphics/SVG/1.1/DTD/svg11.dtd">
<!-- Generated by graphviz version 7.0.5 (20221223.1930)
 -->
<!-- Title: include/JSystem/JAudio2/JAIStream.h Pages: 1 -->
<svg width="684pt" height="390pt"
 viewBox="0.00 0.00 683.50 390.00" xmlns="http://www.w3.org/2000/svg" xmlns:xlink="http://www.w3.org/1999/xlink">
<g id="graph0" class="graph" transform="scale(1 1) rotate(0) translate(4 386)">
<title>include/JSystem/JAudio2/JAIStream.h</title>
<!-- Node1 -->
<g id="node1" class="node">
<title>Node1</title>
<g id="a_node1"><a xlink:title=" ">
<polygon fill="#999999" stroke="#666666" points="489.5,-382 362.5,-382 362.5,-352 489.5,-352 489.5,-382"/>
<text text-anchor="start" x="370.5" y="-370" font-family="Helvetica,sans-Serif" font-size="10.00">include/JSystem/JAudio2</text>
<text text-anchor="middle" x="426" y="-359" font-family="Helvetica,sans-Serif" font-size="10.00">/JAIStream.h</text>
</a>
</g>
</g>
<!-- Node2 -->
<g id="node2" class="node">
<title>Node2</title>
<g id="a_node2"><a xlink:href="JAISound_8h.html" target="_top" xlink:title=" ">
<polygon fill="white" stroke="#666666" points="319,-316 173,-316 173,-297 319,-297 319,-316"/>
<text text-anchor="middle" x="246" y="-304" font-family="Helvetica,sans-Serif" font-size="10.00">JSystem/JAudio2/JAISound.h</text>
</a>
</g>
</g>
<!-- Node1&#45;&gt;Node2 -->
<g id="edge1" class="edge">
<title>Node1&#45;&gt;Node2</title>
<path fill="none" stroke="#63b8ff" d="M381.51,-351.54C351.64,-341.83 312.69,-329.17 284.22,-319.92"/>
<polygon fill="#63b8ff" stroke="#63b8ff" points="285.52,-316.66 274.92,-316.9 283.35,-323.32 285.52,-316.66"/>
</g>
<!-- Node14 -->
<g id="node14" class="node">
<title>Node14</title>
<g id="a_node14"><a xlink:href="JASAramStream_8h.html" target="_top" xlink:title=" ">
<polygon fill="white" stroke="#666666" points="514.5,-316 337.5,-316 337.5,-297 514.5,-297 514.5,-316"/>
<text text-anchor="middle" x="426" y="-304" font-family="Helvetica,sans-Serif" font-size="10.00">JSystem/JAudio2/JASAramStream.h</text>
</a>
</g>
</g>
<!-- Node1&#45;&gt;Node14 -->
<g id="edge15" class="edge">
<title>Node1&#45;&gt;Node14</title>
<path fill="none" stroke="#63b8ff" d="M426,-351.54C426,-344.34 426,-335.53 426,-327.68"/>
<polygon fill="#63b8ff" stroke="#63b8ff" points="429.5,-327.69 426,-317.69 422.5,-327.69 429.5,-327.69"/>
</g>
<!-- Node18 -->
<g id="node18" class="node">
<title>Node18</title>
<g id="a_node18"><a xlink:href="JSUList_8h.html" target="_top" xlink:title=" ">
<polygon fill="white" stroke="#666666" points="675.5,-316 532.5,-316 532.5,-297 675.5,-297 675.5,-316"/>
<text text-anchor="middle" x="604" y="-304" font-family="Helvetica,sans-Serif" font-size="10.00">JSystem/JSupport/JSUList.h</text>
</a>
</g>
</g>
<!-- Node1&#45;&gt;Node18 -->
<g id="edge20" class="edge">
<title>Node1&#45;&gt;Node18</title>
<path fill="none" stroke="#63b8ff" d="M470,-351.54C499.54,-341.83 538.05,-329.17 566.2,-319.92"/>
<polygon fill="#63b8ff" stroke="#63b8ff" points="566.98,-323.35 575.38,-316.9 564.79,-316.7 566.98,-323.35"/>
</g>
<!-- Node3 -->
<g id="node3" class="node">
<title>Node3</title>
<g id="a_node3"><a xlink:href="JAISoundParams_8h.html" target="_top" xlink:title=" ">
<polygon fill="white" stroke="#666666" points="315.5,-261 176.5,-261 176.5,-231 315.5,-231 315.5,-261"/>
<text text-anchor="start" x="184.5" y="-249" font-family="Helvetica,sans-Serif" font-size="10.00">JSystem/JAudio2/JAISound</text>
<text text-anchor="middle" x="246" y="-238" font-family="Helvetica,sans-Serif" font-size="10.00">Params.h</text>
</a>
</g>
</g>
<!-- Node2&#45;&gt;Node3 -->
<g id="edge2" class="edge">
<title>Node2&#45;&gt;Node3</title>
<path fill="none" stroke="#63b8ff" d="M246,-296.87C246,-290.4 246,-281.2 246,-272.45"/>
<polygon fill="#63b8ff" stroke="#63b8ff" points="249.5,-272.63 246,-262.63 242.5,-272.63 249.5,-272.63"/>
</g>
<!-- Node7 -->
<g id="node7" class="node">
<title>Node7</title>
<g id="a_node7"><a xlink:href="JAIAudible_8h.html" target="_top" xlink:title=" ">
<polygon fill="white" stroke="#666666" points="158.5,-255.5 7.5,-255.5 7.5,-236.5 158.5,-236.5 158.5,-255.5"/>
<text text-anchor="middle" x="83" y="-243.5" font-family="Helvetica,sans-Serif" font-size="10.00">JSystem/JAudio2/JAIAudible.h</text>
</a>
</g>
</g>
<!-- Node2&#45;&gt;Node7 -->
<g id="edge6" class="edge">
<title>Node2&#45;&gt;Node7</title>
<path fill="none" stroke="#63b8ff" d="M221.24,-296.62C193.96,-286.82 149.83,-270.98 118.78,-259.84"/>
<polygon fill="#63b8ff" stroke="#63b8ff" points="120.01,-256.56 109.41,-256.48 117.64,-263.15 120.01,-256.56"/>
</g>
<!-- Node13 -->
<g id="node13" class="node">
<title>Node13</title>
<g id="a_node13"><a xlink:href="global_8h.html" target="_top" xlink:title=" ">
<polygon fill="white" stroke="#666666" points="364,-195 314,-195 314,-176 364,-176 364,-195"/>
<text text-anchor="middle" x="339" y="-183" font-family="Helvetica,sans-Serif" font-size="10.00">global.h</text>
</a>
</g>
</g>
<!-- Node2&#45;&gt;Node13 -->
<g id="edge13" class="edge">
<title>Node2&#45;&gt;Node13</title>
<path fill="none" stroke="#63b8ff" d="M273.54,-296.51C290.66,-289.5 311.68,-278.06 324,-261 335.46,-245.13 338.67,-222.64 339.35,-206.53"/>
<polygon fill="#63b8ff" stroke="#63b8ff" points="342.85,-206.77 339.45,-196.73 335.85,-206.7 342.85,-206.77"/>
</g>
<!-- Node4 -->
<g id="node4" class="node">
<title>Node4</title>
<g id="a_node4"><a xlink:href="JASSoundParams_8h.html" target="_top" xlink:title=" ">
<polygon fill="white" stroke="#666666" points="319.5,-140 176.5,-140 176.5,-110 319.5,-110 319.5,-140"/>
<text text-anchor="start" x="184.5" y="-128" font-family="Helvetica,sans-Serif" font-size="10.00">JSystem/JAudio2/JASSound</text>
<text text-anchor="middle" x="248" y="-117" font-family="Helvetica,sans-Serif" font-size="10.00">Params.h</text>
</a>
</g>
</g>
<!-- Node3&#45;&gt;Node4 -->
<g id="edge3" class="edge">
<title>Node3&#45;&gt;Node4</title>
<path fill="none" stroke="#63b8ff" d="M246.24,-230.88C246.56,-211.39 247.16,-175.92 247.57,-151.67"/>
<polygon fill="#63b8ff" stroke="#63b8ff" points="251.06,-152.04 247.73,-141.98 244.06,-151.92 251.06,-152.04"/>
</g>
<!-- Node5 -->
<g id="node5" class="node">
<title>Node5</title>
<g id="a_node5"><a xlink:href="types_8h.html" target="_top" xlink:title=" ">
<polygon fill="white" stroke="#666666" points="388.5,-74 307.5,-74 307.5,-55 388.5,-55 388.5,-74"/>
<text text-anchor="middle" x="348" y="-62" font-family="Helvetica,sans-Serif" font-size="10.00">dolphin/types.h</text>
</a>
</g>
</g>
<!-- Node4&#45;&gt;Node5 -->
<g id="edge4" class="edge">
<title>Node4&#45;&gt;Node5</title>
<path fill="none" stroke="#63b8ff" d="M272.72,-109.54C288.04,-100.58 307.66,-89.1 323.02,-80.11"/>
<polygon fill="#63b8ff" stroke="#63b8ff" points="324.71,-83.18 331.57,-75.11 321.17,-77.14 324.71,-83.18"/>
</g>
<!-- Node6 -->
<g id="node6" class="node">
<title>Node6</title>
<g id="a_node6"><a xlink:href="stddef_8h.html" target="_top" xlink:title=" ">
<polygon fill="white" stroke="#666666" points="373.5,-19 322.5,-19 322.5,0 373.5,0 373.5,-19"/>
<text text-anchor="middle" x="348" y="-7" font-family="Helvetica,sans-Serif" font-size="10.00">stddef.h</text>
</a>
</g>
</g>
<!-- Node5&#45;&gt;Node6 -->
<g id="edge5" class="edge">
<title>Node5&#45;&gt;Node6</title>
<path fill="none" stroke="#63b8ff" d="M348,-54.75C348,-48.27 348,-39.16 348,-30.9"/>
<polygon fill="#63b8ff" stroke="#63b8ff" points="351.5,-30.96 348,-20.96 344.5,-30.96 351.5,-30.96"/>
</g>
<!-- Node8 -->
<g id="node8" class="node">
<title>Node8</title>
<g id="a_node8"><a xlink:href="JGeometry_8h.html" target="_top" xlink:title=" ">
<polygon fill="white" stroke="#666666" points="139.5,-195 26.5,-195 26.5,-176 139.5,-176 139.5,-195"/>
<text text-anchor="middle" x="83" y="-183" font-family="Helvetica,sans-Serif" font-size="10.00">JSystem/JGeometry.h</text>
</a>
</g>
</g>
<!-- Node7&#45;&gt;Node8 -->
<g id="edge7" class="edge">
<title>Node7&#45;&gt;Node8</title>
<path fill="none" stroke="#63b8ff" d="M83,-236.37C83,-228.5 83,-216.6 83,-206.39"/>
<polygon fill="#63b8ff" stroke="#63b8ff" points="86.5,-206.68 83,-196.68 79.5,-206.68 86.5,-206.68"/>
</g>
<!-- Node9 -->
<g id="node9" class="node">
<title>Node9</title>
<g id="a_node9"><a xlink:href="vec_8h.html" target="_top" xlink:title=" ">
<polygon fill="white" stroke="#666666" points="158,-134.5 66,-134.5 66,-115.5 158,-115.5 158,-134.5"/>
<text text-anchor="middle" x="112" y="-122.5" font-family="Helvetica,sans-Serif" font-size="10.00">dolphin/mtx/vec.h</text>
</a>
</g>
</g>
<!-- Node8&#45;&gt;Node9 -->
<g id="edge8" class="edge">
<title>Node8&#45;&gt;Node9</title>
<path fill="none" stroke="#63b8ff" d="M87.28,-175.87C91.31,-167.75 97.47,-155.31 102.64,-144.89"/>
<polygon fill="#63b8ff" stroke="#63b8ff" points="105.73,-146.54 107.03,-136.02 99.45,-143.43 105.73,-146.54"/>
</g>
<!-- Node10 -->
<g id="node10" class="node">
<title>Node10</title>
<g id="a_node10"><a xlink:href="math_8h.html" target="_top" xlink:title=" ">
<polygon fill="white" stroke="#666666" points="48,-134.5 2,-134.5 2,-115.5 48,-115.5 48,-134.5"/>
<text text-anchor="middle" x="25" y="-122.5" font-family="Helvetica,sans-Serif" font-size="10.00">math.h</text>
</a>
</g>
</g>
<!-- Node8&#45;&gt;Node10 -->
<g id="edge10" class="edge">
<title>Node8&#45;&gt;Node10</title>
<path fill="none" stroke="#63b8ff" d="M74.44,-175.87C65.79,-167.14 52.2,-153.43 41.45,-142.59"/>
<polygon fill="#63b8ff" stroke="#63b8ff" points="44.19,-140.38 34.66,-135.74 39.21,-145.31 44.19,-140.38"/>
</g>
<!-- Node9&#45;&gt;Node5 -->
<g id="edge9" class="edge">
<title>Node9&#45;&gt;Node5</title>
<path fill="none" stroke="#63b8ff" d="M146.9,-115.07C153.57,-113.38 160.5,-111.63 167,-110 212.23,-98.68 263.89,-86.01 300.41,-77.09"/>
<polygon fill="#63b8ff" stroke="#63b8ff" points="300.88,-80.58 309.76,-74.81 299.22,-73.78 300.88,-80.58"/>
</g>
<!-- Node11 -->
<g id="node11" class="node">
<title>Node11</title>
<g id="a_node11"><a xlink:href="float_8h.html" target="_top" xlink:title=" ">
<polygon fill="white" stroke="#666666" points="46,-74 4,-74 4,-55 46,-55 46,-74"/>
<text text-anchor="middle" x="25" y="-62" font-family="Helvetica,sans-Serif" font-size="10.00">float.h</text>
</a>
</g>
</g>
<!-- Node10&#45;&gt;Node11 -->
<g id="edge11" class="edge">
<title>Node10&#45;&gt;Node11</title>
<path fill="none" stroke="#63b8ff" d="M25,-115.37C25,-107.5 25,-95.6 25,-85.39"/>
<polygon fill="#63b8ff" stroke="#63b8ff" points="28.5,-85.68 25,-75.68 21.5,-85.68 28.5,-85.68"/>
</g>
<!-- Node12 -->
<g id="node12" class="node">
<title>Node12</title>
<g id="a_node12"><a xlink:href="fdlibm_8h.html" target="_top" xlink:title=" ">
<polygon fill="white" stroke="#666666" points="50,-19 0,-19 0,0 50,0 50,-19"/>
<text text-anchor="middle" x="25" y="-7" font-family="Helvetica,sans-Serif" font-size="10.00">fdlibm.h</text>
</a>
</g>
</g>
<!-- Node11&#45;&gt;Node12 -->
<g id="edge12" class="edge">
<title>Node11&#45;&gt;Node12</title>
<path fill="none" stroke="#63b8ff" d="M25,-54.75C25,-48.27 25,-39.16 25,-30.9"/>
<polygon fill="#63b8ff" stroke="#63b8ff" points="28.5,-30.96 25,-20.96 21.5,-30.96 28.5,-30.96"/>
</g>
<!-- Node13&#45;&gt;Node5 -->
<g id="edge14" class="edge">
<title>Node13&#45;&gt;Node5</title>
<path fill="none" stroke="#63b8ff" d="M339.68,-175.56C341.12,-156.51 344.52,-111.56 346.5,-85.37"/>
<polygon fill="#63b8ff" stroke="#63b8ff" points="349.96,-85.97 347.23,-75.73 342.98,-85.44 349.96,-85.97"/>
</g>
<!-- Node15 -->
<g id="node15" class="node">
<title>Node15</title>
<g id="a_node15"><a xlink:href="OSMessage_8h.html" target="_top" xlink:title=" ">
<polygon fill="white" stroke="#666666" points="500.5,-255.5 375.5,-255.5 375.5,-236.5 500.5,-236.5 500.5,-255.5"/>
<text text-anchor="middle" x="438" y="-243.5" font-family="Helvetica,sans-Serif" font-size="10.00">dolphin/os/OSMessage.h</text>
</a>
</g>
</g>
<!-- Node14&#45;&gt;Node15 -->
<g id="edge16" class="edge">
<title>Node14&#45;&gt;Node15</title>
<path fill="none" stroke="#63b8ff" d="M427.77,-296.87C429.38,-289 431.83,-277.1 433.92,-266.89"/>
<polygon fill="#63b8ff" stroke="#63b8ff" points="437.34,-267.65 435.92,-257.15 430.48,-266.24 437.34,-267.65"/>
</g>
<!-- Node16 -->
<g id="node16" class="node">
<title>Node16</title>
<g id="a_node16"><a xlink:href="OSThread_8h.html" target="_top" xlink:title=" ">
<polygon fill="white" stroke="#666666" points="498,-195 382,-195 382,-176 498,-176 498,-195"/>
<text text-anchor="middle" x="440" y="-183" font-family="Helvetica,sans-Serif" font-size="10.00">dolphin/os/OSThread.h</text>
</a>
</g>
</g>
<!-- Node15&#45;&gt;Node16 -->
<g id="edge17" class="edge">
<title>Node15&#45;&gt;Node16</title>
<path fill="none" stroke="#63b8ff" d="M438.3,-236.37C438.56,-228.5 438.97,-216.6 439.32,-206.39"/>
<polygon fill="#63b8ff" stroke="#63b8ff" points="442.81,-206.79 439.65,-196.68 435.81,-206.55 442.81,-206.79"/>
</g>
<!-- Node17 -->
<g id="node17" class="node">
<title>Node17</title>
<g id="a_node17"><a xlink:href="OSContext_8h.html" target="_top" xlink:title=" ">
<polygon fill="white" stroke="#666666" points="498.5,-134.5 379.5,-134.5 379.5,-115.5 498.5,-115.5 498.5,-134.5"/>
<text text-anchor="middle" x="439" y="-122.5" font-family="Helvetica,sans-Serif" font-size="10.00">dolphin/os/OSContext.h</text>
</a>
</g>
</g>
<!-- Node16&#45;&gt;Node17 -->
<g id="edge18" class="edge">
<title>Node16&#45;&gt;Node17</title>
<path fill="none" stroke="#63b8ff" d="M439.85,-175.87C439.72,-168 439.51,-156.1 439.34,-145.89"/>
<polygon fill="#63b8ff" stroke="#63b8ff" points="442.84,-146.12 439.17,-136.18 435.85,-146.24 442.84,-146.12"/>
</g>
<!-- Node17&#45;&gt;Node5 -->
<g id="edge19" class="edge">
<title>Node17&#45;&gt;Node5</title>
<path fill="none" stroke="#63b8ff" d="M425.18,-115.12C410.88,-105.92 388.3,-91.41 371.25,-80.44"/>
<polygon fill="#63b8ff" stroke="#63b8ff" points="373.53,-77.75 363.22,-75.29 369.74,-83.64 373.53,-77.75"/>
</g>
<!-- Node18&#45;&gt;Node5 -->
<g id="edge21" class="edge">
<title>Node18&#45;&gt;Node5</title>
<path fill="none" stroke="#63b8ff" d="M602.39,-296.92C596.21,-266.44 571.14,-162.41 508,-110 477.6,-84.77 433.91,-73.8 399.87,-69.05"/>
<polygon fill="#63b8ff" stroke="#63b8ff" points="400.58,-65.61 390.22,-67.86 399.72,-72.56 400.58,-65.61"/>
</g>
</g>
</svg>
