<?xml version="1.0" encoding="UTF-8" standalone="no"?>
<!DOCTYPE svg PUBLIC "-//W3C//DTD SVG 1.1//EN"
 "http://www.w3.org/Graphics/SVG/1.1/DTD/svg11.dtd">
<!-- Generated by graphviz version 7.0.5 (20221223.1930)
 -->
<!-- Title: include/JSystem/JAudio2/JAISoundHandles.h Pages: 1 -->
<svg width="3338pt" height="313pt"
 viewBox="0.00 0.00 3337.54 313.00" xmlns="http://www.w3.org/2000/svg" xmlns:xlink="http://www.w3.org/1999/xlink">
<g id="graph0" class="graph" transform="scale(1 1) rotate(0) translate(4 309)">
<title>include/JSystem/JAudio2/JAISoundHandles.h</title>
<!-- Node1 -->
<g id="node1" class="node">
<title>Node1</title>
<g id="a_node1"><a xlink:title=" ">
<polygon fill="#999999" stroke="#666666" points="2870.04,-305 2743.04,-305 2743.04,-275 2870.04,-275 2870.04,-305"/>
<text text-anchor="start" x="2751.04" y="-293" font-family="Helvetica,sans-Serif" font-size="10.00">include/JSystem/JAudio2</text>
<text text-anchor="middle" x="2806.54" y="-282" font-family="Helvetica,sans-Serif" font-size="10.00">/JAISoundHandles.h</text>
</a>
</g>
</g>
<!-- Node2 -->
<g id="node2" class="node">
<title>Node2</title>
<g id="a_node2"><a xlink:href="JStudio_2JStudio__JAudio2_2control_8h.html" target="_top" xlink:title=" ">
<polygon fill="white" stroke="#666666" points="448.04,-239 315.04,-239 315.04,-209 448.04,-209 448.04,-239"/>
<text text-anchor="start" x="323.04" y="-227" font-family="Helvetica,sans-Serif" font-size="10.00">include/JSystem/JStudio</text>
<text text-anchor="middle" x="381.54" y="-216" font-family="Helvetica,sans-Serif" font-size="10.00">/JStudio_JAudio2/control.h</text>
</a>
</g>
</g>
<!-- Node1&#45;&gt;Node2 -->
<g id="edge1" class="edge">
<title>Node1&#45;&gt;Node2</title>
<path fill="none" stroke="#63b8ff" d="M2731.18,-287.01C2367.03,-277.4 793.1,-235.86 448.41,-226.76"/>
<polygon fill="#63b8ff" stroke="#63b8ff" points="2731.01,-290.51 2741.1,-287.27 2731.19,-283.51 2731.01,-290.51"/>
</g>
<!-- Node15 -->
<g id="node15" class="node">
<title>Node15</title>
<g id="a_node15"><a xlink:href="Z2SeMgr_8h.html" target="_top" xlink:title=" ">
<polygon fill="white" stroke="#666666" points="1960.54,-239 1860.54,-239 1860.54,-209 1960.54,-209 1960.54,-239"/>
<text text-anchor="start" x="1868.54" y="-227" font-family="Helvetica,sans-Serif" font-size="10.00">include/Z2AudioLib</text>
<text text-anchor="middle" x="1910.54" y="-216" font-family="Helvetica,sans-Serif" font-size="10.00">/Z2SeMgr.h</text>
</a>
</g>
</g>
<!-- Node1&#45;&gt;Node15 -->
<g id="edge14" class="edge">
<title>Node1&#45;&gt;Node15</title>
<path fill="none" stroke="#63b8ff" d="M2731.5,-283.64C2553.7,-270.94 2110.49,-239.28 1960.82,-228.59"/>
<polygon fill="#63b8ff" stroke="#63b8ff" points="2731.08,-287.12 2741.31,-284.34 2731.58,-280.14 2731.08,-287.12"/>
</g>
<!-- Node491 -->
<g id="node39" class="node">
<title>Node491</title>
<g id="a_node39"><a xlink:href="Z2SeqMgr_8h.html" target="_top" xlink:title=" ">
<polygon fill="white" stroke="#666666" points="2412.54,-239 2312.54,-239 2312.54,-209 2412.54,-209 2412.54,-239"/>
<text text-anchor="start" x="2320.54" y="-227" font-family="Helvetica,sans-Serif" font-size="10.00">include/Z2AudioLib</text>
<text text-anchor="middle" x="2362.54" y="-216" font-family="Helvetica,sans-Serif" font-size="10.00">/Z2SeqMgr.h</text>
</a>
</g>
</g>
<!-- Node1&#45;&gt;Node491 -->
<g id="edge47" class="edge">
<title>Node1&#45;&gt;Node491</title>
<path fill="none" stroke="#63b8ff" d="M2731.63,-278.2C2640.99,-265.14 2490.87,-243.5 2412.95,-232.27"/>
<polygon fill="#63b8ff" stroke="#63b8ff" points="2731.03,-281.65 2741.43,-279.61 2732.03,-274.72 2731.03,-281.65"/>
</g>
<!-- Node494 -->
<g id="node42" class="node">
<title>Node494</title>
<g id="a_node42"><a xlink:href="Z2SoundHandles_8h.html" target="_top" xlink:title=" ">
<polygon fill="white" stroke="#666666" points="2936.54,-239 2834.54,-239 2834.54,-209 2936.54,-209 2936.54,-239"/>
<text text-anchor="start" x="2842.54" y="-227" font-family="Helvetica,sans-Serif" font-size="10.00">include/Z2AudioLib</text>
<text text-anchor="middle" x="2885.54" y="-216" font-family="Helvetica,sans-Serif" font-size="10.00">/Z2SoundHandles.h</text>
</a>
</g>
</g>
<!-- Node1&#45;&gt;Node494 -->
<g id="edge54" class="edge">
<title>Node1&#45;&gt;Node494</title>
<path fill="none" stroke="#63b8ff" d="M2832.83,-267.7C2844.32,-258.4 2857.48,-247.73 2867.78,-239.39"/>
<polygon fill="#63b8ff" stroke="#63b8ff" points="2830.81,-264.83 2825.25,-273.84 2835.22,-270.27 2830.81,-264.83"/>
</g>
<!-- Node498 -->
<g id="node45" class="node">
<title>Node498</title>
<g id="a_node45"><a xlink:href="Z2SpeechMgr2_8h.html" target="_top" xlink:title=" ">
<polygon fill="white" stroke="#666666" points="2778.54,-239 2678.54,-239 2678.54,-209 2778.54,-209 2778.54,-239"/>
<text text-anchor="start" x="2686.54" y="-227" font-family="Helvetica,sans-Serif" font-size="10.00">include/Z2AudioLib</text>
<text text-anchor="middle" x="2728.54" y="-216" font-family="Helvetica,sans-Serif" font-size="10.00">/Z2SpeechMgr2.h</text>
</a>
</g>
</g>
<!-- Node1&#45;&gt;Node498 -->
<g id="edge59" class="edge">
<title>Node1&#45;&gt;Node498</title>
<path fill="none" stroke="#63b8ff" d="M2780.58,-267.7C2769.24,-258.4 2756.24,-247.73 2746.07,-239.39"/>
<polygon fill="#63b8ff" stroke="#63b8ff" points="2778.11,-270.2 2788.06,-273.84 2782.55,-264.79 2778.11,-270.2"/>
</g>
<!-- Node499 -->
<g id="node46" class="node">
<title>Node499</title>
<g id="a_node46"><a xlink:href="Z2WolfHowlMgr_8h.html" target="_top" xlink:title=" ">
<polygon fill="white" stroke="#666666" points="2856.54,-167.5 2756.54,-167.5 2756.54,-137.5 2856.54,-137.5 2856.54,-167.5"/>
<text text-anchor="start" x="2764.54" y="-155.5" font-family="Helvetica,sans-Serif" font-size="10.00">include/Z2AudioLib</text>
<text text-anchor="middle" x="2806.54" y="-144.5" font-family="Helvetica,sans-Serif" font-size="10.00">/Z2WolfHowlMgr.h</text>
</a>
</g>
</g>
<!-- Node1&#45;&gt;Node499 -->
<g id="edge62" class="edge">
<title>Node1&#45;&gt;Node499</title>
<path fill="none" stroke="#63b8ff" d="M2806.54,-263.41C2806.54,-235.17 2806.54,-190.71 2806.54,-167.96"/>
<polygon fill="#63b8ff" stroke="#63b8ff" points="2803.04,-263.24 2806.54,-273.24 2810.04,-263.24 2803.04,-263.24"/>
</g>
<!-- Node500 -->
<g id="node48" class="node">
<title>Node500</title>
<g id="a_node48"><a xlink:href="JAISeMgr_8cpp.html" target="_top" xlink:title=" ">
<polygon fill="white" stroke="#666666" points="3066.04,-239 2955.04,-239 2955.04,-209 3066.04,-209 3066.04,-239"/>
<text text-anchor="start" x="2963.04" y="-227" font-family="Helvetica,sans-Serif" font-size="10.00">libs/JSystem/JAudio2</text>
<text text-anchor="middle" x="3010.54" y="-216" font-family="Helvetica,sans-Serif" font-size="10.00">/JAISeMgr.cpp</text>
</a>
</g>
</g>
<!-- Node1&#45;&gt;Node500 -->
<g id="edge67" class="edge">
<title>Node1&#45;&gt;Node500</title>
<path fill="none" stroke="#63b8ff" d="M2863.53,-271.12C2895.46,-261.1 2934.74,-248.78 2964.67,-239.39"/>
<polygon fill="#63b8ff" stroke="#63b8ff" points="2862.51,-267.77 2854.02,-274.1 2864.61,-274.45 2862.51,-267.77"/>
</g>
<!-- Node501 -->
<g id="node49" class="node">
<title>Node501</title>
<g id="a_node49"><a xlink:href="JAISound_8cpp.html" target="_top" xlink:title=" ">
<polygon fill="white" stroke="#666666" points="3195.04,-239 3084.04,-239 3084.04,-209 3195.04,-209 3195.04,-239"/>
<text text-anchor="start" x="3092.04" y="-227" font-family="Helvetica,sans-Serif" font-size="10.00">libs/JSystem/JAudio2</text>
<text text-anchor="middle" x="3139.54" y="-216" font-family="Helvetica,sans-Serif" font-size="10.00">/JAISound.cpp</text>
</a>
</g>
</g>
<!-- Node1&#45;&gt;Node501 -->
<g id="edge68" class="edge">
<title>Node1&#45;&gt;Node501</title>
<path fill="none" stroke="#63b8ff" d="M2881.71,-275.68C2935.73,-265.95 3010.23,-252.21 3075.54,-239 3078.21,-238.46 3080.95,-237.9 3083.71,-237.32"/>
<polygon fill="#63b8ff" stroke="#63b8ff" points="2881.22,-272.21 2872,-277.43 2882.46,-279.1 2881.22,-272.21"/>
</g>
<!-- Node502 -->
<g id="node50" class="node">
<title>Node502</title>
<g id="a_node50"><a xlink:href="JAISoundHandles_8cpp.html" target="_top" xlink:title=" ">
<polygon fill="white" stroke="#666666" points="3329.54,-239 3213.54,-239 3213.54,-209 3329.54,-209 3329.54,-239"/>
<text text-anchor="start" x="3221.54" y="-227" font-family="Helvetica,sans-Serif" font-size="10.00">libs/JSystem/JAudio2</text>
<text text-anchor="middle" x="3271.54" y="-216" font-family="Helvetica,sans-Serif" font-size="10.00">/JAISoundHandles.cpp</text>
</a>
</g>
</g>
<!-- Node1&#45;&gt;Node502 -->
<g id="edge69" class="edge">
<title>Node1&#45;&gt;Node502</title>
<path fill="none" stroke="#63b8ff" d="M2881.51,-281.41C2961.71,-272.87 3092.52,-257.71 3204.54,-239 3207.35,-238.53 3210.23,-238.03 3213.12,-237.5"/>
<polygon fill="#63b8ff" stroke="#63b8ff" points="2881.61,-277.88 2872.04,-282.42 2882.35,-284.84 2881.61,-277.88"/>
</g>
<!-- Node3 -->
<g id="node3" class="node">
<title>Node3</title>
<g id="a_node3"><a xlink:href="d__demo_8h.html" target="_top" xlink:title=" ">
<polygon fill="white" stroke="#666666" points="497.04,-162 396.04,-162 396.04,-143 497.04,-143 497.04,-162"/>
<text text-anchor="middle" x="446.54" y="-150" font-family="Helvetica,sans-Serif" font-size="10.00">include/d/d_demo.h</text>
</a>
</g>
</g>
<!-- Node2&#45;&gt;Node3 -->
<g id="edge2" class="edge">
<title>Node2&#45;&gt;Node3</title>
<path fill="none" stroke="#63b8ff" d="M402.59,-200.49C414.81,-187.43 429.5,-171.72 438.42,-162.18"/>
<polygon fill="#63b8ff" stroke="#63b8ff" points="400.31,-197.8 396.04,-207.49 405.43,-202.58 400.31,-197.8"/>
</g>
<!-- Node13 -->
<g id="node13" class="node">
<title>Node13</title>
<g id="a_node13"><a xlink:href="JStudio_2JStudio__JAudio2_2control_8cpp.html" target="_top" xlink:title=" ">
<polygon fill="white" stroke="#666666" points="237.04,-167.5 94.04,-167.5 94.04,-137.5 237.04,-137.5 237.04,-167.5"/>
<text text-anchor="start" x="102.04" y="-155.5" font-family="Helvetica,sans-Serif" font-size="10.00">libs/JSystem/JStudio</text>
<text text-anchor="middle" x="165.54" y="-144.5" font-family="Helvetica,sans-Serif" font-size="10.00">/JStudio_JAudio2/control.cpp</text>
</a>
</g>
</g>
<!-- Node2&#45;&gt;Node13 -->
<g id="edge12" class="edge">
<title>Node2&#45;&gt;Node13</title>
<path fill="none" stroke="#63b8ff" d="M325.75,-205.05C289.92,-193.52 243.99,-178.74 210.5,-167.97"/>
<polygon fill="#63b8ff" stroke="#63b8ff" points="324.49,-208.32 335.08,-208.05 326.63,-201.66 324.49,-208.32"/>
</g>
<!-- Node14 -->
<g id="node14" class="node">
<title>Node14</title>
<g id="a_node14"><a xlink:href="object-sound_8cpp.html" target="_top" xlink:title=" ">
<polygon fill="white" stroke="#666666" points="377.54,-173 255.54,-173 255.54,-132 377.54,-132 377.54,-173"/>
<text text-anchor="start" x="263.54" y="-161" font-family="Helvetica,sans-Serif" font-size="10.00">libs/JSystem/JStudio</text>
<text text-anchor="start" x="263.54" y="-150" font-family="Helvetica,sans-Serif" font-size="10.00">/JStudio_JAudio2/object</text>
<text text-anchor="middle" x="316.54" y="-139" font-family="Helvetica,sans-Serif" font-size="10.00">&#45;sound.cpp</text>
</a>
</g>
</g>
<!-- Node2&#45;&gt;Node14 -->
<g id="edge13" class="edge">
<title>Node2&#45;&gt;Node14</title>
<path fill="none" stroke="#63b8ff" d="M360.39,-200.39C352.26,-191.69 343.04,-181.84 335.16,-173.42"/>
<polygon fill="#63b8ff" stroke="#63b8ff" points="357.65,-202.58 367.04,-207.49 362.76,-197.8 357.65,-202.58"/>
</g>
<!-- Node4 -->
<g id="node4" class="node">
<title>Node4</title>
<g id="a_node4"><a xlink:href="Z2WolfHowlMgr_8cpp.html" target="_top" xlink:title=" ">
<polygon fill="white" stroke="#666666" points="2090.54,-96 1950.54,-96 1950.54,-66 2090.54,-66 2090.54,-96"/>
<text text-anchor="start" x="1958.54" y="-84" font-family="Helvetica,sans-Serif" font-size="10.00">libs/Z2AudioLib/Z2WolfHowl</text>
<text text-anchor="middle" x="2020.54" y="-73" font-family="Helvetica,sans-Serif" font-size="10.00">Mgr.cpp</text>
</a>
</g>
</g>
<!-- Node3&#45;&gt;Node4 -->
<g id="edge3" class="edge">
<title>Node3&#45;&gt;Node4</title>
<path fill="none" stroke="#63b8ff" d="M508.62,-149.44C782.13,-140.31 1869.33,-103.7 1941.54,-96 1944.45,-95.69 1947.41,-95.34 1950.4,-94.95"/>
<polygon fill="#63b8ff" stroke="#63b8ff" points="508.73,-145.93 498.86,-149.76 508.97,-152.93 508.73,-145.93"/>
</g>
<!-- Node5 -->
<g id="node5" class="node">
<title>Node5</title>
<g id="a_node5"><a xlink:href="d__com__static_8cpp.html" target="_top" xlink:title=" ">
<polygon fill="white" stroke="#666666" points="159.54,-90.5 19.54,-90.5 19.54,-71.5 159.54,-71.5 159.54,-90.5"/>
<text text-anchor="middle" x="89.54" y="-78.5" font-family="Helvetica,sans-Serif" font-size="10.00">src/d/com/d_com_static.cpp</text>
</a>
</g>
</g>
<!-- Node3&#45;&gt;Node5 -->
<g id="edge4" class="edge">
<title>Node3&#45;&gt;Node5</title>
<path fill="none" stroke="#63b8ff" d="M411.08,-139C403.07,-136.45 394.57,-133.96 386.54,-132 291.13,-108.76 265.33,-112.57 168.54,-96 159.2,-94.4 149.25,-92.67 139.67,-90.98"/>
<polygon fill="#63b8ff" stroke="#63b8ff" points="409.93,-142.31 420.53,-142.11 412.13,-135.66 409.93,-142.31"/>
</g>
<!-- Node6 -->
<g id="node6" class="node">
<title>Node6</title>
<g id="a_node6"><a xlink:href="d__demo_8cpp.html" target="_top" xlink:title=" ">
<polygon fill="white" stroke="#666666" points="271.54,-90.5 177.54,-90.5 177.54,-71.5 271.54,-71.5 271.54,-90.5"/>
<text text-anchor="middle" x="224.54" y="-78.5" font-family="Helvetica,sans-Serif" font-size="10.00">src/d/d_demo.cpp</text>
</a>
</g>
</g>
<!-- Node3&#45;&gt;Node6 -->
<g id="edge5" class="edge">
<title>Node3&#45;&gt;Node6</title>
<path fill="none" stroke="#63b8ff" d="M408.6,-139.08C401.29,-136.71 393.68,-134.26 386.54,-132 340.38,-117.38 286.65,-100.9 254.14,-90.99"/>
<polygon fill="#63b8ff" stroke="#63b8ff" points="407.35,-142.35 417.95,-142.11 409.52,-135.69 407.35,-142.35"/>
</g>
<!-- Node7 -->
<g id="node7" class="node">
<title>Node7</title>
<g id="a_node7"><a xlink:href="d__ev__camera_8cpp.html" target="_top" xlink:title=" ">
<polygon fill="white" stroke="#666666" points="1406.54,-24.5 1288.54,-24.5 1288.54,-5.5 1406.54,-5.5 1406.54,-24.5"/>
<text text-anchor="middle" x="1347.54" y="-12.5" font-family="Helvetica,sans-Serif" font-size="10.00">src/d/d_ev_camera.cpp</text>
</a>
</g>
</g>
<!-- Node3&#45;&gt;Node7 -->
<g id="edge6" class="edge">
<title>Node3&#45;&gt;Node7</title>
<path fill="none" stroke="#63b8ff" d="M485.3,-138.86C514.02,-128.86 553.7,-113.65 586.54,-96 607.06,-84.97 607.56,-73.76 629.54,-66 690.88,-44.35 1127.55,-24.83 1288.32,-18.31"/>
<polygon fill="#63b8ff" stroke="#63b8ff" points="484.24,-135.53 475.91,-142.08 486.51,-142.15 484.24,-135.53"/>
</g>
<!-- Node8 -->
<g id="node8" class="node">
<title>Node8</title>
<g id="a_node8"><a xlink:href="d__event_8cpp.html" target="_top" xlink:title=" ">
<polygon fill="white" stroke="#666666" points="2337.04,-24.5 2216.04,-24.5 2216.04,-5.5 2337.04,-5.5 2337.04,-24.5"/>
<text text-anchor="middle" x="2276.54" y="-12.5" font-family="Helvetica,sans-Serif" font-size="10.00">src/d/event/d_event.cpp</text>
</a>
</g>
</g>
<!-- Node3&#45;&gt;Node8 -->
<g id="edge7" class="edge">
<title>Node3&#45;&gt;Node8</title>
<path fill="none" stroke="#63b8ff" d="M487.92,-139.24C523.74,-128.44 576.83,-111.98 622.54,-96 657.6,-83.74 664.13,-73.36 700.54,-66 850.8,-35.63 1944.73,-20.13 2215.86,-16.72"/>
<polygon fill="#63b8ff" stroke="#63b8ff" points="486.95,-135.87 478.38,-142.1 488.97,-142.58 486.95,-135.87"/>
</g>
<!-- Node9 -->
<g id="node9" class="node">
<title>Node9</title>
<g id="a_node9"><a xlink:href="d__event__data_8cpp.html" target="_top" xlink:title=" ">
<polygon fill="white" stroke="#666666" points="431.04,-96 328.04,-96 328.04,-66 431.04,-66 431.04,-96"/>
<text text-anchor="start" x="336.04" y="-84" font-family="Helvetica,sans-Serif" font-size="10.00">src/d/event/d_event</text>
<text text-anchor="middle" x="379.54" y="-73" font-family="Helvetica,sans-Serif" font-size="10.00">_data.cpp</text>
</a>
</g>
</g>
<!-- Node3&#45;&gt;Node9 -->
<g id="edge8" class="edge">
<title>Node3&#45;&gt;Node9</title>
<path fill="none" stroke="#63b8ff" d="M430.23,-134.58C418.92,-122.85 404.01,-107.39 393.3,-96.27"/>
<polygon fill="#63b8ff" stroke="#63b8ff" points="427.54,-136.84 437,-141.61 432.58,-131.98 427.54,-136.84"/>
</g>
<!-- Node10 -->
<g id="node10" class="node">
<title>Node10</title>
<g id="a_node10"><a xlink:href="d__meter2_8cpp.html" target="_top" xlink:title=" ">
<polygon fill="white" stroke="#666666" points="577.54,-90.5 449.54,-90.5 449.54,-71.5 577.54,-71.5 577.54,-90.5"/>
<text text-anchor="middle" x="513.54" y="-78.5" font-family="Helvetica,sans-Serif" font-size="10.00">src/d/meter/d_meter2.cpp</text>
</a>
</g>
</g>
<!-- Node3&#45;&gt;Node10 -->
<g id="edge9" class="edge">
<title>Node3&#45;&gt;Node10</title>
<path fill="none" stroke="#63b8ff" d="M462.9,-134.53C476.16,-120.77 494.33,-101.93 504.91,-90.95"/>
<polygon fill="#63b8ff" stroke="#63b8ff" points="460.49,-131.98 456.07,-141.61 465.53,-136.84 460.49,-131.98"/>
</g>
<!-- Node11 -->
<g id="node11" class="node">
<title>Node11</title>
<g id="a_node11"><a xlink:href="d__s__play_8cpp.html" target="_top" xlink:title=" ">
<polygon fill="white" stroke="#666666" points="258.54,-24.5 152.54,-24.5 152.54,-5.5 258.54,-5.5 258.54,-24.5"/>
<text text-anchor="middle" x="205.54" y="-12.5" font-family="Helvetica,sans-Serif" font-size="10.00">src/d/s/d_s_play.cpp</text>
</a>
</g>
</g>
<!-- Node3&#45;&gt;Node11 -->
<g id="edge10" class="edge">
<title>Node3&#45;&gt;Node11</title>
<path fill="none" stroke="#63b8ff" d="M412.1,-138.89C403.83,-136.25 394.94,-133.75 386.54,-132 304.36,-114.93 66.99,-158.12 10.54,-96 -33.7,-47.32 80.32,-27.56 152.17,-20.11"/>
<polygon fill="#63b8ff" stroke="#63b8ff" points="410.89,-142.17 421.48,-142.02 413.11,-135.53 410.89,-142.17"/>
</g>
<!-- Node12 -->
<g id="node12" class="node">
<title>Node12</title>
<g id="a_node12"><a xlink:href="f__op__actor_8cpp.html" target="_top" xlink:title=" ">
<polygon fill="white" stroke="#666666" points="484.04,-24.5 365.04,-24.5 365.04,-5.5 484.04,-5.5 484.04,-24.5"/>
<text text-anchor="middle" x="424.54" y="-12.5" font-family="Helvetica,sans-Serif" font-size="10.00">src/f_op/f_op_actor.cpp</text>
</a>
</g>
</g>
<!-- Node3&#45;&gt;Node12 -->
<g id="edge11" class="edge">
<title>Node3&#45;&gt;Node12</title>
<path fill="none" stroke="#63b8ff" d="M411.55,-138.6C375.57,-124.98 324.02,-104.35 318.54,-96 311.22,-84.85 311.4,-77.26 318.54,-66 332.21,-44.43 357.95,-32 380.64,-24.92"/>
<polygon fill="#63b8ff" stroke="#63b8ff" points="410.14,-141.81 420.73,-142.05 412.6,-135.25 410.14,-141.81"/>
</g>
<!-- Node15&#45;&gt;Node4 -->
<g id="edge46" class="edge">
<title>Node15&#45;&gt;Node4</title>
<path fill="none" stroke="#63b8ff" d="M1875.69,-201.83C1866.05,-194.07 1856.8,-184.36 1851.54,-173 1843.88,-156.47 1840.63,-146.6 1851.54,-132 1858.29,-122.96 1913.37,-107.74 1958.84,-96.46"/>
<polygon fill="#63b8ff" stroke="#63b8ff" points="1873.59,-204.64 1883.72,-207.77 1877.76,-199.01 1873.59,-204.64"/>
</g>
<!-- Node16 -->
<g id="node16" class="node">
<title>Node16</title>
<g id="a_node16"><a xlink:href="Z2AudioMgr_8h.html" target="_top" xlink:title=" ">
<polygon fill="white" stroke="#666666" points="2334.54,-167.5 2234.54,-167.5 2234.54,-137.5 2334.54,-137.5 2334.54,-167.5"/>
<text text-anchor="start" x="2242.54" y="-155.5" font-family="Helvetica,sans-Serif" font-size="10.00">include/Z2AudioLib</text>
<text text-anchor="middle" x="2284.54" y="-144.5" font-family="Helvetica,sans-Serif" font-size="10.00">/Z2AudioMgr.h</text>
</a>
</g>
</g>
<!-- Node15&#45;&gt;Node16 -->
<g id="edge15" class="edge">
<title>Node15&#45;&gt;Node16</title>
<path fill="none" stroke="#63b8ff" d="M1972.07,-212.25C2028.24,-202.36 2113.55,-187.11 2187.54,-173 2202.72,-170.1 2219.22,-166.83 2234.23,-163.81"/>
<polygon fill="#63b8ff" stroke="#63b8ff" points="1971.62,-208.78 1962.38,-213.96 1972.83,-215.67 1971.62,-208.78"/>
</g>
<!-- Node484 -->
<g id="node21" class="node">
<title>Node484</title>
<g id="a_node21"><a xlink:href="Z2EnvSeMgr_8h.html" target="_top" xlink:title=" ">
<polygon fill="white" stroke="#666666" points="1960.54,-167.5 1860.54,-167.5 1860.54,-137.5 1960.54,-137.5 1960.54,-167.5"/>
<text text-anchor="start" x="1868.54" y="-155.5" font-family="Helvetica,sans-Serif" font-size="10.00">include/Z2AudioLib</text>
<text text-anchor="middle" x="1910.54" y="-144.5" font-family="Helvetica,sans-Serif" font-size="10.00">/Z2EnvSeMgr.h</text>
</a>
</g>
</g>
<!-- Node15&#45;&gt;Node484 -->
<g id="edge21" class="edge">
<title>Node15&#45;&gt;Node484</title>
<path fill="none" stroke="#63b8ff" d="M1910.54,-197.26C1910.54,-187.33 1910.54,-176.36 1910.54,-167.88"/>
<polygon fill="#63b8ff" stroke="#63b8ff" points="1907.04,-197.09 1910.54,-207.09 1914.04,-197.09 1907.04,-197.09"/>
</g>
<!-- Node486 -->
<g id="node23" class="node">
<title>Node486</title>
<g id="a_node23"><a xlink:href="d__cc__d_8h.html" target="_top" xlink:title=" ">
<polygon fill="#fff0f0" stroke="red" points="1488.04,-162 1377.04,-162 1377.04,-143 1488.04,-143 1488.04,-162"/>
<text text-anchor="middle" x="1432.54" y="-150" font-family="Helvetica,sans-Serif" font-size="10.00">include/d/cc/d_cc_d.h</text>
</a>
</g>
</g>
<!-- Node15&#45;&gt;Node486 -->
<g id="edge26" class="edge">
<title>Node15&#45;&gt;Node486</title>
<path fill="none" stroke="#63b8ff" d="M1849.02,-214.05C1755.37,-200.44 1578.46,-174.72 1488.34,-161.61"/>
<polygon fill="#63b8ff" stroke="#63b8ff" points="1848.39,-217.5 1858.79,-215.48 1849.4,-210.57 1848.39,-217.5"/>
</g>
<!-- Node487 -->
<g id="node35" class="node">
<title>Node487</title>
<g id="a_node35"><a xlink:href="Z2Creature_8cpp.html" target="_top" xlink:title=" ">
<polygon fill="white" stroke="#666666" points="1196.04,-162 1043.04,-162 1043.04,-143 1196.04,-143 1196.04,-162"/>
<text text-anchor="middle" x="1119.54" y="-150" font-family="Helvetica,sans-Serif" font-size="10.00">libs/Z2AudioLib/Z2Creature.cpp</text>
</a>
</g>
</g>
<!-- Node15&#45;&gt;Node487 -->
<g id="edge42" class="edge">
<title>Node15&#45;&gt;Node487</title>
<path fill="none" stroke="#63b8ff" d="M1848.86,-221.78C1725.86,-218.64 1441.6,-207.93 1205.54,-173 1188.27,-170.45 1169.33,-166.3 1153.63,-162.49"/>
<polygon fill="#63b8ff" stroke="#63b8ff" points="1848.65,-225.27 1858.74,-222.02 1848.82,-218.27 1848.65,-225.27"/>
</g>
<!-- Node488 -->
<g id="node36" class="node">
<title>Node488</title>
<g id="a_node36"><a xlink:href="Z2SceneMgr_8cpp.html" target="_top" xlink:title=" ">
<polygon fill="white" stroke="#666666" points="2178.04,-162 2017.04,-162 2017.04,-143 2178.04,-143 2178.04,-162"/>
<text text-anchor="middle" x="2097.54" y="-150" font-family="Helvetica,sans-Serif" font-size="10.00">libs/Z2AudioLib/Z2SceneMgr.cpp</text>
</a>
</g>
</g>
<!-- Node15&#45;&gt;Node488 -->
<g id="edge43" class="edge">
<title>Node15&#45;&gt;Node488</title>
<path fill="none" stroke="#63b8ff" d="M1959.75,-204.71C1996.37,-191.1 2044.76,-173.11 2073.38,-162.48"/>
<polygon fill="#63b8ff" stroke="#63b8ff" points="1958.86,-201.31 1950.7,-208.07 1961.3,-207.87 1958.86,-201.31"/>
</g>
<!-- Node489 -->
<g id="node37" class="node">
<title>Node489</title>
<g id="a_node37"><a xlink:href="Z2SeMgr_8cpp.html" target="_top" xlink:title=" ">
<polygon fill="white" stroke="#666666" points="1359.04,-162 1214.04,-162 1214.04,-143 1359.04,-143 1359.04,-162"/>
<text text-anchor="middle" x="1286.54" y="-150" font-family="Helvetica,sans-Serif" font-size="10.00">libs/Z2AudioLib/Z2SeMgr.cpp</text>
</a>
</g>
</g>
<!-- Node15&#45;&gt;Node489 -->
<g id="edge44" class="edge">
<title>Node15&#45;&gt;Node489</title>
<path fill="none" stroke="#63b8ff" d="M1848.68,-220.15C1747.65,-214.85 1541.2,-201.35 1368.54,-173 1352.22,-170.32 1334.33,-166.21 1319.44,-162.45"/>
<polygon fill="#63b8ff" stroke="#63b8ff" points="1848.49,-223.64 1858.66,-220.66 1848.85,-216.65 1848.49,-223.64"/>
</g>
<!-- Node490 -->
<g id="node38" class="node">
<title>Node490</title>
<g id="a_node38"><a xlink:href="Z2SoundObject_8cpp.html" target="_top" xlink:title=" ">
<polygon fill="white" stroke="#666666" points="2915.04,-90.5 2742.04,-90.5 2742.04,-71.5 2915.04,-71.5 2915.04,-90.5"/>
<text text-anchor="middle" x="2828.54" y="-78.5" font-family="Helvetica,sans-Serif" font-size="10.00">libs/Z2AudioLib/Z2SoundObject.cpp</text>
</a>
</g>
</g>
<!-- Node15&#45;&gt;Node490 -->
<g id="edge45" class="edge">
<title>Node15&#45;&gt;Node490</title>
<path fill="none" stroke="#63b8ff" d="M1937.15,-201.48C1947.48,-192.87 1959.27,-182.7 1969.54,-173 1987.82,-155.73 1985.68,-142.48 2008.54,-132 2081.75,-98.42 2652.37,-103.82 2732.54,-96 2745.78,-94.71 2759.99,-92.88 2773.31,-90.97"/>
<polygon fill="#63b8ff" stroke="#63b8ff" points="1935.17,-198.57 1929.69,-207.64 1939.63,-203.97 1935.17,-198.57"/>
</g>
<!-- Node17 -->
<g id="node17" class="node">
<title>Node17</title>
<g id="a_node17"><a xlink:href="m__Do__audio_8h.html" target="_top" xlink:title=" ">
<polygon fill="#fff0f0" stroke="red" points="2248.54,-90.5 2108.54,-90.5 2108.54,-71.5 2248.54,-71.5 2248.54,-90.5"/>
<text text-anchor="middle" x="2178.54" y="-78.5" font-family="Helvetica,sans-Serif" font-size="10.00">include/m_Do/m_Do_audio.h</text>
</a>
</g>
</g>
<!-- Node16&#45;&gt;Node17 -->
<g id="edge16" class="edge">
<title>Node16&#45;&gt;Node17</title>
<path fill="none" stroke="#63b8ff" d="M2253.08,-130.87C2232.77,-117.56 2207.37,-100.9 2192.08,-90.88"/>
<polygon fill="#63b8ff" stroke="#63b8ff" points="2251.03,-133.71 2261.31,-136.27 2254.87,-127.86 2251.03,-133.71"/>
</g>
<!-- Node481 -->
<g id="node18" class="node">
<title>Node481</title>
<g id="a_node18"><a xlink:href="Z2AudioMgr_8cpp.html" target="_top" xlink:title=" ">
<polygon fill="white" stroke="#666666" points="3279.54,-90.5 3121.54,-90.5 3121.54,-71.5 3279.54,-71.5 3279.54,-90.5"/>
<text text-anchor="middle" x="3200.54" y="-78.5" font-family="Helvetica,sans-Serif" font-size="10.00">libs/Z2AudioLib/Z2AudioMgr.cpp</text>
</a>
</g>
</g>
<!-- Node16&#45;&gt;Node481 -->
<g id="edge18" class="edge">
<title>Node16&#45;&gt;Node481</title>
<path fill="none" stroke="#63b8ff" d="M2345.98,-137.71C2357.73,-135.48 2369.98,-133.44 2381.54,-132 2704.33,-91.83 2789,-129.6 3112.54,-96 3124.85,-94.72 3138.06,-92.87 3150.4,-90.94"/>
<polygon fill="#63b8ff" stroke="#63b8ff" points="2345.52,-134.24 2336.38,-139.6 2346.87,-141.1 2345.52,-134.24"/>
</g>
<!-- Node482 -->
<g id="node19" class="node">
<title>Node482</title>
<g id="a_node19"><a xlink:href="Z2SoundStarter_8cpp.html" target="_top" xlink:title=" ">
<polygon fill="white" stroke="#666666" points="2440.04,-90.5 2267.04,-90.5 2267.04,-71.5 2440.04,-71.5 2440.04,-90.5"/>
<text text-anchor="middle" x="2353.54" y="-78.5" font-family="Helvetica,sans-Serif" font-size="10.00">libs/Z2AudioLib/Z2SoundStarter.cpp</text>
</a>
</g>
</g>
<!-- Node16&#45;&gt;Node482 -->
<g id="edge19" class="edge">
<title>Node16&#45;&gt;Node482</title>
<path fill="none" stroke="#63b8ff" d="M2306.89,-128.99C2319.86,-115.93 2335.45,-100.22 2344.92,-90.68"/>
<polygon fill="#63b8ff" stroke="#63b8ff" points="2304.46,-126.46 2299.9,-136.03 2309.43,-131.39 2304.46,-126.46"/>
</g>
<!-- Node483 -->
<g id="node20" class="node">
<title>Node483</title>
<g id="a_node20"><a xlink:href="Z2SpeechMgr2_8cpp.html" target="_top" xlink:title=" ">
<polygon fill="white" stroke="#666666" points="2589.04,-96 2458.04,-96 2458.04,-66 2589.04,-66 2589.04,-96"/>
<text text-anchor="start" x="2466.04" y="-84" font-family="Helvetica,sans-Serif" font-size="10.00">libs/Z2AudioLib/Z2Speech</text>
<text text-anchor="middle" x="2523.54" y="-73" font-family="Helvetica,sans-Serif" font-size="10.00">Mgr2.cpp</text>
</a>
</g>
</g>
<!-- Node16&#45;&gt;Node483 -->
<g id="edge20" class="edge">
<title>Node16&#45;&gt;Node483</title>
<path fill="none" stroke="#63b8ff" d="M2342.57,-133.77C2344.58,-133.17 2346.58,-132.58 2348.54,-132 2390.06,-119.74 2437.26,-106.29 2472.16,-96.42"/>
<polygon fill="#63b8ff" stroke="#63b8ff" points="2341.72,-130.37 2333.14,-136.6 2343.73,-137.08 2341.72,-130.37"/>
</g>
<!-- Node17&#45;&gt;Node11 -->
<g id="edge17" class="edge">
<title>Node17&#45;&gt;Node11</title>
<path fill="none" stroke="#63b8ff" d="M2123.62,-69.14C2115.57,-67.88 2107.36,-66.77 2099.54,-66 1327.98,9.87 1129.56,-74.05 355.54,-30 323.42,-28.17 287.54,-24.87 258.92,-21.93"/>
<polygon fill="#63b8ff" stroke="#63b8ff" points="2122.9,-72.57 2133.34,-70.76 2124.05,-65.67 2122.9,-72.57"/>
</g>
<!-- Node484&#45;&gt;Node17 -->
<g id="edge22" class="edge">
<title>Node484&#45;&gt;Node17</title>
<path fill="none" stroke="#63b8ff" d="M1967.74,-133.9C1970.03,-133.25 1972.31,-132.61 1974.54,-132 2031.5,-116.35 2098.06,-100.49 2139.26,-90.94"/>
<polygon fill="#63b8ff" stroke="#63b8ff" points="1967.02,-130.46 1958.39,-136.61 1968.97,-137.19 1967.02,-130.46"/>
</g>
<!-- Node484&#45;&gt;Node482 -->
<g id="edge24" class="edge">
<title>Node484&#45;&gt;Node482</title>
<path fill="none" stroke="#63b8ff" d="M1965.44,-134.12C1968.51,-133.35 1971.55,-132.64 1974.54,-132 2098.51,-105.43 2131.91,-113.15 2257.54,-96 2269.05,-94.43 2281.33,-92.69 2293.13,-90.98"/>
<polygon fill="#63b8ff" stroke="#63b8ff" points="1964.57,-130.73 1955.81,-136.69 1966.38,-137.49 1964.57,-130.73"/>
</g>
<!-- Node484&#45;&gt;Node483 -->
<g id="edge25" class="edge">
<title>Node484&#45;&gt;Node483</title>
<path fill="none" stroke="#63b8ff" d="M1964.26,-134.21C1967.72,-133.38 1971.16,-132.63 1974.54,-132 2182.61,-92.91 2239.64,-123.72 2449.54,-96 2452.26,-95.64 2455.03,-95.25 2457.83,-94.82"/>
<polygon fill="#63b8ff" stroke="#63b8ff" points="1963.51,-130.79 1954.71,-136.69 1965.27,-137.56 1963.51,-130.79"/>
</g>
<!-- Node485 -->
<g id="node22" class="node">
<title>Node485</title>
<g id="a_node22"><a xlink:href="Z2EnvSeMgr_8cpp.html" target="_top" xlink:title=" ">
<polygon fill="white" stroke="#666666" points="1932.04,-90.5 1771.04,-90.5 1771.04,-71.5 1932.04,-71.5 1932.04,-90.5"/>
<text text-anchor="middle" x="1851.54" y="-78.5" font-family="Helvetica,sans-Serif" font-size="10.00">libs/Z2AudioLib/Z2EnvSeMgr.cpp</text>
</a>
</g>
</g>
<!-- Node484&#45;&gt;Node485 -->
<g id="edge23" class="edge">
<title>Node484&#45;&gt;Node485</title>
<path fill="none" stroke="#63b8ff" d="M1891.11,-128.62C1880.09,-115.63 1866.93,-100.13 1858.91,-90.68"/>
<polygon fill="#63b8ff" stroke="#63b8ff" points="1888.19,-130.59 1897.33,-135.95 1893.53,-126.06 1888.19,-130.59"/>
</g>
<!-- Node20 -->
<g id="node24" class="node">
<title>Node20</title>
<g id="a_node24"><a xlink:href="d__a__alink_8h.html" target="_top" xlink:title=" ">
<polygon fill="#fff0f0" stroke="red" points="2723.54,-90.5 2607.54,-90.5 2607.54,-71.5 2723.54,-71.5 2723.54,-90.5"/>
<text text-anchor="middle" x="2665.54" y="-78.5" font-family="Helvetica,sans-Serif" font-size="10.00">include/d/a/d_a_alink.h</text>
</a>
</g>
</g>
<!-- Node486&#45;&gt;Node20 -->
<g id="edge27" class="edge">
<title>Node486&#45;&gt;Node20</title>
<path fill="none" stroke="#63b8ff" d="M1499.69,-148.37C1745.8,-136.91 2584.82,-97.75 2598.54,-96 2608.09,-94.78 2618.3,-92.93 2627.8,-90.98"/>
<polygon fill="#63b8ff" stroke="#63b8ff" points="1499.77,-144.87 1489.94,-148.83 1500.09,-151.86 1499.77,-144.87"/>
</g>
<!-- Node314 -->
<g id="node26" class="node">
<title>Node314</title>
<g id="a_node26"><a xlink:href="d__a__item__static_8h.html" target="_top" xlink:title=" ">
<polygon fill="#fff0f0" stroke="red" points="1002.04,-30 895.04,-30 895.04,0 1002.04,0 1002.04,-30"/>
<text text-anchor="start" x="903.04" y="-18" font-family="Helvetica,sans-Serif" font-size="10.00">include/d/a/d_a_item</text>
<text text-anchor="middle" x="948.54" y="-7" font-family="Helvetica,sans-Serif" font-size="10.00">_static.h</text>
</a>
</g>
</g>
<!-- Node486&#45;&gt;Node314 -->
<g id="edge32" class="edge">
<title>Node486&#45;&gt;Node314</title>
<path fill="none" stroke="#63b8ff" d="M1397.43,-139.14C1388.14,-136.33 1378.05,-133.68 1368.54,-132 1295.34,-119.07 751.66,-149.95 700.54,-96 641.65,-33.85 805.36,-19.87 894.74,-16.8"/>
<polygon fill="#63b8ff" stroke="#63b8ff" points="1396.23,-142.43 1406.82,-142.13 1398.35,-135.76 1396.23,-142.43"/>
</g>
<!-- Node319 -->
<g id="node27" class="node">
<title>Node319</title>
<g id="a_node27"><a xlink:href="d__a__itembase_8h.html" target="_top" xlink:title=" ">
<polygon fill="#fff0f0" stroke="red" points="1753.04,-90.5 1618.04,-90.5 1618.04,-71.5 1753.04,-71.5 1753.04,-90.5"/>
<text text-anchor="middle" x="1685.54" y="-78.5" font-family="Helvetica,sans-Serif" font-size="10.00">include/d/a/d_a_itembase.h</text>
</a>
</g>
</g>
<!-- Node486&#45;&gt;Node319 -->
<g id="edge33" class="edge">
<title>Node486&#45;&gt;Node319</title>
<path fill="none" stroke="#63b8ff" d="M1475.94,-139.58C1526.25,-125.76 1608.01,-103.3 1653.11,-90.91"/>
<polygon fill="#63b8ff" stroke="#63b8ff" points="1475.27,-136.13 1466.55,-142.16 1477.12,-142.88 1475.27,-136.13"/>
</g>
<!-- Node358 -->
<g id="node28" class="node">
<title>Node358</title>
<g id="a_node28"><a xlink:href="d__bomb_8h.html" target="_top" xlink:title=" ">
<polygon fill="#fff0f0" stroke="red" points="811.04,-90.5 710.04,-90.5 710.04,-71.5 811.04,-71.5 811.04,-90.5"/>
<text text-anchor="middle" x="760.54" y="-78.5" font-family="Helvetica,sans-Serif" font-size="10.00">include/d/d_bomb.h</text>
</a>
</g>
</g>
<!-- Node486&#45;&gt;Node358 -->
<g id="edge35" class="edge">
<title>Node486&#45;&gt;Node358</title>
<path fill="none" stroke="#63b8ff" d="M1397.17,-139.14C1387.95,-136.36 1377.96,-133.72 1368.54,-132 1128.43,-88.14 1061.97,-131.85 820.54,-96 812.07,-94.74 803.04,-92.9 794.62,-90.97"/>
<polygon fill="#63b8ff" stroke="#63b8ff" points="1395.91,-142.41 1406.5,-142.1 1398.03,-135.74 1395.91,-142.41"/>
</g>
<!-- Node46 -->
<g id="node29" class="node">
<title>Node46</title>
<g id="a_node29"><a xlink:href="d__a__b__gnd_8h.html" target="_top" xlink:title=" ">
<polygon fill="white" stroke="#666666" points="945.54,-96 829.54,-96 829.54,-66 945.54,-66 945.54,-96"/>
<text text-anchor="start" x="837.54" y="-84" font-family="Helvetica,sans-Serif" font-size="10.00">include/rel/d/a/b/d</text>
<text text-anchor="middle" x="887.54" y="-73" font-family="Helvetica,sans-Serif" font-size="10.00">_a_b_gnd/d_a_b_gnd.h</text>
</a>
</g>
</g>
<!-- Node486&#45;&gt;Node46 -->
<g id="edge36" class="edge">
<title>Node486&#45;&gt;Node46</title>
<path fill="none" stroke="#63b8ff" d="M1396.91,-139.21C1387.76,-136.45 1377.86,-133.81 1368.54,-132 1187.65,-96.96 1137.86,-122.62 955.54,-96 952.32,-95.53 949.02,-95 945.7,-94.44"/>
<polygon fill="#63b8ff" stroke="#63b8ff" points="1395.58,-142.46 1406.17,-142.13 1397.69,-135.78 1395.58,-142.46"/>
</g>
<!-- Node259 -->
<g id="node30" class="node">
<title>Node259</title>
<g id="a_node30"><a xlink:href="d__a__arrow_8h.html" target="_top" xlink:title=" ">
<polygon fill="white" stroke="#666666" points="1065.04,-96 964.04,-96 964.04,-66 1065.04,-66 1065.04,-96"/>
<text text-anchor="start" x="972.04" y="-84" font-family="Helvetica,sans-Serif" font-size="10.00">include/rel/d/a/d_a</text>
<text text-anchor="middle" x="1014.54" y="-73" font-family="Helvetica,sans-Serif" font-size="10.00">_arrow/d_a_arrow.h</text>
</a>
</g>
</g>
<!-- Node486&#45;&gt;Node259 -->
<g id="edge37" class="edge">
<title>Node486&#45;&gt;Node259</title>
<path fill="none" stroke="#63b8ff" d="M1396.09,-139.2C1387.16,-136.52 1377.57,-133.91 1368.54,-132 1239.75,-104.71 1204.16,-118.99 1074.54,-96 1071.59,-95.48 1068.57,-94.9 1065.52,-94.29"/>
<polygon fill="#63b8ff" stroke="#63b8ff" points="1394.92,-142.5 1405.51,-142.14 1397.01,-135.82 1394.92,-142.5"/>
</g>
<!-- Node331 -->
<g id="node31" class="node">
<title>Node331</title>
<g id="a_node31"><a xlink:href="d__a__bg__obj_8h.html" target="_top" xlink:title=" ">
<polygon fill="white" stroke="#666666" points="1193.54,-96 1083.54,-96 1083.54,-66 1193.54,-66 1193.54,-96"/>
<text text-anchor="start" x="1091.54" y="-84" font-family="Helvetica,sans-Serif" font-size="10.00">include/rel/d/a/d_a</text>
<text text-anchor="middle" x="1138.54" y="-73" font-family="Helvetica,sans-Serif" font-size="10.00">_bg_obj/d_a_bg_obj.h</text>
</a>
</g>
</g>
<!-- Node486&#45;&gt;Node331 -->
<g id="edge38" class="edge">
<title>Node486&#45;&gt;Node331</title>
<path fill="none" stroke="#63b8ff" d="M1393.95,-139.19C1385.61,-136.68 1376.81,-134.15 1368.54,-132 1360.04,-129.78 1259.13,-107.98 1193.83,-93.9"/>
<polygon fill="#63b8ff" stroke="#63b8ff" points="1392.92,-142.53 1403.51,-142.11 1394.97,-135.84 1392.92,-142.53"/>
</g>
<!-- Node92 -->
<g id="node32" class="node">
<title>Node92</title>
<g id="a_node32"><a xlink:href="d__a__boomerang_8h.html" target="_top" xlink:title=" ">
<polygon fill="#fff0f0" stroke="red" points="1361.04,-96 1212.04,-96 1212.04,-66 1361.04,-66 1361.04,-96"/>
<text text-anchor="start" x="1220.04" y="-84" font-family="Helvetica,sans-Serif" font-size="10.00">include/rel/d/a/d_a</text>
<text text-anchor="middle" x="1286.54" y="-73" font-family="Helvetica,sans-Serif" font-size="10.00">_boomerang/d_a_boomerang.h</text>
</a>
</g>
</g>
<!-- Node486&#45;&gt;Node92 -->
<g id="edge39" class="edge">
<title>Node486&#45;&gt;Node92</title>
<path fill="none" stroke="#63b8ff" d="M1403.42,-137.64C1378.37,-125.71 1342.36,-108.57 1316.94,-96.47"/>
<polygon fill="#63b8ff" stroke="#63b8ff" points="1401.85,-140.77 1412.38,-141.91 1404.86,-134.45 1401.85,-140.77"/>
</g>
<!-- Node363 -->
<g id="node33" class="node">
<title>Node363</title>
<g id="a_node33"><a xlink:href="d__a__canoe_8h.html" target="_top" xlink:title=" ">
<polygon fill="white" stroke="#666666" points="1485.54,-96 1379.54,-96 1379.54,-66 1485.54,-66 1485.54,-96"/>
<text text-anchor="start" x="1387.54" y="-84" font-family="Helvetica,sans-Serif" font-size="10.00">include/rel/d/a/d_a</text>
<text text-anchor="middle" x="1432.54" y="-73" font-family="Helvetica,sans-Serif" font-size="10.00">_canoe/d_a_canoe.h</text>
</a>
</g>
</g>
<!-- Node486&#45;&gt;Node363 -->
<g id="edge40" class="edge">
<title>Node486&#45;&gt;Node363</title>
<path fill="none" stroke="#63b8ff" d="M1432.54,-131.39C1432.54,-120.15 1432.54,-106.41 1432.54,-96.27"/>
<polygon fill="#63b8ff" stroke="#63b8ff" points="1429.04,-131.18 1432.54,-141.18 1436.04,-131.18 1429.04,-131.18"/>
</g>
<!-- Node260 -->
<g id="node34" class="node">
<title>Node260</title>
<g id="a_node34"><a xlink:href="d__a__crod_8h.html" target="_top" xlink:title=" ">
<polygon fill="#fff0f0" stroke="red" points="1599.54,-96 1503.54,-96 1503.54,-66 1599.54,-66 1599.54,-96"/>
<text text-anchor="start" x="1511.54" y="-84" font-family="Helvetica,sans-Serif" font-size="10.00">include/rel/d/a/d_a</text>
<text text-anchor="middle" x="1551.54" y="-73" font-family="Helvetica,sans-Serif" font-size="10.00">_crod/d_a_crod.h</text>
</a>
</g>
</g>
<!-- Node486&#45;&gt;Node260 -->
<g id="edge41" class="edge">
<title>Node486&#45;&gt;Node260</title>
<path fill="none" stroke="#63b8ff" d="M1457.46,-136.94C1477.93,-124.99 1506.76,-108.15 1527.1,-96.27"/>
<polygon fill="#63b8ff" stroke="#63b8ff" points="1455.79,-133.87 1448.92,-141.93 1459.32,-139.91 1455.79,-133.87"/>
</g>
<!-- Node20&#45;&gt;Node7 -->
<g id="edge28" class="edge">
<title>Node20&#45;&gt;Node7</title>
<path fill="none" stroke="#63b8ff" d="M2617.12,-68.89C2610.89,-67.76 2604.58,-66.75 2598.54,-66 2363.54,-36.96 1622.41,-21.13 1406.87,-17.06"/>
<polygon fill="#63b8ff" stroke="#63b8ff" points="2616.19,-72.28 2626.67,-70.76 2617.53,-65.41 2616.19,-72.28"/>
</g>
<!-- Node20&#45;&gt;Node8 -->
<g id="edge29" class="edge">
<title>Node20&#45;&gt;Node8</title>
<path fill="none" stroke="#63b8ff" d="M2612.9,-68.73C2608.05,-67.78 2603.21,-66.85 2598.54,-66 2507.95,-49.51 2402.4,-33.78 2337.53,-24.51"/>
<polygon fill="#63b8ff" stroke="#63b8ff" points="2612.17,-72.15 2622.66,-70.7 2613.55,-65.29 2612.17,-72.15"/>
</g>
<!-- Node20&#45;&gt;Node12 -->
<g id="edge30" class="edge">
<title>Node20&#45;&gt;Node12</title>
<path fill="none" stroke="#63b8ff" d="M2617.59,-68.86C2611.21,-67.71 2604.74,-66.71 2598.54,-66 2220.24,-22.88 1266.16,-39.78 885.54,-30 741.46,-26.3 572.08,-20.88 484.21,-17.99"/>
<polygon fill="#63b8ff" stroke="#63b8ff" points="2616.91,-72.3 2627.39,-70.77 2618.24,-65.43 2616.91,-72.3"/>
</g>
<!-- Node29 -->
<g id="node25" class="node">
<title>Node29</title>
<g id="a_node25"><a xlink:href="d__msg__scrn__howl_8cpp.html" target="_top" xlink:title=" ">
<polygon fill="white" stroke="#666666" points="2857.54,-30 2751.54,-30 2751.54,0 2857.54,0 2857.54,-30"/>
<text text-anchor="start" x="2759.54" y="-18" font-family="Helvetica,sans-Serif" font-size="10.00">src/msg/scrn/d_msg</text>
<text text-anchor="middle" x="2804.54" y="-7" font-family="Helvetica,sans-Serif" font-size="10.00">_scrn_howl.cpp</text>
</a>
</g>
</g>
<!-- Node20&#45;&gt;Node29 -->
<g id="edge31" class="edge">
<title>Node20&#45;&gt;Node29</title>
<path fill="none" stroke="#63b8ff" d="M2695.03,-66.42C2717.95,-55.87 2749.69,-41.26 2773.09,-30.48"/>
<polygon fill="#63b8ff" stroke="#63b8ff" points="2693.86,-63.11 2686.24,-70.47 2696.79,-69.46 2693.86,-63.11"/>
</g>
<!-- Node319&#45;&gt;Node314 -->
<g id="edge34" class="edge">
<title>Node319&#45;&gt;Node314</title>
<path fill="none" stroke="#63b8ff" d="M1629.53,-69.11C1622.48,-67.95 1615.35,-66.88 1608.54,-66 1384.29,-37.2 1114.89,-23.13 1002.2,-18.17"/>
<polygon fill="#63b8ff" stroke="#63b8ff" points="1628.93,-72.56 1639.38,-70.81 1630.12,-65.66 1628.93,-72.56"/>
</g>
<!-- Node491&#45;&gt;Node4 -->
<g id="edge53" class="edge">
<title>Node491&#45;&gt;Node4</title>
<path fill="none" stroke="#63b8ff" d="M2301.56,-207.56C2276.71,-199.59 2248.5,-188.26 2225.54,-173 2204.85,-159.25 2208.63,-145.14 2187.54,-132 2158.25,-113.76 2121.93,-101.85 2090.65,-94.25"/>
<polygon fill="#63b8ff" stroke="#63b8ff" points="2300.3,-210.84 2310.89,-210.44 2302.36,-204.15 2300.3,-210.84"/>
</g>
<!-- Node491&#45;&gt;Node16 -->
<g id="edge48" class="edge">
<title>Node491&#45;&gt;Node16</title>
<path fill="none" stroke="#63b8ff" d="M2337.98,-201.12C2325.81,-190.27 2311.45,-177.48 2300.68,-167.88"/>
<polygon fill="#63b8ff" stroke="#63b8ff" points="2335.45,-203.55 2345.25,-207.59 2340.11,-198.33 2335.45,-203.55"/>
</g>
<!-- Node491&#45;&gt;Node483 -->
<g id="edge52" class="edge">
<title>Node491&#45;&gt;Node483</title>
<path fill="none" stroke="#63b8ff" d="M2361.44,-197.43C2361.94,-177.36 2365.87,-149.9 2381.54,-132 2392.99,-118.92 2430.87,-105.94 2464.62,-96.48"/>
<polygon fill="#63b8ff" stroke="#63b8ff" points="2357.93,-197.33 2361.48,-207.31 2364.93,-197.3 2357.93,-197.33"/>
</g>
<!-- Node491&#45;&gt;Node488 -->
<g id="edge49" class="edge">
<title>Node491&#45;&gt;Node488</title>
<path fill="none" stroke="#63b8ff" d="M2301.18,-206.91C2248.53,-193.1 2174.59,-173.71 2131.81,-162.49"/>
<polygon fill="#63b8ff" stroke="#63b8ff" points="2300.04,-210.23 2310.61,-209.38 2301.82,-203.46 2300.04,-210.23"/>
</g>
<!-- Node492 -->
<g id="node40" class="node">
<title>Node492</title>
<g id="a_node40"><a xlink:href="Z2SeqMgr_8cpp.html" target="_top" xlink:title=" ">
<polygon fill="white" stroke="#666666" points="2540.54,-162 2390.54,-162 2390.54,-143 2540.54,-143 2540.54,-162"/>
<text text-anchor="middle" x="2465.54" y="-150" font-family="Helvetica,sans-Serif" font-size="10.00">libs/Z2AudioLib/Z2SeqMgr.cpp</text>
</a>
</g>
</g>
<!-- Node491&#45;&gt;Node492 -->
<g id="edge50" class="edge">
<title>Node491&#45;&gt;Node492</title>
<path fill="none" stroke="#63b8ff" d="M2393.38,-202.19C2413.07,-188.91 2437.59,-172.36 2452.38,-162.38"/>
<polygon fill="#63b8ff" stroke="#63b8ff" points="2391.47,-199.26 2385.13,-207.75 2395.38,-205.06 2391.47,-199.26"/>
</g>
<!-- Node493 -->
<g id="node41" class="node">
<title>Node493</title>
<g id="a_node41"><a xlink:href="Z2SoundObjMgr_8cpp.html" target="_top" xlink:title=" ">
<polygon fill="white" stroke="#666666" points="2700.04,-167.5 2559.04,-167.5 2559.04,-137.5 2700.04,-137.5 2700.04,-167.5"/>
<text text-anchor="start" x="2567.04" y="-155.5" font-family="Helvetica,sans-Serif" font-size="10.00">libs/Z2AudioLib/Z2SoundObj</text>
<text text-anchor="middle" x="2629.54" y="-144.5" font-family="Helvetica,sans-Serif" font-size="10.00">Mgr.cpp</text>
</a>
</g>
</g>
<!-- Node491&#45;&gt;Node493 -->
<g id="edge51" class="edge">
<title>Node491&#45;&gt;Node493</title>
<path fill="none" stroke="#63b8ff" d="M2423.61,-207.1C2468.89,-195.32 2530.11,-179.38 2574.01,-167.95"/>
<polygon fill="#63b8ff" stroke="#63b8ff" points="2423.02,-203.64 2414.22,-209.55 2424.78,-210.41 2423.02,-203.64"/>
</g>
<!-- Node494&#45;&gt;Node481 -->
<g id="edge57" class="edge">
<title>Node494&#45;&gt;Node481</title>
<path fill="none" stroke="#63b8ff" d="M2947.98,-209.14C3014.49,-200.1 3145.36,-207.28 3181.54,-173 3204.62,-151.13 3203.43,-109.03 3201.65,-90.79"/>
<polygon fill="#63b8ff" stroke="#63b8ff" points="2947.54,-205.67 2938.23,-210.72 2948.66,-212.58 2947.54,-205.67"/>
</g>
<!-- Node495 -->
<g id="node43" class="node">
<title>Node495</title>
<g id="a_node43"><a xlink:href="Z2SoundObject_8h.html" target="_top" xlink:title=" ">
<polygon fill="#fff0f0" stroke="red" points="2974.54,-167.5 2874.54,-167.5 2874.54,-137.5 2974.54,-137.5 2974.54,-167.5"/>
<text text-anchor="start" x="2882.54" y="-155.5" font-family="Helvetica,sans-Serif" font-size="10.00">include/Z2AudioLib</text>
<text text-anchor="middle" x="2924.54" y="-144.5" font-family="Helvetica,sans-Serif" font-size="10.00">/Z2SoundObject.h</text>
</a>
</g>
</g>
<!-- Node494&#45;&gt;Node495 -->
<g id="edge55" class="edge">
<title>Node494&#45;&gt;Node495</title>
<path fill="none" stroke="#63b8ff" d="M2899.07,-198.88C2904.87,-188.55 2911.45,-176.82 2916.47,-167.88"/>
<polygon fill="#63b8ff" stroke="#63b8ff" points="2896.2,-196.85 2894.36,-207.28 2902.31,-200.27 2896.2,-196.85"/>
</g>
<!-- Node497 -->
<g id="node44" class="node">
<title>Node497</title>
<g id="a_node44"><a xlink:href="Z2SoundHandles_8cpp.html" target="_top" xlink:title=" ">
<polygon fill="white" stroke="#666666" points="3172.54,-162 2992.54,-162 2992.54,-143 3172.54,-143 3172.54,-162"/>
<text text-anchor="middle" x="3082.54" y="-150" font-family="Helvetica,sans-Serif" font-size="10.00">libs/Z2AudioLib/Z2SoundHandles.cpp</text>
</a>
</g>
</g>
<!-- Node494&#45;&gt;Node497 -->
<g id="edge58" class="edge">
<title>Node494&#45;&gt;Node497</title>
<path fill="none" stroke="#63b8ff" d="M2936.89,-204.88C2975.52,-191.26 3026.81,-173.16 3057.09,-162.48"/>
<polygon fill="#63b8ff" stroke="#63b8ff" points="2936.05,-201.47 2927.78,-208.1 2938.38,-208.07 2936.05,-201.47"/>
</g>
<!-- Node495&#45;&gt;Node490 -->
<g id="edge56" class="edge">
<title>Node495&#45;&gt;Node490</title>
<path fill="none" stroke="#63b8ff" d="M2895.54,-130.51C2877.23,-117.25 2854.52,-100.81 2840.8,-90.88"/>
<polygon fill="#63b8ff" stroke="#63b8ff" points="2893.27,-133.18 2903.42,-136.21 2897.37,-127.51 2893.27,-133.18"/>
</g>
<!-- Node498&#45;&gt;Node16 -->
<g id="edge60" class="edge">
<title>Node498&#45;&gt;Node16</title>
<path fill="none" stroke="#63b8ff" d="M2666.96,-215.17C2597.46,-206.1 2481.11,-190.17 2381.54,-173 2366.39,-170.39 2349.97,-167.22 2335.03,-164.2"/>
<polygon fill="#63b8ff" stroke="#63b8ff" points="2666.25,-218.61 2676.62,-216.43 2667.15,-211.67 2666.25,-218.61"/>
</g>
<!-- Node498&#45;&gt;Node483 -->
<g id="edge61" class="edge">
<title>Node498&#45;&gt;Node483</title>
<path fill="none" stroke="#63b8ff" d="M2730.01,-197.39C2729.73,-177.1 2725.95,-149.37 2709.54,-132 2700.98,-122.95 2639.38,-107.49 2589.37,-96.16"/>
<polygon fill="#63b8ff" stroke="#63b8ff" points="2726.51,-197.05 2729.84,-207.11 2733.51,-197.17 2726.51,-197.05"/>
</g>
<!-- Node499&#45;&gt;Node4 -->
<g id="edge64" class="edge">
<title>Node499&#45;&gt;Node4</title>
<path fill="none" stroke="#63b8ff" d="M2745.08,-137.8C2733.33,-135.57 2721.09,-133.49 2709.54,-132 2440.2,-97.15 2369.26,-127.75 2099.54,-96 2096.63,-95.66 2093.67,-95.28 2090.69,-94.87"/>
<polygon fill="#63b8ff" stroke="#63b8ff" points="2744.19,-141.2 2754.68,-139.69 2745.54,-134.33 2744.19,-141.2"/>
</g>
<!-- Node499&#45;&gt;Node20 -->
<g id="edge63" class="edge">
<title>Node499&#45;&gt;Node20</title>
<path fill="none" stroke="#63b8ff" d="M2767.25,-132.13C2739.84,-118.62 2704.54,-101.22 2683.55,-90.88"/>
<polygon fill="#63b8ff" stroke="#63b8ff" points="2765.45,-135.15 2775.96,-136.43 2768.54,-128.87 2765.45,-135.15"/>
</g>
<!-- Node499&#45;&gt;Node29 -->
<g id="edge66" class="edge">
<title>Node499&#45;&gt;Node29</title>
<path fill="none" stroke="#63b8ff" d="M2859.34,-133.07C2887.01,-122.23 2916.74,-108.29 2924.54,-96 2931.68,-84.74 2931.93,-77.09 2924.54,-66 2909.58,-43.56 2882.44,-31.17 2857.75,-24.35"/>
<polygon fill="#63b8ff" stroke="#63b8ff" points="2858.4,-129.68 2850.31,-136.52 2860.9,-136.22 2858.4,-129.68"/>
</g>
<!-- Node254 -->
<g id="node47" class="node">
<title>Node254</title>
<g id="a_node47"><a xlink:href="m__Do__main_8cpp.html" target="_top" xlink:title=" ">
<polygon fill="white" stroke="#666666" points="3103.04,-90.5 2972.04,-90.5 2972.04,-71.5 3103.04,-71.5 3103.04,-90.5"/>
<text text-anchor="middle" x="3037.54" y="-78.5" font-family="Helvetica,sans-Serif" font-size="10.00">src/m_Do/m_Do_main.cpp</text>
</a>
</g>
</g>
<!-- Node499&#45;&gt;Node254 -->
<g id="edge65" class="edge">
<title>Node499&#45;&gt;Node254</title>
<path fill="none" stroke="#63b8ff" d="M2860.15,-133.69C2861.97,-133.11 2863.77,-132.55 2865.54,-132 2914.1,-116.92 2970.79,-100.71 3005.42,-90.96"/>
<polygon fill="#63b8ff" stroke="#63b8ff" points="2859.56,-130.2 2851.1,-136.59 2861.69,-136.87 2859.56,-130.2"/>
</g>
</g>
</svg>
