<?xml version="1.0" encoding="UTF-8" standalone="no"?>
<!DOCTYPE svg PUBLIC "-//W3C//DTD SVG 1.1//EN"
 "http://www.w3.org/Graphics/SVG/1.1/DTD/svg11.dtd">
<!-- Generated by graphviz version 7.0.5 (20221223.1930)
 -->
<!-- Title: include/JSystem/JAudio2/JAISoundHandles.h Pages: 1 -->
<svg width="2088pt" height="445pt"
 viewBox="0.00 0.00 2088.09 445.00" xmlns="http://www.w3.org/2000/svg" xmlns:xlink="http://www.w3.org/1999/xlink">
<g id="graph0" class="graph" transform="scale(1 1) rotate(0) translate(4 441)">
<title>include/JSystem/JAudio2/JAISoundHandles.h</title>
<!-- Node1 -->
<g id="node1" class="node">
<title>Node1</title>
<g id="a_node1"><a xlink:title=" ">
<polygon fill="#999999" stroke="#666666" points="877,-437 750,-437 750,-407 877,-407 877,-437"/>
<text text-anchor="start" x="758" y="-425" font-family="Helvetica,sans-Serif" font-size="10.00">include/JSystem/JAudio2</text>
<text text-anchor="middle" x="813.5" y="-414" font-family="Helvetica,sans-Serif" font-size="10.00">/JAISoundHandles.h</text>
</a>
</g>
</g>
<!-- Node2 -->
<g id="node2" class="node">
<title>Node2</title>
<g id="a_node2"><a xlink:href="JAISound_8h.html" target="_top" xlink:title=" ">
<polygon fill="white" stroke="#666666" points="360.5,-316 214.5,-316 214.5,-297 360.5,-297 360.5,-316"/>
<text text-anchor="middle" x="287.5" y="-304" font-family="Helvetica,sans-Serif" font-size="10.00">JSystem/JAudio2/JAISound.h</text>
</a>
</g>
</g>
<!-- Node1&#45;&gt;Node2 -->
<g id="edge1" class="edge">
<title>Node1&#45;&gt;Node2</title>
<path fill="none" stroke="#63b8ff" d="M749.53,-407.2C644.45,-384.52 437.28,-339.82 340.13,-318.86"/>
<polygon fill="#63b8ff" stroke="#63b8ff" points="341.11,-315.49 330.6,-316.8 339.63,-322.33 341.11,-315.49"/>
</g>
<!-- Node14 -->
<g id="node14" class="node">
<title>Node14</title>
<g id="a_node14"><a xlink:href="JUTAssert_8h.html" target="_top" xlink:title=" ">
<polygon fill="white" stroke="#666666" points="1363.5,-371 1217.5,-371 1217.5,-352 1363.5,-352 1363.5,-371"/>
<text text-anchor="middle" x="1290.5" y="-359" font-family="Helvetica,sans-Serif" font-size="10.00">JSystem/JUtility/JUTAssert.h</text>
</a>
</g>
</g>
<!-- Node1&#45;&gt;Node14 -->
<g id="edge15" class="edge">
<title>Node1&#45;&gt;Node14</title>
<path fill="none" stroke="#63b8ff" d="M877.34,-413.17C962.11,-402.77 1112.05,-384.39 1206.09,-372.85"/>
<polygon fill="#63b8ff" stroke="#63b8ff" points="1206.27,-376.36 1215.77,-371.66 1205.42,-369.41 1206.27,-376.36"/>
</g>
<!-- Node3 -->
<g id="node3" class="node">
<title>Node3</title>
<g id="a_node3"><a xlink:href="JAISoundParams_8h.html" target="_top" xlink:title=" ">
<polygon fill="white" stroke="#666666" points="308,-261 169,-261 169,-231 308,-231 308,-261"/>
<text text-anchor="start" x="177" y="-249" font-family="Helvetica,sans-Serif" font-size="10.00">JSystem/JAudio2/JAISound</text>
<text text-anchor="middle" x="238.5" y="-238" font-family="Helvetica,sans-Serif" font-size="10.00">Params.h</text>
</a>
</g>
</g>
<!-- Node2&#45;&gt;Node3 -->
<g id="edge2" class="edge">
<title>Node2&#45;&gt;Node3</title>
<path fill="none" stroke="#63b8ff" d="M280.27,-296.87C274.3,-289.74 265.54,-279.28 257.59,-269.79"/>
<polygon fill="#63b8ff" stroke="#63b8ff" points="260.4,-267.69 251.29,-262.27 255.03,-272.19 260.4,-267.69"/>
</g>
<!-- Node7 -->
<g id="node7" class="node">
<title>Node7</title>
<g id="a_node7"><a xlink:href="JAIAudible_8h.html" target="_top" xlink:title=" ">
<polygon fill="white" stroke="#666666" points="151,-255.5 0,-255.5 0,-236.5 151,-236.5 151,-255.5"/>
<text text-anchor="middle" x="75.5" y="-243.5" font-family="Helvetica,sans-Serif" font-size="10.00">JSystem/JAudio2/JAIAudible.h</text>
</a>
</g>
</g>
<!-- Node2&#45;&gt;Node7 -->
<g id="edge6" class="edge">
<title>Node2&#45;&gt;Node7</title>
<path fill="none" stroke="#63b8ff" d="M255.3,-296.62C218.88,-286.56 159.38,-270.15 118.88,-258.97"/>
<polygon fill="#63b8ff" stroke="#63b8ff" points="120.03,-255.66 109.46,-256.37 118.17,-262.41 120.03,-255.66"/>
</g>
<!-- Node13 -->
<g id="node13" class="node">
<title>Node13</title>
<g id="a_node13"><a xlink:href="global_8h.html" target="_top" xlink:title=" ">
<polygon fill="white" stroke="#666666" points="378.5,-189.5 328.5,-189.5 328.5,-170.5 378.5,-170.5 378.5,-189.5"/>
<text text-anchor="middle" x="353.5" y="-177.5" font-family="Helvetica,sans-Serif" font-size="10.00">global.h</text>
</a>
</g>
</g>
<!-- Node2&#45;&gt;Node13 -->
<g id="edge13" class="edge">
<title>Node2&#45;&gt;Node13</title>
<path fill="none" stroke="#63b8ff" d="M293.89,-296.53C300.05,-287.71 309.45,-273.75 316.5,-261 327.71,-240.74 338.59,-216.49 345.62,-200.04"/>
<polygon fill="#63b8ff" stroke="#63b8ff" points="348.77,-201.58 349.42,-191 342.31,-198.86 348.77,-201.58"/>
</g>
<!-- Node4 -->
<g id="node4" class="node">
<title>Node4</title>
<g id="a_node4"><a xlink:href="JASSoundParams_8h.html" target="_top" xlink:title=" ">
<polygon fill="white" stroke="#666666" points="310,-195 167,-195 167,-165 310,-165 310,-195"/>
<text text-anchor="start" x="175" y="-183" font-family="Helvetica,sans-Serif" font-size="10.00">JSystem/JAudio2/JASSound</text>
<text text-anchor="middle" x="238.5" y="-172" font-family="Helvetica,sans-Serif" font-size="10.00">Params.h</text>
</a>
</g>
</g>
<!-- Node3&#45;&gt;Node4 -->
<g id="edge3" class="edge">
<title>Node3&#45;&gt;Node4</title>
<path fill="none" stroke="#63b8ff" d="M238.5,-230.8C238.5,-223.67 238.5,-214.82 238.5,-206.56"/>
<polygon fill="#63b8ff" stroke="#63b8ff" points="242,-206.68 238.5,-196.68 235,-206.68 242,-206.68"/>
</g>
<!-- Node5 -->
<g id="node5" class="node">
<title>Node5</title>
<g id="a_node5"><a xlink:href="types_8h.html" target="_top" xlink:title=" ">
<polygon fill="white" stroke="#666666" points="1249,-74 1168,-74 1168,-55 1249,-55 1249,-74"/>
<text text-anchor="middle" x="1208.5" y="-62" font-family="Helvetica,sans-Serif" font-size="10.00">dolphin/types.h</text>
</a>
</g>
</g>
<!-- Node4&#45;&gt;Node5 -->
<g id="edge4" class="edge">
<title>Node4&#45;&gt;Node5</title>
<path fill="none" stroke="#63b8ff" d="M283.3,-164.63C335.9,-148.42 426.07,-122.66 505.5,-110 746.61,-71.57 1039.2,-66.02 1156.35,-65.43"/>
<polygon fill="#63b8ff" stroke="#63b8ff" points="1156.29,-68.93 1166.27,-65.4 1156.26,-61.93 1156.29,-68.93"/>
</g>
<!-- Node6 -->
<g id="node6" class="node">
<title>Node6</title>
<g id="a_node6"><a xlink:href="stddef_8h.html" target="_top" xlink:title=" ">
<polygon fill="white" stroke="#666666" points="1234,-19 1183,-19 1183,0 1234,0 1234,-19"/>
<text text-anchor="middle" x="1208.5" y="-7" font-family="Helvetica,sans-Serif" font-size="10.00">stddef.h</text>
</a>
</g>
</g>
<!-- Node5&#45;&gt;Node6 -->
<g id="edge5" class="edge">
<title>Node5&#45;&gt;Node6</title>
<path fill="none" stroke="#63b8ff" d="M1208.5,-54.75C1208.5,-48.27 1208.5,-39.16 1208.5,-30.9"/>
<polygon fill="#63b8ff" stroke="#63b8ff" points="1212,-30.96 1208.5,-20.96 1205,-30.96 1212,-30.96"/>
</g>
<!-- Node8 -->
<g id="node8" class="node">
<title>Node8</title>
<g id="a_node8"><a xlink:href="JGeometry_8h.html" target="_top" xlink:title=" ">
<polygon fill="white" stroke="#666666" points="141,-189.5 28,-189.5 28,-170.5 141,-170.5 141,-189.5"/>
<text text-anchor="middle" x="84.5" y="-177.5" font-family="Helvetica,sans-Serif" font-size="10.00">JSystem/JGeometry.h</text>
</a>
</g>
</g>
<!-- Node7&#45;&gt;Node8 -->
<g id="edge7" class="edge">
<title>Node7&#45;&gt;Node8</title>
<path fill="none" stroke="#63b8ff" d="M76.75,-236.1C78.01,-227.12 80.01,-212.95 81.66,-201.22"/>
<polygon fill="#63b8ff" stroke="#63b8ff" points="85.12,-201.71 83.05,-191.32 78.19,-200.74 85.12,-201.71"/>
</g>
<!-- Node9 -->
<g id="node9" class="node">
<title>Node9</title>
<g id="a_node9"><a xlink:href="vec_8h.html" target="_top" xlink:title=" ">
<polygon fill="white" stroke="#666666" points="231.5,-129 139.5,-129 139.5,-110 231.5,-110 231.5,-129"/>
<text text-anchor="middle" x="185.5" y="-117" font-family="Helvetica,sans-Serif" font-size="10.00">dolphin/mtx/vec.h</text>
</a>
</g>
</g>
<!-- Node8&#45;&gt;Node9 -->
<g id="edge8" class="edge">
<title>Node8&#45;&gt;Node9</title>
<path fill="none" stroke="#63b8ff" d="M99.84,-170.12C115.86,-160.84 141.24,-146.13 160.23,-135.14"/>
<polygon fill="#63b8ff" stroke="#63b8ff" points="161.81,-138.27 168.71,-130.23 158.3,-132.21 161.81,-138.27"/>
</g>
<!-- Node10 -->
<g id="node10" class="node">
<title>Node10</title>
<g id="a_node10"><a xlink:href="math_8h.html" target="_top" xlink:title=" ">
<polygon fill="white" stroke="#666666" points="107.5,-129 61.5,-129 61.5,-110 107.5,-110 107.5,-129"/>
<text text-anchor="middle" x="84.5" y="-117" font-family="Helvetica,sans-Serif" font-size="10.00">math.h</text>
</a>
</g>
</g>
<!-- Node8&#45;&gt;Node10 -->
<g id="edge10" class="edge">
<title>Node8&#45;&gt;Node10</title>
<path fill="none" stroke="#63b8ff" d="M84.5,-170.37C84.5,-162.5 84.5,-150.6 84.5,-140.39"/>
<polygon fill="#63b8ff" stroke="#63b8ff" points="88,-140.68 84.5,-130.68 81,-140.68 88,-140.68"/>
</g>
<!-- Node9&#45;&gt;Node5 -->
<g id="edge9" class="edge">
<title>Node9&#45;&gt;Node5</title>
<path fill="none" stroke="#63b8ff" d="M231.78,-116.1C400.01,-107.39 978.55,-77.41 1156.2,-68.21"/>
<polygon fill="#63b8ff" stroke="#63b8ff" points="1156.24,-71.71 1166.05,-67.7 1155.88,-64.72 1156.24,-71.71"/>
</g>
<!-- Node11 -->
<g id="node11" class="node">
<title>Node11</title>
<g id="a_node11"><a xlink:href="float_8h.html" target="_top" xlink:title=" ">
<polygon fill="white" stroke="#666666" points="105.5,-74 63.5,-74 63.5,-55 105.5,-55 105.5,-74"/>
<text text-anchor="middle" x="84.5" y="-62" font-family="Helvetica,sans-Serif" font-size="10.00">float.h</text>
</a>
</g>
</g>
<!-- Node10&#45;&gt;Node11 -->
<g id="edge11" class="edge">
<title>Node10&#45;&gt;Node11</title>
<path fill="none" stroke="#63b8ff" d="M84.5,-109.75C84.5,-103.27 84.5,-94.16 84.5,-85.9"/>
<polygon fill="#63b8ff" stroke="#63b8ff" points="88,-85.96 84.5,-75.96 81,-85.96 88,-85.96"/>
</g>
<!-- Node12 -->
<g id="node12" class="node">
<title>Node12</title>
<g id="a_node12"><a xlink:href="fdlibm_8h.html" target="_top" xlink:title=" ">
<polygon fill="white" stroke="#666666" points="109.5,-19 59.5,-19 59.5,0 109.5,0 109.5,-19"/>
<text text-anchor="middle" x="84.5" y="-7" font-family="Helvetica,sans-Serif" font-size="10.00">fdlibm.h</text>
</a>
</g>
</g>
<!-- Node11&#45;&gt;Node12 -->
<g id="edge12" class="edge">
<title>Node11&#45;&gt;Node12</title>
<path fill="none" stroke="#63b8ff" d="M84.5,-54.75C84.5,-48.27 84.5,-39.16 84.5,-30.9"/>
<polygon fill="#63b8ff" stroke="#63b8ff" points="88,-30.96 84.5,-20.96 81,-30.96 88,-30.96"/>
</g>
<!-- Node13&#45;&gt;Node5 -->
<g id="edge14" class="edge">
<title>Node13&#45;&gt;Node5</title>
<path fill="none" stroke="#63b8ff" d="M373.82,-170.08C378.28,-168.28 383.02,-166.48 387.5,-165 481.96,-133.76 506.29,-125.94 604.5,-110 806.83,-77.16 1051.25,-68.53 1156.34,-66.28"/>
<polygon fill="#63b8ff" stroke="#63b8ff" points="1156.12,-69.79 1166.05,-66.09 1155.98,-62.79 1156.12,-69.79"/>
</g>
<!-- Node14&#45;&gt;Node5 -->
<g id="edge16" class="edge">
<title>Node14&#45;&gt;Node5</title>
<path fill="none" stroke="#63b8ff" d="M1363.73,-357.35C1556.18,-348.09 2061.5,-317.1 2061.5,-247 2061.5,-247 2061.5,-247 2061.5,-179 2061.5,-152.3 2153.5,-168.39 1922.5,-110 1797.18,-78.32 1403.63,-68.74 1260.88,-66.26"/>
<polygon fill="#63b8ff" stroke="#63b8ff" points="1261.02,-62.76 1250.96,-66.1 1260.9,-69.76 1261.02,-62.76"/>
</g>
<!-- Node15 -->
<g id="node15" class="node">
<title>Node15</title>
<g id="a_node15"><a xlink:href="os_8h.html" target="_top" xlink:title=" ">
<polygon fill="white" stroke="#666666" points="1324.5,-316 1256.5,-316 1256.5,-297 1324.5,-297 1324.5,-316"/>
<text text-anchor="middle" x="1290.5" y="-304" font-family="Helvetica,sans-Serif" font-size="10.00">dolphin/os.h</text>
</a>
</g>
</g>
<!-- Node14&#45;&gt;Node15 -->
<g id="edge17" class="edge">
<title>Node14&#45;&gt;Node15</title>
<path fill="none" stroke="#63b8ff" d="M1290.5,-351.75C1290.5,-345.27 1290.5,-336.16 1290.5,-327.9"/>
<polygon fill="#63b8ff" stroke="#63b8ff" points="1294,-327.96 1290.5,-317.96 1287,-327.96 1294,-327.96"/>
</g>
<!-- Node16 -->
<g id="node16" class="node">
<title>Node16</title>
<g id="a_node16"><a xlink:href="____va__arg_8h.html" target="_top" xlink:title=" ">
<polygon fill="white" stroke="#666666" points="1531.5,-129 1467.5,-129 1467.5,-110 1531.5,-110 1531.5,-129"/>
<text text-anchor="middle" x="1499.5" y="-117" font-family="Helvetica,sans-Serif" font-size="10.00">__va_arg.h</text>
</a>
</g>
</g>
<!-- Node15&#45;&gt;Node16 -->
<g id="edge18" class="edge">
<title>Node15&#45;&gt;Node16</title>
<path fill="none" stroke="#63b8ff" d="M1324.8,-303.69C1380.68,-299.95 1487.43,-289.2 1510.5,-261 1525.19,-243.04 1512.07,-174.54 1504.29,-140.27"/>
<polygon fill="#63b8ff" stroke="#63b8ff" points="1507.76,-139.76 1502.07,-130.83 1500.95,-141.36 1507.76,-139.76"/>
</g>
<!-- Node17 -->
<g id="node17" class="node">
<title>Node17</title>
<g id="a_node17"><a xlink:href="dvd_8h.html" target="_top" xlink:title=" ">
<polygon fill="white" stroke="#666666" points="1603.5,-189.5 1529.5,-189.5 1529.5,-170.5 1603.5,-170.5 1603.5,-189.5"/>
<text text-anchor="middle" x="1566.5" y="-177.5" font-family="Helvetica,sans-Serif" font-size="10.00">dolphin/dvd.h</text>
</a>
</g>
</g>
<!-- Node15&#45;&gt;Node17 -->
<g id="edge20" class="edge">
<title>Node15&#45;&gt;Node17</title>
<path fill="none" stroke="#63b8ff" d="M1324.71,-303.94C1386.39,-300.43 1512.79,-289.84 1544.5,-261 1561.13,-245.88 1565.66,-219.46 1566.66,-201.14"/>
<polygon fill="#63b8ff" stroke="#63b8ff" points="1570.16,-201.33 1566.86,-191.27 1563.16,-201.19 1570.16,-201.33"/>
</g>
<!-- Node18 -->
<g id="node18" class="node">
<title>Node18</title>
<g id="a_node18"><a xlink:href="OSAlarm_8h.html" target="_top" xlink:title=" ">
<polygon fill="white" stroke="#666666" points="514,-255.5 403,-255.5 403,-236.5 514,-236.5 514,-255.5"/>
<text text-anchor="middle" x="458.5" y="-243.5" font-family="Helvetica,sans-Serif" font-size="10.00">dolphin/os/OSAlarm.h</text>
</a>
</g>
</g>
<!-- Node15&#45;&gt;Node18 -->
<g id="edge22" class="edge">
<title>Node15&#45;&gt;Node18</title>
<path fill="none" stroke="#63b8ff" d="M1256.17,-305.19C1148.46,-303.87 807.8,-296.91 528.5,-261 522.35,-260.21 515.94,-259.19 509.59,-258.07"/>
<polygon fill="#63b8ff" stroke="#63b8ff" points="510.28,-254.64 499.81,-256.24 508.99,-261.52 510.28,-254.64"/>
</g>
<!-- Node19 -->
<g id="node19" class="node">
<title>Node19</title>
<g id="a_node19"><a xlink:href="OSError_8h.html" target="_top" xlink:title=" ">
<polygon fill="white" stroke="#666666" points="502.5,-189.5 396.5,-189.5 396.5,-170.5 502.5,-170.5 502.5,-189.5"/>
<text text-anchor="middle" x="449.5" y="-177.5" font-family="Helvetica,sans-Serif" font-size="10.00">dolphin/os/OSError.h</text>
</a>
</g>
</g>
<!-- Node15&#45;&gt;Node19 -->
<g id="edge36" class="edge">
<title>Node15&#45;&gt;Node19</title>
<path fill="none" stroke="#63b8ff" d="M1256.09,-305.1C1095.22,-303.09 423.76,-292.8 393.5,-261 374.17,-240.69 403.19,-213.24 426.15,-196.34"/>
<polygon fill="#63b8ff" stroke="#63b8ff" points="428.05,-199.28 434.22,-190.67 424.03,-193.56 428.05,-199.28"/>
</g>
<!-- Node20 -->
<g id="node20" class="node">
<title>Node20</title>
<g id="a_node20"><a xlink:href="OSTime_8h.html" target="_top" xlink:title=" ">
<polygon fill="white" stroke="#666666" points="628,-189.5 521,-189.5 521,-170.5 628,-170.5 628,-189.5"/>
<text text-anchor="middle" x="574.5" y="-177.5" font-family="Helvetica,sans-Serif" font-size="10.00">dolphin/os/OSTime.h</text>
</a>
</g>
</g>
<!-- Node15&#45;&gt;Node20 -->
<g id="edge63" class="edge">
<title>Node15&#45;&gt;Node20</title>
<path fill="none" stroke="#63b8ff" d="M1256.18,-305.76C1122.11,-306.47 638.59,-305.86 588.5,-261 572.03,-246.25 570.48,-219.55 571.76,-201.08"/>
<polygon fill="#63b8ff" stroke="#63b8ff" points="575.22,-201.67 572.78,-191.36 568.25,-200.93 575.22,-201.67"/>
</g>
<!-- Node21 -->
<g id="node21" class="node">
<title>Node21</title>
<g id="a_node21"><a xlink:href="OSAlloc_8h.html" target="_top" xlink:title=" ">
<polygon fill="white" stroke="#666666" points="1695,-129 1588,-129 1588,-110 1695,-110 1695,-129"/>
<text text-anchor="middle" x="1641.5" y="-117" font-family="Helvetica,sans-Serif" font-size="10.00">dolphin/os/OSAlloc.h</text>
</a>
</g>
</g>
<!-- Node15&#45;&gt;Node21 -->
<g id="edge27" class="edge">
<title>Node15&#45;&gt;Node21</title>
<path fill="none" stroke="#63b8ff" d="M1324.86,-303.36C1389.82,-298.76 1527.72,-286.26 1567.5,-261 1610.64,-233.6 1630.11,-172.2 1637.56,-140.42"/>
<polygon fill="#63b8ff" stroke="#63b8ff" points="1640.92,-141.47 1639.61,-130.95 1634.07,-139.99 1640.92,-141.47"/>
</g>
<!-- Node22 -->
<g id="node22" class="node">
<title>Node22</title>
<g id="a_node22"><a xlink:href="OSArena_8h.html" target="_top" xlink:title=" ">
<polygon fill="white" stroke="#666666" points="1746,-255.5 1635,-255.5 1635,-236.5 1746,-236.5 1746,-255.5"/>
<text text-anchor="middle" x="1690.5" y="-243.5" font-family="Helvetica,sans-Serif" font-size="10.00">dolphin/os/OSArena.h</text>
</a>
</g>
</g>
<!-- Node15&#45;&gt;Node22 -->
<g id="edge29" class="edge">
<title>Node15&#45;&gt;Node22</title>
<path fill="none" stroke="#63b8ff" d="M1324.81,-301.6C1384.9,-294.61 1513.02,-278.98 1620.5,-261 1625.8,-260.11 1631.31,-259.13 1636.81,-258.1"/>
<polygon fill="#63b8ff" stroke="#63b8ff" points="1637.36,-261.56 1646.52,-256.23 1636.04,-254.68 1637.36,-261.56"/>
</g>
<!-- Node23 -->
<g id="node23" class="node">
<title>Node23</title>
<g id="a_node23"><a xlink:href="OSAudioSystem_8h.html" target="_top" xlink:title=" ">
<polygon fill="white" stroke="#666666" points="2022,-255.5 1879,-255.5 1879,-236.5 2022,-236.5 2022,-255.5"/>
<text text-anchor="middle" x="1950.5" y="-243.5" font-family="Helvetica,sans-Serif" font-size="10.00">dolphin/os/OSAudioSystem.h</text>
</a>
</g>
</g>
<!-- Node15&#45;&gt;Node23 -->
<g id="edge31" class="edge">
<title>Node15&#45;&gt;Node23</title>
<path fill="none" stroke="#63b8ff" d="M1324.89,-303.84C1414.16,-299.33 1660.56,-285.46 1864.5,-261 1872.45,-260.05 1880.79,-258.89 1889.02,-257.65"/>
<polygon fill="#63b8ff" stroke="#63b8ff" points="1889.28,-261.15 1898.63,-256.16 1888.21,-254.24 1889.28,-261.15"/>
</g>
<!-- Node24 -->
<g id="node24" class="node">
<title>Node24</title>
<g id="a_node24"><a xlink:href="OSCache_8h.html" target="_top" xlink:title=" ">
<polygon fill="white" stroke="#666666" points="1865,-129 1752,-129 1752,-110 1865,-110 1865,-129"/>
<text text-anchor="middle" x="1808.5" y="-117" font-family="Helvetica,sans-Serif" font-size="10.00">dolphin/os/OSCache.h</text>
</a>
</g>
</g>
<!-- Node15&#45;&gt;Node24 -->
<g id="edge32" class="edge">
<title>Node15&#45;&gt;Node24</title>
<path fill="none" stroke="#63b8ff" d="M1324.96,-304.27C1426.64,-300.34 1720.47,-286.86 1754.5,-261 1759.57,-257.15 1788.22,-177.72 1801.61,-140.03"/>
<polygon fill="#63b8ff" stroke="#63b8ff" points="1804.83,-141.43 1804.86,-130.83 1798.23,-139.09 1804.83,-141.43"/>
</g>
<!-- Node25 -->
<g id="node25" class="node">
<title>Node25</title>
<g id="a_node25"><a xlink:href="OSContext_8h.html" target="_top" xlink:title=" ">
<polygon fill="white" stroke="#666666" points="944,-129 825,-129 825,-110 944,-110 944,-129"/>
<text text-anchor="middle" x="884.5" y="-117" font-family="Helvetica,sans-Serif" font-size="10.00">dolphin/os/OSContext.h</text>
</a>
</g>
</g>
<!-- Node15&#45;&gt;Node25 -->
<g id="edge34" class="edge">
<title>Node15&#45;&gt;Node25</title>
<path fill="none" stroke="#63b8ff" d="M1256.25,-306.1C1174.48,-306.8 970.94,-304.07 921.5,-261 886.72,-230.7 882.75,-171.99 883.32,-140.93"/>
<polygon fill="#63b8ff" stroke="#63b8ff" points="886.81,-141.11 883.71,-130.98 879.82,-140.84 886.81,-141.11"/>
</g>
<!-- Node26 -->
<g id="node26" class="node">
<title>Node26</title>
<g id="a_node26"><a xlink:href="OSExec_8h.html" target="_top" xlink:title=" ">
<polygon fill="white" stroke="#666666" points="1910,-189.5 1803,-189.5 1803,-170.5 1910,-170.5 1910,-189.5"/>
<text text-anchor="middle" x="1856.5" y="-177.5" font-family="Helvetica,sans-Serif" font-size="10.00">dolphin/os/OSExec.h</text>
</a>
</g>
</g>
<!-- Node15&#45;&gt;Node26 -->
<g id="edge37" class="edge">
<title>Node15&#45;&gt;Node26</title>
<path fill="none" stroke="#63b8ff" d="M1324.77,-305.76C1423.63,-306.01 1707.46,-302.95 1788.5,-261 1814.75,-247.41 1835.03,-218.93 1846.37,-199.89"/>
<polygon fill="#63b8ff" stroke="#63b8ff" points="1849.37,-201.69 1851.25,-191.26 1843.28,-198.24 1849.37,-201.69"/>
</g>
<!-- Node27 -->
<g id="node27" class="node">
<title>Node27</title>
<g id="a_node27"><a xlink:href="OSFont_8h.html" target="_top" xlink:title=" ">
<polygon fill="white" stroke="#666666" points="2033,-189.5 1928,-189.5 1928,-170.5 2033,-170.5 2033,-189.5"/>
<text text-anchor="middle" x="1980.5" y="-177.5" font-family="Helvetica,sans-Serif" font-size="10.00">dolphin/os/OSFont.h</text>
</a>
</g>
</g>
<!-- Node15&#45;&gt;Node27 -->
<g id="edge39" class="edge">
<title>Node15&#45;&gt;Node27</title>
<path fill="none" stroke="#63b8ff" d="M1324.93,-304.68C1427.19,-301.92 1727.81,-291.36 1820.5,-261 1844.77,-253.05 1846.93,-242.93 1869.5,-231 1895.35,-217.33 1925.68,-203.83 1948.1,-194.31"/>
<polygon fill="#63b8ff" stroke="#63b8ff" points="1949.16,-197.67 1957.02,-190.56 1946.45,-191.21 1949.16,-197.67"/>
</g>
<!-- Node28 -->
<g id="node28" class="node">
<title>Node28</title>
<g id="a_node28"><a xlink:href="OSInterrupt_8h.html" target="_top" xlink:title=" ">
<polygon fill="white" stroke="#666666" points="768.5,-189.5 646.5,-189.5 646.5,-170.5 768.5,-170.5 768.5,-189.5"/>
<text text-anchor="middle" x="707.5" y="-177.5" font-family="Helvetica,sans-Serif" font-size="10.00">dolphin/os/OSInterrupt.h</text>
</a>
</g>
</g>
<!-- Node15&#45;&gt;Node28 -->
<g id="edge41" class="edge">
<title>Node15&#45;&gt;Node28</title>
<path fill="none" stroke="#63b8ff" d="M1256.03,-305.97C1122.54,-307.43 644.72,-309.23 599.5,-261 573.26,-233.01 625.28,-207.97 665.85,-193.64"/>
<polygon fill="#63b8ff" stroke="#63b8ff" points="666.88,-196.99 675.22,-190.46 664.63,-190.36 666.88,-196.99"/>
</g>
<!-- Node29 -->
<g id="node29" class="node">
<title>Node29</title>
<g id="a_node29"><a xlink:href="OSLink_8h.html" target="_top" xlink:title=" ">
<polygon fill="white" stroke="#666666" points="1066.5,-129 962.5,-129 962.5,-110 1066.5,-110 1066.5,-129"/>
<text text-anchor="middle" x="1014.5" y="-117" font-family="Helvetica,sans-Serif" font-size="10.00">dolphin/os/OSLink.h</text>
</a>
</g>
</g>
<!-- Node15&#45;&gt;Node29 -->
<g id="edge43" class="edge">
<title>Node15&#45;&gt;Node29</title>
<path fill="none" stroke="#63b8ff" d="M1284.87,-296.91C1274.94,-282.2 1253.11,-251.74 1229.5,-231 1175.61,-183.66 1097.85,-150.28 1052.11,-133.32"/>
<polygon fill="#63b8ff" stroke="#63b8ff" points="1053.5,-130.1 1042.9,-129.98 1051.11,-136.68 1053.5,-130.1"/>
</g>
<!-- Node30 -->
<g id="node30" class="node">
<title>Node30</title>
<g id="a_node30"><a xlink:href="OSMemory_8h.html" target="_top" xlink:title=" ">
<polygon fill="white" stroke="#666666" points="728.5,-255.5 608.5,-255.5 608.5,-236.5 728.5,-236.5 728.5,-255.5"/>
<text text-anchor="middle" x="668.5" y="-243.5" font-family="Helvetica,sans-Serif" font-size="10.00">dolphin/os/OSMemory.h</text>
</a>
</g>
</g>
<!-- Node15&#45;&gt;Node30 -->
<g id="edge45" class="edge">
<title>Node15&#45;&gt;Node30</title>
<path fill="none" stroke="#63b8ff" d="M1256.04,-304.16C1168.86,-300.47 932.54,-288.53 737.5,-261 731.75,-260.19 725.75,-259.19 719.8,-258.12"/>
<polygon fill="#63b8ff" stroke="#63b8ff" points="720.46,-254.68 709.98,-256.24 719.15,-261.55 720.46,-254.68"/>
</g>
<!-- Node31 -->
<g id="node31" class="node">
<title>Node31</title>
<g id="a_node31"><a xlink:href="OSMessage_8h.html" target="_top" xlink:title=" ">
<polygon fill="white" stroke="#666666" points="1186,-255.5 1061,-255.5 1061,-236.5 1186,-236.5 1186,-255.5"/>
<text text-anchor="middle" x="1123.5" y="-243.5" font-family="Helvetica,sans-Serif" font-size="10.00">dolphin/os/OSMessage.h</text>
</a>
</g>
</g>
<!-- Node15&#45;&gt;Node31 -->
<g id="edge47" class="edge">
<title>Node15&#45;&gt;Node31</title>
<path fill="none" stroke="#63b8ff" d="M1265.14,-296.62C1237.06,-286.78 1191.57,-270.84 1159.74,-259.69"/>
<polygon fill="#63b8ff" stroke="#63b8ff" points="1161.13,-256.47 1150.53,-256.47 1158.81,-263.08 1161.13,-256.47"/>
</g>
<!-- Node32 -->
<g id="node32" class="node">
<title>Node32</title>
<g id="a_node32"><a xlink:href="OSThread_8h.html" target="_top" xlink:title=" ">
<polygon fill="white" stroke="#666666" points="1114.5,-189.5 998.5,-189.5 998.5,-170.5 1114.5,-170.5 1114.5,-189.5"/>
<text text-anchor="middle" x="1056.5" y="-177.5" font-family="Helvetica,sans-Serif" font-size="10.00">dolphin/os/OSThread.h</text>
</a>
</g>
</g>
<!-- Node15&#45;&gt;Node32 -->
<g id="edge62" class="edge">
<title>Node15&#45;&gt;Node32</title>
<path fill="none" stroke="#63b8ff" d="M1279.81,-296.52C1258.79,-278.96 1212.51,-240.93 1194.5,-231 1164.88,-214.67 1128.89,-201.84 1101.08,-193.26"/>
<polygon fill="#63b8ff" stroke="#63b8ff" points="1102.13,-189.92 1091.55,-190.4 1100.12,-196.62 1102.13,-189.92"/>
</g>
<!-- Node33 -->
<g id="node33" class="node">
<title>Node33</title>
<g id="a_node33"><a xlink:href="OSMutex_8h.html" target="_top" xlink:title=" ">
<polygon fill="white" stroke="#666666" points="1042.5,-255.5 930.5,-255.5 930.5,-236.5 1042.5,-236.5 1042.5,-255.5"/>
<text text-anchor="middle" x="986.5" y="-243.5" font-family="Helvetica,sans-Serif" font-size="10.00">dolphin/os/OSMutex.h</text>
</a>
</g>
</g>
<!-- Node15&#45;&gt;Node33 -->
<g id="edge50" class="edge">
<title>Node15&#45;&gt;Node33</title>
<path fill="none" stroke="#63b8ff" d="M1256.01,-299.39C1209.5,-291.08 1124.12,-275.58 1051.5,-261 1047.23,-260.14 1042.81,-259.23 1038.37,-258.31"/>
<polygon fill="#63b8ff" stroke="#63b8ff" points="1039.37,-254.94 1028.86,-256.3 1037.92,-261.79 1039.37,-254.94"/>
</g>
<!-- Node34 -->
<g id="node34" class="node">
<title>Node34</title>
<g id="a_node34"><a xlink:href="OSReboot_8h.html" target="_top" xlink:title=" ">
<polygon fill="white" stroke="#666666" points="1200.5,-129 1084.5,-129 1084.5,-110 1200.5,-110 1200.5,-129"/>
<text text-anchor="middle" x="1142.5" y="-117" font-family="Helvetica,sans-Serif" font-size="10.00">dolphin/os/OSReboot.h</text>
</a>
</g>
</g>
<!-- Node15&#45;&gt;Node34 -->
<g id="edge52" class="edge">
<title>Node15&#45;&gt;Node34</title>
<path fill="none" stroke="#63b8ff" d="M1291.77,-296.69C1294.74,-272.54 1299.57,-204.44 1266.5,-165 1252.61,-148.43 1232.08,-138.04 1211.7,-131.51"/>
<polygon fill="#63b8ff" stroke="#63b8ff" points="1212.79,-128.18 1202.22,-128.77 1210.85,-134.91 1212.79,-128.18"/>
</g>
<!-- Node35 -->
<g id="node35" class="node">
<title>Node35</title>
<g id="a_node35"><a xlink:href="OSReset_8h.html" target="_top" xlink:title=" ">
<polygon fill="white" stroke="#666666" points="1330,-129 1219,-129 1219,-110 1330,-110 1330,-129"/>
<text text-anchor="middle" x="1274.5" y="-117" font-family="Helvetica,sans-Serif" font-size="10.00">dolphin/os/OSReset.h</text>
</a>
</g>
</g>
<!-- Node15&#45;&gt;Node35 -->
<g id="edge54" class="edge">
<title>Node15&#45;&gt;Node35</title>
<path fill="none" stroke="#63b8ff" d="M1294.1,-296.82C1297.56,-287.99 1302.53,-273.81 1304.5,-261 1310.98,-218.83 1316.97,-205.8 1304.5,-165 1301.51,-155.23 1295.58,-145.66 1289.77,-137.91"/>
<polygon fill="#63b8ff" stroke="#63b8ff" points="1292.68,-135.95 1283.66,-130.38 1287.24,-140.35 1292.68,-135.95"/>
</g>
<!-- Node36 -->
<g id="node36" class="node">
<title>Node36</title>
<g id="a_node36"><a xlink:href="OSResetSW_8h.html" target="_top" xlink:title=" ">
<polygon fill="white" stroke="#666666" points="874,-255.5 747,-255.5 747,-236.5 874,-236.5 874,-255.5"/>
<text text-anchor="middle" x="810.5" y="-243.5" font-family="Helvetica,sans-Serif" font-size="10.00">dolphin/os/OSResetSW.h</text>
</a>
</g>
</g>
<!-- Node15&#45;&gt;Node36 -->
<g id="edge56" class="edge">
<title>Node15&#45;&gt;Node36</title>
<path fill="none" stroke="#63b8ff" d="M1256.25,-302.49C1186.74,-296.22 1024.18,-280.66 888.5,-261 882.05,-260.06 875.31,-259 868.61,-257.87"/>
<polygon fill="#63b8ff" stroke="#63b8ff" points="869.38,-254.46 858.93,-256.21 868.19,-261.35 869.38,-254.46"/>
</g>
<!-- Node37 -->
<g id="node37" class="node">
<title>Node37</title>
<g id="a_node37"><a xlink:href="OSRtc_8h.html" target="_top" xlink:title=" ">
<polygon fill="white" stroke="#666666" points="1449,-129 1348,-129 1348,-110 1449,-110 1449,-129"/>
<text text-anchor="middle" x="1398.5" y="-117" font-family="Helvetica,sans-Serif" font-size="10.00">dolphin/os/OSRtc.h</text>
</a>
</g>
</g>
<!-- Node15&#45;&gt;Node37 -->
<g id="edge59" class="edge">
<title>Node15&#45;&gt;Node37</title>
<path fill="none" stroke="#63b8ff" d="M1296.96,-296.82C1303.44,-287.99 1313.56,-273.8 1321.5,-261 1347.79,-218.59 1375.04,-166.63 1389,-139.33"/>
<polygon fill="#63b8ff" stroke="#63b8ff" points="1392.03,-141.09 1393.44,-130.59 1385.79,-137.92 1392.03,-141.09"/>
</g>
<!-- Node38 -->
<g id="node38" class="node">
<title>Node38</title>
<g id="a_node38"><a xlink:href="OSSync_8h.html" target="_top" xlink:title=" ">
<polygon fill="white" stroke="#666666" points="1502,-255.5 1395,-255.5 1395,-236.5 1502,-236.5 1502,-255.5"/>
<text text-anchor="middle" x="1448.5" y="-243.5" font-family="Helvetica,sans-Serif" font-size="10.00">dolphin/os/OSSync.h</text>
</a>
</g>
</g>
<!-- Node15&#45;&gt;Node38 -->
<g id="edge61" class="edge">
<title>Node15&#45;&gt;Node38</title>
<path fill="none" stroke="#63b8ff" d="M1314.5,-296.62C1340.95,-286.82 1383.72,-270.98 1413.82,-259.84"/>
<polygon fill="#63b8ff" stroke="#63b8ff" points="1414.7,-263.25 1422.86,-256.49 1412.26,-256.68 1414.7,-263.25"/>
</g>
<!-- Node16&#45;&gt;Node5 -->
<g id="edge19" class="edge">
<title>Node16&#45;&gt;Node5</title>
<path fill="none" stroke="#63b8ff" d="M1467.41,-111.93C1464.07,-111.27 1460.72,-110.61 1457.5,-110 1389.46,-97.04 1310.75,-83.16 1260.34,-74.41"/>
<polygon fill="#63b8ff" stroke="#63b8ff" points="1261.04,-70.98 1250.58,-72.72 1259.84,-77.88 1261.04,-70.98"/>
</g>
<!-- Node17&#45;&gt;Node5 -->
<g id="edge21" class="edge">
<title>Node17&#45;&gt;Node5</title>
<path fill="none" stroke="#63b8ff" d="M1565.96,-170.15C1564.53,-155.17 1559.34,-124.98 1540.5,-110 1498.32,-76.46 1343.21,-68.16 1260.78,-66.13"/>
<polygon fill="#63b8ff" stroke="#63b8ff" points="1261,-62.64 1250.93,-65.92 1260.85,-69.64 1261,-62.64"/>
</g>
<!-- Node18&#45;&gt;Node19 -->
<g id="edge23" class="edge">
<title>Node18&#45;&gt;Node19</title>
<path fill="none" stroke="#63b8ff" d="M457.25,-236.1C455.99,-227.12 453.99,-212.95 452.34,-201.22"/>
<polygon fill="#63b8ff" stroke="#63b8ff" points="455.81,-200.74 450.95,-191.32 448.88,-201.71 455.81,-200.74"/>
</g>
<!-- Node18&#45;&gt;Node20 -->
<g id="edge25" class="edge">
<title>Node18&#45;&gt;Node20</title>
<path fill="none" stroke="#63b8ff" d="M474.63,-236.1C493.76,-225.55 525.91,-207.81 548.55,-195.32"/>
<polygon fill="#63b8ff" stroke="#63b8ff" points="550.12,-198.45 557.18,-190.55 546.74,-192.32 550.12,-198.45"/>
</g>
<!-- Node19&#45;&gt;Node5 -->
<g id="edge24" class="edge">
<title>Node19&#45;&gt;Node5</title>
<path fill="none" stroke="#63b8ff" d="M474.12,-170.11C516.9,-155.06 607.98,-124.77 687.5,-110 856.97,-78.51 1061.67,-69.25 1156.1,-66.57"/>
<polygon fill="#63b8ff" stroke="#63b8ff" points="1156.19,-70.07 1166.09,-66.3 1156,-63.07 1156.19,-70.07"/>
</g>
<!-- Node20&#45;&gt;Node5 -->
<g id="edge26" class="edge">
<title>Node20&#45;&gt;Node5</title>
<path fill="none" stroke="#63b8ff" d="M592.46,-170.03C623.71,-154.85 690.5,-124.38 750.5,-110 894.63,-75.45 1070.4,-67.61 1156.25,-65.91"/>
<polygon fill="#63b8ff" stroke="#63b8ff" points="1156.3,-69.41 1166.24,-65.73 1156.18,-62.41 1156.3,-69.41"/>
</g>
<!-- Node21&#45;&gt;Node5 -->
<g id="edge28" class="edge">
<title>Node21&#45;&gt;Node5</title>
<path fill="none" stroke="#63b8ff" d="M1587.68,-111.76C1582.89,-111.16 1578.11,-110.57 1573.5,-110 1462.02,-96.24 1331.36,-80.37 1260.54,-71.79"/>
<polygon fill="#63b8ff" stroke="#63b8ff" points="1261.14,-68.34 1250.79,-70.61 1260.3,-75.29 1261.14,-68.34"/>
</g>
<!-- Node22&#45;&gt;Node5 -->
<g id="edge30" class="edge">
<title>Node22&#45;&gt;Node5</title>
<path fill="none" stroke="#63b8ff" d="M1695.36,-236.01C1707.59,-212.04 1736.39,-145.97 1703.5,-110 1674.03,-77.76 1381.55,-68.68 1260.52,-66.3"/>
<polygon fill="#63b8ff" stroke="#63b8ff" points="1260.93,-62.8 1250.87,-66.11 1260.8,-69.8 1260.93,-62.8"/>
</g>
<!-- Node24&#45;&gt;Node5 -->
<g id="edge33" class="edge">
<title>Node24&#45;&gt;Node5</title>
<path fill="none" stroke="#63b8ff" d="M1751.55,-111.5C1746.8,-110.97 1742.07,-110.47 1737.5,-110 1563,-92.22 1355.6,-76.28 1260.65,-69.27"/>
<polygon fill="#63b8ff" stroke="#63b8ff" points="1261.1,-65.8 1250.87,-68.56 1260.59,-72.78 1261.1,-65.8"/>
</g>
<!-- Node25&#45;&gt;Node5 -->
<g id="edge35" class="edge">
<title>Node25&#45;&gt;Node5</title>
<path fill="none" stroke="#63b8ff" d="M939.46,-109.51C1000.18,-99.58 1097.22,-83.7 1156.66,-73.98"/>
<polygon fill="#63b8ff" stroke="#63b8ff" points="1156.87,-77.49 1166.17,-72.42 1155.74,-70.58 1156.87,-77.49"/>
</g>
<!-- Node26&#45;&gt;Node5 -->
<g id="edge38" class="edge">
<title>Node26&#45;&gt;Node5</title>
<path fill="none" stroke="#63b8ff" d="M1863.13,-170.1C1873.1,-155.59 1889.18,-126.76 1873.5,-110 1831.95,-65.58 1410.01,-64.11 1260.6,-65"/>
<polygon fill="#63b8ff" stroke="#63b8ff" points="1260.98,-61.5 1251,-65.06 1261.02,-68.5 1260.98,-61.5"/>
</g>
<!-- Node27&#45;&gt;Node5 -->
<g id="edge40" class="edge">
<title>Node27&#45;&gt;Node5</title>
<path fill="none" stroke="#63b8ff" d="M1972.73,-170.23C1958.44,-154.8 1926.24,-123.16 1891.5,-110 1776.26,-66.33 1399.39,-64.21 1260.5,-64.98"/>
<polygon fill="#63b8ff" stroke="#63b8ff" points="1260.86,-61.48 1250.88,-65.04 1260.9,-68.48 1260.86,-61.48"/>
</g>
<!-- Node28&#45;&gt;Node5 -->
<g id="edge42" class="edge">
<title>Node28&#45;&gt;Node5</title>
<path fill="none" stroke="#63b8ff" d="M713.77,-170.36C725.39,-155.14 751.86,-123.83 782.5,-110 848.04,-80.42 1057.66,-70.14 1156.28,-66.88"/>
<polygon fill="#63b8ff" stroke="#63b8ff" points="1156.34,-70.38 1166.23,-66.56 1156.12,-63.38 1156.34,-70.38"/>
</g>
<!-- Node29&#45;&gt;Node5 -->
<g id="edge44" class="edge">
<title>Node29&#45;&gt;Node5</title>
<path fill="none" stroke="#63b8ff" d="M1047.41,-109.51C1079.7,-100.69 1129.13,-87.18 1164.72,-77.46"/>
<polygon fill="#63b8ff" stroke="#63b8ff" points="1165.57,-80.86 1174.29,-74.85 1163.72,-74.1 1165.57,-80.86"/>
</g>
<!-- Node30&#45;&gt;Node28 -->
<g id="edge46" class="edge">
<title>Node30&#45;&gt;Node28</title>
<path fill="none" stroke="#63b8ff" d="M673.92,-236.1C679.69,-226.64 688.96,-211.42 696.3,-199.37"/>
<polygon fill="#63b8ff" stroke="#63b8ff" points="699.12,-201.48 701.34,-191.12 693.14,-197.83 699.12,-201.48"/>
</g>
<!-- Node31&#45;&gt;Node32 -->
<g id="edge48" class="edge">
<title>Node31&#45;&gt;Node32</title>
<path fill="none" stroke="#63b8ff" d="M1114.18,-236.1C1103.78,-226.17 1086.72,-209.87 1073.85,-197.57"/>
<polygon fill="#63b8ff" stroke="#63b8ff" points="1076.48,-195.25 1066.83,-190.87 1071.64,-200.31 1076.48,-195.25"/>
</g>
<!-- Node32&#45;&gt;Node25 -->
<g id="edge49" class="edge">
<title>Node32&#45;&gt;Node25</title>
<path fill="none" stroke="#63b8ff" d="M1030.38,-170.12C1001.33,-160.24 954.2,-144.21 921.4,-133.05"/>
<polygon fill="#63b8ff" stroke="#63b8ff" points="922.9,-129.86 912.3,-129.96 920.64,-136.49 922.9,-129.86"/>
</g>
<!-- Node33&#45;&gt;Node32 -->
<g id="edge51" class="edge">
<title>Node33&#45;&gt;Node32</title>
<path fill="none" stroke="#63b8ff" d="M996.23,-236.1C1007.1,-226.17 1024.92,-209.87 1038.37,-197.57"/>
<polygon fill="#63b8ff" stroke="#63b8ff" points="1040.71,-200.18 1045.73,-190.84 1035.99,-195.01 1040.71,-200.18"/>
</g>
<!-- Node34&#45;&gt;Node5 -->
<g id="edge53" class="edge">
<title>Node34&#45;&gt;Node5</title>
<path fill="none" stroke="#63b8ff" d="M1153.7,-109.51C1163.24,-101.85 1177.17,-90.66 1188.61,-81.47"/>
<polygon fill="#63b8ff" stroke="#63b8ff" points="1190.68,-84.3 1196.29,-75.31 1186.3,-78.84 1190.68,-84.3"/>
</g>
<!-- Node35&#45;&gt;Node5 -->
<g id="edge55" class="edge">
<title>Node35&#45;&gt;Node5</title>
<path fill="none" stroke="#63b8ff" d="M1263.3,-109.51C1253.76,-101.85 1239.83,-90.66 1228.39,-81.47"/>
<polygon fill="#63b8ff" stroke="#63b8ff" points="1230.7,-78.84 1220.71,-75.31 1226.32,-84.3 1230.7,-78.84"/>
</g>
<!-- Node36&#45;&gt;Node5 -->
<g id="edge57" class="edge">
<title>Node36&#45;&gt;Node5</title>
<path fill="none" stroke="#63b8ff" d="M807.46,-236.31C799.76,-212.54 782.34,-145.78 815.5,-110 838.28,-85.42 1054.87,-72.45 1156.42,-67.68"/>
<polygon fill="#63b8ff" stroke="#63b8ff" points="1156.29,-71.19 1166.12,-67.23 1155.97,-64.19 1156.29,-71.19"/>
</g>
<!-- Node36&#45;&gt;Node28 -->
<g id="edge58" class="edge">
<title>Node36&#45;&gt;Node28</title>
<path fill="none" stroke="#63b8ff" d="M796.18,-236.1C779.42,-225.69 751.42,-208.29 731.36,-195.83"/>
<polygon fill="#63b8ff" stroke="#63b8ff" points="733.33,-192.93 722.99,-190.62 729.63,-198.87 733.33,-192.93"/>
</g>
<!-- Node37&#45;&gt;Node5 -->
<g id="edge60" class="edge">
<title>Node37&#45;&gt;Node5</title>
<path fill="none" stroke="#63b8ff" d="M1366.27,-109.51C1334.65,-100.69 1286.23,-87.18 1251.37,-77.46"/>
<polygon fill="#63b8ff" stroke="#63b8ff" points="1252.6,-74.17 1242.03,-74.85 1250.72,-80.91 1252.6,-74.17"/>
</g>
</g>
</svg>
