<?xml version="1.0" encoding="UTF-8" standalone="no"?>
<!DOCTYPE svg PUBLIC "-//W3C//DTD SVG 1.1//EN"
 "http://www.w3.org/Graphics/SVG/1.1/DTD/svg11.dtd">
<!-- Generated by graphviz version 7.0.5 (20221223.1930)
 -->
<!-- Title: libs/JSystem/JAudio2/JASBasicBank.cpp Pages: 1 -->
<!--zoomable 236 -->
<svg id="main" version="1.1" xmlns="http://www.w3.org/2000/svg" xmlns:xlink="http://www.w3.org/1999/xlink" xml:space="preserve" onload="init(evt)">
<style type="text/css"><![CDATA[
.edge:hover path { stroke: red; }
.edge:hover polygon { stroke: red; fill: red; }
]]></style>
<script type="text/javascript"><![CDATA[
var edges = document.getElementsByTagName('g');
if (edges && edges.length) {
  for (var i=0;i<edges.length;i++) {
    if (edges[i].id.substr(0,4)=='edge') {
      edges[i].setAttribute('class','edge');
    }
  }
}
]]></script>
        <defs>
                <circle id="rim" cx="0" cy="0" r="7"/>
                <circle id="rim2" cx="0" cy="0" r="3.5"/>
                <g id="zoomPlus">
                        <use xlink:href="#rim" fill="#404040">
                                <set attributeName="fill" to="#808080" begin="zoomplus.mouseover" end="zoomplus.mouseout"/>
                        </use>
                        <path d="M-4,0h8M0,-4v8" fill="none" stroke="white" stroke-width="1.5" pointer-events="none"/>
                </g>
                <g id="zoomMin">
                        <use xlink:href="#rim" fill="#404040">
                                <set attributeName="fill" to="#808080" begin="zoomminus.mouseover" end="zoomminus.mouseout"/>
                        </use>
                        <path d="M-4,0h8" fill="none" stroke="white" stroke-width="1.5" pointer-events="none"/>
                </g>
                <g id="dirArrow">
                        <path fill="none" stroke="white" stroke-width="1.5" d="M0,-3.0v7 M-2.5,-0.5L0,-3.0L2.5,-0.5"/>
                </g>
               <g id="resetDef">
                       <use xlink:href="#rim2" fill="#404040">
                               <set attributeName="fill" to="#808080" begin="reset.mouseover" end="reset.mouseout"/>
                       </use>
               </g>
        </defs>

<script type="text/javascript">
var viewWidth = 1505;
var viewHeight = 236;
var sectionId = 'dynsection-0';
</script>
<script xlink:href="svgpan.js"/>
<svg id="graph" class="graph">
<g id="viewport">
<title>libs/JSystem/JAudio2/JASBasicBank.cpp</title>
<!-- Node1 -->
<g id="node1" class="node">
<title>Node1</title>
<g id="a_node1"><a xlink:title=" ">
<polygon fill="#999999" stroke="#666666" points="813.5,-228 702.5,-228 702.5,-198 813.5,-198 813.5,-228"/>
<text text-anchor="start" x="710.5" y="-216" font-family="Helvetica,sans-Serif" font-size="10.00">libs/JSystem/JAudio2</text>
<text text-anchor="middle" x="758" y="-205" font-family="Helvetica,sans-Serif" font-size="10.00">/JASBasicBank.cpp</text>
</a>
</g>
</g>
<!-- Node2 -->
<g id="node2" class="node">
<title>Node2</title>
<g id="a_node2"><a xlink:href="JASBasicBank_8h.html" target="_top" xlink:title=" ">
<polygon fill="white" stroke="#666666" points="140,-151 0,-151 0,-121 140,-121 140,-151"/>
<text text-anchor="start" x="8" y="-139" font-family="Helvetica,sans-Serif" font-size="10.00">JSystem/JAudio2/JASBasic</text>
<text text-anchor="middle" x="70" y="-128" font-family="Helvetica,sans-Serif" font-size="10.00">Bank.h</text>
</a>
</g>
</g>
<!-- Node1&#45;&gt;Node2 -->
<g id="edge1" class="edge">
<title>Node1&#45;&gt;Node2</title>
<path fill="none" stroke="#63b8ff" d="M702.11,-211.51C594.32,-209.66 350.64,-201.1 150,-162 140.56,-160.16 130.65,-157.6 121.16,-154.82"/>
<polygon fill="#63b8ff" stroke="#63b8ff" points="122.29,-151.51 111.7,-151.92 120.24,-158.2 122.29,-151.51"/>
</g>
<!-- Node5 -->
<g id="node5" class="node">
<title>Node5</title>
<g id="a_node5"><a xlink:href="dol2asm_8h.html" target="_top" xlink:title=" ">
<polygon fill="white" stroke="#666666" points="219.5,-145.5 158.5,-145.5 158.5,-126.5 219.5,-126.5 219.5,-145.5"/>
<text text-anchor="middle" x="189" y="-133.5" font-family="Helvetica,sans-Serif" font-size="10.00">dol2asm.h</text>
</a>
</g>
</g>
<!-- Node1&#45;&gt;Node5 -->
<g id="edge4" class="edge">
<title>Node1&#45;&gt;Node5</title>
<path fill="none" stroke="#63b8ff" d="M702.16,-209.97C584.65,-205.18 315.5,-191.28 229,-162 222.24,-159.71 215.45,-156.09 209.43,-152.3"/>
<polygon fill="#63b8ff" stroke="#63b8ff" points="211.66,-149.58 201.42,-146.83 207.71,-155.36 211.66,-149.58"/>
</g>
<!-- Node6 -->
<g id="node6" class="node">
<title>Node6</title>
<g id="a_node6"><a xlink:title=" ">
<polygon fill="#e0e0e0" stroke="#999999" points="354.5,-156.5 237.5,-156.5 237.5,-115.5 354.5,-115.5 354.5,-156.5"/>
<text text-anchor="start" x="245.5" y="-144.5" font-family="Helvetica,sans-Serif" font-size="10.00">asm/JSystem/JAudio2</text>
<text text-anchor="start" x="245.5" y="-133.5" font-family="Helvetica,sans-Serif" font-size="10.00">/JASBasicBank/__ct_</text>
<text text-anchor="middle" x="296" y="-122.5" font-family="Helvetica,sans-Serif" font-size="10.00">_12JASBasicBankFv.s</text>
</a>
</g>
</g>
<!-- Node1&#45;&gt;Node6 -->
<g id="edge5" class="edge">
<title>Node1&#45;&gt;Node6</title>
<path fill="none" stroke="#63b8ff" d="M702.14,-208.9C625.12,-203.72 482.4,-190.88 364,-162 361.85,-161.47 359.67,-160.9 357.48,-160.29"/>
<polygon fill="#63b8ff" stroke="#63b8ff" points="358.52,-156.95 347.93,-157.42 356.49,-163.65 358.52,-156.95"/>
</g>
<!-- Node7 -->
<g id="node7" class="node">
<title>Node7</title>
<g id="a_node7"><a xlink:title=" ">
<polygon fill="#e0e0e0" stroke="#999999" points="557,-156.5 373,-156.5 373,-115.5 557,-115.5 557,-156.5"/>
<text text-anchor="start" x="381" y="-144.5" font-family="Helvetica,sans-Serif" font-size="10.00">asm/JSystem/JAudio2</text>
<text text-anchor="start" x="381" y="-133.5" font-family="Helvetica,sans-Serif" font-size="10.00">/JASBasicBank/newInstTable</text>
<text text-anchor="middle" x="465" y="-122.5" font-family="Helvetica,sans-Serif" font-size="10.00">__12JASBasicBankFUcP7JKRHeap.s</text>
</a>
</g>
</g>
<!-- Node1&#45;&gt;Node7 -->
<g id="edge6" class="edge">
<title>Node1&#45;&gt;Node7</title>
<path fill="none" stroke="#63b8ff" d="M702.2,-197.72C660.38,-187.01 602.3,-172.14 554.08,-159.8"/>
<polygon fill="#63b8ff" stroke="#63b8ff" points="555.02,-156.43 544.47,-157.34 553.29,-163.21 555.02,-156.43"/>
</g>
<!-- Node8 -->
<g id="node8" class="node">
<title>Node8</title>
<g id="a_node8"><a xlink:title=" ">
<polygon fill="#e0e0e0" stroke="#999999" points="751,-162 575,-162 575,-110 751,-110 751,-162"/>
<text text-anchor="start" x="583" y="-150" font-family="Helvetica,sans-Serif" font-size="10.00">asm/JSystem/JAudio2</text>
<text text-anchor="start" x="583" y="-139" font-family="Helvetica,sans-Serif" font-size="10.00">/JASBasicBank/getInstParam</text>
<text text-anchor="start" x="583" y="-128" font-family="Helvetica,sans-Serif" font-size="10.00">__12JASBasicBankCFiiiP12JASInst</text>
<text text-anchor="middle" x="663" y="-117" font-family="Helvetica,sans-Serif" font-size="10.00">Param.s</text>
</a>
</g>
</g>
<!-- Node1&#45;&gt;Node8 -->
<g id="edge7" class="edge">
<title>Node1&#45;&gt;Node8</title>
<path fill="none" stroke="#63b8ff" d="M739.68,-197.54C729.53,-189.52 716.47,-179.22 704.02,-169.39"/>
<polygon fill="#63b8ff" stroke="#63b8ff" points="706.32,-166.74 696.3,-163.29 701.98,-172.23 706.32,-166.74"/>
</g>
<!-- Node9 -->
<g id="node9" class="node">
<title>Node9</title>
<g id="a_node9"><a xlink:title=" ">
<polygon fill="#e0e0e0" stroke="#999999" points="936.5,-156.5 769.5,-156.5 769.5,-115.5 936.5,-115.5 936.5,-156.5"/>
<text text-anchor="start" x="777.5" y="-144.5" font-family="Helvetica,sans-Serif" font-size="10.00">asm/JSystem/JAudio2</text>
<text text-anchor="start" x="777.5" y="-133.5" font-family="Helvetica,sans-Serif" font-size="10.00">/JASBasicBank/setInst</text>
<text text-anchor="middle" x="853" y="-122.5" font-family="Helvetica,sans-Serif" font-size="10.00">__12JASBasicBankFiP7JASInst.s</text>
</a>
</g>
</g>
<!-- Node1&#45;&gt;Node9 -->
<g id="edge8" class="edge">
<title>Node1&#45;&gt;Node9</title>
<path fill="none" stroke="#63b8ff" d="M776.32,-197.54C788.46,-187.95 804.76,-175.08 819.21,-163.67"/>
<polygon fill="#63b8ff" stroke="#63b8ff" points="821.05,-166.68 826.73,-157.74 816.71,-161.19 821.05,-166.68"/>
</g>
<!-- Node10 -->
<g id="node10" class="node">
<title>Node10</title>
<g id="a_node10"><a xlink:title=" ">
<polygon fill="#e0e0e0" stroke="#999999" points="1081,-156.5 955,-156.5 955,-115.5 1081,-115.5 1081,-156.5"/>
<text text-anchor="start" x="963" y="-144.5" font-family="Helvetica,sans-Serif" font-size="10.00">asm/JSystem/JAudio2</text>
<text text-anchor="start" x="963" y="-133.5" font-family="Helvetica,sans-Serif" font-size="10.00">/JASBasicBank/getInst</text>
<text text-anchor="middle" x="1018" y="-122.5" font-family="Helvetica,sans-Serif" font-size="10.00">__12JASBasicBankCFi.s</text>
</a>
</g>
</g>
<!-- Node1&#45;&gt;Node10 -->
<g id="edge9" class="edge">
<title>Node1&#45;&gt;Node10</title>
<path fill="none" stroke="#63b8ff" d="M813.83,-198.31C851.4,-188.81 901.92,-175.49 946,-162 947.78,-161.45 949.59,-160.89 951.41,-160.32"/>
<polygon fill="#63b8ff" stroke="#63b8ff" points="952.05,-163.79 960.49,-157.39 949.89,-157.13 952.05,-163.79"/>
</g>
<!-- Node11 -->
<g id="node11" class="node">
<title>Node11</title>
<g id="a_node11"><a xlink:title=" ">
<polygon fill="#e0e0e0" stroke="#999999" points="1214.5,-156.5 1099.5,-156.5 1099.5,-115.5 1214.5,-115.5 1214.5,-156.5"/>
<text text-anchor="start" x="1107.5" y="-144.5" font-family="Helvetica,sans-Serif" font-size="10.00">asm/JSystem/JAudio2</text>
<text text-anchor="start" x="1107.5" y="-133.5" font-family="Helvetica,sans-Serif" font-size="10.00">/JASBasicBank/__dt_</text>
<text text-anchor="middle" x="1157" y="-122.5" font-family="Helvetica,sans-Serif" font-size="10.00">_7JASBankFv.s</text>
</a>
</g>
</g>
<!-- Node1&#45;&gt;Node11 -->
<g id="edge10" class="edge">
<title>Node1&#45;&gt;Node11</title>
<path fill="none" stroke="#63b8ff" d="M813.93,-207.15C880.49,-200.57 994.64,-186.69 1090,-162 1091.99,-161.49 1094,-160.93 1096.02,-160.35"/>
<polygon fill="#63b8ff" stroke="#63b8ff" points="1096.92,-163.74 1105.43,-157.43 1094.84,-157.05 1096.92,-163.74"/>
</g>
<!-- Node12 -->
<g id="node12" class="node">
<title>Node12</title>
<g id="a_node12"><a xlink:title=" ">
<polygon fill="#e0e0e0" stroke="#999999" points="1349.5,-156.5 1232.5,-156.5 1232.5,-115.5 1349.5,-115.5 1349.5,-156.5"/>
<text text-anchor="start" x="1240.5" y="-144.5" font-family="Helvetica,sans-Serif" font-size="10.00">asm/JSystem/JAudio2</text>
<text text-anchor="start" x="1240.5" y="-133.5" font-family="Helvetica,sans-Serif" font-size="10.00">/JASBasicBank/__dt_</text>
<text text-anchor="middle" x="1291" y="-122.5" font-family="Helvetica,sans-Serif" font-size="10.00">_12JASBasicBankFv.s</text>
</a>
</g>
</g>
<!-- Node1&#45;&gt;Node12 -->
<g id="edge11" class="edge">
<title>Node1&#45;&gt;Node12</title>
<path fill="none" stroke="#63b8ff" d="M813.99,-210.5C902.27,-207.14 1078.69,-196.33 1224,-162 1226.27,-161.46 1228.56,-160.87 1230.86,-160.24"/>
<polygon fill="#63b8ff" stroke="#63b8ff" points="1231.66,-163.65 1240.22,-157.42 1229.64,-156.95 1231.66,-163.65"/>
</g>
<!-- Node13 -->
<g id="node13" class="node">
<title>Node13</title>
<g id="a_node13"><a xlink:title=" ">
<polygon fill="#e0e0e0" stroke="#999999" points="1496.5,-156.5 1367.5,-156.5 1367.5,-115.5 1496.5,-115.5 1496.5,-156.5"/>
<text text-anchor="start" x="1375.5" y="-144.5" font-family="Helvetica,sans-Serif" font-size="10.00">asm/JSystem/JAudio2</text>
<text text-anchor="start" x="1375.5" y="-133.5" font-family="Helvetica,sans-Serif" font-size="10.00">/JASBasicBank/getType</text>
<text text-anchor="middle" x="1432" y="-122.5" font-family="Helvetica,sans-Serif" font-size="10.00">__12JASBasicBankCFv.s</text>
</a>
</g>
</g>
<!-- Node1&#45;&gt;Node13 -->
<g id="edge12" class="edge">
<title>Node1&#45;&gt;Node13</title>
<path fill="none" stroke="#63b8ff" d="M813.76,-211.93C920.69,-210.79 1161.48,-203.37 1359,-162 1361.81,-161.41 1364.66,-160.75 1367.53,-160.02"/>
<polygon fill="#63b8ff" stroke="#63b8ff" points="1368.43,-163.4 1377.14,-157.37 1366.57,-156.65 1368.43,-163.4"/>
</g>
<!-- Node3 -->
<g id="node3" class="node">
<title>Node3</title>
<g id="a_node3"><a xlink:href="types_8h.html" target="_top" xlink:title=" ">
<polygon fill="white" stroke="#666666" points="110.5,-74 29.5,-74 29.5,-55 110.5,-55 110.5,-74"/>
<text text-anchor="middle" x="70" y="-62" font-family="Helvetica,sans-Serif" font-size="10.00">dolphin/types.h</text>
</a>
</g>
</g>
<!-- Node2&#45;&gt;Node3 -->
<g id="edge2" class="edge">
<title>Node2&#45;&gt;Node3</title>
<path fill="none" stroke="#63b8ff" d="M70,-120.6C70,-110.43 70,-96.67 70,-85.45"/>
<polygon fill="#63b8ff" stroke="#63b8ff" points="73.5,-85.69 70,-75.69 66.5,-85.69 73.5,-85.69"/>
</g>
<!-- Node4 -->
<g id="node4" class="node">
<title>Node4</title>
<g id="a_node4"><a xlink:href="stddef_8h.html" target="_top" xlink:title=" ">
<polygon fill="white" stroke="#666666" points="95.5,-19 44.5,-19 44.5,0 95.5,0 95.5,-19"/>
<text text-anchor="middle" x="70" y="-7" font-family="Helvetica,sans-Serif" font-size="10.00">stddef.h</text>
</a>
</g>
</g>
<!-- Node3&#45;&gt;Node4 -->
<g id="edge3" class="edge">
<title>Node3&#45;&gt;Node4</title>
<path fill="none" stroke="#63b8ff" d="M70,-54.75C70,-48.27 70,-39.16 70,-30.9"/>
<polygon fill="#63b8ff" stroke="#63b8ff" points="73.5,-30.96 70,-20.96 66.5,-30.96 73.5,-30.96"/>
</g>
</g>
</svg>
        <g id="navigator" transform="translate(0 0)" fill="#404254">
                <rect fill="#f2f5e9" fill-opacity="0.5" stroke="#606060" stroke-width=".5" x="0" y="0" width="60" height="60"/>
                <use id="zoomplus" xlink:href="#zoomPlus" x="17" y="9" onmousedown="handleZoom(evt,'in')"/>
                <use id="zoomminus" xlink:href="#zoomMin" x="42" y="9" onmousedown="handleZoom(evt,'out')"/>
                <use id="reset" xlink:href="#resetDef" x="30" y="36" onmousedown="handleReset()"/>
                <g id="arrowUp" xlink:href="#dirArrow" transform="translate(30 24)" onmousedown="handlePan(0,-1)">
                  <use xlink:href="#rim" fill="#404040">
                        <set attributeName="fill" to="#808080" begin="arrowUp.mouseover" end="arrowUp.mouseout"/>
                  </use>
                  <path fill="none" stroke="white" stroke-width="1.5" d="M0,-3.0v7 M-2.5,-0.5L0,-3.0L2.5,-0.5"/>
                </g>
                <g id="arrowRight" xlink:href="#dirArrow" transform="rotate(90) translate(36 -43)" onmousedown="handlePan(1,0)">
                  <use xlink:href="#rim" fill="#404040">
                        <set attributeName="fill" to="#808080" begin="arrowRight.mouseover" end="arrowRight.mouseout"/>
                  </use>
                  <path fill="none" stroke="white" stroke-width="1.5" d="M0,-3.0v7 M-2.5,-0.5L0,-3.0L2.5,-0.5"/>
                </g>
                <g id="arrowDown" xlink:href="#dirArrow" transform="rotate(180) translate(-30 -48)" onmousedown="handlePan(0,1)">
                  <use xlink:href="#rim" fill="#404040">
                        <set attributeName="fill" to="#808080" begin="arrowDown.mouseover" end="arrowDown.mouseout"/>
                  </use>
                  <path fill="none" stroke="white" stroke-width="1.5" d="M0,-3.0v7 M-2.5,-0.5L0,-3.0L2.5,-0.5"/>
                </g>
                <g id="arrowLeft" xlink:href="#dirArrow" transform="rotate(270) translate(-36 17)" onmousedown="handlePan(-1,0)">
                  <use xlink:href="#rim" fill="#404040">
                        <set attributeName="fill" to="#808080" begin="arrowLeft.mouseover" end="arrowLeft.mouseout"/>
                  </use>
                  <path fill="none" stroke="white" stroke-width="1.5" d="M0,-3.0v7 M-2.5,-0.5L0,-3.0L2.5,-0.5"/>
                </g>
        </g>
        <svg viewBox="0 0 15 15" width="100%" height="30px" preserveAspectRatio="xMaxYMin meet">
         <g id="arrow_out" transform="scale(0.3 0.3)">
          <a xlink:href="JASBasicBank_8cpp__incl_org.svg" target="_base">
           <rect id="button" ry="5" rx="5" y="6" x="6" height="38" width="38"
                fill="#f2f5e9" fill-opacity="0.5" stroke="#606060" stroke-width="1.0"/>
           <path id="arrow"
             d="M 11.500037,31.436501 C 11.940474,20.09759 22.043105,11.32322 32.158766,21.979434 L 37.068811,17.246167 C 37.068811,17.246167 37.088388,32 37.088388,32 L 22.160133,31.978069 C 22.160133,31.978069 26.997745,27.140456 26.997745,27.140456 C 18.528582,18.264221 13.291696,25.230495 11.500037,31.436501 z"
             style="fill:#404040;"/>
          </a>
         </g>
        </svg>
</svg>
