<?xml version="1.0" encoding="UTF-8" standalone="no"?>
<!DOCTYPE svg PUBLIC "-//W3C//DTD SVG 1.1//EN"
 "http://www.w3.org/Graphics/SVG/1.1/DTD/svg11.dtd">
<!-- Generated by graphviz version 7.0.5 (20221223.1930)
 -->
<!-- Title: include/JSystem/JAudio2/JASChannel.h Pages: 1 -->
<!--zoomable 379 -->
<svg id="main" version="1.1" xmlns="http://www.w3.org/2000/svg" xmlns:xlink="http://www.w3.org/1999/xlink" xml:space="preserve" onload="init(evt)">
<style type="text/css"><![CDATA[
.edge:hover path { stroke: red; }
.edge:hover polygon { stroke: red; fill: red; }
]]></style>
<script type="text/javascript"><![CDATA[
var edges = document.getElementsByTagName('g');
if (edges && edges.length) {
  for (var i=0;i<edges.length;i++) {
    if (edges[i].id.substr(0,4)=='edge') {
      edges[i].setAttribute('class','edge');
    }
  }
}
]]></script>
        <defs>
                <circle id="rim" cx="0" cy="0" r="7"/>
                <circle id="rim2" cx="0" cy="0" r="3.5"/>
                <g id="zoomPlus">
                        <use xlink:href="#rim" fill="#404040">
                                <set attributeName="fill" to="#808080" begin="zoomplus.mouseover" end="zoomplus.mouseout"/>
                        </use>
                        <path d="M-4,0h8M0,-4v8" fill="none" stroke="white" stroke-width="1.5" pointer-events="none"/>
                </g>
                <g id="zoomMin">
                        <use xlink:href="#rim" fill="#404040">
                                <set attributeName="fill" to="#808080" begin="zoomminus.mouseover" end="zoomminus.mouseout"/>
                        </use>
                        <path d="M-4,0h8" fill="none" stroke="white" stroke-width="1.5" pointer-events="none"/>
                </g>
                <g id="dirArrow">
                        <path fill="none" stroke="white" stroke-width="1.5" d="M0,-3.0v7 M-2.5,-0.5L0,-3.0L2.5,-0.5"/>
                </g>
               <g id="resetDef">
                       <use xlink:href="#rim2" fill="#404040">
                               <set attributeName="fill" to="#808080" begin="reset.mouseover" end="reset.mouseout"/>
                       </use>
               </g>
        </defs>

<script type="text/javascript">
var viewWidth = 930;
var viewHeight = 379;
var sectionId = 'dynsection-0';
</script>
<script xlink:href="svgpan.js"/>
<svg id="graph" class="graph">
<g id="viewport">
<title>include/JSystem/JAudio2/JASChannel.h</title>
<!-- Node1 -->
<g id="node1" class="node">
<title>Node1</title>
<g id="a_node1"><a xlink:title=" ">
<polygon fill="#999999" stroke="#666666" points="602,-371 475,-371 475,-341 602,-341 602,-371"/>
<text text-anchor="start" x="483" y="-359" font-family="Helvetica,sans-Serif" font-size="10.00">include/JSystem/JAudio2</text>
<text text-anchor="middle" x="538.5" y="-348" font-family="Helvetica,sans-Serif" font-size="10.00">/JASChannel.h</text>
</a>
</g>
</g>
<!-- Node2 -->
<g id="node2" class="node">
<title>Node2</title>
<g id="a_node2"><a xlink:href="JASHeapCtrl_8h.html" target="_top" xlink:title=" ">
<polygon fill="white" stroke="#666666" points="294,-305 133,-305 133,-286 294,-286 294,-305"/>
<text text-anchor="middle" x="213.5" y="-293" font-family="Helvetica,sans-Serif" font-size="10.00">JSystem/JAudio2/JASHeapCtrl.h</text>
</a>
</g>
</g>
<!-- Node1&#45;&gt;Node2 -->
<g id="edge1" class="edge">
<title>Node1&#45;&gt;Node2</title>
<path fill="none" stroke="#63b8ff" d="M474.68,-343.51C416.62,-333.06 331.52,-317.74 274.39,-307.46"/>
<polygon fill="#63b8ff" stroke="#63b8ff" points="275.31,-304.07 264.85,-305.74 274.07,-310.96 275.31,-304.07"/>
</g>
<!-- Node10 -->
<g id="node10" class="node">
<title>Node10</title>
<g id="a_node10"><a xlink:href="JASLfo_8h.html" target="_top" xlink:title=" ">
<polygon fill="white" stroke="#666666" points="539,-129 402,-129 402,-110 539,-110 539,-129"/>
<text text-anchor="middle" x="470.5" y="-117" font-family="Helvetica,sans-Serif" font-size="10.00">JSystem/JAudio2/JASLfo.h</text>
</a>
</g>
</g>
<!-- Node1&#45;&gt;Node10 -->
<g id="edge11" class="edge">
<title>Node1&#45;&gt;Node10</title>
<path fill="none" stroke="#63b8ff" d="M525.55,-340.76C517.66,-331.29 508.05,-318.21 502.5,-305 478.82,-248.66 472.66,-175.58 471.06,-140.72"/>
<polygon fill="#63b8ff" stroke="#63b8ff" points="474.56,-140.72 470.7,-130.86 467.57,-140.98 474.56,-140.72"/>
</g>
<!-- Node11 -->
<g id="node11" class="node">
<title>Node11</title>
<g id="a_node11"><a xlink:href="JASOscillator_8h.html" target="_top" xlink:title=" ">
<polygon fill="white" stroke="#666666" points="675.5,-305 511.5,-305 511.5,-286 675.5,-286 675.5,-305"/>
<text text-anchor="middle" x="593.5" y="-293" font-family="Helvetica,sans-Serif" font-size="10.00">JSystem/JAudio2/JASOscillator.h</text>
</a>
</g>
</g>
<!-- Node1&#45;&gt;Node11 -->
<g id="edge13" class="edge">
<title>Node1&#45;&gt;Node11</title>
<path fill="none" stroke="#63b8ff" d="M552.1,-340.54C559.84,-332.3 569.58,-321.94 577.67,-313.34"/>
<polygon fill="#63b8ff" stroke="#63b8ff" points="580.01,-315.96 584.31,-306.28 574.91,-311.17 580.01,-315.96"/>
</g>
<!-- Node12 -->
<g id="node12" class="node">
<title>Node12</title>
<g id="a_node12"><a xlink:href="JASSoundParams_8h.html" target="_top" xlink:title=" ">
<polygon fill="white" stroke="#666666" points="739,-195 596,-195 596,-165 739,-165 739,-195"/>
<text text-anchor="start" x="604" y="-183" font-family="Helvetica,sans-Serif" font-size="10.00">JSystem/JAudio2/JASSound</text>
<text text-anchor="middle" x="667.5" y="-172" font-family="Helvetica,sans-Serif" font-size="10.00">Params.h</text>
</a>
</g>
</g>
<!-- Node1&#45;&gt;Node12 -->
<g id="edge15" class="edge">
<title>Node1&#45;&gt;Node12</title>
<path fill="none" stroke="#63b8ff" d="M602.13,-349.88C632.28,-343.89 665.73,-331.27 684.5,-305 705.48,-275.63 692.08,-232.17 680.08,-205.26"/>
<polygon fill="#63b8ff" stroke="#63b8ff" points="683.39,-204.07 675.94,-196.54 677.06,-207.07 683.39,-204.07"/>
</g>
<!-- Node13 -->
<g id="node13" class="node">
<title>Node13</title>
<g id="a_node13"><a xlink:href="JASWaveInfo_8h.html" target="_top" xlink:title=" ">
<polygon fill="white" stroke="#666666" points="921.5,-189.5 757.5,-189.5 757.5,-170.5 921.5,-170.5 921.5,-189.5"/>
<text text-anchor="middle" x="839.5" y="-177.5" font-family="Helvetica,sans-Serif" font-size="10.00">JSystem/JAudio2/JASWaveInfo.h</text>
</a>
</g>
</g>
<!-- Node1&#45;&gt;Node13 -->
<g id="edge17" class="edge">
<title>Node1&#45;&gt;Node13</title>
<path fill="none" stroke="#63b8ff" d="M602.28,-342.68C634.06,-334.84 672.27,-322.75 703.5,-305 754.22,-276.18 801.77,-225.39 824.87,-198.64"/>
<polygon fill="#63b8ff" stroke="#63b8ff" points="827.46,-200.99 831.26,-191.1 822.12,-196.47 827.46,-200.99"/>
</g>
<!-- Node14 -->
<g id="node14" class="node">
<title>Node14</title>
<g id="a_node14"><a xlink:href="OSMessage_8h.html" target="_top" xlink:title=" ">
<polygon fill="white" stroke="#666666" points="455,-250 330,-250 330,-231 455,-231 455,-250"/>
<text text-anchor="middle" x="392.5" y="-238" font-family="Helvetica,sans-Serif" font-size="10.00">dolphin/os/OSMessage.h</text>
</a>
</g>
</g>
<!-- Node1&#45;&gt;Node14 -->
<g id="edge19" class="edge">
<title>Node1&#45;&gt;Node14</title>
<path fill="none" stroke="#63b8ff" d="M518.03,-340.67C504.17,-330.85 485.53,-317.4 469.5,-305 449.3,-289.37 426.83,-270.69 411.41,-257.65"/>
<polygon fill="#63b8ff" stroke="#63b8ff" points="413.84,-255.12 403.95,-251.32 409.31,-260.46 413.84,-255.12"/>
</g>
<!-- Node3 -->
<g id="node3" class="node">
<title>Node3</title>
<g id="a_node3"><a xlink:href="JSUList_8h.html" target="_top" xlink:title=" ">
<polygon fill="white" stroke="#666666" points="143,-250 0,-250 0,-231 143,-231 143,-250"/>
<text text-anchor="middle" x="71.5" y="-238" font-family="Helvetica,sans-Serif" font-size="10.00">JSystem/JSupport/JSUList.h</text>
</a>
</g>
</g>
<!-- Node2&#45;&gt;Node3 -->
<g id="edge2" class="edge">
<title>Node2&#45;&gt;Node3</title>
<path fill="none" stroke="#63b8ff" d="M189.41,-285.51C166.43,-276.93 131.56,-263.92 105.7,-254.27"/>
<polygon fill="#63b8ff" stroke="#63b8ff" points="107.24,-251.1 96.65,-250.89 104.8,-257.66 107.24,-251.1"/>
</g>
<!-- Node6 -->
<g id="node6" class="node">
<title>Node6</title>
<g id="a_node6"><a xlink:href="OSInterrupt_8h.html" target="_top" xlink:title=" ">
<polygon fill="white" stroke="#666666" points="239.5,-129 117.5,-129 117.5,-110 239.5,-110 239.5,-129"/>
<text text-anchor="middle" x="178.5" y="-117" font-family="Helvetica,sans-Serif" font-size="10.00">dolphin/os/OSInterrupt.h</text>
</a>
</g>
</g>
<!-- Node2&#45;&gt;Node6 -->
<g id="edge5" class="edge">
<title>Node2&#45;&gt;Node6</title>
<path fill="none" stroke="#63b8ff" d="M207.67,-285.73C202.22,-277.05 194.36,-263.19 190.5,-250 179.49,-212.37 177.89,-166.2 178.01,-140.39"/>
<polygon fill="#63b8ff" stroke="#63b8ff" points="181.5,-140.76 178.15,-130.71 174.5,-140.66 181.5,-140.76"/>
</g>
<!-- Node7 -->
<g id="node7" class="node">
<title>Node7</title>
<g id="a_node7"><a xlink:href="OSMutex_8h.html" target="_top" xlink:title=" ">
<polygon fill="white" stroke="#666666" points="311.5,-250 199.5,-250 199.5,-231 311.5,-231 311.5,-250"/>
<text text-anchor="middle" x="255.5" y="-238" font-family="Helvetica,sans-Serif" font-size="10.00">dolphin/os/OSMutex.h</text>
</a>
</g>
</g>
<!-- Node2&#45;&gt;Node7 -->
<g id="edge7" class="edge">
<title>Node2&#45;&gt;Node7</title>
<path fill="none" stroke="#63b8ff" d="M220.44,-285.75C226.12,-278.58 234.34,-268.2 241.39,-259.3"/>
<polygon fill="#63b8ff" stroke="#63b8ff" points="244.01,-261.64 247.47,-251.63 238.52,-257.29 244.01,-261.64"/>
</g>
<!-- Node4 -->
<g id="node4" class="node">
<title>Node4</title>
<g id="a_node4"><a xlink:href="types_8h.html" target="_top" xlink:title=" ">
<polygon fill="white" stroke="#666666" points="511,-74 430,-74 430,-55 511,-55 511,-74"/>
<text text-anchor="middle" x="470.5" y="-62" font-family="Helvetica,sans-Serif" font-size="10.00">dolphin/types.h</text>
</a>
</g>
</g>
<!-- Node3&#45;&gt;Node4 -->
<g id="edge3" class="edge">
<title>Node3&#45;&gt;Node4</title>
<path fill="none" stroke="#63b8ff" d="M71,-230.54C70.23,-206.71 71.71,-141.45 108.5,-110 153.93,-71.16 329.2,-65.4 418.12,-65.06"/>
<polygon fill="#63b8ff" stroke="#63b8ff" points="418.05,-68.56 428.04,-65.05 418.04,-61.56 418.05,-68.56"/>
</g>
<!-- Node5 -->
<g id="node5" class="node">
<title>Node5</title>
<g id="a_node5"><a xlink:href="stddef_8h.html" target="_top" xlink:title=" ">
<polygon fill="white" stroke="#666666" points="496,-19 445,-19 445,0 496,0 496,-19"/>
<text text-anchor="middle" x="470.5" y="-7" font-family="Helvetica,sans-Serif" font-size="10.00">stddef.h</text>
</a>
</g>
</g>
<!-- Node4&#45;&gt;Node5 -->
<g id="edge4" class="edge">
<title>Node4&#45;&gt;Node5</title>
<path fill="none" stroke="#63b8ff" d="M470.5,-54.75C470.5,-48.27 470.5,-39.16 470.5,-30.9"/>
<polygon fill="#63b8ff" stroke="#63b8ff" points="474,-30.96 470.5,-20.96 467,-30.96 474,-30.96"/>
</g>
<!-- Node6&#45;&gt;Node4 -->
<g id="edge6" class="edge">
<title>Node6&#45;&gt;Node4</title>
<path fill="none" stroke="#63b8ff" d="M228.03,-109.51C281.05,-99.89 364.78,-84.69 418.67,-74.91"/>
<polygon fill="#63b8ff" stroke="#63b8ff" points="418.99,-78.41 428.2,-73.18 417.74,-71.52 418.99,-78.41"/>
</g>
<!-- Node8 -->
<g id="node8" class="node">
<title>Node8</title>
<g id="a_node8"><a xlink:href="OSThread_8h.html" target="_top" xlink:title=" ">
<polygon fill="white" stroke="#666666" points="382.5,-189.5 266.5,-189.5 266.5,-170.5 382.5,-170.5 382.5,-189.5"/>
<text text-anchor="middle" x="324.5" y="-177.5" font-family="Helvetica,sans-Serif" font-size="10.00">dolphin/os/OSThread.h</text>
</a>
</g>
</g>
<!-- Node7&#45;&gt;Node8 -->
<g id="edge8" class="edge">
<title>Node7&#45;&gt;Node8</title>
<path fill="none" stroke="#63b8ff" d="M265.98,-230.62C276.42,-221.77 292.67,-207.98 305.41,-197.19"/>
<polygon fill="#63b8ff" stroke="#63b8ff" points="307.4,-200.08 312.77,-190.95 302.88,-194.74 307.4,-200.08"/>
</g>
<!-- Node9 -->
<g id="node9" class="node">
<title>Node9</title>
<g id="a_node9"><a xlink:href="OSContext_8h.html" target="_top" xlink:title=" ">
<polygon fill="white" stroke="#666666" points="384,-129 265,-129 265,-110 384,-110 384,-129"/>
<text text-anchor="middle" x="324.5" y="-117" font-family="Helvetica,sans-Serif" font-size="10.00">dolphin/os/OSContext.h</text>
</a>
</g>
</g>
<!-- Node8&#45;&gt;Node9 -->
<g id="edge9" class="edge">
<title>Node8&#45;&gt;Node9</title>
<path fill="none" stroke="#63b8ff" d="M324.5,-170.37C324.5,-162.5 324.5,-150.6 324.5,-140.39"/>
<polygon fill="#63b8ff" stroke="#63b8ff" points="328,-140.68 324.5,-130.68 321,-140.68 328,-140.68"/>
</g>
<!-- Node9&#45;&gt;Node4 -->
<g id="edge10" class="edge">
<title>Node9&#45;&gt;Node4</title>
<path fill="none" stroke="#63b8ff" d="M349.27,-109.51C372.9,-100.93 408.74,-87.92 435.33,-78.27"/>
<polygon fill="#63b8ff" stroke="#63b8ff" points="436.47,-81.58 444.68,-74.87 434.08,-75 436.47,-81.58"/>
</g>
<!-- Node10&#45;&gt;Node4 -->
<g id="edge12" class="edge">
<title>Node10&#45;&gt;Node4</title>
<path fill="none" stroke="#63b8ff" d="M470.5,-109.75C470.5,-103.27 470.5,-94.16 470.5,-85.9"/>
<polygon fill="#63b8ff" stroke="#63b8ff" points="474,-85.96 470.5,-75.96 467,-85.96 474,-85.96"/>
</g>
<!-- Node11&#45;&gt;Node4 -->
<g id="edge14" class="edge">
<title>Node11&#45;&gt;Node4</title>
<path fill="none" stroke="#63b8ff" d="M593.62,-285.79C593.59,-257.44 590,-166.43 547.5,-110 537.26,-96.4 521.56,-86.27 507,-79.13"/>
<polygon fill="#63b8ff" stroke="#63b8ff" points="508.63,-76.02 498.07,-75.08 505.74,-82.4 508.63,-76.02"/>
</g>
<!-- Node12&#45;&gt;Node4 -->
<g id="edge16" class="edge">
<title>Node12&#45;&gt;Node4</title>
<path fill="none" stroke="#63b8ff" d="M652.36,-164.53C635.94,-149.41 608.44,-125.74 581.5,-110 559.06,-96.89 532.02,-85.96 510.25,-78.21"/>
<polygon fill="#63b8ff" stroke="#63b8ff" points="511.43,-74.92 500.83,-74.95 509.14,-81.53 511.43,-74.92"/>
</g>
<!-- Node13&#45;&gt;Node4 -->
<g id="edge18" class="edge">
<title>Node13&#45;&gt;Node4</title>
<path fill="none" stroke="#63b8ff" d="M810.55,-170.09C745.02,-149.94 585.24,-100.79 510.4,-77.77"/>
<polygon fill="#63b8ff" stroke="#63b8ff" points="511.61,-74.48 501.02,-74.89 509.55,-81.17 511.61,-74.48"/>
</g>
<!-- Node14&#45;&gt;Node8 -->
<g id="edge20" class="edge">
<title>Node14&#45;&gt;Node8</title>
<path fill="none" stroke="#63b8ff" d="M382.17,-230.62C371.89,-221.77 355.87,-207.98 343.32,-197.19"/>
<polygon fill="#63b8ff" stroke="#63b8ff" points="345.94,-194.82 336.07,-190.96 341.37,-200.13 345.94,-194.82"/>
</g>
</g>
</svg>
        <g id="navigator" transform="translate(0 0)" fill="#404254">
                <rect fill="#f2f5e9" fill-opacity="0.5" stroke="#606060" stroke-width=".5" x="0" y="0" width="60" height="60"/>
                <use id="zoomplus" xlink:href="#zoomPlus" x="17" y="9" onmousedown="handleZoom(evt,'in')"/>
                <use id="zoomminus" xlink:href="#zoomMin" x="42" y="9" onmousedown="handleZoom(evt,'out')"/>
                <use id="reset" xlink:href="#resetDef" x="30" y="36" onmousedown="handleReset()"/>
                <g id="arrowUp" xlink:href="#dirArrow" transform="translate(30 24)" onmousedown="handlePan(0,-1)">
                  <use xlink:href="#rim" fill="#404040">
                        <set attributeName="fill" to="#808080" begin="arrowUp.mouseover" end="arrowUp.mouseout"/>
                  </use>
                  <path fill="none" stroke="white" stroke-width="1.5" d="M0,-3.0v7 M-2.5,-0.5L0,-3.0L2.5,-0.5"/>
                </g>
                <g id="arrowRight" xlink:href="#dirArrow" transform="rotate(90) translate(36 -43)" onmousedown="handlePan(1,0)">
                  <use xlink:href="#rim" fill="#404040">
                        <set attributeName="fill" to="#808080" begin="arrowRight.mouseover" end="arrowRight.mouseout"/>
                  </use>
                  <path fill="none" stroke="white" stroke-width="1.5" d="M0,-3.0v7 M-2.5,-0.5L0,-3.0L2.5,-0.5"/>
                </g>
                <g id="arrowDown" xlink:href="#dirArrow" transform="rotate(180) translate(-30 -48)" onmousedown="handlePan(0,1)">
                  <use xlink:href="#rim" fill="#404040">
                        <set attributeName="fill" to="#808080" begin="arrowDown.mouseover" end="arrowDown.mouseout"/>
                  </use>
                  <path fill="none" stroke="white" stroke-width="1.5" d="M0,-3.0v7 M-2.5,-0.5L0,-3.0L2.5,-0.5"/>
                </g>
                <g id="arrowLeft" xlink:href="#dirArrow" transform="rotate(270) translate(-36 17)" onmousedown="handlePan(-1,0)">
                  <use xlink:href="#rim" fill="#404040">
                        <set attributeName="fill" to="#808080" begin="arrowLeft.mouseover" end="arrowLeft.mouseout"/>
                  </use>
                  <path fill="none" stroke="white" stroke-width="1.5" d="M0,-3.0v7 M-2.5,-0.5L0,-3.0L2.5,-0.5"/>
                </g>
        </g>
        <svg viewBox="0 0 15 15" width="100%" height="30px" preserveAspectRatio="xMaxYMin meet">
         <g id="arrow_out" transform="scale(0.3 0.3)">
          <a xlink:href="JASChannel_8h__incl_org.svg" target="_base">
           <rect id="button" ry="5" rx="5" y="6" x="6" height="38" width="38"
                fill="#f2f5e9" fill-opacity="0.5" stroke="#606060" stroke-width="1.0"/>
           <path id="arrow"
             d="M 11.500037,31.436501 C 11.940474,20.09759 22.043105,11.32322 32.158766,21.979434 L 37.068811,17.246167 C 37.068811,17.246167 37.088388,32 37.088388,32 L 22.160133,31.978069 C 22.160133,31.978069 26.997745,27.140456 26.997745,27.140456 C 18.528582,18.264221 13.291696,25.230495 11.500037,31.436501 z"
             style="fill:#404040;"/>
          </a>
         </g>
        </svg>
</svg>
