<?xml version="1.0" encoding="UTF-8" standalone="no"?>
<!DOCTYPE svg PUBLIC "-//W3C//DTD SVG 1.1//EN"
 "http://www.w3.org/Graphics/SVG/1.1/DTD/svg11.dtd">
<!-- Generated by graphviz version 7.0.5 (20221223.1930)
 -->
<!-- Title: libs/JSystem/JAudio2/JAUSoundTable.cpp Pages: 1 -->
<svg width="2257pt" height="566pt"
 viewBox="0.00 0.00 2257.00 566.00" xmlns="http://www.w3.org/2000/svg" xmlns:xlink="http://www.w3.org/1999/xlink">
<g id="graph0" class="graph" transform="scale(1 1) rotate(0) translate(4 562)">
<title>libs/JSystem/JAudio2/JAUSoundTable.cpp</title>
<!-- Node1 -->
<g id="node1" class="node">
<title>Node1</title>
<g id="a_node1"><a xlink:title=" ">
<polygon fill="#999999" stroke="#666666" points="111,-558 0,-558 0,-528 111,-528 111,-558"/>
<text text-anchor="start" x="8" y="-546" font-family="Helvetica,sans-Serif" font-size="10.00">libs/JSystem/JAudio2</text>
<text text-anchor="middle" x="55.5" y="-535" font-family="Helvetica,sans-Serif" font-size="10.00">/JAUSoundTable.cpp</text>
</a>
</g>
</g>
<!-- Node2 -->
<g id="node2" class="node">
<title>Node2</title>
<g id="a_node2"><a xlink:href="JAUSoundTable_8h.html" target="_top" xlink:title=" ">
<polygon fill="white" stroke="#666666" points="596,-492 453,-492 453,-462 596,-462 596,-492"/>
<text text-anchor="start" x="461" y="-480" font-family="Helvetica,sans-Serif" font-size="10.00">JSystem/JAudio2/JAUSound</text>
<text text-anchor="middle" x="524.5" y="-469" font-family="Helvetica,sans-Serif" font-size="10.00">Table.h</text>
</a>
</g>
</g>
<!-- Node1&#45;&gt;Node2 -->
<g id="edge1" class="edge">
<title>Node1&#45;&gt;Node2</title>
<path fill="none" stroke="#63b8ff" d="M111.14,-534.41C192.98,-523.24 346.38,-502.31 441.54,-489.32"/>
<polygon fill="#63b8ff" stroke="#63b8ff" points="441.92,-492.8 451.35,-487.98 440.97,-485.87 441.92,-492.8"/>
</g>
<!-- Node6 -->
<g id="node6" class="node">
<title>Node6</title>
<g id="a_node6"><a xlink:href="types_8h.html" target="_top" xlink:title=" ">
<polygon fill="white" stroke="#666666" points="1217,-74 1136,-74 1136,-55 1217,-55 1217,-74"/>
<text text-anchor="middle" x="1176.5" y="-62" font-family="Helvetica,sans-Serif" font-size="10.00">dolphin/types.h</text>
</a>
</g>
</g>
<!-- Node1&#45;&gt;Node6 -->
<g id="edge69" class="edge">
<title>Node1&#45;&gt;Node6</title>
<path fill="none" stroke="#63b8ff" d="M44.77,-527.52C29.29,-505.14 2.5,-460.25 2.5,-417.5 2.5,-417.5 2.5,-417.5 2.5,-179 2.5,-64.59 897.25,-63.44 1124.51,-64.99"/>
<polygon fill="#63b8ff" stroke="#63b8ff" points="1124.21,-68.49 1134.23,-65.06 1124.26,-61.49 1124.21,-68.49"/>
</g>
<!-- Node3 -->
<g id="node3" class="node">
<title>Node3</title>
<g id="a_node3"><a xlink:href="JAISound_8h.html" target="_top" xlink:title=" ">
<polygon fill="white" stroke="#666666" points="2058.5,-316 1912.5,-316 1912.5,-297 2058.5,-297 2058.5,-316"/>
<text text-anchor="middle" x="1985.5" y="-304" font-family="Helvetica,sans-Serif" font-size="10.00">JSystem/JAudio2/JAISound.h</text>
</a>
</g>
</g>
<!-- Node2&#45;&gt;Node3 -->
<g id="edge2" class="edge">
<title>Node2&#45;&gt;Node3</title>
<path fill="none" stroke="#63b8ff" d="M596.45,-467.7C840.79,-439.52 1638.1,-347.57 1900.74,-317.28"/>
<polygon fill="#63b8ff" stroke="#63b8ff" points="1901.06,-320.76 1910.6,-316.14 1900.26,-313.81 1901.06,-320.76"/>
</g>
<!-- Node15 -->
<g id="node15" class="node">
<title>Node15</title>
<g id="a_node15"><a xlink:href="JASGadget_8h.html" target="_top" xlink:title=" ">
<polygon fill="white" stroke="#666666" points="601.5,-426 447.5,-426 447.5,-407 601.5,-407 601.5,-426"/>
<text text-anchor="middle" x="524.5" y="-414" font-family="Helvetica,sans-Serif" font-size="10.00">JSystem/JAudio2/JASGadget.h</text>
</a>
</g>
</g>
<!-- Node2&#45;&gt;Node15 -->
<g id="edge16" class="edge">
<title>Node2&#45;&gt;Node15</title>
<path fill="none" stroke="#63b8ff" d="M524.5,-461.54C524.5,-454.34 524.5,-445.53 524.5,-437.68"/>
<polygon fill="#63b8ff" stroke="#63b8ff" points="528,-437.69 524.5,-427.69 521,-437.69 528,-437.69"/>
</g>
<!-- Node4 -->
<g id="node4" class="node">
<title>Node4</title>
<g id="a_node4"><a xlink:href="JAISoundParams_8h.html" target="_top" xlink:title=" ">
<polygon fill="white" stroke="#666666" points="2080,-261 1941,-261 1941,-231 2080,-231 2080,-261"/>
<text text-anchor="start" x="1949" y="-249" font-family="Helvetica,sans-Serif" font-size="10.00">JSystem/JAudio2/JAISound</text>
<text text-anchor="middle" x="2010.5" y="-238" font-family="Helvetica,sans-Serif" font-size="10.00">Params.h</text>
</a>
</g>
</g>
<!-- Node3&#45;&gt;Node4 -->
<g id="edge3" class="edge">
<title>Node3&#45;&gt;Node4</title>
<path fill="none" stroke="#63b8ff" d="M1989.19,-296.87C1992.05,-290.18 1996.16,-280.57 2000,-271.56"/>
<polygon fill="#63b8ff" stroke="#63b8ff" points="2003.16,-273.08 2003.87,-262.51 1996.73,-270.33 2003.16,-273.08"/>
</g>
<!-- Node8 -->
<g id="node8" class="node">
<title>Node8</title>
<g id="a_node8"><a xlink:href="JAIAudible_8h.html" target="_top" xlink:title=" ">
<polygon fill="white" stroke="#666666" points="2249,-255.5 2098,-255.5 2098,-236.5 2249,-236.5 2249,-255.5"/>
<text text-anchor="middle" x="2173.5" y="-243.5" font-family="Helvetica,sans-Serif" font-size="10.00">JSystem/JAudio2/JAIAudible.h</text>
</a>
</g>
</g>
<!-- Node3&#45;&gt;Node8 -->
<g id="edge7" class="edge">
<title>Node3&#45;&gt;Node8</title>
<path fill="none" stroke="#63b8ff" d="M2014.05,-296.62C2046.08,-286.65 2098.22,-270.43 2134.1,-259.26"/>
<polygon fill="#63b8ff" stroke="#63b8ff" points="2134.72,-262.73 2143.23,-256.42 2132.64,-256.05 2134.72,-262.73"/>
</g>
<!-- Node14 -->
<g id="node14" class="node">
<title>Node14</title>
<g id="a_node14"><a xlink:href="global_8h.html" target="_top" xlink:title=" ">
<polygon fill="white" stroke="#666666" points="1937.5,-189.5 1887.5,-189.5 1887.5,-170.5 1937.5,-170.5 1937.5,-189.5"/>
<text text-anchor="middle" x="1912.5" y="-177.5" font-family="Helvetica,sans-Serif" font-size="10.00">global.h</text>
</a>
</g>
</g>
<!-- Node3&#45;&gt;Node14 -->
<g id="edge14" class="edge">
<title>Node3&#45;&gt;Node14</title>
<path fill="none" stroke="#63b8ff" d="M1970.68,-296.79C1958.61,-288.93 1942.05,-276.28 1932.5,-261 1921.01,-242.62 1916.12,-218 1914.03,-200.95"/>
<polygon fill="#63b8ff" stroke="#63b8ff" points="1917.53,-200.73 1913.07,-191.12 1910.56,-201.41 1917.53,-200.73"/>
</g>
<!-- Node5 -->
<g id="node5" class="node">
<title>Node5</title>
<g id="a_node5"><a xlink:href="JASSoundParams_8h.html" target="_top" xlink:title=" ">
<polygon fill="white" stroke="#666666" points="2099,-195 1956,-195 1956,-165 2099,-165 2099,-195"/>
<text text-anchor="start" x="1964" y="-183" font-family="Helvetica,sans-Serif" font-size="10.00">JSystem/JAudio2/JASSound</text>
<text text-anchor="middle" x="2027.5" y="-172" font-family="Helvetica,sans-Serif" font-size="10.00">Params.h</text>
</a>
</g>
</g>
<!-- Node4&#45;&gt;Node5 -->
<g id="edge4" class="edge">
<title>Node4&#45;&gt;Node5</title>
<path fill="none" stroke="#63b8ff" d="M2014.27,-230.8C2016.19,-223.59 2018.57,-214.61 2020.79,-206.27"/>
<polygon fill="#63b8ff" stroke="#63b8ff" points="2024.16,-207.19 2023.35,-196.63 2017.4,-205.39 2024.16,-207.19"/>
</g>
<!-- Node5&#45;&gt;Node6 -->
<g id="edge5" class="edge">
<title>Node5&#45;&gt;Node6</title>
<path fill="none" stroke="#63b8ff" d="M2006.89,-164.57C1982.02,-148.04 1938.33,-121.72 1896.5,-110 1770.85,-74.78 1372.66,-67.41 1228.9,-65.89"/>
<polygon fill="#63b8ff" stroke="#63b8ff" points="1228.94,-62.39 1218.91,-65.79 1228.87,-69.39 1228.94,-62.39"/>
</g>
<!-- Node7 -->
<g id="node7" class="node">
<title>Node7</title>
<g id="a_node7"><a xlink:href="stddef_8h.html" target="_top" xlink:title=" ">
<polygon fill="white" stroke="#666666" points="701,-19 650,-19 650,0 701,0 701,-19"/>
<text text-anchor="middle" x="675.5" y="-7" font-family="Helvetica,sans-Serif" font-size="10.00">stddef.h</text>
</a>
</g>
</g>
<!-- Node6&#45;&gt;Node7 -->
<g id="edge6" class="edge">
<title>Node6&#45;&gt;Node7</title>
<path fill="none" stroke="#63b8ff" d="M1135.5,-59.16C1040.11,-49.07 804.46,-24.14 712.81,-14.45"/>
<polygon fill="#63b8ff" stroke="#63b8ff" points="713.18,-10.97 702.87,-13.39 712.44,-17.93 713.18,-10.97"/>
</g>
<!-- Node9 -->
<g id="node9" class="node">
<title>Node9</title>
<g id="a_node9"><a xlink:href="JGeometry_8h.html" target="_top" xlink:title=" ">
<polygon fill="white" stroke="#666666" points="2230,-189.5 2117,-189.5 2117,-170.5 2230,-170.5 2230,-189.5"/>
<text text-anchor="middle" x="2173.5" y="-177.5" font-family="Helvetica,sans-Serif" font-size="10.00">JSystem/JGeometry.h</text>
</a>
</g>
</g>
<!-- Node8&#45;&gt;Node9 -->
<g id="edge8" class="edge">
<title>Node8&#45;&gt;Node9</title>
<path fill="none" stroke="#63b8ff" d="M2173.5,-236.1C2173.5,-227.12 2173.5,-212.95 2173.5,-201.22"/>
<polygon fill="#63b8ff" stroke="#63b8ff" points="2177,-201.34 2173.5,-191.34 2170,-201.34 2177,-201.34"/>
</g>
<!-- Node10 -->
<g id="node10" class="node">
<title>Node10</title>
<g id="a_node10"><a xlink:href="vec_8h.html" target="_top" xlink:title=" ">
<polygon fill="white" stroke="#666666" points="2115.5,-129 2023.5,-129 2023.5,-110 2115.5,-110 2115.5,-129"/>
<text text-anchor="middle" x="2069.5" y="-117" font-family="Helvetica,sans-Serif" font-size="10.00">dolphin/mtx/vec.h</text>
</a>
</g>
</g>
<!-- Node9&#45;&gt;Node10 -->
<g id="edge9" class="edge">
<title>Node9&#45;&gt;Node10</title>
<path fill="none" stroke="#63b8ff" d="M2157.7,-170.12C2141.14,-160.79 2114.83,-146 2095.25,-134.99"/>
<polygon fill="#63b8ff" stroke="#63b8ff" points="2097.19,-132.06 2086.76,-130.21 2093.76,-138.16 2097.19,-132.06"/>
</g>
<!-- Node11 -->
<g id="node11" class="node">
<title>Node11</title>
<g id="a_node11"><a xlink:href="math_8h.html" target="_top" xlink:title=" ">
<polygon fill="white" stroke="#666666" points="2196.5,-129 2150.5,-129 2150.5,-110 2196.5,-110 2196.5,-129"/>
<text text-anchor="middle" x="2173.5" y="-117" font-family="Helvetica,sans-Serif" font-size="10.00">math.h</text>
</a>
</g>
</g>
<!-- Node9&#45;&gt;Node11 -->
<g id="edge11" class="edge">
<title>Node9&#45;&gt;Node11</title>
<path fill="none" stroke="#63b8ff" d="M2173.5,-170.37C2173.5,-162.5 2173.5,-150.6 2173.5,-140.39"/>
<polygon fill="#63b8ff" stroke="#63b8ff" points="2177,-140.68 2173.5,-130.68 2170,-140.68 2177,-140.68"/>
</g>
<!-- Node10&#45;&gt;Node6 -->
<g id="edge10" class="edge">
<title>Node10&#45;&gt;Node6</title>
<path fill="none" stroke="#63b8ff" d="M2023.15,-113.99C2007.97,-112.6 1991.03,-111.13 1975.5,-110 1694,-89.44 1356.1,-73.49 1228.59,-67.78"/>
<polygon fill="#63b8ff" stroke="#63b8ff" points="1228.93,-64.29 1218.79,-67.34 1228.62,-71.28 1228.93,-64.29"/>
</g>
<!-- Node12 -->
<g id="node12" class="node">
<title>Node12</title>
<g id="a_node12"><a xlink:href="float_8h.html" target="_top" xlink:title=" ">
<polygon fill="white" stroke="#666666" points="2194.5,-74 2152.5,-74 2152.5,-55 2194.5,-55 2194.5,-74"/>
<text text-anchor="middle" x="2173.5" y="-62" font-family="Helvetica,sans-Serif" font-size="10.00">float.h</text>
</a>
</g>
</g>
<!-- Node11&#45;&gt;Node12 -->
<g id="edge12" class="edge">
<title>Node11&#45;&gt;Node12</title>
<path fill="none" stroke="#63b8ff" d="M2173.5,-109.75C2173.5,-103.27 2173.5,-94.16 2173.5,-85.9"/>
<polygon fill="#63b8ff" stroke="#63b8ff" points="2177,-85.96 2173.5,-75.96 2170,-85.96 2177,-85.96"/>
</g>
<!-- Node13 -->
<g id="node13" class="node">
<title>Node13</title>
<g id="a_node13"><a xlink:href="fdlibm_8h.html" target="_top" xlink:title=" ">
<polygon fill="white" stroke="#666666" points="2198.5,-19 2148.5,-19 2148.5,0 2198.5,0 2198.5,-19"/>
<text text-anchor="middle" x="2173.5" y="-7" font-family="Helvetica,sans-Serif" font-size="10.00">fdlibm.h</text>
</a>
</g>
</g>
<!-- Node12&#45;&gt;Node13 -->
<g id="edge13" class="edge">
<title>Node12&#45;&gt;Node13</title>
<path fill="none" stroke="#63b8ff" d="M2173.5,-54.75C2173.5,-48.27 2173.5,-39.16 2173.5,-30.9"/>
<polygon fill="#63b8ff" stroke="#63b8ff" points="2177,-30.96 2173.5,-20.96 2170,-30.96 2177,-30.96"/>
</g>
<!-- Node14&#45;&gt;Node6 -->
<g id="edge15" class="edge">
<title>Node14&#45;&gt;Node6</title>
<path fill="none" stroke="#63b8ff" d="M1910.48,-170.38C1906.4,-155.17 1895.65,-123.89 1873.5,-110 1819.31,-76.02 1380.94,-67.82 1228.51,-65.99"/>
<polygon fill="#63b8ff" stroke="#63b8ff" points="1228.74,-62.49 1218.7,-65.88 1228.66,-69.49 1228.74,-62.49"/>
</g>
<!-- Node16 -->
<g id="node16" class="node">
<title>Node16</title>
<g id="a_node16"><a xlink:href="JUTAssert_8h.html" target="_top" xlink:title=" ">
<polygon fill="white" stroke="#666666" points="1014.5,-371 868.5,-371 868.5,-352 1014.5,-352 1014.5,-371"/>
<text text-anchor="middle" x="941.5" y="-359" font-family="Helvetica,sans-Serif" font-size="10.00">JSystem/JUtility/JUTAssert.h</text>
</a>
</g>
</g>
<!-- Node15&#45;&gt;Node16 -->
<g id="edge17" class="edge">
<title>Node15&#45;&gt;Node16</title>
<path fill="none" stroke="#63b8ff" d="M595.24,-406.51C668.44,-397.21 782.64,-382.69 859.68,-372.9"/>
<polygon fill="#63b8ff" stroke="#63b8ff" points="859.78,-376.41 869.26,-371.68 858.9,-369.47 859.78,-376.41"/>
</g>
<!-- Node41 -->
<g id="node41" class="node">
<title>Node41</title>
<g id="a_node41"><a xlink:href="string_8h.html" target="_top" xlink:title=" ">
<polygon fill="white" stroke="#666666" points="132.5,-371 84.5,-371 84.5,-352 132.5,-352 132.5,-371"/>
<text text-anchor="middle" x="108.5" y="-359" font-family="Helvetica,sans-Serif" font-size="10.00">string.h</text>
</a>
</g>
</g>
<!-- Node15&#45;&gt;Node41 -->
<g id="edge66" class="edge">
<title>Node15&#45;&gt;Node41</title>
<path fill="none" stroke="#63b8ff" d="M453.93,-406.51C364.09,-395.06 212.32,-375.73 143.87,-367.01"/>
<polygon fill="#63b8ff" stroke="#63b8ff" points="144.71,-363.59 134.35,-365.79 143.83,-370.53 144.71,-363.59"/>
</g>
<!-- Node16&#45;&gt;Node6 -->
<g id="edge18" class="edge">
<title>Node16&#45;&gt;Node6</title>
<path fill="none" stroke="#63b8ff" d="M1014.69,-359.11C1232.17,-354.02 1859.5,-331.96 1859.5,-247 1859.5,-247 1859.5,-247 1859.5,-179 1859.5,-143.1 1848.17,-128.66 1817.5,-110 1767.69,-79.69 1371.65,-69.21 1228.17,-66.38"/>
<polygon fill="#63b8ff" stroke="#63b8ff" points="1228.66,-62.89 1218.59,-66.2 1228.52,-69.89 1228.66,-62.89"/>
</g>
<!-- Node17 -->
<g id="node17" class="node">
<title>Node17</title>
<g id="a_node17"><a xlink:href="os_8h.html" target="_top" xlink:title=" ">
<polygon fill="white" stroke="#666666" points="975.5,-316 907.5,-316 907.5,-297 975.5,-297 975.5,-316"/>
<text text-anchor="middle" x="941.5" y="-304" font-family="Helvetica,sans-Serif" font-size="10.00">dolphin/os.h</text>
</a>
</g>
</g>
<!-- Node16&#45;&gt;Node17 -->
<g id="edge19" class="edge">
<title>Node16&#45;&gt;Node17</title>
<path fill="none" stroke="#63b8ff" d="M941.5,-351.75C941.5,-345.27 941.5,-336.16 941.5,-327.9"/>
<polygon fill="#63b8ff" stroke="#63b8ff" points="945,-327.96 941.5,-317.96 938,-327.96 945,-327.96"/>
</g>
<!-- Node18 -->
<g id="node18" class="node">
<title>Node18</title>
<g id="a_node18"><a xlink:href="____va__arg_8h.html" target="_top" xlink:title=" ">
<polygon fill="white" stroke="#666666" points="1689.5,-129 1625.5,-129 1625.5,-110 1689.5,-110 1689.5,-129"/>
<text text-anchor="middle" x="1657.5" y="-117" font-family="Helvetica,sans-Serif" font-size="10.00">__va_arg.h</text>
</a>
</g>
</g>
<!-- Node17&#45;&gt;Node18 -->
<g id="edge20" class="edge">
<title>Node17&#45;&gt;Node18</title>
<path fill="none" stroke="#63b8ff" d="M975.78,-304.95C1127.96,-302.32 1735.99,-290.03 1763.5,-261 1803.39,-218.89 1725.82,-161.97 1683.07,-135.36"/>
<polygon fill="#63b8ff" stroke="#63b8ff" points="1684.95,-132.41 1674.58,-130.21 1681.31,-138.39 1684.95,-132.41"/>
</g>
<!-- Node19 -->
<g id="node19" class="node">
<title>Node19</title>
<g id="a_node19"><a xlink:href="dvd_8h.html" target="_top" xlink:title=" ">
<polygon fill="white" stroke="#666666" points="1808.5,-129 1734.5,-129 1734.5,-110 1808.5,-110 1808.5,-129"/>
<text text-anchor="middle" x="1771.5" y="-117" font-family="Helvetica,sans-Serif" font-size="10.00">dolphin/dvd.h</text>
</a>
</g>
</g>
<!-- Node17&#45;&gt;Node19 -->
<g id="edge22" class="edge">
<title>Node17&#45;&gt;Node19</title>
<path fill="none" stroke="#63b8ff" d="M975.84,-304.99C1130.4,-302.53 1755.26,-290.77 1783.5,-261 1814.59,-228.23 1794.63,-169.71 1781.06,-139.58"/>
<polygon fill="#63b8ff" stroke="#63b8ff" points="1784.23,-138.11 1776.78,-130.58 1777.91,-141.12 1784.23,-138.11"/>
</g>
<!-- Node20 -->
<g id="node20" class="node">
<title>Node20</title>
<g id="a_node20"><a xlink:href="OSAlarm_8h.html" target="_top" xlink:title=" ">
<polygon fill="white" stroke="#666666" points="330,-255.5 219,-255.5 219,-236.5 330,-236.5 330,-255.5"/>
<text text-anchor="middle" x="274.5" y="-243.5" font-family="Helvetica,sans-Serif" font-size="10.00">dolphin/os/OSAlarm.h</text>
</a>
</g>
</g>
<!-- Node17&#45;&gt;Node20 -->
<g id="edge24" class="edge">
<title>Node17&#45;&gt;Node20</title>
<path fill="none" stroke="#63b8ff" d="M907.02,-304.41C815.18,-301.2 557.14,-290.08 344.5,-261 338.51,-260.18 332.27,-259.17 326.08,-258.06"/>
<polygon fill="#63b8ff" stroke="#63b8ff" points="327.04,-254.68 316.56,-256.27 325.74,-261.56 327.04,-254.68"/>
</g>
<!-- Node21 -->
<g id="node21" class="node">
<title>Node21</title>
<g id="a_node21"><a xlink:href="OSError_8h.html" target="_top" xlink:title=" ">
<polygon fill="white" stroke="#666666" points="242.5,-189.5 136.5,-189.5 136.5,-170.5 242.5,-170.5 242.5,-189.5"/>
<text text-anchor="middle" x="189.5" y="-177.5" font-family="Helvetica,sans-Serif" font-size="10.00">dolphin/os/OSError.h</text>
</a>
</g>
</g>
<!-- Node17&#45;&gt;Node21 -->
<g id="edge38" class="edge">
<title>Node17&#45;&gt;Node21</title>
<path fill="none" stroke="#63b8ff" d="M907.23,-305.75C769.82,-306.46 263.61,-305.95 209.5,-261 192.23,-246.65 188.62,-219.87 188.4,-201.26"/>
<polygon fill="#63b8ff" stroke="#63b8ff" points="191.9,-201.54 188.64,-191.46 184.9,-201.37 191.9,-201.54"/>
</g>
<!-- Node22 -->
<g id="node22" class="node">
<title>Node22</title>
<g id="a_node22"><a xlink:href="OSTime_8h.html" target="_top" xlink:title=" ">
<polygon fill="white" stroke="#666666" points="368,-189.5 261,-189.5 261,-170.5 368,-170.5 368,-189.5"/>
<text text-anchor="middle" x="314.5" y="-177.5" font-family="Helvetica,sans-Serif" font-size="10.00">dolphin/os/OSTime.h</text>
</a>
</g>
</g>
<!-- Node17&#45;&gt;Node22 -->
<g id="edge65" class="edge">
<title>Node17&#45;&gt;Node22</title>
<path fill="none" stroke="#63b8ff" d="M907.06,-304.29C792.55,-300.06 429.14,-284.86 382.5,-261 356.18,-247.54 335.92,-219.03 324.6,-199.94"/>
<polygon fill="#63b8ff" stroke="#63b8ff" points="327.69,-198.29 319.74,-191.29 321.59,-201.72 327.69,-198.29"/>
</g>
<!-- Node23 -->
<g id="node23" class="node">
<title>Node23</title>
<g id="a_node23"><a xlink:href="OSAlloc_8h.html" target="_top" xlink:title=" ">
<polygon fill="white" stroke="#666666" points="450,-129 343,-129 343,-110 450,-110 450,-129"/>
<text text-anchor="middle" x="396.5" y="-117" font-family="Helvetica,sans-Serif" font-size="10.00">dolphin/os/OSAlloc.h</text>
</a>
</g>
</g>
<!-- Node17&#45;&gt;Node23 -->
<g id="edge29" class="edge">
<title>Node17&#45;&gt;Node23</title>
<path fill="none" stroke="#63b8ff" d="M907.29,-305.33C817.62,-304.35 577.97,-298.23 509.5,-261 458.07,-233.03 421.47,-170.94 405.49,-139.51"/>
<polygon fill="#63b8ff" stroke="#63b8ff" points="408.76,-138.23 401.21,-130.8 402.47,-141.31 408.76,-138.23"/>
</g>
<!-- Node24 -->
<g id="node24" class="node">
<title>Node24</title>
<g id="a_node24"><a xlink:href="OSArena_8h.html" target="_top" xlink:title=" ">
<polygon fill="white" stroke="#666666" points="579,-129 468,-129 468,-110 579,-110 579,-129"/>
<text text-anchor="middle" x="523.5" y="-117" font-family="Helvetica,sans-Serif" font-size="10.00">dolphin/os/OSArena.h</text>
</a>
</g>
</g>
<!-- Node17&#45;&gt;Node24 -->
<g id="edge31" class="edge">
<title>Node17&#45;&gt;Node24</title>
<path fill="none" stroke="#63b8ff" d="M907.2,-304.31C812.93,-300.7 555.17,-288.4 529.5,-261 498.83,-228.28 509.09,-170.17 517.33,-139.96"/>
<polygon fill="#63b8ff" stroke="#63b8ff" points="520.6,-141.24 520.08,-130.65 513.89,-139.25 520.6,-141.24"/>
</g>
<!-- Node25 -->
<g id="node25" class="node">
<title>Node25</title>
<g id="a_node25"><a xlink:href="OSAudioSystem_8h.html" target="_top" xlink:title=" ">
<polygon fill="white" stroke="#666666" points="1630,-255.5 1487,-255.5 1487,-236.5 1630,-236.5 1630,-255.5"/>
<text text-anchor="middle" x="1558.5" y="-243.5" font-family="Helvetica,sans-Serif" font-size="10.00">dolphin/os/OSAudioSystem.h</text>
</a>
</g>
</g>
<!-- Node17&#45;&gt;Node25 -->
<g id="edge33" class="edge">
<title>Node17&#45;&gt;Node25</title>
<path fill="none" stroke="#63b8ff" d="M975.76,-303.56C1060.32,-298.55 1285.65,-284 1472.5,-261 1480.26,-260.05 1488.38,-258.91 1496.42,-257.69"/>
<polygon fill="#63b8ff" stroke="#63b8ff" points="1496.82,-261.17 1506.17,-256.18 1495.75,-254.26 1496.82,-261.17"/>
</g>
<!-- Node26 -->
<g id="node26" class="node">
<title>Node26</title>
<g id="a_node26"><a xlink:href="OSCache_8h.html" target="_top" xlink:title=" ">
<polygon fill="white" stroke="#666666" points="710,-129 597,-129 597,-110 710,-110 710,-129"/>
<text text-anchor="middle" x="653.5" y="-117" font-family="Helvetica,sans-Serif" font-size="10.00">dolphin/os/OSCache.h</text>
</a>
</g>
</g>
<!-- Node17&#45;&gt;Node26 -->
<g id="edge34" class="edge">
<title>Node17&#45;&gt;Node26</title>
<path fill="none" stroke="#63b8ff" d="M907.3,-304.28C814.62,-300.61 563.89,-288.23 539.5,-261 519.04,-238.15 552.15,-177.67 563.5,-165 576.18,-150.83 594.4,-140.66 611.14,-133.65"/>
<polygon fill="#63b8ff" stroke="#63b8ff" points="612.38,-136.92 620.43,-130.03 609.84,-130.39 612.38,-136.92"/>
</g>
<!-- Node27 -->
<g id="node27" class="node">
<title>Node27</title>
<g id="a_node27"><a xlink:href="OSContext_8h.html" target="_top" xlink:title=" ">
<polygon fill="white" stroke="#666666" points="847,-129 728,-129 728,-110 847,-110 847,-129"/>
<text text-anchor="middle" x="787.5" y="-117" font-family="Helvetica,sans-Serif" font-size="10.00">dolphin/os/OSContext.h</text>
</a>
</g>
</g>
<!-- Node17&#45;&gt;Node27 -->
<g id="edge36" class="edge">
<title>Node17&#45;&gt;Node27</title>
<path fill="none" stroke="#63b8ff" d="M907.13,-304.09C817.09,-300.05 579.66,-287 556.5,-261 498.75,-196.19 645.01,-151.69 730.64,-131.98"/>
<polygon fill="#63b8ff" stroke="#63b8ff" points="731.32,-135.42 740.31,-129.81 729.79,-128.59 731.32,-135.42"/>
</g>
<!-- Node28 -->
<g id="node28" class="node">
<title>Node28</title>
<g id="a_node28"><a xlink:href="OSExec_8h.html" target="_top" xlink:title=" ">
<polygon fill="white" stroke="#666666" points="978,-129 871,-129 871,-110 978,-110 978,-129"/>
<text text-anchor="middle" x="924.5" y="-117" font-family="Helvetica,sans-Serif" font-size="10.00">dolphin/os/OSExec.h</text>
</a>
</g>
</g>
<!-- Node17&#45;&gt;Node28 -->
<g id="edge39" class="edge">
<title>Node17&#45;&gt;Node28</title>
<path fill="none" stroke="#63b8ff" d="M920.06,-296.54C905.72,-289.26 887.97,-277.5 879.5,-261 858.15,-219.39 890.14,-165.67 910.25,-138.28"/>
<polygon fill="#63b8ff" stroke="#63b8ff" points="912.79,-140.72 916.08,-130.65 907.23,-136.47 912.79,-140.72"/>
</g>
<!-- Node29 -->
<g id="node29" class="node">
<title>Node29</title>
<g id="a_node29"><a xlink:href="OSFont_8h.html" target="_top" xlink:title=" ">
<polygon fill="white" stroke="#666666" points="994,-255.5 889,-255.5 889,-236.5 994,-236.5 994,-255.5"/>
<text text-anchor="middle" x="941.5" y="-243.5" font-family="Helvetica,sans-Serif" font-size="10.00">dolphin/os/OSFont.h</text>
</a>
</g>
</g>
<!-- Node17&#45;&gt;Node29 -->
<g id="edge41" class="edge">
<title>Node17&#45;&gt;Node29</title>
<path fill="none" stroke="#63b8ff" d="M941.5,-296.87C941.5,-289 941.5,-277.1 941.5,-266.89"/>
<polygon fill="#63b8ff" stroke="#63b8ff" points="945,-267.18 941.5,-257.18 938,-267.18 945,-267.18"/>
</g>
<!-- Node30 -->
<g id="node30" class="node">
<title>Node30</title>
<g id="a_node30"><a xlink:href="OSInterrupt_8h.html" target="_top" xlink:title=" ">
<polygon fill="white" stroke="#666666" points="1171.5,-189.5 1049.5,-189.5 1049.5,-170.5 1171.5,-170.5 1171.5,-189.5"/>
<text text-anchor="middle" x="1110.5" y="-177.5" font-family="Helvetica,sans-Serif" font-size="10.00">dolphin/os/OSInterrupt.h</text>
</a>
</g>
</g>
<!-- Node17&#45;&gt;Node30 -->
<g id="edge43" class="edge">
<title>Node17&#45;&gt;Node30</title>
<path fill="none" stroke="#63b8ff" d="M953.72,-296.73C966.08,-287.81 985.71,-273.58 1002.5,-261 1020,-247.89 1023.98,-244.08 1041.5,-231 1057.24,-219.25 1075.21,-206.24 1088.87,-196.43"/>
<polygon fill="#63b8ff" stroke="#63b8ff" points="1090.63,-199.47 1096.73,-190.81 1086.56,-193.78 1090.63,-199.47"/>
</g>
<!-- Node31 -->
<g id="node31" class="node">
<title>Node31</title>
<g id="a_node31"><a xlink:href="OSLink_8h.html" target="_top" xlink:title=" ">
<polygon fill="white" stroke="#666666" points="1331.5,-129 1227.5,-129 1227.5,-110 1331.5,-110 1331.5,-129"/>
<text text-anchor="middle" x="1279.5" y="-117" font-family="Helvetica,sans-Serif" font-size="10.00">dolphin/os/OSLink.h</text>
</a>
</g>
</g>
<!-- Node17&#45;&gt;Node31 -->
<g id="edge45" class="edge">
<title>Node17&#45;&gt;Node31</title>
<path fill="none" stroke="#63b8ff" d="M975.69,-304.08C1065.27,-300 1301.46,-286.87 1324.5,-261 1333.37,-251.04 1328.6,-243.69 1324.5,-231 1318.43,-212.22 1306.86,-212.88 1298.5,-195 1290.28,-177.43 1285.27,-155.8 1282.47,-140.39"/>
<polygon fill="#63b8ff" stroke="#63b8ff" points="1285.94,-139.91 1280.87,-130.61 1279.04,-141.05 1285.94,-139.91"/>
</g>
<!-- Node32 -->
<g id="node32" class="node">
<title>Node32</title>
<g id="a_node32"><a xlink:href="OSMemory_8h.html" target="_top" xlink:title=" ">
<polygon fill="white" stroke="#666666" points="1170.5,-255.5 1050.5,-255.5 1050.5,-236.5 1170.5,-236.5 1170.5,-255.5"/>
<text text-anchor="middle" x="1110.5" y="-243.5" font-family="Helvetica,sans-Serif" font-size="10.00">dolphin/os/OSMemory.h</text>
</a>
</g>
</g>
<!-- Node17&#45;&gt;Node32 -->
<g id="edge47" class="edge">
<title>Node17&#45;&gt;Node32</title>
<path fill="none" stroke="#63b8ff" d="M967.17,-296.62C995.58,-286.78 1041.62,-270.84 1073.83,-259.69"/>
<polygon fill="#63b8ff" stroke="#63b8ff" points="1074.86,-263.04 1083.16,-256.46 1072.57,-256.43 1074.86,-263.04"/>
</g>
<!-- Node33 -->
<g id="node33" class="node">
<title>Node33</title>
<g id="a_node33"><a xlink:href="OSMessage_8h.html" target="_top" xlink:title=" ">
<polygon fill="white" stroke="#666666" points="702,-255.5 577,-255.5 577,-236.5 702,-236.5 702,-255.5"/>
<text text-anchor="middle" x="639.5" y="-243.5" font-family="Helvetica,sans-Serif" font-size="10.00">dolphin/os/OSMessage.h</text>
</a>
</g>
</g>
<!-- Node17&#45;&gt;Node33 -->
<g id="edge49" class="edge">
<title>Node17&#45;&gt;Node33</title>
<path fill="none" stroke="#63b8ff" d="M907.21,-298.88C862.26,-290.19 780.97,-274.48 711.5,-261 706.66,-260.06 701.63,-259.09 696.59,-258.11"/>
<polygon fill="#63b8ff" stroke="#63b8ff" points="697.56,-254.73 687.08,-256.26 696.22,-261.6 697.56,-254.73"/>
</g>
<!-- Node34 -->
<g id="node34" class="node">
<title>Node34</title>
<g id="a_node34"><a xlink:href="OSThread_8h.html" target="_top" xlink:title=" ">
<polygon fill="white" stroke="#666666" points="765.5,-189.5 649.5,-189.5 649.5,-170.5 765.5,-170.5 765.5,-189.5"/>
<text text-anchor="middle" x="707.5" y="-177.5" font-family="Helvetica,sans-Serif" font-size="10.00">dolphin/os/OSThread.h</text>
</a>
</g>
</g>
<!-- Node17&#45;&gt;Node34 -->
<g id="edge64" class="edge">
<title>Node17&#45;&gt;Node34</title>
<path fill="none" stroke="#63b8ff" d="M907.15,-303.97C818.96,-299.68 589.89,-286.21 567.5,-261 538.06,-227.85 598.63,-205.1 649.11,-192.57"/>
<polygon fill="#63b8ff" stroke="#63b8ff" points="649.63,-196.04 658.55,-190.32 648.01,-189.23 649.63,-196.04"/>
</g>
<!-- Node35 -->
<g id="node35" class="node">
<title>Node35</title>
<g id="a_node35"><a xlink:href="OSMutex_8h.html" target="_top" xlink:title=" ">
<polygon fill="white" stroke="#666666" points="832.5,-255.5 720.5,-255.5 720.5,-236.5 832.5,-236.5 832.5,-255.5"/>
<text text-anchor="middle" x="776.5" y="-243.5" font-family="Helvetica,sans-Serif" font-size="10.00">dolphin/os/OSMutex.h</text>
</a>
</g>
</g>
<!-- Node17&#45;&gt;Node35 -->
<g id="edge52" class="edge">
<title>Node17&#45;&gt;Node35</title>
<path fill="none" stroke="#63b8ff" d="M916.44,-296.62C888.7,-286.78 843.75,-270.84 812.31,-259.69"/>
<polygon fill="#63b8ff" stroke="#63b8ff" points="813.82,-256.52 803.22,-256.47 811.48,-263.11 813.82,-256.52"/>
</g>
<!-- Node36 -->
<g id="node36" class="node">
<title>Node36</title>
<g id="a_node36"><a xlink:href="OSReboot_8h.html" target="_top" xlink:title=" ">
<polygon fill="white" stroke="#666666" points="1423.5,-189.5 1307.5,-189.5 1307.5,-170.5 1423.5,-170.5 1423.5,-189.5"/>
<text text-anchor="middle" x="1365.5" y="-177.5" font-family="Helvetica,sans-Serif" font-size="10.00">dolphin/os/OSReboot.h</text>
</a>
</g>
</g>
<!-- Node17&#45;&gt;Node36 -->
<g id="edge54" class="edge">
<title>Node17&#45;&gt;Node36</title>
<path fill="none" stroke="#63b8ff" d="M975.81,-304.3C1070.78,-300.63 1331.86,-288.15 1358.5,-261 1373.73,-245.48 1373,-219.16 1370.1,-200.98"/>
<polygon fill="#63b8ff" stroke="#63b8ff" points="1373.58,-200.54 1368.21,-191.4 1366.72,-201.89 1373.58,-200.54"/>
</g>
<!-- Node37 -->
<g id="node37" class="node">
<title>Node37</title>
<g id="a_node37"><a xlink:href="OSReset_8h.html" target="_top" xlink:title=" ">
<polygon fill="white" stroke="#666666" points="1553,-189.5 1442,-189.5 1442,-170.5 1553,-170.5 1553,-189.5"/>
<text text-anchor="middle" x="1497.5" y="-177.5" font-family="Helvetica,sans-Serif" font-size="10.00">dolphin/os/OSReset.h</text>
</a>
</g>
</g>
<!-- Node17&#45;&gt;Node37 -->
<g id="edge56" class="edge">
<title>Node17&#45;&gt;Node37</title>
<path fill="none" stroke="#63b8ff" d="M975.98,-304.18C1065.82,-300.38 1305.33,-287.95 1379.5,-261 1418.81,-246.72 1457.64,-216.43 1479.5,-197.49"/>
<polygon fill="#63b8ff" stroke="#63b8ff" points="1481.74,-200.18 1486.9,-190.92 1477.1,-194.94 1481.74,-200.18"/>
</g>
<!-- Node38 -->
<g id="node38" class="node">
<title>Node38</title>
<g id="a_node38"><a xlink:href="OSResetSW_8h.html" target="_top" xlink:title=" ">
<polygon fill="white" stroke="#666666" points="1316,-255.5 1189,-255.5 1189,-236.5 1316,-236.5 1316,-255.5"/>
<text text-anchor="middle" x="1252.5" y="-243.5" font-family="Helvetica,sans-Serif" font-size="10.00">dolphin/os/OSResetSW.h</text>
</a>
</g>
</g>
<!-- Node17&#45;&gt;Node38 -->
<g id="edge58" class="edge">
<title>Node17&#45;&gt;Node38</title>
<path fill="none" stroke="#63b8ff" d="M975.8,-299.14C1022.06,-290.55 1107.02,-274.73 1179.5,-261 1184.41,-260.07 1189.51,-259.1 1194.62,-258.13"/>
<polygon fill="#63b8ff" stroke="#63b8ff" points="1195.12,-261.59 1204.29,-256.28 1193.81,-254.72 1195.12,-261.59"/>
</g>
<!-- Node39 -->
<g id="node39" class="node">
<title>Node39</title>
<g id="a_node39"><a xlink:href="OSRtc_8h.html" target="_top" xlink:title=" ">
<polygon fill="white" stroke="#666666" points="1672,-189.5 1571,-189.5 1571,-170.5 1672,-170.5 1672,-189.5"/>
<text text-anchor="middle" x="1621.5" y="-177.5" font-family="Helvetica,sans-Serif" font-size="10.00">dolphin/os/OSRtc.h</text>
</a>
</g>
</g>
<!-- Node17&#45;&gt;Node39 -->
<g id="edge61" class="edge">
<title>Node17&#45;&gt;Node39</title>
<path fill="none" stroke="#63b8ff" d="M975.97,-304.08C1071.46,-299.88 1337.85,-286.16 1421.5,-261 1448.54,-252.87 1451.64,-242.33 1477.5,-231 1511.46,-216.12 1551.38,-202.55 1580.56,-193.31"/>
<polygon fill="#63b8ff" stroke="#63b8ff" points="1581.24,-196.77 1589.74,-190.45 1579.15,-190.09 1581.24,-196.77"/>
</g>
<!-- Node40 -->
<g id="node40" class="node">
<title>Node40</title>
<g id="a_node40"><a xlink:href="OSSync_8h.html" target="_top" xlink:title=" ">
<polygon fill="white" stroke="#666666" points="1755,-255.5 1648,-255.5 1648,-236.5 1755,-236.5 1755,-255.5"/>
<text text-anchor="middle" x="1701.5" y="-243.5" font-family="Helvetica,sans-Serif" font-size="10.00">dolphin/os/OSSync.h</text>
</a>
</g>
</g>
<!-- Node17&#45;&gt;Node40 -->
<g id="edge63" class="edge">
<title>Node17&#45;&gt;Node40</title>
<path fill="none" stroke="#63b8ff" d="M975.78,-305.19C1077.42,-303.86 1385.8,-296.92 1638.5,-261 1643.77,-260.25 1649.25,-259.3 1654.69,-258.24"/>
<polygon fill="#63b8ff" stroke="#63b8ff" points="1655.13,-261.72 1664.21,-256.27 1653.71,-254.87 1655.13,-261.72"/>
</g>
<!-- Node18&#45;&gt;Node6 -->
<g id="edge21" class="edge">
<title>Node18&#45;&gt;Node6</title>
<path fill="none" stroke="#63b8ff" d="M1625.19,-114.94C1543.54,-105.94 1328.32,-82.23 1228.59,-71.24"/>
<polygon fill="#63b8ff" stroke="#63b8ff" points="1229.13,-67.78 1218.81,-70.16 1228.37,-74.74 1229.13,-67.78"/>
</g>
<!-- Node19&#45;&gt;Node6 -->
<g id="edge23" class="edge">
<title>Node19&#45;&gt;Node6</title>
<path fill="none" stroke="#63b8ff" d="M1734.01,-113.91C1722.62,-112.58 1710.05,-111.16 1698.5,-110 1526.89,-92.7 1323.08,-76.61 1228.95,-69.43"/>
<polygon fill="#63b8ff" stroke="#63b8ff" points="1229.23,-65.94 1218.99,-68.68 1228.7,-72.92 1229.23,-65.94"/>
</g>
<!-- Node20&#45;&gt;Node21 -->
<g id="edge25" class="edge">
<title>Node20&#45;&gt;Node21</title>
<path fill="none" stroke="#63b8ff" d="M262.68,-236.1C249.11,-225.88 226.59,-208.93 210.11,-196.52"/>
<polygon fill="#63b8ff" stroke="#63b8ff" points="212.52,-193.95 202.43,-190.73 208.31,-199.54 212.52,-193.95"/>
</g>
<!-- Node20&#45;&gt;Node22 -->
<g id="edge27" class="edge">
<title>Node20&#45;&gt;Node22</title>
<path fill="none" stroke="#63b8ff" d="M280.06,-236.1C285.97,-226.64 295.49,-211.42 303.02,-199.37"/>
<polygon fill="#63b8ff" stroke="#63b8ff" points="305.85,-201.44 308.18,-191.11 299.92,-197.73 305.85,-201.44"/>
</g>
<!-- Node21&#45;&gt;Node6 -->
<g id="edge26" class="edge">
<title>Node21&#45;&gt;Node6</title>
<path fill="none" stroke="#63b8ff" d="M201.32,-170.18C222.88,-154.68 270.61,-122.93 316.5,-110 469.67,-66.83 962.83,-64.69 1124.58,-65.19"/>
<polygon fill="#63b8ff" stroke="#63b8ff" points="1124.12,-68.69 1134.13,-65.22 1124.15,-61.69 1124.12,-68.69"/>
</g>
<!-- Node22&#45;&gt;Node6 -->
<g id="edge28" class="edge">
<title>Node22&#45;&gt;Node6</title>
<path fill="none" stroke="#63b8ff" d="M313.96,-170.08C313.58,-154.99 315.3,-124.64 333.5,-110 364.37,-85.17 944.71,-70.53 1124.11,-66.59"/>
<polygon fill="#63b8ff" stroke="#63b8ff" points="1124.15,-70.09 1134.07,-66.37 1124,-63.09 1124.15,-70.09"/>
</g>
<!-- Node23&#45;&gt;Node6 -->
<g id="edge30" class="edge">
<title>Node23&#45;&gt;Node6</title>
<path fill="none" stroke="#63b8ff" d="M450.24,-110.88C453.03,-110.57 455.8,-110.27 458.5,-110 707.17,-85.28 1005.74,-72.02 1124.3,-67.4"/>
<polygon fill="#63b8ff" stroke="#63b8ff" points="1124.16,-70.91 1134.02,-67.03 1123.89,-63.92 1124.16,-70.91"/>
</g>
<!-- Node24&#45;&gt;Node6 -->
<g id="edge32" class="edge">
<title>Node24&#45;&gt;Node6</title>
<path fill="none" stroke="#63b8ff" d="M579.33,-110.9C582.09,-110.58 584.82,-110.28 587.5,-110 785.4,-89.4 1021.65,-74.46 1124.45,-68.44"/>
<polygon fill="#63b8ff" stroke="#63b8ff" points="1124.44,-71.95 1134.22,-67.87 1124.03,-64.96 1124.44,-71.95"/>
</g>
<!-- Node26&#45;&gt;Node6 -->
<g id="edge35" class="edge">
<title>Node26&#45;&gt;Node6</title>
<path fill="none" stroke="#63b8ff" d="M710.21,-110.97C713.01,-110.64 715.79,-110.31 718.5,-110 865.38,-93.27 1039.22,-77.47 1124.3,-70"/>
<polygon fill="#63b8ff" stroke="#63b8ff" points="1124.54,-73.5 1134.2,-69.14 1123.93,-66.52 1124.54,-73.5"/>
</g>
<!-- Node27&#45;&gt;Node6 -->
<g id="edge37" class="edge">
<title>Node27&#45;&gt;Node6</title>
<path fill="none" stroke="#63b8ff" d="M847.43,-110.33C923.29,-100 1052.72,-82.36 1124.57,-72.57"/>
<polygon fill="#63b8ff" stroke="#63b8ff" points="1124.66,-76.1 1134.09,-71.28 1123.71,-69.16 1124.66,-76.1"/>
</g>
<!-- Node28&#45;&gt;Node6 -->
<g id="edge40" class="edge">
<title>Node28&#45;&gt;Node6</title>
<path fill="none" stroke="#63b8ff" d="M967.25,-109.51C1010.71,-100.37 1078.08,-86.2 1124.58,-76.42"/>
<polygon fill="#63b8ff" stroke="#63b8ff" points="1125.09,-79.89 1134.15,-74.41 1123.65,-73.04 1125.09,-79.89"/>
</g>
<!-- Node29&#45;&gt;Node6 -->
<g id="edge42" class="edge">
<title>Node29&#45;&gt;Node6</title>
<path fill="none" stroke="#63b8ff" d="M952.06,-236.19C970.02,-221.27 1007.75,-190.19 1040.5,-165 1080.19,-134.48 1127.59,-100.3 1154.66,-80.99"/>
<polygon fill="#63b8ff" stroke="#63b8ff" points="1156.62,-83.89 1162.74,-75.24 1152.57,-78.18 1156.62,-83.89"/>
</g>
<!-- Node30&#45;&gt;Node6 -->
<g id="edge44" class="edge">
<title>Node30&#45;&gt;Node6</title>
<path fill="none" stroke="#63b8ff" d="M1115.68,-170.09C1126.43,-151.61 1151.35,-108.76 1165.73,-84.02"/>
<polygon fill="#63b8ff" stroke="#63b8ff" points="1168.58,-86.08 1170.58,-75.67 1162.53,-82.56 1168.58,-86.08"/>
</g>
<!-- Node31&#45;&gt;Node6 -->
<g id="edge46" class="edge">
<title>Node31&#45;&gt;Node6</title>
<path fill="none" stroke="#63b8ff" d="M1262.03,-109.51C1246.1,-101.31 1222.31,-89.07 1203.86,-79.58"/>
<polygon fill="#63b8ff" stroke="#63b8ff" points="1205.55,-76.51 1195.06,-75.05 1202.35,-82.74 1205.55,-76.51"/>
</g>
<!-- Node32&#45;&gt;Node30 -->
<g id="edge48" class="edge">
<title>Node32&#45;&gt;Node30</title>
<path fill="none" stroke="#63b8ff" d="M1110.5,-236.1C1110.5,-227.12 1110.5,-212.95 1110.5,-201.22"/>
<polygon fill="#63b8ff" stroke="#63b8ff" points="1114,-201.34 1110.5,-191.34 1107,-201.34 1114,-201.34"/>
</g>
<!-- Node33&#45;&gt;Node34 -->
<g id="edge50" class="edge">
<title>Node33&#45;&gt;Node34</title>
<path fill="none" stroke="#63b8ff" d="M648.96,-236.1C659.51,-226.17 676.82,-209.87 689.89,-197.57"/>
<polygon fill="#63b8ff" stroke="#63b8ff" points="692.14,-200.26 697.02,-190.86 687.34,-195.17 692.14,-200.26"/>
</g>
<!-- Node34&#45;&gt;Node27 -->
<g id="edge51" class="edge">
<title>Node34&#45;&gt;Node27</title>
<path fill="none" stroke="#63b8ff" d="M719.65,-170.12C731.98,-161.1 751.33,-146.95 766.22,-136.06"/>
<polygon fill="#63b8ff" stroke="#63b8ff" points="768.01,-139.09 774.01,-130.36 763.88,-133.44 768.01,-139.09"/>
</g>
<!-- Node35&#45;&gt;Node34 -->
<g id="edge53" class="edge">
<title>Node35&#45;&gt;Node34</title>
<path fill="none" stroke="#63b8ff" d="M766.91,-236.1C756.19,-226.17 738.63,-209.87 725.37,-197.57"/>
<polygon fill="#63b8ff" stroke="#63b8ff" points="727.83,-195.09 718.12,-190.85 723.07,-200.22 727.83,-195.09"/>
</g>
<!-- Node36&#45;&gt;Node6 -->
<g id="edge55" class="edge">
<title>Node36&#45;&gt;Node6</title>
<path fill="none" stroke="#63b8ff" d="M1364.88,-170.42C1363.34,-155.83 1358.12,-126.22 1340.5,-110 1310.14,-82.05 1264,-71.36 1228.39,-67.41"/>
<polygon fill="#63b8ff" stroke="#63b8ff" points="1229.02,-63.96 1218.74,-66.49 1228.36,-70.92 1229.02,-63.96"/>
</g>
<!-- Node37&#45;&gt;Node6 -->
<g id="edge57" class="edge">
<title>Node37&#45;&gt;Node6</title>
<path fill="none" stroke="#63b8ff" d="M1482.92,-170.16C1458.57,-155.73 1407.71,-127.01 1361.5,-110 1317.81,-93.92 1266.17,-82.05 1228.56,-74.64"/>
<polygon fill="#63b8ff" stroke="#63b8ff" points="1229.33,-71.23 1218.85,-72.77 1228,-78.1 1229.33,-71.23"/>
</g>
<!-- Node38&#45;&gt;Node6 -->
<g id="edge59" class="edge">
<title>Node38&#45;&gt;Node6</title>
<path fill="none" stroke="#63b8ff" d="M1248.83,-236.34C1237.23,-208.93 1201.08,-123.55 1184.7,-84.88"/>
<polygon fill="#63b8ff" stroke="#63b8ff" points="1188.02,-83.73 1180.9,-75.89 1181.57,-86.46 1188.02,-83.73"/>
</g>
<!-- Node38&#45;&gt;Node30 -->
<g id="edge60" class="edge">
<title>Node38&#45;&gt;Node30</title>
<path fill="none" stroke="#63b8ff" d="M1232.76,-236.1C1208.81,-225.31 1168.19,-207 1140.4,-194.48"/>
<polygon fill="#63b8ff" stroke="#63b8ff" points="1142.01,-191.36 1131.46,-190.45 1139.14,-197.75 1142.01,-191.36"/>
</g>
<!-- Node39&#45;&gt;Node6 -->
<g id="edge62" class="edge">
<title>Node39&#45;&gt;Node6</title>
<path fill="none" stroke="#63b8ff" d="M1595.53,-170.07C1554.04,-156.01 1470.07,-128.43 1397.5,-110 1340.1,-95.42 1273.33,-82.53 1228.34,-74.42"/>
<polygon fill="#63b8ff" stroke="#63b8ff" points="1229.05,-70.99 1218.59,-72.68 1227.82,-77.88 1229.05,-70.99"/>
</g>
<!-- Node41&#45;&gt;Node7 -->
<g id="edge67" class="edge">
<title>Node41&#45;&gt;Node7</title>
<path fill="none" stroke="#63b8ff" d="M108.5,-351.67C108.5,-332.58 108.5,-286.02 108.5,-247 108.5,-247 108.5,-247 108.5,-118.5 108.5,-64.38 512.27,-24.69 638.35,-13.62"/>
<polygon fill="#63b8ff" stroke="#63b8ff" points="638.5,-17.12 648.16,-12.77 637.89,-10.15 638.5,-17.12"/>
</g>
<!-- Node42 -->
<g id="node42" class="node">
<title>Node42</title>
<g id="a_node42"><a xlink:href="extras_8h.html" target="_top" xlink:title=" ">
<polygon fill="white" stroke="#666666" points="80.5,-316 30.5,-316 30.5,-297 80.5,-297 80.5,-316"/>
<text text-anchor="middle" x="55.5" y="-304" font-family="Helvetica,sans-Serif" font-size="10.00">extras.h</text>
</a>
</g>
</g>
<!-- Node41&#45;&gt;Node42 -->
<g id="edge68" class="edge">
<title>Node41&#45;&gt;Node42</title>
<path fill="none" stroke="#63b8ff" d="M99.75,-351.75C92.35,-344.35 81.54,-333.54 72.45,-324.45"/>
<polygon fill="#63b8ff" stroke="#63b8ff" points="75.06,-322.11 65.51,-317.51 70.11,-327.06 75.06,-322.11"/>
</g>
</g>
</svg>
