<?xml version="1.0" encoding="UTF-8" standalone="no"?>
<!DOCTYPE svg PUBLIC "-//W3C//DTD SVG 1.1//EN"
 "http://www.w3.org/Graphics/SVG/1.1/DTD/svg11.dtd">
<!-- Generated by graphviz version 7.0.5 (20221223.1930)
 -->
<!-- Title: libs/JSystem/JAudio2/JAUSeqCollection.cpp Pages: 1 -->
<!--zoomable 511 -->
<svg id="main" version="1.1" xmlns="http://www.w3.org/2000/svg" xmlns:xlink="http://www.w3.org/1999/xlink" xml:space="preserve" onload="init(evt)">
<style type="text/css"><![CDATA[
.edge:hover path { stroke: red; }
.edge:hover polygon { stroke: red; fill: red; }
]]></style>
<script type="text/javascript"><![CDATA[
var edges = document.getElementsByTagName('g');
if (edges && edges.length) {
  for (var i=0;i<edges.length;i++) {
    if (edges[i].id.substr(0,4)=='edge') {
      edges[i].setAttribute('class','edge');
    }
  }
}
]]></script>
        <defs>
                <circle id="rim" cx="0" cy="0" r="7"/>
                <circle id="rim2" cx="0" cy="0" r="3.5"/>
                <g id="zoomPlus">
                        <use xlink:href="#rim" fill="#404040">
                                <set attributeName="fill" to="#808080" begin="zoomplus.mouseover" end="zoomplus.mouseout"/>
                        </use>
                        <path d="M-4,0h8M0,-4v8" fill="none" stroke="white" stroke-width="1.5" pointer-events="none"/>
                </g>
                <g id="zoomMin">
                        <use xlink:href="#rim" fill="#404040">
                                <set attributeName="fill" to="#808080" begin="zoomminus.mouseover" end="zoomminus.mouseout"/>
                        </use>
                        <path d="M-4,0h8" fill="none" stroke="white" stroke-width="1.5" pointer-events="none"/>
                </g>
                <g id="dirArrow">
                        <path fill="none" stroke="white" stroke-width="1.5" d="M0,-3.0v7 M-2.5,-0.5L0,-3.0L2.5,-0.5"/>
                </g>
               <g id="resetDef">
                       <use xlink:href="#rim2" fill="#404040">
                               <set attributeName="fill" to="#808080" begin="reset.mouseover" end="reset.mouseout"/>
                       </use>
               </g>
        </defs>

<script type="text/javascript">
var viewWidth = 2098;
var viewHeight = 511;
var sectionId = 'dynsection-0';
</script>
<script xlink:href="svgpan.js"/>
<svg id="graph" class="graph">
<g id="viewport">
<title>libs/JSystem/JAudio2/JAUSeqCollection.cpp</title>
<!-- Node1 -->
<g id="node1" class="node">
<title>Node1</title>
<g id="a_node1"><a xlink:title=" ">
<polygon fill="#999999" stroke="#666666" points="823,-503 706,-503 706,-473 823,-473 823,-503"/>
<text text-anchor="start" x="714" y="-491" font-family="Helvetica,sans-Serif" font-size="10.00">libs/JSystem/JAudio2</text>
<text text-anchor="middle" x="764.5" y="-480" font-family="Helvetica,sans-Serif" font-size="10.00">/JAUSeqCollection.cpp</text>
</a>
</g>
</g>
<!-- Node2 -->
<g id="node2" class="node">
<title>Node2</title>
<g id="a_node2"><a xlink:href="JAUSeqCollection_8h.html" target="_top" xlink:title=" ">
<polygon fill="white" stroke="#666666" points="796,-437 613,-437 613,-418 796,-418 796,-437"/>
<text text-anchor="middle" x="704.5" y="-425" font-family="Helvetica,sans-Serif" font-size="10.00">JSystem/JAudio2/JAUSeqCollection.h</text>
</a>
</g>
</g>
<!-- Node1&#45;&gt;Node2 -->
<g id="edge1" class="edge">
<title>Node1&#45;&gt;Node2</title>
<path fill="none" stroke="#63b8ff" d="M749.67,-472.54C741.13,-464.22 730.37,-453.72 721.49,-445.07"/>
<polygon fill="#63b8ff" stroke="#63b8ff" points="724.08,-442.71 714.48,-438.23 719.2,-447.72 724.08,-442.71"/>
</g>
<!-- Node16 -->
<g id="node16" class="node">
<title>Node16</title>
<g id="a_node16"><a xlink:href="JUTAssert_8h.html" target="_top" xlink:title=" ">
<polygon fill="white" stroke="#666666" points="1363.5,-376.5 1217.5,-376.5 1217.5,-357.5 1363.5,-357.5 1363.5,-376.5"/>
<text text-anchor="middle" x="1290.5" y="-364.5" font-family="Helvetica,sans-Serif" font-size="10.00">JSystem/JUtility/JUTAssert.h</text>
</a>
</g>
</g>
<!-- Node1&#45;&gt;Node16 -->
<g id="edge17" class="edge">
<title>Node1&#45;&gt;Node16</title>
<path fill="none" stroke="#63b8ff" d="M823.31,-473.7C927.36,-450.16 1142.14,-401.57 1239.97,-379.43"/>
<polygon fill="#63b8ff" stroke="#63b8ff" points="1240.57,-382.89 1249.55,-377.26 1239.02,-376.06 1240.57,-382.89"/>
</g>
<!-- Node3 -->
<g id="node3" class="node">
<title>Node3</title>
<g id="a_node3"><a xlink:href="JAISeqDataMgr_8h.html" target="_top" xlink:title=" ">
<polygon fill="white" stroke="#666666" points="756,-382 607,-382 607,-352 756,-352 756,-382"/>
<text text-anchor="start" x="615" y="-370" font-family="Helvetica,sans-Serif" font-size="10.00">JSystem/JAudio2/JAISeqData</text>
<text text-anchor="middle" x="681.5" y="-359" font-family="Helvetica,sans-Serif" font-size="10.00">Mgr.h</text>
</a>
</g>
</g>
<!-- Node2&#45;&gt;Node3 -->
<g id="edge2" class="edge">
<title>Node2&#45;&gt;Node3</title>
<path fill="none" stroke="#63b8ff" d="M701.11,-417.87C698.48,-411.18 694.7,-401.57 691.16,-392.56"/>
<polygon fill="#63b8ff" stroke="#63b8ff" points="694.52,-391.55 687.6,-383.52 688,-394.11 694.52,-391.55"/>
</g>
<!-- Node4 -->
<g id="node4" class="node">
<title>Node4</title>
<g id="a_node4"><a xlink:href="JAISound_8h.html" target="_top" xlink:title=" ">
<polygon fill="white" stroke="#666666" points="360.5,-316 214.5,-316 214.5,-297 360.5,-297 360.5,-316"/>
<text text-anchor="middle" x="287.5" y="-304" font-family="Helvetica,sans-Serif" font-size="10.00">JSystem/JAudio2/JAISound.h</text>
</a>
</g>
</g>
<!-- Node3&#45;&gt;Node4 -->
<g id="edge3" class="edge">
<title>Node3&#45;&gt;Node4</title>
<path fill="none" stroke="#63b8ff" d="M606.93,-354.93C535.82,-344.37 429.44,-328.57 359.27,-318.16"/>
<polygon fill="#63b8ff" stroke="#63b8ff" points="359.8,-314.7 349.4,-316.69 358.78,-321.62 359.8,-314.7"/>
</g>
<!-- Node5 -->
<g id="node5" class="node">
<title>Node5</title>
<g id="a_node5"><a xlink:href="JAISoundParams_8h.html" target="_top" xlink:title=" ">
<polygon fill="white" stroke="#666666" points="308,-261 169,-261 169,-231 308,-231 308,-261"/>
<text text-anchor="start" x="177" y="-249" font-family="Helvetica,sans-Serif" font-size="10.00">JSystem/JAudio2/JAISound</text>
<text text-anchor="middle" x="238.5" y="-238" font-family="Helvetica,sans-Serif" font-size="10.00">Params.h</text>
</a>
</g>
</g>
<!-- Node4&#45;&gt;Node5 -->
<g id="edge4" class="edge">
<title>Node4&#45;&gt;Node5</title>
<path fill="none" stroke="#63b8ff" d="M280.27,-296.87C274.3,-289.74 265.54,-279.28 257.59,-269.79"/>
<polygon fill="#63b8ff" stroke="#63b8ff" points="260.4,-267.69 251.29,-262.27 255.03,-272.19 260.4,-267.69"/>
</g>
<!-- Node9 -->
<g id="node9" class="node">
<title>Node9</title>
<g id="a_node9"><a xlink:href="JAIAudible_8h.html" target="_top" xlink:title=" ">
<polygon fill="white" stroke="#666666" points="151,-255.5 0,-255.5 0,-236.5 151,-236.5 151,-255.5"/>
<text text-anchor="middle" x="75.5" y="-243.5" font-family="Helvetica,sans-Serif" font-size="10.00">JSystem/JAudio2/JAIAudible.h</text>
</a>
</g>
</g>
<!-- Node4&#45;&gt;Node9 -->
<g id="edge8" class="edge">
<title>Node4&#45;&gt;Node9</title>
<path fill="none" stroke="#63b8ff" d="M255.3,-296.62C218.88,-286.56 159.38,-270.15 118.88,-258.97"/>
<polygon fill="#63b8ff" stroke="#63b8ff" points="120.03,-255.66 109.46,-256.37 118.17,-262.41 120.03,-255.66"/>
</g>
<!-- Node15 -->
<g id="node15" class="node">
<title>Node15</title>
<g id="a_node15"><a xlink:href="global_8h.html" target="_top" xlink:title=" ">
<polygon fill="white" stroke="#666666" points="620.5,-129 570.5,-129 570.5,-110 620.5,-110 620.5,-129"/>
<text text-anchor="middle" x="595.5" y="-117" font-family="Helvetica,sans-Serif" font-size="10.00">global.h</text>
</a>
</g>
</g>
<!-- Node4&#45;&gt;Node15 -->
<g id="edge15" class="edge">
<title>Node4&#45;&gt;Node15</title>
<path fill="none" stroke="#63b8ff" d="M293.33,-296.67C299.22,-287.71 308.56,-273.44 316.5,-261 343.57,-218.59 335.15,-193.67 376.5,-165 405.61,-144.81 504.61,-130.78 558.99,-124.4"/>
<polygon fill="#63b8ff" stroke="#63b8ff" points="559.16,-127.9 568.69,-123.29 558.36,-120.95 559.16,-127.9"/>
</g>
<!-- Node6 -->
<g id="node6" class="node">
<title>Node6</title>
<g id="a_node6"><a xlink:href="JASSoundParams_8h.html" target="_top" xlink:title=" ">
<polygon fill="white" stroke="#666666" points="308,-195 165,-195 165,-165 308,-165 308,-195"/>
<text text-anchor="start" x="173" y="-183" font-family="Helvetica,sans-Serif" font-size="10.00">JSystem/JAudio2/JASSound</text>
<text text-anchor="middle" x="236.5" y="-172" font-family="Helvetica,sans-Serif" font-size="10.00">Params.h</text>
</a>
</g>
</g>
<!-- Node5&#45;&gt;Node6 -->
<g id="edge5" class="edge">
<title>Node5&#45;&gt;Node6</title>
<path fill="none" stroke="#63b8ff" d="M238.06,-230.8C237.83,-223.67 237.56,-214.82 237.3,-206.56"/>
<polygon fill="#63b8ff" stroke="#63b8ff" points="240.8,-206.56 236.99,-196.68 233.8,-206.78 240.8,-206.56"/>
</g>
<!-- Node7 -->
<g id="node7" class="node">
<title>Node7</title>
<g id="a_node7"><a xlink:href="types_8h.html" target="_top" xlink:title=" ">
<polygon fill="white" stroke="#666666" points="1281,-74 1200,-74 1200,-55 1281,-55 1281,-74"/>
<text text-anchor="middle" x="1240.5" y="-62" font-family="Helvetica,sans-Serif" font-size="10.00">dolphin/types.h</text>
</a>
</g>
</g>
<!-- Node6&#45;&gt;Node7 -->
<g id="edge6" class="edge">
<title>Node6&#45;&gt;Node7</title>
<path fill="none" stroke="#63b8ff" d="M292.43,-164.56C356.85,-148.53 466.08,-123.19 561.5,-110 793.76,-77.9 1074.02,-68.83 1188.24,-66.37"/>
<polygon fill="#63b8ff" stroke="#63b8ff" points="1188.29,-69.87 1198.22,-66.16 1188.15,-62.87 1188.29,-69.87"/>
</g>
<!-- Node8 -->
<g id="node8" class="node">
<title>Node8</title>
<g id="a_node8"><a xlink:href="stddef_8h.html" target="_top" xlink:title=" ">
<polygon fill="white" stroke="#666666" points="1266,-19 1215,-19 1215,0 1266,0 1266,-19"/>
<text text-anchor="middle" x="1240.5" y="-7" font-family="Helvetica,sans-Serif" font-size="10.00">stddef.h</text>
</a>
</g>
</g>
<!-- Node7&#45;&gt;Node8 -->
<g id="edge7" class="edge">
<title>Node7&#45;&gt;Node8</title>
<path fill="none" stroke="#63b8ff" d="M1240.5,-54.75C1240.5,-48.27 1240.5,-39.16 1240.5,-30.9"/>
<polygon fill="#63b8ff" stroke="#63b8ff" points="1244,-30.96 1240.5,-20.96 1237,-30.96 1244,-30.96"/>
</g>
<!-- Node10 -->
<g id="node10" class="node">
<title>Node10</title>
<g id="a_node10"><a xlink:href="JGeometry_8h.html" target="_top" xlink:title=" ">
<polygon fill="white" stroke="#666666" points="140,-189.5 27,-189.5 27,-170.5 140,-170.5 140,-189.5"/>
<text text-anchor="middle" x="83.5" y="-177.5" font-family="Helvetica,sans-Serif" font-size="10.00">JSystem/JGeometry.h</text>
</a>
</g>
</g>
<!-- Node9&#45;&gt;Node10 -->
<g id="edge9" class="edge">
<title>Node9&#45;&gt;Node10</title>
<path fill="none" stroke="#63b8ff" d="M76.61,-236.1C77.73,-227.12 79.51,-212.95 80.97,-201.22"/>
<polygon fill="#63b8ff" stroke="#63b8ff" points="84.44,-201.68 82.21,-191.33 77.5,-200.81 84.44,-201.68"/>
</g>
<!-- Node11 -->
<g id="node11" class="node">
<title>Node11</title>
<g id="a_node11"><a xlink:href="vec_8h.html" target="_top" xlink:title=" ">
<polygon fill="white" stroke="#666666" points="239.5,-129 147.5,-129 147.5,-110 239.5,-110 239.5,-129"/>
<text text-anchor="middle" x="193.5" y="-117" font-family="Helvetica,sans-Serif" font-size="10.00">dolphin/mtx/vec.h</text>
</a>
</g>
</g>
<!-- Node10&#45;&gt;Node11 -->
<g id="edge10" class="edge">
<title>Node10&#45;&gt;Node11</title>
<path fill="none" stroke="#63b8ff" d="M100.21,-170.12C117.81,-160.75 145.81,-145.86 166.55,-134.83"/>
<polygon fill="#63b8ff" stroke="#63b8ff" points="168.11,-137.96 175.3,-130.18 164.83,-131.78 168.11,-137.96"/>
</g>
<!-- Node12 -->
<g id="node12" class="node">
<title>Node12</title>
<g id="a_node12"><a xlink:href="math_8h.html" target="_top" xlink:title=" ">
<polygon fill="white" stroke="#666666" points="106.5,-129 60.5,-129 60.5,-110 106.5,-110 106.5,-129"/>
<text text-anchor="middle" x="83.5" y="-117" font-family="Helvetica,sans-Serif" font-size="10.00">math.h</text>
</a>
</g>
</g>
<!-- Node10&#45;&gt;Node12 -->
<g id="edge12" class="edge">
<title>Node10&#45;&gt;Node12</title>
<path fill="none" stroke="#63b8ff" d="M83.5,-170.37C83.5,-162.5 83.5,-150.6 83.5,-140.39"/>
<polygon fill="#63b8ff" stroke="#63b8ff" points="87,-140.68 83.5,-130.68 80,-140.68 87,-140.68"/>
</g>
<!-- Node11&#45;&gt;Node7 -->
<g id="edge11" class="edge">
<title>Node11&#45;&gt;Node7</title>
<path fill="none" stroke="#63b8ff" d="M239.84,-116.15C411.1,-107.48 1007.71,-77.28 1188.31,-68.14"/>
<polygon fill="#63b8ff" stroke="#63b8ff" points="1188.27,-71.65 1198.08,-67.65 1187.92,-64.66 1188.27,-71.65"/>
</g>
<!-- Node13 -->
<g id="node13" class="node">
<title>Node13</title>
<g id="a_node13"><a xlink:href="float_8h.html" target="_top" xlink:title=" ">
<polygon fill="white" stroke="#666666" points="104.5,-74 62.5,-74 62.5,-55 104.5,-55 104.5,-74"/>
<text text-anchor="middle" x="83.5" y="-62" font-family="Helvetica,sans-Serif" font-size="10.00">float.h</text>
</a>
</g>
</g>
<!-- Node12&#45;&gt;Node13 -->
<g id="edge13" class="edge">
<title>Node12&#45;&gt;Node13</title>
<path fill="none" stroke="#63b8ff" d="M83.5,-109.75C83.5,-103.27 83.5,-94.16 83.5,-85.9"/>
<polygon fill="#63b8ff" stroke="#63b8ff" points="87,-85.96 83.5,-75.96 80,-85.96 87,-85.96"/>
</g>
<!-- Node14 -->
<g id="node14" class="node">
<title>Node14</title>
<g id="a_node14"><a xlink:href="fdlibm_8h.html" target="_top" xlink:title=" ">
<polygon fill="white" stroke="#666666" points="108.5,-19 58.5,-19 58.5,0 108.5,0 108.5,-19"/>
<text text-anchor="middle" x="83.5" y="-7" font-family="Helvetica,sans-Serif" font-size="10.00">fdlibm.h</text>
</a>
</g>
</g>
<!-- Node13&#45;&gt;Node14 -->
<g id="edge14" class="edge">
<title>Node13&#45;&gt;Node14</title>
<path fill="none" stroke="#63b8ff" d="M83.5,-54.75C83.5,-48.27 83.5,-39.16 83.5,-30.9"/>
<polygon fill="#63b8ff" stroke="#63b8ff" points="87,-30.96 83.5,-20.96 80,-30.96 87,-30.96"/>
</g>
<!-- Node15&#45;&gt;Node7 -->
<g id="edge16" class="edge">
<title>Node15&#45;&gt;Node7</title>
<path fill="none" stroke="#63b8ff" d="M620.78,-115.84C637.68,-114.09 660.41,-111.8 680.5,-110 867.19,-93.25 1089.19,-76.57 1188.26,-69.29"/>
<polygon fill="#63b8ff" stroke="#63b8ff" points="1188.5,-72.79 1198.21,-68.56 1187.98,-65.81 1188.5,-72.79"/>
</g>
<!-- Node16&#45;&gt;Node7 -->
<g id="edge18" class="edge">
<title>Node16&#45;&gt;Node7</title>
<path fill="none" stroke="#63b8ff" d="M1363.88,-362.73C1561.4,-352.95 2089.5,-319.97 2089.5,-247 2089.5,-247 2089.5,-247 2089.5,-179 2089.5,-124.27 2039.33,-127.59 1987.5,-110 1858.58,-66.26 1440.11,-64.31 1292.57,-65.04"/>
<polygon fill="#63b8ff" stroke="#63b8ff" points="1292.69,-61.54 1282.71,-65.1 1292.73,-68.54 1292.69,-61.54"/>
</g>
<!-- Node17 -->
<g id="node17" class="node">
<title>Node17</title>
<g id="a_node17"><a xlink:href="os_8h.html" target="_top" xlink:title=" ">
<polygon fill="white" stroke="#666666" points="1324.5,-316 1256.5,-316 1256.5,-297 1324.5,-297 1324.5,-316"/>
<text text-anchor="middle" x="1290.5" y="-304" font-family="Helvetica,sans-Serif" font-size="10.00">dolphin/os.h</text>
</a>
</g>
</g>
<!-- Node16&#45;&gt;Node17 -->
<g id="edge19" class="edge">
<title>Node16&#45;&gt;Node17</title>
<path fill="none" stroke="#63b8ff" d="M1290.5,-357.37C1290.5,-349.5 1290.5,-337.6 1290.5,-327.39"/>
<polygon fill="#63b8ff" stroke="#63b8ff" points="1294,-327.68 1290.5,-317.68 1287,-327.68 1294,-327.68"/>
</g>
<!-- Node18 -->
<g id="node18" class="node">
<title>Node18</title>
<g id="a_node18"><a xlink:href="____va__arg_8h.html" target="_top" xlink:title=" ">
<polygon fill="white" stroke="#666666" points="1495.5,-129 1431.5,-129 1431.5,-110 1495.5,-110 1495.5,-129"/>
<text text-anchor="middle" x="1463.5" y="-117" font-family="Helvetica,sans-Serif" font-size="10.00">__va_arg.h</text>
</a>
</g>
</g>
<!-- Node17&#45;&gt;Node18 -->
<g id="edge20" class="edge">
<title>Node17&#45;&gt;Node18</title>
<path fill="none" stroke="#63b8ff" d="M1324.96,-303.72C1381.08,-300.01 1488.32,-289.31 1511.5,-261 1519.95,-250.68 1515.93,-243.57 1511.5,-231 1504.67,-211.62 1491.69,-213.37 1482.5,-195 1473.82,-177.65 1468.87,-156 1466.22,-140.51"/>
<polygon fill="#63b8ff" stroke="#63b8ff" points="1469.69,-140.04 1464.72,-130.68 1462.77,-141.09 1469.69,-140.04"/>
</g>
<!-- Node19 -->
<g id="node19" class="node">
<title>Node19</title>
<g id="a_node19"><a xlink:href="dvd_8h.html" target="_top" xlink:title=" ">
<polygon fill="white" stroke="#666666" points="1565.5,-189.5 1491.5,-189.5 1491.5,-170.5 1565.5,-170.5 1565.5,-189.5"/>
<text text-anchor="middle" x="1528.5" y="-177.5" font-family="Helvetica,sans-Serif" font-size="10.00">dolphin/dvd.h</text>
</a>
</g>
</g>
<!-- Node17&#45;&gt;Node19 -->
<g id="edge22" class="edge">
<title>Node17&#45;&gt;Node19</title>
<path fill="none" stroke="#63b8ff" d="M1324.52,-304.73C1387.13,-302.53 1516.78,-293.99 1544.5,-261 1558.91,-243.85 1549.41,-217.35 1540.04,-199.6"/>
<polygon fill="#63b8ff" stroke="#63b8ff" points="1543.2,-198.09 1535.19,-191.16 1537.13,-201.57 1543.2,-198.09"/>
</g>
<!-- Node20 -->
<g id="node20" class="node">
<title>Node20</title>
<g id="a_node20"><a xlink:href="OSAlarm_8h.html" target="_top" xlink:title=" ">
<polygon fill="white" stroke="#666666" points="514,-255.5 403,-255.5 403,-236.5 514,-236.5 514,-255.5"/>
<text text-anchor="middle" x="458.5" y="-243.5" font-family="Helvetica,sans-Serif" font-size="10.00">dolphin/os/OSAlarm.h</text>
</a>
</g>
</g>
<!-- Node17&#45;&gt;Node20 -->
<g id="edge24" class="edge">
<title>Node17&#45;&gt;Node20</title>
<path fill="none" stroke="#63b8ff" d="M1256.17,-305.19C1148.46,-303.87 807.8,-296.91 528.5,-261 522.35,-260.21 515.94,-259.19 509.59,-258.07"/>
<polygon fill="#63b8ff" stroke="#63b8ff" points="510.28,-254.64 499.81,-256.24 508.99,-261.52 510.28,-254.64"/>
</g>
<!-- Node21 -->
<g id="node21" class="node">
<title>Node21</title>
<g id="a_node21"><a xlink:href="OSError_8h.html" target="_top" xlink:title=" ">
<polygon fill="white" stroke="#666666" points="491.5,-189.5 385.5,-189.5 385.5,-170.5 491.5,-170.5 491.5,-189.5"/>
<text text-anchor="middle" x="438.5" y="-177.5" font-family="Helvetica,sans-Serif" font-size="10.00">dolphin/os/OSError.h</text>
</a>
</g>
</g>
<!-- Node17&#45;&gt;Node21 -->
<g id="edge38" class="edge">
<title>Node17&#45;&gt;Node21</title>
<path fill="none" stroke="#63b8ff" d="M1256.09,-305.1C1095.22,-303.09 423.76,-292.8 393.5,-261 375.48,-242.07 399.03,-214.55 418.27,-197.23"/>
<polygon fill="#63b8ff" stroke="#63b8ff" points="420.43,-199.98 425.76,-190.82 415.88,-194.66 420.43,-199.98"/>
</g>
<!-- Node22 -->
<g id="node22" class="node">
<title>Node22</title>
<g id="a_node22"><a xlink:href="OSTime_8h.html" target="_top" xlink:title=" ">
<polygon fill="white" stroke="#666666" points="617,-189.5 510,-189.5 510,-170.5 617,-170.5 617,-189.5"/>
<text text-anchor="middle" x="563.5" y="-177.5" font-family="Helvetica,sans-Serif" font-size="10.00">dolphin/os/OSTime.h</text>
</a>
</g>
</g>
<!-- Node17&#45;&gt;Node22 -->
<g id="edge65" class="edge">
<title>Node17&#45;&gt;Node22</title>
<path fill="none" stroke="#63b8ff" d="M1256.28,-305.59C1122.59,-305.64 640.23,-302.88 587.5,-261 569.7,-246.86 564.7,-220.02 563.5,-201.35"/>
<polygon fill="#63b8ff" stroke="#63b8ff" points="567,-201.39 563.21,-191.5 560,-201.6 567,-201.39"/>
</g>
<!-- Node23 -->
<g id="node23" class="node">
<title>Node23</title>
<g id="a_node23"><a xlink:href="OSAlloc_8h.html" target="_top" xlink:title=" ">
<polygon fill="white" stroke="#666666" points="1659,-129 1552,-129 1552,-110 1659,-110 1659,-129"/>
<text text-anchor="middle" x="1605.5" y="-117" font-family="Helvetica,sans-Serif" font-size="10.00">dolphin/os/OSAlloc.h</text>
</a>
</g>
</g>
<!-- Node17&#45;&gt;Node23 -->
<g id="edge29" class="edge">
<title>Node17&#45;&gt;Node23</title>
<path fill="none" stroke="#63b8ff" d="M1324.84,-304.25C1389.66,-301.19 1526.67,-291.24 1561.5,-261 1596.8,-230.35 1604.12,-171.79 1605.42,-140.84"/>
<polygon fill="#63b8ff" stroke="#63b8ff" points="1608.92,-141.02 1605.64,-130.94 1601.92,-140.86 1608.92,-141.02"/>
</g>
<!-- Node24 -->
<g id="node24" class="node">
<title>Node24</title>
<g id="a_node24"><a xlink:href="OSArena_8h.html" target="_top" xlink:title=" ">
<polygon fill="white" stroke="#666666" points="1733,-189.5 1622,-189.5 1622,-170.5 1733,-170.5 1733,-189.5"/>
<text text-anchor="middle" x="1677.5" y="-177.5" font-family="Helvetica,sans-Serif" font-size="10.00">dolphin/os/OSArena.h</text>
</a>
</g>
</g>
<!-- Node17&#45;&gt;Node24 -->
<g id="edge31" class="edge">
<title>Node17&#45;&gt;Node24</title>
<path fill="none" stroke="#63b8ff" d="M1324.97,-304.28C1399.16,-301.12 1571.25,-290.72 1620.5,-261 1643.96,-246.85 1660.42,-218.95 1669.43,-200.13"/>
<polygon fill="#63b8ff" stroke="#63b8ff" points="1672.55,-201.73 1673.45,-191.18 1666.16,-198.87 1672.55,-201.73"/>
</g>
<!-- Node25 -->
<g id="node25" class="node">
<title>Node25</title>
<g id="a_node25"><a xlink:href="OSAudioSystem_8h.html" target="_top" xlink:title=" ">
<polygon fill="white" stroke="#666666" points="2061,-255.5 1918,-255.5 1918,-236.5 2061,-236.5 2061,-255.5"/>
<text text-anchor="middle" x="1989.5" y="-243.5" font-family="Helvetica,sans-Serif" font-size="10.00">dolphin/os/OSAudioSystem.h</text>
</a>
</g>
</g>
<!-- Node17&#45;&gt;Node25 -->
<g id="edge33" class="edge">
<title>Node17&#45;&gt;Node25</title>
<path fill="none" stroke="#63b8ff" d="M1324.83,-304.08C1418.09,-299.99 1683.87,-286.8 1903.5,-261 1911.45,-260.07 1919.79,-258.92 1928.02,-257.69"/>
<polygon fill="#63b8ff" stroke="#63b8ff" points="1928.29,-261.19 1937.63,-256.2 1927.21,-254.27 1928.29,-261.19"/>
</g>
<!-- Node26 -->
<g id="node26" class="node">
<title>Node26</title>
<g id="a_node26"><a xlink:href="OSCache_8h.html" target="_top" xlink:title=" ">
<polygon fill="white" stroke="#666666" points="1798,-255.5 1685,-255.5 1685,-236.5 1798,-236.5 1798,-255.5"/>
<text text-anchor="middle" x="1741.5" y="-243.5" font-family="Helvetica,sans-Serif" font-size="10.00">dolphin/os/OSCache.h</text>
</a>
</g>
</g>
<!-- Node17&#45;&gt;Node26 -->
<g id="edge34" class="edge">
<title>Node17&#45;&gt;Node26</title>
<path fill="none" stroke="#63b8ff" d="M1324.82,-302.21C1391.06,-295.7 1541.08,-280.11 1666.5,-261 1672.56,-260.08 1678.87,-259.03 1685.16,-257.94"/>
<polygon fill="#63b8ff" stroke="#63b8ff" points="1685.65,-261.4 1694.88,-256.2 1684.42,-254.51 1685.65,-261.4"/>
</g>
<!-- Node27 -->
<g id="node27" class="node">
<title>Node27</title>
<g id="a_node27"><a xlink:href="OSContext_8h.html" target="_top" xlink:title=" ">
<polygon fill="white" stroke="#666666" points="999,-129 880,-129 880,-110 999,-110 999,-129"/>
<text text-anchor="middle" x="939.5" y="-117" font-family="Helvetica,sans-Serif" font-size="10.00">dolphin/os/OSContext.h</text>
</a>
</g>
</g>
<!-- Node17&#45;&gt;Node27 -->
<g id="edge36" class="edge">
<title>Node17&#45;&gt;Node27</title>
<path fill="none" stroke="#63b8ff" d="M1256.29,-303.92C1169.05,-299.53 943.55,-285.86 921.5,-261 891.41,-227.06 914.02,-169.1 929.01,-139.34"/>
<polygon fill="#63b8ff" stroke="#63b8ff" points="931.97,-141.24 933.55,-130.77 925.78,-137.97 931.97,-141.24"/>
</g>
<!-- Node28 -->
<g id="node28" class="node">
<title>Node28</title>
<g id="a_node28"><a xlink:href="OSExec_8h.html" target="_top" xlink:title=" ">
<polygon fill="white" stroke="#666666" points="1897,-189.5 1790,-189.5 1790,-170.5 1897,-170.5 1897,-189.5"/>
<text text-anchor="middle" x="1843.5" y="-177.5" font-family="Helvetica,sans-Serif" font-size="10.00">dolphin/os/OSExec.h</text>
</a>
</g>
</g>
<!-- Node17&#45;&gt;Node28 -->
<g id="edge39" class="edge">
<title>Node17&#45;&gt;Node28</title>
<path fill="none" stroke="#63b8ff" d="M1324.89,-304.54C1434.11,-301.22 1768.23,-288.85 1807.5,-261 1827.18,-247.05 1836.29,-219.74 1840.37,-200.94"/>
<polygon fill="#63b8ff" stroke="#63b8ff" points="1843.78,-201.75 1842.15,-191.28 1836.9,-200.48 1843.78,-201.75"/>
</g>
<!-- Node29 -->
<g id="node29" class="node">
<title>Node29</title>
<g id="a_node29"><a xlink:href="OSFont_8h.html" target="_top" xlink:title=" ">
<polygon fill="white" stroke="#666666" points="1978,-129 1873,-129 1873,-110 1978,-110 1978,-129"/>
<text text-anchor="middle" x="1925.5" y="-117" font-family="Helvetica,sans-Serif" font-size="10.00">dolphin/os/OSFont.h</text>
</a>
</g>
</g>
<!-- Node17&#45;&gt;Node29 -->
<g id="edge41" class="edge">
<title>Node17&#45;&gt;Node29</title>
<path fill="none" stroke="#63b8ff" d="M1324.88,-305.5C1429.18,-305.08 1740.52,-300.44 1832.5,-261 1873,-243.63 1883.61,-232.66 1906.5,-195 1916.67,-178.26 1921.43,-156.23 1923.63,-140.47"/>
<polygon fill="#63b8ff" stroke="#63b8ff" points="1927.07,-141.24 1924.73,-130.91 1920.11,-140.44 1927.07,-141.24"/>
</g>
<!-- Node30 -->
<g id="node30" class="node">
<title>Node30</title>
<g id="a_node30"><a xlink:href="OSInterrupt_8h.html" target="_top" xlink:title=" ">
<polygon fill="white" stroke="#666666" points="805.5,-189.5 683.5,-189.5 683.5,-170.5 805.5,-170.5 805.5,-189.5"/>
<text text-anchor="middle" x="744.5" y="-177.5" font-family="Helvetica,sans-Serif" font-size="10.00">dolphin/os/OSInterrupt.h</text>
</a>
</g>
</g>
<!-- Node17&#45;&gt;Node30 -->
<g id="edge43" class="edge">
<title>Node17&#45;&gt;Node30</title>
<path fill="none" stroke="#63b8ff" d="M1256.03,-305.97C1122.54,-307.43 644.72,-309.23 599.5,-261 568.29,-227.71 631.51,-204.95 684.07,-192.46"/>
<polygon fill="#63b8ff" stroke="#63b8ff" points="684.64,-195.92 693.61,-190.28 683.08,-189.09 684.64,-195.92"/>
</g>
<!-- Node31 -->
<g id="node31" class="node">
<title>Node31</title>
<g id="a_node31"><a xlink:href="OSLink_8h.html" target="_top" xlink:title=" ">
<polygon fill="white" stroke="#666666" points="1121.5,-129 1017.5,-129 1017.5,-110 1121.5,-110 1121.5,-129"/>
<text text-anchor="middle" x="1069.5" y="-117" font-family="Helvetica,sans-Serif" font-size="10.00">dolphin/os/OSLink.h</text>
</a>
</g>
</g>
<!-- Node17&#45;&gt;Node31 -->
<g id="edge45" class="edge">
<title>Node17&#45;&gt;Node31</title>
<path fill="none" stroke="#63b8ff" d="M1284.44,-296.56C1274.21,-281.85 1252.37,-252.07 1229.5,-231 1186.27,-191.16 1127.81,-154.39 1094.85,-134.95"/>
<polygon fill="#63b8ff" stroke="#63b8ff" points="1096.81,-132.04 1086.4,-130.02 1093.28,-138.08 1096.81,-132.04"/>
</g>
<!-- Node32 -->
<g id="node32" class="node">
<title>Node32</title>
<g id="a_node32"><a xlink:href="OSMemory_8h.html" target="_top" xlink:title=" ">
<polygon fill="white" stroke="#666666" points="728.5,-255.5 608.5,-255.5 608.5,-236.5 728.5,-236.5 728.5,-255.5"/>
<text text-anchor="middle" x="668.5" y="-243.5" font-family="Helvetica,sans-Serif" font-size="10.00">dolphin/os/OSMemory.h</text>
</a>
</g>
</g>
<!-- Node17&#45;&gt;Node32 -->
<g id="edge47" class="edge">
<title>Node17&#45;&gt;Node32</title>
<path fill="none" stroke="#63b8ff" d="M1256.04,-304.16C1168.86,-300.47 932.54,-288.53 737.5,-261 731.75,-260.19 725.75,-259.19 719.8,-258.12"/>
<polygon fill="#63b8ff" stroke="#63b8ff" points="720.46,-254.68 709.98,-256.24 719.15,-261.55 720.46,-254.68"/>
</g>
<!-- Node33 -->
<g id="node33" class="node">
<title>Node33</title>
<g id="a_node33"><a xlink:href="OSMessage_8h.html" target="_top" xlink:title=" ">
<polygon fill="white" stroke="#666666" points="1186,-255.5 1061,-255.5 1061,-236.5 1186,-236.5 1186,-255.5"/>
<text text-anchor="middle" x="1123.5" y="-243.5" font-family="Helvetica,sans-Serif" font-size="10.00">dolphin/os/OSMessage.h</text>
</a>
</g>
</g>
<!-- Node17&#45;&gt;Node33 -->
<g id="edge49" class="edge">
<title>Node17&#45;&gt;Node33</title>
<path fill="none" stroke="#63b8ff" d="M1265.14,-296.62C1237.06,-286.78 1191.57,-270.84 1159.74,-259.69"/>
<polygon fill="#63b8ff" stroke="#63b8ff" points="1161.13,-256.47 1150.53,-256.47 1158.81,-263.08 1161.13,-256.47"/>
</g>
<!-- Node34 -->
<g id="node34" class="node">
<title>Node34</title>
<g id="a_node34"><a xlink:href="OSThread_8h.html" target="_top" xlink:title=" ">
<polygon fill="white" stroke="#666666" points="1112.5,-189.5 996.5,-189.5 996.5,-170.5 1112.5,-170.5 1112.5,-189.5"/>
<text text-anchor="middle" x="1054.5" y="-177.5" font-family="Helvetica,sans-Serif" font-size="10.00">dolphin/os/OSThread.h</text>
</a>
</g>
</g>
<!-- Node17&#45;&gt;Node34 -->
<g id="edge64" class="edge">
<title>Node17&#45;&gt;Node34</title>
<path fill="none" stroke="#63b8ff" d="M1279.94,-296.5C1259.15,-278.92 1213.41,-240.85 1195.5,-231 1165.36,-214.42 1128.68,-201.62 1100.28,-193.12"/>
<polygon fill="#63b8ff" stroke="#63b8ff" points="1101.48,-189.82 1090.9,-190.38 1099.52,-196.54 1101.48,-189.82"/>
</g>
<!-- Node35 -->
<g id="node35" class="node">
<title>Node35</title>
<g id="a_node35"><a xlink:href="OSMutex_8h.html" target="_top" xlink:title=" ">
<polygon fill="white" stroke="#666666" points="1042.5,-255.5 930.5,-255.5 930.5,-236.5 1042.5,-236.5 1042.5,-255.5"/>
<text text-anchor="middle" x="986.5" y="-243.5" font-family="Helvetica,sans-Serif" font-size="10.00">dolphin/os/OSMutex.h</text>
</a>
</g>
</g>
<!-- Node17&#45;&gt;Node35 -->
<g id="edge52" class="edge">
<title>Node17&#45;&gt;Node35</title>
<path fill="none" stroke="#63b8ff" d="M1256.16,-299.35C1209.85,-290.99 1124.85,-275.43 1052.5,-261 1048.17,-260.14 1043.67,-259.22 1039.17,-258.29"/>
<polygon fill="#63b8ff" stroke="#63b8ff" points="1040,-254.89 1029.49,-256.27 1038.57,-261.74 1040,-254.89"/>
</g>
<!-- Node36 -->
<g id="node36" class="node">
<title>Node36</title>
<g id="a_node36"><a xlink:href="OSReboot_8h.html" target="_top" xlink:title=" ">
<polygon fill="white" stroke="#666666" points="1255.5,-129 1139.5,-129 1139.5,-110 1255.5,-110 1255.5,-129"/>
<text text-anchor="middle" x="1197.5" y="-117" font-family="Helvetica,sans-Serif" font-size="10.00">dolphin/os/OSReboot.h</text>
</a>
</g>
</g>
<!-- Node17&#45;&gt;Node36 -->
<g id="edge54" class="edge">
<title>Node17&#45;&gt;Node36</title>
<path fill="none" stroke="#63b8ff" d="M1288.37,-296.52C1284.82,-282.24 1277.03,-253.68 1266.5,-231 1250.45,-196.45 1225.65,-159.53 1210.56,-138.31"/>
<polygon fill="#63b8ff" stroke="#63b8ff" points="1213.59,-136.53 1204.9,-130.47 1207.91,-140.62 1213.59,-136.53"/>
</g>
<!-- Node37 -->
<g id="node37" class="node">
<title>Node37</title>
<g id="a_node37"><a xlink:href="OSReset_8h.html" target="_top" xlink:title=" ">
<polygon fill="white" stroke="#666666" points="1384,-189.5 1273,-189.5 1273,-170.5 1384,-170.5 1384,-189.5"/>
<text text-anchor="middle" x="1328.5" y="-177.5" font-family="Helvetica,sans-Serif" font-size="10.00">dolphin/os/OSReset.h</text>
</a>
</g>
</g>
<!-- Node17&#45;&gt;Node37 -->
<g id="edge56" class="edge">
<title>Node17&#45;&gt;Node37</title>
<path fill="none" stroke="#63b8ff" d="M1293.32,-296.65C1296.18,-287.67 1300.69,-273.39 1304.5,-261 1310.81,-240.46 1317.86,-216.88 1322.68,-200.68"/>
<polygon fill="#63b8ff" stroke="#63b8ff" points="1325.96,-201.92 1325.44,-191.34 1319.25,-199.93 1325.96,-201.92"/>
</g>
<!-- Node38 -->
<g id="node38" class="node">
<title>Node38</title>
<g id="a_node38"><a xlink:href="OSResetSW_8h.html" target="_top" xlink:title=" ">
<polygon fill="white" stroke="#666666" points="874,-255.5 747,-255.5 747,-236.5 874,-236.5 874,-255.5"/>
<text text-anchor="middle" x="810.5" y="-243.5" font-family="Helvetica,sans-Serif" font-size="10.00">dolphin/os/OSResetSW.h</text>
</a>
</g>
</g>
<!-- Node17&#45;&gt;Node38 -->
<g id="edge58" class="edge">
<title>Node17&#45;&gt;Node38</title>
<path fill="none" stroke="#63b8ff" d="M1256.25,-302.49C1186.74,-296.22 1024.18,-280.66 888.5,-261 882.05,-260.06 875.31,-259 868.61,-257.87"/>
<polygon fill="#63b8ff" stroke="#63b8ff" points="869.38,-254.46 858.93,-256.21 868.19,-261.35 869.38,-254.46"/>
</g>
<!-- Node39 -->
<g id="node39" class="node">
<title>Node39</title>
<g id="a_node39"><a xlink:href="OSRtc_8h.html" target="_top" xlink:title=" ">
<polygon fill="white" stroke="#666666" points="1413,-129 1312,-129 1312,-110 1413,-110 1413,-129"/>
<text text-anchor="middle" x="1362.5" y="-117" font-family="Helvetica,sans-Serif" font-size="10.00">dolphin/os/OSRtc.h</text>
</a>
</g>
</g>
<!-- Node17&#45;&gt;Node39 -->
<g id="edge61" class="edge">
<title>Node17&#45;&gt;Node39</title>
<path fill="none" stroke="#63b8ff" d="M1303.5,-296.76C1326.84,-280.18 1375.15,-241.61 1393.5,-195 1398.39,-182.59 1397.49,-177.72 1393.5,-165 1390.45,-155.27 1384.43,-145.81 1378.5,-138.13"/>
<polygon fill="#63b8ff" stroke="#63b8ff" points="1381.34,-136.07 1372.24,-130.64 1375.97,-140.56 1381.34,-136.07"/>
</g>
<!-- Node40 -->
<g id="node40" class="node">
<title>Node40</title>
<g id="a_node40"><a xlink:href="OSSync_8h.html" target="_top" xlink:title=" ">
<polygon fill="white" stroke="#666666" points="1502,-255.5 1395,-255.5 1395,-236.5 1502,-236.5 1502,-255.5"/>
<text text-anchor="middle" x="1448.5" y="-243.5" font-family="Helvetica,sans-Serif" font-size="10.00">dolphin/os/OSSync.h</text>
</a>
</g>
</g>
<!-- Node17&#45;&gt;Node40 -->
<g id="edge63" class="edge">
<title>Node17&#45;&gt;Node40</title>
<path fill="none" stroke="#63b8ff" d="M1314.5,-296.62C1340.95,-286.82 1383.72,-270.98 1413.82,-259.84"/>
<polygon fill="#63b8ff" stroke="#63b8ff" points="1414.7,-263.25 1422.86,-256.49 1412.26,-256.68 1414.7,-263.25"/>
</g>
<!-- Node18&#45;&gt;Node7 -->
<g id="edge21" class="edge">
<title>Node18&#45;&gt;Node7</title>
<path fill="none" stroke="#63b8ff" d="M1431.07,-110.79C1393.82,-101.94 1332.29,-87.31 1289.25,-77.09"/>
<polygon fill="#63b8ff" stroke="#63b8ff" points="1290.2,-73.71 1279.66,-74.81 1288.58,-80.52 1290.2,-73.71"/>
</g>
<!-- Node19&#45;&gt;Node7 -->
<g id="edge23" class="edge">
<title>Node19&#45;&gt;Node7</title>
<path fill="none" stroke="#63b8ff" d="M1528.17,-170.24C1527.12,-155.39 1522.71,-125.39 1504.5,-110 1473.24,-83.59 1360.11,-72.46 1292.5,-68.08"/>
<polygon fill="#63b8ff" stroke="#63b8ff" points="1292.96,-64.6 1282.76,-67.48 1292.53,-71.59 1292.96,-64.6"/>
</g>
<!-- Node20&#45;&gt;Node21 -->
<g id="edge25" class="edge">
<title>Node20&#45;&gt;Node21</title>
<path fill="none" stroke="#63b8ff" d="M455.72,-236.1C452.85,-226.93 448.29,-212.34 444.59,-200.48"/>
<polygon fill="#63b8ff" stroke="#63b8ff" points="448.03,-199.77 441.71,-191.27 441.35,-201.86 448.03,-199.77"/>
</g>
<!-- Node20&#45;&gt;Node22 -->
<g id="edge27" class="edge">
<title>Node20&#45;&gt;Node22</title>
<path fill="none" stroke="#63b8ff" d="M473.1,-236.1C490.26,-225.64 518.99,-208.13 539.46,-195.66"/>
<polygon fill="#63b8ff" stroke="#63b8ff" points="541.01,-198.8 547.73,-190.61 537.37,-192.83 541.01,-198.8"/>
</g>
<!-- Node21&#45;&gt;Node7 -->
<g id="edge26" class="edge">
<title>Node21&#45;&gt;Node7</title>
<path fill="none" stroke="#63b8ff" d="M471.51,-170.07C534.15,-153.25 668.2,-117.84 715.5,-110 887.24,-81.52 1093.78,-70.79 1188.46,-67.16"/>
<polygon fill="#63b8ff" stroke="#63b8ff" points="1188.34,-70.67 1198.2,-66.8 1188.08,-63.67 1188.34,-70.67"/>
</g>
<!-- Node22&#45;&gt;Node7 -->
<g id="edge28" class="edge">
<title>Node22&#45;&gt;Node7</title>
<path fill="none" stroke="#63b8ff" d="M588.06,-170.1C630.27,-155.18 719.57,-125.27 797.5,-110 937,-82.67 1104.69,-71.64 1188.07,-67.6"/>
<polygon fill="#63b8ff" stroke="#63b8ff" points="1188.17,-71.1 1198,-67.13 1187.85,-64.11 1188.17,-71.1"/>
</g>
<!-- Node23&#45;&gt;Node7 -->
<g id="edge30" class="edge">
<title>Node23&#45;&gt;Node7</title>
<path fill="none" stroke="#63b8ff" d="M1551.64,-110.68C1481.86,-100.55 1361.02,-83 1292.27,-73.02"/>
<polygon fill="#63b8ff" stroke="#63b8ff" points="1293.19,-69.61 1282.79,-71.64 1292.18,-76.54 1293.19,-69.61"/>
</g>
<!-- Node24&#45;&gt;Node7 -->
<g id="edge32" class="edge">
<title>Node24&#45;&gt;Node7</title>
<path fill="none" stroke="#63b8ff" d="M1679.38,-170.34C1682,-155.63 1684.77,-125.85 1668.5,-110 1642.04,-84.22 1400.97,-71.71 1292.71,-67.36"/>
<polygon fill="#63b8ff" stroke="#63b8ff" points="1293.07,-63.87 1282.94,-66.97 1292.79,-70.86 1293.07,-63.87"/>
</g>
<!-- Node26&#45;&gt;Node7 -->
<g id="edge35" class="edge">
<title>Node26&#45;&gt;Node7</title>
<path fill="none" stroke="#63b8ff" d="M1743.79,-236.17C1747.27,-220.96 1752.49,-189.13 1742.5,-165 1729.27,-133.06 1718.74,-124.8 1687.5,-110 1618.7,-77.42 1394.88,-68.65 1292.48,-66.32"/>
<polygon fill="#63b8ff" stroke="#63b8ff" points="1292.79,-62.83 1282.71,-66.12 1292.64,-69.83 1292.79,-62.83"/>
</g>
<!-- Node27&#45;&gt;Node7 -->
<g id="edge37" class="edge">
<title>Node27&#45;&gt;Node7</title>
<path fill="none" stroke="#63b8ff" d="M990.56,-109.51C1045.68,-99.8 1133.01,-84.43 1188.49,-74.66"/>
<polygon fill="#63b8ff" stroke="#63b8ff" points="1189.1,-78.11 1198.34,-72.92 1187.88,-71.21 1189.1,-78.11"/>
</g>
<!-- Node28&#45;&gt;Node7 -->
<g id="edge40" class="edge">
<title>Node28&#45;&gt;Node7</title>
<path fill="none" stroke="#63b8ff" d="M1838.04,-170.31C1827.88,-154.99 1804.44,-123.55 1775.5,-110 1690.83,-70.36 1410.33,-65.52 1292.91,-65.28"/>
<polygon fill="#63b8ff" stroke="#63b8ff" points="1292.92,-61.78 1282.92,-65.27 1292.91,-68.78 1292.92,-61.78"/>
</g>
<!-- Node29&#45;&gt;Node7 -->
<g id="edge42" class="edge">
<title>Node29&#45;&gt;Node7</title>
<path fill="none" stroke="#63b8ff" d="M1872.69,-113.34C1860.48,-112.19 1847.54,-111.02 1835.5,-110 1634.98,-93.03 1396.16,-76.19 1292.64,-69.06"/>
<polygon fill="#63b8ff" stroke="#63b8ff" points="1293.01,-65.57 1282.79,-68.38 1292.53,-72.56 1293.01,-65.57"/>
</g>
<!-- Node30&#45;&gt;Node7 -->
<g id="edge44" class="edge">
<title>Node30&#45;&gt;Node7</title>
<path fill="none" stroke="#63b8ff" d="M752.44,-170.38C767.02,-155.19 799.78,-123.93 834.5,-110 897.59,-84.68 1093.95,-72.32 1188.54,-67.72"/>
<polygon fill="#63b8ff" stroke="#63b8ff" points="1188.49,-71.22 1198.32,-67.25 1188.16,-64.23 1188.49,-71.22"/>
</g>
<!-- Node31&#45;&gt;Node7 -->
<g id="edge46" class="edge">
<title>Node31&#45;&gt;Node7</title>
<path fill="none" stroke="#63b8ff" d="M1098.51,-109.51C1126.6,-100.8 1169.41,-87.53 1200.69,-77.84"/>
<polygon fill="#63b8ff" stroke="#63b8ff" points="1201.67,-81.2 1210.19,-74.89 1199.6,-74.51 1201.67,-81.2"/>
</g>
<!-- Node32&#45;&gt;Node30 -->
<g id="edge48" class="edge">
<title>Node32&#45;&gt;Node30</title>
<path fill="none" stroke="#63b8ff" d="M679.07,-236.1C690.98,-226.07 710.59,-209.56 725.24,-197.22"/>
<polygon fill="#63b8ff" stroke="#63b8ff" points="727.47,-199.92 732.86,-190.8 722.96,-194.56 727.47,-199.92"/>
</g>
<!-- Node33&#45;&gt;Node34 -->
<g id="edge50" class="edge">
<title>Node33&#45;&gt;Node34</title>
<path fill="none" stroke="#63b8ff" d="M1113.91,-236.1C1103.19,-226.17 1085.63,-209.87 1072.37,-197.57"/>
<polygon fill="#63b8ff" stroke="#63b8ff" points="1074.83,-195.09 1065.12,-190.85 1070.07,-200.22 1074.83,-195.09"/>
</g>
<!-- Node34&#45;&gt;Node27 -->
<g id="edge51" class="edge">
<title>Node34&#45;&gt;Node27</title>
<path fill="none" stroke="#63b8ff" d="M1037.03,-170.12C1018.54,-160.71 989.09,-145.72 967.38,-134.68"/>
<polygon fill="#63b8ff" stroke="#63b8ff" points="968.98,-131.57 958.48,-130.15 965.81,-137.81 968.98,-131.57"/>
</g>
<!-- Node35&#45;&gt;Node34 -->
<g id="edge53" class="edge">
<title>Node35&#45;&gt;Node34</title>
<path fill="none" stroke="#63b8ff" d="M995.96,-236.1C1006.51,-226.17 1023.82,-209.87 1036.89,-197.57"/>
<polygon fill="#63b8ff" stroke="#63b8ff" points="1039.14,-200.26 1044.02,-190.86 1034.34,-195.17 1039.14,-200.26"/>
</g>
<!-- Node36&#45;&gt;Node7 -->
<g id="edge55" class="edge">
<title>Node36&#45;&gt;Node7</title>
<path fill="none" stroke="#63b8ff" d="M1204.6,-109.75C1210.42,-102.58 1218.83,-92.2 1226.06,-83.3"/>
<polygon fill="#63b8ff" stroke="#63b8ff" points="1228.71,-85.59 1232.29,-75.62 1223.27,-81.18 1228.71,-85.59"/>
</g>
<!-- Node37&#45;&gt;Node7 -->
<g id="edge57" class="edge">
<title>Node37&#45;&gt;Node7</title>
<path fill="none" stroke="#63b8ff" d="M1321.59,-170.09C1307.14,-151.45 1273.44,-107.99 1254.35,-83.36"/>
<polygon fill="#63b8ff" stroke="#63b8ff" points="1257.19,-81.32 1248.3,-75.56 1251.66,-85.61 1257.19,-81.32"/>
</g>
<!-- Node38&#45;&gt;Node7 -->
<g id="edge59" class="edge">
<title>Node38&#45;&gt;Node7</title>
<path fill="none" stroke="#63b8ff" d="M811.53,-236.24C814.93,-211.66 828.17,-141.81 871.5,-110 920.71,-73.88 1098.75,-66.84 1188.3,-65.63"/>
<polygon fill="#63b8ff" stroke="#63b8ff" points="1188.07,-69.13 1198.03,-65.52 1187.99,-62.13 1188.07,-69.13"/>
</g>
<!-- Node38&#45;&gt;Node30 -->
<g id="edge60" class="edge">
<title>Node38&#45;&gt;Node30</title>
<path fill="none" stroke="#63b8ff" d="M801.32,-236.1C791.08,-226.17 774.27,-209.87 761.59,-197.57"/>
<polygon fill="#63b8ff" stroke="#63b8ff" points="764.3,-195.33 754.69,-190.88 759.43,-200.35 764.3,-195.33"/>
</g>
<!-- Node39&#45;&gt;Node7 -->
<g id="edge62" class="edge">
<title>Node39&#45;&gt;Node7</title>
<path fill="none" stroke="#63b8ff" d="M1341.8,-109.51C1322.5,-101.12 1293.44,-88.5 1271.39,-78.92"/>
<polygon fill="#63b8ff" stroke="#63b8ff" points="1272.84,-75.74 1262.28,-74.96 1270.06,-82.16 1272.84,-75.74"/>
</g>
</g>
</svg>
        <g id="navigator" transform="translate(0 0)" fill="#404254">
                <rect fill="#f2f5e9" fill-opacity="0.5" stroke="#606060" stroke-width=".5" x="0" y="0" width="60" height="60"/>
                <use id="zoomplus" xlink:href="#zoomPlus" x="17" y="9" onmousedown="handleZoom(evt,'in')"/>
                <use id="zoomminus" xlink:href="#zoomMin" x="42" y="9" onmousedown="handleZoom(evt,'out')"/>
                <use id="reset" xlink:href="#resetDef" x="30" y="36" onmousedown="handleReset()"/>
                <g id="arrowUp" xlink:href="#dirArrow" transform="translate(30 24)" onmousedown="handlePan(0,-1)">
                  <use xlink:href="#rim" fill="#404040">
                        <set attributeName="fill" to="#808080" begin="arrowUp.mouseover" end="arrowUp.mouseout"/>
                  </use>
                  <path fill="none" stroke="white" stroke-width="1.5" d="M0,-3.0v7 M-2.5,-0.5L0,-3.0L2.5,-0.5"/>
                </g>
                <g id="arrowRight" xlink:href="#dirArrow" transform="rotate(90) translate(36 -43)" onmousedown="handlePan(1,0)">
                  <use xlink:href="#rim" fill="#404040">
                        <set attributeName="fill" to="#808080" begin="arrowRight.mouseover" end="arrowRight.mouseout"/>
                  </use>
                  <path fill="none" stroke="white" stroke-width="1.5" d="M0,-3.0v7 M-2.5,-0.5L0,-3.0L2.5,-0.5"/>
                </g>
                <g id="arrowDown" xlink:href="#dirArrow" transform="rotate(180) translate(-30 -48)" onmousedown="handlePan(0,1)">
                  <use xlink:href="#rim" fill="#404040">
                        <set attributeName="fill" to="#808080" begin="arrowDown.mouseover" end="arrowDown.mouseout"/>
                  </use>
                  <path fill="none" stroke="white" stroke-width="1.5" d="M0,-3.0v7 M-2.5,-0.5L0,-3.0L2.5,-0.5"/>
                </g>
                <g id="arrowLeft" xlink:href="#dirArrow" transform="rotate(270) translate(-36 17)" onmousedown="handlePan(-1,0)">
                  <use xlink:href="#rim" fill="#404040">
                        <set attributeName="fill" to="#808080" begin="arrowLeft.mouseover" end="arrowLeft.mouseout"/>
                  </use>
                  <path fill="none" stroke="white" stroke-width="1.5" d="M0,-3.0v7 M-2.5,-0.5L0,-3.0L2.5,-0.5"/>
                </g>
        </g>
        <svg viewBox="0 0 15 15" width="100%" height="30px" preserveAspectRatio="xMaxYMin meet">
         <g id="arrow_out" transform="scale(0.3 0.3)">
          <a xlink:href="JAUSeqCollection_8cpp__incl_org.svg" target="_base">
           <rect id="button" ry="5" rx="5" y="6" x="6" height="38" width="38"
                fill="#f2f5e9" fill-opacity="0.5" stroke="#606060" stroke-width="1.0"/>
           <path id="arrow"
             d="M 11.500037,31.436501 C 11.940474,20.09759 22.043105,11.32322 32.158766,21.979434 L 37.068811,17.246167 C 37.068811,17.246167 37.088388,32 37.088388,32 L 22.160133,31.978069 C 22.160133,31.978069 26.997745,27.140456 26.997745,27.140456 C 18.528582,18.264221 13.291696,25.230495 11.500037,31.436501 z"
             style="fill:#404040;"/>
          </a>
         </g>
        </svg>
</svg>
