<?xml version="1.0" encoding="UTF-8" standalone="no"?>
<!DOCTYPE svg PUBLIC "-//W3C//DTD SVG 1.1//EN"
 "http://www.w3.org/Graphics/SVG/1.1/DTD/svg11.dtd">
<!-- Generated by graphviz version 7.0.5 (20221223.1930)
 -->
<!-- Title: libs/JSystem/JKernel/JKRAramBlock.cpp Pages: 1 -->
<svg width="485pt" height="368pt"
 viewBox="0.00 0.00 484.50 368.00" xmlns="http://www.w3.org/2000/svg" xmlns:xlink="http://www.w3.org/1999/xlink">
<g id="graph0" class="graph" transform="scale(1 1) rotate(0) translate(4 364)">
<title>libs/JSystem/JKernel/JKRAramBlock.cpp</title>
<!-- Node1 -->
<g id="node1" class="node">
<title>Node1</title>
<g id="a_node1"><a xlink:title=" ">
<polygon fill="#999999" stroke="#666666" points="286.5,-360 177.5,-360 177.5,-330 286.5,-330 286.5,-360"/>
<text text-anchor="start" x="185.5" y="-348" font-family="Helvetica,sans-Serif" font-size="10.00">libs/JSystem/JKernel</text>
<text text-anchor="middle" x="232" y="-337" font-family="Helvetica,sans-Serif" font-size="10.00">/JKRAramBlock.cpp</text>
</a>
</g>
</g>
<!-- Node2 -->
<g id="node2" class="node">
<title>Node2</title>
<g id="a_node2"><a xlink:href="JKRAramBlock_8h.html" target="_top" xlink:title=" ">
<polygon fill="white" stroke="#666666" points="168,-239 0,-239 0,-220 168,-220 168,-239"/>
<text text-anchor="middle" x="84" y="-227" font-family="Helvetica,sans-Serif" font-size="10.00">JSystem/JKernel/JKRAramBlock.h</text>
</a>
</g>
</g>
<!-- Node1&#45;&gt;Node2 -->
<g id="edge1" class="edge">
<title>Node1&#45;&gt;Node2</title>
<path fill="none" stroke="#63b8ff" d="M198.36,-329.58C179.84,-320.77 157.03,-308.44 139,-294 122.33,-280.65 106.73,-261.79 96.43,-248.1"/>
<polygon fill="#63b8ff" stroke="#63b8ff" points="99.55,-246.43 90.83,-240.41 93.9,-250.56 99.55,-246.43"/>
</g>
<!-- Node6 -->
<g id="node6" class="node">
<title>Node6</title>
<g id="a_node6"><a xlink:href="JKRAramHeap_8h.html" target="_top" xlink:title=" ">
<polygon fill="white" stroke="#666666" points="315.5,-294 148.5,-294 148.5,-275 315.5,-275 315.5,-294"/>
<text text-anchor="middle" x="232" y="-282" font-family="Helvetica,sans-Serif" font-size="10.00">JSystem/JKernel/JKRAramHeap.h</text>
</a>
</g>
</g>
<!-- Node1&#45;&gt;Node6 -->
<g id="edge5" class="edge">
<title>Node1&#45;&gt;Node6</title>
<path fill="none" stroke="#63b8ff" d="M232,-329.54C232,-322.34 232,-313.53 232,-305.68"/>
<polygon fill="#63b8ff" stroke="#63b8ff" points="235.5,-305.69 232,-295.69 228.5,-305.69 235.5,-305.69"/>
</g>
<!-- Node11 -->
<g id="node11" class="node">
<title>Node11</title>
<g id="a_node11"><a xlink:href="JKRHeap_8h.html" target="_top" xlink:title=" ">
<polygon fill="white" stroke="#666666" points="476.5,-294 333.5,-294 333.5,-275 476.5,-275 476.5,-294"/>
<text text-anchor="middle" x="405" y="-282" font-family="Helvetica,sans-Serif" font-size="10.00">JSystem/JKernel/JKRHeap.h</text>
</a>
</g>
</g>
<!-- Node1&#45;&gt;Node11 -->
<g id="edge13" class="edge">
<title>Node1&#45;&gt;Node11</title>
<path fill="none" stroke="#63b8ff" d="M274.76,-329.54C303.35,-319.87 340.57,-307.29 367.9,-298.04"/>
<polygon fill="#63b8ff" stroke="#63b8ff" points="368.8,-301.44 377.15,-294.92 366.56,-294.8 368.8,-301.44"/>
</g>
<!-- Node3 -->
<g id="node3" class="node">
<title>Node3</title>
<g id="a_node3"><a xlink:href="JSUList_8h.html" target="_top" xlink:title=" ">
<polygon fill="white" stroke="#666666" points="336.5,-184 193.5,-184 193.5,-165 336.5,-165 336.5,-184"/>
<text text-anchor="middle" x="265" y="-172" font-family="Helvetica,sans-Serif" font-size="10.00">JSystem/JSupport/JSUList.h</text>
</a>
</g>
</g>
<!-- Node2&#45;&gt;Node3 -->
<g id="edge2" class="edge">
<title>Node2&#45;&gt;Node3</title>
<path fill="none" stroke="#63b8ff" d="M114.7,-219.51C144.7,-210.73 190.55,-197.3 223.73,-187.59"/>
<polygon fill="#63b8ff" stroke="#63b8ff" points="224.38,-191.04 233,-184.87 222.41,-184.32 224.38,-191.04"/>
</g>
<!-- Node4 -->
<g id="node4" class="node">
<title>Node4</title>
<g id="a_node4"><a xlink:href="types_8h.html" target="_top" xlink:title=" ">
<polygon fill="white" stroke="#666666" points="379.5,-74 298.5,-74 298.5,-55 379.5,-55 379.5,-74"/>
<text text-anchor="middle" x="339" y="-62" font-family="Helvetica,sans-Serif" font-size="10.00">dolphin/types.h</text>
</a>
</g>
</g>
<!-- Node3&#45;&gt;Node4 -->
<g id="edge3" class="edge">
<title>Node3&#45;&gt;Node4</title>
<path fill="none" stroke="#63b8ff" d="M271.06,-164.66C283.14,-147.02 310.48,-107.12 326.55,-83.67"/>
<polygon fill="#63b8ff" stroke="#63b8ff" points="329.24,-85.94 332.01,-75.71 323.47,-81.98 329.24,-85.94"/>
</g>
<!-- Node5 -->
<g id="node5" class="node">
<title>Node5</title>
<g id="a_node5"><a xlink:href="stddef_8h.html" target="_top" xlink:title=" ">
<polygon fill="white" stroke="#666666" points="364.5,-19 313.5,-19 313.5,0 364.5,0 364.5,-19"/>
<text text-anchor="middle" x="339" y="-7" font-family="Helvetica,sans-Serif" font-size="10.00">stddef.h</text>
</a>
</g>
</g>
<!-- Node4&#45;&gt;Node5 -->
<g id="edge4" class="edge">
<title>Node4&#45;&gt;Node5</title>
<path fill="none" stroke="#63b8ff" d="M339,-54.75C339,-48.27 339,-39.16 339,-30.9"/>
<polygon fill="#63b8ff" stroke="#63b8ff" points="342.5,-30.96 339,-20.96 335.5,-30.96 342.5,-30.96"/>
</g>
<!-- Node6&#45;&gt;Node2 -->
<g id="edge6" class="edge">
<title>Node6&#45;&gt;Node2</title>
<path fill="none" stroke="#63b8ff" d="M206.89,-274.51C182.83,-265.89 146.28,-252.8 119.29,-243.14"/>
<polygon fill="#63b8ff" stroke="#63b8ff" points="120.75,-239.94 110.16,-239.87 118.39,-246.53 120.75,-239.94"/>
</g>
<!-- Node7 -->
<g id="node7" class="node">
<title>Node7</title>
<g id="a_node7"><a xlink:href="JKRDisposer_8h.html" target="_top" xlink:title=" ">
<polygon fill="white" stroke="#666666" points="344,-239 186,-239 186,-220 344,-220 344,-239"/>
<text text-anchor="middle" x="265" y="-227" font-family="Helvetica,sans-Serif" font-size="10.00">JSystem/JKernel/JKRDisposer.h</text>
</a>
</g>
</g>
<!-- Node6&#45;&gt;Node7 -->
<g id="edge7" class="edge">
<title>Node6&#45;&gt;Node7</title>
<path fill="none" stroke="#63b8ff" d="M237.45,-274.75C241.77,-267.81 247.96,-257.86 253.38,-249.16"/>
<polygon fill="#63b8ff" stroke="#63b8ff" points="256.32,-251.07 258.63,-240.73 250.38,-247.37 256.32,-251.07"/>
</g>
<!-- Node8 -->
<g id="node8" class="node">
<title>Node8</title>
<g id="a_node8"><a xlink:href="OSMutex_8h.html" target="_top" xlink:title=" ">
<polygon fill="white" stroke="#666666" points="474,-239 362,-239 362,-220 474,-220 474,-239"/>
<text text-anchor="middle" x="418" y="-227" font-family="Helvetica,sans-Serif" font-size="10.00">dolphin/os/OSMutex.h</text>
</a>
</g>
</g>
<!-- Node6&#45;&gt;Node8 -->
<g id="edge9" class="edge">
<title>Node6&#45;&gt;Node8</title>
<path fill="none" stroke="#63b8ff" d="M263.55,-274.51C294.37,-265.73 341.5,-252.3 375.59,-242.59"/>
<polygon fill="#63b8ff" stroke="#63b8ff" points="376.49,-245.97 385.15,-239.86 374.57,-239.24 376.49,-245.97"/>
</g>
<!-- Node7&#45;&gt;Node3 -->
<g id="edge8" class="edge">
<title>Node7&#45;&gt;Node3</title>
<path fill="none" stroke="#63b8ff" d="M265,-219.75C265,-213.27 265,-204.16 265,-195.9"/>
<polygon fill="#63b8ff" stroke="#63b8ff" points="268.5,-195.96 265,-185.96 261.5,-195.96 268.5,-195.96"/>
</g>
<!-- Node9 -->
<g id="node9" class="node">
<title>Node9</title>
<g id="a_node9"><a xlink:href="OSThread_8h.html" target="_top" xlink:title=" ">
<polygon fill="white" stroke="#666666" points="473,-184 357,-184 357,-165 473,-165 473,-184"/>
<text text-anchor="middle" x="415" y="-172" font-family="Helvetica,sans-Serif" font-size="10.00">dolphin/os/OSThread.h</text>
</a>
</g>
</g>
<!-- Node8&#45;&gt;Node9 -->
<g id="edge10" class="edge">
<title>Node8&#45;&gt;Node9</title>
<path fill="none" stroke="#63b8ff" d="M417.5,-219.75C417.14,-213.27 416.62,-204.16 416.15,-195.9"/>
<polygon fill="#63b8ff" stroke="#63b8ff" points="419.65,-195.74 415.59,-185.95 412.66,-196.13 419.65,-195.74"/>
</g>
<!-- Node10 -->
<g id="node10" class="node">
<title>Node10</title>
<g id="a_node10"><a xlink:href="OSContext_8h.html" target="_top" xlink:title=" ">
<polygon fill="white" stroke="#666666" points="457.5,-129 338.5,-129 338.5,-110 457.5,-110 457.5,-129"/>
<text text-anchor="middle" x="398" y="-117" font-family="Helvetica,sans-Serif" font-size="10.00">dolphin/os/OSContext.h</text>
</a>
</g>
</g>
<!-- Node9&#45;&gt;Node10 -->
<g id="edge11" class="edge">
<title>Node9&#45;&gt;Node10</title>
<path fill="none" stroke="#63b8ff" d="M412.19,-164.75C410.06,-158.11 407.06,-148.73 404.36,-140.31"/>
<polygon fill="#63b8ff" stroke="#63b8ff" points="407.72,-139.34 401.33,-130.88 401.05,-141.47 407.72,-139.34"/>
</g>
<!-- Node10&#45;&gt;Node4 -->
<g id="edge12" class="edge">
<title>Node10&#45;&gt;Node4</title>
<path fill="none" stroke="#63b8ff" d="M387.99,-109.51C379.63,-102 367.5,-91.1 357.4,-82.03"/>
<polygon fill="#63b8ff" stroke="#63b8ff" points="359.76,-79.45 349.99,-75.37 355.09,-84.66 359.76,-79.45"/>
</g>
<!-- Node11&#45;&gt;Node7 -->
<g id="edge14" class="edge">
<title>Node11&#45;&gt;Node7</title>
<path fill="none" stroke="#63b8ff" d="M381.25,-274.51C358.69,-265.97 324.53,-253.03 299.06,-243.4"/>
<polygon fill="#63b8ff" stroke="#63b8ff" points="300.41,-240.16 289.81,-239.89 297.93,-246.71 300.41,-240.16"/>
</g>
<!-- Node11&#45;&gt;Node8 -->
<g id="edge15" class="edge">
<title>Node11&#45;&gt;Node8</title>
<path fill="none" stroke="#63b8ff" d="M407.15,-274.75C408.76,-268.19 411.02,-258.95 413.07,-250.6"/>
<polygon fill="#63b8ff" stroke="#63b8ff" points="416.46,-251.46 415.45,-240.91 409.66,-249.79 416.46,-251.46"/>
</g>
</g>
</svg>
