<?xml version="1.0" encoding="UTF-8" standalone="no"?>
<!DOCTYPE svg PUBLIC "-//W3C//DTD SVG 1.1//EN"
 "http://www.w3.org/Graphics/SVG/1.1/DTD/svg11.dtd">
<!-- Generated by graphviz version 7.0.5 (20221223.1930)
 -->
<!-- Title: include/JSystem/JKernel/JKRAram.h Pages: 1 -->
<!--zoomable 423 -->
<svg id="main" version="1.1" xmlns="http://www.w3.org/2000/svg" xmlns:xlink="http://www.w3.org/1999/xlink" xml:space="preserve" onload="init(evt)">
<style type="text/css"><![CDATA[
.edge:hover path { stroke: red; }
.edge:hover polygon { stroke: red; fill: red; }
]]></style>
<script type="text/javascript"><![CDATA[
var edges = document.getElementsByTagName('g');
if (edges && edges.length) {
  for (var i=0;i<edges.length;i++) {
    if (edges[i].id.substr(0,4)=='edge') {
      edges[i].setAttribute('class','edge');
    }
  }
}
]]></script>
        <defs>
                <circle id="rim" cx="0" cy="0" r="7"/>
                <circle id="rim2" cx="0" cy="0" r="3.5"/>
                <g id="zoomPlus">
                        <use xlink:href="#rim" fill="#404040">
                                <set attributeName="fill" to="#808080" begin="zoomplus.mouseover" end="zoomplus.mouseout"/>
                        </use>
                        <path d="M-4,0h8M0,-4v8" fill="none" stroke="white" stroke-width="1.5" pointer-events="none"/>
                </g>
                <g id="zoomMin">
                        <use xlink:href="#rim" fill="#404040">
                                <set attributeName="fill" to="#808080" begin="zoomminus.mouseover" end="zoomminus.mouseout"/>
                        </use>
                        <path d="M-4,0h8" fill="none" stroke="white" stroke-width="1.5" pointer-events="none"/>
                </g>
                <g id="dirArrow">
                        <path fill="none" stroke="white" stroke-width="1.5" d="M0,-3.0v7 M-2.5,-0.5L0,-3.0L2.5,-0.5"/>
                </g>
               <g id="resetDef">
                       <use xlink:href="#rim2" fill="#404040">
                               <set attributeName="fill" to="#808080" begin="reset.mouseover" end="reset.mouseout"/>
                       </use>
               </g>
        </defs>

<script type="text/javascript">
var viewWidth = 840;
var viewHeight = 423;
var sectionId = 'dynsection-0';
</script>
<script xlink:href="svgpan.js"/>
<svg id="graph" class="graph">
<g id="viewport">
<title>include/JSystem/JKernel/JKRAram.h</title>
<!-- Node1 -->
<g id="node1" class="node">
<title>Node1</title>
<g id="a_node1"><a xlink:title=" ">
<polygon fill="#999999" stroke="#666666" points="353.42,-415 228.42,-415 228.42,-385 353.42,-385 353.42,-415"/>
<text text-anchor="start" x="236.42" y="-403" font-family="Helvetica,sans-Serif" font-size="10.00">include/JSystem/JKernel</text>
<text text-anchor="middle" x="290.92" y="-392" font-family="Helvetica,sans-Serif" font-size="10.00">/JKRAram.h</text>
</a>
</g>
</g>
<!-- Node2 -->
<g id="node2" class="node">
<title>Node2</title>
<g id="a_node2"><a xlink:href="JKRAramHeap_8h.html" target="_top" xlink:title=" ">
<polygon fill="white" stroke="#666666" points="374.42,-294 207.42,-294 207.42,-275 374.42,-275 374.42,-294"/>
<text text-anchor="middle" x="290.92" y="-282" font-family="Helvetica,sans-Serif" font-size="10.00">JSystem/JKernel/JKRAramHeap.h</text>
</a>
</g>
</g>
<!-- Node1&#45;&gt;Node2 -->
<g id="edge1" class="edge">
<title>Node1&#45;&gt;Node2</title>
<path fill="none" stroke="#63b8ff" d="M290.92,-384.63C290.92,-364.59 290.92,-328.17 290.92,-305.49"/>
<polygon fill="#63b8ff" stroke="#63b8ff" points="294.42,-305.74 290.92,-295.74 287.42,-305.74 294.42,-305.74"/>
</g>
<!-- Node11 -->
<g id="node11" class="node">
<title>Node11</title>
<g id="a_node11"><a xlink:href="JKRDvdRipper_8h.html" target="_top" xlink:title=" ">
<polygon fill="white" stroke="#666666" points="183.42,-349 18.42,-349 18.42,-330 183.42,-330 183.42,-349"/>
<text text-anchor="middle" x="100.92" y="-337" font-family="Helvetica,sans-Serif" font-size="10.00">JSystem/JKernel/JKRDvdRipper.h</text>
</a>
</g>
</g>
<!-- Node1&#45;&gt;Node11 -->
<g id="edge12" class="edge">
<title>Node1&#45;&gt;Node11</title>
<path fill="none" stroke="#63b8ff" d="M243.95,-384.54C212.28,-374.79 170.95,-362.06 140.86,-352.8"/>
<polygon fill="#63b8ff" stroke="#63b8ff" points="141.96,-349.48 131.37,-349.88 139.9,-356.17 141.96,-349.48"/>
</g>
<!-- Node13 -->
<g id="node13" class="node">
<title>Node13</title>
<g id="a_node13"><a xlink:href="JKRThread_8h.html" target="_top" xlink:title=" ">
<polygon fill="white" stroke="#666666" points="638.92,-349 488.92,-349 488.92,-330 638.92,-330 638.92,-349"/>
<text text-anchor="middle" x="563.92" y="-337" font-family="Helvetica,sans-Serif" font-size="10.00">JSystem/JKernel/JKRThread.h</text>
</a>
</g>
</g>
<!-- Node1&#45;&gt;Node13 -->
<g id="edge15" class="edge">
<title>Node1&#45;&gt;Node13</title>
<path fill="none" stroke="#63b8ff" d="M353.89,-385.51C401.5,-375.3 466.13,-361.45 511.07,-351.82"/>
<polygon fill="#63b8ff" stroke="#63b8ff" points="511.52,-355.31 520.57,-349.79 510.06,-348.46 511.52,-355.31"/>
</g>
<!-- Node3 -->
<g id="node3" class="node">
<title>Node3</title>
<g id="a_node3"><a xlink:href="JKRAramBlock_8h.html" target="_top" xlink:title=" ">
<polygon fill="white" stroke="#666666" points="217.92,-239 49.92,-239 49.92,-220 217.92,-220 217.92,-239"/>
<text text-anchor="middle" x="133.92" y="-227" font-family="Helvetica,sans-Serif" font-size="10.00">JSystem/JKernel/JKRAramBlock.h</text>
</a>
</g>
</g>
<!-- Node2&#45;&gt;Node3 -->
<g id="edge2" class="edge">
<title>Node2&#45;&gt;Node3</title>
<path fill="none" stroke="#63b8ff" d="M264.28,-274.51C238.72,-265.88 199.87,-252.76 171.23,-243.1"/>
<polygon fill="#63b8ff" stroke="#63b8ff" points="172.44,-239.81 161.85,-239.93 170.21,-246.45 172.44,-239.81"/>
</g>
<!-- Node7 -->
<g id="node7" class="node">
<title>Node7</title>
<g id="a_node7"><a xlink:href="JKRDisposer_8h.html" target="_top" xlink:title=" ">
<polygon fill="white" stroke="#666666" points="393.92,-239 235.92,-239 235.92,-220 393.92,-220 393.92,-239"/>
<text text-anchor="middle" x="314.92" y="-227" font-family="Helvetica,sans-Serif" font-size="10.00">JSystem/JKernel/JKRDisposer.h</text>
</a>
</g>
</g>
<!-- Node2&#45;&gt;Node7 -->
<g id="edge6" class="edge">
<title>Node2&#45;&gt;Node7</title>
<path fill="none" stroke="#63b8ff" d="M294.88,-274.75C297.95,-267.96 302.33,-258.3 306.2,-249.73"/>
<polygon fill="#63b8ff" stroke="#63b8ff" points="309.3,-251.37 310.24,-240.82 302.93,-248.49 309.3,-251.37"/>
</g>
<!-- Node8 -->
<g id="node8" class="node">
<title>Node8</title>
<g id="a_node8"><a xlink:href="OSMutex_8h.html" target="_top" xlink:title=" ">
<polygon fill="white" stroke="#666666" points="523.92,-239 411.92,-239 411.92,-220 523.92,-220 523.92,-239"/>
<text text-anchor="middle" x="467.92" y="-227" font-family="Helvetica,sans-Serif" font-size="10.00">dolphin/os/OSMutex.h</text>
</a>
</g>
</g>
<!-- Node2&#45;&gt;Node8 -->
<g id="edge8" class="edge">
<title>Node2&#45;&gt;Node8</title>
<path fill="none" stroke="#63b8ff" d="M320.94,-274.51C350.14,-265.76 394.72,-252.42 427.13,-242.71"/>
<polygon fill="#63b8ff" stroke="#63b8ff" points="428.01,-246.1 436.59,-239.88 426,-239.4 428.01,-246.1"/>
</g>
<!-- Node4 -->
<g id="node4" class="node">
<title>Node4</title>
<g id="a_node4"><a xlink:href="JSUList_8h.html" target="_top" xlink:title=" ">
<polygon fill="white" stroke="#666666" points="296.42,-184 153.42,-184 153.42,-165 296.42,-165 296.42,-184"/>
<text text-anchor="middle" x="224.92" y="-172" font-family="Helvetica,sans-Serif" font-size="10.00">JSystem/JSupport/JSUList.h</text>
</a>
</g>
</g>
<!-- Node3&#45;&gt;Node4 -->
<g id="edge3" class="edge">
<title>Node3&#45;&gt;Node4</title>
<path fill="none" stroke="#63b8ff" d="M149.35,-219.51C163.16,-211.47 183.66,-199.53 199.82,-190.11"/>
<polygon fill="#63b8ff" stroke="#63b8ff" points="201.52,-193.18 208.4,-185.12 198,-187.13 201.52,-193.18"/>
</g>
<!-- Node5 -->
<g id="node5" class="node">
<title>Node5</title>
<g id="a_node5"><a xlink:href="types_8h.html" target="_top" xlink:title=" ">
<polygon fill="white" stroke="#666666" points="644.42,-74 563.42,-74 563.42,-55 644.42,-55 644.42,-74"/>
<text text-anchor="middle" x="603.92" y="-62" font-family="Helvetica,sans-Serif" font-size="10.00">dolphin/types.h</text>
</a>
</g>
</g>
<!-- Node4&#45;&gt;Node5 -->
<g id="edge4" class="edge">
<title>Node4&#45;&gt;Node5</title>
<path fill="none" stroke="#63b8ff" d="M256.25,-164.57C324.21,-145.21 485.15,-99.34 561.86,-77.49"/>
<polygon fill="#63b8ff" stroke="#63b8ff" points="562.43,-80.96 571.09,-74.86 560.51,-74.23 562.43,-80.96"/>
</g>
<!-- Node6 -->
<g id="node6" class="node">
<title>Node6</title>
<g id="a_node6"><a xlink:href="stddef_8h.html" target="_top" xlink:title=" ">
<polygon fill="white" stroke="#666666" points="629.42,-19 578.42,-19 578.42,0 629.42,0 629.42,-19"/>
<text text-anchor="middle" x="603.92" y="-7" font-family="Helvetica,sans-Serif" font-size="10.00">stddef.h</text>
</a>
</g>
</g>
<!-- Node5&#45;&gt;Node6 -->
<g id="edge5" class="edge">
<title>Node5&#45;&gt;Node6</title>
<path fill="none" stroke="#63b8ff" d="M603.92,-54.75C603.92,-48.27 603.92,-39.16 603.92,-30.9"/>
<polygon fill="#63b8ff" stroke="#63b8ff" points="607.42,-30.96 603.92,-20.96 600.42,-30.96 607.42,-30.96"/>
</g>
<!-- Node7&#45;&gt;Node4 -->
<g id="edge7" class="edge">
<title>Node7&#45;&gt;Node4</title>
<path fill="none" stroke="#63b8ff" d="M299.65,-219.51C285.99,-211.47 265.72,-199.53 249.73,-190.11"/>
<polygon fill="#63b8ff" stroke="#63b8ff" points="251.65,-187.18 241.26,-185.13 248.1,-193.22 251.65,-187.18"/>
</g>
<!-- Node9 -->
<g id="node9" class="node">
<title>Node9</title>
<g id="a_node9"><a xlink:href="OSThread_8h.html" target="_top" xlink:title=" ">
<polygon fill="white" stroke="#666666" points="705.92,-184 589.92,-184 589.92,-165 705.92,-165 705.92,-184"/>
<text text-anchor="middle" x="647.92" y="-172" font-family="Helvetica,sans-Serif" font-size="10.00">dolphin/os/OSThread.h</text>
</a>
</g>
</g>
<!-- Node8&#45;&gt;Node9 -->
<g id="edge9" class="edge">
<title>Node8&#45;&gt;Node9</title>
<path fill="none" stroke="#63b8ff" d="M498.45,-219.51C528.28,-210.73 573.88,-197.3 606.87,-187.59"/>
<polygon fill="#63b8ff" stroke="#63b8ff" points="607.48,-191.06 616.08,-184.87 605.5,-184.34 607.48,-191.06"/>
</g>
<!-- Node10 -->
<g id="node10" class="node">
<title>Node10</title>
<g id="a_node10"><a xlink:href="OSContext_8h.html" target="_top" xlink:title=" ">
<polygon fill="white" stroke="#666666" points="707.42,-129 588.42,-129 588.42,-110 707.42,-110 707.42,-129"/>
<text text-anchor="middle" x="647.92" y="-117" font-family="Helvetica,sans-Serif" font-size="10.00">dolphin/os/OSContext.h</text>
</a>
</g>
</g>
<!-- Node9&#45;&gt;Node10 -->
<g id="edge10" class="edge">
<title>Node9&#45;&gt;Node10</title>
<path fill="none" stroke="#63b8ff" d="M647.92,-164.75C647.92,-158.27 647.92,-149.16 647.92,-140.9"/>
<polygon fill="#63b8ff" stroke="#63b8ff" points="651.42,-140.96 647.92,-130.96 644.42,-140.96 651.42,-140.96"/>
</g>
<!-- Node10&#45;&gt;Node5 -->
<g id="edge11" class="edge">
<title>Node10&#45;&gt;Node5</title>
<path fill="none" stroke="#63b8ff" d="M640.65,-109.75C634.63,-102.5 625.9,-91.98 618.46,-83.02"/>
<polygon fill="#63b8ff" stroke="#63b8ff" points="621.39,-81.07 612.31,-75.61 616,-85.54 621.39,-81.07"/>
</g>
<!-- Node11&#45;&gt;Node4 -->
<g id="edge14" class="edge">
<title>Node11&#45;&gt;Node4</title>
<path fill="none" stroke="#63b8ff" d="M55.83,-329.56C36.06,-323.16 14.7,-312.3 2.92,-294 -1.66,-286.9 0.4,-283.06 2.92,-275 11.76,-246.64 16.42,-236.82 40.92,-220 70.49,-199.69 108.3,-188.61 141.94,-182.58"/>
<polygon fill="#63b8ff" stroke="#63b8ff" points="142.38,-186.06 151.68,-180.97 141.24,-179.15 142.38,-186.06"/>
</g>
<!-- Node12 -->
<g id="node12" class="node">
<title>Node12</title>
<g id="a_node12"><a xlink:href="JKRCompression_8h.html" target="_top" xlink:title=" ">
<polygon fill="white" stroke="#666666" points="189.42,-294 12.42,-294 12.42,-275 189.42,-275 189.42,-294"/>
<text text-anchor="middle" x="100.92" y="-282" font-family="Helvetica,sans-Serif" font-size="10.00">JSystem/JKernel/JKRCompression.h</text>
</a>
</g>
</g>
<!-- Node11&#45;&gt;Node12 -->
<g id="edge13" class="edge">
<title>Node11&#45;&gt;Node12</title>
<path fill="none" stroke="#63b8ff" d="M100.92,-329.75C100.92,-323.27 100.92,-314.16 100.92,-305.9"/>
<polygon fill="#63b8ff" stroke="#63b8ff" points="104.42,-305.96 100.92,-295.96 97.42,-305.96 104.42,-305.96"/>
</g>
<!-- Node13&#45;&gt;Node5 -->
<g id="edge23" class="edge">
<title>Node13&#45;&gt;Node5</title>
<path fill="none" stroke="#63b8ff" d="M563.21,-329.55C561.05,-298.45 555.99,-192.5 579.92,-110 582.54,-100.95 587.19,-91.66 591.7,-83.92"/>
<polygon fill="#63b8ff" stroke="#63b8ff" points="594.63,-85.84 596.95,-75.5 588.69,-82.13 594.63,-85.84"/>
</g>
<!-- Node14 -->
<g id="node14" class="node">
<title>Node14</title>
<g id="a_node14"><a xlink:href="JKRHeap_8h.html" target="_top" xlink:title=" ">
<polygon fill="white" stroke="#666666" points="535.42,-294 392.42,-294 392.42,-275 535.42,-275 535.42,-294"/>
<text text-anchor="middle" x="463.92" y="-282" font-family="Helvetica,sans-Serif" font-size="10.00">JSystem/JKernel/JKRHeap.h</text>
</a>
</g>
</g>
<!-- Node13&#45;&gt;Node14 -->
<g id="edge16" class="edge">
<title>Node13&#45;&gt;Node14</title>
<path fill="none" stroke="#63b8ff" d="M546.95,-329.51C531.56,-321.35 508.6,-309.19 490.73,-299.71"/>
<polygon fill="#63b8ff" stroke="#63b8ff" points="492.44,-296.66 481.97,-295.07 489.16,-302.84 492.44,-296.66"/>
</g>
<!-- Node15 -->
<g id="node15" class="node">
<title>Node15</title>
<g id="a_node15"><a xlink:href="OSMessage_8h.html" target="_top" xlink:title=" ">
<polygon fill="white" stroke="#666666" points="713.42,-239 588.42,-239 588.42,-220 713.42,-220 713.42,-239"/>
<text text-anchor="middle" x="650.92" y="-227" font-family="Helvetica,sans-Serif" font-size="10.00">dolphin/os/OSMessage.h</text>
</a>
</g>
</g>
<!-- Node13&#45;&gt;Node15 -->
<g id="edge19" class="edge">
<title>Node13&#45;&gt;Node15</title>
<path fill="none" stroke="#63b8ff" d="M571.03,-329.66C585.31,-311.94 617.67,-271.77 636.53,-248.35"/>
<polygon fill="#63b8ff" stroke="#63b8ff" points="639.2,-250.62 642.75,-240.64 633.75,-246.23 639.2,-250.62"/>
</g>
<!-- Node16 -->
<g id="node16" class="node">
<title>Node16</title>
<g id="a_node16"><a xlink:href="OSTime_8h.html" target="_top" xlink:title=" ">
<polygon fill="white" stroke="#666666" points="832.42,-129 725.42,-129 725.42,-110 832.42,-110 832.42,-129"/>
<text text-anchor="middle" x="778.92" y="-117" font-family="Helvetica,sans-Serif" font-size="10.00">dolphin/os/OSTime.h</text>
</a>
</g>
</g>
<!-- Node13&#45;&gt;Node16 -->
<g id="edge21" class="edge">
<title>Node13&#45;&gt;Node16</title>
<path fill="none" stroke="#63b8ff" d="M585.95,-329.59C619.44,-315.07 683.44,-283.42 722.92,-239 749.16,-209.46 765.57,-165.47 773.41,-140.22"/>
<polygon fill="#63b8ff" stroke="#63b8ff" points="776.76,-141.23 776.23,-130.65 770.05,-139.25 776.76,-141.23"/>
</g>
<!-- Node14&#45;&gt;Node7 -->
<g id="edge17" class="edge">
<title>Node14&#45;&gt;Node7</title>
<path fill="none" stroke="#63b8ff" d="M438.64,-274.51C414.41,-265.89 377.61,-252.8 350.44,-243.14"/>
<polygon fill="#63b8ff" stroke="#63b8ff" points="351.84,-239.92 341.24,-239.87 349.49,-246.51 351.84,-239.92"/>
</g>
<!-- Node14&#45;&gt;Node8 -->
<g id="edge18" class="edge">
<title>Node14&#45;&gt;Node8</title>
<path fill="none" stroke="#63b8ff" d="M464.58,-274.75C465.06,-268.27 465.75,-259.16 466.38,-250.9"/>
<polygon fill="#63b8ff" stroke="#63b8ff" points="469.86,-251.19 467.13,-240.95 462.88,-250.66 469.86,-251.19"/>
</g>
<!-- Node15&#45;&gt;Node9 -->
<g id="edge20" class="edge">
<title>Node15&#45;&gt;Node9</title>
<path fill="none" stroke="#63b8ff" d="M650.42,-219.75C650.05,-213.27 649.54,-204.16 649.07,-195.9"/>
<polygon fill="#63b8ff" stroke="#63b8ff" points="652.57,-195.74 648.51,-185.95 645.58,-196.13 652.57,-195.74"/>
</g>
<!-- Node16&#45;&gt;Node5 -->
<g id="edge22" class="edge">
<title>Node16&#45;&gt;Node5</title>
<path fill="none" stroke="#63b8ff" d="M749.23,-109.51C720.36,-100.76 676.28,-87.42 644.24,-77.71"/>
<polygon fill="#63b8ff" stroke="#63b8ff" points="645.49,-74.43 634.9,-74.88 643.46,-81.13 645.49,-74.43"/>
</g>
</g>
</svg>
        <g id="navigator" transform="translate(0 0)" fill="#404254">
                <rect fill="#f2f5e9" fill-opacity="0.5" stroke="#606060" stroke-width=".5" x="0" y="0" width="60" height="60"/>
                <use id="zoomplus" xlink:href="#zoomPlus" x="17" y="9" onmousedown="handleZoom(evt,'in')"/>
                <use id="zoomminus" xlink:href="#zoomMin" x="42" y="9" onmousedown="handleZoom(evt,'out')"/>
                <use id="reset" xlink:href="#resetDef" x="30" y="36" onmousedown="handleReset()"/>
                <g id="arrowUp" xlink:href="#dirArrow" transform="translate(30 24)" onmousedown="handlePan(0,-1)">
                  <use xlink:href="#rim" fill="#404040">
                        <set attributeName="fill" to="#808080" begin="arrowUp.mouseover" end="arrowUp.mouseout"/>
                  </use>
                  <path fill="none" stroke="white" stroke-width="1.5" d="M0,-3.0v7 M-2.5,-0.5L0,-3.0L2.5,-0.5"/>
                </g>
                <g id="arrowRight" xlink:href="#dirArrow" transform="rotate(90) translate(36 -43)" onmousedown="handlePan(1,0)">
                  <use xlink:href="#rim" fill="#404040">
                        <set attributeName="fill" to="#808080" begin="arrowRight.mouseover" end="arrowRight.mouseout"/>
                  </use>
                  <path fill="none" stroke="white" stroke-width="1.5" d="M0,-3.0v7 M-2.5,-0.5L0,-3.0L2.5,-0.5"/>
                </g>
                <g id="arrowDown" xlink:href="#dirArrow" transform="rotate(180) translate(-30 -48)" onmousedown="handlePan(0,1)">
                  <use xlink:href="#rim" fill="#404040">
                        <set attributeName="fill" to="#808080" begin="arrowDown.mouseover" end="arrowDown.mouseout"/>
                  </use>
                  <path fill="none" stroke="white" stroke-width="1.5" d="M0,-3.0v7 M-2.5,-0.5L0,-3.0L2.5,-0.5"/>
                </g>
                <g id="arrowLeft" xlink:href="#dirArrow" transform="rotate(270) translate(-36 17)" onmousedown="handlePan(-1,0)">
                  <use xlink:href="#rim" fill="#404040">
                        <set attributeName="fill" to="#808080" begin="arrowLeft.mouseover" end="arrowLeft.mouseout"/>
                  </use>
                  <path fill="none" stroke="white" stroke-width="1.5" d="M0,-3.0v7 M-2.5,-0.5L0,-3.0L2.5,-0.5"/>
                </g>
        </g>
        <svg viewBox="0 0 15 15" width="100%" height="30px" preserveAspectRatio="xMaxYMin meet">
         <g id="arrow_out" transform="scale(0.3 0.3)">
          <a xlink:href="JKRAram_8h__incl_org.svg" target="_base">
           <rect id="button" ry="5" rx="5" y="6" x="6" height="38" width="38"
                fill="#f2f5e9" fill-opacity="0.5" stroke="#606060" stroke-width="1.0"/>
           <path id="arrow"
             d="M 11.500037,31.436501 C 11.940474,20.09759 22.043105,11.32322 32.158766,21.979434 L 37.068811,17.246167 C 37.068811,17.246167 37.088388,32 37.088388,32 L 22.160133,31.978069 C 22.160133,31.978069 26.997745,27.140456 26.997745,27.140456 C 18.528582,18.264221 13.291696,25.230495 11.500037,31.436501 z"
             style="fill:#404040;"/>
          </a>
         </g>
        </svg>
</svg>
