<?xml version="1.0" encoding="UTF-8" standalone="no"?>
<!DOCTYPE svg PUBLIC "-//W3C//DTD SVG 1.1//EN"
 "http://www.w3.org/Graphics/SVG/1.1/DTD/svg11.dtd">
<!-- Generated by graphviz version 2.46.1 (20210215.1649)
 -->
<!-- Title: libs/JSystem/JKernel/JKRArchivePri.cpp Pages: 1 -->
<svg width="1118pt" height="676pt"
 viewBox="0.00 0.00 1118.20 676.00" xmlns="http://www.w3.org/2000/svg" xmlns:xlink="http://www.w3.org/1999/xlink">
<g id="graph0" class="graph" transform="scale(1 1) rotate(0) translate(4 672)">
<title>libs/JSystem/JKernel/JKRArchivePri.cpp</title>
<polygon fill="white" stroke="transparent" points="-4,4 -4,-672 1114.2,-672 1114.2,4 -4,4"/>
<!-- Node1 -->
<g id="node1" class="node">
<title>Node1</title>
<g id="a_node1"><a xlink:title=" ">
<polygon fill="#bfbfbf" stroke="black" points="848.5,-637.5 848.5,-667.5 957.5,-667.5 957.5,-637.5 848.5,-637.5"/>
<text text-anchor="start" x="856.5" y="-655.5" font-family="Helvetica,sans-Serif" font-size="10.00">libs/JSystem/JKernel</text>
<text text-anchor="middle" x="903" y="-644.5" font-family="Helvetica,sans-Serif" font-size="10.00">/JKRArchivePri.cpp</text>
</a>
</g>
</g>
<!-- Node2 -->
<g id="node2" class="node">
<title>Node2</title>
<g id="a_node2"><a xlink:href="JKRArchive_8h.html" target="_top" xlink:title=" ">
<polygon fill="white" stroke="black" points="197,-570.5 197,-600.5 343,-600.5 343,-570.5 197,-570.5"/>
<text text-anchor="start" x="205" y="-588.5" font-family="Helvetica,sans-Serif" font-size="10.00">JSystem/JKernel/JKRArchive</text>
<text text-anchor="middle" x="270" y="-577.5" font-family="Helvetica,sans-Serif" font-size="10.00">/JKRArchive.h</text>
</a>
</g>
</g>
<!-- Node1&#45;&gt;Node2 -->
<g id="edge1" class="edge">
<title>Node1&#45;&gt;Node2</title>
<path fill="none" stroke="midnightblue" d="M848.48,-645.9C737.49,-634.5 484.69,-608.55 353.09,-595.03"/>
<polygon fill="midnightblue" stroke="midnightblue" points="353.36,-591.54 343.05,-594 352.64,-598.5 353.36,-591.54"/>
</g>
<!-- Node10 -->
<g id="node10" class="node">
<title>Node10</title>
<g id="a_node10"><a xlink:href="global_8h.html" target="_top" xlink:title=" ">
<polygon fill="white" stroke="black" points="878,-380.5 878,-399.5 928,-399.5 928,-380.5 878,-380.5"/>
<text text-anchor="middle" x="903" y="-387.5" font-family="Helvetica,sans-Serif" font-size="10.00">global.h</text>
</a>
</g>
</g>
<!-- Node1&#45;&gt;Node10 -->
<g id="edge42" class="edge">
<title>Node1&#45;&gt;Node10</title>
<path fill="none" stroke="midnightblue" d="M903,-637.49C903,-593.76 903,-459.7 903,-409.89"/>
<polygon fill="midnightblue" stroke="midnightblue" points="906.5,-409.63 903,-399.63 899.5,-409.63 906.5,-409.63"/>
</g>
<!-- Node22 -->
<g id="node22" class="node">
<title>Node22</title>
<g id="a_node22"><a xlink:href="string_8h.html" target="_top" xlink:title=" ">
<polygon fill="white" stroke="black" points="1007.5,-509 1007.5,-528 1084.5,-528 1084.5,-509 1007.5,-509"/>
<text text-anchor="middle" x="1046" y="-516" font-family="Helvetica,sans-Serif" font-size="10.00">msl_c/string.h</text>
</a>
</g>
</g>
<!-- Node1&#45;&gt;Node22 -->
<g id="edge43" class="edge">
<title>Node1&#45;&gt;Node22</title>
<path fill="none" stroke="midnightblue" d="M918.3,-637.37C945.32,-612.43 1001.26,-560.8 1029.26,-534.95"/>
<polygon fill="midnightblue" stroke="midnightblue" points="1031.71,-537.45 1036.69,-528.1 1026.96,-532.31 1031.71,-537.45"/>
</g>
<!-- Node3 -->
<g id="node3" class="node">
<title>Node3</title>
<g id="a_node3"><a xlink:href="JKRDecomp_8h.html" target="_top" xlink:title=" ">
<polygon fill="white" stroke="black" points="195.5,-503.5 195.5,-533.5 344.5,-533.5 344.5,-503.5 195.5,-503.5"/>
<text text-anchor="start" x="203.5" y="-521.5" font-family="Helvetica,sans-Serif" font-size="10.00">JSystem/JKernel/JKRDecomp</text>
<text text-anchor="middle" x="270" y="-510.5" font-family="Helvetica,sans-Serif" font-size="10.00">/JKRDecomp.h</text>
</a>
</g>
</g>
<!-- Node2&#45;&gt;Node3 -->
<g id="edge2" class="edge">
<title>Node2&#45;&gt;Node3</title>
<path fill="none" stroke="midnightblue" d="M270,-570.4C270,-562.64 270,-552.81 270,-543.86"/>
<polygon fill="midnightblue" stroke="midnightblue" points="273.5,-543.58 270,-533.58 266.5,-543.58 273.5,-543.58"/>
</g>
<!-- Node5 -->
<g id="node5" class="node">
<title>Node5</title>
<g id="a_node5"><a xlink:href="SArc_8h.html" target="_top" xlink:title=" ">
<polygon fill="white" stroke="black" points="66.5,-380.5 66.5,-399.5 189.5,-399.5 189.5,-380.5 66.5,-380.5"/>
<text text-anchor="middle" x="128" y="-387.5" font-family="Helvetica,sans-Serif" font-size="10.00">JSystem/JKernel/SArc.h</text>
</a>
</g>
</g>
<!-- Node2&#45;&gt;Node5 -->
<g id="edge40" class="edge">
<title>Node2&#45;&gt;Node5</title>
<path fill="none" stroke="midnightblue" d="M212.24,-570.39C161.35,-554.55 90.28,-523.37 57,-467 50,-455.14 50.36,-448.07 57,-436 64.89,-421.66 79.49,-411.25 93.4,-404.08"/>
<polygon fill="midnightblue" stroke="midnightblue" points="95.29,-407.06 102.84,-399.62 92.3,-400.73 95.29,-407.06"/>
</g>
<!-- Node6 -->
<g id="node6" class="node">
<title>Node6</title>
<g id="a_node6"><a xlink:href="types_8h.html" target="_top" xlink:title=" ">
<polygon fill="white" stroke="black" points="643.5,-0.5 643.5,-19.5 724.5,-19.5 724.5,-0.5 643.5,-0.5"/>
<text text-anchor="middle" x="684" y="-7.5" font-family="Helvetica,sans-Serif" font-size="10.00">dolphin/types.h</text>
</a>
</g>
</g>
<!-- Node2&#45;&gt;Node6 -->
<g id="edge41" class="edge">
<title>Node2&#45;&gt;Node6</title>
<path fill="none" stroke="midnightblue" d="M196.93,-579.59C116.97,-569.79 0,-540.42 0,-452.5 0,-452.5 0,-452.5 0,-137.5 0,-56.5 85.05,-77.99 163,-56 250.49,-31.32 519.89,-17.72 633.08,-12.96"/>
<polygon fill="midnightblue" stroke="midnightblue" points="633.37,-16.45 643.21,-12.54 633.08,-9.46 633.37,-16.45"/>
</g>
<!-- Node21 -->
<g id="node21" class="node">
<title>Node21</title>
<g id="a_node21"><a xlink:href="JKRFileLoader_8h.html" target="_top" xlink:title=" ">
<polygon fill="white" stroke="black" points="322,-190.5 322,-220.5 480,-220.5 480,-190.5 322,-190.5"/>
<text text-anchor="start" x="330" y="-208.5" font-family="Helvetica,sans-Serif" font-size="10.00">JSystem/JKernel/JKRFileLoader</text>
<text text-anchor="middle" x="401" y="-197.5" font-family="Helvetica,sans-Serif" font-size="10.00">/JKRFileLoader.h</text>
</a>
</g>
</g>
<!-- Node2&#45;&gt;Node21 -->
<g id="edge37" class="edge">
<title>Node2&#45;&gt;Node21</title>
<path fill="none" stroke="midnightblue" d="M334.38,-570.5C392.85,-553.55 470,-518.65 470,-452.5 470,-452.5 470,-452.5 470,-333 470,-292.27 442.09,-252.18 421.78,-228.4"/>
<polygon fill="midnightblue" stroke="midnightblue" points="424.21,-225.86 414.96,-220.69 418.96,-230.5 424.21,-225.86"/>
</g>
<!-- Node4 -->
<g id="node4" class="node">
<title>Node4</title>
<g id="a_node4"><a xlink:href="JKRCompression_8h.html" target="_top" xlink:title=" ">
<polygon fill="white" stroke="black" points="65.5,-442 65.5,-461 242.5,-461 242.5,-442 65.5,-442"/>
<text text-anchor="middle" x="154" y="-449" font-family="Helvetica,sans-Serif" font-size="10.00">JSystem/JKernel/JKRCompression.h</text>
</a>
</g>
</g>
<!-- Node3&#45;&gt;Node4 -->
<g id="edge3" class="edge">
<title>Node3&#45;&gt;Node4</title>
<path fill="none" stroke="midnightblue" d="M244.83,-503.4C225.02,-492.29 197.58,-476.92 178.06,-465.98"/>
<polygon fill="midnightblue" stroke="midnightblue" points="179.62,-462.84 169.18,-461.01 176.19,-468.95 179.62,-462.84"/>
</g>
<!-- Node3&#45;&gt;Node6 -->
<g id="edge36" class="edge">
<title>Node3&#45;&gt;Node6</title>
<path fill="none" stroke="midnightblue" d="M268.17,-503.33C264.37,-472.68 256,-397.92 256,-335 256,-335 256,-335 256,-137.5 256,-93.04 275.79,-78.73 314,-56 366.83,-24.57 545.01,-15.01 633.41,-12.16"/>
<polygon fill="midnightblue" stroke="midnightblue" points="633.58,-15.66 643.47,-11.86 633.37,-8.66 633.58,-15.66"/>
</g>
<!-- Node7 -->
<g id="node7" class="node">
<title>Node7</title>
<g id="a_node7"><a xlink:href="JKRThread_8h.html" target="_top" xlink:title=" ">
<polygon fill="white" stroke="black" points="298.5,-436.5 298.5,-466.5 441.5,-466.5 441.5,-436.5 298.5,-436.5"/>
<text text-anchor="start" x="306.5" y="-454.5" font-family="Helvetica,sans-Serif" font-size="10.00">JSystem/JKernel/JKRThread</text>
<text text-anchor="middle" x="370" y="-443.5" font-family="Helvetica,sans-Serif" font-size="10.00">/JKRThread.h</text>
</a>
</g>
</g>
<!-- Node3&#45;&gt;Node7 -->
<g id="edge7" class="edge">
<title>Node3&#45;&gt;Node7</title>
<path fill="none" stroke="midnightblue" d="M291.7,-503.4C305.72,-494.28 324.17,-482.29 339.64,-472.24"/>
<polygon fill="midnightblue" stroke="midnightblue" points="341.87,-474.96 348.34,-466.58 338.05,-469.09 341.87,-474.96"/>
</g>
<!-- Node4&#45;&gt;Node5 -->
<g id="edge4" class="edge">
<title>Node4&#45;&gt;Node5</title>
<path fill="none" stroke="midnightblue" d="M150.27,-441.98C146.53,-433.4 140.64,-419.93 135.86,-408.98"/>
<polygon fill="midnightblue" stroke="midnightblue" points="138.93,-407.27 131.72,-399.51 132.52,-410.07 138.93,-407.27"/>
</g>
<!-- Node4&#45;&gt;Node6 -->
<g id="edge6" class="edge">
<title>Node4&#45;&gt;Node6</title>
<path fill="none" stroke="midnightblue" d="M164.02,-441.8C174.21,-432.44 189.78,-416.64 199,-400 213.59,-373.68 218,-365.1 218,-335 218,-335 218,-335 218,-137.5 218,-99.74 212.95,-80.12 242,-56 271.57,-31.45 523.04,-17.85 632.94,-13.03"/>
<polygon fill="midnightblue" stroke="midnightblue" points="633.28,-16.52 643.12,-12.59 632.98,-9.53 633.28,-16.52"/>
</g>
<!-- Node5&#45;&gt;Node6 -->
<g id="edge5" class="edge">
<title>Node5&#45;&gt;Node6</title>
<path fill="none" stroke="midnightblue" d="M131.29,-380.46C138.29,-361.51 154,-314.4 154,-273.5 154,-273.5 154,-273.5 154,-137.5 154,-95 167.93,-78.46 204,-56 274.63,-12.01 525.11,-9.21 633.45,-10.15"/>
<polygon fill="midnightblue" stroke="midnightblue" points="633.45,-13.65 643.48,-10.25 633.52,-6.65 633.45,-13.65"/>
</g>
<!-- Node7&#45;&gt;Node6 -->
<g id="edge12" class="edge">
<title>Node7&#45;&gt;Node6</title>
<path fill="none" stroke="midnightblue" d="M352.75,-436.43C330.33,-416.44 294,-377.49 294,-335 294,-335 294,-335 294,-137.5 294,-85.16 332,-79.02 379,-56 422.73,-34.58 558.36,-20.88 633.17,-14.74"/>
<polygon fill="midnightblue" stroke="midnightblue" points="633.62,-18.22 643.31,-13.93 633.06,-11.24 633.62,-18.22"/>
</g>
<!-- Node8 -->
<g id="node8" class="node">
<title>Node8</title>
<g id="a_node8"><a xlink:href="JKRDisposer_8h.html" target="_top" xlink:title=" ">
<polygon fill="white" stroke="black" points="366.5,-123.5 366.5,-153.5 517.5,-153.5 517.5,-123.5 366.5,-123.5"/>
<text text-anchor="start" x="374.5" y="-141.5" font-family="Helvetica,sans-Serif" font-size="10.00">JSystem/JKernel/JKRDisposer</text>
<text text-anchor="middle" x="442" y="-130.5" font-family="Helvetica,sans-Serif" font-size="10.00">/JKRDisposer.h</text>
</a>
</g>
</g>
<!-- Node7&#45;&gt;Node8 -->
<g id="edge8" class="edge">
<title>Node7&#45;&gt;Node8</title>
<path fill="none" stroke="midnightblue" d="M380.41,-436.44C405.24,-401.96 467.42,-309.52 489,-221 492.26,-207.61 494.04,-202.82 489,-190 484.64,-178.91 476.56,-168.81 468.32,-160.6"/>
<polygon fill="midnightblue" stroke="midnightblue" points="470.52,-157.87 460.81,-153.63 465.76,-163 470.52,-157.87"/>
</g>
<!-- Node7&#45;&gt;Node10 -->
<g id="edge13" class="edge">
<title>Node7&#45;&gt;Node10</title>
<path fill="none" stroke="midnightblue" d="M441.61,-442.51C557.3,-429.59 781.11,-404.61 867.65,-394.95"/>
<polygon fill="midnightblue" stroke="midnightblue" points="868.19,-398.41 877.74,-393.82 867.41,-391.45 868.19,-398.41"/>
</g>
<!-- Node8&#45;&gt;Node6 -->
<g id="edge11" class="edge">
<title>Node8&#45;&gt;Node6</title>
<path fill="none" stroke="midnightblue" d="M441.02,-123.19C440.6,-104.93 442.86,-73.61 461,-56 485.06,-32.65 575.32,-20.47 633.37,-14.93"/>
<polygon fill="midnightblue" stroke="midnightblue" points="633.81,-18.4 643.45,-14 633.17,-11.43 633.81,-18.4"/>
</g>
<!-- Node9 -->
<g id="node9" class="node">
<title>Node9</title>
<g id="a_node9"><a xlink:href="JSUList_8h.html" target="_top" xlink:title=" ">
<polygon fill="white" stroke="black" points="470,-56.5 470,-86.5 606,-86.5 606,-56.5 470,-56.5"/>
<text text-anchor="start" x="478" y="-74.5" font-family="Helvetica,sans-Serif" font-size="10.00">JSystem/JSupport/JSUList</text>
<text text-anchor="middle" x="538" y="-63.5" font-family="Helvetica,sans-Serif" font-size="10.00">/JSUList.h</text>
</a>
</g>
</g>
<!-- Node8&#45;&gt;Node9 -->
<g id="edge9" class="edge">
<title>Node8&#45;&gt;Node9</title>
<path fill="none" stroke="midnightblue" d="M462.83,-123.4C476.29,-114.28 494,-102.29 508.85,-92.24"/>
<polygon fill="midnightblue" stroke="midnightblue" points="510.89,-95.08 517.21,-86.58 506.97,-89.28 510.89,-95.08"/>
</g>
<!-- Node9&#45;&gt;Node6 -->
<g id="edge10" class="edge">
<title>Node9&#45;&gt;Node6</title>
<path fill="none" stroke="midnightblue" d="M572.6,-56.4C597.1,-46.42 629.66,-33.15 653.25,-23.53"/>
<polygon fill="midnightblue" stroke="midnightblue" points="654.82,-26.67 662.76,-19.66 652.17,-20.19 654.82,-26.67"/>
</g>
<!-- Node10&#45;&gt;Node6 -->
<g id="edge14" class="edge">
<title>Node10&#45;&gt;Node6</title>
<path fill="none" stroke="midnightblue" d="M901.85,-380.26C895.42,-332.51 862.32,-103.64 813,-56 791.82,-35.54 760.85,-24.34 734.56,-18.23"/>
<polygon fill="midnightblue" stroke="midnightblue" points="735.26,-14.8 724.75,-16.13 733.79,-21.65 735.26,-14.8"/>
</g>
<!-- Node11 -->
<g id="node11" class="node">
<title>Node11</title>
<g id="a_node11"><a xlink:href="AR_8h.html" target="_top" xlink:title=" ">
<polygon fill="white" stroke="black" points="895.5,-129 895.5,-148 944.5,-148 944.5,-129 895.5,-129"/>
<text text-anchor="middle" x="920" y="-136" font-family="Helvetica,sans-Serif" font-size="10.00">ar/AR.h</text>
</a>
</g>
</g>
<!-- Node10&#45;&gt;Node11 -->
<g id="edge15" class="edge">
<title>Node10&#45;&gt;Node11</title>
<path fill="none" stroke="midnightblue" d="M903.59,-380.41C906.01,-344.8 915.32,-208.25 918.73,-158.11"/>
<polygon fill="midnightblue" stroke="midnightblue" points="922.23,-158.27 919.42,-148.05 915.25,-157.79 922.23,-158.27"/>
</g>
<!-- Node12 -->
<g id="node12" class="node">
<title>Node12</title>
<g id="a_node12"><a xlink:href="ARQ_8h.html" target="_top" xlink:title=" ">
<polygon fill="white" stroke="black" points="950,-263 950,-282 1006,-282 1006,-263 950,-263"/>
<text text-anchor="middle" x="978" y="-270" font-family="Helvetica,sans-Serif" font-size="10.00">ar/ARQ.h</text>
</a>
</g>
</g>
<!-- Node10&#45;&gt;Node12 -->
<g id="edge17" class="edge">
<title>Node10&#45;&gt;Node12</title>
<path fill="none" stroke="midnightblue" d="M909.83,-380.21C916.69,-371.27 927.44,-356.92 936,-344 947.63,-326.44 959.84,-305.64 968.08,-291.21"/>
<polygon fill="midnightblue" stroke="midnightblue" points="971.21,-292.77 973.09,-282.35 965.12,-289.33 971.21,-292.77"/>
</g>
<!-- Node13 -->
<g id="node13" class="node">
<title>Node13</title>
<g id="a_node13"><a xlink:href="mwcc_8h.html" target="_top" xlink:title=" ">
<polygon fill="white" stroke="black" points="988,-324.5 988,-343.5 1038,-343.5 1038,-324.5 988,-324.5"/>
<text text-anchor="middle" x="1013" y="-331.5" font-family="Helvetica,sans-Serif" font-size="10.00">mwcc.h</text>
</a>
</g>
</g>
<!-- Node10&#45;&gt;Node13 -->
<g id="edge19" class="edge">
<title>Node10&#45;&gt;Node13</title>
<path fill="none" stroke="midnightblue" d="M920.67,-380.32C938.39,-371.62 965.9,-358.12 986.29,-348.11"/>
<polygon fill="midnightblue" stroke="midnightblue" points="987.94,-351.2 995.37,-343.65 984.85,-344.92 987.94,-351.2"/>
</g>
<!-- Node14 -->
<g id="node14" class="node">
<title>Node14</title>
<g id="a_node14"><a xlink:href="OS_8h.html" target="_top" xlink:title=" ">
<polygon fill="white" stroke="black" points="1024,-129 1024,-148 1076,-148 1076,-129 1024,-129"/>
<text text-anchor="middle" x="1050" y="-136" font-family="Helvetica,sans-Serif" font-size="10.00">os/OS.h</text>
</a>
</g>
</g>
<!-- Node10&#45;&gt;Node14 -->
<g id="edge20" class="edge">
<title>Node10&#45;&gt;Node14</title>
<path fill="none" stroke="midnightblue" d="M928.04,-389.39C961.37,-388.4 1019.34,-381.04 1047,-344 1088.76,-288.06 1068.15,-197.44 1056.34,-158.39"/>
<polygon fill="midnightblue" stroke="midnightblue" points="1059.53,-156.88 1053.16,-148.42 1052.86,-159.01 1059.53,-156.88"/>
</g>
<!-- Node16 -->
<g id="node16" class="node">
<title>Node16</title>
<g id="a_node16"><a xlink:href="variables_8h.html" target="_top" xlink:title=" ">
<polygon fill="white" stroke="black" points="570.5,-324.5 570.5,-343.5 633.5,-343.5 633.5,-324.5 570.5,-324.5"/>
<text text-anchor="middle" x="602" y="-331.5" font-family="Helvetica,sans-Serif" font-size="10.00">variables.h</text>
</a>
</g>
</g>
<!-- Node10&#45;&gt;Node16 -->
<g id="edge24" class="edge">
<title>Node10&#45;&gt;Node16</title>
<path fill="none" stroke="midnightblue" d="M877.85,-384.49C826.06,-375.2 707.02,-353.84 643.58,-342.46"/>
<polygon fill="midnightblue" stroke="midnightblue" points="643.98,-338.98 633.52,-340.65 642.75,-345.87 643.98,-338.98"/>
</g>
<!-- Node11&#45;&gt;Node6 -->
<g id="edge16" class="edge">
<title>Node11&#45;&gt;Node6</title>
<path fill="none" stroke="midnightblue" d="M918.43,-128.82C914.91,-112.01 904.77,-75 881,-56 839.4,-22.73 777.85,-13.1 734.65,-10.77"/>
<polygon fill="midnightblue" stroke="midnightblue" points="734.77,-7.27 724.63,-10.34 734.47,-14.26 734.77,-7.27"/>
</g>
<!-- Node12&#45;&gt;Node6 -->
<g id="edge18" class="edge">
<title>Node12&#45;&gt;Node6</title>
<path fill="none" stroke="midnightblue" d="M978.45,-262.71C979.66,-228.42 978.85,-103.16 906,-56 854.18,-22.45 782.43,-13.12 734.69,-10.93"/>
<polygon fill="midnightblue" stroke="midnightblue" points="734.7,-7.43 724.58,-10.56 734.45,-14.42 734.7,-7.43"/>
</g>
<!-- Node14&#45;&gt;Node6 -->
<g id="edge21" class="edge">
<title>Node14&#45;&gt;Node6</title>
<path fill="none" stroke="midnightblue" d="M1044.2,-128.84C1032.21,-111.73 1002.9,-73.72 968,-56 928.12,-35.75 804.93,-21.8 734.59,-15.25"/>
<polygon fill="midnightblue" stroke="midnightblue" points="734.89,-11.77 724.61,-14.34 734.25,-18.74 734.89,-11.77"/>
</g>
<!-- Node15 -->
<g id="node15" class="node">
<title>Node15</title>
<g id="a_node15"><a xlink:href="dvd_8h.html" target="_top" xlink:title=" ">
<polygon fill="white" stroke="black" points="1020.5,-62 1020.5,-81 1079.5,-81 1079.5,-62 1020.5,-62"/>
<text text-anchor="middle" x="1050" y="-69" font-family="Helvetica,sans-Serif" font-size="10.00">dvd/dvd.h</text>
</a>
</g>
</g>
<!-- Node14&#45;&gt;Node15 -->
<g id="edge22" class="edge">
<title>Node14&#45;&gt;Node15</title>
<path fill="none" stroke="midnightblue" d="M1050,-128.73C1050,-119.18 1050,-103.62 1050,-91.28"/>
<polygon fill="midnightblue" stroke="midnightblue" points="1053.5,-91.13 1050,-81.13 1046.5,-91.13 1053.5,-91.13"/>
</g>
<!-- Node15&#45;&gt;Node6 -->
<g id="edge23" class="edge">
<title>Node15&#45;&gt;Node6</title>
<path fill="none" stroke="midnightblue" d="M1026.47,-61.88C1019.91,-59.72 1012.74,-57.57 1006,-56 911.48,-34.01 798.68,-21.26 734.79,-15.26"/>
<polygon fill="midnightblue" stroke="midnightblue" points="734.87,-11.75 724.59,-14.32 734.22,-18.72 734.87,-11.75"/>
</g>
<!-- Node16&#45;&gt;Node9 -->
<g id="edge25" class="edge">
<title>Node16&#45;&gt;Node9</title>
<path fill="none" stroke="midnightblue" d="M599.87,-324.33C591.11,-288.66 557.64,-152.45 543.92,-96.6"/>
<polygon fill="midnightblue" stroke="midnightblue" points="547.24,-95.43 541.45,-86.56 540.44,-97.1 547.24,-95.43"/>
</g>
<!-- Node17 -->
<g id="node17" class="node">
<title>Node17</title>
<g id="a_node17"><a xlink:href="JUTXfb_8h.html" target="_top" xlink:title=" ">
<polygon fill="white" stroke="black" points="712.5,-257.5 712.5,-287.5 837.5,-287.5 837.5,-257.5 712.5,-257.5"/>
<text text-anchor="start" x="720.5" y="-275.5" font-family="Helvetica,sans-Serif" font-size="10.00">JSystem/JUtility/JUTXfb</text>
<text text-anchor="middle" x="775" y="-264.5" font-family="Helvetica,sans-Serif" font-size="10.00">/JUTXfb.h</text>
</a>
</g>
</g>
<!-- Node16&#45;&gt;Node17 -->
<g id="edge26" class="edge">
<title>Node16&#45;&gt;Node17</title>
<path fill="none" stroke="midnightblue" d="M626.79,-324.48C652.19,-315.74 692.4,-301.91 724.54,-290.86"/>
<polygon fill="midnightblue" stroke="midnightblue" points="725.91,-294.09 734.23,-287.52 723.63,-287.47 725.91,-294.09"/>
</g>
<!-- Node20 -->
<g id="node20" class="node">
<title>Node20</title>
<g id="a_node20"><a xlink:href="mtx__vec_8h.html" target="_top" xlink:title=" ">
<polygon fill="white" stroke="black" points="624.5,-62 624.5,-81 685.5,-81 685.5,-62 624.5,-62"/>
<text text-anchor="middle" x="655" y="-69" font-family="Helvetica,sans-Serif" font-size="10.00">mtx_vec.h</text>
</a>
</g>
</g>
<!-- Node16&#45;&gt;Node20 -->
<g id="edge34" class="edge">
<title>Node16&#45;&gt;Node20</title>
<path fill="none" stroke="midnightblue" d="M600.87,-324.49C598.15,-302.13 592.25,-240 603,-190 611.09,-152.38 631.88,-112.12 644.59,-89.85"/>
<polygon fill="midnightblue" stroke="midnightblue" points="647.61,-91.61 649.63,-81.21 641.57,-88.08 647.61,-91.61"/>
</g>
<!-- Node17&#45;&gt;Node6 -->
<g id="edge31" class="edge">
<title>Node17&#45;&gt;Node6</title>
<path fill="none" stroke="midnightblue" d="M772.42,-257.23C769.32,-240.85 763.7,-213.25 757,-190 739.48,-129.21 735.11,-113.62 709,-56 704.76,-46.64 699.28,-36.61 694.54,-28.4"/>
<polygon fill="midnightblue" stroke="midnightblue" points="697.52,-26.57 689.42,-19.74 691.5,-30.13 697.52,-26.57"/>
</g>
<!-- Node18 -->
<g id="node18" class="node">
<title>Node18</title>
<g id="a_node18"><a xlink:href="JKRHeap_8h.html" target="_top" xlink:title=" ">
<polygon fill="white" stroke="black" points="612,-190.5 612,-220.5 748,-220.5 748,-190.5 612,-190.5"/>
<text text-anchor="start" x="620" y="-208.5" font-family="Helvetica,sans-Serif" font-size="10.00">JSystem/JKernel/JKRHeap</text>
<text text-anchor="middle" x="680" y="-197.5" font-family="Helvetica,sans-Serif" font-size="10.00">/JKRHeap.h</text>
</a>
</g>
</g>
<!-- Node17&#45;&gt;Node18 -->
<g id="edge27" class="edge">
<title>Node17&#45;&gt;Node18</title>
<path fill="none" stroke="midnightblue" d="M754.39,-257.4C741.07,-248.28 723.54,-236.29 708.84,-226.24"/>
<polygon fill="midnightblue" stroke="midnightblue" points="710.8,-223.33 700.57,-220.58 706.85,-229.11 710.8,-223.33"/>
</g>
<!-- Node19 -->
<g id="node19" class="node">
<title>Node19</title>
<g id="a_node19"><a xlink:href="GX_8h.html" target="_top" xlink:title=" ">
<polygon fill="white" stroke="black" points="804.5,-196 804.5,-215 855.5,-215 855.5,-196 804.5,-196"/>
<text text-anchor="middle" x="830" y="-203" font-family="Helvetica,sans-Serif" font-size="10.00">gx/GX.h</text>
</a>
</g>
</g>
<!-- Node17&#45;&gt;Node19 -->
<g id="edge32" class="edge">
<title>Node17&#45;&gt;Node19</title>
<path fill="none" stroke="midnightblue" d="M786.93,-257.4C795.51,-247.26 807.1,-233.57 816.09,-222.94"/>
<polygon fill="midnightblue" stroke="midnightblue" points="818.86,-225.09 822.64,-215.19 813.51,-220.57 818.86,-225.09"/>
</g>
<!-- Node18&#45;&gt;Node6 -->
<g id="edge29" class="edge">
<title>Node18&#45;&gt;Node6</title>
<path fill="none" stroke="midnightblue" d="M683.55,-190.14C689.66,-163.62 700.92,-105.14 695,-56 693.93,-47.11 691.71,-37.43 689.54,-29.34"/>
<polygon fill="midnightblue" stroke="midnightblue" points="692.84,-28.17 686.73,-19.51 686.11,-30.09 692.84,-28.17"/>
</g>
<!-- Node18&#45;&gt;Node8 -->
<g id="edge28" class="edge">
<title>Node18&#45;&gt;Node8</title>
<path fill="none" stroke="midnightblue" d="M628.65,-190.48C592.02,-180.47 542.59,-166.97 503.8,-156.38"/>
<polygon fill="midnightblue" stroke="midnightblue" points="504.24,-152.87 493.67,-153.61 502.39,-159.62 504.24,-152.87"/>
</g>
<!-- Node18&#45;&gt;Node10 -->
<g id="edge30" class="edge">
<title>Node18&#45;&gt;Node10</title>
<path fill="none" stroke="midnightblue" d="M680.82,-220.77C682.52,-238.41 687.78,-268.49 704,-288 747.09,-339.82 823.5,-367.85 868.06,-380.49"/>
<polygon fill="midnightblue" stroke="midnightblue" points="867.29,-383.91 877.86,-383.17 869.14,-377.16 867.29,-383.91"/>
</g>
<!-- Node19&#45;&gt;Node6 -->
<g id="edge33" class="edge">
<title>Node19&#45;&gt;Node6</title>
<path fill="none" stroke="midnightblue" d="M830.16,-195.94C830.15,-171.13 826.81,-98.29 790,-56 775.62,-39.48 754.13,-28.85 734.25,-22.11"/>
<polygon fill="midnightblue" stroke="midnightblue" points="735.25,-18.75 724.66,-19.1 733.15,-25.43 735.25,-18.75"/>
</g>
<!-- Node20&#45;&gt;Node6 -->
<g id="edge35" class="edge">
<title>Node20&#45;&gt;Node6</title>
<path fill="none" stroke="midnightblue" d="M659.15,-61.98C663.38,-53.32 670.04,-39.65 675.4,-28.65"/>
<polygon fill="midnightblue" stroke="midnightblue" points="678.62,-30.03 679.85,-19.51 672.33,-26.96 678.62,-30.03"/>
</g>
<!-- Node21&#45;&gt;Node6 -->
<g id="edge39" class="edge">
<title>Node21&#45;&gt;Node6</title>
<path fill="none" stroke="midnightblue" d="M384.2,-190.47C374.52,-181.24 363.25,-168.26 358,-154 353.24,-141.07 352.06,-135.43 358,-123 378.44,-80.23 397.93,-75.81 441,-56 503.36,-27.32 582.68,-16.91 633.4,-13.14"/>
<polygon fill="midnightblue" stroke="midnightblue" points="633.73,-16.62 643.47,-12.45 633.25,-9.64 633.73,-16.62"/>
</g>
<!-- Node21&#45;&gt;Node8 -->
<g id="edge38" class="edge">
<title>Node21&#45;&gt;Node8</title>
<path fill="none" stroke="midnightblue" d="M409.9,-190.4C415.11,-182.13 421.81,-171.51 427.74,-162.1"/>
<polygon fill="midnightblue" stroke="midnightblue" points="430.75,-163.9 433.12,-153.58 424.83,-160.17 430.75,-163.9"/>
</g>
<!-- Node22&#45;&gt;Node6 -->
<g id="edge44" class="edge">
<title>Node22&#45;&gt;Node6</title>
<path fill="none" stroke="midnightblue" d="M1053.85,-508.72C1070.54,-489.11 1108,-439.67 1108,-391 1108,-391 1108,-391 1108,-137.5 1108,-100.31 1116.81,-80.7 1089,-56 1062.98,-32.89 837.75,-18.72 734.87,-13.4"/>
<polygon fill="midnightblue" stroke="midnightblue" points="734.88,-9.9 724.72,-12.89 734.53,-16.89 734.88,-9.9"/>
</g>
</g>
</svg>
