<?xml version="1.0" encoding="UTF-8" standalone="no"?>
<!DOCTYPE svg PUBLIC "-//W3C//DTD SVG 1.1//EN"
 "http://www.w3.org/Graphics/SVG/1.1/DTD/svg11.dtd">
<!-- Generated by graphviz version 7.0.5 (20221223.1930)
 -->
<!-- Title: include/JSystem/JKernel/JKRDvdRipper.h Pages: 1 -->
<!--zoomable 170 -->
<svg id="main" version="1.1" xmlns="http://www.w3.org/2000/svg" xmlns:xlink="http://www.w3.org/1999/xlink" xml:space="preserve" onload="init(evt)">
<style type="text/css"><![CDATA[
.edge:hover path { stroke: red; }
.edge:hover polygon { stroke: red; fill: red; }
]]></style>
<script type="text/javascript"><![CDATA[
var edges = document.getElementsByTagName('g');
if (edges && edges.length) {
  for (var i=0;i<edges.length;i++) {
    if (edges[i].id.substr(0,4)=='edge') {
      edges[i].setAttribute('class','edge');
    }
  }
}
]]></script>
        <defs>
                <circle id="rim" cx="0" cy="0" r="7"/>
                <circle id="rim2" cx="0" cy="0" r="3.5"/>
                <g id="zoomPlus">
                        <use xlink:href="#rim" fill="#404040">
                                <set attributeName="fill" to="#808080" begin="zoomplus.mouseover" end="zoomplus.mouseout"/>
                        </use>
                        <path d="M-4,0h8M0,-4v8" fill="none" stroke="white" stroke-width="1.5" pointer-events="none"/>
                </g>
                <g id="zoomMin">
                        <use xlink:href="#rim" fill="#404040">
                                <set attributeName="fill" to="#808080" begin="zoomminus.mouseover" end="zoomminus.mouseout"/>
                        </use>
                        <path d="M-4,0h8" fill="none" stroke="white" stroke-width="1.5" pointer-events="none"/>
                </g>
                <g id="dirArrow">
                        <path fill="none" stroke="white" stroke-width="1.5" d="M0,-3.0v7 M-2.5,-0.5L0,-3.0L2.5,-0.5"/>
                </g>
               <g id="resetDef">
                       <use xlink:href="#rim2" fill="#404040">
                               <set attributeName="fill" to="#808080" begin="reset.mouseover" end="reset.mouseout"/>
                       </use>
               </g>
        </defs>

<script type="text/javascript">
var viewWidth = 1734;
var viewHeight = 170;
var sectionId = 'dynsection-1';
</script>
<script xlink:href="svgpan.js"/>
<svg id="graph" class="graph">
<g id="viewport">
<title>include/JSystem/JKernel/JKRDvdRipper.h</title>
<!-- Node1 -->
<g id="node1" class="node">
<title>Node1</title>
<g id="a_node1"><a xlink:title=" ">
<polygon fill="#999999" stroke="#666666" points="1143,-162 1018,-162 1018,-132 1143,-132 1143,-162"/>
<text text-anchor="start" x="1026" y="-150" font-family="Helvetica,sans-Serif" font-size="10.00">include/JSystem/JKernel</text>
<text text-anchor="middle" x="1080.5" y="-139" font-family="Helvetica,sans-Serif" font-size="10.00">/JKRDvdRipper.h</text>
</a>
</g>
</g>
<!-- Node2 -->
<g id="node2" class="node">
<title>Node2</title>
<g id="a_node2"><a xlink:href="JKRAram_8h.html" target="_top" xlink:title=" ">
<polygon fill="white" stroke="#666666" points="969,-96 844,-96 844,-66 969,-66 969,-96"/>
<text text-anchor="start" x="852" y="-84" font-family="Helvetica,sans-Serif" font-size="10.00">include/JSystem/JKernel</text>
<text text-anchor="middle" x="906.5" y="-73" font-family="Helvetica,sans-Serif" font-size="10.00">/JKRAram.h</text>
</a>
</g>
</g>
<!-- Node1&#45;&gt;Node2 -->
<g id="edge1" class="edge">
<title>Node1&#45;&gt;Node2</title>
<path fill="none" stroke="#63b8ff" d="M1030.67,-127.67C1003.7,-117.75 970.85,-105.67 945.72,-96.43"/>
<polygon fill="#63b8ff" stroke="#63b8ff" points="1029.44,-130.95 1040.03,-131.11 1031.85,-124.38 1029.44,-130.95"/>
</g>
<!-- Node10 -->
<g id="node10" class="node">
<title>Node10</title>
<g id="a_node10"><a xlink:href="d__lib_8cpp.html" target="_top" xlink:title=" ">
<polygon fill="white" stroke="#666666" points="1725.5,-24.5 1645.5,-24.5 1645.5,-5.5 1725.5,-5.5 1725.5,-24.5"/>
<text text-anchor="middle" x="1685.5" y="-12.5" font-family="Helvetica,sans-Serif" font-size="10.00">src/d/d_lib.cpp</text>
</a>
</g>
</g>
<!-- Node1&#45;&gt;Node10 -->
<g id="edge24" class="edge">
<title>Node1&#45;&gt;Node10</title>
<path fill="none" stroke="#63b8ff" d="M1046.16,-125.05C1023.01,-108.4 999.69,-84.87 1017.5,-66 1064.78,-15.89 1568.58,-41.53 1636.5,-30 1643.65,-28.79 1651.25,-26.91 1658.27,-24.93"/>
<polygon fill="#63b8ff" stroke="#63b8ff" points="1044.12,-127.89 1054.35,-130.65 1048.07,-122.12 1044.12,-127.89"/>
</g>
<!-- Node12 -->
<g id="node12" class="node">
<title>Node12</title>
<g id="a_node12"><a xlink:href="m__Do__machine_8cpp.html" target="_top" xlink:title=" ">
<polygon fill="white" stroke="#666666" points="147,-24.5 0,-24.5 0,-5.5 147,-5.5 147,-24.5"/>
<text text-anchor="middle" x="73.5" y="-12.5" font-family="Helvetica,sans-Serif" font-size="10.00">src/m_Do/m_Do_machine.cpp</text>
</a>
</g>
</g>
<!-- Node1&#45;&gt;Node12 -->
<g id="edge26" class="edge">
<title>Node1&#45;&gt;Node12</title>
<path fill="none" stroke="#63b8ff" d="M1006.33,-145.65C875.69,-143.97 596.41,-135.57 364.5,-96 264.56,-78.95 149.45,-41.97 99.19,-24.93"/>
<polygon fill="#63b8ff" stroke="#63b8ff" points="1006.2,-149.15 1016.24,-145.77 1006.28,-142.15 1006.2,-149.15"/>
</g>
<!-- Node15 -->
<g id="node15" class="node">
<title>Node15</title>
<g id="a_node15"><a xlink:href="JKRDvdAramRipper_8h.html" target="_top" xlink:title=" ">
<polygon fill="white" stroke="#666666" points="499,-96 374,-96 374,-66 499,-66 499,-96"/>
<text text-anchor="start" x="382" y="-84" font-family="Helvetica,sans-Serif" font-size="10.00">include/JSystem/JKernel</text>
<text text-anchor="middle" x="436.5" y="-73" font-family="Helvetica,sans-Serif" font-size="10.00">/JKRDvdAramRipper.h</text>
</a>
</g>
</g>
<!-- Node1&#45;&gt;Node15 -->
<g id="edge14" class="edge">
<title>Node1&#45;&gt;Node15</title>
<path fill="none" stroke="#63b8ff" d="M1006.37,-138.63C878.49,-125.92 618.7,-100.11 499.2,-88.23"/>
<polygon fill="#63b8ff" stroke="#63b8ff" points="1005.77,-142.09 1016.07,-139.6 1006.47,-135.13 1005.77,-142.09"/>
</g>
<!-- Node17 -->
<g id="node17" class="node">
<title>Node17</title>
<g id="a_node17"><a xlink:href="JKRDvdArchive_8cpp.html" target="_top" xlink:title=" ">
<polygon fill="white" stroke="#666666" points="1135,-96 1026,-96 1026,-66 1135,-66 1135,-96"/>
<text text-anchor="start" x="1034" y="-84" font-family="Helvetica,sans-Serif" font-size="10.00">libs/JSystem/JKernel</text>
<text text-anchor="middle" x="1080.5" y="-73" font-family="Helvetica,sans-Serif" font-size="10.00">/JKRDvdArchive.cpp</text>
</a>
</g>
</g>
<!-- Node1&#45;&gt;Node17 -->
<g id="edge20" class="edge">
<title>Node1&#45;&gt;Node17</title>
<path fill="none" stroke="#63b8ff" d="M1080.5,-120.39C1080.5,-112.13 1080.5,-103.28 1080.5,-96.16"/>
<polygon fill="#63b8ff" stroke="#63b8ff" points="1077,-120.28 1080.5,-130.28 1084,-120.28 1077,-120.28"/>
</g>
<!-- Node18 -->
<g id="node18" class="node">
<title>Node18</title>
<g id="a_node18"><a xlink:href="JKRDvdRipper_8cpp.html" target="_top" xlink:title=" ">
<polygon fill="white" stroke="#666666" points="1262,-96 1153,-96 1153,-66 1262,-66 1262,-96"/>
<text text-anchor="start" x="1161" y="-84" font-family="Helvetica,sans-Serif" font-size="10.00">libs/JSystem/JKernel</text>
<text text-anchor="middle" x="1207.5" y="-73" font-family="Helvetica,sans-Serif" font-size="10.00">/JKRDvdRipper.cpp</text>
</a>
</g>
</g>
<!-- Node1&#45;&gt;Node18 -->
<g id="edge21" class="edge">
<title>Node1&#45;&gt;Node18</title>
<path fill="none" stroke="#63b8ff" d="M1119.02,-126.59C1138.36,-116.84 1161.38,-105.24 1179.09,-96.31"/>
<polygon fill="#63b8ff" stroke="#63b8ff" points="1117.71,-123.33 1110.35,-130.96 1120.86,-129.58 1117.71,-123.33"/>
</g>
<!-- Node19 -->
<g id="node19" class="node">
<title>Node19</title>
<g id="a_node19"><a xlink:href="JKRMemArchive_8cpp.html" target="_top" xlink:title=" ">
<polygon fill="white" stroke="#666666" points="1391,-96 1280,-96 1280,-66 1391,-66 1391,-96"/>
<text text-anchor="start" x="1288" y="-84" font-family="Helvetica,sans-Serif" font-size="10.00">libs/JSystem/JKernel</text>
<text text-anchor="middle" x="1335.5" y="-73" font-family="Helvetica,sans-Serif" font-size="10.00">/JKRMemArchive.cpp</text>
</a>
</g>
</g>
<!-- Node1&#45;&gt;Node19 -->
<g id="edge22" class="edge">
<title>Node1&#45;&gt;Node19</title>
<path fill="none" stroke="#63b8ff" d="M1149.04,-128.8C1190.04,-118.51 1241.46,-105.6 1279.92,-95.95"/>
<polygon fill="#63b8ff" stroke="#63b8ff" points="1148.36,-125.36 1139.51,-131.19 1150.06,-132.15 1148.36,-125.36"/>
</g>
<!-- Node20 -->
<g id="node20" class="node">
<title>Node20</title>
<g id="a_node20"><a xlink:href="DynamicLink_8cpp.html" target="_top" xlink:title=" ">
<polygon fill="white" stroke="#666666" points="1516,-90.5 1409,-90.5 1409,-71.5 1516,-71.5 1516,-90.5"/>
<text text-anchor="middle" x="1462.5" y="-78.5" font-family="Helvetica,sans-Serif" font-size="10.00">src/DynamicLink.cpp</text>
</a>
</g>
</g>
<!-- Node1&#45;&gt;Node20 -->
<g id="edge23" class="edge">
<title>Node1&#45;&gt;Node20</title>
<path fill="none" stroke="#63b8ff" d="M1154.61,-135.86C1219.63,-126.62 1316.61,-112.01 1400.5,-96 1408.3,-94.51 1416.62,-92.75 1424.55,-90.99"/>
<polygon fill="#63b8ff" stroke="#63b8ff" points="1154.17,-132.39 1144.76,-137.25 1155.15,-139.32 1154.17,-132.39"/>
</g>
<!-- Node21 -->
<g id="node21" class="node">
<title>Node21</title>
<g id="a_node21"><a xlink:href="m__Do__dvd__thread_8cpp.html" target="_top" xlink:title=" ">
<polygon fill="white" stroke="#666666" points="1692.5,-90.5 1534.5,-90.5 1534.5,-71.5 1692.5,-71.5 1692.5,-90.5"/>
<text text-anchor="middle" x="1613.5" y="-78.5" font-family="Helvetica,sans-Serif" font-size="10.00">src/m_Do/m_Do_dvd_thread.cpp</text>
</a>
</g>
</g>
<!-- Node1&#45;&gt;Node21 -->
<g id="edge25" class="edge">
<title>Node1&#45;&gt;Node21</title>
<path fill="none" stroke="#63b8ff" d="M1154.5,-138.73C1242.92,-129.81 1395.24,-113.67 1525.5,-96 1536.54,-94.5 1548.33,-92.74 1559.57,-90.98"/>
<polygon fill="#63b8ff" stroke="#63b8ff" points="1154.36,-135.23 1144.76,-139.71 1155.06,-142.2 1154.36,-135.23"/>
</g>
<!-- Node3 -->
<g id="node3" class="node">
<title>Node3</title>
<g id="a_node3"><a xlink:href="JAUInitializer_8cpp.html" target="_top" xlink:title=" ">
<polygon fill="white" stroke="#666666" points="1249,-30 1138,-30 1138,0 1249,0 1249,-30"/>
<text text-anchor="start" x="1146" y="-18" font-family="Helvetica,sans-Serif" font-size="10.00">libs/JSystem/JAudio2</text>
<text text-anchor="middle" x="1193.5" y="-7" font-family="Helvetica,sans-Serif" font-size="10.00">/JAUInitializer.cpp</text>
</a>
</g>
</g>
<!-- Node2&#45;&gt;Node3 -->
<g id="edge2" class="edge">
<title>Node2&#45;&gt;Node3</title>
<path fill="none" stroke="#63b8ff" d="M980.68,-63.46C1029.79,-52.51 1093.16,-38.38 1137.94,-28.39"/>
<polygon fill="#63b8ff" stroke="#63b8ff" points="979.96,-60.03 970.96,-65.63 981.48,-66.87 979.96,-60.03"/>
</g>
<!-- Node4 -->
<g id="node4" class="node">
<title>Node4</title>
<g id="a_node4"><a xlink:href="JKRAram_8cpp.html" target="_top" xlink:title=" ">
<polygon fill="white" stroke="#666666" points="1376,-30 1267,-30 1267,0 1376,0 1376,-30"/>
<text text-anchor="start" x="1275" y="-18" font-family="Helvetica,sans-Serif" font-size="10.00">libs/JSystem/JKernel</text>
<text text-anchor="middle" x="1321.5" y="-7" font-family="Helvetica,sans-Serif" font-size="10.00">/JKRAram.cpp</text>
</a>
</g>
</g>
<!-- Node2&#45;&gt;Node4 -->
<g id="edge3" class="edge">
<title>Node2&#45;&gt;Node4</title>
<path fill="none" stroke="#63b8ff" d="M980.49,-66.48C981.5,-66.31 982.5,-66.16 983.5,-66 1105.29,-46.97 1137.11,-51.39 1258.5,-30 1261.15,-29.53 1263.85,-29.03 1266.58,-28.5"/>
<polygon fill="#63b8ff" stroke="#63b8ff" points="980.28,-62.96 970.98,-68.04 981.42,-69.87 980.28,-62.96"/>
</g>
<!-- Node5 -->
<g id="node5" class="node">
<title>Node5</title>
<g id="a_node5"><a xlink:href="JKRAramArchive_8cpp.html" target="_top" xlink:title=" ">
<polygon fill="white" stroke="#666666" points="699,-30 586,-30 586,0 699,0 699,-30"/>
<text text-anchor="start" x="594" y="-18" font-family="Helvetica,sans-Serif" font-size="10.00">libs/JSystem/JKernel</text>
<text text-anchor="middle" x="642.5" y="-7" font-family="Helvetica,sans-Serif" font-size="10.00">/JKRAramArchive.cpp</text>
</a>
</g>
</g>
<!-- Node2&#45;&gt;Node5 -->
<g id="edge4" class="edge">
<title>Node2&#45;&gt;Node5</title>
<path fill="none" stroke="#63b8ff" d="M836.01,-62.91C793.17,-52.53 739.2,-39.44 699.15,-29.73"/>
<polygon fill="#63b8ff" stroke="#63b8ff" points="834.91,-66.25 845.45,-65.2 836.56,-59.44 834.91,-66.25"/>
</g>
<!-- Node6 -->
<g id="node6" class="node">
<title>Node6</title>
<g id="a_node6"><a xlink:href="JKRAramPiece_8cpp.html" target="_top" xlink:title=" ">
<polygon fill="white" stroke="#666666" points="1503,-30 1394,-30 1394,0 1503,0 1503,-30"/>
<text text-anchor="start" x="1402" y="-18" font-family="Helvetica,sans-Serif" font-size="10.00">libs/JSystem/JKernel</text>
<text text-anchor="middle" x="1448.5" y="-7" font-family="Helvetica,sans-Serif" font-size="10.00">/JKRAramPiece.cpp</text>
</a>
</g>
</g>
<!-- Node2&#45;&gt;Node6 -->
<g id="edge5" class="edge">
<title>Node2&#45;&gt;Node6</title>
<path fill="none" stroke="#63b8ff" d="M980.48,-66.42C981.49,-66.28 982.5,-66.14 983.5,-66 1161.26,-41.93 1208.24,-57.51 1385.5,-30 1388.16,-29.59 1390.87,-29.13 1393.6,-28.64"/>
<polygon fill="#63b8ff" stroke="#63b8ff" points="980.32,-62.9 970.95,-67.85 981.36,-69.82 980.32,-62.9"/>
</g>
<!-- Node7 -->
<g id="node7" class="node">
<title>Node7</title>
<g id="a_node7"><a xlink:href="JKRCompArchive_8cpp.html" target="_top" xlink:title=" ">
<polygon fill="white" stroke="#666666" points="425,-30 310,-30 310,0 425,0 425,-30"/>
<text text-anchor="start" x="318" y="-18" font-family="Helvetica,sans-Serif" font-size="10.00">libs/JSystem/JKernel</text>
<text text-anchor="middle" x="367.5" y="-7" font-family="Helvetica,sans-Serif" font-size="10.00">/JKRCompArchive.cpp</text>
</a>
</g>
</g>
<!-- Node2&#45;&gt;Node7 -->
<g id="edge6" class="edge">
<title>Node2&#45;&gt;Node7</title>
<path fill="none" stroke="#63b8ff" d="M832.57,-74.57C739.22,-67.17 573.84,-52.24 433.5,-30 430.84,-29.58 428.12,-29.12 425.38,-28.63"/>
<polygon fill="#63b8ff" stroke="#63b8ff" points="832.12,-78.05 842.36,-75.34 832.66,-71.07 832.12,-78.05"/>
</g>
<!-- Node8 -->
<g id="node8" class="node">
<title>Node8</title>
<g id="a_node8"><a xlink:href="JKRDvdAramRipper_8cpp.html" target="_top" xlink:title=" ">
<polygon fill="white" stroke="#666666" points="568,-30 443,-30 443,0 568,0 568,-30"/>
<text text-anchor="start" x="451" y="-18" font-family="Helvetica,sans-Serif" font-size="10.00">libs/JSystem/JKernel</text>
<text text-anchor="middle" x="505.5" y="-7" font-family="Helvetica,sans-Serif" font-size="10.00">/JKRDvdAramRipper.cpp</text>
</a>
</g>
</g>
<!-- Node2&#45;&gt;Node8 -->
<g id="edge7" class="edge">
<title>Node2&#45;&gt;Node8</title>
<path fill="none" stroke="#63b8ff" d="M832.45,-69.74C765.46,-60.23 664.19,-45.28 576.5,-30 573.78,-29.53 571,-29.03 568.19,-28.52"/>
<polygon fill="#63b8ff" stroke="#63b8ff" points="831.83,-73.18 842.22,-71.12 832.81,-66.25 831.83,-73.18"/>
</g>
<!-- Node9 -->
<g id="node9" class="node">
<title>Node9</title>
<g id="a_node9"><a xlink:href="JUTCacheFont_8cpp.html" target="_top" xlink:title=" ">
<polygon fill="white" stroke="#666666" points="1627.5,-30 1521.5,-30 1521.5,0 1627.5,0 1627.5,-30"/>
<text text-anchor="start" x="1529.5" y="-18" font-family="Helvetica,sans-Serif" font-size="10.00">libs/JSystem/JUtility</text>
<text text-anchor="middle" x="1574.5" y="-7" font-family="Helvetica,sans-Serif" font-size="10.00">/JUTCacheFont.cpp</text>
</a>
</g>
</g>
<!-- Node2&#45;&gt;Node9 -->
<g id="edge8" class="edge">
<title>Node2&#45;&gt;Node9</title>
<path fill="none" stroke="#63b8ff" d="M980.47,-66.39C981.49,-66.25 982.5,-66.12 983.5,-66 1217.35,-36.88 1279.32,-64.05 1512.5,-30 1515.34,-29.59 1518.24,-29.11 1521.16,-28.59"/>
<polygon fill="#63b8ff" stroke="#63b8ff" points="980.35,-62.87 970.94,-67.75 981.34,-69.8 980.35,-62.87"/>
</g>
<!-- Node2&#45;&gt;Node10 -->
<g id="edge9" class="edge">
<title>Node2&#45;&gt;Node10</title>
<path fill="none" stroke="#63b8ff" d="M980.47,-66.37C981.49,-66.24 982.5,-66.12 983.5,-66 1272.16,-31.94 1349.87,-78.23 1636.5,-30 1643.65,-28.8 1651.25,-26.93 1658.28,-24.94"/>
<polygon fill="#63b8ff" stroke="#63b8ff" points="980.36,-62.85 970.94,-67.69 981.32,-69.79 980.36,-62.85"/>
</g>
<!-- Node11 -->
<g id="node11" class="node">
<title>Node11</title>
<g id="a_node11"><a xlink:href="d__s__logo_8cpp.html" target="_top" xlink:title=" ">
<polygon fill="white" stroke="#666666" points="824,-24.5 717,-24.5 717,-5.5 824,-5.5 824,-24.5"/>
<text text-anchor="middle" x="770.5" y="-12.5" font-family="Helvetica,sans-Serif" font-size="10.00">src/d/s/d_s_logo.cpp</text>
</a>
</g>
</g>
<!-- Node2&#45;&gt;Node11 -->
<g id="edge10" class="edge">
<title>Node2&#45;&gt;Node11</title>
<path fill="none" stroke="#63b8ff" d="M865.59,-60.75C840.37,-48.88 809.22,-34.22 789.59,-24.99"/>
<polygon fill="#63b8ff" stroke="#63b8ff" points="864.07,-63.9 874.61,-64.99 867.05,-57.57 864.07,-63.9"/>
</g>
<!-- Node2&#45;&gt;Node12 -->
<g id="edge11" class="edge">
<title>Node2&#45;&gt;Node12</title>
<path fill="none" stroke="#63b8ff" d="M832.2,-77.52C697.24,-72.47 403.02,-58.93 156.5,-30 145.18,-28.67 133.05,-26.85 121.66,-24.97"/>
<polygon fill="#63b8ff" stroke="#63b8ff" points="831.95,-81.02 842.07,-77.89 832.21,-74.02 831.95,-81.02"/>
</g>
<!-- Node13 -->
<g id="node13" class="node">
<title>Node13</title>
<g id="a_node13"><a xlink:href="m__Do__machine__exception_8cpp.html" target="_top" xlink:title=" ">
<polygon fill="white" stroke="#666666" points="971,-30 842,-30 842,0 971,0 971,-30"/>
<text text-anchor="start" x="850" y="-18" font-family="Helvetica,sans-Serif" font-size="10.00">src/m_Do/m_Do_machine</text>
<text text-anchor="middle" x="906.5" y="-7" font-family="Helvetica,sans-Serif" font-size="10.00">_exception.cpp</text>
</a>
</g>
</g>
<!-- Node2&#45;&gt;Node13 -->
<g id="edge12" class="edge">
<title>Node2&#45;&gt;Node13</title>
<path fill="none" stroke="#63b8ff" d="M906.5,-54.39C906.5,-46.13 906.5,-37.28 906.5,-30.16"/>
<polygon fill="#63b8ff" stroke="#63b8ff" points="903,-54.28 906.5,-64.28 910,-54.28 903,-54.28"/>
</g>
<!-- Node14 -->
<g id="node14" class="node">
<title>Node14</title>
<g id="a_node14"><a xlink:href="m__Do__main_8cpp.html" target="_top" xlink:title=" ">
<polygon fill="white" stroke="#666666" points="1120,-24.5 989,-24.5 989,-5.5 1120,-5.5 1120,-24.5"/>
<text text-anchor="middle" x="1054.5" y="-12.5" font-family="Helvetica,sans-Serif" font-size="10.00">src/m_Do/m_Do_main.cpp</text>
</a>
</g>
</g>
<!-- Node2&#45;&gt;Node14 -->
<g id="edge13" class="edge">
<title>Node2&#45;&gt;Node14</title>
<path fill="none" stroke="#63b8ff" d="M949.92,-61.22C977.55,-49.27 1012.08,-34.34 1033.72,-24.99"/>
<polygon fill="#63b8ff" stroke="#63b8ff" points="948.89,-57.85 941.1,-65.04 951.67,-64.28 948.89,-57.85"/>
</g>
<!-- Node15&#45;&gt;Node5 -->
<g id="edge16" class="edge">
<title>Node15&#45;&gt;Node5</title>
<path fill="none" stroke="#63b8ff" d="M493.63,-62.25C525.95,-52.21 565.83,-39.82 596.18,-30.39"/>
<polygon fill="#63b8ff" stroke="#63b8ff" points="492.94,-58.8 484.43,-65.11 495.02,-65.48 492.94,-58.8"/>
</g>
<!-- Node15&#45;&gt;Node7 -->
<g id="edge17" class="edge">
<title>Node15&#45;&gt;Node7</title>
<path fill="none" stroke="#63b8ff" d="M412.88,-58.09C402.91,-48.85 391.61,-38.36 382.77,-30.16"/>
<polygon fill="#63b8ff" stroke="#63b8ff" points="410.37,-60.53 420.08,-64.77 415.13,-55.4 410.37,-60.53"/>
</g>
<!-- Node15&#45;&gt;Node8 -->
<g id="edge18" class="edge">
<title>Node15&#45;&gt;Node8</title>
<path fill="none" stroke="#63b8ff" d="M460.12,-58.09C470.09,-48.85 481.39,-38.36 490.23,-30.16"/>
<polygon fill="#63b8ff" stroke="#63b8ff" points="457.87,-55.4 452.92,-64.77 462.63,-60.53 457.87,-55.4"/>
</g>
<!-- Node15&#45;&gt;Node12 -->
<g id="edge19" class="edge">
<title>Node15&#45;&gt;Node12</title>
<path fill="none" stroke="#63b8ff" d="M362.61,-66.97C291.68,-54.47 186.45,-35.91 124.43,-24.98"/>
<polygon fill="#63b8ff" stroke="#63b8ff" points="361.74,-70.37 372.19,-68.66 362.95,-63.48 361.74,-70.37"/>
</g>
<!-- Node16 -->
<g id="node16" class="node">
<title>Node16</title>
<g id="a_node16"><a xlink:href="JASWaveArcLoader_8cpp.html" target="_top" xlink:title=" ">
<polygon fill="white" stroke="#666666" points="291.5,-30 165.5,-30 165.5,0 291.5,0 291.5,-30"/>
<text text-anchor="start" x="173.5" y="-18" font-family="Helvetica,sans-Serif" font-size="10.00">libs/JSystem/JAudio2</text>
<text text-anchor="middle" x="228.5" y="-7" font-family="Helvetica,sans-Serif" font-size="10.00">/JASWaveArcLoader.cpp</text>
</a>
</g>
</g>
<!-- Node15&#45;&gt;Node16 -->
<g id="edge15" class="edge">
<title>Node15&#45;&gt;Node16</title>
<path fill="none" stroke="#63b8ff" d="M378.81,-62.25C346.18,-52.21 305.91,-39.82 275.27,-30.39"/>
<polygon fill="#63b8ff" stroke="#63b8ff" points="377.53,-65.52 388.11,-65.11 379.59,-58.83 377.53,-65.52"/>
</g>
</g>
</svg>
        <g id="navigator" transform="translate(0 0)" fill="#404254">
                <rect fill="#f2f5e9" fill-opacity="0.5" stroke="#606060" stroke-width=".5" x="0" y="0" width="60" height="60"/>
                <use id="zoomplus" xlink:href="#zoomPlus" x="17" y="9" onmousedown="handleZoom(evt,'in')"/>
                <use id="zoomminus" xlink:href="#zoomMin" x="42" y="9" onmousedown="handleZoom(evt,'out')"/>
                <use id="reset" xlink:href="#resetDef" x="30" y="36" onmousedown="handleReset()"/>
                <g id="arrowUp" xlink:href="#dirArrow" transform="translate(30 24)" onmousedown="handlePan(0,-1)">
                  <use xlink:href="#rim" fill="#404040">
                        <set attributeName="fill" to="#808080" begin="arrowUp.mouseover" end="arrowUp.mouseout"/>
                  </use>
                  <path fill="none" stroke="white" stroke-width="1.5" d="M0,-3.0v7 M-2.5,-0.5L0,-3.0L2.5,-0.5"/>
                </g>
                <g id="arrowRight" xlink:href="#dirArrow" transform="rotate(90) translate(36 -43)" onmousedown="handlePan(1,0)">
                  <use xlink:href="#rim" fill="#404040">
                        <set attributeName="fill" to="#808080" begin="arrowRight.mouseover" end="arrowRight.mouseout"/>
                  </use>
                  <path fill="none" stroke="white" stroke-width="1.5" d="M0,-3.0v7 M-2.5,-0.5L0,-3.0L2.5,-0.5"/>
                </g>
                <g id="arrowDown" xlink:href="#dirArrow" transform="rotate(180) translate(-30 -48)" onmousedown="handlePan(0,1)">
                  <use xlink:href="#rim" fill="#404040">
                        <set attributeName="fill" to="#808080" begin="arrowDown.mouseover" end="arrowDown.mouseout"/>
                  </use>
                  <path fill="none" stroke="white" stroke-width="1.5" d="M0,-3.0v7 M-2.5,-0.5L0,-3.0L2.5,-0.5"/>
                </g>
                <g id="arrowLeft" xlink:href="#dirArrow" transform="rotate(270) translate(-36 17)" onmousedown="handlePan(-1,0)">
                  <use xlink:href="#rim" fill="#404040">
                        <set attributeName="fill" to="#808080" begin="arrowLeft.mouseover" end="arrowLeft.mouseout"/>
                  </use>
                  <path fill="none" stroke="white" stroke-width="1.5" d="M0,-3.0v7 M-2.5,-0.5L0,-3.0L2.5,-0.5"/>
                </g>
        </g>
        <svg viewBox="0 0 15 15" width="100%" height="30px" preserveAspectRatio="xMaxYMin meet">
         <g id="arrow_out" transform="scale(0.3 0.3)">
          <a xlink:href="JKRDvdRipper_8h__dep__incl_org.svg" target="_base">
           <rect id="button" ry="5" rx="5" y="6" x="6" height="38" width="38"
                fill="#f2f5e9" fill-opacity="0.5" stroke="#606060" stroke-width="1.0"/>
           <path id="arrow"
             d="M 11.500037,31.436501 C 11.940474,20.09759 22.043105,11.32322 32.158766,21.979434 L 37.068811,17.246167 C 37.068811,17.246167 37.088388,32 37.088388,32 L 22.160133,31.978069 C 22.160133,31.978069 26.997745,27.140456 26.997745,27.140456 C 18.528582,18.264221 13.291696,25.230495 11.500037,31.436501 z"
             style="fill:#404040;"/>
          </a>
         </g>
        </svg>
</svg>
