<?xml version="1.0" encoding="UTF-8" standalone="no"?>
<!DOCTYPE svg PUBLIC "-//W3C//DTD SVG 1.1//EN"
 "http://www.w3.org/Graphics/SVG/1.1/DTD/svg11.dtd">
<!-- Generated by graphviz version 2.46.0 (20210122.1329)
 -->
<!-- Title: libs/JSystem/JKernel/JKRDvdArchive.cpp Pages: 1 -->
<!--zoomable 743 -->
<svg id="main" version="1.1" xmlns="http://www.w3.org/2000/svg" xmlns:xlink="http://www.w3.org/1999/xlink" xml:space="preserve" onload="init(evt)">
<style type="text/css"><![CDATA[
.edge:hover path { stroke: red; }
.edge:hover polygon { stroke: red; fill: red; }
]]></style>
<script type="text/javascript"><![CDATA[
var edges = document.getElementsByTagName('g');
if (edges && edges.length) {
  for (var i=0;i<edges.length;i++) {
    if (edges[i].id.substr(0,4)=='edge') {
      edges[i].setAttribute('class','edge');
    }
  }
}
]]></script>
        <defs>
                <circle id="rim" cx="0" cy="0" r="7"/>
                <circle id="rim2" cx="0" cy="0" r="3.5"/>
                <g id="zoomPlus">
                        <use xlink:href="#rim" fill="#404040">
                                <set attributeName="fill" to="#808080" begin="zoomplus.mouseover" end="zoomplus.mouseout"/>
                        </use>
                        <path d="M-4,0h8M0,-4v8" fill="none" stroke="white" stroke-width="1.5" pointer-events="none"/>
                </g>
                <g id="zoomMin">
                        <use xlink:href="#rim" fill="#404040">
                                <set attributeName="fill" to="#808080" begin="zoomminus.mouseover" end="zoomminus.mouseout"/>
                        </use>
                        <path d="M-4,0h8" fill="none" stroke="white" stroke-width="1.5" pointer-events="none"/>
                </g>
                <g id="dirArrow">
                        <path fill="none" stroke="white" stroke-width="1.5" d="M0,-3.0v7 M-2.5,-0.5L0,-3.0L2.5,-0.5"/>
                </g>
               <g id="resetDef">
                       <use xlink:href="#rim2" fill="#404040">
                               <set attributeName="fill" to="#808080" begin="reset.mouseover" end="reset.mouseout"/>
                       </use>
               </g>
        </defs>

<script type="text/javascript">
var viewWidth = 1501;
var viewHeight = 743;
var sectionId = 'dynsection-0';
</script>
<script xlink:href="svgpan.js"/>
<svg id="graph" class="graph">
<g id="viewport">
<title>libs/JSystem/JKernel/JKRDvdArchive.cpp</title>
<polygon fill="white" stroke="transparent" points="-4,4 -4,-739 1496.5,-739 1496.5,4 -4,4"/>
<!-- Node1 -->
<g id="node1" class="node">
<title>Node1</title>
<g id="a_node1"><a xlink:title=" ">
<polygon fill="#bfbfbf" stroke="black" points="1027.5,-704.5 1027.5,-734.5 1136.5,-734.5 1136.5,-704.5 1027.5,-704.5"/>
<text text-anchor="start" x="1035.5" y="-722.5" font-family="Helvetica,sans-Serif" font-size="10.00">libs/JSystem/JKernel</text>
<text text-anchor="middle" x="1082" y="-711.5" font-family="Helvetica,sans-Serif" font-size="10.00">/JKRDvdArchive.cpp</text>
</a>
</g>
</g>
<!-- Node2 -->
<g id="node2" class="node">
<title>Node2</title>
<g id="a_node2"><a xlink:href="JKRDvdArchive_8h.html" target="_top" xlink:title=" ">
<polygon fill="white" stroke="black" points="102.5,-637.5 102.5,-667.5 265.5,-667.5 265.5,-637.5 102.5,-637.5"/>
<text text-anchor="start" x="110.5" y="-655.5" font-family="Helvetica,sans-Serif" font-size="10.00">JSystem/JKernel/JKRDvdArchive</text>
<text text-anchor="middle" x="184" y="-644.5" font-family="Helvetica,sans-Serif" font-size="10.00">/JKRDvdArchive.h</text>
</a>
</g>
</g>
<!-- Node1&#45;&gt;Node2 -->
<g id="edge1" class="edge">
<title>Node1&#45;&gt;Node2</title>
<path fill="none" stroke="midnightblue" d="M1027.18,-714.53C877.61,-703.71 461.31,-673.57 275.54,-660.13"/>
<polygon fill="midnightblue" stroke="midnightblue" points="275.75,-656.63 265.52,-659.4 275.25,-663.61 275.75,-656.63"/>
</g>
<!-- Node11 -->
<g id="node11" class="node">
<title>Node11</title>
<g id="a_node11"><a xlink:href="global_8h.html" target="_top" xlink:title=" ">
<polygon fill="white" stroke="black" points="791,-380.5 791,-399.5 841,-399.5 841,-380.5 791,-380.5"/>
<text text-anchor="middle" x="816" y="-387.5" font-family="Helvetica,sans-Serif" font-size="10.00">global.h</text>
</a>
</g>
</g>
<!-- Node1&#45;&gt;Node11 -->
<g id="edge61" class="edge">
<title>Node1&#45;&gt;Node11</title>
<path fill="none" stroke="midnightblue" d="M1049.19,-704.41C1008.65,-684.53 945,-644.13 945,-586.5 945,-586.5 945,-586.5 945,-517.5 945,-462.12 883.65,-422.97 845.57,-403.99"/>
<polygon fill="midnightblue" stroke="midnightblue" points="846.97,-400.78 836.44,-399.6 843.94,-407.09 846.97,-400.78"/>
</g>
<!-- Node25 -->
<g id="node25" class="node">
<title>Node25</title>
<g id="a_node25"><a xlink:href="JKRDvdFile_8h.html" target="_top" xlink:title=" ">
<polygon fill="white" stroke="black" points="1179,-436.5 1179,-466.5 1325,-466.5 1325,-436.5 1179,-436.5"/>
<text text-anchor="start" x="1187" y="-454.5" font-family="Helvetica,sans-Serif" font-size="10.00">JSystem/JKernel/JKRDvdFile</text>
<text text-anchor="middle" x="1252" y="-443.5" font-family="Helvetica,sans-Serif" font-size="10.00">/JKRDvdFile.h</text>
</a>
</g>
</g>
<!-- Node1&#45;&gt;Node25 -->
<g id="edge48" class="edge">
<title>Node1&#45;&gt;Node25</title>
<path fill="none" stroke="midnightblue" d="M1091.14,-704.2C1119.05,-660.53 1203.34,-528.64 1237.44,-475.28"/>
<polygon fill="midnightblue" stroke="midnightblue" points="1240.59,-476.86 1243.02,-466.55 1234.69,-473.09 1240.59,-476.86"/>
</g>
<!-- Node27 -->
<g id="node27" class="node">
<title>Node27</title>
<g id="a_node27"><a xlink:href="JKRDvdRipper_8h.html" target="_top" xlink:title=" ">
<polygon fill="white" stroke="black" points="391,-570.5 391,-600.5 549,-600.5 549,-570.5 391,-570.5"/>
<text text-anchor="start" x="399" y="-588.5" font-family="Helvetica,sans-Serif" font-size="10.00">JSystem/JKernel/JKRDvdRipper</text>
<text text-anchor="middle" x="470" y="-577.5" font-family="Helvetica,sans-Serif" font-size="10.00">/JKRDvdRipper.h</text>
</a>
</g>
</g>
<!-- Node1&#45;&gt;Node27 -->
<g id="edge55" class="edge">
<title>Node1&#45;&gt;Node27</title>
<path fill="none" stroke="midnightblue" d="M1027.42,-706.73C917.6,-683.04 669.8,-629.59 544.93,-602.66"/>
<polygon fill="midnightblue" stroke="midnightblue" points="545.57,-599.22 535.06,-600.53 544.09,-606.06 545.57,-599.22"/>
</g>
<!-- Node28 -->
<g id="node28" class="node">
<title>Node28</title>
<g id="a_node28"><a xlink:href="JKRExpHeap_8h.html" target="_top" xlink:title=" ">
<polygon fill="white" stroke="black" points="1072,-257.5 1072,-287.5 1224,-287.5 1224,-257.5 1072,-257.5"/>
<text text-anchor="start" x="1080" y="-275.5" font-family="Helvetica,sans-Serif" font-size="10.00">JSystem/JKernel/JKRExpHeap</text>
<text text-anchor="middle" x="1148" y="-264.5" font-family="Helvetica,sans-Serif" font-size="10.00">/JKRExpHeap.h</text>
</a>
</g>
</g>
<!-- Node1&#45;&gt;Node28 -->
<g id="edge58" class="edge">
<title>Node1&#45;&gt;Node28</title>
<path fill="none" stroke="midnightblue" d="M1082,-704.24C1082,-680.03 1082,-629.35 1082,-586.5 1082,-586.5 1082,-586.5 1082,-389 1082,-352.39 1107.31,-316.83 1126.58,-295.06"/>
<polygon fill="midnightblue" stroke="midnightblue" points="1129.17,-297.42 1133.35,-287.68 1124.01,-292.68 1129.17,-297.42"/>
</g>
<!-- Node29 -->
<g id="node29" class="node">
<title>Node29</title>
<g id="a_node29"><a xlink:title=" ">
<polygon fill="white" stroke="#bfbfbf" points="1148.5,-637.5 1148.5,-667.5 1311.5,-667.5 1311.5,-637.5 1148.5,-637.5"/>
<text text-anchor="start" x="1156.5" y="-655.5" font-family="Helvetica,sans-Serif" font-size="10.00">JSystem/JKernel/JKRDvdArchive</text>
<text text-anchor="middle" x="1230" y="-644.5" font-family="Helvetica,sans-Serif" font-size="10.00">/asm/func_802D7DB4.s</text>
</a>
</g>
</g>
<!-- Node1&#45;&gt;Node29 -->
<g id="edge62" class="edge">
<title>Node1&#45;&gt;Node29</title>
<path fill="none" stroke="midnightblue" d="M1114.11,-704.4C1135.93,-694.81 1164.99,-682.05 1188.56,-671.7"/>
<polygon fill="midnightblue" stroke="midnightblue" points="1190.2,-674.8 1197.95,-667.58 1187.39,-668.39 1190.2,-674.8"/>
</g>
<!-- Node30 -->
<g id="node30" class="node">
<title>Node30</title>
<g id="a_node30"><a xlink:title=" ">
<polygon fill="white" stroke="#bfbfbf" points="1329.5,-637.5 1329.5,-667.5 1492.5,-667.5 1492.5,-637.5 1329.5,-637.5"/>
<text text-anchor="start" x="1337.5" y="-655.5" font-family="Helvetica,sans-Serif" font-size="10.00">JSystem/JKernel/JKRDvdArchive</text>
<text text-anchor="middle" x="1411" y="-644.5" font-family="Helvetica,sans-Serif" font-size="10.00">/asm/func_802D8168.s</text>
</a>
</g>
</g>
<!-- Node1&#45;&gt;Node30 -->
<g id="edge63" class="edge">
<title>Node1&#45;&gt;Node30</title>
<path fill="none" stroke="midnightblue" d="M1136.7,-707.69C1189.49,-697.26 1270.04,-681.35 1330.22,-669.46"/>
<polygon fill="midnightblue" stroke="midnightblue" points="1330.94,-672.88 1340.07,-667.51 1329.58,-666.02 1330.94,-672.88"/>
</g>
<!-- Node3 -->
<g id="node3" class="node">
<title>Node3</title>
<g id="a_node3"><a xlink:href="JKRArchive_8h.html" target="_top" xlink:title=" ">
<polygon fill="white" stroke="black" points="111,-570.5 111,-600.5 257,-600.5 257,-570.5 111,-570.5"/>
<text text-anchor="start" x="119" y="-588.5" font-family="Helvetica,sans-Serif" font-size="10.00">JSystem/JKernel/JKRArchive</text>
<text text-anchor="middle" x="184" y="-577.5" font-family="Helvetica,sans-Serif" font-size="10.00">/JKRArchive.h</text>
</a>
</g>
</g>
<!-- Node2&#45;&gt;Node3 -->
<g id="edge2" class="edge">
<title>Node2&#45;&gt;Node3</title>
<path fill="none" stroke="midnightblue" d="M184,-637.4C184,-629.64 184,-619.81 184,-610.86"/>
<polygon fill="midnightblue" stroke="midnightblue" points="187.5,-610.58 184,-600.58 180.5,-610.58 187.5,-610.58"/>
</g>
<!-- Node7 -->
<g id="node7" class="node">
<title>Node7</title>
<g id="a_node7"><a xlink:href="types_8h.html" target="_top" xlink:title=" ">
<polygon fill="white" stroke="black" points="636.5,-0.5 636.5,-19.5 717.5,-19.5 717.5,-0.5 636.5,-0.5"/>
<text text-anchor="middle" x="677" y="-7.5" font-family="Helvetica,sans-Serif" font-size="10.00">dolphin/types.h</text>
</a>
</g>
</g>
<!-- Node2&#45;&gt;Node7 -->
<g id="edge47" class="edge">
<title>Node2&#45;&gt;Node7</title>
<path fill="none" stroke="midnightblue" d="M129.29,-637.43C75.05,-619.79 0,-583.78 0,-519.5 0,-519.5 0,-519.5 0,-137.5 0,-90.04 26.71,-77.54 69,-56 118.06,-31.01 489.05,-16.92 626.22,-12.51"/>
<polygon fill="midnightblue" stroke="midnightblue" points="626.57,-16 636.45,-12.19 626.35,-9.01 626.57,-16"/>
</g>
<!-- Node4 -->
<g id="node4" class="node">
<title>Node4</title>
<g id="a_node4"><a xlink:href="JKRDecomp_8h.html" target="_top" xlink:title=" ">
<polygon fill="white" stroke="black" points="293.5,-503.5 293.5,-533.5 442.5,-533.5 442.5,-503.5 293.5,-503.5"/>
<text text-anchor="start" x="301.5" y="-521.5" font-family="Helvetica,sans-Serif" font-size="10.00">JSystem/JKernel/JKRDecomp</text>
<text text-anchor="middle" x="368" y="-510.5" font-family="Helvetica,sans-Serif" font-size="10.00">/JKRDecomp.h</text>
</a>
</g>
</g>
<!-- Node3&#45;&gt;Node4 -->
<g id="edge3" class="edge">
<title>Node3&#45;&gt;Node4</title>
<path fill="none" stroke="midnightblue" d="M223.93,-570.4C251.65,-560.6 288.79,-547.48 318.42,-537.02"/>
<polygon fill="midnightblue" stroke="midnightblue" points="319.89,-540.21 328.15,-533.58 317.56,-533.61 319.89,-540.21"/>
</g>
<!-- Node6 -->
<g id="node6" class="node">
<title>Node6</title>
<g id="a_node6"><a xlink:href="SArc_8h.html" target="_top" xlink:title=" ">
<polygon fill="white" stroke="black" points="66.5,-380.5 66.5,-399.5 189.5,-399.5 189.5,-380.5 66.5,-380.5"/>
<text text-anchor="middle" x="128" y="-387.5" font-family="Helvetica,sans-Serif" font-size="10.00">JSystem/JKernel/SArc.h</text>
</a>
</g>
</g>
<!-- Node3&#45;&gt;Node6 -->
<g id="edge45" class="edge">
<title>Node3&#45;&gt;Node6</title>
<path fill="none" stroke="midnightblue" d="M168.29,-570.45C146.87,-550.12 109.51,-510.18 95,-467 90.61,-453.94 90.71,-449.09 95,-436 98.49,-425.34 105.57,-415.12 112.29,-407.12"/>
<polygon fill="midnightblue" stroke="midnightblue" points="114.9,-409.44 118.98,-399.66 109.7,-404.76 114.9,-409.44"/>
</g>
<!-- Node3&#45;&gt;Node7 -->
<g id="edge46" class="edge">
<title>Node3&#45;&gt;Node7</title>
<path fill="none" stroke="midnightblue" d="M147.53,-570.34C104.29,-550.89 38,-511.44 38,-452.5 38,-452.5 38,-452.5 38,-137.5 38,-17.95 473.85,-9.58 625.63,-10.3"/>
<polygon fill="midnightblue" stroke="midnightblue" points="626.03,-13.8 636.06,-10.36 626.08,-6.8 626.03,-13.8"/>
</g>
<!-- Node24 -->
<g id="node24" class="node">
<title>Node24</title>
<g id="a_node24"><a xlink:href="JKRFileLoader_8h.html" target="_top" xlink:title=" ">
<polygon fill="white" stroke="black" points="284,-190.5 284,-220.5 442,-220.5 442,-190.5 284,-190.5"/>
<text text-anchor="start" x="292" y="-208.5" font-family="Helvetica,sans-Serif" font-size="10.00">JSystem/JKernel/JKRFileLoader</text>
<text text-anchor="middle" x="363" y="-197.5" font-family="Helvetica,sans-Serif" font-size="10.00">/JKRFileLoader.h</text>
</a>
</g>
</g>
<!-- Node3&#45;&gt;Node24 -->
<g id="edge42" class="edge">
<title>Node3&#45;&gt;Node24</title>
<path fill="none" stroke="midnightblue" d="M201.2,-570.48C224.91,-550.19 267.28,-510.3 290,-467 306.13,-436.26 308,-425.71 308,-391 308,-391 308,-391 308,-333 308,-294.14 330.1,-253.72 346.28,-229.33"/>
<polygon fill="midnightblue" stroke="midnightblue" points="349.36,-231.03 352.13,-220.8 343.59,-227.06 349.36,-231.03"/>
</g>
<!-- Node5 -->
<g id="node5" class="node">
<title>Node5</title>
<g id="a_node5"><a xlink:href="JKRCompression_8h.html" target="_top" xlink:title=" ">
<polygon fill="white" stroke="black" points="103.5,-442 103.5,-461 280.5,-461 280.5,-442 103.5,-442"/>
<text text-anchor="middle" x="192" y="-449" font-family="Helvetica,sans-Serif" font-size="10.00">JSystem/JKernel/JKRCompression.h</text>
</a>
</g>
</g>
<!-- Node4&#45;&gt;Node5 -->
<g id="edge4" class="edge">
<title>Node4&#45;&gt;Node5</title>
<path fill="none" stroke="midnightblue" d="M329.81,-503.4C298.38,-491.79 254.32,-475.51 224.54,-464.52"/>
<polygon fill="midnightblue" stroke="midnightblue" points="225.63,-461.19 215.03,-461.01 223.2,-467.75 225.63,-461.19"/>
</g>
<!-- Node4&#45;&gt;Node7 -->
<g id="edge41" class="edge">
<title>Node4&#45;&gt;Node7</title>
<path fill="none" stroke="midnightblue" d="M363.86,-503.22C357.49,-479.94 346,-432.24 346,-391 346,-391 346,-391 346,-333 346,-262.04 246.67,-255.06 275,-190 309.9,-109.85 340.71,-94.89 419,-56 485.56,-22.93 572.31,-13.75 626.33,-11.43"/>
<polygon fill="midnightblue" stroke="midnightblue" points="626.49,-14.92 636.35,-11.06 626.23,-7.93 626.49,-14.92"/>
</g>
<!-- Node8 -->
<g id="node8" class="node">
<title>Node8</title>
<g id="a_node8"><a xlink:href="JKRThread_8h.html" target="_top" xlink:title=" ">
<polygon fill="white" stroke="black" points="505.5,-436.5 505.5,-466.5 648.5,-466.5 648.5,-436.5 505.5,-436.5"/>
<text text-anchor="start" x="513.5" y="-454.5" font-family="Helvetica,sans-Serif" font-size="10.00">JSystem/JKernel/JKRThread</text>
<text text-anchor="middle" x="577" y="-443.5" font-family="Helvetica,sans-Serif" font-size="10.00">/JKRThread.h</text>
</a>
</g>
</g>
<!-- Node4&#45;&gt;Node8 -->
<g id="edge8" class="edge">
<title>Node4&#45;&gt;Node8</title>
<path fill="none" stroke="midnightblue" d="M413.09,-503.48C444.98,-493.56 487.93,-480.2 521.86,-469.65"/>
<polygon fill="midnightblue" stroke="midnightblue" points="523.12,-472.92 531.63,-466.61 521.04,-466.24 523.12,-472.92"/>
</g>
<!-- Node5&#45;&gt;Node6 -->
<g id="edge5" class="edge">
<title>Node5&#45;&gt;Node6</title>
<path fill="none" stroke="midnightblue" d="M182.83,-441.98C172.85,-432.7 156.69,-417.67 144.49,-406.33"/>
<polygon fill="midnightblue" stroke="midnightblue" points="146.86,-403.75 137.15,-399.51 142.09,-408.88 146.86,-403.75"/>
</g>
<!-- Node5&#45;&gt;Node7 -->
<g id="edge7" class="edge">
<title>Node5&#45;&gt;Node7</title>
<path fill="none" stroke="midnightblue" d="M195.29,-441.96C202.29,-423.01 218,-375.9 218,-335 218,-335 218,-335 218,-137.5 218,-99.74 212.97,-80.14 242,-56 271.05,-31.84 517.98,-18.04 626.35,-13.1"/>
<polygon fill="midnightblue" stroke="midnightblue" points="626.56,-16.6 636.4,-12.65 626.25,-9.6 626.56,-16.6"/>
</g>
<!-- Node6&#45;&gt;Node7 -->
<g id="edge6" class="edge">
<title>Node6&#45;&gt;Node7</title>
<path fill="none" stroke="midnightblue" d="M131.29,-380.46C138.29,-361.51 154,-314.4 154,-273.5 154,-273.5 154,-273.5 154,-137.5 154,-95 167.94,-78.49 204,-56 273.34,-12.75 518.72,-9.49 626.08,-10.23"/>
<polygon fill="midnightblue" stroke="midnightblue" points="626.31,-13.73 636.33,-10.31 626.36,-6.73 626.31,-13.73"/>
</g>
<!-- Node8&#45;&gt;Node7 -->
<g id="edge13" class="edge">
<title>Node8&#45;&gt;Node7</title>
<path fill="none" stroke="midnightblue" d="M561.69,-436.45C541.36,-416.18 508,-376.58 508,-335 508,-335 508,-335 508,-137.5 508,-100.31 501.53,-83.11 527,-56 552.36,-29 593.22,-17.99 625.89,-13.6"/>
<polygon fill="midnightblue" stroke="midnightblue" points="626.66,-17.04 636.18,-12.4 625.84,-10.09 626.66,-17.04"/>
</g>
<!-- Node9 -->
<g id="node9" class="node">
<title>Node9</title>
<g id="a_node9"><a xlink:href="JKRDisposer_8h.html" target="_top" xlink:title=" ">
<polygon fill="white" stroke="black" points="691.5,-123.5 691.5,-153.5 842.5,-153.5 842.5,-123.5 691.5,-123.5"/>
<text text-anchor="start" x="699.5" y="-141.5" font-family="Helvetica,sans-Serif" font-size="10.00">JSystem/JKernel/JKRDisposer</text>
<text text-anchor="middle" x="767" y="-130.5" font-family="Helvetica,sans-Serif" font-size="10.00">/JKRDisposer.h</text>
</a>
</g>
</g>
<!-- Node8&#45;&gt;Node9 -->
<g id="edge9" class="edge">
<title>Node8&#45;&gt;Node9</title>
<path fill="none" stroke="midnightblue" d="M578.64,-436.26C584.33,-393.27 606.96,-263.23 679,-190 691.8,-176.98 708.67,-166.23 724.2,-158.04"/>
<polygon fill="midnightblue" stroke="midnightblue" points="725.81,-161.15 733.16,-153.51 722.65,-154.9 725.81,-161.15"/>
</g>
<!-- Node8&#45;&gt;Node11 -->
<g id="edge14" class="edge">
<title>Node8&#45;&gt;Node11</title>
<path fill="none" stroke="midnightblue" d="M633.34,-436.47C679.07,-425.09 742.12,-409.39 780.92,-399.73"/>
<polygon fill="midnightblue" stroke="midnightblue" points="781.85,-403.11 790.71,-397.3 780.16,-396.32 781.85,-403.11"/>
</g>
<!-- Node9&#45;&gt;Node7 -->
<g id="edge12" class="edge">
<title>Node9&#45;&gt;Node7</title>
<path fill="none" stroke="midnightblue" d="M749.61,-123.3C738.74,-113.81 724.96,-100.61 715,-87 701.69,-68.82 690.74,-45.27 684.06,-29.24"/>
<polygon fill="midnightblue" stroke="midnightblue" points="687.13,-27.48 680.15,-19.5 680.63,-30.09 687.13,-27.48"/>
</g>
<!-- Node10 -->
<g id="node10" class="node">
<title>Node10</title>
<g id="a_node10"><a xlink:href="JSUList_8h.html" target="_top" xlink:title=" ">
<polygon fill="white" stroke="black" points="724,-56.5 724,-86.5 860,-86.5 860,-56.5 724,-56.5"/>
<text text-anchor="start" x="732" y="-74.5" font-family="Helvetica,sans-Serif" font-size="10.00">JSystem/JSupport/JSUList</text>
<text text-anchor="middle" x="792" y="-63.5" font-family="Helvetica,sans-Serif" font-size="10.00">/JSUList.h</text>
</a>
</g>
</g>
<!-- Node9&#45;&gt;Node10 -->
<g id="edge10" class="edge">
<title>Node9&#45;&gt;Node10</title>
<path fill="none" stroke="midnightblue" d="M772.42,-123.4C775.5,-115.39 779.44,-105.16 782.97,-95.98"/>
<polygon fill="midnightblue" stroke="midnightblue" points="786.26,-97.17 786.59,-86.58 779.73,-94.65 786.26,-97.17"/>
</g>
<!-- Node10&#45;&gt;Node7 -->
<g id="edge11" class="edge">
<title>Node10&#45;&gt;Node7</title>
<path fill="none" stroke="midnightblue" d="M764.75,-56.4C745.97,-46.68 721.17,-33.86 702.73,-24.31"/>
<polygon fill="midnightblue" stroke="midnightblue" points="704.22,-21.14 693.73,-19.66 701.01,-27.36 704.22,-21.14"/>
</g>
<!-- Node11&#45;&gt;Node7 -->
<g id="edge15" class="edge">
<title>Node11&#45;&gt;Node7</title>
<path fill="none" stroke="midnightblue" d="M790.78,-388.57C756.88,-386.62 696.74,-378.18 661,-344 587.69,-273.89 575.11,-220.24 604,-123 615.33,-84.87 644.21,-47.59 662.06,-27.12"/>
<polygon fill="midnightblue" stroke="midnightblue" points="664.68,-29.44 668.74,-19.66 659.46,-24.78 664.68,-29.44"/>
</g>
<!-- Node12 -->
<g id="node12" class="node">
<title>Node12</title>
<g id="a_node12"><a xlink:href="AR_8h.html" target="_top" xlink:title=" ">
<polygon fill="white" stroke="black" points="1044.5,-129 1044.5,-148 1093.5,-148 1093.5,-129 1044.5,-129"/>
<text text-anchor="middle" x="1069" y="-136" font-family="Helvetica,sans-Serif" font-size="10.00">ar/AR.h</text>
</a>
</g>
</g>
<!-- Node11&#45;&gt;Node12 -->
<g id="edge16" class="edge">
<title>Node11&#45;&gt;Node12</title>
<path fill="none" stroke="midnightblue" d="M841.08,-383.98C869.07,-377.62 915.04,-364.91 950,-344 1018.54,-303.01 1049.28,-294.29 1081,-221 1089.84,-200.57 1083.49,-174.84 1077.16,-157.82"/>
<polygon fill="midnightblue" stroke="midnightblue" points="1080.36,-156.41 1073.35,-148.47 1073.88,-159.05 1080.36,-156.41"/>
</g>
<!-- Node13 -->
<g id="node13" class="node">
<title>Node13</title>
<g id="a_node13"><a xlink:href="ARQ_8h.html" target="_top" xlink:title=" ">
<polygon fill="white" stroke="black" points="536,-62 536,-81 592,-81 592,-62 536,-62"/>
<text text-anchor="middle" x="564" y="-69" font-family="Helvetica,sans-Serif" font-size="10.00">ar/ARQ.h</text>
</a>
</g>
</g>
<!-- Node11&#45;&gt;Node13 -->
<g id="edge18" class="edge">
<title>Node11&#45;&gt;Node13</title>
<path fill="none" stroke="midnightblue" d="M790.6,-389.53C723.39,-389.47 546,-379.29 546,-273.5 546,-273.5 546,-273.5 546,-204.5 546,-163.78 554.51,-116.65 559.83,-91.17"/>
<polygon fill="midnightblue" stroke="midnightblue" points="563.32,-91.61 562,-81.09 556.47,-90.13 563.32,-91.61"/>
</g>
<!-- Node14 -->
<g id="node14" class="node">
<title>Node14</title>
<g id="a_node14"><a xlink:href="mwcc_8h.html" target="_top" xlink:title=" ">
<polygon fill="white" stroke="black" points="670,-324.5 670,-343.5 720,-343.5 720,-324.5 670,-324.5"/>
<text text-anchor="middle" x="695" y="-331.5" font-family="Helvetica,sans-Serif" font-size="10.00">mwcc.h</text>
</a>
</g>
</g>
<!-- Node11&#45;&gt;Node14 -->
<g id="edge20" class="edge">
<title>Node11&#45;&gt;Node14</title>
<path fill="none" stroke="midnightblue" d="M796.83,-380.44C777.09,-371.64 746.11,-357.81 723.51,-347.72"/>
<polygon fill="midnightblue" stroke="midnightblue" points="724.64,-344.4 714.08,-343.52 721.79,-350.79 724.64,-344.4"/>
</g>
<!-- Node15 -->
<g id="node15" class="node">
<title>Node15</title>
<g id="a_node15"><a xlink:href="OS_8h.html" target="_top" xlink:title=" ">
<polygon fill="white" stroke="black" points="1280,-324.5 1280,-343.5 1332,-343.5 1332,-324.5 1280,-324.5"/>
<text text-anchor="middle" x="1306" y="-331.5" font-family="Helvetica,sans-Serif" font-size="10.00">os/OS.h</text>
</a>
</g>
</g>
<!-- Node11&#45;&gt;Node15 -->
<g id="edge21" class="edge">
<title>Node11&#45;&gt;Node15</title>
<path fill="none" stroke="midnightblue" d="M841.31,-386.21C922.27,-377.29 1175.07,-349.43 1269.73,-339"/>
<polygon fill="midnightblue" stroke="midnightblue" points="1270.4,-342.45 1279.95,-337.87 1269.63,-335.49 1270.4,-342.45"/>
</g>
<!-- Node17 -->
<g id="node17" class="node">
<title>Node17</title>
<g id="a_node17"><a xlink:href="variables_8h.html" target="_top" xlink:title=" ">
<polygon fill="white" stroke="black" points="814.5,-324.5 814.5,-343.5 877.5,-343.5 877.5,-324.5 814.5,-324.5"/>
<text text-anchor="middle" x="846" y="-331.5" font-family="Helvetica,sans-Serif" font-size="10.00">variables.h</text>
</a>
</g>
</g>
<!-- Node11&#45;&gt;Node17 -->
<g id="edge25" class="edge">
<title>Node11&#45;&gt;Node17</title>
<path fill="none" stroke="midnightblue" d="M820.95,-380.08C825.1,-372.61 831.15,-361.72 836.27,-352.52"/>
<polygon fill="midnightblue" stroke="midnightblue" points="839.34,-354.19 841.14,-343.75 833.22,-350.79 839.34,-354.19"/>
</g>
<!-- Node12&#45;&gt;Node7 -->
<g id="edge17" class="edge">
<title>Node12&#45;&gt;Node7</title>
<path fill="none" stroke="midnightblue" d="M1065.94,-128.81C1059.39,-111.65 1042.29,-73.54 1014,-56 967.21,-26.99 809.7,-16.37 727.65,-12.74"/>
<polygon fill="midnightblue" stroke="midnightblue" points="727.7,-9.23 717.56,-12.31 727.4,-16.23 727.7,-9.23"/>
</g>
<!-- Node13&#45;&gt;Node7 -->
<g id="edge19" class="edge">
<title>Node13&#45;&gt;Node7</title>
<path fill="none" stroke="midnightblue" d="M580.19,-61.98C598.9,-52.12 629.92,-35.79 651.8,-24.27"/>
<polygon fill="midnightblue" stroke="midnightblue" points="653.62,-27.27 660.84,-19.51 650.36,-21.07 653.62,-27.27"/>
</g>
<!-- Node15&#45;&gt;Node7 -->
<g id="edge22" class="edge">
<title>Node15&#45;&gt;Node7</title>
<path fill="none" stroke="midnightblue" d="M1307.88,-324.2C1312.39,-301.14 1322.06,-237.47 1303,-190 1272.88,-114.98 1252.48,-91.8 1180,-56 1101.56,-17.26 839.75,-11.57 728.12,-10.95"/>
<polygon fill="midnightblue" stroke="midnightblue" points="727.82,-7.45 717.8,-10.9 727.79,-14.45 727.82,-7.45"/>
</g>
<!-- Node16 -->
<g id="node16" class="node">
<title>Node16</title>
<g id="a_node16"><a xlink:href="dvd_8h.html" target="_top" xlink:title=" ">
<polygon fill="white" stroke="black" points="1333.5,-263 1333.5,-282 1392.5,-282 1392.5,-263 1333.5,-263"/>
<text text-anchor="middle" x="1363" y="-270" font-family="Helvetica,sans-Serif" font-size="10.00">dvd/dvd.h</text>
</a>
</g>
</g>
<!-- Node15&#45;&gt;Node16 -->
<g id="edge23" class="edge">
<title>Node15&#45;&gt;Node16</title>
<path fill="none" stroke="midnightblue" d="M1314.17,-324.48C1322.89,-315.37 1336.9,-300.74 1347.69,-289.48"/>
<polygon fill="midnightblue" stroke="midnightblue" points="1350.46,-291.65 1354.85,-282.01 1345.4,-286.81 1350.46,-291.65"/>
</g>
<!-- Node16&#45;&gt;Node7 -->
<g id="edge24" class="edge">
<title>Node16&#45;&gt;Node7</title>
<path fill="none" stroke="midnightblue" d="M1365.23,-262.85C1373.11,-230.1 1396.01,-112.72 1336,-56 1292.15,-14.56 875.05,-10.84 728,-10.83"/>
<polygon fill="midnightblue" stroke="midnightblue" points="727.89,-7.33 717.89,-10.84 727.89,-14.33 727.89,-7.33"/>
</g>
<!-- Node17&#45;&gt;Node10 -->
<g id="edge26" class="edge">
<title>Node17&#45;&gt;Node10</title>
<path fill="none" stroke="midnightblue" d="M845.5,-324.38C845.01,-315.32 844.28,-300.67 844,-288 843.69,-274.23 843.47,-270.77 844,-257 845.78,-211.12 850.22,-199.88 852,-154 852.53,-140.23 857.81,-135.49 852,-123 846.33,-110.82 836.13,-100.54 825.72,-92.49"/>
<polygon fill="midnightblue" stroke="midnightblue" points="827.58,-89.51 817.41,-86.52 823.49,-95.19 827.58,-89.51"/>
</g>
<!-- Node18 -->
<g id="node18" class="node">
<title>Node18</title>
<g id="a_node18"><a xlink:href="JUTXfb_8h.html" target="_top" xlink:title=" ">
<polygon fill="white" stroke="black" points="852.5,-257.5 852.5,-287.5 977.5,-287.5 977.5,-257.5 852.5,-257.5"/>
<text text-anchor="start" x="860.5" y="-275.5" font-family="Helvetica,sans-Serif" font-size="10.00">JSystem/JUtility/JUTXfb</text>
<text text-anchor="middle" x="915" y="-264.5" font-family="Helvetica,sans-Serif" font-size="10.00">/JUTXfb.h</text>
</a>
</g>
</g>
<!-- Node17&#45;&gt;Node18 -->
<g id="edge27" class="edge">
<title>Node17&#45;&gt;Node18</title>
<path fill="none" stroke="midnightblue" d="M855.89,-324.48C865.06,-316.57 879.07,-304.48 891.15,-294.07"/>
<polygon fill="midnightblue" stroke="midnightblue" points="893.45,-296.7 898.74,-287.52 888.88,-291.4 893.45,-296.7"/>
</g>
<!-- Node21 -->
<g id="node21" class="node">
<title>Node21</title>
<g id="a_node21"><a xlink:href="c__xyz_8h.html" target="_top" xlink:title=" ">
<polygon fill="white" stroke="black" points="650.5,-263 650.5,-282 757.5,-282 757.5,-263 650.5,-263"/>
<text text-anchor="middle" x="704" y="-270" font-family="Helvetica,sans-Serif" font-size="10.00">SComponent/c_xyz.h</text>
</a>
</g>
</g>
<!-- Node17&#45;&gt;Node21 -->
<g id="edge35" class="edge">
<title>Node17&#45;&gt;Node21</title>
<path fill="none" stroke="midnightblue" d="M825.65,-324.48C801.61,-314.4 761.4,-297.55 733.84,-286"/>
<polygon fill="midnightblue" stroke="midnightblue" points="734.88,-282.65 724.31,-282.01 732.18,-289.1 734.88,-282.65"/>
</g>
<!-- Node18&#45;&gt;Node7 -->
<g id="edge32" class="edge">
<title>Node18&#45;&gt;Node7</title>
<path fill="none" stroke="midnightblue" d="M917.15,-257.28C924.16,-210.48 945.52,-63.74 939,-56 912.51,-24.57 796.06,-15.09 727.65,-12.23"/>
<polygon fill="midnightblue" stroke="midnightblue" points="727.64,-8.73 717.51,-11.84 727.37,-15.73 727.64,-8.73"/>
</g>
<!-- Node19 -->
<g id="node19" class="node">
<title>Node19</title>
<g id="a_node19"><a xlink:href="JKRHeap_8h.html" target="_top" xlink:title=" ">
<polygon fill="white" stroke="black" points="936,-190.5 936,-220.5 1072,-220.5 1072,-190.5 936,-190.5"/>
<text text-anchor="start" x="944" y="-208.5" font-family="Helvetica,sans-Serif" font-size="10.00">JSystem/JKernel/JKRHeap</text>
<text text-anchor="middle" x="1004" y="-197.5" font-family="Helvetica,sans-Serif" font-size="10.00">/JKRHeap.h</text>
</a>
</g>
</g>
<!-- Node18&#45;&gt;Node19 -->
<g id="edge28" class="edge">
<title>Node18&#45;&gt;Node19</title>
<path fill="none" stroke="midnightblue" d="M934.31,-257.4C946.67,-248.37 962.9,-236.51 976.59,-226.52"/>
<polygon fill="midnightblue" stroke="midnightblue" points="978.71,-229.3 984.73,-220.58 974.59,-223.65 978.71,-229.3"/>
</g>
<!-- Node20 -->
<g id="node20" class="node">
<title>Node20</title>
<g id="a_node20"><a xlink:href="GX_8h.html" target="_top" xlink:title=" ">
<polygon fill="white" stroke="black" points="878.5,-62 878.5,-81 929.5,-81 929.5,-62 878.5,-62"/>
<text text-anchor="middle" x="904" y="-69" font-family="Helvetica,sans-Serif" font-size="10.00">gx/GX.h</text>
</a>
</g>
</g>
<!-- Node18&#45;&gt;Node20 -->
<g id="edge33" class="edge">
<title>Node18&#45;&gt;Node20</title>
<path fill="none" stroke="midnightblue" d="M907.36,-257.39C902.47,-247.52 896.57,-233.85 894,-221 884.84,-175.12 893.64,-119.86 899.58,-91.43"/>
<polygon fill="midnightblue" stroke="midnightblue" points="903.07,-91.83 901.81,-81.31 896.24,-90.32 903.07,-91.83"/>
</g>
<!-- Node19&#45;&gt;Node7 -->
<g id="edge30" class="edge">
<title>Node19&#45;&gt;Node7</title>
<path fill="none" stroke="midnightblue" d="M1005.71,-190.15C1008.39,-160.35 1009.84,-91.6 972,-56 937.63,-23.66 802.78,-14.56 727.87,-12"/>
<polygon fill="midnightblue" stroke="midnightblue" points="727.82,-8.5 717.71,-11.68 727.6,-15.49 727.82,-8.5"/>
</g>
<!-- Node19&#45;&gt;Node9 -->
<g id="edge29" class="edge">
<title>Node19&#45;&gt;Node9</title>
<path fill="none" stroke="midnightblue" d="M952.87,-190.48C916.39,-180.47 867.16,-166.97 828.54,-156.38"/>
<polygon fill="midnightblue" stroke="midnightblue" points="829.02,-152.88 818.45,-153.61 827.17,-159.63 829.02,-152.88"/>
</g>
<!-- Node19&#45;&gt;Node11 -->
<g id="edge31" class="edge">
<title>Node19&#45;&gt;Node11</title>
<path fill="none" stroke="midnightblue" d="M1004.39,-220.54C1004.17,-237.95 1001.47,-267.79 987,-288 953.23,-335.16 889.99,-363.96 850.6,-378.16"/>
<polygon fill="midnightblue" stroke="midnightblue" points="849.43,-374.86 841.13,-381.46 851.73,-381.47 849.43,-374.86"/>
</g>
<!-- Node20&#45;&gt;Node7 -->
<g id="edge34" class="edge">
<title>Node20&#45;&gt;Node7</title>
<path fill="none" stroke="midnightblue" d="M884.95,-61.95C879.84,-59.84 874.26,-57.69 869,-56 821.88,-40.83 766.75,-28.44 727.68,-20.53"/>
<polygon fill="midnightblue" stroke="midnightblue" points="728.1,-17.05 717.6,-18.52 726.72,-23.91 728.1,-17.05"/>
</g>
<!-- Node21&#45;&gt;Node11 -->
<g id="edge38" class="edge">
<title>Node21&#45;&gt;Node11</title>
<path fill="none" stroke="midnightblue" d="M712.36,-282.2C725.17,-295.53 750.44,-321.8 772,-344 781.44,-353.72 792.06,-364.59 800.5,-373.2"/>
<polygon fill="midnightblue" stroke="midnightblue" points="798.05,-375.7 807.55,-380.39 803.05,-370.8 798.05,-375.7"/>
</g>
<!-- Node22 -->
<g id="node22" class="node">
<title>Node22</title>
<g id="a_node22"><a xlink:href="c__math_8h.html" target="_top" xlink:title=" ">
<polygon fill="white" stroke="black" points="688,-196 688,-215 804,-215 804,-196 688,-196"/>
<text text-anchor="middle" x="746" y="-203" font-family="Helvetica,sans-Serif" font-size="10.00">SComponent/c_math.h</text>
</a>
</g>
</g>
<!-- Node21&#45;&gt;Node22 -->
<g id="edge36" class="edge">
<title>Node21&#45;&gt;Node22</title>
<path fill="none" stroke="midnightblue" d="M709.66,-262.73C716.09,-252.79 726.72,-236.34 734.83,-223.79"/>
<polygon fill="midnightblue" stroke="midnightblue" points="737.94,-225.43 740.43,-215.13 732.06,-221.63 737.94,-225.43"/>
</g>
<!-- Node23 -->
<g id="node23" class="node">
<title>Node23</title>
<g id="a_node23"><a xlink:href="mtx__vec_8h.html" target="_top" xlink:title=" ">
<polygon fill="white" stroke="black" points="612.5,-129 612.5,-148 673.5,-148 673.5,-129 612.5,-129"/>
<text text-anchor="middle" x="643" y="-136" font-family="Helvetica,sans-Serif" font-size="10.00">mtx_vec.h</text>
</a>
</g>
</g>
<!-- Node21&#45;&gt;Node23 -->
<g id="edge39" class="edge">
<title>Node21&#45;&gt;Node23</title>
<path fill="none" stroke="midnightblue" d="M699.64,-262.98C694.56,-252.98 685.97,-235.89 679,-221 668.89,-199.4 657.89,-174.24 650.75,-157.66"/>
<polygon fill="midnightblue" stroke="midnightblue" points="653.82,-155.93 646.66,-148.12 647.39,-158.69 653.82,-155.93"/>
</g>
<!-- Node22&#45;&gt;Node11 -->
<g id="edge37" class="edge">
<title>Node22&#45;&gt;Node11</title>
<path fill="none" stroke="midnightblue" d="M749.67,-215.04C753.94,-225.05 761.16,-242.16 767,-257 782.89,-297.41 800.32,-345.29 809.5,-370.82"/>
<polygon fill="midnightblue" stroke="midnightblue" points="806.23,-372.08 812.9,-380.31 812.82,-369.71 806.23,-372.08"/>
</g>
<!-- Node23&#45;&gt;Node7 -->
<g id="edge40" class="edge">
<title>Node23&#45;&gt;Node7</title>
<path fill="none" stroke="midnightblue" d="M645.34,-128.81C650.8,-108.49 664.49,-57.55 671.95,-29.78"/>
<polygon fill="midnightblue" stroke="midnightblue" points="675.43,-30.32 674.65,-19.76 668.67,-28.5 675.43,-30.32"/>
</g>
<!-- Node24&#45;&gt;Node7 -->
<g id="edge44" class="edge">
<title>Node24&#45;&gt;Node7</title>
<path fill="none" stroke="midnightblue" d="M367.54,-190.37C377.94,-160.38 406.5,-90.31 456,-56 483.04,-37.26 569.8,-23.73 626.23,-16.65"/>
<polygon fill="midnightblue" stroke="midnightblue" points="626.9,-20.09 636.4,-15.4 626.05,-13.15 626.9,-20.09"/>
</g>
<!-- Node24&#45;&gt;Node9 -->
<g id="edge43" class="edge">
<title>Node24&#45;&gt;Node9</title>
<path fill="none" stroke="midnightblue" d="M442.28,-192.31C504.67,-182.65 594.08,-168.63 681.37,-154.26"/>
<polygon fill="midnightblue" stroke="midnightblue" points="682.16,-157.68 691.45,-152.59 681.02,-150.77 682.16,-157.68"/>
</g>
<!-- Node25&#45;&gt;Node7 -->
<g id="edge52" class="edge">
<title>Node25&#45;&gt;Node7</title>
<path fill="none" stroke="midnightblue" d="M1310.16,-436.47C1359.05,-420.81 1421,-390.08 1421,-335 1421,-335 1421,-335 1421,-137.5 1421,-92.52 1400.45,-77.6 1361,-56 1305.95,-25.86 877.23,-14.84 728,-11.89"/>
<polygon fill="midnightblue" stroke="midnightblue" points="727.82,-8.39 717.75,-11.69 727.68,-15.39 727.82,-8.39"/>
</g>
<!-- Node25&#45;&gt;Node11 -->
<g id="edge54" class="edge">
<title>Node25&#45;&gt;Node11</title>
<path fill="none" stroke="midnightblue" d="M1178.53,-440.47C1083.66,-427.53 922.31,-405.51 851.31,-395.82"/>
<polygon fill="midnightblue" stroke="midnightblue" points="851.49,-392.31 841.11,-394.43 850.55,-399.25 851.49,-392.31"/>
</g>
<!-- Node25&#45;&gt;Node16 -->
<g id="edge53" class="edge">
<title>Node25&#45;&gt;Node16</title>
<path fill="none" stroke="midnightblue" d="M1267.03,-436.38C1286.63,-417.19 1320.81,-381.02 1341,-344 1350,-327.5 1355.91,-306.77 1359.31,-292.07"/>
<polygon fill="midnightblue" stroke="midnightblue" points="1362.76,-292.69 1361.44,-282.18 1355.92,-291.22 1362.76,-292.69"/>
</g>
<!-- Node26 -->
<g id="node26" class="node">
<title>Node26</title>
<g id="a_node26"><a xlink:href="JKRFile_8h.html" target="_top" xlink:title=" ">
<polygon fill="white" stroke="black" points="1166,-190.5 1166,-220.5 1294,-220.5 1294,-190.5 1166,-190.5"/>
<text text-anchor="start" x="1174" y="-208.5" font-family="Helvetica,sans-Serif" font-size="10.00">JSystem/JKernel/JKRFile</text>
<text text-anchor="middle" x="1230" y="-197.5" font-family="Helvetica,sans-Serif" font-size="10.00">/JKRFile.h</text>
</a>
</g>
</g>
<!-- Node25&#45;&gt;Node26 -->
<g id="edge49" class="edge">
<title>Node25&#45;&gt;Node26</title>
<path fill="none" stroke="midnightblue" d="M1250.72,-436.33C1247.1,-396.15 1236.73,-281.17 1232.18,-230.72"/>
<polygon fill="midnightblue" stroke="midnightblue" points="1235.67,-230.36 1231.28,-220.71 1228.69,-230.99 1235.67,-230.36"/>
</g>
<!-- Node26&#45;&gt;Node7 -->
<g id="edge51" class="edge">
<title>Node26&#45;&gt;Node7</title>
<path fill="none" stroke="midnightblue" d="M1227.28,-190.49C1220.56,-160.11 1200.13,-88.28 1152,-56 1117.36,-32.77 843.18,-18.24 727.84,-13.1"/>
<polygon fill="midnightblue" stroke="midnightblue" points="727.99,-9.6 717.84,-12.66 727.68,-16.59 727.99,-9.6"/>
</g>
<!-- Node26&#45;&gt;Node9 -->
<g id="edge50" class="edge">
<title>Node26&#45;&gt;Node9</title>
<path fill="none" stroke="midnightblue" d="M1165.62,-195.46C1084.07,-184.01 943.28,-164.25 852.7,-151.53"/>
<polygon fill="midnightblue" stroke="midnightblue" points="853.12,-148.06 842.73,-150.13 852.15,-154.99 853.12,-148.06"/>
</g>
<!-- Node27&#45;&gt;Node4 -->
<g id="edge56" class="edge">
<title>Node27&#45;&gt;Node4</title>
<path fill="none" stroke="midnightblue" d="M447.87,-570.4C433.43,-561.2 414.4,-549.07 398.53,-538.95"/>
<polygon fill="midnightblue" stroke="midnightblue" points="400.4,-536 390.09,-533.58 396.64,-541.9 400.4,-536"/>
</g>
<!-- Node27&#45;&gt;Node7 -->
<g id="edge57" class="edge">
<title>Node27&#45;&gt;Node7</title>
<path fill="none" stroke="midnightblue" d="M470,-570.24C470,-546.03 470,-495.35 470,-452.5 470,-452.5 470,-452.5 470,-137.5 470,-98.08 475.12,-81.71 505,-56 538.58,-27.11 588.56,-16.47 626,-12.7"/>
<polygon fill="midnightblue" stroke="midnightblue" points="626.55,-16.16 636.21,-11.8 625.94,-9.19 626.55,-16.16"/>
</g>
<!-- Node28&#45;&gt;Node7 -->
<g id="edge60" class="edge">
<title>Node28&#45;&gt;Node7</title>
<path fill="none" stroke="midnightblue" d="M1146.53,-257.32C1141.38,-216.04 1119.95,-96.33 1042,-56 988.39,-28.26 814.88,-16.95 727.82,-12.93"/>
<polygon fill="midnightblue" stroke="midnightblue" points="727.79,-9.43 717.64,-12.48 727.47,-16.42 727.79,-9.43"/>
</g>
<!-- Node28&#45;&gt;Node19 -->
<g id="edge59" class="edge">
<title>Node28&#45;&gt;Node19</title>
<path fill="none" stroke="midnightblue" d="M1116.75,-257.4C1095.53,-247.81 1067.25,-235.05 1044.32,-224.7"/>
<polygon fill="midnightblue" stroke="midnightblue" points="1045.74,-221.5 1035.18,-220.58 1042.86,-227.88 1045.74,-221.5"/>
</g>
</g>
</svg>
        <g id="navigator" transform="translate(0 0)" fill="#404254">
                <rect fill="#f2f5e9" fill-opacity="0.5" stroke="#606060" stroke-width=".5" x="0" y="0" width="60" height="60"/>
                <use id="zoomplus" xlink:href="#zoomPlus" x="17" y="9" onmousedown="handleZoom(evt,'in')"/>
                <use id="zoomminus" xlink:href="#zoomMin" x="42" y="9" onmousedown="handleZoom(evt,'out')"/>
                <use id="reset" xlink:href="#resetDef" x="30" y="36" onmousedown="handleReset()"/>
                <g id="arrowUp" xlink:href="#dirArrow" transform="translate(30 24)" onmousedown="handlePan(0,-1)">
                  <use xlink:href="#rim" fill="#404040">
                        <set attributeName="fill" to="#808080" begin="arrowUp.mouseover" end="arrowUp.mouseout"/>
                  </use>
                  <path fill="none" stroke="white" stroke-width="1.5" d="M0,-3.0v7 M-2.5,-0.5L0,-3.0L2.5,-0.5"/>
                </g>
                <g id="arrowRight" xlink:href="#dirArrow" transform="rotate(90) translate(36 -43)" onmousedown="handlePan(1,0)">
                  <use xlink:href="#rim" fill="#404040">
                        <set attributeName="fill" to="#808080" begin="arrowRight.mouseover" end="arrowRight.mouseout"/>
                  </use>
                  <path fill="none" stroke="white" stroke-width="1.5" d="M0,-3.0v7 M-2.5,-0.5L0,-3.0L2.5,-0.5"/>
                </g>
                <g id="arrowDown" xlink:href="#dirArrow" transform="rotate(180) translate(-30 -48)" onmousedown="handlePan(0,1)">
                  <use xlink:href="#rim" fill="#404040">
                        <set attributeName="fill" to="#808080" begin="arrowDown.mouseover" end="arrowDown.mouseout"/>
                  </use>
                  <path fill="none" stroke="white" stroke-width="1.5" d="M0,-3.0v7 M-2.5,-0.5L0,-3.0L2.5,-0.5"/>
                </g>
                <g id="arrowLeft" xlink:href="#dirArrow" transform="rotate(270) translate(-36 17)" onmousedown="handlePan(-1,0)">
                  <use xlink:href="#rim" fill="#404040">
                        <set attributeName="fill" to="#808080" begin="arrowLeft.mouseover" end="arrowLeft.mouseout"/>
                  </use>
                  <path fill="none" stroke="white" stroke-width="1.5" d="M0,-3.0v7 M-2.5,-0.5L0,-3.0L2.5,-0.5"/>
                </g>
        </g>
        <svg viewBox="0 0 15 15" width="100%" height="30px" preserveAspectRatio="xMaxYMin meet">
         <g id="arrow_out" transform="scale(0.3 0.3)">
          <a xlink:href="JKRDvdArchive_8cpp__incl_org.svg" target="_base">
           <rect id="button" ry="5" rx="5" y="6" x="6" height="38" width="38"
                fill="#f2f5e9" fill-opacity="0.5" stroke="#606060" stroke-width="1.0"/>
           <path id="arrow"
             d="M 11.500037,31.436501 C 11.940474,20.09759 22.043105,11.32322 32.158766,21.979434 L 37.068811,17.246167 C 37.068811,17.246167 37.088388,32 37.088388,32 L 22.160133,31.978069 C 22.160133,31.978069 26.997745,27.140456 26.997745,27.140456 C 18.528582,18.264221 13.291696,25.230495 11.500037,31.436501 z"
             style="fill:#404040;"/>
          </a>
         </g>
        </svg>
</svg>
