<?xml version="1.0" encoding="UTF-8" standalone="no"?>
<!DOCTYPE svg PUBLIC "-//W3C//DTD SVG 1.1//EN"
 "http://www.w3.org/Graphics/SVG/1.1/DTD/svg11.dtd">
<!-- Generated by graphviz version 2.46.0 (20210122.1329)
 -->
<!-- Title: include/JSystem/JKernel/JKRExpHeap/JKRExpHeap.h Pages: 1 -->
<svg width="4440pt" height="374pt"
 viewBox="0.00 0.00 4440.00 374.00" xmlns="http://www.w3.org/2000/svg" xmlns:xlink="http://www.w3.org/1999/xlink">
<g id="graph0" class="graph" transform="scale(1 1) rotate(0) translate(4 370)">
<title>include/JSystem/JKernel/JKRExpHeap/JKRExpHeap.h</title>
<polygon fill="white" stroke="transparent" points="-4,4 -4,-370 4436,-370 4436,4 -4,4"/>
<!-- Node1 -->
<g id="node1" class="node">
<title>Node1</title>
<g id="a_node1"><a xlink:title=" ">
<polygon fill="#bfbfbf" stroke="black" points="3822,-335.5 3822,-365.5 3968,-365.5 3968,-335.5 3822,-335.5"/>
<text text-anchor="start" x="3830" y="-353.5" font-family="Helvetica,sans-Serif" font-size="10.00">include/JSystem/JKernel</text>
<text text-anchor="middle" x="3895" y="-342.5" font-family="Helvetica,sans-Serif" font-size="10.00">/JKRExpHeap/JKRExpHeap.h</text>
</a>
</g>
</g>
<!-- Node2 -->
<g id="node2" class="node">
<title>Node2</title>
<g id="a_node2"><a xlink:href="JKRAram_8cpp.html" target="_top" xlink:title=" ">
<polygon fill="white" stroke="black" points="3646.5,-268.5 3646.5,-298.5 3755.5,-298.5 3755.5,-268.5 3646.5,-268.5"/>
<text text-anchor="start" x="3654.5" y="-286.5" font-family="Helvetica,sans-Serif" font-size="10.00">libs/JSystem/JKernel</text>
<text text-anchor="middle" x="3701" y="-275.5" font-family="Helvetica,sans-Serif" font-size="10.00">/JKRAram.cpp</text>
</a>
</g>
</g>
<!-- Node1&#45;&gt;Node2 -->
<g id="edge1" class="edge">
<title>Node1&#45;&gt;Node2</title>
<path fill="none" stroke="midnightblue" d="M3843.04,-332.09C3811.73,-321.6 3772.36,-308.41 3743.01,-298.58"/>
<polygon fill="midnightblue" stroke="midnightblue" points="3842.31,-335.54 3852.9,-335.4 3844.53,-328.9 3842.31,-335.54"/>
</g>
<!-- Node3 -->
<g id="node3" class="node">
<title>Node3</title>
<g id="a_node3"><a xlink:href="JKRExpHeap_8cpp.html" target="_top" xlink:title=" ">
<polygon fill="white" stroke="black" points="3773.5,-268.5 3773.5,-298.5 3882.5,-298.5 3882.5,-268.5 3773.5,-268.5"/>
<text text-anchor="start" x="3781.5" y="-286.5" font-family="Helvetica,sans-Serif" font-size="10.00">libs/JSystem/JKernel</text>
<text text-anchor="middle" x="3828" y="-275.5" font-family="Helvetica,sans-Serif" font-size="10.00">/JKRExpHeap.cpp</text>
</a>
</g>
</g>
<!-- Node1&#45;&gt;Node3 -->
<g id="edge2" class="edge">
<title>Node1&#45;&gt;Node3</title>
<path fill="none" stroke="midnightblue" d="M3873.16,-328.31C3863.11,-318.56 3851.46,-307.26 3842.51,-298.58"/>
<polygon fill="midnightblue" stroke="midnightblue" points="3870.85,-330.94 3880.46,-335.4 3875.72,-325.92 3870.85,-330.94"/>
</g>
<!-- Node4 -->
<g id="node4" class="node">
<title>Node4</title>
<g id="a_node4"><a xlink:href="m__Do__ext_8h.html" target="_top" xlink:title=" ">
<polygon fill="white" stroke="black" points="3901,-268.5 3901,-298.5 4023,-298.5 4023,-268.5 3901,-268.5"/>
<text text-anchor="start" x="3909" y="-286.5" font-family="Helvetica,sans-Serif" font-size="10.00">include/m_Do/m_Do_ext</text>
<text text-anchor="middle" x="3962" y="-275.5" font-family="Helvetica,sans-Serif" font-size="10.00">/m_Do_ext.h</text>
</a>
</g>
</g>
<!-- Node1&#45;&gt;Node4 -->
<g id="edge3" class="edge">
<title>Node1&#45;&gt;Node4</title>
<path fill="none" stroke="midnightblue" d="M3916.84,-328.31C3926.89,-318.56 3938.54,-307.26 3947.49,-298.58"/>
<polygon fill="midnightblue" stroke="midnightblue" points="3914.28,-325.92 3909.54,-335.4 3919.15,-330.94 3914.28,-325.92"/>
</g>
<!-- Node44 -->
<g id="node44" class="node">
<title>Node44</title>
<g id="a_node44"><a xlink:href="m__Do__main_8h.html" target="_top" xlink:title=" ">
<polygon fill="white" stroke="black" points="4066.5,-201.5 4066.5,-231.5 4197.5,-231.5 4197.5,-201.5 4066.5,-201.5"/>
<text text-anchor="start" x="4074.5" y="-219.5" font-family="Helvetica,sans-Serif" font-size="10.00">include/m_Do/m_Do_main</text>
<text text-anchor="middle" x="4132" y="-208.5" font-family="Helvetica,sans-Serif" font-size="10.00">/m_Do_main.h</text>
</a>
</g>
</g>
<!-- Node1&#45;&gt;Node44 -->
<g id="edge51" class="edge">
<title>Node1&#45;&gt;Node44</title>
<path fill="none" stroke="midnightblue" d="M3954.58,-332.32C3979.36,-323.98 4007.9,-312.75 4032,-299 4065.65,-279.8 4099.49,-249.33 4117.89,-231.59"/>
<polygon fill="midnightblue" stroke="midnightblue" points="3953.34,-329.04 3944.93,-335.49 3955.53,-335.69 3953.34,-329.04"/>
</g>
<!-- Node5 -->
<g id="node5" class="node">
<title>Node5</title>
<g id="a_node5"><a xlink:href="d__com__inf__game_8cpp.html" target="_top" xlink:title=" ">
<polygon fill="white" stroke="black" points="3864.5,-0.5 3864.5,-30.5 3983.5,-30.5 3983.5,-0.5 3864.5,-0.5"/>
<text text-anchor="start" x="3872.5" y="-18.5" font-family="Helvetica,sans-Serif" font-size="10.00">src/d/d_com/d_com_inf</text>
<text text-anchor="middle" x="3924" y="-7.5" font-family="Helvetica,sans-Serif" font-size="10.00">_game.cpp</text>
</a>
</g>
</g>
<!-- Node4&#45;&gt;Node5 -->
<g id="edge4" class="edge">
<title>Node4&#45;&gt;Node5</title>
<path fill="none" stroke="midnightblue" d="M3958.51,-258.07C3950.72,-203.57 3932.15,-73.52 3926.01,-30.55"/>
<polygon fill="midnightblue" stroke="midnightblue" points="3955.08,-258.79 3959.96,-268.2 3962.01,-257.8 3955.08,-258.79"/>
</g>
<!-- Node6 -->
<g id="node6" class="node">
<title>Node6</title>
<g id="a_node6"><a xlink:href="d__meter__HIO_8cpp.html" target="_top" xlink:title=" ">
<polygon fill="white" stroke="black" points="3818.5,-201.5 3818.5,-231.5 3933.5,-231.5 3933.5,-201.5 3818.5,-201.5"/>
<text text-anchor="start" x="3826.5" y="-219.5" font-family="Helvetica,sans-Serif" font-size="10.00">src/d/d_meter/d_meter</text>
<text text-anchor="middle" x="3876" y="-208.5" font-family="Helvetica,sans-Serif" font-size="10.00">_HIO.cpp</text>
</a>
</g>
</g>
<!-- Node4&#45;&gt;Node6 -->
<g id="edge5" class="edge">
<title>Node4&#45;&gt;Node6</title>
<path fill="none" stroke="midnightblue" d="M3935.1,-262.17C3921.95,-252.23 3906.45,-240.51 3894.62,-231.58"/>
<polygon fill="midnightblue" stroke="midnightblue" points="3933.25,-265.16 3943.34,-268.4 3937.47,-259.57 3933.25,-265.16"/>
</g>
<!-- Node7 -->
<g id="node7" class="node">
<title>Node7</title>
<g id="a_node7"><a xlink:href="m__Do__main_8cpp.html" target="_top" xlink:title=" ">
<polygon fill="white" stroke="black" points="3990.5,-73 3990.5,-92 4121.5,-92 4121.5,-73 3990.5,-73"/>
<text text-anchor="middle" x="4056" y="-80" font-family="Helvetica,sans-Serif" font-size="10.00">src/m_Do/m_Do_main.cpp</text>
</a>
</g>
</g>
<!-- Node4&#45;&gt;Node7 -->
<g id="edge6" class="edge">
<title>Node4&#45;&gt;Node7</title>
<path fill="none" stroke="midnightblue" d="M3973.06,-259.08C3993.88,-215 4038.05,-121.5 4051.81,-92.36"/>
<polygon fill="midnightblue" stroke="midnightblue" points="3969.87,-257.65 3968.76,-268.19 3976.2,-260.64 3969.87,-257.65"/>
</g>
<!-- Node8 -->
<g id="node8" class="node">
<title>Node8</title>
<g id="a_node8"><a xlink:href="d__attention_8h.html" target="_top" xlink:title=" ">
<polygon fill="white" stroke="black" points="2916.5,-201.5 2916.5,-231.5 3023.5,-231.5 3023.5,-201.5 2916.5,-201.5"/>
<text text-anchor="start" x="2924.5" y="-219.5" font-family="Helvetica,sans-Serif" font-size="10.00">include/d/d_attention</text>
<text text-anchor="middle" x="2970" y="-208.5" font-family="Helvetica,sans-Serif" font-size="10.00">/d_attention.h</text>
</a>
</g>
</g>
<!-- Node4&#45;&gt;Node8 -->
<g id="edge7" class="edge">
<title>Node4&#45;&gt;Node8</title>
<path fill="none" stroke="midnightblue" d="M3890.25,-267.91C3555.79,-225.14 3164.16,-218.61 3023.52,-217.64"/>
<polygon fill="midnightblue" stroke="midnightblue" points="3890.26,-271.44 3900.63,-269.25 3891.16,-264.49 3890.26,-271.44"/>
</g>
<!-- Node9 -->
<g id="node9" class="node">
<title>Node9</title>
<g id="a_node9"><a xlink:href="d__com__inf__game_8h.html" target="_top" xlink:title=" ">
<polygon fill="white" stroke="black" points="2120,-134.5 2120,-164.5 2266,-164.5 2266,-134.5 2120,-134.5"/>
<text text-anchor="start" x="2128" y="-152.5" font-family="Helvetica,sans-Serif" font-size="10.00">include/d/d_com/d_com</text>
<text text-anchor="middle" x="2193" y="-141.5" font-family="Helvetica,sans-Serif" font-size="10.00">_inf_game/d_com_inf_game.h</text>
</a>
</g>
</g>
<!-- Node8&#45;&gt;Node9 -->
<g id="edge8" class="edge">
<title>Node8&#45;&gt;Node9</title>
<path fill="none" stroke="midnightblue" d="M2905.92,-210.14C2762.68,-198.16 2417.28,-169.26 2266.02,-156.61"/>
<polygon fill="midnightblue" stroke="midnightblue" points="2906.03,-213.66 2916.29,-211.01 2906.61,-206.69 2906.03,-213.66"/>
</g>
<!-- Node9&#45;&gt;Node5 -->
<g id="edge11" class="edge">
<title>Node9&#45;&gt;Node5</title>
<path fill="none" stroke="midnightblue" d="M2276.3,-148.84C2610.8,-149.86 3841.39,-150.03 3905,-98 3924.79,-81.81 3926.35,-49.36 3925.39,-30.66"/>
<polygon fill="midnightblue" stroke="midnightblue" points="2276.21,-145.34 2266.2,-148.81 2276.19,-152.34 2276.21,-145.34"/>
</g>
<!-- Node9&#45;&gt;Node7 -->
<g id="edge33" class="edge">
<title>Node9&#45;&gt;Node7</title>
<path fill="none" stroke="midnightblue" d="M2276.43,-148.84C2527.83,-149.29 3300.11,-146.32 3938,-98 3956.83,-96.57 3977.28,-94.31 3995.78,-92"/>
<polygon fill="midnightblue" stroke="midnightblue" points="2276.28,-145.34 2266.27,-148.82 2276.27,-152.34 2276.28,-145.34"/>
</g>
<!-- Node10 -->
<g id="node10" class="node">
<title>Node10</title>
<g id="a_node10"><a xlink:href="d__attention_8cpp.html" target="_top" xlink:title=" ">
<polygon fill="white" stroke="black" points="362.5,-6 362.5,-25 469.5,-25 469.5,-6 362.5,-6"/>
<text text-anchor="middle" x="416" y="-13" font-family="Helvetica,sans-Serif" font-size="10.00">src/d/d_attention.cpp</text>
</a>
</g>
</g>
<!-- Node9&#45;&gt;Node10 -->
<g id="edge9" class="edge">
<title>Node9&#45;&gt;Node10</title>
<path fill="none" stroke="midnightblue" d="M2109.51,-147.46C1781.06,-143.19 592.24,-125.85 517,-98 515.65,-97.5 452.32,-46.04 426.64,-25.16"/>
<polygon fill="midnightblue" stroke="midnightblue" points="2109.85,-150.97 2119.9,-147.6 2109.94,-143.97 2109.85,-150.97"/>
</g>
<!-- Node11 -->
<g id="node11" class="node">
<title>Node11</title>
<g id="a_node11"><a xlink:href="d__camera_8cpp.html" target="_top" xlink:title=" ">
<polygon fill="white" stroke="black" points="261,-73 261,-92 363,-92 363,-73 261,-73"/>
<text text-anchor="middle" x="312" y="-80" font-family="Helvetica,sans-Serif" font-size="10.00">src/d/d_camera.cpp</text>
</a>
</g>
</g>
<!-- Node9&#45;&gt;Node11 -->
<g id="edge10" class="edge">
<title>Node9&#45;&gt;Node11</title>
<path fill="none" stroke="midnightblue" d="M2109.3,-148.55C1798.86,-148.36 713.62,-144.31 371,-98 361.28,-96.69 350.83,-94.41 341.47,-92.05"/>
<polygon fill="midnightblue" stroke="midnightblue" points="2109.57,-152.05 2119.57,-148.55 2109.57,-145.05 2109.57,-152.05"/>
</g>
<!-- Node12 -->
<g id="node12" class="node">
<title>Node12</title>
<g id="a_node12"><a xlink:href="d__file__sel__info_8cpp.html" target="_top" xlink:title=" ">
<polygon fill="white" stroke="black" points="380.5,-67.5 380.5,-97.5 469.5,-97.5 469.5,-67.5 380.5,-67.5"/>
<text text-anchor="start" x="388.5" y="-85.5" font-family="Helvetica,sans-Serif" font-size="10.00">src/d/d_file/d_file</text>
<text text-anchor="middle" x="425" y="-74.5" font-family="Helvetica,sans-Serif" font-size="10.00">_sel_info.cpp</text>
</a>
</g>
</g>
<!-- Node9&#45;&gt;Node12 -->
<g id="edge12" class="edge">
<title>Node9&#45;&gt;Node12</title>
<path fill="none" stroke="midnightblue" d="M2109.54,-148.37C1811.95,-147.53 803.56,-141.49 484,-98 479.3,-97.36 474.42,-96.5 469.59,-95.51"/>
<polygon fill="midnightblue" stroke="midnightblue" points="2109.82,-151.87 2119.83,-148.4 2109.84,-144.87 2109.82,-151.87"/>
</g>
<!-- Node13 -->
<g id="node13" class="node">
<title>Node13</title>
<g id="a_node13"><a xlink:href="d__item_8cpp.html" target="_top" xlink:title=" ">
<polygon fill="white" stroke="black" points="3718.5,-6 3718.5,-25 3839.5,-25 3839.5,-6 3718.5,-6"/>
<text text-anchor="middle" x="3779" y="-13" font-family="Helvetica,sans-Serif" font-size="10.00">src/d/d_item/d_item.cpp</text>
</a>
</g>
</g>
<!-- Node9&#45;&gt;Node13 -->
<g id="edge13" class="edge">
<title>Node9&#45;&gt;Node13</title>
<path fill="none" stroke="midnightblue" d="M2276.43,-148C2588.06,-145.83 3669.25,-135.63 3732,-98 3759.45,-81.53 3772.42,-42.51 3776.99,-25.12"/>
<polygon fill="midnightblue" stroke="midnightblue" points="2276.09,-144.5 2266.11,-148.07 2276.14,-151.5 2276.09,-144.5"/>
</g>
<!-- Node14 -->
<g id="node14" class="node">
<title>Node14</title>
<g id="a_node14"><a xlink:href="d__kankyo__rain_8cpp.html" target="_top" xlink:title=" ">
<polygon fill="white" stroke="black" points="526.5,-67.5 526.5,-97.5 653.5,-97.5 653.5,-67.5 526.5,-67.5"/>
<text text-anchor="start" x="534.5" y="-85.5" font-family="Helvetica,sans-Serif" font-size="10.00">src/d/d_kankyo/d_kankyo</text>
<text text-anchor="middle" x="590" y="-74.5" font-family="Helvetica,sans-Serif" font-size="10.00">_rain.cpp</text>
</a>
</g>
</g>
<!-- Node9&#45;&gt;Node14 -->
<g id="edge14" class="edge">
<title>Node9&#45;&gt;Node14</title>
<path fill="none" stroke="midnightblue" d="M2109.56,-147.57C1832.71,-144.2 945.95,-131.04 662,-98 659.21,-97.68 656.37,-97.3 653.51,-96.88"/>
<polygon fill="midnightblue" stroke="midnightblue" points="2109.9,-151.08 2119.94,-147.7 2109.98,-144.08 2109.9,-151.08"/>
</g>
<!-- Node15 -->
<g id="node15" class="node">
<title>Node15</title>
<g id="a_node15"><a xlink:href="d__kankyo__wether_8cpp.html" target="_top" xlink:title=" ">
<polygon fill="white" stroke="black" points="671.5,-67.5 671.5,-97.5 798.5,-97.5 798.5,-67.5 671.5,-67.5"/>
<text text-anchor="start" x="679.5" y="-85.5" font-family="Helvetica,sans-Serif" font-size="10.00">src/d/d_kankyo/d_kankyo</text>
<text text-anchor="middle" x="735" y="-74.5" font-family="Helvetica,sans-Serif" font-size="10.00">_wether.cpp</text>
</a>
</g>
</g>
<!-- Node9&#45;&gt;Node15 -->
<g id="edge15" class="edge">
<title>Node9&#45;&gt;Node15</title>
<path fill="none" stroke="midnightblue" d="M2109.59,-147.24C1850.43,-143.03 1061.4,-128.05 807,-98 804.21,-97.67 801.38,-97.29 798.51,-96.87"/>
<polygon fill="midnightblue" stroke="midnightblue" points="2109.63,-150.74 2119.69,-147.4 2109.74,-143.74 2109.63,-150.74"/>
</g>
<!-- Node16 -->
<g id="node16" class="node">
<title>Node16</title>
<g id="a_node16"><a xlink:href="d__kankyo_8cpp.html" target="_top" xlink:title=" ">
<polygon fill="white" stroke="black" points="816.5,-73 816.5,-92 917.5,-92 917.5,-73 816.5,-73"/>
<text text-anchor="middle" x="867" y="-80" font-family="Helvetica,sans-Serif" font-size="10.00">src/d/d_kankyo.cpp</text>
</a>
</g>
</g>
<!-- Node9&#45;&gt;Node16 -->
<g id="edge16" class="edge">
<title>Node9&#45;&gt;Node16</title>
<path fill="none" stroke="midnightblue" d="M2109.67,-147.37C1865.7,-143.7 1155.66,-130.46 926,-98 916.39,-96.64 906.07,-94.39 896.79,-92.06"/>
<polygon fill="midnightblue" stroke="midnightblue" points="2109.84,-150.87 2119.9,-147.52 2109.95,-143.87 2109.84,-150.87"/>
</g>
<!-- Node17 -->
<g id="node17" class="node">
<title>Node17</title>
<g id="a_node17"><a xlink:href="d__kantera__icon__meter_8cpp.html" target="_top" xlink:title=" ">
<polygon fill="white" stroke="black" points="935.5,-67.5 935.5,-97.5 1042.5,-97.5 1042.5,-67.5 935.5,-67.5"/>
<text text-anchor="start" x="943.5" y="-85.5" font-family="Helvetica,sans-Serif" font-size="10.00">src/d/d_kantera_icon</text>
<text text-anchor="middle" x="989" y="-74.5" font-family="Helvetica,sans-Serif" font-size="10.00">_meter.cpp</text>
</a>
</g>
</g>
<!-- Node9&#45;&gt;Node17 -->
<g id="edge17" class="edge">
<title>Node9&#45;&gt;Node17</title>
<path fill="none" stroke="midnightblue" d="M2109.75,-146.82C1882.63,-141.93 1255.64,-126.2 1051,-98 1048.26,-97.62 1045.47,-97.18 1042.65,-96.69"/>
<polygon fill="midnightblue" stroke="midnightblue" points="2109.86,-150.33 2119.94,-147.04 2110.01,-143.33 2109.86,-150.33"/>
</g>
<!-- Node18 -->
<g id="node18" class="node">
<title>Node18</title>
<g id="a_node18"><a xlink:href="d__meter__button_8cpp.html" target="_top" xlink:title=" ">
<polygon fill="white" stroke="black" points="1060.5,-67.5 1060.5,-97.5 1175.5,-97.5 1175.5,-67.5 1060.5,-67.5"/>
<text text-anchor="start" x="1068.5" y="-85.5" font-family="Helvetica,sans-Serif" font-size="10.00">src/d/d_meter/d_meter</text>
<text text-anchor="middle" x="1118" y="-74.5" font-family="Helvetica,sans-Serif" font-size="10.00">_button.cpp</text>
</a>
</g>
</g>
<!-- Node9&#45;&gt;Node18 -->
<g id="edge18" class="edge">
<title>Node9&#45;&gt;Node18</title>
<path fill="none" stroke="midnightblue" d="M2109.75,-149C1936.59,-149.01 1525.32,-143.71 1184,-98 1181.33,-97.64 1178.6,-97.23 1175.85,-96.78"/>
<polygon fill="midnightblue" stroke="midnightblue" points="2109.82,-152.5 2119.81,-148.99 2109.81,-145.5 2109.82,-152.5"/>
</g>
<!-- Node19 -->
<g id="node19" class="node">
<title>Node19</title>
<g id="a_node19"><a xlink:href="d__meter__haihai_8cpp.html" target="_top" xlink:title=" ">
<polygon fill="white" stroke="black" points="1193.5,-67.5 1193.5,-97.5 1308.5,-97.5 1308.5,-67.5 1193.5,-67.5"/>
<text text-anchor="start" x="1201.5" y="-85.5" font-family="Helvetica,sans-Serif" font-size="10.00">src/d/d_meter/d_meter</text>
<text text-anchor="middle" x="1251" y="-74.5" font-family="Helvetica,sans-Serif" font-size="10.00">_haihai.cpp</text>
</a>
</g>
</g>
<!-- Node9&#45;&gt;Node19 -->
<g id="edge19" class="edge">
<title>Node9&#45;&gt;Node19</title>
<path fill="none" stroke="midnightblue" d="M2109.94,-148.09C1953.86,-146.35 1606.43,-137.88 1317,-98 1314.33,-97.63 1311.6,-97.21 1308.85,-96.75"/>
<polygon fill="midnightblue" stroke="midnightblue" points="2109.9,-151.59 2119.94,-148.19 2109.98,-144.59 2109.9,-151.59"/>
</g>
<!-- Node20 -->
<g id="node20" class="node">
<title>Node20</title>
<g id="a_node20"><a xlink:href="d__meter__hakusha_8cpp.html" target="_top" xlink:title=" ">
<polygon fill="white" stroke="black" points="1326.5,-67.5 1326.5,-97.5 1441.5,-97.5 1441.5,-67.5 1326.5,-67.5"/>
<text text-anchor="start" x="1334.5" y="-85.5" font-family="Helvetica,sans-Serif" font-size="10.00">src/d/d_meter/d_meter</text>
<text text-anchor="middle" x="1384" y="-74.5" font-family="Helvetica,sans-Serif" font-size="10.00">_hakusha.cpp</text>
</a>
</g>
</g>
<!-- Node9&#45;&gt;Node20 -->
<g id="edge20" class="edge">
<title>Node9&#45;&gt;Node20</title>
<path fill="none" stroke="midnightblue" d="M2109.78,-146.87C1971.95,-143.26 1687.86,-132.02 1450,-98 1447.21,-97.6 1444.37,-97.15 1441.5,-96.66"/>
<polygon fill="midnightblue" stroke="midnightblue" points="2109.77,-150.37 2119.85,-147.12 2109.95,-143.37 2109.77,-150.37"/>
</g>
<!-- Node21 -->
<g id="node21" class="node">
<title>Node21</title>
<g id="a_node21"><a xlink:href="d__meter__map_8cpp.html" target="_top" xlink:title=" ">
<polygon fill="white" stroke="black" points="1459.5,-67.5 1459.5,-97.5 1574.5,-97.5 1574.5,-67.5 1459.5,-67.5"/>
<text text-anchor="start" x="1467.5" y="-85.5" font-family="Helvetica,sans-Serif" font-size="10.00">src/d/d_meter/d_meter</text>
<text text-anchor="middle" x="1517" y="-74.5" font-family="Helvetica,sans-Serif" font-size="10.00">_map.cpp</text>
</a>
</g>
</g>
<!-- Node9&#45;&gt;Node21 -->
<g id="edge21" class="edge">
<title>Node9&#45;&gt;Node21</title>
<path fill="none" stroke="midnightblue" d="M2109.83,-145.14C1992.04,-139.58 1770.11,-126.17 1583,-98 1580.22,-97.58 1577.37,-97.11 1574.51,-96.61"/>
<polygon fill="midnightblue" stroke="midnightblue" points="2109.71,-148.64 2119.86,-145.61 2110.04,-141.65 2109.71,-148.64"/>
</g>
<!-- Node22 -->
<g id="node22" class="node">
<title>Node22</title>
<g id="a_node22"><a xlink:href="d__meter__string_8cpp.html" target="_top" xlink:title=" ">
<polygon fill="white" stroke="black" points="1592.5,-67.5 1592.5,-97.5 1707.5,-97.5 1707.5,-67.5 1592.5,-67.5"/>
<text text-anchor="start" x="1600.5" y="-85.5" font-family="Helvetica,sans-Serif" font-size="10.00">src/d/d_meter/d_meter</text>
<text text-anchor="middle" x="1650" y="-74.5" font-family="Helvetica,sans-Serif" font-size="10.00">_string.cpp</text>
</a>
</g>
</g>
<!-- Node9&#45;&gt;Node22 -->
<g id="edge22" class="edge">
<title>Node9&#45;&gt;Node22</title>
<path fill="none" stroke="midnightblue" d="M2109.76,-142.5C2014.28,-134.96 1853.21,-120.26 1716,-98 1713.22,-97.55 1710.38,-97.06 1707.52,-96.53"/>
<polygon fill="midnightblue" stroke="midnightblue" points="2109.69,-146 2119.94,-143.29 2110.24,-139.03 2109.69,-146"/>
</g>
<!-- Node23 -->
<g id="node23" class="node">
<title>Node23</title>
<g id="a_node23"><a xlink:href="d__meter2__draw_8cpp.html" target="_top" xlink:title=" ">
<polygon fill="white" stroke="black" points="1725.5,-67.5 1725.5,-97.5 1850.5,-97.5 1850.5,-67.5 1725.5,-67.5"/>
<text text-anchor="start" x="1733.5" y="-85.5" font-family="Helvetica,sans-Serif" font-size="10.00">src/d/d_meter2/d_meter2</text>
<text text-anchor="middle" x="1788" y="-74.5" font-family="Helvetica,sans-Serif" font-size="10.00">_draw.cpp</text>
</a>
</g>
</g>
<!-- Node9&#45;&gt;Node23 -->
<g id="edge23" class="edge">
<title>Node9&#45;&gt;Node23</title>
<path fill="none" stroke="midnightblue" d="M2109.67,-137.11C2041.98,-127.57 1944.13,-113.12 1859,-98 1856.27,-97.52 1853.49,-97.01 1850.69,-96.48"/>
<polygon fill="midnightblue" stroke="midnightblue" points="2109.46,-140.62 2119.85,-138.54 2110.43,-133.69 2109.46,-140.62"/>
</g>
<!-- Node24 -->
<g id="node24" class="node">
<title>Node24</title>
<g id="a_node24"><a xlink:href="d__meter2__info_8cpp.html" target="_top" xlink:title=" ">
<polygon fill="white" stroke="black" points="1868.5,-67.5 1868.5,-97.5 1993.5,-97.5 1993.5,-67.5 1868.5,-67.5"/>
<text text-anchor="start" x="1876.5" y="-85.5" font-family="Helvetica,sans-Serif" font-size="10.00">src/d/d_meter2/d_meter2</text>
<text text-anchor="middle" x="1931" y="-74.5" font-family="Helvetica,sans-Serif" font-size="10.00">_info.cpp</text>
</a>
</g>
</g>
<!-- Node9&#45;&gt;Node24 -->
<g id="edge24" class="edge">
<title>Node9&#45;&gt;Node24</title>
<path fill="none" stroke="midnightblue" d="M2126.7,-132.05C2083.87,-121.43 2028.71,-107.74 1987.88,-97.61"/>
<polygon fill="midnightblue" stroke="midnightblue" points="2125.92,-135.47 2136.47,-134.48 2127.61,-128.67 2125.92,-135.47"/>
</g>
<!-- Node25 -->
<g id="node25" class="node">
<title>Node25</title>
<g id="a_node25"><a xlink:href="d__meter2_8cpp.html" target="_top" xlink:title=" ">
<polygon fill="white" stroke="black" points="2012,-73 2012,-92 2112,-92 2112,-73 2012,-73"/>
<text text-anchor="middle" x="2062" y="-80" font-family="Helvetica,sans-Serif" font-size="10.00">src/d/d_meter2.cpp</text>
</a>
</g>
</g>
<!-- Node9&#45;&gt;Node25 -->
<g id="edge25" class="edge">
<title>Node9&#45;&gt;Node25</title>
<path fill="none" stroke="midnightblue" d="M2155.32,-129.8C2130.2,-117.34 2098.39,-101.56 2079.14,-92.01"/>
<polygon fill="midnightblue" stroke="midnightblue" points="2154.06,-133.09 2164.57,-134.4 2157.17,-126.82 2154.06,-133.09"/>
</g>
<!-- Node26 -->
<g id="node26" class="node">
<title>Node26</title>
<g id="a_node26"><a xlink:href="d__save_8cpp.html" target="_top" xlink:title=" ">
<polygon fill="white" stroke="black" points="2130.5,-73 2130.5,-92 2255.5,-92 2255.5,-73 2130.5,-73"/>
<text text-anchor="middle" x="2193" y="-80" font-family="Helvetica,sans-Serif" font-size="10.00">src/d/d_save/d_save.cpp</text>
</a>
</g>
</g>
<!-- Node9&#45;&gt;Node26 -->
<g id="edge26" class="edge">
<title>Node9&#45;&gt;Node26</title>
<path fill="none" stroke="midnightblue" d="M2193,-124.25C2193,-113.02 2193,-100.38 2193,-92.19"/>
<polygon fill="midnightblue" stroke="midnightblue" points="2189.5,-124.4 2193,-134.4 2196.5,-124.4 2189.5,-124.4"/>
</g>
<!-- Node27 -->
<g id="node27" class="node">
<title>Node27</title>
<g id="a_node27"><a xlink:href="d__save__HIO_8cpp.html" target="_top" xlink:title=" ">
<polygon fill="white" stroke="black" points="4150.5,-67.5 4150.5,-97.5 4257.5,-97.5 4257.5,-67.5 4150.5,-67.5"/>
<text text-anchor="start" x="4158.5" y="-85.5" font-family="Helvetica,sans-Serif" font-size="10.00">src/d/d_save/d_save</text>
<text text-anchor="middle" x="4204" y="-74.5" font-family="Helvetica,sans-Serif" font-size="10.00">_HIO.cpp</text>
</a>
</g>
</g>
<!-- Node9&#45;&gt;Node27 -->
<g id="edge27" class="edge">
<title>Node9&#45;&gt;Node27</title>
<path fill="none" stroke="midnightblue" d="M2276.24,-148.22C2598.37,-146.82 3763.38,-139 4131,-98 4137.29,-97.3 4143.85,-96.33 4150.34,-95.23"/>
<polygon fill="midnightblue" stroke="midnightblue" points="2276.03,-144.72 2266.05,-148.26 2276.06,-151.72 2276.03,-144.72"/>
</g>
<!-- Node28 -->
<g id="node28" class="node">
<title>Node28</title>
<g id="a_node28"><a xlink:href="d__stage_8cpp.html" target="_top" xlink:title=" ">
<polygon fill="white" stroke="black" points="2274,-73 2274,-92 2368,-92 2368,-73 2274,-73"/>
<text text-anchor="middle" x="2321" y="-80" font-family="Helvetica,sans-Serif" font-size="10.00">src/d/d_stage.cpp</text>
</a>
</g>
</g>
<!-- Node9&#45;&gt;Node28 -->
<g id="edge28" class="edge">
<title>Node9&#45;&gt;Node28</title>
<path fill="none" stroke="midnightblue" d="M2229.82,-129.8C2254.36,-117.34 2285.44,-101.56 2304.25,-92.01"/>
<polygon fill="midnightblue" stroke="midnightblue" points="2228.11,-126.75 2220.77,-134.4 2231.28,-132.99 2228.11,-126.75"/>
</g>
<!-- Node29 -->
<g id="node29" class="node">
<title>Node29</title>
<g id="a_node29"><a xlink:href="f__pc__manager_8cpp.html" target="_top" xlink:title=" ">
<polygon fill="white" stroke="black" points="2028,-6 2028,-25 2168,-25 2168,-6 2028,-6"/>
<text text-anchor="middle" x="2098" y="-13" font-family="Helvetica,sans-Serif" font-size="10.00">src/f/f_pc/f_pc_manager.cpp</text>
</a>
</g>
</g>
<!-- Node9&#45;&gt;Node29 -->
<g id="edge29" class="edge">
<title>Node9&#45;&gt;Node29</title>
<path fill="none" stroke="midnightblue" d="M2276.51,-148.9C2587.71,-149.99 3664.7,-149.99 3715,-98 3724.58,-88.1 3724.59,-76.89 3715,-67 3687.69,-38.83 2475.57,-21.36 2168.25,-17.37"/>
<polygon fill="midnightblue" stroke="midnightblue" points="2276.22,-145.4 2266.21,-148.86 2276.19,-152.4 2276.22,-145.4"/>
</g>
<!-- Node30 -->
<g id="node30" class="node">
<title>Node30</title>
<g id="a_node30"><a xlink:href="m__Do__audio_8cpp.html" target="_top" xlink:title=" ">
<polygon fill="white" stroke="black" points="4298,-73 4298,-92 4432,-92 4432,-73 4298,-73"/>
<text text-anchor="middle" x="4365" y="-80" font-family="Helvetica,sans-Serif" font-size="10.00">src/m_Do/m_Do_audio.cpp</text>
</a>
</g>
</g>
<!-- Node9&#45;&gt;Node30 -->
<g id="edge30" class="edge">
<title>Node9&#45;&gt;Node30</title>
<path fill="none" stroke="midnightblue" d="M2276.36,-147.84C2612.66,-144.94 3870.42,-132.04 4267,-98 4282.85,-96.64 4300.04,-94.37 4315.53,-92.02"/>
<polygon fill="midnightblue" stroke="midnightblue" points="2276.18,-144.34 2266.21,-147.92 2276.24,-151.34 2276.18,-144.34"/>
</g>
<!-- Node31 -->
<g id="node31" class="node">
<title>Node31</title>
<g id="a_node31"><a xlink:href="m__Do__ext_8cpp.html" target="_top" xlink:title=" ">
<polygon fill="white" stroke="black" points="2386.5,-73 2386.5,-92 2509.5,-92 2509.5,-73 2386.5,-73"/>
<text text-anchor="middle" x="2448" y="-80" font-family="Helvetica,sans-Serif" font-size="10.00">src/m_Do/m_Do_ext.cpp</text>
</a>
</g>
</g>
<!-- Node9&#45;&gt;Node31 -->
<g id="edge31" class="edge">
<title>Node9&#45;&gt;Node31</title>
<path fill="none" stroke="midnightblue" d="M2257.77,-131.99C2307.74,-119.25 2374.84,-102.15 2414.54,-92.03"/>
<polygon fill="midnightblue" stroke="midnightblue" points="2256.84,-128.61 2248.02,-134.48 2258.57,-135.4 2256.84,-128.61"/>
</g>
<!-- Node32 -->
<g id="node32" class="node">
<title>Node32</title>
<g id="a_node32"><a xlink:href="m__Do__lib_8cpp.html" target="_top" xlink:title=" ">
<polygon fill="white" stroke="black" points="2528,-73 2528,-92 2648,-92 2648,-73 2528,-73"/>
<text text-anchor="middle" x="2588" y="-80" font-family="Helvetica,sans-Serif" font-size="10.00">src/m_Do/m_Do_lib.cpp</text>
</a>
</g>
</g>
<!-- Node9&#45;&gt;Node32 -->
<g id="edge32" class="edge">
<title>Node9&#45;&gt;Node32</title>
<path fill="none" stroke="midnightblue" d="M2276,-136.77C2341.79,-127.2 2435.97,-112.86 2518,-98 2527.89,-96.21 2538.53,-94.1 2548.46,-92.05"/>
<polygon fill="midnightblue" stroke="midnightblue" points="2275.5,-133.31 2266.1,-138.21 2276.5,-140.24 2275.5,-133.31"/>
</g>
<!-- Node33 -->
<g id="node33" class="node">
<title>Node33</title>
<g id="a_node33"><a xlink:href="m__Do__MemCardRWmng_8cpp.html" target="_top" xlink:title=" ">
<polygon fill="white" stroke="black" points="2665.5,-73 2665.5,-92 2852.5,-92 2852.5,-73 2665.5,-73"/>
<text text-anchor="middle" x="2759" y="-80" font-family="Helvetica,sans-Serif" font-size="10.00">src/m_Do/m_Do_MemCardRWmng.cpp</text>
</a>
</g>
</g>
<!-- Node9&#45;&gt;Node33 -->
<g id="edge34" class="edge">
<title>Node9&#45;&gt;Node33</title>
<path fill="none" stroke="midnightblue" d="M2276.41,-140.25C2369.36,-130.87 2524.09,-114.67 2657,-98 2671.38,-96.2 2686.87,-94.08 2701.33,-92.04"/>
<polygon fill="midnightblue" stroke="midnightblue" points="2275.82,-136.8 2266.22,-141.28 2276.52,-143.76 2275.82,-136.8"/>
</g>
<!-- Node34 -->
<g id="node34" class="node">
<title>Node34</title>
<g id="a_node34"><a xlink:href="Z2EnvSeMgr_8cpp.html" target="_top" xlink:title=" ">
<polygon fill="white" stroke="black" points="2870.5,-73 2870.5,-92 3031.5,-92 3031.5,-73 2870.5,-73"/>
<text text-anchor="middle" x="2951" y="-80" font-family="Helvetica,sans-Serif" font-size="10.00">libs/Z2AudioLib/Z2EnvSeMgr.cpp</text>
</a>
</g>
</g>
<!-- Node9&#45;&gt;Node34 -->
<g id="edge35" class="edge">
<title>Node9&#45;&gt;Node34</title>
<path fill="none" stroke="midnightblue" d="M2276.36,-144.46C2402.99,-137.81 2651.27,-122.78 2861,-98 2874.67,-96.38 2889.45,-94.19 2903,-92"/>
<polygon fill="midnightblue" stroke="midnightblue" points="2276.15,-140.97 2266.34,-144.98 2276.51,-147.96 2276.15,-140.97"/>
</g>
<!-- Node35 -->
<g id="node35" class="node">
<title>Node35</title>
<g id="a_node35"><a xlink:href="Z2LinkMgr_8cpp.html" target="_top" xlink:title=" ">
<polygon fill="white" stroke="black" points="3050,-73 3050,-92 3202,-92 3202,-73 3050,-73"/>
<text text-anchor="middle" x="3126" y="-80" font-family="Helvetica,sans-Serif" font-size="10.00">libs/Z2AudioLib/Z2LinkMgr.cpp</text>
</a>
</g>
</g>
<!-- Node9&#45;&gt;Node35 -->
<g id="edge36" class="edge">
<title>Node9&#45;&gt;Node35</title>
<path fill="none" stroke="midnightblue" d="M2276.32,-146.56C2428.6,-142.35 2761.88,-130.02 3041,-98 3054.24,-96.48 3068.54,-94.27 3081.58,-92.02"/>
<polygon fill="midnightblue" stroke="midnightblue" points="2276.01,-143.07 2266.11,-146.84 2276.2,-150.07 2276.01,-143.07"/>
</g>
<!-- Node36 -->
<g id="node36" class="node">
<title>Node36</title>
<g id="a_node36"><a xlink:href="Z2SceneMgr_8cpp.html" target="_top" xlink:title=" ">
<polygon fill="white" stroke="black" points="3220.5,-73 3220.5,-92 3381.5,-92 3381.5,-73 3220.5,-73"/>
<text text-anchor="middle" x="3301" y="-80" font-family="Helvetica,sans-Serif" font-size="10.00">libs/Z2AudioLib/Z2SceneMgr.cpp</text>
</a>
</g>
</g>
<!-- Node9&#45;&gt;Node36 -->
<g id="edge37" class="edge">
<title>Node9&#45;&gt;Node36</title>
<path fill="none" stroke="midnightblue" d="M2276.15,-147.47C2450.12,-144.65 2865.04,-134.34 3211,-98 3225.17,-96.51 3240.5,-94.28 3254.42,-92.01"/>
<polygon fill="midnightblue" stroke="midnightblue" points="2275.98,-143.98 2266.04,-147.63 2276.1,-150.98 2275.98,-143.98"/>
</g>
<!-- Node37 -->
<g id="node37" class="node">
<title>Node37</title>
<g id="a_node37"><a xlink:href="Z2SoundMgr_8cpp.html" target="_top" xlink:title=" ">
<polygon fill="white" stroke="black" points="3399.5,-73 3399.5,-92 3560.5,-92 3560.5,-73 3399.5,-73"/>
<text text-anchor="middle" x="3480" y="-80" font-family="Helvetica,sans-Serif" font-size="10.00">libs/Z2AudioLib/Z2SoundMgr.cpp</text>
</a>
</g>
</g>
<!-- Node9&#45;&gt;Node37 -->
<g id="edge38" class="edge">
<title>Node9&#45;&gt;Node37</title>
<path fill="none" stroke="midnightblue" d="M2276.33,-148.4C2471.63,-147.43 2973.92,-140.61 3391,-98 3405.17,-96.55 3420.51,-94.3 3434.4,-92"/>
<polygon fill="midnightblue" stroke="midnightblue" points="2276.13,-144.9 2266.15,-148.45 2276.16,-151.9 2276.13,-144.9"/>
</g>
<!-- Node38 -->
<g id="node38" class="node">
<title>Node38</title>
<g id="a_node38"><a xlink:href="Z2StatusMgr_8cpp.html" target="_top" xlink:title=" ">
<polygon fill="white" stroke="black" points="3578.5,-67.5 3578.5,-97.5 3705.5,-97.5 3705.5,-67.5 3578.5,-67.5"/>
<text text-anchor="start" x="3586.5" y="-85.5" font-family="Helvetica,sans-Serif" font-size="10.00">libs/Z2AudioLib/Z2Status</text>
<text text-anchor="middle" x="3642" y="-74.5" font-family="Helvetica,sans-Serif" font-size="10.00">Mgr.cpp</text>
</a>
</g>
</g>
<!-- Node9&#45;&gt;Node38 -->
<g id="edge39" class="edge">
<title>Node9&#45;&gt;Node38</title>
<path fill="none" stroke="midnightblue" d="M2276.32,-147.22C2534.25,-142.96 3317.39,-127.87 3570,-98 3572.79,-97.67 3575.62,-97.29 3578.49,-96.87"/>
<polygon fill="midnightblue" stroke="midnightblue" points="2276.21,-143.72 2266.27,-147.38 2276.32,-150.72 2276.21,-143.72"/>
</g>
<!-- Node39 -->
<g id="node39" class="node">
<title>Node39</title>
<g id="a_node39"><a xlink:href="d__a__alink_8h.html" target="_top" xlink:title=" ">
<polygon fill="white" stroke="black" points="9.5,-67.5 9.5,-97.5 128.5,-97.5 128.5,-67.5 9.5,-67.5"/>
<text text-anchor="start" x="17.5" y="-85.5" font-family="Helvetica,sans-Serif" font-size="10.00">include/d/d_a/d_a_alink</text>
<text text-anchor="middle" x="69" y="-74.5" font-family="Helvetica,sans-Serif" font-size="10.00">/d_a_alink.h</text>
</a>
</g>
</g>
<!-- Node9&#45;&gt;Node39 -->
<g id="edge40" class="edge">
<title>Node9&#45;&gt;Node39</title>
<path fill="none" stroke="midnightblue" d="M2109.73,-148.52C1775.24,-148.26 528.65,-144.16 137,-98 134.24,-97.68 131.43,-97.29 128.6,-96.86"/>
<polygon fill="midnightblue" stroke="midnightblue" points="2109.83,-152.02 2119.83,-148.52 2109.83,-145.02 2109.83,-152.02"/>
</g>
<!-- Node42 -->
<g id="node42" class="node">
<title>Node42</title>
<g id="a_node42"><a xlink:href="d__item_8h.html" target="_top" xlink:title=" ">
<polygon fill="white" stroke="black" points="3800,-67.5 3800,-97.5 3896,-97.5 3896,-67.5 3800,-67.5"/>
<text text-anchor="start" x="3808" y="-85.5" font-family="Helvetica,sans-Serif" font-size="10.00">include/d/d_item/d</text>
<text text-anchor="middle" x="3848" y="-74.5" font-family="Helvetica,sans-Serif" font-size="10.00">_item/d_item.h</text>
</a>
</g>
</g>
<!-- Node9&#45;&gt;Node42 -->
<g id="edge45" class="edge">
<title>Node9&#45;&gt;Node42</title>
<path fill="none" stroke="midnightblue" d="M2276.48,-148.04C2560.77,-146.11 3489.94,-136.92 3786,-98 3790.49,-97.41 3795.14,-96.64 3799.77,-95.75"/>
<polygon fill="midnightblue" stroke="midnightblue" points="2276.21,-144.54 2266.24,-148.1 2276.26,-151.54 2276.21,-144.54"/>
</g>
<!-- Node43 -->
<g id="node43" class="node">
<title>Node43</title>
<g id="a_node43"><a xlink:href="f__pc__manager_8h.html" target="_top" xlink:title=" ">
<polygon fill="white" stroke="black" points="146.5,-67.5 146.5,-97.5 243.5,-97.5 243.5,-67.5 146.5,-67.5"/>
<text text-anchor="start" x="154.5" y="-85.5" font-family="Helvetica,sans-Serif" font-size="10.00">include/f/f_pc/f_pc</text>
<text text-anchor="middle" x="195" y="-74.5" font-family="Helvetica,sans-Serif" font-size="10.00">_manager.h</text>
</a>
</g>
</g>
<!-- Node9&#45;&gt;Node43 -->
<g id="edge48" class="edge">
<title>Node9&#45;&gt;Node43</title>
<path fill="none" stroke="midnightblue" d="M2109.56,-148.8C1786.66,-149.59 618.97,-148.8 252,-98 249.27,-97.62 246.48,-97.16 243.68,-96.64"/>
<polygon fill="midnightblue" stroke="midnightblue" points="2109.78,-152.3 2119.78,-148.78 2109.77,-145.3 2109.78,-152.3"/>
</g>
<!-- Node39&#45;&gt;Node10 -->
<g id="edge41" class="edge">
<title>Node39&#45;&gt;Node10</title>
<path fill="none" stroke="midnightblue" d="M138.54,-66.73C223.93,-50.01 312.47,-34.35 366.27,-25.02"/>
<polygon fill="midnightblue" stroke="midnightblue" points="137.82,-63.3 128.68,-68.66 139.17,-70.17 137.82,-63.3"/>
</g>
<!-- Node40 -->
<g id="node40" class="node">
<title>Node40</title>
<g id="a_node40"><a xlink:href="d__a__alink_8cpp.html" target="_top" xlink:title=" ">
<polygon fill="white" stroke="black" points="142.5,-6 142.5,-25 261.5,-25 261.5,-6 142.5,-6"/>
<text text-anchor="middle" x="202" y="-13" font-family="Helvetica,sans-Serif" font-size="10.00">src/d/d_a/d_a_alink.cpp</text>
</a>
</g>
</g>
<!-- Node39&#45;&gt;Node40 -->
<g id="edge42" class="edge">
<title>Node39&#45;&gt;Node40</title>
<path fill="none" stroke="midnightblue" d="M106.92,-62.97C132.47,-50.48 164.97,-34.6 184.59,-25.01"/>
<polygon fill="midnightblue" stroke="midnightblue" points="105.31,-59.86 97.86,-67.4 108.38,-66.15 105.31,-59.86"/>
</g>
<!-- Node41 -->
<g id="node41" class="node">
<title>Node41</title>
<g id="a_node41"><a xlink:href="d__a__player_8h.html" target="_top" xlink:title=" ">
<polygon fill="white" stroke="black" points="0,-0.5 0,-30.5 124,-30.5 124,-0.5 0,-0.5"/>
<text text-anchor="start" x="8" y="-18.5" font-family="Helvetica,sans-Serif" font-size="10.00">include/d/d_a/d_a_player</text>
<text text-anchor="middle" x="62" y="-7.5" font-family="Helvetica,sans-Serif" font-size="10.00">/d_a_player.h</text>
</a>
</g>
</g>
<!-- Node39&#45;&gt;Node41 -->
<g id="edge43" class="edge">
<title>Node39&#45;&gt;Node41</title>
<path fill="none" stroke="midnightblue" d="M59.86,-57.4C58.44,-48.37 57.65,-38.41 57.84,-30.58"/>
<polygon fill="midnightblue" stroke="midnightblue" points="56.46,-58.25 61.8,-67.4 63.33,-56.91 56.46,-58.25"/>
</g>
<!-- Node41&#45;&gt;Node39 -->
<g id="edge44" class="edge">
<title>Node41&#45;&gt;Node39</title>
<path fill="none" stroke="midnightblue" d="M71.14,-40.57C72.56,-49.6 73.34,-59.56 73.16,-67.4"/>
<polygon fill="midnightblue" stroke="midnightblue" points="74.54,-39.72 69.19,-30.58 67.67,-41.06 74.54,-39.72"/>
</g>
<!-- Node42&#45;&gt;Node5 -->
<g id="edge46" class="edge">
<title>Node42&#45;&gt;Node5</title>
<path fill="none" stroke="midnightblue" d="M3872.11,-60.88C3883.66,-51.01 3897.19,-39.43 3907.54,-30.58"/>
<polygon fill="midnightblue" stroke="midnightblue" points="3869.82,-58.24 3864.49,-67.4 3874.37,-63.56 3869.82,-58.24"/>
</g>
<!-- Node42&#45;&gt;Node13 -->
<g id="edge47" class="edge">
<title>Node42&#45;&gt;Node13</title>
<path fill="none" stroke="midnightblue" d="M3825.53,-60.34C3812.86,-48.4 3797.72,-34.14 3788.23,-25.19"/>
<polygon fill="midnightblue" stroke="midnightblue" points="3823.35,-63.09 3833.03,-67.4 3828.15,-57.99 3823.35,-63.09"/>
</g>
<!-- Node43&#45;&gt;Node29 -->
<g id="edge49" class="edge">
<title>Node43&#45;&gt;Node29</title>
<path fill="none" stroke="midnightblue" d="M253.64,-67.01C624.81,-17.93 1736.5,-16 2027.62,-16.34"/>
<polygon fill="midnightblue" stroke="midnightblue" points="253.11,-63.55 243.68,-68.36 254.06,-70.48 253.11,-63.55"/>
</g>
<!-- Node43&#45;&gt;Node40 -->
<g id="edge50" class="edge">
<title>Node43&#45;&gt;Node40</title>
<path fill="none" stroke="midnightblue" d="M197.61,-57.25C198.82,-46.02 200.18,-33.38 201.06,-25.19"/>
<polygon fill="midnightblue" stroke="midnightblue" points="194.11,-57.08 196.52,-67.4 201.07,-57.83 194.11,-57.08"/>
</g>
<!-- Node44&#45;&gt;Node7 -->
<g id="edge54" class="edge">
<title>Node44&#45;&gt;Node7</title>
<path fill="none" stroke="midnightblue" d="M4088.39,-196.06C4076.02,-188.27 4064.02,-178 4057,-165 4044.22,-141.34 4049.86,-107.91 4053.62,-92.24"/>
<polygon fill="midnightblue" stroke="midnightblue" points="4086.99,-199.29 4097.4,-201.3 4090.51,-193.24 4086.99,-199.29"/>
</g>
<!-- Node44&#45;&gt;Node30 -->
<g id="edge52" class="edge">
<title>Node44&#45;&gt;Node30</title>
<path fill="none" stroke="midnightblue" d="M4207.75,-207.99C4265.14,-200.63 4337.36,-187.21 4357,-165 4375.08,-144.55 4370.54,-108.93 4367.14,-92.4"/>
<polygon fill="midnightblue" stroke="midnightblue" points="4207.08,-204.54 4197.58,-209.25 4207.94,-211.49 4207.08,-204.54"/>
</g>
<!-- Node45 -->
<g id="node45" class="node">
<title>Node45</title>
<g id="a_node45"><a xlink:href="m__Do__controller__pad_8cpp.html" target="_top" xlink:title=" ">
<polygon fill="white" stroke="black" points="4066,-134.5 4066,-164.5 4198,-164.5 4198,-134.5 4066,-134.5"/>
<text text-anchor="start" x="4074" y="-152.5" font-family="Helvetica,sans-Serif" font-size="10.00">src/m_Do/m_Do_controller</text>
<text text-anchor="middle" x="4132" y="-141.5" font-family="Helvetica,sans-Serif" font-size="10.00">_pad.cpp</text>
</a>
</g>
</g>
<!-- Node44&#45;&gt;Node45 -->
<g id="edge53" class="edge">
<title>Node44&#45;&gt;Node45</title>
<path fill="none" stroke="midnightblue" d="M4132,-191.11C4132,-182.15 4132,-172.32 4132,-164.58"/>
<polygon fill="midnightblue" stroke="midnightblue" points="4128.5,-191.4 4132,-201.4 4135.5,-191.4 4128.5,-191.4"/>
</g>
<!-- Node46 -->
<g id="node46" class="node">
<title>Node46</title>
<g id="a_node46"><a xlink:href="d__save__HIO_8h.html" target="_top" xlink:title=" ">
<polygon fill="white" stroke="black" points="4216.5,-134.5 4216.5,-164.5 4347.5,-164.5 4347.5,-134.5 4216.5,-134.5"/>
<text text-anchor="start" x="4224.5" y="-152.5" font-family="Helvetica,sans-Serif" font-size="10.00">include/d/d_save/d</text>
<text text-anchor="middle" x="4282" y="-141.5" font-family="Helvetica,sans-Serif" font-size="10.00">_save_HIO/d_save_HIO.h</text>
</a>
</g>
</g>
<!-- Node44&#45;&gt;Node46 -->
<g id="edge55" class="edge">
<title>Node44&#45;&gt;Node46</title>
<path fill="none" stroke="midnightblue" d="M4173.75,-197.41C4197.7,-187.03 4227.32,-174.2 4249.52,-164.58"/>
<polygon fill="midnightblue" stroke="midnightblue" points="4172.33,-194.21 4164.55,-201.4 4175.11,-200.63 4172.33,-194.21"/>
</g>
<!-- Node46&#45;&gt;Node27 -->
<g id="edge56" class="edge">
<title>Node46&#45;&gt;Node27</title>
<path fill="none" stroke="midnightblue" d="M4257.26,-127.88C4245.41,-118.01 4231.52,-106.43 4220.89,-97.58"/>
<polygon fill="midnightblue" stroke="midnightblue" points="4255.15,-130.68 4265.08,-134.4 4259.63,-125.31 4255.15,-130.68"/>
</g>
</g>
</svg>
