<?xml version="1.0" encoding="UTF-8" standalone="no"?>
<!DOCTYPE svg PUBLIC "-//W3C//DTD SVG 1.1//EN"
 "http://www.w3.org/Graphics/SVG/1.1/DTD/svg11.dtd">
<!-- Generated by graphviz version 2.46.0 (20210122.1329)
 -->
<!-- Title: include/JSystem/JKernel/JKRFileLoader/JKRFileLoader.h Pages: 1 -->
<svg width="4159pt" height="374pt"
 viewBox="0.00 0.00 4159.00 374.00" xmlns="http://www.w3.org/2000/svg" xmlns:xlink="http://www.w3.org/1999/xlink">
<g id="graph0" class="graph" transform="scale(1 1) rotate(0) translate(4 370)">
<title>include/JSystem/JKernel/JKRFileLoader/JKRFileLoader.h</title>
<polygon fill="white" stroke="transparent" points="-4,4 -4,-370 4155,-370 4155,4 -4,4"/>
<!-- Node1 -->
<g id="node1" class="node">
<title>Node1</title>
<g id="a_node1"><a xlink:title=" ">
<polygon fill="#bfbfbf" stroke="black" points="3698,-335.5 3698,-365.5 3857,-365.5 3857,-335.5 3698,-335.5"/>
<text text-anchor="start" x="3706" y="-353.5" font-family="Helvetica,sans-Serif" font-size="10.00">include/JSystem/JKernel</text>
<text text-anchor="middle" x="3777.5" y="-342.5" font-family="Helvetica,sans-Serif" font-size="10.00">/JKRFileLoader/JKRFileLoader.h</text>
</a>
</g>
</g>
<!-- Node2 -->
<g id="node2" class="node">
<title>Node2</title>
<g id="a_node2"><a xlink:href="JKRArchivePub_8cpp.html" target="_top" xlink:title=" ">
<polygon fill="white" stroke="black" points="3525,-129 3525,-159 3634,-159 3634,-129 3525,-129"/>
<text text-anchor="start" x="3533" y="-147" font-family="Helvetica,sans-Serif" font-size="10.00">libs/JSystem/JKernel</text>
<text text-anchor="middle" x="3579.5" y="-136" font-family="Helvetica,sans-Serif" font-size="10.00">/JKRArchivePub.cpp</text>
</a>
</g>
</g>
<!-- Node1&#45;&gt;Node2 -->
<g id="edge1" class="edge">
<title>Node1&#45;&gt;Node2</title>
<path fill="none" stroke="midnightblue" d="M3790.53,-326.45C3806.57,-294.66 3828.35,-237.21 3799.5,-201 3754.89,-145.01 3711.56,-183.85 3642.5,-165 3635.86,-163.19 3628.87,-161.13 3622.06,-159.03"/>
<polygon fill="midnightblue" stroke="midnightblue" points="3787.36,-324.96 3785.8,-335.44 3793.56,-328.22 3787.36,-324.96"/>
</g>
<!-- Node3 -->
<g id="node3" class="node">
<title>Node3</title>
<g id="a_node3"><a xlink:href="JKRFileLoader_8cpp.html" target="_top" xlink:title=" ">
<polygon fill="white" stroke="black" points="3682,-268.5 3682,-298.5 3791,-298.5 3791,-268.5 3682,-268.5"/>
<text text-anchor="start" x="3690" y="-286.5" font-family="Helvetica,sans-Serif" font-size="10.00">libs/JSystem/JKernel</text>
<text text-anchor="middle" x="3736.5" y="-275.5" font-family="Helvetica,sans-Serif" font-size="10.00">/JKRFileLoader.cpp</text>
</a>
</g>
</g>
<!-- Node1&#45;&gt;Node3 -->
<g id="edge2" class="edge">
<title>Node1&#45;&gt;Node3</title>
<path fill="none" stroke="midnightblue" d="M3763.22,-326.87C3757.29,-317.46 3750.59,-306.83 3745.38,-298.58"/>
<polygon fill="midnightblue" stroke="midnightblue" points="3760.31,-328.81 3768.6,-335.4 3766.23,-325.07 3760.31,-328.81"/>
</g>
<!-- Node4 -->
<g id="node4" class="node">
<title>Node4</title>
<g id="a_node4"><a xlink:href="JKRArchive_8h.html" target="_top" xlink:title=" ">
<polygon fill="white" stroke="black" points="3280.5,-268.5 3280.5,-298.5 3414.5,-298.5 3414.5,-268.5 3280.5,-268.5"/>
<text text-anchor="start" x="3288.5" y="-286.5" font-family="Helvetica,sans-Serif" font-size="10.00">include/JSystem/JKernel</text>
<text text-anchor="middle" x="3347.5" y="-275.5" font-family="Helvetica,sans-Serif" font-size="10.00">/JKRArchive/JKRArchive.h</text>
</a>
</g>
</g>
<!-- Node1&#45;&gt;Node4 -->
<g id="edge3" class="edge">
<title>Node1&#45;&gt;Node4</title>
<path fill="none" stroke="midnightblue" d="M3687.64,-335.92C3606.24,-323.61 3488.13,-305.76 3414.67,-294.65"/>
<polygon fill="midnightblue" stroke="midnightblue" points="3687.47,-339.43 3697.88,-337.46 3688.51,-332.51 3687.47,-339.43"/>
</g>
<!-- Node69 -->
<g id="node49" class="node">
<title>Node69</title>
<g id="a_node49"><a xlink:href="JKRFileCache_8h.html" target="_top" xlink:title=" ">
<polygon fill="white" stroke="black" points="3933,-268.5 3933,-298.5 4088,-298.5 4088,-268.5 3933,-268.5"/>
<text text-anchor="start" x="3941" y="-286.5" font-family="Helvetica,sans-Serif" font-size="10.00">include/JSystem/JKernel</text>
<text text-anchor="middle" x="4010.5" y="-275.5" font-family="Helvetica,sans-Serif" font-size="10.00">/JKRFileCache/JKRFileCache.h</text>
</a>
</g>
</g>
<!-- Node1&#45;&gt;Node69 -->
<g id="edge58" class="edge">
<title>Node1&#45;&gt;Node69</title>
<path fill="none" stroke="midnightblue" d="M3837.67,-332.71C3875.58,-322.14 3923.99,-308.63 3959.92,-298.61"/>
<polygon fill="midnightblue" stroke="midnightblue" points="3836.46,-329.42 3827.77,-335.48 3838.34,-336.16 3836.46,-329.42"/>
</g>
<!-- Node4&#45;&gt;Node2 -->
<g id="edge5" class="edge">
<title>Node4&#45;&gt;Node2</title>
<path fill="none" stroke="midnightblue" d="M3389.46,-264.07C3408.07,-255.26 3429.91,-244.02 3448.5,-232 3466.8,-220.17 3468.67,-213.54 3486.5,-201 3508.54,-185.49 3534.98,-169.84 3554.02,-159.04"/>
<polygon fill="midnightblue" stroke="midnightblue" points="3387.92,-260.93 3380.34,-268.32 3390.88,-267.27 3387.92,-260.93"/>
</g>
<!-- Node5 -->
<g id="node5" class="node">
<title>Node5</title>
<g id="a_node5"><a xlink:href="JKRArchivePri_8cpp.html" target="_top" xlink:title=" ">
<polygon fill="white" stroke="black" points="3682,-201.5 3682,-231.5 3791,-231.5 3791,-201.5 3682,-201.5"/>
<text text-anchor="start" x="3690" y="-219.5" font-family="Helvetica,sans-Serif" font-size="10.00">libs/JSystem/JKernel</text>
<text text-anchor="middle" x="3736.5" y="-208.5" font-family="Helvetica,sans-Serif" font-size="10.00">/JKRArchivePri.cpp</text>
</a>
</g>
</g>
<!-- Node4&#45;&gt;Node5 -->
<g id="edge4" class="edge">
<title>Node4&#45;&gt;Node5</title>
<path fill="none" stroke="midnightblue" d="M3424.55,-272.05C3490.57,-262.73 3588.07,-248.1 3672.5,-232 3675.52,-231.42 3678.62,-230.81 3681.74,-230.17"/>
<polygon fill="midnightblue" stroke="midnightblue" points="3424.06,-268.58 3414.64,-273.44 3425.03,-275.51 3424.06,-268.58"/>
</g>
<!-- Node6 -->
<g id="node6" class="node">
<title>Node6</title>
<g id="a_node6"><a xlink:href="JKRFileFinder_8cpp.html" target="_top" xlink:title=" ">
<polygon fill="white" stroke="black" points="2637,-201.5 2637,-231.5 2746,-231.5 2746,-201.5 2637,-201.5"/>
<text text-anchor="start" x="2645" y="-219.5" font-family="Helvetica,sans-Serif" font-size="10.00">libs/JSystem/JKernel</text>
<text text-anchor="middle" x="2691.5" y="-208.5" font-family="Helvetica,sans-Serif" font-size="10.00">/JKRFileFinder.cpp</text>
</a>
</g>
</g>
<!-- Node4&#45;&gt;Node6 -->
<g id="edge6" class="edge">
<title>Node4&#45;&gt;Node6</title>
<path fill="none" stroke="midnightblue" d="M3270.1,-279.4C3156.48,-274.06 2938.12,-260.8 2754.5,-232 2751.73,-231.57 2748.9,-231.08 2746.04,-230.55"/>
<polygon fill="midnightblue" stroke="midnightblue" points="3270.28,-282.91 3280.43,-279.88 3270.6,-275.92 3270.28,-282.91"/>
</g>
<!-- Node7 -->
<g id="node7" class="node">
<title>Node7</title>
<g id="a_node7"><a xlink:href="d__file__sel__info_8h.html" target="_top" xlink:title=" ">
<polygon fill="white" stroke="black" points="794.5,-123.5 794.5,-164.5 892.5,-164.5 892.5,-123.5 794.5,-123.5"/>
<text text-anchor="start" x="802.5" y="-152.5" font-family="Helvetica,sans-Serif" font-size="10.00">include/d/d_file/d</text>
<text text-anchor="start" x="802.5" y="-141.5" font-family="Helvetica,sans-Serif" font-size="10.00">_file_sel_info/d_file</text>
<text text-anchor="middle" x="843.5" y="-130.5" font-family="Helvetica,sans-Serif" font-size="10.00">_sel_info.h</text>
</a>
</g>
</g>
<!-- Node4&#45;&gt;Node7 -->
<g id="edge7" class="edge">
<title>Node4&#45;&gt;Node7</title>
<path fill="none" stroke="midnightblue" d="M3270.06,-278.25C2887.21,-257.22 1202.82,-164.73 892.67,-147.7"/>
<polygon fill="midnightblue" stroke="midnightblue" points="3270.02,-281.75 3280.2,-278.8 3270.41,-274.76 3270.02,-281.75"/>
</g>
<!-- Node9 -->
<g id="node9" class="node">
<title>Node9</title>
<g id="a_node9"><a xlink:href="d__resource_8h.html" target="_top" xlink:title=" ">
<polygon fill="white" stroke="black" points="2764,-201.5 2764,-231.5 2871,-231.5 2871,-201.5 2764,-201.5"/>
<text text-anchor="start" x="2772" y="-219.5" font-family="Helvetica,sans-Serif" font-size="10.00">include/d/d_resource</text>
<text text-anchor="middle" x="2817.5" y="-208.5" font-family="Helvetica,sans-Serif" font-size="10.00">/d_resource.h</text>
</a>
</g>
</g>
<!-- Node4&#45;&gt;Node9 -->
<g id="edge9" class="edge">
<title>Node4&#45;&gt;Node9</title>
<path fill="none" stroke="midnightblue" d="M3270.42,-276.57C3178.26,-268.92 3019.51,-253.91 2884.5,-232 2880.15,-231.29 2875.66,-230.49 2871.16,-229.63"/>
<polygon fill="midnightblue" stroke="midnightblue" points="3270.25,-280.07 3280.5,-277.4 3270.82,-273.09 3270.25,-280.07"/>
</g>
<!-- Node48 -->
<g id="node37" class="node">
<title>Node48</title>
<g id="a_node37"><a xlink:href="J2DPane_8h.html" target="_top" xlink:title=" ">
<polygon fill="white" stroke="black" points="2894,-201.5 2894,-231.5 3029,-231.5 3029,-201.5 2894,-201.5"/>
<text text-anchor="start" x="2902" y="-219.5" font-family="Helvetica,sans-Serif" font-size="10.00">include/JSystem/J2DGraph</text>
<text text-anchor="middle" x="2961.5" y="-208.5" font-family="Helvetica,sans-Serif" font-size="10.00">/J2DPane.h</text>
</a>
</g>
</g>
<!-- Node4&#45;&gt;Node48 -->
<g id="edge40" class="edge">
<title>Node4&#45;&gt;Node48</title>
<path fill="none" stroke="midnightblue" d="M3270.6,-269.56C3210,-259.36 3123.35,-244.78 3047.5,-232 3041.53,-230.99 3035.32,-229.95 3029.1,-228.9"/>
<polygon fill="midnightblue" stroke="midnightblue" points="3270.03,-273.01 3280.48,-271.22 3271.2,-266.11 3270.03,-273.01"/>
</g>
<!-- Node50 -->
<g id="node39" class="node">
<title>Node50</title>
<g id="a_node39"><a xlink:href="JKRAramArchive_8h.html" target="_top" xlink:title=" ">
<polygon fill="white" stroke="black" points="3056.5,-201.5 3056.5,-231.5 3236.5,-231.5 3236.5,-201.5 3056.5,-201.5"/>
<text text-anchor="start" x="3064.5" y="-219.5" font-family="Helvetica,sans-Serif" font-size="10.00">include/JSystem/JKernel</text>
<text text-anchor="middle" x="3146.5" y="-208.5" font-family="Helvetica,sans-Serif" font-size="10.00">/JKRAramArchive/JKRAramArchive.h</text>
</a>
</g>
</g>
<!-- Node4&#45;&gt;Node50 -->
<g id="edge42" class="edge">
<title>Node4&#45;&gt;Node50</title>
<path fill="none" stroke="midnightblue" d="M3294.09,-265.23C3261.57,-254.71 3220.56,-241.45 3190.03,-231.58"/>
<polygon fill="midnightblue" stroke="midnightblue" points="3293.29,-268.65 3303.89,-268.4 3295.45,-261.99 3293.29,-268.65"/>
</g>
<!-- Node63 -->
<g id="node43" class="node">
<title>Node63</title>
<g id="a_node43"><a xlink:href="JKRCompArchive_8h.html" target="_top" xlink:title=" ">
<polygon fill="white" stroke="black" points="3255,-201.5 3255,-231.5 3440,-231.5 3440,-201.5 3255,-201.5"/>
<text text-anchor="start" x="3263" y="-219.5" font-family="Helvetica,sans-Serif" font-size="10.00">include/JSystem/JKernel</text>
<text text-anchor="middle" x="3347.5" y="-208.5" font-family="Helvetica,sans-Serif" font-size="10.00">/JKRCompArchive/JKRCompArchive.h</text>
</a>
</g>
</g>
<!-- Node4&#45;&gt;Node63 -->
<g id="edge49" class="edge">
<title>Node4&#45;&gt;Node63</title>
<path fill="none" stroke="midnightblue" d="M3347.5,-258.11C3347.5,-249.15 3347.5,-239.32 3347.5,-231.58"/>
<polygon fill="midnightblue" stroke="midnightblue" points="3344,-258.4 3347.5,-268.4 3351,-258.4 3344,-258.4"/>
</g>
<!-- Node65 -->
<g id="node45" class="node">
<title>Node65</title>
<g id="a_node45"><a xlink:href="JKRDvdArchive_8h.html" target="_top" xlink:title=" ">
<polygon fill="white" stroke="black" points="3495.5,-201.5 3495.5,-231.5 3663.5,-231.5 3663.5,-201.5 3495.5,-201.5"/>
<text text-anchor="start" x="3503.5" y="-219.5" font-family="Helvetica,sans-Serif" font-size="10.00">include/JSystem/JKernel</text>
<text text-anchor="middle" x="3579.5" y="-208.5" font-family="Helvetica,sans-Serif" font-size="10.00">/JKRDvdArchive/JKRDvdArchive.h</text>
</a>
</g>
</g>
<!-- Node4&#45;&gt;Node65 -->
<g id="edge52" class="edge">
<title>Node4&#45;&gt;Node65</title>
<path fill="none" stroke="midnightblue" d="M3407.41,-265.71C3445.16,-255.14 3493.36,-241.63 3529.13,-231.61"/>
<polygon fill="midnightblue" stroke="midnightblue" points="3406.24,-262.41 3397.55,-268.48 3408.13,-269.15 3406.24,-262.41"/>
</g>
<!-- Node67 -->
<g id="node47" class="node">
<title>Node67</title>
<g id="a_node47"><a xlink:href="JKRMemArchive_8h.html" target="_top" xlink:title=" ">
<polygon fill="white" stroke="black" points="3847,-201.5 3847,-231.5 4024,-231.5 4024,-201.5 3847,-201.5"/>
<text text-anchor="start" x="3855" y="-219.5" font-family="Helvetica,sans-Serif" font-size="10.00">include/JSystem/JKernel</text>
<text text-anchor="middle" x="3935.5" y="-208.5" font-family="Helvetica,sans-Serif" font-size="10.00">/JKRMemArchive/JKRMemArchive.h</text>
</a>
</g>
</g>
<!-- Node4&#45;&gt;Node67 -->
<g id="edge55" class="edge">
<title>Node4&#45;&gt;Node67</title>
<path fill="none" stroke="midnightblue" d="M3424.93,-273.94C3533.9,-261.89 3732.01,-239.99 3846.78,-227.31"/>
<polygon fill="midnightblue" stroke="midnightblue" points="3424.22,-270.5 3414.66,-275.08 3424.99,-277.46 3424.22,-270.5"/>
</g>
<!-- Node8 -->
<g id="node8" class="node">
<title>Node8</title>
<g id="a_node8"><a xlink:href="d__file__sel__info_8cpp.html" target="_top" xlink:title=" ">
<polygon fill="white" stroke="black" points="0,-56.5 0,-86.5 89,-86.5 89,-56.5 0,-56.5"/>
<text text-anchor="start" x="8" y="-74.5" font-family="Helvetica,sans-Serif" font-size="10.00">src/d/d_file/d_file</text>
<text text-anchor="middle" x="44.5" y="-63.5" font-family="Helvetica,sans-Serif" font-size="10.00">_sel_info.cpp</text>
</a>
</g>
</g>
<!-- Node7&#45;&gt;Node8 -->
<g id="edge8" class="edge">
<title>Node7&#45;&gt;Node8</title>
<path fill="none" stroke="midnightblue" d="M783.94,-142.4C656.88,-140.27 350.2,-130.64 97.5,-87 94.77,-86.53 91.99,-85.98 89.18,-85.37"/>
<polygon fill="midnightblue" stroke="midnightblue" points="784.17,-145.9 794.22,-142.56 784.28,-138.9 784.17,-145.9"/>
</g>
<!-- Node10 -->
<g id="node10" class="node">
<title>Node10</title>
<g id="a_node10"><a xlink:href="d__a__alink_8h.html" target="_top" xlink:title=" ">
<polygon fill="white" stroke="black" points="2968,-56.5 2968,-86.5 3087,-86.5 3087,-56.5 2968,-56.5"/>
<text text-anchor="start" x="2976" y="-74.5" font-family="Helvetica,sans-Serif" font-size="10.00">include/d/d_a/d_a_alink</text>
<text text-anchor="middle" x="3027.5" y="-63.5" font-family="Helvetica,sans-Serif" font-size="10.00">/d_a_alink.h</text>
</a>
</g>
</g>
<!-- Node9&#45;&gt;Node10 -->
<g id="edge10" class="edge">
<title>Node9&#45;&gt;Node10</title>
<path fill="none" stroke="midnightblue" d="M2814.66,-191.04C2813.69,-170.36 2815.87,-141.24 2832.5,-123 2837.21,-117.83 2912.21,-99.4 2967.79,-86.3"/>
<polygon fill="midnightblue" stroke="midnightblue" points="2811.19,-191.56 2815.43,-201.27 2818.17,-191.04 2811.19,-191.56"/>
</g>
<!-- Node13 -->
<g id="node13" class="node">
<title>Node13</title>
<g id="a_node13"><a xlink:href="d__com__inf__game_8h.html" target="_top" xlink:title=" ">
<polygon fill="white" stroke="red" points="1708.5,-129 1708.5,-159 1854.5,-159 1854.5,-129 1708.5,-129"/>
<text text-anchor="start" x="1716.5" y="-147" font-family="Helvetica,sans-Serif" font-size="10.00">include/d/d_com/d_com</text>
<text text-anchor="middle" x="1781.5" y="-136" font-family="Helvetica,sans-Serif" font-size="10.00">_inf_game/d_com_inf_game.h</text>
</a>
</g>
</g>
<!-- Node9&#45;&gt;Node13 -->
<g id="edge13" class="edge">
<title>Node9&#45;&gt;Node13</title>
<path fill="none" stroke="midnightblue" d="M2753.93,-201.11C2412.89,-153.19 2015.51,-145.93 1854.54,-145.01"/>
<polygon fill="midnightblue" stroke="midnightblue" points="2753.61,-204.6 2764,-202.54 2754.59,-197.67 2753.61,-204.6"/>
</g>
<!-- Node11 -->
<g id="node11" class="node">
<title>Node11</title>
<g id="a_node11"><a xlink:href="d__attention_8cpp.html" target="_top" xlink:title=" ">
<polygon fill="white" stroke="black" points="2736,-0.5 2736,-19.5 2843,-19.5 2843,-0.5 2736,-0.5"/>
<text text-anchor="middle" x="2789.5" y="-7.5" font-family="Helvetica,sans-Serif" font-size="10.00">src/d/d_attention.cpp</text>
</a>
</g>
</g>
<!-- Node10&#45;&gt;Node11 -->
<g id="edge11" class="edge">
<title>Node10&#45;&gt;Node11</title>
<path fill="none" stroke="midnightblue" d="M2961.47,-53.99C2916.7,-42.8 2859.37,-28.47 2823.53,-19.51"/>
<polygon fill="midnightblue" stroke="midnightblue" points="2960.85,-57.44 2971.4,-56.47 2962.55,-50.65 2960.85,-57.44"/>
</g>
<!-- Node12 -->
<g id="node12" class="node">
<title>Node12</title>
<g id="a_node12"><a xlink:href="d__a__alink_8cpp.html" target="_top" xlink:title=" ">
<polygon fill="white" stroke="black" points="2968,-0.5 2968,-19.5 3087,-19.5 3087,-0.5 2968,-0.5"/>
<text text-anchor="middle" x="3027.5" y="-7.5" font-family="Helvetica,sans-Serif" font-size="10.00">src/d/d_a/d_a_alink.cpp</text>
</a>
</g>
</g>
<!-- Node10&#45;&gt;Node12 -->
<g id="edge12" class="edge">
<title>Node10&#45;&gt;Node12</title>
<path fill="none" stroke="midnightblue" d="M3027.5,-46.29C3027.5,-36.86 3027.5,-26.65 3027.5,-19.66"/>
<polygon fill="midnightblue" stroke="midnightblue" points="3024,-46.4 3027.5,-56.4 3031,-46.4 3024,-46.4"/>
</g>
<!-- Node13&#45;&gt;Node8 -->
<g id="edge17" class="edge">
<title>Node13&#45;&gt;Node8</title>
<path fill="none" stroke="midnightblue" d="M1698.2,-141.37C1380.7,-135.01 256.21,-111.01 97.5,-87 94.76,-86.59 91.97,-86.08 89.16,-85.51"/>
<polygon fill="midnightblue" stroke="midnightblue" points="1698.19,-144.87 1708.26,-141.57 1698.33,-137.87 1698.19,-144.87"/>
</g>
<!-- Node13&#45;&gt;Node10 -->
<g id="edge39" class="edge">
<title>Node13&#45;&gt;Node10</title>
<path fill="none" stroke="midnightblue" d="M1864.58,-143.59C2057.52,-143.96 2550.58,-139.23 2958.5,-87 2961.54,-86.61 2964.64,-86.16 2967.76,-85.66"/>
<polygon fill="midnightblue" stroke="midnightblue" points="1864.52,-140.09 1854.51,-143.56 1864.51,-147.09 1864.52,-140.09"/>
</g>
<!-- Node13&#45;&gt;Node11 -->
<g id="edge14" class="edge">
<title>Node13&#45;&gt;Node11</title>
<path fill="none" stroke="midnightblue" d="M1864.84,-140.61C2070.43,-134.29 2590.41,-115.67 2663.5,-87 2683.79,-79.04 2683.25,-67.92 2701.5,-56 2723.91,-41.36 2751.69,-27.86 2769.97,-19.54"/>
<polygon fill="midnightblue" stroke="midnightblue" points="1864.59,-137.11 1854.7,-140.92 1864.81,-144.11 1864.59,-137.11"/>
</g>
<!-- Node14 -->
<g id="node14" class="node">
<title>Node14</title>
<g id="a_node14"><a xlink:href="d__camera_8cpp.html" target="_top" xlink:title=" ">
<polygon fill="white" stroke="black" points="2710.5,-62 2710.5,-81 2812.5,-81 2812.5,-62 2710.5,-62"/>
<text text-anchor="middle" x="2761.5" y="-69" font-family="Helvetica,sans-Serif" font-size="10.00">src/d/d_camera.cpp</text>
</a>
</g>
</g>
<!-- Node13&#45;&gt;Node14 -->
<g id="edge15" class="edge">
<title>Node13&#45;&gt;Node14</title>
<path fill="none" stroke="midnightblue" d="M1864.87,-142.3C2026.23,-139.98 2392.14,-129.98 2696.5,-87 2706.8,-85.54 2717.9,-83.32 2727.95,-81.05"/>
<polygon fill="midnightblue" stroke="midnightblue" points="1864.49,-138.81 1854.54,-142.45 1864.59,-145.81 1864.49,-138.81"/>
</g>
<!-- Node15 -->
<g id="node15" class="node">
<title>Node15</title>
<g id="a_node15"><a xlink:href="d__com__inf__game_8cpp.html" target="_top" xlink:title=" ">
<polygon fill="white" stroke="black" points="2831,-56.5 2831,-86.5 2950,-86.5 2950,-56.5 2831,-56.5"/>
<text text-anchor="start" x="2839" y="-74.5" font-family="Helvetica,sans-Serif" font-size="10.00">src/d/d_com/d_com_inf</text>
<text text-anchor="middle" x="2890.5" y="-63.5" font-family="Helvetica,sans-Serif" font-size="10.00">_game.cpp</text>
</a>
</g>
</g>
<!-- Node13&#45;&gt;Node15 -->
<g id="edge16" class="edge">
<title>Node13&#45;&gt;Node15</title>
<path fill="none" stroke="midnightblue" d="M1864.69,-142.84C2041.57,-141.55 2467.79,-133.41 2821.5,-87 2824.53,-86.6 2827.63,-86.14 2830.76,-85.64"/>
<polygon fill="midnightblue" stroke="midnightblue" points="1864.64,-139.34 1854.67,-142.91 1864.69,-146.34 1864.64,-139.34"/>
</g>
<!-- Node16 -->
<g id="node16" class="node">
<title>Node16</title>
<g id="a_node16"><a xlink:href="d__item_8cpp.html" target="_top" xlink:title=" ">
<polygon fill="white" stroke="black" points="107,-62 107,-81 228,-81 228,-62 107,-62"/>
<text text-anchor="middle" x="167.5" y="-69" font-family="Helvetica,sans-Serif" font-size="10.00">src/d/d_item/d_item.cpp</text>
</a>
</g>
</g>
<!-- Node13&#45;&gt;Node16 -->
<g id="edge18" class="edge">
<title>Node13&#45;&gt;Node16</title>
<path fill="none" stroke="midnightblue" d="M1697.71,-140.8C1396.89,-132.79 381.48,-104.73 236.5,-87 225.32,-85.63 213.27,-83.38 202.41,-81.04"/>
<polygon fill="midnightblue" stroke="midnightblue" points="1698.02,-144.31 1708.11,-141.08 1698.2,-137.31 1698.02,-144.31"/>
</g>
<!-- Node17 -->
<g id="node17" class="node">
<title>Node17</title>
<g id="a_node17"><a xlink:href="d__kankyo__rain_8cpp.html" target="_top" xlink:title=" ">
<polygon fill="white" stroke="black" points="246,-56.5 246,-86.5 373,-86.5 373,-56.5 246,-56.5"/>
<text text-anchor="start" x="254" y="-74.5" font-family="Helvetica,sans-Serif" font-size="10.00">src/d/d_kankyo/d_kankyo</text>
<text text-anchor="middle" x="309.5" y="-63.5" font-family="Helvetica,sans-Serif" font-size="10.00">_rain.cpp</text>
</a>
</g>
</g>
<!-- Node13&#45;&gt;Node17 -->
<g id="edge19" class="edge">
<title>Node13&#45;&gt;Node17</title>
<path fill="none" stroke="midnightblue" d="M1698.15,-141.4C1437.31,-136.14 638.75,-117.85 381.5,-87 378.71,-86.67 375.88,-86.28 373.01,-85.86"/>
<polygon fill="midnightblue" stroke="midnightblue" points="1698.25,-144.91 1708.31,-141.61 1698.39,-137.91 1698.25,-144.91"/>
</g>
<!-- Node18 -->
<g id="node18" class="node">
<title>Node18</title>
<g id="a_node18"><a xlink:href="d__kankyo__wether_8cpp.html" target="_top" xlink:title=" ">
<polygon fill="white" stroke="black" points="391,-56.5 391,-86.5 518,-86.5 518,-56.5 391,-56.5"/>
<text text-anchor="start" x="399" y="-74.5" font-family="Helvetica,sans-Serif" font-size="10.00">src/d/d_kankyo/d_kankyo</text>
<text text-anchor="middle" x="454.5" y="-63.5" font-family="Helvetica,sans-Serif" font-size="10.00">_wether.cpp</text>
</a>
</g>
</g>
<!-- Node13&#45;&gt;Node18 -->
<g id="edge20" class="edge">
<title>Node13&#45;&gt;Node18</title>
<path fill="none" stroke="midnightblue" d="M1698.09,-143.71C1496.17,-144.45 965.37,-140.66 526.5,-87 523.72,-86.66 520.88,-86.27 518.02,-85.84"/>
<polygon fill="midnightblue" stroke="midnightblue" points="1698.33,-147.2 1708.32,-143.66 1698.31,-140.2 1698.33,-147.2"/>
</g>
<!-- Node19 -->
<g id="node19" class="node">
<title>Node19</title>
<g id="a_node19"><a xlink:href="d__kankyo_8cpp.html" target="_top" xlink:title=" ">
<polygon fill="white" stroke="black" points="536,-62 536,-81 637,-81 637,-62 536,-62"/>
<text text-anchor="middle" x="586.5" y="-69" font-family="Helvetica,sans-Serif" font-size="10.00">src/d/d_kankyo.cpp</text>
</a>
</g>
</g>
<!-- Node13&#45;&gt;Node19 -->
<g id="edge21" class="edge">
<title>Node13&#45;&gt;Node19</title>
<path fill="none" stroke="midnightblue" d="M1698.27,-140.97C1471.95,-135.11 848.75,-116.71 645.5,-87 635.9,-85.6 625.58,-83.33 616.3,-81"/>
<polygon fill="midnightblue" stroke="midnightblue" points="1698.33,-144.47 1708.42,-141.23 1698.51,-137.47 1698.33,-144.47"/>
</g>
<!-- Node20 -->
<g id="node20" class="node">
<title>Node20</title>
<g id="a_node20"><a xlink:href="d__kantera__icon__meter_8cpp.html" target="_top" xlink:title=" ">
<polygon fill="white" stroke="black" points="655,-56.5 655,-86.5 762,-86.5 762,-56.5 655,-56.5"/>
<text text-anchor="start" x="663" y="-74.5" font-family="Helvetica,sans-Serif" font-size="10.00">src/d/d_kantera_icon</text>
<text text-anchor="middle" x="708.5" y="-63.5" font-family="Helvetica,sans-Serif" font-size="10.00">_meter.cpp</text>
</a>
</g>
</g>
<!-- Node13&#45;&gt;Node20 -->
<g id="edge22" class="edge">
<title>Node13&#45;&gt;Node20</title>
<path fill="none" stroke="midnightblue" d="M1698.35,-143.28C1524.94,-142.8 1112.36,-136.06 770.5,-87 767.76,-86.61 764.97,-86.15 762.16,-85.65"/>
<polygon fill="midnightblue" stroke="midnightblue" points="1698.42,-146.78 1708.43,-143.3 1698.44,-139.78 1698.42,-146.78"/>
</g>
<!-- Node21 -->
<g id="node21" class="node">
<title>Node21</title>
<g id="a_node21"><a xlink:href="d__kyeff_8cpp.html" target="_top" xlink:title=" ">
<polygon fill="white" stroke="black" points="780,-62 780,-81 893,-81 893,-62 780,-62"/>
<text text-anchor="middle" x="836.5" y="-69" font-family="Helvetica,sans-Serif" font-size="10.00">src/d/d_ky/d_kyeff.cpp</text>
</a>
</g>
</g>
<!-- Node13&#45;&gt;Node21 -->
<g id="edge23" class="edge">
<title>Node13&#45;&gt;Node21</title>
<path fill="none" stroke="midnightblue" d="M1698.34,-142.02C1541.67,-139.22 1192.35,-128.44 901.5,-87 891.2,-85.53 880.11,-83.3 870.05,-81.03"/>
<polygon fill="midnightblue" stroke="midnightblue" points="1698.32,-145.52 1708.38,-142.19 1698.44,-138.52 1698.32,-145.52"/>
</g>
<!-- Node22 -->
<g id="node22" class="node">
<title>Node22</title>
<g id="a_node22"><a xlink:href="d__meter__button_8cpp.html" target="_top" xlink:title=" ">
<polygon fill="white" stroke="black" points="911,-56.5 911,-86.5 1026,-86.5 1026,-56.5 911,-56.5"/>
<text text-anchor="start" x="919" y="-74.5" font-family="Helvetica,sans-Serif" font-size="10.00">src/d/d_meter/d_meter</text>
<text text-anchor="middle" x="968.5" y="-63.5" font-family="Helvetica,sans-Serif" font-size="10.00">_button.cpp</text>
</a>
</g>
</g>
<!-- Node13&#45;&gt;Node22 -->
<g id="edge24" class="edge">
<title>Node13&#45;&gt;Node22</title>
<path fill="none" stroke="midnightblue" d="M1698.38,-140.61C1560.01,-135.76 1273.96,-122.1 1034.5,-87 1031.71,-86.59 1028.87,-86.13 1026,-85.64"/>
<polygon fill="midnightblue" stroke="midnightblue" points="1698.37,-144.11 1708.49,-140.95 1698.61,-137.11 1698.37,-144.11"/>
</g>
<!-- Node23 -->
<g id="node23" class="node">
<title>Node23</title>
<g id="a_node23"><a xlink:href="d__meter__haihai_8cpp.html" target="_top" xlink:title=" ">
<polygon fill="white" stroke="black" points="1044,-56.5 1044,-86.5 1159,-86.5 1159,-56.5 1044,-56.5"/>
<text text-anchor="start" x="1052" y="-74.5" font-family="Helvetica,sans-Serif" font-size="10.00">src/d/d_meter/d_meter</text>
<text text-anchor="middle" x="1101.5" y="-63.5" font-family="Helvetica,sans-Serif" font-size="10.00">_haihai.cpp</text>
</a>
</g>
</g>
<!-- Node13&#45;&gt;Node23 -->
<g id="edge25" class="edge">
<title>Node13&#45;&gt;Node23</title>
<path fill="none" stroke="midnightblue" d="M1698.28,-138.73C1579.84,-131.89 1356.11,-116.2 1167.5,-87 1164.72,-86.57 1161.88,-86.09 1159.01,-85.58"/>
<polygon fill="midnightblue" stroke="midnightblue" points="1698.18,-142.23 1708.36,-139.3 1698.58,-135.24 1698.18,-142.23"/>
</g>
<!-- Node24 -->
<g id="node24" class="node">
<title>Node24</title>
<g id="a_node24"><a xlink:href="d__meter__hakusha_8cpp.html" target="_top" xlink:title=" ">
<polygon fill="white" stroke="black" points="1177,-56.5 1177,-86.5 1292,-86.5 1292,-56.5 1177,-56.5"/>
<text text-anchor="start" x="1185" y="-74.5" font-family="Helvetica,sans-Serif" font-size="10.00">src/d/d_meter/d_meter</text>
<text text-anchor="middle" x="1234.5" y="-63.5" font-family="Helvetica,sans-Serif" font-size="10.00">_hakusha.cpp</text>
</a>
</g>
</g>
<!-- Node13&#45;&gt;Node24 -->
<g id="edge26" class="edge">
<title>Node13&#45;&gt;Node24</title>
<path fill="none" stroke="midnightblue" d="M1698,-135.84C1601.78,-127 1439.1,-110.23 1300.5,-87 1297.72,-86.53 1294.89,-86.03 1292.03,-85.49"/>
<polygon fill="midnightblue" stroke="midnightblue" points="1697.97,-139.35 1708.25,-136.78 1698.61,-132.38 1697.97,-139.35"/>
</g>
<!-- Node25 -->
<g id="node25" class="node">
<title>Node25</title>
<g id="a_node25"><a xlink:href="d__meter__map_8cpp.html" target="_top" xlink:title=" ">
<polygon fill="white" stroke="black" points="1310,-56.5 1310,-86.5 1425,-86.5 1425,-56.5 1310,-56.5"/>
<text text-anchor="start" x="1318" y="-74.5" font-family="Helvetica,sans-Serif" font-size="10.00">src/d/d_meter/d_meter</text>
<text text-anchor="middle" x="1367.5" y="-63.5" font-family="Helvetica,sans-Serif" font-size="10.00">_map.cpp</text>
</a>
</g>
</g>
<!-- Node13&#45;&gt;Node25 -->
<g id="edge27" class="edge">
<title>Node13&#45;&gt;Node25</title>
<path fill="none" stroke="midnightblue" d="M1698.13,-130.94C1627.48,-120.4 1523.6,-104.13 1433.5,-87 1430.73,-86.47 1427.91,-85.92 1425.05,-85.35"/>
<polygon fill="midnightblue" stroke="midnightblue" points="1697.9,-134.45 1708.3,-132.45 1698.93,-127.52 1697.9,-134.45"/>
</g>
<!-- Node26 -->
<g id="node26" class="node">
<title>Node26</title>
<g id="a_node26"><a xlink:href="d__meter__string_8cpp.html" target="_top" xlink:title=" ">
<polygon fill="white" stroke="black" points="1443,-56.5 1443,-86.5 1558,-86.5 1558,-56.5 1443,-56.5"/>
<text text-anchor="start" x="1451" y="-74.5" font-family="Helvetica,sans-Serif" font-size="10.00">src/d/d_meter/d_meter</text>
<text text-anchor="middle" x="1500.5" y="-63.5" font-family="Helvetica,sans-Serif" font-size="10.00">_string.cpp</text>
</a>
</g>
</g>
<!-- Node13&#45;&gt;Node26 -->
<g id="edge28" class="edge">
<title>Node13&#45;&gt;Node26</title>
<path fill="none" stroke="midnightblue" d="M1715.92,-126.55C1667.63,-114.43 1602.65,-98.13 1556.73,-86.61"/>
<polygon fill="midnightblue" stroke="midnightblue" points="1715.1,-129.95 1725.65,-128.99 1716.8,-123.16 1715.1,-129.95"/>
</g>
<!-- Node27 -->
<g id="node27" class="node">
<title>Node27</title>
<g id="a_node27"><a xlink:href="d__meter2__draw_8cpp.html" target="_top" xlink:title=" ">
<polygon fill="white" stroke="black" points="1576,-56.5 1576,-86.5 1701,-86.5 1701,-56.5 1576,-56.5"/>
<text text-anchor="start" x="1584" y="-74.5" font-family="Helvetica,sans-Serif" font-size="10.00">src/d/d_meter2/d_meter2</text>
<text text-anchor="middle" x="1638.5" y="-63.5" font-family="Helvetica,sans-Serif" font-size="10.00">_draw.cpp</text>
</a>
</g>
</g>
<!-- Node13&#45;&gt;Node27 -->
<g id="edge29" class="edge">
<title>Node13&#45;&gt;Node27</title>
<path fill="none" stroke="midnightblue" d="M1743.72,-124.37C1719.68,-112.52 1689.05,-97.42 1667.04,-86.57"/>
<polygon fill="midnightblue" stroke="midnightblue" points="1742.39,-127.62 1752.91,-128.9 1745.48,-121.34 1742.39,-127.62"/>
</g>
<!-- Node28 -->
<g id="node28" class="node">
<title>Node28</title>
<g id="a_node28"><a xlink:href="d__meter2__info_8cpp.html" target="_top" xlink:title=" ">
<polygon fill="white" stroke="black" points="1719,-56.5 1719,-86.5 1844,-86.5 1844,-56.5 1719,-56.5"/>
<text text-anchor="start" x="1727" y="-74.5" font-family="Helvetica,sans-Serif" font-size="10.00">src/d/d_meter2/d_meter2</text>
<text text-anchor="middle" x="1781.5" y="-63.5" font-family="Helvetica,sans-Serif" font-size="10.00">_info.cpp</text>
</a>
</g>
</g>
<!-- Node13&#45;&gt;Node28 -->
<g id="edge30" class="edge">
<title>Node13&#45;&gt;Node28</title>
<path fill="none" stroke="midnightblue" d="M1781.5,-118.73C1781.5,-108.07 1781.5,-95.91 1781.5,-86.75"/>
<polygon fill="midnightblue" stroke="midnightblue" points="1778,-118.73 1781.5,-128.73 1785,-118.73 1778,-118.73"/>
</g>
<!-- Node29 -->
<g id="node29" class="node">
<title>Node29</title>
<g id="a_node29"><a xlink:href="d__meter2_8cpp.html" target="_top" xlink:title=" ">
<polygon fill="white" stroke="black" points="1862.5,-62 1862.5,-81 1962.5,-81 1962.5,-62 1862.5,-62"/>
<text text-anchor="middle" x="1912.5" y="-69" font-family="Helvetica,sans-Serif" font-size="10.00">src/d/d_meter2.cpp</text>
</a>
</g>
</g>
<!-- Node13&#45;&gt;Node29 -->
<g id="edge31" class="edge">
<title>Node13&#45;&gt;Node29</title>
<path fill="none" stroke="midnightblue" d="M1816.53,-124.15C1842.57,-110.13 1876.89,-91.66 1896.64,-81.03"/>
<polygon fill="midnightblue" stroke="midnightblue" points="1814.84,-121.08 1807.69,-128.9 1818.16,-127.25 1814.84,-121.08"/>
</g>
<!-- Node30 -->
<g id="node30" class="node">
<title>Node30</title>
<g id="a_node30"><a xlink:href="d__save_8cpp.html" target="_top" xlink:title=" ">
<polygon fill="white" stroke="black" points="3105,-62 3105,-81 3230,-81 3230,-62 3105,-62"/>
<text text-anchor="middle" x="3167.5" y="-69" font-family="Helvetica,sans-Serif" font-size="10.00">src/d/d_save/d_save.cpp</text>
</a>
</g>
</g>
<!-- Node13&#45;&gt;Node30 -->
<g id="edge32" class="edge">
<title>Node13&#45;&gt;Node30</title>
<path fill="none" stroke="midnightblue" d="M1864.84,-141.15C2114.81,-135.34 2855.72,-116.07 3095.5,-87 3107.02,-85.6 3119.45,-83.37 3130.68,-81.07"/>
<polygon fill="midnightblue" stroke="midnightblue" points="1864.65,-137.66 1854.73,-141.39 1864.81,-144.65 1864.65,-137.66"/>
</g>
<!-- Node31 -->
<g id="node31" class="node">
<title>Node31</title>
<g id="a_node31"><a xlink:href="d__save__HIO_8cpp.html" target="_top" xlink:title=" ">
<polygon fill="white" stroke="black" points="1981,-56.5 1981,-86.5 2088,-86.5 2088,-56.5 1981,-56.5"/>
<text text-anchor="start" x="1989" y="-74.5" font-family="Helvetica,sans-Serif" font-size="10.00">src/d/d_save/d_save</text>
<text text-anchor="middle" x="2034.5" y="-63.5" font-family="Helvetica,sans-Serif" font-size="10.00">_HIO.cpp</text>
</a>
</g>
</g>
<!-- Node13&#45;&gt;Node31 -->
<g id="edge33" class="edge">
<title>Node13&#45;&gt;Node31</title>
<path fill="none" stroke="midnightblue" d="M1841.64,-126.24C1885,-114.16 1942.87,-98.03 1983.88,-86.61"/>
<polygon fill="midnightblue" stroke="midnightblue" points="1840.48,-122.93 1831.79,-128.99 1842.36,-129.67 1840.48,-122.93"/>
</g>
<!-- Node32 -->
<g id="node32" class="node">
<title>Node32</title>
<g id="a_node32"><a xlink:href="d__stage_8cpp.html" target="_top" xlink:title=" ">
<polygon fill="white" stroke="black" points="2106.5,-62 2106.5,-81 2200.5,-81 2200.5,-62 2106.5,-62"/>
<text text-anchor="middle" x="2153.5" y="-69" font-family="Helvetica,sans-Serif" font-size="10.00">src/d/d_stage.cpp</text>
</a>
</g>
</g>
<!-- Node13&#45;&gt;Node32 -->
<g id="edge34" class="edge">
<title>Node13&#45;&gt;Node32</title>
<path fill="none" stroke="midnightblue" d="M1864.67,-129.92C1928.37,-119.49 2018.29,-103.88 2096.5,-87 2104.68,-85.23 2113.47,-83.11 2121.64,-81.04"/>
<polygon fill="midnightblue" stroke="midnightblue" points="1863.98,-126.49 1854.68,-131.55 1865.11,-133.39 1863.98,-126.49"/>
</g>
<!-- Node33 -->
<g id="node33" class="node">
<title>Node33</title>
<g id="a_node33"><a xlink:href="f__pc__manager_8cpp.html" target="_top" xlink:title=" ">
<polygon fill="white" stroke="black" points="3248.5,-62 3248.5,-81 3388.5,-81 3388.5,-62 3248.5,-62"/>
<text text-anchor="middle" x="3318.5" y="-69" font-family="Helvetica,sans-Serif" font-size="10.00">src/f/f_pc/f_pc_manager.cpp</text>
</a>
</g>
</g>
<!-- Node13&#45;&gt;Node33 -->
<g id="edge35" class="edge">
<title>Node13&#45;&gt;Node33</title>
<path fill="none" stroke="midnightblue" d="M1864.55,-141.35C2132.03,-135.79 2969.25,-116.43 3238.5,-87 3251.27,-85.6 3265.07,-83.37 3277.55,-81.07"/>
<polygon fill="midnightblue" stroke="midnightblue" points="1864.44,-137.85 1854.52,-141.56 1864.59,-144.85 1864.44,-137.85"/>
</g>
<!-- Node34 -->
<g id="node34" class="node">
<title>Node34</title>
<g id="a_node34"><a xlink:href="m__Do__audio_8cpp.html" target="_top" xlink:title=" ">
<polygon fill="white" stroke="black" points="2218.5,-62 2218.5,-81 2352.5,-81 2352.5,-62 2218.5,-62"/>
<text text-anchor="middle" x="2285.5" y="-69" font-family="Helvetica,sans-Serif" font-size="10.00">src/m_Do/m_Do_audio.cpp</text>
</a>
</g>
</g>
<!-- Node13&#45;&gt;Node34 -->
<g id="edge36" class="edge">
<title>Node13&#45;&gt;Node34</title>
<path fill="none" stroke="midnightblue" d="M1864.78,-133.56C1951.18,-123.43 2090.11,-106.18 2209.5,-87 2220.38,-85.25 2232.08,-83.14 2242.97,-81.07"/>
<polygon fill="midnightblue" stroke="midnightblue" points="1864.3,-130.1 1854.77,-134.73 1865.11,-137.05 1864.3,-130.1"/>
</g>
<!-- Node35 -->
<g id="node35" class="node">
<title>Node35</title>
<g id="a_node35"><a xlink:href="m__Do__ext_8cpp.html" target="_top" xlink:title=" ">
<polygon fill="white" stroke="black" points="2371,-62 2371,-81 2494,-81 2494,-62 2371,-62"/>
<text text-anchor="middle" x="2432.5" y="-69" font-family="Helvetica,sans-Serif" font-size="10.00">src/m_Do/m_Do_ext.cpp</text>
</a>
</g>
</g>
<!-- Node13&#45;&gt;Node35 -->
<g id="edge37" class="edge">
<title>Node13&#45;&gt;Node35</title>
<path fill="none" stroke="midnightblue" d="M1864.89,-137.72C1977.87,-129.93 2185.66,-113.37 2361.5,-87 2372.2,-85.4 2383.72,-83.23 2394.31,-81.07"/>
<polygon fill="midnightblue" stroke="midnightblue" points="1864.33,-134.25 1854.59,-138.42 1864.81,-141.23 1864.33,-134.25"/>
</g>
<!-- Node36 -->
<g id="node36" class="node">
<title>Node36</title>
<g id="a_node36"><a xlink:href="m__Do__graphic_8cpp.html" target="_top" xlink:title=" ">
<polygon fill="white" stroke="black" points="2512.5,-62 2512.5,-81 2654.5,-81 2654.5,-62 2512.5,-62"/>
<text text-anchor="middle" x="2583.5" y="-69" font-family="Helvetica,sans-Serif" font-size="10.00">src/m_Do/m_Do_graphic.cpp</text>
</a>
</g>
</g>
<!-- Node13&#45;&gt;Node36 -->
<g id="edge38" class="edge">
<title>Node13&#45;&gt;Node36</title>
<path fill="none" stroke="midnightblue" d="M1864.9,-139.23C1999.46,-132.53 2272.65,-116.42 2502.5,-87 2514.83,-85.42 2528.13,-83.24 2540.32,-81.05"/>
<polygon fill="midnightblue" stroke="midnightblue" points="1864.48,-135.74 1854.66,-139.73 1864.82,-142.73 1864.48,-135.74"/>
</g>
<!-- Node49 -->
<g id="node38" class="node">
<title>Node49</title>
<g id="a_node38"><a xlink:href="J2DPane_8cpp.html" target="_top" xlink:title=" ">
<polygon fill="white" stroke="black" points="2842,-129 2842,-159 2961,-159 2961,-129 2842,-129"/>
<text text-anchor="start" x="2850" y="-147" font-family="Helvetica,sans-Serif" font-size="10.00">libs/JSystem/J2DGraph</text>
<text text-anchor="middle" x="2901.5" y="-136" font-family="Helvetica,sans-Serif" font-size="10.00">/J2DPane.cpp</text>
</a>
</g>
</g>
<!-- Node48&#45;&gt;Node49 -->
<g id="edge41" class="edge">
<title>Node48&#45;&gt;Node49</title>
<path fill="none" stroke="midnightblue" d="M2942.81,-193.54C2933.29,-182.36 2922,-169.08 2913.62,-159.25"/>
<polygon fill="midnightblue" stroke="midnightblue" points="2940.21,-195.89 2949.36,-201.23 2945.54,-191.35 2940.21,-195.89"/>
</g>
<!-- Node50&#45;&gt;Node2 -->
<g id="edge44" class="edge">
<title>Node50&#45;&gt;Node2</title>
<path fill="none" stroke="midnightblue" d="M3246.59,-200.88C3367.14,-184.57 3400.41,-190.46 3515.5,-165 3522.89,-163.37 3530.65,-161.27 3538.12,-159.06"/>
<polygon fill="midnightblue" stroke="midnightblue" points="3246.03,-197.42 3236.6,-202.25 3246.99,-204.36 3246.03,-197.42"/>
</g>
<!-- Node51 -->
<g id="node40" class="node">
<title>Node51</title>
<g id="a_node40"><a xlink:href="JKRAramArchive_8cpp.html" target="_top" xlink:title=" ">
<polygon fill="white" stroke="black" points="3132,-129 3132,-159 3245,-159 3245,-129 3132,-129"/>
<text text-anchor="start" x="3140" y="-147" font-family="Helvetica,sans-Serif" font-size="10.00">libs/JSystem/JKernel</text>
<text text-anchor="middle" x="3188.5" y="-136" font-family="Helvetica,sans-Serif" font-size="10.00">/JKRAramArchive.cpp</text>
</a>
</g>
</g>
<!-- Node50&#45;&gt;Node51 -->
<g id="edge43" class="edge">
<title>Node50&#45;&gt;Node51</title>
<path fill="none" stroke="midnightblue" d="M3160.17,-192.56C3166.7,-181.59 3174.32,-168.8 3180.01,-159.25"/>
<polygon fill="midnightblue" stroke="midnightblue" points="3157.11,-190.85 3155,-201.23 3163.12,-194.43 3157.11,-190.85"/>
</g>
<!-- Node52 -->
<g id="node41" class="node">
<title>Node52</title>
<g id="a_node41"><a xlink:href="d__lib_8h.html" target="_top" xlink:title=" ">
<polygon fill="white" stroke="red" points="3263.5,-134.5 3263.5,-153.5 3373.5,-153.5 3373.5,-134.5 3263.5,-134.5"/>
<text text-anchor="middle" x="3318.5" y="-141.5" font-family="Helvetica,sans-Serif" font-size="10.00">include/d/d_lib/d_lib.h</text>
</a>
</g>
</g>
<!-- Node50&#45;&gt;Node52 -->
<g id="edge45" class="edge">
<title>Node50&#45;&gt;Node52</title>
<path fill="none" stroke="midnightblue" d="M3190.26,-197.56C3224.71,-183.44 3271.18,-164.4 3297.68,-153.53"/>
<polygon fill="midnightblue" stroke="midnightblue" points="3188.82,-194.37 3180.89,-201.4 3191.47,-200.85 3188.82,-194.37"/>
</g>
<!-- Node54 -->
<g id="node42" class="node">
<title>Node54</title>
<g id="a_node42"><a xlink:href="Z2AudioMgr_8h.html" target="_top" xlink:title=" ">
<polygon fill="white" stroke="red" points="2979,-129 2979,-159 3114,-159 3114,-129 2979,-129"/>
<text text-anchor="start" x="2987" y="-147" font-family="Helvetica,sans-Serif" font-size="10.00">include/Z2AudioLib</text>
<text text-anchor="middle" x="3046.5" y="-136" font-family="Helvetica,sans-Serif" font-size="10.00">/Z2AudioMgr/Z2AudioMgr.h</text>
</a>
</g>
</g>
<!-- Node50&#45;&gt;Node54 -->
<g id="edge47" class="edge">
<title>Node50&#45;&gt;Node54</title>
<path fill="none" stroke="midnightblue" d="M3118.03,-195.43C3101.52,-183.79 3081.14,-169.42 3066.37,-159"/>
<polygon fill="midnightblue" stroke="midnightblue" points="3116.07,-198.33 3126.26,-201.23 3120.11,-192.61 3116.07,-198.33"/>
</g>
<!-- Node52&#45;&gt;Node33 -->
<g id="edge46" class="edge">
<title>Node52&#45;&gt;Node33</title>
<path fill="none" stroke="midnightblue" d="M3318.5,-123.94C3318.5,-110.03 3318.5,-91.82 3318.5,-81.22"/>
<polygon fill="midnightblue" stroke="midnightblue" points="3315,-124.36 3318.5,-134.36 3322,-124.36 3315,-124.36"/>
</g>
<!-- Node54&#45;&gt;Node30 -->
<g id="edge48" class="edge">
<title>Node54&#45;&gt;Node30</title>
<path fill="none" stroke="midnightblue" d="M3079.48,-123.78C3103.46,-109.81 3134.77,-91.57 3152.85,-81.03"/>
<polygon fill="midnightblue" stroke="midnightblue" points="3077.57,-120.84 3070.7,-128.9 3081.1,-126.89 3077.57,-120.84"/>
</g>
<!-- Node63&#45;&gt;Node2 -->
<g id="edge50" class="edge">
<title>Node63&#45;&gt;Node2</title>
<path fill="none" stroke="midnightblue" d="M3404.41,-198.56C3436.97,-188.83 3478.56,-176.32 3515.5,-165 3521.73,-163.09 3528.3,-161.06 3534.76,-159.05"/>
<polygon fill="midnightblue" stroke="midnightblue" points="3403.19,-195.27 3394.61,-201.49 3405.2,-201.98 3403.19,-195.27"/>
</g>
<!-- Node64 -->
<g id="node44" class="node">
<title>Node64</title>
<g id="a_node44"><a xlink:href="JKRCompArchive_8cpp.html" target="_top" xlink:title=" ">
<polygon fill="white" stroke="black" points="3392,-129 3392,-159 3507,-159 3507,-129 3392,-129"/>
<text text-anchor="start" x="3400" y="-147" font-family="Helvetica,sans-Serif" font-size="10.00">libs/JSystem/JKernel</text>
<text text-anchor="middle" x="3449.5" y="-136" font-family="Helvetica,sans-Serif" font-size="10.00">/JKRCompArchive.cpp</text>
</a>
</g>
</g>
<!-- Node63&#45;&gt;Node64 -->
<g id="edge51" class="edge">
<title>Node63&#45;&gt;Node64</title>
<path fill="none" stroke="midnightblue" d="M3376.54,-195.43C3393.38,-183.79 3414.16,-169.42 3429.24,-159"/>
<polygon fill="midnightblue" stroke="midnightblue" points="3374.38,-192.67 3368.14,-201.23 3378.36,-198.43 3374.38,-192.67"/>
</g>
<!-- Node65&#45;&gt;Node2 -->
<g id="edge53" class="edge">
<title>Node65&#45;&gt;Node2</title>
<path fill="none" stroke="midnightblue" d="M3579.5,-191.23C3579.5,-180.57 3579.5,-168.41 3579.5,-159.25"/>
<polygon fill="midnightblue" stroke="midnightblue" points="3576,-191.23 3579.5,-201.23 3583,-191.23 3576,-191.23"/>
</g>
<!-- Node66 -->
<g id="node46" class="node">
<title>Node66</title>
<g id="a_node46"><a xlink:href="JKRDvdArchive_8cpp.html" target="_top" xlink:title=" ">
<polygon fill="white" stroke="black" points="3652,-129 3652,-159 3761,-159 3761,-129 3652,-129"/>
<text text-anchor="start" x="3660" y="-147" font-family="Helvetica,sans-Serif" font-size="10.00">libs/JSystem/JKernel</text>
<text text-anchor="middle" x="3706.5" y="-136" font-family="Helvetica,sans-Serif" font-size="10.00">/JKRDvdArchive.cpp</text>
</a>
</g>
</g>
<!-- Node65&#45;&gt;Node66 -->
<g id="edge54" class="edge">
<title>Node65&#45;&gt;Node66</title>
<path fill="none" stroke="midnightblue" d="M3613.91,-196.4C3635.12,-184.62 3661.87,-169.78 3681.15,-159.07"/>
<polygon fill="midnightblue" stroke="midnightblue" points="3611.94,-193.49 3604.9,-201.4 3615.34,-199.61 3611.94,-193.49"/>
</g>
<!-- Node67&#45;&gt;Node2 -->
<g id="edge56" class="edge">
<title>Node67&#45;&gt;Node2</title>
<path fill="none" stroke="midnightblue" d="M3836.6,-199.94C3766.41,-188.61 3678.53,-173.78 3642.5,-165 3635.48,-163.29 3628.09,-161.21 3620.95,-159.04"/>
<polygon fill="midnightblue" stroke="midnightblue" points="3836.39,-203.45 3846.81,-201.58 3837.5,-196.54 3836.39,-203.45"/>
</g>
<!-- Node68 -->
<g id="node48" class="node">
<title>Node68</title>
<g id="a_node48"><a xlink:href="JKRMemArchive_8cpp.html" target="_top" xlink:title=" ">
<polygon fill="white" stroke="black" points="3880,-129 3880,-159 3991,-159 3991,-129 3880,-129"/>
<text text-anchor="start" x="3888" y="-147" font-family="Helvetica,sans-Serif" font-size="10.00">libs/JSystem/JKernel</text>
<text text-anchor="middle" x="3935.5" y="-136" font-family="Helvetica,sans-Serif" font-size="10.00">/JKRMemArchive.cpp</text>
</a>
</g>
</g>
<!-- Node67&#45;&gt;Node68 -->
<g id="edge57" class="edge">
<title>Node67&#45;&gt;Node68</title>
<path fill="none" stroke="midnightblue" d="M3935.5,-191.23C3935.5,-180.57 3935.5,-168.41 3935.5,-159.25"/>
<polygon fill="midnightblue" stroke="midnightblue" points="3932,-191.23 3935.5,-201.23 3939,-191.23 3932,-191.23"/>
</g>
<!-- Node70 -->
<g id="node50" class="node">
<title>Node70</title>
<g id="a_node50"><a xlink:href="JKRFileCache_8cpp.html" target="_top" xlink:title=" ">
<polygon fill="white" stroke="black" points="4042,-201.5 4042,-231.5 4151,-231.5 4151,-201.5 4042,-201.5"/>
<text text-anchor="start" x="4050" y="-219.5" font-family="Helvetica,sans-Serif" font-size="10.00">libs/JSystem/JKernel</text>
<text text-anchor="middle" x="4096.5" y="-208.5" font-family="Helvetica,sans-Serif" font-size="10.00">/JKRFileCache.cpp</text>
</a>
</g>
</g>
<!-- Node69&#45;&gt;Node70 -->
<g id="edge59" class="edge">
<title>Node69&#45;&gt;Node70</title>
<path fill="none" stroke="midnightblue" d="M4037.4,-262.17C4050.55,-252.23 4066.05,-240.51 4077.88,-231.58"/>
<polygon fill="midnightblue" stroke="midnightblue" points="4035.03,-259.57 4029.16,-268.4 4039.25,-265.16 4035.03,-259.57"/>
</g>
</g>
</svg>
