<?xml version="1.0" encoding="UTF-8" standalone="no"?>
<!DOCTYPE svg PUBLIC "-//W3C//DTD SVG 1.1//EN"
 "http://www.w3.org/Graphics/SVG/1.1/DTD/svg11.dtd">
<!-- Generated by graphviz version 7.0.5 (20221223.1930)
 -->
<!-- Title: include/JSystem/JKernel/JKRHeap.h Pages: 1 -->
<svg width="299pt" height="313pt"
 viewBox="0.00 0.00 298.50 313.00" xmlns="http://www.w3.org/2000/svg" xmlns:xlink="http://www.w3.org/1999/xlink">
<g id="graph0" class="graph" transform="scale(1 1) rotate(0) translate(4 309)">
<title>include/JSystem/JKernel/JKRHeap.h</title>
<!-- Node1 -->
<g id="node1" class="node">
<title>Node1</title>
<g id="a_node1"><a xlink:title=" ">
<polygon fill="#999999" stroke="#666666" points="217.5,-305 92.5,-305 92.5,-275 217.5,-275 217.5,-305"/>
<text text-anchor="start" x="100.5" y="-293" font-family="Helvetica,sans-Serif" font-size="10.00">include/JSystem/JKernel</text>
<text text-anchor="middle" x="155" y="-282" font-family="Helvetica,sans-Serif" font-size="10.00">/JKRHeap.h</text>
</a>
</g>
</g>
<!-- Node2 -->
<g id="node2" class="node">
<title>Node2</title>
<g id="a_node2"><a xlink:href="JKRDisposer_8h.html" target="_top" xlink:title=" ">
<polygon fill="white" stroke="#666666" points="158,-239 0,-239 0,-220 158,-220 158,-239"/>
<text text-anchor="middle" x="79" y="-227" font-family="Helvetica,sans-Serif" font-size="10.00">JSystem/JKernel/JKRDisposer.h</text>
</a>
</g>
</g>
<!-- Node1&#45;&gt;Node2 -->
<g id="edge1" class="edge">
<title>Node1&#45;&gt;Node2</title>
<path fill="none" stroke="#63b8ff" d="M136.21,-274.54C124.95,-265.87 110.63,-254.85 99.13,-246"/>
<polygon fill="#63b8ff" stroke="#63b8ff" points="101.53,-243.42 91.47,-240.1 97.26,-248.97 101.53,-243.42"/>
</g>
<!-- Node6 -->
<g id="node6" class="node">
<title>Node6</title>
<g id="a_node6"><a xlink:href="OSMutex_8h.html" target="_top" xlink:title=" ">
<polygon fill="white" stroke="#666666" points="288,-239 176,-239 176,-220 288,-220 288,-239"/>
<text text-anchor="middle" x="232" y="-227" font-family="Helvetica,sans-Serif" font-size="10.00">dolphin/os/OSMutex.h</text>
</a>
</g>
</g>
<!-- Node1&#45;&gt;Node6 -->
<g id="edge5" class="edge">
<title>Node1&#45;&gt;Node6</title>
<path fill="none" stroke="#63b8ff" d="M174.03,-274.54C185.45,-265.87 199.95,-254.85 211.6,-246"/>
<polygon fill="#63b8ff" stroke="#63b8ff" points="213.53,-248.93 219.38,-240.09 209.3,-243.35 213.53,-248.93"/>
</g>
<!-- Node3 -->
<g id="node3" class="node">
<title>Node3</title>
<g id="a_node3"><a xlink:href="JSUList_8h.html" target="_top" xlink:title=" ">
<polygon fill="white" stroke="#666666" points="153.5,-129 10.5,-129 10.5,-110 153.5,-110 153.5,-129"/>
<text text-anchor="middle" x="82" y="-117" font-family="Helvetica,sans-Serif" font-size="10.00">JSystem/JSupport/JSUList.h</text>
</a>
</g>
</g>
<!-- Node2&#45;&gt;Node3 -->
<g id="edge2" class="edge">
<title>Node2&#45;&gt;Node3</title>
<path fill="none" stroke="#63b8ff" d="M79.25,-219.66C79.72,-202.57 80.77,-164.61 81.43,-140.92"/>
<polygon fill="#63b8ff" stroke="#63b8ff" points="84.93,-141.07 81.71,-130.97 77.93,-140.87 84.93,-141.07"/>
</g>
<!-- Node4 -->
<g id="node4" class="node">
<title>Node4</title>
<g id="a_node4"><a xlink:href="types_8h.html" target="_top" xlink:title=" ">
<polygon fill="white" stroke="#666666" points="196.5,-74 115.5,-74 115.5,-55 196.5,-55 196.5,-74"/>
<text text-anchor="middle" x="156" y="-62" font-family="Helvetica,sans-Serif" font-size="10.00">dolphin/types.h</text>
</a>
</g>
</g>
<!-- Node3&#45;&gt;Node4 -->
<g id="edge3" class="edge">
<title>Node3&#45;&gt;Node4</title>
<path fill="none" stroke="#63b8ff" d="M94.55,-109.51C105.46,-101.7 121.5,-90.21 134.46,-80.93"/>
<polygon fill="#63b8ff" stroke="#63b8ff" points="136.31,-83.91 142.4,-75.24 132.23,-78.22 136.31,-83.91"/>
</g>
<!-- Node5 -->
<g id="node5" class="node">
<title>Node5</title>
<g id="a_node5"><a xlink:href="stddef_8h.html" target="_top" xlink:title=" ">
<polygon fill="white" stroke="#666666" points="181.5,-19 130.5,-19 130.5,0 181.5,0 181.5,-19"/>
<text text-anchor="middle" x="156" y="-7" font-family="Helvetica,sans-Serif" font-size="10.00">stddef.h</text>
</a>
</g>
</g>
<!-- Node4&#45;&gt;Node5 -->
<g id="edge4" class="edge">
<title>Node4&#45;&gt;Node5</title>
<path fill="none" stroke="#63b8ff" d="M156,-54.75C156,-48.27 156,-39.16 156,-30.9"/>
<polygon fill="#63b8ff" stroke="#63b8ff" points="159.5,-30.96 156,-20.96 152.5,-30.96 159.5,-30.96"/>
</g>
<!-- Node7 -->
<g id="node7" class="node">
<title>Node7</title>
<g id="a_node7"><a xlink:href="OSThread_8h.html" target="_top" xlink:title=" ">
<polygon fill="white" stroke="#666666" points="289,-184 173,-184 173,-165 289,-165 289,-184"/>
<text text-anchor="middle" x="231" y="-172" font-family="Helvetica,sans-Serif" font-size="10.00">dolphin/os/OSThread.h</text>
</a>
</g>
</g>
<!-- Node6&#45;&gt;Node7 -->
<g id="edge6" class="edge">
<title>Node6&#45;&gt;Node7</title>
<path fill="none" stroke="#63b8ff" d="M231.83,-219.75C231.71,-213.27 231.54,-204.16 231.38,-195.9"/>
<polygon fill="#63b8ff" stroke="#63b8ff" points="234.89,-195.89 231.2,-185.96 227.89,-196.02 234.89,-195.89"/>
</g>
<!-- Node8 -->
<g id="node8" class="node">
<title>Node8</title>
<g id="a_node8"><a xlink:href="OSContext_8h.html" target="_top" xlink:title=" ">
<polygon fill="white" stroke="#666666" points="290.5,-129 171.5,-129 171.5,-110 290.5,-110 290.5,-129"/>
<text text-anchor="middle" x="231" y="-117" font-family="Helvetica,sans-Serif" font-size="10.00">dolphin/os/OSContext.h</text>
</a>
</g>
</g>
<!-- Node7&#45;&gt;Node8 -->
<g id="edge7" class="edge">
<title>Node7&#45;&gt;Node8</title>
<path fill="none" stroke="#63b8ff" d="M231,-164.75C231,-158.27 231,-149.16 231,-140.9"/>
<polygon fill="#63b8ff" stroke="#63b8ff" points="234.5,-140.96 231,-130.96 227.5,-140.96 234.5,-140.96"/>
</g>
<!-- Node8&#45;&gt;Node4 -->
<g id="edge8" class="edge">
<title>Node8&#45;&gt;Node4</title>
<path fill="none" stroke="#63b8ff" d="M218.28,-109.51C207.22,-101.7 190.96,-90.21 177.83,-80.93"/>
<polygon fill="#63b8ff" stroke="#63b8ff" points="179.96,-78.14 169.77,-75.23 175.92,-83.86 179.96,-78.14"/>
</g>
</g>
</svg>
