<?xml version="1.0" encoding="UTF-8" standalone="no"?>
<!DOCTYPE svg PUBLIC "-//W3C//DTD SVG 1.1//EN"
 "http://www.w3.org/Graphics/SVG/1.1/DTD/svg11.dtd">
<!-- Generated by graphviz version 7.0.5 (20221223.1930)
 -->
<!-- Title: libs/JSystem/JKernel/JKRHeap.cpp Pages: 1 -->
<svg width="2118pt" height="489pt"
 viewBox="0.00 0.00 2117.62 489.00" xmlns="http://www.w3.org/2000/svg" xmlns:xlink="http://www.w3.org/1999/xlink">
<g id="graph0" class="graph" transform="scale(1 1) rotate(0) translate(4 485)">
<title>libs/JSystem/JKernel/JKRHeap.cpp</title>
<!-- Node1 -->
<g id="node1" class="node">
<title>Node1</title>
<g id="a_node1"><a xlink:title=" ">
<polygon fill="#999999" stroke="#666666" points="1214.07,-481 1105.07,-481 1105.07,-451 1214.07,-451 1214.07,-481"/>
<text text-anchor="start" x="1113.07" y="-469" font-family="Helvetica,sans-Serif" font-size="10.00">libs/JSystem/JKernel</text>
<text text-anchor="middle" x="1159.57" y="-458" font-family="Helvetica,sans-Serif" font-size="10.00">/JKRHeap.cpp</text>
</a>
</g>
</g>
<!-- Node2 -->
<g id="node2" class="node">
<title>Node2</title>
<g id="a_node2"><a xlink:href="JKRHeap_8h.html" target="_top" xlink:title=" ">
<polygon fill="white" stroke="#666666" points="1407.07,-305 1264.07,-305 1264.07,-286 1407.07,-286 1407.07,-305"/>
<text text-anchor="middle" x="1335.57" y="-293" font-family="Helvetica,sans-Serif" font-size="10.00">JSystem/JKernel/JKRHeap.h</text>
</a>
</g>
</g>
<!-- Node1&#45;&gt;Node2 -->
<g id="edge1" class="edge">
<title>Node1&#45;&gt;Node2</title>
<path fill="none" stroke="#63b8ff" d="M1174.58,-450.63C1207.09,-419.51 1283.85,-346.02 1318.31,-313.03"/>
<polygon fill="#63b8ff" stroke="#63b8ff" points="1320.57,-315.71 1325.38,-306.26 1315.73,-310.65 1320.57,-315.71"/>
</g>
<!-- Node10 -->
<g id="node10" class="node">
<title>Node10</title>
<g id="a_node10"><a xlink:href="JUTAssert_8h.html" target="_top" xlink:title=" ">
<polygon fill="white" stroke="#666666" points="890.57,-360 744.57,-360 744.57,-341 890.57,-341 890.57,-360"/>
<text text-anchor="middle" x="817.57" y="-348" font-family="Helvetica,sans-Serif" font-size="10.00">JSystem/JUtility/JUTAssert.h</text>
</a>
</g>
</g>
<!-- Node1&#45;&gt;Node10 -->
<g id="edge10" class="edge">
<title>Node1&#45;&gt;Node10</title>
<path fill="none" stroke="#63b8ff" d="M1115.91,-450.51C1048.13,-428.02 918.77,-385.08 855,-363.92"/>
<polygon fill="#63b8ff" stroke="#63b8ff" points="856.29,-360.66 845.69,-360.83 854.08,-367.3 856.29,-360.66"/>
</g>
<!-- Node11 -->
<g id="node11" class="node">
<title>Node11</title>
<g id="a_node11"><a xlink:href="os_8h.html" target="_top" xlink:title=" ">
<polygon fill="white" stroke="#666666" points="851.57,-305 783.57,-305 783.57,-286 851.57,-286 851.57,-305"/>
<text text-anchor="middle" x="817.57" y="-293" font-family="Helvetica,sans-Serif" font-size="10.00">dolphin/os.h</text>
</a>
</g>
</g>
<!-- Node1&#45;&gt;Node11 -->
<g id="edge75" class="edge">
<title>Node1&#45;&gt;Node11</title>
<path fill="none" stroke="#63b8ff" d="M1130.41,-450.63C1065.52,-418.66 909.84,-341.96 845.81,-310.41"/>
<polygon fill="#63b8ff" stroke="#63b8ff" points="847.53,-307.36 837.01,-306.08 844.44,-313.64 847.53,-307.36"/>
</g>
<!-- Node32 -->
<g id="node32" class="node">
<title>Node32</title>
<g id="a_node32"><a xlink:href="JUTException_8h.html" target="_top" xlink:title=" ">
<polygon fill="white" stroke="#666666" points="1917.07,-415 1758.07,-415 1758.07,-396 1917.07,-396 1917.07,-415"/>
<text text-anchor="middle" x="1837.57" y="-403" font-family="Helvetica,sans-Serif" font-size="10.00">JSystem/JUtility/JUTException.h</text>
</a>
</g>
</g>
<!-- Node1&#45;&gt;Node32 -->
<g id="edge56" class="edge">
<title>Node1&#45;&gt;Node32</title>
<path fill="none" stroke="#63b8ff" d="M1214.48,-460.26C1330.89,-450.22 1603.47,-426.7 1746.42,-414.36"/>
<polygon fill="#63b8ff" stroke="#63b8ff" points="1746.58,-417.86 1756.24,-413.52 1745.97,-410.89 1746.58,-417.86"/>
</g>
<!-- Node3 -->
<g id="node3" class="node">
<title>Node3</title>
<g id="a_node3"><a xlink:href="JKRDisposer_8h.html" target="_top" xlink:title=" ">
<polygon fill="white" stroke="#666666" points="1804.57,-184 1646.57,-184 1646.57,-165 1804.57,-165 1804.57,-184"/>
<text text-anchor="middle" x="1725.57" y="-172" font-family="Helvetica,sans-Serif" font-size="10.00">JSystem/JKernel/JKRDisposer.h</text>
</a>
</g>
</g>
<!-- Node2&#45;&gt;Node3 -->
<g id="edge2" class="edge">
<title>Node2&#45;&gt;Node3</title>
<path fill="none" stroke="#63b8ff" d="M1407.36,-292.28C1524.18,-287.91 1744.87,-276.26 1768.57,-250 1784.65,-232.18 1763.6,-207.38 1745.7,-191.38"/>
<polygon fill="#63b8ff" stroke="#63b8ff" points="1748.39,-189.07 1738.49,-185.28 1743.86,-194.41 1748.39,-189.07"/>
</g>
<!-- Node7 -->
<g id="node7" class="node">
<title>Node7</title>
<g id="a_node7"><a xlink:href="OSMutex_8h.html" target="_top" xlink:title=" ">
<polygon fill="white" stroke="#666666" points="1176.57,-244.5 1064.57,-244.5 1064.57,-225.5 1176.57,-225.5 1176.57,-244.5"/>
<text text-anchor="middle" x="1120.57" y="-232.5" font-family="Helvetica,sans-Serif" font-size="10.00">dolphin/os/OSMutex.h</text>
</a>
</g>
</g>
<!-- Node2&#45;&gt;Node7 -->
<g id="edge6" class="edge">
<title>Node2&#45;&gt;Node7</title>
<path fill="none" stroke="#63b8ff" d="M1302.92,-285.62C1265.98,-275.56 1205.64,-259.15 1164.57,-247.97"/>
<polygon fill="#63b8ff" stroke="#63b8ff" points="1165.56,-244.61 1155,-245.37 1163.73,-251.37 1165.56,-244.61"/>
</g>
<!-- Node4 -->
<g id="node4" class="node">
<title>Node4</title>
<g id="a_node4"><a xlink:href="JSUList_8h.html" target="_top" xlink:title=" ">
<polygon fill="white" stroke="#666666" points="1794.07,-129 1651.07,-129 1651.07,-110 1794.07,-110 1794.07,-129"/>
<text text-anchor="middle" x="1722.57" y="-117" font-family="Helvetica,sans-Serif" font-size="10.00">JSystem/JSupport/JSUList.h</text>
</a>
</g>
</g>
<!-- Node3&#45;&gt;Node4 -->
<g id="edge3" class="edge">
<title>Node3&#45;&gt;Node4</title>
<path fill="none" stroke="#63b8ff" d="M1725.08,-164.75C1724.71,-158.27 1724.2,-149.16 1723.73,-140.9"/>
<polygon fill="#63b8ff" stroke="#63b8ff" points="1727.23,-140.74 1723.17,-130.95 1720.24,-141.13 1727.23,-140.74"/>
</g>
<!-- Node5 -->
<g id="node5" class="node">
<title>Node5</title>
<g id="a_node5"><a xlink:href="types_8h.html" target="_top" xlink:title=" ">
<polygon fill="white" stroke="#666666" points="1264.07,-74 1183.07,-74 1183.07,-55 1264.07,-55 1264.07,-74"/>
<text text-anchor="middle" x="1223.57" y="-62" font-family="Helvetica,sans-Serif" font-size="10.00">dolphin/types.h</text>
</a>
</g>
</g>
<!-- Node4&#45;&gt;Node5 -->
<g id="edge4" class="edge">
<title>Node4&#45;&gt;Node5</title>
<path fill="none" stroke="#63b8ff" d="M1650.81,-110.88C1549.02,-100.07 1365.11,-80.53 1275.49,-71.01"/>
<polygon fill="#63b8ff" stroke="#63b8ff" points="1276.08,-67.56 1265.77,-69.98 1275.34,-74.52 1276.08,-67.56"/>
</g>
<!-- Node6 -->
<g id="node6" class="node">
<title>Node6</title>
<g id="a_node6"><a xlink:href="stddef_8h.html" target="_top" xlink:title=" ">
<polygon fill="white" stroke="#666666" points="1249.07,-19 1198.07,-19 1198.07,0 1249.07,0 1249.07,-19"/>
<text text-anchor="middle" x="1223.57" y="-7" font-family="Helvetica,sans-Serif" font-size="10.00">stddef.h</text>
</a>
</g>
</g>
<!-- Node5&#45;&gt;Node6 -->
<g id="edge5" class="edge">
<title>Node5&#45;&gt;Node6</title>
<path fill="none" stroke="#63b8ff" d="M1223.57,-54.75C1223.57,-48.27 1223.57,-39.16 1223.57,-30.9"/>
<polygon fill="#63b8ff" stroke="#63b8ff" points="1227.07,-30.96 1223.57,-20.96 1220.07,-30.96 1227.07,-30.96"/>
</g>
<!-- Node8 -->
<g id="node8" class="node">
<title>Node8</title>
<g id="a_node8"><a xlink:href="OSThread_8h.html" target="_top" xlink:title=" ">
<polygon fill="white" stroke="#666666" points="1176.57,-184 1060.57,-184 1060.57,-165 1176.57,-165 1176.57,-184"/>
<text text-anchor="middle" x="1118.57" y="-172" font-family="Helvetica,sans-Serif" font-size="10.00">dolphin/os/OSThread.h</text>
</a>
</g>
</g>
<!-- Node7&#45;&gt;Node8 -->
<g id="edge7" class="edge">
<title>Node7&#45;&gt;Node8</title>
<path fill="none" stroke="#63b8ff" d="M1120.28,-225.37C1120.01,-217.5 1119.6,-205.6 1119.25,-195.39"/>
<polygon fill="#63b8ff" stroke="#63b8ff" points="1122.76,-195.55 1118.92,-185.68 1115.77,-195.79 1122.76,-195.55"/>
</g>
<!-- Node9 -->
<g id="node9" class="node">
<title>Node9</title>
<g id="a_node9"><a xlink:href="OSContext_8h.html" target="_top" xlink:title=" ">
<polygon fill="white" stroke="#666666" points="960.07,-129 841.07,-129 841.07,-110 960.07,-110 960.07,-129"/>
<text text-anchor="middle" x="900.57" y="-117" font-family="Helvetica,sans-Serif" font-size="10.00">dolphin/os/OSContext.h</text>
</a>
</g>
</g>
<!-- Node8&#45;&gt;Node9 -->
<g id="edge8" class="edge">
<title>Node8&#45;&gt;Node9</title>
<path fill="none" stroke="#63b8ff" d="M1081.59,-164.51C1044.92,-155.59 988.55,-141.89 948.47,-132.15"/>
<polygon fill="#63b8ff" stroke="#63b8ff" points="949.39,-128.77 938.84,-129.8 947.73,-135.57 949.39,-128.77"/>
</g>
<!-- Node9&#45;&gt;Node5 -->
<g id="edge9" class="edge">
<title>Node9&#45;&gt;Node5</title>
<path fill="none" stroke="#63b8ff" d="M955.37,-109.51C1015.77,-99.6 1112.23,-83.77 1171.52,-74.04"/>
<polygon fill="#63b8ff" stroke="#63b8ff" points="1172.07,-77.5 1181.37,-72.42 1170.94,-70.59 1172.07,-77.5"/>
</g>
<!-- Node10&#45;&gt;Node5 -->
<g id="edge11" class="edge">
<title>Node10&#45;&gt;Node5</title>
<path fill="none" stroke="#63b8ff" d="M744.38,-346.71C547.35,-338.22 20.57,-308.72 20.57,-236 20.57,-236 20.57,-236 20.57,-173.5 20.57,-162.51 -90.33,-164.15 208.57,-110 396.24,-76 991.13,-67.69 1171.34,-65.93"/>
<polygon fill="#63b8ff" stroke="#63b8ff" points="1171.12,-69.43 1181.09,-65.83 1171.05,-62.43 1171.12,-69.43"/>
</g>
<!-- Node10&#45;&gt;Node11 -->
<g id="edge12" class="edge">
<title>Node10&#45;&gt;Node11</title>
<path fill="none" stroke="#63b8ff" d="M817.57,-340.75C817.57,-334.27 817.57,-325.16 817.57,-316.9"/>
<polygon fill="#63b8ff" stroke="#63b8ff" points="821.07,-316.96 817.57,-306.96 814.07,-316.96 821.07,-316.96"/>
</g>
<!-- Node11&#45;&gt;Node7 -->
<g id="edge43" class="edge">
<title>Node11&#45;&gt;Node7</title>
<path fill="none" stroke="#63b8ff" d="M851.94,-288.03C897.41,-279.46 980.05,-263.79 1050.57,-250 1055.23,-249.09 1060.05,-248.14 1064.89,-247.18"/>
<polygon fill="#63b8ff" stroke="#63b8ff" points="1065.54,-250.62 1074.66,-245.24 1064.17,-243.76 1065.54,-250.62"/>
</g>
<!-- Node11&#45;&gt;Node8 -->
<g id="edge54" class="edge">
<title>Node11&#45;&gt;Node8</title>
<path fill="none" stroke="#63b8ff" d="M819.48,-285.7C823.41,-269.79 834.02,-236.39 856.57,-220 886.52,-198.24 981.87,-186.27 1048.86,-180.37"/>
<polygon fill="#63b8ff" stroke="#63b8ff" points="1049.01,-183.88 1058.67,-179.54 1048.41,-176.9 1049.01,-183.88"/>
</g>
<!-- Node11&#45;&gt;Node9 -->
<g id="edge29" class="edge">
<title>Node11&#45;&gt;Node9</title>
<path fill="none" stroke="#63b8ff" d="M783.28,-294.01C715.18,-291.76 573,-279.96 615.57,-220 642.63,-181.9 770.31,-148.59 845.28,-131.89"/>
<polygon fill="#63b8ff" stroke="#63b8ff" points="845.89,-135.34 854.91,-129.78 844.39,-128.51 845.89,-135.34"/>
</g>
<!-- Node12 -->
<g id="node12" class="node">
<title>Node12</title>
<g id="a_node12"><a xlink:href="____va__arg_8h.html" target="_top" xlink:title=" ">
<polygon fill="white" stroke="#666666" points="1759.57,-244.5 1695.57,-244.5 1695.57,-225.5 1759.57,-225.5 1759.57,-244.5"/>
<text text-anchor="middle" x="1727.57" y="-232.5" font-family="Helvetica,sans-Serif" font-size="10.00">__va_arg.h</text>
</a>
</g>
</g>
<!-- Node11&#45;&gt;Node12 -->
<g id="edge13" class="edge">
<title>Node11&#45;&gt;Node12</title>
<path fill="none" stroke="#63b8ff" d="M851.8,-293.28C961.54,-289.2 1314.43,-274.9 1605.57,-250 1631.65,-247.77 1660.77,-244.46 1684.02,-241.62"/>
<polygon fill="#63b8ff" stroke="#63b8ff" points="1684.26,-245.11 1693.76,-240.41 1683.4,-238.17 1684.26,-245.11"/>
</g>
<!-- Node13 -->
<g id="node13" class="node">
<title>Node13</title>
<g id="a_node13"><a xlink:href="dvd_8h.html" target="_top" xlink:title=" ">
<polygon fill="white" stroke="#666666" points="660.57,-184 586.57,-184 586.57,-165 660.57,-165 660.57,-184"/>
<text text-anchor="middle" x="623.57" y="-172" font-family="Helvetica,sans-Serif" font-size="10.00">dolphin/dvd.h</text>
</a>
</g>
</g>
<!-- Node11&#45;&gt;Node13 -->
<g id="edge15" class="edge">
<title>Node11&#45;&gt;Node13</title>
<path fill="none" stroke="#63b8ff" d="M810.81,-285.98C798.37,-270.81 770.4,-238.96 740.57,-220 718.43,-205.92 691.15,-195.23 668.5,-187.85"/>
<polygon fill="#63b8ff" stroke="#63b8ff" points="669.83,-184.6 659.24,-184.95 667.74,-191.28 669.83,-184.6"/>
</g>
<!-- Node14 -->
<g id="node14" class="node">
<title>Node14</title>
<g id="a_node14"><a xlink:href="OSAlarm_8h.html" target="_top" xlink:title=" ">
<polygon fill="white" stroke="#666666" points="1563.07,-244.5 1452.07,-244.5 1452.07,-225.5 1563.07,-225.5 1563.07,-244.5"/>
<text text-anchor="middle" x="1507.57" y="-232.5" font-family="Helvetica,sans-Serif" font-size="10.00">dolphin/os/OSAlarm.h</text>
</a>
</g>
</g>
<!-- Node11&#45;&gt;Node14 -->
<g id="edge17" class="edge">
<title>Node11&#45;&gt;Node14</title>
<path fill="none" stroke="#63b8ff" d="M852.03,-293.8C946.86,-291.48 1219.54,-282.29 1443.57,-250 1448.85,-249.24 1454.35,-248.29 1459.8,-247.24"/>
<polygon fill="#63b8ff" stroke="#63b8ff" points="1460.27,-250.72 1469.37,-245.29 1458.87,-243.86 1460.27,-250.72"/>
</g>
<!-- Node15 -->
<g id="node15" class="node">
<title>Node15</title>
<g id="a_node15"><a xlink:href="OSError_8h.html" target="_top" xlink:title=" ">
<polygon fill="white" stroke="#666666" points="1464.57,-184 1358.57,-184 1358.57,-165 1464.57,-165 1464.57,-184"/>
<text text-anchor="middle" x="1411.57" y="-172" font-family="Helvetica,sans-Serif" font-size="10.00">dolphin/os/OSError.h</text>
</a>
</g>
</g>
<!-- Node11&#45;&gt;Node15 -->
<g id="edge30" class="edge">
<title>Node11&#45;&gt;Node15</title>
<path fill="none" stroke="#63b8ff" d="M851.81,-292.86C940.45,-288.31 1175.7,-274.25 1249.57,-250 1274.56,-241.8 1276.97,-231.59 1300.57,-220 1325.12,-207.94 1353.8,-196.51 1375.86,-188.25"/>
<polygon fill="#63b8ff" stroke="#63b8ff" points="1376.83,-191.62 1385,-184.88 1374.41,-185.06 1376.83,-191.62"/>
</g>
<!-- Node16 -->
<g id="node16" class="node">
<title>Node16</title>
<g id="a_node16"><a xlink:href="OSTime_8h.html" target="_top" xlink:title=" ">
<polygon fill="white" stroke="#666666" points="1590.07,-184 1483.07,-184 1483.07,-165 1590.07,-165 1590.07,-184"/>
<text text-anchor="middle" x="1536.57" y="-172" font-family="Helvetica,sans-Serif" font-size="10.00">dolphin/os/OSTime.h</text>
</a>
</g>
</g>
<!-- Node11&#45;&gt;Node16 -->
<g id="edge55" class="edge">
<title>Node11&#45;&gt;Node16</title>
<path fill="none" stroke="#63b8ff" d="M851.69,-293.78C995.69,-290.57 1547.52,-276.57 1572.57,-250 1588.35,-233.27 1570.32,-208.33 1554.59,-191.99"/>
<polygon fill="#63b8ff" stroke="#63b8ff" points="1557.44,-189.88 1547.85,-185.38 1552.54,-194.88 1557.44,-189.88"/>
</g>
<!-- Node17 -->
<g id="node17" class="node">
<title>Node17</title>
<g id="a_node17"><a xlink:href="OSAlloc_8h.html" target="_top" xlink:title=" ">
<polygon fill="white" stroke="#666666" points="1085.07,-129 978.07,-129 978.07,-110 1085.07,-110 1085.07,-129"/>
<text text-anchor="middle" x="1031.57" y="-117" font-family="Helvetica,sans-Serif" font-size="10.00">dolphin/os/OSAlloc.h</text>
</a>
</g>
</g>
<!-- Node11&#45;&gt;Node17 -->
<g id="edge22" class="edge">
<title>Node11&#45;&gt;Node17</title>
<path fill="none" stroke="#63b8ff" d="M816.57,-285.72C815.33,-270.7 814.94,-239.81 829.57,-220 865.28,-171.68 930.91,-145.52 977.67,-132.32"/>
<polygon fill="#63b8ff" stroke="#63b8ff" points="978.32,-135.77 987.07,-129.79 976.5,-129.01 978.32,-135.77"/>
</g>
<!-- Node18 -->
<g id="node18" class="node">
<title>Node18</title>
<g id="a_node18"><a xlink:href="OSArena_8h.html" target="_top" xlink:title=" ">
<polygon fill="white" stroke="#666666" points="1214.07,-129 1103.07,-129 1103.07,-110 1214.07,-110 1214.07,-129"/>
<text text-anchor="middle" x="1158.57" y="-117" font-family="Helvetica,sans-Serif" font-size="10.00">dolphin/os/OSArena.h</text>
</a>
</g>
</g>
<!-- Node11&#45;&gt;Node18 -->
<g id="edge24" class="edge">
<title>Node11&#45;&gt;Node18</title>
<path fill="none" stroke="#63b8ff" d="M851.86,-290.75C902.23,-284.61 992.91,-270.97 1017.57,-250 1048.57,-223.64 1023,-193.97 1051.57,-165 1066.41,-149.96 1087.07,-139.78 1106.28,-132.99"/>
<polygon fill="#63b8ff" stroke="#63b8ff" points="1107.21,-136.37 1115.63,-129.94 1105.04,-129.71 1107.21,-136.37"/>
</g>
<!-- Node19 -->
<g id="node19" class="node">
<title>Node19</title>
<g id="a_node19"><a xlink:href="OSAudioSystem_8h.html" target="_top" xlink:title=" ">
<polygon fill="white" stroke="#666666" points="1008.07,-244.5 865.07,-244.5 865.07,-225.5 1008.07,-225.5 1008.07,-244.5"/>
<text text-anchor="middle" x="936.57" y="-232.5" font-family="Helvetica,sans-Serif" font-size="10.00">dolphin/os/OSAudioSystem.h</text>
</a>
</g>
</g>
<!-- Node11&#45;&gt;Node19 -->
<g id="edge26" class="edge">
<title>Node11&#45;&gt;Node19</title>
<path fill="none" stroke="#63b8ff" d="M835.65,-285.62C854.87,-276.17 885.54,-261.09 908.03,-250.03"/>
<polygon fill="#63b8ff" stroke="#63b8ff" points="909.54,-253.19 916.97,-245.64 906.45,-246.91 909.54,-253.19"/>
</g>
<!-- Node20 -->
<g id="node20" class="node">
<title>Node20</title>
<g id="a_node20"><a xlink:href="OSCache_8h.html" target="_top" xlink:title=" ">
<polygon fill="white" stroke="#666666" points="1345.07,-129 1232.07,-129 1232.07,-110 1345.07,-110 1345.07,-129"/>
<text text-anchor="middle" x="1288.57" y="-117" font-family="Helvetica,sans-Serif" font-size="10.00">dolphin/os/OSCache.h</text>
</a>
</g>
</g>
<!-- Node11&#45;&gt;Node20 -->
<g id="edge27" class="edge">
<title>Node11&#45;&gt;Node20</title>
<path fill="none" stroke="#63b8ff" d="M851.88,-294.52C932.82,-293.91 1132.88,-288.46 1185.57,-250 1219.15,-225.5 1197.9,-196.88 1224.57,-165 1234.61,-153 1248.64,-142.76 1261,-135.14"/>
<polygon fill="#63b8ff" stroke="#63b8ff" points="1262.7,-138.21 1269.57,-130.14 1259.17,-132.16 1262.7,-138.21"/>
</g>
<!-- Node21 -->
<g id="node21" class="node">
<title>Node21</title>
<g id="a_node21"><a xlink:href="OSExec_8h.html" target="_top" xlink:title=" ">
<polygon fill="white" stroke="#666666" points="1340.07,-184 1233.07,-184 1233.07,-165 1340.07,-165 1340.07,-184"/>
<text text-anchor="middle" x="1286.57" y="-172" font-family="Helvetica,sans-Serif" font-size="10.00">dolphin/os/OSExec.h</text>
</a>
</g>
</g>
<!-- Node11&#45;&gt;Node21 -->
<g id="edge31" class="edge">
<title>Node11&#45;&gt;Node21</title>
<path fill="none" stroke="#63b8ff" d="M851.98,-293.77C937,-291.47 1154.74,-282.48 1218.57,-250 1243.62,-237.25 1263.99,-211.21 1275.7,-193.55"/>
<polygon fill="#63b8ff" stroke="#63b8ff" points="1278.37,-195.88 1280.76,-185.56 1272.45,-192.14 1278.37,-195.88"/>
</g>
<!-- Node22 -->
<g id="node22" class="node">
<title>Node22</title>
<g id="a_node22"><a xlink:href="OSFont_8h.html" target="_top" xlink:title=" ">
<polygon fill="white" stroke="#666666" points="154.07,-184 49.07,-184 49.07,-165 154.07,-165 154.07,-184"/>
<text text-anchor="middle" x="101.57" y="-172" font-family="Helvetica,sans-Serif" font-size="10.00">dolphin/os/OSFont.h</text>
</a>
</g>
</g>
<!-- Node11&#45;&gt;Node22 -->
<g id="edge33" class="edge">
<title>Node11&#45;&gt;Node22</title>
<path fill="none" stroke="#63b8ff" d="M783.4,-294.39C652.09,-293.67 184.69,-288.44 131.57,-250 114.21,-237.44 106.88,-213.11 103.8,-195.67"/>
<polygon fill="#63b8ff" stroke="#63b8ff" points="107.29,-195.36 102.43,-185.95 100.36,-196.34 107.29,-195.36"/>
</g>
<!-- Node23 -->
<g id="node23" class="node">
<title>Node23</title>
<g id="a_node23"><a xlink:href="OSInterrupt_8h.html" target="_top" xlink:title=" ">
<polygon fill="white" stroke="#666666" points="294.57,-184 172.57,-184 172.57,-165 294.57,-165 294.57,-184"/>
<text text-anchor="middle" x="233.57" y="-172" font-family="Helvetica,sans-Serif" font-size="10.00">dolphin/os/OSInterrupt.h</text>
</a>
</g>
</g>
<!-- Node11&#45;&gt;Node23 -->
<g id="edge35" class="edge">
<title>Node11&#45;&gt;Node23</title>
<path fill="none" stroke="#63b8ff" d="M783.41,-294.91C652.19,-296.15 185.74,-297.17 141.57,-250 132.46,-240.27 134.49,-231.3 141.57,-220 150.93,-205.08 166.86,-195.04 182.86,-188.34"/>
<polygon fill="#63b8ff" stroke="#63b8ff" points="183.78,-191.73 191.9,-184.93 181.31,-185.18 183.78,-191.73"/>
</g>
<!-- Node24 -->
<g id="node24" class="node">
<title>Node24</title>
<g id="a_node24"><a xlink:href="OSLink_8h.html" target="_top" xlink:title=" ">
<polygon fill="white" stroke="#666666" points="454.57,-184 350.57,-184 350.57,-165 454.57,-165 454.57,-184"/>
<text text-anchor="middle" x="402.57" y="-172" font-family="Helvetica,sans-Serif" font-size="10.00">dolphin/os/OSLink.h</text>
</a>
</g>
</g>
<!-- Node11&#45;&gt;Node24 -->
<g id="edge37" class="edge">
<title>Node11&#45;&gt;Node24</title>
<path fill="none" stroke="#63b8ff" d="M783.11,-293.17C706.12,-289.71 522.71,-278.62 468.57,-250 444.41,-237.23 424.91,-211.8 413.54,-194.23"/>
<polygon fill="#63b8ff" stroke="#63b8ff" points="416.55,-192.45 408.33,-185.77 410.59,-196.12 416.55,-192.45"/>
</g>
<!-- Node25 -->
<g id="node25" class="node">
<title>Node25</title>
<g id="a_node25"><a xlink:href="OSMemory_8h.html" target="_top" xlink:title=" ">
<polygon fill="white" stroke="#666666" points="270.57,-244.5 150.57,-244.5 150.57,-225.5 270.57,-225.5 270.57,-244.5"/>
<text text-anchor="middle" x="210.57" y="-232.5" font-family="Helvetica,sans-Serif" font-size="10.00">dolphin/os/OSMemory.h</text>
</a>
</g>
</g>
<!-- Node11&#45;&gt;Node25 -->
<g id="edge39" class="edge">
<title>Node11&#45;&gt;Node25</title>
<path fill="none" stroke="#63b8ff" d="M783.11,-293.06C697.54,-289.17 468.63,-276.9 279.57,-250 273.82,-249.18 267.83,-248.18 261.88,-247.1"/>
<polygon fill="#63b8ff" stroke="#63b8ff" points="262.54,-243.67 252.06,-245.23 261.22,-250.54 262.54,-243.67"/>
</g>
<!-- Node26 -->
<g id="node26" class="node">
<title>Node26</title>
<g id="a_node26"><a xlink:href="OSMessage_8h.html" target="_top" xlink:title=" ">
<polygon fill="white" stroke="#666666" points="1434.07,-244.5 1309.07,-244.5 1309.07,-225.5 1434.07,-225.5 1434.07,-244.5"/>
<text text-anchor="middle" x="1371.57" y="-232.5" font-family="Helvetica,sans-Serif" font-size="10.00">dolphin/os/OSMessage.h</text>
</a>
</g>
</g>
<!-- Node11&#45;&gt;Node26 -->
<g id="edge41" class="edge">
<title>Node11&#45;&gt;Node26</title>
<path fill="none" stroke="#63b8ff" d="M851.82,-292.33C930.34,-287.13 1129.36,-272.68 1294.57,-250 1301.13,-249.1 1307.97,-248.04 1314.76,-246.9"/>
<polygon fill="#63b8ff" stroke="#63b8ff" points="1315.33,-250.36 1324.59,-245.21 1314.14,-243.46 1315.33,-250.36"/>
</g>
<!-- Node27 -->
<g id="node27" class="node">
<title>Node27</title>
<g id="a_node27"><a xlink:href="OSReboot_8h.html" target="_top" xlink:title=" ">
<polygon fill="white" stroke="#666666" points="535.57,-129 419.57,-129 419.57,-110 535.57,-110 535.57,-129"/>
<text text-anchor="middle" x="477.57" y="-117" font-family="Helvetica,sans-Serif" font-size="10.00">dolphin/os/OSReboot.h</text>
</a>
</g>
</g>
<!-- Node11&#45;&gt;Node27 -->
<g id="edge44" class="edge">
<title>Node11&#45;&gt;Node27</title>
<path fill="none" stroke="#63b8ff" d="M783.1,-292.01C721.52,-287.01 595.68,-274.1 559.57,-250 519.29,-223.11 494.84,-169 484.07,-139.97"/>
<polygon fill="#63b8ff" stroke="#63b8ff" points="487.41,-138.91 480.79,-130.64 480.81,-141.23 487.41,-138.91"/>
</g>
<!-- Node28 -->
<g id="node28" class="node">
<title>Node28</title>
<g id="a_node28"><a xlink:href="OSReset_8h.html" target="_top" xlink:title=" ">
<polygon fill="white" stroke="#666666" points="665.07,-129 554.07,-129 554.07,-110 665.07,-110 665.07,-129"/>
<text text-anchor="middle" x="609.57" y="-117" font-family="Helvetica,sans-Serif" font-size="10.00">dolphin/os/OSReset.h</text>
</a>
</g>
</g>
<!-- Node11&#45;&gt;Node28 -->
<g id="edge46" class="edge">
<title>Node11&#45;&gt;Node28</title>
<path fill="none" stroke="#63b8ff" d="M783.44,-292.87C724.64,-289.32 607.91,-278.74 580.57,-250 554.39,-222.47 558.43,-200.64 571.57,-165 575.41,-154.59 582.9,-144.96 590.22,-137.34"/>
<polygon fill="#63b8ff" stroke="#63b8ff" points="592.61,-139.89 597.41,-130.44 587.77,-134.84 592.61,-139.89"/>
</g>
<!-- Node29 -->
<g id="node29" class="node">
<title>Node29</title>
<g id="a_node29"><a xlink:href="OSResetSW_8h.html" target="_top" xlink:title=" ">
<polygon fill="white" stroke="#666666" points="416.07,-244.5 289.07,-244.5 289.07,-225.5 416.07,-225.5 416.07,-244.5"/>
<text text-anchor="middle" x="352.57" y="-232.5" font-family="Helvetica,sans-Serif" font-size="10.00">dolphin/os/OSResetSW.h</text>
</a>
</g>
</g>
<!-- Node11&#45;&gt;Node29 -->
<g id="edge48" class="edge">
<title>Node11&#45;&gt;Node29</title>
<path fill="none" stroke="#63b8ff" d="M783.31,-291.29C715.69,-284.8 560.38,-269.09 430.57,-250 424.21,-249.06 417.57,-248 410.96,-246.89"/>
<polygon fill="#63b8ff" stroke="#63b8ff" points="411.87,-243.5 401.42,-245.25 410.68,-250.4 411.87,-243.5"/>
</g>
<!-- Node30 -->
<g id="node30" class="node">
<title>Node30</title>
<g id="a_node30"><a xlink:href="OSRtc_8h.html" target="_top" xlink:title=" ">
<polygon fill="white" stroke="#666666" points="784.07,-129 683.07,-129 683.07,-110 784.07,-110 784.07,-129"/>
<text text-anchor="middle" x="733.57" y="-117" font-family="Helvetica,sans-Serif" font-size="10.00">dolphin/os/OSRtc.h</text>
</a>
</g>
</g>
<!-- Node11&#45;&gt;Node30 -->
<g id="edge51" class="edge">
<title>Node11&#45;&gt;Node30</title>
<path fill="none" stroke="#63b8ff" d="M783.28,-291.24C730.17,-285.57 631.36,-272.3 604.57,-250 580.22,-229.72 583.69,-215.1 577.57,-184 575.94,-175.71 572.49,-171.74 577.57,-165 589.23,-149.55 633.33,-137.87 671.68,-130.35"/>
<polygon fill="#63b8ff" stroke="#63b8ff" points="672.17,-133.82 681.35,-128.53 670.87,-126.94 672.17,-133.82"/>
</g>
<!-- Node31 -->
<g id="node31" class="node">
<title>Node31</title>
<g id="a_node31"><a xlink:href="OSSync_8h.html" target="_top" xlink:title=" ">
<polygon fill="white" stroke="#666666" points="732.07,-244.5 625.07,-244.5 625.07,-225.5 732.07,-225.5 732.07,-244.5"/>
<text text-anchor="middle" x="678.57" y="-232.5" font-family="Helvetica,sans-Serif" font-size="10.00">dolphin/os/OSSync.h</text>
</a>
</g>
</g>
<!-- Node11&#45;&gt;Node31 -->
<g id="edge53" class="edge">
<title>Node11&#45;&gt;Node31</title>
<path fill="none" stroke="#63b8ff" d="M796.46,-285.62C773.6,-275.99 736.88,-260.54 710.49,-249.43"/>
<polygon fill="#63b8ff" stroke="#63b8ff" points="711.85,-246.21 701.28,-245.56 709.14,-252.66 711.85,-246.21"/>
</g>
<!-- Node12&#45;&gt;Node5 -->
<g id="edge14" class="edge">
<title>Node12&#45;&gt;Node5</title>
<path fill="none" stroke="#63b8ff" d="M1711.75,-225.01C1682.71,-208.58 1621.85,-174.54 1599.57,-165 1488.8,-117.57 1349.76,-87.92 1275.68,-74.3"/>
<polygon fill="#63b8ff" stroke="#63b8ff" points="1276.32,-70.86 1265.86,-72.53 1275.07,-77.75 1276.32,-70.86"/>
</g>
<!-- Node13&#45;&gt;Node5 -->
<g id="edge16" class="edge">
<title>Node13&#45;&gt;Node5</title>
<path fill="none" stroke="#63b8ff" d="M660.81,-165.9C695.49,-158.31 748.34,-145.42 792.57,-129 810.65,-122.29 813.06,-115.39 831.57,-110 949.8,-75.6 1095.29,-67.57 1171.45,-65.84"/>
<polygon fill="#63b8ff" stroke="#63b8ff" points="1171.18,-69.34 1181.1,-65.65 1171.04,-62.34 1171.18,-69.34"/>
</g>
<!-- Node14&#45;&gt;Node15 -->
<g id="edge18" class="edge">
<title>Node14&#45;&gt;Node15</title>
<path fill="none" stroke="#63b8ff" d="M1492.99,-225.12C1477.91,-215.92 1454.09,-201.41 1436.1,-190.44"/>
<polygon fill="#63b8ff" stroke="#63b8ff" points="1437.94,-187.47 1427.58,-185.26 1434.3,-193.45 1437.94,-187.47"/>
</g>
<!-- Node14&#45;&gt;Node16 -->
<g id="edge20" class="edge">
<title>Node14&#45;&gt;Node16</title>
<path fill="none" stroke="#63b8ff" d="M1511.85,-225.37C1515.88,-217.25 1522.05,-204.81 1527.21,-194.39"/>
<polygon fill="#63b8ff" stroke="#63b8ff" points="1530.3,-196.04 1531.6,-185.52 1524.03,-192.93 1530.3,-196.04"/>
</g>
<!-- Node15&#45;&gt;Node5 -->
<g id="edge19" class="edge">
<title>Node15&#45;&gt;Node5</title>
<path fill="none" stroke="#63b8ff" d="M1408.24,-164.7C1402.6,-150.98 1389.86,-124.53 1370.57,-110 1343,-89.23 1305.72,-78.08 1275.61,-72.14"/>
<polygon fill="#63b8ff" stroke="#63b8ff" points="1276.4,-68.73 1265.94,-70.38 1275.15,-75.62 1276.4,-68.73"/>
</g>
<!-- Node16&#45;&gt;Node5 -->
<g id="edge21" class="edge">
<title>Node16&#45;&gt;Node5</title>
<path fill="none" stroke="#63b8ff" d="M1518.76,-164.55C1491.91,-151.31 1439.26,-126.32 1392.57,-110 1353.98,-96.5 1309.18,-84.88 1275.41,-76.91"/>
<polygon fill="#63b8ff" stroke="#63b8ff" points="1276.41,-73.55 1265.88,-74.69 1274.83,-80.36 1276.41,-73.55"/>
</g>
<!-- Node17&#45;&gt;Node5 -->
<g id="edge23" class="edge">
<title>Node17&#45;&gt;Node5</title>
<path fill="none" stroke="#63b8ff" d="M1064.14,-109.51C1096.1,-100.69 1145.03,-87.18 1180.25,-77.46"/>
<polygon fill="#63b8ff" stroke="#63b8ff" points="1181,-80.88 1189.71,-74.85 1179.13,-74.14 1181,-80.88"/>
</g>
<!-- Node18&#45;&gt;Node5 -->
<g id="edge25" class="edge">
<title>Node18&#45;&gt;Node5</title>
<path fill="none" stroke="#63b8ff" d="M1169.6,-109.51C1178.99,-101.85 1192.72,-90.66 1203.98,-81.47"/>
<polygon fill="#63b8ff" stroke="#63b8ff" points="1206,-84.35 1211.54,-75.31 1201.58,-78.92 1206,-84.35"/>
</g>
<!-- Node20&#45;&gt;Node5 -->
<g id="edge28" class="edge">
<title>Node20&#45;&gt;Node5</title>
<path fill="none" stroke="#63b8ff" d="M1277.55,-109.51C1268.15,-101.85 1254.43,-90.66 1243.17,-81.47"/>
<polygon fill="#63b8ff" stroke="#63b8ff" points="1245.57,-78.92 1235.61,-75.31 1241.15,-84.35 1245.57,-78.92"/>
</g>
<!-- Node21&#45;&gt;Node5 -->
<g id="edge32" class="edge">
<title>Node21&#45;&gt;Node5</title>
<path fill="none" stroke="#63b8ff" d="M1309.41,-164.57C1334.92,-153.24 1370.66,-132.45 1354.57,-110 1336.68,-85.03 1303.98,-73.9 1275.72,-69.02"/>
<polygon fill="#63b8ff" stroke="#63b8ff" points="1276.25,-65.56 1265.85,-67.56 1275.23,-72.48 1276.25,-65.56"/>
</g>
<!-- Node22&#45;&gt;Node5 -->
<g id="edge34" class="edge">
<title>Node22&#45;&gt;Node5</title>
<path fill="none" stroke="#63b8ff" d="M120.08,-164.61C151.3,-150.12 216.78,-121.82 275.57,-110 449.07,-75.12 998.9,-67.44 1171.33,-65.88"/>
<polygon fill="#63b8ff" stroke="#63b8ff" points="1171.13,-69.38 1181.09,-65.79 1171.06,-62.38 1171.13,-69.38"/>
</g>
<!-- Node23&#45;&gt;Node5 -->
<g id="edge36" class="edge">
<title>Node23&#45;&gt;Node5</title>
<path fill="none" stroke="#63b8ff" d="M240.32,-164.93C252.27,-150.5 278.73,-121.77 308.57,-110 388.74,-78.39 989.04,-68.41 1171.27,-66.09"/>
<polygon fill="#63b8ff" stroke="#63b8ff" points="1171.19,-69.59 1181.15,-65.97 1171.11,-62.59 1171.19,-69.59"/>
</g>
<!-- Node24&#45;&gt;Node5 -->
<g id="edge38" class="edge">
<title>Node24&#45;&gt;Node5</title>
<path fill="none" stroke="#63b8ff" d="M400.57,-164.56C398.03,-150.64 395.62,-123.94 410.57,-110 438.44,-84.04 995.74,-70.25 1171.18,-66.54"/>
<polygon fill="#63b8ff" stroke="#63b8ff" points="1171.21,-70.04 1181.14,-66.33 1171.07,-63.04 1171.21,-70.04"/>
</g>
<!-- Node25&#45;&gt;Node23 -->
<g id="edge40" class="edge">
<title>Node25&#45;&gt;Node23</title>
<path fill="none" stroke="#63b8ff" d="M213.97,-225.37C217.13,-217.33 221.95,-205.07 226.02,-194.72"/>
<polygon fill="#63b8ff" stroke="#63b8ff" points="229.21,-196.16 229.61,-185.58 222.7,-193.6 229.21,-196.16"/>
</g>
<!-- Node26&#45;&gt;Node8 -->
<g id="edge42" class="edge">
<title>Node26&#45;&gt;Node8</title>
<path fill="none" stroke="#63b8ff" d="M1332.87,-225.05C1288.79,-214.86 1216.64,-198.17 1168.39,-187.02"/>
<polygon fill="#63b8ff" stroke="#63b8ff" points="1169.28,-183.63 1158.74,-184.79 1167.7,-190.45 1169.28,-183.63"/>
</g>
<!-- Node27&#45;&gt;Node5 -->
<g id="edge45" class="edge">
<title>Node27&#45;&gt;Node5</title>
<path fill="none" stroke="#63b8ff" d="M536.02,-110.87C538.91,-110.56 541.77,-110.27 544.57,-110 777.97,-87.57 1057.6,-73.17 1171.48,-67.83"/>
<polygon fill="#63b8ff" stroke="#63b8ff" points="1171.6,-71.33 1181.43,-67.37 1171.28,-64.34 1171.6,-71.33"/>
</g>
<!-- Node28&#45;&gt;Node5 -->
<g id="edge47" class="edge">
<title>Node28&#45;&gt;Node5</title>
<path fill="none" stroke="#63b8ff" d="M665.4,-110.91C668.16,-110.59 670.9,-110.29 673.57,-110 856.19,-90.5 1073.73,-75.25 1171.48,-68.82"/>
<polygon fill="#63b8ff" stroke="#63b8ff" points="1171.54,-72.32 1181.29,-68.18 1171.08,-65.34 1171.54,-72.32"/>
</g>
<!-- Node29&#45;&gt;Node5 -->
<g id="edge49" class="edge">
<title>Node29&#45;&gt;Node5</title>
<path fill="none" stroke="#63b8ff" d="M348.23,-225.15C342.25,-211.67 333.13,-185.4 341.57,-165 354.8,-133.06 365,-124.08 396.57,-110 467.02,-78.58 1000.43,-68.57 1171.17,-66.15"/>
<polygon fill="#63b8ff" stroke="#63b8ff" points="1171.13,-69.65 1181.08,-66.01 1171.03,-62.65 1171.13,-69.65"/>
</g>
<!-- Node29&#45;&gt;Node23 -->
<g id="edge50" class="edge">
<title>Node29&#45;&gt;Node23</title>
<path fill="none" stroke="#63b8ff" d="M334.5,-225.12C315.28,-215.67 284.61,-200.59 262.12,-189.53"/>
<polygon fill="#63b8ff" stroke="#63b8ff" points="263.69,-186.41 253.18,-185.14 260.61,-192.69 263.69,-186.41"/>
</g>
<!-- Node30&#45;&gt;Node5 -->
<g id="edge52" class="edge">
<title>Node30&#45;&gt;Node5</title>
<path fill="none" stroke="#63b8ff" d="M784.3,-111.74C789.12,-111.13 793.94,-110.55 798.57,-110 932.88,-94.19 1091.4,-78.33 1171.56,-70.51"/>
<polygon fill="#63b8ff" stroke="#63b8ff" points="1171.68,-74.02 1181.3,-69.56 1171.01,-67.05 1171.68,-74.02"/>
</g>
<!-- Node32&#45;&gt;Node5 -->
<g id="edge72" class="edge">
<title>Node32&#45;&gt;Node5</title>
<path fill="none" stroke="#63b8ff" d="M1917.47,-397.77C1957.22,-391.87 2004.9,-380.79 2043.57,-360 2079.15,-340.88 2108.57,-336.89 2108.57,-296.5 2108.57,-296.5 2108.57,-296.5 2108.57,-173.5 2108.57,-144.04 2112.74,-128.19 2089.57,-110 2057.48,-84.8 1458.3,-70.36 1275.85,-66.53"/>
<polygon fill="#63b8ff" stroke="#63b8ff" points="1276.03,-63.04 1265.96,-66.33 1275.89,-70.04 1276.03,-63.04"/>
</g>
<!-- Node32&#45;&gt;Node12 -->
<g id="edge68" class="edge">
<title>Node32&#45;&gt;Node12</title>
<path fill="none" stroke="#63b8ff" d="M1831.97,-395.91C1814.83,-369.67 1762.9,-290.11 1739.37,-254.08"/>
<polygon fill="#63b8ff" stroke="#63b8ff" points="1742.53,-252.5 1734.13,-246.04 1736.66,-256.33 1742.53,-252.5"/>
</g>
<!-- Node32&#45;&gt;Node15 -->
<g id="edge71" class="edge">
<title>Node32&#45;&gt;Node15</title>
<path fill="none" stroke="#63b8ff" d="M1827.75,-395.76C1794.44,-366.54 1681.68,-271.22 1572.57,-220 1540.54,-204.96 1502.47,-194.15 1471.39,-186.95"/>
<polygon fill="#63b8ff" stroke="#63b8ff" points="1472.29,-183.57 1461.76,-184.79 1470.75,-190.4 1472.29,-183.57"/>
</g>
<!-- Node33 -->
<g id="node33" class="node">
<title>Node33</title>
<g id="a_node33"><a xlink:href="JKRThread_8h.html" target="_top" xlink:title=" ">
<polygon fill="white" stroke="#666666" points="1704.57,-360 1554.57,-360 1554.57,-341 1704.57,-341 1704.57,-360"/>
<text text-anchor="middle" x="1629.57" y="-348" font-family="Helvetica,sans-Serif" font-size="10.00">JSystem/JKernel/JKRThread.h</text>
</a>
</g>
</g>
<!-- Node32&#45;&gt;Node33 -->
<g id="edge57" class="edge">
<title>Node32&#45;&gt;Node33</title>
<path fill="none" stroke="#63b8ff" d="M1802.29,-395.51C1767.37,-386.61 1713.75,-372.95 1675.52,-363.21"/>
<polygon fill="#63b8ff" stroke="#63b8ff" points="1676.7,-359.9 1666.15,-360.82 1674.98,-366.68 1676.7,-359.9"/>
</g>
<!-- Node34 -->
<g id="node34" class="node">
<title>Node34</title>
<g id="a_node34"><a xlink:href="JUTGamePad_8h.html" target="_top" xlink:title=" ">
<polygon fill="white" stroke="#666666" points="1989.57,-250 1853.57,-250 1853.57,-220 1989.57,-220 1989.57,-250"/>
<text text-anchor="start" x="1861.57" y="-238" font-family="Helvetica,sans-Serif" font-size="10.00">JSystem/JUtility/JUTGame</text>
<text text-anchor="middle" x="1921.57" y="-227" font-family="Helvetica,sans-Serif" font-size="10.00">Pad.h</text>
</a>
</g>
</g>
<!-- Node32&#45;&gt;Node34 -->
<g id="edge62" class="edge">
<title>Node32&#45;&gt;Node34</title>
<path fill="none" stroke="#63b8ff" d="M1841.85,-395.91C1854.23,-371.09 1890.39,-298.56 1909.46,-260.29"/>
<polygon fill="#63b8ff" stroke="#63b8ff" points="1912.35,-262.34 1913.68,-251.83 1906.09,-259.22 1912.35,-262.34"/>
</g>
<!-- Node36 -->
<g id="node36" class="node">
<title>Node36</title>
<g id="a_node36"><a xlink:href="GXEnum_8h.html" target="_top" xlink:title=" ">
<polygon fill="white" stroke="#666666" points="2017.57,-305 1907.57,-305 1907.57,-286 2017.57,-286 2017.57,-305"/>
<text text-anchor="middle" x="1962.57" y="-293" font-family="Helvetica,sans-Serif" font-size="10.00">dolphin/gx/GXEnum.h</text>
</a>
</g>
</g>
<!-- Node32&#45;&gt;Node36 -->
<g id="edge69" class="edge">
<title>Node32&#45;&gt;Node36</title>
<path fill="none" stroke="#63b8ff" d="M1847.8,-395.66C1868.77,-377.55 1916.9,-335.96 1943.69,-312.81"/>
<polygon fill="#63b8ff" stroke="#63b8ff" points="1945.78,-315.64 1951.06,-306.45 1941.2,-310.34 1945.78,-315.64"/>
</g>
<!-- Node37 -->
<g id="node37" class="node">
<title>Node37</title>
<g id="a_node37"><a xlink:href="global_8h.html" target="_top" xlink:title=" ">
<polygon fill="white" stroke="#666666" points="2080.57,-129 2030.57,-129 2030.57,-110 2080.57,-110 2080.57,-129"/>
<text text-anchor="middle" x="2055.57" y="-117" font-family="Helvetica,sans-Serif" font-size="10.00">global.h</text>
</a>
</g>
</g>
<!-- Node32&#45;&gt;Node37 -->
<g id="edge73" class="edge">
<title>Node32&#45;&gt;Node37</title>
<path fill="none" stroke="#63b8ff" d="M1917.51,-397.09C1979.73,-386.39 2055.57,-360.28 2055.57,-296.5 2055.57,-296.5 2055.57,-296.5 2055.57,-234 2055.57,-201.39 2055.57,-163.5 2055.57,-140.79"/>
<polygon fill="#63b8ff" stroke="#63b8ff" points="2059.07,-140.84 2055.57,-130.84 2052.07,-140.84 2059.07,-140.84"/>
</g>
<!-- Node33&#45;&gt;Node2 -->
<g id="edge58" class="edge">
<title>Node33&#45;&gt;Node2</title>
<path fill="none" stroke="#63b8ff" d="M1579.7,-340.51C1529.07,-331.38 1450.63,-317.24 1396.39,-307.46"/>
<polygon fill="#63b8ff" stroke="#63b8ff" points="1397.15,-304.04 1386.69,-305.71 1395.91,-310.93 1397.15,-304.04"/>
</g>
<!-- Node33&#45;&gt;Node5 -->
<g id="edge61" class="edge">
<title>Node33&#45;&gt;Node5</title>
<path fill="none" stroke="#63b8ff" d="M1651.19,-340.58C1684.03,-326.04 1746.66,-294.37 1784.57,-250 1825.36,-202.26 1850.21,-152.05 1803.57,-110 1764.81,-75.05 1410.44,-67.53 1275.46,-65.93"/>
<polygon fill="#63b8ff" stroke="#63b8ff" points="1275.78,-62.43 1265.74,-65.82 1275.7,-69.43 1275.78,-62.43"/>
</g>
<!-- Node33&#45;&gt;Node16 -->
<g id="edge60" class="edge">
<title>Node33&#45;&gt;Node16</title>
<path fill="none" stroke="#63b8ff" d="M1628.58,-340.59C1625.76,-318.48 1616.12,-259.99 1589.57,-220 1582.02,-208.62 1570.73,-198.57 1560.5,-190.92"/>
<polygon fill="#63b8ff" stroke="#63b8ff" points="1562.61,-188.12 1552.42,-185.22 1558.57,-193.84 1562.61,-188.12"/>
</g>
<!-- Node33&#45;&gt;Node26 -->
<g id="edge59" class="edge">
<title>Node33&#45;&gt;Node26</title>
<path fill="none" stroke="#63b8ff" d="M1609.33,-340.59C1564.3,-320.79 1455.64,-272.98 1402.24,-249.49"/>
<polygon fill="#63b8ff" stroke="#63b8ff" points="1403.67,-246.3 1393.11,-245.47 1400.85,-252.7 1403.67,-246.3"/>
</g>
<!-- Node34&#45;&gt;Node3 -->
<g id="edge63" class="edge">
<title>Node34&#45;&gt;Node3</title>
<path fill="none" stroke="#63b8ff" d="M1873.12,-219.54C1840.31,-209.75 1797.44,-196.95 1766.37,-187.68"/>
<polygon fill="#63b8ff" stroke="#63b8ff" points="1767.53,-184.37 1756.95,-184.87 1765.53,-191.08 1767.53,-184.37"/>
</g>
<!-- Node34&#45;&gt;Node5 -->
<g id="edge67" class="edge">
<title>Node34&#45;&gt;Node5</title>
<path fill="none" stroke="#63b8ff" d="M1917.71,-219.77C1909.59,-192.95 1887.99,-135.34 1846.57,-110 1798.44,-80.55 1416.72,-69.57 1275.69,-66.5"/>
<polygon fill="#63b8ff" stroke="#63b8ff" points="1275.97,-63 1265.9,-66.29 1275.82,-70 1275.97,-63"/>
</g>
<!-- Node34&#45;&gt;Node16 -->
<g id="edge64" class="edge">
<title>Node34&#45;&gt;Node16</title>
<path fill="none" stroke="#63b8ff" d="M1853.19,-223.61C1782.06,-212.8 1671.52,-196 1601.65,-185.39"/>
<polygon fill="#63b8ff" stroke="#63b8ff" points="1602.28,-181.94 1591.86,-183.9 1601.22,-188.86 1602.28,-181.94"/>
</g>
<!-- Node35 -->
<g id="node35" class="node">
<title>Node35</title>
<g id="a_node35"><a xlink:href="pad_8h.html" target="_top" xlink:title=" ">
<polygon fill="white" stroke="#666666" points="1972.57,-129 1898.57,-129 1898.57,-110 1972.57,-110 1972.57,-129"/>
<text text-anchor="middle" x="1935.57" y="-117" font-family="Helvetica,sans-Serif" font-size="10.00">dolphin/pad.h</text>
</a>
</g>
</g>
<!-- Node34&#45;&gt;Node35 -->
<g id="edge65" class="edge">
<title>Node34&#45;&gt;Node35</title>
<path fill="none" stroke="#63b8ff" d="M1923.35,-219.63C1925.82,-199.59 1930.31,-163.17 1933.11,-140.49"/>
<polygon fill="#63b8ff" stroke="#63b8ff" points="1936.56,-141.08 1934.31,-130.73 1929.61,-140.23 1936.56,-141.08"/>
</g>
<!-- Node35&#45;&gt;Node5 -->
<g id="edge66" class="edge">
<title>Node35&#45;&gt;Node5</title>
<path fill="none" stroke="#63b8ff" d="M1898.31,-111.86C1893.69,-111.16 1889.03,-110.52 1884.57,-110 1658.66,-83.63 1387.35,-71.45 1275.58,-67.27"/>
<polygon fill="#63b8ff" stroke="#63b8ff" points="1275.95,-63.78 1265.83,-66.91 1275.69,-70.77 1275.95,-63.78"/>
</g>
<!-- Node36&#45;&gt;Node5 -->
<g id="edge70" class="edge">
<title>Node36&#45;&gt;Node5</title>
<path fill="none" stroke="#63b8ff" d="M1972.73,-285.81C1981.48,-277.6 1993.47,-264.43 1998.57,-250 2012.61,-210.33 2008.96,-134.91 1981.57,-110 1955.49,-86.27 1443.38,-71.12 1276.01,-66.79"/>
<polygon fill="#63b8ff" stroke="#63b8ff" points="1276.16,-63.29 1266.08,-66.53 1275.98,-70.29 1276.16,-63.29"/>
</g>
<!-- Node37&#45;&gt;Node5 -->
<g id="edge74" class="edge">
<title>Node37&#45;&gt;Node5</title>
<path fill="none" stroke="#63b8ff" d="M2030.08,-112.34C2025.6,-111.43 2020.97,-110.6 2016.57,-110 1739,-72.21 1402.57,-66.37 1275.51,-65.57"/>
<polygon fill="#63b8ff" stroke="#63b8ff" points="1275.76,-62.08 1265.74,-65.52 1275.72,-69.08 1275.76,-62.08"/>
</g>
</g>
</svg>
