<?xml version="1.0" encoding="UTF-8" standalone="no"?>
<!DOCTYPE svg PUBLIC "-//W3C//DTD SVG 1.1//EN"
 "http://www.w3.org/Graphics/SVG/1.1/DTD/svg11.dtd">
<!-- Generated by graphviz version 7.0.5 (20221223.1930)
 -->
<!-- Title: libs/JSystem/JKernel/JKRThread.cpp Pages: 1 -->
<svg width="2616pt" height="533pt"
 viewBox="0.00 0.00 2616.00 533.00" xmlns="http://www.w3.org/2000/svg" xmlns:xlink="http://www.w3.org/1999/xlink">
<g id="graph0" class="graph" transform="scale(1 1) rotate(0) translate(4 529)">
<title>libs/JSystem/JKernel/JKRThread.cpp</title>
<!-- Node1 -->
<g id="node1" class="node">
<title>Node1</title>
<g id="a_node1"><a xlink:title=" ">
<polygon fill="#999999" stroke="#666666" points="2148.5,-525 2039.5,-525 2039.5,-495 2148.5,-495 2148.5,-525"/>
<text text-anchor="start" x="2047.5" y="-513" font-family="Helvetica,sans-Serif" font-size="10.00">libs/JSystem/JKernel</text>
<text text-anchor="middle" x="2094" y="-502" font-family="Helvetica,sans-Serif" font-size="10.00">/JKRThread.cpp</text>
</a>
</g>
</g>
<!-- Node2 -->
<g id="node2" class="node">
<title>Node2</title>
<g id="a_node2"><a xlink:href="JKRThread_8h.html" target="_top" xlink:title=" ">
<polygon fill="white" stroke="#666666" points="361,-349 211,-349 211,-330 361,-330 361,-349"/>
<text text-anchor="middle" x="286" y="-337" font-family="Helvetica,sans-Serif" font-size="10.00">JSystem/JKernel/JKRThread.h</text>
</a>
</g>
</g>
<!-- Node1&#45;&gt;Node2 -->
<g id="edge1" class="edge">
<title>Node1&#45;&gt;Node2</title>
<path fill="none" stroke="#63b8ff" d="M2039.4,-503.91C1782.08,-479.93 689.79,-378.13 372.66,-348.58"/>
<polygon fill="#63b8ff" stroke="#63b8ff" points="373.05,-345.1 362.76,-347.65 372.4,-352.07 373.05,-345.1"/>
</g>
<!-- Node13 -->
<g id="node13" class="node">
<title>Node13</title>
<g id="a_node13"><a xlink:href="JUTAssert_8h.html" target="_top" xlink:title=" ">
<polygon fill="white" stroke="#666666" points="1970,-349 1824,-349 1824,-330 1970,-330 1970,-349"/>
<text text-anchor="middle" x="1897" y="-337" font-family="Helvetica,sans-Serif" font-size="10.00">JSystem/JUtility/JUTAssert.h</text>
</a>
</g>
</g>
<!-- Node1&#45;&gt;Node13 -->
<g id="edge16" class="edge">
<title>Node1&#45;&gt;Node13</title>
<path fill="none" stroke="#63b8ff" d="M2057.4,-494.63C2019.36,-478.01 1960.39,-447.27 1924,-404 1913.26,-391.22 1906.21,-373.54 1902.02,-360.08"/>
<polygon fill="#63b8ff" stroke="#63b8ff" points="1905.43,-359.3 1899.36,-350.62 1898.7,-361.2 1905.43,-359.3"/>
</g>
<!-- Node33 -->
<g id="node33" class="node">
<title>Node33</title>
<g id="a_node33"><a xlink:href="JUTConsole_8h.html" target="_top" xlink:title=" ">
<polygon fill="white" stroke="#666666" points="2170,-459 2018,-459 2018,-440 2170,-440 2170,-459"/>
<text text-anchor="middle" x="2094" y="-447" font-family="Helvetica,sans-Serif" font-size="10.00">JSystem/JUtility/JUTConsole.h</text>
</a>
</g>
</g>
<!-- Node1&#45;&gt;Node33 -->
<g id="edge60" class="edge">
<title>Node1&#45;&gt;Node33</title>
<path fill="none" stroke="#63b8ff" d="M2094,-494.54C2094,-487.34 2094,-478.53 2094,-470.68"/>
<polygon fill="#63b8ff" stroke="#63b8ff" points="2097.5,-470.69 2094,-460.69 2090.5,-470.69 2097.5,-470.69"/>
</g>
<!-- Node43 -->
<g id="node43" class="node">
<title>Node43</title>
<g id="a_node43"><a xlink:href="stdio_8h.html" target="_top" xlink:title=" ">
<polygon fill="white" stroke="#666666" points="2465.5,-349 2420.5,-349 2420.5,-330 2465.5,-330 2465.5,-349"/>
<text text-anchor="middle" x="2443" y="-337" font-family="Helvetica,sans-Serif" font-size="10.00">stdio.h</text>
</a>
</g>
</g>
<!-- Node1&#45;&gt;Node43 -->
<g id="edge79" class="edge">
<title>Node1&#45;&gt;Node43</title>
<path fill="none" stroke="#63b8ff" d="M2123.76,-494.63C2189.98,-462.66 2348.84,-385.96 2414.18,-354.41"/>
<polygon fill="#63b8ff" stroke="#63b8ff" points="2415.7,-357.57 2423.18,-350.07 2412.66,-351.26 2415.7,-357.57"/>
</g>
<!-- Node48 -->
<g id="node48" class="node">
<title>Node48</title>
<g id="a_node48"><a xlink:href="dol2asm_8h.html" target="_top" xlink:title=" ">
<polygon fill="white" stroke="#666666" points="2415.5,-459 2354.5,-459 2354.5,-440 2415.5,-440 2415.5,-459"/>
<text text-anchor="middle" x="2385" y="-447" font-family="Helvetica,sans-Serif" font-size="10.00">dol2asm.h</text>
</a>
</g>
</g>
<!-- Node1&#45;&gt;Node48 -->
<g id="edge89" class="edge">
<title>Node1&#45;&gt;Node48</title>
<path fill="none" stroke="#63b8ff" d="M2148.73,-498C2205.22,-486.64 2292.08,-469.18 2343.25,-458.89"/>
<polygon fill="#63b8ff" stroke="#63b8ff" points="2343.62,-462.39 2352.74,-456.99 2342.24,-455.53 2343.62,-462.39"/>
</g>
<!-- Node3 -->
<g id="node3" class="node">
<title>Node3</title>
<g id="a_node3"><a xlink:href="JKRHeap_8h.html" target="_top" xlink:title=" ">
<polygon fill="white" stroke="#666666" points="357.5,-294 214.5,-294 214.5,-275 357.5,-275 357.5,-294"/>
<text text-anchor="middle" x="286" y="-282" font-family="Helvetica,sans-Serif" font-size="10.00">JSystem/JKernel/JKRHeap.h</text>
</a>
</g>
</g>
<!-- Node2&#45;&gt;Node3 -->
<g id="edge2" class="edge">
<title>Node2&#45;&gt;Node3</title>
<path fill="none" stroke="#63b8ff" d="M286,-329.75C286,-323.27 286,-314.16 286,-305.9"/>
<polygon fill="#63b8ff" stroke="#63b8ff" points="289.5,-305.96 286,-295.96 282.5,-305.96 289.5,-305.96"/>
</g>
<!-- Node6 -->
<g id="node6" class="node">
<title>Node6</title>
<g id="a_node6"><a xlink:href="types_8h.html" target="_top" xlink:title=" ">
<polygon fill="white" stroke="#666666" points="1430.5,-74 1349.5,-74 1349.5,-55 1430.5,-55 1430.5,-74"/>
<text text-anchor="middle" x="1390" y="-62" font-family="Helvetica,sans-Serif" font-size="10.00">dolphin/types.h</text>
</a>
</g>
</g>
<!-- Node2&#45;&gt;Node6 -->
<g id="edge15" class="edge">
<title>Node2&#45;&gt;Node6</title>
<path fill="none" stroke="#63b8ff" d="M259.13,-329.53C241.7,-322.43 219.76,-310.87 206,-294 187.3,-271.07 186,-260.09 186,-230.5 186,-230.5 186,-230.5 186,-173.5 186,-45.03 340.69,-127.27 468,-110 797,-65.36 1197.34,-63.83 1338.08,-64.87"/>
<polygon fill="#63b8ff" stroke="#63b8ff" points="1337.79,-68.37 1347.82,-64.95 1337.85,-61.37 1337.79,-68.37"/>
</g>
<!-- Node11 -->
<g id="node11" class="node">
<title>Node11</title>
<g id="a_node11"><a xlink:href="OSMessage_8h.html" target="_top" xlink:title=" ">
<polygon fill="white" stroke="#666666" points="469.5,-239 344.5,-239 344.5,-220 469.5,-220 469.5,-239"/>
<text text-anchor="middle" x="407" y="-227" font-family="Helvetica,sans-Serif" font-size="10.00">dolphin/os/OSMessage.h</text>
</a>
</g>
</g>
<!-- Node2&#45;&gt;Node11 -->
<g id="edge11" class="edge">
<title>Node2&#45;&gt;Node11</title>
<path fill="none" stroke="#63b8ff" d="M308.93,-329.65C326.33,-322.11 350.06,-309.95 367,-294 380.49,-281.3 391.33,-263.12 398.31,-249.46"/>
<polygon fill="#63b8ff" stroke="#63b8ff" points="401.37,-251.16 402.57,-240.64 395.07,-248.12 401.37,-251.16"/>
</g>
<!-- Node12 -->
<g id="node12" class="node">
<title>Node12</title>
<g id="a_node12"><a xlink:href="OSTime_8h.html" target="_top" xlink:title=" ">
<polygon fill="white" stroke="#666666" points="1273.5,-184 1166.5,-184 1166.5,-165 1273.5,-165 1273.5,-184"/>
<text text-anchor="middle" x="1220" y="-172" font-family="Helvetica,sans-Serif" font-size="10.00">dolphin/os/OSTime.h</text>
</a>
</g>
</g>
<!-- Node2&#45;&gt;Node12 -->
<g id="edge13" class="edge">
<title>Node2&#45;&gt;Node12</title>
<path fill="none" stroke="#63b8ff" d="M341.05,-329.54C445.59,-312.45 680.02,-273.81 877,-239 977.27,-221.28 1093.79,-199.44 1161.96,-186.54"/>
<polygon fill="#63b8ff" stroke="#63b8ff" points="1162.22,-190.06 1171.4,-184.76 1160.92,-183.18 1162.22,-190.06"/>
</g>
<!-- Node4 -->
<g id="node4" class="node">
<title>Node4</title>
<g id="a_node4"><a xlink:href="JKRDisposer_8h.html" target="_top" xlink:title=" ">
<polygon fill="white" stroke="#666666" points="158,-239 0,-239 0,-220 158,-220 158,-239"/>
<text text-anchor="middle" x="79" y="-227" font-family="Helvetica,sans-Serif" font-size="10.00">JSystem/JKernel/JKRDisposer.h</text>
</a>
</g>
</g>
<!-- Node3&#45;&gt;Node4 -->
<g id="edge3" class="edge">
<title>Node3&#45;&gt;Node4</title>
<path fill="none" stroke="#63b8ff" d="M250.89,-274.51C216.14,-265.61 162.77,-251.95 124.73,-242.21"/>
<polygon fill="#63b8ff" stroke="#63b8ff" points="125.96,-238.91 115.41,-239.82 124.23,-245.69 125.96,-238.91"/>
</g>
<!-- Node8 -->
<g id="node8" class="node">
<title>Node8</title>
<g id="a_node8"><a xlink:href="OSMutex_8h.html" target="_top" xlink:title=" ">
<polygon fill="white" stroke="#666666" points="326,-239 214,-239 214,-220 326,-220 326,-239"/>
<text text-anchor="middle" x="270" y="-227" font-family="Helvetica,sans-Serif" font-size="10.00">dolphin/os/OSMutex.h</text>
</a>
</g>
</g>
<!-- Node3&#45;&gt;Node8 -->
<g id="edge7" class="edge">
<title>Node3&#45;&gt;Node8</title>
<path fill="none" stroke="#63b8ff" d="M283.36,-274.75C281.36,-268.11 278.52,-258.73 275.98,-250.31"/>
<polygon fill="#63b8ff" stroke="#63b8ff" points="279.38,-249.45 273.14,-240.89 272.68,-251.48 279.38,-249.45"/>
</g>
<!-- Node5 -->
<g id="node5" class="node">
<title>Node5</title>
<g id="a_node5"><a xlink:href="JSUList_8h.html" target="_top" xlink:title=" ">
<polygon fill="white" stroke="#666666" points="154.5,-129 11.5,-129 11.5,-110 154.5,-110 154.5,-129"/>
<text text-anchor="middle" x="83" y="-117" font-family="Helvetica,sans-Serif" font-size="10.00">JSystem/JSupport/JSUList.h</text>
</a>
</g>
</g>
<!-- Node4&#45;&gt;Node5 -->
<g id="edge4" class="edge">
<title>Node4&#45;&gt;Node5</title>
<path fill="none" stroke="#63b8ff" d="M79.33,-219.66C79.96,-202.57 81.37,-164.61 82.24,-140.92"/>
<polygon fill="#63b8ff" stroke="#63b8ff" points="85.74,-141.1 82.61,-130.97 78.74,-140.84 85.74,-141.1"/>
</g>
<!-- Node5&#45;&gt;Node6 -->
<g id="edge5" class="edge">
<title>Node5&#45;&gt;Node6</title>
<path fill="none" stroke="#63b8ff" d="M154.86,-111.27C160.66,-110.8 166.42,-110.37 172,-110 622.79,-80.26 1168.84,-69.18 1337.71,-66.31"/>
<polygon fill="#63b8ff" stroke="#63b8ff" points="1337.76,-69.81 1347.7,-66.15 1337.64,-62.81 1337.76,-69.81"/>
</g>
<!-- Node7 -->
<g id="node7" class="node">
<title>Node7</title>
<g id="a_node7"><a xlink:href="stddef_8h.html" target="_top" xlink:title=" ">
<polygon fill="white" stroke="#666666" points="2364.5,-19 2313.5,-19 2313.5,0 2364.5,0 2364.5,-19"/>
<text text-anchor="middle" x="2339" y="-7" font-family="Helvetica,sans-Serif" font-size="10.00">stddef.h</text>
</a>
</g>
</g>
<!-- Node6&#45;&gt;Node7 -->
<g id="edge6" class="edge">
<title>Node6&#45;&gt;Node7</title>
<path fill="none" stroke="#63b8ff" d="M1430.78,-61.22C1587.77,-52.45 2151.83,-20.95 2302.03,-12.56"/>
<polygon fill="#63b8ff" stroke="#63b8ff" points="2302.01,-16.07 2311.8,-12.02 2301.62,-9.08 2302.01,-16.07"/>
</g>
<!-- Node9 -->
<g id="node9" class="node">
<title>Node9</title>
<g id="a_node9"><a xlink:href="OSThread_8h.html" target="_top" xlink:title=" ">
<polygon fill="white" stroke="#666666" points="487,-184 371,-184 371,-165 487,-165 487,-184"/>
<text text-anchor="middle" x="429" y="-172" font-family="Helvetica,sans-Serif" font-size="10.00">dolphin/os/OSThread.h</text>
</a>
</g>
</g>
<!-- Node8&#45;&gt;Node9 -->
<g id="edge8" class="edge">
<title>Node8&#45;&gt;Node9</title>
<path fill="none" stroke="#63b8ff" d="M296.97,-219.51C322.98,-210.84 362.55,-197.65 391.6,-187.97"/>
<polygon fill="#63b8ff" stroke="#63b8ff" points="392.35,-191.41 400.73,-184.92 390.13,-184.77 392.35,-191.41"/>
</g>
<!-- Node10 -->
<g id="node10" class="node">
<title>Node10</title>
<g id="a_node10"><a xlink:href="OSContext_8h.html" target="_top" xlink:title=" ">
<polygon fill="white" stroke="#666666" points="595.5,-129 476.5,-129 476.5,-110 595.5,-110 595.5,-129"/>
<text text-anchor="middle" x="536" y="-117" font-family="Helvetica,sans-Serif" font-size="10.00">dolphin/os/OSContext.h</text>
</a>
</g>
</g>
<!-- Node9&#45;&gt;Node10 -->
<g id="edge9" class="edge">
<title>Node9&#45;&gt;Node10</title>
<path fill="none" stroke="#63b8ff" d="M447.15,-164.51C463.78,-156.27 488.64,-143.96 507.85,-134.45"/>
<polygon fill="#63b8ff" stroke="#63b8ff" points="509.35,-137.6 516.76,-130.03 506.25,-131.33 509.35,-137.6"/>
</g>
<!-- Node10&#45;&gt;Node6 -->
<g id="edge10" class="edge">
<title>Node10&#45;&gt;Node6</title>
<path fill="none" stroke="#63b8ff" d="M595.8,-113.22C609.34,-112.09 623.66,-110.96 637,-110 900.2,-91.15 1215.58,-74.4 1337.93,-68.13"/>
<polygon fill="#63b8ff" stroke="#63b8ff" points="1337.84,-71.64 1347.65,-67.63 1337.49,-64.65 1337.84,-71.64"/>
</g>
<!-- Node11&#45;&gt;Node9 -->
<g id="edge12" class="edge">
<title>Node11&#45;&gt;Node9</title>
<path fill="none" stroke="#63b8ff" d="M410.63,-219.75C413.42,-213.04 417.37,-203.52 420.9,-195.02"/>
<polygon fill="#63b8ff" stroke="#63b8ff" points="424.11,-196.42 424.71,-185.84 417.64,-193.73 424.11,-196.42"/>
</g>
<!-- Node12&#45;&gt;Node6 -->
<g id="edge14" class="edge">
<title>Node12&#45;&gt;Node6</title>
<path fill="none" stroke="#63b8ff" d="M1217.45,-164.57C1214.19,-151.13 1210.39,-125.63 1223,-110 1237.44,-92.1 1294.47,-79.68 1337.91,-72.6"/>
<polygon fill="#63b8ff" stroke="#63b8ff" points="1338.35,-76.07 1347.69,-71.06 1337.27,-69.15 1338.35,-76.07"/>
</g>
<!-- Node13&#45;&gt;Node6 -->
<g id="edge17" class="edge">
<title>Node13&#45;&gt;Node6</title>
<path fill="none" stroke="#63b8ff" d="M1896.58,-329.54C1895.76,-311.04 1894,-267.26 1894,-230.5 1894,-230.5 1894,-230.5 1894,-173.5 1894,-144.04 1897.8,-128.66 1875,-110 1842.03,-83.02 1560.38,-70.94 1442.03,-67.02"/>
<polygon fill="#63b8ff" stroke="#63b8ff" points="1442.39,-63.53 1432.28,-66.71 1442.16,-70.53 1442.39,-63.53"/>
</g>
<!-- Node14 -->
<g id="node14" class="node">
<title>Node14</title>
<g id="a_node14"><a xlink:href="os_8h.html" target="_top" xlink:title=" ">
<polygon fill="white" stroke="#666666" points="1170,-294 1102,-294 1102,-275 1170,-275 1170,-294"/>
<text text-anchor="middle" x="1136" y="-282" font-family="Helvetica,sans-Serif" font-size="10.00">dolphin/os.h</text>
</a>
</g>
</g>
<!-- Node13&#45;&gt;Node14 -->
<g id="edge18" class="edge">
<title>Node13&#45;&gt;Node14</title>
<path fill="none" stroke="#63b8ff" d="M1823.69,-333.39C1667.99,-322.55 1308.24,-297.5 1181.33,-288.66"/>
<polygon fill="#63b8ff" stroke="#63b8ff" points="1181.86,-285.19 1171.64,-287.98 1181.38,-292.17 1181.86,-285.19"/>
</g>
<!-- Node14&#45;&gt;Node8 -->
<g id="edge47" class="edge">
<title>Node14&#45;&gt;Node8</title>
<path fill="none" stroke="#63b8ff" d="M1101.63,-282.48C991.97,-279.04 640.46,-266.54 337.7,-239.07"/>
<polygon fill="#63b8ff" stroke="#63b8ff" points="338.28,-235.61 328,-238.19 337.64,-242.58 338.28,-235.61"/>
</g>
<!-- Node14&#45;&gt;Node9 -->
<g id="edge58" class="edge">
<title>Node14&#45;&gt;Node9</title>
<path fill="none" stroke="#63b8ff" d="M1101.75,-283.35C988.99,-282.5 630.35,-276.81 522,-239 492.76,-228.8 464.1,-206.91 446.5,-191.71"/>
<polygon fill="#63b8ff" stroke="#63b8ff" points="449.28,-189.5 439.49,-185.47 444.63,-194.73 449.28,-189.5"/>
</g>
<!-- Node14&#45;&gt;Node10 -->
<g id="edge34" class="edge">
<title>Node14&#45;&gt;Node10</title>
<path fill="none" stroke="#63b8ff" d="M1101.65,-283.3C982.97,-282.27 595.28,-276.09 555,-239 528,-214.14 529.16,-167.38 532.51,-140.63"/>
<polygon fill="#63b8ff" stroke="#63b8ff" points="535.97,-141.2 533.99,-130.79 529.04,-140.15 535.97,-141.2"/>
</g>
<!-- Node14&#45;&gt;Node11 -->
<g id="edge46" class="edge">
<title>Node14&#45;&gt;Node11</title>
<path fill="none" stroke="#63b8ff" d="M1101.67,-281.66C1004.61,-276.36 719.9,-260.06 484,-239 482.97,-238.91 481.94,-238.81 480.9,-238.72"/>
<polygon fill="#63b8ff" stroke="#63b8ff" points="481.39,-235.25 471.1,-237.78 480.72,-242.22 481.39,-235.25"/>
</g>
<!-- Node14&#45;&gt;Node12 -->
<g id="edge59" class="edge">
<title>Node14&#45;&gt;Node12</title>
<path fill="none" stroke="#63b8ff" d="M1126.36,-274.82C1113.48,-262.15 1093.62,-238.12 1106,-220 1117.47,-203.2 1136.31,-192.75 1155.4,-186.24"/>
<polygon fill="#63b8ff" stroke="#63b8ff" points="1156.3,-189.62 1164.85,-183.37 1154.26,-182.92 1156.3,-189.62"/>
</g>
<!-- Node15 -->
<g id="node15" class="node">
<title>Node15</title>
<g id="a_node15"><a xlink:href="____va__arg_8h.html" target="_top" xlink:title=" ">
<polygon fill="white" stroke="#666666" points="2260,-239 2196,-239 2196,-220 2260,-220 2260,-239"/>
<text text-anchor="middle" x="2228" y="-227" font-family="Helvetica,sans-Serif" font-size="10.00">__va_arg.h</text>
</a>
</g>
</g>
<!-- Node14&#45;&gt;Node15 -->
<g id="edge19" class="edge">
<title>Node14&#45;&gt;Node15</title>
<path fill="none" stroke="#63b8ff" d="M1170.32,-282.8C1325.24,-279.5 1961.18,-264.76 2184.58,-239.03"/>
<polygon fill="#63b8ff" stroke="#63b8ff" points="2184.84,-242.52 2194.35,-237.86 2184,-235.57 2184.84,-242.52"/>
</g>
<!-- Node16 -->
<g id="node16" class="node">
<title>Node16</title>
<g id="a_node16"><a xlink:href="dvd_8h.html" target="_top" xlink:title=" ">
<polygon fill="white" stroke="#666666" points="1318,-129 1244,-129 1244,-110 1318,-110 1318,-129"/>
<text text-anchor="middle" x="1281" y="-117" font-family="Helvetica,sans-Serif" font-size="10.00">dolphin/dvd.h</text>
</a>
</g>
</g>
<!-- Node14&#45;&gt;Node16 -->
<g id="edge21" class="edge">
<title>Node14&#45;&gt;Node16</title>
<path fill="none" stroke="#63b8ff" d="M1170.44,-282.26C1263.17,-278.55 1512.71,-266.14 1537,-239 1553.44,-220.63 1540.27,-184.22 1518,-165 1516.21,-163.45 1398.26,-141.81 1329.46,-129.29"/>
<polygon fill="#63b8ff" stroke="#63b8ff" points="1330.41,-125.9 1319.94,-127.56 1329.15,-132.79 1330.41,-125.9"/>
</g>
<!-- Node17 -->
<g id="node17" class="node">
<title>Node17</title>
<g id="a_node17"><a xlink:href="OSAlarm_8h.html" target="_top" xlink:title=" ">
<polygon fill="white" stroke="#666666" points="1511.5,-239 1400.5,-239 1400.5,-220 1511.5,-220 1511.5,-239"/>
<text text-anchor="middle" x="1456" y="-227" font-family="Helvetica,sans-Serif" font-size="10.00">dolphin/os/OSAlarm.h</text>
</a>
</g>
</g>
<!-- Node14&#45;&gt;Node17 -->
<g id="edge23" class="edge">
<title>Node14&#45;&gt;Node17</title>
<path fill="none" stroke="#63b8ff" d="M1170.25,-277.83C1222.68,-269.14 1323.78,-252.4 1390.57,-241.34"/>
<polygon fill="#63b8ff" stroke="#63b8ff" points="1391.02,-244.81 1400.31,-239.72 1389.88,-237.9 1391.02,-244.81"/>
</g>
<!-- Node18 -->
<g id="node18" class="node">
<title>Node18</title>
<g id="a_node18"><a xlink:href="OSError_8h.html" target="_top" xlink:title=" ">
<polygon fill="white" stroke="#666666" points="1509,-184 1403,-184 1403,-165 1509,-165 1509,-184"/>
<text text-anchor="middle" x="1456" y="-172" font-family="Helvetica,sans-Serif" font-size="10.00">dolphin/os/OSError.h</text>
</a>
</g>
</g>
<!-- Node14&#45;&gt;Node18 -->
<g id="edge35" class="edge">
<title>Node14&#45;&gt;Node18</title>
<path fill="none" stroke="#63b8ff" d="M1170.37,-282.09C1260.41,-278.05 1497.84,-265 1521,-239 1537,-221.04 1510.9,-201.96 1487.16,-189.45"/>
<polygon fill="#63b8ff" stroke="#63b8ff" points="1488.79,-186.35 1478.28,-185.03 1485.67,-192.62 1488.79,-186.35"/>
</g>
<!-- Node19 -->
<g id="node19" class="node">
<title>Node19</title>
<g id="a_node19"><a xlink:href="OSAlloc_8h.html" target="_top" xlink:title=" ">
<polygon fill="white" stroke="#666666" points="1443.5,-129 1336.5,-129 1336.5,-110 1443.5,-110 1443.5,-129"/>
<text text-anchor="middle" x="1390" y="-117" font-family="Helvetica,sans-Serif" font-size="10.00">dolphin/os/OSAlloc.h</text>
</a>
</g>
</g>
<!-- Node14&#45;&gt;Node19 -->
<g id="edge27" class="edge">
<title>Node14&#45;&gt;Node19</title>
<path fill="none" stroke="#63b8ff" d="M1170.17,-282.43C1265.4,-279.1 1528.47,-267.39 1554,-239 1568.56,-222.81 1560.46,-186.98 1539,-165 1526.1,-151.78 1484.41,-139.98 1448.4,-131.86"/>
<polygon fill="#63b8ff" stroke="#63b8ff" points="1449.45,-128.5 1438.93,-129.78 1447.95,-135.34 1449.45,-128.5"/>
</g>
<!-- Node20 -->
<g id="node20" class="node">
<title>Node20</title>
<g id="a_node20"><a xlink:href="OSArena_8h.html" target="_top" xlink:title=" ">
<polygon fill="white" stroke="#666666" points="1572.5,-129 1461.5,-129 1461.5,-110 1572.5,-110 1572.5,-129"/>
<text text-anchor="middle" x="1517" y="-117" font-family="Helvetica,sans-Serif" font-size="10.00">dolphin/os/OSArena.h</text>
</a>
</g>
</g>
<!-- Node14&#45;&gt;Node20 -->
<g id="edge29" class="edge">
<title>Node14&#45;&gt;Node20</title>
<path fill="none" stroke="#63b8ff" d="M1170.15,-282.58C1268.03,-279.6 1544.26,-268.62 1571,-239 1598.51,-208.53 1559.82,-161.66 1535.01,-136.99"/>
<polygon fill="#63b8ff" stroke="#63b8ff" points="1537.67,-134.7 1528.03,-130.3 1532.83,-139.75 1537.67,-134.7"/>
</g>
<!-- Node21 -->
<g id="node21" class="node">
<title>Node21</title>
<g id="a_node21"><a xlink:href="OSAudioSystem_8h.html" target="_top" xlink:title=" ">
<polygon fill="white" stroke="#666666" points="1257.5,-239 1114.5,-239 1114.5,-220 1257.5,-220 1257.5,-239"/>
<text text-anchor="middle" x="1186" y="-227" font-family="Helvetica,sans-Serif" font-size="10.00">dolphin/os/OSAudioSystem.h</text>
</a>
</g>
</g>
<!-- Node14&#45;&gt;Node21 -->
<g id="edge31" class="edge">
<title>Node14&#45;&gt;Node21</title>
<path fill="none" stroke="#63b8ff" d="M1144.26,-274.75C1151.16,-267.43 1161.22,-256.76 1169.74,-247.74"/>
<polygon fill="#63b8ff" stroke="#63b8ff" points="1172.21,-250.22 1176.53,-240.54 1167.12,-245.42 1172.21,-250.22"/>
</g>
<!-- Node22 -->
<g id="node22" class="node">
<title>Node22</title>
<g id="a_node22"><a xlink:href="OSCache_8h.html" target="_top" xlink:title=" ">
<polygon fill="white" stroke="#666666" points="1703.5,-129 1590.5,-129 1590.5,-110 1703.5,-110 1703.5,-129"/>
<text text-anchor="middle" x="1647" y="-117" font-family="Helvetica,sans-Serif" font-size="10.00">dolphin/os/OSCache.h</text>
</a>
</g>
</g>
<!-- Node14&#45;&gt;Node22 -->
<g id="edge32" class="edge">
<title>Node14&#45;&gt;Node22</title>
<path fill="none" stroke="#63b8ff" d="M1170.25,-282.05C1269.9,-277.55 1554.8,-262.74 1589,-239 1622.46,-215.77 1637.42,-167.63 1643.44,-140.4"/>
<polygon fill="#63b8ff" stroke="#63b8ff" points="1646.85,-141.19 1645.37,-130.7 1639.98,-139.83 1646.85,-141.19"/>
</g>
<!-- Node23 -->
<g id="node23" class="node">
<title>Node23</title>
<g id="a_node23"><a xlink:href="OSExec_8h.html" target="_top" xlink:title=" ">
<polygon fill="white" stroke="#666666" points="1827.5,-184 1720.5,-184 1720.5,-165 1827.5,-165 1827.5,-184"/>
<text text-anchor="middle" x="1774" y="-172" font-family="Helvetica,sans-Serif" font-size="10.00">dolphin/os/OSExec.h</text>
</a>
</g>
</g>
<!-- Node14&#45;&gt;Node23 -->
<g id="edge36" class="edge">
<title>Node14&#45;&gt;Node23</title>
<path fill="none" stroke="#63b8ff" d="M1170.27,-283.76C1278.12,-284.12 1609.13,-281.63 1706,-239 1728.56,-229.07 1748.38,-208.42 1760.72,-193.36"/>
<polygon fill="#63b8ff" stroke="#63b8ff" points="1763.36,-195.66 1766.76,-185.62 1757.85,-191.35 1763.36,-195.66"/>
</g>
<!-- Node24 -->
<g id="node24" class="node">
<title>Node24</title>
<g id="a_node24"><a xlink:href="OSFont_8h.html" target="_top" xlink:title=" ">
<polygon fill="white" stroke="#666666" points="1865.5,-129 1760.5,-129 1760.5,-110 1865.5,-110 1865.5,-129"/>
<text text-anchor="middle" x="1813" y="-117" font-family="Helvetica,sans-Serif" font-size="10.00">dolphin/os/OSFont.h</text>
</a>
</g>
</g>
<!-- Node14&#45;&gt;Node24 -->
<g id="edge38" class="edge">
<title>Node14&#45;&gt;Node24</title>
<path fill="none" stroke="#63b8ff" d="M1170.31,-282.79C1280.76,-280.2 1626.14,-269.78 1733,-239 1783.25,-224.53 1810.02,-228.79 1837,-184 1845.72,-169.52 1837.14,-151.33 1827.9,-138.14"/>
<polygon fill="#63b8ff" stroke="#63b8ff" points="1830.78,-136.15 1821.91,-130.36 1825.24,-140.42 1830.78,-136.15"/>
</g>
<!-- Node25 -->
<g id="node25" class="node">
<title>Node25</title>
<g id="a_node25"><a xlink:href="OSInterrupt_8h.html" target="_top" xlink:title=" ">
<polygon fill="white" stroke="#666666" points="686,-184 564,-184 564,-165 686,-165 686,-184"/>
<text text-anchor="middle" x="625" y="-172" font-family="Helvetica,sans-Serif" font-size="10.00">dolphin/os/OSInterrupt.h</text>
</a>
</g>
</g>
<!-- Node14&#45;&gt;Node25 -->
<g id="edge40" class="edge">
<title>Node14&#45;&gt;Node25</title>
<path fill="none" stroke="#63b8ff" d="M1101.53,-281.58C1016.8,-276.57 800.34,-261.85 732,-239 714.73,-233.23 673.79,-207.51 647.85,-190.63"/>
<polygon fill="#63b8ff" stroke="#63b8ff" points="649.96,-187.82 639.67,-185.27 646.12,-193.68 649.96,-187.82"/>
</g>
<!-- Node26 -->
<g id="node26" class="node">
<title>Node26</title>
<g id="a_node26"><a xlink:href="OSLink_8h.html" target="_top" xlink:title=" ">
<polygon fill="white" stroke="#666666" points="846,-184 742,-184 742,-165 846,-165 846,-184"/>
<text text-anchor="middle" x="794" y="-172" font-family="Helvetica,sans-Serif" font-size="10.00">dolphin/os/OSLink.h</text>
</a>
</g>
</g>
<!-- Node14&#45;&gt;Node26 -->
<g id="edge42" class="edge">
<title>Node14&#45;&gt;Node26</title>
<path fill="none" stroke="#63b8ff" d="M1105.32,-274.51C1075.34,-265.67 1028.45,-251.7 988,-239 933.38,-221.85 870.44,-201.06 831.43,-188.05"/>
<polygon fill="#63b8ff" stroke="#63b8ff" points="832.64,-184.76 822.04,-184.92 830.42,-191.4 832.64,-184.76"/>
</g>
<!-- Node27 -->
<g id="node27" class="node">
<title>Node27</title>
<g id="a_node27"><a xlink:href="OSMemory_8h.html" target="_top" xlink:title=" ">
<polygon fill="white" stroke="#666666" points="684,-239 564,-239 564,-220 684,-220 684,-239"/>
<text text-anchor="middle" x="624" y="-227" font-family="Helvetica,sans-Serif" font-size="10.00">dolphin/os/OSMemory.h</text>
</a>
</g>
</g>
<!-- Node14&#45;&gt;Node27 -->
<g id="edge44" class="edge">
<title>Node14&#45;&gt;Node27</title>
<path fill="none" stroke="#63b8ff" d="M1101.63,-280.16C1027.74,-272.95 848.27,-255.26 698,-239 697.16,-238.91 696.31,-238.82 695.45,-238.72"/>
<polygon fill="#63b8ff" stroke="#63b8ff" points="696,-235.26 685.67,-237.64 695.23,-242.22 696,-235.26"/>
</g>
<!-- Node28 -->
<g id="node28" class="node">
<title>Node28</title>
<g id="a_node28"><a xlink:href="OSReboot_8h.html" target="_top" xlink:title=" ">
<polygon fill="white" stroke="#666666" points="980,-184 864,-184 864,-165 980,-165 980,-184"/>
<text text-anchor="middle" x="922" y="-172" font-family="Helvetica,sans-Serif" font-size="10.00">dolphin/os/OSReboot.h</text>
</a>
</g>
</g>
<!-- Node14&#45;&gt;Node28 -->
<g id="edge48" class="edge">
<title>Node14&#45;&gt;Node28</title>
<path fill="none" stroke="#63b8ff" d="M1110.33,-274.63C1087.47,-266.4 1053.37,-253.3 1025,-239 996.11,-224.44 964.71,-204.42 944.27,-190.78"/>
<polygon fill="#63b8ff" stroke="#63b8ff" points="946.42,-188 936.17,-185.31 942.5,-193.81 946.42,-188"/>
</g>
<!-- Node29 -->
<g id="node29" class="node">
<title>Node29</title>
<g id="a_node29"><a xlink:href="OSReset_8h.html" target="_top" xlink:title=" ">
<polygon fill="white" stroke="#666666" points="1109.5,-184 998.5,-184 998.5,-165 1109.5,-165 1109.5,-184"/>
<text text-anchor="middle" x="1054" y="-172" font-family="Helvetica,sans-Serif" font-size="10.00">dolphin/os/OSReset.h</text>
</a>
</g>
</g>
<!-- Node14&#45;&gt;Node29 -->
<g id="edge50" class="edge">
<title>Node14&#45;&gt;Node29</title>
<path fill="none" stroke="#63b8ff" d="M1101.78,-278.43C1078.35,-272.98 1048.92,-261.79 1034,-239 1025.01,-225.27 1032.15,-207.23 1040.29,-193.88"/>
<polygon fill="#63b8ff" stroke="#63b8ff" points="1043.18,-195.86 1045.9,-185.62 1037.39,-191.93 1043.18,-195.86"/>
</g>
<!-- Node30 -->
<g id="node30" class="node">
<title>Node30</title>
<g id="a_node30"><a xlink:href="OSResetSW_8h.html" target="_top" xlink:title=" ">
<polygon fill="white" stroke="#666666" points="867.5,-239 740.5,-239 740.5,-220 867.5,-220 867.5,-239"/>
<text text-anchor="middle" x="804" y="-227" font-family="Helvetica,sans-Serif" font-size="10.00">dolphin/os/OSResetSW.h</text>
</a>
</g>
</g>
<!-- Node14&#45;&gt;Node30 -->
<g id="edge52" class="edge">
<title>Node14&#45;&gt;Node30</title>
<path fill="none" stroke="#63b8ff" d="M1101.72,-278.03C1047.58,-269.38 941.26,-252.41 871.42,-241.26"/>
<polygon fill="#63b8ff" stroke="#63b8ff" points="872.04,-237.82 861.61,-239.7 870.93,-244.73 872.04,-237.82"/>
</g>
<!-- Node31 -->
<g id="node31" class="node">
<title>Node31</title>
<g id="a_node31"><a xlink:href="OSRtc_8h.html" target="_top" xlink:title=" ">
<polygon fill="white" stroke="#666666" points="1149.5,-129 1048.5,-129 1048.5,-110 1149.5,-110 1149.5,-129"/>
<text text-anchor="middle" x="1099" y="-117" font-family="Helvetica,sans-Serif" font-size="10.00">dolphin/os/OSRtc.h</text>
</a>
</g>
</g>
<!-- Node14&#45;&gt;Node31 -->
<g id="edge55" class="edge">
<title>Node14&#45;&gt;Node31</title>
<path fill="none" stroke="#63b8ff" d="M1124.93,-274.61C1115.74,-266.46 1103.34,-253.49 1098,-239 1088.94,-214.45 1112.17,-209.26 1119,-184 1121.2,-175.85 1120.77,-173.26 1119,-165 1117.12,-156.21 1113.35,-147.06 1109.6,-139.35"/>
<polygon fill="#63b8ff" stroke="#63b8ff" points="1112.78,-137.88 1105.02,-130.66 1106.58,-141.14 1112.78,-137.88"/>
</g>
<!-- Node32 -->
<g id="node32" class="node">
<title>Node32</title>
<g id="a_node32"><a xlink:href="OSSync_8h.html" target="_top" xlink:title=" ">
<polygon fill="white" stroke="#666666" points="1382.5,-239 1275.5,-239 1275.5,-220 1382.5,-220 1382.5,-239"/>
<text text-anchor="middle" x="1329" y="-227" font-family="Helvetica,sans-Serif" font-size="10.00">dolphin/os/OSSync.h</text>
</a>
</g>
</g>
<!-- Node14&#45;&gt;Node32 -->
<g id="edge57" class="edge">
<title>Node14&#45;&gt;Node32</title>
<path fill="none" stroke="#63b8ff" d="M1168.74,-274.51C1200.86,-265.69 1250.04,-252.18 1285.45,-242.46"/>
<polygon fill="#63b8ff" stroke="#63b8ff" points="1286.25,-245.87 1294.96,-239.85 1284.39,-239.12 1286.25,-245.87"/>
</g>
<!-- Node15&#45;&gt;Node6 -->
<g id="edge20" class="edge">
<title>Node15&#45;&gt;Node6</title>
<path fill="none" stroke="#63b8ff" d="M2231.39,-219.56C2239.11,-197.52 2255.14,-140.21 2226,-110 2198.73,-81.72 1620.9,-69.46 1442.2,-66.34"/>
<polygon fill="#63b8ff" stroke="#63b8ff" points="1442.34,-62.84 1432.28,-66.17 1442.22,-69.84 1442.34,-62.84"/>
</g>
<!-- Node16&#45;&gt;Node6 -->
<g id="edge22" class="edge">
<title>Node16&#45;&gt;Node6</title>
<path fill="none" stroke="#63b8ff" d="M1299.49,-109.51C1316.5,-101.24 1341.99,-88.84 1361.59,-79.31"/>
<polygon fill="#63b8ff" stroke="#63b8ff" points="1362.96,-82.54 1370.42,-75.02 1359.9,-76.25 1362.96,-82.54"/>
</g>
<!-- Node17&#45;&gt;Node12 -->
<g id="edge26" class="edge">
<title>Node17&#45;&gt;Node12</title>
<path fill="none" stroke="#63b8ff" d="M1415.97,-219.51C1376.01,-210.54 1314.46,-196.71 1271.02,-186.96"/>
<polygon fill="#63b8ff" stroke="#63b8ff" points="1271.84,-183.55 1261.31,-184.78 1270.3,-190.38 1271.84,-183.55"/>
</g>
<!-- Node17&#45;&gt;Node18 -->
<g id="edge24" class="edge">
<title>Node17&#45;&gt;Node18</title>
<path fill="none" stroke="#63b8ff" d="M1456,-219.75C1456,-213.27 1456,-204.16 1456,-195.9"/>
<polygon fill="#63b8ff" stroke="#63b8ff" points="1459.5,-195.96 1456,-185.96 1452.5,-195.96 1459.5,-195.96"/>
</g>
<!-- Node18&#45;&gt;Node6 -->
<g id="edge25" class="edge">
<title>Node18&#45;&gt;Node6</title>
<path fill="none" stroke="#63b8ff" d="M1402.73,-170.34C1344.23,-165.62 1255.8,-154.4 1235,-129 1203.81,-90.9 1281.7,-75.42 1338.01,-69.3"/>
<polygon fill="#63b8ff" stroke="#63b8ff" points="1338.19,-72.8 1347.79,-68.32 1337.49,-65.84 1338.19,-72.8"/>
</g>
<!-- Node19&#45;&gt;Node6 -->
<g id="edge28" class="edge">
<title>Node19&#45;&gt;Node6</title>
<path fill="none" stroke="#63b8ff" d="M1390,-109.75C1390,-103.27 1390,-94.16 1390,-85.9"/>
<polygon fill="#63b8ff" stroke="#63b8ff" points="1393.5,-85.96 1390,-75.96 1386.5,-85.96 1393.5,-85.96"/>
</g>
<!-- Node20&#45;&gt;Node6 -->
<g id="edge30" class="edge">
<title>Node20&#45;&gt;Node6</title>
<path fill="none" stroke="#63b8ff" d="M1495.46,-109.51C1475.26,-101.08 1444.83,-88.38 1421.84,-78.79"/>
<polygon fill="#63b8ff" stroke="#63b8ff" points="1423.2,-75.56 1412.62,-74.94 1420.5,-82.02 1423.2,-75.56"/>
</g>
<!-- Node22&#45;&gt;Node6 -->
<g id="edge33" class="edge">
<title>Node22&#45;&gt;Node6</title>
<path fill="none" stroke="#63b8ff" d="M1603.4,-109.51C1558.82,-100.31 1489.55,-86.03 1442.1,-76.24"/>
<polygon fill="#63b8ff" stroke="#63b8ff" points="1442.82,-72.82 1432.32,-74.23 1441.4,-79.67 1442.82,-72.82"/>
</g>
<!-- Node23&#45;&gt;Node6 -->
<g id="edge37" class="edge">
<title>Node23&#45;&gt;Node6</title>
<path fill="none" stroke="#63b8ff" d="M1768.49,-164.75C1759.06,-150.58 1738.34,-122.91 1713,-110 1666.73,-86.43 1520.87,-73.79 1441.94,-68.51"/>
<polygon fill="#63b8ff" stroke="#63b8ff" points="1442.52,-65.05 1432.31,-67.89 1442.06,-72.03 1442.52,-65.05"/>
</g>
<!-- Node24&#45;&gt;Node6 -->
<g id="edge39" class="edge">
<title>Node24&#45;&gt;Node6</title>
<path fill="none" stroke="#63b8ff" d="M1760.33,-111.81C1755.49,-111.2 1750.65,-110.59 1746,-110 1637.85,-96.38 1511.19,-80.59 1441.88,-71.95"/>
<polygon fill="#63b8ff" stroke="#63b8ff" points="1442.7,-68.53 1432.35,-70.77 1441.84,-75.48 1442.7,-68.53"/>
</g>
<!-- Node25&#45;&gt;Node6 -->
<g id="edge41" class="edge">
<title>Node25&#45;&gt;Node6</title>
<path fill="none" stroke="#63b8ff" d="M632.16,-164.52C644.31,-150.01 670.57,-121.87 700,-110 758.59,-86.36 1187.41,-71.51 1337.94,-66.98"/>
<polygon fill="#63b8ff" stroke="#63b8ff" points="1337.73,-70.48 1347.62,-66.69 1337.52,-63.49 1337.73,-70.48"/>
</g>
<!-- Node26&#45;&gt;Node6 -->
<g id="edge43" class="edge">
<title>Node26&#45;&gt;Node6</title>
<path fill="none" stroke="#63b8ff" d="M815.92,-164.51C851,-150.53 922.19,-123.73 985,-110 1109.72,-82.74 1259.89,-71.8 1337.63,-67.72"/>
<polygon fill="#63b8ff" stroke="#63b8ff" points="1337.69,-71.22 1347.5,-67.22 1337.34,-64.23 1337.69,-71.22"/>
</g>
<!-- Node27&#45;&gt;Node25 -->
<g id="edge45" class="edge">
<title>Node27&#45;&gt;Node25</title>
<path fill="none" stroke="#63b8ff" d="M624.17,-219.75C624.29,-213.27 624.46,-204.16 624.62,-195.9"/>
<polygon fill="#63b8ff" stroke="#63b8ff" points="628.11,-196.02 624.8,-185.96 621.11,-195.89 628.11,-196.02"/>
</g>
<!-- Node28&#45;&gt;Node6 -->
<g id="edge49" class="edge">
<title>Node28&#45;&gt;Node6</title>
<path fill="none" stroke="#63b8ff" d="M933.52,-164.54C952.46,-150.34 991.9,-122.93 1030,-110 1135.21,-74.29 1266.39,-66.66 1337.77,-65.37"/>
<polygon fill="#63b8ff" stroke="#63b8ff" points="1337.66,-68.88 1347.61,-65.23 1337.56,-61.88 1337.66,-68.88"/>
</g>
<!-- Node29&#45;&gt;Node6 -->
<g id="edge51" class="edge">
<title>Node29&#45;&gt;Node6</title>
<path fill="none" stroke="#63b8ff" d="M1047.76,-164.51C1039.22,-151.01 1026.42,-125.42 1040,-110 1059.34,-88.04 1244.8,-74.07 1337.62,-68.4"/>
<polygon fill="#63b8ff" stroke="#63b8ff" points="1337.72,-71.9 1347.49,-67.81 1337.3,-64.91 1337.72,-71.9"/>
</g>
<!-- Node30&#45;&gt;Node6 -->
<g id="edge53" class="edge">
<title>Node30&#45;&gt;Node6</title>
<path fill="none" stroke="#63b8ff" d="M780.16,-219.67C753.53,-208.44 716.21,-187.76 733,-165 782.15,-98.37 829.79,-126.14 911,-110 1064.26,-79.54 1249.36,-69.84 1337.89,-66.82"/>
<polygon fill="#63b8ff" stroke="#63b8ff" points="1337.83,-70.32 1347.71,-66.5 1337.6,-63.32 1337.83,-70.32"/>
</g>
<!-- Node30&#45;&gt;Node25 -->
<g id="edge54" class="edge">
<title>Node30&#45;&gt;Node25</title>
<path fill="none" stroke="#63b8ff" d="M773.64,-219.51C744.1,-210.76 699.02,-197.42 666.25,-187.71"/>
<polygon fill="#63b8ff" stroke="#63b8ff" points="667.25,-184.36 656.67,-184.88 665.26,-191.07 667.25,-184.36"/>
</g>
<!-- Node31&#45;&gt;Node6 -->
<g id="edge56" class="edge">
<title>Node31&#45;&gt;Node6</title>
<path fill="none" stroke="#63b8ff" d="M1148.36,-109.51C1201.09,-99.91 1284.29,-84.75 1338.01,-74.97"/>
<polygon fill="#63b8ff" stroke="#63b8ff" points="1338.63,-78.41 1347.84,-73.18 1337.38,-71.53 1338.63,-78.41"/>
</g>
<!-- Node33&#45;&gt;Node4 -->
<g id="edge64" class="edge">
<title>Node33&#45;&gt;Node4</title>
<path fill="none" stroke="#63b8ff" d="M2017.58,-447.62C1684.7,-443.39 370.44,-422.14 202,-349 152.08,-327.32 110.51,-275.81 90.98,-248.39"/>
<polygon fill="#63b8ff" stroke="#63b8ff" points="94.03,-246.65 85.47,-240.42 88.28,-250.64 94.03,-246.65"/>
</g>
<!-- Node33&#45;&gt;Node6 -->
<g id="edge78" class="edge">
<title>Node33&#45;&gt;Node6</title>
<path fill="none" stroke="#63b8ff" d="M2159.41,-439.52C2215.73,-427.67 2288,-400.73 2288,-340.5 2288,-340.5 2288,-340.5 2288,-173.5 2288,-139.42 2274.68,-126.75 2245,-110 2175.28,-70.66 1617.45,-66.02 1442.37,-65.53"/>
<polygon fill="#63b8ff" stroke="#63b8ff" points="1442.44,-62.03 1432.43,-65.51 1442.43,-69.03 1442.44,-62.03"/>
</g>
<!-- Node33&#45;&gt;Node15 -->
<g id="edge77" class="edge">
<title>Node33&#45;&gt;Node15</title>
<path fill="none" stroke="#63b8ff" d="M2092.17,-439.79C2086.91,-412.29 2074.57,-326.15 2114,-275 2123.1,-263.19 2156.5,-250.95 2184.81,-242.31"/>
<polygon fill="#63b8ff" stroke="#63b8ff" points="2185.7,-245.69 2194.29,-239.49 2183.71,-238.98 2185.7,-245.69"/>
</g>
<!-- Node34 -->
<g id="node34" class="node">
<title>Node34</title>
<g id="a_node34"><a xlink:href="linklist_8h.html" target="_top" xlink:title=" ">
<polygon fill="white" stroke="#666666" points="2065.5,-404 1932.5,-404 1932.5,-385 2065.5,-385 2065.5,-404"/>
<text text-anchor="middle" x="1999" y="-392" font-family="Helvetica,sans-Serif" font-size="10.00">JSystem/JGadget/linklist.h</text>
</a>
</g>
</g>
<!-- Node33&#45;&gt;Node34 -->
<g id="edge61" class="edge">
<title>Node33&#45;&gt;Node34</title>
<path fill="none" stroke="#63b8ff" d="M2077.88,-439.51C2063.33,-431.39 2041.66,-419.3 2024.71,-409.85"/>
<polygon fill="#63b8ff" stroke="#63b8ff" points="2026.64,-406.91 2016.2,-405.1 2023.23,-413.02 2026.64,-406.91"/>
</g>
<!-- Node35 -->
<g id="node35" class="node">
<title>Node35</title>
<g id="a_node35"><a xlink:href="JUTFont_8h.html" target="_top" xlink:title=" ">
<polygon fill="white" stroke="#666666" points="2259.5,-294 2122.5,-294 2122.5,-275 2259.5,-275 2259.5,-294"/>
<text text-anchor="middle" x="2191" y="-282" font-family="Helvetica,sans-Serif" font-size="10.00">JSystem/JUtility/JUTFont.h</text>
</a>
</g>
</g>
<!-- Node33&#45;&gt;Node35 -->
<g id="edge65" class="edge">
<title>Node33&#45;&gt;Node35</title>
<path fill="none" stroke="#63b8ff" d="M2099.22,-439.74C2114.48,-414.09 2159.29,-338.78 2180.12,-303.78"/>
<polygon fill="#63b8ff" stroke="#63b8ff" points="2182.88,-305.99 2184.99,-295.61 2176.86,-302.41 2182.88,-305.99"/>
</g>
<!-- Node34&#45;&gt;Node6 -->
<g id="edge62" class="edge">
<title>Node34&#45;&gt;Node6</title>
<path fill="none" stroke="#63b8ff" d="M1998.36,-384.5C1996.88,-356.15 1996.3,-267.76 2042,-220 2081.09,-179.16 2120.26,-219.82 2164,-184 2191.33,-161.62 2217.28,-135.66 2193,-110 2167.16,-82.69 1616.18,-69.83 1442.17,-66.44"/>
<polygon fill="#63b8ff" stroke="#63b8ff" points="1442.37,-62.94 1432.3,-66.25 1442.23,-69.94 1442.37,-62.94"/>
</g>
<!-- Node34&#45;&gt;Node13 -->
<g id="edge63" class="edge">
<title>Node34&#45;&gt;Node13</title>
<path fill="none" stroke="#63b8ff" d="M1981.7,-384.51C1965.92,-376.31 1942.36,-364.07 1924.09,-354.58"/>
<polygon fill="#63b8ff" stroke="#63b8ff" points="1925.88,-351.56 1915.39,-350.06 1922.65,-357.77 1925.88,-351.56"/>
</g>
<!-- Node36 -->
<g id="node36" class="node">
<title>Node36</title>
<g id="a_node36"><a xlink:href="TColor_8h.html" target="_top" xlink:title=" ">
<polygon fill="white" stroke="#666666" points="2177.5,-239 2050.5,-239 2050.5,-220 2177.5,-220 2177.5,-239"/>
<text text-anchor="middle" x="2114" y="-227" font-family="Helvetica,sans-Serif" font-size="10.00">JSystem/JUtility/TColor.h</text>
</a>
</g>
</g>
<!-- Node35&#45;&gt;Node36 -->
<g id="edge66" class="edge">
<title>Node35&#45;&gt;Node36</title>
<path fill="none" stroke="#63b8ff" d="M2177.94,-274.51C2166.48,-266.62 2149.57,-254.98 2136.02,-245.65"/>
<polygon fill="#63b8ff" stroke="#63b8ff" points="2138.34,-243 2128.12,-240.22 2134.37,-248.77 2138.34,-243"/>
</g>
<!-- Node41 -->
<g id="node41" class="node">
<title>Node41</title>
<g id="a_node41"><a xlink:href="string_8h.html" target="_top" xlink:title=" ">
<polygon fill="white" stroke="#666666" points="2364,-239 2316,-239 2316,-220 2364,-220 2364,-239"/>
<text text-anchor="middle" x="2340" y="-227" font-family="Helvetica,sans-Serif" font-size="10.00">string.h</text>
</a>
</g>
</g>
<!-- Node35&#45;&gt;Node41 -->
<g id="edge74" class="edge">
<title>Node35&#45;&gt;Node41</title>
<path fill="none" stroke="#63b8ff" d="M2216.28,-274.51C2240.65,-265.84 2277.75,-252.64 2304.96,-242.96"/>
<polygon fill="#63b8ff" stroke="#63b8ff" points="2305.92,-246.34 2314.17,-239.69 2303.57,-239.74 2305.92,-246.34"/>
</g>
<!-- Node37 -->
<g id="node37" class="node">
<title>Node37</title>
<g id="a_node37"><a xlink:href="GXStruct_8h.html" target="_top" xlink:title=" ">
<polygon fill="white" stroke="#666666" points="2154.5,-184 2043.5,-184 2043.5,-165 2154.5,-165 2154.5,-184"/>
<text text-anchor="middle" x="2099" y="-172" font-family="Helvetica,sans-Serif" font-size="10.00">dolphin/gx/GXStruct.h</text>
</a>
</g>
</g>
<!-- Node36&#45;&gt;Node37 -->
<g id="edge67" class="edge">
<title>Node36&#45;&gt;Node37</title>
<path fill="none" stroke="#63b8ff" d="M2111.52,-219.75C2109.65,-213.11 2106.99,-203.73 2104.61,-195.31"/>
<polygon fill="#63b8ff" stroke="#63b8ff" points="2108.03,-194.57 2101.94,-185.9 2101.3,-196.47 2108.03,-194.57"/>
</g>
<!-- Node38 -->
<g id="node38" class="node">
<title>Node38</title>
<g id="a_node38"><a xlink:href="global_8h.html" target="_top" xlink:title=" ">
<polygon fill="white" stroke="#666666" points="2184,-129 2134,-129 2134,-110 2184,-110 2184,-129"/>
<text text-anchor="middle" x="2159" y="-117" font-family="Helvetica,sans-Serif" font-size="10.00">global.h</text>
</a>
</g>
</g>
<!-- Node37&#45;&gt;Node38 -->
<g id="edge68" class="edge">
<title>Node37&#45;&gt;Node38</title>
<path fill="none" stroke="#63b8ff" d="M2109.18,-164.51C2117.76,-156.93 2130.27,-145.88 2140.6,-136.75"/>
<polygon fill="#63b8ff" stroke="#63b8ff" points="2142.66,-139.6 2147.84,-130.36 2138.03,-134.36 2142.66,-139.6"/>
</g>
<!-- Node39 -->
<g id="node39" class="node">
<title>Node39</title>
<g id="a_node39"><a xlink:href="GXEnum_8h.html" target="_top" xlink:title=" ">
<polygon fill="white" stroke="#666666" points="2032,-129 1922,-129 1922,-110 2032,-110 2032,-129"/>
<text text-anchor="middle" x="1977" y="-117" font-family="Helvetica,sans-Serif" font-size="10.00">dolphin/gx/GXEnum.h</text>
</a>
</g>
</g>
<!-- Node37&#45;&gt;Node39 -->
<g id="edge70" class="edge">
<title>Node37&#45;&gt;Node39</title>
<path fill="none" stroke="#63b8ff" d="M2078.3,-164.51C2059,-156.12 2029.94,-143.5 2007.89,-133.92"/>
<polygon fill="#63b8ff" stroke="#63b8ff" points="2009.34,-130.74 1998.78,-129.96 2006.56,-137.16 2009.34,-130.74"/>
</g>
<!-- Node40 -->
<g id="node40" class="node">
<title>Node40</title>
<g id="a_node40"><a xlink:href="vi_8h.html" target="_top" xlink:title=" ">
<polygon fill="white" stroke="#666666" points="2115.5,-129 2050.5,-129 2050.5,-110 2115.5,-110 2115.5,-129"/>
<text text-anchor="middle" x="2083" y="-117" font-family="Helvetica,sans-Serif" font-size="10.00">dolphin/vi.h</text>
</a>
</g>
</g>
<!-- Node37&#45;&gt;Node40 -->
<g id="edge72" class="edge">
<title>Node37&#45;&gt;Node40</title>
<path fill="none" stroke="#63b8ff" d="M2096.36,-164.75C2094.36,-158.11 2091.52,-148.73 2088.98,-140.31"/>
<polygon fill="#63b8ff" stroke="#63b8ff" points="2092.38,-139.45 2086.14,-130.89 2085.68,-141.48 2092.38,-139.45"/>
</g>
<!-- Node38&#45;&gt;Node6 -->
<g id="edge69" class="edge">
<title>Node38&#45;&gt;Node6</title>
<path fill="none" stroke="#63b8ff" d="M2133.85,-111.66C2130.89,-111.02 2127.89,-110.44 2125,-110 1871.27,-70.95 1563.34,-65.78 1442.37,-65.37"/>
<polygon fill="#63b8ff" stroke="#63b8ff" points="1442.44,-61.87 1432.43,-65.34 1442.42,-68.87 1442.44,-61.87"/>
</g>
<!-- Node39&#45;&gt;Node6 -->
<g id="edge71" class="edge">
<title>Node39&#45;&gt;Node6</title>
<path fill="none" stroke="#63b8ff" d="M1921.66,-111.5C1917.04,-110.97 1912.44,-110.46 1908,-110 1737.76,-92.21 1535.48,-76.36 1442.06,-69.33"/>
<polygon fill="#63b8ff" stroke="#63b8ff" points="1442.42,-65.85 1432.19,-68.59 1441.9,-72.83 1442.42,-65.85"/>
</g>
<!-- Node40&#45;&gt;Node6 -->
<g id="edge73" class="edge">
<title>Node40&#45;&gt;Node6</title>
<path fill="none" stroke="#63b8ff" d="M2050.05,-111.41C2047,-110.88 2043.95,-110.4 2041,-110 1819.75,-80.18 1553.36,-69.9 1442.44,-66.75"/>
<polygon fill="#63b8ff" stroke="#63b8ff" points="1442.55,-63.25 1432.45,-66.47 1442.35,-70.25 1442.55,-63.25"/>
</g>
<!-- Node41&#45;&gt;Node7 -->
<g id="edge75" class="edge">
<title>Node41&#45;&gt;Node7</title>
<path fill="none" stroke="#63b8ff" d="M2339.96,-219.68C2339.81,-187.57 2339.3,-76.33 2339.09,-30.49"/>
<polygon fill="#63b8ff" stroke="#63b8ff" points="2342.59,-30.68 2339.05,-20.7 2335.59,-30.72 2342.59,-30.68"/>
</g>
<!-- Node42 -->
<g id="node42" class="node">
<title>Node42</title>
<g id="a_node42"><a xlink:href="extras_8h.html" target="_top" xlink:title=" ">
<polygon fill="white" stroke="#666666" points="2417,-184 2367,-184 2367,-165 2417,-165 2417,-184"/>
<text text-anchor="middle" x="2392" y="-172" font-family="Helvetica,sans-Serif" font-size="10.00">extras.h</text>
</a>
</g>
</g>
<!-- Node41&#45;&gt;Node42 -->
<g id="edge76" class="edge">
<title>Node41&#45;&gt;Node42</title>
<path fill="none" stroke="#63b8ff" d="M2348.59,-219.75C2355.84,-212.35 2366.45,-201.54 2375.37,-192.45"/>
<polygon fill="#63b8ff" stroke="#63b8ff" points="2377.66,-195.11 2382.17,-185.52 2372.66,-190.21 2377.66,-195.11"/>
</g>
<!-- Node43&#45;&gt;Node42 -->
<g id="edge88" class="edge">
<title>Node43&#45;&gt;Node42</title>
<path fill="none" stroke="#63b8ff" d="M2434.76,-329.72C2427.3,-321.25 2416.66,-307.72 2411,-294 2397.46,-261.18 2393.53,-219.56 2392.41,-195.39"/>
<polygon fill="#63b8ff" stroke="#63b8ff" points="2395.92,-195.59 2392.09,-185.71 2388.92,-195.82 2395.92,-195.59"/>
</g>
<!-- Node44 -->
<g id="node44" class="node">
<title>Node44</title>
<g id="a_node44"><a xlink:href="char__io_8h.html" target="_top" xlink:title=" ">
<polygon fill="white" stroke="#666666" points="2608,-294 2552,-294 2552,-275 2608,-275 2608,-294"/>
<text text-anchor="middle" x="2580" y="-282" font-family="Helvetica,sans-Serif" font-size="10.00">char_io.h</text>
</a>
</g>
</g>
<!-- Node43&#45;&gt;Node44 -->
<g id="edge80" class="edge">
<title>Node43&#45;&gt;Node44</title>
<path fill="none" stroke="#63b8ff" d="M2465.93,-329.63C2487.96,-321.11 2521.5,-308.13 2546.51,-298.45"/>
<polygon fill="#63b8ff" stroke="#63b8ff" points="2547.52,-301.82 2555.58,-294.95 2544.99,-295.29 2547.52,-301.82"/>
</g>
<!-- Node46 -->
<g id="node46" class="node">
<title>Node46</title>
<g id="a_node46"><a xlink:href="file__io_8h.html" target="_top" xlink:title=" ">
<polygon fill="white" stroke="#666666" points="2533.5,-294 2484.5,-294 2484.5,-275 2533.5,-275 2533.5,-294"/>
<text text-anchor="middle" x="2509" y="-282" font-family="Helvetica,sans-Serif" font-size="10.00">file_io.h</text>
</a>
</g>
</g>
<!-- Node43&#45;&gt;Node46 -->
<g id="edge83" class="edge">
<title>Node43&#45;&gt;Node46</title>
<path fill="none" stroke="#63b8ff" d="M2454.2,-329.51C2463.74,-321.85 2477.67,-310.66 2489.11,-301.47"/>
<polygon fill="#63b8ff" stroke="#63b8ff" points="2491.18,-304.3 2496.79,-295.31 2486.8,-298.84 2491.18,-304.3"/>
</g>
<!-- Node47 -->
<g id="node47" class="node">
<title>Node47</title>
<g id="a_node47"><a xlink:href="printf_8h.html" target="_top" xlink:title=" ">
<polygon fill="white" stroke="#666666" points="2466,-294 2420,-294 2420,-275 2466,-275 2466,-294"/>
<text text-anchor="middle" x="2443" y="-282" font-family="Helvetica,sans-Serif" font-size="10.00">printf.h</text>
</a>
</g>
</g>
<!-- Node43&#45;&gt;Node47 -->
<g id="edge85" class="edge">
<title>Node43&#45;&gt;Node47</title>
<path fill="none" stroke="#63b8ff" d="M2443,-329.75C2443,-323.27 2443,-314.16 2443,-305.9"/>
<polygon fill="#63b8ff" stroke="#63b8ff" points="2446.5,-305.96 2443,-295.96 2439.5,-305.96 2446.5,-305.96"/>
</g>
<!-- Node45 -->
<g id="node45" class="node">
<title>Node45</title>
<g id="a_node45"><a xlink:href="ansi__files_8h.html" target="_top" xlink:title=" ">
<polygon fill="white" stroke="#666666" points="2513.5,-239 2448.5,-239 2448.5,-220 2513.5,-220 2513.5,-239"/>
<text text-anchor="middle" x="2481" y="-227" font-family="Helvetica,sans-Serif" font-size="10.00">ansi_files.h</text>
</a>
</g>
</g>
<!-- Node44&#45;&gt;Node45 -->
<g id="edge81" class="edge">
<title>Node44&#45;&gt;Node45</title>
<path fill="none" stroke="#63b8ff" d="M2563.21,-274.51C2547.9,-266.31 2525.03,-254.07 2507.3,-244.58"/>
<polygon fill="#63b8ff" stroke="#63b8ff" points="2509.35,-241.71 2498.88,-240.07 2506.04,-247.88 2509.35,-241.71"/>
</g>
<!-- Node45&#45;&gt;Node7 -->
<g id="edge82" class="edge">
<title>Node45&#45;&gt;Node7</title>
<path fill="none" stroke="#63b8ff" d="M2475.26,-219.68C2454.07,-187.16 2380.01,-73.46 2350.89,-28.75"/>
<polygon fill="#63b8ff" stroke="#63b8ff" points="2353.88,-26.92 2345.48,-20.45 2348.01,-30.74 2353.88,-26.92"/>
</g>
<!-- Node46&#45;&gt;Node45 -->
<g id="edge84" class="edge">
<title>Node46&#45;&gt;Node45</title>
<path fill="none" stroke="#63b8ff" d="M2504.38,-274.75C2500.75,-267.88 2495.57,-258.08 2491.01,-249.45"/>
<polygon fill="#63b8ff" stroke="#63b8ff" points="2494.2,-247.99 2486.43,-240.78 2488.01,-251.26 2494.2,-247.99"/>
</g>
<!-- Node47&#45;&gt;Node15 -->
<g id="edge87" class="edge">
<title>Node47&#45;&gt;Node15</title>
<path fill="none" stroke="#63b8ff" d="M2419.58,-277.73C2384.14,-268.99 2316.28,-252.26 2271.58,-241.24"/>
<polygon fill="#63b8ff" stroke="#63b8ff" points="2272.48,-237.86 2261.94,-238.87 2270.81,-244.66 2272.48,-237.86"/>
</g>
<!-- Node47&#45;&gt;Node45 -->
<g id="edge86" class="edge">
<title>Node47&#45;&gt;Node45</title>
<path fill="none" stroke="#63b8ff" d="M2449.27,-274.75C2454.36,-267.66 2461.7,-257.42 2468.03,-248.59"/>
<polygon fill="#63b8ff" stroke="#63b8ff" points="2470.72,-250.84 2473.71,-240.67 2465.04,-246.76 2470.72,-250.84"/>
</g>
</g>
</svg>
