<?xml version="1.0" encoding="UTF-8" standalone="no"?>
<!DOCTYPE svg PUBLIC "-//W3C//DTD SVG 1.1//EN"
 "http://www.w3.org/Graphics/SVG/1.1/DTD/svg11.dtd">
<!-- Generated by graphviz version 7.0.5 (20221223.1930)
 -->
<!-- Title: include/JSystem/JKernel/JKRThread.h Pages: 1 -->
<svg width="523pt" height="368pt"
 viewBox="0.00 0.00 522.50 368.00" xmlns="http://www.w3.org/2000/svg" xmlns:xlink="http://www.w3.org/1999/xlink">
<g id="graph0" class="graph" transform="scale(1 1) rotate(0) translate(4 364)">
<title>include/JSystem/JKernel/JKRThread.h</title>
<!-- Node1 -->
<g id="node1" class="node">
<title>Node1</title>
<g id="a_node1"><a xlink:title=" ">
<polygon fill="#999999" stroke="#666666" points="395.5,-360 270.5,-360 270.5,-330 395.5,-330 395.5,-360"/>
<text text-anchor="start" x="278.5" y="-348" font-family="Helvetica,sans-Serif" font-size="10.00">include/JSystem/JKernel</text>
<text text-anchor="middle" x="333" y="-337" font-family="Helvetica,sans-Serif" font-size="10.00">/JKRThread.h</text>
</a>
</g>
</g>
<!-- Node2 -->
<g id="node2" class="node">
<title>Node2</title>
<g id="a_node2"><a xlink:href="JKRHeap_8h.html" target="_top" xlink:title=" ">
<polygon fill="white" stroke="#666666" points="207.5,-294 64.5,-294 64.5,-275 207.5,-275 207.5,-294"/>
<text text-anchor="middle" x="136" y="-282" font-family="Helvetica,sans-Serif" font-size="10.00">JSystem/JKernel/JKRHeap.h</text>
</a>
</g>
</g>
<!-- Node1&#45;&gt;Node2 -->
<g id="edge1" class="edge">
<title>Node1&#45;&gt;Node2</title>
<path fill="none" stroke="#63b8ff" d="M284.3,-329.54C251.32,-319.75 208.23,-306.95 177.01,-297.68"/>
<polygon fill="#63b8ff" stroke="#63b8ff" points="178.11,-294.35 167.53,-294.86 176.12,-301.06 178.11,-294.35"/>
</g>
<!-- Node5 -->
<g id="node5" class="node">
<title>Node5</title>
<g id="a_node5"><a xlink:href="types_8h.html" target="_top" xlink:title=" ">
<polygon fill="white" stroke="#666666" points="375.5,-74 294.5,-74 294.5,-55 375.5,-55 375.5,-74"/>
<text text-anchor="middle" x="335" y="-62" font-family="Helvetica,sans-Serif" font-size="10.00">dolphin/types.h</text>
</a>
</g>
</g>
<!-- Node1&#45;&gt;Node5 -->
<g id="edge14" class="edge">
<title>Node1&#45;&gt;Node5</title>
<path fill="none" stroke="#63b8ff" d="M342.98,-329.7C356.51,-308.89 379,-268.56 379,-230.5 379,-230.5 379,-230.5 379,-173.5 379,-139.88 360.49,-104.43 347.48,-83.68"/>
<polygon fill="#63b8ff" stroke="#63b8ff" points="350.54,-81.96 342.13,-75.52 344.68,-85.8 350.54,-81.96"/>
</g>
<!-- Node10 -->
<g id="node10" class="node">
<title>Node10</title>
<g id="a_node10"><a xlink:href="OSMessage_8h.html" target="_top" xlink:title=" ">
<polygon fill="white" stroke="#666666" points="350.5,-294 225.5,-294 225.5,-275 350.5,-275 350.5,-294"/>
<text text-anchor="middle" x="288" y="-282" font-family="Helvetica,sans-Serif" font-size="10.00">dolphin/os/OSMessage.h</text>
</a>
</g>
</g>
<!-- Node1&#45;&gt;Node10 -->
<g id="edge10" class="edge">
<title>Node1&#45;&gt;Node10</title>
<path fill="none" stroke="#63b8ff" d="M321.88,-329.54C315.74,-321.56 308.07,-311.59 301.59,-303.16"/>
<polygon fill="#63b8ff" stroke="#63b8ff" points="304.47,-301.17 295.6,-295.37 298.92,-305.44 304.47,-301.17"/>
</g>
<!-- Node11 -->
<g id="node11" class="node">
<title>Node11</title>
<g id="a_node11"><a xlink:href="OSTime_8h.html" target="_top" xlink:title=" ">
<polygon fill="white" stroke="#666666" points="514.5,-129 407.5,-129 407.5,-110 514.5,-110 514.5,-129"/>
<text text-anchor="middle" x="461" y="-117" font-family="Helvetica,sans-Serif" font-size="10.00">dolphin/os/OSTime.h</text>
</a>
</g>
</g>
<!-- Node1&#45;&gt;Node11 -->
<g id="edge12" class="edge">
<title>Node1&#45;&gt;Node11</title>
<path fill="none" stroke="#63b8ff" d="M355.39,-329.56C367.85,-320.58 382.85,-308.08 393,-294 428.57,-244.67 448.57,-174.23 456.68,-140.29"/>
<polygon fill="#63b8ff" stroke="#63b8ff" points="460.07,-141.19 458.88,-130.66 453.24,-139.63 460.07,-141.19"/>
</g>
<!-- Node3 -->
<g id="node3" class="node">
<title>Node3</title>
<g id="a_node3"><a xlink:href="JKRDisposer_8h.html" target="_top" xlink:title=" ">
<polygon fill="white" stroke="#666666" points="158,-239 0,-239 0,-220 158,-220 158,-239"/>
<text text-anchor="middle" x="79" y="-227" font-family="Helvetica,sans-Serif" font-size="10.00">JSystem/JKernel/JKRDisposer.h</text>
</a>
</g>
</g>
<!-- Node2&#45;&gt;Node3 -->
<g id="edge2" class="edge">
<title>Node2&#45;&gt;Node3</title>
<path fill="none" stroke="#63b8ff" d="M126.33,-274.51C118.26,-267 106.53,-256.1 96.78,-247.03"/>
<polygon fill="#63b8ff" stroke="#63b8ff" points="99.34,-244.63 89.63,-240.39 94.57,-249.76 99.34,-244.63"/>
</g>
<!-- Node7 -->
<g id="node7" class="node">
<title>Node7</title>
<g id="a_node7"><a xlink:href="OSMutex_8h.html" target="_top" xlink:title=" ">
<polygon fill="white" stroke="#666666" points="288,-239 176,-239 176,-220 288,-220 288,-239"/>
<text text-anchor="middle" x="232" y="-227" font-family="Helvetica,sans-Serif" font-size="10.00">dolphin/os/OSMutex.h</text>
</a>
</g>
</g>
<!-- Node2&#45;&gt;Node7 -->
<g id="edge6" class="edge">
<title>Node2&#45;&gt;Node7</title>
<path fill="none" stroke="#63b8ff" d="M152.29,-274.51C166.99,-266.39 188.89,-254.3 206.02,-244.85"/>
<polygon fill="#63b8ff" stroke="#63b8ff" points="207.57,-247.99 214.63,-240.09 204.18,-241.86 207.57,-247.99"/>
</g>
<!-- Node4 -->
<g id="node4" class="node">
<title>Node4</title>
<g id="a_node4"><a xlink:href="JSUList_8h.html" target="_top" xlink:title=" ">
<polygon fill="white" stroke="#666666" points="182.5,-184 39.5,-184 39.5,-165 182.5,-165 182.5,-184"/>
<text text-anchor="middle" x="111" y="-172" font-family="Helvetica,sans-Serif" font-size="10.00">JSystem/JSupport/JSUList.h</text>
</a>
</g>
</g>
<!-- Node3&#45;&gt;Node4 -->
<g id="edge3" class="edge">
<title>Node3&#45;&gt;Node4</title>
<path fill="none" stroke="#63b8ff" d="M84.28,-219.75C88.47,-212.81 94.48,-202.86 99.73,-194.16"/>
<polygon fill="#63b8ff" stroke="#63b8ff" points="102.65,-196.11 104.82,-185.74 96.65,-192.49 102.65,-196.11"/>
</g>
<!-- Node4&#45;&gt;Node5 -->
<g id="edge4" class="edge">
<title>Node4&#45;&gt;Node5</title>
<path fill="none" stroke="#63b8ff" d="M125.01,-164.6C145.73,-151.66 185.97,-127.29 222,-110 247.04,-97.98 276.24,-86.55 298.68,-78.28"/>
<polygon fill="#63b8ff" stroke="#63b8ff" points="299.8,-81.6 308,-74.89 297.4,-75.02 299.8,-81.6"/>
</g>
<!-- Node6 -->
<g id="node6" class="node">
<title>Node6</title>
<g id="a_node6"><a xlink:href="stddef_8h.html" target="_top" xlink:title=" ">
<polygon fill="white" stroke="#666666" points="360.5,-19 309.5,-19 309.5,0 360.5,0 360.5,-19"/>
<text text-anchor="middle" x="335" y="-7" font-family="Helvetica,sans-Serif" font-size="10.00">stddef.h</text>
</a>
</g>
</g>
<!-- Node5&#45;&gt;Node6 -->
<g id="edge5" class="edge">
<title>Node5&#45;&gt;Node6</title>
<path fill="none" stroke="#63b8ff" d="M335,-54.75C335,-48.27 335,-39.16 335,-30.9"/>
<polygon fill="#63b8ff" stroke="#63b8ff" points="338.5,-30.96 335,-20.96 331.5,-30.96 338.5,-30.96"/>
</g>
<!-- Node8 -->
<g id="node8" class="node">
<title>Node8</title>
<g id="a_node8"><a xlink:href="OSThread_8h.html" target="_top" xlink:title=" ">
<polygon fill="white" stroke="#666666" points="349,-184 233,-184 233,-165 349,-165 349,-184"/>
<text text-anchor="middle" x="291" y="-172" font-family="Helvetica,sans-Serif" font-size="10.00">dolphin/os/OSThread.h</text>
</a>
</g>
</g>
<!-- Node7&#45;&gt;Node8 -->
<g id="edge7" class="edge">
<title>Node7&#45;&gt;Node8</title>
<path fill="none" stroke="#63b8ff" d="M242.01,-219.51C250.37,-212 262.5,-201.1 272.6,-192.03"/>
<polygon fill="#63b8ff" stroke="#63b8ff" points="274.91,-194.66 280.01,-185.37 270.24,-189.45 274.91,-194.66"/>
</g>
<!-- Node9 -->
<g id="node9" class="node">
<title>Node9</title>
<g id="a_node9"><a xlink:href="OSContext_8h.html" target="_top" xlink:title=" ">
<polygon fill="white" stroke="#666666" points="350.5,-129 231.5,-129 231.5,-110 350.5,-110 350.5,-129"/>
<text text-anchor="middle" x="291" y="-117" font-family="Helvetica,sans-Serif" font-size="10.00">dolphin/os/OSContext.h</text>
</a>
</g>
</g>
<!-- Node8&#45;&gt;Node9 -->
<g id="edge8" class="edge">
<title>Node8&#45;&gt;Node9</title>
<path fill="none" stroke="#63b8ff" d="M291,-164.75C291,-158.27 291,-149.16 291,-140.9"/>
<polygon fill="#63b8ff" stroke="#63b8ff" points="294.5,-140.96 291,-130.96 287.5,-140.96 294.5,-140.96"/>
</g>
<!-- Node9&#45;&gt;Node5 -->
<g id="edge9" class="edge">
<title>Node9&#45;&gt;Node5</title>
<path fill="none" stroke="#63b8ff" d="M298.27,-109.75C304.28,-102.5 313.01,-91.98 320.46,-83.02"/>
<polygon fill="#63b8ff" stroke="#63b8ff" points="322.92,-85.54 326.61,-75.61 317.53,-81.07 322.92,-85.54"/>
</g>
<!-- Node10&#45;&gt;Node8 -->
<g id="edge11" class="edge">
<title>Node10&#45;&gt;Node8</title>
<path fill="none" stroke="#63b8ff" d="M290.32,-274.71C292.54,-265.79 295.74,-251.55 297,-239 298.47,-224.29 296.78,-207.65 294.82,-195.1"/>
<polygon fill="#63b8ff" stroke="#63b8ff" points="298.33,-194.86 293.14,-185.62 291.44,-196.08 298.33,-194.86"/>
</g>
<!-- Node11&#45;&gt;Node5 -->
<g id="edge13" class="edge">
<title>Node11&#45;&gt;Node5</title>
<path fill="none" stroke="#63b8ff" d="M439.63,-109.51C419.59,-101.08 389.4,-88.38 366.59,-78.79"/>
<polygon fill="#63b8ff" stroke="#63b8ff" points="368.03,-75.6 357.45,-74.94 365.31,-82.05 368.03,-75.6"/>
</g>
</g>
</svg>
