<?xml version="1.0" encoding="UTF-8" standalone="no"?>
<!DOCTYPE svg PUBLIC "-//W3C//DTD SVG 1.1//EN"
 "http://www.w3.org/Graphics/SVG/1.1/DTD/svg11.dtd">
<!-- Generated by graphviz version 7.0.5 (20221223.1930)
 -->
<!-- Title: libs/JSystem/JMessage/control.cpp Pages: 1 -->
<svg width="2138pt" height="687pt"
 viewBox="0.00 0.00 2138.00 687.00" xmlns="http://www.w3.org/2000/svg" xmlns:xlink="http://www.w3.org/1999/xlink">
<g id="graph0" class="graph" transform="scale(1 1) rotate(0) translate(4 683)">
<title>libs/JSystem/JMessage/control.cpp</title>
<!-- Node1 -->
<g id="node1" class="node">
<title>Node1</title>
<g id="a_node1"><a xlink:title=" ">
<polygon fill="#999999" stroke="#666666" points="286.5,-679 165.5,-679 165.5,-649 286.5,-649 286.5,-679"/>
<text text-anchor="start" x="173.5" y="-667" font-family="Helvetica,sans-Serif" font-size="10.00">libs/JSystem/JMessage</text>
<text text-anchor="middle" x="226" y="-656" font-family="Helvetica,sans-Serif" font-size="10.00">/control.cpp</text>
</a>
</g>
</g>
<!-- Node2 -->
<g id="node2" class="node">
<title>Node2</title>
<g id="a_node2"><a xlink:href="JMessage_2control_8h.html" target="_top" xlink:title=" ">
<polygon fill="white" stroke="#666666" points="213.5,-602 70.5,-602 70.5,-583 213.5,-583 213.5,-602"/>
<text text-anchor="middle" x="142" y="-590" font-family="Helvetica,sans-Serif" font-size="10.00">JSystem/JMessage/control.h</text>
</a>
</g>
</g>
<!-- Node1&#45;&gt;Node2 -->
<g id="edge1" class="edge">
<title>Node1&#45;&gt;Node2</title>
<path fill="none" stroke="#63b8ff" d="M208.6,-648.6C194.72,-637.12 175.31,-621.06 161.03,-609.24"/>
<polygon fill="#63b8ff" stroke="#63b8ff" points="163.59,-606.82 153.66,-603.14 159.13,-612.22 163.59,-606.82"/>
</g>
<!-- Node41 -->
<g id="node41" class="node">
<title>Node41</title>
<g id="a_node41"><a xlink:title=" ">
<polygon fill="#e0e0e0" stroke="#999999" points="390,-613 232,-613 232,-572 390,-572 390,-613"/>
<text text-anchor="start" x="240" y="-601" font-family="Helvetica,sans-Serif" font-size="10.00">asm/JSystem/JMessage</text>
<text text-anchor="start" x="240" y="-590" font-family="Helvetica,sans-Serif" font-size="10.00">/control/render__Q28JMessage8</text>
<text text-anchor="middle" x="311" y="-579" font-family="Helvetica,sans-Serif" font-size="10.00">TControlFv.s</text>
</a>
</g>
</g>
<!-- Node1&#45;&gt;Node41 -->
<g id="edge69" class="edge">
<title>Node1&#45;&gt;Node41</title>
<path fill="none" stroke="#63b8ff" d="M243.61,-648.6C253.53,-640.49 266.24,-630.09 277.95,-620.52"/>
<polygon fill="#63b8ff" stroke="#63b8ff" points="279.94,-623.41 285.47,-614.37 275.51,-617.99 279.94,-623.41"/>
</g>
<!-- Node3 -->
<g id="node3" class="node">
<title>Node3</title>
<g id="a_node3"><a xlink:href="processor_8h.html" target="_top" xlink:title=" ">
<polygon fill="white" stroke="#666666" points="276,-536 120,-536 120,-517 276,-517 276,-536"/>
<text text-anchor="middle" x="198" y="-524" font-family="Helvetica,sans-Serif" font-size="10.00">JSystem/JMessage/processor.h</text>
</a>
</g>
</g>
<!-- Node2&#45;&gt;Node3 -->
<g id="edge2" class="edge">
<title>Node2&#45;&gt;Node3</title>
<path fill="none" stroke="#63b8ff" d="M149.79,-582.6C158.31,-572.86 172.19,-557 182.87,-544.79"/>
<polygon fill="#63b8ff" stroke="#63b8ff" points="185.33,-547.29 189.28,-537.46 180.06,-542.68 185.33,-547.29"/>
</g>
<!-- Node6 -->
<g id="node6" class="node">
<title>Node6</title>
<g id="a_node6"><a xlink:href="types_8h.html" target="_top" xlink:title=" ">
<polygon fill="white" stroke="#666666" points="1328.5,-74 1247.5,-74 1247.5,-55 1328.5,-55 1328.5,-74"/>
<text text-anchor="middle" x="1288" y="-62" font-family="Helvetica,sans-Serif" font-size="10.00">dolphin/types.h</text>
</a>
</g>
</g>
<!-- Node2&#45;&gt;Node6 -->
<g id="edge68" class="edge">
<title>Node2&#45;&gt;Node6</title>
<path fill="none" stroke="#63b8ff" d="M114.62,-582.6C73.36,-567.27 0,-531.68 0,-472.5 0,-472.5 0,-472.5 0,-173.5 0,-34.17 168.75,-127.32 307,-110 659.88,-65.79 1089.03,-64.08 1235.85,-64.96"/>
<polygon fill="#63b8ff" stroke="#63b8ff" points="1235.62,-68.46 1245.64,-65.03 1235.66,-61.46 1235.62,-68.46"/>
</g>
<!-- Node4 -->
<g id="node4" class="node">
<title>Node4</title>
<g id="a_node4"><a xlink:href="resource_8h.html" target="_top" xlink:title=" ">
<polygon fill="white" stroke="#666666" points="329.5,-481 178.5,-481 178.5,-462 329.5,-462 329.5,-481"/>
<text text-anchor="middle" x="254" y="-469" font-family="Helvetica,sans-Serif" font-size="10.00">JSystem/JMessage/resource.h</text>
</a>
</g>
</g>
<!-- Node3&#45;&gt;Node4 -->
<g id="edge3" class="edge">
<title>Node3&#45;&gt;Node4</title>
<path fill="none" stroke="#63b8ff" d="M207.5,-516.51C215.43,-509 226.95,-498.1 236.54,-489.03"/>
<polygon fill="#63b8ff" stroke="#63b8ff" points="238.68,-491.81 243.54,-482.4 233.87,-486.73 238.68,-491.81"/>
</g>
<!-- Node5 -->
<g id="node5" class="node">
<title>Node5</title>
<g id="a_node5"><a xlink:href="linklist_8h.html" target="_top" xlink:title=" ">
<polygon fill="white" stroke="#666666" points="625.5,-420.5 492.5,-420.5 492.5,-401.5 625.5,-401.5 625.5,-420.5"/>
<text text-anchor="middle" x="559" y="-408.5" font-family="Helvetica,sans-Serif" font-size="10.00">JSystem/JGadget/linklist.h</text>
</a>
</g>
</g>
<!-- Node4&#45;&gt;Node5 -->
<g id="edge4" class="edge">
<title>Node4&#45;&gt;Node5</title>
<path fill="none" stroke="#63b8ff" d="M300.65,-461.55C354.39,-451.24 442.73,-434.3 500.89,-423.15"/>
<polygon fill="#63b8ff" stroke="#63b8ff" points="501.45,-426.6 510.61,-421.28 500.13,-419.73 501.45,-426.6"/>
</g>
<!-- Node33 -->
<g id="node33" class="node">
<title>Node33</title>
<g id="a_node33"><a xlink:href="data_8h.html" target="_top" xlink:title=" ">
<polygon fill="white" stroke="#666666" points="474,-420.5 342,-420.5 342,-401.5 474,-401.5 474,-420.5"/>
<text text-anchor="middle" x="408" y="-408.5" font-family="Helvetica,sans-Serif" font-size="10.00">JSystem/JMessage/data.h</text>
</a>
</g>
</g>
<!-- Node4&#45;&gt;Node33 -->
<g id="edge56" class="edge">
<title>Node4&#45;&gt;Node33</title>
<path fill="none" stroke="#63b8ff" d="M277.39,-461.62C303.06,-451.87 344.5,-436.12 373.81,-424.99"/>
<polygon fill="#63b8ff" stroke="#63b8ff" points="374.87,-428.33 382.98,-421.51 372.38,-421.79 374.87,-428.33"/>
</g>
<!-- Node35 -->
<g id="node35" class="node">
<title>Node35</title>
<g id="a_node35"><a xlink:href="locale_8h.html" target="_top" xlink:title=" ">
<polygon fill="white" stroke="#666666" points="323.5,-420.5 184.5,-420.5 184.5,-401.5 323.5,-401.5 323.5,-420.5"/>
<text text-anchor="middle" x="254" y="-408.5" font-family="Helvetica,sans-Serif" font-size="10.00">JSystem/JMessage/locale.h</text>
</a>
</g>
</g>
<!-- Node4&#45;&gt;Node35 -->
<g id="edge59" class="edge">
<title>Node4&#45;&gt;Node35</title>
<path fill="none" stroke="#63b8ff" d="M254,-461.87C254,-454 254,-442.1 254,-431.89"/>
<polygon fill="#63b8ff" stroke="#63b8ff" points="257.5,-432.18 254,-422.18 250.5,-432.18 257.5,-432.18"/>
</g>
<!-- Node36 -->
<g id="node36" class="node">
<title>Node36</title>
<g id="a_node36"><a xlink:href="fvb-data_8h.html" target="_top" xlink:title=" ">
<polygon fill="white" stroke="#666666" points="166.5,-426 39.5,-426 39.5,-396 166.5,-396 166.5,-426"/>
<text text-anchor="start" x="47.5" y="-414" font-family="Helvetica,sans-Serif" font-size="10.00">JSystem/JStudio/JStudio</text>
<text text-anchor="middle" x="103" y="-403" font-family="Helvetica,sans-Serif" font-size="10.00">/fvb&#45;data.h</text>
</a>
</g>
</g>
<!-- Node4&#45;&gt;Node36 -->
<g id="edge60" class="edge">
<title>Node4&#45;&gt;Node36</title>
<path fill="none" stroke="#63b8ff" d="M231.07,-461.62C209.89,-453.41 177.77,-440.97 150.99,-430.59"/>
<polygon fill="#63b8ff" stroke="#63b8ff" points="152.27,-427.34 141.68,-426.99 149.74,-433.86 152.27,-427.34"/>
</g>
<!-- Node5&#45;&gt;Node6 -->
<g id="edge5" class="edge">
<title>Node5&#45;&gt;Node6</title>
<path fill="none" stroke="#63b8ff" d="M533.1,-401.03C491.9,-384.91 416,-346.89 416,-285.5 416,-285.5 416,-285.5 416,-173.5 416,-105.99 488.52,-126.44 554,-110 683.45,-77.51 1091.08,-68.41 1236.13,-66.16"/>
<polygon fill="#63b8ff" stroke="#63b8ff" points="1235.87,-69.67 1245.81,-66.02 1235.76,-62.67 1235.87,-69.67"/>
</g>
<!-- Node8 -->
<g id="node8" class="node">
<title>Node8</title>
<g id="a_node8"><a xlink:href="JUTAssert_8h.html" target="_top" xlink:title=" ">
<polygon fill="white" stroke="#666666" points="1351,-354.5 1205,-354.5 1205,-335.5 1351,-335.5 1351,-354.5"/>
<text text-anchor="middle" x="1278" y="-342.5" font-family="Helvetica,sans-Serif" font-size="10.00">JSystem/JUtility/JUTAssert.h</text>
</a>
</g>
</g>
<!-- Node5&#45;&gt;Node8 -->
<g id="edge7" class="edge">
<title>Node5&#45;&gt;Node8</title>
<path fill="none" stroke="#63b8ff" d="M626,-404.04C757.35,-392.34 1048.49,-366.43 1193.09,-353.56"/>
<polygon fill="#63b8ff" stroke="#63b8ff" points="1193.36,-357.05 1203.01,-352.68 1192.73,-350.08 1193.36,-357.05"/>
</g>
<!-- Node7 -->
<g id="node7" class="node">
<title>Node7</title>
<g id="a_node7"><a xlink:href="stddef_8h.html" target="_top" xlink:title=" ">
<polygon fill="white" stroke="#666666" points="1313.5,-19 1262.5,-19 1262.5,0 1313.5,0 1313.5,-19"/>
<text text-anchor="middle" x="1288" y="-7" font-family="Helvetica,sans-Serif" font-size="10.00">stddef.h</text>
</a>
</g>
</g>
<!-- Node6&#45;&gt;Node7 -->
<g id="edge6" class="edge">
<title>Node6&#45;&gt;Node7</title>
<path fill="none" stroke="#63b8ff" d="M1288,-54.75C1288,-48.27 1288,-39.16 1288,-30.9"/>
<polygon fill="#63b8ff" stroke="#63b8ff" points="1291.5,-30.96 1288,-20.96 1284.5,-30.96 1291.5,-30.96"/>
</g>
<!-- Node8&#45;&gt;Node6 -->
<g id="edge8" class="edge">
<title>Node8&#45;&gt;Node6</title>
<path fill="none" stroke="#63b8ff" d="M1351.38,-341.89C1558.04,-334.97 2130,-308.75 2130,-230.5 2130,-230.5 2130,-230.5 2130,-173.5 2130,-118.2 2075.86,-126.24 2023,-110 1895.25,-70.76 1485.87,-65.93 1340.13,-65.48"/>
<polygon fill="#63b8ff" stroke="#63b8ff" points="1340.4,-61.98 1330.39,-65.46 1340.38,-68.98 1340.4,-61.98"/>
</g>
<!-- Node9 -->
<g id="node9" class="node">
<title>Node9</title>
<g id="a_node9"><a xlink:href="os_8h.html" target="_top" xlink:title=" ">
<polygon fill="white" stroke="#666666" points="1312,-294 1244,-294 1244,-275 1312,-275 1312,-294"/>
<text text-anchor="middle" x="1278" y="-282" font-family="Helvetica,sans-Serif" font-size="10.00">dolphin/os.h</text>
</a>
</g>
</g>
<!-- Node8&#45;&gt;Node9 -->
<g id="edge9" class="edge">
<title>Node8&#45;&gt;Node9</title>
<path fill="none" stroke="#63b8ff" d="M1278,-335.37C1278,-327.5 1278,-315.6 1278,-305.39"/>
<polygon fill="#63b8ff" stroke="#63b8ff" points="1281.5,-305.68 1278,-295.68 1274.5,-305.68 1281.5,-305.68"/>
</g>
<!-- Node10 -->
<g id="node10" class="node">
<title>Node10</title>
<g id="a_node10"><a xlink:href="____va__arg_8h.html" target="_top" xlink:title=" ">
<polygon fill="white" stroke="#666666" points="1730,-184 1666,-184 1666,-165 1730,-165 1730,-184"/>
<text text-anchor="middle" x="1698" y="-172" font-family="Helvetica,sans-Serif" font-size="10.00">__va_arg.h</text>
</a>
</g>
</g>
<!-- Node9&#45;&gt;Node10 -->
<g id="edge10" class="edge">
<title>Node9&#45;&gt;Node10</title>
<path fill="none" stroke="#63b8ff" d="M1312.2,-283.1C1420.73,-281.49 1752.17,-273.75 1784,-239 1803.01,-218.25 1769.33,-199.8 1738.71,-188.21"/>
<polygon fill="#63b8ff" stroke="#63b8ff" points="1740.12,-185 1729.52,-184.92 1737.75,-191.59 1740.12,-185"/>
</g>
<!-- Node11 -->
<g id="node11" class="node">
<title>Node11</title>
<g id="a_node11"><a xlink:href="dvd_8h.html" target="_top" xlink:title=" ">
<polygon fill="white" stroke="#666666" points="1694,-129 1620,-129 1620,-110 1694,-110 1694,-129"/>
<text text-anchor="middle" x="1657" y="-117" font-family="Helvetica,sans-Serif" font-size="10.00">dolphin/dvd.h</text>
</a>
</g>
</g>
<!-- Node9&#45;&gt;Node11 -->
<g id="edge12" class="edge">
<title>Node9&#45;&gt;Node11</title>
<path fill="none" stroke="#63b8ff" d="M1312.49,-283.2C1423.63,-281.87 1767.05,-274.88 1800,-239 1805.71,-232.78 1803.43,-227.72 1800,-220 1780.45,-176.05 1730,-148.3 1694.58,-133.59"/>
<polygon fill="#63b8ff" stroke="#63b8ff" points="1696.12,-130.44 1685.53,-130 1693.54,-136.94 1696.12,-130.44"/>
</g>
<!-- Node12 -->
<g id="node12" class="node">
<title>Node12</title>
<g id="a_node12"><a xlink:href="OSAlarm_8h.html" target="_top" xlink:title=" ">
<polygon fill="white" stroke="#666666" points="1741.5,-239 1630.5,-239 1630.5,-220 1741.5,-220 1741.5,-239"/>
<text text-anchor="middle" x="1686" y="-227" font-family="Helvetica,sans-Serif" font-size="10.00">dolphin/os/OSAlarm.h</text>
</a>
</g>
</g>
<!-- Node9&#45;&gt;Node12 -->
<g id="edge14" class="edge">
<title>Node9&#45;&gt;Node12</title>
<path fill="none" stroke="#63b8ff" d="M1312.18,-279.12C1372.14,-271.42 1500.47,-254.91 1619.08,-239.38"/>
<polygon fill="#63b8ff" stroke="#63b8ff" points="1619.19,-242.89 1628.65,-238.13 1618.28,-235.95 1619.19,-242.89"/>
</g>
<!-- Node13 -->
<g id="node13" class="node">
<title>Node13</title>
<g id="a_node13"><a xlink:href="OSError_8h.html" target="_top" xlink:title=" ">
<polygon fill="white" stroke="#666666" points="1600,-184 1494,-184 1494,-165 1600,-165 1600,-184"/>
<text text-anchor="middle" x="1547" y="-172" font-family="Helvetica,sans-Serif" font-size="10.00">dolphin/os/OSError.h</text>
</a>
</g>
</g>
<!-- Node9&#45;&gt;Node13 -->
<g id="edge28" class="edge">
<title>Node9&#45;&gt;Node13</title>
<path fill="none" stroke="#63b8ff" d="M1283.23,-274.94C1292.2,-261.06 1311.89,-233.78 1336,-220 1360.6,-205.94 1429.9,-192.94 1482.42,-184.67"/>
<polygon fill="#63b8ff" stroke="#63b8ff" points="1482.85,-188.15 1492.19,-183.16 1481.78,-181.23 1482.85,-188.15"/>
</g>
<!-- Node14 -->
<g id="node14" class="node">
<title>Node14</title>
<g id="a_node14"><a xlink:href="OSTime_8h.html" target="_top" xlink:title=" ">
<polygon fill="white" stroke="#666666" points="1893.5,-184 1786.5,-184 1786.5,-165 1893.5,-165 1893.5,-184"/>
<text text-anchor="middle" x="1840" y="-172" font-family="Helvetica,sans-Serif" font-size="10.00">dolphin/os/OSTime.h</text>
</a>
</g>
</g>
<!-- Node9&#45;&gt;Node14 -->
<g id="edge55" class="edge">
<title>Node9&#45;&gt;Node14</title>
<path fill="none" stroke="#63b8ff" d="M1312.22,-283.52C1431.34,-283.25 1822.68,-279.28 1860,-239 1871.5,-226.58 1863.3,-207.59 1854.17,-193.61"/>
<polygon fill="#63b8ff" stroke="#63b8ff" points="1857.18,-191.8 1848.51,-185.71 1851.49,-195.88 1857.18,-191.8"/>
</g>
<!-- Node15 -->
<g id="node15" class="node">
<title>Node15</title>
<g id="a_node15"><a xlink:href="OSAlloc_8h.html" target="_top" xlink:title=" ">
<polygon fill="white" stroke="#666666" points="1860.5,-129 1753.5,-129 1753.5,-110 1860.5,-110 1860.5,-129"/>
<text text-anchor="middle" x="1807" y="-117" font-family="Helvetica,sans-Serif" font-size="10.00">dolphin/os/OSAlloc.h</text>
</a>
</g>
</g>
<!-- Node9&#45;&gt;Node15 -->
<g id="edge19" class="edge">
<title>Node9&#45;&gt;Node15</title>
<path fill="none" stroke="#63b8ff" d="M1312.15,-282.92C1432.07,-280.61 1829.21,-270.63 1876,-239 1905.01,-219.4 1921.84,-194.51 1903,-165 1893.43,-150.01 1877.37,-140 1861.1,-133.34"/>
<polygon fill="#63b8ff" stroke="#63b8ff" points="1862.46,-130.11 1851.86,-129.95 1860.04,-136.68 1862.46,-130.11"/>
</g>
<!-- Node16 -->
<g id="node16" class="node">
<title>Node16</title>
<g id="a_node16"><a xlink:href="OSArena_8h.html" target="_top" xlink:title=" ">
<polygon fill="white" stroke="#666666" points="1989.5,-129 1878.5,-129 1878.5,-110 1989.5,-110 1989.5,-129"/>
<text text-anchor="middle" x="1934" y="-117" font-family="Helvetica,sans-Serif" font-size="10.00">dolphin/os/OSArena.h</text>
</a>
</g>
</g>
<!-- Node9&#45;&gt;Node16 -->
<g id="edge21" class="edge">
<title>Node9&#45;&gt;Node16</title>
<path fill="none" stroke="#63b8ff" d="M1312.36,-283.19C1435.93,-281.81 1852.97,-274.51 1900,-239 1930.38,-216.06 1934.96,-167.81 1934.92,-140.48"/>
<polygon fill="#63b8ff" stroke="#63b8ff" points="1938.43,-140.68 1934.68,-130.77 1931.43,-140.85 1938.43,-140.68"/>
</g>
<!-- Node17 -->
<g id="node17" class="node">
<title>Node17</title>
<g id="a_node17"><a xlink:href="OSAudioSystem_8h.html" target="_top" xlink:title=" ">
<polygon fill="white" stroke="#666666" points="1487.5,-239 1344.5,-239 1344.5,-220 1487.5,-220 1487.5,-239"/>
<text text-anchor="middle" x="1416" y="-227" font-family="Helvetica,sans-Serif" font-size="10.00">dolphin/os/OSAudioSystem.h</text>
</a>
</g>
</g>
<!-- Node9&#45;&gt;Node17 -->
<g id="edge23" class="edge">
<title>Node9&#45;&gt;Node17</title>
<path fill="none" stroke="#63b8ff" d="M1301.41,-274.51C1323.65,-265.97 1357.33,-253.03 1382.42,-243.4"/>
<polygon fill="#63b8ff" stroke="#63b8ff" points="1383.44,-246.75 1391.52,-239.9 1380.93,-240.22 1383.44,-246.75"/>
</g>
<!-- Node18 -->
<g id="node18" class="node">
<title>Node18</title>
<g id="a_node18"><a xlink:href="OSCache_8h.html" target="_top" xlink:title=" ">
<polygon fill="white" stroke="#666666" points="2101.5,-184 1988.5,-184 1988.5,-165 2101.5,-165 2101.5,-184"/>
<text text-anchor="middle" x="2045" y="-172" font-family="Helvetica,sans-Serif" font-size="10.00">dolphin/os/OSCache.h</text>
</a>
</g>
</g>
<!-- Node9&#45;&gt;Node18 -->
<g id="edge24" class="edge">
<title>Node9&#45;&gt;Node18</title>
<path fill="none" stroke="#63b8ff" d="M1312.22,-282.62C1443.78,-279.07 1912.65,-264.71 1974,-239 1997.49,-229.16 2018.42,-208.17 2031.36,-193.01"/>
<polygon fill="#63b8ff" stroke="#63b8ff" points="2033.76,-195.61 2037.38,-185.65 2028.34,-191.18 2033.76,-195.61"/>
</g>
<!-- Node19 -->
<g id="node19" class="node">
<title>Node19</title>
<g id="a_node19"><a xlink:href="OSContext_8h.html" target="_top" xlink:title=" ">
<polygon fill="white" stroke="#666666" points="681.5,-129 562.5,-129 562.5,-110 681.5,-110 681.5,-129"/>
<text text-anchor="middle" x="622" y="-117" font-family="Helvetica,sans-Serif" font-size="10.00">dolphin/os/OSContext.h</text>
</a>
</g>
</g>
<!-- Node9&#45;&gt;Node19 -->
<g id="edge26" class="edge">
<title>Node9&#45;&gt;Node19</title>
<path fill="none" stroke="#63b8ff" d="M1243.67,-282.9C1093.4,-280.13 499.88,-267.4 473,-239 431.36,-195 525.72,-153.26 582.68,-133.1"/>
<polygon fill="#63b8ff" stroke="#63b8ff" points="583.78,-136.42 592.1,-129.86 581.5,-129.81 583.78,-136.42"/>
</g>
<!-- Node20 -->
<g id="node20" class="node">
<title>Node20</title>
<g id="a_node20"><a xlink:href="OSExec_8h.html" target="_top" xlink:title=" ">
<polygon fill="white" stroke="#666666" points="897.5,-129 790.5,-129 790.5,-110 897.5,-110 897.5,-129"/>
<text text-anchor="middle" x="844" y="-117" font-family="Helvetica,sans-Serif" font-size="10.00">dolphin/os/OSExec.h</text>
</a>
</g>
</g>
<!-- Node9&#45;&gt;Node20 -->
<g id="edge29" class="edge">
<title>Node9&#45;&gt;Node20</title>
<path fill="none" stroke="#63b8ff" d="M1243.83,-281.9C1151.78,-277.29 903.72,-262.76 876,-239 847.5,-214.57 843.07,-167.64 843.08,-140.75"/>
<polygon fill="#63b8ff" stroke="#63b8ff" points="846.58,-140.94 843.32,-130.86 839.58,-140.78 846.58,-140.94"/>
</g>
<!-- Node21 -->
<g id="node21" class="node">
<title>Node21</title>
<g id="a_node21"><a xlink:href="OSFont_8h.html" target="_top" xlink:title=" ">
<polygon fill="white" stroke="#666666" points="1023.5,-129 918.5,-129 918.5,-110 1023.5,-110 1023.5,-129"/>
<text text-anchor="middle" x="971" y="-117" font-family="Helvetica,sans-Serif" font-size="10.00">dolphin/os/OSFont.h</text>
</a>
</g>
</g>
<!-- Node9&#45;&gt;Node21 -->
<g id="edge31" class="edge">
<title>Node9&#45;&gt;Node21</title>
<path fill="none" stroke="#63b8ff" d="M1243.6,-282.13C1152.88,-278.17 912.45,-265.28 889,-239 858.53,-204.85 913.48,-158.99 947.33,-135.6"/>
<polygon fill="#63b8ff" stroke="#63b8ff" points="949.02,-138.68 955.38,-130.21 945.12,-132.87 949.02,-138.68"/>
</g>
<!-- Node22 -->
<g id="node22" class="node">
<title>Node22</title>
<g id="a_node22"><a xlink:href="OSInterrupt_8h.html" target="_top" xlink:title=" ">
<polygon fill="white" stroke="#666666" points="1057,-184 935,-184 935,-165 1057,-165 1057,-184"/>
<text text-anchor="middle" x="996" y="-172" font-family="Helvetica,sans-Serif" font-size="10.00">dolphin/os/OSInterrupt.h</text>
</a>
</g>
</g>
<!-- Node9&#45;&gt;Node22 -->
<g id="edge33" class="edge">
<title>Node9&#45;&gt;Node22</title>
<path fill="none" stroke="#63b8ff" d="M1243.52,-282.02C1154.39,-277.84 921.73,-264.56 899,-239 879.08,-216.61 915.14,-198.78 948.81,-187.79"/>
<polygon fill="#63b8ff" stroke="#63b8ff" points="949.61,-191.2 958.13,-184.91 947.54,-184.51 949.61,-191.2"/>
</g>
<!-- Node23 -->
<g id="node23" class="node">
<title>Node23</title>
<g id="a_node23"><a xlink:href="OSLink_8h.html" target="_top" xlink:title=" ">
<polygon fill="white" stroke="#666666" points="1257,-129 1153,-129 1153,-110 1257,-110 1257,-129"/>
<text text-anchor="middle" x="1205" y="-117" font-family="Helvetica,sans-Serif" font-size="10.00">dolphin/os/OSLink.h</text>
</a>
</g>
</g>
<!-- Node9&#45;&gt;Node23 -->
<g id="edge35" class="edge">
<title>Node9&#45;&gt;Node23</title>
<path fill="none" stroke="#63b8ff" d="M1271.78,-274.6C1260.21,-257.69 1235.3,-219.45 1221,-184 1215.32,-169.93 1211.21,-153.26 1208.58,-140.54"/>
<polygon fill="#63b8ff" stroke="#63b8ff" points="1212.05,-140.01 1206.73,-130.85 1205.17,-141.33 1212.05,-140.01"/>
</g>
<!-- Node24 -->
<g id="node24" class="node">
<title>Node24</title>
<g id="a_node24"><a xlink:href="OSMemory_8h.html" target="_top" xlink:title=" ">
<polygon fill="white" stroke="#666666" points="1028,-239 908,-239 908,-220 1028,-220 1028,-239"/>
<text text-anchor="middle" x="968" y="-227" font-family="Helvetica,sans-Serif" font-size="10.00">dolphin/os/OSMemory.h</text>
</a>
</g>
</g>
<!-- Node9&#45;&gt;Node24 -->
<g id="edge37" class="edge">
<title>Node9&#45;&gt;Node24</title>
<path fill="none" stroke="#63b8ff" d="M1243.64,-277.63C1192.63,-268.9 1096.01,-252.38 1031.79,-241.41"/>
<polygon fill="#63b8ff" stroke="#63b8ff" points="1032.53,-237.98 1022.09,-239.75 1031.35,-244.88 1032.53,-237.98"/>
</g>
<!-- Node25 -->
<g id="node25" class="node">
<title>Node25</title>
<g id="a_node25"><a xlink:href="OSMessage_8h.html" target="_top" xlink:title=" ">
<polygon fill="white" stroke="#666666" points="775.5,-239 650.5,-239 650.5,-220 775.5,-220 775.5,-239"/>
<text text-anchor="middle" x="713" y="-227" font-family="Helvetica,sans-Serif" font-size="10.00">dolphin/os/OSMessage.h</text>
</a>
</g>
</g>
<!-- Node9&#45;&gt;Node25 -->
<g id="edge39" class="edge">
<title>Node9&#45;&gt;Node25</title>
<path fill="none" stroke="#63b8ff" d="M1243.66,-280.59C1163.94,-273.8 960.14,-256.15 790,-239 788.98,-238.9 787.94,-238.79 786.91,-238.69"/>
<polygon fill="#63b8ff" stroke="#63b8ff" points="787.42,-235.22 777.11,-237.67 786.69,-242.18 787.42,-235.22"/>
</g>
<!-- Node26 -->
<g id="node26" class="node">
<title>Node26</title>
<g id="a_node26"><a xlink:href="OSThread_8h.html" target="_top" xlink:title=" ">
<polygon fill="white" stroke="#666666" points="680,-184 564,-184 564,-165 680,-165 680,-184"/>
<text text-anchor="middle" x="622" y="-172" font-family="Helvetica,sans-Serif" font-size="10.00">dolphin/os/OSThread.h</text>
</a>
</g>
</g>
<!-- Node9&#45;&gt;Node26 -->
<g id="edge54" class="edge">
<title>Node9&#45;&gt;Node26</title>
<path fill="none" stroke="#63b8ff" d="M1243.68,-283.32C1118.24,-282.37 689.42,-276.4 642,-239 628.94,-228.7 624.25,-209.93 622.64,-195.45"/>
<polygon fill="#63b8ff" stroke="#63b8ff" points="626.14,-195.42 621.98,-185.67 619.16,-195.88 626.14,-195.42"/>
</g>
<!-- Node27 -->
<g id="node27" class="node">
<title>Node27</title>
<g id="a_node27"><a xlink:href="OSMutex_8h.html" target="_top" xlink:title=" ">
<polygon fill="white" stroke="#666666" points="594,-239 482,-239 482,-220 594,-220 594,-239"/>
<text text-anchor="middle" x="538" y="-227" font-family="Helvetica,sans-Serif" font-size="10.00">dolphin/os/OSMutex.h</text>
</a>
</g>
</g>
<!-- Node9&#45;&gt;Node27 -->
<g id="edge42" class="edge">
<title>Node9&#45;&gt;Node27</title>
<path fill="none" stroke="#63b8ff" d="M1243.78,-281.89C1145.04,-277.09 851.16,-261.82 608,-239 607.15,-238.92 606.3,-238.84 605.45,-238.76"/>
<polygon fill="#63b8ff" stroke="#63b8ff" points="605.95,-235.29 595.64,-237.74 605.23,-242.25 605.95,-235.29"/>
</g>
<!-- Node28 -->
<g id="node28" class="node">
<title>Node28</title>
<g id="a_node28"><a xlink:href="OSReboot_8h.html" target="_top" xlink:title=" ">
<polygon fill="white" stroke="#666666" points="1346,-184 1230,-184 1230,-165 1346,-165 1346,-184"/>
<text text-anchor="middle" x="1288" y="-172" font-family="Helvetica,sans-Serif" font-size="10.00">dolphin/os/OSReboot.h</text>
</a>
</g>
</g>
<!-- Node9&#45;&gt;Node28 -->
<g id="edge44" class="edge">
<title>Node9&#45;&gt;Node28</title>
<path fill="none" stroke="#63b8ff" d="M1273.52,-274.83C1267.77,-262.57 1259.08,-239.48 1264,-220 1266.28,-210.98 1270.79,-201.79 1275.29,-194.13"/>
<polygon fill="#63b8ff" stroke="#63b8ff" points="1278.19,-196.08 1280.6,-185.77 1272.28,-192.33 1278.19,-196.08"/>
</g>
<!-- Node29 -->
<g id="node29" class="node">
<title>Node29</title>
<g id="a_node29"><a xlink:href="OSReset_8h.html" target="_top" xlink:title=" ">
<polygon fill="white" stroke="#666666" points="1475.5,-184 1364.5,-184 1364.5,-165 1475.5,-165 1475.5,-184"/>
<text text-anchor="middle" x="1420" y="-172" font-family="Helvetica,sans-Serif" font-size="10.00">dolphin/os/OSReset.h</text>
</a>
</g>
</g>
<!-- Node9&#45;&gt;Node29 -->
<g id="edge46" class="edge">
<title>Node9&#45;&gt;Node29</title>
<path fill="none" stroke="#63b8ff" d="M1278.99,-274.89C1280.97,-261.43 1286.66,-235.33 1302,-220 1317.49,-204.52 1338.89,-194.34 1359.22,-187.69"/>
<polygon fill="#63b8ff" stroke="#63b8ff" points="1360.02,-191.1 1368.58,-184.87 1358,-184.4 1360.02,-191.1"/>
</g>
<!-- Node30 -->
<g id="node30" class="node">
<title>Node30</title>
<g id="a_node30"><a xlink:href="OSResetSW_8h.html" target="_top" xlink:title=" ">
<polygon fill="white" stroke="#666666" points="1173.5,-239 1046.5,-239 1046.5,-220 1173.5,-220 1173.5,-239"/>
<text text-anchor="middle" x="1110" y="-227" font-family="Helvetica,sans-Serif" font-size="10.00">dolphin/os/OSResetSW.h</text>
</a>
</g>
</g>
<!-- Node9&#45;&gt;Node30 -->
<g id="edge48" class="edge">
<title>Node9&#45;&gt;Node30</title>
<path fill="none" stroke="#63b8ff" d="M1249.5,-274.51C1221.9,-265.8 1179.84,-252.53 1149.12,-242.84"/>
<polygon fill="#63b8ff" stroke="#63b8ff" points="1150.39,-239.57 1139.8,-239.9 1148.28,-246.25 1150.39,-239.57"/>
</g>
<!-- Node31 -->
<g id="node31" class="node">
<title>Node31</title>
<g id="a_node31"><a xlink:href="OSRtc_8h.html" target="_top" xlink:title=" ">
<polygon fill="white" stroke="#666666" points="1554.5,-129 1453.5,-129 1453.5,-110 1554.5,-110 1554.5,-129"/>
<text text-anchor="middle" x="1504" y="-117" font-family="Helvetica,sans-Serif" font-size="10.00">dolphin/os/OSRtc.h</text>
</a>
</g>
</g>
<!-- Node9&#45;&gt;Node31 -->
<g id="edge51" class="edge">
<title>Node9&#45;&gt;Node31</title>
<path fill="none" stroke="#63b8ff" d="M1312.14,-282.88C1415.79,-280.65 1721.54,-271.36 1751,-239 1756.68,-232.76 1755.79,-226.96 1751,-220 1725.65,-183.14 1698.55,-200.58 1657,-184 1614.65,-167.11 1566.08,-146.78 1535.23,-133.76"/>
<polygon fill="#63b8ff" stroke="#63b8ff" points="1536.68,-130.57 1526.11,-129.9 1533.95,-137.02 1536.68,-130.57"/>
</g>
<!-- Node32 -->
<g id="node32" class="node">
<title>Node32</title>
<g id="a_node32"><a xlink:href="OSSync_8h.html" target="_top" xlink:title=" ">
<polygon fill="white" stroke="#666666" points="1612.5,-239 1505.5,-239 1505.5,-220 1612.5,-220 1612.5,-239"/>
<text text-anchor="middle" x="1559" y="-227" font-family="Helvetica,sans-Serif" font-size="10.00">dolphin/os/OSSync.h</text>
</a>
</g>
</g>
<!-- Node9&#45;&gt;Node32 -->
<g id="edge53" class="edge">
<title>Node9&#45;&gt;Node32</title>
<path fill="none" stroke="#63b8ff" d="M1312.46,-277C1359.31,-268.16 1443.77,-252.23 1500.61,-241.51"/>
<polygon fill="#63b8ff" stroke="#63b8ff" points="1500.93,-245.02 1510.1,-239.72 1499.63,-238.14 1500.93,-245.02"/>
</g>
<!-- Node10&#45;&gt;Node6 -->
<g id="edge11" class="edge">
<title>Node10&#45;&gt;Node6</title>
<path fill="none" stroke="#63b8ff" d="M1681.01,-164.71C1650.51,-149.05 1587.48,-117.29 1564,-110 1488.06,-86.41 1396.27,-74.79 1340.02,-69.48"/>
<polygon fill="#63b8ff" stroke="#63b8ff" points="1340.36,-65.99 1330.09,-68.57 1339.73,-72.96 1340.36,-65.99"/>
</g>
<!-- Node11&#45;&gt;Node6 -->
<g id="edge13" class="edge">
<title>Node11&#45;&gt;Node6</title>
<path fill="none" stroke="#63b8ff" d="M1619.54,-112.52C1614,-111.66 1608.35,-110.8 1603,-110 1510.44,-96.18 1402.4,-81.16 1339.93,-72.58"/>
<polygon fill="#63b8ff" stroke="#63b8ff" points="1340.69,-69.15 1330.31,-71.26 1339.74,-76.09 1340.69,-69.15"/>
</g>
<!-- Node12&#45;&gt;Node13 -->
<g id="edge15" class="edge">
<title>Node12&#45;&gt;Node13</title>
<path fill="none" stroke="#63b8ff" d="M1662.42,-219.51C1640.02,-210.97 1606.1,-198.03 1580.82,-188.4"/>
<polygon fill="#63b8ff" stroke="#63b8ff" points="1582.24,-185.19 1571.65,-184.9 1579.74,-191.73 1582.24,-185.19"/>
</g>
<!-- Node12&#45;&gt;Node14 -->
<g id="edge17" class="edge">
<title>Node12&#45;&gt;Node14</title>
<path fill="none" stroke="#63b8ff" d="M1712.12,-219.51C1737.2,-210.88 1775.31,-197.76 1803.4,-188.1"/>
<polygon fill="#63b8ff" stroke="#63b8ff" points="1804.26,-191.5 1812.57,-184.94 1801.98,-184.88 1804.26,-191.5"/>
</g>
<!-- Node13&#45;&gt;Node6 -->
<g id="edge16" class="edge">
<title>Node13&#45;&gt;Node6</title>
<path fill="none" stroke="#63b8ff" d="M1525.8,-164.66C1480.46,-145.75 1373.82,-101.29 1320.11,-78.89"/>
<polygon fill="#63b8ff" stroke="#63b8ff" points="1321.46,-75.66 1310.88,-75.04 1318.77,-82.12 1321.46,-75.66"/>
</g>
<!-- Node14&#45;&gt;Node6 -->
<g id="edge18" class="edge">
<title>Node14&#45;&gt;Node6</title>
<path fill="none" stroke="#63b8ff" d="M1820.9,-164.55C1783.96,-147.25 1706.08,-110.85 1703,-110 1575.88,-74.76 1419.69,-67.14 1340.06,-65.67"/>
<polygon fill="#63b8ff" stroke="#63b8ff" points="1340.45,-62.18 1330.4,-65.52 1340.34,-69.18 1340.45,-62.18"/>
</g>
<!-- Node15&#45;&gt;Node6 -->
<g id="edge20" class="edge">
<title>Node15&#45;&gt;Node6</title>
<path fill="none" stroke="#63b8ff" d="M1753.15,-111.74C1748.03,-111.14 1742.92,-110.55 1738,-110 1594.17,-94.03 1424.16,-77.99 1340.24,-70.26"/>
<polygon fill="#63b8ff" stroke="#63b8ff" points="1340.77,-66.79 1330.49,-69.36 1340.13,-73.76 1340.77,-66.79"/>
</g>
<!-- Node16&#45;&gt;Node6 -->
<g id="edge22" class="edge">
<title>Node16&#45;&gt;Node6</title>
<path fill="none" stroke="#63b8ff" d="M1878.17,-110.9C1875.41,-110.58 1872.68,-110.28 1870,-110 1674.94,-89.61 1442.16,-74.61 1340.19,-68.51"/>
<polygon fill="#63b8ff" stroke="#63b8ff" points="1340.7,-65.04 1330.51,-67.94 1340.28,-72.02 1340.7,-65.04"/>
</g>
<!-- Node18&#45;&gt;Node6 -->
<g id="edge25" class="edge">
<title>Node18&#45;&gt;Node6</title>
<path fill="none" stroke="#63b8ff" d="M2041.54,-164.59C2035.41,-150.2 2021.18,-122.21 1999,-110 1941.78,-78.5 1494.86,-68.69 1340.34,-66.22"/>
<polygon fill="#63b8ff" stroke="#63b8ff" points="1340.44,-62.72 1330.39,-66.06 1340.33,-69.72 1340.44,-62.72"/>
</g>
<!-- Node19&#45;&gt;Node6 -->
<g id="edge27" class="edge">
<title>Node19&#45;&gt;Node6</title>
<path fill="none" stroke="#63b8ff" d="M681.98,-113.73C811.3,-103.44 1114.48,-79.31 1236.13,-69.63"/>
<polygon fill="#63b8ff" stroke="#63b8ff" points="1236.13,-73.14 1245.82,-68.86 1235.57,-66.16 1236.13,-73.14"/>
</g>
<!-- Node20&#45;&gt;Node6 -->
<g id="edge30" class="edge">
<title>Node20&#45;&gt;Node6</title>
<path fill="none" stroke="#63b8ff" d="M897.66,-111.54C901.84,-111.01 905.99,-110.49 910,-110 1026.41,-95.65 1163.12,-79.81 1236.01,-71.44"/>
<polygon fill="#63b8ff" stroke="#63b8ff" points="1236.11,-74.95 1245.65,-70.33 1235.31,-68 1236.11,-74.95"/>
</g>
<!-- Node21&#45;&gt;Node6 -->
<g id="edge32" class="edge">
<title>Node21&#45;&gt;Node6</title>
<path fill="none" stroke="#63b8ff" d="M1023.7,-109.69C1082.63,-99.84 1177.45,-83.98 1236.06,-74.18"/>
<polygon fill="#63b8ff" stroke="#63b8ff" points="1236.5,-77.66 1245.79,-72.56 1235.35,-70.75 1236.5,-77.66"/>
</g>
<!-- Node22&#45;&gt;Node6 -->
<g id="edge34" class="edge">
<title>Node22&#45;&gt;Node6</title>
<path fill="none" stroke="#63b8ff" d="M1008.6,-164.62C1028.43,-151.02 1068.55,-125.03 1106,-110 1148.4,-92.98 1199.07,-81.24 1236.16,-74.11"/>
<polygon fill="#63b8ff" stroke="#63b8ff" points="1236.54,-77.6 1245.73,-72.32 1235.25,-70.72 1236.54,-77.6"/>
</g>
<!-- Node23&#45;&gt;Node6 -->
<g id="edge36" class="edge">
<title>Node23&#45;&gt;Node6</title>
<path fill="none" stroke="#63b8ff" d="M1219.08,-109.51C1231.56,-101.54 1250.02,-89.75 1264.69,-80.38"/>
<polygon fill="#63b8ff" stroke="#63b8ff" points="1266.31,-83.5 1272.85,-75.17 1262.54,-77.6 1266.31,-83.5"/>
</g>
<!-- Node24&#45;&gt;Node22 -->
<g id="edge38" class="edge">
<title>Node24&#45;&gt;Node22</title>
<path fill="none" stroke="#63b8ff" d="M972.62,-219.75C976.25,-212.88 981.43,-203.08 985.99,-194.45"/>
<polygon fill="#63b8ff" stroke="#63b8ff" points="988.99,-196.26 990.57,-185.78 982.8,-192.99 988.99,-196.26"/>
</g>
<!-- Node25&#45;&gt;Node26 -->
<g id="edge40" class="edge">
<title>Node25&#45;&gt;Node26</title>
<path fill="none" stroke="#63b8ff" d="M697.56,-219.51C683.75,-211.47 663.25,-199.53 647.09,-190.11"/>
<polygon fill="#63b8ff" stroke="#63b8ff" points="648.92,-187.13 638.52,-185.12 645.4,-193.18 648.92,-187.13"/>
</g>
<!-- Node26&#45;&gt;Node19 -->
<g id="edge41" class="edge">
<title>Node26&#45;&gt;Node19</title>
<path fill="none" stroke="#63b8ff" d="M622,-164.75C622,-158.27 622,-149.16 622,-140.9"/>
<polygon fill="#63b8ff" stroke="#63b8ff" points="625.5,-140.96 622,-130.96 618.5,-140.96 625.5,-140.96"/>
</g>
<!-- Node27&#45;&gt;Node26 -->
<g id="edge43" class="edge">
<title>Node27&#45;&gt;Node26</title>
<path fill="none" stroke="#63b8ff" d="M552.25,-219.51C564.88,-211.54 583.56,-199.75 598.41,-190.38"/>
<polygon fill="#63b8ff" stroke="#63b8ff" points="600.09,-193.46 606.68,-185.17 596.36,-187.54 600.09,-193.46"/>
</g>
<!-- Node28&#45;&gt;Node6 -->
<g id="edge45" class="edge">
<title>Node28&#45;&gt;Node6</title>
<path fill="none" stroke="#63b8ff" d="M1288,-164.66C1288,-147.57 1288,-109.61 1288,-85.92"/>
<polygon fill="#63b8ff" stroke="#63b8ff" points="1291.5,-85.97 1288,-75.97 1284.5,-85.97 1291.5,-85.97"/>
</g>
<!-- Node29&#45;&gt;Node6 -->
<g id="edge47" class="edge">
<title>Node29&#45;&gt;Node6</title>
<path fill="none" stroke="#63b8ff" d="M1409.2,-164.66C1386.96,-146.47 1335.79,-104.6 1307.57,-81.51"/>
<polygon fill="#63b8ff" stroke="#63b8ff" points="1310.08,-79.04 1300.12,-75.42 1305.65,-84.46 1310.08,-79.04"/>
</g>
<!-- Node30&#45;&gt;Node6 -->
<g id="edge49" class="edge">
<title>Node30&#45;&gt;Node6</title>
<path fill="none" stroke="#63b8ff" d="M1109.86,-219.68C1110,-197.92 1113.44,-141.19 1144,-110 1168.03,-85.47 1205.27,-74.4 1235.85,-69.43"/>
<polygon fill="#63b8ff" stroke="#63b8ff" points="1236.31,-72.9 1245.71,-68.02 1235.32,-65.97 1236.31,-72.9"/>
</g>
<!-- Node30&#45;&gt;Node22 -->
<g id="edge50" class="edge">
<title>Node30&#45;&gt;Node22</title>
<path fill="none" stroke="#63b8ff" d="M1090.66,-219.51C1072.78,-211.2 1045.96,-198.73 1025.43,-189.18"/>
<polygon fill="#63b8ff" stroke="#63b8ff" points="1026.97,-186.04 1016.43,-185 1024.02,-192.39 1026.97,-186.04"/>
</g>
<!-- Node31&#45;&gt;Node6 -->
<g id="edge52" class="edge">
<title>Node31&#45;&gt;Node6</title>
<path fill="none" stroke="#63b8ff" d="M1467.36,-109.51C1431.02,-100.59 1375.17,-86.89 1335.46,-77.15"/>
<polygon fill="#63b8ff" stroke="#63b8ff" points="1336.48,-73.79 1325.93,-74.81 1334.81,-80.59 1336.48,-73.79"/>
</g>
<!-- Node34 -->
<g id="node34" class="node">
<title>Node34</title>
<g id="a_node34"><a xlink:href="binary_8h.html" target="_top" xlink:title=" ">
<polygon fill="white" stroke="#666666" points="387.5,-354.5 256.5,-354.5 256.5,-335.5 387.5,-335.5 387.5,-354.5"/>
<text text-anchor="middle" x="322" y="-342.5" font-family="Helvetica,sans-Serif" font-size="10.00">JSystem/JGadget/binary.h</text>
</a>
</g>
</g>
<!-- Node33&#45;&gt;Node34 -->
<g id="edge57" class="edge">
<title>Node33&#45;&gt;Node34</title>
<path fill="none" stroke="#63b8ff" d="M396.04,-401.1C382.31,-390.88 359.52,-373.93 342.85,-361.52"/>
<polygon fill="#63b8ff" stroke="#63b8ff" points="345.18,-358.89 335.07,-355.73 341,-364.5 345.18,-358.89"/>
</g>
<!-- Node34&#45;&gt;Node6 -->
<g id="edge58" class="edge">
<title>Node34&#45;&gt;Node6</title>
<path fill="none" stroke="#63b8ff" d="M330.14,-335.05C338.43,-325.51 351.17,-309.65 359,-294 372.18,-267.65 378,-259.96 378,-230.5 378,-230.5 378,-230.5 378,-173.5 378,-143.33 377.62,-127.77 402,-110 435.81,-85.36 1050.81,-70.48 1235.8,-66.55"/>
<polygon fill="#63b8ff" stroke="#63b8ff" points="1235.66,-70.06 1245.58,-66.35 1235.51,-63.06 1235.66,-70.06"/>
</g>
<!-- Node36&#45;&gt;Node34 -->
<g id="edge61" class="edge">
<title>Node36&#45;&gt;Node34</title>
<path fill="none" stroke="#63b8ff" d="M152.42,-395.56C191.06,-384.26 244.17,-368.75 280.59,-358.1"/>
<polygon fill="#63b8ff" stroke="#63b8ff" points="281.26,-361.55 289.88,-355.39 279.3,-354.83 281.26,-361.55"/>
</g>
<!-- Node37 -->
<g id="node37" class="node">
<title>Node37</title>
<g id="a_node37"><a xlink:href="functionvalue_8h.html" target="_top" xlink:title=" ">
<polygon fill="white" stroke="#666666" points="186.5,-360 59.5,-360 59.5,-330 186.5,-330 186.5,-360"/>
<text text-anchor="start" x="67.5" y="-348" font-family="Helvetica,sans-Serif" font-size="10.00">JSystem/JStudio/JStudio</text>
<text text-anchor="middle" x="123" y="-337" font-family="Helvetica,sans-Serif" font-size="10.00">/functionvalue.h</text>
</a>
</g>
</g>
<!-- Node36&#45;&gt;Node37 -->
<g id="edge62" class="edge">
<title>Node36&#45;&gt;Node37</title>
<path fill="none" stroke="#63b8ff" d="M107.44,-395.8C109.72,-388.5 112.56,-379.41 115.19,-370.99"/>
<polygon fill="#63b8ff" stroke="#63b8ff" points="118.48,-372.2 118.12,-361.61 111.8,-370.11 118.48,-372.2"/>
</g>
<!-- Node38 -->
<g id="node38" class="node">
<title>Node38</title>
<g id="a_node38"><a xlink:href="search_8h.html" target="_top" xlink:title=" ">
<polygon fill="white" stroke="#666666" points="200,-294 66,-294 66,-275 200,-275 200,-294"/>
<text text-anchor="middle" x="133" y="-282" font-family="Helvetica,sans-Serif" font-size="10.00">JSystem/JGadget/search.h</text>
</a>
</g>
</g>
<!-- Node37&#45;&gt;Node38 -->
<g id="edge63" class="edge">
<title>Node37&#45;&gt;Node38</title>
<path fill="none" stroke="#63b8ff" d="M125.47,-329.54C126.72,-322.26 128.25,-313.31 129.6,-305.39"/>
<polygon fill="#63b8ff" stroke="#63b8ff" points="133.03,-306.11 131.26,-295.67 126.13,-304.93 133.03,-306.11"/>
</g>
<!-- Node39 -->
<g id="node39" class="node">
<title>Node39</title>
<g id="a_node39"><a xlink:href="global_8h.html" target="_top" xlink:title=" ">
<polygon fill="white" stroke="#666666" points="158,-239 108,-239 108,-220 158,-220 158,-239"/>
<text text-anchor="middle" x="133" y="-227" font-family="Helvetica,sans-Serif" font-size="10.00">global.h</text>
</a>
</g>
</g>
<!-- Node37&#45;&gt;Node39 -->
<g id="edge67" class="edge">
<title>Node37&#45;&gt;Node39</title>
<path fill="none" stroke="#63b8ff" d="M92.52,-329.66C69.75,-316.82 44.55,-296.72 57,-275 65.77,-259.7 82.08,-249.15 97.34,-242.18"/>
<polygon fill="#63b8ff" stroke="#63b8ff" points="98.34,-245.55 106.24,-238.49 95.66,-239.09 98.34,-245.55"/>
</g>
<!-- Node40 -->
<g id="node40" class="node">
<title>Node40</title>
<g id="a_node40"><a xlink:href="vector_8h.html" target="_top" xlink:title=" ">
<polygon fill="white" stroke="#666666" points="350,-294 218,-294 218,-275 350,-275 350,-294"/>
<text text-anchor="middle" x="284" y="-282" font-family="Helvetica,sans-Serif" font-size="10.00">JSystem/JGadget/vector.h</text>
</a>
</g>
</g>
<!-- Node37&#45;&gt;Node40 -->
<g id="edge66" class="edge">
<title>Node37&#45;&gt;Node40</title>
<path fill="none" stroke="#63b8ff" d="M162.8,-329.54C189.24,-319.93 223.64,-307.43 249.03,-298.21"/>
<polygon fill="#63b8ff" stroke="#63b8ff" points="250.03,-301.57 258.23,-294.86 247.64,-294.99 250.03,-301.57"/>
</g>
<!-- Node38&#45;&gt;Node39 -->
<g id="edge64" class="edge">
<title>Node38&#45;&gt;Node39</title>
<path fill="none" stroke="#63b8ff" d="M133,-274.75C133,-268.27 133,-259.16 133,-250.9"/>
<polygon fill="#63b8ff" stroke="#63b8ff" points="136.5,-250.96 133,-240.96 129.5,-250.96 136.5,-250.96"/>
</g>
<!-- Node39&#45;&gt;Node6 -->
<g id="edge65" class="edge">
<title>Node39&#45;&gt;Node6</title>
<path fill="none" stroke="#63b8ff" d="M145.24,-219.78C178.46,-196.7 273.86,-134.08 364,-110 530.29,-65.58 1065.86,-64.35 1235.77,-65.12"/>
<polygon fill="#63b8ff" stroke="#63b8ff" points="1235.59,-68.62 1245.61,-65.17 1235.63,-61.62 1235.59,-68.62"/>
</g>
</g>
</svg>
