<?xml version="1.0" encoding="UTF-8" standalone="no"?>
<!DOCTYPE svg PUBLIC "-//W3C//DTD SVG 1.1//EN"
 "http://www.w3.org/Graphics/SVG/1.1/DTD/svg11.dtd">
<!-- Generated by graphviz version 7.0.5 (20221223.1930)
 -->
<!-- Title: libs/JSystem/JStudio/JStudio/jstudio&#45;math.cpp Pages: 1 -->
<!--zoomable 412 -->
<svg id="main" version="1.1" xmlns="http://www.w3.org/2000/svg" xmlns:xlink="http://www.w3.org/1999/xlink" xml:space="preserve" onload="init(evt)">
<style type="text/css"><![CDATA[
.edge:hover path { stroke: red; }
.edge:hover polygon { stroke: red; fill: red; }
]]></style>
<script type="text/javascript"><![CDATA[
var edges = document.getElementsByTagName('g');
if (edges && edges.length) {
  for (var i=0;i<edges.length;i++) {
    if (edges[i].id.substr(0,4)=='edge') {
      edges[i].setAttribute('class','edge');
    }
  }
}
]]></script>
        <defs>
                <circle id="rim" cx="0" cy="0" r="7"/>
                <circle id="rim2" cx="0" cy="0" r="3.5"/>
                <g id="zoomPlus">
                        <use xlink:href="#rim" fill="#404040">
                                <set attributeName="fill" to="#808080" begin="zoomplus.mouseover" end="zoomplus.mouseout"/>
                        </use>
                        <path d="M-4,0h8M0,-4v8" fill="none" stroke="white" stroke-width="1.5" pointer-events="none"/>
                </g>
                <g id="zoomMin">
                        <use xlink:href="#rim" fill="#404040">
                                <set attributeName="fill" to="#808080" begin="zoomminus.mouseover" end="zoomminus.mouseout"/>
                        </use>
                        <path d="M-4,0h8" fill="none" stroke="white" stroke-width="1.5" pointer-events="none"/>
                </g>
                <g id="dirArrow">
                        <path fill="none" stroke="white" stroke-width="1.5" d="M0,-3.0v7 M-2.5,-0.5L0,-3.0L2.5,-0.5"/>
                </g>
               <g id="resetDef">
                       <use xlink:href="#rim2" fill="#404040">
                               <set attributeName="fill" to="#808080" begin="reset.mouseover" end="reset.mouseout"/>
                       </use>
               </g>
        </defs>

<script type="text/javascript">
var viewWidth = 881;
var viewHeight = 412;
var sectionId = 'dynsection-0';
</script>
<script xlink:href="svgpan.js"/>
<svg id="graph" class="graph">
<g id="viewport">
<title>libs/JSystem/JStudio/JStudio/jstudio&#45;math.cpp</title>
<!-- Node1 -->
<g id="node1" class="node">
<title>Node1</title>
<g id="a_node1"><a xlink:title=" ">
<polygon fill="#999999" stroke="#666666" points="440,-404 313,-404 313,-374 440,-374 440,-404"/>
<text text-anchor="start" x="321" y="-392" font-family="Helvetica,sans-Serif" font-size="10.00">libs/JSystem/JStudio</text>
<text text-anchor="middle" x="376.5" y="-381" font-family="Helvetica,sans-Serif" font-size="10.00">/JStudio/jstudio&#45;math.cpp</text>
</a>
</g>
</g>
<!-- Node2 -->
<g id="node2" class="node">
<title>Node2</title>
<g id="a_node2"><a xlink:href="jstudio-math_8h.html" target="_top" xlink:title=" ">
<polygon fill="white" stroke="#666666" points="191,-321.5 64,-321.5 64,-291.5 191,-291.5 191,-321.5"/>
<text text-anchor="start" x="72" y="-309.5" font-family="Helvetica,sans-Serif" font-size="10.00">JSystem/JStudio/JStudio</text>
<text text-anchor="middle" x="127.5" y="-298.5" font-family="Helvetica,sans-Serif" font-size="10.00">/jstudio&#45;math.h</text>
</a>
</g>
</g>
<!-- Node1&#45;&gt;Node2 -->
<g id="edge1" class="edge">
<title>Node1&#45;&gt;Node2</title>
<path fill="none" stroke="#63b8ff" d="M319.29,-373.59C284.6,-364.4 239.63,-351.68 200.5,-338 190.5,-334.51 179.9,-330.35 169.97,-326.25"/>
<polygon fill="#63b8ff" stroke="#63b8ff" points="171.49,-323.09 160.92,-322.44 168.78,-329.54 171.49,-323.09"/>
</g>
<!-- Node9 -->
<g id="node9" class="node">
<title>Node9</title>
<g id="a_node9"><a xlink:href="dol2asm_8h.html" target="_top" xlink:title=" ">
<polygon fill="white" stroke="#666666" points="270,-316 209,-316 209,-297 270,-297 270,-316"/>
<text text-anchor="middle" x="239.5" y="-304" font-family="Helvetica,sans-Serif" font-size="10.00">dol2asm.h</text>
</a>
</g>
</g>
<!-- Node1&#45;&gt;Node9 -->
<g id="edge10" class="edge">
<title>Node1&#45;&gt;Node9</title>
<path fill="none" stroke="#63b8ff" d="M345.15,-373.58C325.77,-364.24 300.64,-351.36 279.5,-338 272.46,-333.55 265.11,-328.18 258.66,-323.19"/>
<polygon fill="#63b8ff" stroke="#63b8ff" points="261.19,-320.73 251.18,-317.26 256.84,-326.22 261.19,-320.73"/>
</g>
<!-- Node10 -->
<g id="node10" class="node">
<title>Node10</title>
<g id="a_node10"><a xlink:title=" ">
<polygon fill="#e0e0e0" stroke="#999999" points="464.5,-332.5 288.5,-332.5 288.5,-280.5 464.5,-280.5 464.5,-332.5"/>
<text text-anchor="start" x="296.5" y="-320.5" font-family="Helvetica,sans-Serif" font-size="10.00">asm/JSystem/JStudio</text>
<text text-anchor="start" x="296.5" y="-309.5" font-family="Helvetica,sans-Serif" font-size="10.00">/JStudio/jstudio&#45;math</text>
<text text-anchor="start" x="296.5" y="-298.5" font-family="Helvetica,sans-Serif" font-size="10.00">/getRotation_xyz__Q27JStudio4math</text>
<text text-anchor="middle" x="376.5" y="-287.5" font-family="Helvetica,sans-Serif" font-size="10.00">FPA4_ffff.s</text>
</a>
</g>
</g>
<!-- Node1&#45;&gt;Node10 -->
<g id="edge11" class="edge">
<title>Node1&#45;&gt;Node10</title>
<path fill="none" stroke="#63b8ff" d="M376.5,-373.61C376.5,-365.39 376.5,-354.69 376.5,-344.29"/>
<polygon fill="#63b8ff" stroke="#63b8ff" points="380,-344.35 376.5,-334.35 373,-344.35 380,-344.35"/>
</g>
<!-- Node11 -->
<g id="node11" class="node">
<title>Node11</title>
<g id="a_node11"><a xlink:title=" ">
<polygon fill="#e0e0e0" stroke="#999999" points="676,-338 483,-338 483,-275 676,-275 676,-338"/>
<text text-anchor="start" x="491" y="-326" font-family="Helvetica,sans-Serif" font-size="10.00">asm/JSystem/JStudio</text>
<text text-anchor="start" x="491" y="-315" font-family="Helvetica,sans-Serif" font-size="10.00">/JStudio/jstudio&#45;math</text>
<text text-anchor="start" x="491" y="-304" font-family="Helvetica,sans-Serif" font-size="10.00">/getTransformation_SRxyzT</text>
<text text-anchor="start" x="491" y="-293" font-family="Helvetica,sans-Serif" font-size="10.00">__Q27JStudio4mathFPA4_fRC3VecRC3</text>
<text text-anchor="middle" x="579.5" y="-282" font-family="Helvetica,sans-Serif" font-size="10.00">VecRC3Vec.s</text>
</a>
</g>
</g>
<!-- Node1&#45;&gt;Node11 -->
<g id="edge12" class="edge">
<title>Node1&#45;&gt;Node11</title>
<path fill="none" stroke="#63b8ff" d="M412.79,-373.61C434.64,-364.95 463.46,-353.51 491,-342.6"/>
<polygon fill="#63b8ff" stroke="#63b8ff" points="492.06,-345.94 500.06,-339 489.48,-339.43 492.06,-345.94"/>
</g>
<!-- Node12 -->
<g id="node12" class="node">
<title>Node12</title>
<g id="a_node12"><a xlink:title=" ">
<polygon fill="#e0e0e0" stroke="#999999" points="873,-338 694,-338 694,-275 873,-275 873,-338"/>
<text text-anchor="start" x="702" y="-326" font-family="Helvetica,sans-Serif" font-size="10.00">asm/JSystem/JStudio</text>
<text text-anchor="start" x="702" y="-315" font-family="Helvetica,sans-Serif" font-size="10.00">/JStudio/jstudio&#45;math</text>
<text text-anchor="start" x="702" y="-304" font-family="Helvetica,sans-Serif" font-size="10.00">/getFromTransformation</text>
<text text-anchor="start" x="702" y="-293" font-family="Helvetica,sans-Serif" font-size="10.00">_SRxyzT__Q27JStudio4mathFP3Vec</text>
<text text-anchor="middle" x="783.5" y="-282" font-family="Helvetica,sans-Serif" font-size="10.00">P3VecP3VecPA4_Cf.s</text>
</a>
</g>
</g>
<!-- Node1&#45;&gt;Node12 -->
<g id="edge13" class="edge">
<title>Node1&#45;&gt;Node12</title>
<path fill="none" stroke="#63b8ff" d="M440.34,-380.35C500.67,-372.52 593.83,-358.87 682.57,-338.58"/>
<polygon fill="#63b8ff" stroke="#63b8ff" points="683.23,-342.02 692.18,-336.35 681.65,-335.2 683.23,-342.02"/>
</g>
<!-- Node3 -->
<g id="node3" class="node">
<title>Node3</title>
<g id="a_node3"><a xlink:href="mtx_8h.html" target="_top" xlink:title=" ">
<polygon fill="white" stroke="#666666" points="164.5,-239 90.5,-239 90.5,-220 164.5,-220 164.5,-239"/>
<text text-anchor="middle" x="127.5" y="-227" font-family="Helvetica,sans-Serif" font-size="10.00">dolphin/mtx.h</text>
</a>
</g>
</g>
<!-- Node2&#45;&gt;Node3 -->
<g id="edge2" class="edge">
<title>Node2&#45;&gt;Node3</title>
<path fill="none" stroke="#63b8ff" d="M127.5,-291.04C127.5,-279.55 127.5,-263.34 127.5,-250.59"/>
<polygon fill="#63b8ff" stroke="#63b8ff" points="131,-250.8 127.5,-240.8 124,-250.8 131,-250.8"/>
</g>
<!-- Node4 -->
<g id="node4" class="node">
<title>Node4</title>
<g id="a_node4"><a xlink:href="mtx44_8h.html" target="_top" xlink:title=" ">
<polygon fill="white" stroke="#666666" points="103,-129 0,-129 0,-110 103,-110 103,-129"/>
<text text-anchor="middle" x="51.5" y="-117" font-family="Helvetica,sans-Serif" font-size="10.00">dolphin/mtx/mtx44.h</text>
</a>
</g>
</g>
<!-- Node3&#45;&gt;Node4 -->
<g id="edge3" class="edge">
<title>Node3&#45;&gt;Node4</title>
<path fill="none" stroke="#63b8ff" d="M111.22,-219.61C98.39,-211.82 80.98,-199.34 70.5,-184 61.65,-171.04 56.83,-153.86 54.27,-140.64"/>
<polygon fill="#63b8ff" stroke="#63b8ff" points="57.75,-140.24 52.68,-130.94 50.84,-141.37 57.75,-140.24"/>
</g>
<!-- Node7 -->
<g id="node7" class="node">
<title>Node7</title>
<g id="a_node7"><a xlink:href="quat_8h.html" target="_top" xlink:title=" ">
<polygon fill="white" stroke="#666666" points="175,-184 80,-184 80,-165 175,-165 175,-184"/>
<text text-anchor="middle" x="127.5" y="-172" font-family="Helvetica,sans-Serif" font-size="10.00">dolphin/mtx/quat.h</text>
</a>
</g>
</g>
<!-- Node3&#45;&gt;Node7 -->
<g id="edge6" class="edge">
<title>Node3&#45;&gt;Node7</title>
<path fill="none" stroke="#63b8ff" d="M127.5,-219.75C127.5,-213.27 127.5,-204.16 127.5,-195.9"/>
<polygon fill="#63b8ff" stroke="#63b8ff" points="131,-195.96 127.5,-185.96 124,-195.96 131,-195.96"/>
</g>
<!-- Node8 -->
<g id="node8" class="node">
<title>Node8</title>
<g id="a_node8"><a xlink:href="vec_8h.html" target="_top" xlink:title=" ">
<polygon fill="white" stroke="#666666" points="213.5,-129 121.5,-129 121.5,-110 213.5,-110 213.5,-129"/>
<text text-anchor="middle" x="167.5" y="-117" font-family="Helvetica,sans-Serif" font-size="10.00">dolphin/mtx/vec.h</text>
</a>
</g>
</g>
<!-- Node3&#45;&gt;Node8 -->
<g id="edge9" class="edge">
<title>Node3&#45;&gt;Node8</title>
<path fill="none" stroke="#63b8ff" d="M146.41,-219.57C159.76,-212.13 176.63,-200.13 184.5,-184 191.54,-169.58 185.71,-151.84 179.04,-138.78"/>
<polygon fill="#63b8ff" stroke="#63b8ff" points="182.24,-137.34 174.24,-130.4 176.17,-140.82 182.24,-137.34"/>
</g>
<!-- Node5 -->
<g id="node5" class="node">
<title>Node5</title>
<g id="a_node5"><a xlink:href="types_8h.html" target="_top" xlink:title=" ">
<polygon fill="white" stroke="#666666" points="150,-74 69,-74 69,-55 150,-55 150,-74"/>
<text text-anchor="middle" x="109.5" y="-62" font-family="Helvetica,sans-Serif" font-size="10.00">dolphin/types.h</text>
</a>
</g>
</g>
<!-- Node4&#45;&gt;Node5 -->
<g id="edge4" class="edge">
<title>Node4&#45;&gt;Node5</title>
<path fill="none" stroke="#63b8ff" d="M61.34,-109.51C69.55,-102 81.48,-91.1 91.41,-82.03"/>
<polygon fill="#63b8ff" stroke="#63b8ff" points="93.67,-84.71 98.69,-75.38 88.95,-79.54 93.67,-84.71"/>
</g>
<!-- Node6 -->
<g id="node6" class="node">
<title>Node6</title>
<g id="a_node6"><a xlink:href="stddef_8h.html" target="_top" xlink:title=" ">
<polygon fill="white" stroke="#666666" points="135,-19 84,-19 84,0 135,0 135,-19"/>
<text text-anchor="middle" x="109.5" y="-7" font-family="Helvetica,sans-Serif" font-size="10.00">stddef.h</text>
</a>
</g>
</g>
<!-- Node5&#45;&gt;Node6 -->
<g id="edge5" class="edge">
<title>Node5&#45;&gt;Node6</title>
<path fill="none" stroke="#63b8ff" d="M109.5,-54.75C109.5,-48.27 109.5,-39.16 109.5,-30.9"/>
<polygon fill="#63b8ff" stroke="#63b8ff" points="113,-30.96 109.5,-20.96 106,-30.96 113,-30.96"/>
</g>
<!-- Node7&#45;&gt;Node8 -->
<g id="edge7" class="edge">
<title>Node7&#45;&gt;Node8</title>
<path fill="none" stroke="#63b8ff" d="M134.11,-164.75C139.46,-157.66 147.18,-147.42 153.85,-138.59"/>
<polygon fill="#63b8ff" stroke="#63b8ff" points="156.61,-140.74 159.84,-130.65 151.02,-136.52 156.61,-140.74"/>
</g>
<!-- Node8&#45;&gt;Node5 -->
<g id="edge8" class="edge">
<title>Node8&#45;&gt;Node5</title>
<path fill="none" stroke="#63b8ff" d="M157.66,-109.51C149.45,-102 137.52,-91.1 127.59,-82.03"/>
<polygon fill="#63b8ff" stroke="#63b8ff" points="130.05,-79.54 120.31,-75.38 125.33,-84.71 130.05,-79.54"/>
</g>
</g>
</svg>
        <g id="navigator" transform="translate(0 0)" fill="#404254">
                <rect fill="#f2f5e9" fill-opacity="0.5" stroke="#606060" stroke-width=".5" x="0" y="0" width="60" height="60"/>
                <use id="zoomplus" xlink:href="#zoomPlus" x="17" y="9" onmousedown="handleZoom(evt,'in')"/>
                <use id="zoomminus" xlink:href="#zoomMin" x="42" y="9" onmousedown="handleZoom(evt,'out')"/>
                <use id="reset" xlink:href="#resetDef" x="30" y="36" onmousedown="handleReset()"/>
                <g id="arrowUp" xlink:href="#dirArrow" transform="translate(30 24)" onmousedown="handlePan(0,-1)">
                  <use xlink:href="#rim" fill="#404040">
                        <set attributeName="fill" to="#808080" begin="arrowUp.mouseover" end="arrowUp.mouseout"/>
                  </use>
                  <path fill="none" stroke="white" stroke-width="1.5" d="M0,-3.0v7 M-2.5,-0.5L0,-3.0L2.5,-0.5"/>
                </g>
                <g id="arrowRight" xlink:href="#dirArrow" transform="rotate(90) translate(36 -43)" onmousedown="handlePan(1,0)">
                  <use xlink:href="#rim" fill="#404040">
                        <set attributeName="fill" to="#808080" begin="arrowRight.mouseover" end="arrowRight.mouseout"/>
                  </use>
                  <path fill="none" stroke="white" stroke-width="1.5" d="M0,-3.0v7 M-2.5,-0.5L0,-3.0L2.5,-0.5"/>
                </g>
                <g id="arrowDown" xlink:href="#dirArrow" transform="rotate(180) translate(-30 -48)" onmousedown="handlePan(0,1)">
                  <use xlink:href="#rim" fill="#404040">
                        <set attributeName="fill" to="#808080" begin="arrowDown.mouseover" end="arrowDown.mouseout"/>
                  </use>
                  <path fill="none" stroke="white" stroke-width="1.5" d="M0,-3.0v7 M-2.5,-0.5L0,-3.0L2.5,-0.5"/>
                </g>
                <g id="arrowLeft" xlink:href="#dirArrow" transform="rotate(270) translate(-36 17)" onmousedown="handlePan(-1,0)">
                  <use xlink:href="#rim" fill="#404040">
                        <set attributeName="fill" to="#808080" begin="arrowLeft.mouseover" end="arrowLeft.mouseout"/>
                  </use>
                  <path fill="none" stroke="white" stroke-width="1.5" d="M0,-3.0v7 M-2.5,-0.5L0,-3.0L2.5,-0.5"/>
                </g>
        </g>
        <svg viewBox="0 0 15 15" width="100%" height="30px" preserveAspectRatio="xMaxYMin meet">
         <g id="arrow_out" transform="scale(0.3 0.3)">
          <a xlink:href="jstudio-math_8cpp__incl_org.svg" target="_base">
           <rect id="button" ry="5" rx="5" y="6" x="6" height="38" width="38"
                fill="#f2f5e9" fill-opacity="0.5" stroke="#606060" stroke-width="1.0"/>
           <path id="arrow"
             d="M 11.500037,31.436501 C 11.940474,20.09759 22.043105,11.32322 32.158766,21.979434 L 37.068811,17.246167 C 37.068811,17.246167 37.088388,32 37.088388,32 L 22.160133,31.978069 C 22.160133,31.978069 26.997745,27.140456 26.997745,27.140456 C 18.528582,18.264221 13.291696,25.230495 11.500037,31.436501 z"
             style="fill:#404040;"/>
          </a>
         </g>
        </svg>
</svg>
