<?xml version="1.0" encoding="UTF-8" standalone="no"?>
<!DOCTYPE svg PUBLIC "-//W3C//DTD SVG 1.1//EN"
 "http://www.w3.org/Graphics/SVG/1.1/DTD/svg11.dtd">
<!-- Generated by graphviz version 7.0.5 (20221223.1930)
 -->
<!-- Title: include/JSystem/JStudio/JStudio_JParticle/control.h Pages: 1 -->
<svg width="1223pt" height="258pt"
 viewBox="0.00 0.00 1222.50 258.00" xmlns="http://www.w3.org/2000/svg" xmlns:xlink="http://www.w3.org/1999/xlink">
<g id="graph0" class="graph" transform="scale(1 1) rotate(0) translate(4 254)">
<title>include/JSystem/JStudio/JStudio_JParticle/control.h</title>
<!-- Node1 -->
<g id="node1" class="node">
<title>Node1</title>
<g id="a_node1"><a xlink:title=" ">
<polygon fill="#999999" stroke="#666666" points="835,-250 699,-250 699,-220 835,-220 835,-250"/>
<text text-anchor="start" x="707" y="-238" font-family="Helvetica,sans-Serif" font-size="10.00">include/JSystem/JStudio</text>
<text text-anchor="middle" x="767" y="-227" font-family="Helvetica,sans-Serif" font-size="10.00">/JStudio_JParticle/control.h</text>
</a>
</g>
</g>
<!-- Node2 -->
<g id="node2" class="node">
<title>Node2</title>
<g id="a_node2"><a xlink:href="object-particle_8h.html" target="_top" xlink:title=" ">
<polygon fill="white" stroke="#666666" points="752.5,-184 627.5,-184 627.5,-143 752.5,-143 752.5,-184"/>
<text text-anchor="start" x="635.5" y="-172" font-family="Helvetica,sans-Serif" font-size="10.00">include/JSystem/JStudio</text>
<text text-anchor="start" x="635.5" y="-161" font-family="Helvetica,sans-Serif" font-size="10.00">/JStudio_JParticle/object</text>
<text text-anchor="middle" x="690" y="-150" font-family="Helvetica,sans-Serif" font-size="10.00">&#45;particle.h</text>
</a>
</g>
</g>
<!-- Node1&#45;&gt;Node2 -->
<g id="edge1" class="edge">
<title>Node1&#45;&gt;Node2</title>
<path fill="none" stroke="#63b8ff" d="M742.55,-211.93C732.77,-203.1 721.59,-193.01 712.07,-184.42"/>
<polygon fill="#63b8ff" stroke="#63b8ff" points="740.15,-214.48 749.92,-218.59 744.84,-209.29 740.15,-214.48"/>
</g>
<!-- Node14 -->
<g id="node14" class="node">
<title>Node14</title>
<g id="a_node14"><a xlink:href="JStudio_2JStudio__JParticle_2control_8cpp.html" target="_top" xlink:title=" ">
<polygon fill="white" stroke="#666666" points="917,-178.5 771,-178.5 771,-148.5 917,-148.5 917,-178.5"/>
<text text-anchor="start" x="779" y="-166.5" font-family="Helvetica,sans-Serif" font-size="10.00">libs/JSystem/JStudio</text>
<text text-anchor="middle" x="844" y="-155.5" font-family="Helvetica,sans-Serif" font-size="10.00">/JStudio_JParticle/control.cpp</text>
</a>
</g>
</g>
<!-- Node1&#45;&gt;Node14 -->
<g id="edge13" class="edge">
<title>Node1&#45;&gt;Node14</title>
<path fill="none" stroke="#63b8ff" d="M791.24,-212.12C803.26,-201.27 817.44,-188.48 828.07,-178.88"/>
<polygon fill="#63b8ff" stroke="#63b8ff" points="789.16,-209.29 784.08,-218.59 793.85,-214.48 789.16,-209.29"/>
</g>
<!-- Node3 -->
<g id="node3" class="node">
<title>Node3</title>
<g id="a_node3"><a xlink:href="d__demo_8h.html" target="_top" xlink:title=" ">
<polygon fill="white" stroke="#666666" points="675.5,-96 574.5,-96 574.5,-77 675.5,-77 675.5,-96"/>
<text text-anchor="middle" x="625" y="-84" font-family="Helvetica,sans-Serif" font-size="10.00">include/d/d_demo.h</text>
</a>
</g>
</g>
<!-- Node2&#45;&gt;Node3 -->
<g id="edge2" class="edge">
<title>Node2&#45;&gt;Node3</title>
<path fill="none" stroke="#63b8ff" d="M665.51,-134.25C653.81,-120.75 640.63,-105.54 632.57,-96.24"/>
<polygon fill="#63b8ff" stroke="#63b8ff" points="662.74,-136.39 671.93,-141.65 668.03,-131.8 662.74,-136.39"/>
</g>
<!-- Node13 -->
<g id="node13" class="node">
<title>Node13</title>
<g id="a_node13"><a xlink:href="object-particle_8cpp.html" target="_top" xlink:title=" ">
<polygon fill="white" stroke="#666666" points="818.5,-107 693.5,-107 693.5,-66 818.5,-66 818.5,-107"/>
<text text-anchor="start" x="701.5" y="-95" font-family="Helvetica,sans-Serif" font-size="10.00">libs/JSystem/JStudio</text>
<text text-anchor="start" x="701.5" y="-84" font-family="Helvetica,sans-Serif" font-size="10.00">/JStudio_JParticle/object</text>
<text text-anchor="middle" x="756" y="-73" font-family="Helvetica,sans-Serif" font-size="10.00">&#45;particle.cpp</text>
</a>
</g>
</g>
<!-- Node2&#45;&gt;Node13 -->
<g id="edge12" class="edge">
<title>Node2&#45;&gt;Node13</title>
<path fill="none" stroke="#63b8ff" d="M714.92,-134.18C722.79,-125.24 731.31,-115.55 738.55,-107.33"/>
<polygon fill="#63b8ff" stroke="#63b8ff" points="712.32,-131.84 708.34,-141.66 717.57,-136.46 712.32,-131.84"/>
</g>
<!-- Node4 -->
<g id="node4" class="node">
<title>Node4</title>
<g id="a_node4"><a xlink:href="Z2WolfHowlMgr_8cpp.html" target="_top" xlink:title=" ">
<polygon fill="white" stroke="#666666" points="140,-30 0,-30 0,0 140,0 140,-30"/>
<text text-anchor="start" x="8" y="-18" font-family="Helvetica,sans-Serif" font-size="10.00">libs/Z2AudioLib/Z2WolfHowl</text>
<text text-anchor="middle" x="70" y="-7" font-family="Helvetica,sans-Serif" font-size="10.00">Mgr.cpp</text>
</a>
</g>
</g>
<!-- Node3&#45;&gt;Node4 -->
<g id="edge3" class="edge">
<title>Node3&#45;&gt;Node4</title>
<path fill="none" stroke="#63b8ff" d="M562.94,-79.45C471.93,-70.31 297.01,-51.72 149,-30 146.11,-29.58 143.16,-29.13 140.18,-28.66"/>
<polygon fill="#63b8ff" stroke="#63b8ff" points="562.34,-82.91 572.64,-80.42 563.04,-75.94 562.34,-82.91"/>
</g>
<!-- Node5 -->
<g id="node5" class="node">
<title>Node5</title>
<g id="a_node5"><a xlink:href="d__com__static_8cpp.html" target="_top" xlink:title=" ">
<polygon fill="white" stroke="#666666" points="298,-24.5 158,-24.5 158,-5.5 298,-5.5 298,-24.5"/>
<text text-anchor="middle" x="228" y="-12.5" font-family="Helvetica,sans-Serif" font-size="10.00">src/d/com/d_com_static.cpp</text>
</a>
</g>
</g>
<!-- Node3&#45;&gt;Node5 -->
<g id="edge4" class="edge">
<title>Node3&#45;&gt;Node5</title>
<path fill="none" stroke="#63b8ff" d="M562.93,-74.72C498.83,-63.57 395.91,-45.64 307,-30 297.81,-28.38 288.02,-26.65 278.57,-24.98"/>
<polygon fill="#63b8ff" stroke="#63b8ff" points="562.1,-78.13 572.56,-76.39 563.3,-71.23 562.1,-78.13"/>
</g>
<!-- Node6 -->
<g id="node6" class="node">
<title>Node6</title>
<g id="a_node6"><a xlink:href="d__demo_8cpp.html" target="_top" xlink:title=" ">
<polygon fill="white" stroke="#666666" points="410,-24.5 316,-24.5 316,-5.5 410,-5.5 410,-24.5"/>
<text text-anchor="middle" x="363" y="-12.5" font-family="Helvetica,sans-Serif" font-size="10.00">src/d/d_demo.cpp</text>
</a>
</g>
</g>
<!-- Node3&#45;&gt;Node6 -->
<g id="edge5" class="edge">
<title>Node3&#45;&gt;Node6</title>
<path fill="none" stroke="#63b8ff" d="M580.38,-73.66C528.31,-59.85 443.38,-37.32 396.59,-24.91"/>
<polygon fill="#63b8ff" stroke="#63b8ff" points="579.26,-76.99 589.82,-76.17 581.05,-70.22 579.26,-76.99"/>
</g>
<!-- Node7 -->
<g id="node7" class="node">
<title>Node7</title>
<g id="a_node7"><a xlink:href="d__ev__camera_8cpp.html" target="_top" xlink:title=" ">
<polygon fill="white" stroke="#666666" points="546,-24.5 428,-24.5 428,-5.5 546,-5.5 546,-24.5"/>
<text text-anchor="middle" x="487" y="-12.5" font-family="Helvetica,sans-Serif" font-size="10.00">src/d/d_ev_camera.cpp</text>
</a>
</g>
</g>
<!-- Node3&#45;&gt;Node7 -->
<g id="edge6" class="edge">
<title>Node3&#45;&gt;Node7</title>
<path fill="none" stroke="#63b8ff" d="M597.05,-71.42C569.44,-57.52 528.05,-36.67 504.69,-24.91"/>
<polygon fill="#63b8ff" stroke="#63b8ff" points="595.38,-74.5 605.89,-75.88 598.53,-68.25 595.38,-74.5"/>
</g>
<!-- Node8 -->
<g id="node8" class="node">
<title>Node8</title>
<g id="a_node8"><a xlink:href="d__event_8cpp.html" target="_top" xlink:title=" ">
<polygon fill="white" stroke="#666666" points="685.5,-24.5 564.5,-24.5 564.5,-5.5 685.5,-5.5 685.5,-24.5"/>
<text text-anchor="middle" x="625" y="-12.5" font-family="Helvetica,sans-Serif" font-size="10.00">src/d/event/d_event.cpp</text>
</a>
</g>
</g>
<!-- Node3&#45;&gt;Node8 -->
<g id="edge7" class="edge">
<title>Node3&#45;&gt;Node8</title>
<path fill="none" stroke="#63b8ff" d="M625,-65.3C625,-51.94 625,-35.09 625,-24.95"/>
<polygon fill="#63b8ff" stroke="#63b8ff" points="621.5,-65.18 625,-75.18 628.5,-65.18 621.5,-65.18"/>
</g>
<!-- Node9 -->
<g id="node9" class="node">
<title>Node9</title>
<g id="a_node9"><a xlink:href="d__event__data_8cpp.html" target="_top" xlink:title=" ">
<polygon fill="white" stroke="#666666" points="806.5,-30 703.5,-30 703.5,0 806.5,0 806.5,-30"/>
<text text-anchor="start" x="711.5" y="-18" font-family="Helvetica,sans-Serif" font-size="10.00">src/d/event/d_event</text>
<text text-anchor="middle" x="755" y="-7" font-family="Helvetica,sans-Serif" font-size="10.00">_data.cpp</text>
</a>
</g>
</g>
<!-- Node3&#45;&gt;Node9 -->
<g id="edge8" class="edge">
<title>Node3&#45;&gt;Node9</title>
<path fill="none" stroke="#63b8ff" d="M651.83,-71.15C674.09,-59.25 705.6,-42.41 727.93,-30.47"/>
<polygon fill="#63b8ff" stroke="#63b8ff" points="650.23,-68.04 643.06,-75.84 653.53,-74.21 650.23,-68.04"/>
</g>
<!-- Node10 -->
<g id="node10" class="node">
<title>Node10</title>
<g id="a_node10"><a xlink:href="d__meter2_8cpp.html" target="_top" xlink:title=" ">
<polygon fill="white" stroke="#666666" points="953,-24.5 825,-24.5 825,-5.5 953,-5.5 953,-24.5"/>
<text text-anchor="middle" x="889" y="-12.5" font-family="Helvetica,sans-Serif" font-size="10.00">src/d/meter/d_meter2.cpp</text>
</a>
</g>
</g>
<!-- Node3&#45;&gt;Node10 -->
<g id="edge9" class="edge">
<title>Node3&#45;&gt;Node10</title>
<path fill="none" stroke="#63b8ff" d="M661.93,-73.03C669.53,-70.59 677.5,-68.14 685,-66 741.29,-49.98 807.18,-34.39 848.51,-24.99"/>
<polygon fill="#63b8ff" stroke="#63b8ff" points="661.02,-69.64 652.6,-76.07 663.19,-76.3 661.02,-69.64"/>
</g>
<!-- Node11 -->
<g id="node11" class="node">
<title>Node11</title>
<g id="a_node11"><a xlink:href="d__s__play_8cpp.html" target="_top" xlink:title=" ">
<polygon fill="white" stroke="#666666" points="1077,-24.5 971,-24.5 971,-5.5 1077,-5.5 1077,-24.5"/>
<text text-anchor="middle" x="1024" y="-12.5" font-family="Helvetica,sans-Serif" font-size="10.00">src/d/s/d_s_play.cpp</text>
</a>
</g>
</g>
<!-- Node3&#45;&gt;Node11 -->
<g id="edge10" class="edge">
<title>Node3&#45;&gt;Node11</title>
<path fill="none" stroke="#63b8ff" d="M659.7,-73.02C667.91,-70.4 676.7,-67.87 685,-66 806.11,-38.7 839.76,-51.7 962,-30 970.15,-28.55 978.84,-26.75 987.07,-24.93"/>
<polygon fill="#63b8ff" stroke="#63b8ff" points="658.77,-69.64 650.38,-76.11 660.98,-76.28 658.77,-69.64"/>
</g>
<!-- Node12 -->
<g id="node12" class="node">
<title>Node12</title>
<g id="a_node12"><a xlink:href="f__op__actor_8cpp.html" target="_top" xlink:title=" ">
<polygon fill="white" stroke="#666666" points="1214.5,-24.5 1095.5,-24.5 1095.5,-5.5 1214.5,-5.5 1214.5,-24.5"/>
<text text-anchor="middle" x="1155" y="-12.5" font-family="Helvetica,sans-Serif" font-size="10.00">src/f_op/f_op_actor.cpp</text>
</a>
</g>
</g>
<!-- Node3&#45;&gt;Node12 -->
<g id="edge11" class="edge">
<title>Node3&#45;&gt;Node12</title>
<path fill="none" stroke="#63b8ff" d="M659.21,-72.92C667.55,-70.26 676.52,-67.74 685,-66 860.3,-30.12 908.94,-55.83 1086,-30 1095.31,-28.64 1105.27,-26.83 1114.63,-24.97"/>
<polygon fill="#63b8ff" stroke="#63b8ff" points="658.13,-69.59 649.76,-76.09 660.35,-76.23 658.13,-69.59"/>
</g>
</g>
</svg>
