<?xml version="1.0" encoding="UTF-8" standalone="no"?>
<!DOCTYPE svg PUBLIC "-//W3C//DTD SVG 1.1//EN"
 "http://www.w3.org/Graphics/SVG/1.1/DTD/svg11.dtd">
<!-- Generated by graphviz version 7.0.5 (20221223.1930)
 -->
<!-- Title: libs/JSystem/JSupport/JSUInputStream.cpp Pages: 1 -->
<svg width="220pt" height="335pt"
 viewBox="0.00 0.00 220.00 335.00" xmlns="http://www.w3.org/2000/svg" xmlns:xlink="http://www.w3.org/1999/xlink">
<g id="graph0" class="graph" transform="scale(1 1) rotate(0) translate(4 331)">
<title>libs/JSystem/JSupport/JSUInputStream.cpp</title>
<!-- Node1 -->
<g id="node1" class="node">
<title>Node1</title>
<g id="a_node1"><a xlink:title=" ">
<polygon fill="#999999" stroke="#666666" points="139,-327 24,-327 24,-297 139,-297 139,-327"/>
<text text-anchor="start" x="32" y="-315" font-family="Helvetica,sans-Serif" font-size="10.00">libs/JSystem/JSupport</text>
<text text-anchor="middle" x="81.5" y="-304" font-family="Helvetica,sans-Serif" font-size="10.00">/JSUInputStream.cpp</text>
</a>
</g>
</g>
<!-- Node2 -->
<g id="node2" class="node">
<title>Node2</title>
<g id="a_node2"><a xlink:href="JSUInputStream_8h.html" target="_top" xlink:title=" ">
<polygon fill="white" stroke="#666666" points="152,-195 11,-195 11,-165 152,-165 152,-195"/>
<text text-anchor="start" x="19" y="-183" font-family="Helvetica,sans-Serif" font-size="10.00">JSystem/JSupport/JSUInput</text>
<text text-anchor="middle" x="81.5" y="-172" font-family="Helvetica,sans-Serif" font-size="10.00">Stream.h</text>
</a>
</g>
</g>
<!-- Node1&#45;&gt;Node2 -->
<g id="edge1" class="edge">
<title>Node1&#45;&gt;Node2</title>
<path fill="none" stroke="#63b8ff" d="M68.51,-296.92C60.76,-287.51 51.64,-274.44 47.5,-261 43.58,-248.26 43.58,-243.74 47.5,-231 50.44,-221.44 55.9,-212.07 61.6,-204.08"/>
<polygon fill="#63b8ff" stroke="#63b8ff" points="64.27,-206.34 67.59,-196.28 58.72,-202.08 64.27,-206.34"/>
</g>
<!-- Node6 -->
<g id="node6" class="node">
<title>Node6</title>
<g id="a_node6"><a xlink:href="JSURandomInputStream_8h.html" target="_top" xlink:title=" ">
<polygon fill="white" stroke="#666666" points="212,-261 57,-261 57,-231 212,-231 212,-261"/>
<text text-anchor="start" x="65" y="-249" font-family="Helvetica,sans-Serif" font-size="10.00">JSystem/JSupport/JSURandom</text>
<text text-anchor="middle" x="134.5" y="-238" font-family="Helvetica,sans-Serif" font-size="10.00">InputStream.h</text>
</a>
</g>
</g>
<!-- Node1&#45;&gt;Node6 -->
<g id="edge5" class="edge">
<title>Node1&#45;&gt;Node6</title>
<path fill="none" stroke="#63b8ff" d="M93.26,-296.8C99.78,-288.92 108.04,-278.95 115.46,-269.99"/>
<polygon fill="#63b8ff" stroke="#63b8ff" points="118.12,-272.26 121.81,-262.33 112.73,-267.8 118.12,-272.26"/>
</g>
<!-- Node3 -->
<g id="node3" class="node">
<title>Node3</title>
<g id="a_node3"><a xlink:href="JSUIosBase_8h.html" target="_top" xlink:title=" ">
<polygon fill="white" stroke="#666666" points="163,-129 0,-129 0,-110 163,-110 163,-129"/>
<text text-anchor="middle" x="81.5" y="-117" font-family="Helvetica,sans-Serif" font-size="10.00">JSystem/JSupport/JSUIosBase.h</text>
</a>
</g>
</g>
<!-- Node2&#45;&gt;Node3 -->
<g id="edge2" class="edge">
<title>Node2&#45;&gt;Node3</title>
<path fill="none" stroke="#63b8ff" d="M81.5,-164.54C81.5,-157.34 81.5,-148.53 81.5,-140.68"/>
<polygon fill="#63b8ff" stroke="#63b8ff" points="85,-140.69 81.5,-130.69 78,-140.69 85,-140.69"/>
</g>
<!-- Node4 -->
<g id="node4" class="node">
<title>Node4</title>
<g id="a_node4"><a xlink:href="types_8h.html" target="_top" xlink:title=" ">
<polygon fill="white" stroke="#666666" points="122,-74 41,-74 41,-55 122,-55 122,-74"/>
<text text-anchor="middle" x="81.5" y="-62" font-family="Helvetica,sans-Serif" font-size="10.00">dolphin/types.h</text>
</a>
</g>
</g>
<!-- Node3&#45;&gt;Node4 -->
<g id="edge3" class="edge">
<title>Node3&#45;&gt;Node4</title>
<path fill="none" stroke="#63b8ff" d="M81.5,-109.75C81.5,-103.27 81.5,-94.16 81.5,-85.9"/>
<polygon fill="#63b8ff" stroke="#63b8ff" points="85,-85.96 81.5,-75.96 78,-85.96 85,-85.96"/>
</g>
<!-- Node5 -->
<g id="node5" class="node">
<title>Node5</title>
<g id="a_node5"><a xlink:href="stddef_8h.html" target="_top" xlink:title=" ">
<polygon fill="white" stroke="#666666" points="107,-19 56,-19 56,0 107,0 107,-19"/>
<text text-anchor="middle" x="81.5" y="-7" font-family="Helvetica,sans-Serif" font-size="10.00">stddef.h</text>
</a>
</g>
</g>
<!-- Node4&#45;&gt;Node5 -->
<g id="edge4" class="edge">
<title>Node4&#45;&gt;Node5</title>
<path fill="none" stroke="#63b8ff" d="M81.5,-54.75C81.5,-48.27 81.5,-39.16 81.5,-30.9"/>
<polygon fill="#63b8ff" stroke="#63b8ff" points="85,-30.96 81.5,-20.96 78,-30.96 85,-30.96"/>
</g>
<!-- Node6&#45;&gt;Node2 -->
<g id="edge6" class="edge">
<title>Node6&#45;&gt;Node2</title>
<path fill="none" stroke="#63b8ff" d="M122.74,-230.8C116.22,-222.92 107.96,-212.95 100.54,-203.99"/>
<polygon fill="#63b8ff" stroke="#63b8ff" points="103.27,-201.8 94.19,-196.33 97.88,-206.26 103.27,-201.8"/>
</g>
</g>
</svg>
