<?xml version="1.0" encoding="UTF-8" standalone="no"?>
<!DOCTYPE svg PUBLIC "-//W3C//DTD SVG 1.1//EN"
 "http://www.w3.org/Graphics/SVG/1.1/DTD/svg11.dtd">
<!-- Generated by graphviz version 7.0.5 (20221223.1930)
 -->
<!-- Title: libs/JSystem/JUtility/JUTProcBar.cpp Pages: 1 -->
<svg width="1139pt" height="445pt"
 viewBox="0.00 0.00 1139.00 445.00" xmlns="http://www.w3.org/2000/svg" xmlns:xlink="http://www.w3.org/1999/xlink">
<g id="graph0" class="graph" transform="scale(1 1) rotate(0) translate(4 441)">
<title>libs/JSystem/JUtility/JUTProcBar.cpp</title>
<!-- Node1 -->
<g id="node1" class="node">
<title>Node1</title>
<g id="a_node1"><a xlink:title=" ">
<polygon fill="#999999" stroke="#666666" points="580,-437 474,-437 474,-407 580,-407 580,-437"/>
<text text-anchor="start" x="482" y="-425" font-family="Helvetica,sans-Serif" font-size="10.00">libs/JSystem/JUtility</text>
<text text-anchor="middle" x="527" y="-414" font-family="Helvetica,sans-Serif" font-size="10.00">/JUTProcBar.cpp</text>
</a>
</g>
</g>
<!-- Node2 -->
<g id="node2" class="node">
<title>Node2</title>
<g id="a_node2"><a xlink:href="JUTProcBar_8h.html" target="_top" xlink:title=" ">
<polygon fill="white" stroke="#666666" points="544,-305 414,-305 414,-275 544,-275 544,-305"/>
<text text-anchor="start" x="422" y="-293" font-family="Helvetica,sans-Serif" font-size="10.00">JSystem/JUtility/JUTProc</text>
<text text-anchor="middle" x="479" y="-282" font-family="Helvetica,sans-Serif" font-size="10.00">Bar.h</text>
</a>
</g>
</g>
<!-- Node1&#45;&gt;Node2 -->
<g id="edge1" class="edge">
<title>Node1&#45;&gt;Node2</title>
<path fill="none" stroke="#63b8ff" d="M521.68,-406.59C513.61,-384.73 498.15,-342.87 488.22,-315.98"/>
<polygon fill="#63b8ff" stroke="#63b8ff" points="491.62,-315.06 484.87,-306.89 485.05,-317.49 491.62,-315.06"/>
</g>
<!-- Node11 -->
<g id="node11" class="node">
<title>Node11</title>
<g id="a_node11"><a xlink:href="J2DOrthoGraph_8h.html" target="_top" xlink:title=" ">
<polygon fill="white" stroke="#666666" points="453,-371 307,-371 307,-341 453,-341 453,-371"/>
<text text-anchor="start" x="315" y="-359" font-family="Helvetica,sans-Serif" font-size="10.00">JSystem/J2DGraph/J2DOrtho</text>
<text text-anchor="middle" x="380" y="-348" font-family="Helvetica,sans-Serif" font-size="10.00">Graph.h</text>
</a>
</g>
</g>
<!-- Node1&#45;&gt;Node11 -->
<g id="edge13" class="edge">
<title>Node1&#45;&gt;Node11</title>
<path fill="none" stroke="#63b8ff" d="M494.01,-406.64C473.18,-397.57 446.05,-385.75 423.47,-375.93"/>
<polygon fill="#63b8ff" stroke="#63b8ff" points="425.09,-372.81 414.52,-372.03 422.29,-379.23 425.09,-372.81"/>
</g>
<!-- Node21 -->
<g id="node21" class="node">
<title>Node21</title>
<g id="a_node21"><a xlink:href="JKRHeap_8h.html" target="_top" xlink:title=" ">
<polygon fill="white" stroke="#666666" points="865.5,-299.5 722.5,-299.5 722.5,-280.5 865.5,-280.5 865.5,-299.5"/>
<text text-anchor="middle" x="794" y="-287.5" font-family="Helvetica,sans-Serif" font-size="10.00">JSystem/JKernel/JKRHeap.h</text>
</a>
</g>
</g>
<!-- Node1&#45;&gt;Node21 -->
<g id="edge29" class="edge">
<title>Node1&#45;&gt;Node21</title>
<path fill="none" stroke="#63b8ff" d="M556.59,-406.59C608.33,-381.4 714.55,-329.68 765.5,-304.87"/>
<polygon fill="#63b8ff" stroke="#63b8ff" points="766.96,-308.06 774.42,-300.53 763.9,-301.76 766.96,-308.06"/>
</g>
<!-- Node27 -->
<g id="node27" class="node">
<title>Node27</title>
<g id="a_node27"><a xlink:href="JUTVideo_8h.html" target="_top" xlink:title=" ">
<polygon fill="white" stroke="#666666" points="704,-299.5 562,-299.5 562,-280.5 704,-280.5 704,-299.5"/>
<text text-anchor="middle" x="633" y="-287.5" font-family="Helvetica,sans-Serif" font-size="10.00">JSystem/JUtility/JUTVideo.h</text>
</a>
</g>
</g>
<!-- Node1&#45;&gt;Node27 -->
<g id="edge37" class="edge">
<title>Node1&#45;&gt;Node27</title>
<path fill="none" stroke="#63b8ff" d="M538.75,-406.59C558.35,-382.56 597.63,-334.37 618.77,-308.45"/>
<polygon fill="#63b8ff" stroke="#63b8ff" points="621.34,-310.84 624.94,-300.88 615.91,-306.42 621.34,-310.84"/>
</g>
<!-- Node3 -->
<g id="node3" class="node">
<title>Node3</title>
<g id="a_node3"><a xlink:href="TColor_8h.html" target="_top" xlink:title=" ">
<polygon fill="white" stroke="#666666" points="479.5,-239 352.5,-239 352.5,-220 479.5,-220 479.5,-239"/>
<text text-anchor="middle" x="416" y="-227" font-family="Helvetica,sans-Serif" font-size="10.00">JSystem/JUtility/TColor.h</text>
</a>
</g>
</g>
<!-- Node2&#45;&gt;Node3 -->
<g id="edge2" class="edge">
<title>Node2&#45;&gt;Node3</title>
<path fill="none" stroke="#63b8ff" d="M463.43,-274.54C454.37,-266.13 442.93,-255.51 433.55,-246.8"/>
<polygon fill="#63b8ff" stroke="#63b8ff" points="436.16,-244.44 426.45,-240.21 431.4,-249.57 436.16,-244.44"/>
</g>
<!-- Node10 -->
<g id="node10" class="node">
<title>Node10</title>
<g id="a_node10"><a xlink:href="OSTime_8h.html" target="_top" xlink:title=" ">
<polygon fill="white" stroke="#666666" points="604.5,-239 497.5,-239 497.5,-220 604.5,-220 604.5,-239"/>
<text text-anchor="middle" x="551" y="-227" font-family="Helvetica,sans-Serif" font-size="10.00">dolphin/os/OSTime.h</text>
</a>
</g>
</g>
<!-- Node2&#45;&gt;Node10 -->
<g id="edge11" class="edge">
<title>Node2&#45;&gt;Node10</title>
<path fill="none" stroke="#63b8ff" d="M496.8,-274.54C507.36,-265.96 520.76,-255.07 531.6,-246.26"/>
<polygon fill="#63b8ff" stroke="#63b8ff" points="533.59,-249.15 539.15,-240.13 529.18,-243.72 533.59,-249.15"/>
</g>
<!-- Node4 -->
<g id="node4" class="node">
<title>Node4</title>
<g id="a_node4"><a xlink:href="GXStruct_8h.html" target="_top" xlink:title=" ">
<polygon fill="white" stroke="#666666" points="631.5,-184 520.5,-184 520.5,-165 631.5,-165 631.5,-184"/>
<text text-anchor="middle" x="576" y="-172" font-family="Helvetica,sans-Serif" font-size="10.00">dolphin/gx/GXStruct.h</text>
</a>
</g>
</g>
<!-- Node3&#45;&gt;Node4 -->
<g id="edge3" class="edge">
<title>Node3&#45;&gt;Node4</title>
<path fill="none" stroke="#63b8ff" d="M443.14,-219.51C469.31,-210.84 509.14,-197.65 538.36,-187.97"/>
<polygon fill="#63b8ff" stroke="#63b8ff" points="539.16,-191.39 547.56,-184.92 536.96,-184.74 539.16,-191.39"/>
</g>
<!-- Node5 -->
<g id="node5" class="node">
<title>Node5</title>
<g id="a_node5"><a xlink:href="global_8h.html" target="_top" xlink:title=" ">
<polygon fill="white" stroke="#666666" points="503,-129 453,-129 453,-110 503,-110 503,-129"/>
<text text-anchor="middle" x="478" y="-117" font-family="Helvetica,sans-Serif" font-size="10.00">global.h</text>
</a>
</g>
</g>
<!-- Node4&#45;&gt;Node5 -->
<g id="edge4" class="edge">
<title>Node4&#45;&gt;Node5</title>
<path fill="none" stroke="#63b8ff" d="M559.38,-164.51C544.22,-156.31 521.58,-144.07 504.03,-134.58"/>
<polygon fill="#63b8ff" stroke="#63b8ff" points="506.17,-131.76 495.71,-130.08 502.84,-137.91 506.17,-131.76"/>
</g>
<!-- Node8 -->
<g id="node8" class="node">
<title>Node8</title>
<g id="a_node8"><a xlink:href="GXEnum_8h.html" target="_top" xlink:title=" ">
<polygon fill="white" stroke="#666666" points="631,-129 521,-129 521,-110 631,-110 631,-129"/>
<text text-anchor="middle" x="576" y="-117" font-family="Helvetica,sans-Serif" font-size="10.00">dolphin/gx/GXEnum.h</text>
</a>
</g>
</g>
<!-- Node4&#45;&gt;Node8 -->
<g id="edge7" class="edge">
<title>Node4&#45;&gt;Node8</title>
<path fill="none" stroke="#63b8ff" d="M576,-164.75C576,-158.27 576,-149.16 576,-140.9"/>
<polygon fill="#63b8ff" stroke="#63b8ff" points="579.5,-140.96 576,-130.96 572.5,-140.96 579.5,-140.96"/>
</g>
<!-- Node9 -->
<g id="node9" class="node">
<title>Node9</title>
<g id="a_node9"><a xlink:href="vi_8h.html" target="_top" xlink:title=" ">
<polygon fill="white" stroke="#666666" points="714.5,-129 649.5,-129 649.5,-110 714.5,-110 714.5,-129"/>
<text text-anchor="middle" x="682" y="-117" font-family="Helvetica,sans-Serif" font-size="10.00">dolphin/vi.h</text>
</a>
</g>
</g>
<!-- Node4&#45;&gt;Node9 -->
<g id="edge9" class="edge">
<title>Node4&#45;&gt;Node9</title>
<path fill="none" stroke="#63b8ff" d="M593.98,-164.51C610.45,-156.27 635.09,-143.96 654.11,-134.45"/>
<polygon fill="#63b8ff" stroke="#63b8ff" points="655.55,-137.64 662.93,-130.03 652.42,-131.38 655.55,-137.64"/>
</g>
<!-- Node6 -->
<g id="node6" class="node">
<title>Node6</title>
<g id="a_node6"><a xlink:href="types_8h.html" target="_top" xlink:title=" ">
<polygon fill="white" stroke="#666666" points="518.5,-74 437.5,-74 437.5,-55 518.5,-55 518.5,-74"/>
<text text-anchor="middle" x="478" y="-62" font-family="Helvetica,sans-Serif" font-size="10.00">dolphin/types.h</text>
</a>
</g>
</g>
<!-- Node5&#45;&gt;Node6 -->
<g id="edge5" class="edge">
<title>Node5&#45;&gt;Node6</title>
<path fill="none" stroke="#63b8ff" d="M478,-109.75C478,-103.27 478,-94.16 478,-85.9"/>
<polygon fill="#63b8ff" stroke="#63b8ff" points="481.5,-85.96 478,-75.96 474.5,-85.96 481.5,-85.96"/>
</g>
<!-- Node7 -->
<g id="node7" class="node">
<title>Node7</title>
<g id="a_node7"><a xlink:href="stddef_8h.html" target="_top" xlink:title=" ">
<polygon fill="white" stroke="#666666" points="503.5,-19 452.5,-19 452.5,0 503.5,0 503.5,-19"/>
<text text-anchor="middle" x="478" y="-7" font-family="Helvetica,sans-Serif" font-size="10.00">stddef.h</text>
</a>
</g>
</g>
<!-- Node6&#45;&gt;Node7 -->
<g id="edge6" class="edge">
<title>Node6&#45;&gt;Node7</title>
<path fill="none" stroke="#63b8ff" d="M478,-54.75C478,-48.27 478,-39.16 478,-30.9"/>
<polygon fill="#63b8ff" stroke="#63b8ff" points="481.5,-30.96 478,-20.96 474.5,-30.96 481.5,-30.96"/>
</g>
<!-- Node8&#45;&gt;Node6 -->
<g id="edge8" class="edge">
<title>Node8&#45;&gt;Node6</title>
<path fill="none" stroke="#63b8ff" d="M559.38,-109.51C544.22,-101.31 521.58,-89.07 504.03,-79.58"/>
<polygon fill="#63b8ff" stroke="#63b8ff" points="506.17,-76.76 495.71,-75.08 502.84,-82.91 506.17,-76.76"/>
</g>
<!-- Node9&#45;&gt;Node6 -->
<g id="edge10" class="edge">
<title>Node9&#45;&gt;Node6</title>
<path fill="none" stroke="#63b8ff" d="M649.22,-109.98C615.09,-101.12 561.37,-87.16 523.21,-77.25"/>
<polygon fill="#63b8ff" stroke="#63b8ff" points="524.42,-73.94 513.86,-74.82 522.66,-80.72 524.42,-73.94"/>
</g>
<!-- Node10&#45;&gt;Node6 -->
<g id="edge12" class="edge">
<title>Node10&#45;&gt;Node6</title>
<path fill="none" stroke="#63b8ff" d="M535.2,-219.71C510.28,-204.83 462.74,-172.02 444,-129 436.93,-112.76 448.09,-95.06 459.47,-82.48"/>
<polygon fill="#63b8ff" stroke="#63b8ff" points="461.93,-84.96 466.47,-75.39 456.95,-80.04 461.93,-84.96"/>
</g>
<!-- Node12 -->
<g id="node12" class="node">
<title>Node12</title>
<g id="a_node12"><a xlink:href="J2DGrafContext_8h.html" target="_top" xlink:title=" ">
<polygon fill="white" stroke="#666666" points="394,-305 254,-305 254,-275 394,-275 394,-305"/>
<text text-anchor="start" x="262" y="-293" font-family="Helvetica,sans-Serif" font-size="10.00">JSystem/J2DGraph/J2DGraf</text>
<text text-anchor="middle" x="324" y="-282" font-family="Helvetica,sans-Serif" font-size="10.00">Context.h</text>
</a>
</g>
</g>
<!-- Node11&#45;&gt;Node12 -->
<g id="edge14" class="edge">
<title>Node11&#45;&gt;Node12</title>
<path fill="none" stroke="#63b8ff" d="M367.57,-340.8C360.61,-332.84 351.77,-322.74 343.87,-313.71"/>
<polygon fill="#63b8ff" stroke="#63b8ff" points="346.61,-311.52 337.39,-306.3 341.34,-316.13 346.61,-311.52"/>
</g>
<!-- Node12&#45;&gt;Node3 -->
<g id="edge21" class="edge">
<title>Node12&#45;&gt;Node3</title>
<path fill="none" stroke="#63b8ff" d="M346.74,-274.54C360.7,-265.66 378.54,-254.32 392.61,-245.37"/>
<polygon fill="#63b8ff" stroke="#63b8ff" points="394.25,-248.48 400.81,-240.16 390.49,-242.57 394.25,-248.48"/>
</g>
<!-- Node12&#45;&gt;Node6 -->
<g id="edge28" class="edge">
<title>Node12&#45;&gt;Node6</title>
<path fill="none" stroke="#63b8ff" d="M326.08,-274.58C328.59,-260.12 333.68,-237.56 343,-220 359.32,-189.24 429.47,-115.34 461.69,-82.14"/>
<polygon fill="#63b8ff" stroke="#63b8ff" points="463.83,-84.96 468.3,-75.36 458.82,-80.08 463.83,-84.96"/>
</g>
<!-- Node13 -->
<g id="node13" class="node">
<title>Node13</title>
<g id="a_node13"><a xlink:href="JGeometry_8h.html" target="_top" xlink:title=" ">
<polygon fill="white" stroke="#666666" points="132.5,-239 19.5,-239 19.5,-220 132.5,-220 132.5,-239"/>
<text text-anchor="middle" x="76" y="-227" font-family="Helvetica,sans-Serif" font-size="10.00">JSystem/JGeometry.h</text>
</a>
</g>
</g>
<!-- Node12&#45;&gt;Node13 -->
<g id="edge15" class="edge">
<title>Node12&#45;&gt;Node13</title>
<path fill="none" stroke="#63b8ff" d="M262.7,-274.54C220.27,-264.53 164.55,-251.39 125.06,-242.07"/>
<polygon fill="#63b8ff" stroke="#63b8ff" points="125.88,-238.67 115.34,-239.78 124.27,-245.48 125.88,-238.67"/>
</g>
<!-- Node18 -->
<g id="node18" class="node">
<title>Node18</title>
<g id="a_node18"><a xlink:href="mtx_8h.html" target="_top" xlink:title=" ">
<polygon fill="white" stroke="#666666" points="261,-239 187,-239 187,-220 261,-220 261,-239"/>
<text text-anchor="middle" x="224" y="-227" font-family="Helvetica,sans-Serif" font-size="10.00">dolphin/mtx.h</text>
</a>
</g>
</g>
<!-- Node12&#45;&gt;Node18 -->
<g id="edge22" class="edge">
<title>Node12&#45;&gt;Node18</title>
<path fill="none" stroke="#63b8ff" d="M299.28,-274.54C283.96,-265.58 264.34,-254.1 248.98,-245.11"/>
<polygon fill="#63b8ff" stroke="#63b8ff" points="250.83,-242.14 240.43,-240.11 247.29,-248.18 250.83,-242.14"/>
</g>
<!-- Node14 -->
<g id="node14" class="node">
<title>Node14</title>
<g id="a_node14"><a xlink:href="vec_8h.html" target="_top" xlink:title=" ">
<polygon fill="white" stroke="#666666" points="198,-129 106,-129 106,-110 198,-110 198,-129"/>
<text text-anchor="middle" x="152" y="-117" font-family="Helvetica,sans-Serif" font-size="10.00">dolphin/mtx/vec.h</text>
</a>
</g>
</g>
<!-- Node13&#45;&gt;Node14 -->
<g id="edge16" class="edge">
<title>Node13&#45;&gt;Node14</title>
<path fill="none" stroke="#63b8ff" d="M82.22,-219.66C94.63,-202.02 122.71,-162.12 139.21,-138.67"/>
<polygon fill="#63b8ff" stroke="#63b8ff" points="141.93,-140.89 144.82,-130.7 136.21,-136.86 141.93,-140.89"/>
</g>
<!-- Node15 -->
<g id="node15" class="node">
<title>Node15</title>
<g id="a_node15"><a xlink:href="math_8h.html" target="_top" xlink:title=" ">
<polygon fill="white" stroke="#666666" points="48,-184 2,-184 2,-165 48,-165 48,-184"/>
<text text-anchor="middle" x="25" y="-172" font-family="Helvetica,sans-Serif" font-size="10.00">math.h</text>
</a>
</g>
</g>
<!-- Node13&#45;&gt;Node15 -->
<g id="edge18" class="edge">
<title>Node13&#45;&gt;Node15</title>
<path fill="none" stroke="#63b8ff" d="M67.58,-219.75C60.53,-212.43 50.27,-201.76 41.59,-192.74"/>
<polygon fill="#63b8ff" stroke="#63b8ff" points="44.11,-190.31 34.65,-185.53 39.07,-195.17 44.11,-190.31"/>
</g>
<!-- Node14&#45;&gt;Node6 -->
<g id="edge17" class="edge">
<title>Node14&#45;&gt;Node6</title>
<path fill="none" stroke="#63b8ff" d="M198.36,-110.96C258.52,-101.18 363.18,-84.17 425.98,-73.96"/>
<polygon fill="#63b8ff" stroke="#63b8ff" points="426.4,-77.44 435.71,-72.38 425.27,-70.53 426.4,-77.44"/>
</g>
<!-- Node16 -->
<g id="node16" class="node">
<title>Node16</title>
<g id="a_node16"><a xlink:href="float_8h.html" target="_top" xlink:title=" ">
<polygon fill="white" stroke="#666666" points="46,-129 4,-129 4,-110 46,-110 46,-129"/>
<text text-anchor="middle" x="25" y="-117" font-family="Helvetica,sans-Serif" font-size="10.00">float.h</text>
</a>
</g>
</g>
<!-- Node15&#45;&gt;Node16 -->
<g id="edge19" class="edge">
<title>Node15&#45;&gt;Node16</title>
<path fill="none" stroke="#63b8ff" d="M25,-164.75C25,-158.27 25,-149.16 25,-140.9"/>
<polygon fill="#63b8ff" stroke="#63b8ff" points="28.5,-140.96 25,-130.96 21.5,-140.96 28.5,-140.96"/>
</g>
<!-- Node17 -->
<g id="node17" class="node">
<title>Node17</title>
<g id="a_node17"><a xlink:href="fdlibm_8h.html" target="_top" xlink:title=" ">
<polygon fill="white" stroke="#666666" points="50,-74 0,-74 0,-55 50,-55 50,-74"/>
<text text-anchor="middle" x="25" y="-62" font-family="Helvetica,sans-Serif" font-size="10.00">fdlibm.h</text>
</a>
</g>
</g>
<!-- Node16&#45;&gt;Node17 -->
<g id="edge20" class="edge">
<title>Node16&#45;&gt;Node17</title>
<path fill="none" stroke="#63b8ff" d="M25,-109.75C25,-103.27 25,-94.16 25,-85.9"/>
<polygon fill="#63b8ff" stroke="#63b8ff" points="28.5,-85.96 25,-75.96 21.5,-85.96 28.5,-85.96"/>
</g>
<!-- Node18&#45;&gt;Node14 -->
<g id="edge27" class="edge">
<title>Node18&#45;&gt;Node14</title>
<path fill="none" stroke="#63b8ff" d="M186.51,-220.27C166.96,-213.87 144.73,-202.8 133,-184 124.35,-170.14 131.14,-152.11 138.91,-138.81"/>
<polygon fill="#63b8ff" stroke="#63b8ff" points="141.74,-140.88 144.25,-130.59 135.86,-137.07 141.74,-140.88"/>
</g>
<!-- Node19 -->
<g id="node19" class="node">
<title>Node19</title>
<g id="a_node19"><a xlink:href="mtx44_8h.html" target="_top" xlink:title=" ">
<polygon fill="white" stroke="#666666" points="358.5,-184 255.5,-184 255.5,-165 358.5,-165 358.5,-184"/>
<text text-anchor="middle" x="307" y="-172" font-family="Helvetica,sans-Serif" font-size="10.00">dolphin/mtx/mtx44.h</text>
</a>
</g>
</g>
<!-- Node18&#45;&gt;Node19 -->
<g id="edge23" class="edge">
<title>Node18&#45;&gt;Node19</title>
<path fill="none" stroke="#63b8ff" d="M238.08,-219.51C250.56,-211.54 269.02,-199.75 283.69,-190.38"/>
<polygon fill="#63b8ff" stroke="#63b8ff" points="285.31,-193.5 291.85,-185.17 281.54,-187.6 285.31,-193.5"/>
</g>
<!-- Node20 -->
<g id="node20" class="node">
<title>Node20</title>
<g id="a_node20"><a xlink:href="quat_8h.html" target="_top" xlink:title=" ">
<polygon fill="white" stroke="#666666" points="237.5,-184 142.5,-184 142.5,-165 237.5,-165 237.5,-184"/>
<text text-anchor="middle" x="190" y="-172" font-family="Helvetica,sans-Serif" font-size="10.00">dolphin/mtx/quat.h</text>
</a>
</g>
</g>
<!-- Node18&#45;&gt;Node20 -->
<g id="edge25" class="edge">
<title>Node18&#45;&gt;Node20</title>
<path fill="none" stroke="#63b8ff" d="M218.39,-219.75C213.88,-212.73 207.41,-202.64 201.79,-193.87"/>
<polygon fill="#63b8ff" stroke="#63b8ff" points="204.9,-192.24 196.55,-185.72 199.01,-196.02 204.9,-192.24"/>
</g>
<!-- Node19&#45;&gt;Node6 -->
<g id="edge24" class="edge">
<title>Node19&#45;&gt;Node6</title>
<path fill="none" stroke="#63b8ff" d="M314.3,-164.65C325.68,-151.31 348.85,-125.94 373,-110 393.31,-96.59 418.32,-85.8 438.84,-78.21"/>
<polygon fill="#63b8ff" stroke="#63b8ff" points="439.75,-81.6 447.99,-74.93 437.39,-75.01 439.75,-81.6"/>
</g>
<!-- Node20&#45;&gt;Node14 -->
<g id="edge26" class="edge">
<title>Node20&#45;&gt;Node14</title>
<path fill="none" stroke="#63b8ff" d="M183.73,-164.75C178.64,-157.66 171.3,-147.42 164.97,-138.59"/>
<polygon fill="#63b8ff" stroke="#63b8ff" points="167.96,-136.76 159.29,-130.67 162.28,-140.84 167.96,-136.76"/>
</g>
<!-- Node22 -->
<g id="node22" class="node">
<title>Node22</title>
<g id="a_node22"><a xlink:href="JKRDisposer_8h.html" target="_top" xlink:title=" ">
<polygon fill="white" stroke="#666666" points="857,-239 699,-239 699,-220 857,-220 857,-239"/>
<text text-anchor="middle" x="778" y="-227" font-family="Helvetica,sans-Serif" font-size="10.00">JSystem/JKernel/JKRDisposer.h</text>
</a>
</g>
</g>
<!-- Node21&#45;&gt;Node22 -->
<g id="edge30" class="edge">
<title>Node21&#45;&gt;Node22</title>
<path fill="none" stroke="#63b8ff" d="M791.64,-280.37C789.46,-272.42 786.16,-260.33 783.35,-250.05"/>
<polygon fill="#63b8ff" stroke="#63b8ff" points="786.78,-249.35 780.77,-240.63 780.03,-251.2 786.78,-249.35"/>
</g>
<!-- Node24 -->
<g id="node24" class="node">
<title>Node24</title>
<g id="a_node24"><a xlink:href="OSMutex_8h.html" target="_top" xlink:title=" ">
<polygon fill="white" stroke="#666666" points="1131,-239 1019,-239 1019,-220 1131,-220 1131,-239"/>
<text text-anchor="middle" x="1075" y="-227" font-family="Helvetica,sans-Serif" font-size="10.00">dolphin/os/OSMutex.h</text>
</a>
</g>
</g>
<!-- Node21&#45;&gt;Node24 -->
<g id="edge33" class="edge">
<title>Node21&#45;&gt;Node24</title>
<path fill="none" stroke="#63b8ff" d="M836.98,-280.05C886.36,-269.77 967.44,-252.89 1021.03,-241.74"/>
<polygon fill="#63b8ff" stroke="#63b8ff" points="1021.46,-245.22 1030.54,-239.76 1020.04,-238.37 1021.46,-245.22"/>
</g>
<!-- Node23 -->
<g id="node23" class="node">
<title>Node23</title>
<g id="a_node23"><a xlink:href="JSUList_8h.html" target="_top" xlink:title=" ">
<polygon fill="white" stroke="#666666" points="846.5,-184 703.5,-184 703.5,-165 846.5,-165 846.5,-184"/>
<text text-anchor="middle" x="775" y="-172" font-family="Helvetica,sans-Serif" font-size="10.00">JSystem/JSupport/JSUList.h</text>
</a>
</g>
</g>
<!-- Node22&#45;&gt;Node23 -->
<g id="edge31" class="edge">
<title>Node22&#45;&gt;Node23</title>
<path fill="none" stroke="#63b8ff" d="M777.5,-219.75C777.14,-213.27 776.62,-204.16 776.15,-195.9"/>
<polygon fill="#63b8ff" stroke="#63b8ff" points="779.65,-195.74 775.59,-185.95 772.66,-196.13 779.65,-195.74"/>
</g>
<!-- Node23&#45;&gt;Node6 -->
<g id="edge32" class="edge">
<title>Node23&#45;&gt;Node6</title>
<path fill="none" stroke="#63b8ff" d="M770.72,-164.87C763.28,-150.87 746.6,-123.44 724,-110 691.96,-90.94 592.12,-77.42 529.92,-70.59"/>
<polygon fill="#63b8ff" stroke="#63b8ff" points="530.59,-67.14 520.28,-69.55 529.85,-74.1 530.59,-67.14"/>
</g>
<!-- Node25 -->
<g id="node25" class="node">
<title>Node25</title>
<g id="a_node25"><a xlink:href="OSThread_8h.html" target="_top" xlink:title=" ">
<polygon fill="white" stroke="#666666" points="996,-184 880,-184 880,-165 996,-165 996,-184"/>
<text text-anchor="middle" x="938" y="-172" font-family="Helvetica,sans-Serif" font-size="10.00">dolphin/os/OSThread.h</text>
</a>
</g>
</g>
<!-- Node24&#45;&gt;Node25 -->
<g id="edge34" class="edge">
<title>Node24&#45;&gt;Node25</title>
<path fill="none" stroke="#63b8ff" d="M1051.76,-219.51C1029.68,-210.97 996.25,-198.03 971.33,-188.4"/>
<polygon fill="#63b8ff" stroke="#63b8ff" points="972.9,-185.25 962.31,-184.9 970.37,-191.78 972.9,-185.25"/>
</g>
<!-- Node26 -->
<g id="node26" class="node">
<title>Node26</title>
<g id="a_node26"><a xlink:href="OSContext_8h.html" target="_top" xlink:title=" ">
<polygon fill="white" stroke="#666666" points="960.5,-129 841.5,-129 841.5,-110 960.5,-110 960.5,-129"/>
<text text-anchor="middle" x="901" y="-117" font-family="Helvetica,sans-Serif" font-size="10.00">dolphin/os/OSContext.h</text>
</a>
</g>
</g>
<!-- Node25&#45;&gt;Node26 -->
<g id="edge35" class="edge">
<title>Node25&#45;&gt;Node26</title>
<path fill="none" stroke="#63b8ff" d="M931.89,-164.75C926.99,-157.73 919.95,-147.64 913.83,-138.87"/>
<polygon fill="#63b8ff" stroke="#63b8ff" points="916.7,-136.88 908.11,-130.68 910.96,-140.89 916.7,-136.88"/>
</g>
<!-- Node26&#45;&gt;Node6 -->
<g id="edge36" class="edge">
<title>Node26&#45;&gt;Node6</title>
<path fill="none" stroke="#63b8ff" d="M841.29,-111.02C758.16,-100.6 608.89,-81.9 530.06,-72.02"/>
<polygon fill="#63b8ff" stroke="#63b8ff" points="530.81,-68.59 520.46,-70.82 529.94,-75.54 530.81,-68.59"/>
</g>
<!-- Node27&#45;&gt;Node4 -->
<g id="edge38" class="edge">
<title>Node27&#45;&gt;Node4</title>
<path fill="none" stroke="#63b8ff" d="M631.81,-280.04C629.73,-266.42 624.6,-239.98 614,-220 608.73,-210.07 600.91,-200.4 593.74,-192.63"/>
<polygon fill="#63b8ff" stroke="#63b8ff" points="596.34,-190.29 586.85,-185.57 591.32,-195.17 596.34,-190.29"/>
</g>
<!-- Node27&#45;&gt;Node9 -->
<g id="edge42" class="edge">
<title>Node27&#45;&gt;Node9</title>
<path fill="none" stroke="#63b8ff" d="M635.5,-280.41C643.03,-254.5 665.67,-176.65 676.33,-139.99"/>
<polygon fill="#63b8ff" stroke="#63b8ff" points="679.59,-141.31 679.03,-130.73 672.87,-139.35 679.59,-141.31"/>
</g>
<!-- Node27&#45;&gt;Node10 -->
<g id="edge41" class="edge">
<title>Node27&#45;&gt;Node10</title>
<path fill="none" stroke="#63b8ff" d="M620.55,-280.12C607.9,-271.1 588.07,-256.95 572.81,-246.06"/>
<polygon fill="#63b8ff" stroke="#63b8ff" points="574.98,-243.31 564.8,-240.35 570.91,-249 574.98,-243.31"/>
</g>
<!-- Node28 -->
<g id="node28" class="node">
<title>Node28</title>
<g id="a_node28"><a xlink:href="OSMessage_8h.html" target="_top" xlink:title=" ">
<polygon fill="white" stroke="#666666" points="1000.5,-239 875.5,-239 875.5,-220 1000.5,-220 1000.5,-239"/>
<text text-anchor="middle" x="938" y="-227" font-family="Helvetica,sans-Serif" font-size="10.00">dolphin/os/OSMessage.h</text>
</a>
</g>
</g>
<!-- Node27&#45;&gt;Node28 -->
<g id="edge39" class="edge">
<title>Node27&#45;&gt;Node28</title>
<path fill="none" stroke="#63b8ff" d="M679.65,-280.05C733.39,-269.74 821.73,-252.8 879.89,-241.65"/>
<polygon fill="#63b8ff" stroke="#63b8ff" points="880.45,-245.1 889.61,-239.78 879.13,-238.23 880.45,-245.1"/>
</g>
<!-- Node28&#45;&gt;Node25 -->
<g id="edge40" class="edge">
<title>Node28&#45;&gt;Node25</title>
<path fill="none" stroke="#63b8ff" d="M938,-219.75C938,-213.27 938,-204.16 938,-195.9"/>
<polygon fill="#63b8ff" stroke="#63b8ff" points="941.5,-195.96 938,-185.96 934.5,-195.96 941.5,-195.96"/>
</g>
</g>
</svg>
