<?xml version="1.0" encoding="UTF-8" standalone="no"?>
<!DOCTYPE svg PUBLIC "-//W3C//DTD SVG 1.1//EN"
 "http://www.w3.org/Graphics/SVG/1.1/DTD/svg11.dtd">
<!-- Generated by graphviz version 7.0.5 (20221223.1930)
 -->
<!-- Title: include/JSystem/JUtility/JUTResFont.h Pages: 1 -->
<svg width="376pt" height="368pt"
 viewBox="0.00 0.00 376.00 368.00" xmlns="http://www.w3.org/2000/svg" xmlns:xlink="http://www.w3.org/1999/xlink">
<g id="graph0" class="graph" transform="scale(1 1) rotate(0) translate(4 364)">
<title>include/JSystem/JUtility/JUTResFont.h</title>
<!-- Node1 -->
<g id="node1" class="node">
<title>Node1</title>
<g id="a_node1"><a xlink:title=" ">
<polygon fill="#999999" stroke="#666666" points="316,-360 194,-360 194,-330 316,-330 316,-360"/>
<text text-anchor="start" x="202" y="-348" font-family="Helvetica,sans-Serif" font-size="10.00">include/JSystem/JUtility</text>
<text text-anchor="middle" x="255" y="-337" font-family="Helvetica,sans-Serif" font-size="10.00">/JUTResFont.h</text>
</a>
</g>
</g>
<!-- Node2 -->
<g id="node2" class="node">
<title>Node2</title>
<g id="a_node2"><a xlink:href="JUTFont_8h.html" target="_top" xlink:title=" ">
<polygon fill="white" stroke="#666666" points="275.5,-294 138.5,-294 138.5,-275 275.5,-275 275.5,-294"/>
<text text-anchor="middle" x="207" y="-282" font-family="Helvetica,sans-Serif" font-size="10.00">JSystem/JUtility/JUTFont.h</text>
</a>
</g>
</g>
<!-- Node1&#45;&gt;Node2 -->
<g id="edge1" class="edge">
<title>Node1&#45;&gt;Node2</title>
<path fill="none" stroke="#63b8ff" d="M243.13,-329.54C236.52,-321.48 228.23,-311.38 221.27,-302.89"/>
<polygon fill="#63b8ff" stroke="#63b8ff" points="224.13,-300.86 215.08,-295.35 218.72,-305.3 224.13,-300.86"/>
</g>
<!-- Node8 -->
<g id="node8" class="node">
<title>Node8</title>
<g id="a_node8"><a xlink:href="GXEnum_8h.html" target="_top" xlink:title=" ">
<polygon fill="white" stroke="#666666" points="368,-129 258,-129 258,-110 368,-110 368,-129"/>
<text text-anchor="middle" x="313" y="-117" font-family="Helvetica,sans-Serif" font-size="10.00">dolphin/gx/GXEnum.h</text>
</a>
</g>
</g>
<!-- Node1&#45;&gt;Node8 -->
<g id="edge14" class="edge">
<title>Node1&#45;&gt;Node8</title>
<path fill="none" stroke="#63b8ff" d="M265.48,-329.87C272.1,-320.23 280.28,-306.93 285,-294 304.41,-240.87 310.39,-173.7 312.21,-140.69"/>
<polygon fill="#63b8ff" stroke="#63b8ff" points="315.7,-141.13 312.67,-130.97 308.7,-140.8 315.7,-141.13"/>
</g>
<!-- Node3 -->
<g id="node3" class="node">
<title>Node3</title>
<g id="a_node3"><a xlink:href="TColor_8h.html" target="_top" xlink:title=" ">
<polygon fill="white" stroke="#666666" points="270.5,-239 143.5,-239 143.5,-220 270.5,-220 270.5,-239"/>
<text text-anchor="middle" x="207" y="-227" font-family="Helvetica,sans-Serif" font-size="10.00">JSystem/JUtility/TColor.h</text>
</a>
</g>
</g>
<!-- Node2&#45;&gt;Node3 -->
<g id="edge2" class="edge">
<title>Node2&#45;&gt;Node3</title>
<path fill="none" stroke="#63b8ff" d="M207,-274.75C207,-268.27 207,-259.16 207,-250.9"/>
<polygon fill="#63b8ff" stroke="#63b8ff" points="210.5,-250.96 207,-240.96 203.5,-250.96 210.5,-250.96"/>
</g>
<!-- Node10 -->
<g id="node10" class="node">
<title>Node10</title>
<g id="a_node10"><a xlink:href="string_8h.html" target="_top" xlink:title=" ">
<polygon fill="white" stroke="#666666" points="102,-239 54,-239 54,-220 102,-220 102,-239"/>
<text text-anchor="middle" x="78" y="-227" font-family="Helvetica,sans-Serif" font-size="10.00">string.h</text>
</a>
</g>
</g>
<!-- Node2&#45;&gt;Node10 -->
<g id="edge11" class="edge">
<title>Node2&#45;&gt;Node10</title>
<path fill="none" stroke="#63b8ff" d="M185.12,-274.51C164.51,-266.04 133.41,-253.27 110.02,-243.66"/>
<polygon fill="#63b8ff" stroke="#63b8ff" points="111.54,-240.5 100.96,-239.93 108.88,-246.97 111.54,-240.5"/>
</g>
<!-- Node4 -->
<g id="node4" class="node">
<title>Node4</title>
<g id="a_node4"><a xlink:href="GXStruct_8h.html" target="_top" xlink:title=" ">
<polygon fill="white" stroke="#666666" points="262.5,-184 151.5,-184 151.5,-165 262.5,-165 262.5,-184"/>
<text text-anchor="middle" x="207" y="-172" font-family="Helvetica,sans-Serif" font-size="10.00">dolphin/gx/GXStruct.h</text>
</a>
</g>
</g>
<!-- Node3&#45;&gt;Node4 -->
<g id="edge3" class="edge">
<title>Node3&#45;&gt;Node4</title>
<path fill="none" stroke="#63b8ff" d="M207,-219.75C207,-213.27 207,-204.16 207,-195.9"/>
<polygon fill="#63b8ff" stroke="#63b8ff" points="210.5,-195.96 207,-185.96 203.5,-195.96 210.5,-195.96"/>
</g>
<!-- Node5 -->
<g id="node5" class="node">
<title>Node5</title>
<g id="a_node5"><a xlink:href="global_8h.html" target="_top" xlink:title=" ">
<polygon fill="white" stroke="#666666" points="156,-129 106,-129 106,-110 156,-110 156,-129"/>
<text text-anchor="middle" x="131" y="-117" font-family="Helvetica,sans-Serif" font-size="10.00">global.h</text>
</a>
</g>
</g>
<!-- Node4&#45;&gt;Node5 -->
<g id="edge4" class="edge">
<title>Node4&#45;&gt;Node5</title>
<path fill="none" stroke="#63b8ff" d="M194.11,-164.51C182.9,-156.7 166.43,-145.21 153.12,-135.93"/>
<polygon fill="#63b8ff" stroke="#63b8ff" points="155.15,-133.07 144.94,-130.22 151.14,-138.81 155.15,-133.07"/>
</g>
<!-- Node4&#45;&gt;Node8 -->
<g id="edge7" class="edge">
<title>Node4&#45;&gt;Node8</title>
<path fill="none" stroke="#63b8ff" d="M224.98,-164.51C241.45,-156.27 266.09,-143.96 285.11,-134.45"/>
<polygon fill="#63b8ff" stroke="#63b8ff" points="286.55,-137.64 293.93,-130.03 283.42,-131.38 286.55,-137.64"/>
</g>
<!-- Node9 -->
<g id="node9" class="node">
<title>Node9</title>
<g id="a_node9"><a xlink:href="vi_8h.html" target="_top" xlink:title=" ">
<polygon fill="white" stroke="#666666" points="239.5,-129 174.5,-129 174.5,-110 239.5,-110 239.5,-129"/>
<text text-anchor="middle" x="207" y="-117" font-family="Helvetica,sans-Serif" font-size="10.00">dolphin/vi.h</text>
</a>
</g>
</g>
<!-- Node4&#45;&gt;Node9 -->
<g id="edge9" class="edge">
<title>Node4&#45;&gt;Node9</title>
<path fill="none" stroke="#63b8ff" d="M207,-164.75C207,-158.27 207,-149.16 207,-140.9"/>
<polygon fill="#63b8ff" stroke="#63b8ff" points="210.5,-140.96 207,-130.96 203.5,-140.96 210.5,-140.96"/>
</g>
<!-- Node6 -->
<g id="node6" class="node">
<title>Node6</title>
<g id="a_node6"><a xlink:href="types_8h.html" target="_top" xlink:title=" ">
<polygon fill="white" stroke="#666666" points="217.5,-74 136.5,-74 136.5,-55 217.5,-55 217.5,-74"/>
<text text-anchor="middle" x="177" y="-62" font-family="Helvetica,sans-Serif" font-size="10.00">dolphin/types.h</text>
</a>
</g>
</g>
<!-- Node5&#45;&gt;Node6 -->
<g id="edge5" class="edge">
<title>Node5&#45;&gt;Node6</title>
<path fill="none" stroke="#63b8ff" d="M138.6,-109.75C144.88,-102.5 154.01,-91.98 161.8,-83.02"/>
<polygon fill="#63b8ff" stroke="#63b8ff" points="164.34,-85.43 168.25,-75.59 159.05,-80.84 164.34,-85.43"/>
</g>
<!-- Node7 -->
<g id="node7" class="node">
<title>Node7</title>
<g id="a_node7"><a xlink:href="stddef_8h.html" target="_top" xlink:title=" ">
<polygon fill="white" stroke="#666666" points="137.5,-19 86.5,-19 86.5,0 137.5,0 137.5,-19"/>
<text text-anchor="middle" x="112" y="-7" font-family="Helvetica,sans-Serif" font-size="10.00">stddef.h</text>
</a>
</g>
</g>
<!-- Node6&#45;&gt;Node7 -->
<g id="edge6" class="edge">
<title>Node6&#45;&gt;Node7</title>
<path fill="none" stroke="#63b8ff" d="M165.97,-54.51C156.58,-46.85 142.85,-35.66 131.59,-26.47"/>
<polygon fill="#63b8ff" stroke="#63b8ff" points="134,-23.92 124.04,-20.31 129.57,-29.35 134,-23.92"/>
</g>
<!-- Node8&#45;&gt;Node6 -->
<g id="edge8" class="edge">
<title>Node8&#45;&gt;Node6</title>
<path fill="none" stroke="#63b8ff" d="M289.93,-109.51C268.11,-101.01 235.12,-88.15 210.42,-78.53"/>
<polygon fill="#63b8ff" stroke="#63b8ff" points="211.73,-75.28 201.14,-74.91 209.19,-81.8 211.73,-75.28"/>
</g>
<!-- Node9&#45;&gt;Node6 -->
<g id="edge10" class="edge">
<title>Node9&#45;&gt;Node6</title>
<path fill="none" stroke="#63b8ff" d="M202.05,-109.75C198.16,-102.88 192.61,-93.08 187.72,-84.45"/>
<polygon fill="#63b8ff" stroke="#63b8ff" points="190.78,-82.74 182.81,-75.76 184.69,-86.19 190.78,-82.74"/>
</g>
<!-- Node10&#45;&gt;Node7 -->
<g id="edge12" class="edge">
<title>Node10&#45;&gt;Node7</title>
<path fill="none" stroke="#63b8ff" d="M79.37,-219.68C84.38,-187.57 101.73,-76.33 108.88,-30.49"/>
<polygon fill="#63b8ff" stroke="#63b8ff" points="112.33,-31.1 110.41,-20.68 105.41,-30.02 112.33,-31.1"/>
</g>
<!-- Node11 -->
<g id="node11" class="node">
<title>Node11</title>
<g id="a_node11"><a xlink:href="extras_8h.html" target="_top" xlink:title=" ">
<polygon fill="white" stroke="#666666" points="50,-184 0,-184 0,-165 50,-165 50,-184"/>
<text text-anchor="middle" x="25" y="-172" font-family="Helvetica,sans-Serif" font-size="10.00">extras.h</text>
</a>
</g>
</g>
<!-- Node10&#45;&gt;Node11 -->
<g id="edge13" class="edge">
<title>Node10&#45;&gt;Node11</title>
<path fill="none" stroke="#63b8ff" d="M69.25,-219.75C61.85,-212.35 51.04,-201.54 41.95,-192.45"/>
<polygon fill="#63b8ff" stroke="#63b8ff" points="44.56,-190.11 35.01,-185.51 39.61,-195.06 44.56,-190.11"/>
</g>
</g>
</svg>
