<?xml version="1.0" encoding="UTF-8" standalone="no"?>
<!DOCTYPE svg PUBLIC "-//W3C//DTD SVG 1.1//EN"
 "http://www.w3.org/Graphics/SVG/1.1/DTD/svg11.dtd">
<!-- Generated by graphviz version 2.46.1 (20210215.1649)
 -->
<!-- Title: include/JSystem/JUtility/JUTXfb/JUTXfb.h Pages: 1 -->
<!--zoomable 229 -->
<svg id="main" version="1.1" xmlns="http://www.w3.org/2000/svg" xmlns:xlink="http://www.w3.org/1999/xlink" xml:space="preserve" onload="init(evt)">
<style type="text/css"><![CDATA[
.edge:hover path { stroke: red; }
.edge:hover polygon { stroke: red; fill: red; }
]]></style>
<script type="text/javascript"><![CDATA[
var edges = document.getElementsByTagName('g');
if (edges && edges.length) {
  for (var i=0;i<edges.length;i++) {
    if (edges[i].id.substr(0,4)=='edge') {
      edges[i].setAttribute('class','edge');
    }
  }
}
]]></script>
        <defs>
                <circle id="rim" cx="0" cy="0" r="7"/>
                <circle id="rim2" cx="0" cy="0" r="3.5"/>
                <g id="zoomPlus">
                        <use xlink:href="#rim" fill="#404040">
                                <set attributeName="fill" to="#808080" begin="zoomplus.mouseover" end="zoomplus.mouseout"/>
                        </use>
                        <path d="M-4,0h8M0,-4v8" fill="none" stroke="white" stroke-width="1.5" pointer-events="none"/>
                </g>
                <g id="zoomMin">
                        <use xlink:href="#rim" fill="#404040">
                                <set attributeName="fill" to="#808080" begin="zoomminus.mouseover" end="zoomminus.mouseout"/>
                        </use>
                        <path d="M-4,0h8" fill="none" stroke="white" stroke-width="1.5" pointer-events="none"/>
                </g>
                <g id="dirArrow">
                        <path fill="none" stroke="white" stroke-width="1.5" d="M0,-3.0v7 M-2.5,-0.5L0,-3.0L2.5,-0.5"/>
                </g>
               <g id="resetDef">
                       <use xlink:href="#rim2" fill="#404040">
                               <set attributeName="fill" to="#808080" begin="reset.mouseover" end="reset.mouseout"/>
                       </use>
               </g>
        </defs>

<script type="text/javascript">
var viewWidth = 6163;
var viewHeight = 229;
var sectionId = 'dynsection-1';
</script>
<script xlink:href="svgpan.js"/>
<svg id="graph" class="graph">
<g id="viewport">
<title>include/JSystem/JUtility/JUTXfb/JUTXfb.h</title>
<polygon fill="white" stroke="transparent" points="-4,4 -4,-225 6158.5,-225 6158.5,4 -4,4"/>
<!-- Node1 -->
<g id="node1" class="node">
<title>Node1</title>
<g id="a_node1"><a xlink:title=" ">
<polygon fill="#bfbfbf" stroke="black" points="252,-190.5 252,-220.5 374,-220.5 374,-190.5 252,-190.5"/>
<text text-anchor="start" x="260" y="-208.5" font-family="Helvetica,sans-Serif" font-size="10.00">include/JSystem/JUtility</text>
<text text-anchor="middle" x="313" y="-197.5" font-family="Helvetica,sans-Serif" font-size="10.00">/JUTXfb/JUTXfb.h</text>
</a>
</g>
</g>
<!-- Node2 -->
<g id="node2" class="node">
<title>Node2</title>
<g id="a_node2"><a xlink:href="m__Do__Reset_8cpp.html" target="_top" xlink:title=" ">
<polygon fill="white" stroke="black" points="0,-6 0,-25 136,-25 136,-6 0,-6"/>
<text text-anchor="middle" x="68" y="-13" font-family="Helvetica,sans-Serif" font-size="10.00">src/m_Do/m_Do_Reset.cpp</text>
</a>
</g>
</g>
<!-- Node1&#45;&gt;Node2 -->
<g id="edge1" class="edge">
<title>Node1&#45;&gt;Node2</title>
<path fill="none" stroke="midnightblue" d="M286.34,-184.04C233.23,-143.29 116.2,-53.49 79.35,-25.21"/>
<polygon fill="midnightblue" stroke="midnightblue" points="284.52,-187.06 294.59,-190.37 288.78,-181.5 284.52,-187.06"/>
</g>
<!-- Node3 -->
<g id="node3" class="node">
<title>Node3</title>
<g id="a_node3"><a xlink:href="JUTXfb_8cpp.html" target="_top" xlink:title=" ">
<polygon fill="white" stroke="black" points="154,-0.5 154,-30.5 260,-30.5 260,-0.5 154,-0.5"/>
<text text-anchor="start" x="162" y="-18.5" font-family="Helvetica,sans-Serif" font-size="10.00">libs/JSystem/JUtility</text>
<text text-anchor="middle" x="207" y="-7.5" font-family="Helvetica,sans-Serif" font-size="10.00">/JUTXfb.cpp</text>
</a>
</g>
</g>
<!-- Node1&#45;&gt;Node3 -->
<g id="edge2" class="edge">
<title>Node1&#45;&gt;Node3</title>
<path fill="none" stroke="midnightblue" d="M299.88,-181.23C277.59,-141.71 233.02,-62.65 214.92,-30.54"/>
<polygon fill="midnightblue" stroke="midnightblue" points="297.07,-183.38 305.03,-190.37 303.17,-179.94 297.07,-183.38"/>
</g>
<!-- Node4 -->
<g id="node4" class="node">
<title>Node4</title>
<g id="a_node4"><a xlink:href="m__Do__Reset_8h.html" target="_top" xlink:title=" ">
<polygon fill="white" stroke="black" points="526.5,-67.5 526.5,-97.5 661.5,-97.5 661.5,-67.5 526.5,-67.5"/>
<text text-anchor="start" x="534.5" y="-85.5" font-family="Helvetica,sans-Serif" font-size="10.00">include/m_Do/m_Do_Reset</text>
<text text-anchor="middle" x="594" y="-74.5" font-family="Helvetica,sans-Serif" font-size="10.00">/m_Do_Reset.h</text>
</a>
</g>
</g>
<!-- Node1&#45;&gt;Node4 -->
<g id="edge3" class="edge">
<title>Node1&#45;&gt;Node4</title>
<path fill="none" stroke="midnightblue" d="M355.13,-186.36C411.53,-162.07 510.37,-119.51 561.42,-97.53"/>
<polygon fill="midnightblue" stroke="midnightblue" points="353.58,-183.21 345.78,-190.38 356.35,-189.64 353.58,-183.21"/>
</g>
<!-- Node11 -->
<g id="node11" class="node">
<title>Node11</title>
<g id="a_node11"><a xlink:href="variables_8h.html" target="_top" xlink:title=" ">
<polygon fill="white" stroke="black" points="1845.5,-134.5 1845.5,-153.5 1942.5,-153.5 1942.5,-134.5 1845.5,-134.5"/>
<text text-anchor="middle" x="1894" y="-141.5" font-family="Helvetica,sans-Serif" font-size="10.00">include/variables.h</text>
</a>
</g>
</g>
<!-- Node1&#45;&gt;Node11 -->
<g id="edge10" class="edge">
<title>Node1&#45;&gt;Node11</title>
<path fill="none" stroke="midnightblue" d="M384.11,-201.82C654.82,-191.64 1617.31,-155.41 1845.31,-146.83"/>
<polygon fill="midnightblue" stroke="midnightblue" points="383.87,-198.33 374.01,-202.2 384.13,-205.33 383.87,-198.33"/>
</g>
<!-- Node5 -->
<g id="node5" class="node">
<title>Node5</title>
<g id="a_node5"><a xlink:href="d__com__inf__game_8cpp.html" target="_top" xlink:title=" ">
<polygon fill="white" stroke="black" points="278.5,-0.5 278.5,-30.5 397.5,-30.5 397.5,-0.5 278.5,-0.5"/>
<text text-anchor="start" x="286.5" y="-18.5" font-family="Helvetica,sans-Serif" font-size="10.00">src/d/d_com/d_com_inf</text>
<text text-anchor="middle" x="338" y="-7.5" font-family="Helvetica,sans-Serif" font-size="10.00">_game.cpp</text>
</a>
</g>
</g>
<!-- Node4&#45;&gt;Node5 -->
<g id="edge4" class="edge">
<title>Node4&#45;&gt;Node5</title>
<path fill="none" stroke="midnightblue" d="M528.95,-64.98C487.14,-54.37 433.39,-40.72 393.58,-30.61"/>
<polygon fill="midnightblue" stroke="midnightblue" points="528.21,-68.41 538.77,-67.48 529.94,-61.62 528.21,-68.41"/>
</g>
<!-- Node6 -->
<g id="node6" class="node">
<title>Node6</title>
<g id="a_node6"><a xlink:href="d__stage_8cpp.html" target="_top" xlink:title=" ">
<polygon fill="white" stroke="black" points="416,-6 416,-25 510,-25 510,-6 416,-6"/>
<text text-anchor="middle" x="463" y="-13" font-family="Helvetica,sans-Serif" font-size="10.00">src/d/d_stage.cpp</text>
</a>
</g>
</g>
<!-- Node4&#45;&gt;Node6 -->
<g id="edge5" class="edge">
<title>Node4&#45;&gt;Node6</title>
<path fill="none" stroke="midnightblue" d="M556.32,-62.8C531.2,-50.34 499.39,-34.56 480.14,-25.01"/>
<polygon fill="midnightblue" stroke="midnightblue" points="555.06,-66.09 565.57,-67.4 558.17,-59.82 555.06,-66.09"/>
</g>
<!-- Node7 -->
<g id="node7" class="node">
<title>Node7</title>
<g id="a_node7"><a xlink:href="m__Do__controller__pad_8cpp.html" target="_top" xlink:title=" ">
<polygon fill="white" stroke="black" points="528,-0.5 528,-30.5 660,-30.5 660,-0.5 528,-0.5"/>
<text text-anchor="start" x="536" y="-18.5" font-family="Helvetica,sans-Serif" font-size="10.00">src/m_Do/m_Do_controller</text>
<text text-anchor="middle" x="594" y="-7.5" font-family="Helvetica,sans-Serif" font-size="10.00">_pad.cpp</text>
</a>
</g>
</g>
<!-- Node4&#45;&gt;Node7 -->
<g id="edge6" class="edge">
<title>Node4&#45;&gt;Node7</title>
<path fill="none" stroke="midnightblue" d="M594,-57.11C594,-48.15 594,-38.32 594,-30.58"/>
<polygon fill="midnightblue" stroke="midnightblue" points="590.5,-57.4 594,-67.4 597.5,-57.4 590.5,-57.4"/>
</g>
<!-- Node8 -->
<g id="node8" class="node">
<title>Node8</title>
<g id="a_node8"><a xlink:href="m__Do__audio_8cpp.html" target="_top" xlink:title=" ">
<polygon fill="white" stroke="black" points="678,-6 678,-25 812,-25 812,-6 678,-6"/>
<text text-anchor="middle" x="745" y="-13" font-family="Helvetica,sans-Serif" font-size="10.00">src/m_Do/m_Do_audio.cpp</text>
</a>
</g>
</g>
<!-- Node4&#45;&gt;Node8 -->
<g id="edge7" class="edge">
<title>Node4&#45;&gt;Node8</title>
<path fill="none" stroke="midnightblue" d="M636.29,-63.3C665.41,-50.76 702.76,-34.68 725.24,-25.01"/>
<polygon fill="midnightblue" stroke="midnightblue" points="634.57,-60.23 626.76,-67.4 637.33,-66.66 634.57,-60.23"/>
</g>
<!-- Node9 -->
<g id="node9" class="node">
<title>Node9</title>
<g id="a_node9"><a xlink:href="m__Do__machine_8cpp.html" target="_top" xlink:title=" ">
<polygon fill="white" stroke="black" points="830.5,-6 830.5,-25 977.5,-25 977.5,-6 830.5,-6"/>
<text text-anchor="middle" x="904" y="-13" font-family="Helvetica,sans-Serif" font-size="10.00">src/m_Do/m_Do_machine.cpp</text>
</a>
</g>
</g>
<!-- Node4&#45;&gt;Node9 -->
<g id="edge8" class="edge">
<title>Node4&#45;&gt;Node9</title>
<path fill="none" stroke="midnightblue" d="M670.85,-65.39C731.79,-52.61 814.56,-35.25 863.32,-25.03"/>
<polygon fill="midnightblue" stroke="midnightblue" points="669.95,-62 660.88,-67.48 671.39,-68.85 669.95,-62"/>
</g>
<!-- Node10 -->
<g id="node10" class="node">
<title>Node10</title>
<g id="a_node10"><a xlink:href="m__Do__MemCard_8cpp.html" target="_top" xlink:title=" ">
<polygon fill="white" stroke="black" points="996,-6 996,-25 1148,-25 1148,-6 996,-6"/>
<text text-anchor="middle" x="1072" y="-13" font-family="Helvetica,sans-Serif" font-size="10.00">src/m_Do/m_Do_MemCard.cpp</text>
</a>
</g>
</g>
<!-- Node4&#45;&gt;Node10 -->
<g id="edge9" class="edge">
<title>Node4&#45;&gt;Node10</title>
<path fill="none" stroke="midnightblue" d="M672.12,-72.34C751.33,-62.85 877.36,-47.15 986,-31 998.13,-29.2 1011.2,-27.08 1023.39,-25.04"/>
<polygon fill="midnightblue" stroke="midnightblue" points="671.26,-68.92 661.74,-73.58 672.09,-75.87 671.26,-68.92"/>
</g>
<!-- Node12 -->
<g id="node12" class="node">
<title>Node12</title>
<g id="a_node12"><a xlink:href="global_8h.html" target="_top" xlink:title=" ">
<polygon fill="white" stroke="red" points="3077.5,-73 3077.5,-92 3160.5,-92 3160.5,-73 3077.5,-73"/>
<text text-anchor="middle" x="3119" y="-80" font-family="Helvetica,sans-Serif" font-size="10.00">include/global.h</text>
</a>
</g>
</g>
<!-- Node11&#45;&gt;Node12 -->
<g id="edge11" class="edge">
<title>Node11&#45;&gt;Node12</title>
<path fill="none" stroke="midnightblue" d="M1952.83,-140.14C2166.05,-129.79 2895.31,-94.37 3077.49,-85.52"/>
<polygon fill="midnightblue" stroke="midnightblue" points="1952.6,-136.65 1942.78,-140.63 1952.94,-143.64 1952.6,-136.65"/>
</g>
<!-- Node12&#45;&gt;Node2 -->
<g id="edge56" class="edge">
<title>Node12&#45;&gt;Node2</title>
<path fill="none" stroke="midnightblue" d="M3067.13,-81.15C2695.69,-78.56 446.49,-61.72 145,-31 132.28,-29.7 118.52,-27.4 106.2,-25.01"/>
<polygon fill="midnightblue" stroke="midnightblue" points="3067.29,-84.65 3077.32,-81.22 3067.34,-77.65 3067.29,-84.65"/>
</g>
<!-- Node12&#45;&gt;Node3 -->
<g id="edge57" class="edge">
<title>Node12&#45;&gt;Node3</title>
<path fill="none" stroke="midnightblue" d="M3067.3,-81.24C2705.34,-79.37 556.67,-66.78 269,-31 266.15,-30.65 263.24,-30.21 260.3,-29.72"/>
<polygon fill="midnightblue" stroke="midnightblue" points="3067.47,-84.75 3077.49,-81.3 3067.51,-77.75 3067.47,-84.75"/>
</g>
<!-- Node12&#45;&gt;Node5 -->
<g id="edge16" class="edge">
<title>Node12&#45;&gt;Node5</title>
<path fill="none" stroke="midnightblue" d="M3067.35,-81.12C2715.8,-78.49 680.45,-62 407,-31 403.96,-30.66 400.85,-30.24 397.73,-29.77"/>
<polygon fill="midnightblue" stroke="midnightblue" points="3067.47,-84.63 3077.49,-81.2 3067.52,-77.63 3067.47,-84.63"/>
</g>
<!-- Node12&#45;&gt;Node6 -->
<g id="edge37" class="edge">
<title>Node12&#45;&gt;Node6</title>
<path fill="none" stroke="midnightblue" d="M3067.05,-81.22C2723.1,-79.28 779.77,-66.79 519,-31 509.65,-29.72 499.61,-27.42 490.66,-25.03"/>
<polygon fill="midnightblue" stroke="midnightblue" points="3067.2,-84.72 3077.22,-81.28 3067.24,-77.72 3067.2,-84.72"/>
</g>
<!-- Node12&#45;&gt;Node7 -->
<g id="edge52" class="edge">
<title>Node12&#45;&gt;Node7</title>
<path fill="none" stroke="midnightblue" d="M3067,-81.63C2757.72,-82.25 1157.39,-82.86 669,-31 666.1,-30.69 663.14,-30.33 660.16,-29.92"/>
<polygon fill="midnightblue" stroke="midnightblue" points="3067.46,-85.13 3077.45,-81.61 3067.44,-78.13 3067.46,-85.13"/>
</g>
<!-- Node12&#45;&gt;Node8 -->
<g id="edge53" class="edge">
<title>Node12&#45;&gt;Node8</title>
<path fill="none" stroke="midnightblue" d="M3067.39,-81.53C2770.52,-81.56 1277.66,-79.24 821,-31 808.58,-29.69 795.15,-27.42 783.09,-25.05"/>
<polygon fill="midnightblue" stroke="midnightblue" points="3067.45,-85.04 3077.45,-81.53 3067.44,-78.04 3067.45,-85.04"/>
</g>
<!-- Node12&#45;&gt;Node9 -->
<g id="edge54" class="edge">
<title>Node12&#45;&gt;Node9</title>
<path fill="none" stroke="midnightblue" d="M3067.1,-81.32C2782.52,-80.19 1408.96,-72.62 987,-31 973.46,-29.66 958.81,-27.39 945.63,-25.03"/>
<polygon fill="midnightblue" stroke="midnightblue" points="3067.13,-84.82 3077.15,-81.36 3067.16,-77.82 3067.13,-84.82"/>
</g>
<!-- Node12&#45;&gt;Node10 -->
<g id="edge55" class="edge">
<title>Node12&#45;&gt;Node10</title>
<path fill="none" stroke="midnightblue" d="M3066.99,-81.17C2796,-79.3 1543.32,-68.73 1157,-31 1143.14,-29.65 1128.14,-27.36 1114.64,-25"/>
<polygon fill="midnightblue" stroke="midnightblue" points="3067.3,-84.67 3077.33,-81.24 3067.35,-77.67 3067.3,-84.67"/>
</g>
<!-- Node13 -->
<g id="node13" class="node">
<title>Node13</title>
<g id="a_node13"><a xlink:href="d__a__horse__static_8cpp.html" target="_top" xlink:title=" ">
<polygon fill="white" stroke="black" points="3066.5,-0.5 3066.5,-30.5 3171.5,-30.5 3171.5,-0.5 3066.5,-0.5"/>
<text text-anchor="start" x="3074.5" y="-18.5" font-family="Helvetica,sans-Serif" font-size="10.00">src/d/d_a/d_a_horse</text>
<text text-anchor="middle" x="3119" y="-7.5" font-family="Helvetica,sans-Serif" font-size="10.00">_static.cpp</text>
</a>
</g>
</g>
<!-- Node12&#45;&gt;Node13 -->
<g id="edge12" class="edge">
<title>Node12&#45;&gt;Node13</title>
<path fill="none" stroke="midnightblue" d="M3119,-62.41C3119,-52.22 3119,-39.9 3119,-30.59"/>
<polygon fill="midnightblue" stroke="midnightblue" points="3115.5,-62.73 3119,-72.73 3122.5,-62.73 3115.5,-62.73"/>
</g>
<!-- Node14 -->
<g id="node14" class="node">
<title>Node14</title>
<g id="a_node14"><a xlink:href="d__a__item__static_8cpp.html" target="_top" xlink:title=" ">
<polygon fill="white" stroke="black" points="3190,-0.5 3190,-30.5 3290,-30.5 3290,-0.5 3190,-0.5"/>
<text text-anchor="start" x="3198" y="-18.5" font-family="Helvetica,sans-Serif" font-size="10.00">src/d/d_a/d_a_item</text>
<text text-anchor="middle" x="3240" y="-7.5" font-family="Helvetica,sans-Serif" font-size="10.00">_static.cpp</text>
</a>
</g>
</g>
<!-- Node12&#45;&gt;Node14 -->
<g id="edge13" class="edge">
<title>Node12&#45;&gt;Node14</title>
<path fill="none" stroke="midnightblue" d="M3144.31,-67.9C3164.67,-56.97 3193.18,-41.65 3213.77,-30.59"/>
<polygon fill="midnightblue" stroke="midnightblue" points="3142.47,-64.92 3135.32,-72.73 3145.78,-71.08 3142.47,-64.92"/>
</g>
<!-- Node15 -->
<g id="node15" class="node">
<title>Node15</title>
<g id="a_node15"><a xlink:href="d__attention_8cpp.html" target="_top" xlink:title=" ">
<polygon fill="white" stroke="black" points="3308.5,-6 3308.5,-25 3415.5,-25 3415.5,-6 3308.5,-6"/>
<text text-anchor="middle" x="3362" y="-13" font-family="Helvetica,sans-Serif" font-size="10.00">src/d/d_attention.cpp</text>
</a>
</g>
</g>
<!-- Node12&#45;&gt;Node15 -->
<g id="edge14" class="edge">
<title>Node12&#45;&gt;Node15</title>
<path fill="none" stroke="midnightblue" d="M3160.78,-70.32C3208.77,-57.49 3286.44,-36.71 3329.91,-25.08"/>
<polygon fill="midnightblue" stroke="midnightblue" points="3159.77,-66.97 3151.02,-72.94 3161.58,-73.73 3159.77,-66.97"/>
</g>
<!-- Node16 -->
<g id="node16" class="node">
<title>Node16</title>
<g id="a_node16"><a xlink:href="d__bg__s__poly__pass__chk_8cpp.html" target="_top" xlink:title=" ">
<polygon fill="white" stroke="black" points="3433.5,-0.5 3433.5,-30.5 3552.5,-30.5 3552.5,-0.5 3433.5,-0.5"/>
<text text-anchor="start" x="3441.5" y="-18.5" font-family="Helvetica,sans-Serif" font-size="10.00">src/d/d_bg/d_bg_s_poly</text>
<text text-anchor="middle" x="3493" y="-7.5" font-family="Helvetica,sans-Serif" font-size="10.00">_pass_chk.cpp</text>
</a>
</g>
</g>
<!-- Node12&#45;&gt;Node16 -->
<g id="edge15" class="edge">
<title>Node12&#45;&gt;Node16</title>
<path fill="none" stroke="midnightblue" d="M3170.82,-73.7C3231.78,-64.35 3335.98,-47.83 3425,-31 3427.73,-30.48 3430.51,-29.94 3433.33,-29.39"/>
<polygon fill="midnightblue" stroke="midnightblue" points="3170.04,-70.28 3160.68,-75.25 3171.1,-77.2 3170.04,-70.28"/>
</g>
<!-- Node17 -->
<g id="node17" class="node">
<title>Node17</title>
<g id="a_node17"><a xlink:href="d__file__sel__info_8cpp.html" target="_top" xlink:title=" ">
<polygon fill="white" stroke="black" points="3570.5,-0.5 3570.5,-30.5 3659.5,-30.5 3659.5,-0.5 3570.5,-0.5"/>
<text text-anchor="start" x="3578.5" y="-18.5" font-family="Helvetica,sans-Serif" font-size="10.00">src/d/d_file/d_file</text>
<text text-anchor="middle" x="3615" y="-7.5" font-family="Helvetica,sans-Serif" font-size="10.00">_sel_info.cpp</text>
</a>
</g>
</g>
<!-- Node12&#45;&gt;Node17 -->
<g id="edge17" class="edge">
<title>Node12&#45;&gt;Node17</title>
<path fill="none" stroke="midnightblue" d="M3170.73,-78.19C3253.81,-72.3 3421.86,-57.99 3562,-31 3564.72,-30.48 3567.5,-29.89 3570.29,-29.25"/>
<polygon fill="midnightblue" stroke="midnightblue" points="3170.28,-74.71 3160.55,-78.9 3170.77,-81.7 3170.28,-74.71"/>
</g>
<!-- Node18 -->
<g id="node18" class="node">
<title>Node18</title>
<g id="a_node18"><a xlink:href="d__item_8cpp.html" target="_top" xlink:title=" ">
<polygon fill="white" stroke="black" points="3677.5,-6 3677.5,-25 3798.5,-25 3798.5,-6 3677.5,-6"/>
<text text-anchor="middle" x="3738" y="-13" font-family="Helvetica,sans-Serif" font-size="10.00">src/d/d_item/d_item.cpp</text>
</a>
</g>
</g>
<!-- Node12&#45;&gt;Node18 -->
<g id="edge18" class="edge">
<title>Node12&#45;&gt;Node18</title>
<path fill="none" stroke="midnightblue" d="M3170.8,-78.75C3268.59,-73.1 3486.94,-58.39 3669,-31 3679.53,-29.42 3690.87,-27.23 3701.26,-25.04"/>
<polygon fill="midnightblue" stroke="midnightblue" points="3170.38,-75.26 3160.59,-79.33 3170.78,-82.25 3170.38,-75.26"/>
</g>
<!-- Node19 -->
<g id="node19" class="node">
<title>Node19</title>
<g id="a_node19"><a xlink:href="d__kankyo__data_8cpp.html" target="_top" xlink:title=" ">
<polygon fill="white" stroke="black" points="3816.5,-0.5 3816.5,-30.5 3943.5,-30.5 3943.5,-0.5 3816.5,-0.5"/>
<text text-anchor="start" x="3824.5" y="-18.5" font-family="Helvetica,sans-Serif" font-size="10.00">src/d/d_kankyo/d_kankyo</text>
<text text-anchor="middle" x="3880" y="-7.5" font-family="Helvetica,sans-Serif" font-size="10.00">_data.cpp</text>
</a>
</g>
</g>
<!-- Node12&#45;&gt;Node19 -->
<g id="edge19" class="edge">
<title>Node12&#45;&gt;Node19</title>
<path fill="none" stroke="midnightblue" d="M3171.03,-79.92C3286.25,-75.92 3571.48,-63.35 3808,-31 3810.78,-30.62 3813.61,-30.2 3816.47,-29.74"/>
<polygon fill="midnightblue" stroke="midnightblue" points="3170.62,-76.43 3160.74,-80.27 3170.85,-83.43 3170.62,-76.43"/>
</g>
<!-- Node20 -->
<g id="node20" class="node">
<title>Node20</title>
<g id="a_node20"><a xlink:href="d__kankyo__rain_8cpp.html" target="_top" xlink:title=" ">
<polygon fill="white" stroke="black" points="3961.5,-0.5 3961.5,-30.5 4088.5,-30.5 4088.5,-0.5 3961.5,-0.5"/>
<text text-anchor="start" x="3969.5" y="-18.5" font-family="Helvetica,sans-Serif" font-size="10.00">src/d/d_kankyo/d_kankyo</text>
<text text-anchor="middle" x="4025" y="-7.5" font-family="Helvetica,sans-Serif" font-size="10.00">_rain.cpp</text>
</a>
</g>
</g>
<!-- Node12&#45;&gt;Node20 -->
<g id="edge20" class="edge">
<title>Node12&#45;&gt;Node20</title>
<path fill="none" stroke="midnightblue" d="M3171.03,-80.84C3302.58,-78.65 3658.9,-69.33 3953,-31 3955.78,-30.64 3958.62,-30.23 3961.48,-29.79"/>
<polygon fill="midnightblue" stroke="midnightblue" points="3170.79,-77.35 3160.85,-81.01 3170.9,-84.35 3170.79,-77.35"/>
</g>
<!-- Node21 -->
<g id="node21" class="node">
<title>Node21</title>
<g id="a_node21"><a xlink:href="d__kankyo__wether_8cpp.html" target="_top" xlink:title=" ">
<polygon fill="white" stroke="black" points="4106.5,-0.5 4106.5,-30.5 4233.5,-30.5 4233.5,-0.5 4106.5,-0.5"/>
<text text-anchor="start" x="4114.5" y="-18.5" font-family="Helvetica,sans-Serif" font-size="10.00">src/d/d_kankyo/d_kankyo</text>
<text text-anchor="middle" x="4170" y="-7.5" font-family="Helvetica,sans-Serif" font-size="10.00">_wether.cpp</text>
</a>
</g>
</g>
<!-- Node12&#45;&gt;Node21 -->
<g id="edge21" class="edge">
<title>Node12&#45;&gt;Node21</title>
<path fill="none" stroke="midnightblue" d="M3170.74,-81.51C3316.96,-80.95 3745.52,-75.34 4098,-31 4100.78,-30.65 4103.62,-30.25 4106.48,-29.82"/>
<polygon fill="midnightblue" stroke="midnightblue" points="3170.69,-78.01 3160.7,-81.54 3170.71,-85.01 3170.69,-78.01"/>
</g>
<!-- Node22 -->
<g id="node22" class="node">
<title>Node22</title>
<g id="a_node22"><a xlink:href="d__kankyo_8cpp.html" target="_top" xlink:title=" ">
<polygon fill="white" stroke="black" points="4251.5,-6 4251.5,-25 4352.5,-25 4352.5,-6 4251.5,-6"/>
<text text-anchor="middle" x="4302" y="-13" font-family="Helvetica,sans-Serif" font-size="10.00">src/d/d_kankyo.cpp</text>
</a>
</g>
</g>
<!-- Node12&#45;&gt;Node22 -->
<g id="edge22" class="edge">
<title>Node12&#45;&gt;Node22</title>
<path fill="none" stroke="midnightblue" d="M3170.74,-80.52C3362.42,-76.69 4031.79,-61.4 4243,-31 4252.61,-29.62 4262.93,-27.36 4272.21,-25.03"/>
<polygon fill="midnightblue" stroke="midnightblue" points="3170.58,-77.02 3160.66,-80.72 3170.72,-84.02 3170.58,-77.02"/>
</g>
<!-- Node23 -->
<g id="node23" class="node">
<title>Node23</title>
<g id="a_node23"><a xlink:href="d__kantera__icon__meter_8cpp.html" target="_top" xlink:title=" ">
<polygon fill="white" stroke="black" points="4370.5,-0.5 4370.5,-30.5 4477.5,-30.5 4477.5,-0.5 4370.5,-0.5"/>
<text text-anchor="start" x="4378.5" y="-18.5" font-family="Helvetica,sans-Serif" font-size="10.00">src/d/d_kantera_icon</text>
<text text-anchor="middle" x="4424" y="-7.5" font-family="Helvetica,sans-Serif" font-size="10.00">_meter.cpp</text>
</a>
</g>
</g>
<!-- Node12&#45;&gt;Node23 -->
<g id="edge23" class="edge">
<title>Node12&#45;&gt;Node23</title>
<path fill="none" stroke="midnightblue" d="M3170.7,-80.7C3374.96,-77.35 4126.15,-63.08 4362,-31 4364.74,-30.63 4367.53,-30.19 4370.35,-29.7"/>
<polygon fill="midnightblue" stroke="midnightblue" points="3170.49,-77.21 3160.54,-80.87 3170.6,-84.21 3170.49,-77.21"/>
</g>
<!-- Node24 -->
<g id="node24" class="node">
<title>Node24</title>
<g id="a_node24"><a xlink:href="d__kyeff2_8cpp.html" target="_top" xlink:title=" ">
<polygon fill="white" stroke="black" points="4495.5,-6 4495.5,-25 4614.5,-25 4614.5,-6 4495.5,-6"/>
<text text-anchor="middle" x="4555" y="-13" font-family="Helvetica,sans-Serif" font-size="10.00">src/d/d_ky/d_kyeff2.cpp</text>
</a>
</g>
</g>
<!-- Node12&#45;&gt;Node24 -->
<g id="edge24" class="edge">
<title>Node12&#45;&gt;Node24</title>
<path fill="none" stroke="midnightblue" d="M3170.8,-80.79C3387.86,-77.62 4225.07,-63.51 4487,-31 4498.02,-29.63 4509.9,-27.37 4520.6,-25.04"/>
<polygon fill="midnightblue" stroke="midnightblue" points="3170.59,-77.29 3160.64,-80.94 3170.69,-84.29 3170.59,-77.29"/>
</g>
<!-- Node25 -->
<g id="node25" class="node">
<title>Node25</title>
<g id="a_node25"><a xlink:href="d__lib_8cpp.html" target="_top" xlink:title=" ">
<polygon fill="white" stroke="black" points="4633,-6 4633,-25 4713,-25 4713,-6 4633,-6"/>
<text text-anchor="middle" x="4673" y="-13" font-family="Helvetica,sans-Serif" font-size="10.00">src/d/d_lib.cpp</text>
</a>
</g>
</g>
<!-- Node12&#45;&gt;Node25 -->
<g id="edge25" class="edge">
<title>Node12&#45;&gt;Node25</title>
<path fill="none" stroke="midnightblue" d="M3170.7,-81.52C3401.06,-81.37 4335.21,-77.79 4624,-31 4632.14,-29.68 4640.84,-27.41 4648.61,-25.04"/>
<polygon fill="midnightblue" stroke="midnightblue" points="3170.58,-78.02 3160.59,-81.53 3170.59,-85.02 3170.58,-78.02"/>
</g>
<!-- Node26 -->
<g id="node26" class="node">
<title>Node26</title>
<g id="a_node26"><a xlink:href="d__meter__button_8cpp.html" target="_top" xlink:title=" ">
<polygon fill="white" stroke="black" points="4731.5,-0.5 4731.5,-30.5 4846.5,-30.5 4846.5,-0.5 4731.5,-0.5"/>
<text text-anchor="start" x="4739.5" y="-18.5" font-family="Helvetica,sans-Serif" font-size="10.00">src/d/d_meter/d_meter</text>
<text text-anchor="middle" x="4789" y="-7.5" font-family="Helvetica,sans-Serif" font-size="10.00">_button.cpp</text>
</a>
</g>
</g>
<!-- Node12&#45;&gt;Node26 -->
<g id="edge26" class="edge">
<title>Node12&#45;&gt;Node26</title>
<path fill="none" stroke="midnightblue" d="M3170.84,-81.13C3410.35,-79.25 4411.4,-69.18 4722,-31 4725.07,-30.62 4728.21,-30.17 4731.37,-29.67"/>
<polygon fill="midnightblue" stroke="midnightblue" points="3170.64,-77.63 3160.67,-81.21 3170.69,-84.63 3170.64,-77.63"/>
</g>
<!-- Node27 -->
<g id="node27" class="node">
<title>Node27</title>
<g id="a_node27"><a xlink:href="d__meter__haihai_8cpp.html" target="_top" xlink:title=" ">
<polygon fill="white" stroke="black" points="4864.5,-0.5 4864.5,-30.5 4979.5,-30.5 4979.5,-0.5 4864.5,-0.5"/>
<text text-anchor="start" x="4872.5" y="-18.5" font-family="Helvetica,sans-Serif" font-size="10.00">src/d/d_meter/d_meter</text>
<text text-anchor="middle" x="4922" y="-7.5" font-family="Helvetica,sans-Serif" font-size="10.00">_haihai.cpp</text>
</a>
</g>
</g>
<!-- Node12&#45;&gt;Node27 -->
<g id="edge27" class="edge">
<title>Node12&#45;&gt;Node27</title>
<path fill="none" stroke="midnightblue" d="M3171.02,-81.3C3422.92,-80.13 4517.65,-72.71 4856,-31 4858.68,-30.67 4861.41,-30.28 4864.16,-29.85"/>
<polygon fill="midnightblue" stroke="midnightblue" points="3170.68,-77.8 3160.69,-81.35 3170.71,-84.8 3170.68,-77.8"/>
</g>
<!-- Node28 -->
<g id="node28" class="node">
<title>Node28</title>
<g id="a_node28"><a xlink:href="d__meter__hakusha_8cpp.html" target="_top" xlink:title=" ">
<polygon fill="white" stroke="black" points="4997.5,-0.5 4997.5,-30.5 5112.5,-30.5 5112.5,-0.5 4997.5,-0.5"/>
<text text-anchor="start" x="5005.5" y="-18.5" font-family="Helvetica,sans-Serif" font-size="10.00">src/d/d_meter/d_meter</text>
<text text-anchor="middle" x="5055" y="-7.5" font-family="Helvetica,sans-Serif" font-size="10.00">_hakusha.cpp</text>
</a>
</g>
</g>
<!-- Node12&#45;&gt;Node28 -->
<g id="edge28" class="edge">
<title>Node12&#45;&gt;Node28</title>
<path fill="none" stroke="midnightblue" d="M3170.72,-81.43C3433.53,-80.85 4622.76,-75.77 4989,-31 4991.68,-30.67 4994.41,-30.29 4997.16,-29.86"/>
<polygon fill="midnightblue" stroke="midnightblue" points="3170.68,-77.93 3160.69,-81.45 3170.7,-84.93 3170.68,-77.93"/>
</g>
<!-- Node29 -->
<g id="node29" class="node">
<title>Node29</title>
<g id="a_node29"><a xlink:href="d__meter__HIO_8cpp.html" target="_top" xlink:title=" ">
<polygon fill="white" stroke="black" points="5130.5,-0.5 5130.5,-30.5 5245.5,-30.5 5245.5,-0.5 5130.5,-0.5"/>
<text text-anchor="start" x="5138.5" y="-18.5" font-family="Helvetica,sans-Serif" font-size="10.00">src/d/d_meter/d_meter</text>
<text text-anchor="middle" x="5188" y="-7.5" font-family="Helvetica,sans-Serif" font-size="10.00">_HIO.cpp</text>
</a>
</g>
</g>
<!-- Node12&#45;&gt;Node29 -->
<g id="edge29" class="edge">
<title>Node12&#45;&gt;Node29</title>
<path fill="none" stroke="midnightblue" d="M3170.83,-81.53C3444.94,-81.51 4728,-78.8 5122,-31 5124.68,-30.68 5127.41,-30.29 5130.16,-29.86"/>
<polygon fill="midnightblue" stroke="midnightblue" points="3170.76,-78.03 3160.76,-81.53 3170.76,-85.03 3170.76,-78.03"/>
</g>
<!-- Node30 -->
<g id="node30" class="node">
<title>Node30</title>
<g id="a_node30"><a xlink:href="d__meter__map_8cpp.html" target="_top" xlink:title=" ">
<polygon fill="white" stroke="black" points="5263.5,-0.5 5263.5,-30.5 5378.5,-30.5 5378.5,-0.5 5263.5,-0.5"/>
<text text-anchor="start" x="5271.5" y="-18.5" font-family="Helvetica,sans-Serif" font-size="10.00">src/d/d_meter/d_meter</text>
<text text-anchor="middle" x="5321" y="-7.5" font-family="Helvetica,sans-Serif" font-size="10.00">_map.cpp</text>
</a>
</g>
</g>
<!-- Node12&#45;&gt;Node30 -->
<g id="edge30" class="edge">
<title>Node12&#45;&gt;Node30</title>
<path fill="none" stroke="midnightblue" d="M3170.57,-81.63C3454.84,-82.13 4833.02,-81.86 5255,-31 5257.68,-30.68 5260.41,-30.3 5263.16,-29.87"/>
<polygon fill="midnightblue" stroke="midnightblue" points="3170.54,-78.13 3160.54,-81.61 3170.53,-85.13 3170.54,-78.13"/>
</g>
<!-- Node31 -->
<g id="node31" class="node">
<title>Node31</title>
<g id="a_node31"><a xlink:href="d__meter__string_8cpp.html" target="_top" xlink:title=" ">
<polygon fill="white" stroke="black" points="5396.5,-0.5 5396.5,-30.5 5511.5,-30.5 5511.5,-0.5 5396.5,-0.5"/>
<text text-anchor="start" x="5404.5" y="-18.5" font-family="Helvetica,sans-Serif" font-size="10.00">src/d/d_meter/d_meter</text>
<text text-anchor="middle" x="5454" y="-7.5" font-family="Helvetica,sans-Serif" font-size="10.00">_string.cpp</text>
</a>
</g>
</g>
<!-- Node12&#45;&gt;Node31 -->
<g id="edge31" class="edge">
<title>Node12&#45;&gt;Node31</title>
<path fill="none" stroke="midnightblue" d="M3170.93,-81.71C3466.39,-82.72 4938.29,-84.89 5388,-31 5390.68,-30.68 5393.41,-30.3 5396.16,-29.87"/>
<polygon fill="midnightblue" stroke="midnightblue" points="3170.93,-78.21 3160.92,-81.68 3170.9,-85.21 3170.93,-78.21"/>
</g>
<!-- Node32 -->
<g id="node32" class="node">
<title>Node32</title>
<g id="a_node32"><a xlink:href="d__meter_8cpp.html" target="_top" xlink:title=" ">
<polygon fill="white" stroke="black" points="5529.5,-6 5529.5,-25 5624.5,-25 5624.5,-6 5529.5,-6"/>
<text text-anchor="middle" x="5577" y="-13" font-family="Helvetica,sans-Serif" font-size="10.00">src/d/d_meter.cpp</text>
</a>
</g>
</g>
<!-- Node12&#45;&gt;Node32 -->
<g id="edge32" class="edge">
<title>Node12&#45;&gt;Node32</title>
<path fill="none" stroke="midnightblue" d="M3171.08,-81.13C3499.83,-78.71 5281.12,-64.12 5521,-31 5530.35,-29.71 5540.39,-27.41 5549.34,-25.02"/>
<polygon fill="midnightblue" stroke="midnightblue" points="3170.87,-77.63 3160.89,-81.21 3170.92,-84.63 3170.87,-77.63"/>
</g>
<!-- Node33 -->
<g id="node33" class="node">
<title>Node33</title>
<g id="a_node33"><a xlink:href="d__meter2__draw_8cpp.html" target="_top" xlink:title=" ">
<polygon fill="white" stroke="black" points="5642.5,-0.5 5642.5,-30.5 5767.5,-30.5 5767.5,-0.5 5642.5,-0.5"/>
<text text-anchor="start" x="5650.5" y="-18.5" font-family="Helvetica,sans-Serif" font-size="10.00">src/d/d_meter2/d_meter2</text>
<text text-anchor="middle" x="5705" y="-7.5" font-family="Helvetica,sans-Serif" font-size="10.00">_draw.cpp</text>
</a>
</g>
</g>
<!-- Node12&#45;&gt;Node33 -->
<g id="edge33" class="edge">
<title>Node12&#45;&gt;Node33</title>
<path fill="none" stroke="midnightblue" d="M3170.91,-81.74C3484.77,-83 5132.14,-86.82 5634,-31 5636.75,-30.69 5639.55,-30.33 5642.38,-29.93"/>
<polygon fill="midnightblue" stroke="midnightblue" points="3170.75,-78.24 3160.74,-81.7 3170.72,-85.24 3170.75,-78.24"/>
</g>
<!-- Node34 -->
<g id="node34" class="node">
<title>Node34</title>
<g id="a_node34"><a xlink:href="d__meter2__info_8cpp.html" target="_top" xlink:title=" ">
<polygon fill="white" stroke="black" points="5785.5,-0.5 5785.5,-30.5 5910.5,-30.5 5910.5,-0.5 5785.5,-0.5"/>
<text text-anchor="start" x="5793.5" y="-18.5" font-family="Helvetica,sans-Serif" font-size="10.00">src/d/d_meter2/d_meter2</text>
<text text-anchor="middle" x="5848" y="-7.5" font-family="Helvetica,sans-Serif" font-size="10.00">_info.cpp</text>
</a>
</g>
</g>
<!-- Node12&#45;&gt;Node34 -->
<g id="edge34" class="edge">
<title>Node12&#45;&gt;Node34</title>
<path fill="none" stroke="midnightblue" d="M3170.72,-81.09C3518.38,-78.22 5509.19,-60.64 5777,-31 5779.75,-30.7 5782.55,-30.34 5785.38,-29.93"/>
<polygon fill="midnightblue" stroke="midnightblue" points="3170.65,-77.59 3160.68,-81.17 3170.71,-84.59 3170.65,-77.59"/>
</g>
<!-- Node35 -->
<g id="node35" class="node">
<title>Node35</title>
<g id="a_node35"><a xlink:href="d__meter2_8cpp.html" target="_top" xlink:title=" ">
<polygon fill="white" stroke="black" points="5929,-6 5929,-25 6029,-25 6029,-6 5929,-6"/>
<text text-anchor="middle" x="5979" y="-13" font-family="Helvetica,sans-Serif" font-size="10.00">src/d/d_meter2.cpp</text>
</a>
</g>
</g>
<!-- Node12&#45;&gt;Node35 -->
<g id="edge35" class="edge">
<title>Node12&#45;&gt;Node35</title>
<path fill="none" stroke="midnightblue" d="M3170.66,-81.26C3528.93,-79.52 5637.7,-67.76 5920,-31 5929.83,-29.72 5940.4,-27.42 5949.83,-25.03"/>
<polygon fill="midnightblue" stroke="midnightblue" points="3170.56,-77.76 3160.57,-81.31 3170.59,-84.76 3170.56,-77.76"/>
</g>
<!-- Node36 -->
<g id="node36" class="node">
<title>Node36</title>
<g id="a_node36"><a xlink:href="d__save__HIO_8cpp.html" target="_top" xlink:title=" ">
<polygon fill="white" stroke="black" points="6047.5,-0.5 6047.5,-30.5 6154.5,-30.5 6154.5,-0.5 6047.5,-0.5"/>
<text text-anchor="start" x="6055.5" y="-18.5" font-family="Helvetica,sans-Serif" font-size="10.00">src/d/d_save/d_save</text>
<text text-anchor="middle" x="6101" y="-7.5" font-family="Helvetica,sans-Serif" font-size="10.00">_HIO.cpp</text>
</a>
</g>
</g>
<!-- Node12&#45;&gt;Node36 -->
<g id="edge36" class="edge">
<title>Node12&#45;&gt;Node36</title>
<path fill="none" stroke="midnightblue" d="M3170.8,-81.26C3538.09,-79.44 5742.99,-67.1 6038,-31 6041.01,-30.63 6044.08,-30.18 6047.18,-29.67"/>
<polygon fill="midnightblue" stroke="midnightblue" points="3170.7,-77.76 3160.72,-81.31 3170.73,-84.76 3170.7,-77.76"/>
</g>
<!-- Node37 -->
<g id="node37" class="node">
<title>Node37</title>
<g id="a_node37"><a xlink:href="f__ap__game_8cpp.html" target="_top" xlink:title=" ">
<polygon fill="white" stroke="black" points="1166.5,-6 1166.5,-25 1271.5,-25 1271.5,-6 1166.5,-6"/>
<text text-anchor="middle" x="1219" y="-13" font-family="Helvetica,sans-Serif" font-size="10.00">src/f/f_ap_game.cpp</text>
</a>
</g>
</g>
<!-- Node12&#45;&gt;Node37 -->
<g id="edge38" class="edge">
<title>Node12&#45;&gt;Node37</title>
<path fill="none" stroke="midnightblue" d="M3066.89,-81.52C2805.9,-81.38 1639.2,-78.11 1280,-31 1269.96,-29.68 1259.17,-27.41 1249.49,-25.05"/>
<polygon fill="midnightblue" stroke="midnightblue" points="3067.21,-85.02 3077.22,-81.52 3067.22,-78.02 3067.21,-85.02"/>
</g>
<!-- Node38 -->
<g id="node38" class="node">
<title>Node38</title>
<g id="a_node38"><a xlink:href="f__op__actor__tag_8cpp.html" target="_top" xlink:title=" ">
<polygon fill="white" stroke="black" points="1289.5,-0.5 1289.5,-30.5 1396.5,-30.5 1396.5,-0.5 1289.5,-0.5"/>
<text text-anchor="start" x="1297.5" y="-18.5" font-family="Helvetica,sans-Serif" font-size="10.00">src/f/f_op/f_op_actor</text>
<text text-anchor="middle" x="1343" y="-7.5" font-family="Helvetica,sans-Serif" font-size="10.00">_tag.cpp</text>
</a>
</g>
</g>
<!-- Node12&#45;&gt;Node38 -->
<g id="edge39" class="edge">
<title>Node12&#45;&gt;Node38</title>
<path fill="none" stroke="midnightblue" d="M3067.25,-81.37C2817.86,-80.54 1738.4,-74.45 1405,-31 1402.26,-30.64 1399.46,-30.22 1396.65,-29.74"/>
<polygon fill="midnightblue" stroke="midnightblue" points="3067.47,-84.87 3077.48,-81.4 3067.49,-77.87 3067.47,-84.87"/>
</g>
<!-- Node39 -->
<g id="node39" class="node">
<title>Node39</title>
<g id="a_node39"><a xlink:href="f__op__camera_8cpp.html" target="_top" xlink:title=" ">
<polygon fill="white" stroke="black" points="1414.5,-6 1414.5,-25 1549.5,-25 1549.5,-6 1414.5,-6"/>
<text text-anchor="middle" x="1482" y="-13" font-family="Helvetica,sans-Serif" font-size="10.00">src/f/f_op/f_op_camera.cpp</text>
</a>
</g>
</g>
<!-- Node12&#45;&gt;Node39 -->
<g id="edge40" class="edge">
<title>Node12&#45;&gt;Node39</title>
<path fill="none" stroke="midnightblue" d="M3067.03,-80.91C2831.22,-78.07 1860.24,-64.51 1558,-31 1545.72,-29.64 1532.45,-27.38 1520.49,-25.05"/>
<polygon fill="midnightblue" stroke="midnightblue" points="3067.34,-84.41 3077.38,-81.03 3067.42,-77.41 3067.34,-84.41"/>
</g>
<!-- Node40 -->
<g id="node40" class="node">
<title>Node40</title>
<g id="a_node40"><a xlink:href="f__op__camera__mng_8cpp.html" target="_top" xlink:title=" ">
<polygon fill="white" stroke="black" points="1567.5,-0.5 1567.5,-30.5 1684.5,-30.5 1684.5,-0.5 1567.5,-0.5"/>
<text text-anchor="start" x="1575.5" y="-18.5" font-family="Helvetica,sans-Serif" font-size="10.00">src/f/f_op/f_op_camera</text>
<text text-anchor="middle" x="1626" y="-7.5" font-family="Helvetica,sans-Serif" font-size="10.00">_mng.cpp</text>
</a>
</g>
</g>
<!-- Node12&#45;&gt;Node40 -->
<g id="edge41" class="edge">
<title>Node12&#45;&gt;Node40</title>
<path fill="none" stroke="midnightblue" d="M3067.24,-80.88C2844.65,-78.01 1967.74,-64.77 1694,-31 1691,-30.63 1687.95,-30.19 1684.87,-29.71"/>
<polygon fill="midnightblue" stroke="midnightblue" points="3067.3,-84.38 3077.34,-81.01 3067.38,-77.38 3067.3,-84.38"/>
</g>
<!-- Node41 -->
<g id="node41" class="node">
<title>Node41</title>
<g id="a_node41"><a xlink:href="f__op__draw__iter_8cpp.html" target="_top" xlink:title=" ">
<polygon fill="white" stroke="black" points="1703,-0.5 1703,-30.5 1809,-30.5 1809,-0.5 1703,-0.5"/>
<text text-anchor="start" x="1711" y="-18.5" font-family="Helvetica,sans-Serif" font-size="10.00">src/f/f_op/f_op_draw</text>
<text text-anchor="middle" x="1756" y="-7.5" font-family="Helvetica,sans-Serif" font-size="10.00">_iter.cpp</text>
</a>
</g>
</g>
<!-- Node12&#45;&gt;Node41 -->
<g id="edge42" class="edge">
<title>Node12&#45;&gt;Node41</title>
<path fill="none" stroke="midnightblue" d="M3067.33,-80.81C2857.15,-77.81 2065.82,-64.48 1818,-31 1815.15,-30.62 1812.24,-30.16 1809.31,-29.65"/>
<polygon fill="midnightblue" stroke="midnightblue" points="3067.43,-84.31 3077.47,-80.96 3067.52,-77.31 3067.43,-84.31"/>
</g>
<!-- Node42 -->
<g id="node42" class="node">
<title>Node42</title>
<g id="a_node42"><a xlink:href="f__op__draw__tag_8cpp.html" target="_top" xlink:title=" ">
<polygon fill="white" stroke="black" points="1827,-0.5 1827,-30.5 1933,-30.5 1933,-0.5 1827,-0.5"/>
<text text-anchor="start" x="1835" y="-18.5" font-family="Helvetica,sans-Serif" font-size="10.00">src/f/f_op/f_op_draw</text>
<text text-anchor="middle" x="1880" y="-7.5" font-family="Helvetica,sans-Serif" font-size="10.00">_tag.cpp</text>
</a>
</g>
</g>
<!-- Node12&#45;&gt;Node42 -->
<g id="edge43" class="edge">
<title>Node12&#45;&gt;Node42</title>
<path fill="none" stroke="midnightblue" d="M3067.14,-80.56C2869.59,-76.8 2164.21,-61.48 1942,-31 1939.15,-30.61 1936.24,-30.15 1933.32,-29.64"/>
<polygon fill="midnightblue" stroke="midnightblue" points="3067.18,-84.07 3077.25,-80.76 3067.31,-77.07 3067.18,-84.07"/>
</g>
<!-- Node43 -->
<g id="node43" class="node">
<title>Node43</title>
<g id="a_node43"><a xlink:href="f__op__kankyo_8cpp.html" target="_top" xlink:title=" ">
<polygon fill="white" stroke="black" points="1951,-6 1951,-25 2085,-25 2085,-6 1951,-6"/>
<text text-anchor="middle" x="2018" y="-13" font-family="Helvetica,sans-Serif" font-size="10.00">src/f/f_op/f_op_kankyo.cpp</text>
</a>
</g>
</g>
<!-- Node12&#45;&gt;Node43 -->
<g id="edge44" class="edge">
<title>Node12&#45;&gt;Node43</title>
<path fill="none" stroke="midnightblue" d="M3066.98,-81.49C2916.03,-80.91 2465.01,-75.31 2094,-31 2082,-29.57 2069.04,-27.35 2057.28,-25.08"/>
<polygon fill="midnightblue" stroke="midnightblue" points="3067.32,-84.99 3077.33,-81.52 3067.34,-77.99 3067.32,-84.99"/>
</g>
<!-- Node44 -->
<g id="node44" class="node">
<title>Node44</title>
<g id="a_node44"><a xlink:href="f__op__kankyo__mng_8cpp.html" target="_top" xlink:title=" ">
<polygon fill="white" stroke="black" points="2103,-0.5 2103,-30.5 2219,-30.5 2219,-0.5 2103,-0.5"/>
<text text-anchor="start" x="2111" y="-18.5" font-family="Helvetica,sans-Serif" font-size="10.00">src/f/f_op/f_op_kankyo</text>
<text text-anchor="middle" x="2161" y="-7.5" font-family="Helvetica,sans-Serif" font-size="10.00">_mng.cpp</text>
</a>
</g>
</g>
<!-- Node12&#45;&gt;Node44 -->
<g id="edge45" class="edge">
<title>Node12&#45;&gt;Node44</title>
<path fill="none" stroke="midnightblue" d="M3067.25,-81.39C2929.88,-80.49 2544.84,-73.99 2228,-31 2225.05,-30.6 2222.04,-30.14 2219.01,-29.63"/>
<polygon fill="midnightblue" stroke="midnightblue" points="3067.46,-84.89 3077.48,-81.45 3067.5,-77.89 3067.46,-84.89"/>
</g>
<!-- Node45 -->
<g id="node45" class="node">
<title>Node45</title>
<g id="a_node45"><a xlink:href="f__op__msg_8cpp.html" target="_top" xlink:title=" ">
<polygon fill="white" stroke="black" points="2237,-6 2237,-25 2359,-25 2359,-6 2237,-6"/>
<text text-anchor="middle" x="2298" y="-13" font-family="Helvetica,sans-Serif" font-size="10.00">src/f/f_op/f_op_msg.cpp</text>
</a>
</g>
</g>
<!-- Node12&#45;&gt;Node45 -->
<g id="edge46" class="edge">
<title>Node12&#45;&gt;Node45</title>
<path fill="none" stroke="midnightblue" d="M3067.08,-80.46C2944.75,-77.47 2629.05,-66.64 2368,-31 2357.06,-29.51 2345.26,-27.3 2334.53,-25.05"/>
<polygon fill="midnightblue" stroke="midnightblue" points="3067.2,-83.96 3077.28,-80.7 3067.36,-76.96 3067.2,-83.96"/>
</g>
<!-- Node46 -->
<g id="node46" class="node">
<title>Node46</title>
<g id="a_node46"><a xlink:href="f__op__msg__mng_8cpp.html" target="_top" xlink:title=" ">
<polygon fill="white" stroke="black" points="2377,-0.5 2377,-30.5 2481,-30.5 2481,-0.5 2377,-0.5"/>
<text text-anchor="start" x="2385" y="-18.5" font-family="Helvetica,sans-Serif" font-size="10.00">src/f/f_op/f_op_msg</text>
<text text-anchor="middle" x="2429" y="-7.5" font-family="Helvetica,sans-Serif" font-size="10.00">_mng.cpp</text>
</a>
</g>
</g>
<!-- Node12&#45;&gt;Node46 -->
<g id="edge47" class="edge">
<title>Node12&#45;&gt;Node46</title>
<path fill="none" stroke="midnightblue" d="M3066.85,-80.01C2958.69,-76.34 2702.32,-64.56 2490,-31 2487.1,-30.54 2484.13,-30.02 2481.14,-29.45"/>
<polygon fill="midnightblue" stroke="midnightblue" points="3067.04,-83.52 3077.15,-80.35 3067.28,-76.53 3067.04,-83.52"/>
</g>
<!-- Node47 -->
<g id="node47" class="node">
<title>Node47</title>
<g id="a_node47"><a xlink:href="f__op__overlap_8cpp.html" target="_top" xlink:title=" ">
<polygon fill="white" stroke="black" points="2499,-6 2499,-25 2633,-25 2633,-6 2499,-6"/>
<text text-anchor="middle" x="2566" y="-13" font-family="Helvetica,sans-Serif" font-size="10.00">src/f/f_op/f_op_overlap.cpp</text>
</a>
</g>
</g>
<!-- Node12&#45;&gt;Node47 -->
<g id="edge48" class="edge">
<title>Node12&#45;&gt;Node47</title>
<path fill="none" stroke="midnightblue" d="M3067.16,-77.43C2979.37,-70.22 2795.96,-53.8 2642,-31 2630.71,-29.33 2618.53,-27.17 2607.31,-25.03"/>
<polygon fill="midnightblue" stroke="midnightblue" points="3067.13,-80.94 3077.38,-78.26 3067.7,-73.96 3067.13,-80.94"/>
</g>
<!-- Node48 -->
<g id="node48" class="node">
<title>Node48</title>
<g id="a_node48"><a xlink:href="f__op__overlap__mng_8cpp.html" target="_top" xlink:title=" ">
<polygon fill="white" stroke="black" points="2651,-0.5 2651,-30.5 2767,-30.5 2767,-0.5 2651,-0.5"/>
<text text-anchor="start" x="2659" y="-18.5" font-family="Helvetica,sans-Serif" font-size="10.00">src/f/f_op/f_op_overlap</text>
<text text-anchor="middle" x="2709" y="-7.5" font-family="Helvetica,sans-Serif" font-size="10.00">_mng.cpp</text>
</a>
</g>
</g>
<!-- Node12&#45;&gt;Node48 -->
<g id="edge49" class="edge">
<title>Node12&#45;&gt;Node48</title>
<path fill="none" stroke="midnightblue" d="M3067.49,-75.01C3000.23,-66.29 2878.94,-49.7 2776,-31 2773.07,-30.47 2770.08,-29.9 2767.06,-29.31"/>
<polygon fill="midnightblue" stroke="midnightblue" points="3067.04,-78.48 3077.41,-76.29 3067.94,-71.54 3067.04,-78.48"/>
</g>
<!-- Node49 -->
<g id="node49" class="node">
<title>Node49</title>
<g id="a_node49"><a xlink:href="f__op__overlap__req_8cpp.html" target="_top" xlink:title=" ">
<polygon fill="white" stroke="black" points="2785,-0.5 2785,-30.5 2901,-30.5 2901,-0.5 2785,-0.5"/>
<text text-anchor="start" x="2793" y="-18.5" font-family="Helvetica,sans-Serif" font-size="10.00">src/f/f_op/f_op_overlap</text>
<text text-anchor="middle" x="2843" y="-7.5" font-family="Helvetica,sans-Serif" font-size="10.00">_req.cpp</text>
</a>
</g>
</g>
<!-- Node12&#45;&gt;Node49 -->
<g id="edge50" class="edge">
<title>Node12&#45;&gt;Node49</title>
<path fill="none" stroke="midnightblue" d="M3072.69,-70.59C3025.5,-59.48 2952.19,-42.22 2901.13,-30.19"/>
<polygon fill="midnightblue" stroke="midnightblue" points="3072.1,-74.05 3082.63,-72.94 3073.7,-67.24 3072.1,-74.05"/>
</g>
<!-- Node50 -->
<g id="node50" class="node">
<title>Node50</title>
<g id="a_node50"><a xlink:href="f__op__scene_8cpp.html" target="_top" xlink:title=" ">
<polygon fill="white" stroke="black" points="2919.5,-6 2919.5,-25 3048.5,-25 3048.5,-6 2919.5,-6"/>
<text text-anchor="middle" x="2984" y="-13" font-family="Helvetica,sans-Serif" font-size="10.00">src/f/f_op/f_op_scene.cpp</text>
</a>
</g>
</g>
<!-- Node12&#45;&gt;Node50 -->
<g id="edge51" class="edge">
<title>Node12&#45;&gt;Node50</title>
<path fill="none" stroke="midnightblue" d="M3091.88,-68.44C3065.14,-55.57 3025.03,-36.26 3002,-25.17"/>
<polygon fill="midnightblue" stroke="midnightblue" points="3090.54,-71.68 3101.07,-72.87 3093.58,-65.38 3090.54,-71.68"/>
</g>
</g>
</svg>
        <g id="navigator" transform="translate(0 0)" fill="#404254">
                <rect fill="#f2f5e9" fill-opacity="0.5" stroke="#606060" stroke-width=".5" x="0" y="0" width="60" height="60"/>
                <use id="zoomplus" xlink:href="#zoomPlus" x="17" y="9" onmousedown="handleZoom(evt,'in')"/>
                <use id="zoomminus" xlink:href="#zoomMin" x="42" y="9" onmousedown="handleZoom(evt,'out')"/>
                <use id="reset" xlink:href="#resetDef" x="30" y="36" onmousedown="handleReset()"/>
                <g id="arrowUp" xlink:href="#dirArrow" transform="translate(30 24)" onmousedown="handlePan(0,-1)">
                  <use xlink:href="#rim" fill="#404040">
                        <set attributeName="fill" to="#808080" begin="arrowUp.mouseover" end="arrowUp.mouseout"/>
                  </use>
                  <path fill="none" stroke="white" stroke-width="1.5" d="M0,-3.0v7 M-2.5,-0.5L0,-3.0L2.5,-0.5"/>
                </g>
                <g id="arrowRight" xlink:href="#dirArrow" transform="rotate(90) translate(36 -43)" onmousedown="handlePan(1,0)">
                  <use xlink:href="#rim" fill="#404040">
                        <set attributeName="fill" to="#808080" begin="arrowRight.mouseover" end="arrowRight.mouseout"/>
                  </use>
                  <path fill="none" stroke="white" stroke-width="1.5" d="M0,-3.0v7 M-2.5,-0.5L0,-3.0L2.5,-0.5"/>
                </g>
                <g id="arrowDown" xlink:href="#dirArrow" transform="rotate(180) translate(-30 -48)" onmousedown="handlePan(0,1)">
                  <use xlink:href="#rim" fill="#404040">
                        <set attributeName="fill" to="#808080" begin="arrowDown.mouseover" end="arrowDown.mouseout"/>
                  </use>
                  <path fill="none" stroke="white" stroke-width="1.5" d="M0,-3.0v7 M-2.5,-0.5L0,-3.0L2.5,-0.5"/>
                </g>
                <g id="arrowLeft" xlink:href="#dirArrow" transform="rotate(270) translate(-36 17)" onmousedown="handlePan(-1,0)">
                  <use xlink:href="#rim" fill="#404040">
                        <set attributeName="fill" to="#808080" begin="arrowLeft.mouseover" end="arrowLeft.mouseout"/>
                  </use>
                  <path fill="none" stroke="white" stroke-width="1.5" d="M0,-3.0v7 M-2.5,-0.5L0,-3.0L2.5,-0.5"/>
                </g>
        </g>
        <svg viewBox="0 0 15 15" width="100%" height="30px" preserveAspectRatio="xMaxYMin meet">
         <g id="arrow_out" transform="scale(0.3 0.3)">
          <a xlink:href="JUTXfb_8h__dep__incl_org.svg" target="_base">
           <rect id="button" ry="5" rx="5" y="6" x="6" height="38" width="38"
                fill="#f2f5e9" fill-opacity="0.5" stroke="#606060" stroke-width="1.0"/>
           <path id="arrow"
             d="M 11.500037,31.436501 C 11.940474,20.09759 22.043105,11.32322 32.158766,21.979434 L 37.068811,17.246167 C 37.068811,17.246167 37.088388,32 37.088388,32 L 22.160133,31.978069 C 22.160133,31.978069 26.997745,27.140456 26.997745,27.140456 C 18.528582,18.264221 13.291696,25.230495 11.500037,31.436501 z"
             style="fill:#404040;"/>
          </a>
         </g>
        </svg>
</svg>
