<?xml version="1.0" encoding="UTF-8" standalone="no"?>
<!DOCTYPE svg PUBLIC "-//W3C//DTD SVG 1.1//EN"
 "http://www.w3.org/Graphics/SVG/1.1/DTD/svg11.dtd">
<!-- Generated by graphviz version 2.46.0 (20210122.1329)
 -->
<!-- Title: include/m_Do/m_Do_dvd_thread/m_Do_dvd_thread.h Pages: 1 -->
<!--zoomable 374 -->
<svg id="main" version="1.1" xmlns="http://www.w3.org/2000/svg" xmlns:xlink="http://www.w3.org/1999/xlink" xml:space="preserve" onload="init(evt)">
<style type="text/css"><![CDATA[
.edge:hover path { stroke: red; }
.edge:hover polygon { stroke: red; fill: red; }
]]></style>
<script type="text/javascript"><![CDATA[
var edges = document.getElementsByTagName('g');
if (edges && edges.length) {
  for (var i=0;i<edges.length;i++) {
    if (edges[i].id.substr(0,4)=='edge') {
      edges[i].setAttribute('class','edge');
    }
  }
}
]]></script>
        <defs>
                <circle id="rim" cx="0" cy="0" r="7"/>
                <circle id="rim2" cx="0" cy="0" r="3.5"/>
                <g id="zoomPlus">
                        <use xlink:href="#rim" fill="#404040">
                                <set attributeName="fill" to="#808080" begin="zoomplus.mouseover" end="zoomplus.mouseout"/>
                        </use>
                        <path d="M-4,0h8M0,-4v8" fill="none" stroke="white" stroke-width="1.5" pointer-events="none"/>
                </g>
                <g id="zoomMin">
                        <use xlink:href="#rim" fill="#404040">
                                <set attributeName="fill" to="#808080" begin="zoomminus.mouseover" end="zoomminus.mouseout"/>
                        </use>
                        <path d="M-4,0h8" fill="none" stroke="white" stroke-width="1.5" pointer-events="none"/>
                </g>
                <g id="dirArrow">
                        <path fill="none" stroke="white" stroke-width="1.5" d="M0,-3.0v7 M-2.5,-0.5L0,-3.0L2.5,-0.5"/>
                </g>
               <g id="resetDef">
                       <use xlink:href="#rim2" fill="#404040">
                               <set attributeName="fill" to="#808080" begin="reset.mouseover" end="reset.mouseout"/>
                       </use>
               </g>
        </defs>

<script type="text/javascript">
var viewWidth = 4506;
var viewHeight = 374;
var sectionId = 'dynsection-1';
</script>
<script xlink:href="svgpan.js"/>
<svg id="graph" class="graph">
<g id="viewport">
<title>include/m_Do/m_Do_dvd_thread/m_Do_dvd_thread.h</title>
<polygon fill="white" stroke="transparent" points="-4,4 -4,-370 4502.04,-370 4502.04,4 -4,4"/>
<!-- Node1 -->
<g id="node1" class="node">
<title>Node1</title>
<g id="a_node1"><a xlink:title=" ">
<polygon fill="#bfbfbf" stroke="black" points="992.5,-335.5 992.5,-365.5 1130.5,-365.5 1130.5,-335.5 992.5,-335.5"/>
<text text-anchor="start" x="1000.5" y="-353.5" font-family="Helvetica,sans-Serif" font-size="10.00">include/m_Do/m_Do_dvd</text>
<text text-anchor="middle" x="1061.5" y="-342.5" font-family="Helvetica,sans-Serif" font-size="10.00">_thread/m_Do_dvd_thread.h</text>
</a>
</g>
</g>
<!-- Node2 -->
<g id="node2" class="node">
<title>Node2</title>
<g id="a_node2"><a xlink:href="m__Do__main_8cpp.html" target="_top" xlink:title=" ">
<polygon fill="white" stroke="black" points="0,-6 0,-25 131,-25 131,-6 0,-6"/>
<text text-anchor="middle" x="65.5" y="-13" font-family="Helvetica,sans-Serif" font-size="10.00">src/m_Do/m_Do_main.cpp</text>
</a>
</g>
</g>
<!-- Node1&#45;&gt;Node2 -->
<g id="edge1" class="edge">
<title>Node1&#45;&gt;Node2</title>
<path fill="none" stroke="midnightblue" d="M982.33,-347.7C740.44,-341.14 27.5,-313.67 27.5,-217.5 27.5,-217.5 27.5,-217.5 27.5,-148.5 27.5,-100.33 51.16,-45.99 61.14,-25.21"/>
<polygon fill="midnightblue" stroke="midnightblue" points="982.36,-351.2 992.45,-347.97 982.55,-344.2 982.36,-351.2"/>
</g>
<!-- Node3 -->
<g id="node3" class="node">
<title>Node3</title>
<g id="a_node3"><a xlink:href="d__resource_8h.html" target="_top" xlink:title=" ">
<polygon fill="white" stroke="black" points="2108,-268.5 2108,-298.5 2215,-298.5 2215,-268.5 2108,-268.5"/>
<text text-anchor="start" x="2116" y="-286.5" font-family="Helvetica,sans-Serif" font-size="10.00">include/d/d_resource</text>
<text text-anchor="middle" x="2161.5" y="-275.5" font-family="Helvetica,sans-Serif" font-size="10.00">/d_resource.h</text>
</a>
</g>
</g>
<!-- Node1&#45;&gt;Node3 -->
<g id="edge2" class="edge">
<title>Node1&#45;&gt;Node3</title>
<path fill="none" stroke="midnightblue" d="M1140.85,-344.81C1352.95,-332.28 1929.04,-298.24 2107.84,-287.67"/>
<polygon fill="midnightblue" stroke="midnightblue" points="1140.5,-341.33 1130.73,-345.41 1140.92,-348.31 1140.5,-341.33"/>
</g>
<!-- Node4 -->
<g id="node4" class="node">
<title>Node4</title>
<g id="a_node4"><a xlink:href="d__a__alink_8h.html" target="_top" xlink:title=" ">
<polygon fill="white" stroke="black" points="4361,-67.5 4361,-97.5 4480,-97.5 4480,-67.5 4361,-67.5"/>
<text text-anchor="start" x="4369" y="-85.5" font-family="Helvetica,sans-Serif" font-size="10.00">include/d/d_a/d_a_alink</text>
<text text-anchor="middle" x="4420.5" y="-74.5" font-family="Helvetica,sans-Serif" font-size="10.00">/d_a_alink.h</text>
</a>
</g>
</g>
<!-- Node3&#45;&gt;Node4 -->
<g id="edge3" class="edge">
<title>Node3&#45;&gt;Node4</title>
<path fill="none" stroke="midnightblue" d="M2225.15,-281.67C2586.83,-276.67 4369.79,-247.86 4448.5,-165 4466.33,-146.23 4447.27,-115.61 4433.04,-97.73"/>
<polygon fill="midnightblue" stroke="midnightblue" points="2225.07,-278.17 2215.12,-281.81 2225.17,-285.17 2225.07,-278.17"/>
</g>
<!-- Node7 -->
<g id="node7" class="node">
<title>Node7</title>
<g id="a_node7"><a xlink:href="d__com__inf__game_8h.html" target="_top" xlink:title=" ">
<polygon fill="white" stroke="black" points="2088.5,-201.5 2088.5,-231.5 2234.5,-231.5 2234.5,-201.5 2088.5,-201.5"/>
<text text-anchor="start" x="2096.5" y="-219.5" font-family="Helvetica,sans-Serif" font-size="10.00">include/d/d_com/d_com</text>
<text text-anchor="middle" x="2161.5" y="-208.5" font-family="Helvetica,sans-Serif" font-size="10.00">_inf_game/d_com_inf_game.h</text>
</a>
</g>
</g>
<!-- Node3&#45;&gt;Node7 -->
<g id="edge6" class="edge">
<title>Node3&#45;&gt;Node7</title>
<path fill="none" stroke="midnightblue" d="M2161.5,-258.11C2161.5,-249.15 2161.5,-239.32 2161.5,-231.58"/>
<polygon fill="midnightblue" stroke="midnightblue" points="2158,-258.4 2161.5,-268.4 2165,-258.4 2158,-258.4"/>
</g>
<!-- Node5 -->
<g id="node5" class="node">
<title>Node5</title>
<g id="a_node5"><a xlink:href="d__attention_8cpp.html" target="_top" xlink:title=" ">
<polygon fill="white" stroke="black" points="4367,-6 4367,-25 4474,-25 4474,-6 4367,-6"/>
<text text-anchor="middle" x="4420.5" y="-13" font-family="Helvetica,sans-Serif" font-size="10.00">src/d/d_attention.cpp</text>
</a>
</g>
</g>
<!-- Node4&#45;&gt;Node5 -->
<g id="edge4" class="edge">
<title>Node4&#45;&gt;Node5</title>
<path fill="none" stroke="midnightblue" d="M4420.5,-57.25C4420.5,-46.02 4420.5,-33.38 4420.5,-25.19"/>
<polygon fill="midnightblue" stroke="midnightblue" points="4417,-57.4 4420.5,-67.4 4424,-57.4 4417,-57.4"/>
</g>
<!-- Node6 -->
<g id="node6" class="node">
<title>Node6</title>
<g id="a_node6"><a xlink:href="d__a__alink_8cpp.html" target="_top" xlink:title=" ">
<polygon fill="white" stroke="black" points="2576,-6 2576,-25 2695,-25 2695,-6 2576,-6"/>
<text text-anchor="middle" x="2635.5" y="-13" font-family="Helvetica,sans-Serif" font-size="10.00">src/d/d_a/d_a_alink.cpp</text>
</a>
</g>
</g>
<!-- Node4&#45;&gt;Node6 -->
<g id="edge5" class="edge">
<title>Node4&#45;&gt;Node6</title>
<path fill="none" stroke="midnightblue" d="M4350.51,-78.95C4061.52,-68.43 2963.7,-28.45 2695.08,-18.67"/>
<polygon fill="midnightblue" stroke="midnightblue" points="4350.73,-82.46 4360.85,-79.33 4350.99,-75.47 4350.73,-82.46"/>
</g>
<!-- Node7&#45;&gt;Node2 -->
<g id="edge35" class="edge">
<title>Node7&#45;&gt;Node2</title>
<path fill="none" stroke="midnightblue" d="M2078.24,-215.54C1710.77,-215.44 248.36,-212.06 163.5,-165 106.23,-133.24 76.61,-52.24 68.11,-25.34"/>
<polygon fill="midnightblue" stroke="midnightblue" points="2078.28,-219.04 2088.28,-215.54 2078.28,-212.04 2078.28,-219.04"/>
</g>
<!-- Node7&#45;&gt;Node4 -->
<g id="edge42" class="edge">
<title>Node7&#45;&gt;Node4</title>
<path fill="none" stroke="midnightblue" d="M2244.79,-215.23C2649.36,-213.7 4391.55,-204.83 4430.5,-165 4447.84,-147.27 4436.99,-115.99 4428.26,-97.77"/>
<polygon fill="midnightblue" stroke="midnightblue" points="2244.62,-211.73 2234.63,-215.26 2244.65,-218.73 2244.62,-211.73"/>
</g>
<!-- Node7&#45;&gt;Node5 -->
<g id="edge7" class="edge">
<title>Node7&#45;&gt;Node5</title>
<path fill="none" stroke="midnightblue" d="M2244.74,-214.75C2650.08,-210.96 4399.81,-193 4448.5,-165 4489.43,-141.46 4510.86,-109.11 4489.5,-67 4479.43,-47.14 4457.47,-33.22 4441.01,-25.09"/>
<polygon fill="midnightblue" stroke="midnightblue" points="2244.53,-211.25 2234.56,-214.84 2244.59,-218.25 2244.53,-211.25"/>
</g>
<!-- Node8 -->
<g id="node8" class="node">
<title>Node8</title>
<g id="a_node8"><a xlink:href="d__camera_8cpp.html" target="_top" xlink:title=" ">
<polygon fill="white" stroke="black" points="672.5,-6 672.5,-25 774.5,-25 774.5,-6 672.5,-6"/>
<text text-anchor="middle" x="723.5" y="-13" font-family="Helvetica,sans-Serif" font-size="10.00">src/d/d_camera.cpp</text>
</a>
</g>
</g>
<!-- Node7&#45;&gt;Node8 -->
<g id="edge8" class="edge">
<title>Node7&#45;&gt;Node8</title>
<path fill="none" stroke="midnightblue" d="M2078.15,-214.95C1705.42,-212.32 208.24,-199.61 174.5,-165 154.38,-144.36 177.38,-80.43 193.5,-67 229.8,-36.75 546.31,-22.6 672.19,-18.14"/>
<polygon fill="midnightblue" stroke="midnightblue" points="2078.3,-218.46 2088.32,-215.03 2078.34,-211.46 2078.3,-218.46"/>
</g>
<!-- Node9 -->
<g id="node9" class="node">
<title>Node9</title>
<g id="a_node9"><a xlink:href="d__com__inf__game_8cpp.html" target="_top" xlink:title=" ">
<polygon fill="white" stroke="black" points="237,-67.5 237,-97.5 356,-97.5 356,-67.5 237,-67.5"/>
<text text-anchor="start" x="245" y="-85.5" font-family="Helvetica,sans-Serif" font-size="10.00">src/d/d_com/d_com_inf</text>
<text text-anchor="middle" x="296.5" y="-74.5" font-family="Helvetica,sans-Serif" font-size="10.00">_game.cpp</text>
</a>
</g>
</g>
<!-- Node7&#45;&gt;Node9 -->
<g id="edge9" class="edge">
<title>Node7&#45;&gt;Node9</title>
<path fill="none" stroke="midnightblue" d="M2078.24,-214.93C1708.47,-212.2 231.8,-199.16 198.5,-165 173.25,-139.09 220.23,-113.03 257.47,-97.58"/>
<polygon fill="midnightblue" stroke="midnightblue" points="2078.3,-218.43 2088.33,-215 2078.36,-211.43 2078.3,-218.43"/>
</g>
<!-- Node10 -->
<g id="node10" class="node">
<title>Node10</title>
<g id="a_node10"><a xlink:href="d__file__sel__info_8cpp.html" target="_top" xlink:title=" ">
<polygon fill="white" stroke="black" points="208,-134.5 208,-164.5 297,-164.5 297,-134.5 208,-134.5"/>
<text text-anchor="start" x="216" y="-152.5" font-family="Helvetica,sans-Serif" font-size="10.00">src/d/d_file/d_file</text>
<text text-anchor="middle" x="252.5" y="-141.5" font-family="Helvetica,sans-Serif" font-size="10.00">_sel_info.cpp</text>
</a>
</g>
</g>
<!-- Node7&#45;&gt;Node10 -->
<g id="edge10" class="edge">
<title>Node7&#45;&gt;Node10</title>
<path fill="none" stroke="midnightblue" d="M2078.12,-215.83C1764.45,-216.67 655.5,-215.88 306.5,-165 303.43,-164.55 300.28,-163.99 297.12,-163.35"/>
<polygon fill="midnightblue" stroke="midnightblue" points="2078.5,-219.33 2088.49,-215.8 2078.48,-212.33 2078.5,-219.33"/>
</g>
<!-- Node11 -->
<g id="node11" class="node">
<title>Node11</title>
<g id="a_node11"><a xlink:href="d__item_8cpp.html" target="_top" xlink:title=" ">
<polygon fill="white" stroke="black" points="1387,-73 1387,-92 1508,-92 1508,-73 1387,-73"/>
<text text-anchor="middle" x="1447.5" y="-80" font-family="Helvetica,sans-Serif" font-size="10.00">src/d/d_item/d_item.cpp</text>
</a>
</g>
</g>
<!-- Node7&#45;&gt;Node11 -->
<g id="edge11" class="edge">
<title>Node7&#45;&gt;Node11</title>
<path fill="none" stroke="midnightblue" d="M2244.67,-214.26C2341.51,-210.08 2481.41,-193.93 2424.5,-134 2392.87,-100.69 1716.75,-87.61 1508.2,-84.36"/>
<polygon fill="midnightblue" stroke="midnightblue" points="2244.41,-210.76 2234.56,-214.66 2244.69,-217.76 2244.41,-210.76"/>
</g>
<!-- Node12 -->
<g id="node12" class="node">
<title>Node12</title>
<g id="a_node12"><a xlink:href="d__kankyo__rain_8cpp.html" target="_top" xlink:title=" ">
<polygon fill="white" stroke="black" points="430,-134.5 430,-164.5 557,-164.5 557,-134.5 430,-134.5"/>
<text text-anchor="start" x="438" y="-152.5" font-family="Helvetica,sans-Serif" font-size="10.00">src/d/d_kankyo/d_kankyo</text>
<text text-anchor="middle" x="493.5" y="-141.5" font-family="Helvetica,sans-Serif" font-size="10.00">_rain.cpp</text>
</a>
</g>
</g>
<!-- Node7&#45;&gt;Node12 -->
<g id="edge12" class="edge">
<title>Node7&#45;&gt;Node12</title>
<path fill="none" stroke="midnightblue" d="M2077.9,-214.7C1793.21,-211.69 862.69,-199.38 565.5,-165 562.71,-164.68 559.87,-164.3 557.01,-163.89"/>
<polygon fill="midnightblue" stroke="midnightblue" points="2078.12,-218.2 2088.16,-214.81 2078.2,-211.2 2078.12,-218.2"/>
</g>
<!-- Node13 -->
<g id="node13" class="node">
<title>Node13</title>
<g id="a_node13"><a xlink:href="d__kankyo__wether_8cpp.html" target="_top" xlink:title=" ">
<polygon fill="white" stroke="black" points="575,-134.5 575,-164.5 702,-164.5 702,-134.5 575,-134.5"/>
<text text-anchor="start" x="583" y="-152.5" font-family="Helvetica,sans-Serif" font-size="10.00">src/d/d_kankyo/d_kankyo</text>
<text text-anchor="middle" x="638.5" y="-141.5" font-family="Helvetica,sans-Serif" font-size="10.00">_wether.cpp</text>
</a>
</g>
</g>
<!-- Node7&#45;&gt;Node13 -->
<g id="edge13" class="edge">
<title>Node7&#45;&gt;Node13</title>
<path fill="none" stroke="midnightblue" d="M2078.31,-214.4C1811.37,-210.58 978.21,-196.4 710.5,-165 707.71,-164.67 704.87,-164.3 702.01,-163.88"/>
<polygon fill="midnightblue" stroke="midnightblue" points="2078.28,-217.9 2088.32,-214.54 2078.38,-210.9 2078.28,-217.9"/>
</g>
<!-- Node14 -->
<g id="node14" class="node">
<title>Node14</title>
<g id="a_node14"><a xlink:href="d__kankyo_8cpp.html" target="_top" xlink:title=" ">
<polygon fill="white" stroke="black" points="720,-140 720,-159 821,-159 821,-140 720,-140"/>
<text text-anchor="middle" x="770.5" y="-147" font-family="Helvetica,sans-Serif" font-size="10.00">src/d/d_kankyo.cpp</text>
</a>
</g>
</g>
<!-- Node7&#45;&gt;Node14 -->
<g id="edge14" class="edge">
<title>Node7&#45;&gt;Node14</title>
<path fill="none" stroke="midnightblue" d="M2078.28,-214.56C1826.03,-211.35 1072.35,-199.08 829.5,-165 819.89,-163.65 809.57,-161.4 800.29,-159.07"/>
<polygon fill="midnightblue" stroke="midnightblue" points="2078.44,-218.06 2088.48,-214.68 2078.53,-211.06 2078.44,-218.06"/>
</g>
<!-- Node15 -->
<g id="node15" class="node">
<title>Node15</title>
<g id="a_node15"><a xlink:href="d__kantera__icon__meter_8cpp.html" target="_top" xlink:title=" ">
<polygon fill="white" stroke="black" points="839,-134.5 839,-164.5 946,-164.5 946,-134.5 839,-134.5"/>
<text text-anchor="start" x="847" y="-152.5" font-family="Helvetica,sans-Serif" font-size="10.00">src/d/d_kantera_icon</text>
<text text-anchor="middle" x="892.5" y="-141.5" font-family="Helvetica,sans-Serif" font-size="10.00">_meter.cpp</text>
</a>
</g>
</g>
<!-- Node7&#45;&gt;Node15 -->
<g id="edge15" class="edge">
<title>Node7&#45;&gt;Node15</title>
<path fill="none" stroke="midnightblue" d="M2078.08,-214.05C1841.99,-209.63 1172.18,-194.74 954.5,-165 951.76,-164.63 948.97,-164.19 946.15,-163.7"/>
<polygon fill="midnightblue" stroke="midnightblue" points="2078.25,-217.55 2088.32,-214.24 2078.38,-210.56 2078.25,-217.55"/>
</g>
<!-- Node16 -->
<g id="node16" class="node">
<title>Node16</title>
<g id="a_node16"><a xlink:href="d__kyeff_8cpp.html" target="_top" xlink:title=" ">
<polygon fill="white" stroke="black" points="964,-140 964,-159 1077,-159 1077,-140 964,-140"/>
<text text-anchor="middle" x="1020.5" y="-147" font-family="Helvetica,sans-Serif" font-size="10.00">src/d/d_ky/d_kyeff.cpp</text>
</a>
</g>
</g>
<!-- Node7&#45;&gt;Node16 -->
<g id="edge16" class="edge">
<title>Node7&#45;&gt;Node16</title>
<path fill="none" stroke="midnightblue" d="M2078.14,-213.45C1860.17,-207.79 1276.97,-190.65 1085.5,-165 1075.07,-163.6 1063.84,-161.37 1053.7,-159.06"/>
<polygon fill="midnightblue" stroke="midnightblue" points="2078.15,-216.95 2088.24,-213.71 2078.33,-209.95 2078.15,-216.95"/>
</g>
<!-- Node17 -->
<g id="node17" class="node">
<title>Node17</title>
<g id="a_node17"><a xlink:href="d__meter__button_8cpp.html" target="_top" xlink:title=" ">
<polygon fill="white" stroke="black" points="1095,-134.5 1095,-164.5 1210,-164.5 1210,-134.5 1095,-134.5"/>
<text text-anchor="start" x="1103" y="-152.5" font-family="Helvetica,sans-Serif" font-size="10.00">src/d/d_meter/d_meter</text>
<text text-anchor="middle" x="1152.5" y="-141.5" font-family="Helvetica,sans-Serif" font-size="10.00">_button.cpp</text>
</a>
</g>
</g>
<!-- Node7&#45;&gt;Node17 -->
<g id="edge17" class="edge">
<title>Node7&#45;&gt;Node17</title>
<path fill="none" stroke="midnightblue" d="M2078.29,-215.58C1913.43,-214.73 1533.97,-207.81 1218.5,-165 1215.83,-164.64 1213.1,-164.22 1210.35,-163.77"/>
<polygon fill="midnightblue" stroke="midnightblue" points="2078.34,-219.08 2088.36,-215.62 2078.37,-212.08 2078.34,-219.08"/>
</g>
<!-- Node18 -->
<g id="node18" class="node">
<title>Node18</title>
<g id="a_node18"><a xlink:href="d__meter__haihai_8cpp.html" target="_top" xlink:title=" ">
<polygon fill="white" stroke="black" points="1228,-134.5 1228,-164.5 1343,-164.5 1343,-134.5 1228,-134.5"/>
<text text-anchor="start" x="1236" y="-152.5" font-family="Helvetica,sans-Serif" font-size="10.00">src/d/d_meter/d_meter</text>
<text text-anchor="middle" x="1285.5" y="-141.5" font-family="Helvetica,sans-Serif" font-size="10.00">_haihai.cpp</text>
</a>
</g>
</g>
<!-- Node7&#45;&gt;Node18 -->
<g id="edge18" class="edge">
<title>Node7&#45;&gt;Node18</title>
<path fill="none" stroke="midnightblue" d="M2077.92,-214.52C1930.51,-211.86 1615,-201.93 1351.5,-165 1348.83,-164.63 1346.1,-164.2 1343.36,-163.74"/>
<polygon fill="midnightblue" stroke="midnightblue" points="2078.18,-218.03 2088.24,-214.7 2078.3,-211.03 2078.18,-218.03"/>
</g>
<!-- Node19 -->
<g id="node19" class="node">
<title>Node19</title>
<g id="a_node19"><a xlink:href="d__meter__hakusha_8cpp.html" target="_top" xlink:title=" ">
<polygon fill="white" stroke="black" points="1361,-134.5 1361,-164.5 1476,-164.5 1476,-134.5 1361,-134.5"/>
<text text-anchor="start" x="1369" y="-152.5" font-family="Helvetica,sans-Serif" font-size="10.00">src/d/d_meter/d_meter</text>
<text text-anchor="middle" x="1418.5" y="-141.5" font-family="Helvetica,sans-Serif" font-size="10.00">_hakusha.cpp</text>
</a>
</g>
</g>
<!-- Node7&#45;&gt;Node19 -->
<g id="edge19" class="edge">
<title>Node7&#45;&gt;Node19</title>
<path fill="none" stroke="midnightblue" d="M2077.99,-212.98C1949.92,-208.29 1697.56,-195.72 1485.5,-165 1482.44,-164.56 1479.31,-164.05 1476.15,-163.51"/>
<polygon fill="midnightblue" stroke="midnightblue" points="2077.99,-216.49 2088.11,-213.35 2078.25,-209.49 2077.99,-216.49"/>
</g>
<!-- Node20 -->
<g id="node20" class="node">
<title>Node20</title>
<g id="a_node20"><a xlink:href="d__meter__map_8cpp.html" target="_top" xlink:title=" ">
<polygon fill="white" stroke="black" points="1494,-134.5 1494,-164.5 1609,-164.5 1609,-134.5 1494,-134.5"/>
<text text-anchor="start" x="1502" y="-152.5" font-family="Helvetica,sans-Serif" font-size="10.00">src/d/d_meter/d_meter</text>
<text text-anchor="middle" x="1551.5" y="-141.5" font-family="Helvetica,sans-Serif" font-size="10.00">_map.cpp</text>
</a>
</g>
</g>
<!-- Node7&#45;&gt;Node20 -->
<g id="edge20" class="edge">
<title>Node7&#45;&gt;Node20</title>
<path fill="none" stroke="midnightblue" d="M2078.18,-210.88C1971.27,-204.23 1780.31,-189.94 1618.5,-165 1615.44,-164.53 1612.31,-164 1609.16,-163.44"/>
<polygon fill="midnightblue" stroke="midnightblue" points="2078.06,-214.38 2088.26,-211.5 2078.49,-207.39 2078.06,-214.38"/>
</g>
<!-- Node21 -->
<g id="node21" class="node">
<title>Node21</title>
<g id="a_node21"><a xlink:href="d__meter__string_8cpp.html" target="_top" xlink:title=" ">
<polygon fill="white" stroke="black" points="1627,-134.5 1627,-164.5 1742,-164.5 1742,-134.5 1627,-134.5"/>
<text text-anchor="start" x="1635" y="-152.5" font-family="Helvetica,sans-Serif" font-size="10.00">src/d/d_meter/d_meter</text>
<text text-anchor="middle" x="1684.5" y="-141.5" font-family="Helvetica,sans-Serif" font-size="10.00">_string.cpp</text>
</a>
</g>
</g>
<!-- Node7&#45;&gt;Node21 -->
<g id="edge21" class="edge">
<title>Node7&#45;&gt;Node21</title>
<path fill="none" stroke="midnightblue" d="M2078.12,-207.47C1995.05,-198.94 1864.01,-184.06 1751.5,-165 1748.45,-164.48 1745.33,-163.92 1742.18,-163.33"/>
<polygon fill="midnightblue" stroke="midnightblue" points="2077.95,-210.97 2088.26,-208.5 2078.67,-204 2077.95,-210.97"/>
</g>
<!-- Node22 -->
<g id="node22" class="node">
<title>Node22</title>
<g id="a_node22"><a xlink:href="d__meter2__draw_8cpp.html" target="_top" xlink:title=" ">
<polygon fill="white" stroke="black" points="1760,-134.5 1760,-164.5 1885,-164.5 1885,-134.5 1760,-134.5"/>
<text text-anchor="start" x="1768" y="-152.5" font-family="Helvetica,sans-Serif" font-size="10.00">src/d/d_meter2/d_meter2</text>
<text text-anchor="middle" x="1822.5" y="-141.5" font-family="Helvetica,sans-Serif" font-size="10.00">_draw.cpp</text>
</a>
</g>
</g>
<!-- Node7&#45;&gt;Node22 -->
<g id="edge22" class="edge">
<title>Node7&#45;&gt;Node22</title>
<path fill="none" stroke="midnightblue" d="M2078.39,-200.04C2025.67,-190.17 1956.05,-177.02 1894.5,-165 1891.5,-164.41 1888.42,-163.81 1885.32,-163.2"/>
<polygon fill="midnightblue" stroke="midnightblue" points="2077.89,-203.51 2088.36,-201.91 2079.18,-196.63 2077.89,-203.51"/>
</g>
<!-- Node23 -->
<g id="node23" class="node">
<title>Node23</title>
<g id="a_node23"><a xlink:href="d__meter2__info_8cpp.html" target="_top" xlink:title=" ">
<polygon fill="white" stroke="black" points="1903,-134.5 1903,-164.5 2028,-164.5 2028,-134.5 1903,-134.5"/>
<text text-anchor="start" x="1911" y="-152.5" font-family="Helvetica,sans-Serif" font-size="10.00">src/d/d_meter2/d_meter2</text>
<text text-anchor="middle" x="1965.5" y="-141.5" font-family="Helvetica,sans-Serif" font-size="10.00">_info.cpp</text>
</a>
</g>
</g>
<!-- Node7&#45;&gt;Node23 -->
<g id="edge23" class="edge">
<title>Node7&#45;&gt;Node23</title>
<path fill="none" stroke="midnightblue" d="M2109.42,-198.23C2077.71,-187.71 2037.72,-174.45 2007.95,-164.58"/>
<polygon fill="midnightblue" stroke="midnightblue" points="2108.38,-201.57 2118.97,-201.4 2110.58,-194.93 2108.38,-201.57"/>
</g>
<!-- Node24 -->
<g id="node24" class="node">
<title>Node24</title>
<g id="a_node24"><a xlink:href="d__meter2_8cpp.html" target="_top" xlink:title=" ">
<polygon fill="white" stroke="black" points="2046.5,-140 2046.5,-159 2146.5,-159 2146.5,-140 2046.5,-140"/>
<text text-anchor="middle" x="2096.5" y="-147" font-family="Helvetica,sans-Serif" font-size="10.00">src/d/d_meter2.cpp</text>
</a>
</g>
</g>
<!-- Node7&#45;&gt;Node24 -->
<g id="edge24" class="edge">
<title>Node7&#45;&gt;Node24</title>
<path fill="none" stroke="midnightblue" d="M2140,-194C2128.13,-182.13 2114.05,-168.05 2105.19,-159.19"/>
<polygon fill="midnightblue" stroke="midnightblue" points="2137.85,-196.8 2147.4,-201.4 2142.8,-191.85 2137.85,-196.8"/>
</g>
<!-- Node25 -->
<g id="node25" class="node">
<title>Node25</title>
<g id="a_node25"><a xlink:href="d__save_8cpp.html" target="_top" xlink:title=" ">
<polygon fill="white" stroke="black" points="2165,-140 2165,-159 2290,-159 2290,-140 2165,-140"/>
<text text-anchor="middle" x="2227.5" y="-147" font-family="Helvetica,sans-Serif" font-size="10.00">src/d/d_save/d_save.cpp</text>
</a>
</g>
</g>
<!-- Node7&#45;&gt;Node25 -->
<g id="edge25" class="edge">
<title>Node7&#45;&gt;Node25</title>
<path fill="none" stroke="midnightblue" d="M2182.99,-194.34C2195.11,-182.4 2209.59,-168.14 2218.67,-159.19"/>
<polygon fill="midnightblue" stroke="midnightblue" points="2180.49,-191.89 2175.82,-201.4 2185.4,-196.87 2180.49,-191.89"/>
</g>
<!-- Node26 -->
<g id="node26" class="node">
<title>Node26</title>
<g id="a_node26"><a xlink:href="d__save__HIO_8cpp.html" target="_top" xlink:title=" ">
<polygon fill="white" stroke="black" points="2308,-134.5 2308,-164.5 2415,-164.5 2415,-134.5 2308,-134.5"/>
<text text-anchor="start" x="2316" y="-152.5" font-family="Helvetica,sans-Serif" font-size="10.00">src/d/d_save/d_save</text>
<text text-anchor="middle" x="2361.5" y="-141.5" font-family="Helvetica,sans-Serif" font-size="10.00">_HIO.cpp</text>
</a>
</g>
</g>
<!-- Node7&#45;&gt;Node26 -->
<g id="edge26" class="edge">
<title>Node7&#45;&gt;Node26</title>
<path fill="none" stroke="midnightblue" d="M2214.65,-198.23C2247,-187.71 2287.81,-174.45 2318.19,-164.58"/>
<polygon fill="midnightblue" stroke="midnightblue" points="2213.33,-194.98 2204.9,-201.4 2215.49,-201.63 2213.33,-194.98"/>
</g>
<!-- Node27 -->
<g id="node27" class="node">
<title>Node27</title>
<g id="a_node27"><a xlink:href="d__stage_8cpp.html" target="_top" xlink:title=" ">
<polygon fill="white" stroke="black" points="1815.5,-6 1815.5,-25 1909.5,-25 1909.5,-6 1815.5,-6"/>
<text text-anchor="middle" x="1862.5" y="-13" font-family="Helvetica,sans-Serif" font-size="10.00">src/d/d_stage.cpp</text>
</a>
</g>
</g>
<!-- Node7&#45;&gt;Node27 -->
<g id="edge27" class="edge">
<title>Node7&#45;&gt;Node27</title>
<path fill="none" stroke="midnightblue" d="M2078.08,-214.94C1706.76,-212.25 221,-199.36 187.5,-165 156.56,-133.26 210.02,-77.28 227.5,-67 262.63,-46.34 1550.19,-22.11 1815.13,-17.34"/>
<polygon fill="midnightblue" stroke="midnightblue" points="2078.19,-218.44 2088.21,-215.01 2078.24,-211.44 2078.19,-218.44"/>
</g>
<!-- Node28 -->
<g id="node28" class="node">
<title>Node28</title>
<g id="a_node28"><a xlink:href="f__op__actor__mng_8cpp.html" target="_top" xlink:title=" ">
<polygon fill="white" stroke="black" points="2439,-0.5 2439,-30.5 2546,-30.5 2546,-0.5 2439,-0.5"/>
<text text-anchor="start" x="2447" y="-18.5" font-family="Helvetica,sans-Serif" font-size="10.00">src/f/f_op/f_op_actor</text>
<text text-anchor="middle" x="2492.5" y="-7.5" font-family="Helvetica,sans-Serif" font-size="10.00">_mng.cpp</text>
</a>
</g>
</g>
<!-- Node7&#45;&gt;Node28 -->
<g id="edge28" class="edge">
<title>Node7&#45;&gt;Node28</title>
<path fill="none" stroke="midnightblue" d="M2244.67,-210.05C2317.2,-203.65 2415.27,-190.5 2444.5,-165 2484.72,-129.91 2491.46,-60.89 2492.44,-30.94"/>
<polygon fill="midnightblue" stroke="midnightblue" points="2244.28,-206.57 2234.61,-210.91 2244.87,-213.54 2244.28,-206.57"/>
</g>
<!-- Node29 -->
<g id="node29" class="node">
<title>Node29</title>
<g id="a_node29"><a xlink:href="f__pc__manager_8cpp.html" target="_top" xlink:title=" ">
<polygon fill="white" stroke="black" points="3433.5,-73 3433.5,-92 3573.5,-92 3573.5,-73 3433.5,-73"/>
<text text-anchor="middle" x="3503.5" y="-80" font-family="Helvetica,sans-Serif" font-size="10.00">src/f/f_pc/f_pc_manager.cpp</text>
</a>
</g>
</g>
<!-- Node7&#45;&gt;Node29 -->
<g id="edge29" class="edge">
<title>Node7&#45;&gt;Node29</title>
<path fill="none" stroke="midnightblue" d="M2244.83,-215.21C2647.6,-213.62 4374.86,-204.51 4413.5,-165 4423.13,-155.15 4422.97,-144.01 4413.5,-134 4384.75,-103.61 3782.38,-88.97 3573.82,-84.79"/>
<polygon fill="midnightblue" stroke="midnightblue" points="2244.7,-211.71 2234.71,-215.25 2244.73,-218.71 2244.7,-211.71"/>
</g>
<!-- Node30 -->
<g id="node30" class="node">
<title>Node30</title>
<g id="a_node30"><a xlink:href="m__Do__audio_8cpp.html" target="_top" xlink:title=" ">
<polygon fill="white" stroke="black" points="2625.5,-140 2625.5,-159 2759.5,-159 2759.5,-140 2625.5,-140"/>
<text text-anchor="middle" x="2692.5" y="-147" font-family="Helvetica,sans-Serif" font-size="10.00">src/m_Do/m_Do_audio.cpp</text>
</a>
</g>
</g>
<!-- Node7&#45;&gt;Node30 -->
<g id="edge30" class="edge">
<title>Node7&#45;&gt;Node30</title>
<path fill="none" stroke="midnightblue" d="M2244.65,-208.23C2336.06,-199.79 2487.15,-184.49 2616.5,-165 2627.66,-163.32 2639.68,-161.18 2650.79,-159.06"/>
<polygon fill="midnightblue" stroke="midnightblue" points="2244.26,-204.76 2234.62,-209.16 2244.9,-211.73 2244.26,-204.76"/>
</g>
<!-- Node31 -->
<g id="node31" class="node">
<title>Node31</title>
<g id="a_node31"><a xlink:href="m__Do__graphic_8cpp.html" target="_top" xlink:title=" ">
<polygon fill="white" stroke="black" points="2777.5,-140 2777.5,-159 2919.5,-159 2919.5,-140 2777.5,-140"/>
<text text-anchor="middle" x="2848.5" y="-147" font-family="Helvetica,sans-Serif" font-size="10.00">src/m_Do/m_Do_graphic.cpp</text>
</a>
</g>
</g>
<!-- Node7&#45;&gt;Node31 -->
<g id="edge31" class="edge">
<title>Node7&#45;&gt;Node31</title>
<path fill="none" stroke="midnightblue" d="M2244.96,-211.11C2362.22,-204.36 2582.27,-189.57 2768.5,-165 2780.67,-163.39 2793.81,-161.2 2805.86,-159.01"/>
<polygon fill="midnightblue" stroke="midnightblue" points="2244.41,-207.63 2234.62,-211.7 2244.81,-214.62 2244.41,-207.63"/>
</g>
<!-- Node32 -->
<g id="node32" class="node">
<title>Node32</title>
<g id="a_node32"><a xlink:href="m__Do__lib_8cpp.html" target="_top" xlink:title=" ">
<polygon fill="white" stroke="black" points="2937.5,-140 2937.5,-159 3057.5,-159 3057.5,-140 2937.5,-140"/>
<text text-anchor="middle" x="2997.5" y="-147" font-family="Helvetica,sans-Serif" font-size="10.00">src/m_Do/m_Do_lib.cpp</text>
</a>
</g>
</g>
<!-- Node7&#45;&gt;Node32 -->
<g id="edge32" class="edge">
<title>Node7&#45;&gt;Node32</title>
<path fill="none" stroke="midnightblue" d="M2244.86,-213.87C2386.14,-210.24 2681.34,-198.93 2928.5,-165 2939.29,-163.52 2950.92,-161.31 2961.5,-159.07"/>
<polygon fill="midnightblue" stroke="midnightblue" points="2244.46,-210.37 2234.55,-214.12 2244.63,-217.37 2244.46,-210.37"/>
</g>
<!-- Node33 -->
<g id="node33" class="node">
<title>Node33</title>
<g id="a_node33"><a xlink:href="m__Do__machine__exception_8cpp.html" target="_top" xlink:title=" ">
<polygon fill="white" stroke="black" points="3076,-134.5 3076,-164.5 3205,-164.5 3205,-134.5 3076,-134.5"/>
<text text-anchor="start" x="3084" y="-152.5" font-family="Helvetica,sans-Serif" font-size="10.00">src/m_Do/m_Do_machine</text>
<text text-anchor="middle" x="3140.5" y="-141.5" font-family="Helvetica,sans-Serif" font-size="10.00">_exception.cpp</text>
</a>
</g>
</g>
<!-- Node7&#45;&gt;Node33 -->
<g id="edge33" class="edge">
<title>Node7&#45;&gt;Node33</title>
<path fill="none" stroke="midnightblue" d="M2244.78,-214.68C2404.67,-212.26 2765.51,-202.7 3066.5,-165 3069.49,-164.63 3072.54,-164.2 3075.61,-163.74"/>
<polygon fill="midnightblue" stroke="midnightblue" points="2244.48,-211.18 2234.54,-214.83 2244.59,-218.18 2244.48,-211.18"/>
</g>
<!-- Node34 -->
<g id="node34" class="node">
<title>Node34</title>
<g id="a_node34"><a xlink:href="m__Do__ext_8cpp.html" target="_top" xlink:title=" ">
<polygon fill="white" stroke="black" points="3223,-140 3223,-159 3346,-159 3346,-140 3223,-140"/>
<text text-anchor="middle" x="3284.5" y="-147" font-family="Helvetica,sans-Serif" font-size="10.00">src/m_Do/m_Do_ext.cpp</text>
</a>
</g>
</g>
<!-- Node7&#45;&gt;Node34 -->
<g id="edge34" class="edge">
<title>Node7&#45;&gt;Node34</title>
<path fill="none" stroke="midnightblue" d="M2244.71,-215.92C2423.16,-215.84 2855.6,-210.49 3214.5,-165 3225.7,-163.58 3237.79,-161.34 3248.71,-159.04"/>
<polygon fill="midnightblue" stroke="midnightblue" points="2244.61,-212.42 2234.61,-215.91 2244.61,-219.42 2244.61,-212.42"/>
</g>
<!-- Node35 -->
<g id="node35" class="node">
<title>Node35</title>
<g id="a_node35"><a xlink:href="m__Do__MemCardRWmng_8cpp.html" target="_top" xlink:title=" ">
<polygon fill="white" stroke="black" points="3364,-140 3364,-159 3551,-159 3551,-140 3364,-140"/>
<text text-anchor="middle" x="3457.5" y="-147" font-family="Helvetica,sans-Serif" font-size="10.00">src/m_Do/m_Do_MemCardRWmng.cpp</text>
</a>
</g>
</g>
<!-- Node7&#45;&gt;Node35 -->
<g id="edge36" class="edge">
<title>Node7&#45;&gt;Node35</title>
<path fill="none" stroke="midnightblue" d="M2244.86,-214.81C2439.64,-212.57 2939.66,-203.26 3355.5,-165 3371.53,-163.53 3388.9,-161.3 3404.68,-159.02"/>
<polygon fill="midnightblue" stroke="midnightblue" points="2244.66,-211.31 2234.7,-214.92 2244.73,-218.31 2244.66,-211.31"/>
</g>
<!-- Node36 -->
<g id="node36" class="node">
<title>Node36</title>
<g id="a_node36"><a xlink:href="Z2EnvSeMgr_8cpp.html" target="_top" xlink:title=" ">
<polygon fill="white" stroke="black" points="3569,-140 3569,-159 3730,-159 3730,-140 3569,-140"/>
<text text-anchor="middle" x="3649.5" y="-147" font-family="Helvetica,sans-Serif" font-size="10.00">libs/Z2AudioLib/Z2EnvSeMgr.cpp</text>
</a>
</g>
</g>
<!-- Node7&#45;&gt;Node36 -->
<g id="edge37" class="edge">
<title>Node7&#45;&gt;Node36</title>
<path fill="none" stroke="midnightblue" d="M2244.58,-216.13C2461.55,-216.98 3062.92,-214.32 3560.5,-165 3574.68,-163.59 3590.02,-161.36 3603.91,-159.05"/>
<polygon fill="midnightblue" stroke="midnightblue" points="2244.55,-212.63 2234.54,-216.08 2244.52,-219.63 2244.55,-212.63"/>
</g>
<!-- Node37 -->
<g id="node37" class="node">
<title>Node37</title>
<g id="a_node37"><a xlink:href="Z2LinkMgr_8cpp.html" target="_top" xlink:title=" ">
<polygon fill="white" stroke="black" points="3748.5,-140 3748.5,-159 3900.5,-159 3900.5,-140 3748.5,-140"/>
<text text-anchor="middle" x="3824.5" y="-147" font-family="Helvetica,sans-Serif" font-size="10.00">libs/Z2AudioLib/Z2LinkMgr.cpp</text>
</a>
</g>
</g>
<!-- Node7&#45;&gt;Node37 -->
<g id="edge38" class="edge">
<title>Node7&#45;&gt;Node37</title>
<path fill="none" stroke="midnightblue" d="M2245.09,-214.34C2527.59,-210.17 3445.53,-194.64 3739.5,-165 3753.2,-163.62 3768.03,-161.36 3781.41,-159.03"/>
<polygon fill="midnightblue" stroke="midnightblue" points="2244.85,-210.84 2234.91,-214.49 2244.96,-217.84 2244.85,-210.84"/>
</g>
<!-- Node38 -->
<g id="node38" class="node">
<title>Node38</title>
<g id="a_node38"><a xlink:href="Z2SceneMgr_8cpp.html" target="_top" xlink:title=" ">
<polygon fill="white" stroke="black" points="3919,-140 3919,-159 4080,-159 4080,-140 3919,-140"/>
<text text-anchor="middle" x="3999.5" y="-147" font-family="Helvetica,sans-Serif" font-size="10.00">libs/Z2AudioLib/Z2SceneMgr.cpp</text>
</a>
</g>
</g>
<!-- Node7&#45;&gt;Node38 -->
<g id="edge39" class="edge">
<title>Node7&#45;&gt;Node38</title>
<path fill="none" stroke="midnightblue" d="M2245.21,-214.54C2547.26,-210.83 3580.55,-196.12 3909.5,-165 3924,-163.63 3939.7,-161.37 3953.86,-159.04"/>
<polygon fill="midnightblue" stroke="midnightblue" points="2244.73,-211.04 2234.77,-214.66 2244.81,-218.04 2244.73,-211.04"/>
</g>
<!-- Node39 -->
<g id="node39" class="node">
<title>Node39</title>
<g id="a_node39"><a xlink:href="Z2SoundMgr_8cpp.html" target="_top" xlink:title=" ">
<polygon fill="white" stroke="black" points="4098,-140 4098,-159 4259,-159 4259,-140 4098,-140"/>
<text text-anchor="middle" x="4178.5" y="-147" font-family="Helvetica,sans-Serif" font-size="10.00">libs/Z2AudioLib/Z2SoundMgr.cpp</text>
</a>
</g>
</g>
<!-- Node7&#45;&gt;Node39 -->
<g id="edge40" class="edge">
<title>Node7&#45;&gt;Node39</title>
<path fill="none" stroke="midnightblue" d="M2244.81,-214.82C2565.89,-211.97 3723.34,-199.46 4089.5,-165 4103.84,-163.65 4119.37,-161.4 4133.38,-159.07"/>
<polygon fill="midnightblue" stroke="midnightblue" points="2244.62,-211.32 2234.65,-214.91 2244.68,-218.32 2244.62,-211.32"/>
</g>
<!-- Node40 -->
<g id="node40" class="node">
<title>Node40</title>
<g id="a_node40"><a xlink:href="Z2StatusMgr_8cpp.html" target="_top" xlink:title=" ">
<polygon fill="white" stroke="black" points="4277,-134.5 4277,-164.5 4404,-164.5 4404,-134.5 4277,-134.5"/>
<text text-anchor="start" x="4285" y="-152.5" font-family="Helvetica,sans-Serif" font-size="10.00">libs/Z2AudioLib/Z2Status</text>
<text text-anchor="middle" x="4340.5" y="-141.5" font-family="Helvetica,sans-Serif" font-size="10.00">Mgr.cpp</text>
</a>
</g>
</g>
<!-- Node7&#45;&gt;Node40 -->
<g id="edge41" class="edge">
<title>Node7&#45;&gt;Node40</title>
<path fill="none" stroke="midnightblue" d="M2244.56,-215.45C2583.9,-214.94 3865.98,-210.01 4268.5,-165 4271.29,-164.69 4274.13,-164.32 4276.99,-163.92"/>
<polygon fill="midnightblue" stroke="midnightblue" points="2244.56,-211.95 2234.56,-215.46 2244.57,-218.95 2244.56,-211.95"/>
</g>
<!-- Node41 -->
<g id="node41" class="node">
<title>Node41</title>
<g id="a_node41"><a xlink:href="d__item_8h.html" target="_top" xlink:title=" ">
<polygon fill="white" stroke="black" points="315.5,-134.5 315.5,-164.5 411.5,-164.5 411.5,-134.5 315.5,-134.5"/>
<text text-anchor="start" x="323.5" y="-152.5" font-family="Helvetica,sans-Serif" font-size="10.00">include/d/d_item/d</text>
<text text-anchor="middle" x="363.5" y="-141.5" font-family="Helvetica,sans-Serif" font-size="10.00">_item/d_item.h</text>
</a>
</g>
</g>
<!-- Node7&#45;&gt;Node41 -->
<g id="edge43" class="edge">
<title>Node7&#45;&gt;Node41</title>
<path fill="none" stroke="midnightblue" d="M2078.01,-215.51C1776.77,-215.17 746.42,-210.61 420.5,-165 417.57,-164.59 414.57,-164.09 411.55,-163.52"/>
<polygon fill="midnightblue" stroke="midnightblue" points="2078.42,-219.01 2088.42,-215.52 2078.42,-212.01 2078.42,-219.01"/>
</g>
<!-- Node42 -->
<g id="node42" class="node">
<title>Node42</title>
<g id="a_node42"><a xlink:href="f__pc__manager_8h.html" target="_top" xlink:title=" ">
<polygon fill="white" stroke="black" points="2510,-134.5 2510,-164.5 2607,-164.5 2607,-134.5 2510,-134.5"/>
<text text-anchor="start" x="2518" y="-152.5" font-family="Helvetica,sans-Serif" font-size="10.00">include/f/f_pc/f_pc</text>
<text text-anchor="middle" x="2558.5" y="-141.5" font-family="Helvetica,sans-Serif" font-size="10.00">_manager.h</text>
</a>
</g>
</g>
<!-- Node7&#45;&gt;Node42 -->
<g id="edge46" class="edge">
<title>Node7&#45;&gt;Node42</title>
<path fill="none" stroke="midnightblue" d="M2244.93,-204.68C2312.68,-195.47 2410.56,-181.17 2495.5,-165 2500.13,-164.12 2504.94,-163.14 2509.74,-162.11"/>
<polygon fill="midnightblue" stroke="midnightblue" points="2244.19,-201.25 2234.75,-206.06 2245.12,-208.19 2244.19,-201.25"/>
</g>
<!-- Node41&#45;&gt;Node9 -->
<g id="edge44" class="edge">
<title>Node41&#45;&gt;Node9</title>
<path fill="none" stroke="midnightblue" d="M341.66,-127.31C331.61,-117.56 319.96,-106.26 311.01,-97.58"/>
<polygon fill="midnightblue" stroke="midnightblue" points="339.35,-129.94 348.96,-134.4 344.22,-124.92 339.35,-129.94"/>
</g>
<!-- Node41&#45;&gt;Node11 -->
<g id="edge45" class="edge">
<title>Node41&#45;&gt;Node11</title>
<path fill="none" stroke="midnightblue" d="M421.7,-134.08C628.12,-105.19 1199.17,-89.44 1386.89,-84.89"/>
<polygon fill="midnightblue" stroke="midnightblue" points="420.96,-130.65 411.56,-135.55 421.96,-137.58 420.96,-130.65"/>
</g>
<!-- Node42&#45;&gt;Node6 -->
<g id="edge47" class="edge">
<title>Node42&#45;&gt;Node6</title>
<path fill="none" stroke="midnightblue" d="M2588.65,-128.28C2598.89,-120.01 2609.49,-109.64 2616.5,-98 2630.73,-74.35 2634.31,-40.91 2635.2,-25.24"/>
<polygon fill="midnightblue" stroke="midnightblue" points="2586.42,-125.58 2580.6,-134.44 2590.67,-131.14 2586.42,-125.58"/>
</g>
<!-- Node42&#45;&gt;Node29 -->
<g id="edge48" class="edge">
<title>Node42&#45;&gt;Node29</title>
<path fill="none" stroke="midnightblue" d="M2617.14,-134.13C2925.86,-88.03 3284.61,-83 3433.47,-83.03"/>
<polygon fill="midnightblue" stroke="midnightblue" points="2616.46,-130.69 2607.1,-135.65 2617.51,-137.61 2616.46,-130.69"/>
</g>
<!-- Node43 -->
<g id="node43" class="node">
<title>Node43</title>
<g id="a_node43"><a xlink:href="f__op__actor__mng_8h.html" target="_top" xlink:title=" ">
<polygon fill="white" stroke="black" points="2510,-67.5 2510,-97.5 2607,-97.5 2607,-67.5 2510,-67.5"/>
<text text-anchor="start" x="2518" y="-85.5" font-family="Helvetica,sans-Serif" font-size="10.00">include/f/f_op/f_op</text>
<text text-anchor="middle" x="2558.5" y="-74.5" font-family="Helvetica,sans-Serif" font-size="10.00">_actor_mng.h</text>
</a>
</g>
</g>
<!-- Node42&#45;&gt;Node43 -->
<g id="edge49" class="edge">
<title>Node42&#45;&gt;Node43</title>
<path fill="none" stroke="midnightblue" d="M2558.5,-124.11C2558.5,-115.15 2558.5,-105.32 2558.5,-97.58"/>
<polygon fill="midnightblue" stroke="midnightblue" points="2555,-124.4 2558.5,-134.4 2562,-124.4 2555,-124.4"/>
</g>
<!-- Node43&#45;&gt;Node2 -->
<g id="edge55" class="edge">
<title>Node43&#45;&gt;Node2</title>
<path fill="none" stroke="midnightblue" d="M2499.81,-79.97C2163.68,-71.21 485.5,-27.45 131.24,-18.21"/>
<polygon fill="midnightblue" stroke="midnightblue" points="2499.73,-83.47 2509.82,-80.23 2499.91,-76.47 2499.73,-83.47"/>
</g>
<!-- Node43&#45;&gt;Node5 -->
<g id="edge50" class="edge">
<title>Node43&#45;&gt;Node5</title>
<path fill="none" stroke="midnightblue" d="M2617.74,-79.43C2899.13,-69.61 4098.15,-27.75 4366.9,-18.37"/>
<polygon fill="midnightblue" stroke="midnightblue" points="2617.22,-75.95 2607.35,-79.79 2617.46,-82.94 2617.22,-75.95"/>
</g>
<!-- Node43&#45;&gt;Node6 -->
<g id="edge54" class="edge">
<title>Node43&#45;&gt;Node6</title>
<path fill="none" stroke="midnightblue" d="M2583.17,-60.67C2597.39,-48.67 2614.51,-34.22 2625.2,-25.19"/>
<polygon fill="midnightblue" stroke="midnightblue" points="2580.59,-58.27 2575.21,-67.4 2585.11,-63.62 2580.59,-58.27"/>
</g>
<!-- Node43&#45;&gt;Node8 -->
<g id="edge51" class="edge">
<title>Node43&#45;&gt;Node8</title>
<path fill="none" stroke="midnightblue" d="M2499.58,-79.41C2220.67,-69.53 1035.58,-27.55 774.51,-18.31"/>
<polygon fill="midnightblue" stroke="midnightblue" points="2499.77,-82.92 2509.89,-79.78 2500.02,-75.93 2499.77,-82.92"/>
</g>
<!-- Node43&#45;&gt;Node27 -->
<g id="edge52" class="edge">
<title>Node43&#45;&gt;Node27</title>
<path fill="none" stroke="midnightblue" d="M2499.66,-76C2364.25,-63.36 2032.77,-32.4 1909.6,-20.9"/>
<polygon fill="midnightblue" stroke="midnightblue" points="2499.55,-79.51 2509.84,-76.96 2500.2,-72.54 2499.55,-79.51"/>
</g>
<!-- Node43&#45;&gt;Node28 -->
<g id="edge53" class="edge">
<title>Node43&#45;&gt;Node28</title>
<path fill="none" stroke="midnightblue" d="M2536.99,-60.31C2527.09,-50.56 2515.61,-39.26 2506.79,-30.58"/>
<polygon fill="midnightblue" stroke="midnightblue" points="2534.6,-62.87 2544.18,-67.4 2539.51,-57.89 2534.6,-62.87"/>
</g>
</g>
</svg>
        <g id="navigator" transform="translate(0 0)" fill="#404254">
                <rect fill="#f2f5e9" fill-opacity="0.5" stroke="#606060" stroke-width=".5" x="0" y="0" width="60" height="60"/>
                <use id="zoomplus" xlink:href="#zoomPlus" x="17" y="9" onmousedown="handleZoom(evt,'in')"/>
                <use id="zoomminus" xlink:href="#zoomMin" x="42" y="9" onmousedown="handleZoom(evt,'out')"/>
                <use id="reset" xlink:href="#resetDef" x="30" y="36" onmousedown="handleReset()"/>
                <g id="arrowUp" xlink:href="#dirArrow" transform="translate(30 24)" onmousedown="handlePan(0,-1)">
                  <use xlink:href="#rim" fill="#404040">
                        <set attributeName="fill" to="#808080" begin="arrowUp.mouseover" end="arrowUp.mouseout"/>
                  </use>
                  <path fill="none" stroke="white" stroke-width="1.5" d="M0,-3.0v7 M-2.5,-0.5L0,-3.0L2.5,-0.5"/>
                </g>
                <g id="arrowRight" xlink:href="#dirArrow" transform="rotate(90) translate(36 -43)" onmousedown="handlePan(1,0)">
                  <use xlink:href="#rim" fill="#404040">
                        <set attributeName="fill" to="#808080" begin="arrowRight.mouseover" end="arrowRight.mouseout"/>
                  </use>
                  <path fill="none" stroke="white" stroke-width="1.5" d="M0,-3.0v7 M-2.5,-0.5L0,-3.0L2.5,-0.5"/>
                </g>
                <g id="arrowDown" xlink:href="#dirArrow" transform="rotate(180) translate(-30 -48)" onmousedown="handlePan(0,1)">
                  <use xlink:href="#rim" fill="#404040">
                        <set attributeName="fill" to="#808080" begin="arrowDown.mouseover" end="arrowDown.mouseout"/>
                  </use>
                  <path fill="none" stroke="white" stroke-width="1.5" d="M0,-3.0v7 M-2.5,-0.5L0,-3.0L2.5,-0.5"/>
                </g>
                <g id="arrowLeft" xlink:href="#dirArrow" transform="rotate(270) translate(-36 17)" onmousedown="handlePan(-1,0)">
                  <use xlink:href="#rim" fill="#404040">
                        <set attributeName="fill" to="#808080" begin="arrowLeft.mouseover" end="arrowLeft.mouseout"/>
                  </use>
                  <path fill="none" stroke="white" stroke-width="1.5" d="M0,-3.0v7 M-2.5,-0.5L0,-3.0L2.5,-0.5"/>
                </g>
        </g>
        <svg viewBox="0 0 15 15" width="100%" height="30px" preserveAspectRatio="xMaxYMin meet">
         <g id="arrow_out" transform="scale(0.3 0.3)">
          <a xlink:href="m__Do__dvd__thread_8h__dep__incl_org.svg" target="_base">
           <rect id="button" ry="5" rx="5" y="6" x="6" height="38" width="38"
                fill="#f2f5e9" fill-opacity="0.5" stroke="#606060" stroke-width="1.0"/>
           <path id="arrow"
             d="M 11.500037,31.436501 C 11.940474,20.09759 22.043105,11.32322 32.158766,21.979434 L 37.068811,17.246167 C 37.068811,17.246167 37.088388,32 37.088388,32 L 22.160133,31.978069 C 22.160133,31.978069 26.997745,27.140456 26.997745,27.140456 C 18.528582,18.264221 13.291696,25.230495 11.500037,31.436501 z"
             style="fill:#404040;"/>
          </a>
         </g>
        </svg>
</svg>
