<?xml version="1.0" encoding="UTF-8" standalone="no"?>
<!DOCTYPE svg PUBLIC "-//W3C//DTD SVG 1.1//EN"
 "http://www.w3.org/Graphics/SVG/1.1/DTD/svg11.dtd">
<!-- Generated by graphviz version 7.0.5 (20221223.1930)
 -->
<!-- Title: include/m_Do/m_Do_graphic.h Pages: 1 -->
<!--zoomable 489 -->
<svg id="main" version="1.1" xmlns="http://www.w3.org/2000/svg" xmlns:xlink="http://www.w3.org/1999/xlink" xml:space="preserve" onload="init(evt)">
<style type="text/css"><![CDATA[
.edge:hover path { stroke: red; }
.edge:hover polygon { stroke: red; fill: red; }
]]></style>
<script type="text/javascript"><![CDATA[
var edges = document.getElementsByTagName('g');
if (edges && edges.length) {
  for (var i=0;i<edges.length;i++) {
    if (edges[i].id.substr(0,4)=='edge') {
      edges[i].setAttribute('class','edge');
    }
  }
}
]]></script>
        <defs>
                <circle id="rim" cx="0" cy="0" r="7"/>
                <circle id="rim2" cx="0" cy="0" r="3.5"/>
                <g id="zoomPlus">
                        <use xlink:href="#rim" fill="#404040">
                                <set attributeName="fill" to="#808080" begin="zoomplus.mouseover" end="zoomplus.mouseout"/>
                        </use>
                        <path d="M-4,0h8M0,-4v8" fill="none" stroke="white" stroke-width="1.5" pointer-events="none"/>
                </g>
                <g id="zoomMin">
                        <use xlink:href="#rim" fill="#404040">
                                <set attributeName="fill" to="#808080" begin="zoomminus.mouseover" end="zoomminus.mouseout"/>
                        </use>
                        <path d="M-4,0h8" fill="none" stroke="white" stroke-width="1.5" pointer-events="none"/>
                </g>
                <g id="dirArrow">
                        <path fill="none" stroke="white" stroke-width="1.5" d="M0,-3.0v7 M-2.5,-0.5L0,-3.0L2.5,-0.5"/>
                </g>
               <g id="resetDef">
                       <use xlink:href="#rim2" fill="#404040">
                               <set attributeName="fill" to="#808080" begin="reset.mouseover" end="reset.mouseout"/>
                       </use>
               </g>
        </defs>

<script type="text/javascript">
var viewWidth = 1079;
var viewHeight = 489;
var sectionId = 'dynsection-0';
</script>
<script xlink:href="svgpan.js"/>
<svg id="graph" class="graph">
<g id="viewport">
<title>include/m_Do/m_Do_graphic.h</title>
<!-- Node1 -->
<g id="node1" class="node">
<title>Node1</title>
<g id="a_node1"><a xlink:title=" ">
<polygon fill="#999999" stroke="#666666" points="907.5,-481 758.5,-481 758.5,-462 907.5,-462 907.5,-481"/>
<text text-anchor="middle" x="833" y="-469" font-family="Helvetica,sans-Serif" font-size="10.00">include/m_Do/m_Do_graphic.h</text>
</a>
</g>
</g>
<!-- Node2 -->
<g id="node2" class="node">
<title>Node2</title>
<g id="a_node2"><a xlink:href="JFWDisplay_8h.html" target="_top" xlink:title=" ">
<polygon fill="white" stroke="#666666" points="590,-426 478,-426 478,-396 590,-396 590,-426"/>
<text text-anchor="start" x="486" y="-414" font-family="Helvetica,sans-Serif" font-size="10.00">JSystem/JFramework</text>
<text text-anchor="middle" x="534" y="-403" font-family="Helvetica,sans-Serif" font-size="10.00">/JFWDisplay.h</text>
</a>
</g>
</g>
<!-- Node1&#45;&gt;Node2 -->
<g id="edge1" class="edge">
<title>Node1&#45;&gt;Node2</title>
<path fill="none" stroke="#63b8ff" d="M787.26,-461.55C737.73,-451.86 658.19,-436.3 601.48,-425.2"/>
<polygon fill="#63b8ff" stroke="#63b8ff" points="602.42,-421.82 591.94,-423.34 601.08,-428.69 602.42,-421.82"/>
</g>
<!-- Node4 -->
<g id="node4" class="node">
<title>Node4</title>
<g id="a_node4"><a xlink:href="types_8h.html" target="_top" xlink:title=" ">
<polygon fill="white" stroke="#666666" points="603.5,-74 522.5,-74 522.5,-55 603.5,-55 603.5,-74"/>
<text text-anchor="middle" x="563" y="-62" font-family="Helvetica,sans-Serif" font-size="10.00">dolphin/types.h</text>
</a>
</g>
</g>
<!-- Node1&#45;&gt;Node4 -->
<g id="edge45" class="edge">
<title>Node1&#45;&gt;Node4</title>
<path fill="none" stroke="#63b8ff" d="M835.09,-461.57C841.53,-431.65 858.11,-333.57 814,-275 787.83,-240.26 756.75,-266.43 723,-239 669.72,-195.7 687.68,-157.39 638,-110 625.04,-97.64 608.05,-87.2 593.51,-79.55"/>
<polygon fill="#63b8ff" stroke="#63b8ff" points="595.31,-76.53 584.8,-75.16 592.16,-82.78 595.31,-76.53"/>
</g>
<!-- Node27 -->
<g id="node27" class="node">
<title>Node27</title>
<g id="a_node27"><a xlink:href="mtx_8h.html" target="_top" xlink:title=" ">
<polygon fill="white" stroke="#666666" points="985,-299.5 911,-299.5 911,-280.5 985,-280.5 985,-299.5"/>
<text text-anchor="middle" x="948" y="-287.5" font-family="Helvetica,sans-Serif" font-size="10.00">dolphin/mtx.h</text>
</a>
</g>
</g>
<!-- Node1&#45;&gt;Node27 -->
<g id="edge39" class="edge">
<title>Node1&#45;&gt;Node27</title>
<path fill="none" stroke="#63b8ff" d="M838.55,-461.84C856.26,-434.19 911.76,-347.57 936.22,-309.39"/>
<polygon fill="#63b8ff" stroke="#63b8ff" points="938.97,-311.58 941.42,-301.27 933.08,-307.8 938.97,-311.58"/>
</g>
<!-- Node3 -->
<g id="node3" class="node">
<title>Node3</title>
<g id="a_node3"><a xlink:href="JSUList_8h.html" target="_top" xlink:title=" ">
<polygon fill="white" stroke="#666666" points="705.5,-360 562.5,-360 562.5,-341 705.5,-341 705.5,-360"/>
<text text-anchor="middle" x="634" y="-348" font-family="Helvetica,sans-Serif" font-size="10.00">JSystem/JSupport/JSUList.h</text>
</a>
</g>
</g>
<!-- Node2&#45;&gt;Node3 -->
<g id="edge2" class="edge">
<title>Node2&#45;&gt;Node3</title>
<path fill="none" stroke="#63b8ff" d="M558.72,-395.54C574.04,-386.58 593.66,-375.1 609.02,-366.11"/>
<polygon fill="#63b8ff" stroke="#63b8ff" points="610.71,-369.18 617.57,-361.11 607.17,-363.14 610.71,-369.18"/>
</g>
<!-- Node2&#45;&gt;Node4 -->
<g id="edge38" class="edge">
<title>Node2&#45;&gt;Node4</title>
<path fill="none" stroke="#63b8ff" d="M517.85,-395.56C493.36,-371.83 450.9,-322.47 463,-275 482.88,-197.05 542.33,-204.54 570,-129 575.15,-114.95 572.93,-98.08 569.67,-85.26"/>
<polygon fill="#63b8ff" stroke="#63b8ff" points="573.09,-84.46 566.88,-75.88 566.38,-86.46 573.09,-84.46"/>
</g>
<!-- Node6 -->
<g id="node6" class="node">
<title>Node6</title>
<g id="a_node6"><a xlink:href="JUTDirectPrint_8h.html" target="_top" xlink:title=" ">
<polygon fill="white" stroke="#666666" points="606.5,-305 471.5,-305 471.5,-275 606.5,-275 606.5,-305"/>
<text text-anchor="start" x="479.5" y="-293" font-family="Helvetica,sans-Serif" font-size="10.00">JSystem/JUtility/JUTDirect</text>
<text text-anchor="middle" x="539" y="-282" font-family="Helvetica,sans-Serif" font-size="10.00">Print.h</text>
</a>
</g>
</g>
<!-- Node2&#45;&gt;Node6 -->
<g id="edge5" class="edge">
<title>Node2&#45;&gt;Node6</title>
<path fill="none" stroke="#63b8ff" d="M534.59,-395.88C535.41,-376.39 536.9,-340.92 537.92,-316.67"/>
<polygon fill="#63b8ff" stroke="#63b8ff" points="541.41,-317.12 538.33,-306.98 534.41,-316.83 541.41,-317.12"/>
</g>
<!-- Node13 -->
<g id="node13" class="node">
<title>Node13</title>
<g id="a_node13"><a xlink:href="JUTFader_8h.html" target="_top" xlink:title=" ">
<polygon fill="white" stroke="#666666" points="805,-299.5 663,-299.5 663,-280.5 805,-280.5 805,-299.5"/>
<text text-anchor="middle" x="734" y="-287.5" font-family="Helvetica,sans-Serif" font-size="10.00">JSystem/JUtility/JUTFader.h</text>
</a>
</g>
</g>
<!-- Node2&#45;&gt;Node13 -->
<g id="edge16" class="edge">
<title>Node2&#45;&gt;Node13</title>
<path fill="none" stroke="#63b8ff" d="M590.25,-408.57C630.17,-404.55 682.28,-392.75 715,-360 727.76,-347.23 732.16,-326.72 733.57,-311.38"/>
<polygon fill="#63b8ff" stroke="#63b8ff" points="737.06,-311.67 734.1,-301.5 730.07,-311.3 737.06,-311.67"/>
</g>
<!-- Node19 -->
<g id="node19" class="node">
<title>Node19</title>
<g id="a_node19"><a xlink:href="JUTXfb_8h.html" target="_top" xlink:title=" ">
<polygon fill="white" stroke="#666666" points="412,-360 280,-360 280,-341 412,-341 412,-360"/>
<text text-anchor="middle" x="346" y="-348" font-family="Helvetica,sans-Serif" font-size="10.00">JSystem/JUtility/JUTXfb.h</text>
</a>
</g>
</g>
<!-- Node2&#45;&gt;Node19 -->
<g id="edge24" class="edge">
<title>Node2&#45;&gt;Node19</title>
<path fill="none" stroke="#63b8ff" d="M487.53,-395.54C456.19,-385.79 415.29,-373.06 385.53,-363.8"/>
<polygon fill="#63b8ff" stroke="#63b8ff" points="386.74,-360.51 376.15,-360.88 384.66,-367.2 386.74,-360.51"/>
</g>
<!-- Node25 -->
<g id="node25" class="node">
<title>Node25</title>
<g id="a_node25"><a xlink:href="OSAlarm_8h.html" target="_top" xlink:title=" ">
<polygon fill="white" stroke="#666666" points="189.5,-299.5 78.5,-299.5 78.5,-280.5 189.5,-280.5 189.5,-299.5"/>
<text text-anchor="middle" x="134" y="-287.5" font-family="Helvetica,sans-Serif" font-size="10.00">dolphin/os/OSAlarm.h</text>
</a>
</g>
</g>
<!-- Node2&#45;&gt;Node25 -->
<g id="edge34" class="edge">
<title>Node2&#45;&gt;Node25</title>
<path fill="none" stroke="#63b8ff" d="M477.68,-403.91C423.63,-396.99 340.21,-383.49 271,-360 229.37,-345.87 184.46,-321.27 157.81,-305.58"/>
<polygon fill="#63b8ff" stroke="#63b8ff" points="159.89,-302.75 149.51,-300.62 156.3,-308.76 159.89,-302.75"/>
</g>
<!-- Node3&#45;&gt;Node4 -->
<g id="edge3" class="edge">
<title>Node3&#45;&gt;Node4</title>
<path fill="none" stroke="#63b8ff" d="M636.07,-340.87C642.11,-314.21 658.29,-230.99 642,-165 635.61,-139.11 634.16,-131.22 618,-110 609.34,-98.63 597.19,-88.4 586.51,-80.63"/>
<polygon fill="#63b8ff" stroke="#63b8ff" points="588.71,-77.9 578.5,-75.07 584.72,-83.65 588.71,-77.9"/>
</g>
<!-- Node5 -->
<g id="node5" class="node">
<title>Node5</title>
<g id="a_node5"><a xlink:href="stddef_8h.html" target="_top" xlink:title=" ">
<polygon fill="white" stroke="#666666" points="588.5,-19 537.5,-19 537.5,0 588.5,0 588.5,-19"/>
<text text-anchor="middle" x="563" y="-7" font-family="Helvetica,sans-Serif" font-size="10.00">stddef.h</text>
</a>
</g>
</g>
<!-- Node4&#45;&gt;Node5 -->
<g id="edge4" class="edge">
<title>Node4&#45;&gt;Node5</title>
<path fill="none" stroke="#63b8ff" d="M563,-54.75C563,-48.27 563,-39.16 563,-30.9"/>
<polygon fill="#63b8ff" stroke="#63b8ff" points="566.5,-30.96 563,-20.96 559.5,-30.96 566.5,-30.96"/>
</g>
<!-- Node7 -->
<g id="node7" class="node">
<title>Node7</title>
<g id="a_node7"><a xlink:href="TColor_8h.html" target="_top" xlink:title=" ">
<polygon fill="white" stroke="#666666" points="636.5,-239 509.5,-239 509.5,-220 636.5,-220 636.5,-239"/>
<text text-anchor="middle" x="573" y="-227" font-family="Helvetica,sans-Serif" font-size="10.00">JSystem/JUtility/TColor.h</text>
</a>
</g>
</g>
<!-- Node6&#45;&gt;Node7 -->
<g id="edge6" class="edge">
<title>Node6&#45;&gt;Node7</title>
<path fill="none" stroke="#63b8ff" d="M547.4,-274.54C551.89,-266.82 557.46,-257.24 562.25,-248.99"/>
<polygon fill="#63b8ff" stroke="#63b8ff" points="565.2,-250.89 567.2,-240.48 559.15,-247.37 565.2,-250.89"/>
</g>
<!-- Node12 -->
<g id="node12" class="node">
<title>Node12</title>
<g id="a_node12"><a xlink:href="____va__arg_8h.html" target="_top" xlink:title=" ">
<polygon fill="white" stroke="#666666" points="633,-184 569,-184 569,-165 633,-165 633,-184"/>
<text text-anchor="middle" x="601" y="-172" font-family="Helvetica,sans-Serif" font-size="10.00">__va_arg.h</text>
</a>
</g>
</g>
<!-- Node6&#45;&gt;Node12 -->
<g id="edge14" class="edge">
<title>Node6&#45;&gt;Node12</title>
<path fill="none" stroke="#63b8ff" d="M521.67,-274.64C506.68,-260.44 489.16,-238.24 501,-220 513.63,-200.55 536.96,-189.53 557.9,-183.32"/>
<polygon fill="#63b8ff" stroke="#63b8ff" points="558.65,-186.75 567.42,-180.81 556.86,-179.98 558.65,-186.75"/>
</g>
<!-- Node8 -->
<g id="node8" class="node">
<title>Node8</title>
<g id="a_node8"><a xlink:href="GXStruct_8h.html" target="_top" xlink:title=" ">
<polygon fill="white" stroke="#666666" points="498.5,-184 387.5,-184 387.5,-165 498.5,-165 498.5,-184"/>
<text text-anchor="middle" x="443" y="-172" font-family="Helvetica,sans-Serif" font-size="10.00">dolphin/gx/GXStruct.h</text>
</a>
</g>
</g>
<!-- Node7&#45;&gt;Node8 -->
<g id="edge7" class="edge">
<title>Node7&#45;&gt;Node8</title>
<path fill="none" stroke="#63b8ff" d="M550.95,-219.51C530.19,-211.04 498.84,-198.27 475.27,-188.66"/>
<polygon fill="#63b8ff" stroke="#63b8ff" points="476.71,-185.46 466.13,-184.93 474.07,-191.95 476.71,-185.46"/>
</g>
<!-- Node9 -->
<g id="node9" class="node">
<title>Node9</title>
<g id="a_node9"><a xlink:href="global_8h.html" target="_top" xlink:title=" ">
<polygon fill="white" stroke="#666666" points="561,-129 511,-129 511,-110 561,-110 561,-129"/>
<text text-anchor="middle" x="536" y="-117" font-family="Helvetica,sans-Serif" font-size="10.00">global.h</text>
</a>
</g>
</g>
<!-- Node8&#45;&gt;Node9 -->
<g id="edge8" class="edge">
<title>Node8&#45;&gt;Node9</title>
<path fill="none" stroke="#63b8ff" d="M458.78,-164.51C473.02,-156.39 494.24,-144.3 510.83,-134.85"/>
<polygon fill="#63b8ff" stroke="#63b8ff" points="512.19,-138.1 519.14,-130.11 508.72,-132.02 512.19,-138.1"/>
</g>
<!-- Node10 -->
<g id="node10" class="node">
<title>Node10</title>
<g id="a_node10"><a xlink:href="GXEnum_8h.html" target="_top" xlink:title=" ">
<polygon fill="white" stroke="#666666" points="493,-129 383,-129 383,-110 493,-110 493,-129"/>
<text text-anchor="middle" x="438" y="-117" font-family="Helvetica,sans-Serif" font-size="10.00">dolphin/gx/GXEnum.h</text>
</a>
</g>
</g>
<!-- Node8&#45;&gt;Node10 -->
<g id="edge10" class="edge">
<title>Node8&#45;&gt;Node10</title>
<path fill="none" stroke="#63b8ff" d="M442.17,-164.75C441.56,-158.27 440.7,-149.16 439.92,-140.9"/>
<polygon fill="#63b8ff" stroke="#63b8ff" points="443.41,-140.58 438.99,-130.95 436.44,-141.23 443.41,-140.58"/>
</g>
<!-- Node11 -->
<g id="node11" class="node">
<title>Node11</title>
<g id="a_node11"><a xlink:href="vi_8h.html" target="_top" xlink:title=" ">
<polygon fill="white" stroke="#666666" points="364.5,-129 299.5,-129 299.5,-110 364.5,-110 364.5,-129"/>
<text text-anchor="middle" x="332" y="-117" font-family="Helvetica,sans-Serif" font-size="10.00">dolphin/vi.h</text>
</a>
</g>
</g>
<!-- Node8&#45;&gt;Node11 -->
<g id="edge12" class="edge">
<title>Node8&#45;&gt;Node11</title>
<path fill="none" stroke="#63b8ff" d="M424.17,-164.51C406.84,-156.24 380.89,-143.84 360.93,-134.31"/>
<polygon fill="#63b8ff" stroke="#63b8ff" points="362.45,-131.16 351.92,-130.01 359.43,-137.48 362.45,-131.16"/>
</g>
<!-- Node9&#45;&gt;Node4 -->
<g id="edge9" class="edge">
<title>Node9&#45;&gt;Node4</title>
<path fill="none" stroke="#63b8ff" d="M540.46,-109.75C543.95,-102.88 548.95,-93.08 553.35,-84.45"/>
<polygon fill="#63b8ff" stroke="#63b8ff" points="556.34,-86.29 557.76,-75.79 550.1,-83.11 556.34,-86.29"/>
</g>
<!-- Node10&#45;&gt;Node4 -->
<g id="edge11" class="edge">
<title>Node10&#45;&gt;Node4</title>
<path fill="none" stroke="#63b8ff" d="M459.2,-109.51C479.08,-101.08 509.03,-88.38 531.66,-78.79"/>
<polygon fill="#63b8ff" stroke="#63b8ff" points="532.87,-82.07 540.72,-74.95 530.14,-75.63 532.87,-82.07"/>
</g>
<!-- Node11&#45;&gt;Node4 -->
<g id="edge13" class="edge">
<title>Node11&#45;&gt;Node4</title>
<path fill="none" stroke="#63b8ff" d="M364.61,-111.02C403.24,-102.15 468.04,-87.29 513.02,-76.97"/>
<polygon fill="#63b8ff" stroke="#63b8ff" points="513.56,-80.43 522.53,-74.79 512,-73.61 513.56,-80.43"/>
</g>
<!-- Node12&#45;&gt;Node4 -->
<g id="edge15" class="edge">
<title>Node12&#45;&gt;Node4</title>
<path fill="none" stroke="#63b8ff" d="M603.4,-164.51C606.32,-151.87 610.03,-128.33 603,-110 598.89,-99.29 590.89,-89.54 583.11,-81.91"/>
<polygon fill="#63b8ff" stroke="#63b8ff" points="585.53,-79.39 575.77,-75.28 580.84,-84.58 585.53,-79.39"/>
</g>
<!-- Node13&#45;&gt;Node7 -->
<g id="edge23" class="edge">
<title>Node13&#45;&gt;Node7</title>
<path fill="none" stroke="#63b8ff" d="M709.55,-280.12C682.6,-270.32 639.01,-254.48 608.34,-243.34"/>
<polygon fill="#63b8ff" stroke="#63b8ff" points="609.7,-240.11 599.11,-239.99 607.31,-246.69 609.7,-240.11"/>
</g>
<!-- Node14 -->
<g id="node14" class="node">
<title>Node14</title>
<g id="a_node14"><a xlink:href="JGeometry_8h.html" target="_top" xlink:title=" ">
<polygon fill="white" stroke="#666666" points="844.5,-239 731.5,-239 731.5,-220 844.5,-220 844.5,-239"/>
<text text-anchor="middle" x="788" y="-227" font-family="Helvetica,sans-Serif" font-size="10.00">JSystem/JGeometry.h</text>
</a>
</g>
</g>
<!-- Node13&#45;&gt;Node14 -->
<g id="edge17" class="edge">
<title>Node13&#45;&gt;Node14</title>
<path fill="none" stroke="#63b8ff" d="M741.97,-280.37C749.94,-271.73 762.43,-258.2 772.39,-247.42"/>
<polygon fill="#63b8ff" stroke="#63b8ff" points="774.76,-250 778.97,-240.28 769.62,-245.25 774.76,-250"/>
</g>
<!-- Node15 -->
<g id="node15" class="node">
<title>Node15</title>
<g id="a_node15"><a xlink:href="vec_8h.html" target="_top" xlink:title=" ">
<polygon fill="white" stroke="#666666" points="941,-184 849,-184 849,-165 941,-165 941,-184"/>
<text text-anchor="middle" x="895" y="-172" font-family="Helvetica,sans-Serif" font-size="10.00">dolphin/mtx/vec.h</text>
</a>
</g>
</g>
<!-- Node14&#45;&gt;Node15 -->
<g id="edge18" class="edge">
<title>Node14&#45;&gt;Node15</title>
<path fill="none" stroke="#63b8ff" d="M806.15,-219.51C822.78,-211.27 847.64,-198.96 866.85,-189.45"/>
<polygon fill="#63b8ff" stroke="#63b8ff" points="868.35,-192.6 875.76,-185.03 865.25,-186.33 868.35,-192.6"/>
</g>
<!-- Node16 -->
<g id="node16" class="node">
<title>Node16</title>
<g id="a_node16"><a xlink:href="math_8h.html" target="_top" xlink:title=" ">
<polygon fill="white" stroke="#666666" points="815,-184 769,-184 769,-165 815,-165 815,-184"/>
<text text-anchor="middle" x="792" y="-172" font-family="Helvetica,sans-Serif" font-size="10.00">math.h</text>
</a>
</g>
</g>
<!-- Node14&#45;&gt;Node16 -->
<g id="edge20" class="edge">
<title>Node14&#45;&gt;Node16</title>
<path fill="none" stroke="#63b8ff" d="M788.66,-219.75C789.15,-213.27 789.84,-204.16 790.46,-195.9"/>
<polygon fill="#63b8ff" stroke="#63b8ff" points="793.95,-196.19 791.21,-185.95 786.97,-195.66 793.95,-196.19"/>
</g>
<!-- Node15&#45;&gt;Node4 -->
<g id="edge19" class="edge">
<title>Node15&#45;&gt;Node4</title>
<path fill="none" stroke="#63b8ff" d="M867.73,-164.58C841.33,-155.85 800.25,-142 765,-129 743.47,-121.06 738.71,-117.42 717,-110 680.88,-97.66 639.26,-85.77 608.4,-77.39"/>
<polygon fill="#63b8ff" stroke="#63b8ff" points="609.57,-74.08 599.01,-74.86 607.75,-80.84 609.57,-74.08"/>
</g>
<!-- Node17 -->
<g id="node17" class="node">
<title>Node17</title>
<g id="a_node17"><a xlink:href="float_8h.html" target="_top" xlink:title=" ">
<polygon fill="white" stroke="#666666" points="849,-129 807,-129 807,-110 849,-110 849,-129"/>
<text text-anchor="middle" x="828" y="-117" font-family="Helvetica,sans-Serif" font-size="10.00">float.h</text>
</a>
</g>
</g>
<!-- Node16&#45;&gt;Node17 -->
<g id="edge21" class="edge">
<title>Node16&#45;&gt;Node17</title>
<path fill="none" stroke="#63b8ff" d="M797.94,-164.75C802.71,-157.73 809.56,-147.64 815.52,-138.87"/>
<polygon fill="#63b8ff" stroke="#63b8ff" points="818.35,-140.93 821.08,-130.69 812.56,-137 818.35,-140.93"/>
</g>
<!-- Node18 -->
<g id="node18" class="node">
<title>Node18</title>
<g id="a_node18"><a xlink:href="fdlibm_8h.html" target="_top" xlink:title=" ">
<polygon fill="white" stroke="#666666" points="853,-74 803,-74 803,-55 853,-55 853,-74"/>
<text text-anchor="middle" x="828" y="-62" font-family="Helvetica,sans-Serif" font-size="10.00">fdlibm.h</text>
</a>
</g>
</g>
<!-- Node17&#45;&gt;Node18 -->
<g id="edge22" class="edge">
<title>Node17&#45;&gt;Node18</title>
<path fill="none" stroke="#63b8ff" d="M828,-109.75C828,-103.27 828,-94.16 828,-85.9"/>
<polygon fill="#63b8ff" stroke="#63b8ff" points="831.5,-85.96 828,-75.96 824.5,-85.96 831.5,-85.96"/>
</g>
<!-- Node20 -->
<g id="node20" class="node">
<title>Node20</title>
<g id="a_node20"><a xlink:href="JUTVideo_8h.html" target="_top" xlink:title=" ">
<polygon fill="white" stroke="#666666" points="415,-299.5 273,-299.5 273,-280.5 415,-280.5 415,-299.5"/>
<text text-anchor="middle" x="344" y="-287.5" font-family="Helvetica,sans-Serif" font-size="10.00">JSystem/JUtility/JUTVideo.h</text>
</a>
</g>
</g>
<!-- Node19&#45;&gt;Node20 -->
<g id="edge25" class="edge">
<title>Node19&#45;&gt;Node20</title>
<path fill="none" stroke="#63b8ff" d="M345.7,-340.87C345.44,-333 345.03,-321.1 344.68,-310.89"/>
<polygon fill="#63b8ff" stroke="#63b8ff" points="348.19,-311.05 344.35,-301.18 341.19,-311.29 348.19,-311.05"/>
</g>
<!-- Node20&#45;&gt;Node8 -->
<g id="edge26" class="edge">
<title>Node20&#45;&gt;Node8</title>
<path fill="none" stroke="#63b8ff" d="M351.77,-280.09C368.11,-261.36 406.28,-217.6 427.71,-193.03"/>
<polygon fill="#63b8ff" stroke="#63b8ff" points="430.34,-195.34 434.27,-185.51 425.06,-190.74 430.34,-195.34"/>
</g>
<!-- Node20&#45;&gt;Node11 -->
<g id="edge33" class="edge">
<title>Node20&#45;&gt;Node11</title>
<path fill="none" stroke="#63b8ff" d="M343.39,-280.41C341.55,-254.62 336.05,-177.32 333.42,-140.47"/>
<polygon fill="#63b8ff" stroke="#63b8ff" points="336.93,-140.51 332.73,-130.78 329.95,-141.01 336.93,-140.51"/>
</g>
<!-- Node21 -->
<g id="node21" class="node">
<title>Node21</title>
<g id="a_node21"><a xlink:href="OSMessage_8h.html" target="_top" xlink:title=" ">
<polygon fill="white" stroke="#666666" points="330.5,-239 205.5,-239 205.5,-220 330.5,-220 330.5,-239"/>
<text text-anchor="middle" x="268" y="-227" font-family="Helvetica,sans-Serif" font-size="10.00">dolphin/os/OSMessage.h</text>
</a>
</g>
</g>
<!-- Node20&#45;&gt;Node21 -->
<g id="edge27" class="edge">
<title>Node20&#45;&gt;Node21</title>
<path fill="none" stroke="#63b8ff" d="M332.46,-280.12C320.85,-271.18 302.71,-257.22 288.62,-246.37"/>
<polygon fill="#63b8ff" stroke="#63b8ff" points="290.91,-243.72 280.85,-240.39 286.64,-249.26 290.91,-243.72"/>
</g>
<!-- Node24 -->
<g id="node24" class="node">
<title>Node24</title>
<g id="a_node24"><a xlink:href="OSTime_8h.html" target="_top" xlink:title=" ">
<polygon fill="white" stroke="#666666" points="187.5,-239 80.5,-239 80.5,-220 187.5,-220 187.5,-239"/>
<text text-anchor="middle" x="134" y="-227" font-family="Helvetica,sans-Serif" font-size="10.00">dolphin/os/OSTime.h</text>
</a>
</g>
</g>
<!-- Node20&#45;&gt;Node24 -->
<g id="edge31" class="edge">
<title>Node20&#45;&gt;Node24</title>
<path fill="none" stroke="#63b8ff" d="M312.11,-280.12C276.1,-270.09 217.34,-253.72 177.23,-242.54"/>
<polygon fill="#63b8ff" stroke="#63b8ff" points="178.23,-239.19 167.65,-239.87 176.35,-245.93 178.23,-239.19"/>
</g>
<!-- Node22 -->
<g id="node22" class="node">
<title>Node22</title>
<g id="a_node22"><a xlink:href="OSThread_8h.html" target="_top" xlink:title=" ">
<polygon fill="white" stroke="#666666" points="303,-184 187,-184 187,-165 303,-165 303,-184"/>
<text text-anchor="middle" x="245" y="-172" font-family="Helvetica,sans-Serif" font-size="10.00">dolphin/os/OSThread.h</text>
</a>
</g>
</g>
<!-- Node21&#45;&gt;Node22 -->
<g id="edge28" class="edge">
<title>Node21&#45;&gt;Node22</title>
<path fill="none" stroke="#63b8ff" d="M264.2,-219.75C261.26,-212.96 257.06,-203.3 253.35,-194.73"/>
<polygon fill="#63b8ff" stroke="#63b8ff" points="256.67,-193.61 249.48,-185.83 250.25,-196.4 256.67,-193.61"/>
</g>
<!-- Node23 -->
<g id="node23" class="node">
<title>Node23</title>
<g id="a_node23"><a xlink:href="OSContext_8h.html" target="_top" xlink:title=" ">
<polygon fill="white" stroke="#666666" points="281.5,-129 162.5,-129 162.5,-110 281.5,-110 281.5,-129"/>
<text text-anchor="middle" x="222" y="-117" font-family="Helvetica,sans-Serif" font-size="10.00">dolphin/os/OSContext.h</text>
</a>
</g>
</g>
<!-- Node22&#45;&gt;Node23 -->
<g id="edge29" class="edge">
<title>Node22&#45;&gt;Node23</title>
<path fill="none" stroke="#63b8ff" d="M241.2,-164.75C238.26,-157.96 234.06,-148.3 230.35,-139.73"/>
<polygon fill="#63b8ff" stroke="#63b8ff" points="233.67,-138.61 226.48,-130.83 227.25,-141.4 233.67,-138.61"/>
</g>
<!-- Node23&#45;&gt;Node4 -->
<g id="edge30" class="edge">
<title>Node23&#45;&gt;Node4</title>
<path fill="none" stroke="#63b8ff" d="M279.85,-109.51C344.6,-99.44 448.6,-83.28 510.91,-73.6"/>
<polygon fill="#63b8ff" stroke="#63b8ff" points="511.2,-77.09 520.55,-72.1 510.13,-70.18 511.2,-77.09"/>
</g>
<!-- Node24&#45;&gt;Node4 -->
<g id="edge32" class="edge">
<title>Node24&#45;&gt;Node4</title>
<path fill="none" stroke="#63b8ff" d="M132.28,-219.77C128.48,-197.71 122.04,-139.42 153,-110 178.48,-85.78 406.15,-72.53 510.8,-67.68"/>
<polygon fill="#63b8ff" stroke="#63b8ff" points="510.69,-71.18 520.53,-67.23 510.38,-64.19 510.69,-71.18"/>
</g>
<!-- Node25&#45;&gt;Node24 -->
<g id="edge37" class="edge">
<title>Node25&#45;&gt;Node24</title>
<path fill="none" stroke="#63b8ff" d="M134,-280.37C134,-272.5 134,-260.6 134,-250.39"/>
<polygon fill="#63b8ff" stroke="#63b8ff" points="137.5,-250.68 134,-240.68 130.5,-250.68 137.5,-250.68"/>
</g>
<!-- Node26 -->
<g id="node26" class="node">
<title>Node26</title>
<g id="a_node26"><a xlink:href="OSError_8h.html" target="_top" xlink:title=" ">
<polygon fill="white" stroke="#666666" points="106,-129 0,-129 0,-110 106,-110 106,-129"/>
<text text-anchor="middle" x="53" y="-117" font-family="Helvetica,sans-Serif" font-size="10.00">dolphin/os/OSError.h</text>
</a>
</g>
</g>
<!-- Node25&#45;&gt;Node26 -->
<g id="edge35" class="edge">
<title>Node25&#45;&gt;Node26</title>
<path fill="none" stroke="#63b8ff" d="M116.53,-280.04C101.86,-271.55 81.64,-257.36 71,-239 53.13,-208.17 51.11,-165.57 51.74,-140.74"/>
<polygon fill="#63b8ff" stroke="#63b8ff" points="55.23,-140.9 52.18,-130.75 48.24,-140.58 55.23,-140.9"/>
</g>
<!-- Node26&#45;&gt;Node4 -->
<g id="edge36" class="edge">
<title>Node26&#45;&gt;Node4</title>
<path fill="none" stroke="#63b8ff" d="M106.38,-111.6C110.98,-111.04 115.57,-110.5 120,-110 261.06,-93.97 427.74,-78.04 510.67,-70.31"/>
<polygon fill="#63b8ff" stroke="#63b8ff" points="510.9,-73.8 520.53,-69.39 510.25,-66.83 510.9,-73.8"/>
</g>
<!-- Node27&#45;&gt;Node15 -->
<g id="edge44" class="edge">
<title>Node27&#45;&gt;Node15</title>
<path fill="none" stroke="#63b8ff" d="M954.31,-280.43C963.45,-266.88 978.13,-239.97 967,-220 959.36,-206.29 945.57,-196.28 932.08,-189.26"/>
<polygon fill="#63b8ff" stroke="#63b8ff" points="933.84,-186.22 923.31,-185.12 930.85,-192.55 933.84,-186.22"/>
</g>
<!-- Node28 -->
<g id="node28" class="node">
<title>Node28</title>
<g id="a_node28"><a xlink:href="mtx44_8h.html" target="_top" xlink:title=" ">
<polygon fill="white" stroke="#666666" points="1070.5,-184 967.5,-184 967.5,-165 1070.5,-165 1070.5,-184"/>
<text text-anchor="middle" x="1019" y="-172" font-family="Helvetica,sans-Serif" font-size="10.00">dolphin/mtx/mtx44.h</text>
</a>
</g>
</g>
<!-- Node27&#45;&gt;Node28 -->
<g id="edge40" class="edge">
<title>Node27&#45;&gt;Node28</title>
<path fill="none" stroke="#63b8ff" d="M954.21,-280.27C961.17,-270.39 972.71,-253.74 982,-239 991.37,-224.14 1001.36,-206.9 1008.6,-194.13"/>
<polygon fill="#63b8ff" stroke="#63b8ff" points="1011.57,-195.99 1013.42,-185.56 1005.47,-192.56 1011.57,-195.99"/>
</g>
<!-- Node29 -->
<g id="node29" class="node">
<title>Node29</title>
<g id="a_node29"><a xlink:href="quat_8h.html" target="_top" xlink:title=" ">
<polygon fill="white" stroke="#666666" points="957.5,-239 862.5,-239 862.5,-220 957.5,-220 957.5,-239"/>
<text text-anchor="middle" x="910" y="-227" font-family="Helvetica,sans-Serif" font-size="10.00">dolphin/mtx/quat.h</text>
</a>
</g>
</g>
<!-- Node27&#45;&gt;Node29 -->
<g id="edge42" class="edge">
<title>Node27&#45;&gt;Node29</title>
<path fill="none" stroke="#63b8ff" d="M942.39,-280.37C937,-272.07 928.69,-259.28 921.84,-248.72"/>
<polygon fill="#63b8ff" stroke="#63b8ff" points="924.84,-246.92 916.45,-240.44 918.97,-250.73 924.84,-246.92"/>
</g>
<!-- Node28&#45;&gt;Node4 -->
<g id="edge41" class="edge">
<title>Node28&#45;&gt;Node4</title>
<path fill="none" stroke="#63b8ff" d="M967.29,-166.35C921.98,-159.31 854.7,-147 798,-129 778.09,-122.68 774.82,-116.61 755,-110 708.47,-94.48 653.85,-82.39 614.78,-74.75"/>
<polygon fill="#63b8ff" stroke="#63b8ff" points="615.66,-71.36 605.18,-72.91 614.34,-78.23 615.66,-71.36"/>
</g>
<!-- Node29&#45;&gt;Node15 -->
<g id="edge43" class="edge">
<title>Node29&#45;&gt;Node15</title>
<path fill="none" stroke="#63b8ff" d="M907.52,-219.75C905.65,-213.11 902.99,-203.73 900.61,-195.31"/>
<polygon fill="#63b8ff" stroke="#63b8ff" points="904.03,-194.57 897.94,-185.9 897.3,-196.47 904.03,-194.57"/>
</g>
</g>
</svg>
        <g id="navigator" transform="translate(0 0)" fill="#404254">
                <rect fill="#f2f5e9" fill-opacity="0.5" stroke="#606060" stroke-width=".5" x="0" y="0" width="60" height="60"/>
                <use id="zoomplus" xlink:href="#zoomPlus" x="17" y="9" onmousedown="handleZoom(evt,'in')"/>
                <use id="zoomminus" xlink:href="#zoomMin" x="42" y="9" onmousedown="handleZoom(evt,'out')"/>
                <use id="reset" xlink:href="#resetDef" x="30" y="36" onmousedown="handleReset()"/>
                <g id="arrowUp" xlink:href="#dirArrow" transform="translate(30 24)" onmousedown="handlePan(0,-1)">
                  <use xlink:href="#rim" fill="#404040">
                        <set attributeName="fill" to="#808080" begin="arrowUp.mouseover" end="arrowUp.mouseout"/>
                  </use>
                  <path fill="none" stroke="white" stroke-width="1.5" d="M0,-3.0v7 M-2.5,-0.5L0,-3.0L2.5,-0.5"/>
                </g>
                <g id="arrowRight" xlink:href="#dirArrow" transform="rotate(90) translate(36 -43)" onmousedown="handlePan(1,0)">
                  <use xlink:href="#rim" fill="#404040">
                        <set attributeName="fill" to="#808080" begin="arrowRight.mouseover" end="arrowRight.mouseout"/>
                  </use>
                  <path fill="none" stroke="white" stroke-width="1.5" d="M0,-3.0v7 M-2.5,-0.5L0,-3.0L2.5,-0.5"/>
                </g>
                <g id="arrowDown" xlink:href="#dirArrow" transform="rotate(180) translate(-30 -48)" onmousedown="handlePan(0,1)">
                  <use xlink:href="#rim" fill="#404040">
                        <set attributeName="fill" to="#808080" begin="arrowDown.mouseover" end="arrowDown.mouseout"/>
                  </use>
                  <path fill="none" stroke="white" stroke-width="1.5" d="M0,-3.0v7 M-2.5,-0.5L0,-3.0L2.5,-0.5"/>
                </g>
                <g id="arrowLeft" xlink:href="#dirArrow" transform="rotate(270) translate(-36 17)" onmousedown="handlePan(-1,0)">
                  <use xlink:href="#rim" fill="#404040">
                        <set attributeName="fill" to="#808080" begin="arrowLeft.mouseover" end="arrowLeft.mouseout"/>
                  </use>
                  <path fill="none" stroke="white" stroke-width="1.5" d="M0,-3.0v7 M-2.5,-0.5L0,-3.0L2.5,-0.5"/>
                </g>
        </g>
        <svg viewBox="0 0 15 15" width="100%" height="30px" preserveAspectRatio="xMaxYMin meet">
         <g id="arrow_out" transform="scale(0.3 0.3)">
          <a xlink:href="m__Do__graphic_8h__incl_org.svg" target="_base">
           <rect id="button" ry="5" rx="5" y="6" x="6" height="38" width="38"
                fill="#f2f5e9" fill-opacity="0.5" stroke="#606060" stroke-width="1.0"/>
           <path id="arrow"
             d="M 11.500037,31.436501 C 11.940474,20.09759 22.043105,11.32322 32.158766,21.979434 L 37.068811,17.246167 C 37.068811,17.246167 37.088388,32 37.088388,32 L 22.160133,31.978069 C 22.160133,31.978069 26.997745,27.140456 26.997745,27.140456 C 18.528582,18.264221 13.291696,25.230495 11.500037,31.436501 z"
             style="fill:#404040;"/>
          </a>
         </g>
        </svg>
</svg>
