<?xml version="1.0" encoding="UTF-8" standalone="no"?>
<!DOCTYPE svg PUBLIC "-//W3C//DTD SVG 1.1//EN"
 "http://www.w3.org/Graphics/SVG/1.1/DTD/svg11.dtd">
<!-- Generated by graphviz version 2.47.0 (20210316.2052)
 -->
<!-- Title: include/m_Do/m_Do_audio/m_Do_audio.h Pages: 1 -->
<svg width="1606pt" height="620pt"
 viewBox="0.00 0.00 1605.50 620.00" xmlns="http://www.w3.org/2000/svg" xmlns:xlink="http://www.w3.org/1999/xlink">
<g id="graph0" class="graph" transform="scale(1 1) rotate(0) translate(4 616)">
<title>include/m_Do/m_Do_audio/m_Do_audio.h</title>
<polygon fill="white" stroke="transparent" points="-4,4 -4,-616 1601.5,-616 1601.5,4 -4,4"/>
<!-- Node1 -->
<g id="node1" class="node">
<title>Node1</title>
<g id="a_node1"><a xlink:title=" ">
<polygon fill="#bfbfbf" stroke="black" points="1241.5,-581.5 1241.5,-611.5 1374.5,-611.5 1374.5,-581.5 1241.5,-581.5"/>
<text text-anchor="start" x="1249.5" y="-599.5" font-family="Helvetica,sans-Serif" font-size="10.00">include/m_Do/m_Do_audio</text>
<text text-anchor="middle" x="1308" y="-588.5" font-family="Helvetica,sans-Serif" font-size="10.00">/m_Do_audio.h</text>
</a>
</g>
</g>
<!-- Node2 -->
<g id="node2" class="node">
<title>Node2</title>
<g id="a_node2"><a xlink:href="Z2AudioMgr_8h.html" target="_top" xlink:title=" ">
<polygon fill="white" stroke="black" points="867,-514.5 867,-544.5 989,-544.5 989,-514.5 867,-514.5"/>
<text text-anchor="start" x="875" y="-532.5" font-family="Helvetica,sans-Serif" font-size="10.00">Z2AudioLib/Z2AudioMgr</text>
<text text-anchor="middle" x="928" y="-521.5" font-family="Helvetica,sans-Serif" font-size="10.00">/Z2AudioMgr.h</text>
</a>
</g>
</g>
<!-- Node1&#45;&gt;Node2 -->
<g id="edge1" class="edge">
<title>Node1&#45;&gt;Node2</title>
<path fill="none" stroke="midnightblue" d="M1241.37,-584.1C1173.51,-572.5 1068.65,-554.56 999.19,-542.68"/>
<polygon fill="midnightblue" stroke="midnightblue" points="999.65,-539.21 989.2,-540.97 998.47,-546.11 999.65,-539.21"/>
</g>
<!-- Node12 -->
<g id="node12" class="node">
<title>Node12</title>
<g id="a_node12"><a xlink:href="global_8h.html" target="_top" xlink:title=" ">
<polygon fill="white" stroke="black" points="1053,-185 1053,-204 1103,-204 1103,-185 1053,-185"/>
<text text-anchor="middle" x="1078" y="-192" font-family="Helvetica,sans-Serif" font-size="10.00">global.h</text>
</a>
</g>
</g>
<!-- Node1&#45;&gt;Node12 -->
<g id="edge55" class="edge">
<title>Node1&#45;&gt;Node12</title>
<path fill="none" stroke="midnightblue" d="M1304.6,-581.34C1299.14,-557.27 1289,-506.8 1289,-463.5 1289,-463.5 1289,-463.5 1289,-327.5 1289,-287.34 1280.58,-272.02 1250,-246 1211,-212.82 1151.09,-201.43 1113.25,-197.53"/>
<polygon fill="midnightblue" stroke="midnightblue" points="1113.47,-194.03 1103.2,-196.61 1112.84,-201 1113.47,-194.03"/>
</g>
<!-- Node26 -->
<g id="node26" class="node">
<title>Node26</title>
<g id="a_node26"><a xlink:href="Z2EnvSeMgr_8h.html" target="_top" xlink:title=" ">
<polygon fill="white" stroke="black" points="1317.5,-447.5 1317.5,-477.5 1442.5,-477.5 1442.5,-447.5 1317.5,-447.5"/>
<text text-anchor="start" x="1325.5" y="-465.5" font-family="Helvetica,sans-Serif" font-size="10.00">Z2AudioLib/Z2EnvSeMgr</text>
<text text-anchor="middle" x="1380" y="-454.5" font-family="Helvetica,sans-Serif" font-size="10.00">/Z2EnvSeMgr.h</text>
</a>
</g>
</g>
<!-- Node1&#45;&gt;Node26 -->
<g id="edge50" class="edge">
<title>Node1&#45;&gt;Node26</title>
<path fill="none" stroke="midnightblue" d="M1313.81,-581.32C1320.76,-564.8 1333.1,-536.83 1346,-514 1351.33,-504.58 1357.83,-494.61 1363.72,-486.04"/>
<polygon fill="midnightblue" stroke="midnightblue" points="1366.69,-487.9 1369.56,-477.7 1360.96,-483.89 1366.69,-487.9"/>
</g>
<!-- Node27 -->
<g id="node27" class="node">
<title>Node27</title>
<g id="a_node27"><a xlink:href="d__kankyo_8h.html" target="_top" xlink:title=" ">
<polygon fill="white" stroke="black" points="1355,-520 1355,-539 1473,-539 1473,-520 1355,-520"/>
<text text-anchor="middle" x="1414" y="-527" font-family="Helvetica,sans-Serif" font-size="10.00">d/d_kankyo/d_kankyo.h</text>
</a>
</g>
</g>
<!-- Node1&#45;&gt;Node27 -->
<g id="edge52" class="edge">
<title>Node1&#45;&gt;Node27</title>
<path fill="none" stroke="midnightblue" d="M1331,-581.4C1348.94,-570.39 1373.72,-555.2 1391.52,-544.28"/>
<polygon fill="midnightblue" stroke="midnightblue" points="1393.43,-547.22 1400.13,-539.01 1389.77,-541.25 1393.43,-547.22"/>
</g>
<!-- Node3 -->
<g id="node3" class="node">
<title>Node3</title>
<g id="a_node3"><a xlink:href="JKRAramArchive_8h.html" target="_top" xlink:title=" ">
<polygon fill="white" stroke="black" points="204.5,-447.5 204.5,-477.5 373.5,-477.5 373.5,-447.5 204.5,-447.5"/>
<text text-anchor="start" x="212.5" y="-465.5" font-family="Helvetica,sans-Serif" font-size="10.00">JSystem/JKernel/JKRAramArchive</text>
<text text-anchor="middle" x="289" y="-454.5" font-family="Helvetica,sans-Serif" font-size="10.00">/JKRAramArchive.h</text>
</a>
</g>
</g>
<!-- Node2&#45;&gt;Node3 -->
<g id="edge2" class="edge">
<title>Node2&#45;&gt;Node3</title>
<path fill="none" stroke="midnightblue" d="M866.73,-522.27C754.85,-510.89 516.78,-486.67 383.82,-473.15"/>
<polygon fill="midnightblue" stroke="midnightblue" points="383.95,-469.64 373.65,-472.11 383.24,-476.6 383.95,-469.64"/>
</g>
<!-- Node19 -->
<g id="node19" class="node">
<title>Node19</title>
<g id="a_node19"><a xlink:href="JKRSolidHeap_8h.html" target="_top" xlink:title=" ">
<polygon fill="white" stroke="black" points="713,-313.5 713,-343.5 847,-343.5 847,-313.5 713,-313.5"/>
<text text-anchor="start" x="721" y="-331.5" font-family="Helvetica,sans-Serif" font-size="10.00">JSystem/JKernel/JKRSolid</text>
<text text-anchor="middle" x="780" y="-320.5" font-family="Helvetica,sans-Serif" font-size="10.00">Heap/JKRSolidHeap.h</text>
</a>
</g>
</g>
<!-- Node2&#45;&gt;Node19 -->
<g id="edge33" class="edge">
<title>Node2&#45;&gt;Node19</title>
<path fill="none" stroke="midnightblue" d="M917.36,-514.19C891.86,-479.91 827.15,-392.9 796.54,-351.73"/>
<polygon fill="midnightblue" stroke="midnightblue" points="799.32,-349.62 790.55,-343.68 793.71,-353.79 799.32,-349.62"/>
</g>
<!-- Node21 -->
<g id="node21" class="node">
<title>Node21</title>
<g id="a_node21"><a xlink:href="Z2SceneMgr_8h.html" target="_top" xlink:title=" ">
<polygon fill="white" stroke="black" points="1008.5,-380.5 1008.5,-410.5 1133.5,-410.5 1133.5,-380.5 1008.5,-380.5"/>
<text text-anchor="start" x="1016.5" y="-398.5" font-family="Helvetica,sans-Serif" font-size="10.00">Z2AudioLib/Z2SceneMgr</text>
<text text-anchor="middle" x="1071" y="-387.5" font-family="Helvetica,sans-Serif" font-size="10.00">/Z2SceneMgr.h</text>
</a>
</g>
</g>
<!-- Node2&#45;&gt;Node21 -->
<g id="edge39" class="edge">
<title>Node2&#45;&gt;Node21</title>
<path fill="none" stroke="midnightblue" d="M943.3,-514.37C968.46,-491.15 1018.7,-444.78 1048.1,-417.64"/>
<polygon fill="midnightblue" stroke="midnightblue" points="1050.83,-419.88 1055.81,-410.52 1046.08,-414.74 1050.83,-419.88"/>
</g>
<!-- Node4 -->
<g id="node4" class="node">
<title>Node4</title>
<g id="a_node4"><a xlink:href="JKRArchive_8h.html" target="_top" xlink:title=" ">
<polygon fill="white" stroke="black" points="216,-380.5 216,-410.5 362,-410.5 362,-380.5 216,-380.5"/>
<text text-anchor="start" x="224" y="-398.5" font-family="Helvetica,sans-Serif" font-size="10.00">JSystem/JKernel/JKRArchive</text>
<text text-anchor="middle" x="289" y="-387.5" font-family="Helvetica,sans-Serif" font-size="10.00">/JKRArchive.h</text>
</a>
</g>
</g>
<!-- Node3&#45;&gt;Node4 -->
<g id="edge3" class="edge">
<title>Node3&#45;&gt;Node4</title>
<path fill="none" stroke="midnightblue" d="M289,-447.4C289,-439.64 289,-429.81 289,-420.86"/>
<polygon fill="midnightblue" stroke="midnightblue" points="292.5,-420.58 289,-410.58 285.5,-420.58 292.5,-420.58"/>
</g>
<!-- Node8 -->
<g id="node8" class="node">
<title>Node8</title>
<g id="a_node8"><a xlink:href="types_8h.html" target="_top" xlink:title=" ">
<polygon fill="white" stroke="black" points="547.5,-0.5 547.5,-19.5 628.5,-19.5 628.5,-0.5 547.5,-0.5"/>
<text text-anchor="middle" x="588" y="-7.5" font-family="Helvetica,sans-Serif" font-size="10.00">dolphin/types.h</text>
</a>
</g>
</g>
<!-- Node3&#45;&gt;Node8 -->
<g id="edge32" class="edge">
<title>Node3&#45;&gt;Node8</title>
<path fill="none" stroke="midnightblue" d="M204.24,-457.7C118.97,-448.78 0,-420.1 0,-329.5 0,-329.5 0,-329.5 0,-132 0,-87.84 24.8,-76.32 64,-56 145.46,-13.77 421.97,-10.11 537.07,-10.49"/>
<polygon fill="midnightblue" stroke="midnightblue" points="537.35,-13.99 547.37,-10.54 537.39,-6.99 537.35,-13.99"/>
</g>
<!-- Node5 -->
<g id="node5" class="node">
<title>Node5</title>
<g id="a_node5"><a xlink:href="JKRDecomp_8h.html" target="_top" xlink:title=" ">
<polygon fill="white" stroke="black" points="86.5,-313.5 86.5,-343.5 235.5,-343.5 235.5,-313.5 86.5,-313.5"/>
<text text-anchor="start" x="94.5" y="-331.5" font-family="Helvetica,sans-Serif" font-size="10.00">JSystem/JKernel/JKRDecomp</text>
<text text-anchor="middle" x="161" y="-320.5" font-family="Helvetica,sans-Serif" font-size="10.00">/JKRDecomp.h</text>
</a>
</g>
</g>
<!-- Node4&#45;&gt;Node5 -->
<g id="edge4" class="edge">
<title>Node4&#45;&gt;Node5</title>
<path fill="none" stroke="midnightblue" d="M261.23,-380.4C242.61,-370.94 217.89,-358.39 197.66,-348.12"/>
<polygon fill="midnightblue" stroke="midnightblue" points="199.22,-344.98 188.72,-343.58 196.05,-351.23 199.22,-344.98"/>
</g>
<!-- Node7 -->
<g id="node7" class="node">
<title>Node7</title>
<g id="a_node7"><a xlink:href="SArc_8h.html" target="_top" xlink:title=" ">
<polygon fill="white" stroke="black" points="169.5,-185 169.5,-204 292.5,-204 292.5,-185 169.5,-185"/>
<text text-anchor="middle" x="231" y="-192" font-family="Helvetica,sans-Serif" font-size="10.00">JSystem/JKernel/SArc.h</text>
</a>
</g>
</g>
<!-- Node4&#45;&gt;Node7 -->
<g id="edge30" class="edge">
<title>Node4&#45;&gt;Node7</title>
<path fill="none" stroke="midnightblue" d="M286.02,-380.41C280.26,-353.83 266.77,-294.6 251,-246 247.45,-235.07 242.75,-223.09 238.79,-213.55"/>
<polygon fill="midnightblue" stroke="midnightblue" points="242.01,-212.16 234.89,-204.32 235.56,-214.89 242.01,-212.16"/>
</g>
<!-- Node4&#45;&gt;Node8 -->
<g id="edge31" class="edge">
<title>Node4&#45;&gt;Node8</title>
<path fill="none" stroke="midnightblue" d="M290.92,-380.45C294.97,-353.43 305.81,-292.79 327,-246 369.21,-152.8 375.6,-117.99 457,-56 480.39,-38.19 511.32,-27.12 537.25,-20.43"/>
<polygon fill="midnightblue" stroke="midnightblue" points="538.4,-23.75 547.29,-17.99 536.74,-16.95 538.4,-23.75"/>
</g>
<!-- Node18 -->
<g id="node18" class="node">
<title>Node18</title>
<g id="a_node18"><a xlink:href="JKRFileLoader_8h.html" target="_top" xlink:title=" ">
<polygon fill="white" stroke="black" points="336,-246.5 336,-276.5 494,-276.5 494,-246.5 336,-246.5"/>
<text text-anchor="start" x="344" y="-264.5" font-family="Helvetica,sans-Serif" font-size="10.00">JSystem/JKernel/JKRFileLoader</text>
<text text-anchor="middle" x="415" y="-253.5" font-family="Helvetica,sans-Serif" font-size="10.00">/JKRFileLoader.h</text>
</a>
</g>
</g>
<!-- Node4&#45;&gt;Node18 -->
<g id="edge27" class="edge">
<title>Node4&#45;&gt;Node18</title>
<path fill="none" stroke="midnightblue" d="M302.48,-380.37C324.56,-357.25 368.54,-311.18 394.49,-283.99"/>
<polygon fill="midnightblue" stroke="midnightblue" points="397.24,-286.17 401.61,-276.52 392.18,-281.34 397.24,-286.17"/>
</g>
<!-- Node6 -->
<g id="node6" class="node">
<title>Node6</title>
<g id="a_node6"><a xlink:href="JKRCompression_8h.html" target="_top" xlink:title=" ">
<polygon fill="white" stroke="black" points="65.5,-252 65.5,-271 242.5,-271 242.5,-252 65.5,-252"/>
<text text-anchor="middle" x="154" y="-259" font-family="Helvetica,sans-Serif" font-size="10.00">JSystem/JKernel/JKRCompression.h</text>
</a>
</g>
</g>
<!-- Node5&#45;&gt;Node6 -->
<g id="edge5" class="edge">
<title>Node5&#45;&gt;Node6</title>
<path fill="none" stroke="midnightblue" d="M159.48,-313.4C158.47,-303.96 157.12,-291.45 156.01,-281.19"/>
<polygon fill="midnightblue" stroke="midnightblue" points="159.49,-280.76 154.94,-271.19 152.53,-281.51 159.49,-280.76"/>
</g>
<!-- Node5&#45;&gt;Node8 -->
<g id="edge26" class="edge">
<title>Node5&#45;&gt;Node8</title>
<path fill="none" stroke="midnightblue" d="M109.63,-313.44C90.18,-305.68 69.5,-294.05 56,-277 32.97,-247.92 38,-232.6 38,-195.5 38,-195.5 38,-195.5 38,-132 38,-30.4 400.51,-14.02 536.92,-11.45"/>
<polygon fill="midnightblue" stroke="midnightblue" points="537.17,-14.94 547.11,-11.27 537.05,-7.95 537.17,-14.94"/>
</g>
<!-- Node9 -->
<g id="node9" class="node">
<title>Node9</title>
<g id="a_node9"><a xlink:href="JKRThread_8h.html" target="_top" xlink:title=" ">
<polygon fill="white" stroke="black" points="512.5,-246.5 512.5,-276.5 655.5,-276.5 655.5,-246.5 512.5,-246.5"/>
<text text-anchor="start" x="520.5" y="-264.5" font-family="Helvetica,sans-Serif" font-size="10.00">JSystem/JKernel/JKRThread</text>
<text text-anchor="middle" x="584" y="-253.5" font-family="Helvetica,sans-Serif" font-size="10.00">/JKRThread.h</text>
</a>
</g>
</g>
<!-- Node5&#45;&gt;Node9 -->
<g id="edge9" class="edge">
<title>Node5&#45;&gt;Node9</title>
<path fill="none" stroke="midnightblue" d="M235.82,-317.12C302.88,-307.67 404.19,-293.01 502.36,-277.07"/>
<polygon fill="midnightblue" stroke="midnightblue" points="503.16,-280.49 512.47,-275.43 502.03,-273.58 503.16,-280.49"/>
</g>
<!-- Node6&#45;&gt;Node7 -->
<g id="edge6" class="edge">
<title>Node6&#45;&gt;Node7</title>
<path fill="none" stroke="midnightblue" d="M164.38,-251.73C176.85,-241.21 197.97,-223.38 213.09,-210.62"/>
<polygon fill="midnightblue" stroke="midnightblue" points="215.4,-213.25 220.78,-204.13 210.88,-207.9 215.4,-213.25"/>
</g>
<!-- Node6&#45;&gt;Node8 -->
<g id="edge8" class="edge">
<title>Node6&#45;&gt;Node8</title>
<path fill="none" stroke="midnightblue" d="M152.86,-251.98C151.18,-236.65 149.3,-203.74 160,-179 189.47,-110.87 207.32,-90.6 273,-56 317.76,-32.42 459.68,-19.55 536.85,-14.13"/>
<polygon fill="midnightblue" stroke="midnightblue" points="537.55,-17.59 547.29,-13.42 537.07,-10.61 537.55,-17.59"/>
</g>
<!-- Node7&#45;&gt;Node8 -->
<g id="edge7" class="edge">
<title>Node7&#45;&gt;Node8</title>
<path fill="none" stroke="midnightblue" d="M232.94,-184.97C239.01,-160.36 260.13,-88.92 307,-56 343.27,-30.52 466.74,-18.65 537.35,-13.83"/>
<polygon fill="midnightblue" stroke="midnightblue" points="537.62,-17.32 547.37,-13.17 537.16,-10.34 537.62,-17.32"/>
</g>
<!-- Node9&#45;&gt;Node8 -->
<g id="edge14" class="edge">
<title>Node9&#45;&gt;Node8</title>
<path fill="none" stroke="midnightblue" d="M540.25,-246.32C523.32,-238.45 505.71,-226.77 496,-210 489.1,-198.08 495.78,-192.78 496,-179 496.89,-124.31 470.7,-102.19 500,-56 509.84,-40.5 526.82,-30.09 543.26,-23.23"/>
<polygon fill="midnightblue" stroke="midnightblue" points="544.72,-26.42 552.82,-19.59 542.23,-19.88 544.72,-26.42"/>
</g>
<!-- Node10 -->
<g id="node10" class="node">
<title>Node10</title>
<g id="a_node10"><a xlink:href="JKRDisposer_8h.html" target="_top" xlink:title=" ">
<polygon fill="white" stroke="black" points="504.5,-179.5 504.5,-209.5 655.5,-209.5 655.5,-179.5 504.5,-179.5"/>
<text text-anchor="start" x="512.5" y="-197.5" font-family="Helvetica,sans-Serif" font-size="10.00">JSystem/JKernel/JKRDisposer</text>
<text text-anchor="middle" x="580" y="-186.5" font-family="Helvetica,sans-Serif" font-size="10.00">/JKRDisposer.h</text>
</a>
</g>
</g>
<!-- Node9&#45;&gt;Node10 -->
<g id="edge10" class="edge">
<title>Node9&#45;&gt;Node10</title>
<path fill="none" stroke="midnightblue" d="M583.13,-246.4C582.65,-238.56 582.04,-228.6 581.48,-219.57"/>
<polygon fill="midnightblue" stroke="midnightblue" points="584.97,-219.34 580.87,-209.58 577.99,-219.77 584.97,-219.34"/>
</g>
<!-- Node9&#45;&gt;Node12 -->
<g id="edge15" class="edge">
<title>Node9&#45;&gt;Node12</title>
<path fill="none" stroke="midnightblue" d="M655.57,-251.08C763.05,-236.94 962.13,-210.75 1042.74,-200.14"/>
<polygon fill="midnightblue" stroke="midnightblue" points="1043.4,-203.58 1052.86,-198.81 1042.49,-196.64 1043.4,-203.58"/>
</g>
<!-- Node10&#45;&gt;Node8 -->
<g id="edge13" class="edge">
<title>Node10&#45;&gt;Node8</title>
<path fill="none" stroke="midnightblue" d="M563.13,-179.17C535.46,-153.86 485.88,-99.78 511,-56 519.62,-40.99 535.39,-30.5 550.43,-23.46"/>
<polygon fill="midnightblue" stroke="midnightblue" points="551.82,-26.67 559.63,-19.51 549.06,-20.24 551.82,-26.67"/>
</g>
<!-- Node11 -->
<g id="node11" class="node">
<title>Node11</title>
<g id="a_node11"><a xlink:href="JSUList_8h.html" target="_top" xlink:title=" ">
<polygon fill="white" stroke="black" points="520,-56.5 520,-86.5 656,-86.5 656,-56.5 520,-56.5"/>
<text text-anchor="start" x="528" y="-74.5" font-family="Helvetica,sans-Serif" font-size="10.00">JSystem/JSupport/JSUList</text>
<text text-anchor="middle" x="588" y="-63.5" font-family="Helvetica,sans-Serif" font-size="10.00">/JSUList.h</text>
</a>
</g>
</g>
<!-- Node10&#45;&gt;Node11 -->
<g id="edge11" class="edge">
<title>Node10&#45;&gt;Node11</title>
<path fill="none" stroke="midnightblue" d="M580.95,-179.14C582.29,-158.86 584.76,-121.53 586.39,-96.86"/>
<polygon fill="midnightblue" stroke="midnightblue" points="589.88,-97.05 587.05,-86.84 582.9,-96.58 589.88,-97.05"/>
</g>
<!-- Node11&#45;&gt;Node8 -->
<g id="edge12" class="edge">
<title>Node11&#45;&gt;Node8</title>
<path fill="none" stroke="midnightblue" d="M588,-56.4C588,-48.47 588,-38.46 588,-29.86"/>
<polygon fill="midnightblue" stroke="midnightblue" points="591.5,-29.66 588,-19.66 584.5,-29.66 591.5,-29.66"/>
</g>
<!-- Node12&#45;&gt;Node8 -->
<g id="edge16" class="edge">
<title>Node12&#45;&gt;Node8</title>
<path fill="none" stroke="midnightblue" d="M1079.99,-184.82C1085.01,-160.45 1095.35,-90.86 1059,-56 1029.11,-27.34 754.03,-15.91 638.61,-12.35"/>
<polygon fill="midnightblue" stroke="midnightblue" points="638.71,-8.85 628.61,-12.05 638.5,-15.85 638.71,-8.85"/>
</g>
<!-- Node13 -->
<g id="node13" class="node">
<title>Node13</title>
<g id="a_node13"><a xlink:href="AR_8h.html" target="_top" xlink:title=" ">
<polygon fill="white" stroke="black" points="1174.5,-123.5 1174.5,-142.5 1223.5,-142.5 1223.5,-123.5 1174.5,-123.5"/>
<text text-anchor="middle" x="1199" y="-130.5" font-family="Helvetica,sans-Serif" font-size="10.00">ar/AR.h</text>
</a>
</g>
</g>
<!-- Node12&#45;&gt;Node13 -->
<g id="edge17" class="edge">
<title>Node12&#45;&gt;Node13</title>
<path fill="none" stroke="midnightblue" d="M1095.34,-184.98C1115.55,-175.03 1149.19,-158.49 1172.64,-146.96"/>
<polygon fill="midnightblue" stroke="midnightblue" points="1174.27,-150.06 1181.7,-142.51 1171.18,-143.78 1174.27,-150.06"/>
</g>
<!-- Node14 -->
<g id="node14" class="node">
<title>Node14</title>
<g id="a_node14"><a xlink:href="ARQ_8h.html" target="_top" xlink:title=" ">
<polygon fill="white" stroke="black" points="878,-62 878,-81 934,-81 934,-62 878,-62"/>
<text text-anchor="middle" x="906" y="-69" font-family="Helvetica,sans-Serif" font-size="10.00">ar/ARQ.h</text>
</a>
</g>
</g>
<!-- Node12&#45;&gt;Node14 -->
<g id="edge19" class="edge">
<title>Node12&#45;&gt;Node14</title>
<path fill="none" stroke="midnightblue" d="M1059.08,-184.83C1039.74,-175.61 1009.19,-160.02 985,-143 961.19,-126.25 936.6,-103.24 921.31,-88.13"/>
<polygon fill="midnightblue" stroke="midnightblue" points="923.76,-85.62 914.22,-81.02 918.8,-90.57 923.76,-85.62"/>
</g>
<!-- Node15 -->
<g id="node15" class="node">
<title>Node15</title>
<g id="a_node15"><a xlink:href="mwcc_8h.html" target="_top" xlink:title=" ">
<polygon fill="white" stroke="black" points="1106,-123.5 1106,-142.5 1156,-142.5 1156,-123.5 1106,-123.5"/>
<text text-anchor="middle" x="1131" y="-130.5" font-family="Helvetica,sans-Serif" font-size="10.00">mwcc.h</text>
</a>
</g>
</g>
<!-- Node12&#45;&gt;Node15 -->
<g id="edge21" class="edge">
<title>Node12&#45;&gt;Node15</title>
<path fill="none" stroke="midnightblue" d="M1085.59,-184.98C1093.7,-175.87 1106.73,-161.24 1116.76,-149.98"/>
<polygon fill="midnightblue" stroke="midnightblue" points="1119.38,-152.3 1123.42,-142.51 1114.16,-147.65 1119.38,-152.3"/>
</g>
<!-- Node16 -->
<g id="node16" class="node">
<title>Node16</title>
<g id="a_node16"><a xlink:href="OS_8h.html" target="_top" xlink:title=" ">
<polygon fill="white" stroke="black" points="994,-123.5 994,-142.5 1046,-142.5 1046,-123.5 994,-123.5"/>
<text text-anchor="middle" x="1020" y="-130.5" font-family="Helvetica,sans-Serif" font-size="10.00">os/OS.h</text>
</a>
</g>
</g>
<!-- Node12&#45;&gt;Node16 -->
<g id="edge22" class="edge">
<title>Node12&#45;&gt;Node16</title>
<path fill="none" stroke="midnightblue" d="M1069.69,-184.98C1060.82,-175.87 1046.55,-161.24 1035.58,-149.98"/>
<polygon fill="midnightblue" stroke="midnightblue" points="1037.78,-147.23 1028.29,-142.51 1032.77,-152.11 1037.78,-147.23"/>
</g>
<!-- Node13&#45;&gt;Node8 -->
<g id="edge18" class="edge">
<title>Node13&#45;&gt;Node8</title>
<path fill="none" stroke="midnightblue" d="M1190.51,-123.48C1173.54,-107.05 1133.47,-71.3 1092,-56 1009.86,-25.71 750.1,-15.31 639.1,-12.19"/>
<polygon fill="midnightblue" stroke="midnightblue" points="638.92,-8.68 628.83,-11.91 638.73,-15.68 638.92,-8.68"/>
</g>
<!-- Node14&#45;&gt;Node8 -->
<g id="edge20" class="edge">
<title>Node14&#45;&gt;Node8</title>
<path fill="none" stroke="midnightblue" d="M886.29,-61.87C880.78,-59.71 874.72,-57.56 869,-56 790.02,-34.47 695.57,-21.96 638.75,-15.81"/>
<polygon fill="midnightblue" stroke="midnightblue" points="638.91,-12.31 628.6,-14.74 638.17,-19.27 638.91,-12.31"/>
</g>
<!-- Node16&#45;&gt;Node8 -->
<g id="edge23" class="edge">
<title>Node16&#45;&gt;Node8</title>
<path fill="none" stroke="midnightblue" d="M1012.51,-123.32C996.64,-105.15 959.72,-64.13 943,-56 890.5,-30.48 723.8,-18.18 638.84,-13.44"/>
<polygon fill="midnightblue" stroke="midnightblue" points="638.82,-9.93 628.65,-12.89 638.44,-16.92 638.82,-9.93"/>
</g>
<!-- Node17 -->
<g id="node17" class="node">
<title>Node17</title>
<g id="a_node17"><a xlink:href="dvd_8h.html" target="_top" xlink:title=" ">
<polygon fill="white" stroke="black" points="990.5,-62 990.5,-81 1049.5,-81 1049.5,-62 990.5,-62"/>
<text text-anchor="middle" x="1020" y="-69" font-family="Helvetica,sans-Serif" font-size="10.00">dvd/dvd.h</text>
</a>
</g>
</g>
<!-- Node16&#45;&gt;Node17 -->
<g id="edge24" class="edge">
<title>Node16&#45;&gt;Node17</title>
<path fill="none" stroke="midnightblue" d="M1020,-123.48C1020,-115.08 1020,-101.98 1020,-91.16"/>
<polygon fill="midnightblue" stroke="midnightblue" points="1023.5,-91.01 1020,-81.01 1016.5,-91.01 1023.5,-91.01"/>
</g>
<!-- Node17&#45;&gt;Node8 -->
<g id="edge25" class="edge">
<title>Node17&#45;&gt;Node8</title>
<path fill="none" stroke="midnightblue" d="M996.95,-61.93C990.27,-59.71 982.91,-57.52 976,-56 856.78,-29.73 713.35,-18.15 638.73,-13.6"/>
<polygon fill="midnightblue" stroke="midnightblue" points="638.85,-10.1 628.66,-13 638.44,-17.08 638.85,-10.1"/>
</g>
<!-- Node18&#45;&gt;Node8 -->
<g id="edge29" class="edge">
<title>Node18&#45;&gt;Node8</title>
<path fill="none" stroke="midnightblue" d="M415.82,-246.37C418.65,-210.11 430.96,-112.6 483,-56 497.64,-40.08 518.87,-29.55 538.41,-22.72"/>
<polygon fill="midnightblue" stroke="midnightblue" points="539.7,-25.98 548.13,-19.56 537.54,-19.32 539.7,-25.98"/>
</g>
<!-- Node18&#45;&gt;Node10 -->
<g id="edge28" class="edge">
<title>Node18&#45;&gt;Node10</title>
<path fill="none" stroke="midnightblue" d="M450.8,-246.4C475.45,-236.69 508.39,-223.71 534.84,-213.29"/>
<polygon fill="midnightblue" stroke="midnightblue" points="536.25,-216.5 544.27,-209.58 533.68,-209.99 536.25,-216.5"/>
</g>
<!-- Node19&#45;&gt;Node8 -->
<g id="edge38" class="edge">
<title>Node19&#45;&gt;Node8</title>
<path fill="none" stroke="midnightblue" d="M747.59,-313.41C731.88,-305.01 714.08,-292.86 703,-277 681.7,-246.51 684,-232.69 684,-195.5 684,-195.5 684,-195.5 684,-132 684,-97.18 685.89,-83.86 665,-56 654.15,-41.54 637.18,-30.9 621.93,-23.62"/>
<polygon fill="midnightblue" stroke="midnightblue" points="623.28,-20.39 612.73,-19.51 620.43,-26.78 623.28,-20.39"/>
</g>
<!-- Node20 -->
<g id="node20" class="node">
<title>Node20</title>
<g id="a_node20"><a xlink:href="JKRHeap_8h.html" target="_top" xlink:title=" ">
<polygon fill="white" stroke="black" points="712,-246.5 712,-276.5 848,-276.5 848,-246.5 712,-246.5"/>
<text text-anchor="start" x="720" y="-264.5" font-family="Helvetica,sans-Serif" font-size="10.00">JSystem/JKernel/JKRHeap</text>
<text text-anchor="middle" x="780" y="-253.5" font-family="Helvetica,sans-Serif" font-size="10.00">/JKRHeap.h</text>
</a>
</g>
</g>
<!-- Node19&#45;&gt;Node20 -->
<g id="edge34" class="edge">
<title>Node19&#45;&gt;Node20</title>
<path fill="none" stroke="midnightblue" d="M780,-313.4C780,-305.64 780,-295.81 780,-286.86"/>
<polygon fill="midnightblue" stroke="midnightblue" points="783.5,-286.58 780,-276.58 776.5,-286.58 783.5,-286.58"/>
</g>
<!-- Node20&#45;&gt;Node8 -->
<g id="edge36" class="edge">
<title>Node20&#45;&gt;Node8</title>
<path fill="none" stroke="midnightblue" d="M778.15,-246.28C772.69,-209.78 753.39,-111.78 698,-56 681.81,-39.7 658.89,-29.06 638.16,-22.25"/>
<polygon fill="midnightblue" stroke="midnightblue" points="639.09,-18.87 628.51,-19.29 637.04,-25.57 639.09,-18.87"/>
</g>
<!-- Node20&#45;&gt;Node10 -->
<g id="edge35" class="edge">
<title>Node20&#45;&gt;Node10</title>
<path fill="none" stroke="midnightblue" d="M736.6,-246.4C706.2,-236.52 665.39,-223.25 633.06,-212.74"/>
<polygon fill="midnightblue" stroke="midnightblue" points="633.9,-209.34 623.31,-209.58 631.74,-216 633.9,-209.34"/>
</g>
<!-- Node20&#45;&gt;Node12 -->
<g id="edge37" class="edge">
<title>Node20&#45;&gt;Node12</title>
<path fill="none" stroke="midnightblue" d="M844.29,-246.48C905.03,-233.23 993.88,-213.85 1042.67,-203.21"/>
<polygon fill="midnightblue" stroke="midnightblue" points="1043.71,-206.56 1052.73,-201.01 1042.22,-199.72 1043.71,-206.56"/>
</g>
<!-- Node21&#45;&gt;Node12 -->
<g id="edge49" class="edge">
<title>Node21&#45;&gt;Node12</title>
<path fill="none" stroke="midnightblue" d="M1109.36,-380.31C1169.14,-356 1273.61,-303.43 1232,-246 1205.03,-208.77 1149.76,-198.49 1113.3,-195.93"/>
<polygon fill="midnightblue" stroke="midnightblue" points="1113.27,-192.42 1103.1,-195.38 1112.89,-199.41 1113.27,-192.42"/>
</g>
<!-- Node22 -->
<g id="node22" class="node">
<title>Node22</title>
<g id="a_node22"><a xlink:href="JAISe_8h.html" target="_top" xlink:title=" ">
<polygon fill="white" stroke="black" points="1099.5,-246.5 1099.5,-276.5 1222.5,-276.5 1222.5,-246.5 1099.5,-246.5"/>
<text text-anchor="start" x="1107.5" y="-264.5" font-family="Helvetica,sans-Serif" font-size="10.00">JSystem/JAudio2/JAISe</text>
<text text-anchor="middle" x="1161" y="-253.5" font-family="Helvetica,sans-Serif" font-size="10.00">/JAISe.h</text>
</a>
</g>
</g>
<!-- Node21&#45;&gt;Node22 -->
<g id="edge40" class="edge">
<title>Node21&#45;&gt;Node22</title>
<path fill="none" stroke="midnightblue" d="M1080.63,-380.37C1096.19,-357.55 1127.01,-312.36 1145.63,-285.04"/>
<polygon fill="midnightblue" stroke="midnightblue" points="1148.7,-286.76 1151.44,-276.52 1142.91,-282.82 1148.7,-286.76"/>
</g>
<!-- Node23 -->
<g id="node23" class="node">
<title>Node23</title>
<g id="a_node23"><a xlink:href="Z2SeqMgr_8h.html" target="_top" xlink:title=" ">
<polygon fill="white" stroke="black" points="955,-313.5 955,-343.5 1069,-343.5 1069,-313.5 955,-313.5"/>
<text text-anchor="start" x="963" y="-331.5" font-family="Helvetica,sans-Serif" font-size="10.00">Z2AudioLib/Z2SeqMgr</text>
<text text-anchor="middle" x="1012" y="-320.5" font-family="Helvetica,sans-Serif" font-size="10.00">/Z2SeqMgr.h</text>
</a>
</g>
</g>
<!-- Node21&#45;&gt;Node23 -->
<g id="edge42" class="edge">
<title>Node21&#45;&gt;Node23</title>
<path fill="none" stroke="midnightblue" d="M1058.2,-380.4C1050.47,-371.88 1040.45,-360.85 1031.73,-351.23"/>
<polygon fill="midnightblue" stroke="midnightblue" points="1034.09,-348.63 1024.78,-343.58 1028.91,-353.33 1034.09,-348.63"/>
</g>
<!-- Node22&#45;&gt;Node12 -->
<g id="edge41" class="edge">
<title>Node22&#45;&gt;Node12</title>
<path fill="none" stroke="midnightblue" d="M1142.99,-246.4C1129.41,-235.76 1110.82,-221.2 1097,-210.38"/>
<polygon fill="midnightblue" stroke="midnightblue" points="1099.13,-207.6 1089.1,-204.19 1094.82,-213.12 1099.13,-207.6"/>
</g>
<!-- Node23&#45;&gt;Node12 -->
<g id="edge48" class="edge">
<title>Node23&#45;&gt;Node12</title>
<path fill="none" stroke="midnightblue" d="M975.55,-313.46C959.79,-305.35 942.94,-293.44 934,-277 927.42,-264.9 926.03,-257.24 934,-246 958.51,-211.43 1008.61,-200.35 1042.75,-196.89"/>
<polygon fill="midnightblue" stroke="midnightblue" points="1043.12,-200.38 1052.79,-196.05 1042.53,-193.4 1043.12,-200.38"/>
</g>
<!-- Node23&#45;&gt;Node22 -->
<g id="edge43" class="edge">
<title>Node23&#45;&gt;Node22</title>
<path fill="none" stroke="midnightblue" d="M1044.33,-313.4C1066.3,-303.81 1095.56,-291.05 1119.28,-280.7"/>
<polygon fill="midnightblue" stroke="midnightblue" points="1120.97,-283.78 1128.73,-276.58 1118.17,-277.37 1120.97,-283.78"/>
</g>
<!-- Node24 -->
<g id="node24" class="node">
<title>Node24</title>
<g id="a_node24"><a xlink:href="JAISound_8h.html" target="_top" xlink:title=" ">
<polygon fill="white" stroke="black" points="942.5,-246.5 942.5,-276.5 1081.5,-276.5 1081.5,-246.5 942.5,-246.5"/>
<text text-anchor="start" x="950.5" y="-264.5" font-family="Helvetica,sans-Serif" font-size="10.00">JSystem/JAudio2/JAISound</text>
<text text-anchor="middle" x="1012" y="-253.5" font-family="Helvetica,sans-Serif" font-size="10.00">/JAISound.h</text>
</a>
</g>
</g>
<!-- Node23&#45;&gt;Node24 -->
<g id="edge44" class="edge">
<title>Node23&#45;&gt;Node24</title>
<path fill="none" stroke="midnightblue" d="M1012,-313.4C1012,-305.64 1012,-295.81 1012,-286.86"/>
<polygon fill="midnightblue" stroke="midnightblue" points="1015.5,-286.58 1012,-276.58 1008.5,-286.58 1015.5,-286.58"/>
</g>
<!-- Node25 -->
<g id="node25" class="node">
<title>Node25</title>
<g id="a_node25"><a xlink:href="Z2Param_8h.html" target="_top" xlink:title=" ">
<polygon fill="white" stroke="black" points="750.5,-56.5 750.5,-86.5 859.5,-86.5 859.5,-56.5 750.5,-56.5"/>
<text text-anchor="start" x="758.5" y="-74.5" font-family="Helvetica,sans-Serif" font-size="10.00">Z2AudioLib/Z2Param</text>
<text text-anchor="middle" x="805" y="-63.5" font-family="Helvetica,sans-Serif" font-size="10.00">/Z2Param.h</text>
</a>
</g>
</g>
<!-- Node23&#45;&gt;Node25 -->
<g id="edge46" class="edge">
<title>Node23&#45;&gt;Node25</title>
<path fill="none" stroke="midnightblue" d="M978.29,-313.35C960.62,-304.73 939.49,-292.4 924,-277 868.94,-222.27 830.32,-136.9 813.88,-95.95"/>
<polygon fill="midnightblue" stroke="midnightblue" points="817.09,-94.57 810.18,-86.55 810.58,-97.13 817.09,-94.57"/>
</g>
<!-- Node24&#45;&gt;Node12 -->
<g id="edge45" class="edge">
<title>Node24&#45;&gt;Node12</title>
<path fill="none" stroke="midnightblue" d="M1026.32,-246.4C1036.82,-236.06 1051.07,-222.02 1061.95,-211.31"/>
<polygon fill="midnightblue" stroke="midnightblue" points="1064.5,-213.71 1069.17,-204.19 1059.59,-208.72 1064.5,-213.71"/>
</g>
<!-- Node25&#45;&gt;Node8 -->
<g id="edge47" class="edge">
<title>Node25&#45;&gt;Node8</title>
<path fill="none" stroke="midnightblue" d="M753.85,-56.47C715.76,-46.03 664.43,-31.96 629.02,-22.25"/>
<polygon fill="midnightblue" stroke="midnightblue" points="629.59,-18.78 619.02,-19.51 627.74,-25.53 629.59,-18.78"/>
</g>
<!-- Node26&#45;&gt;Node12 -->
<g id="edge51" class="edge">
<title>Node26&#45;&gt;Node12</title>
<path fill="none" stroke="midnightblue" d="M1379.42,-447.39C1377.04,-408.8 1364.9,-300.75 1303,-246 1275.18,-221.39 1169.5,-205.93 1113.43,-199.28"/>
<polygon fill="midnightblue" stroke="midnightblue" points="1113.57,-195.77 1103.24,-198.1 1112.77,-202.73 1113.57,-195.77"/>
</g>
<!-- Node27&#45;&gt;Node26 -->
<g id="edge53" class="edge">
<title>Node27&#45;&gt;Node26</title>
<path fill="none" stroke="midnightblue" d="M1409.41,-519.73C1405,-511.29 1398.12,-498.14 1392.12,-486.68"/>
<polygon fill="midnightblue" stroke="midnightblue" points="1395.11,-484.83 1387.37,-477.59 1388.9,-488.07 1395.11,-484.83"/>
</g>
<!-- Node28 -->
<g id="node28" class="node">
<title>Node28</title>
<g id="a_node28"><a xlink:href="d__kankyo__wether_8h.html" target="_top" xlink:title=" ">
<polygon fill="white" stroke="black" points="1460.5,-447.5 1460.5,-477.5 1597.5,-477.5 1597.5,-447.5 1460.5,-447.5"/>
<text text-anchor="start" x="1468.5" y="-465.5" font-family="Helvetica,sans-Serif" font-size="10.00">d/d_kankyo/d_kankyo</text>
<text text-anchor="middle" x="1529" y="-454.5" font-family="Helvetica,sans-Serif" font-size="10.00">_wether/d_kankyo_wether.h</text>
</a>
</g>
</g>
<!-- Node27&#45;&gt;Node28 -->
<g id="edge54" class="edge">
<title>Node27&#45;&gt;Node28</title>
<path fill="none" stroke="midnightblue" d="M1429.51,-519.73C1446.25,-510.27 1473.42,-494.91 1495.14,-482.64"/>
<polygon fill="midnightblue" stroke="midnightblue" points="1497.09,-485.56 1504.07,-477.59 1493.65,-479.46 1497.09,-485.56"/>
</g>
</g>
</svg>
