<?xml version="1.0" encoding="UTF-8" standalone="no"?>
<!DOCTYPE svg PUBLIC "-//W3C//DTD SVG 1.1//EN"
 "http://www.w3.org/Graphics/SVG/1.1/DTD/svg11.dtd">
<!-- Generated by graphviz version 2.46.1 (20210215.1649)
 -->
<!-- Title: include/m_Do/m_Do_ext/m_Do_ext.h Pages: 1 -->
<svg width="5316pt" height="374pt"
 viewBox="0.00 0.00 5315.50 374.00" xmlns="http://www.w3.org/2000/svg" xmlns:xlink="http://www.w3.org/1999/xlink">
<g id="graph0" class="graph" transform="scale(1 1) rotate(0) translate(4 370)">
<title>include/m_Do/m_Do_ext/m_Do_ext.h</title>
<polygon fill="white" stroke="transparent" points="-4,4 -4,-370 5311.5,-370 5311.5,4 -4,4"/>
<!-- Node1 -->
<g id="node1" class="node">
<title>Node1</title>
<g id="a_node1"><a xlink:title=" ">
<polygon fill="#bfbfbf" stroke="black" points="4914.5,-335.5 4914.5,-365.5 5036.5,-365.5 5036.5,-335.5 4914.5,-335.5"/>
<text text-anchor="start" x="4922.5" y="-353.5" font-family="Helvetica,sans-Serif" font-size="10.00">include/m_Do/m_Do_ext</text>
<text text-anchor="middle" x="4975.5" y="-342.5" font-family="Helvetica,sans-Serif" font-size="10.00">/m_Do_ext.h</text>
</a>
</g>
</g>
<!-- Node2 -->
<g id="node2" class="node">
<title>Node2</title>
<g id="a_node2"><a xlink:href="d__attention_8cpp.html" target="_top" xlink:title=" ">
<polygon fill="white" stroke="black" points="0,-6 0,-25 107,-25 107,-6 0,-6"/>
<text text-anchor="middle" x="53.5" y="-13" font-family="Helvetica,sans-Serif" font-size="10.00">src/d/d_attention.cpp</text>
</a>
</g>
</g>
<!-- Node1&#45;&gt;Node2 -->
<g id="edge1" class="edge">
<title>Node1&#45;&gt;Node2</title>
<path fill="none" stroke="midnightblue" d="M4904.31,-349.51C4358.91,-349.48 851.38,-347.39 383.5,-299 214.71,-281.54 10.5,-387.19 10.5,-217.5 10.5,-217.5 10.5,-217.5 10.5,-148.5 10.5,-99.81 37.27,-45.77 48.57,-25.14"/>
<polygon fill="midnightblue" stroke="midnightblue" points="4904.4,-353.01 4914.4,-349.51 4904.4,-346.01 4904.4,-353.01"/>
</g>
<!-- Node3 -->
<g id="node3" class="node">
<title>Node3</title>
<g id="a_node3"><a xlink:href="d__com__inf__game_8cpp.html" target="_top" xlink:title=" ">
<polygon fill="white" stroke="black" points="4714,-67.5 4714,-97.5 4833,-97.5 4833,-67.5 4714,-67.5"/>
<text text-anchor="start" x="4722" y="-85.5" font-family="Helvetica,sans-Serif" font-size="10.00">src/d/d_com/d_com_inf</text>
<text text-anchor="middle" x="4773.5" y="-74.5" font-family="Helvetica,sans-Serif" font-size="10.00">_game.cpp</text>
</a>
</g>
</g>
<!-- Node1&#45;&gt;Node3 -->
<g id="edge2" class="edge">
<title>Node1&#45;&gt;Node3</title>
<path fill="none" stroke="midnightblue" d="M4960.86,-326.88C4934.56,-286.77 4876.91,-201.11 4821.5,-134 4810.87,-121.13 4797.75,-107.46 4787.92,-97.59"/>
<polygon fill="midnightblue" stroke="midnightblue" points="4958.02,-328.93 4966.41,-335.39 4963.88,-325.1 4958.02,-328.93"/>
</g>
<!-- Node4 -->
<g id="node4" class="node">
<title>Node4</title>
<g id="a_node4"><a xlink:href="d__meter__HIO_8cpp.html" target="_top" xlink:title=" ">
<polygon fill="white" stroke="black" points="5042,-268.5 5042,-298.5 5157,-298.5 5157,-268.5 5042,-268.5"/>
<text text-anchor="start" x="5050" y="-286.5" font-family="Helvetica,sans-Serif" font-size="10.00">src/d/d_meter/d_meter</text>
<text text-anchor="middle" x="5099.5" y="-275.5" font-family="Helvetica,sans-Serif" font-size="10.00">_HIO.cpp</text>
</a>
</g>
</g>
<!-- Node1&#45;&gt;Node4 -->
<g id="edge3" class="edge">
<title>Node1&#45;&gt;Node4</title>
<path fill="none" stroke="midnightblue" d="M5011.34,-330.71C5030.89,-320.46 5054.7,-307.98 5072.65,-298.58"/>
<polygon fill="midnightblue" stroke="midnightblue" points="5009.64,-327.65 5002.41,-335.4 5012.89,-333.85 5009.64,-327.65"/>
</g>
<!-- Node5 -->
<g id="node5" class="node">
<title>Node5</title>
<g id="a_node5"><a xlink:href="f__op__actor__mng_8cpp.html" target="_top" xlink:title=" ">
<polygon fill="white" stroke="black" points="4884,-0.5 4884,-30.5 4991,-30.5 4991,-0.5 4884,-0.5"/>
<text text-anchor="start" x="4892" y="-18.5" font-family="Helvetica,sans-Serif" font-size="10.00">src/f/f_op/f_op_actor</text>
<text text-anchor="middle" x="4937.5" y="-7.5" font-family="Helvetica,sans-Serif" font-size="10.00">_mng.cpp</text>
</a>
</g>
</g>
<!-- Node1&#45;&gt;Node5 -->
<g id="edge4" class="edge">
<title>Node1&#45;&gt;Node5</title>
<path fill="none" stroke="midnightblue" d="M4986.65,-325.86C4997.87,-299.89 5013.5,-256.66 5013.5,-217.5 5013.5,-217.5 5013.5,-217.5 5013.5,-148.5 5013.5,-100.11 4974.66,-53.45 4952.52,-30.77"/>
<polygon fill="midnightblue" stroke="midnightblue" points="4983.35,-324.68 4982.47,-335.24 4989.74,-327.53 4983.35,-324.68"/>
</g>
<!-- Node6 -->
<g id="node6" class="node">
<title>Node6</title>
<g id="a_node6"><a xlink:href="m__Do__main_8cpp.html" target="_top" xlink:title=" ">
<polygon fill="white" stroke="black" points="125,-6 125,-25 256,-25 256,-6 125,-6"/>
<text text-anchor="middle" x="190.5" y="-13" font-family="Helvetica,sans-Serif" font-size="10.00">src/m_Do/m_Do_main.cpp</text>
</a>
</g>
</g>
<!-- Node1&#45;&gt;Node6 -->
<g id="edge5" class="edge">
<title>Node1&#45;&gt;Node6</title>
<path fill="none" stroke="midnightblue" d="M4903.75,-349.52C4297.12,-349.48 48.5,-344.64 48.5,-217.5 48.5,-217.5 48.5,-217.5 48.5,-148.5 48.5,-83.87 128.38,-41.94 168.31,-25.01"/>
<polygon fill="midnightblue" stroke="midnightblue" points="4904.1,-353.02 4914.1,-349.52 4904.1,-346.02 4904.1,-353.02"/>
</g>
<!-- Node7 -->
<g id="node7" class="node">
<title>Node7</title>
<g id="a_node7"><a xlink:href="m__Do__printf_8cpp.html" target="_top" xlink:title=" ">
<polygon fill="white" stroke="black" points="5175.5,-274 5175.5,-293 5307.5,-293 5307.5,-274 5175.5,-274"/>
<text text-anchor="middle" x="5241.5" y="-281" font-family="Helvetica,sans-Serif" font-size="10.00">src/m_Do/m_Do_printf.cpp</text>
</a>
</g>
</g>
<!-- Node1&#45;&gt;Node7 -->
<g id="edge6" class="edge">
<title>Node1&#45;&gt;Node7</title>
<path fill="none" stroke="midnightblue" d="M5042.74,-333.07C5094.9,-320.32 5165.1,-303.17 5206.6,-293.03"/>
<polygon fill="midnightblue" stroke="midnightblue" points="5041.77,-329.7 5032.89,-335.48 5043.44,-336.5 5041.77,-329.7"/>
</g>
<!-- Node8 -->
<g id="node8" class="node">
<title>Node8</title>
<g id="a_node8"><a xlink:href="d__attention_8h.html" target="_top" xlink:title=" ">
<polygon fill="white" stroke="black" points="3654,-268.5 3654,-298.5 3761,-298.5 3761,-268.5 3654,-268.5"/>
<text text-anchor="start" x="3662" y="-286.5" font-family="Helvetica,sans-Serif" font-size="10.00">include/d/d_attention</text>
<text text-anchor="middle" x="3707.5" y="-275.5" font-family="Helvetica,sans-Serif" font-size="10.00">/d_attention.h</text>
</a>
</g>
</g>
<!-- Node1&#45;&gt;Node8 -->
<g id="edge7" class="edge">
<title>Node1&#45;&gt;Node8</title>
<path fill="none" stroke="midnightblue" d="M4904.14,-345.84C4675.27,-334.11 3962.91,-297.59 3761.21,-287.25"/>
<polygon fill="midnightblue" stroke="midnightblue" points="4904.18,-349.35 4914.34,-346.36 4904.53,-342.36 4904.18,-349.35"/>
</g>
<!-- Node9 -->
<g id="node9" class="node">
<title>Node9</title>
<g id="a_node9"><a xlink:href="d__com__inf__game_8h.html" target="_top" xlink:title=" ">
<polygon fill="white" stroke="black" points="2379.5,-201.5 2379.5,-231.5 2525.5,-231.5 2525.5,-201.5 2379.5,-201.5"/>
<text text-anchor="start" x="2387.5" y="-219.5" font-family="Helvetica,sans-Serif" font-size="10.00">include/d/d_com/d_com</text>
<text text-anchor="middle" x="2452.5" y="-208.5" font-family="Helvetica,sans-Serif" font-size="10.00">_inf_game/d_com_inf_game.h</text>
</a>
</g>
</g>
<!-- Node8&#45;&gt;Node9 -->
<g id="edge8" class="edge">
<title>Node8&#45;&gt;Node9</title>
<path fill="none" stroke="midnightblue" d="M3643.95,-279.21C3432.11,-268.24 2750.76,-232.95 2525.53,-221.28"/>
<polygon fill="midnightblue" stroke="midnightblue" points="3643.81,-282.71 3653.98,-279.73 3644.17,-275.72 3643.81,-282.71"/>
</g>
<!-- Node9&#45;&gt;Node2 -->
<g id="edge9" class="edge">
<title>Node9&#45;&gt;Node2</title>
<path fill="none" stroke="midnightblue" d="M2369.23,-214.81C1960.74,-211.26 186.34,-194.2 137.5,-165 83.61,-132.77 61.37,-52.08 55.32,-25.3"/>
<polygon fill="midnightblue" stroke="midnightblue" points="2369.46,-218.31 2379.49,-214.89 2369.52,-211.31 2369.46,-218.31"/>
</g>
<!-- Node9&#45;&gt;Node3 -->
<g id="edge11" class="edge">
<title>Node9&#45;&gt;Node3</title>
<path fill="none" stroke="midnightblue" d="M2535.8,-215.29C2949.38,-214.07 4764.01,-206.37 4804.5,-165 4822.82,-146.28 4802.22,-115.64 4786.94,-97.74"/>
<polygon fill="midnightblue" stroke="midnightblue" points="2535.7,-211.79 2525.71,-215.32 2535.72,-218.79 2535.7,-211.79"/>
</g>
<!-- Node9&#45;&gt;Node5 -->
<g id="edge30" class="edge">
<title>Node9&#45;&gt;Node5</title>
<path fill="none" stroke="midnightblue" d="M2535.82,-215.15C2958.89,-213.19 4851.09,-202.35 4898.5,-165 4939.96,-132.34 4940.62,-61.37 4938.79,-30.88"/>
<polygon fill="midnightblue" stroke="midnightblue" points="2535.79,-211.65 2525.8,-215.19 2535.82,-218.65 2535.79,-211.65"/>
</g>
<!-- Node9&#45;&gt;Node6 -->
<g id="edge39" class="edge">
<title>Node9&#45;&gt;Node6</title>
<path fill="none" stroke="midnightblue" d="M2369.01,-214.9C1963.45,-211.85 216.59,-196.87 170.5,-165 133.34,-139.31 126.96,-109.04 143.5,-67 150.43,-49.39 166.71,-34.28 178.16,-25.29"/>
<polygon fill="midnightblue" stroke="midnightblue" points="2369.17,-218.4 2379.19,-214.98 2369.22,-211.4 2369.17,-218.4"/>
</g>
<!-- Node10 -->
<g id="node10" class="node">
<title>Node10</title>
<g id="a_node10"><a xlink:href="d__camera_8cpp.html" target="_top" xlink:title=" ">
<polygon fill="white" stroke="black" points="1499.5,-6 1499.5,-25 1601.5,-25 1601.5,-6 1499.5,-6"/>
<text text-anchor="middle" x="1550.5" y="-13" font-family="Helvetica,sans-Serif" font-size="10.00">src/d/d_camera.cpp</text>
</a>
</g>
</g>
<!-- Node9&#45;&gt;Node10 -->
<g id="edge10" class="edge">
<title>Node9&#45;&gt;Node10</title>
<path fill="none" stroke="midnightblue" d="M2535.83,-215.05C2950.65,-212.63 4774.86,-200.03 4821.5,-165 4857.12,-138.25 4873.76,-98.74 4842.5,-67 4835.07,-59.46 2018.44,-22.58 1601.76,-17.16"/>
<polygon fill="midnightblue" stroke="midnightblue" points="2535.69,-211.55 2525.71,-215.11 2535.73,-218.55 2535.69,-211.55"/>
</g>
<!-- Node11 -->
<g id="node11" class="node">
<title>Node11</title>
<g id="a_node11"><a xlink:href="d__file__sel__info_8cpp.html" target="_top" xlink:title=" ">
<polygon fill="white" stroke="black" points="345,-134.5 345,-164.5 434,-164.5 434,-134.5 345,-134.5"/>
<text text-anchor="start" x="353" y="-152.5" font-family="Helvetica,sans-Serif" font-size="10.00">src/d/d_file/d_file</text>
<text text-anchor="middle" x="389.5" y="-141.5" font-family="Helvetica,sans-Serif" font-size="10.00">_sel_info.cpp</text>
</a>
</g>
</g>
<!-- Node9&#45;&gt;Node11 -->
<g id="edge12" class="edge">
<title>Node9&#45;&gt;Node11</title>
<path fill="none" stroke="midnightblue" d="M2369.27,-214.6C2014.12,-210.58 634.81,-193.29 442.5,-165 439.76,-164.6 436.97,-164.1 434.16,-163.53"/>
<polygon fill="midnightblue" stroke="midnightblue" points="2369.44,-218.1 2379.48,-214.71 2369.52,-211.1 2369.44,-218.1"/>
</g>
<!-- Node12 -->
<g id="node12" class="node">
<title>Node12</title>
<g id="a_node12"><a xlink:href="d__item_8cpp.html" target="_top" xlink:title=" ">
<polygon fill="white" stroke="black" points="4575,-73 4575,-92 4696,-92 4696,-73 4575,-73"/>
<text text-anchor="middle" x="4635.5" y="-80" font-family="Helvetica,sans-Serif" font-size="10.00">src/d/d_item/d_item.cpp</text>
</a>
</g>
</g>
<!-- Node9&#45;&gt;Node12 -->
<g id="edge13" class="edge">
<title>Node9&#45;&gt;Node12</title>
<path fill="none" stroke="midnightblue" d="M2535.83,-215.17C2932.83,-213.38 4614.82,-203.55 4652.5,-165 4672,-145.05 4652.43,-108.86 4641.62,-92.25"/>
<polygon fill="midnightblue" stroke="midnightblue" points="2535.55,-211.67 2525.57,-215.21 2535.59,-218.67 2535.55,-211.67"/>
</g>
<!-- Node13 -->
<g id="node13" class="node">
<title>Node13</title>
<g id="a_node13"><a xlink:href="d__kankyo__rain_8cpp.html" target="_top" xlink:title=" ">
<polygon fill="white" stroke="black" points="452,-134.5 452,-164.5 579,-164.5 579,-134.5 452,-134.5"/>
<text text-anchor="start" x="460" y="-152.5" font-family="Helvetica,sans-Serif" font-size="10.00">src/d/d_kankyo/d_kankyo</text>
<text text-anchor="middle" x="515.5" y="-141.5" font-family="Helvetica,sans-Serif" font-size="10.00">_rain.cpp</text>
</a>
</g>
</g>
<!-- Node9&#45;&gt;Node13 -->
<g id="edge14" class="edge">
<title>Node9&#45;&gt;Node13</title>
<path fill="none" stroke="midnightblue" d="M2369.02,-215.14C2054.35,-213.51 939.94,-204.96 587.5,-165 584.71,-164.68 581.87,-164.32 579.01,-163.9"/>
<polygon fill="midnightblue" stroke="midnightblue" points="2369.42,-218.65 2379.44,-215.2 2369.45,-211.65 2369.42,-218.65"/>
</g>
<!-- Node14 -->
<g id="node14" class="node">
<title>Node14</title>
<g id="a_node14"><a xlink:href="d__kankyo__wether_8cpp.html" target="_top" xlink:title=" ">
<polygon fill="white" stroke="black" points="597,-134.5 597,-164.5 724,-164.5 724,-134.5 597,-134.5"/>
<text text-anchor="start" x="605" y="-152.5" font-family="Helvetica,sans-Serif" font-size="10.00">src/d/d_kankyo/d_kankyo</text>
<text text-anchor="middle" x="660.5" y="-141.5" font-family="Helvetica,sans-Serif" font-size="10.00">_wether.cpp</text>
</a>
</g>
</g>
<!-- Node9&#45;&gt;Node14 -->
<g id="edge15" class="edge">
<title>Node9&#45;&gt;Node14</title>
<path fill="none" stroke="midnightblue" d="M2369.07,-214.92C2070.41,-212.56 1055.15,-201.96 732.5,-165 729.71,-164.68 726.87,-164.31 724.01,-163.9"/>
<polygon fill="midnightblue" stroke="midnightblue" points="2369.37,-218.43 2379.39,-215 2369.42,-211.43 2369.37,-218.43"/>
</g>
<!-- Node15 -->
<g id="node15" class="node">
<title>Node15</title>
<g id="a_node15"><a xlink:href="d__kankyo_8cpp.html" target="_top" xlink:title=" ">
<polygon fill="white" stroke="black" points="742,-140 742,-159 843,-159 843,-140 742,-140"/>
<text text-anchor="middle" x="792.5" y="-147" font-family="Helvetica,sans-Serif" font-size="10.00">src/d/d_kankyo.cpp</text>
</a>
</g>
</g>
<!-- Node9&#45;&gt;Node15 -->
<g id="edge16" class="edge">
<title>Node9&#45;&gt;Node15</title>
<path fill="none" stroke="midnightblue" d="M2369.07,-215.17C2083.88,-213.7 1148.99,-205.79 851.5,-165 841.78,-163.67 831.34,-161.39 821.98,-159.03"/>
<polygon fill="midnightblue" stroke="midnightblue" points="2369.33,-218.67 2379.35,-215.23 2369.36,-211.68 2369.33,-218.67"/>
</g>
<!-- Node16 -->
<g id="node16" class="node">
<title>Node16</title>
<g id="a_node16"><a xlink:href="d__kantera__icon__meter_8cpp.html" target="_top" xlink:title=" ">
<polygon fill="white" stroke="black" points="861,-134.5 861,-164.5 968,-164.5 968,-134.5 861,-134.5"/>
<text text-anchor="start" x="869" y="-152.5" font-family="Helvetica,sans-Serif" font-size="10.00">src/d/d_kantera_icon</text>
<text text-anchor="middle" x="914.5" y="-141.5" font-family="Helvetica,sans-Serif" font-size="10.00">_meter.cpp</text>
</a>
</g>
</g>
<!-- Node9&#45;&gt;Node16 -->
<g id="edge17" class="edge">
<title>Node9&#45;&gt;Node16</title>
<path fill="none" stroke="midnightblue" d="M2369.24,-214.79C2099.1,-212.16 1248.77,-201.14 976.5,-165 973.76,-164.64 970.96,-164.21 968.15,-163.72"/>
<polygon fill="midnightblue" stroke="midnightblue" points="2369.34,-218.29 2379.37,-214.89 2369.4,-211.29 2369.34,-218.29"/>
</g>
<!-- Node17 -->
<g id="node17" class="node">
<title>Node17</title>
<g id="a_node17"><a xlink:href="d__kyeff_8cpp.html" target="_top" xlink:title=" ">
<polygon fill="white" stroke="black" points="986,-140 986,-159 1099,-159 1099,-140 986,-140"/>
<text text-anchor="middle" x="1042.5" y="-147" font-family="Helvetica,sans-Serif" font-size="10.00">src/d/d_ky/d_kyeff.cpp</text>
</a>
</g>
</g>
<!-- Node9&#45;&gt;Node17 -->
<g id="edge18" class="edge">
<title>Node9&#45;&gt;Node17</title>
<path fill="none" stroke="midnightblue" d="M2368.95,-214.35C2114.77,-210.55 1353.22,-196.75 1107.5,-165 1096.95,-163.64 1085.59,-161.38 1075.36,-159.05"/>
<polygon fill="midnightblue" stroke="midnightblue" points="2369.17,-217.86 2379.22,-214.51 2369.28,-210.86 2369.17,-217.86"/>
</g>
<!-- Node18 -->
<g id="node18" class="node">
<title>Node18</title>
<g id="a_node18"><a xlink:href="d__meter__button_8cpp.html" target="_top" xlink:title=" ">
<polygon fill="white" stroke="black" points="1117,-134.5 1117,-164.5 1232,-164.5 1232,-134.5 1117,-134.5"/>
<text text-anchor="start" x="1125" y="-152.5" font-family="Helvetica,sans-Serif" font-size="10.00">src/d/d_meter/d_meter</text>
<text text-anchor="middle" x="1174.5" y="-141.5" font-family="Helvetica,sans-Serif" font-size="10.00">_button.cpp</text>
</a>
</g>
</g>
<!-- Node9&#45;&gt;Node18 -->
<g id="edge19" class="edge">
<title>Node9&#45;&gt;Node18</title>
<path fill="none" stroke="midnightblue" d="M2369.17,-213.92C2132.52,-209.15 1459.41,-193.39 1240.5,-165 1237.82,-164.65 1235.1,-164.25 1232.35,-163.81"/>
<polygon fill="midnightblue" stroke="midnightblue" points="2369.36,-217.43 2379.43,-214.13 2369.5,-210.43 2369.36,-217.43"/>
</g>
<!-- Node19 -->
<g id="node19" class="node">
<title>Node19</title>
<g id="a_node19"><a xlink:href="d__meter__haihai_8cpp.html" target="_top" xlink:title=" ">
<polygon fill="white" stroke="black" points="1250,-134.5 1250,-164.5 1365,-164.5 1365,-134.5 1250,-134.5"/>
<text text-anchor="start" x="1258" y="-152.5" font-family="Helvetica,sans-Serif" font-size="10.00">src/d/d_meter/d_meter</text>
<text text-anchor="middle" x="1307.5" y="-141.5" font-family="Helvetica,sans-Serif" font-size="10.00">_haihai.cpp</text>
</a>
</g>
</g>
<!-- Node9&#45;&gt;Node19 -->
<g id="edge20" class="edge">
<title>Node9&#45;&gt;Node19</title>
<path fill="none" stroke="midnightblue" d="M2369.3,-213.43C2151.04,-207.71 1565.66,-190.42 1373.5,-165 1370.83,-164.65 1368.1,-164.24 1365.35,-163.79"/>
<polygon fill="midnightblue" stroke="midnightblue" points="2369.33,-216.93 2379.41,-213.7 2369.51,-209.94 2369.33,-216.93"/>
</g>
<!-- Node20 -->
<g id="node20" class="node">
<title>Node20</title>
<g id="a_node20"><a xlink:href="d__meter__hakusha_8cpp.html" target="_top" xlink:title=" ">
<polygon fill="white" stroke="black" points="1383,-134.5 1383,-164.5 1498,-164.5 1498,-134.5 1383,-134.5"/>
<text text-anchor="start" x="1391" y="-152.5" font-family="Helvetica,sans-Serif" font-size="10.00">src/d/d_meter/d_meter</text>
<text text-anchor="middle" x="1440.5" y="-141.5" font-family="Helvetica,sans-Serif" font-size="10.00">_hakusha.cpp</text>
</a>
</g>
</g>
<!-- Node9&#45;&gt;Node20 -->
<g id="edge21" class="edge">
<title>Node9&#45;&gt;Node20</title>
<path fill="none" stroke="midnightblue" d="M2369.33,-215.6C2204.12,-214.79 1823.18,-207.95 1506.5,-165 1503.83,-164.64 1501.1,-164.22 1498.35,-163.77"/>
<polygon fill="midnightblue" stroke="midnightblue" points="2369.41,-219.1 2379.43,-215.64 2369.44,-212.1 2369.41,-219.1"/>
</g>
<!-- Node21 -->
<g id="node21" class="node">
<title>Node21</title>
<g id="a_node21"><a xlink:href="d__meter__map_8cpp.html" target="_top" xlink:title=" ">
<polygon fill="white" stroke="black" points="1516,-134.5 1516,-164.5 1631,-164.5 1631,-134.5 1516,-134.5"/>
<text text-anchor="start" x="1524" y="-152.5" font-family="Helvetica,sans-Serif" font-size="10.00">src/d/d_meter/d_meter</text>
<text text-anchor="middle" x="1573.5" y="-141.5" font-family="Helvetica,sans-Serif" font-size="10.00">_map.cpp</text>
</a>
</g>
</g>
<!-- Node9&#45;&gt;Node21 -->
<g id="edge22" class="edge">
<title>Node9&#45;&gt;Node21</title>
<path fill="none" stroke="midnightblue" d="M2368.9,-214.55C2221.07,-211.93 1904.15,-202.06 1639.5,-165 1636.83,-164.63 1634.1,-164.2 1631.36,-163.74"/>
<polygon fill="midnightblue" stroke="midnightblue" points="2369.19,-218.06 2379.24,-214.73 2369.31,-211.06 2369.19,-218.06"/>
</g>
<!-- Node22 -->
<g id="node22" class="node">
<title>Node22</title>
<g id="a_node22"><a xlink:href="d__meter__string_8cpp.html" target="_top" xlink:title=" ">
<polygon fill="white" stroke="black" points="1649,-134.5 1649,-164.5 1764,-164.5 1764,-134.5 1649,-134.5"/>
<text text-anchor="start" x="1657" y="-152.5" font-family="Helvetica,sans-Serif" font-size="10.00">src/d/d_meter/d_meter</text>
<text text-anchor="middle" x="1706.5" y="-141.5" font-family="Helvetica,sans-Serif" font-size="10.00">_string.cpp</text>
</a>
</g>
</g>
<!-- Node9&#45;&gt;Node22 -->
<g id="edge23" class="edge">
<title>Node9&#45;&gt;Node22</title>
<path fill="none" stroke="midnightblue" d="M2369.25,-213.13C2240.65,-208.61 1986.19,-196.25 1772.5,-165 1769.71,-164.59 1766.87,-164.13 1764,-163.64"/>
<polygon fill="midnightblue" stroke="midnightblue" points="2369.31,-216.63 2379.42,-213.48 2369.55,-209.64 2369.31,-216.63"/>
</g>
<!-- Node23 -->
<g id="node23" class="node">
<title>Node23</title>
<g id="a_node23"><a xlink:href="d__meter2__draw_8cpp.html" target="_top" xlink:title=" ">
<polygon fill="white" stroke="black" points="1782,-134.5 1782,-164.5 1907,-164.5 1907,-134.5 1782,-134.5"/>
<text text-anchor="start" x="1790" y="-152.5" font-family="Helvetica,sans-Serif" font-size="10.00">src/d/d_meter2/d_meter2</text>
<text text-anchor="middle" x="1844.5" y="-141.5" font-family="Helvetica,sans-Serif" font-size="10.00">_draw.cpp</text>
</a>
</g>
</g>
<!-- Node9&#45;&gt;Node23 -->
<g id="edge24" class="edge">
<title>Node9&#45;&gt;Node23</title>
<path fill="none" stroke="midnightblue" d="M2369.26,-210.46C2263.41,-203.42 2075.22,-188.75 1915.5,-165 1912.76,-164.59 1909.97,-164.15 1907.15,-163.68"/>
<polygon fill="midnightblue" stroke="midnightblue" points="2369.03,-213.95 2379.24,-211.12 2369.49,-206.97 2369.03,-213.95"/>
</g>
<!-- Node24 -->
<g id="node24" class="node">
<title>Node24</title>
<g id="a_node24"><a xlink:href="d__meter2__info_8cpp.html" target="_top" xlink:title=" ">
<polygon fill="white" stroke="black" points="1925,-134.5 1925,-164.5 2050,-164.5 2050,-134.5 1925,-134.5"/>
<text text-anchor="start" x="1933" y="-152.5" font-family="Helvetica,sans-Serif" font-size="10.00">src/d/d_meter2/d_meter2</text>
<text text-anchor="middle" x="1987.5" y="-141.5" font-family="Helvetica,sans-Serif" font-size="10.00">_info.cpp</text>
</a>
</g>
</g>
<!-- Node9&#45;&gt;Node24 -->
<g id="edge25" class="edge">
<title>Node9&#45;&gt;Node24</title>
<path fill="none" stroke="midnightblue" d="M2369.5,-206.57C2289.79,-197.58 2166.09,-182.56 2059.5,-165 2056.48,-164.5 2053.39,-163.97 2050.28,-163.42"/>
<polygon fill="midnightblue" stroke="midnightblue" points="2369.15,-210.05 2379.48,-207.69 2369.93,-203.09 2369.15,-210.05"/>
</g>
<!-- Node25 -->
<g id="node25" class="node">
<title>Node25</title>
<g id="a_node25"><a xlink:href="d__meter2_8cpp.html" target="_top" xlink:title=" ">
<polygon fill="white" stroke="black" points="2068.5,-140 2068.5,-159 2168.5,-159 2168.5,-140 2068.5,-140"/>
<text text-anchor="middle" x="2118.5" y="-147" font-family="Helvetica,sans-Serif" font-size="10.00">src/d/d_meter2.cpp</text>
</a>
</g>
</g>
<!-- Node9&#45;&gt;Node25 -->
<g id="edge26" class="edge">
<title>Node9&#45;&gt;Node25</title>
<path fill="none" stroke="midnightblue" d="M2369.32,-201.55C2314.64,-192.05 2241.62,-178.75 2177.5,-165 2169.15,-163.21 2160.17,-161.1 2151.81,-159.05"/>
<polygon fill="midnightblue" stroke="midnightblue" points="2368.86,-205.02 2379.31,-203.28 2370.06,-198.12 2368.86,-205.02"/>
</g>
<!-- Node26 -->
<g id="node26" class="node">
<title>Node26</title>
<g id="a_node26"><a xlink:href="d__save_8cpp.html" target="_top" xlink:title=" ">
<polygon fill="white" stroke="black" points="2187,-140 2187,-159 2312,-159 2312,-140 2187,-140"/>
<text text-anchor="middle" x="2249.5" y="-147" font-family="Helvetica,sans-Serif" font-size="10.00">src/d/d_save/d_save.cpp</text>
</a>
</g>
</g>
<!-- Node9&#45;&gt;Node26 -->
<g id="edge27" class="edge">
<title>Node9&#45;&gt;Node26</title>
<path fill="none" stroke="midnightblue" d="M2398.69,-198.27C2359.13,-185.6 2307.07,-168.93 2276.07,-159.01"/>
<polygon fill="midnightblue" stroke="midnightblue" points="2397.86,-201.68 2408.45,-201.4 2400,-195.01 2397.86,-201.68"/>
</g>
<!-- Node27 -->
<g id="node27" class="node">
<title>Node27</title>
<g id="a_node27"><a xlink:href="d__save__HIO_8cpp.html" target="_top" xlink:title=" ">
<polygon fill="white" stroke="black" points="2330,-134.5 2330,-164.5 2437,-164.5 2437,-134.5 2330,-134.5"/>
<text text-anchor="start" x="2338" y="-152.5" font-family="Helvetica,sans-Serif" font-size="10.00">src/d/d_save/d_save</text>
<text text-anchor="middle" x="2383.5" y="-141.5" font-family="Helvetica,sans-Serif" font-size="10.00">_HIO.cpp</text>
</a>
</g>
</g>
<!-- Node9&#45;&gt;Node27 -->
<g id="edge28" class="edge">
<title>Node9&#45;&gt;Node27</title>
<path fill="none" stroke="midnightblue" d="M2430.01,-194.31C2419.66,-184.56 2407.66,-173.26 2398.44,-164.58"/>
<polygon fill="midnightblue" stroke="midnightblue" points="2427.85,-197.09 2437.53,-201.4 2432.65,-191.99 2427.85,-197.09"/>
</g>
<!-- Node28 -->
<g id="node28" class="node">
<title>Node28</title>
<g id="a_node28"><a xlink:href="d__stage_8cpp.html" target="_top" xlink:title=" ">
<polygon fill="white" stroke="black" points="2670.5,-6 2670.5,-25 2764.5,-25 2764.5,-6 2670.5,-6"/>
<text text-anchor="middle" x="2717.5" y="-13" font-family="Helvetica,sans-Serif" font-size="10.00">src/d/d_stage.cpp</text>
</a>
</g>
</g>
<!-- Node9&#45;&gt;Node28 -->
<g id="edge29" class="edge">
<title>Node9&#45;&gt;Node28</title>
<path fill="none" stroke="midnightblue" d="M2535.88,-215.35C2957.22,-214.38 4833.69,-207.69 4875.5,-165 4905.98,-133.88 4905.94,-98.16 4875.5,-67 4837.32,-27.92 3077.22,-18.13 2764.69,-16.7"/>
<polygon fill="midnightblue" stroke="midnightblue" points="2535.6,-211.85 2525.61,-215.37 2535.62,-218.85 2535.6,-211.85"/>
</g>
<!-- Node29 -->
<g id="node29" class="node">
<title>Node29</title>
<g id="a_node29"><a xlink:href="f__op__camera_8cpp.html" target="_top" xlink:title=" ">
<polygon fill="white" stroke="black" points="2455,-140 2455,-159 2590,-159 2590,-140 2455,-140"/>
<text text-anchor="middle" x="2522.5" y="-147" font-family="Helvetica,sans-Serif" font-size="10.00">src/f/f_op/f_op_camera.cpp</text>
</a>
</g>
</g>
<!-- Node9&#45;&gt;Node29 -->
<g id="edge31" class="edge">
<title>Node9&#45;&gt;Node29</title>
<path fill="none" stroke="midnightblue" d="M2475.29,-194.34C2488.15,-182.4 2503.51,-168.14 2513.14,-159.19"/>
<polygon fill="midnightblue" stroke="midnightblue" points="2472.64,-192.03 2467.69,-201.4 2477.4,-197.16 2472.64,-192.03"/>
</g>
<!-- Node30 -->
<g id="node30" class="node">
<title>Node30</title>
<g id="a_node30"><a xlink:href="f__op__kankyo__mng_8cpp.html" target="_top" xlink:title=" ">
<polygon fill="white" stroke="black" points="2608.5,-134.5 2608.5,-164.5 2724.5,-164.5 2724.5,-134.5 2608.5,-134.5"/>
<text text-anchor="start" x="2616.5" y="-152.5" font-family="Helvetica,sans-Serif" font-size="10.00">src/f/f_op/f_op_kankyo</text>
<text text-anchor="middle" x="2666.5" y="-141.5" font-family="Helvetica,sans-Serif" font-size="10.00">_mng.cpp</text>
</a>
</g>
</g>
<!-- Node9&#45;&gt;Node30 -->
<g id="edge32" class="edge">
<title>Node9&#45;&gt;Node30</title>
<path fill="none" stroke="midnightblue" d="M2508.65,-198.44C2543.34,-187.91 2587.32,-174.55 2620.04,-164.61"/>
<polygon fill="midnightblue" stroke="midnightblue" points="2507.22,-195.22 2498.67,-201.48 2509.26,-201.92 2507.22,-195.22"/>
</g>
<!-- Node31 -->
<g id="node31" class="node">
<title>Node31</title>
<g id="a_node31"><a xlink:href="f__op__msg__mng_8cpp.html" target="_top" xlink:title=" ">
<polygon fill="white" stroke="black" points="2742.5,-134.5 2742.5,-164.5 2846.5,-164.5 2846.5,-134.5 2742.5,-134.5"/>
<text text-anchor="start" x="2750.5" y="-152.5" font-family="Helvetica,sans-Serif" font-size="10.00">src/f/f_op/f_op_msg</text>
<text text-anchor="middle" x="2794.5" y="-141.5" font-family="Helvetica,sans-Serif" font-size="10.00">_mng.cpp</text>
</a>
</g>
</g>
<!-- Node9&#45;&gt;Node31 -->
<g id="edge33" class="edge">
<title>Node9&#45;&gt;Node31</title>
<path fill="none" stroke="midnightblue" d="M2535.67,-201.8C2591.72,-192.26 2667.24,-178.82 2733.5,-165 2736.38,-164.4 2739.33,-163.77 2742.3,-163.11"/>
<polygon fill="midnightblue" stroke="midnightblue" points="2535.06,-198.35 2525.79,-203.48 2536.23,-205.26 2535.06,-198.35"/>
</g>
<!-- Node32 -->
<g id="node32" class="node">
<title>Node32</title>
<g id="a_node32"><a xlink:href="f__pc__manager_8cpp.html" target="_top" xlink:title=" ">
<polygon fill="white" stroke="black" points="567.5,-73 567.5,-92 707.5,-92 707.5,-73 567.5,-73"/>
<text text-anchor="middle" x="637.5" y="-80" font-family="Helvetica,sans-Serif" font-size="10.00">src/f/f_pc/f_pc_manager.cpp</text>
</a>
</g>
</g>
<!-- Node9&#45;&gt;Node32 -->
<g id="edge34" class="edge">
<title>Node9&#45;&gt;Node32</title>
<path fill="none" stroke="midnightblue" d="M2369.46,-215.09C1982.31,-212.99 371.65,-202.02 335.5,-165 276.25,-104.32 282.48,-145.22 557.5,-98 568.49,-96.11 580.32,-94.01 591.41,-92"/>
<polygon fill="midnightblue" stroke="midnightblue" points="2369.45,-218.59 2379.47,-215.14 2369.49,-211.59 2369.45,-218.59"/>
</g>
<!-- Node33 -->
<g id="node33" class="node">
<title>Node33</title>
<g id="a_node33"><a xlink:href="m__Do__audio_8cpp.html" target="_top" xlink:title=" ">
<polygon fill="white" stroke="black" points="2864.5,-140 2864.5,-159 2998.5,-159 2998.5,-140 2864.5,-140"/>
<text text-anchor="middle" x="2931.5" y="-147" font-family="Helvetica,sans-Serif" font-size="10.00">src/m_Do/m_Do_audio.cpp</text>
</a>
</g>
</g>
<!-- Node9&#45;&gt;Node33 -->
<g id="edge35" class="edge">
<title>Node9&#45;&gt;Node33</title>
<path fill="none" stroke="midnightblue" d="M2535.72,-206.64C2617.36,-197.58 2745.29,-182.4 2855.5,-165 2866.51,-163.26 2878.37,-161.13 2889.37,-159.03"/>
<polygon fill="midnightblue" stroke="midnightblue" points="2535.06,-203.19 2525.5,-207.77 2535.82,-210.15 2535.06,-203.19"/>
</g>
<!-- Node34 -->
<g id="node34" class="node">
<title>Node34</title>
<g id="a_node34"><a xlink:href="m__Do__graphic_8cpp.html" target="_top" xlink:title=" ">
<polygon fill="white" stroke="black" points="3016.5,-140 3016.5,-159 3158.5,-159 3158.5,-140 3016.5,-140"/>
<text text-anchor="middle" x="3087.5" y="-147" font-family="Helvetica,sans-Serif" font-size="10.00">src/m_Do/m_Do_graphic.cpp</text>
</a>
</g>
</g>
<!-- Node9&#45;&gt;Node34 -->
<g id="edge36" class="edge">
<title>Node9&#45;&gt;Node34</title>
<path fill="none" stroke="midnightblue" d="M2536.16,-210.21C2645.03,-202.79 2841.02,-187.62 3007.5,-165 3019.53,-163.37 3032.5,-161.19 3044.43,-159.03"/>
<polygon fill="midnightblue" stroke="midnightblue" points="2535.65,-206.73 2525.9,-210.9 2536.12,-213.72 2535.65,-206.73"/>
</g>
<!-- Node35 -->
<g id="node35" class="node">
<title>Node35</title>
<g id="a_node35"><a xlink:href="m__Do__lib_8cpp.html" target="_top" xlink:title=" ">
<polygon fill="white" stroke="black" points="3176.5,-140 3176.5,-159 3296.5,-159 3296.5,-140 3176.5,-140"/>
<text text-anchor="middle" x="3236.5" y="-147" font-family="Helvetica,sans-Serif" font-size="10.00">src/m_Do/m_Do_lib.cpp</text>
</a>
</g>
</g>
<!-- Node9&#45;&gt;Node35 -->
<g id="edge37" class="edge">
<title>Node9&#45;&gt;Node35</title>
<path fill="none" stroke="midnightblue" d="M2535.84,-213.3C2669.62,-208.95 2940.33,-196.74 3167.5,-165 3178.29,-163.49 3189.92,-161.28 3200.49,-159.04"/>
<polygon fill="midnightblue" stroke="midnightblue" points="2535.55,-209.81 2525.67,-213.63 2535.77,-216.81 2535.55,-209.81"/>
</g>
<!-- Node36 -->
<g id="node36" class="node">
<title>Node36</title>
<g id="a_node36"><a xlink:href="m__Do__machine__exception_8cpp.html" target="_top" xlink:title=" ">
<polygon fill="white" stroke="black" points="3315,-134.5 3315,-164.5 3444,-164.5 3444,-134.5 3315,-134.5"/>
<text text-anchor="start" x="3323" y="-152.5" font-family="Helvetica,sans-Serif" font-size="10.00">src/m_Do/m_Do_machine</text>
<text text-anchor="middle" x="3379.5" y="-141.5" font-family="Helvetica,sans-Serif" font-size="10.00">_exception.cpp</text>
</a>
</g>
</g>
<!-- Node9&#45;&gt;Node36 -->
<g id="edge38" class="edge">
<title>Node9&#45;&gt;Node36</title>
<path fill="none" stroke="midnightblue" d="M2535.8,-214.28C2688.84,-211.21 3024.79,-200.65 3305.5,-165 3308.49,-164.62 3311.53,-164.19 3314.61,-163.73"/>
<polygon fill="midnightblue" stroke="midnightblue" points="2535.48,-210.78 2525.55,-214.48 2535.61,-217.78 2535.48,-210.78"/>
</g>
<!-- Node37 -->
<g id="node37" class="node">
<title>Node37</title>
<g id="a_node37"><a xlink:href="m__Do__MemCardRWmng_8cpp.html" target="_top" xlink:title=" ">
<polygon fill="white" stroke="black" points="3462,-140 3462,-159 3649,-159 3649,-140 3462,-140"/>
<text text-anchor="middle" x="3555.5" y="-147" font-family="Helvetica,sans-Serif" font-size="10.00">src/m_Do/m_Do_MemCardRWmng.cpp</text>
</a>
</g>
</g>
<!-- Node9&#45;&gt;Node37 -->
<g id="edge40" class="edge">
<title>Node9&#45;&gt;Node37</title>
<path fill="none" stroke="midnightblue" d="M2535.75,-213.85C2707.61,-209.89 3114.02,-197.63 3453.5,-165 3469.35,-163.48 3486.5,-161.26 3502.14,-159.02"/>
<polygon fill="midnightblue" stroke="midnightblue" points="2535.43,-210.36 2525.51,-214.09 2535.59,-217.36 2535.43,-210.36"/>
</g>
<!-- Node38 -->
<g id="node38" class="node">
<title>Node38</title>
<g id="a_node38"><a xlink:href="m__Do__ext_8cpp.html" target="_top" xlink:title=" ">
<polygon fill="white" stroke="black" points="3667,-140 3667,-159 3790,-159 3790,-140 3667,-140"/>
<text text-anchor="middle" x="3728.5" y="-147" font-family="Helvetica,sans-Serif" font-size="10.00">src/m_Do/m_Do_ext.cpp</text>
</a>
</g>
</g>
<!-- Node9&#45;&gt;Node38 -->
<g id="edge41" class="edge">
<title>Node9&#45;&gt;Node38</title>
<path fill="none" stroke="midnightblue" d="M2535.82,-213.77C2771.62,-208.61 3440.64,-191.94 3658.5,-165 3669.83,-163.6 3682.06,-161.33 3693.08,-159"/>
<polygon fill="midnightblue" stroke="midnightblue" points="2535.51,-210.28 2525.59,-214 2535.66,-217.28 2535.51,-210.28"/>
</g>
<!-- Node39 -->
<g id="node39" class="node">
<title>Node39</title>
<g id="a_node39"><a xlink:href="Z2EnvSeMgr_8cpp.html" target="_top" xlink:title=" ">
<polygon fill="white" stroke="black" points="3808,-140 3808,-159 3969,-159 3969,-140 3808,-140"/>
<text text-anchor="middle" x="3888.5" y="-147" font-family="Helvetica,sans-Serif" font-size="10.00">libs/Z2AudioLib/Z2EnvSeMgr.cpp</text>
</a>
</g>
</g>
<!-- Node9&#45;&gt;Node39 -->
<g id="edge42" class="edge">
<title>Node9&#45;&gt;Node39</title>
<path fill="none" stroke="midnightblue" d="M2535.83,-215.96C2747.51,-216.36 3322.95,-212.57 3799.5,-165 3813.68,-163.59 3829.02,-161.34 3842.91,-159.04"/>
<polygon fill="midnightblue" stroke="midnightblue" points="2535.73,-212.46 2525.72,-215.94 2535.72,-219.46 2535.73,-212.46"/>
</g>
<!-- Node40 -->
<g id="node40" class="node">
<title>Node40</title>
<g id="a_node40"><a xlink:href="Z2LinkMgr_8cpp.html" target="_top" xlink:title=" ">
<polygon fill="white" stroke="black" points="3987.5,-140 3987.5,-159 4139.5,-159 4139.5,-140 3987.5,-140"/>
<text text-anchor="middle" x="4063.5" y="-147" font-family="Helvetica,sans-Serif" font-size="10.00">libs/Z2AudioLib/Z2LinkMgr.cpp</text>
</a>
</g>
</g>
<!-- Node9&#45;&gt;Node40 -->
<g id="edge43" class="edge">
<title>Node9&#45;&gt;Node40</title>
<path fill="none" stroke="midnightblue" d="M2536.1,-214.23C2812.48,-209.8 3695.18,-193.72 3978.5,-165 3992.2,-163.61 4007.03,-161.35 4020.41,-159.02"/>
<polygon fill="midnightblue" stroke="midnightblue" points="2535.69,-210.74 2525.75,-214.4 2535.8,-217.74 2535.69,-210.74"/>
</g>
<!-- Node41 -->
<g id="node41" class="node">
<title>Node41</title>
<g id="a_node41"><a xlink:href="Z2SceneMgr_8cpp.html" target="_top" xlink:title=" ">
<polygon fill="white" stroke="black" points="4158,-140 4158,-159 4319,-159 4319,-140 4158,-140"/>
<text text-anchor="middle" x="4238.5" y="-147" font-family="Helvetica,sans-Serif" font-size="10.00">libs/Z2AudioLib/Z2SceneMgr.cpp</text>
</a>
</g>
</g>
<!-- Node9&#45;&gt;Node41 -->
<g id="edge44" class="edge">
<title>Node9&#45;&gt;Node41</title>
<path fill="none" stroke="midnightblue" d="M2535.72,-214.46C2831.34,-210.52 3830.06,-195.26 4148.5,-165 4163,-163.62 4178.7,-161.36 4192.86,-159.03"/>
<polygon fill="midnightblue" stroke="midnightblue" points="2535.46,-210.96 2525.51,-214.59 2535.55,-217.96 2535.46,-210.96"/>
</g>
<!-- Node42 -->
<g id="node42" class="node">
<title>Node42</title>
<g id="a_node42"><a xlink:href="Z2SoundMgr_8cpp.html" target="_top" xlink:title=" ">
<polygon fill="white" stroke="black" points="4337,-140 4337,-159 4498,-159 4498,-140 4337,-140"/>
<text text-anchor="middle" x="4417.5" y="-147" font-family="Helvetica,sans-Serif" font-size="10.00">libs/Z2AudioLib/Z2SoundMgr.cpp</text>
</a>
</g>
</g>
<!-- Node9&#45;&gt;Node42 -->
<g id="edge45" class="edge">
<title>Node9&#45;&gt;Node42</title>
<path fill="none" stroke="midnightblue" d="M2536.16,-214.75C2852.16,-211.67 3973.2,-198.57 4328.5,-165 4342.84,-163.65 4358.37,-161.39 4372.38,-159.06"/>
<polygon fill="midnightblue" stroke="midnightblue" points="2535.67,-211.25 2525.7,-214.85 2535.74,-218.25 2535.67,-211.25"/>
</g>
<!-- Node43 -->
<g id="node43" class="node">
<title>Node43</title>
<g id="a_node43"><a xlink:href="Z2StatusMgr_8cpp.html" target="_top" xlink:title=" ">
<polygon fill="white" stroke="black" points="4516,-134.5 4516,-164.5 4643,-164.5 4643,-134.5 4516,-134.5"/>
<text text-anchor="start" x="4524" y="-152.5" font-family="Helvetica,sans-Serif" font-size="10.00">libs/Z2AudioLib/Z2Status</text>
<text text-anchor="middle" x="4579.5" y="-141.5" font-family="Helvetica,sans-Serif" font-size="10.00">Mgr.cpp</text>
</a>
</g>
</g>
<!-- Node9&#45;&gt;Node43 -->
<g id="edge46" class="edge">
<title>Node9&#45;&gt;Node43</title>
<path fill="none" stroke="midnightblue" d="M2535.72,-215.39C2869.98,-214.64 4115.78,-208.92 4507.5,-165 4510.29,-164.69 4513.13,-164.32 4515.99,-163.91"/>
<polygon fill="midnightblue" stroke="midnightblue" points="2535.61,-211.89 2525.62,-215.41 2535.63,-218.89 2535.61,-211.89"/>
</g>
<!-- Node44 -->
<g id="node44" class="node">
<title>Node44</title>
<g id="a_node44"><a xlink:href="d__a__alink_8h.html" target="_top" xlink:title=" ">
<polygon fill="white" stroke="black" points="153,-67.5 153,-97.5 272,-97.5 272,-67.5 153,-67.5"/>
<text text-anchor="start" x="161" y="-85.5" font-family="Helvetica,sans-Serif" font-size="10.00">include/d/d_a/d_a_alink</text>
<text text-anchor="middle" x="212.5" y="-74.5" font-family="Helvetica,sans-Serif" font-size="10.00">/d_a_alink.h</text>
</a>
</g>
</g>
<!-- Node9&#45;&gt;Node44 -->
<g id="edge47" class="edge">
<title>Node9&#45;&gt;Node44</title>
<path fill="none" stroke="midnightblue" d="M2369.13,-215.23C1964.21,-213.71 220.49,-204.87 181.5,-165 163.19,-146.28 183.78,-115.64 199.06,-97.74"/>
<polygon fill="midnightblue" stroke="midnightblue" points="2369.29,-218.73 2379.3,-215.27 2369.31,-211.73 2369.29,-218.73"/>
</g>
<!-- Node46 -->
<g id="node46" class="node">
<title>Node46</title>
<g id="a_node46"><a xlink:href="d__item_8h.html" target="_top" xlink:title=" ">
<polygon fill="white" stroke="black" points="4699.5,-134.5 4699.5,-164.5 4795.5,-164.5 4795.5,-134.5 4699.5,-134.5"/>
<text text-anchor="start" x="4707.5" y="-152.5" font-family="Helvetica,sans-Serif" font-size="10.00">include/d/d_item/d</text>
<text text-anchor="middle" x="4747.5" y="-141.5" font-family="Helvetica,sans-Serif" font-size="10.00">_item/d_item.h</text>
</a>
</g>
</g>
<!-- Node9&#45;&gt;Node46 -->
<g id="edge50" class="edge">
<title>Node9&#45;&gt;Node46</title>
<path fill="none" stroke="midnightblue" d="M2535.84,-215.92C2888.28,-217.36 4257.78,-219.26 4685.5,-165 4690,-164.43 4694.64,-163.67 4699.28,-162.8"/>
<polygon fill="midnightblue" stroke="midnightblue" points="2535.73,-212.42 2525.71,-215.88 2535.7,-219.42 2535.73,-212.42"/>
</g>
<!-- Node47 -->
<g id="node47" class="node">
<title>Node47</title>
<g id="a_node47"><a xlink:href="f__pc__manager_8h.html" target="_top" xlink:title=" ">
<polygon fill="white" stroke="black" points="191,-134.5 191,-164.5 288,-164.5 288,-134.5 191,-134.5"/>
<text text-anchor="start" x="199" y="-152.5" font-family="Helvetica,sans-Serif" font-size="10.00">include/f/f_pc/f_pc</text>
<text text-anchor="middle" x="239.5" y="-141.5" font-family="Helvetica,sans-Serif" font-size="10.00">_manager.h</text>
</a>
</g>
</g>
<!-- Node9&#45;&gt;Node47 -->
<g id="edge53" class="edge">
<title>Node9&#45;&gt;Node47</title>
<path fill="none" stroke="midnightblue" d="M2369.15,-215.8C2024.96,-216.69 713.15,-216.54 302.5,-165 297.82,-164.41 292.98,-163.63 288.16,-162.73"/>
<polygon fill="midnightblue" stroke="midnightblue" points="2369.3,-219.3 2379.29,-215.77 2369.28,-212.3 2369.3,-219.3"/>
</g>
<!-- Node44&#45;&gt;Node2 -->
<g id="edge48" class="edge">
<title>Node44&#45;&gt;Node2</title>
<path fill="none" stroke="midnightblue" d="M168.37,-63.46C137.65,-50.9 98.08,-34.72 74.31,-25.01"/>
<polygon fill="midnightblue" stroke="midnightblue" points="167.42,-66.85 178,-67.4 170.07,-60.37 167.42,-66.85"/>
</g>
<!-- Node45 -->
<g id="node45" class="node">
<title>Node45</title>
<g id="a_node45"><a xlink:href="d__a__alink_8cpp.html" target="_top" xlink:title=" ">
<polygon fill="white" stroke="black" points="274,-6 274,-25 393,-25 393,-6 274,-6"/>
<text text-anchor="middle" x="333.5" y="-13" font-family="Helvetica,sans-Serif" font-size="10.00">src/d/d_a/d_a_alink.cpp</text>
</a>
</g>
</g>
<!-- Node44&#45;&gt;Node45 -->
<g id="edge49" class="edge">
<title>Node44&#45;&gt;Node45</title>
<path fill="none" stroke="midnightblue" d="M247.61,-62.64C270.76,-50.2 299.97,-34.51 317.66,-25.01"/>
<polygon fill="midnightblue" stroke="midnightblue" points="245.91,-59.58 238.76,-67.4 249.22,-65.75 245.91,-59.58"/>
</g>
<!-- Node46&#45;&gt;Node3 -->
<g id="edge51" class="edge">
<title>Node46&#45;&gt;Node3</title>
<path fill="none" stroke="midnightblue" d="M4756.9,-124.99C4760.58,-115.8 4764.67,-105.58 4767.87,-97.58"/>
<polygon fill="midnightblue" stroke="midnightblue" points="4753.61,-123.81 4753.14,-134.4 4760.11,-126.41 4753.61,-123.81"/>
</g>
<!-- Node46&#45;&gt;Node12 -->
<g id="edge52" class="edge">
<title>Node46&#45;&gt;Node12</title>
<path fill="none" stroke="midnightblue" d="M4714.43,-129.31C4693.09,-116.93 4666.39,-101.43 4650.16,-92.01"/>
<polygon fill="midnightblue" stroke="midnightblue" points="4712.79,-132.4 4723.2,-134.4 4716.31,-126.35 4712.79,-132.4"/>
</g>
<!-- Node47&#45;&gt;Node32 -->
<g id="edge56" class="edge">
<title>Node47&#45;&gt;Node32</title>
<path fill="none" stroke="midnightblue" d="M298.11,-134.84C299.59,-134.55 301.05,-134.27 302.5,-134 415.04,-113.14 444.5,-116.21 557.5,-98 568.79,-96.18 580.94,-94.06 592.28,-92.01"/>
<polygon fill="midnightblue" stroke="midnightblue" points="297.35,-131.42 288.25,-136.84 298.75,-138.28 297.35,-131.42"/>
</g>
<!-- Node47&#45;&gt;Node45 -->
<g id="edge55" class="edge">
<title>Node47&#45;&gt;Node45</title>
<path fill="none" stroke="midnightblue" d="M258.27,-126.42C265.44,-117.72 273.55,-107.55 280.5,-98 299.18,-72.35 319,-40.42 328.22,-25.27"/>
<polygon fill="midnightblue" stroke="midnightblue" points="255.47,-124.31 251.76,-134.23 260.85,-128.79 255.47,-124.31"/>
</g>
<!-- Node48 -->
<g id="node48" class="node">
<title>Node48</title>
<g id="a_node48"><a xlink:href="f__ap__game_8cpp.html" target="_top" xlink:title=" ">
<polygon fill="white" stroke="black" points="329,-73 329,-92 434,-92 434,-73 329,-73"/>
<text text-anchor="middle" x="381.5" y="-80" font-family="Helvetica,sans-Serif" font-size="10.00">src/f/f_ap_game.cpp</text>
</a>
</g>
</g>
<!-- Node47&#45;&gt;Node48 -->
<g id="edge54" class="edge">
<title>Node47&#45;&gt;Node48</title>
<path fill="none" stroke="midnightblue" d="M279.63,-130.13C306.96,-117.62 341.87,-101.64 362.92,-92.01"/>
<polygon fill="midnightblue" stroke="midnightblue" points="277.95,-127.05 270.31,-134.4 280.86,-133.42 277.95,-127.05"/>
</g>
<!-- Node49 -->
<g id="node49" class="node">
<title>Node49</title>
<g id="a_node49"><a xlink:href="f__op__actor__mng_8h.html" target="_top" xlink:title=" ">
<polygon fill="white" stroke="black" points="452,-67.5 452,-97.5 549,-97.5 549,-67.5 452,-67.5"/>
<text text-anchor="start" x="460" y="-85.5" font-family="Helvetica,sans-Serif" font-size="10.00">include/f/f_op/f_op</text>
<text text-anchor="middle" x="500.5" y="-74.5" font-family="Helvetica,sans-Serif" font-size="10.00">_actor_mng.h</text>
</a>
</g>
</g>
<!-- Node47&#45;&gt;Node49 -->
<g id="edge57" class="edge">
<title>Node47&#45;&gt;Node49</title>
<path fill="none" stroke="midnightblue" d="M298.04,-133.96C338.59,-123.88 393.83,-110.14 442.5,-98 445.52,-97.25 448.63,-96.47 451.77,-95.69"/>
<polygon fill="midnightblue" stroke="midnightblue" points="297.18,-130.56 288.32,-136.37 298.86,-137.36 297.18,-130.56"/>
</g>
<!-- Node49&#45;&gt;Node2 -->
<g id="edge58" class="edge">
<title>Node49&#45;&gt;Node2</title>
<path fill="none" stroke="midnightblue" d="M441.71,-67.04C296.78,-41.84 256.37,-55.14 115.5,-31 106.13,-29.39 96.06,-27.23 86.81,-25.07"/>
<polygon fill="midnightblue" stroke="midnightblue" points="441.41,-70.54 451.87,-68.83 442.63,-63.64 441.41,-70.54"/>
</g>
<!-- Node49&#45;&gt;Node5 -->
<g id="edge61" class="edge">
<title>Node49&#45;&gt;Node5</title>
<path fill="none" stroke="midnightblue" d="M559.17,-67.6C804.46,-51.35 4399.1,-20.98 4883.62,-16.95"/>
<polygon fill="midnightblue" stroke="midnightblue" points="558.73,-64.12 549.08,-68.48 559.34,-71.1 558.73,-64.12"/>
</g>
<!-- Node49&#45;&gt;Node6 -->
<g id="edge63" class="edge">
<title>Node49&#45;&gt;Node6</title>
<path fill="none" stroke="midnightblue" d="M442,-67C401.32,-58.29 294.21,-37.02 233.52,-25.01"/>
<polygon fill="midnightblue" stroke="midnightblue" points="441.29,-70.43 451.81,-69.15 442.79,-63.59 441.29,-70.43"/>
</g>
<!-- Node49&#45;&gt;Node10 -->
<g id="edge59" class="edge">
<title>Node49&#45;&gt;Node10</title>
<path fill="none" stroke="midnightblue" d="M559.06,-67.18C761.96,-38.97 1325.88,-22.37 1499.21,-17.79"/>
<polygon fill="midnightblue" stroke="midnightblue" points="558.49,-63.73 549.1,-68.62 559.49,-70.66 558.49,-63.73"/>
</g>
<!-- Node49&#45;&gt;Node28 -->
<g id="edge60" class="edge">
<title>Node49&#45;&gt;Node28</title>
<path fill="none" stroke="midnightblue" d="M559.08,-67.28C817.62,-37.41 2377.85,-20.01 2670.29,-16.98"/>
<polygon fill="midnightblue" stroke="midnightblue" points="558.57,-63.81 549.08,-68.52 559.44,-70.76 558.57,-63.81"/>
</g>
<!-- Node49&#45;&gt;Node45 -->
<g id="edge62" class="edge">
<title>Node49&#45;&gt;Node45</title>
<path fill="none" stroke="midnightblue" d="M454.57,-63.62C422.24,-51.04 380.43,-34.77 355.36,-25.01"/>
<polygon fill="midnightblue" stroke="midnightblue" points="453.67,-67.03 464.26,-67.4 456.21,-60.51 453.67,-67.03"/>
</g>
</g>
</svg>
