<?xml version="1.0" encoding="UTF-8" standalone="no"?>
<!DOCTYPE svg PUBLIC "-//W3C//DTD SVG 1.1//EN"
 "http://www.w3.org/Graphics/SVG/1.1/DTD/svg11.dtd">
<!-- Generated by graphviz version 2.46.1 (20210215.1649)
 -->
<!-- Title: include/m_Do/m_Do_ext/m_Do_ext.h Pages: 1 -->
<svg width="5750pt" height="307pt"
 viewBox="0.00 0.00 5749.50 307.00" xmlns="http://www.w3.org/2000/svg" xmlns:xlink="http://www.w3.org/1999/xlink">
<g id="graph0" class="graph" transform="scale(1 1) rotate(0) translate(4 303)">
<title>include/m_Do/m_Do_ext/m_Do_ext.h</title>
<polygon fill="white" stroke="transparent" points="-4,4 -4,-303 5745.5,-303 5745.5,4 -4,4"/>
<!-- Node1 -->
<g id="node1" class="node">
<title>Node1</title>
<g id="a_node1"><a xlink:title=" ">
<polygon fill="#bfbfbf" stroke="black" points="5348.5,-268.5 5348.5,-298.5 5470.5,-298.5 5470.5,-268.5 5348.5,-268.5"/>
<text text-anchor="start" x="5356.5" y="-286.5" font-family="Helvetica,sans-Serif" font-size="10.00">include/m_Do/m_Do_ext</text>
<text text-anchor="middle" x="5409.5" y="-275.5" font-family="Helvetica,sans-Serif" font-size="10.00">/m_Do_ext.h</text>
</a>
</g>
</g>
<!-- Node2 -->
<g id="node2" class="node">
<title>Node2</title>
<g id="a_node2"><a xlink:href="d__attention_8cpp.html" target="_top" xlink:title=" ">
<polygon fill="white" stroke="black" points="4757,-6 4757,-25 4864,-25 4864,-6 4757,-6"/>
<text text-anchor="middle" x="4810.5" y="-13" font-family="Helvetica,sans-Serif" font-size="10.00">src/d/d_attention.cpp</text>
</a>
</g>
</g>
<!-- Node1&#45;&gt;Node2 -->
<g id="edge1" class="edge">
<title>Node1&#45;&gt;Node2</title>
<path fill="none" stroke="midnightblue" d="M5411.21,-258.27C5412.94,-212.85 5409.39,-115.17 5352.5,-67 5315.76,-35.89 4994.17,-22.31 4864.43,-18.07"/>
<polygon fill="midnightblue" stroke="midnightblue" points="5407.71,-258.22 5410.7,-268.38 5414.7,-258.57 5407.71,-258.22"/>
</g>
<!-- Node3 -->
<g id="node3" class="node">
<title>Node3</title>
<g id="a_node3"><a xlink:href="d__com__inf__game_8cpp.html" target="_top" xlink:title=" ">
<polygon fill="white" stroke="black" points="5312,-0.5 5312,-30.5 5431,-30.5 5431,-0.5 5312,-0.5"/>
<text text-anchor="start" x="5320" y="-18.5" font-family="Helvetica,sans-Serif" font-size="10.00">src/d/d_com/d_com_inf</text>
<text text-anchor="middle" x="5371.5" y="-7.5" font-family="Helvetica,sans-Serif" font-size="10.00">_game.cpp</text>
</a>
</g>
</g>
<!-- Node1&#45;&gt;Node3 -->
<g id="edge2" class="edge">
<title>Node1&#45;&gt;Node3</title>
<path fill="none" stroke="midnightblue" d="M5417.72,-258.79C5430.51,-217.82 5450.97,-131.96 5423.5,-67 5417.23,-52.16 5404.23,-39.54 5392.8,-30.62"/>
<polygon fill="midnightblue" stroke="midnightblue" points="5414.36,-257.83 5414.6,-268.42 5421.01,-259.99 5414.36,-257.83"/>
</g>
<!-- Node4 -->
<g id="node4" class="node">
<title>Node4</title>
<g id="a_node4"><a xlink:href="d__meter__HIO_8cpp.html" target="_top" xlink:title=" ">
<polygon fill="white" stroke="black" points="5476,-201.5 5476,-231.5 5591,-231.5 5591,-201.5 5476,-201.5"/>
<text text-anchor="start" x="5484" y="-219.5" font-family="Helvetica,sans-Serif" font-size="10.00">src/d/d_meter/d_meter</text>
<text text-anchor="middle" x="5533.5" y="-208.5" font-family="Helvetica,sans-Serif" font-size="10.00">_HIO.cpp</text>
</a>
</g>
</g>
<!-- Node1&#45;&gt;Node4 -->
<g id="edge3" class="edge">
<title>Node1&#45;&gt;Node4</title>
<path fill="none" stroke="midnightblue" d="M5445.34,-263.71C5464.89,-253.46 5488.7,-240.98 5506.65,-231.58"/>
<polygon fill="midnightblue" stroke="midnightblue" points="5443.64,-260.65 5436.41,-268.4 5446.89,-266.85 5443.64,-260.65"/>
</g>
<!-- Node5 -->
<g id="node5" class="node">
<title>Node5</title>
<g id="a_node5"><a xlink:href="f__op__actor__mng_8cpp.html" target="_top" xlink:title=" ">
<polygon fill="white" stroke="black" points="0,-67.5 0,-97.5 107,-97.5 107,-67.5 0,-67.5"/>
<text text-anchor="start" x="8" y="-85.5" font-family="Helvetica,sans-Serif" font-size="10.00">src/f/f_op/f_op_actor</text>
<text text-anchor="middle" x="53.5" y="-74.5" font-family="Helvetica,sans-Serif" font-size="10.00">_mng.cpp</text>
</a>
</g>
</g>
<!-- Node1&#45;&gt;Node5 -->
<g id="edge4" class="edge">
<title>Node1&#45;&gt;Node5</title>
<path fill="none" stroke="midnightblue" d="M5338,-282.31C4917.11,-280.84 2719.49,-268.33 929.5,-165 567.1,-144.08 474.1,-154.37 115.5,-98 112.77,-97.57 109.98,-97.09 107.17,-96.56"/>
<polygon fill="midnightblue" stroke="midnightblue" points="5338.18,-285.81 5348.2,-282.34 5338.21,-278.81 5338.18,-285.81"/>
</g>
<!-- Node6 -->
<g id="node6" class="node">
<title>Node6</title>
<g id="a_node6"><a xlink:href="m__Do__main_8cpp.html" target="_top" xlink:title=" ">
<polygon fill="white" stroke="black" points="125,-73 125,-92 256,-92 256,-73 125,-73"/>
<text text-anchor="middle" x="190.5" y="-80" font-family="Helvetica,sans-Serif" font-size="10.00">src/m_Do/m_Do_main.cpp</text>
</a>
</g>
</g>
<!-- Node1&#45;&gt;Node6 -->
<g id="edge5" class="edge">
<title>Node1&#45;&gt;Node6</title>
<path fill="none" stroke="midnightblue" d="M5338.25,-279.99C5130.04,-272.64 4504.55,-250.55 3985.5,-232 3572.05,-217.22 675.49,-145.37 264.5,-98 252.53,-96.62 239.61,-94.36 227.97,-92.03"/>
<polygon fill="midnightblue" stroke="midnightblue" points="5338.31,-283.49 5348.43,-280.35 5338.56,-276.5 5338.31,-283.49"/>
</g>
<!-- Node7 -->
<g id="node7" class="node">
<title>Node7</title>
<g id="a_node7"><a xlink:href="m__Do__printf_8cpp.html" target="_top" xlink:title=" ">
<polygon fill="white" stroke="black" points="5609.5,-207 5609.5,-226 5741.5,-226 5741.5,-207 5609.5,-207"/>
<text text-anchor="middle" x="5675.5" y="-214" font-family="Helvetica,sans-Serif" font-size="10.00">src/m_Do/m_Do_printf.cpp</text>
</a>
</g>
</g>
<!-- Node1&#45;&gt;Node7 -->
<g id="edge6" class="edge">
<title>Node1&#45;&gt;Node7</title>
<path fill="none" stroke="midnightblue" d="M5476.74,-266.07C5528.9,-253.32 5599.1,-236.17 5640.6,-226.03"/>
<polygon fill="midnightblue" stroke="midnightblue" points="5475.77,-262.7 5466.89,-268.48 5477.44,-269.5 5475.77,-262.7"/>
</g>
<!-- Node8 -->
<g id="node8" class="node">
<title>Node8</title>
<g id="a_node8"><a xlink:href="d__attention_8h.html" target="_top" xlink:title=" ">
<polygon fill="white" stroke="black" points="3995,-201.5 3995,-231.5 4102,-231.5 4102,-201.5 3995,-201.5"/>
<text text-anchor="start" x="4003" y="-219.5" font-family="Helvetica,sans-Serif" font-size="10.00">include/d/d_attention</text>
<text text-anchor="middle" x="4048.5" y="-208.5" font-family="Helvetica,sans-Serif" font-size="10.00">/d_attention.h</text>
</a>
</g>
</g>
<!-- Node1&#45;&gt;Node8 -->
<g id="edge7" class="edge">
<title>Node1&#45;&gt;Node8</title>
<path fill="none" stroke="midnightblue" d="M5338.33,-279.1C5097.29,-267.59 4314.98,-230.23 4102.29,-220.07"/>
<polygon fill="midnightblue" stroke="midnightblue" points="5338.22,-282.6 5348.38,-279.58 5338.56,-275.61 5338.22,-282.6"/>
</g>
<!-- Node9 -->
<g id="node9" class="node">
<title>Node9</title>
<g id="a_node9"><a xlink:href="d__com__inf__game_8h.html" target="_top" xlink:title=" ">
<polygon fill="white" stroke="black" points="2696.5,-134.5 2696.5,-164.5 2842.5,-164.5 2842.5,-134.5 2696.5,-134.5"/>
<text text-anchor="start" x="2704.5" y="-152.5" font-family="Helvetica,sans-Serif" font-size="10.00">include/d/d_com/d_com</text>
<text text-anchor="middle" x="2769.5" y="-141.5" font-family="Helvetica,sans-Serif" font-size="10.00">_inf_game/d_com_inf_game.h</text>
</a>
</g>
</g>
<!-- Node8&#45;&gt;Node9 -->
<g id="edge8" class="edge">
<title>Node8&#45;&gt;Node9</title>
<path fill="none" stroke="midnightblue" d="M3984.58,-212.25C3769.34,-201.31 3071.59,-165.85 2842.86,-154.23"/>
<polygon fill="midnightblue" stroke="midnightblue" points="3984.6,-215.76 3994.77,-212.77 3984.96,-208.77 3984.6,-215.76"/>
</g>
<!-- Node9&#45;&gt;Node2 -->
<g id="edge9" class="edge">
<title>Node9&#45;&gt;Node2</title>
<path fill="none" stroke="midnightblue" d="M2852.84,-147.79C3229.03,-144.41 4752.16,-128.85 4790.5,-98 4812.63,-80.19 4812.65,-42.22 4811.4,-25.14"/>
<polygon fill="midnightblue" stroke="midnightblue" points="2852.55,-144.29 2842.58,-147.88 2852.61,-151.29 2852.55,-144.29"/>
</g>
<!-- Node9&#45;&gt;Node3 -->
<g id="edge11" class="edge">
<title>Node9&#45;&gt;Node3</title>
<path fill="none" stroke="midnightblue" d="M2852.84,-148.27C3290.28,-146.87 5302.8,-138.25 5352.5,-98 5372.37,-81.91 5373.9,-49.42 5372.92,-30.69"/>
<polygon fill="midnightblue" stroke="midnightblue" points="2852.8,-144.77 2842.81,-148.3 2852.82,-151.77 2852.8,-144.77"/>
</g>
<!-- Node9&#45;&gt;Node5 -->
<g id="edge30" class="edge">
<title>Node9&#45;&gt;Node5</title>
<path fill="none" stroke="midnightblue" d="M2685.93,-147.96C2263.73,-145.08 375.19,-130.47 115.5,-98 112.76,-97.66 109.96,-97.24 107.14,-96.77"/>
<polygon fill="midnightblue" stroke="midnightblue" points="2686.2,-151.46 2696.23,-148.03 2686.25,-144.46 2686.2,-151.46"/>
</g>
<!-- Node9&#45;&gt;Node6 -->
<g id="edge40" class="edge">
<title>Node9&#45;&gt;Node6</title>
<path fill="none" stroke="midnightblue" d="M2686.21,-146.84C2252.51,-138.22 272.2,-98.83 264.5,-98 252.39,-96.7 239.32,-94.43 227.57,-92.07"/>
<polygon fill="midnightblue" stroke="midnightblue" points="2686.4,-150.35 2696.47,-147.05 2686.54,-143.35 2686.4,-150.35"/>
</g>
<!-- Node10 -->
<g id="node10" class="node">
<title>Node10</title>
<g id="a_node10"><a xlink:href="d__camera_8cpp.html" target="_top" xlink:title=" ">
<polygon fill="white" stroke="black" points="4164.5,-73 4164.5,-92 4266.5,-92 4266.5,-73 4164.5,-73"/>
<text text-anchor="middle" x="4215.5" y="-80" font-family="Helvetica,sans-Serif" font-size="10.00">src/d/d_camera.cpp</text>
</a>
</g>
</g>
<!-- Node9&#45;&gt;Node10 -->
<g id="edge10" class="edge">
<title>Node9&#45;&gt;Node10</title>
<path fill="none" stroke="midnightblue" d="M2852.97,-147.65C3112.28,-144.68 3901.72,-132.93 4155.5,-98 4165.27,-96.66 4175.76,-94.41 4185.2,-92.07"/>
<polygon fill="midnightblue" stroke="midnightblue" points="2852.82,-144.16 2842.86,-147.77 2852.9,-151.16 2852.82,-144.16"/>
</g>
<!-- Node11 -->
<g id="node11" class="node">
<title>Node11</title>
<g id="a_node11"><a xlink:href="d__file__sel__info_8cpp.html" target="_top" xlink:title=" ">
<polygon fill="white" stroke="black" points="4284,-67.5 4284,-97.5 4373,-97.5 4373,-67.5 4284,-67.5"/>
<text text-anchor="start" x="4292" y="-85.5" font-family="Helvetica,sans-Serif" font-size="10.00">src/d/d_file/d_file</text>
<text text-anchor="middle" x="4328.5" y="-74.5" font-family="Helvetica,sans-Serif" font-size="10.00">_sel_info.cpp</text>
</a>
</g>
</g>
<!-- Node9&#45;&gt;Node11 -->
<g id="edge12" class="edge">
<title>Node9&#45;&gt;Node11</title>
<path fill="none" stroke="midnightblue" d="M2853.09,-148.26C3127.32,-147.08 3997.94,-140.03 4275.5,-98 4278.24,-97.59 4281.03,-97.08 4283.84,-96.51"/>
<polygon fill="midnightblue" stroke="midnightblue" points="2852.79,-144.76 2842.81,-148.31 2852.82,-151.76 2852.79,-144.76"/>
</g>
<!-- Node12 -->
<g id="node12" class="node">
<title>Node12</title>
<g id="a_node12"><a xlink:href="d__item_8cpp.html" target="_top" xlink:title=" ">
<polygon fill="white" stroke="black" points="4000,-6 4000,-25 4121,-25 4121,-6 4000,-6"/>
<text text-anchor="middle" x="4060.5" y="-13" font-family="Helvetica,sans-Serif" font-size="10.00">src/d/d_item/d_item.cpp</text>
</a>
</g>
</g>
<!-- Node9&#45;&gt;Node12 -->
<g id="edge13" class="edge">
<title>Node9&#45;&gt;Node12</title>
<path fill="none" stroke="midnightblue" d="M2852.71,-147.1C3121.5,-142.31 3952.03,-125.35 4002.5,-98 4032.43,-81.78 4050.53,-42.62 4057.37,-25.16"/>
<polygon fill="midnightblue" stroke="midnightblue" points="2852.56,-143.6 2842.63,-147.28 2852.69,-150.6 2852.56,-143.6"/>
</g>
<!-- Node13 -->
<g id="node13" class="node">
<title>Node13</title>
<g id="a_node13"><a xlink:href="d__kankyo__rain_8cpp.html" target="_top" xlink:title=" ">
<polygon fill="white" stroke="black" points="4391,-67.5 4391,-97.5 4518,-97.5 4518,-67.5 4391,-67.5"/>
<text text-anchor="start" x="4399" y="-85.5" font-family="Helvetica,sans-Serif" font-size="10.00">src/d/d_kankyo/d_kankyo</text>
<text text-anchor="middle" x="4454.5" y="-74.5" font-family="Helvetica,sans-Serif" font-size="10.00">_rain.cpp</text>
</a>
</g>
</g>
<!-- Node9&#45;&gt;Node13 -->
<g id="edge14" class="edge">
<title>Node9&#45;&gt;Node13</title>
<path fill="none" stroke="midnightblue" d="M2852.95,-147.7C3139.31,-144.68 4080.94,-132.32 4381.5,-98 4384.58,-97.65 4387.73,-97.23 4390.9,-96.77"/>
<polygon fill="midnightblue" stroke="midnightblue" points="2852.59,-144.21 2842.63,-147.81 2852.67,-151.21 2852.59,-144.21"/>
</g>
<!-- Node14 -->
<g id="node14" class="node">
<title>Node14</title>
<g id="a_node14"><a xlink:href="d__kankyo__wether_8cpp.html" target="_top" xlink:title=" ">
<polygon fill="white" stroke="black" points="4536,-67.5 4536,-97.5 4663,-97.5 4663,-67.5 4536,-67.5"/>
<text text-anchor="start" x="4544" y="-85.5" font-family="Helvetica,sans-Serif" font-size="10.00">src/d/d_kankyo/d_kankyo</text>
<text text-anchor="middle" x="4599.5" y="-74.5" font-family="Helvetica,sans-Serif" font-size="10.00">_wether.cpp</text>
</a>
</g>
</g>
<!-- Node9&#45;&gt;Node14 -->
<g id="edge15" class="edge">
<title>Node9&#45;&gt;Node14</title>
<path fill="none" stroke="midnightblue" d="M2852.71,-147.96C3155.23,-145.69 4196.13,-135.29 4526.5,-98 4529.58,-97.65 4532.73,-97.24 4535.9,-96.78"/>
<polygon fill="midnightblue" stroke="midnightblue" points="2852.67,-144.46 2842.69,-148.03 2852.72,-151.46 2852.67,-144.46"/>
</g>
<!-- Node15 -->
<g id="node15" class="node">
<title>Node15</title>
<g id="a_node15"><a xlink:href="d__kankyo_8cpp.html" target="_top" xlink:title=" ">
<polygon fill="white" stroke="black" points="4681,-73 4681,-92 4782,-92 4782,-73 4681,-73"/>
<text text-anchor="middle" x="4731.5" y="-80" font-family="Helvetica,sans-Serif" font-size="10.00">src/d/d_kankyo.cpp</text>
</a>
</g>
</g>
<!-- Node9&#45;&gt;Node15 -->
<g id="edge16" class="edge">
<title>Node9&#45;&gt;Node15</title>
<path fill="none" stroke="midnightblue" d="M2852.59,-148.62C3170.81,-148.72 4312.13,-145.65 4671.5,-98 4681.38,-96.69 4692,-94.42 4701.52,-92.06"/>
<polygon fill="midnightblue" stroke="midnightblue" points="2852.52,-145.12 2842.52,-148.62 2852.51,-152.12 2852.52,-145.12"/>
</g>
<!-- Node16 -->
<g id="node16" class="node">
<title>Node16</title>
<g id="a_node16"><a xlink:href="d__kantera__icon__meter_8cpp.html" target="_top" xlink:title=" ">
<polygon fill="white" stroke="black" points="4839,-67.5 4839,-97.5 4946,-97.5 4946,-67.5 4839,-67.5"/>
<text text-anchor="start" x="4847" y="-85.5" font-family="Helvetica,sans-Serif" font-size="10.00">src/d/d_kantera_icon</text>
<text text-anchor="middle" x="4892.5" y="-74.5" font-family="Helvetica,sans-Serif" font-size="10.00">_meter.cpp</text>
</a>
</g>
</g>
<!-- Node9&#45;&gt;Node16 -->
<g id="edge17" class="edge">
<title>Node9&#45;&gt;Node16</title>
<path fill="none" stroke="midnightblue" d="M2852.73,-148.51C3187.05,-148.25 4433.04,-144.14 4824.5,-98 4829.18,-97.45 4834,-96.73 4838.83,-95.91"/>
<polygon fill="midnightblue" stroke="midnightblue" points="2852.63,-145.01 2842.63,-148.52 2852.64,-152.01 2852.63,-145.01"/>
</g>
<!-- Node17 -->
<g id="node17" class="node">
<title>Node17</title>
<g id="a_node17"><a xlink:href="d__kyeff_8cpp.html" target="_top" xlink:title=" ">
<polygon fill="white" stroke="black" points="4964,-73 4964,-92 5077,-92 5077,-73 4964,-73"/>
<text text-anchor="middle" x="5020.5" y="-80" font-family="Helvetica,sans-Serif" font-size="10.00">src/d/d_ky/d_kyeff.cpp</text>
</a>
</g>
</g>
<!-- Node9&#45;&gt;Node17 -->
<g id="edge18" class="edge">
<title>Node9&#45;&gt;Node17</title>
<path fill="none" stroke="midnightblue" d="M2853.02,-148.73C3200.95,-149.33 4536.44,-148.28 4954.5,-98 4965.33,-96.7 4977,-94.43 4987.48,-92.07"/>
<polygon fill="midnightblue" stroke="midnightblue" points="2852.78,-145.23 2842.78,-148.71 2852.77,-152.23 2852.78,-145.23"/>
</g>
<!-- Node18 -->
<g id="node18" class="node">
<title>Node18</title>
<g id="a_node18"><a xlink:href="d__meter__button_8cpp.html" target="_top" xlink:title=" ">
<polygon fill="white" stroke="black" points="5095,-67.5 5095,-97.5 5210,-97.5 5210,-67.5 5095,-67.5"/>
<text text-anchor="start" x="5103" y="-85.5" font-family="Helvetica,sans-Serif" font-size="10.00">src/d/d_meter/d_meter</text>
<text text-anchor="middle" x="5152.5" y="-74.5" font-family="Helvetica,sans-Serif" font-size="10.00">_button.cpp</text>
</a>
</g>
</g>
<!-- Node9&#45;&gt;Node18 -->
<g id="edge19" class="edge">
<title>Node9&#45;&gt;Node18</title>
<path fill="none" stroke="midnightblue" d="M2852.66,-148.85C3212.95,-150.05 4640.96,-151.28 5086.5,-98 5089.18,-97.68 5091.91,-97.3 5094.66,-96.87"/>
<polygon fill="midnightblue" stroke="midnightblue" points="2852.58,-145.35 2842.57,-148.82 2852.56,-152.35 2852.58,-145.35"/>
</g>
<!-- Node19 -->
<g id="node19" class="node">
<title>Node19</title>
<g id="a_node19"><a xlink:href="d__meter__haihai_8cpp.html" target="_top" xlink:title=" ">
<polygon fill="white" stroke="black" points="5228,-67.5 5228,-97.5 5343,-97.5 5343,-67.5 5228,-67.5"/>
<text text-anchor="start" x="5236" y="-85.5" font-family="Helvetica,sans-Serif" font-size="10.00">src/d/d_meter/d_meter</text>
<text text-anchor="middle" x="5285.5" y="-74.5" font-family="Helvetica,sans-Serif" font-size="10.00">_haihai.cpp</text>
</a>
</g>
</g>
<!-- Node9&#45;&gt;Node19 -->
<g id="edge20" class="edge">
<title>Node9&#45;&gt;Node19</title>
<path fill="none" stroke="midnightblue" d="M2852.77,-147.75C3254.29,-144.01 4980.82,-126.4 5219.5,-98 5222.18,-97.68 5224.91,-97.3 5227.66,-96.88"/>
<polygon fill="midnightblue" stroke="midnightblue" points="2852.65,-144.25 2842.69,-147.85 2852.72,-151.25 2852.65,-144.25"/>
</g>
<!-- Node20 -->
<g id="node20" class="node">
<title>Node20</title>
<g id="a_node20"><a xlink:href="d__meter__hakusha_8cpp.html" target="_top" xlink:title=" ">
<polygon fill="white" stroke="black" points="274,-67.5 274,-97.5 389,-97.5 389,-67.5 274,-67.5"/>
<text text-anchor="start" x="282" y="-85.5" font-family="Helvetica,sans-Serif" font-size="10.00">src/d/d_meter/d_meter</text>
<text text-anchor="middle" x="331.5" y="-74.5" font-family="Helvetica,sans-Serif" font-size="10.00">_hakusha.cpp</text>
</a>
</g>
</g>
<!-- Node9&#45;&gt;Node20 -->
<g id="edge21" class="edge">
<title>Node9&#45;&gt;Node20</title>
<path fill="none" stroke="midnightblue" d="M2686.06,-146.83C2268.7,-138.48 426.51,-101.46 397.5,-98 394.82,-97.68 392.09,-97.3 389.34,-96.88"/>
<polygon fill="midnightblue" stroke="midnightblue" points="2686.17,-150.34 2696.24,-147.04 2686.31,-143.34 2686.17,-150.34"/>
</g>
<!-- Node21 -->
<g id="node21" class="node">
<title>Node21</title>
<g id="a_node21"><a xlink:href="d__meter__map_8cpp.html" target="_top" xlink:title=" ">
<polygon fill="white" stroke="black" points="407,-67.5 407,-97.5 522,-97.5 522,-67.5 407,-67.5"/>
<text text-anchor="start" x="415" y="-85.5" font-family="Helvetica,sans-Serif" font-size="10.00">src/d/d_meter/d_meter</text>
<text text-anchor="middle" x="464.5" y="-74.5" font-family="Helvetica,sans-Serif" font-size="10.00">_map.cpp</text>
</a>
</g>
</g>
<!-- Node9&#45;&gt;Node21 -->
<g id="edge22" class="edge">
<title>Node9&#45;&gt;Node21</title>
<path fill="none" stroke="midnightblue" d="M2686.33,-146.84C2287.17,-138.87 585.01,-104.54 530.5,-98 527.82,-97.68 525.09,-97.3 522.34,-96.87"/>
<polygon fill="midnightblue" stroke="midnightblue" points="2686.29,-150.34 2696.36,-147.04 2686.43,-143.35 2686.29,-150.34"/>
</g>
<!-- Node22 -->
<g id="node22" class="node">
<title>Node22</title>
<g id="a_node22"><a xlink:href="d__meter__string_8cpp.html" target="_top" xlink:title=" ">
<polygon fill="white" stroke="black" points="540,-67.5 540,-97.5 655,-97.5 655,-67.5 540,-67.5"/>
<text text-anchor="start" x="548" y="-85.5" font-family="Helvetica,sans-Serif" font-size="10.00">src/d/d_meter/d_meter</text>
<text text-anchor="middle" x="597.5" y="-74.5" font-family="Helvetica,sans-Serif" font-size="10.00">_string.cpp</text>
</a>
</g>
</g>
<!-- Node9&#45;&gt;Node22 -->
<g id="edge23" class="edge">
<title>Node9&#45;&gt;Node22</title>
<path fill="none" stroke="midnightblue" d="M2686,-146.72C2301.11,-138.47 714.53,-104.16 663.5,-98 660.82,-97.68 658.09,-97.29 655.34,-96.87"/>
<polygon fill="midnightblue" stroke="midnightblue" points="2686.15,-150.22 2696.23,-146.94 2686.3,-143.22 2686.15,-150.22"/>
</g>
<!-- Node23 -->
<g id="node23" class="node">
<title>Node23</title>
<g id="a_node23"><a xlink:href="d__meter2__draw_8cpp.html" target="_top" xlink:title=" ">
<polygon fill="white" stroke="black" points="673,-67.5 673,-97.5 798,-97.5 798,-67.5 673,-67.5"/>
<text text-anchor="start" x="681" y="-85.5" font-family="Helvetica,sans-Serif" font-size="10.00">src/d/d_meter2/d_meter2</text>
<text text-anchor="middle" x="735.5" y="-74.5" font-family="Helvetica,sans-Serif" font-size="10.00">_draw.cpp</text>
</a>
</g>
</g>
<!-- Node9&#45;&gt;Node23 -->
<g id="edge24" class="edge">
<title>Node9&#45;&gt;Node23</title>
<path fill="none" stroke="midnightblue" d="M2686.18,-146.77C2324.08,-139.18 901.04,-108.78 806.5,-98 803.75,-97.69 800.95,-97.32 798.12,-96.91"/>
<polygon fill="midnightblue" stroke="midnightblue" points="2686.26,-150.27 2696.33,-146.98 2686.4,-143.27 2686.26,-150.27"/>
</g>
<!-- Node24 -->
<g id="node24" class="node">
<title>Node24</title>
<g id="a_node24"><a xlink:href="d__meter2__info_8cpp.html" target="_top" xlink:title=" ">
<polygon fill="white" stroke="black" points="816,-67.5 816,-97.5 941,-97.5 941,-67.5 816,-67.5"/>
<text text-anchor="start" x="824" y="-85.5" font-family="Helvetica,sans-Serif" font-size="10.00">src/d/d_meter2/d_meter2</text>
<text text-anchor="middle" x="878.5" y="-74.5" font-family="Helvetica,sans-Serif" font-size="10.00">_info.cpp</text>
</a>
</g>
</g>
<!-- Node9&#45;&gt;Node24 -->
<g id="edge25" class="edge">
<title>Node9&#45;&gt;Node24</title>
<path fill="none" stroke="midnightblue" d="M2686.11,-146.58C2340.89,-138.59 1037.58,-107.9 950.5,-98 947.46,-97.65 944.36,-97.25 941.23,-96.79"/>
<polygon fill="midnightblue" stroke="midnightblue" points="2686.21,-150.09 2696.29,-146.82 2686.37,-143.09 2686.21,-150.09"/>
</g>
<!-- Node25 -->
<g id="node25" class="node">
<title>Node25</title>
<g id="a_node25"><a xlink:href="d__meter2_8cpp.html" target="_top" xlink:title=" ">
<polygon fill="white" stroke="black" points="959.5,-73 959.5,-92 1059.5,-92 1059.5,-73 959.5,-73"/>
<text text-anchor="middle" x="1009.5" y="-80" font-family="Helvetica,sans-Serif" font-size="10.00">src/d/d_meter2.cpp</text>
</a>
</g>
</g>
<!-- Node9&#45;&gt;Node25 -->
<g id="edge26" class="edge">
<title>Node9&#45;&gt;Node25</title>
<path fill="none" stroke="midnightblue" d="M2686.19,-147.06C2366.67,-141.4 1229.27,-119.89 1068.5,-98 1058.78,-96.68 1048.34,-94.4 1038.98,-92.04"/>
<polygon fill="midnightblue" stroke="midnightblue" points="2686.25,-150.56 2696.31,-147.24 2686.38,-143.56 2686.25,-150.56"/>
</g>
<!-- Node26 -->
<g id="node26" class="node">
<title>Node26</title>
<g id="a_node26"><a xlink:href="d__save_8cpp.html" target="_top" xlink:title=" ">
<polygon fill="white" stroke="black" points="1078,-73 1078,-92 1203,-92 1203,-73 1078,-73"/>
<text text-anchor="middle" x="1140.5" y="-80" font-family="Helvetica,sans-Serif" font-size="10.00">src/d/d_save/d_save.cpp</text>
</a>
</g>
</g>
<!-- Node9&#45;&gt;Node26 -->
<g id="edge27" class="edge">
<title>Node9&#45;&gt;Node26</title>
<path fill="none" stroke="midnightblue" d="M2686.04,-146.62C2383.99,-139.71 1357.93,-115.2 1211.5,-98 1200,-96.65 1187.6,-94.4 1176.43,-92.07"/>
<polygon fill="midnightblue" stroke="midnightblue" points="2686.4,-150.13 2696.48,-146.86 2686.56,-143.13 2686.4,-150.13"/>
</g>
<!-- Node27 -->
<g id="node27" class="node">
<title>Node27</title>
<g id="a_node27"><a xlink:href="d__save__HIO_8cpp.html" target="_top" xlink:title=" ">
<polygon fill="white" stroke="black" points="1221,-67.5 1221,-97.5 1328,-97.5 1328,-67.5 1221,-67.5"/>
<text text-anchor="start" x="1229" y="-85.5" font-family="Helvetica,sans-Serif" font-size="10.00">src/d/d_save/d_save</text>
<text text-anchor="middle" x="1274.5" y="-74.5" font-family="Helvetica,sans-Serif" font-size="10.00">_HIO.cpp</text>
</a>
</g>
</g>
<!-- Node9&#45;&gt;Node27 -->
<g id="edge28" class="edge">
<title>Node9&#45;&gt;Node27</title>
<path fill="none" stroke="midnightblue" d="M2686.1,-146.49C2400.33,-139.47 1470.81,-115.53 1337.5,-98 1334.5,-97.6 1331.42,-97.13 1328.33,-96.6"/>
<polygon fill="midnightblue" stroke="midnightblue" points="2686.32,-150 2696.4,-146.74 2686.49,-143 2686.32,-150"/>
</g>
<!-- Node28 -->
<g id="node28" class="node">
<title>Node28</title>
<g id="a_node28"><a xlink:href="d__stage_8cpp.html" target="_top" xlink:title=" ">
<polygon fill="white" stroke="black" points="1346.5,-73 1346.5,-92 1440.5,-92 1440.5,-73 1346.5,-73"/>
<text text-anchor="middle" x="1393.5" y="-80" font-family="Helvetica,sans-Serif" font-size="10.00">src/d/d_stage.cpp</text>
</a>
</g>
</g>
<!-- Node9&#45;&gt;Node28 -->
<g id="edge29" class="edge">
<title>Node9&#45;&gt;Node28</title>
<path fill="none" stroke="midnightblue" d="M2686.24,-146.36C2415.61,-139.25 1571.17,-115.87 1449.5,-98 1440.36,-96.66 1430.56,-94.41 1421.75,-92.08"/>
<polygon fill="midnightblue" stroke="midnightblue" points="2686.31,-149.86 2696.39,-146.62 2686.49,-142.86 2686.31,-149.86"/>
</g>
<!-- Node29 -->
<g id="node29" class="node">
<title>Node29</title>
<g id="a_node29"><a xlink:href="f__op__camera_8cpp.html" target="_top" xlink:title=" ">
<polygon fill="white" stroke="black" points="1459,-73 1459,-92 1594,-92 1594,-73 1459,-73"/>
<text text-anchor="middle" x="1526.5" y="-80" font-family="Helvetica,sans-Serif" font-size="10.00">src/f/f_op/f_op_camera.cpp</text>
</a>
</g>
</g>
<!-- Node9&#45;&gt;Node29 -->
<g id="edge31" class="edge">
<title>Node9&#45;&gt;Node29</title>
<path fill="none" stroke="midnightblue" d="M2686.22,-148.96C2494.5,-149.15 2007.41,-144.54 1603.5,-98 1591.2,-96.58 1577.92,-94.34 1565.9,-92.04"/>
<polygon fill="midnightblue" stroke="midnightblue" points="2686.23,-152.46 2696.22,-148.95 2686.22,-145.46 2686.23,-152.46"/>
</g>
<!-- Node30 -->
<g id="node30" class="node">
<title>Node30</title>
<g id="a_node30"><a xlink:href="f__op__kankyo_8cpp.html" target="_top" xlink:title=" ">
<polygon fill="white" stroke="black" points="1612.5,-73 1612.5,-92 1746.5,-92 1746.5,-73 1612.5,-73"/>
<text text-anchor="middle" x="1679.5" y="-80" font-family="Helvetica,sans-Serif" font-size="10.00">src/f/f_op/f_op_kankyo.cpp</text>
</a>
</g>
</g>
<!-- Node9&#45;&gt;Node30 -->
<g id="edge32" class="edge">
<title>Node9&#45;&gt;Node30</title>
<path fill="none" stroke="midnightblue" d="M2686.39,-147.91C2513.48,-145.89 2102.65,-137.03 1760.5,-98 1747.73,-96.54 1733.92,-94.32 1721.39,-92.05"/>
<polygon fill="midnightblue" stroke="midnightblue" points="2686.4,-151.41 2696.43,-148.02 2686.47,-144.41 2686.4,-151.41"/>
</g>
<!-- Node31 -->
<g id="node31" class="node">
<title>Node31</title>
<g id="a_node31"><a xlink:href="f__op__kankyo__mng_8cpp.html" target="_top" xlink:title=" ">
<polygon fill="white" stroke="black" points="1600.5,-0.5 1600.5,-30.5 1716.5,-30.5 1716.5,-0.5 1600.5,-0.5"/>
<text text-anchor="start" x="1608.5" y="-18.5" font-family="Helvetica,sans-Serif" font-size="10.00">src/f/f_op/f_op_kankyo</text>
<text text-anchor="middle" x="1658.5" y="-7.5" font-family="Helvetica,sans-Serif" font-size="10.00">_mng.cpp</text>
</a>
</g>
</g>
<!-- Node9&#45;&gt;Node31 -->
<g id="edge33" class="edge">
<title>Node9&#45;&gt;Node31</title>
<path fill="none" stroke="midnightblue" d="M2685.99,-147.15C2464.89,-143.15 1875.56,-129.64 1793.5,-98 1773.16,-90.16 1773.71,-78.98 1755.5,-67 1734.41,-53.12 1709.05,-40.03 1689.55,-30.66"/>
<polygon fill="midnightblue" stroke="midnightblue" points="2686.18,-150.65 2696.24,-147.33 2686.3,-143.65 2686.18,-150.65"/>
</g>
<!-- Node32 -->
<g id="node32" class="node">
<title>Node32</title>
<g id="a_node32"><a xlink:href="f__op__msg__mng_8cpp.html" target="_top" xlink:title=" ">
<polygon fill="white" stroke="black" points="1956.5,-67.5 1956.5,-97.5 2060.5,-97.5 2060.5,-67.5 1956.5,-67.5"/>
<text text-anchor="start" x="1964.5" y="-85.5" font-family="Helvetica,sans-Serif" font-size="10.00">src/f/f_op/f_op_msg</text>
<text text-anchor="middle" x="2008.5" y="-74.5" font-family="Helvetica,sans-Serif" font-size="10.00">_mng.cpp</text>
</a>
</g>
</g>
<!-- Node9&#45;&gt;Node32 -->
<g id="edge34" class="edge">
<title>Node9&#45;&gt;Node32</title>
<path fill="none" stroke="midnightblue" d="M2686.24,-146.83C2554.59,-143.22 2290.59,-132.02 2069.5,-98 2066.6,-97.55 2063.62,-97.04 2060.63,-96.48"/>
<polygon fill="midnightblue" stroke="midnightblue" points="2686.17,-150.33 2696.26,-147.1 2686.35,-143.33 2686.17,-150.33"/>
</g>
<!-- Node33 -->
<g id="node33" class="node">
<title>Node33</title>
<g id="a_node33"><a xlink:href="f__pc__manager_8cpp.html" target="_top" xlink:title=" ">
<polygon fill="white" stroke="black" points="1992.5,-6 1992.5,-25 2132.5,-25 2132.5,-6 1992.5,-6"/>
<text text-anchor="middle" x="2062.5" y="-13" font-family="Helvetica,sans-Serif" font-size="10.00">src/f/f_pc/f_pc_manager.cpp</text>
</a>
</g>
</g>
<!-- Node9&#45;&gt;Node33 -->
<g id="edge35" class="edge">
<title>Node9&#45;&gt;Node33</title>
<path fill="none" stroke="midnightblue" d="M2686.27,-146.43C2482.35,-140.94 1972.54,-124.63 1947.5,-98 1917.16,-65.73 1987.21,-38.35 2030.86,-25.08"/>
<polygon fill="midnightblue" stroke="midnightblue" points="2686.24,-149.93 2696.33,-146.7 2686.42,-142.93 2686.24,-149.93"/>
</g>
<!-- Node34 -->
<g id="node34" class="node">
<title>Node34</title>
<g id="a_node34"><a xlink:href="m__Do__audio_8cpp.html" target="_top" xlink:title=" ">
<polygon fill="white" stroke="black" points="2078.5,-73 2078.5,-92 2212.5,-92 2212.5,-73 2078.5,-73"/>
<text text-anchor="middle" x="2145.5" y="-80" font-family="Helvetica,sans-Serif" font-size="10.00">src/m_Do/m_Do_audio.cpp</text>
</a>
</g>
</g>
<!-- Node9&#45;&gt;Node34 -->
<g id="edge36" class="edge">
<title>Node9&#45;&gt;Node34</title>
<path fill="none" stroke="midnightblue" d="M2685.96,-143.32C2578.25,-136.07 2385.32,-121.12 2221.5,-98 2210.06,-96.39 2197.73,-94.22 2186.4,-92.05"/>
<polygon fill="midnightblue" stroke="midnightblue" points="2685.9,-146.83 2696.11,-144 2686.37,-139.84 2685.9,-146.83"/>
</g>
<!-- Node35 -->
<g id="node35" class="node">
<title>Node35</title>
<g id="a_node35"><a xlink:href="m__Do__graphic_8cpp.html" target="_top" xlink:title=" ">
<polygon fill="white" stroke="black" points="2230.5,-73 2230.5,-92 2372.5,-92 2372.5,-73 2230.5,-73"/>
<text text-anchor="middle" x="2301.5" y="-80" font-family="Helvetica,sans-Serif" font-size="10.00">src/m_Do/m_Do_graphic.cpp</text>
</a>
</g>
</g>
<!-- Node9&#45;&gt;Node35 -->
<g id="edge37" class="edge">
<title>Node9&#45;&gt;Node35</title>
<path fill="none" stroke="midnightblue" d="M2686.07,-138.86C2607.38,-129.48 2486.21,-114.29 2381.5,-98 2370.06,-96.22 2357.75,-94.09 2346.28,-92.02"/>
<polygon fill="midnightblue" stroke="midnightblue" points="2686.06,-142.38 2696.4,-140.09 2686.89,-135.43 2686.06,-142.38"/>
</g>
<!-- Node36 -->
<g id="node36" class="node">
<title>Node36</title>
<g id="a_node36"><a xlink:href="m__Do__lib_8cpp.html" target="_top" xlink:title=" ">
<polygon fill="white" stroke="black" points="2390.5,-73 2390.5,-92 2510.5,-92 2510.5,-73 2390.5,-73"/>
<text text-anchor="middle" x="2450.5" y="-80" font-family="Helvetica,sans-Serif" font-size="10.00">src/m_Do/m_Do_lib.cpp</text>
</a>
</g>
</g>
<!-- Node9&#45;&gt;Node36 -->
<g id="edge38" class="edge">
<title>Node9&#45;&gt;Node36</title>
<path fill="none" stroke="midnightblue" d="M2689.5,-132.51C2640.42,-122.65 2576.3,-109.71 2519.5,-98 2510.27,-96.1 2500.35,-94.03 2490.99,-92.06"/>
<polygon fill="midnightblue" stroke="midnightblue" points="2688.93,-135.96 2699.43,-134.5 2690.31,-129.1 2688.93,-135.96"/>
</g>
<!-- Node37 -->
<g id="node37" class="node">
<title>Node37</title>
<g id="a_node37"><a xlink:href="m__Do__machine__exception_8cpp.html" target="_top" xlink:title=" ">
<polygon fill="white" stroke="black" points="2529,-67.5 2529,-97.5 2658,-97.5 2658,-67.5 2529,-67.5"/>
<text text-anchor="start" x="2537" y="-85.5" font-family="Helvetica,sans-Serif" font-size="10.00">src/m_Do/m_Do_machine</text>
<text text-anchor="middle" x="2593.5" y="-74.5" font-family="Helvetica,sans-Serif" font-size="10.00">_exception.cpp</text>
</a>
</g>
</g>
<!-- Node9&#45;&gt;Node37 -->
<g id="edge39" class="edge">
<title>Node9&#45;&gt;Node37</title>
<path fill="none" stroke="midnightblue" d="M2721.62,-130.82C2693.33,-120.37 2658.01,-107.32 2631.61,-97.58"/>
<polygon fill="midnightblue" stroke="midnightblue" points="2720.72,-134.21 2731.31,-134.4 2723.14,-127.65 2720.72,-134.21"/>
</g>
<!-- Node38 -->
<g id="node38" class="node">
<title>Node38</title>
<g id="a_node38"><a xlink:href="m__Do__MemCardRWmng_8cpp.html" target="_top" xlink:title=" ">
<polygon fill="white" stroke="black" points="2676,-73 2676,-92 2863,-92 2863,-73 2676,-73"/>
<text text-anchor="middle" x="2769.5" y="-80" font-family="Helvetica,sans-Serif" font-size="10.00">src/m_Do/m_Do_MemCardRWmng.cpp</text>
</a>
</g>
</g>
<!-- Node9&#45;&gt;Node38 -->
<g id="edge41" class="edge">
<title>Node9&#45;&gt;Node38</title>
<path fill="none" stroke="midnightblue" d="M2769.5,-124.25C2769.5,-113.02 2769.5,-100.38 2769.5,-92.19"/>
<polygon fill="midnightblue" stroke="midnightblue" points="2766,-124.4 2769.5,-134.4 2773,-124.4 2766,-124.4"/>
</g>
<!-- Node39 -->
<g id="node39" class="node">
<title>Node39</title>
<g id="a_node39"><a xlink:href="m__Do__ext_8cpp.html" target="_top" xlink:title=" ">
<polygon fill="white" stroke="black" points="2881,-73 2881,-92 3004,-92 3004,-73 2881,-73"/>
<text text-anchor="middle" x="2942.5" y="-80" font-family="Helvetica,sans-Serif" font-size="10.00">src/m_Do/m_Do_ext.cpp</text>
</a>
</g>
</g>
<!-- Node9&#45;&gt;Node39 -->
<g id="edge42" class="edge">
<title>Node9&#45;&gt;Node39</title>
<path fill="none" stroke="midnightblue" d="M2816.65,-130.78C2850.2,-118.18 2893.77,-101.81 2919.86,-92.01"/>
<polygon fill="midnightblue" stroke="midnightblue" points="2815.17,-127.6 2807.04,-134.4 2817.63,-134.16 2815.17,-127.6"/>
</g>
<!-- Node40 -->
<g id="node40" class="node">
<title>Node40</title>
<g id="a_node40"><a xlink:href="Z2EnvSeMgr_8cpp.html" target="_top" xlink:title=" ">
<polygon fill="white" stroke="black" points="3022,-73 3022,-92 3183,-92 3183,-73 3022,-73"/>
<text text-anchor="middle" x="3102.5" y="-80" font-family="Helvetica,sans-Serif" font-size="10.00">libs/Z2AudioLib/Z2EnvSeMgr.cpp</text>
</a>
</g>
</g>
<!-- Node9&#45;&gt;Node40 -->
<g id="edge43" class="edge">
<title>Node9&#45;&gt;Node40</title>
<path fill="none" stroke="midnightblue" d="M2851.24,-132.54C2916.78,-119.75 3006.21,-102.3 3058.81,-92.03"/>
<polygon fill="midnightblue" stroke="midnightblue" points="2850.49,-129.12 2841.35,-134.48 2851.83,-136 2850.49,-129.12"/>
</g>
<!-- Node41 -->
<g id="node41" class="node">
<title>Node41</title>
<g id="a_node41"><a xlink:href="Z2LinkMgr_8cpp.html" target="_top" xlink:title=" ">
<polygon fill="white" stroke="black" points="3201.5,-73 3201.5,-92 3353.5,-92 3353.5,-73 3201.5,-73"/>
<text text-anchor="middle" x="3277.5" y="-80" font-family="Helvetica,sans-Serif" font-size="10.00">libs/Z2AudioLib/Z2LinkMgr.cpp</text>
</a>
</g>
</g>
<!-- Node9&#45;&gt;Node41 -->
<g id="edge44" class="edge">
<title>Node9&#45;&gt;Node41</title>
<path fill="none" stroke="midnightblue" d="M2852.97,-139.71C2938.21,-130.44 3074.3,-114.88 3191.5,-98 3203.79,-96.23 3217.03,-94.11 3229.35,-92.04"/>
<polygon fill="midnightblue" stroke="midnightblue" points="2852.39,-136.25 2842.83,-140.8 2853.15,-143.21 2852.39,-136.25"/>
</g>
<!-- Node42 -->
<g id="node42" class="node">
<title>Node42</title>
<g id="a_node42"><a xlink:href="Z2SceneMgr_8cpp.html" target="_top" xlink:title=" ">
<polygon fill="white" stroke="black" points="3372,-73 3372,-92 3533,-92 3533,-73 3372,-73"/>
<text text-anchor="middle" x="3452.5" y="-80" font-family="Helvetica,sans-Serif" font-size="10.00">libs/Z2AudioLib/Z2SceneMgr.cpp</text>
</a>
</g>
</g>
<!-- Node9&#45;&gt;Node42 -->
<g id="edge45" class="edge">
<title>Node9&#45;&gt;Node42</title>
<path fill="none" stroke="midnightblue" d="M2852.85,-143.37C2967.79,-135.86 3181.32,-120.28 3362.5,-98 3375.85,-96.36 3390.26,-94.21 3403.55,-92.07"/>
<polygon fill="midnightblue" stroke="midnightblue" points="2852.47,-139.89 2842.72,-144.03 2852.92,-146.88 2852.47,-139.89"/>
</g>
<!-- Node43 -->
<g id="node43" class="node">
<title>Node43</title>
<g id="a_node43"><a xlink:href="Z2SoundMgr_8cpp.html" target="_top" xlink:title=" ">
<polygon fill="white" stroke="black" points="3551,-73 3551,-92 3712,-92 3712,-73 3551,-73"/>
<text text-anchor="middle" x="3631.5" y="-80" font-family="Helvetica,sans-Serif" font-size="10.00">libs/Z2AudioLib/Z2SoundMgr.cpp</text>
</a>
</g>
</g>
<!-- Node9&#45;&gt;Node43 -->
<g id="edge46" class="edge">
<title>Node9&#45;&gt;Node43</title>
<path fill="none" stroke="midnightblue" d="M2852.97,-145.62C2994.82,-140.16 3291.83,-126.21 3541.5,-98 3555.34,-96.44 3570.3,-94.23 3583.97,-92.02"/>
<polygon fill="midnightblue" stroke="midnightblue" points="2852.47,-142.14 2842.61,-146.02 2852.74,-149.14 2852.47,-142.14"/>
</g>
<!-- Node44 -->
<g id="node44" class="node">
<title>Node44</title>
<g id="a_node44"><a xlink:href="Z2StatusMgr_8cpp.html" target="_top" xlink:title=" ">
<polygon fill="white" stroke="black" points="3730,-67.5 3730,-97.5 3857,-97.5 3857,-67.5 3730,-67.5"/>
<text text-anchor="start" x="3738" y="-85.5" font-family="Helvetica,sans-Serif" font-size="10.00">libs/Z2AudioLib/Z2Status</text>
<text text-anchor="middle" x="3793.5" y="-74.5" font-family="Helvetica,sans-Serif" font-size="10.00">Mgr.cpp</text>
</a>
</g>
</g>
<!-- Node9&#45;&gt;Node44 -->
<g id="edge47" class="edge">
<title>Node9&#45;&gt;Node44</title>
<path fill="none" stroke="midnightblue" d="M2852.72,-148.07C3018.51,-146.34 3401.53,-137.94 3720.5,-98 3723.58,-97.61 3726.72,-97.17 3729.89,-96.69"/>
<polygon fill="midnightblue" stroke="midnightblue" points="2852.56,-144.57 2842.59,-148.17 2852.63,-151.57 2852.56,-144.57"/>
</g>
<!-- Node45 -->
<g id="node45" class="node">
<title>Node45</title>
<g id="a_node45"><a xlink:href="d__a__alink_8h.html" target="_top" xlink:title=" ">
<polygon fill="white" stroke="black" points="3875,-67.5 3875,-97.5 3994,-97.5 3994,-67.5 3875,-67.5"/>
<text text-anchor="start" x="3883" y="-85.5" font-family="Helvetica,sans-Serif" font-size="10.00">include/d/d_a/d_a_alink</text>
<text text-anchor="middle" x="3934.5" y="-74.5" font-family="Helvetica,sans-Serif" font-size="10.00">/d_a_alink.h</text>
</a>
</g>
</g>
<!-- Node9&#45;&gt;Node45 -->
<g id="edge48" class="edge">
<title>Node9&#45;&gt;Node45</title>
<path fill="none" stroke="midnightblue" d="M2852.76,-149.22C3036.39,-149.82 3489.73,-145.82 3865.5,-98 3868.54,-97.61 3871.64,-97.16 3874.76,-96.67"/>
<polygon fill="midnightblue" stroke="midnightblue" points="2852.65,-145.72 2842.63,-149.18 2852.62,-152.72 2852.65,-145.72"/>
</g>
<!-- Node47 -->
<g id="node47" class="node">
<title>Node47</title>
<g id="a_node47"><a xlink:href="d__item_8h.html" target="_top" xlink:title=" ">
<polygon fill="white" stroke="black" points="4050.5,-67.5 4050.5,-97.5 4146.5,-97.5 4146.5,-67.5 4050.5,-67.5"/>
<text text-anchor="start" x="4058.5" y="-85.5" font-family="Helvetica,sans-Serif" font-size="10.00">include/d/d_item/d</text>
<text text-anchor="middle" x="4098.5" y="-74.5" font-family="Helvetica,sans-Serif" font-size="10.00">_item/d_item.h</text>
</a>
</g>
</g>
<!-- Node9&#45;&gt;Node47 -->
<g id="edge51" class="edge">
<title>Node9&#45;&gt;Node47</title>
<path fill="none" stroke="midnightblue" d="M2852.81,-147.24C3096.74,-143.24 3806.66,-129.17 4036.5,-98 4040.99,-97.39 4045.63,-96.61 4050.26,-95.71"/>
<polygon fill="midnightblue" stroke="midnightblue" points="2852.53,-143.75 2842.59,-147.41 2852.64,-150.75 2852.53,-143.75"/>
</g>
<!-- Node48 -->
<g id="node48" class="node">
<title>Node48</title>
<g id="a_node48"><a xlink:href="f__pc__manager_8h.html" target="_top" xlink:title=" ">
<polygon fill="white" stroke="red" points="1803,-67.5 1803,-97.5 1900,-97.5 1900,-67.5 1803,-67.5"/>
<text text-anchor="start" x="1811" y="-85.5" font-family="Helvetica,sans-Serif" font-size="10.00">include/f/f_pc/f_pc</text>
<text text-anchor="middle" x="1851.5" y="-74.5" font-family="Helvetica,sans-Serif" font-size="10.00">_manager.h</text>
</a>
</g>
</g>
<!-- Node9&#45;&gt;Node48 -->
<g id="edge54" class="edge">
<title>Node9&#45;&gt;Node48</title>
<path fill="none" stroke="midnightblue" d="M2686.17,-148.19C2532.72,-146.6 2195.43,-138.34 1914.5,-98 1909.83,-97.33 1905,-96.49 1900.19,-95.55"/>
<polygon fill="midnightblue" stroke="midnightblue" points="2686.42,-151.69 2696.46,-148.29 2686.49,-144.69 2686.42,-151.69"/>
</g>
<!-- Node45&#45;&gt;Node2 -->
<g id="edge49" class="edge">
<title>Node45&#45;&gt;Node2</title>
<path fill="none" stroke="midnightblue" d="M4004.38,-71.32C4016.73,-69.73 4029.48,-68.21 4041.5,-67 4309.41,-40.08 4631.34,-24.28 4756.79,-18.75"/>
<polygon fill="midnightblue" stroke="midnightblue" points="4003.58,-67.9 3994.12,-72.68 4004.49,-74.84 4003.58,-67.9"/>
</g>
<!-- Node46 -->
<g id="node46" class="node">
<title>Node46</title>
<g id="a_node46"><a xlink:href="d__a__alink_8cpp.html" target="_top" xlink:title=" ">
<polygon fill="white" stroke="black" points="3058,-6 3058,-25 3177,-25 3177,-6 3058,-6"/>
<text text-anchor="middle" x="3117.5" y="-13" font-family="Helvetica,sans-Serif" font-size="10.00">src/d/d_a/d_a_alink.cpp</text>
</a>
</g>
</g>
<!-- Node45&#45;&gt;Node46 -->
<g id="edge50" class="edge">
<title>Node45&#45;&gt;Node46</title>
<path fill="none" stroke="midnightblue" d="M3864.69,-67.03C3603.43,-31.59 3303.08,-20.85 3177.42,-17.71"/>
<polygon fill="midnightblue" stroke="midnightblue" points="3864.37,-70.52 3874.75,-68.41 3865.32,-63.58 3864.37,-70.52"/>
</g>
<!-- Node47&#45;&gt;Node3 -->
<g id="edge52" class="edge">
<title>Node47&#45;&gt;Node3</title>
<path fill="none" stroke="midnightblue" d="M4156.84,-67.17C4309.63,-48.99 5088.69,-24.89 5311.78,-18.25"/>
<polygon fill="midnightblue" stroke="midnightblue" points="4156.02,-63.75 4146.56,-68.53 4156.93,-70.69 4156.02,-63.75"/>
</g>
<!-- Node47&#45;&gt;Node12 -->
<g id="edge53" class="edge">
<title>Node47&#45;&gt;Node12</title>
<path fill="none" stroke="midnightblue" d="M4085.13,-58.63C4078.37,-47.07 4070.56,-33.71 4065.58,-25.19"/>
<polygon fill="midnightblue" stroke="midnightblue" points="4082.19,-60.53 4090.25,-67.4 4088.23,-57 4082.19,-60.53"/>
</g>
<!-- Node48&#45;&gt;Node31 -->
<g id="edge57" class="edge">
<title>Node48&#45;&gt;Node31</title>
<path fill="none" stroke="midnightblue" d="M1799.81,-64.09C1768.66,-53.6 1729.49,-40.41 1700.3,-30.58"/>
<polygon fill="midnightblue" stroke="midnightblue" points="1799.03,-67.52 1809.62,-67.4 1801.26,-60.89 1799.03,-67.52"/>
</g>
<!-- Node48&#45;&gt;Node33 -->
<g id="edge59" class="edge">
<title>Node48&#45;&gt;Node33</title>
<path fill="none" stroke="midnightblue" d="M1906.65,-64.51C1947.83,-51.83 2002.38,-35.02 2034.81,-25.03"/>
<polygon fill="midnightblue" stroke="midnightblue" points="1905.55,-61.19 1897.02,-67.48 1907.61,-67.88 1905.55,-61.19"/>
</g>
<!-- Node48&#45;&gt;Node46 -->
<g id="edge55" class="edge">
<title>Node48&#45;&gt;Node46</title>
<path fill="none" stroke="midnightblue" d="M1910.33,-71.6C1922.59,-69.82 1935.44,-68.17 1947.5,-67 2371.71,-25.93 2885.69,-18.26 3057.99,-16.83"/>
<polygon fill="midnightblue" stroke="midnightblue" points="1909.58,-68.17 1900.21,-73.11 1910.62,-75.1 1909.58,-68.17"/>
</g>
<!-- Node49 -->
<g id="node49" class="node">
<title>Node49</title>
<g id="a_node49"><a xlink:href="f__ap__game_8cpp.html" target="_top" xlink:title=" ">
<polygon fill="white" stroke="black" points="1735,-6 1735,-25 1840,-25 1840,-6 1735,-6"/>
<text text-anchor="middle" x="1787.5" y="-13" font-family="Helvetica,sans-Serif" font-size="10.00">src/f/f_ap_game.cpp</text>
</a>
</g>
</g>
<!-- Node48&#45;&gt;Node49 -->
<g id="edge56" class="edge">
<title>Node48&#45;&gt;Node49</title>
<path fill="none" stroke="midnightblue" d="M1830.33,-60C1818.65,-48.13 1804.78,-34.05 1796.06,-25.19"/>
<polygon fill="midnightblue" stroke="midnightblue" points="1828.1,-62.73 1837.61,-67.4 1833.09,-57.81 1828.1,-62.73"/>
</g>
<!-- Node50 -->
<g id="node50" class="node">
<title>Node50</title>
<g id="a_node50"><a xlink:href="f__op__overlap__req_8cpp.html" target="_top" xlink:title=" ">
<polygon fill="white" stroke="black" points="1858.5,-0.5 1858.5,-30.5 1974.5,-30.5 1974.5,-0.5 1858.5,-0.5"/>
<text text-anchor="start" x="1866.5" y="-18.5" font-family="Helvetica,sans-Serif" font-size="10.00">src/f/f_op/f_op_overlap</text>
<text text-anchor="middle" x="1916.5" y="-7.5" font-family="Helvetica,sans-Serif" font-size="10.00">_req.cpp</text>
</a>
</g>
</g>
<!-- Node48&#45;&gt;Node50 -->
<g id="edge58" class="edge">
<title>Node48&#45;&gt;Node50</title>
<path fill="none" stroke="midnightblue" d="M1872.69,-60.31C1882.44,-50.56 1893.74,-39.26 1902.42,-30.58"/>
<polygon fill="midnightblue" stroke="midnightblue" points="1870.2,-57.85 1865.6,-67.4 1875.15,-62.8 1870.2,-57.85"/>
</g>
</g>
</svg>
