<?xml version="1.0" encoding="UTF-8" standalone="no"?>
<!DOCTYPE svg PUBLIC "-//W3C//DTD SVG 1.1//EN"
 "http://www.w3.org/Graphics/SVG/1.1/DTD/svg11.dtd">
<!-- Generated by graphviz version 2.46.0 (20210122.1329)
 -->
<!-- Title: include/m_Do/m_Do_dvd_thread/m_Do_dvd_thread.h Pages: 1 -->
<svg width="3723pt" height="307pt"
 viewBox="0.00 0.00 3722.50 307.00" xmlns="http://www.w3.org/2000/svg" xmlns:xlink="http://www.w3.org/1999/xlink">
<g id="graph0" class="graph" transform="scale(1 1) rotate(0) translate(4 303)">
<title>include/m_Do/m_Do_dvd_thread/m_Do_dvd_thread.h</title>
<polygon fill="white" stroke="transparent" points="-4,4 -4,-303 3718.5,-303 3718.5,4 -4,4"/>
<!-- Node1 -->
<g id="node1" class="node">
<title>Node1</title>
<g id="a_node1"><a xlink:title=" ">
<polygon fill="#bfbfbf" stroke="black" points="818.5,-268.5 818.5,-298.5 956.5,-298.5 956.5,-268.5 818.5,-268.5"/>
<text text-anchor="start" x="826.5" y="-286.5" font-family="Helvetica,sans-Serif" font-size="10.00">include/m_Do/m_Do_dvd</text>
<text text-anchor="middle" x="887.5" y="-275.5" font-family="Helvetica,sans-Serif" font-size="10.00">_thread/m_Do_dvd_thread.h</text>
</a>
</g>
</g>
<!-- Node2 -->
<g id="node2" class="node">
<title>Node2</title>
<g id="a_node2"><a xlink:href="m__Do__main_8cpp.html" target="_top" xlink:title=" ">
<polygon fill="white" stroke="black" points="0,-73 0,-92 131,-92 131,-73 0,-73"/>
<text text-anchor="middle" x="65.5" y="-80" font-family="Helvetica,sans-Serif" font-size="10.00">src/m_Do/m_Do_main.cpp</text>
</a>
</g>
</g>
<!-- Node1&#45;&gt;Node2 -->
<g id="edge1" class="edge">
<title>Node1&#45;&gt;Node2</title>
<path fill="none" stroke="midnightblue" d="M819.46,-266.03C652.4,-225.58 226.5,-122.48 100.88,-92.07"/>
<polygon fill="midnightblue" stroke="midnightblue" points="818.83,-269.48 829.37,-268.43 820.48,-262.67 818.83,-269.48"/>
</g>
<!-- Node3 -->
<g id="node3" class="node">
<title>Node3</title>
<g id="a_node3"><a xlink:href="d__resource_8h.html" target="_top" xlink:title=" ">
<polygon fill="white" stroke="black" points="1590,-201.5 1590,-231.5 1697,-231.5 1697,-201.5 1590,-201.5"/>
<text text-anchor="start" x="1598" y="-219.5" font-family="Helvetica,sans-Serif" font-size="10.00">include/d/d_resource</text>
<text text-anchor="middle" x="1643.5" y="-208.5" font-family="Helvetica,sans-Serif" font-size="10.00">/d_resource.h</text>
</a>
</g>
</g>
<!-- Node1&#45;&gt;Node3 -->
<g id="edge2" class="edge">
<title>Node1&#45;&gt;Node3</title>
<path fill="none" stroke="midnightblue" d="M966.95,-275.67C1121.47,-262.38 1458.78,-233.38 1589.88,-222.11"/>
<polygon fill="midnightblue" stroke="midnightblue" points="966.26,-272.22 956.59,-276.56 966.86,-279.19 966.26,-272.22"/>
</g>
<!-- Node4 -->
<g id="node4" class="node">
<title>Node4</title>
<g id="a_node4"><a xlink:href="d__a__alink_8h.html" target="_top" xlink:title=" ">
<polygon fill="white" stroke="black" points="3570,-67.5 3570,-97.5 3689,-97.5 3689,-67.5 3570,-67.5"/>
<text text-anchor="start" x="3578" y="-85.5" font-family="Helvetica,sans-Serif" font-size="10.00">include/d/d_a/d_a_alink</text>
<text text-anchor="middle" x="3629.5" y="-74.5" font-family="Helvetica,sans-Serif" font-size="10.00">/d_a_alink.h</text>
</a>
</g>
</g>
<!-- Node3&#45;&gt;Node4 -->
<g id="edge3" class="edge">
<title>Node3&#45;&gt;Node4</title>
<path fill="none" stroke="midnightblue" d="M1707.6,-213.89C1948.81,-207.34 2824.69,-179.03 3541.5,-98 3550.73,-96.96 3560.47,-95.61 3569.97,-94.15"/>
<polygon fill="midnightblue" stroke="midnightblue" points="1707.17,-210.4 1697.27,-214.17 1707.36,-217.4 1707.17,-210.4"/>
</g>
<!-- Node8 -->
<g id="node8" class="node">
<title>Node8</title>
<g id="a_node8"><a xlink:href="d__com__inf__game_8h.html" target="_top" xlink:title=" ">
<polygon fill="white" stroke="black" points="1570.5,-134.5 1570.5,-164.5 1716.5,-164.5 1716.5,-134.5 1570.5,-134.5"/>
<text text-anchor="start" x="1578.5" y="-152.5" font-family="Helvetica,sans-Serif" font-size="10.00">include/d/d_com/d_com</text>
<text text-anchor="middle" x="1643.5" y="-141.5" font-family="Helvetica,sans-Serif" font-size="10.00">_inf_game/d_com_inf_game.h</text>
</a>
</g>
</g>
<!-- Node3&#45;&gt;Node8 -->
<g id="edge8" class="edge">
<title>Node3&#45;&gt;Node8</title>
<path fill="none" stroke="midnightblue" d="M1643.5,-191.11C1643.5,-182.15 1643.5,-172.32 1643.5,-164.58"/>
<polygon fill="midnightblue" stroke="midnightblue" points="1640,-191.4 1643.5,-201.4 1647,-191.4 1640,-191.4"/>
</g>
<!-- Node5 -->
<g id="node5" class="node">
<title>Node5</title>
<g id="a_node5"><a xlink:href="d__attention_8cpp.html" target="_top" xlink:title=" ">
<polygon fill="white" stroke="black" points="3465,-6 3465,-25 3572,-25 3572,-6 3465,-6"/>
<text text-anchor="middle" x="3518.5" y="-13" font-family="Helvetica,sans-Serif" font-size="10.00">src/d/d_attention.cpp</text>
</a>
</g>
</g>
<!-- Node4&#45;&gt;Node5 -->
<g id="edge4" class="edge">
<title>Node4&#45;&gt;Node5</title>
<path fill="none" stroke="midnightblue" d="M3596.72,-62.31C3575.58,-49.93 3549.12,-34.43 3533.03,-25.01"/>
<polygon fill="midnightblue" stroke="midnightblue" points="3595.02,-65.36 3605.41,-67.4 3598.55,-59.32 3595.02,-65.36"/>
</g>
<!-- Node6 -->
<g id="node6" class="node">
<title>Node6</title>
<g id="a_node6"><a xlink:href="d__a__alink_8cpp.html" target="_top" xlink:title=" ">
<polygon fill="white" stroke="black" points="1955,-6 1955,-25 2074,-25 2074,-6 1955,-6"/>
<text text-anchor="middle" x="2014.5" y="-13" font-family="Helvetica,sans-Serif" font-size="10.00">src/d/d_a/d_a_alink.cpp</text>
</a>
</g>
</g>
<!-- Node4&#45;&gt;Node6 -->
<g id="edge5" class="edge">
<title>Node4&#45;&gt;Node6</title>
<path fill="none" stroke="midnightblue" d="M3559.65,-71C3547.3,-69.44 3534.54,-68.01 3522.5,-67 2960.64,-19.64 2277.5,-16.22 2074.26,-16.33"/>
<polygon fill="midnightblue" stroke="midnightblue" points="3559.54,-74.51 3569.91,-72.34 3560.45,-67.57 3559.54,-74.51"/>
</g>
<!-- Node7 -->
<g id="node7" class="node">
<title>Node7</title>
<g id="a_node7"><a xlink:href="d__a__player_8h.html" target="_top" xlink:title=" ">
<polygon fill="white" stroke="black" points="3590.5,-0.5 3590.5,-30.5 3714.5,-30.5 3714.5,-0.5 3590.5,-0.5"/>
<text text-anchor="start" x="3598.5" y="-18.5" font-family="Helvetica,sans-Serif" font-size="10.00">include/d/d_a/d_a_player</text>
<text text-anchor="middle" x="3652.5" y="-7.5" font-family="Helvetica,sans-Serif" font-size="10.00">/d_a_player.h</text>
</a>
</g>
</g>
<!-- Node4&#45;&gt;Node7 -->
<g id="edge6" class="edge">
<title>Node4&#45;&gt;Node7</title>
<path fill="none" stroke="midnightblue" d="M3631.39,-57.7C3634.15,-48.59 3638,-38.49 3641.84,-30.58"/>
<polygon fill="midnightblue" stroke="midnightblue" points="3628,-56.83 3628.81,-67.4 3634.77,-58.63 3628,-56.83"/>
</g>
<!-- Node7&#45;&gt;Node4 -->
<g id="edge7" class="edge">
<title>Node7&#45;&gt;Node4</title>
<path fill="none" stroke="midnightblue" d="M3650.62,-40.27C3647.87,-49.38 3644.01,-59.47 3640.17,-67.4"/>
<polygon fill="midnightblue" stroke="midnightblue" points="3654.01,-41.14 3653.19,-30.58 3647.24,-39.34 3654.01,-41.14"/>
</g>
<!-- Node8&#45;&gt;Node2 -->
<g id="edge31" class="edge">
<title>Node8&#45;&gt;Node2</title>
<path fill="none" stroke="midnightblue" d="M1560.01,-147.29C1287.09,-143.07 422.99,-127.67 145.5,-98 132.59,-96.62 118.62,-94.36 106.03,-92.03"/>
<polygon fill="midnightblue" stroke="midnightblue" points="1560.19,-150.79 1570.24,-147.44 1560.3,-143.79 1560.19,-150.79"/>
</g>
<!-- Node8&#45;&gt;Node4 -->
<g id="edge36" class="edge">
<title>Node8&#45;&gt;Node4</title>
<path fill="none" stroke="midnightblue" d="M1726.86,-147.12C2071.11,-141.31 3372.47,-118.21 3555.5,-98 3560.18,-97.48 3565.01,-96.82 3569.86,-96.07"/>
<polygon fill="midnightblue" stroke="midnightblue" points="1726.66,-143.62 1716.72,-147.29 1726.78,-150.62 1726.66,-143.62"/>
</g>
<!-- Node8&#45;&gt;Node5 -->
<g id="edge9" class="edge">
<title>Node8&#45;&gt;Node5</title>
<path fill="none" stroke="midnightblue" d="M1726.91,-147.04C2088.92,-140.59 3506.62,-114.32 3522.5,-98 3541.67,-78.31 3529.49,-41.66 3522.46,-25.06"/>
<polygon fill="midnightblue" stroke="midnightblue" points="1726.7,-143.54 1716.76,-147.22 1726.82,-150.54 1726.7,-143.54"/>
</g>
<!-- Node9 -->
<g id="node9" class="node">
<title>Node9</title>
<g id="a_node9"><a xlink:href="d__camera_8cpp.html" target="_top" xlink:title=" ">
<polygon fill="white" stroke="black" points="301.5,-73 301.5,-92 403.5,-92 403.5,-73 301.5,-73"/>
<text text-anchor="middle" x="352.5" y="-80" font-family="Helvetica,sans-Serif" font-size="10.00">src/d/d_camera.cpp</text>
</a>
</g>
</g>
<!-- Node8&#45;&gt;Node9 -->
<g id="edge10" class="edge">
<title>Node8&#45;&gt;Node9</title>
<path fill="none" stroke="midnightblue" d="M1560.05,-147C1321.41,-142.41 639.16,-127.05 417.5,-98 406.95,-96.62 395.59,-94.36 385.36,-92.03"/>
<polygon fill="midnightblue" stroke="midnightblue" points="1560.33,-150.51 1570.39,-147.2 1560.46,-143.51 1560.33,-150.51"/>
</g>
<!-- Node10 -->
<g id="node10" class="node">
<title>Node10</title>
<g id="a_node10"><a xlink:href="d__com__inf__game_8cpp.html" target="_top" xlink:title=" ">
<polygon fill="white" stroke="black" points="141,-0.5 141,-30.5 260,-30.5 260,-0.5 141,-0.5"/>
<text text-anchor="start" x="149" y="-18.5" font-family="Helvetica,sans-Serif" font-size="10.00">src/d/d_com/d_com_inf</text>
<text text-anchor="middle" x="200.5" y="-7.5" font-family="Helvetica,sans-Serif" font-size="10.00">_game.cpp</text>
</a>
</g>
</g>
<!-- Node8&#45;&gt;Node10 -->
<g id="edge11" class="edge">
<title>Node8&#45;&gt;Node10</title>
<path fill="none" stroke="midnightblue" d="M1560.03,-147.18C1252.98,-142.11 202.65,-123 178.5,-98 160.78,-79.66 177.31,-48.6 189.72,-30.58"/>
<polygon fill="midnightblue" stroke="midnightblue" points="1560.15,-150.68 1570.21,-147.34 1560.26,-143.68 1560.15,-150.68"/>
</g>
<!-- Node11 -->
<g id="node11" class="node">
<title>Node11</title>
<g id="a_node11"><a xlink:href="d__file__sel__info_8cpp.html" target="_top" xlink:title=" ">
<polygon fill="white" stroke="black" points="613,-67.5 613,-97.5 702,-97.5 702,-67.5 613,-67.5"/>
<text text-anchor="start" x="621" y="-85.5" font-family="Helvetica,sans-Serif" font-size="10.00">src/d/d_file/d_file</text>
<text text-anchor="middle" x="657.5" y="-74.5" font-family="Helvetica,sans-Serif" font-size="10.00">_sel_info.cpp</text>
</a>
</g>
</g>
<!-- Node8&#45;&gt;Node11 -->
<g id="edge12" class="edge">
<title>Node8&#45;&gt;Node11</title>
<path fill="none" stroke="midnightblue" d="M1560.28,-146.21C1363.46,-140.44 873.7,-123.88 711.5,-98 708.43,-97.51 705.29,-96.92 702.13,-96.25"/>
<polygon fill="midnightblue" stroke="midnightblue" points="1560.18,-149.71 1570.28,-146.5 1560.39,-142.71 1560.18,-149.71"/>
</g>
<!-- Node12 -->
<g id="node12" class="node">
<title>Node12</title>
<g id="a_node12"><a xlink:href="d__item_8cpp.html" target="_top" xlink:title=" ">
<polygon fill="white" stroke="black" points="289,-6 289,-25 410,-25 410,-6 289,-6"/>
<text text-anchor="middle" x="349.5" y="-13" font-family="Helvetica,sans-Serif" font-size="10.00">src/d/d_item/d_item.cpp</text>
</a>
</g>
</g>
<!-- Node8&#45;&gt;Node12 -->
<g id="edge13" class="edge">
<title>Node8&#45;&gt;Node12</title>
<path fill="none" stroke="midnightblue" d="M1560.35,-147.41C1310.75,-143.77 578.87,-130.44 476.5,-98 427.3,-82.41 378.62,-42.55 358.79,-25.01"/>
<polygon fill="midnightblue" stroke="midnightblue" points="1560.4,-150.91 1570.45,-147.55 1560.5,-143.91 1560.4,-150.91"/>
</g>
<!-- Node13 -->
<g id="node13" class="node">
<title>Node13</title>
<g id="a_node13"><a xlink:href="d__kankyo__rain_8cpp.html" target="_top" xlink:title=" ">
<polygon fill="white" stroke="black" points="720,-67.5 720,-97.5 847,-97.5 847,-67.5 720,-67.5"/>
<text text-anchor="start" x="728" y="-85.5" font-family="Helvetica,sans-Serif" font-size="10.00">src/d/d_kankyo/d_kankyo</text>
<text text-anchor="middle" x="783.5" y="-74.5" font-family="Helvetica,sans-Serif" font-size="10.00">_rain.cpp</text>
</a>
</g>
</g>
<!-- Node8&#45;&gt;Node13 -->
<g id="edge14" class="edge">
<title>Node8&#45;&gt;Node13</title>
<path fill="none" stroke="midnightblue" d="M1560.41,-146.77C1416.48,-142.97 1111.71,-131.39 856.5,-98 853.43,-97.6 850.29,-97.14 847.12,-96.65"/>
<polygon fill="midnightblue" stroke="midnightblue" points="1560.41,-150.27 1570.49,-147.03 1560.59,-143.27 1560.41,-150.27"/>
</g>
<!-- Node14 -->
<g id="node14" class="node">
<title>Node14</title>
<g id="a_node14"><a xlink:href="d__kankyo__wether_8cpp.html" target="_top" xlink:title=" ">
<polygon fill="white" stroke="black" points="865,-67.5 865,-97.5 992,-97.5 992,-67.5 865,-67.5"/>
<text text-anchor="start" x="873" y="-85.5" font-family="Helvetica,sans-Serif" font-size="10.00">src/d/d_kankyo/d_kankyo</text>
<text text-anchor="middle" x="928.5" y="-74.5" font-family="Helvetica,sans-Serif" font-size="10.00">_wether.cpp</text>
</a>
</g>
</g>
<!-- Node8&#45;&gt;Node14 -->
<g id="edge15" class="edge">
<title>Node8&#45;&gt;Node14</title>
<path fill="none" stroke="midnightblue" d="M1559.94,-145.07C1437.11,-139.31 1200.79,-125.53 1001.5,-98 998.43,-97.58 995.29,-97.1 992.13,-96.6"/>
<polygon fill="midnightblue" stroke="midnightblue" points="1559.87,-148.57 1570.02,-145.53 1560.2,-141.57 1559.87,-148.57"/>
</g>
<!-- Node15 -->
<g id="node15" class="node">
<title>Node15</title>
<g id="a_node15"><a xlink:href="d__kankyo_8cpp.html" target="_top" xlink:title=" ">
<polygon fill="white" stroke="black" points="1010,-73 1010,-92 1111,-92 1111,-73 1010,-73"/>
<text text-anchor="middle" x="1060.5" y="-80" font-family="Helvetica,sans-Serif" font-size="10.00">src/d/d_kankyo.cpp</text>
</a>
</g>
</g>
<!-- Node8&#45;&gt;Node15 -->
<g id="edge16" class="edge">
<title>Node8&#45;&gt;Node15</title>
<path fill="none" stroke="midnightblue" d="M1560.23,-144.09C1456.63,-137.77 1274.59,-123.93 1120.5,-98 1111.2,-96.44 1101.2,-94.23 1092.09,-92.02"/>
<polygon fill="midnightblue" stroke="midnightblue" points="1560.12,-147.59 1570.31,-144.69 1560.54,-140.6 1560.12,-147.59"/>
</g>
<!-- Node16 -->
<g id="node16" class="node">
<title>Node16</title>
<g id="a_node16"><a xlink:href="d__kantera__icon__meter_8cpp.html" target="_top" xlink:title=" ">
<polygon fill="white" stroke="black" points="1129,-67.5 1129,-97.5 1236,-97.5 1236,-67.5 1129,-67.5"/>
<text text-anchor="start" x="1137" y="-85.5" font-family="Helvetica,sans-Serif" font-size="10.00">src/d/d_kantera_icon</text>
<text text-anchor="middle" x="1182.5" y="-74.5" font-family="Helvetica,sans-Serif" font-size="10.00">_meter.cpp</text>
</a>
</g>
</g>
<!-- Node8&#45;&gt;Node16 -->
<g id="edge17" class="edge">
<title>Node8&#45;&gt;Node16</title>
<path fill="none" stroke="midnightblue" d="M1560.06,-140.37C1479.28,-131.92 1353.51,-117.23 1245.5,-98 1242.41,-97.45 1239.24,-96.85 1236.04,-96.21"/>
<polygon fill="midnightblue" stroke="midnightblue" points="1559.87,-143.87 1570.18,-141.42 1560.59,-136.9 1559.87,-143.87"/>
</g>
<!-- Node17 -->
<g id="node17" class="node">
<title>Node17</title>
<g id="a_node17"><a xlink:href="d__meter__button_8cpp.html" target="_top" xlink:title=" ">
<polygon fill="white" stroke="black" points="1254,-67.5 1254,-97.5 1369,-97.5 1369,-67.5 1254,-67.5"/>
<text text-anchor="start" x="1262" y="-85.5" font-family="Helvetica,sans-Serif" font-size="10.00">src/d/d_meter/d_meter</text>
<text text-anchor="middle" x="1311.5" y="-74.5" font-family="Helvetica,sans-Serif" font-size="10.00">_button.cpp</text>
</a>
</g>
</g>
<!-- Node8&#45;&gt;Node17 -->
<g id="edge18" class="edge">
<title>Node8&#45;&gt;Node17</title>
<path fill="none" stroke="midnightblue" d="M1560.4,-133.21C1508.12,-123.46 1439.29,-110.37 1378.5,-98 1375.47,-97.38 1372.36,-96.74 1369.22,-96.09"/>
<polygon fill="midnightblue" stroke="midnightblue" points="1559.82,-136.66 1570.29,-135.05 1561.1,-129.78 1559.82,-136.66"/>
</g>
<!-- Node18 -->
<g id="node18" class="node">
<title>Node18</title>
<g id="a_node18"><a xlink:href="d__meter__haihai_8cpp.html" target="_top" xlink:title=" ">
<polygon fill="white" stroke="black" points="1387,-67.5 1387,-97.5 1502,-97.5 1502,-67.5 1387,-67.5"/>
<text text-anchor="start" x="1395" y="-85.5" font-family="Helvetica,sans-Serif" font-size="10.00">src/d/d_meter/d_meter</text>
<text text-anchor="middle" x="1444.5" y="-74.5" font-family="Helvetica,sans-Serif" font-size="10.00">_haihai.cpp</text>
</a>
</g>
</g>
<!-- Node8&#45;&gt;Node18 -->
<g id="edge19" class="edge">
<title>Node8&#45;&gt;Node18</title>
<path fill="none" stroke="midnightblue" d="M1590.62,-131.23C1558.43,-120.71 1517.83,-107.45 1487.6,-97.58"/>
<polygon fill="midnightblue" stroke="midnightblue" points="1589.73,-134.62 1600.32,-134.4 1591.9,-127.96 1589.73,-134.62"/>
</g>
<!-- Node19 -->
<g id="node19" class="node">
<title>Node19</title>
<g id="a_node19"><a xlink:href="d__meter__hakusha_8cpp.html" target="_top" xlink:title=" ">
<polygon fill="white" stroke="black" points="1520,-67.5 1520,-97.5 1635,-97.5 1635,-67.5 1520,-67.5"/>
<text text-anchor="start" x="1528" y="-85.5" font-family="Helvetica,sans-Serif" font-size="10.00">src/d/d_meter/d_meter</text>
<text text-anchor="middle" x="1577.5" y="-74.5" font-family="Helvetica,sans-Serif" font-size="10.00">_hakusha.cpp</text>
</a>
</g>
</g>
<!-- Node8&#45;&gt;Node19 -->
<g id="edge20" class="edge">
<title>Node8&#45;&gt;Node19</title>
<path fill="none" stroke="midnightblue" d="M1621.99,-127.31C1612.09,-117.56 1600.61,-106.26 1591.79,-97.58"/>
<polygon fill="midnightblue" stroke="midnightblue" points="1619.6,-129.87 1629.18,-134.4 1624.51,-124.89 1619.6,-129.87"/>
</g>
<!-- Node20 -->
<g id="node20" class="node">
<title>Node20</title>
<g id="a_node20"><a xlink:href="d__meter__map_8cpp.html" target="_top" xlink:title=" ">
<polygon fill="white" stroke="black" points="1653,-67.5 1653,-97.5 1768,-97.5 1768,-67.5 1653,-67.5"/>
<text text-anchor="start" x="1661" y="-85.5" font-family="Helvetica,sans-Serif" font-size="10.00">src/d/d_meter/d_meter</text>
<text text-anchor="middle" x="1710.5" y="-74.5" font-family="Helvetica,sans-Serif" font-size="10.00">_map.cpp</text>
</a>
</g>
</g>
<!-- Node8&#45;&gt;Node20 -->
<g id="edge21" class="edge">
<title>Node8&#45;&gt;Node20</title>
<path fill="none" stroke="midnightblue" d="M1665.34,-127.31C1675.39,-117.56 1687.04,-106.26 1695.99,-97.58"/>
<polygon fill="midnightblue" stroke="midnightblue" points="1662.78,-124.92 1658.04,-134.4 1667.65,-129.94 1662.78,-124.92"/>
</g>
<!-- Node21 -->
<g id="node21" class="node">
<title>Node21</title>
<g id="a_node21"><a xlink:href="d__meter__string_8cpp.html" target="_top" xlink:title=" ">
<polygon fill="white" stroke="black" points="1786,-67.5 1786,-97.5 1901,-97.5 1901,-67.5 1786,-67.5"/>
<text text-anchor="start" x="1794" y="-85.5" font-family="Helvetica,sans-Serif" font-size="10.00">src/d/d_meter/d_meter</text>
<text text-anchor="middle" x="1843.5" y="-74.5" font-family="Helvetica,sans-Serif" font-size="10.00">_string.cpp</text>
</a>
</g>
</g>
<!-- Node8&#45;&gt;Node21 -->
<g id="edge22" class="edge">
<title>Node8&#45;&gt;Node21</title>
<path fill="none" stroke="midnightblue" d="M1696.65,-131.23C1729,-120.71 1769.81,-107.45 1800.19,-97.58"/>
<polygon fill="midnightblue" stroke="midnightblue" points="1695.33,-127.98 1686.9,-134.4 1697.49,-134.63 1695.33,-127.98"/>
</g>
<!-- Node22 -->
<g id="node22" class="node">
<title>Node22</title>
<g id="a_node22"><a xlink:href="d__meter2__draw_8cpp.html" target="_top" xlink:title=" ">
<polygon fill="white" stroke="black" points="1919,-67.5 1919,-97.5 2044,-97.5 2044,-67.5 1919,-67.5"/>
<text text-anchor="start" x="1927" y="-85.5" font-family="Helvetica,sans-Serif" font-size="10.00">src/d/d_meter2/d_meter2</text>
<text text-anchor="middle" x="1981.5" y="-74.5" font-family="Helvetica,sans-Serif" font-size="10.00">_draw.cpp</text>
</a>
</g>
</g>
<!-- Node8&#45;&gt;Node22 -->
<g id="edge23" class="edge">
<title>Node8&#45;&gt;Node22</title>
<path fill="none" stroke="midnightblue" d="M1726.63,-133.1C1779.34,-123.25 1848.97,-110.1 1910.5,-98 1913.22,-97.47 1915.99,-96.92 1918.79,-96.36"/>
<polygon fill="midnightblue" stroke="midnightblue" points="1725.84,-129.69 1716.65,-134.96 1727.12,-136.57 1725.84,-129.69"/>
</g>
<!-- Node23 -->
<g id="node23" class="node">
<title>Node23</title>
<g id="a_node23"><a xlink:href="d__meter2__info_8cpp.html" target="_top" xlink:title=" ">
<polygon fill="white" stroke="black" points="2062,-67.5 2062,-97.5 2187,-97.5 2187,-67.5 2062,-67.5"/>
<text text-anchor="start" x="2070" y="-85.5" font-family="Helvetica,sans-Serif" font-size="10.00">src/d/d_meter2/d_meter2</text>
<text text-anchor="middle" x="2124.5" y="-74.5" font-family="Helvetica,sans-Serif" font-size="10.00">_info.cpp</text>
</a>
</g>
</g>
<!-- Node8&#45;&gt;Node23 -->
<g id="edge24" class="edge">
<title>Node8&#45;&gt;Node23</title>
<path fill="none" stroke="midnightblue" d="M1726.83,-140.18C1809.87,-131.44 1940.88,-116.41 2053.5,-98 2056.23,-97.55 2059.02,-97.08 2061.83,-96.58"/>
<polygon fill="midnightblue" stroke="midnightblue" points="1726.28,-136.72 1716.7,-141.25 1727.01,-143.68 1726.28,-136.72"/>
</g>
<!-- Node24 -->
<g id="node24" class="node">
<title>Node24</title>
<g id="a_node24"><a xlink:href="d__meter2_8cpp.html" target="_top" xlink:title=" ">
<polygon fill="white" stroke="black" points="2205.5,-73 2205.5,-92 2305.5,-92 2305.5,-73 2205.5,-73"/>
<text text-anchor="middle" x="2255.5" y="-80" font-family="Helvetica,sans-Serif" font-size="10.00">src/d/d_meter2.cpp</text>
</a>
</g>
</g>
<!-- Node8&#45;&gt;Node24 -->
<g id="edge25" class="edge">
<title>Node8&#45;&gt;Node24</title>
<path fill="none" stroke="midnightblue" d="M1727.1,-144.77C1835.83,-139.04 2031.39,-125.67 2196.5,-98 2205.65,-96.47 2215.49,-94.27 2224.45,-92.06"/>
<polygon fill="midnightblue" stroke="midnightblue" points="1726.66,-141.29 1716.86,-145.31 1727.02,-148.28 1726.66,-141.29"/>
</g>
<!-- Node25 -->
<g id="node25" class="node">
<title>Node25</title>
<g id="a_node25"><a xlink:href="d__save_8cpp.html" target="_top" xlink:title=" ">
<polygon fill="white" stroke="black" points="2324,-73 2324,-92 2449,-92 2449,-73 2324,-73"/>
<text text-anchor="middle" x="2386.5" y="-80" font-family="Helvetica,sans-Serif" font-size="10.00">src/d/d_save/d_save.cpp</text>
</a>
</g>
</g>
<!-- Node8&#45;&gt;Node25 -->
<g id="edge26" class="edge">
<title>Node8&#45;&gt;Node25</title>
<path fill="none" stroke="midnightblue" d="M1726.85,-145.54C1854.07,-140.28 2104.07,-126.99 2314.5,-98 2325.62,-96.47 2337.6,-94.28 2348.54,-92.06"/>
<polygon fill="midnightblue" stroke="midnightblue" points="1726.64,-142.05 1716.79,-145.95 1726.93,-149.04 1726.64,-142.05"/>
</g>
<!-- Node26 -->
<g id="node26" class="node">
<title>Node26</title>
<g id="a_node26"><a xlink:href="d__save__HIO_8cpp.html" target="_top" xlink:title=" ">
<polygon fill="white" stroke="black" points="2467,-67.5 2467,-97.5 2574,-97.5 2574,-67.5 2467,-67.5"/>
<text text-anchor="start" x="2475" y="-85.5" font-family="Helvetica,sans-Serif" font-size="10.00">src/d/d_save/d_save</text>
<text text-anchor="middle" x="2520.5" y="-74.5" font-family="Helvetica,sans-Serif" font-size="10.00">_HIO.cpp</text>
</a>
</g>
</g>
<!-- Node8&#45;&gt;Node26 -->
<g id="edge27" class="edge">
<title>Node8&#45;&gt;Node26</title>
<path fill="none" stroke="midnightblue" d="M1727.08,-147.94C1875.23,-145.91 2193.29,-136.95 2458.5,-98 2461.23,-97.6 2464.03,-97.14 2466.84,-96.63"/>
<polygon fill="midnightblue" stroke="midnightblue" points="1726.66,-144.44 1716.71,-148.07 1726.75,-151.44 1726.66,-144.44"/>
</g>
<!-- Node27 -->
<g id="node27" class="node">
<title>Node27</title>
<g id="a_node27"><a xlink:href="d__stage_8cpp.html" target="_top" xlink:title=" ">
<polygon fill="white" stroke="black" points="2592.5,-73 2592.5,-92 2686.5,-92 2686.5,-73 2592.5,-73"/>
<text text-anchor="middle" x="2639.5" y="-80" font-family="Helvetica,sans-Serif" font-size="10.00">src/d/d_stage.cpp</text>
</a>
</g>
</g>
<!-- Node8&#45;&gt;Node27 -->
<g id="edge28" class="edge">
<title>Node8&#45;&gt;Node27</title>
<path fill="none" stroke="midnightblue" d="M1726.69,-146.16C1924.69,-140.25 2419.59,-123.36 2583.5,-98 2592.53,-96.6 2602.22,-94.37 2610.95,-92.06"/>
<polygon fill="midnightblue" stroke="midnightblue" points="1726.53,-142.67 1716.64,-146.46 1726.74,-149.66 1726.53,-142.67"/>
</g>
<!-- Node28 -->
<g id="node28" class="node">
<title>Node28</title>
<g id="a_node28"><a xlink:href="f__pc__manager_8cpp.html" target="_top" xlink:title=" ">
<polygon fill="white" stroke="black" points="434.5,-6 434.5,-25 574.5,-25 574.5,-6 434.5,-6"/>
<text text-anchor="middle" x="504.5" y="-13" font-family="Helvetica,sans-Serif" font-size="10.00">src/f/f_pc/f_pc_manager.cpp</text>
</a>
</g>
</g>
<!-- Node8&#45;&gt;Node28 -->
<g id="edge29" class="edge">
<title>Node8&#45;&gt;Node28</title>
<path fill="none" stroke="midnightblue" d="M1559.99,-147.97C1301,-145.92 526.43,-136.58 489.5,-98 470.3,-77.94 488.58,-41.8 498.73,-25.23"/>
<polygon fill="midnightblue" stroke="midnightblue" points="1560.07,-151.47 1570.09,-148.05 1560.12,-144.47 1560.07,-151.47"/>
</g>
<!-- Node29 -->
<g id="node29" class="node">
<title>Node29</title>
<g id="a_node29"><a xlink:href="m__Do__audio_8cpp.html" target="_top" xlink:title=" ">
<polygon fill="white" stroke="black" points="2704.5,-73 2704.5,-92 2838.5,-92 2838.5,-73 2704.5,-73"/>
<text text-anchor="middle" x="2771.5" y="-80" font-family="Helvetica,sans-Serif" font-size="10.00">src/m_Do/m_Do_audio.cpp</text>
</a>
</g>
</g>
<!-- Node8&#45;&gt;Node29 -->
<g id="edge30" class="edge">
<title>Node8&#45;&gt;Node29</title>
<path fill="none" stroke="midnightblue" d="M1726.91,-148.47C1905.29,-147.53 2336.82,-140.61 2695.5,-98 2707.64,-96.56 2720.75,-94.31 2732.61,-92.01"/>
<polygon fill="midnightblue" stroke="midnightblue" points="1726.79,-144.97 1716.81,-148.52 1726.83,-151.97 1726.79,-144.97"/>
</g>
<!-- Node30 -->
<g id="node30" class="node">
<title>Node30</title>
<g id="a_node30"><a xlink:href="Z2EnvSeMgr_8cpp.html" target="_top" xlink:title=" ">
<polygon fill="white" stroke="black" points="2857,-73 2857,-92 3018,-92 3018,-73 2857,-73"/>
<text text-anchor="middle" x="2937.5" y="-80" font-family="Helvetica,sans-Serif" font-size="10.00">libs/Z2AudioLib/Z2EnvSeMgr.cpp</text>
</a>
</g>
</g>
<!-- Node8&#45;&gt;Node30 -->
<g id="edge32" class="edge">
<title>Node8&#45;&gt;Node30</title>
<path fill="none" stroke="midnightblue" d="M1726.89,-148.38C1922.89,-147.36 2428.04,-140.44 2847.5,-98 2861.67,-96.57 2877,-94.35 2890.93,-92.08"/>
<polygon fill="midnightblue" stroke="midnightblue" points="1726.65,-144.88 1716.66,-148.43 1726.68,-151.88 1726.65,-144.88"/>
</g>
<!-- Node31 -->
<g id="node31" class="node">
<title>Node31</title>
<g id="a_node31"><a xlink:href="Z2SceneMgr_8cpp.html" target="_top" xlink:title=" ">
<polygon fill="white" stroke="black" points="3036,-73 3036,-92 3197,-92 3197,-73 3036,-73"/>
<text text-anchor="middle" x="3116.5" y="-80" font-family="Helvetica,sans-Serif" font-size="10.00">libs/Z2AudioLib/Z2SceneMgr.cpp</text>
</a>
</g>
</g>
<!-- Node8&#45;&gt;Node31 -->
<g id="edge33" class="edge">
<title>Node8&#45;&gt;Node31</title>
<path fill="none" stroke="midnightblue" d="M1727.17,-149.08C1943.06,-149.8 2536.39,-146.77 3027.5,-98 3041.68,-96.59 3057.02,-94.35 3070.91,-92.05"/>
<polygon fill="midnightblue" stroke="midnightblue" points="1726.88,-145.58 1716.87,-149.04 1726.85,-152.58 1726.88,-145.58"/>
</g>
<!-- Node32 -->
<g id="node32" class="node">
<title>Node32</title>
<g id="a_node32"><a xlink:href="Z2LinkMgr_8cpp.html" target="_top" xlink:title=" ">
<polygon fill="white" stroke="black" points="3215.5,-73 3215.5,-92 3367.5,-92 3367.5,-73 3215.5,-73"/>
<text text-anchor="middle" x="3291.5" y="-80" font-family="Helvetica,sans-Serif" font-size="10.00">libs/Z2AudioLib/Z2LinkMgr.cpp</text>
</a>
</g>
</g>
<!-- Node8&#45;&gt;Node32 -->
<g id="edge34" class="edge">
<title>Node8&#45;&gt;Node32</title>
<path fill="none" stroke="midnightblue" d="M1726.77,-147.31C2007.15,-143.08 2915.49,-127.38 3206.5,-98 3220.2,-96.62 3235.03,-94.35 3248.41,-92.02"/>
<polygon fill="midnightblue" stroke="midnightblue" points="1726.61,-143.81 1716.67,-147.46 1726.72,-150.81 1726.61,-143.81"/>
</g>
<!-- Node33 -->
<g id="node33" class="node">
<title>Node33</title>
<g id="a_node33"><a xlink:href="Z2StatusMgr_8cpp.html" target="_top" xlink:title=" ">
<polygon fill="white" stroke="black" points="3386,-67.5 3386,-97.5 3513,-97.5 3513,-67.5 3386,-67.5"/>
<text text-anchor="start" x="3394" y="-85.5" font-family="Helvetica,sans-Serif" font-size="10.00">libs/Z2AudioLib/Z2Status</text>
<text text-anchor="middle" x="3449.5" y="-74.5" font-family="Helvetica,sans-Serif" font-size="10.00">Mgr.cpp</text>
</a>
</g>
</g>
<!-- Node8&#45;&gt;Node33 -->
<g id="edge35" class="edge">
<title>Node8&#45;&gt;Node33</title>
<path fill="none" stroke="midnightblue" d="M1727.04,-147.91C2027.3,-145.52 3051.17,-134.79 3376.5,-98 3379.58,-97.65 3382.73,-97.24 3385.9,-96.78"/>
<polygon fill="midnightblue" stroke="midnightblue" points="1726.64,-144.42 1716.67,-148 1726.69,-151.42 1726.64,-144.42"/>
</g>
<!-- Node34 -->
<g id="node34" class="node">
<title>Node34</title>
<g id="a_node34"><a xlink:href="d__item_8h.html" target="_top" xlink:title=" ">
<polygon fill="white" stroke="black" points="187.5,-67.5 187.5,-97.5 283.5,-97.5 283.5,-67.5 187.5,-67.5"/>
<text text-anchor="start" x="195.5" y="-85.5" font-family="Helvetica,sans-Serif" font-size="10.00">include/d/d_item/d</text>
<text text-anchor="middle" x="235.5" y="-74.5" font-family="Helvetica,sans-Serif" font-size="10.00">_item/d_item.h</text>
</a>
</g>
</g>
<!-- Node8&#45;&gt;Node34 -->
<g id="edge37" class="edge">
<title>Node8&#45;&gt;Node34</title>
<path fill="none" stroke="midnightblue" d="M1559.98,-147.69C1304.98,-144.86 538.96,-133.54 292.5,-98 289.57,-97.58 286.57,-97.06 283.56,-96.49"/>
<polygon fill="midnightblue" stroke="midnightblue" points="1560.25,-151.2 1570.28,-147.8 1560.32,-144.2 1560.25,-151.2"/>
</g>
<!-- Node35 -->
<g id="node35" class="node">
<title>Node35</title>
<g id="a_node35"><a xlink:href="f__pc__manager_8h.html" target="_top" xlink:title=" ">
<polygon fill="white" stroke="black" points="498,-67.5 498,-97.5 595,-97.5 595,-67.5 498,-67.5"/>
<text text-anchor="start" x="506" y="-85.5" font-family="Helvetica,sans-Serif" font-size="10.00">include/f/f_pc/f_pc</text>
<text text-anchor="middle" x="546.5" y="-74.5" font-family="Helvetica,sans-Serif" font-size="10.00">_manager.h</text>
</a>
</g>
</g>
<!-- Node8&#45;&gt;Node35 -->
<g id="edge40" class="edge">
<title>Node8&#45;&gt;Node35</title>
<path fill="none" stroke="midnightblue" d="M1560,-146.56C1347.16,-141.27 788.18,-125.16 604.5,-98 601.42,-97.54 598.26,-97 595.1,-96.38"/>
<polygon fill="midnightblue" stroke="midnightblue" points="1560.09,-150.06 1570.17,-146.81 1560.26,-143.06 1560.09,-150.06"/>
</g>
<!-- Node34&#45;&gt;Node10 -->
<g id="edge38" class="edge">
<title>Node34&#45;&gt;Node10</title>
<path fill="none" stroke="midnightblue" d="M223.16,-58.58C218.13,-49.24 212.48,-38.75 208.08,-30.58"/>
<polygon fill="midnightblue" stroke="midnightblue" points="220.08,-60.25 227.91,-67.4 226.25,-56.93 220.08,-60.25"/>
</g>
<!-- Node34&#45;&gt;Node12 -->
<g id="edge39" class="edge">
<title>Node34&#45;&gt;Node12</title>
<path fill="none" stroke="midnightblue" d="M269.16,-62.31C290.88,-49.93 318.05,-34.43 334.58,-25.01"/>
<polygon fill="midnightblue" stroke="midnightblue" points="267.19,-59.4 260.24,-67.4 270.66,-65.48 267.19,-59.4"/>
</g>
<!-- Node35&#45;&gt;Node6 -->
<g id="edge42" class="edge">
<title>Node35&#45;&gt;Node6</title>
<path fill="none" stroke="midnightblue" d="M605.04,-67.2C891.29,-29.04 1724.55,-19.06 1954.92,-16.97"/>
<polygon fill="midnightblue" stroke="midnightblue" points="604.52,-63.74 595.09,-68.57 605.47,-70.67 604.52,-63.74"/>
</g>
<!-- Node35&#45;&gt;Node28 -->
<g id="edge41" class="edge">
<title>Node35&#45;&gt;Node28</title>
<path fill="none" stroke="midnightblue" d="M531.95,-58.97C524.42,-47.33 515.68,-33.8 510.12,-25.19"/>
<polygon fill="midnightblue" stroke="midnightblue" points="529.02,-60.9 537.39,-67.4 534.9,-57.1 529.02,-60.9"/>
</g>
</g>
</svg>
