<?xml version="1.0" encoding="UTF-8" standalone="no"?>
<!DOCTYPE svg PUBLIC "-//W3C//DTD SVG 1.1//EN"
 "http://www.w3.org/Graphics/SVG/1.1/DTD/svg11.dtd">
<!-- Generated by graphviz version 7.0.5 (20221223.1930)
 -->
<!-- Title: libs/PowerPC_EABI_Support/MSL/MSL_C/MSL_Common/Src/misc_io.c Pages: 1 -->
<svg width="234pt" height="159pt"
 viewBox="0.00 0.00 233.50 159.00" xmlns="http://www.w3.org/2000/svg" xmlns:xlink="http://www.w3.org/1999/xlink">
<g id="graph0" class="graph" transform="scale(1 1) rotate(0) translate(4 155)">
<title>libs/PowerPC_EABI_Support/MSL/MSL_C/MSL_Common/Src/misc_io.c</title>
<!-- Node1 -->
<g id="node1" class="node">
<title>Node1</title>
<g id="a_node1"><a xlink:title=" ">
<polygon fill="#999999" stroke="#666666" points="190.5,-151 27.5,-151 27.5,-110 190.5,-110 190.5,-151"/>
<text text-anchor="start" x="35.5" y="-139" font-family="Helvetica,sans-Serif" font-size="10.00">libs/PowerPC_EABI_Support</text>
<text text-anchor="start" x="35.5" y="-128" font-family="Helvetica,sans-Serif" font-size="10.00">/MSL/MSL_C/MSL_Common/Src</text>
<text text-anchor="middle" x="109" y="-117" font-family="Helvetica,sans-Serif" font-size="10.00">/misc_io.c</text>
</a>
</g>
</g>
<!-- Node2 -->
<g id="node2" class="node">
<title>Node2</title>
<g id="a_node2"><a xlink:href="misc__io_8h.html" target="_top" xlink:title=" ">
<polygon fill="white" stroke="#666666" points="58,-74 0,-74 0,-55 58,-55 58,-74"/>
<text text-anchor="middle" x="29" y="-62" font-family="Helvetica,sans-Serif" font-size="10.00">misc_io.h</text>
</a>
</g>
</g>
<!-- Node1&#45;&gt;Node2 -->
<g id="edge1" class="edge">
<title>Node1&#45;&gt;Node2</title>
<path fill="none" stroke="#63b8ff" d="M84.13,-109.6C72.75,-100.5 59.46,-89.86 48.77,-81.32"/>
<polygon fill="#63b8ff" stroke="#63b8ff" points="51.01,-78.62 41.01,-75.11 46.63,-84.09 51.01,-78.62"/>
</g>
<!-- Node3 -->
<g id="node3" class="node">
<title>Node3</title>
<g id="a_node3"><a xlink:href="abort__exit_8h.html" target="_top" xlink:title=" ">
<polygon fill="white" stroke="#666666" points="142,-74 76,-74 76,-55 142,-55 142,-74"/>
<text text-anchor="middle" x="109" y="-62" font-family="Helvetica,sans-Serif" font-size="10.00">abort_exit.h</text>
</a>
</g>
</g>
<!-- Node1&#45;&gt;Node3 -->
<g id="edge2" class="edge">
<title>Node1&#45;&gt;Node3</title>
<path fill="none" stroke="#63b8ff" d="M109,-109.6C109,-101.98 109,-93.3 109,-85.66"/>
<polygon fill="#63b8ff" stroke="#63b8ff" points="112.5,-85.68 109,-75.68 105.5,-85.68 112.5,-85.68"/>
</g>
<!-- Node4 -->
<g id="node4" class="node">
<title>Node4</title>
<g id="a_node4"><a xlink:href="ansi__files_8h.html" target="_top" xlink:title=" ">
<polygon fill="white" stroke="#666666" points="225.5,-74 160.5,-74 160.5,-55 225.5,-55 225.5,-74"/>
<text text-anchor="middle" x="193" y="-62" font-family="Helvetica,sans-Serif" font-size="10.00">ansi_files.h</text>
</a>
</g>
</g>
<!-- Node1&#45;&gt;Node4 -->
<g id="edge3" class="edge">
<title>Node1&#45;&gt;Node4</title>
<path fill="none" stroke="#63b8ff" d="M135.12,-109.6C147.19,-100.41 161.31,-89.65 172.58,-81.06"/>
<polygon fill="#63b8ff" stroke="#63b8ff" points="174.59,-83.92 180.43,-75.08 170.35,-78.36 174.59,-83.92"/>
</g>
<!-- Node5 -->
<g id="node5" class="node">
<title>Node5</title>
<g id="a_node5"><a xlink:href="stddef_8h.html" target="_top" xlink:title=" ">
<polygon fill="white" stroke="#666666" points="218.5,-19 167.5,-19 167.5,0 218.5,0 218.5,-19"/>
<text text-anchor="middle" x="193" y="-7" font-family="Helvetica,sans-Serif" font-size="10.00">stddef.h</text>
</a>
</g>
</g>
<!-- Node4&#45;&gt;Node5 -->
<g id="edge4" class="edge">
<title>Node4&#45;&gt;Node5</title>
<path fill="none" stroke="#63b8ff" d="M193,-54.75C193,-48.27 193,-39.16 193,-30.9"/>
<polygon fill="#63b8ff" stroke="#63b8ff" points="196.5,-30.96 193,-20.96 189.5,-30.96 196.5,-30.96"/>
</g>
</g>
</svg>
