<?xml version="1.0" encoding="UTF-8" standalone="no"?>
<!DOCTYPE svg PUBLIC "-//W3C//DTD SVG 1.1//EN"
 "http://www.w3.org/Graphics/SVG/1.1/DTD/svg11.dtd">
<!-- Generated by graphviz version 7.0.5 (20221223.1930)
 -->
<!-- Title: libs/TRK_MINNOW_DOLPHIN/MetroTRK/Portable/msghndlr.c Pages: 1 -->
<svg width="1928pt" height="467pt"
 viewBox="0.00 0.00 1927.50 467.00" xmlns="http://www.w3.org/2000/svg" xmlns:xlink="http://www.w3.org/1999/xlink">
<g id="graph0" class="graph" transform="scale(1 1) rotate(0) translate(4 463)">
<title>libs/TRK_MINNOW_DOLPHIN/MetroTRK/Portable/msghndlr.c</title>
<!-- Node1 -->
<g id="node1" class="node">
<title>Node1</title>
<g id="a_node1"><a xlink:title=" ">
<polygon fill="#999999" stroke="#666666" points="429,-459 276,-459 276,-429 429,-429 429,-459"/>
<text text-anchor="start" x="284" y="-447" font-family="Helvetica,sans-Serif" font-size="10.00">libs/TRK_MINNOW_DOLPHIN</text>
<text text-anchor="middle" x="352.5" y="-436" font-family="Helvetica,sans-Serif" font-size="10.00">/MetroTRK/Portable/msghndlr.c</text>
</a>
</g>
</g>
<!-- Node2 -->
<g id="node2" class="node">
<title>Node2</title>
<g id="a_node2"><a xlink:href="msghndlr_8h.html" target="_top" xlink:title=" ">
<polygon fill="white" stroke="#666666" points="324,-387.5 171,-387.5 171,-357.5 324,-357.5 324,-387.5"/>
<text text-anchor="start" x="179" y="-375.5" font-family="Helvetica,sans-Serif" font-size="10.00">TRK_MINNOW_DOLPHIN</text>
<text text-anchor="middle" x="247.5" y="-364.5" font-family="Helvetica,sans-Serif" font-size="10.00">/MetroTRK/Portable/msghndlr.h</text>
</a>
</g>
</g>
<!-- Node1&#45;&gt;Node2 -->
<g id="edge1" class="edge">
<title>Node1&#45;&gt;Node2</title>
<path fill="none" stroke="#63b8ff" d="M330.74,-428.6C315.68,-418.63 295.4,-405.21 278.63,-394.11"/>
<polygon fill="#63b8ff" stroke="#63b8ff" points="280.76,-391.32 270.49,-388.72 276.9,-397.16 280.76,-391.32"/>
</g>
<!-- Node4 -->
<g id="node4" class="node">
<title>Node4</title>
<g id="a_node4"><a xlink:href="trk_8h.html" target="_top" xlink:title=" ">
<polygon fill="white" stroke="#666666" points="179,-250 144,-250 144,-231 179,-231 179,-250"/>
<text text-anchor="middle" x="161.5" y="-238" font-family="Helvetica,sans-Serif" font-size="10.00">trk.h</text>
</a>
</g>
</g>
<!-- Node1&#45;&gt;Node4 -->
<g id="edge61" class="edge">
<title>Node1&#45;&gt;Node4</title>
<path fill="none" stroke="#63b8ff" d="M352.17,-428.82C351.16,-410.09 347.38,-376.6 333.5,-352 302.23,-296.6 230.44,-264.61 190.19,-250.41"/>
<polygon fill="#63b8ff" stroke="#63b8ff" points="191.53,-247.16 180.93,-247.27 189.28,-253.79 191.53,-247.16"/>
</g>
<!-- Node7 -->
<g id="node7" class="node">
<title>Node7</title>
<g id="a_node7"><a xlink:href="nubevent_8h.html" target="_top" xlink:title=" ">
<polygon fill="white" stroke="#666666" points="153,-387.5 0,-387.5 0,-357.5 153,-357.5 153,-387.5"/>
<text text-anchor="start" x="8" y="-375.5" font-family="Helvetica,sans-Serif" font-size="10.00">TRK_MINNOW_DOLPHIN</text>
<text text-anchor="middle" x="76.5" y="-364.5" font-family="Helvetica,sans-Serif" font-size="10.00">/MetroTRK/Portable/nubevent.h</text>
</a>
</g>
</g>
<!-- Node1&#45;&gt;Node7 -->
<g id="edge7" class="edge">
<title>Node1&#45;&gt;Node7</title>
<path fill="none" stroke="#63b8ff" d="M294.98,-428.52C251.34,-417.53 191.2,-402.38 145.06,-390.76"/>
<polygon fill="#63b8ff" stroke="#63b8ff" points="145.97,-387.38 135.42,-388.34 144.26,-394.17 145.97,-387.38"/>
</g>
<!-- Node8 -->
<g id="node8" class="node">
<title>Node8</title>
<g id="a_node8"><a xlink:href="dolphin__trk__glue_8h.html" target="_top" xlink:title=" ">
<polygon fill="white" stroke="#666666" points="514.5,-393 380.5,-393 380.5,-352 514.5,-352 514.5,-393"/>
<text text-anchor="start" x="388.5" y="-381" font-family="Helvetica,sans-Serif" font-size="10.00">TRK_MINNOW_DOLPHIN</text>
<text text-anchor="start" x="388.5" y="-370" font-family="Helvetica,sans-Serif" font-size="10.00">/Os/dolphin/dolphin</text>
<text text-anchor="middle" x="447.5" y="-359" font-family="Helvetica,sans-Serif" font-size="10.00">_trk_glue.h</text>
</a>
</g>
</g>
<!-- Node1&#45;&gt;Node8 -->
<g id="edge10" class="edge">
<title>Node1&#45;&gt;Node8</title>
<path fill="none" stroke="#63b8ff" d="M372.18,-428.6C383.49,-420.33 398.04,-409.69 411.33,-399.96"/>
<polygon fill="#63b8ff" stroke="#63b8ff" points="413.05,-403.04 419.06,-394.31 408.92,-397.39 413.05,-403.04"/>
</g>
<!-- Node33 -->
<g id="node33" class="node">
<title>Node33</title>
<g id="a_node33"><a xlink:href="MWTrace_8h.html" target="_top" xlink:title=" ">
<polygon fill="white" stroke="#666666" points="1919.5,-140 1785.5,-140 1785.5,-110 1919.5,-110 1919.5,-140"/>
<text text-anchor="start" x="1793.5" y="-128" font-family="Helvetica,sans-Serif" font-size="10.00">TRK_MINNOW_DOLPHIN</text>
<text text-anchor="middle" x="1852.5" y="-117" font-family="Helvetica,sans-Serif" font-size="10.00">/utils/common/MWTrace.h</text>
</a>
</g>
</g>
<!-- Node1&#45;&gt;Node33 -->
<g id="edge59" class="edge">
<title>Node1&#45;&gt;Node33</title>
<path fill="none" stroke="#63b8ff" d="M429.46,-439.69C731.93,-426.2 1822.5,-372.66 1822.5,-302 1822.5,-302 1822.5,-302 1822.5,-239.5 1822.5,-208.26 1833.26,-173.74 1841.89,-151.07"/>
<polygon fill="#63b8ff" stroke="#63b8ff" points="1845.14,-152.36 1845.58,-141.78 1838.63,-149.78 1845.14,-152.36"/>
</g>
<!-- Node3 -->
<g id="node3" class="node">
<title>Node3</title>
<g id="a_node3"><a xlink:href="msgbuf_8h.html" target="_top" xlink:title=" ">
<polygon fill="white" stroke="#666666" points="234.5,-316 88.5,-316 88.5,-286 234.5,-286 234.5,-316"/>
<text text-anchor="start" x="96.5" y="-304" font-family="Helvetica,sans-Serif" font-size="10.00">TRK_MINNOW_DOLPHIN</text>
<text text-anchor="middle" x="161.5" y="-293" font-family="Helvetica,sans-Serif" font-size="10.00">/MetroTRK/Portable/msgbuf.h</text>
</a>
</g>
</g>
<!-- Node2&#45;&gt;Node3 -->
<g id="edge2" class="edge">
<title>Node2&#45;&gt;Node3</title>
<path fill="none" stroke="#63b8ff" d="M229.68,-357.1C217.69,-347.41 201.66,-334.46 188.16,-323.54"/>
<polygon fill="#63b8ff" stroke="#63b8ff" points="190.45,-320.9 180.47,-317.33 186.05,-326.34 190.45,-320.9"/>
</g>
<!-- Node2&#45;&gt;Node4 -->
<g id="edge6" class="edge">
<title>Node2&#45;&gt;Node4</title>
<path fill="none" stroke="#63b8ff" d="M250.82,-357.23C254.18,-339.17 257.16,-307.78 243.5,-286 231.67,-267.14 208.9,-255.7 190.35,-249.15"/>
<polygon fill="#63b8ff" stroke="#63b8ff" points="191.51,-245.85 180.92,-246.15 189.39,-252.52 191.51,-245.85"/>
</g>
<!-- Node3&#45;&gt;Node4 -->
<g id="edge3" class="edge">
<title>Node3&#45;&gt;Node4</title>
<path fill="none" stroke="#63b8ff" d="M161.5,-285.54C161.5,-278.34 161.5,-269.53 161.5,-261.68"/>
<polygon fill="#63b8ff" stroke="#63b8ff" points="165,-261.69 161.5,-251.69 158,-261.69 165,-261.69"/>
</g>
<!-- Node5 -->
<g id="node5" class="node">
<title>Node5</title>
<g id="a_node5"><a xlink:href="types_8h.html" target="_top" xlink:title=" ">
<polygon fill="white" stroke="#666666" points="1162,-74 1081,-74 1081,-55 1162,-55 1162,-74"/>
<text text-anchor="middle" x="1121.5" y="-62" font-family="Helvetica,sans-Serif" font-size="10.00">dolphin/types.h</text>
</a>
</g>
</g>
<!-- Node4&#45;&gt;Node5 -->
<g id="edge4" class="edge">
<title>Node4&#45;&gt;Node5</title>
<path fill="none" stroke="#63b8ff" d="M157.91,-230.52C153.32,-217.46 147.13,-192.96 157.5,-176 191.1,-121.06 224.31,-126.75 286.5,-110 435.13,-69.97 910.52,-65.72 1069.3,-65.45"/>
<polygon fill="#63b8ff" stroke="#63b8ff" points="1069.11,-68.95 1079.1,-65.43 1069.1,-61.95 1069.11,-68.95"/>
</g>
<!-- Node6 -->
<g id="node6" class="node">
<title>Node6</title>
<g id="a_node6"><a xlink:href="stddef_8h.html" target="_top" xlink:title=" ">
<polygon fill="white" stroke="#666666" points="1147,-19 1096,-19 1096,0 1147,0 1147,-19"/>
<text text-anchor="middle" x="1121.5" y="-7" font-family="Helvetica,sans-Serif" font-size="10.00">stddef.h</text>
</a>
</g>
</g>
<!-- Node5&#45;&gt;Node6 -->
<g id="edge5" class="edge">
<title>Node5&#45;&gt;Node6</title>
<path fill="none" stroke="#63b8ff" d="M1121.5,-54.75C1121.5,-48.27 1121.5,-39.16 1121.5,-30.9"/>
<polygon fill="#63b8ff" stroke="#63b8ff" points="1125,-30.96 1121.5,-20.96 1118,-30.96 1125,-30.96"/>
</g>
<!-- Node7&#45;&gt;Node3 -->
<g id="edge9" class="edge">
<title>Node7&#45;&gt;Node3</title>
<path fill="none" stroke="#63b8ff" d="M94.11,-357.1C105.96,-347.41 121.81,-334.46 135.15,-323.54"/>
<polygon fill="#63b8ff" stroke="#63b8ff" points="137.21,-326.38 142.74,-317.34 132.78,-320.96 137.21,-326.38"/>
</g>
<!-- Node7&#45;&gt;Node4 -->
<g id="edge8" class="edge">
<title>Node7&#45;&gt;Node4</title>
<path fill="none" stroke="#63b8ff" d="M72.98,-357.25C69.36,-339.21 65.97,-307.85 79.5,-286 91.29,-266.95 114.27,-255.5 132.91,-248.99"/>
<polygon fill="#63b8ff" stroke="#63b8ff" points="133.89,-252.35 142.38,-246.01 131.79,-245.68 133.89,-252.35"/>
</g>
<!-- Node8&#45;&gt;Node4 -->
<g id="edge58" class="edge">
<title>Node8&#45;&gt;Node4</title>
<path fill="none" stroke="#63b8ff" d="M434.19,-351.54C419.88,-331.72 395.25,-302.04 366.5,-286 297.91,-247.74 269.92,-268.09 193.5,-250 192.5,-249.76 191.48,-249.52 190.45,-249.26"/>
<polygon fill="#63b8ff" stroke="#63b8ff" points="191.42,-245.9 180.86,-246.81 189.68,-252.68 191.42,-245.9"/>
</g>
<!-- Node9 -->
<g id="node9" class="node">
<title>Node9</title>
<g id="a_node9"><a xlink:href="os_8h.html" target="_top" xlink:title=" ">
<polygon fill="white" stroke="#666666" points="985.5,-310.5 917.5,-310.5 917.5,-291.5 985.5,-291.5 985.5,-310.5"/>
<text text-anchor="middle" x="951.5" y="-298.5" font-family="Helvetica,sans-Serif" font-size="10.00">dolphin/os.h</text>
</a>
</g>
</g>
<!-- Node8&#45;&gt;Node9 -->
<g id="edge11" class="edge">
<title>Node8&#45;&gt;Node9</title>
<path fill="none" stroke="#63b8ff" d="M514.95,-362.2C619.17,-347.83 816.63,-320.6 905.78,-308.3"/>
<polygon fill="#63b8ff" stroke="#63b8ff" points="906.19,-311.78 915.62,-306.95 905.23,-304.85 906.19,-311.78"/>
</g>
<!-- Node10 -->
<g id="node10" class="node">
<title>Node10</title>
<g id="a_node10"><a xlink:href="____va__arg_8h.html" target="_top" xlink:title=" ">
<polygon fill="white" stroke="#666666" points="1675.5,-134.5 1611.5,-134.5 1611.5,-115.5 1675.5,-115.5 1675.5,-134.5"/>
<text text-anchor="middle" x="1643.5" y="-122.5" font-family="Helvetica,sans-Serif" font-size="10.00">__va_arg.h</text>
</a>
</g>
</g>
<!-- Node9&#45;&gt;Node10 -->
<g id="edge12" class="edge">
<title>Node9&#45;&gt;Node10</title>
<path fill="none" stroke="#63b8ff" d="M985.77,-300.38C1125.56,-301.56 1647.47,-302.43 1696.5,-250 1725.68,-218.8 1686.33,-169.07 1661.32,-143.08"/>
<polygon fill="#63b8ff" stroke="#63b8ff" points="1663.82,-140.63 1654.28,-136.02 1658.86,-145.58 1663.82,-140.63"/>
</g>
<!-- Node11 -->
<g id="node11" class="node">
<title>Node11</title>
<g id="a_node11"><a xlink:href="dvd_8h.html" target="_top" xlink:title=" ">
<polygon fill="white" stroke="#666666" points="1767.5,-134.5 1693.5,-134.5 1693.5,-115.5 1767.5,-115.5 1767.5,-134.5"/>
<text text-anchor="middle" x="1730.5" y="-122.5" font-family="Helvetica,sans-Serif" font-size="10.00">dolphin/dvd.h</text>
</a>
</g>
</g>
<!-- Node9&#45;&gt;Node11 -->
<g id="edge14" class="edge">
<title>Node9&#45;&gt;Node11</title>
<path fill="none" stroke="#63b8ff" d="M985.94,-300.26C1127.65,-301 1660.85,-300.38 1714.5,-250 1742.77,-223.46 1739.38,-173.58 1734.74,-145.85"/>
<polygon fill="#63b8ff" stroke="#63b8ff" points="1738.24,-145.49 1732.92,-136.33 1731.36,-146.81 1738.24,-145.49"/>
</g>
<!-- Node12 -->
<g id="node12" class="node">
<title>Node12</title>
<g id="a_node12"><a xlink:href="OSAlarm_8h.html" target="_top" xlink:title=" ">
<polygon fill="white" stroke="#666666" points="347,-250 236,-250 236,-231 347,-231 347,-250"/>
<text text-anchor="middle" x="291.5" y="-238" font-family="Helvetica,sans-Serif" font-size="10.00">dolphin/os/OSAlarm.h</text>
</a>
</g>
</g>
<!-- Node9&#45;&gt;Node12 -->
<g id="edge16" class="edge">
<title>Node9&#45;&gt;Node12</title>
<path fill="none" stroke="#63b8ff" d="M917.21,-297.53C826.44,-290.9 572.4,-271.73 361.5,-250 360.49,-249.9 359.47,-249.79 358.44,-249.68"/>
<polygon fill="#63b8ff" stroke="#63b8ff" points="359.09,-246.23 348.77,-248.62 358.33,-253.19 359.09,-246.23"/>
</g>
<!-- Node13 -->
<g id="node13" class="node">
<title>Node13</title>
<g id="a_node13"><a xlink:href="OSError_8h.html" target="_top" xlink:title=" ">
<polygon fill="white" stroke="#666666" points="272.5,-195 166.5,-195 166.5,-176 272.5,-176 272.5,-195"/>
<text text-anchor="middle" x="219.5" y="-183" font-family="Helvetica,sans-Serif" font-size="10.00">dolphin/os/OSError.h</text>
</a>
</g>
</g>
<!-- Node9&#45;&gt;Node13 -->
<g id="edge30" class="edge">
<title>Node9&#45;&gt;Node13</title>
<path fill="none" stroke="#63b8ff" d="M917.37,-300.16C780.56,-300.46 276.79,-298.27 226.5,-250 215.11,-239.07 214.22,-220.67 215.68,-206.48"/>
<polygon fill="#63b8ff" stroke="#63b8ff" points="219.09,-207.3 217.13,-196.89 212.17,-206.25 219.09,-207.3"/>
</g>
<!-- Node14 -->
<g id="node14" class="node">
<title>Node14</title>
<g id="a_node14"><a xlink:href="OSTime_8h.html" target="_top" xlink:title=" ">
<polygon fill="white" stroke="#666666" points="398,-195 291,-195 291,-176 398,-176 398,-195"/>
<text text-anchor="middle" x="344.5" y="-183" font-family="Helvetica,sans-Serif" font-size="10.00">dolphin/os/OSTime.h</text>
</a>
</g>
</g>
<!-- Node9&#45;&gt;Node14 -->
<g id="edge57" class="edge">
<title>Node9&#45;&gt;Node14</title>
<path fill="none" stroke="#63b8ff" d="M917.36,-300.2C811.52,-300.31 490.59,-296.69 399.5,-250 380.07,-240.04 364.56,-220.02 355.03,-205.11"/>
<polygon fill="#63b8ff" stroke="#63b8ff" points="358.11,-203.43 349.95,-196.67 352.11,-207.04 358.11,-203.43"/>
</g>
<!-- Node15 -->
<g id="node15" class="node">
<title>Node15</title>
<g id="a_node15"><a xlink:href="OSAlloc_8h.html" target="_top" xlink:title=" ">
<polygon fill="white" stroke="#666666" points="500,-134.5 393,-134.5 393,-115.5 500,-115.5 500,-134.5"/>
<text text-anchor="middle" x="446.5" y="-122.5" font-family="Helvetica,sans-Serif" font-size="10.00">dolphin/os/OSAlloc.h</text>
</a>
</g>
</g>
<!-- Node9&#45;&gt;Node15 -->
<g id="edge21" class="edge">
<title>Node9&#45;&gt;Node15</title>
<path fill="none" stroke="#63b8ff" d="M917.33,-298.69C812.01,-294.35 497.37,-279.06 462.5,-250 432.57,-225.05 436.75,-174.12 441.91,-145.91"/>
<polygon fill="#63b8ff" stroke="#63b8ff" points="445.32,-146.71 443.93,-136.21 438.47,-145.29 445.32,-146.71"/>
</g>
<!-- Node16 -->
<g id="node16" class="node">
<title>Node16</title>
<g id="a_node16"><a xlink:href="OSArena_8h.html" target="_top" xlink:title=" ">
<polygon fill="white" stroke="#666666" points="566,-195 455,-195 455,-176 566,-176 566,-195"/>
<text text-anchor="middle" x="510.5" y="-183" font-family="Helvetica,sans-Serif" font-size="10.00">dolphin/os/OSArena.h</text>
</a>
</g>
</g>
<!-- Node9&#45;&gt;Node16 -->
<g id="edge23" class="edge">
<title>Node9&#45;&gt;Node16</title>
<path fill="none" stroke="#63b8ff" d="M917.21,-299.02C812.36,-295.69 501.3,-283.06 471.5,-250 458.47,-235.54 474.23,-216.14 489.44,-202.6"/>
<polygon fill="#63b8ff" stroke="#63b8ff" points="491.49,-205.45 496.94,-196.36 487.02,-200.06 491.49,-205.45"/>
</g>
<!-- Node17 -->
<g id="node17" class="node">
<title>Node17</title>
<g id="a_node17"><a xlink:href="OSAudioSystem_8h.html" target="_top" xlink:title=" ">
<polygon fill="white" stroke="#666666" points="623,-250 480,-250 480,-231 623,-231 623,-250"/>
<text text-anchor="middle" x="551.5" y="-238" font-family="Helvetica,sans-Serif" font-size="10.00">dolphin/os/OSAudioSystem.h</text>
</a>
</g>
</g>
<!-- Node9&#45;&gt;Node17 -->
<g id="edge25" class="edge">
<title>Node9&#45;&gt;Node17</title>
<path fill="none" stroke="#63b8ff" d="M917.05,-294.96C852.21,-285.48 710.8,-264.8 624.1,-252.12"/>
<polygon fill="#63b8ff" stroke="#63b8ff" points="624.66,-248.66 614.26,-250.68 623.65,-255.59 624.66,-248.66"/>
</g>
<!-- Node18 -->
<g id="node18" class="node">
<title>Node18</title>
<g id="a_node18"><a xlink:href="OSCache_8h.html" target="_top" xlink:title=" ">
<polygon fill="white" stroke="#666666" points="697,-195 584,-195 584,-176 697,-176 697,-195"/>
<text text-anchor="middle" x="640.5" y="-183" font-family="Helvetica,sans-Serif" font-size="10.00">dolphin/os/OSCache.h</text>
</a>
</g>
</g>
<!-- Node9&#45;&gt;Node18 -->
<g id="edge26" class="edge">
<title>Node9&#45;&gt;Node18</title>
<path fill="none" stroke="#63b8ff" d="M917.02,-297.43C851.87,-291.99 713.76,-277.49 675.5,-250 660.65,-239.33 651.38,-220.31 646.14,-205.86"/>
<polygon fill="#63b8ff" stroke="#63b8ff" points="649.53,-204.96 643.12,-196.52 642.87,-207.11 649.53,-204.96"/>
</g>
<!-- Node19 -->
<g id="node19" class="node">
<title>Node19</title>
<g id="a_node19"><a xlink:href="OSContext_8h.html" target="_top" xlink:title=" ">
<polygon fill="white" stroke="#666666" points="1137,-134.5 1018,-134.5 1018,-115.5 1137,-115.5 1137,-134.5"/>
<text text-anchor="middle" x="1077.5" y="-122.5" font-family="Helvetica,sans-Serif" font-size="10.00">dolphin/os/OSContext.h</text>
</a>
</g>
</g>
<!-- Node9&#45;&gt;Node19 -->
<g id="edge28" class="edge">
<title>Node9&#45;&gt;Node19</title>
<path fill="none" stroke="#63b8ff" d="M985.87,-292.95C1010.03,-286.14 1041.05,-273.3 1058.5,-250 1081.39,-219.44 1081.84,-172.58 1079.85,-146.08"/>
<polygon fill="#63b8ff" stroke="#63b8ff" points="1083.36,-145.99 1078.91,-136.37 1076.39,-146.67 1083.36,-145.99"/>
</g>
<!-- Node20 -->
<g id="node20" class="node">
<title>Node20</title>
<g id="a_node20"><a xlink:href="OSExec_8h.html" target="_top" xlink:title=" ">
<polygon fill="white" stroke="#666666" points="936,-134.5 829,-134.5 829,-115.5 936,-115.5 936,-134.5"/>
<text text-anchor="middle" x="882.5" y="-122.5" font-family="Helvetica,sans-Serif" font-size="10.00">dolphin/os/OSExec.h</text>
</a>
</g>
</g>
<!-- Node9&#45;&gt;Node20 -->
<g id="edge31" class="edge">
<title>Node9&#45;&gt;Node20</title>
<path fill="none" stroke="#63b8ff" d="M917.35,-297.04C862.94,-291.54 760.44,-277.69 738.5,-250 720.07,-226.74 749.79,-192.42 767.5,-176 786.5,-158.38 812.69,-146.33 835.28,-138.49"/>
<polygon fill="#63b8ff" stroke="#63b8ff" points="836.18,-141.88 844.59,-135.44 834,-135.23 836.18,-141.88"/>
</g>
<!-- Node21 -->
<g id="node21" class="node">
<title>Node21</title>
<g id="a_node21"><a xlink:href="OSFont_8h.html" target="_top" xlink:title=" ">
<polygon fill="white" stroke="#666666" points="881,-195 776,-195 776,-176 881,-176 881,-195"/>
<text text-anchor="middle" x="828.5" y="-183" font-family="Helvetica,sans-Serif" font-size="10.00">dolphin/os/OSFont.h</text>
</a>
</g>
</g>
<!-- Node9&#45;&gt;Node21 -->
<g id="edge33" class="edge">
<title>Node9&#45;&gt;Node21</title>
<path fill="none" stroke="#63b8ff" d="M917.08,-296.62C864.53,-290.68 768.21,-276.39 747.5,-250 731.07,-229.06 761.19,-210.99 789.25,-199.54"/>
<polygon fill="#63b8ff" stroke="#63b8ff" points="790.31,-202.88 798.39,-196.02 787.8,-196.34 790.31,-202.88"/>
</g>
<!-- Node22 -->
<g id="node22" class="node">
<title>Node22</title>
<g id="a_node22"><a xlink:href="OSInterrupt_8h.html" target="_top" xlink:title=" ">
<polygon fill="white" stroke="#666666" points="1227.5,-195 1105.5,-195 1105.5,-176 1227.5,-176 1227.5,-195"/>
<text text-anchor="middle" x="1166.5" y="-183" font-family="Helvetica,sans-Serif" font-size="10.00">dolphin/os/OSInterrupt.h</text>
</a>
</g>
</g>
<!-- Node9&#45;&gt;Node22 -->
<g id="edge35" class="edge">
<title>Node9&#45;&gt;Node22</title>
<path fill="none" stroke="#63b8ff" d="M985.93,-299.21C1054.26,-296.84 1203.12,-287.41 1234.5,-250 1250.21,-231.27 1223.57,-212.49 1199.16,-200.26"/>
<polygon fill="#63b8ff" stroke="#63b8ff" points="1200.88,-197.2 1190.34,-196.09 1197.89,-203.53 1200.88,-197.2"/>
</g>
<!-- Node23 -->
<g id="node23" class="node">
<title>Node23</title>
<g id="a_node23"><a xlink:href="OSLink_8h.html" target="_top" xlink:title=" ">
<polygon fill="white" stroke="#666666" points="1387.5,-134.5 1283.5,-134.5 1283.5,-115.5 1387.5,-115.5 1387.5,-134.5"/>
<text text-anchor="middle" x="1335.5" y="-122.5" font-family="Helvetica,sans-Serif" font-size="10.00">dolphin/os/OSLink.h</text>
</a>
</g>
</g>
<!-- Node9&#45;&gt;Node23 -->
<g id="edge37" class="edge">
<title>Node9&#45;&gt;Node23</title>
<path fill="none" stroke="#63b8ff" d="M985.95,-298.91C1089.02,-295.31 1389.65,-282.11 1418.5,-250 1448.37,-216.76 1383.32,-223.14 1360.5,-195 1348.96,-180.78 1342.5,-160.77 1339.05,-145.96"/>
<polygon fill="#63b8ff" stroke="#63b8ff" points="1342.54,-145.57 1337.12,-136.47 1335.68,-146.96 1342.54,-145.57"/>
</g>
<!-- Node24 -->
<g id="node24" class="node">
<title>Node24</title>
<g id="a_node24"><a xlink:href="OSMemory_8h.html" target="_top" xlink:title=" ">
<polygon fill="white" stroke="#666666" points="1225.5,-250 1105.5,-250 1105.5,-231 1225.5,-231 1225.5,-250"/>
<text text-anchor="middle" x="1165.5" y="-238" font-family="Helvetica,sans-Serif" font-size="10.00">dolphin/os/OSMemory.h</text>
</a>
</g>
</g>
<!-- Node9&#45;&gt;Node24 -->
<g id="edge39" class="edge">
<title>Node9&#45;&gt;Node24</title>
<path fill="none" stroke="#63b8ff" d="M984,-291.12C1020.77,-281.06 1080.83,-264.65 1121.71,-253.47"/>
<polygon fill="#63b8ff" stroke="#63b8ff" points="1122.51,-256.88 1131.23,-250.87 1120.66,-250.13 1122.51,-256.88"/>
</g>
<!-- Node25 -->
<g id="node25" class="node">
<title>Node25</title>
<g id="a_node25"><a xlink:href="OSMessage_8h.html" target="_top" xlink:title=" ">
<polygon fill="white" stroke="#666666" points="881,-250 756,-250 756,-231 881,-231 881,-250"/>
<text text-anchor="middle" x="818.5" y="-238" font-family="Helvetica,sans-Serif" font-size="10.00">dolphin/os/OSMessage.h</text>
</a>
</g>
</g>
<!-- Node9&#45;&gt;Node25 -->
<g id="edge41" class="edge">
<title>Node9&#45;&gt;Node25</title>
<path fill="none" stroke="#63b8ff" d="M931.3,-291.12C909.52,-281.54 874.6,-266.18 849.38,-255.08"/>
<polygon fill="#63b8ff" stroke="#63b8ff" points="850.84,-251.9 840.28,-251.08 848.02,-258.31 850.84,-251.9"/>
</g>
<!-- Node26 -->
<g id="node26" class="node">
<title>Node26</title>
<g id="a_node26"><a xlink:href="OSThread_8h.html" target="_top" xlink:title=" ">
<polygon fill="white" stroke="#666666" points="1026.5,-195 910.5,-195 910.5,-176 1026.5,-176 1026.5,-195"/>
<text text-anchor="middle" x="968.5" y="-183" font-family="Helvetica,sans-Serif" font-size="10.00">dolphin/os/OSThread.h</text>
</a>
</g>
</g>
<!-- Node9&#45;&gt;Node26 -->
<g id="edge56" class="edge">
<title>Node9&#45;&gt;Node26</title>
<path fill="none" stroke="#63b8ff" d="M944.78,-291.42C935.37,-278.28 920.27,-252.46 928.5,-231 932.61,-220.29 940.61,-210.54 948.39,-202.91"/>
<polygon fill="#63b8ff" stroke="#63b8ff" points="950.66,-205.58 955.73,-196.28 945.97,-200.39 950.66,-205.58"/>
</g>
<!-- Node27 -->
<g id="node27" class="node">
<title>Node27</title>
<g id="a_node27"><a xlink:href="OSMutex_8h.html" target="_top" xlink:title=" ">
<polygon fill="white" stroke="#666666" points="1049.5,-250 937.5,-250 937.5,-231 1049.5,-231 1049.5,-250"/>
<text text-anchor="middle" x="993.5" y="-238" font-family="Helvetica,sans-Serif" font-size="10.00">dolphin/os/OSMutex.h</text>
</a>
</g>
</g>
<!-- Node9&#45;&gt;Node27 -->
<g id="edge44" class="edge">
<title>Node9&#45;&gt;Node27</title>
<path fill="none" stroke="#63b8ff" d="M957.7,-291.37C963.71,-282.99 973.03,-270.01 980.65,-259.39"/>
<polygon fill="#63b8ff" stroke="#63b8ff" points="983.41,-261.56 986.39,-251.4 977.72,-257.48 983.41,-261.56"/>
</g>
<!-- Node28 -->
<g id="node28" class="node">
<title>Node28</title>
<g id="a_node28"><a xlink:href="OSReboot_8h.html" target="_top" xlink:title=" ">
<polygon fill="white" stroke="#666666" points="1485.5,-195 1369.5,-195 1369.5,-176 1485.5,-176 1485.5,-195"/>
<text text-anchor="middle" x="1427.5" y="-183" font-family="Helvetica,sans-Serif" font-size="10.00">dolphin/os/OSReboot.h</text>
</a>
</g>
</g>
<!-- Node9&#45;&gt;Node28 -->
<g id="edge46" class="edge">
<title>Node9&#45;&gt;Node28</title>
<path fill="none" stroke="#63b8ff" d="M985.68,-299.18C1093.36,-296.24 1420.26,-284.52 1451.5,-250 1463.19,-237.08 1453.37,-217.9 1442.99,-204"/>
<polygon fill="#63b8ff" stroke="#63b8ff" points="1445.94,-202.09 1436.92,-196.54 1440.51,-206.5 1445.94,-202.09"/>
</g>
<!-- Node29 -->
<g id="node29" class="node">
<title>Node29</title>
<g id="a_node29"><a xlink:href="OSReset_8h.html" target="_top" xlink:title=" ">
<polygon fill="white" stroke="#666666" points="1555,-134.5 1444,-134.5 1444,-115.5 1555,-115.5 1555,-134.5"/>
<text text-anchor="middle" x="1499.5" y="-122.5" font-family="Helvetica,sans-Serif" font-size="10.00">dolphin/os/OSReset.h</text>
</a>
</g>
</g>
<!-- Node9&#45;&gt;Node29 -->
<g id="edge48" class="edge">
<title>Node9&#45;&gt;Node29</title>
<path fill="none" stroke="#63b8ff" d="M985.79,-298.6C1094.71,-293.89 1427.96,-277.38 1467.5,-250 1500.47,-227.17 1502.87,-174.95 1501.4,-146.09"/>
<polygon fill="#63b8ff" stroke="#63b8ff" points="1504.9,-145.89 1500.67,-136.18 1497.92,-146.41 1504.9,-145.89"/>
</g>
<!-- Node30 -->
<g id="node30" class="node">
<title>Node30</title>
<g id="a_node30"><a xlink:href="OSResetSW_8h.html" target="_top" xlink:title=" ">
<polygon fill="white" stroke="#666666" points="1409,-250 1282,-250 1282,-231 1409,-231 1409,-250"/>
<text text-anchor="middle" x="1345.5" y="-238" font-family="Helvetica,sans-Serif" font-size="10.00">dolphin/os/OSResetSW.h</text>
</a>
</g>
</g>
<!-- Node9&#45;&gt;Node30 -->
<g id="edge50" class="edge">
<title>Node9&#45;&gt;Node30</title>
<path fill="none" stroke="#63b8ff" d="M985.78,-294.91C1049.74,-285.41 1188.52,-264.81 1273.78,-252.15"/>
<polygon fill="#63b8ff" stroke="#63b8ff" points="1274.06,-255.65 1283.44,-250.72 1273.03,-248.72 1274.06,-255.65"/>
</g>
<!-- Node31 -->
<g id="node31" class="node">
<title>Node31</title>
<g id="a_node31"><a xlink:href="OSRtc_8h.html" target="_top" xlink:title=" ">
<polygon fill="white" stroke="#666666" points="1643,-195 1542,-195 1542,-176 1643,-176 1643,-195"/>
<text text-anchor="middle" x="1592.5" y="-183" font-family="Helvetica,sans-Serif" font-size="10.00">dolphin/os/OSRtc.h</text>
</a>
</g>
</g>
<!-- Node9&#45;&gt;Node31 -->
<g id="edge53" class="edge">
<title>Node9&#45;&gt;Node31</title>
<path fill="none" stroke="#63b8ff" d="M985.8,-300.02C1094.54,-299.61 1430.11,-294.68 1527.5,-250 1549.38,-239.96 1568.27,-219.33 1579.96,-204.3"/>
<polygon fill="#63b8ff" stroke="#63b8ff" points="1582.51,-206.73 1585.66,-196.62 1576.89,-202.56 1582.51,-206.73"/>
</g>
<!-- Node32 -->
<g id="node32" class="node">
<title>Node32</title>
<g id="a_node32"><a xlink:href="OSSync_8h.html" target="_top" xlink:title=" ">
<polygon fill="white" stroke="#666666" points="1687,-250 1580,-250 1580,-231 1687,-231 1687,-250"/>
<text text-anchor="middle" x="1633.5" y="-238" font-family="Helvetica,sans-Serif" font-size="10.00">dolphin/os/OSSync.h</text>
</a>
</g>
</g>
<!-- Node9&#45;&gt;Node32 -->
<g id="edge55" class="edge">
<title>Node9&#45;&gt;Node32</title>
<path fill="none" stroke="#63b8ff" d="M985.83,-297.73C1079.11,-291.43 1345.02,-272.75 1565.5,-250 1566.51,-249.9 1567.53,-249.79 1568.55,-249.68"/>
<polygon fill="#63b8ff" stroke="#63b8ff" points="1568.65,-253.19 1578.2,-248.61 1567.87,-246.23 1568.65,-253.19"/>
</g>
<!-- Node10&#45;&gt;Node5 -->
<g id="edge13" class="edge">
<title>Node10&#45;&gt;Node5</title>
<path fill="none" stroke="#63b8ff" d="M1617.46,-115.08C1611,-113.14 1604.05,-111.29 1597.5,-110 1445.33,-80.05 1261.7,-70.11 1173.61,-66.93"/>
<polygon fill="#63b8ff" stroke="#63b8ff" points="1173.96,-63.44 1163.84,-66.59 1173.72,-70.44 1173.96,-63.44"/>
</g>
<!-- Node11&#45;&gt;Node5 -->
<g id="edge15" class="edge">
<title>Node11&#45;&gt;Node5</title>
<path fill="none" stroke="#63b8ff" d="M1704.47,-115.01C1698.01,-113.08 1691.06,-111.24 1684.5,-110 1498.7,-74.81 1273.31,-67.39 1173.44,-65.86"/>
<polygon fill="#63b8ff" stroke="#63b8ff" points="1173.74,-62.37 1163.69,-65.73 1173.64,-69.37 1173.74,-62.37"/>
</g>
<!-- Node12&#45;&gt;Node13 -->
<g id="edge17" class="edge">
<title>Node12&#45;&gt;Node13</title>
<path fill="none" stroke="#63b8ff" d="M279.29,-230.51C268.67,-222.7 253.06,-211.21 240.46,-201.93"/>
<polygon fill="#63b8ff" stroke="#63b8ff" points="242.88,-199.36 232.75,-196.26 238.73,-205 242.88,-199.36"/>
</g>
<!-- Node12&#45;&gt;Node14 -->
<g id="edge19" class="edge">
<title>Node12&#45;&gt;Node14</title>
<path fill="none" stroke="#63b8ff" d="M300.25,-230.75C307.65,-223.35 318.46,-212.54 327.55,-203.45"/>
<polygon fill="#63b8ff" stroke="#63b8ff" points="329.89,-206.06 334.49,-196.51 324.94,-201.11 329.89,-206.06"/>
</g>
<!-- Node13&#45;&gt;Node5 -->
<g id="edge18" class="edge">
<title>Node13&#45;&gt;Node5</title>
<path fill="none" stroke="#63b8ff" d="M231.43,-175.53C254.16,-159.04 305.82,-124.26 355.5,-110 490.11,-71.35 920.38,-66.17 1069.79,-65.55"/>
<polygon fill="#63b8ff" stroke="#63b8ff" points="1069.39,-69.05 1079.38,-65.52 1069.36,-62.05 1069.39,-69.05"/>
</g>
<!-- Node14&#45;&gt;Node5 -->
<g id="edge20" class="edge">
<title>Node14&#45;&gt;Node5</title>
<path fill="none" stroke="#63b8ff" d="M346.3,-175.71C350.13,-159.5 360.76,-125.19 384.5,-110 441.81,-73.33 910.98,-66.88 1069.44,-65.74"/>
<polygon fill="#63b8ff" stroke="#63b8ff" points="1069.25,-69.24 1079.23,-65.68 1069.21,-62.24 1069.25,-69.24"/>
</g>
<!-- Node15&#45;&gt;Node5 -->
<g id="edge22" class="edge">
<title>Node15&#45;&gt;Node5</title>
<path fill="none" stroke="#63b8ff" d="M500.31,-119.34C627.37,-108.32 944.67,-80.83 1069.69,-69.99"/>
<polygon fill="#63b8ff" stroke="#63b8ff" points="1069.66,-73.51 1079.32,-69.16 1069.06,-66.53 1069.66,-73.51"/>
</g>
<!-- Node16&#45;&gt;Node5 -->
<g id="edge24" class="edge">
<title>Node16&#45;&gt;Node5</title>
<path fill="none" stroke="#63b8ff" d="M532.43,-175.56C572.2,-159.73 659.16,-126.85 735.5,-110 853.21,-84.02 994.66,-72.63 1069.36,-68.11"/>
<polygon fill="#63b8ff" stroke="#63b8ff" points="1069.47,-71.61 1079.25,-67.54 1069.06,-64.63 1069.47,-71.61"/>
</g>
<!-- Node18&#45;&gt;Node5 -->
<g id="edge27" class="edge">
<title>Node18&#45;&gt;Node5</title>
<path fill="none" stroke="#63b8ff" d="M657.87,-175.61C689.41,-159.86 758.56,-127.12 820.5,-110 906.12,-86.34 1009.14,-74.56 1069.75,-69.27"/>
<polygon fill="#63b8ff" stroke="#63b8ff" points="1069.75,-72.78 1079.42,-68.45 1069.16,-65.8 1069.75,-72.78"/>
</g>
<!-- Node19&#45;&gt;Node5 -->
<g id="edge29" class="edge">
<title>Node19&#45;&gt;Node5</title>
<path fill="none" stroke="#63b8ff" d="M1083.99,-115.37C1090.36,-106.9 1100.26,-93.74 1108.29,-83.07"/>
<polygon fill="#63b8ff" stroke="#63b8ff" points="1110.86,-85.47 1114.07,-75.38 1105.26,-81.26 1110.86,-85.47"/>
</g>
<!-- Node20&#45;&gt;Node5 -->
<g id="edge32" class="edge">
<title>Node20&#45;&gt;Node5</title>
<path fill="none" stroke="#63b8ff" d="M919.06,-115.05C960.53,-104.9 1028.29,-88.31 1073.87,-77.16"/>
<polygon fill="#63b8ff" stroke="#63b8ff" points="1074.59,-80.58 1083.47,-74.81 1072.93,-73.79 1074.59,-80.58"/>
</g>
<!-- Node21&#45;&gt;Node5 -->
<g id="edge34" class="edge">
<title>Node21&#45;&gt;Node5</title>
<path fill="none" stroke="#63b8ff" d="M853.37,-175.66C877.2,-167.04 914.09,-153.31 945.5,-140 974.42,-127.74 980.67,-122.47 1009.5,-110 1035.29,-98.84 1064.85,-87.14 1087.12,-78.54"/>
<polygon fill="#63b8ff" stroke="#63b8ff" points="1088.24,-81.86 1096.32,-75.01 1085.73,-75.33 1088.24,-81.86"/>
</g>
<!-- Node22&#45;&gt;Node5 -->
<g id="edge36" class="edge">
<title>Node22&#45;&gt;Node5</title>
<path fill="none" stroke="#63b8ff" d="M1164.85,-175.55C1162.06,-161.32 1155.8,-132.82 1146.5,-110 1142.91,-101.19 1137.93,-91.94 1133.36,-84.17"/>
<polygon fill="#63b8ff" stroke="#63b8ff" points="1136.36,-82.36 1128.15,-75.66 1130.39,-86.02 1136.36,-82.36"/>
</g>
<!-- Node23&#45;&gt;Node5 -->
<g id="edge38" class="edge">
<title>Node23&#45;&gt;Node5</title>
<path fill="none" stroke="#63b8ff" d="M1303,-115.12C1266.23,-105.06 1206.17,-88.65 1165.29,-77.47"/>
<polygon fill="#63b8ff" stroke="#63b8ff" points="1166.34,-74.13 1155.77,-74.87 1164.49,-80.88 1166.34,-74.13"/>
</g>
<!-- Node24&#45;&gt;Node22 -->
<g id="edge40" class="edge">
<title>Node24&#45;&gt;Node22</title>
<path fill="none" stroke="#63b8ff" d="M1165.67,-230.75C1165.79,-224.27 1165.96,-215.16 1166.12,-206.9"/>
<polygon fill="#63b8ff" stroke="#63b8ff" points="1169.61,-207.02 1166.3,-196.96 1162.61,-206.89 1169.61,-207.02"/>
</g>
<!-- Node25&#45;&gt;Node26 -->
<g id="edge42" class="edge">
<title>Node25&#45;&gt;Node26</title>
<path fill="none" stroke="#63b8ff" d="M843.95,-230.51C868.26,-221.92 905.16,-208.88 932.49,-199.22"/>
<polygon fill="#63b8ff" stroke="#63b8ff" points="933.49,-202.58 941.75,-195.95 931.16,-195.98 933.49,-202.58"/>
</g>
<!-- Node26&#45;&gt;Node19 -->
<g id="edge43" class="edge">
<title>Node26&#45;&gt;Node19</title>
<path fill="none" stroke="#63b8ff" d="M985.05,-175.62C1002.5,-166.25 1030.25,-151.36 1050.79,-140.33"/>
<polygon fill="#63b8ff" stroke="#63b8ff" points="1052.3,-143.5 1059.46,-135.68 1048.99,-137.33 1052.3,-143.5"/>
</g>
<!-- Node27&#45;&gt;Node26 -->
<g id="edge45" class="edge">
<title>Node27&#45;&gt;Node26</title>
<path fill="none" stroke="#63b8ff" d="M989.37,-230.75C986.17,-223.96 981.61,-214.3 977.57,-205.73"/>
<polygon fill="#63b8ff" stroke="#63b8ff" points="980.8,-204.36 973.36,-196.81 974.46,-207.35 980.8,-204.36"/>
</g>
<!-- Node28&#45;&gt;Node5 -->
<g id="edge47" class="edge">
<title>Node28&#45;&gt;Node5</title>
<path fill="none" stroke="#63b8ff" d="M1426.58,-175.74C1424.42,-159.89 1417.5,-126.58 1396.5,-110 1362.79,-83.38 1243.49,-72.28 1173.58,-67.97"/>
<polygon fill="#63b8ff" stroke="#63b8ff" points="1174.09,-64.5 1163.9,-67.41 1173.68,-71.49 1174.09,-64.5"/>
</g>
<!-- Node29&#45;&gt;Node5 -->
<g id="edge49" class="edge">
<title>Node29&#45;&gt;Node5</title>
<path fill="none" stroke="#63b8ff" d="M1456.63,-115.05C1447.68,-113.28 1438.29,-111.51 1429.5,-110 1339.96,-94.59 1235.16,-80.22 1173.78,-72.18"/>
<polygon fill="#63b8ff" stroke="#63b8ff" points="1174.33,-68.72 1163.96,-70.9 1173.43,-75.66 1174.33,-68.72"/>
</g>
<!-- Node30&#45;&gt;Node5 -->
<g id="edge51" class="edge">
<title>Node30&#45;&gt;Node5</title>
<path fill="none" stroke="#63b8ff" d="M1334.08,-230.63C1298.29,-202.82 1187.89,-117.07 1141.92,-81.36"/>
<polygon fill="#63b8ff" stroke="#63b8ff" points="1144.13,-78.65 1134.09,-75.28 1139.84,-84.18 1144.13,-78.65"/>
</g>
<!-- Node30&#45;&gt;Node22 -->
<g id="edge52" class="edge">
<title>Node30&#45;&gt;Node22</title>
<path fill="none" stroke="#63b8ff" d="M1315.14,-230.51C1285.6,-221.76 1240.52,-208.42 1207.75,-198.71"/>
<polygon fill="#63b8ff" stroke="#63b8ff" points="1208.75,-195.36 1198.17,-195.88 1206.76,-202.07 1208.75,-195.36"/>
</g>
<!-- Node31&#45;&gt;Node5 -->
<g id="edge54" class="edge">
<title>Node31&#45;&gt;Node5</title>
<path fill="none" stroke="#63b8ff" d="M1592.05,-175.64C1590.71,-159.64 1585.42,-126.09 1564.5,-110 1534.06,-86.59 1283.95,-72.71 1173.54,-67.67"/>
<polygon fill="#63b8ff" stroke="#63b8ff" points="1174.02,-64.19 1163.87,-67.24 1173.71,-71.18 1174.02,-64.19"/>
</g>
<!-- Node33&#45;&gt;Node5 -->
<g id="edge60" class="edge">
<title>Node33&#45;&gt;Node5</title>
<path fill="none" stroke="#63b8ff" d="M1785.02,-111.16C1782.14,-110.74 1779.3,-110.35 1776.5,-110 1553.14,-81.93 1284.55,-70.69 1173.47,-67.01"/>
<polygon fill="#63b8ff" stroke="#63b8ff" points="1173.9,-63.52 1163.79,-66.7 1173.67,-70.52 1173.9,-63.52"/>
</g>
</g>
</svg>
