<?xml version="1.0" encoding="UTF-8" standalone="no"?>
<!DOCTYPE svg PUBLIC "-//W3C//DTD SVG 1.1//EN"
 "http://www.w3.org/Graphics/SVG/1.1/DTD/svg11.dtd">
<!-- Generated by graphviz version 2.46.0 (20210122.1329)
 -->
<!-- Title: include/os/OS.h Pages: 1 -->
<svg width="5539pt" height="229pt"
 viewBox="0.00 0.00 5538.55 229.00" xmlns="http://www.w3.org/2000/svg" xmlns:xlink="http://www.w3.org/1999/xlink">
<g id="graph0" class="graph" transform="scale(1 1) rotate(0) translate(4 225)">
<title>include/os/OS.h</title>
<polygon fill="white" stroke="transparent" points="-4,4 -4,-225 5534.55,-225 5534.55,4 -4,4"/>
<!-- Node1 -->
<g id="node1" class="node">
<title>Node1</title>
<g id="a_node1"><a xlink:title=" ">
<polygon fill="#bfbfbf" stroke="black" points="2889.55,-201.5 2889.55,-220.5 2975.55,-220.5 2975.55,-201.5 2889.55,-201.5"/>
<text text-anchor="middle" x="2932.55" y="-208.5" font-family="Helvetica,sans-Serif" font-size="10.00">include/os/OS.h</text>
</a>
</g>
</g>
<!-- Node2 -->
<g id="node2" class="node">
<title>Node2</title>
<g id="a_node2"><a xlink:href="d__kankyo_8cpp.html" target="_top" xlink:title=" ">
<polygon fill="white" stroke="black" points="22.05,-73 22.05,-92 123.05,-92 123.05,-73 22.05,-73"/>
<text text-anchor="middle" x="72.55" y="-80" font-family="Helvetica,sans-Serif" font-size="10.00">src/d/d_kankyo.cpp</text>
</a>
</g>
</g>
<!-- Node1&#45;&gt;Node2 -->
<g id="edge1" class="edge">
<title>Node1&#45;&gt;Node2</title>
<path fill="none" stroke="midnightblue" d="M2879.44,-206.97C2830.72,-202.55 2757.56,-191.69 2699.55,-165 2679.44,-155.75 2681.41,-141.45 2660.55,-134 2528.22,-86.75 270.93,-115.88 131.55,-98 121.72,-96.74 111.15,-94.45 101.72,-92.05"/>
<polygon fill="midnightblue" stroke="midnightblue" points="2879.19,-210.47 2889.45,-207.82 2879.78,-203.49 2879.19,-210.47"/>
</g>
<!-- Node3 -->
<g id="node3" class="node">
<title>Node3</title>
<g id="a_node3"><a xlink:href="d__kyeff_8cpp.html" target="_top" xlink:title=" ">
<polygon fill="white" stroke="black" points="2539.05,-140 2539.05,-159 2652.05,-159 2652.05,-140 2539.05,-140"/>
<text text-anchor="middle" x="2595.55" y="-147" font-family="Helvetica,sans-Serif" font-size="10.00">src/d/d_ky/d_kyeff.cpp</text>
</a>
</g>
</g>
<!-- Node1&#45;&gt;Node3 -->
<g id="edge2" class="edge">
<title>Node1&#45;&gt;Node3</title>
<path fill="none" stroke="midnightblue" d="M2879.17,-201.51C2825.4,-192.84 2740.09,-178.72 2666.55,-165 2656.66,-163.15 2646.02,-161.04 2636.06,-159.02"/>
<polygon fill="midnightblue" stroke="midnightblue" points="2878.74,-204.99 2889.17,-203.12 2879.85,-198.08 2878.74,-204.99"/>
</g>
<!-- Node4 -->
<g id="node4" class="node">
<title>Node4</title>
<g id="a_node4"><a xlink:href="d__lib_8cpp.html" target="_top" xlink:title=" ">
<polygon fill="white" stroke="black" points="5374.55,-73 5374.55,-92 5454.55,-92 5454.55,-73 5374.55,-73"/>
<text text-anchor="middle" x="5414.55" y="-80" font-family="Helvetica,sans-Serif" font-size="10.00">src/d/d_lib.cpp</text>
</a>
</g>
</g>
<!-- Node1&#45;&gt;Node4 -->
<g id="edge3" class="edge">
<title>Node1&#45;&gt;Node4</title>
<path fill="none" stroke="midnightblue" d="M2985.9,-209.7C3337.35,-207.65 5307.81,-194.81 5361.55,-165 5390.48,-148.96 5406.18,-109.71 5411.95,-92.19"/>
<polygon fill="midnightblue" stroke="midnightblue" points="2985.72,-206.2 2975.74,-209.76 2985.76,-213.2 2985.72,-206.2"/>
</g>
<!-- Node5 -->
<g id="node5" class="node">
<title>Node5</title>
<g id="a_node5"><a xlink:href="d__save_8cpp.html" target="_top" xlink:title=" ">
<polygon fill="white" stroke="black" points="2709.05,-140 2709.05,-159 2834.05,-159 2834.05,-140 2709.05,-140"/>
<text text-anchor="middle" x="2771.55" y="-147" font-family="Helvetica,sans-Serif" font-size="10.00">src/d/d_save/d_save.cpp</text>
</a>
</g>
</g>
<!-- Node1&#45;&gt;Node5 -->
<g id="edge4" class="edge">
<title>Node1&#45;&gt;Node5</title>
<path fill="none" stroke="midnightblue" d="M2899.9,-197.93C2868.61,-186.37 2822.18,-169.21 2794.58,-159.01"/>
<polygon fill="midnightblue" stroke="midnightblue" points="2898.89,-201.29 2909.49,-201.48 2901.32,-194.73 2898.89,-201.29"/>
</g>
<!-- Node6 -->
<g id="node6" class="node">
<title>Node6</title>
<g id="a_node6"><a xlink:href="m__Do__printf_8cpp.html" target="_top" xlink:title=" ">
<polygon fill="white" stroke="black" points="187.55,-6 187.55,-25 319.55,-25 319.55,-6 187.55,-6"/>
<text text-anchor="middle" x="253.55" y="-13" font-family="Helvetica,sans-Serif" font-size="10.00">src/m_Do/m_Do_printf.cpp</text>
</a>
</g>
</g>
<!-- Node1&#45;&gt;Node6 -->
<g id="edge5" class="edge">
<title>Node1&#45;&gt;Node6</title>
<path fill="none" stroke="midnightblue" d="M2879.45,-210.03C2492.26,-210 115.94,-205.43 12.55,-98 -42.5,-40.8 98.58,-23.74 187.5,-18.66"/>
<polygon fill="midnightblue" stroke="midnightblue" points="2879.54,-213.53 2889.54,-210.03 2879.54,-206.53 2879.54,-213.53"/>
</g>
<!-- Node7 -->
<g id="node7" class="node">
<title>Node7</title>
<g id="a_node7"><a xlink:href="global_8h.html" target="_top" xlink:title=" ">
<polygon fill="white" stroke="red" points="2891.05,-140 2891.05,-159 2974.05,-159 2974.05,-140 2891.05,-140"/>
<text text-anchor="middle" x="2932.55" y="-147" font-family="Helvetica,sans-Serif" font-size="10.00">include/global.h</text>
</a>
</g>
</g>
<!-- Node1&#45;&gt;Node7 -->
<g id="edge6" class="edge">
<title>Node1&#45;&gt;Node7</title>
<path fill="none" stroke="midnightblue" d="M2932.55,-191.32C2932.55,-180.5 2932.55,-167.4 2932.55,-159.01"/>
<polygon fill="midnightblue" stroke="midnightblue" points="2929.05,-191.48 2932.55,-201.48 2936.05,-191.48 2929.05,-191.48"/>
</g>
<!-- Node194 -->
<g id="node46" class="node">
<title>Node194</title>
<g id="a_node46"><a xlink:href="m__Do__ext_8h.html" target="_top" xlink:title=" ">
<polygon fill="white" stroke="red" points="4810.55,-67.5 4810.55,-97.5 4932.55,-97.5 4932.55,-67.5 4810.55,-67.5"/>
<text text-anchor="start" x="4818.55" y="-85.5" font-family="Helvetica,sans-Serif" font-size="10.00">include/m_Do/m_Do_ext</text>
<text text-anchor="middle" x="4871.55" y="-74.5" font-family="Helvetica,sans-Serif" font-size="10.00">/m_Do_ext.h</text>
</a>
</g>
</g>
<!-- Node1&#45;&gt;Node194 -->
<g id="edge63" class="edge">
<title>Node1&#45;&gt;Node194</title>
<path fill="none" stroke="midnightblue" d="M2985.65,-209.62C3208.16,-207.43 4087.07,-192.9 4801.55,-98 4804.38,-97.62 4807.27,-97.2 4810.18,-96.74"/>
<polygon fill="midnightblue" stroke="midnightblue" points="2985.52,-206.12 2975.56,-209.71 2985.59,-213.12 2985.52,-206.12"/>
</g>
<!-- Node260 -->
<g id="node47" class="node">
<title>Node260</title>
<g id="a_node47"><a xlink:href="m__Do__printf_8h.html" target="_top" xlink:title=" ">
<polygon fill="white" stroke="red" points="141.05,-67.5 141.05,-97.5 272.05,-97.5 272.05,-67.5 141.05,-67.5"/>
<text text-anchor="start" x="149.05" y="-85.5" font-family="Helvetica,sans-Serif" font-size="10.00">include/m_Do/m_Do_printf</text>
<text text-anchor="middle" x="206.55" y="-74.5" font-family="Helvetica,sans-Serif" font-size="10.00">/m_Do_printf.h</text>
</a>
</g>
</g>
<!-- Node1&#45;&gt;Node260 -->
<g id="edge64" class="edge">
<title>Node1&#45;&gt;Node260</title>
<path fill="none" stroke="midnightblue" d="M2914.85,-194.52C2889.89,-172.77 2846.88,-135.62 2842.55,-134 2709.16,-84.15 421.17,-112.93 279.55,-98 277.11,-97.74 274.63,-97.44 272.13,-97.11"/>
<polygon fill="midnightblue" stroke="midnightblue" points="2912.71,-197.3 2922.54,-201.23 2917.31,-192.02 2912.71,-197.3"/>
</g>
<!-- Node327 -->
<g id="node48" class="node">
<title>Node327</title>
<g id="a_node48"><a xlink:href="JKRAramPiece_8h.html" target="_top" xlink:title=" ">
<polygon fill="white" stroke="red" points="5188.55,-134.5 5188.55,-164.5 5352.55,-164.5 5352.55,-134.5 5188.55,-134.5"/>
<text text-anchor="start" x="5196.55" y="-152.5" font-family="Helvetica,sans-Serif" font-size="10.00">include/JSystem/JKernel</text>
<text text-anchor="middle" x="5270.55" y="-141.5" font-family="Helvetica,sans-Serif" font-size="10.00">/JKRAramPiece/JKRAramPiece.h</text>
</a>
</g>
</g>
<!-- Node1&#45;&gt;Node327 -->
<g id="edge56" class="edge">
<title>Node1&#45;&gt;Node327</title>
<path fill="none" stroke="midnightblue" d="M2985.84,-209.93C3282.55,-209.4 4733.78,-204.79 5179.55,-165 5182.42,-164.74 5185.34,-164.45 5188.28,-164.13"/>
<polygon fill="midnightblue" stroke="midnightblue" points="2985.77,-206.43 2975.77,-209.95 2985.78,-213.43 2985.77,-206.43"/>
</g>
<!-- Node262 -->
<g id="node49" class="node">
<title>Node262</title>
<g id="a_node49"><a xlink:href="JUTGamePad_8h.html" target="_top" xlink:title=" ">
<polygon fill="white" stroke="red" points="5015.05,-134.5 5015.05,-164.5 5170.05,-164.5 5170.05,-134.5 5015.05,-134.5"/>
<text text-anchor="start" x="5023.05" y="-152.5" font-family="Helvetica,sans-Serif" font-size="10.00">include/JSystem/JUtility</text>
<text text-anchor="middle" x="5092.55" y="-141.5" font-family="Helvetica,sans-Serif" font-size="10.00">/JUTGamePad/JUTGamePad.h</text>
</a>
</g>
</g>
<!-- Node1&#45;&gt;Node262 -->
<g id="edge57" class="edge">
<title>Node1&#45;&gt;Node262</title>
<path fill="none" stroke="midnightblue" d="M2985.98,-208.53C3276.88,-200.51 4669.66,-162.15 5014.96,-152.64"/>
<polygon fill="midnightblue" stroke="midnightblue" points="2985.6,-205.04 2975.7,-208.81 2985.79,-212.03 2985.6,-205.04"/>
</g>
<!-- Node328 -->
<g id="node50" class="node">
<title>Node328</title>
<g id="a_node50"><a xlink:href="JUTVideo_8h.html" target="_top" xlink:title=" ">
<polygon fill="white" stroke="red" points="5408.55,-134.5 5408.55,-164.5 5530.55,-164.5 5530.55,-134.5 5408.55,-134.5"/>
<text text-anchor="start" x="5416.55" y="-152.5" font-family="Helvetica,sans-Serif" font-size="10.00">include/JSystem/JUtility</text>
<text text-anchor="middle" x="5469.55" y="-141.5" font-family="Helvetica,sans-Serif" font-size="10.00">/JUTVideo/JUTVideo.h</text>
</a>
</g>
</g>
<!-- Node1&#45;&gt;Node328 -->
<g id="edge62" class="edge">
<title>Node1&#45;&gt;Node328</title>
<path fill="none" stroke="midnightblue" d="M2986.45,-209.57C3324.66,-206.83 5147.85,-190.91 5394.55,-165 5399.04,-164.53 5403.66,-163.93 5408.29,-163.24"/>
<polygon fill="midnightblue" stroke="midnightblue" points="2985.94,-206.08 2975.96,-209.66 2985.99,-213.08 2985.94,-206.08"/>
</g>
<!-- Node7&#45;&gt;Node2 -->
<g id="edge17" class="edge">
<title>Node7&#45;&gt;Node2</title>
<path fill="none" stroke="midnightblue" d="M2881.17,-138.89C2868.59,-136.91 2855.12,-135.09 2842.55,-134 2242.31,-81.94 729.19,-174.39 131.55,-98 121.72,-96.74 111.15,-94.45 101.72,-92.06"/>
<polygon fill="midnightblue" stroke="midnightblue" points="2880.61,-142.35 2891.04,-140.51 2881.74,-135.44 2880.61,-142.35"/>
</g>
<!-- Node7&#45;&gt;Node4 -->
<g id="edge20" class="edge">
<title>Node7&#45;&gt;Node4</title>
<path fill="none" stroke="midnightblue" d="M2984.84,-148.42C3290.62,-147.82 4850.28,-142.57 5327.55,-98 5342.95,-96.56 5359.74,-94 5374.43,-91.43"/>
<polygon fill="midnightblue" stroke="midnightblue" points="2984.49,-144.92 2974.49,-148.44 2984.5,-151.92 2984.49,-144.92"/>
</g>
<!-- Node7&#45;&gt;Node6 -->
<g id="edge47" class="edge">
<title>Node7&#45;&gt;Node6</title>
<path fill="none" stroke="midnightblue" d="M2894.91,-137.44C2888.82,-136.04 2882.55,-134.81 2876.55,-134 2735.75,-115.06 447.35,-160.06 319.55,-98 287.45,-82.41 265.82,-42.92 257.44,-25.26"/>
<polygon fill="midnightblue" stroke="midnightblue" points="2894.35,-140.91 2904.9,-139.94 2896.05,-134.12 2894.35,-140.91"/>
</g>
<!-- Node8 -->
<g id="node8" class="node">
<title>Node8</title>
<g id="a_node8"><a xlink:href="d__a__horse__static_8cpp.html" target="_top" xlink:title=" ">
<polygon fill="white" stroke="black" points="1334.05,-67.5 1334.05,-97.5 1439.05,-97.5 1439.05,-67.5 1334.05,-67.5"/>
<text text-anchor="start" x="1342.05" y="-85.5" font-family="Helvetica,sans-Serif" font-size="10.00">src/d/d_a/d_a_horse</text>
<text text-anchor="middle" x="1386.55" y="-74.5" font-family="Helvetica,sans-Serif" font-size="10.00">_static.cpp</text>
</a>
</g>
</g>
<!-- Node7&#45;&gt;Node8 -->
<g id="edge7" class="edge">
<title>Node7&#45;&gt;Node8</title>
<path fill="none" stroke="midnightblue" d="M2894.71,-137.46C2888.68,-136.06 2882.48,-134.83 2876.55,-134 2247.83,-45.86 2078.27,-178.71 1448.55,-98 1445.48,-97.61 1442.34,-97.13 1439.19,-96.58"/>
<polygon fill="midnightblue" stroke="midnightblue" points="2894.06,-140.9 2904.61,-139.93 2895.75,-134.11 2894.06,-140.9"/>
</g>
<!-- Node9 -->
<g id="node9" class="node">
<title>Node9</title>
<g id="a_node9"><a xlink:href="d__a__item__static_8cpp.html" target="_top" xlink:title=" ">
<polygon fill="white" stroke="black" points="1457.55,-67.5 1457.55,-97.5 1557.55,-97.5 1557.55,-67.5 1457.55,-67.5"/>
<text text-anchor="start" x="1465.55" y="-85.5" font-family="Helvetica,sans-Serif" font-size="10.00">src/d/d_a/d_a_item</text>
<text text-anchor="middle" x="1507.55" y="-74.5" font-family="Helvetica,sans-Serif" font-size="10.00">_static.cpp</text>
</a>
</g>
</g>
<!-- Node7&#45;&gt;Node9 -->
<g id="edge8" class="edge">
<title>Node7&#45;&gt;Node9</title>
<path fill="none" stroke="midnightblue" d="M2894.71,-137.47C2888.68,-136.07 2882.48,-134.84 2876.55,-134 2299.85,-52.48 2143.76,-175.95 1566.55,-98 1563.63,-97.6 1560.64,-97.12 1557.63,-96.58"/>
<polygon fill="midnightblue" stroke="midnightblue" points="2894.05,-140.91 2904.6,-139.94 2895.75,-134.12 2894.05,-140.91"/>
</g>
<!-- Node10 -->
<g id="node10" class="node">
<title>Node10</title>
<g id="a_node10"><a xlink:href="d__attention_8cpp.html" target="_top" xlink:title=" ">
<polygon fill="white" stroke="black" points="3783.05,-6 3783.05,-25 3890.05,-25 3890.05,-6 3783.05,-6"/>
<text text-anchor="middle" x="3836.55" y="-13" font-family="Helvetica,sans-Serif" font-size="10.00">src/d/d_attention.cpp</text>
</a>
</g>
</g>
<!-- Node7&#45;&gt;Node10 -->
<g id="edge9" class="edge">
<title>Node7&#45;&gt;Node10</title>
<path fill="none" stroke="midnightblue" d="M2931.08,-129.82C2930.71,-110.85 2933.52,-82.17 2951.55,-67 2983.46,-40.16 3595.77,-22.57 3782.77,-17.8"/>
<polygon fill="midnightblue" stroke="midnightblue" points="2927.59,-130.12 2931.58,-139.93 2934.58,-129.77 2927.59,-130.12"/>
</g>
<!-- Node11 -->
<g id="node11" class="node">
<title>Node11</title>
<g id="a_node11"><a xlink:href="d__bg__s__poly__pass__chk_8cpp.html" target="_top" xlink:title=" ">
<polygon fill="white" stroke="black" points="1576.05,-67.5 1576.05,-97.5 1695.05,-97.5 1695.05,-67.5 1576.05,-67.5"/>
<text text-anchor="start" x="1584.05" y="-85.5" font-family="Helvetica,sans-Serif" font-size="10.00">src/d/d_bg/d_bg_s_poly</text>
<text text-anchor="middle" x="1635.55" y="-74.5" font-family="Helvetica,sans-Serif" font-size="10.00">_pass_chk.cpp</text>
</a>
</g>
</g>
<!-- Node7&#45;&gt;Node11 -->
<g id="edge10" class="edge">
<title>Node7&#45;&gt;Node11</title>
<path fill="none" stroke="midnightblue" d="M2894.7,-137.49C2888.68,-136.08 2882.48,-134.85 2876.55,-134 2360.23,-60.17 2221.36,-160.64 1703.55,-98 1700.8,-97.67 1697.99,-97.28 1695.16,-96.84"/>
<polygon fill="midnightblue" stroke="midnightblue" points="2894.05,-140.93 2904.6,-139.96 2895.75,-134.14 2894.05,-140.93"/>
</g>
<!-- Node12 -->
<g id="node12" class="node">
<title>Node12</title>
<g id="a_node12"><a xlink:href="d__com__inf__game_8cpp.html" target="_top" xlink:title=" ">
<polygon fill="white" stroke="black" points="4812.05,-0.5 4812.05,-30.5 4931.05,-30.5 4931.05,-0.5 4812.05,-0.5"/>
<text text-anchor="start" x="4820.05" y="-18.5" font-family="Helvetica,sans-Serif" font-size="10.00">src/d/d_com/d_com_inf</text>
<text text-anchor="middle" x="4871.55" y="-7.5" font-family="Helvetica,sans-Serif" font-size="10.00">_game.cpp</text>
</a>
</g>
</g>
<!-- Node7&#45;&gt;Node12 -->
<g id="edge11" class="edge">
<title>Node7&#45;&gt;Node12</title>
<path fill="none" stroke="midnightblue" d="M2984.28,-148.19C3295.45,-146.19 4906.35,-134.1 4941.55,-98 4963.56,-75.43 4926.01,-47.14 4897.94,-30.52"/>
<polygon fill="midnightblue" stroke="midnightblue" points="2984.16,-144.69 2974.18,-148.25 2984.2,-151.69 2984.16,-144.69"/>
</g>
<!-- Node13 -->
<g id="node13" class="node">
<title>Node13</title>
<g id="a_node13"><a xlink:href="d__file__sel__info_8cpp.html" target="_top" xlink:title=" ">
<polygon fill="white" stroke="black" points="1713.05,-67.5 1713.05,-97.5 1802.05,-97.5 1802.05,-67.5 1713.05,-67.5"/>
<text text-anchor="start" x="1721.05" y="-85.5" font-family="Helvetica,sans-Serif" font-size="10.00">src/d/d_file/d_file</text>
<text text-anchor="middle" x="1757.55" y="-74.5" font-family="Helvetica,sans-Serif" font-size="10.00">_sel_info.cpp</text>
</a>
</g>
</g>
<!-- Node7&#45;&gt;Node13 -->
<g id="edge12" class="edge">
<title>Node7&#45;&gt;Node13</title>
<path fill="none" stroke="midnightblue" d="M2894.7,-137.5C2888.68,-136.1 2882.48,-134.86 2876.55,-134 2407.38,-66.18 2279.25,-169.03 1810.55,-98 1807.82,-97.59 1805.02,-97.08 1802.22,-96.51"/>
<polygon fill="midnightblue" stroke="midnightblue" points="2894.05,-140.95 2904.6,-139.98 2895.75,-134.16 2894.05,-140.95"/>
</g>
<!-- Node14 -->
<g id="node14" class="node">
<title>Node14</title>
<g id="a_node14"><a xlink:href="d__item_8cpp.html" target="_top" xlink:title=" ">
<polygon fill="white" stroke="black" points="1820.05,-73 1820.05,-92 1941.05,-92 1941.05,-73 1820.05,-73"/>
<text text-anchor="middle" x="1880.55" y="-80" font-family="Helvetica,sans-Serif" font-size="10.00">src/d/d_item/d_item.cpp</text>
</a>
</g>
</g>
<!-- Node7&#45;&gt;Node14 -->
<g id="edge13" class="edge">
<title>Node7&#45;&gt;Node14</title>
<path fill="none" stroke="midnightblue" d="M2894.5,-137.48C2888.54,-136.1 2882.41,-134.86 2876.55,-134 2468.64,-73.98 2358.75,-148.58 1949.55,-98 1938.38,-96.62 1926.32,-94.36 1915.47,-92.03"/>
<polygon fill="midnightblue" stroke="midnightblue" points="2893.76,-140.91 2904.31,-139.93 2895.45,-134.11 2893.76,-140.91"/>
</g>
<!-- Node15 -->
<g id="node15" class="node">
<title>Node15</title>
<g id="a_node15"><a xlink:href="d__kankyo__data_8cpp.html" target="_top" xlink:title=" ">
<polygon fill="white" stroke="black" points="1959.05,-67.5 1959.05,-97.5 2086.05,-97.5 2086.05,-67.5 1959.05,-67.5"/>
<text text-anchor="start" x="1967.05" y="-85.5" font-family="Helvetica,sans-Serif" font-size="10.00">src/d/d_kankyo/d_kankyo</text>
<text text-anchor="middle" x="2022.55" y="-74.5" font-family="Helvetica,sans-Serif" font-size="10.00">_data.cpp</text>
</a>
</g>
</g>
<!-- Node7&#45;&gt;Node15 -->
<g id="edge14" class="edge">
<title>Node7&#45;&gt;Node15</title>
<path fill="none" stroke="midnightblue" d="M2894.5,-137.52C2888.53,-136.13 2882.41,-134.88 2876.55,-134 2532.52,-82.12 2439.88,-140.47 2094.55,-98 2091.77,-97.66 2088.93,-97.27 2086.07,-96.84"/>
<polygon fill="midnightblue" stroke="midnightblue" points="2893.75,-140.94 2904.3,-139.97 2895.45,-134.15 2893.75,-140.94"/>
</g>
<!-- Node16 -->
<g id="node16" class="node">
<title>Node16</title>
<g id="a_node16"><a xlink:href="d__kankyo__rain_8cpp.html" target="_top" xlink:title=" ">
<polygon fill="white" stroke="black" points="2104.05,-67.5 2104.05,-97.5 2231.05,-97.5 2231.05,-67.5 2104.05,-67.5"/>
<text text-anchor="start" x="2112.05" y="-85.5" font-family="Helvetica,sans-Serif" font-size="10.00">src/d/d_kankyo/d_kankyo</text>
<text text-anchor="middle" x="2167.55" y="-74.5" font-family="Helvetica,sans-Serif" font-size="10.00">_rain.cpp</text>
</a>
</g>
</g>
<!-- Node7&#45;&gt;Node16 -->
<g id="edge15" class="edge">
<title>Node7&#45;&gt;Node16</title>
<path fill="none" stroke="midnightblue" d="M2894.29,-137.53C2888.39,-136.15 2882.34,-134.9 2876.55,-134 2596.39,-90.25 2520.81,-134.08 2239.55,-98 2236.77,-97.64 2233.94,-97.24 2231.08,-96.8"/>
<polygon fill="midnightblue" stroke="midnightblue" points="2893.46,-140.93 2904.01,-139.95 2895.15,-134.14 2893.46,-140.93"/>
</g>
<!-- Node17 -->
<g id="node17" class="node">
<title>Node17</title>
<g id="a_node17"><a xlink:href="d__kankyo__wether_8cpp.html" target="_top" xlink:title=" ">
<polygon fill="white" stroke="black" points="2249.05,-67.5 2249.05,-97.5 2376.05,-97.5 2376.05,-67.5 2249.05,-67.5"/>
<text text-anchor="start" x="2257.05" y="-85.5" font-family="Helvetica,sans-Serif" font-size="10.00">src/d/d_kankyo/d_kankyo</text>
<text text-anchor="middle" x="2312.55" y="-74.5" font-family="Helvetica,sans-Serif" font-size="10.00">_wether.cpp</text>
</a>
</g>
</g>
<!-- Node7&#45;&gt;Node17 -->
<g id="edge16" class="edge">
<title>Node7&#45;&gt;Node17</title>
<path fill="none" stroke="midnightblue" d="M2893.66,-137.47C2887.96,-136.13 2882.13,-134.92 2876.55,-134 2660.22,-98.38 2601.79,-127.7 2384.55,-98 2381.78,-97.62 2378.94,-97.2 2376.08,-96.74"/>
<polygon fill="midnightblue" stroke="midnightblue" points="2893.15,-140.95 2903.7,-139.97 2894.84,-134.16 2893.15,-140.95"/>
</g>
<!-- Node18 -->
<g id="node18" class="node">
<title>Node18</title>
<g id="a_node18"><a xlink:href="d__kantera__icon__meter_8cpp.html" target="_top" xlink:title=" ">
<polygon fill="white" stroke="black" points="2394.05,-67.5 2394.05,-97.5 2501.05,-97.5 2501.05,-67.5 2394.05,-67.5"/>
<text text-anchor="start" x="2402.05" y="-85.5" font-family="Helvetica,sans-Serif" font-size="10.00">src/d/d_kantera_icon</text>
<text text-anchor="middle" x="2447.55" y="-74.5" font-family="Helvetica,sans-Serif" font-size="10.00">_meter.cpp</text>
</a>
</g>
</g>
<!-- Node7&#45;&gt;Node18 -->
<g id="edge18" class="edge">
<title>Node7&#45;&gt;Node18</title>
<path fill="none" stroke="midnightblue" d="M2893.26,-137.5C2887.68,-136.18 2881.99,-134.96 2876.55,-134 2715.18,-105.37 2671.26,-124.72 2509.55,-98 2506.83,-97.55 2504.04,-97.05 2501.24,-96.51"/>
<polygon fill="midnightblue" stroke="midnightblue" points="2892.55,-140.94 2903.1,-139.96 2894.24,-134.14 2892.55,-140.94"/>
</g>
<!-- Node19 -->
<g id="node19" class="node">
<title>Node19</title>
<g id="a_node19"><a xlink:href="d__kyeff2_8cpp.html" target="_top" xlink:title=" ">
<polygon fill="white" stroke="black" points="2519.05,-73 2519.05,-92 2638.05,-92 2638.05,-73 2519.05,-73"/>
<text text-anchor="middle" x="2578.55" y="-80" font-family="Helvetica,sans-Serif" font-size="10.00">src/d/d_ky/d_kyeff2.cpp</text>
</a>
</g>
</g>
<!-- Node7&#45;&gt;Node19 -->
<g id="edge19" class="edge">
<title>Node7&#45;&gt;Node19</title>
<path fill="none" stroke="midnightblue" d="M2892.04,-137.51C2886.85,-136.25 2881.59,-135.04 2876.55,-134 2775.24,-113.01 2748.3,-116.8 2646.55,-98 2636.94,-96.22 2626.6,-94.12 2616.96,-92.07"/>
<polygon fill="midnightblue" stroke="midnightblue" points="2891.32,-140.94 2901.87,-139.98 2893.03,-134.15 2891.32,-140.94"/>
</g>
<!-- Node20 -->
<g id="node20" class="node">
<title>Node20</title>
<g id="a_node20"><a xlink:href="d__meter__button_8cpp.html" target="_top" xlink:title=" ">
<polygon fill="white" stroke="black" points="2656.05,-67.5 2656.05,-97.5 2771.05,-97.5 2771.05,-67.5 2656.05,-67.5"/>
<text text-anchor="start" x="2664.05" y="-85.5" font-family="Helvetica,sans-Serif" font-size="10.00">src/d/d_meter/d_meter</text>
<text text-anchor="middle" x="2713.55" y="-74.5" font-family="Helvetica,sans-Serif" font-size="10.00">_button.cpp</text>
</a>
</g>
</g>
<!-- Node7&#45;&gt;Node20 -->
<g id="edge21" class="edge">
<title>Node7&#45;&gt;Node20</title>
<path fill="none" stroke="midnightblue" d="M2893.53,-136.92C2856.39,-125.9 2800.46,-109.29 2760.82,-97.53"/>
<polygon fill="midnightblue" stroke="midnightblue" points="2892.89,-140.38 2903.47,-139.87 2894.88,-133.67 2892.89,-140.38"/>
</g>
<!-- Node21 -->
<g id="node21" class="node">
<title>Node21</title>
<g id="a_node21"><a xlink:href="d__meter__haihai_8cpp.html" target="_top" xlink:title=" ">
<polygon fill="white" stroke="black" points="2789.05,-67.5 2789.05,-97.5 2904.05,-97.5 2904.05,-67.5 2789.05,-67.5"/>
<text text-anchor="start" x="2797.05" y="-85.5" font-family="Helvetica,sans-Serif" font-size="10.00">src/d/d_meter/d_meter</text>
<text text-anchor="middle" x="2846.55" y="-74.5" font-family="Helvetica,sans-Serif" font-size="10.00">_haihai.cpp</text>
</a>
</g>
</g>
<!-- Node7&#45;&gt;Node21 -->
<g id="edge22" class="edge">
<title>Node7&#45;&gt;Node21</title>
<path fill="none" stroke="midnightblue" d="M2912.77,-133.54C2898.45,-122.73 2879.24,-108.2 2865.2,-97.59"/>
<polygon fill="midnightblue" stroke="midnightblue" points="2910.87,-136.5 2920.96,-139.73 2915.09,-130.91 2910.87,-136.5"/>
</g>
<!-- Node22 -->
<g id="node22" class="node">
<title>Node22</title>
<g id="a_node22"><a xlink:href="d__meter__hakusha_8cpp.html" target="_top" xlink:title=" ">
<polygon fill="white" stroke="black" points="2961.05,-67.5 2961.05,-97.5 3076.05,-97.5 3076.05,-67.5 2961.05,-67.5"/>
<text text-anchor="start" x="2969.05" y="-85.5" font-family="Helvetica,sans-Serif" font-size="10.00">src/d/d_meter/d_meter</text>
<text text-anchor="middle" x="3018.55" y="-74.5" font-family="Helvetica,sans-Serif" font-size="10.00">_hakusha.cpp</text>
</a>
</g>
</g>
<!-- Node7&#45;&gt;Node22 -->
<g id="edge23" class="edge">
<title>Node7&#45;&gt;Node22</title>
<path fill="none" stroke="midnightblue" d="M2952.34,-133.54C2966.66,-122.73 2985.87,-108.2 2999.91,-97.59"/>
<polygon fill="midnightblue" stroke="midnightblue" points="2950.02,-130.91 2944.15,-139.73 2954.24,-136.5 2950.02,-130.91"/>
</g>
<!-- Node23 -->
<g id="node23" class="node">
<title>Node23</title>
<g id="a_node23"><a xlink:href="d__meter__HIO_8cpp.html" target="_top" xlink:title=" ">
<polygon fill="white" stroke="black" points="1912.05,-0.5 1912.05,-30.5 2027.05,-30.5 2027.05,-0.5 1912.05,-0.5"/>
<text text-anchor="start" x="1920.05" y="-18.5" font-family="Helvetica,sans-Serif" font-size="10.00">src/d/d_meter/d_meter</text>
<text text-anchor="middle" x="1969.55" y="-7.5" font-family="Helvetica,sans-Serif" font-size="10.00">_HIO.cpp</text>
</a>
</g>
</g>
<!-- Node7&#45;&gt;Node23 -->
<g id="edge24" class="edge">
<title>Node7&#45;&gt;Node23</title>
<path fill="none" stroke="midnightblue" d="M2894.9,-137.48C2888.82,-136.07 2882.55,-134.83 2876.55,-134 2829.16,-127.46 1188.03,-132.18 1154.55,-98 1144.91,-88.16 1145.12,-77.04 1154.55,-67 1180.47,-39.43 1730.02,-22.72 1911.77,-17.93"/>
<polygon fill="midnightblue" stroke="midnightblue" points="2894.35,-140.95 2904.9,-139.98 2896.04,-134.16 2894.35,-140.95"/>
</g>
<!-- Node24 -->
<g id="node24" class="node">
<title>Node24</title>
<g id="a_node24"><a xlink:href="d__meter__map_8cpp.html" target="_top" xlink:title=" ">
<polygon fill="white" stroke="black" points="3094.05,-67.5 3094.05,-97.5 3209.05,-97.5 3209.05,-67.5 3094.05,-67.5"/>
<text text-anchor="start" x="3102.05" y="-85.5" font-family="Helvetica,sans-Serif" font-size="10.00">src/d/d_meter/d_meter</text>
<text text-anchor="middle" x="3151.55" y="-74.5" font-family="Helvetica,sans-Serif" font-size="10.00">_map.cpp</text>
</a>
</g>
</g>
<!-- Node7&#45;&gt;Node24 -->
<g id="edge25" class="edge">
<title>Node7&#45;&gt;Node24</title>
<path fill="none" stroke="midnightblue" d="M2971.58,-136.92C3008.72,-125.9 3064.65,-109.29 3104.29,-97.53"/>
<polygon fill="midnightblue" stroke="midnightblue" points="2970.23,-133.67 2961.64,-139.87 2972.22,-140.38 2970.23,-133.67"/>
</g>
<!-- Node25 -->
<g id="node25" class="node">
<title>Node25</title>
<g id="a_node25"><a xlink:href="d__meter__string_8cpp.html" target="_top" xlink:title=" ">
<polygon fill="white" stroke="black" points="3227.05,-67.5 3227.05,-97.5 3342.05,-97.5 3342.05,-67.5 3227.05,-67.5"/>
<text text-anchor="start" x="3235.05" y="-85.5" font-family="Helvetica,sans-Serif" font-size="10.00">src/d/d_meter/d_meter</text>
<text text-anchor="middle" x="3284.55" y="-74.5" font-family="Helvetica,sans-Serif" font-size="10.00">_string.cpp</text>
</a>
</g>
</g>
<!-- Node7&#45;&gt;Node25 -->
<g id="edge26" class="edge">
<title>Node7&#45;&gt;Node25</title>
<path fill="none" stroke="midnightblue" d="M2984.06,-139.98C3041.22,-130.37 3136.16,-114.01 3217.55,-98 3220.59,-97.4 3223.7,-96.78 3226.84,-96.14"/>
<polygon fill="midnightblue" stroke="midnightblue" points="2983.47,-136.53 2974.18,-141.63 2984.62,-143.43 2983.47,-136.53"/>
</g>
<!-- Node26 -->
<g id="node26" class="node">
<title>Node26</title>
<g id="a_node26"><a xlink:href="d__meter_8cpp.html" target="_top" xlink:title=" ">
<polygon fill="white" stroke="black" points="3360.05,-73 3360.05,-92 3455.05,-92 3455.05,-73 3360.05,-73"/>
<text text-anchor="middle" x="3407.55" y="-80" font-family="Helvetica,sans-Serif" font-size="10.00">src/d/d_meter.cpp</text>
</a>
</g>
</g>
<!-- Node7&#45;&gt;Node26 -->
<g id="edge27" class="edge">
<title>Node7&#45;&gt;Node26</title>
<path fill="none" stroke="midnightblue" d="M2984.26,-144.41C3063.55,-137.66 3219.73,-122.44 3350.55,-98 3359.19,-96.39 3368.45,-94.22 3376.95,-92.06"/>
<polygon fill="midnightblue" stroke="midnightblue" points="2983.73,-140.94 2974.06,-145.27 2984.32,-147.92 2983.73,-140.94"/>
</g>
<!-- Node27 -->
<g id="node27" class="node">
<title>Node27</title>
<g id="a_node27"><a xlink:href="d__meter2__draw_8cpp.html" target="_top" xlink:title=" ">
<polygon fill="white" stroke="black" points="3473.05,-67.5 3473.05,-97.5 3598.05,-97.5 3598.05,-67.5 3473.05,-67.5"/>
<text text-anchor="start" x="3481.05" y="-85.5" font-family="Helvetica,sans-Serif" font-size="10.00">src/d/d_meter2/d_meter2</text>
<text text-anchor="middle" x="3535.55" y="-74.5" font-family="Helvetica,sans-Serif" font-size="10.00">_draw.cpp</text>
</a>
</g>
</g>
<!-- Node7&#45;&gt;Node27 -->
<g id="edge28" class="edge">
<title>Node7&#45;&gt;Node27</title>
<path fill="none" stroke="midnightblue" d="M2984.62,-145.35C3079.99,-139.18 3288.95,-123.81 3463.55,-98 3466.58,-97.55 3469.67,-97.06 3472.79,-96.54"/>
<polygon fill="midnightblue" stroke="midnightblue" points="2984.14,-141.87 2974.38,-146.01 2984.59,-148.86 2984.14,-141.87"/>
</g>
<!-- Node28 -->
<g id="node28" class="node">
<title>Node28</title>
<g id="a_node28"><a xlink:href="d__meter2__info_8cpp.html" target="_top" xlink:title=" ">
<polygon fill="white" stroke="black" points="3616.05,-67.5 3616.05,-97.5 3741.05,-97.5 3741.05,-67.5 3616.05,-67.5"/>
<text text-anchor="start" x="3624.05" y="-85.5" font-family="Helvetica,sans-Serif" font-size="10.00">src/d/d_meter2/d_meter2</text>
<text text-anchor="middle" x="3678.55" y="-74.5" font-family="Helvetica,sans-Serif" font-size="10.00">_info.cpp</text>
</a>
</g>
</g>
<!-- Node7&#45;&gt;Node28 -->
<g id="edge29" class="edge">
<title>Node7&#45;&gt;Node28</title>
<path fill="none" stroke="midnightblue" d="M2984.28,-146.81C3097.52,-142.63 3375.75,-129.76 3606.55,-98 3609.59,-97.58 3612.68,-97.12 3615.8,-96.61"/>
<polygon fill="midnightblue" stroke="midnightblue" points="2984.03,-143.32 2974.16,-147.18 2984.28,-150.31 2984.03,-143.32"/>
</g>
<!-- Node29 -->
<g id="node29" class="node">
<title>Node29</title>
<g id="a_node29"><a xlink:href="d__meter2_8cpp.html" target="_top" xlink:title=" ">
<polygon fill="white" stroke="black" points="3759.55,-73 3759.55,-92 3859.55,-92 3859.55,-73 3759.55,-73"/>
<text text-anchor="middle" x="3809.55" y="-80" font-family="Helvetica,sans-Serif" font-size="10.00">src/d/d_meter2.cpp</text>
</a>
</g>
</g>
<!-- Node7&#45;&gt;Node29 -->
<g id="edge30" class="edge">
<title>Node7&#45;&gt;Node29</title>
<path fill="none" stroke="midnightblue" d="M2984.16,-148.51C3113.8,-147.86 3463.3,-141.8 3750.55,-98 3760.04,-96.55 3770.24,-94.3 3779.45,-92"/>
<polygon fill="midnightblue" stroke="midnightblue" points="2984.1,-145.01 2974.12,-148.56 2984.13,-152.01 2984.1,-145.01"/>
</g>
<!-- Node30 -->
<g id="node30" class="node">
<title>Node30</title>
<g id="a_node30"><a xlink:href="d__save__HIO_8cpp.html" target="_top" xlink:title=" ">
<polygon fill="white" stroke="black" points="3878.05,-67.5 3878.05,-97.5 3985.05,-97.5 3985.05,-67.5 3878.05,-67.5"/>
<text text-anchor="start" x="3886.05" y="-85.5" font-family="Helvetica,sans-Serif" font-size="10.00">src/d/d_save/d_save</text>
<text text-anchor="middle" x="3931.55" y="-74.5" font-family="Helvetica,sans-Serif" font-size="10.00">_HIO.cpp</text>
</a>
</g>
</g>
<!-- Node7&#45;&gt;Node30 -->
<g id="edge31" class="edge">
<title>Node7&#45;&gt;Node30</title>
<path fill="none" stroke="midnightblue" d="M2984.49,-148.82C3126.7,-149.04 3534.09,-145.15 3868.55,-98 3871.56,-97.58 3874.62,-97.08 3877.71,-96.53"/>
<polygon fill="midnightblue" stroke="midnightblue" points="2984.33,-145.32 2974.32,-148.8 2984.31,-152.32 2984.33,-145.32"/>
</g>
<!-- Node31 -->
<g id="node31" class="node">
<title>Node31</title>
<g id="a_node31"><a xlink:href="d__stage_8cpp.html" target="_top" xlink:title=" ">
<polygon fill="white" stroke="black" points="4003.55,-73 4003.55,-92 4097.55,-92 4097.55,-73 4003.55,-73"/>
<text text-anchor="middle" x="4050.55" y="-80" font-family="Helvetica,sans-Serif" font-size="10.00">src/d/d_stage.cpp</text>
</a>
</g>
</g>
<!-- Node7&#45;&gt;Node31 -->
<g id="edge32" class="edge">
<title>Node7&#45;&gt;Node31</title>
<path fill="none" stroke="midnightblue" d="M2984.48,-147.45C3169.53,-143.47 3796.29,-128.05 3994.55,-98 4003.69,-96.62 4013.49,-94.35 4022.3,-92.02"/>
<polygon fill="midnightblue" stroke="midnightblue" points="2984.13,-143.95 2974.21,-147.67 2984.28,-150.95 2984.13,-143.95"/>
</g>
<!-- Node32 -->
<g id="node32" class="node">
<title>Node32</title>
<g id="a_node32"><a xlink:href="f__ap__game_8cpp.html" target="_top" xlink:title=" ">
<polygon fill="white" stroke="black" points="4116.05,-73 4116.05,-92 4221.05,-92 4221.05,-73 4116.05,-73"/>
<text text-anchor="middle" x="4168.55" y="-80" font-family="Helvetica,sans-Serif" font-size="10.00">src/f/f_ap_game.cpp</text>
</a>
</g>
</g>
<!-- Node7&#45;&gt;Node32 -->
<g id="edge33" class="edge">
<title>Node7&#45;&gt;Node32</title>
<path fill="none" stroke="midnightblue" d="M2984.29,-147.56C3181.33,-143.78 3884.91,-128.41 4106.55,-98 4116.63,-96.62 4127.47,-94.36 4137.23,-92.03"/>
<polygon fill="midnightblue" stroke="midnightblue" points="2984.13,-144.06 2974.2,-147.75 2984.27,-151.06 2984.13,-144.06"/>
</g>
<!-- Node33 -->
<g id="node33" class="node">
<title>Node33</title>
<g id="a_node33"><a xlink:href="f__op__actor__tag_8cpp.html" target="_top" xlink:title=" ">
<polygon fill="white" stroke="black" points="4239.05,-67.5 4239.05,-97.5 4346.05,-97.5 4346.05,-67.5 4239.05,-67.5"/>
<text text-anchor="start" x="4247.05" y="-85.5" font-family="Helvetica,sans-Serif" font-size="10.00">src/f/f_op/f_op_actor</text>
<text text-anchor="middle" x="4292.55" y="-74.5" font-family="Helvetica,sans-Serif" font-size="10.00">_tag.cpp</text>
</a>
</g>
</g>
<!-- Node7&#45;&gt;Node33 -->
<g id="edge34" class="edge">
<title>Node7&#45;&gt;Node33</title>
<path fill="none" stroke="midnightblue" d="M2984.45,-147.8C3194.68,-144.78 3983.44,-131.39 4230.55,-98 4233.29,-97.63 4236.09,-97.19 4238.9,-96.71"/>
<polygon fill="midnightblue" stroke="midnightblue" points="2984.26,-144.31 2974.31,-147.95 2984.36,-151.31 2984.26,-144.31"/>
</g>
<!-- Node34 -->
<g id="node34" class="node">
<title>Node34</title>
<g id="a_node34"><a xlink:href="f__pc__line_8cpp.html" target="_top" xlink:title=" ">
<polygon fill="white" stroke="black" points="4364.55,-73 4364.55,-92 4482.55,-92 4482.55,-73 4364.55,-73"/>
<text text-anchor="middle" x="4423.55" y="-80" font-family="Helvetica,sans-Serif" font-size="10.00">src/f/f_pc/f_pc_line.cpp</text>
</a>
</g>
</g>
<!-- Node7&#45;&gt;Node34 -->
<g id="edge35" class="edge">
<title>Node7&#45;&gt;Node34</title>
<path fill="none" stroke="midnightblue" d="M2984.24,-147.88C3206.52,-145 4082.2,-131.73 4355.55,-98 4366.58,-96.64 4378.46,-94.38 4389.16,-92.05"/>
<polygon fill="midnightblue" stroke="midnightblue" points="2984.11,-144.38 2974.16,-148 2984.2,-151.38 2984.11,-144.38"/>
</g>
<!-- Node35 -->
<g id="node35" class="node">
<title>Node35</title>
<g id="a_node35"><a xlink:href="f__pc__manager_8cpp.html" target="_top" xlink:title=" ">
<polygon fill="white" stroke="black" points="4500.55,-73 4500.55,-92 4640.55,-92 4640.55,-73 4500.55,-73"/>
<text text-anchor="middle" x="4570.55" y="-80" font-family="Helvetica,sans-Serif" font-size="10.00">src/f/f_pc/f_pc_manager.cpp</text>
</a>
</g>
</g>
<!-- Node7&#45;&gt;Node35 -->
<g id="edge36" class="edge">
<title>Node7&#45;&gt;Node35</title>
<path fill="none" stroke="midnightblue" d="M2984.45,-147.86C3219.94,-144.8 4189.58,-130.42 4491.55,-98 4504.31,-96.63 4518.1,-94.37 4530.53,-92.04"/>
<polygon fill="midnightblue" stroke="midnightblue" points="2984.07,-144.36 2974.12,-147.99 2984.16,-151.36 2984.07,-144.36"/>
</g>
<!-- Node36 -->
<g id="node36" class="node">
<title>Node36</title>
<g id="a_node36"><a xlink:href="m__Do__audio_8cpp.html" target="_top" xlink:title=" ">
<polygon fill="white" stroke="black" points="4658.55,-73 4658.55,-92 4792.55,-92 4792.55,-73 4658.55,-73"/>
<text text-anchor="middle" x="4725.55" y="-80" font-family="Helvetica,sans-Serif" font-size="10.00">src/m_Do/m_Do_audio.cpp</text>
</a>
</g>
</g>
<!-- Node7&#45;&gt;Node36 -->
<g id="edge37" class="edge">
<title>Node7&#45;&gt;Node36</title>
<path fill="none" stroke="midnightblue" d="M2984.36,-148.09C3234.03,-145.93 4314.74,-134.63 4649.55,-98 4661.84,-96.66 4675.11,-94.41 4687.07,-92.07"/>
<polygon fill="midnightblue" stroke="midnightblue" points="2984.09,-144.59 2974.12,-148.18 2984.15,-151.59 2984.09,-144.59"/>
</g>
<!-- Node37 -->
<g id="node37" class="node">
<title>Node37</title>
<g id="a_node37"><a xlink:href="m__Do__controller__pad_8cpp.html" target="_top" xlink:title=" ">
<polygon fill="white" stroke="black" points="5026.55,-67.5 5026.55,-97.5 5158.55,-97.5 5158.55,-67.5 5026.55,-67.5"/>
<text text-anchor="start" x="5034.55" y="-85.5" font-family="Helvetica,sans-Serif" font-size="10.00">src/m_Do/m_Do_controller</text>
<text text-anchor="middle" x="5092.55" y="-74.5" font-family="Helvetica,sans-Serif" font-size="10.00">_pad.cpp</text>
</a>
</g>
</g>
<!-- Node7&#45;&gt;Node37 -->
<g id="edge38" class="edge">
<title>Node7&#45;&gt;Node37</title>
<path fill="none" stroke="midnightblue" d="M2984.51,-148.33C3265.07,-147.25 4601.67,-139.97 5012.55,-98 5017.05,-97.54 5021.67,-96.97 5026.31,-96.32"/>
<polygon fill="midnightblue" stroke="midnightblue" points="2984.2,-144.83 2974.22,-148.37 2984.23,-151.83 2984.2,-144.83"/>
</g>
<!-- Node38 -->
<g id="node38" class="node">
<title>Node38</title>
<g id="a_node38"><a xlink:href="m__Do__DVDError_8cpp.html" target="_top" xlink:title=" ">
<polygon fill="white" stroke="black" points="329.05,-73 329.05,-92 480.05,-92 480.05,-73 329.05,-73"/>
<text text-anchor="middle" x="404.55" y="-80" font-family="Helvetica,sans-Serif" font-size="10.00">src/m_Do/m_Do_DVDError.cpp</text>
</a>
</g>
</g>
<!-- Node7&#45;&gt;Node38 -->
<g id="edge39" class="edge">
<title>Node7&#45;&gt;Node38</title>
<path fill="none" stroke="midnightblue" d="M2894.91,-137.45C2888.82,-136.04 2882.55,-134.81 2876.55,-134 2350.82,-63.01 1017.82,-146.75 489.55,-98 475.54,-96.71 460.36,-94.41 446.76,-92.02"/>
<polygon fill="midnightblue" stroke="midnightblue" points="2894.35,-140.92 2904.9,-139.95 2896.05,-134.13 2894.35,-140.92"/>
</g>
<!-- Node39 -->
<g id="node39" class="node">
<title>Node39</title>
<g id="a_node39"><a xlink:href="m__Do__dvd__thread_8cpp.html" target="_top" xlink:title=" ">
<polygon fill="white" stroke="black" points="498.55,-73 498.55,-92 656.55,-92 656.55,-73 498.55,-73"/>
<text text-anchor="middle" x="577.55" y="-80" font-family="Helvetica,sans-Serif" font-size="10.00">src/m_Do/m_Do_dvd_thread.cpp</text>
</a>
</g>
</g>
<!-- Node7&#45;&gt;Node39 -->
<g id="edge40" class="edge">
<title>Node7&#45;&gt;Node39</title>
<path fill="none" stroke="midnightblue" d="M2894.91,-137.46C2888.82,-136.05 2882.55,-134.81 2876.55,-134 2389.62,-67.95 1154.97,-142.06 665.55,-98 651.06,-96.69 635.34,-94.39 621.26,-92"/>
<polygon fill="midnightblue" stroke="midnightblue" points="2894.35,-140.92 2904.9,-139.95 2896.05,-134.13 2894.35,-140.92"/>
</g>
<!-- Node40 -->
<g id="node40" class="node">
<title>Node40</title>
<g id="a_node40"><a xlink:href="m__Do__graphic_8cpp.html" target="_top" xlink:title=" ">
<polygon fill="white" stroke="black" points="5176.55,-73 5176.55,-92 5318.55,-92 5318.55,-73 5176.55,-73"/>
<text text-anchor="middle" x="5247.55" y="-80" font-family="Helvetica,sans-Serif" font-size="10.00">src/m_Do/m_Do_graphic.cpp</text>
</a>
</g>
</g>
<!-- Node7&#45;&gt;Node40 -->
<g id="edge41" class="edge">
<title>Node7&#45;&gt;Node40</title>
<path fill="none" stroke="midnightblue" d="M2984.58,-148.43C3277.55,-147.89 4724.14,-142.91 5167.55,-98 5180.62,-96.68 5194.74,-94.4 5207.44,-92.04"/>
<polygon fill="midnightblue" stroke="midnightblue" points="2984.24,-144.93 2974.25,-148.45 2984.26,-151.93 2984.24,-144.93"/>
</g>
<!-- Node41 -->
<g id="node41" class="node">
<title>Node41</title>
<g id="a_node41"><a xlink:href="m__Do__lib_8cpp.html" target="_top" xlink:title=" ">
<polygon fill="white" stroke="black" points="674.55,-73 674.55,-92 794.55,-92 794.55,-73 674.55,-73"/>
<text text-anchor="middle" x="734.55" y="-80" font-family="Helvetica,sans-Serif" font-size="10.00">src/m_Do/m_Do_lib.cpp</text>
</a>
</g>
</g>
<!-- Node7&#45;&gt;Node41 -->
<g id="edge42" class="edge">
<title>Node7&#45;&gt;Node41</title>
<path fill="none" stroke="midnightblue" d="M2894.91,-137.46C2888.82,-136.05 2882.55,-134.82 2876.55,-134 2420.03,-71.82 1261.39,-149.61 803.55,-98 792.12,-96.71 779.78,-94.41 768.74,-92.02"/>
<polygon fill="midnightblue" stroke="midnightblue" points="2894.35,-140.93 2904.9,-139.96 2896.05,-134.14 2894.35,-140.93"/>
</g>
<!-- Node42 -->
<g id="node42" class="node">
<title>Node42</title>
<g id="a_node42"><a xlink:href="m__Do__machine_8cpp.html" target="_top" xlink:title=" ">
<polygon fill="white" stroke="black" points="813.05,-73 813.05,-92 960.05,-92 960.05,-73 813.05,-73"/>
<text text-anchor="middle" x="886.55" y="-80" font-family="Helvetica,sans-Serif" font-size="10.00">src/m_Do/m_Do_machine.cpp</text>
</a>
</g>
</g>
<!-- Node7&#45;&gt;Node42 -->
<g id="edge43" class="edge">
<title>Node7&#45;&gt;Node42</title>
<path fill="none" stroke="midnightblue" d="M2894.91,-137.47C2888.82,-136.06 2882.55,-134.82 2876.55,-134 2456.4,-76.46 1390.64,-139.05 968.55,-98 955.17,-96.7 940.69,-94.43 927.68,-92.07"/>
<polygon fill="midnightblue" stroke="midnightblue" points="2894.35,-140.94 2904.9,-139.97 2896.05,-134.15 2894.35,-140.94"/>
</g>
<!-- Node43 -->
<g id="node43" class="node">
<title>Node43</title>
<g id="a_node43"><a xlink:href="m__Do__machine__exception_8cpp.html" target="_top" xlink:title=" ">
<polygon fill="white" stroke="black" points="978.05,-67.5 978.05,-97.5 1107.05,-97.5 1107.05,-67.5 978.05,-67.5"/>
<text text-anchor="start" x="986.05" y="-85.5" font-family="Helvetica,sans-Serif" font-size="10.00">src/m_Do/m_Do_machine</text>
<text text-anchor="middle" x="1042.55" y="-74.5" font-family="Helvetica,sans-Serif" font-size="10.00">_exception.cpp</text>
</a>
</g>
</g>
<!-- Node7&#45;&gt;Node43 -->
<g id="edge44" class="edge">
<title>Node7&#45;&gt;Node43</title>
<path fill="none" stroke="midnightblue" d="M2894.91,-137.48C2888.82,-136.07 2882.55,-134.83 2876.55,-134 2490.12,-80.75 1509.65,-137.34 1121.55,-98 1116.84,-97.52 1111.98,-96.91 1107.1,-96.22"/>
<polygon fill="midnightblue" stroke="midnightblue" points="2894.35,-140.95 2904.9,-139.98 2896.04,-134.16 2894.35,-140.95"/>
</g>
<!-- Node44 -->
<g id="node44" class="node">
<title>Node44</title>
<g id="a_node44"><a xlink:href="m__Do__main_8cpp.html" target="_top" xlink:title=" ">
<polygon fill="white" stroke="black" points="4949.05,-6 4949.05,-25 5080.05,-25 5080.05,-6 4949.05,-6"/>
<text text-anchor="middle" x="5014.55" y="-13" font-family="Helvetica,sans-Serif" font-size="10.00">src/m_Do/m_Do_main.cpp</text>
</a>
</g>
</g>
<!-- Node7&#45;&gt;Node44 -->
<g id="edge45" class="edge">
<title>Node7&#45;&gt;Node44</title>
<path fill="none" stroke="midnightblue" d="M2984.64,-148.53C3293.03,-148.57 4869.29,-146.4 4958.55,-98 4988.13,-81.96 5005.25,-42.71 5011.64,-25.19"/>
<polygon fill="midnightblue" stroke="midnightblue" points="2984.21,-145.03 2974.21,-148.53 2984.21,-152.03 2984.21,-145.03"/>
</g>
<!-- Node45 -->
<g id="node45" class="node">
<title>Node45</title>
<g id="a_node45"><a xlink:href="m__Do__MemCard_8cpp.html" target="_top" xlink:title=" ">
<polygon fill="white" stroke="black" points="1163.55,-73 1163.55,-92 1315.55,-92 1315.55,-73 1163.55,-73"/>
<text text-anchor="middle" x="1239.55" y="-80" font-family="Helvetica,sans-Serif" font-size="10.00">src/m_Do/m_Do_MemCard.cpp</text>
</a>
</g>
</g>
<!-- Node7&#45;&gt;Node45 -->
<g id="edge46" class="edge">
<title>Node7&#45;&gt;Node45</title>
<path fill="none" stroke="midnightblue" d="M2894.9,-137.49C2888.82,-136.08 2882.54,-134.83 2876.55,-134 2534.87,-86.45 1667.95,-131.09 1324.55,-98 1310.7,-96.66 1295.69,-94.39 1282.2,-92.03"/>
<polygon fill="midnightblue" stroke="midnightblue" points="2894.34,-140.96 2904.89,-139.99 2896.04,-134.17 2894.34,-140.96"/>
</g>
<!-- Node7&#45;&gt;Node194 -->
<g id="edge48" class="edge">
<title>Node7&#45;&gt;Node194</title>
<path fill="none" stroke="midnightblue" d="M2984.63,-147.64C3267.88,-142.92 4617.02,-119.43 4801.55,-98 4804.39,-97.67 4807.28,-97.28 4810.19,-96.85"/>
<polygon fill="midnightblue" stroke="midnightblue" points="2984.18,-144.15 2974.24,-147.82 2984.3,-151.15 2984.18,-144.15"/>
</g>
<!-- Node7&#45;&gt;Node260 -->
<g id="edge54" class="edge">
<title>Node7&#45;&gt;Node260</title>
<path fill="none" stroke="midnightblue" d="M2894.91,-137.44C2888.82,-136.03 2882.55,-134.81 2876.55,-134 2306.08,-57.31 859.48,-153.52 286.55,-98 281.92,-97.55 277.15,-96.98 272.36,-96.32"/>
<polygon fill="midnightblue" stroke="midnightblue" points="2894.35,-140.91 2904.9,-139.94 2896.05,-134.12 2894.35,-140.91"/>
</g>
<!-- Node194&#45;&gt;Node6 -->
<g id="edge53" class="edge">
<title>Node194&#45;&gt;Node6</title>
<path fill="none" stroke="midnightblue" d="M4800.22,-67.35C4552.02,-53.27 862.59,-21.65 319.99,-17.06"/>
<polygon fill="midnightblue" stroke="midnightblue" points="4799.97,-70.84 4810.2,-68.09 4800.49,-63.86 4799.97,-70.84"/>
</g>
<!-- Node194&#45;&gt;Node10 -->
<g id="edge49" class="edge">
<title>Node194&#45;&gt;Node10</title>
<path fill="none" stroke="midnightblue" d="M4800.06,-66.94C4448.34,-22.37 4035.35,-16.95 3890.16,-16.46"/>
<polygon fill="midnightblue" stroke="midnightblue" points="4799.82,-70.44 4810.18,-68.24 4800.71,-63.5 4799.82,-70.44"/>
</g>
<!-- Node194&#45;&gt;Node12 -->
<g id="edge50" class="edge">
<title>Node194&#45;&gt;Node12</title>
<path fill="none" stroke="midnightblue" d="M4871.55,-57.11C4871.55,-48.15 4871.55,-38.32 4871.55,-30.58"/>
<polygon fill="midnightblue" stroke="midnightblue" points="4868.05,-57.4 4871.55,-67.4 4875.05,-57.4 4868.05,-57.4"/>
</g>
<!-- Node194&#45;&gt;Node23 -->
<g id="edge51" class="edge">
<title>Node194&#45;&gt;Node23</title>
<path fill="none" stroke="midnightblue" d="M4800.12,-67.06C4471.69,-34.92 2400.36,-19.44 2027.13,-16.88"/>
<polygon fill="midnightblue" stroke="midnightblue" points="4799.89,-70.56 4810.2,-68.12 4800.62,-63.6 4799.89,-70.56"/>
</g>
<!-- Node194&#45;&gt;Node44 -->
<g id="edge52" class="edge">
<title>Node194&#45;&gt;Node44</title>
<path fill="none" stroke="midnightblue" d="M4911.97,-63.13C4939.49,-50.62 4974.65,-34.64 4995.84,-25.01"/>
<polygon fill="midnightblue" stroke="midnightblue" points="4910.24,-60.07 4902.58,-67.4 4913.14,-66.44 4910.24,-60.07"/>
</g>
<!-- Node260&#45;&gt;Node6 -->
<g id="edge55" class="edge">
<title>Node260&#45;&gt;Node6</title>
<path fill="none" stroke="midnightblue" d="M222.84,-58.97C231.26,-47.33 241.05,-33.8 247.27,-25.19"/>
<polygon fill="midnightblue" stroke="midnightblue" points="219.78,-57.24 216.75,-67.4 225.45,-61.34 219.78,-57.24"/>
</g>
<!-- Node262&#45;&gt;Node4 -->
<g id="edge58" class="edge">
<title>Node262&#45;&gt;Node4</title>
<path fill="none" stroke="midnightblue" d="M5180.23,-133.71C5232.75,-124.43 5300.71,-111.65 5360.55,-98 5368.32,-96.23 5376.64,-94.11 5384.38,-92.04"/>
<polygon fill="midnightblue" stroke="midnightblue" points="5179.52,-130.29 5170.28,-135.47 5180.74,-137.18 5179.52,-130.29"/>
</g>
<!-- Node262&#45;&gt;Node37 -->
<g id="edge59" class="edge">
<title>Node262&#45;&gt;Node37</title>
<path fill="none" stroke="midnightblue" d="M5092.55,-124.11C5092.55,-115.15 5092.55,-105.32 5092.55,-97.58"/>
<polygon fill="midnightblue" stroke="midnightblue" points="5089.05,-124.4 5092.55,-134.4 5096.05,-124.4 5089.05,-124.4"/>
</g>
<!-- Node262&#45;&gt;Node40 -->
<g id="edge60" class="edge">
<title>Node262&#45;&gt;Node40</title>
<path fill="none" stroke="midnightblue" d="M5135.58,-130.46C5165.52,-117.9 5204.1,-101.72 5227.27,-92.01"/>
<polygon fill="midnightblue" stroke="midnightblue" points="5134.06,-127.3 5126.19,-134.4 5136.76,-133.76 5134.06,-127.3"/>
</g>
<!-- Node262&#45;&gt;Node44 -->
<g id="edge61" class="edge">
<title>Node262&#45;&gt;Node44</title>
<path fill="none" stroke="midnightblue" d="M5178.71,-132.6C5243.76,-120.18 5322.67,-104.05 5327.55,-98 5336.21,-87.28 5336.49,-77.49 5327.55,-67 5296.42,-30.44 5162.3,-20.26 5080.06,-17.48"/>
<polygon fill="midnightblue" stroke="midnightblue" points="5177.99,-129.18 5168.82,-134.48 5179.29,-136.05 5177.99,-129.18"/>
</g>
</g>
</svg>
