<?xml version="1.0" encoding="UTF-8" standalone="no"?>
<!DOCTYPE svg PUBLIC "-//W3C//DTD SVG 1.1//EN"
 "http://www.w3.org/Graphics/SVG/1.1/DTD/svg11.dtd">
<!-- Generated by graphviz version 7.0.5 (20221223.1930)
 -->
<!-- Title: include/dolphin/os/OSArena.h Pages: 1 -->
<svg width="6041pt" height="247pt"
 viewBox="0.00 0.00 6041.00 247.00" xmlns="http://www.w3.org/2000/svg" xmlns:xlink="http://www.w3.org/1999/xlink">
<g id="graph0" class="graph" transform="scale(1 1) rotate(0) translate(4 243)">
<title>include/dolphin/os/OSArena.h</title>
<!-- Node1 -->
<g id="node1" class="node">
<title>Node1</title>
<g id="a_node1"><a xlink:title=" ">
<polygon fill="#999999" stroke="#666666" points="2988.5,-239 2893.5,-239 2893.5,-209 2988.5,-209 2988.5,-239"/>
<text text-anchor="start" x="2901.5" y="-227" font-family="Helvetica,sans-Serif" font-size="10.00">include/dolphin/os</text>
<text text-anchor="middle" x="2941" y="-216" font-family="Helvetica,sans-Serif" font-size="10.00">/OSArena.h</text>
</a>
</g>
</g>
<!-- Node2 -->
<g id="node2" class="node">
<title>Node2</title>
<g id="a_node2"><a xlink:href="os_8h.html" target="_top" xlink:title=" ">
<polygon fill="#fff0f0" stroke="red" points="2858,-173 2756,-173 2756,-154 2858,-154 2858,-173"/>
<text text-anchor="middle" x="2807" y="-161" font-family="Helvetica,sans-Serif" font-size="10.00">include/dolphin/os.h</text>
</a>
</g>
</g>
<!-- Node1&#45;&gt;Node2 -->
<g id="edge1" class="edge">
<title>Node1&#45;&gt;Node2</title>
<path fill="none" stroke="#63b8ff" d="M2897.4,-203.96C2873.81,-193.67 2845.79,-181.43 2827.26,-173.35"/>
<polygon fill="#63b8ff" stroke="#63b8ff" points="2895.92,-207.14 2906.49,-207.93 2898.72,-200.73 2895.92,-207.14"/>
</g>
<!-- Node690 -->
<g id="node49" class="node">
<title>Node690</title>
<g id="a_node49"><a xlink:href="OSArena_8c.html" target="_top" xlink:title=" ">
<polygon fill="white" stroke="#666666" points="3005.5,-173 2876.5,-173 2876.5,-154 3005.5,-154 3005.5,-173"/>
<text text-anchor="middle" x="2941" y="-161" font-family="Helvetica,sans-Serif" font-size="10.00">libs/dolphin/os/OSArena.c</text>
</a>
</g>
</g>
<!-- Node1&#45;&gt;Node690 -->
<g id="edge56" class="edge">
<title>Node1&#45;&gt;Node690</title>
<path fill="none" stroke="#63b8ff" d="M2941,-197.3C2941,-188.65 2941,-179.58 2941,-173.18"/>
<polygon fill="#63b8ff" stroke="#63b8ff" points="2937.5,-197.03 2941,-207.03 2944.5,-197.03 2937.5,-197.03"/>
</g>
<!-- Node691 -->
<g id="node50" class="node">
<title>Node691</title>
<g id="a_node50"><a xlink:href="OSReboot_8c.html" target="_top" xlink:title=" ">
<polygon fill="white" stroke="#666666" points="3158,-173 3024,-173 3024,-154 3158,-154 3158,-173"/>
<text text-anchor="middle" x="3091" y="-161" font-family="Helvetica,sans-Serif" font-size="10.00">libs/dolphin/os/OSReboot.c</text>
</a>
</g>
</g>
<!-- Node1&#45;&gt;Node691 -->
<g id="edge57" class="edge">
<title>Node1&#45;&gt;Node691</title>
<path fill="none" stroke="#63b8ff" d="M2988.74,-204.38C3015.37,-194 3047.3,-181.54 3068.32,-173.35"/>
<polygon fill="#63b8ff" stroke="#63b8ff" points="2987.53,-201.1 2979.49,-207.99 2990.08,-207.62 2987.53,-201.1"/>
</g>
<!-- Node3 -->
<g id="node3" class="node">
<title>Node3</title>
<g id="a_node3"><a xlink:href="DynamicLink_8h.html" target="_top" xlink:title=" ">
<polygon fill="#fff0f0" stroke="red" points="296,-107 182,-107 182,-88 296,-88 296,-107"/>
<text text-anchor="middle" x="239" y="-95" font-family="Helvetica,sans-Serif" font-size="10.00">include/DynamicLink.h</text>
</a>
</g>
</g>
<!-- Node2&#45;&gt;Node3 -->
<g id="edge2" class="edge">
<title>Node2&#45;&gt;Node3</title>
<path fill="none" stroke="#63b8ff" d="M2744.37,-162.32C2381.59,-161.16 557.16,-153.57 310,-118 294.94,-115.83 278.54,-111.47 265.3,-107.41"/>
<polygon fill="#63b8ff" stroke="#63b8ff" points="2744.15,-165.82 2754.16,-162.35 2744.17,-158.82 2744.15,-165.82"/>
</g>
<!-- Node8 -->
<g id="node4" class="node">
<title>Node8</title>
<g id="a_node4"><a xlink:href="JUTAssert_8h.html" target="_top" xlink:title=" ">
<polygon fill="#fff0f0" stroke="red" points="512,-112.5 390,-112.5 390,-82.5 512,-82.5 512,-112.5"/>
<text text-anchor="start" x="398" y="-100.5" font-family="Helvetica,sans-Serif" font-size="10.00">include/JSystem/JUtility</text>
<text text-anchor="middle" x="451" y="-89.5" font-family="Helvetica,sans-Serif" font-size="10.00">/JUTAssert.h</text>
</a>
</g>
</g>
<!-- Node2&#45;&gt;Node8 -->
<g id="edge3" class="edge">
<title>Node2&#45;&gt;Node8</title>
<path fill="none" stroke="#63b8ff" d="M2744.14,-162.15C2399.91,-160.15 750.72,-148.97 526,-118 517.47,-116.82 508.52,-115.02 499.89,-112.97"/>
<polygon fill="#63b8ff" stroke="#63b8ff" points="2744.06,-165.65 2754.08,-162.21 2744.1,-158.65 2744.06,-165.65"/>
</g>
<!-- Node606 -->
<g id="node5" class="node">
<title>Node606</title>
<g id="a_node5"><a xlink:href="J3DCluster_8cpp.html" target="_top" xlink:title=" ">
<polygon fill="white" stroke="#666666" points="158,-35.5 0,-35.5 0,-5.5 158,-5.5 158,-35.5"/>
<text text-anchor="start" x="8" y="-23.5" font-family="Helvetica,sans-Serif" font-size="10.00">libs/JSystem/J3DGraphAnimator</text>
<text text-anchor="middle" x="79" y="-12.5" font-family="Helvetica,sans-Serif" font-size="10.00">/J3DCluster.cpp</text>
</a>
</g>
</g>
<!-- Node2&#45;&gt;Node606 -->
<g id="edge18" class="edge">
<title>Node2&#45;&gt;Node606</title>
<path fill="none" stroke="#63b8ff" d="M2744.3,-162.1C2365.19,-159.6 393.67,-145.27 338,-118 316.99,-107.71 324.73,-89.56 305,-77 297.99,-72.54 206.67,-50.89 142.29,-35.99"/>
<polygon fill="#63b8ff" stroke="#63b8ff" points="2744.03,-165.6 2754.05,-162.16 2744.07,-158.6 2744.03,-165.6"/>
</g>
<!-- Node596 -->
<g id="node6" class="node">
<title>Node596</title>
<g id="a_node6"><a xlink:href="JFWDisplay_8cpp.html" target="_top" xlink:title=" ">
<polygon fill="white" stroke="#666666" points="306,-35.5 176,-35.5 176,-5.5 306,-5.5 306,-35.5"/>
<text text-anchor="start" x="184" y="-23.5" font-family="Helvetica,sans-Serif" font-size="10.00">libs/JSystem/JFramework</text>
<text text-anchor="middle" x="241" y="-12.5" font-family="Helvetica,sans-Serif" font-size="10.00">/JFWDisplay.cpp</text>
</a>
</g>
</g>
<!-- Node2&#45;&gt;Node596 -->
<g id="edge35" class="edge">
<title>Node2&#45;&gt;Node596</title>
<path fill="none" stroke="#63b8ff" d="M2744.38,-162.63C2375.04,-163.27 493.41,-164.2 381,-118 356.58,-107.96 359.17,-92.78 338,-77 316.53,-61 290.02,-46.12 270.15,-35.8"/>
<polygon fill="#63b8ff" stroke="#63b8ff" points="2744.11,-166.13 2754.11,-162.62 2744.1,-159.13 2744.11,-166.13"/>
</g>
<!-- Node614 -->
<g id="node7" class="node">
<title>Node614</title>
<g id="a_node7"><a xlink:href="JKRDvdArchive_8cpp.html" target="_top" xlink:title=" ">
<polygon fill="white" stroke="#666666" points="433.5,-35.5 324.5,-35.5 324.5,-5.5 433.5,-5.5 433.5,-35.5"/>
<text text-anchor="start" x="332.5" y="-23.5" font-family="Helvetica,sans-Serif" font-size="10.00">libs/JSystem/JKernel</text>
<text text-anchor="middle" x="379" y="-12.5" font-family="Helvetica,sans-Serif" font-size="10.00">/JKRDvdArchive.cpp</text>
</a>
</g>
</g>
<!-- Node2&#45;&gt;Node614 -->
<g id="edge37" class="edge">
<title>Node2&#45;&gt;Node614</title>
<path fill="none" stroke="#63b8ff" d="M2744.06,-162.58C2390.63,-162.84 664.98,-161.86 562,-118 538.29,-107.9 542.57,-91.1 521,-77 504.11,-65.96 456.95,-48.38 421.58,-35.96"/>
<polygon fill="#63b8ff" stroke="#63b8ff" points="2744.06,-166.08 2754.06,-162.57 2744.05,-159.08 2744.06,-166.08"/>
</g>
<!-- Node617 -->
<g id="node8" class="node">
<title>Node617</title>
<g id="a_node8"><a xlink:href="JKRHeap_8cpp.html" target="_top" xlink:title=" ">
<polygon fill="white" stroke="#666666" points="560.5,-35.5 451.5,-35.5 451.5,-5.5 560.5,-5.5 560.5,-35.5"/>
<text text-anchor="start" x="459.5" y="-23.5" font-family="Helvetica,sans-Serif" font-size="10.00">libs/JSystem/JKernel</text>
<text text-anchor="middle" x="506" y="-12.5" font-family="Helvetica,sans-Serif" font-size="10.00">/JKRHeap.cpp</text>
</a>
</g>
</g>
<!-- Node2&#45;&gt;Node617 -->
<g id="edge38" class="edge">
<title>Node2&#45;&gt;Node617</title>
<path fill="none" stroke="#63b8ff" d="M2744.47,-162.31C2398.96,-161.13 735.2,-153.59 633,-118 584.62,-101.15 539.84,-58.26 518.72,-35.76"/>
<polygon fill="#63b8ff" stroke="#63b8ff" points="2744.2,-165.81 2754.22,-162.34 2744.23,-158.81 2744.2,-165.81"/>
</g>
<!-- Node602 -->
<g id="node9" class="node">
<title>Node602</title>
<g id="a_node9"><a xlink:href="JUTConsole_8cpp.html" target="_top" xlink:title=" ">
<polygon fill="white" stroke="#666666" points="685,-35.5 579,-35.5 579,-5.5 685,-5.5 685,-35.5"/>
<text text-anchor="start" x="587" y="-23.5" font-family="Helvetica,sans-Serif" font-size="10.00">libs/JSystem/JUtility</text>
<text text-anchor="middle" x="632" y="-12.5" font-family="Helvetica,sans-Serif" font-size="10.00">/JUTConsole.cpp</text>
</a>
</g>
</g>
<!-- Node2&#45;&gt;Node602 -->
<g id="edge41" class="edge">
<title>Node2&#45;&gt;Node602</title>
<path fill="none" stroke="#63b8ff" d="M2744.23,-162.21C2394.78,-160.46 703.56,-150.34 661,-118 635.51,-98.63 631.64,-57.64 631.51,-35.84"/>
<polygon fill="#63b8ff" stroke="#63b8ff" points="2744.08,-165.71 2754.1,-162.26 2744.11,-158.71 2744.08,-165.71"/>
</g>
<!-- Node621 -->
<g id="node10" class="node">
<title>Node621</title>
<g id="a_node10"><a xlink:href="DDH__Stubs_8h.html" target="_top" xlink:title=" ">
<polygon fill="#fff0f0" stroke="red" points="821,-41 703,-41 703,0 821,0 821,-41"/>
<text text-anchor="start" x="711" y="-29" font-family="Helvetica,sans-Serif" font-size="10.00">include/TRK_MINNOW</text>
<text text-anchor="start" x="711" y="-18" font-family="Helvetica,sans-Serif" font-size="10.00">_DOLPHIN/Os/dolphin</text>
<text text-anchor="middle" x="762" y="-7" font-family="Helvetica,sans-Serif" font-size="10.00">/DDH_Stubs.h</text>
</a>
</g>
</g>
<!-- Node2&#45;&gt;Node621 -->
<g id="edge9" class="edge">
<title>Node2&#45;&gt;Node621</title>
<path fill="none" stroke="#63b8ff" d="M2744.13,-162.39C2395.12,-161.62 710.18,-155.97 673,-118 660.25,-104.98 664.16,-92.93 673,-77 681.57,-61.56 696.42,-49.85 711.57,-41.26"/>
<polygon fill="#63b8ff" stroke="#63b8ff" points="2743.98,-165.89 2753.99,-162.41 2743.99,-158.89 2743.98,-165.89"/>
</g>
<!-- Node623 -->
<g id="node11" class="node">
<title>Node623</title>
<g id="a_node11"><a xlink:href="GDEV__Stubs_8h.html" target="_top" xlink:title=" ">
<polygon fill="#fff0f0" stroke="red" points="957,-41 839,-41 839,0 957,0 957,-41"/>
<text text-anchor="start" x="847" y="-29" font-family="Helvetica,sans-Serif" font-size="10.00">include/TRK_MINNOW</text>
<text text-anchor="start" x="847" y="-18" font-family="Helvetica,sans-Serif" font-size="10.00">_DOLPHIN/Os/dolphin</text>
<text text-anchor="middle" x="898" y="-7" font-family="Helvetica,sans-Serif" font-size="10.00">/GDEV_Stubs.h</text>
</a>
</g>
</g>
<!-- Node2&#45;&gt;Node623 -->
<g id="edge10" class="edge">
<title>Node2&#45;&gt;Node623</title>
<path fill="none" stroke="#63b8ff" d="M2744.61,-162.26C2415.05,-160.87 890.77,-152.55 857,-118 836.01,-96.52 859.11,-62.64 878.18,-41.27"/>
<polygon fill="#63b8ff" stroke="#63b8ff" points="2744.29,-165.76 2754.31,-162.3 2744.32,-158.76 2744.29,-165.76"/>
</g>
<!-- Node624 -->
<g id="node12" class="node">
<title>Node624</title>
<g id="a_node12"><a xlink:href="UDP__Stubs_8h.html" target="_top" xlink:title=" ">
<polygon fill="#fff0f0" stroke="red" points="984,-118 866,-118 866,-77 984,-77 984,-118"/>
<text text-anchor="start" x="874" y="-106" font-family="Helvetica,sans-Serif" font-size="10.00">include/TRK_MINNOW</text>
<text text-anchor="start" x="874" y="-95" font-family="Helvetica,sans-Serif" font-size="10.00">_DOLPHIN/Os/dolphin</text>
<text text-anchor="middle" x="925" y="-84" font-family="Helvetica,sans-Serif" font-size="10.00">/UDP_Stubs.h</text>
</a>
</g>
</g>
<!-- Node2&#45;&gt;Node624 -->
<g id="edge11" class="edge">
<title>Node2&#45;&gt;Node624</title>
<path fill="none" stroke="#63b8ff" d="M2744.48,-161.84C2446.04,-158.57 1173.49,-143.23 998,-118 993.46,-117.35 988.79,-116.51 984.12,-115.55"/>
<polygon fill="#63b8ff" stroke="#63b8ff" points="2744.37,-165.34 2754.4,-161.95 2744.44,-158.34 2744.37,-165.34"/>
</g>
<!-- Node626 -->
<g id="node13" class="node">
<title>Node626</title>
<g id="a_node13"><a xlink:href="dolphin__trk__glue_8h.html" target="_top" xlink:title=" ">
<polygon fill="#fff0f0" stroke="red" points="1158,-118 1040,-118 1040,-77 1158,-77 1158,-118"/>
<text text-anchor="start" x="1048" y="-106" font-family="Helvetica,sans-Serif" font-size="10.00">include/TRK_MINNOW</text>
<text text-anchor="start" x="1048" y="-95" font-family="Helvetica,sans-Serif" font-size="10.00">_DOLPHIN/Os/dolphin</text>
<text text-anchor="middle" x="1099" y="-84" font-family="Helvetica,sans-Serif" font-size="10.00">/dolphin_trk_glue.h</text>
</a>
</g>
</g>
<!-- Node2&#45;&gt;Node626 -->
<g id="edge12" class="edge">
<title>Node2&#45;&gt;Node626</title>
<path fill="none" stroke="#63b8ff" d="M2744.35,-162.87C2483.19,-164.11 1480.31,-165.61 1168,-118 1164.8,-117.51 1161.54,-116.92 1158.26,-116.26"/>
<polygon fill="#63b8ff" stroke="#63b8ff" points="2744.36,-166.37 2754.35,-162.82 2744.33,-159.37 2744.36,-166.37"/>
</g>
<!-- Node628 -->
<g id="node14" class="node">
<title>Node628</title>
<g id="a_node14"><a xlink:href="dolphin__trk_8c.html" target="_top" xlink:title=" ">
<polygon fill="white" stroke="#666666" points="1159,-35.5 1007,-35.5 1007,-5.5 1159,-5.5 1159,-35.5"/>
<text text-anchor="start" x="1015" y="-23.5" font-family="Helvetica,sans-Serif" font-size="10.00">libs/TRK_MINNOW_DOLPHIN</text>
<text text-anchor="middle" x="1083" y="-12.5" font-family="Helvetica,sans-Serif" font-size="10.00">/Os/dolphin/dolphin_trk.c</text>
</a>
</g>
</g>
<!-- Node2&#45;&gt;Node628 -->
<g id="edge46" class="edge">
<title>Node2&#45;&gt;Node628</title>
<path fill="none" stroke="#63b8ff" d="M2744.28,-162.12C2432.32,-160.07 1061.53,-149.3 1031,-118 1007.22,-93.61 1042.12,-56.15 1065.26,-35.82"/>
<polygon fill="#63b8ff" stroke="#63b8ff" points="2744.25,-165.62 2754.27,-162.18 2744.29,-158.62 2744.25,-165.62"/>
</g>
<!-- Node629 -->
<g id="node15" class="node">
<title>Node629</title>
<g id="a_node15"><a xlink:href="AmcExi2Stubs_8h.html" target="_top" xlink:title=" ">
<polygon fill="#fff0f0" stroke="red" points="809.5,-112.5 682.5,-112.5 682.5,-82.5 809.5,-82.5 809.5,-112.5"/>
<text text-anchor="start" x="690.5" y="-100.5" font-family="Helvetica,sans-Serif" font-size="10.00">include/dolphin/amcstubs</text>
<text text-anchor="middle" x="746" y="-89.5" font-family="Helvetica,sans-Serif" font-size="10.00">/AmcExi2Stubs.h</text>
</a>
</g>
</g>
<!-- Node2&#45;&gt;Node629 -->
<g id="edge14" class="edge">
<title>Node2&#45;&gt;Node629</title>
<path fill="none" stroke="#63b8ff" d="M2744.68,-161.93C2429.44,-158.92 1017.84,-144.07 824,-118 815.15,-116.81 805.84,-114.99 796.87,-112.94"/>
<polygon fill="#63b8ff" stroke="#63b8ff" points="2744.32,-165.42 2754.35,-162.02 2744.38,-158.42 2744.32,-165.42"/>
</g>
<!-- Node638 -->
<g id="node16" class="node">
<title>Node638</title>
<g id="a_node16"><a xlink:href="J2DAnimation_8cpp.html" target="_top" xlink:title=" ">
<polygon fill="white" stroke="#666666" points="1295.5,-112.5 1176.5,-112.5 1176.5,-82.5 1295.5,-82.5 1295.5,-112.5"/>
<text text-anchor="start" x="1184.5" y="-100.5" font-family="Helvetica,sans-Serif" font-size="10.00">libs/JSystem/J2DGraph</text>
<text text-anchor="middle" x="1236" y="-89.5" font-family="Helvetica,sans-Serif" font-size="10.00">/J2DAnimation.cpp</text>
</a>
</g>
</g>
<!-- Node2&#45;&gt;Node638 -->
<g id="edge17" class="edge">
<title>Node2&#45;&gt;Node638</title>
<path fill="none" stroke="#63b8ff" d="M2744.35,-162.69C2497.14,-163.13 1589.12,-161.67 1305,-118 1297.13,-116.79 1288.88,-114.97 1280.93,-112.91"/>
<polygon fill="#63b8ff" stroke="#63b8ff" points="2744.11,-166.19 2754.1,-162.67 2744.09,-159.19 2744.11,-166.19"/>
</g>
<!-- Node639 -->
<g id="node17" class="node">
<title>Node639</title>
<g id="a_node17"><a xlink:href="J3DModel_8cpp.html" target="_top" xlink:title=" ">
<polygon fill="white" stroke="#666666" points="1472,-112.5 1314,-112.5 1314,-82.5 1472,-82.5 1472,-112.5"/>
<text text-anchor="start" x="1322" y="-100.5" font-family="Helvetica,sans-Serif" font-size="10.00">libs/JSystem/J3DGraphAnimator</text>
<text text-anchor="middle" x="1393" y="-89.5" font-family="Helvetica,sans-Serif" font-size="10.00">/J3DModel.cpp</text>
</a>
</g>
</g>
<!-- Node2&#45;&gt;Node639 -->
<g id="edge19" class="edge">
<title>Node2&#45;&gt;Node639</title>
<path fill="none" stroke="#63b8ff" d="M2744.36,-161.93C2516.22,-159.62 1730.04,-149.5 1481,-118 1471.22,-116.76 1460.92,-114.95 1450.96,-112.93"/>
<polygon fill="#63b8ff" stroke="#63b8ff" points="2744.2,-165.43 2754.24,-162.03 2744.27,-158.43 2744.2,-165.43"/>
</g>
<!-- Node640 -->
<g id="node18" class="node">
<title>Node640</title>
<g id="a_node18"><a xlink:href="J3DModelData_8cpp.html" target="_top" xlink:title=" ">
<polygon fill="white" stroke="#666666" points="1648,-112.5 1490,-112.5 1490,-82.5 1648,-82.5 1648,-112.5"/>
<text text-anchor="start" x="1498" y="-100.5" font-family="Helvetica,sans-Serif" font-size="10.00">libs/JSystem/J3DGraphAnimator</text>
<text text-anchor="middle" x="1569" y="-89.5" font-family="Helvetica,sans-Serif" font-size="10.00">/J3DModelData.cpp</text>
</a>
</g>
</g>
<!-- Node2&#45;&gt;Node640 -->
<g id="edge20" class="edge">
<title>Node2&#45;&gt;Node640</title>
<path fill="none" stroke="#63b8ff" d="M2744.52,-161.56C2536.74,-158.2 1870.08,-145.5 1657,-118 1647.38,-116.76 1637.25,-114.97 1627.44,-112.98"/>
<polygon fill="#63b8ff" stroke="#63b8ff" points="2744.24,-165.06 2754.29,-161.72 2744.35,-158.06 2744.24,-165.06"/>
</g>
<!-- Node641 -->
<g id="node19" class="node">
<title>Node641</title>
<g id="a_node19"><a xlink:href="J3DSkinDeform_8cpp.html" target="_top" xlink:title=" ">
<polygon fill="white" stroke="#666666" points="1824,-112.5 1666,-112.5 1666,-82.5 1824,-82.5 1824,-112.5"/>
<text text-anchor="start" x="1674" y="-100.5" font-family="Helvetica,sans-Serif" font-size="10.00">libs/JSystem/J3DGraphAnimator</text>
<text text-anchor="middle" x="1745" y="-89.5" font-family="Helvetica,sans-Serif" font-size="10.00">/J3DSkinDeform.cpp</text>
</a>
</g>
</g>
<!-- Node2&#45;&gt;Node641 -->
<g id="edge21" class="edge">
<title>Node2&#45;&gt;Node641</title>
<path fill="none" stroke="#63b8ff" d="M2744.29,-161.05C2558.05,-156.52 2010.22,-141.5 1833,-118 1823.38,-116.72 1813.26,-114.92 1803.45,-112.93"/>
<polygon fill="#63b8ff" stroke="#63b8ff" points="2744.17,-164.55 2754.25,-161.29 2744.34,-157.55 2744.17,-164.55"/>
</g>
<!-- Node642 -->
<g id="node20" class="node">
<title>Node642</title>
<g id="a_node20"><a xlink:href="J3DGD_8cpp.html" target="_top" xlink:title=" ">
<polygon fill="white" stroke="#666666" points="1984,-112.5 1842,-112.5 1842,-82.5 1984,-82.5 1984,-112.5"/>
<text text-anchor="start" x="1850" y="-100.5" font-family="Helvetica,sans-Serif" font-size="10.00">libs/JSystem/J3DGraphBase</text>
<text text-anchor="middle" x="1913" y="-89.5" font-family="Helvetica,sans-Serif" font-size="10.00">/J3DGD.cpp</text>
</a>
</g>
</g>
<!-- Node2&#45;&gt;Node642 -->
<g id="edge22" class="edge">
<title>Node2&#45;&gt;Node642</title>
<path fill="none" stroke="#63b8ff" d="M2744.24,-163C2607.13,-163.22 2270.87,-159.1 1993,-118 1984.37,-116.72 1975.32,-114.95 1966.52,-112.99"/>
<polygon fill="#63b8ff" stroke="#63b8ff" points="2744.21,-166.5 2754.2,-162.97 2744.19,-159.5 2744.21,-166.5"/>
</g>
<!-- Node643 -->
<g id="node21" class="node">
<title>Node643</title>
<g id="a_node21"><a xlink:href="J3DMatBlock_8cpp.html" target="_top" xlink:title=" ">
<polygon fill="white" stroke="#666666" points="2144,-112.5 2002,-112.5 2002,-82.5 2144,-82.5 2144,-112.5"/>
<text text-anchor="start" x="2010" y="-100.5" font-family="Helvetica,sans-Serif" font-size="10.00">libs/JSystem/J3DGraphBase</text>
<text text-anchor="middle" x="2073" y="-89.5" font-family="Helvetica,sans-Serif" font-size="10.00">/J3DMatBlock.cpp</text>
</a>
</g>
</g>
<!-- Node2&#45;&gt;Node643 -->
<g id="edge23" class="edge">
<title>Node2&#45;&gt;Node643</title>
<path fill="none" stroke="#63b8ff" d="M2744.61,-161.8C2627.81,-159.7 2368.51,-151.35 2153,-118 2144.52,-116.69 2135.63,-114.92 2126.97,-112.98"/>
<polygon fill="#63b8ff" stroke="#63b8ff" points="2744.22,-165.29 2754.28,-161.96 2744.34,-158.29 2744.22,-165.29"/>
</g>
<!-- Node644 -->
<g id="node22" class="node">
<title>Node644</title>
<g id="a_node22"><a xlink:href="J3DShape_8cpp.html" target="_top" xlink:title=" ">
<polygon fill="white" stroke="#666666" points="2304,-112.5 2162,-112.5 2162,-82.5 2304,-82.5 2304,-112.5"/>
<text text-anchor="start" x="2170" y="-100.5" font-family="Helvetica,sans-Serif" font-size="10.00">libs/JSystem/J3DGraphBase</text>
<text text-anchor="middle" x="2233" y="-89.5" font-family="Helvetica,sans-Serif" font-size="10.00">/J3DShape.cpp</text>
</a>
</g>
</g>
<!-- Node2&#45;&gt;Node644 -->
<g id="edge24" class="edge">
<title>Node2&#45;&gt;Node644</title>
<path fill="none" stroke="#63b8ff" d="M2744.53,-159.87C2650.43,-155.22 2466.92,-143.55 2313,-118 2304.68,-116.62 2295.94,-114.84 2287.43,-112.92"/>
<polygon fill="#63b8ff" stroke="#63b8ff" points="2744.17,-163.35 2754.32,-160.34 2744.5,-156.36 2744.17,-163.35"/>
</g>
<!-- Node645 -->
<g id="node23" class="node">
<title>Node645</title>
<g id="a_node23"><a xlink:href="J3DSys_8cpp.html" target="_top" xlink:title=" ">
<polygon fill="white" stroke="#666666" points="2464,-112.5 2322,-112.5 2322,-82.5 2464,-82.5 2464,-112.5"/>
<text text-anchor="start" x="2330" y="-100.5" font-family="Helvetica,sans-Serif" font-size="10.00">libs/JSystem/J3DGraphBase</text>
<text text-anchor="middle" x="2393" y="-89.5" font-family="Helvetica,sans-Serif" font-size="10.00">/J3DSys.cpp</text>
</a>
</g>
</g>
<!-- Node2&#45;&gt;Node645 -->
<g id="edge25" class="edge">
<title>Node2&#45;&gt;Node645</title>
<path fill="none" stroke="#63b8ff" d="M2744.46,-156.1C2677.31,-148.77 2567.63,-135.48 2474,-118 2466.18,-116.54 2457.98,-114.81 2449.93,-112.99"/>
<polygon fill="#63b8ff" stroke="#63b8ff" points="2743.86,-159.55 2754.18,-157.15 2744.61,-152.59 2743.86,-159.55"/>
</g>
<!-- Node646 -->
<g id="node24" class="node">
<title>Node646</title>
<g id="a_node24"><a xlink:href="J3DClusterLoader_8cpp.html" target="_top" xlink:title=" ">
<polygon fill="white" stroke="#666666" points="2631.5,-112.5 2482.5,-112.5 2482.5,-82.5 2631.5,-82.5 2631.5,-112.5"/>
<text text-anchor="start" x="2490.5" y="-100.5" font-family="Helvetica,sans-Serif" font-size="10.00">libs/JSystem/J3DGraphLoader</text>
<text text-anchor="middle" x="2557" y="-89.5" font-family="Helvetica,sans-Serif" font-size="10.00">/J3DClusterLoader.cpp</text>
</a>
</g>
</g>
<!-- Node2&#45;&gt;Node646 -->
<g id="edge26" class="edge">
<title>Node2&#45;&gt;Node646</title>
<path fill="none" stroke="#63b8ff" d="M2761.06,-150.74C2719.45,-140.09 2658.01,-124.36 2613.43,-112.95"/>
<polygon fill="#63b8ff" stroke="#63b8ff" points="2759.95,-154.07 2770.51,-153.16 2761.69,-147.29 2759.95,-154.07"/>
</g>
<!-- Node647 -->
<g id="node25" class="node">
<title>Node647</title>
<g id="a_node25"><a xlink:href="J3DModelLoader_8cpp.html" target="_top" xlink:title=" ">
<polygon fill="white" stroke="#666666" points="2798.5,-112.5 2649.5,-112.5 2649.5,-82.5 2798.5,-82.5 2798.5,-112.5"/>
<text text-anchor="start" x="2657.5" y="-100.5" font-family="Helvetica,sans-Serif" font-size="10.00">libs/JSystem/J3DGraphLoader</text>
<text text-anchor="middle" x="2724" y="-89.5" font-family="Helvetica,sans-Serif" font-size="10.00">/J3DModelLoader.cpp</text>
</a>
</g>
</g>
<!-- Node2&#45;&gt;Node647 -->
<g id="edge27" class="edge">
<title>Node2&#45;&gt;Node647</title>
<path fill="none" stroke="#63b8ff" d="M2786.53,-146.72C2773.15,-136.4 2755.8,-123.02 2742.78,-112.98"/>
<polygon fill="#63b8ff" stroke="#63b8ff" points="2784.2,-149.34 2794.26,-152.68 2788.48,-143.8 2784.2,-149.34"/>
</g>
<!-- Node648 -->
<g id="node26" class="node">
<title>Node648</title>
<g id="a_node26"><a xlink:href="J3DShapeFactory_8cpp.html" target="_top" xlink:title=" ">
<polygon fill="white" stroke="#666666" points="2965.5,-112.5 2816.5,-112.5 2816.5,-82.5 2965.5,-82.5 2965.5,-112.5"/>
<text text-anchor="start" x="2824.5" y="-100.5" font-family="Helvetica,sans-Serif" font-size="10.00">libs/JSystem/J3DGraphLoader</text>
<text text-anchor="middle" x="2891" y="-89.5" font-family="Helvetica,sans-Serif" font-size="10.00">/J3DShapeFactory.cpp</text>
</a>
</g>
</g>
<!-- Node2&#45;&gt;Node648 -->
<g id="edge28" class="edge">
<title>Node2&#45;&gt;Node648</title>
<path fill="none" stroke="#63b8ff" d="M2827.71,-146.72C2841.26,-136.4 2858.81,-123.02 2872,-112.98"/>
<polygon fill="#63b8ff" stroke="#63b8ff" points="2825.72,-143.84 2819.88,-152.68 2829.96,-149.41 2825.72,-143.84"/>
</g>
<!-- Node526 -->
<g id="node27" class="node">
<title>Node526</title>
<g id="a_node27"><a xlink:href="JASAudioThread_8cpp.html" target="_top" xlink:title=" ">
<polygon fill="white" stroke="#666666" points="3094.5,-112.5 2983.5,-112.5 2983.5,-82.5 3094.5,-82.5 3094.5,-112.5"/>
<text text-anchor="start" x="2991.5" y="-100.5" font-family="Helvetica,sans-Serif" font-size="10.00">libs/JSystem/JAudio2</text>
<text text-anchor="middle" x="3039" y="-89.5" font-family="Helvetica,sans-Serif" font-size="10.00">/JASAudioThread.cpp</text>
</a>
</g>
</g>
<!-- Node2&#45;&gt;Node526 -->
<g id="edge29" class="edge">
<title>Node2&#45;&gt;Node526</title>
<path fill="none" stroke="#63b8ff" d="M2853.44,-150.69C2887.24,-141.97 2934.07,-129.65 2975,-118 2980.59,-116.41 2986.43,-114.7 2992.22,-112.97"/>
<polygon fill="#63b8ff" stroke="#63b8ff" points="2852.78,-147.24 2843.97,-153.12 2854.52,-154.02 2852.78,-147.24"/>
</g>
<!-- Node649 -->
<g id="node28" class="node">
<title>Node649</title>
<g id="a_node28"><a xlink:href="JASCmdStack_8cpp.html" target="_top" xlink:title=" ">
<polygon fill="white" stroke="#666666" points="3223.5,-112.5 3112.5,-112.5 3112.5,-82.5 3223.5,-82.5 3223.5,-112.5"/>
<text text-anchor="start" x="3120.5" y="-100.5" font-family="Helvetica,sans-Serif" font-size="10.00">libs/JSystem/JAudio2</text>
<text text-anchor="middle" x="3168" y="-89.5" font-family="Helvetica,sans-Serif" font-size="10.00">/JASCmdStack.cpp</text>
</a>
</g>
</g>
<!-- Node2&#45;&gt;Node649 -->
<g id="edge30" class="edge">
<title>Node2&#45;&gt;Node649</title>
<path fill="none" stroke="#63b8ff" d="M2869.37,-153.66C2949.68,-142.19 3081.63,-123.06 3104,-118 3110.34,-116.57 3116.98,-114.83 3123.47,-112.98"/>
<polygon fill="#63b8ff" stroke="#63b8ff" points="2869.3,-150.13 2859.89,-155.01 2870.29,-157.06 2869.3,-150.13"/>
</g>
<!-- Node650 -->
<g id="node29" class="node">
<title>Node650</title>
<g id="a_node29"><a xlink:href="JASProbe_8cpp.html" target="_top" xlink:title=" ">
<polygon fill="white" stroke="#666666" points="3352.5,-112.5 3241.5,-112.5 3241.5,-82.5 3352.5,-82.5 3352.5,-112.5"/>
<text text-anchor="start" x="3249.5" y="-100.5" font-family="Helvetica,sans-Serif" font-size="10.00">libs/JSystem/JAudio2</text>
<text text-anchor="middle" x="3297" y="-89.5" font-family="Helvetica,sans-Serif" font-size="10.00">/JASProbe.cpp</text>
</a>
</g>
</g>
<!-- Node2&#45;&gt;Node650 -->
<g id="edge31" class="edge">
<title>Node2&#45;&gt;Node650</title>
<path fill="none" stroke="#63b8ff" d="M2869.61,-153.88C3031.87,-135.4 3076.74,-149.19 3233,-118 3239.72,-116.66 3246.74,-114.9 3253.57,-112.99"/>
<polygon fill="#63b8ff" stroke="#63b8ff" points="2869.27,-150.4 2859.74,-155.03 2870.08,-157.35 2869.27,-150.4"/>
</g>
<!-- Node651 -->
<g id="node30" class="node">
<title>Node651</title>
<g id="a_node30"><a xlink:href="JASTaskThread_8cpp.html" target="_top" xlink:title=" ">
<polygon fill="white" stroke="#666666" points="3481.5,-112.5 3370.5,-112.5 3370.5,-82.5 3481.5,-82.5 3481.5,-112.5"/>
<text text-anchor="start" x="3378.5" y="-100.5" font-family="Helvetica,sans-Serif" font-size="10.00">libs/JSystem/JAudio2</text>
<text text-anchor="middle" x="3426" y="-89.5" font-family="Helvetica,sans-Serif" font-size="10.00">/JASTaskThread.cpp</text>
</a>
</g>
</g>
<!-- Node2&#45;&gt;Node651 -->
<g id="edge32" class="edge">
<title>Node2&#45;&gt;Node651</title>
<path fill="none" stroke="#63b8ff" d="M2869.48,-153.94C3088.9,-131.69 3149.18,-157.66 3362,-118 3368.97,-116.7 3376.25,-114.92 3383.29,-112.95"/>
<polygon fill="#63b8ff" stroke="#63b8ff" points="2869.32,-150.44 2859.73,-154.96 2870.04,-157.4 2869.32,-150.44"/>
</g>
<!-- Node652 -->
<g id="node31" class="node">
<title>Node652</title>
<g id="a_node31"><a xlink:href="dsptask_8cpp.html" target="_top" xlink:title=" ">
<polygon fill="white" stroke="#666666" points="3610.5,-112.5 3499.5,-112.5 3499.5,-82.5 3610.5,-82.5 3610.5,-112.5"/>
<text text-anchor="start" x="3507.5" y="-100.5" font-family="Helvetica,sans-Serif" font-size="10.00">libs/JSystem/JAudio2</text>
<text text-anchor="middle" x="3555" y="-89.5" font-family="Helvetica,sans-Serif" font-size="10.00">/dsptask.cpp</text>
</a>
</g>
</g>
<!-- Node2&#45;&gt;Node652 -->
<g id="edge33" class="edge">
<title>Node2&#45;&gt;Node652</title>
<path fill="none" stroke="#63b8ff" d="M2869.41,-153.98C3146,-127.88 3221.57,-166.12 3491,-118 3498.09,-116.73 3505.5,-114.94 3512.66,-112.94"/>
<polygon fill="#63b8ff" stroke="#63b8ff" points="2869.34,-150.47 2859.73,-154.91 2870.02,-157.43 2869.34,-150.47"/>
</g>
<!-- Node653 -->
<g id="node32" class="node">
<title>Node653</title>
<g id="a_node32"><a xlink:href="osdsp_8cpp.html" target="_top" xlink:title=" ">
<polygon fill="white" stroke="#666666" points="3739.5,-112.5 3628.5,-112.5 3628.5,-82.5 3739.5,-82.5 3739.5,-112.5"/>
<text text-anchor="start" x="3636.5" y="-100.5" font-family="Helvetica,sans-Serif" font-size="10.00">libs/JSystem/JAudio2</text>
<text text-anchor="middle" x="3684" y="-89.5" font-family="Helvetica,sans-Serif" font-size="10.00">/osdsp.cpp</text>
</a>
</g>
</g>
<!-- Node2&#45;&gt;Node653 -->
<g id="edge34" class="edge">
<title>Node2&#45;&gt;Node653</title>
<path fill="none" stroke="#63b8ff" d="M2869.67,-153.97C3203.19,-124.04 3294.02,-174.56 3620,-118 3627.21,-116.75 3634.75,-114.93 3642.01,-112.91"/>
<polygon fill="#63b8ff" stroke="#63b8ff" points="2869.36,-150.48 2859.72,-154.88 2870,-157.45 2869.36,-150.48"/>
</g>
<!-- Node654 -->
<g id="node33" class="node">
<title>Node654</title>
<g id="a_node33"><a xlink:href="JKRAramPiece_8cpp.html" target="_top" xlink:title=" ">
<polygon fill="white" stroke="#666666" points="3866.5,-112.5 3757.5,-112.5 3757.5,-82.5 3866.5,-82.5 3866.5,-112.5"/>
<text text-anchor="start" x="3765.5" y="-100.5" font-family="Helvetica,sans-Serif" font-size="10.00">libs/JSystem/JKernel</text>
<text text-anchor="middle" x="3812" y="-89.5" font-family="Helvetica,sans-Serif" font-size="10.00">/JKRAramPiece.cpp</text>
</a>
</g>
</g>
<!-- Node2&#45;&gt;Node654 -->
<g id="edge36" class="edge">
<title>Node2&#45;&gt;Node654</title>
<path fill="none" stroke="#63b8ff" d="M2869.56,-153.99C3260.32,-120.15 3366.48,-183.86 3749,-118 3756.11,-116.78 3763.53,-114.97 3770.69,-112.95"/>
<polygon fill="#63b8ff" stroke="#63b8ff" points="2869.37,-150.49 2859.72,-154.86 2869.99,-157.47 2869.37,-150.49"/>
</g>
<!-- Node655 -->
<g id="node34" class="node">
<title>Node655</title>
<g id="a_node34"><a xlink:href="JPAChildShape_8cpp.html" target="_top" xlink:title=" ">
<polygon fill="white" stroke="#666666" points="3999,-112.5 3885,-112.5 3885,-82.5 3999,-82.5 3999,-112.5"/>
<text text-anchor="start" x="3893" y="-100.5" font-family="Helvetica,sans-Serif" font-size="10.00">libs/JSystem/JParticle</text>
<text text-anchor="middle" x="3942" y="-89.5" font-family="Helvetica,sans-Serif" font-size="10.00">/JPAChildShape.cpp</text>
</a>
</g>
</g>
<!-- Node2&#45;&gt;Node655 -->
<g id="edge39" class="edge">
<title>Node2&#45;&gt;Node655</title>
<path fill="none" stroke="#63b8ff" d="M2869.51,-154C3316.58,-116.25 3437.22,-189.48 3876,-118 3883.43,-116.79 3891.2,-114.99 3898.69,-112.97"/>
<polygon fill="#63b8ff" stroke="#63b8ff" points="2869.38,-150.5 2859.72,-154.85 2869.98,-157.48 2869.38,-150.5"/>
</g>
<!-- Node656 -->
<g id="node35" class="node">
<title>Node656</title>
<g id="a_node35"><a xlink:href="JPAExtraShape_8cpp.html" target="_top" xlink:title=" ">
<polygon fill="white" stroke="#666666" points="4131,-112.5 4017,-112.5 4017,-82.5 4131,-82.5 4131,-112.5"/>
<text text-anchor="start" x="4025" y="-100.5" font-family="Helvetica,sans-Serif" font-size="10.00">libs/JSystem/JParticle</text>
<text text-anchor="middle" x="4074" y="-89.5" font-family="Helvetica,sans-Serif" font-size="10.00">/JPAExtraShape.cpp</text>
</a>
</g>
</g>
<!-- Node2&#45;&gt;Node656 -->
<g id="edge40" class="edge">
<title>Node2&#45;&gt;Node656</title>
<path fill="none" stroke="#63b8ff" d="M2869.46,-154.01C3375.08,-112.23 3511.17,-197.88 4008,-118 4015.55,-116.79 4023.45,-114.96 4031.05,-112.9"/>
<polygon fill="#63b8ff" stroke="#63b8ff" points="2869.39,-150.51 2859.72,-154.83 2869.98,-157.48 2869.39,-150.51"/>
</g>
<!-- Node603 -->
<g id="node36" class="node">
<title>Node603</title>
<g id="a_node36"><a xlink:href="JUTException_8cpp.html" target="_top" xlink:title=" ">
<polygon fill="white" stroke="#666666" points="4255,-112.5 4149,-112.5 4149,-82.5 4255,-82.5 4255,-112.5"/>
<text text-anchor="start" x="4157" y="-100.5" font-family="Helvetica,sans-Serif" font-size="10.00">libs/JSystem/JUtility</text>
<text text-anchor="middle" x="4202" y="-89.5" font-family="Helvetica,sans-Serif" font-size="10.00">/JUTException.cpp</text>
</a>
</g>
</g>
<!-- Node2&#45;&gt;Node603 -->
<g id="edge42" class="edge">
<title>Node2&#45;&gt;Node603</title>
<path fill="none" stroke="#63b8ff" d="M2869.52,-154.04C3167.79,-131.31 3864.67,-164.27 4140,-118 4147.12,-116.8 4154.56,-114.99 4161.71,-112.93"/>
<polygon fill="#63b8ff" stroke="#63b8ff" points="2869.41,-150.54 2859.72,-154.83 2869.97,-157.52 2869.41,-150.54"/>
</g>
<!-- Node657 -->
<g id="node37" class="node">
<title>Node657</title>
<g id="a_node37"><a xlink:href="JUTPalette_8cpp.html" target="_top" xlink:title=" ">
<polygon fill="white" stroke="#666666" points="4379,-112.5 4273,-112.5 4273,-82.5 4379,-82.5 4379,-112.5"/>
<text text-anchor="start" x="4281" y="-100.5" font-family="Helvetica,sans-Serif" font-size="10.00">libs/JSystem/JUtility</text>
<text text-anchor="middle" x="4326" y="-89.5" font-family="Helvetica,sans-Serif" font-size="10.00">/JUTPalette.cpp</text>
</a>
</g>
</g>
<!-- Node2&#45;&gt;Node657 -->
<g id="edge43" class="edge">
<title>Node2&#45;&gt;Node657</title>
<path fill="none" stroke="#63b8ff" d="M2869.61,-154.04C3195.51,-129.48 3961.49,-168.45 4264,-118 4271.12,-116.81 4278.56,-115 4285.71,-112.95"/>
<polygon fill="#63b8ff" stroke="#63b8ff" points="2869.41,-150.54 2859.72,-154.82 2869.96,-157.52 2869.41,-150.54"/>
</g>
<!-- Node658 -->
<g id="node38" class="node">
<title>Node658</title>
<g id="a_node38"><a xlink:href="uart__console__io__gcn_8c.html" target="_top" xlink:title=" ">
<polygon fill="white" stroke="#666666" points="4543,-118 4397,-118 4397,-77 4543,-77 4543,-118"/>
<text text-anchor="start" x="4405" y="-106" font-family="Helvetica,sans-Serif" font-size="10.00">libs/PowerPC_EABI_Support</text>
<text text-anchor="start" x="4405" y="-95" font-family="Helvetica,sans-Serif" font-size="10.00">/MSL/MSL_C/PPC_EABI/Src</text>
<text text-anchor="middle" x="4470" y="-84" font-family="Helvetica,sans-Serif" font-size="10.00">/uart_console_io_gcn.c</text>
</a>
</g>
</g>
<!-- Node2&#45;&gt;Node658 -->
<g id="edge44" class="edge">
<title>Node2&#45;&gt;Node658</title>
<path fill="none" stroke="#63b8ff" d="M2869.67,-154.01C3543.52,-100.46 3721.6,-204.16 4388,-118 4390.9,-117.62 4393.85,-117.19 4396.82,-116.7"/>
<polygon fill="#63b8ff" stroke="#63b8ff" points="2869.4,-150.52 2859.72,-154.81 2869.97,-157.5 2869.4,-150.52"/>
</g>
<!-- Node659 -->
<g id="node39" class="node">
<title>Node659</title>
<g id="a_node39"><a xlink:href="GCN__Mem__Alloc_8c.html" target="_top" xlink:title=" ">
<polygon fill="white" stroke="#666666" points="4721,-112.5 4561,-112.5 4561,-82.5 4721,-82.5 4721,-112.5"/>
<text text-anchor="start" x="4569" y="-100.5" font-family="Helvetica,sans-Serif" font-size="10.00">libs/PowerPC_EABI_Support</text>
<text text-anchor="middle" x="4641" y="-89.5" font-family="Helvetica,sans-Serif" font-size="10.00">/Runtime/Src/GCN_Mem_Alloc.c</text>
</a>
</g>
</g>
<!-- Node2&#45;&gt;Node659 -->
<g id="edge45" class="edge">
<title>Node2&#45;&gt;Node659</title>
<path fill="none" stroke="#63b8ff" d="M2869.52,-154.02C3616.19,-95.36 3812.36,-206.09 4552,-118 4562.05,-116.8 4572.64,-114.99 4582.87,-112.93"/>
<polygon fill="#63b8ff" stroke="#63b8ff" points="2869.41,-150.52 2859.72,-154.8 2869.96,-157.5 2869.41,-150.52"/>
</g>
<!-- Node480 -->
<g id="node40" class="node">
<title>Node480</title>
<g id="a_node40"><a xlink:href="Z2AudioMgr_8cpp.html" target="_top" xlink:title=" ">
<polygon fill="white" stroke="#666666" points="4897,-107 4739,-107 4739,-88 4897,-88 4897,-107"/>
<text text-anchor="middle" x="4818" y="-95" font-family="Helvetica,sans-Serif" font-size="10.00">libs/Z2AudioLib/Z2AudioMgr.cpp</text>
</a>
</g>
</g>
<!-- Node2&#45;&gt;Node480 -->
<g id="edge47" class="edge">
<title>Node2&#45;&gt;Node480</title>
<path fill="none" stroke="#63b8ff" d="M2869.48,-154.05C3298.77,-122.18 4322.67,-166.58 4730,-118 4748.34,-115.81 4768.46,-111.5 4784.84,-107.48"/>
<polygon fill="#63b8ff" stroke="#63b8ff" points="2869.42,-150.54 2859.72,-154.8 2869.95,-157.52 2869.42,-150.54"/>
</g>
<!-- Node185 -->
<g id="node41" class="node">
<title>Node185</title>
<g id="a_node41"><a xlink:href="Z2LinkMgr_8cpp.html" target="_top" xlink:title=" ">
<polygon fill="white" stroke="#666666" points="5067,-107 4915,-107 4915,-88 5067,-88 5067,-107"/>
<text text-anchor="middle" x="4991" y="-95" font-family="Helvetica,sans-Serif" font-size="10.00">libs/Z2AudioLib/Z2LinkMgr.cpp</text>
</a>
</g>
</g>
<!-- Node2&#45;&gt;Node185 -->
<g id="edge48" class="edge">
<title>Node2&#45;&gt;Node185</title>
<path fill="none" stroke="#63b8ff" d="M2869.49,-154.05C3337.85,-119.55 4460.01,-172.5 4906,-118 4923.88,-115.81 4943.51,-111.45 4959.39,-107.4"/>
<polygon fill="#63b8ff" stroke="#63b8ff" points="2869.42,-150.54 2859.72,-154.79 2869.95,-157.52 2869.42,-150.54"/>
</g>
<!-- Node486 -->
<g id="node42" class="node">
<title>Node486</title>
<g id="a_node42"><a xlink:href="Z2WolfHowlMgr_8cpp.html" target="_top" xlink:title=" ">
<polygon fill="white" stroke="#666666" points="5225,-112.5 5085,-112.5 5085,-82.5 5225,-82.5 5225,-112.5"/>
<text text-anchor="start" x="5093" y="-100.5" font-family="Helvetica,sans-Serif" font-size="10.00">libs/Z2AudioLib/Z2WolfHowl</text>
<text text-anchor="middle" x="5155" y="-89.5" font-family="Helvetica,sans-Serif" font-size="10.00">Mgr.cpp</text>
</a>
</g>
</g>
<!-- Node2&#45;&gt;Node486 -->
<g id="edge49" class="edge">
<title>Node2&#45;&gt;Node486</title>
<path fill="none" stroke="#63b8ff" d="M2869.66,-154.04C3375.87,-117.04 4593.04,-180.72 5076,-118 5084.97,-116.84 5094.39,-115.03 5103.47,-112.99"/>
<polygon fill="#63b8ff" stroke="#63b8ff" points="2869.42,-150.55 2859.71,-154.79 2869.95,-157.53 2869.42,-150.55"/>
</g>
<!-- Node660 -->
<g id="node43" class="node">
<title>Node660</title>
<g id="a_node43"><a xlink:href="ai_8c.html" target="_top" xlink:title=" ">
<polygon fill="white" stroke="#666666" points="5337,-107 5243,-107 5243,-88 5337,-88 5337,-107"/>
<text text-anchor="middle" x="5290" y="-95" font-family="Helvetica,sans-Serif" font-size="10.00">libs/dolphin/ai/ai.c</text>
</a>
</g>
</g>
<!-- Node2&#45;&gt;Node660 -->
<g id="edge50" class="edge">
<title>Node2&#45;&gt;Node660</title>
<path fill="none" stroke="#63b8ff" d="M2869.32,-154.12C3176.73,-134.57 4978.39,-163.23 5234,-118 5246.06,-115.87 5259.01,-111.5 5269.42,-107.44"/>
<polygon fill="#63b8ff" stroke="#63b8ff" points="2869.45,-150.6 2859.72,-154.79 2869.94,-157.59 2869.45,-150.6"/>
</g>
<!-- Node661 -->
<g id="node44" class="node">
<title>Node661</title>
<g id="a_node44"><a xlink:href="ar_8c.html" target="_top" xlink:title=" ">
<polygon fill="white" stroke="#666666" points="5450.5,-107 5355.5,-107 5355.5,-88 5450.5,-88 5450.5,-107"/>
<text text-anchor="middle" x="5403" y="-95" font-family="Helvetica,sans-Serif" font-size="10.00">libs/dolphin/ar/ar.c</text>
</a>
</g>
</g>
<!-- Node2&#45;&gt;Node661 -->
<g id="edge51" class="edge">
<title>Node2&#45;&gt;Node661</title>
<path fill="none" stroke="#63b8ff" d="M2869.35,-154.12C3189.48,-133.73 5078.02,-164.57 5346,-118 5358.26,-115.87 5371.44,-111.51 5382.03,-107.45"/>
<polygon fill="#63b8ff" stroke="#63b8ff" points="2869.45,-150.6 2859.71,-154.79 2869.93,-157.58 2869.45,-150.6"/>
</g>
<!-- Node662 -->
<g id="node45" class="node">
<title>Node662</title>
<g id="a_node45"><a xlink:href="CARDBios_8c.html" target="_top" xlink:title=" ">
<polygon fill="white" stroke="#666666" points="5613,-107 5469,-107 5469,-88 5613,-88 5613,-107"/>
<text text-anchor="middle" x="5541" y="-95" font-family="Helvetica,sans-Serif" font-size="10.00">libs/dolphin/card/CARDBios.c</text>
</a>
</g>
</g>
<!-- Node2&#45;&gt;Node662 -->
<g id="edge52" class="edge">
<title>Node2&#45;&gt;Node662</title>
<path fill="none" stroke="#63b8ff" d="M2869.43,-154.06C3460.71,-111.17 4892.07,-189.4 5460,-118 5477.08,-115.85 5495.78,-111.49 5510.91,-107.43"/>
<polygon fill="#63b8ff" stroke="#63b8ff" points="2869.43,-150.55 2859.71,-154.78 2869.95,-157.53 2869.43,-150.55"/>
</g>
<!-- Node663 -->
<g id="node46" class="node">
<title>Node663</title>
<g id="a_node46"><a xlink:href="CARDUnlock_8c.html" target="_top" xlink:title=" ">
<polygon fill="white" stroke="#666666" points="5786.5,-107 5631.5,-107 5631.5,-88 5786.5,-88 5786.5,-107"/>
<text text-anchor="middle" x="5709" y="-95" font-family="Helvetica,sans-Serif" font-size="10.00">libs/dolphin/card/CARDUnlock.c</text>
</a>
</g>
</g>
<!-- Node2&#45;&gt;Node663 -->
<g id="edge53" class="edge">
<title>Node2&#45;&gt;Node663</title>
<path fill="none" stroke="#63b8ff" d="M2869.66,-154.04C3497.01,-108.66 5017.83,-188.88 5622,-118 5640.29,-115.85 5660.38,-111.49 5676.64,-107.43"/>
<polygon fill="#63b8ff" stroke="#63b8ff" points="2869.43,-150.55 2859.71,-154.78 2869.95,-157.53 2869.43,-150.55"/>
</g>
<!-- Node632 -->
<g id="node47" class="node">
<title>Node632</title>
<g id="a_node47"><a xlink:href="db_8c.html" target="_top" xlink:title=" ">
<polygon fill="white" stroke="#666666" points="5905,-107 5805,-107 5805,-88 5905,-88 5905,-107"/>
<text text-anchor="middle" x="5855" y="-95" font-family="Helvetica,sans-Serif" font-size="10.00">libs/dolphin/db/db.c</text>
</a>
</g>
</g>
<!-- Node2&#45;&gt;Node632 -->
<g id="edge54" class="edge">
<title>Node2&#45;&gt;Node632</title>
<path fill="none" stroke="#63b8ff" d="M2869.65,-154.09C3241.25,-130.4 5478.55,-171.1 5796,-118 5808.66,-115.88 5822.3,-111.52 5833.27,-107.46"/>
<polygon fill="#63b8ff" stroke="#63b8ff" points="2869.45,-150.6 2859.71,-154.78 2869.93,-157.58 2869.45,-150.6"/>
</g>
<!-- Node664 -->
<g id="node48" class="node">
<title>Node664</title>
<g id="a_node48"><a xlink:href="dvd_8c.html" target="_top" xlink:title=" ">
<polygon fill="white" stroke="#666666" points="6033,-107 5923,-107 5923,-88 6033,-88 6033,-107"/>
<text text-anchor="middle" x="5978" y="-95" font-family="Helvetica,sans-Serif" font-size="10.00">libs/dolphin/dvd/dvd.c</text>
</a>
</g>
</g>
<!-- Node2&#45;&gt;Node664 -->
<g id="edge55" class="edge">
<title>Node2&#45;&gt;Node664</title>
<path fill="none" stroke="#63b8ff" d="M2869.52,-154.1C3253.98,-129.43 5582.96,-169.31 5914,-118 5927.66,-115.88 5942.45,-111.52 5954.37,-107.46"/>
<polygon fill="#63b8ff" stroke="#63b8ff" points="2869.45,-150.59 2859.71,-154.78 2869.93,-157.58 2869.45,-150.59"/>
</g>
<!-- Node8&#45;&gt;Node606 -->
<g id="edge4" class="edge">
<title>Node8&#45;&gt;Node606</title>
<path fill="none" stroke="#63b8ff" d="M378.55,-82.86C321.1,-71.92 238.81,-55.97 167,-41 159.34,-39.4 151.32,-37.69 143.36,-35.96"/>
<polygon fill="#63b8ff" stroke="#63b8ff" points="377.73,-86.27 388.21,-84.7 379.04,-79.39 377.73,-86.27"/>
</g>
<!-- Node8&#45;&gt;Node596 -->
<g id="edge5" class="edge">
<title>Node8&#45;&gt;Node596</title>
<path fill="none" stroke="#63b8ff" d="M400.09,-78.32C363.62,-65.29 315.18,-47.99 281.37,-35.92"/>
<polygon fill="#63b8ff" stroke="#63b8ff" points="398.49,-81.46 409.08,-81.53 400.84,-74.87 398.49,-81.46"/>
</g>
<!-- Node8&#45;&gt;Node614 -->
<g id="edge6" class="edge">
<title>Node8&#45;&gt;Node614</title>
<path fill="none" stroke="#63b8ff" d="M429.39,-73.99C417.53,-61.64 403.19,-46.7 392.84,-35.92"/>
<polygon fill="#63b8ff" stroke="#63b8ff" points="426.62,-76.16 436.07,-80.95 431.67,-71.31 426.62,-76.16"/>
</g>
<!-- Node8&#45;&gt;Node617 -->
<g id="edge7" class="edge">
<title>Node8&#45;&gt;Node617</title>
<path fill="none" stroke="#63b8ff" d="M468.3,-72.91C477.19,-60.78 487.75,-46.38 495.43,-35.92"/>
<polygon fill="#63b8ff" stroke="#63b8ff" points="465.59,-70.68 462.5,-80.82 471.24,-74.82 465.59,-70.68"/>
</g>
<!-- Node8&#45;&gt;Node602 -->
<g id="edge8" class="edge">
<title>Node8&#45;&gt;Node602</title>
<path fill="none" stroke="#63b8ff" d="M496.51,-77.64C527.75,-64.7 568.57,-47.78 597.21,-35.92"/>
<polygon fill="#63b8ff" stroke="#63b8ff" points="495.2,-74.4 487.3,-81.46 497.88,-80.87 495.2,-74.4"/>
</g>
<!-- Node626&#45;&gt;Node628 -->
<g id="edge13" class="edge">
<title>Node626&#45;&gt;Node628</title>
<path fill="none" stroke="#63b8ff" d="M1092.41,-65.62C1090.21,-55.3 1087.86,-44.3 1086.06,-35.86"/>
<polygon fill="#63b8ff" stroke="#63b8ff" points="1088.97,-66.26 1094.48,-75.31 1095.82,-64.8 1088.97,-66.26"/>
</g>
<!-- Node629&#45;&gt;Node621 -->
<g id="edge15" class="edge">
<title>Node629&#45;&gt;Node621</title>
<path fill="none" stroke="#63b8ff" d="M751.44,-71C753.51,-61.3 755.83,-50.4 757.78,-41.3"/>
<polygon fill="#63b8ff" stroke="#63b8ff" points="748.06,-70.05 749.4,-80.56 754.91,-71.51 748.06,-70.05"/>
</g>
<!-- Node629&#45;&gt;Node623 -->
<g id="edge16" class="edge">
<title>Node629&#45;&gt;Node623</title>
<path fill="none" stroke="#63b8ff" d="M785.39,-77.06C807.58,-66.12 835.23,-52.47 857.58,-41.44"/>
<polygon fill="#63b8ff" stroke="#63b8ff" points="784.08,-73.81 776.66,-81.37 787.18,-80.08 784.08,-73.81"/>
</g>
</g>
</svg>
