<?xml version="1.0" encoding="UTF-8" standalone="no"?>
<!DOCTYPE svg PUBLIC "-//W3C//DTD SVG 1.1//EN"
 "http://www.w3.org/Graphics/SVG/1.1/DTD/svg11.dtd">
<!-- Generated by graphviz version 7.0.5 (20221223.1930)
 -->
<!-- Title: include/dolphin/os/OSCache.h Pages: 1 -->
<svg width="5960pt" height="258pt"
 viewBox="0.00 0.00 5960.00 258.00" xmlns="http://www.w3.org/2000/svg" xmlns:xlink="http://www.w3.org/1999/xlink">
<g id="graph0" class="graph" transform="scale(1 1) rotate(0) translate(4 254)">
<title>include/dolphin/os/OSCache.h</title>
<!-- Node1 -->
<g id="node1" class="node">
<title>Node1</title>
<g id="a_node1"><a xlink:title=" ">
<polygon fill="#999999" stroke="#666666" points="4734.5,-250 4639.5,-250 4639.5,-220 4734.5,-220 4734.5,-250"/>
<text text-anchor="start" x="4647.5" y="-238" font-family="Helvetica,sans-Serif" font-size="10.00">include/dolphin/os</text>
<text text-anchor="middle" x="4687" y="-227" font-family="Helvetica,sans-Serif" font-size="10.00">/OSCache.h</text>
</a>
</g>
</g>
<!-- Node2 -->
<g id="node2" class="node">
<title>Node2</title>
<g id="a_node2"><a xlink:href="os_8h.html" target="_top" xlink:title=" ">
<polygon fill="#fff0f0" stroke="red" points="2485,-178.5 2383,-178.5 2383,-159.5 2485,-159.5 2485,-178.5"/>
<text text-anchor="middle" x="2434" y="-166.5" font-family="Helvetica,sans-Serif" font-size="10.00">include/dolphin/os.h</text>
</a>
</g>
</g>
<!-- Node1&#45;&gt;Node2 -->
<g id="edge1" class="edge">
<title>Node1&#45;&gt;Node2</title>
<path fill="none" stroke="#63b8ff" d="M4627.84,-232.32C4307.53,-223.22 2784.24,-179.95 2485.06,-171.45"/>
<polygon fill="#63b8ff" stroke="#63b8ff" points="4627.55,-235.81 4637.65,-232.6 4627.75,-228.82 4627.55,-235.81"/>
</g>
<!-- Node611 -->
<g id="node7" class="node">
<title>Node611</title>
<g id="a_node7"><a xlink:href="JKRAramArchive_8cpp.html" target="_top" xlink:title=" ">
<polygon fill="white" stroke="#666666" points="3769.5,-35.5 3656.5,-35.5 3656.5,-5.5 3769.5,-5.5 3769.5,-35.5"/>
<text text-anchor="start" x="3664.5" y="-23.5" font-family="Helvetica,sans-Serif" font-size="10.00">libs/JSystem/JKernel</text>
<text text-anchor="middle" x="3713" y="-12.5" font-family="Helvetica,sans-Serif" font-size="10.00">/JKRAramArchive.cpp</text>
</a>
</g>
</g>
<!-- Node1&#45;&gt;Node611 -->
<g id="edge49" class="edge">
<title>Node1&#45;&gt;Node611</title>
<path fill="none" stroke="#63b8ff" d="M4627.83,-233.09C4464.57,-230.15 4016.07,-218.93 3960,-184 3913.35,-154.94 3941.13,-111.07 3898,-77 3887.57,-68.76 3819.14,-49.45 3768.53,-35.94"/>
<polygon fill="#63b8ff" stroke="#63b8ff" points="4627.51,-236.59 4637.57,-233.26 4627.64,-229.59 4627.51,-236.59"/>
</g>
<!-- Node613 -->
<g id="node8" class="node">
<title>Node613</title>
<g id="a_node8"><a xlink:href="JKRCompArchive_8cpp.html" target="_top" xlink:title=" ">
<polygon fill="white" stroke="#666666" points="3912.5,-35.5 3797.5,-35.5 3797.5,-5.5 3912.5,-5.5 3912.5,-35.5"/>
<text text-anchor="start" x="3805.5" y="-23.5" font-family="Helvetica,sans-Serif" font-size="10.00">libs/JSystem/JKernel</text>
<text text-anchor="middle" x="3855" y="-12.5" font-family="Helvetica,sans-Serif" font-size="10.00">/JKRCompArchive.cpp</text>
</a>
</g>
</g>
<!-- Node1&#45;&gt;Node613 -->
<g id="edge50" class="edge">
<title>Node1&#45;&gt;Node613</title>
<path fill="none" stroke="#63b8ff" d="M4627.81,-232.98C4469.19,-229.81 4042.96,-218.16 3990,-184 3944.54,-154.68 3967.73,-117.61 3932,-77 3917.31,-60.3 3896.7,-45.78 3880.5,-35.78"/>
<polygon fill="#63b8ff" stroke="#63b8ff" points="4627.63,-236.48 4637.69,-233.18 4627.76,-229.48 4627.63,-236.48"/>
</g>
<!-- Node618 -->
<g id="node11" class="node">
<title>Node618</title>
<g id="a_node11"><a xlink:href="JKRMemArchive_8cpp.html" target="_top" xlink:title=" ">
<polygon fill="white" stroke="#666666" points="4046.5,-35.5 3935.5,-35.5 3935.5,-5.5 4046.5,-5.5 4046.5,-35.5"/>
<text text-anchor="start" x="3943.5" y="-23.5" font-family="Helvetica,sans-Serif" font-size="10.00">libs/JSystem/JKernel</text>
<text text-anchor="middle" x="3991" y="-12.5" font-family="Helvetica,sans-Serif" font-size="10.00">/JKRMemArchive.cpp</text>
</a>
</g>
</g>
<!-- Node1&#45;&gt;Node618 -->
<g id="edge53" class="edge">
<title>Node1&#45;&gt;Node618</title>
<path fill="none" stroke="#63b8ff" d="M4627.94,-233.79C4471.85,-232.64 4057.28,-225.68 4013,-184 3971.54,-144.98 3981.43,-67.74 3987.75,-35.82"/>
<polygon fill="#63b8ff" stroke="#63b8ff" points="4627.63,-237.28 4637.65,-233.85 4627.67,-230.28 4627.63,-237.28"/>
</g>
<!-- Node634 -->
<g id="node36" class="node">
<title>Node634</title>
<g id="a_node36"><a xlink:href="OSCache_8c.html" target="_top" xlink:title=" ">
<polygon fill="white" stroke="#666666" points="3889.5,-107 3758.5,-107 3758.5,-88 3889.5,-88 3889.5,-107"/>
<text text-anchor="middle" x="3824" y="-95" font-family="Helvetica,sans-Serif" font-size="10.00">libs/dolphin/os/OSCache.c</text>
</a>
</g>
</g>
<!-- Node1&#45;&gt;Node634 -->
<g id="edge55" class="edge">
<title>Node1&#45;&gt;Node634</title>
<path fill="none" stroke="#63b8ff" d="M4627.82,-232.73C4456.62,-228.69 3968.83,-214.62 3904,-184 3867.79,-166.9 3839.93,-125.49 3829.02,-107.31"/>
<polygon fill="#63b8ff" stroke="#63b8ff" points="4627.52,-236.22 4637.6,-232.95 4627.68,-229.22 4627.52,-236.22"/>
</g>
<!-- Node690 -->
<g id="node37" class="node">
<title>Node690</title>
<g id="a_node37"><a xlink:href="J3DPacket_8cpp.html" target="_top" xlink:title=" ">
<polygon fill="white" stroke="#666666" points="4164,-184 4022,-184 4022,-154 4164,-154 4164,-184"/>
<text text-anchor="start" x="4030" y="-172" font-family="Helvetica,sans-Serif" font-size="10.00">libs/JSystem/J3DGraphBase</text>
<text text-anchor="middle" x="4093" y="-161" font-family="Helvetica,sans-Serif" font-size="10.00">/J3DPacket.cpp</text>
</a>
</g>
</g>
<!-- Node1&#45;&gt;Node690 -->
<g id="edge42" class="edge">
<title>Node1&#45;&gt;Node690</title>
<path fill="none" stroke="#63b8ff" d="M4627.55,-229.7C4531.65,-222.43 4336.96,-206.29 4173,-184 4170.21,-183.62 4167.36,-183.21 4164.49,-182.79"/>
<polygon fill="#63b8ff" stroke="#63b8ff" points="4627.28,-233.19 4637.52,-230.45 4627.81,-226.21 4627.28,-233.19"/>
</g>
<!-- Node691 -->
<g id="node38" class="node">
<title>Node691</title>
<g id="a_node38"><a xlink:href="J3DShapeDraw_8cpp.html" target="_top" xlink:title=" ">
<polygon fill="white" stroke="#666666" points="4324,-184 4182,-184 4182,-154 4324,-154 4324,-184"/>
<text text-anchor="start" x="4190" y="-172" font-family="Helvetica,sans-Serif" font-size="10.00">libs/JSystem/J3DGraphBase</text>
<text text-anchor="middle" x="4253" y="-161" font-family="Helvetica,sans-Serif" font-size="10.00">/J3DShapeDraw.cpp</text>
</a>
</g>
</g>
<!-- Node1&#45;&gt;Node691 -->
<g id="edge43" class="edge">
<title>Node1&#45;&gt;Node691</title>
<path fill="none" stroke="#63b8ff" d="M4627.85,-226.25C4557.48,-216.89 4436.52,-200.36 4333,-184 4330.08,-183.54 4327.09,-183.06 4324.08,-182.56"/>
<polygon fill="#63b8ff" stroke="#63b8ff" points="4627.24,-229.7 4637.61,-227.55 4628.16,-222.76 4627.24,-229.7"/>
</g>
<!-- Node692 -->
<g id="node39" class="node">
<title>Node692</title>
<g id="a_node39"><a xlink:href="J3DVertex_8cpp.html" target="_top" xlink:title=" ">
<polygon fill="white" stroke="#666666" points="4484,-184 4342,-184 4342,-154 4484,-154 4484,-184"/>
<text text-anchor="start" x="4350" y="-172" font-family="Helvetica,sans-Serif" font-size="10.00">libs/JSystem/J3DGraphBase</text>
<text text-anchor="middle" x="4413" y="-161" font-family="Helvetica,sans-Serif" font-size="10.00">/J3DVertex.cpp</text>
</a>
</g>
</g>
<!-- Node1&#45;&gt;Node692 -->
<g id="edge44" class="edge">
<title>Node1&#45;&gt;Node692</title>
<path fill="none" stroke="#63b8ff" d="M4628.17,-220.26C4582.99,-209.71 4520.77,-195.17 4474.85,-184.45"/>
<polygon fill="#63b8ff" stroke="#63b8ff" points="4627.26,-223.64 4637.8,-222.51 4628.86,-216.82 4627.26,-223.64"/>
</g>
<!-- Node524 -->
<g id="node40" class="node">
<title>Node524</title>
<g id="a_node40"><a xlink:href="JASAiCtrl_8cpp.html" target="_top" xlink:title=" ">
<polygon fill="white" stroke="#666666" points="4613.5,-184 4502.5,-184 4502.5,-154 4613.5,-154 4613.5,-184"/>
<text text-anchor="start" x="4510.5" y="-172" font-family="Helvetica,sans-Serif" font-size="10.00">libs/JSystem/JAudio2</text>
<text text-anchor="middle" x="4558" y="-161" font-family="Helvetica,sans-Serif" font-size="10.00">/JASAiCtrl.cpp</text>
</a>
</g>
</g>
<!-- Node1&#45;&gt;Node524 -->
<g id="edge45" class="edge">
<title>Node1&#45;&gt;Node524</title>
<path fill="none" stroke="#63b8ff" d="M4647.87,-214.59C4628.23,-204.84 4604.84,-193.24 4586.85,-184.31"/>
<polygon fill="#63b8ff" stroke="#63b8ff" points="4646.18,-217.66 4656.69,-218.96 4649.29,-211.38 4646.18,-217.66"/>
</g>
<!-- Node693 -->
<g id="node41" class="node">
<title>Node693</title>
<g id="a_node41"><a xlink:href="JASCalc_8cpp.html" target="_top" xlink:title=" ">
<polygon fill="white" stroke="#666666" points="4742.5,-184 4631.5,-184 4631.5,-154 4742.5,-154 4742.5,-184"/>
<text text-anchor="start" x="4639.5" y="-172" font-family="Helvetica,sans-Serif" font-size="10.00">libs/JSystem/JAudio2</text>
<text text-anchor="middle" x="4687" y="-161" font-family="Helvetica,sans-Serif" font-size="10.00">/JASCalc.cpp</text>
</a>
</g>
</g>
<!-- Node1&#45;&gt;Node693 -->
<g id="edge46" class="edge">
<title>Node1&#45;&gt;Node693</title>
<path fill="none" stroke="#63b8ff" d="M4687,-208.39C4687,-200.13 4687,-191.28 4687,-184.16"/>
<polygon fill="#63b8ff" stroke="#63b8ff" points="4683.5,-208.28 4687,-218.28 4690.5,-208.28 4683.5,-208.28"/>
</g>
<!-- Node694 -->
<g id="node42" class="node">
<title>Node694</title>
<g id="a_node42"><a xlink:href="JASDSPInterface_8cpp.html" target="_top" xlink:title=" ">
<polygon fill="white" stroke="#666666" points="4875.5,-184 4760.5,-184 4760.5,-154 4875.5,-154 4875.5,-184"/>
<text text-anchor="start" x="4768.5" y="-172" font-family="Helvetica,sans-Serif" font-size="10.00">libs/JSystem/JAudio2</text>
<text text-anchor="middle" x="4818" y="-161" font-family="Helvetica,sans-Serif" font-size="10.00">/JASDSPInterface.cpp</text>
</a>
</g>
</g>
<!-- Node1&#45;&gt;Node694 -->
<g id="edge47" class="edge">
<title>Node1&#45;&gt;Node694</title>
<path fill="none" stroke="#63b8ff" d="M4726.73,-214.59C4746.69,-204.84 4770.43,-193.24 4788.7,-184.31"/>
<polygon fill="#63b8ff" stroke="#63b8ff" points="4725.21,-211.44 4717.76,-218.97 4728.28,-217.73 4725.21,-211.44"/>
</g>
<!-- Node695 -->
<g id="node43" class="node">
<title>Node695</title>
<g id="a_node43"><a xlink:href="JKRAram_8cpp.html" target="_top" xlink:title=" ">
<polygon fill="white" stroke="#666666" points="5002.5,-184 4893.5,-184 4893.5,-154 5002.5,-154 5002.5,-184"/>
<text text-anchor="start" x="4901.5" y="-172" font-family="Helvetica,sans-Serif" font-size="10.00">libs/JSystem/JKernel</text>
<text text-anchor="middle" x="4948" y="-161" font-family="Helvetica,sans-Serif" font-size="10.00">/JKRAram.cpp</text>
</a>
</g>
</g>
<!-- Node1&#45;&gt;Node695 -->
<g id="edge48" class="edge">
<title>Node1&#45;&gt;Node695</title>
<path fill="none" stroke="#63b8ff" d="M4746.02,-219.53C4790.17,-208.7 4850.11,-194 4893.21,-183.44"/>
<polygon fill="#63b8ff" stroke="#63b8ff" points="4745.22,-216.12 4736.34,-221.9 4746.89,-222.92 4745.22,-216.12"/>
</g>
<!-- Node696 -->
<g id="node44" class="node">
<title>Node696</title>
<g id="a_node44"><a xlink:href="JKRDvdAramRipper_8cpp.html" target="_top" xlink:title=" ">
<polygon fill="white" stroke="#666666" points="5145.5,-184 5020.5,-184 5020.5,-154 5145.5,-154 5145.5,-184"/>
<text text-anchor="start" x="5028.5" y="-172" font-family="Helvetica,sans-Serif" font-size="10.00">libs/JSystem/JKernel</text>
<text text-anchor="middle" x="5083" y="-161" font-family="Helvetica,sans-Serif" font-size="10.00">/JKRDvdAramRipper.cpp</text>
</a>
</g>
</g>
<!-- Node1&#45;&gt;Node696 -->
<g id="edge51" class="edge">
<title>Node1&#45;&gt;Node696</title>
<path fill="none" stroke="#63b8ff" d="M4746.1,-225.59C4811.13,-216.16 4918.7,-200.09 5011,-184 5014.01,-183.48 5017.09,-182.93 5020.2,-182.36"/>
<polygon fill="#63b8ff" stroke="#63b8ff" points="4745.75,-222.1 4736.35,-226.99 4746.75,-229.03 4745.75,-222.1"/>
</g>
<!-- Node697 -->
<g id="node45" class="node">
<title>Node697</title>
<g id="a_node45"><a xlink:href="JKRDvdRipper_8cpp.html" target="_top" xlink:title=" ">
<polygon fill="white" stroke="#666666" points="5272.5,-184 5163.5,-184 5163.5,-154 5272.5,-154 5272.5,-184"/>
<text text-anchor="start" x="5171.5" y="-172" font-family="Helvetica,sans-Serif" font-size="10.00">libs/JSystem/JKernel</text>
<text text-anchor="middle" x="5218" y="-161" font-family="Helvetica,sans-Serif" font-size="10.00">/JKRDvdRipper.cpp</text>
</a>
</g>
</g>
<!-- Node1&#45;&gt;Node697 -->
<g id="edge52" class="edge">
<title>Node1&#45;&gt;Node697</title>
<path fill="none" stroke="#63b8ff" d="M4746.43,-229.72C4835.42,-222.84 5008.42,-207.64 5154,-184 5157.03,-183.51 5160.13,-182.96 5163.26,-182.38"/>
<polygon fill="#63b8ff" stroke="#63b8ff" points="4746.17,-226.23 4736.47,-230.48 4746.71,-233.21 4746.17,-226.23"/>
</g>
<!-- Node698 -->
<g id="node46" class="node">
<title>Node698</title>
<g id="a_node46"><a xlink:href="JUTDirectPrint_8cpp.html" target="_top" xlink:title=" ">
<polygon fill="white" stroke="#666666" points="5397,-184 5291,-184 5291,-154 5397,-154 5397,-184"/>
<text text-anchor="start" x="5299" y="-172" font-family="Helvetica,sans-Serif" font-size="10.00">libs/JSystem/JUtility</text>
<text text-anchor="middle" x="5344" y="-161" font-family="Helvetica,sans-Serif" font-size="10.00">/JUTDirectPrint.cpp</text>
</a>
</g>
</g>
<!-- Node1&#45;&gt;Node698 -->
<g id="edge54" class="edge">
<title>Node1&#45;&gt;Node698</title>
<path fill="none" stroke="#63b8ff" d="M4746.2,-231.66C4853.39,-226.84 5086.54,-213.65 5281,-184 5284.21,-183.51 5287.5,-182.95 5290.82,-182.35"/>
<polygon fill="#63b8ff" stroke="#63b8ff" points="4746.34,-228.15 4736.51,-232.09 4746.65,-235.14 4746.34,-228.15"/>
</g>
<!-- Node196 -->
<g id="node47" class="node">
<title>Node196</title>
<g id="a_node47"><a xlink:href="d__attention_8cpp.html" target="_top" xlink:title=" ">
<polygon fill="white" stroke="#666666" points="5522.5,-178.5 5415.5,-178.5 5415.5,-159.5 5522.5,-159.5 5522.5,-178.5"/>
<text text-anchor="middle" x="5469" y="-166.5" font-family="Helvetica,sans-Serif" font-size="10.00">src/d/d_attention.cpp</text>
</a>
</g>
</g>
<!-- Node1&#45;&gt;Node196 -->
<g id="edge56" class="edge">
<title>Node1&#45;&gt;Node196</title>
<path fill="none" stroke="#63b8ff" d="M4746.19,-232.87C4869.53,-229.86 5162.78,-219.28 5406,-184 5414.87,-182.71 5424.35,-180.86 5433.19,-178.93"/>
<polygon fill="#63b8ff" stroke="#63b8ff" points="4746.22,-229.37 4736.31,-233.1 4746.39,-236.36 4746.22,-229.37"/>
</g>
<!-- Node206 -->
<g id="node48" class="node">
<title>Node206</title>
<g id="a_node48"><a xlink:href="d__ky__thunder_8cpp.html" target="_top" xlink:title=" ">
<polygon fill="white" stroke="#666666" points="5657.5,-178.5 5540.5,-178.5 5540.5,-159.5 5657.5,-159.5 5657.5,-178.5"/>
<text text-anchor="middle" x="5599" y="-166.5" font-family="Helvetica,sans-Serif" font-size="10.00">src/d/d_ky_thunder.cpp</text>
</a>
</g>
</g>
<!-- Node1&#45;&gt;Node206 -->
<g id="edge57" class="edge">
<title>Node1&#45;&gt;Node206</title>
<path fill="none" stroke="#63b8ff" d="M4745.93,-233.42C4883.82,-231.43 5238,-222.64 5531,-184 5540.56,-182.74 5550.79,-180.9 5560.33,-178.97"/>
<polygon fill="#63b8ff" stroke="#63b8ff" points="4746.28,-229.91 4736.33,-233.55 4746.38,-236.91 4746.28,-229.91"/>
</g>
<!-- Node699 -->
<g id="node49" class="node">
<title>Node699</title>
<g id="a_node49"><a xlink:href="d__menu__fmap_8cpp.html" target="_top" xlink:title=" ">
<polygon fill="white" stroke="#666666" points="5824,-178.5 5676,-178.5 5676,-159.5 5824,-159.5 5824,-178.5"/>
<text text-anchor="middle" x="5750" y="-166.5" font-family="Helvetica,sans-Serif" font-size="10.00">src/d/menu/d_menu_fmap.cpp</text>
</a>
</g>
</g>
<!-- Node1&#45;&gt;Node699 -->
<g id="edge58" class="edge">
<title>Node1&#45;&gt;Node699</title>
<path fill="none" stroke="#63b8ff" d="M4746.17,-233.33C4898.89,-231.08 5318.68,-221.69 5666,-184 5677.76,-182.72 5690.37,-180.88 5702.16,-178.94"/>
<polygon fill="#63b8ff" stroke="#63b8ff" points="4746.24,-229.83 4736.29,-233.47 4746.34,-236.83 4746.24,-229.83"/>
</g>
<!-- Node38 -->
<g id="node50" class="node">
<title>Node38</title>
<g id="a_node50"><a xlink:href="d__meter2__info_8cpp.html" target="_top" xlink:title=" ">
<polygon fill="white" stroke="#666666" points="5952,-184 5842,-184 5842,-154 5952,-154 5952,-184"/>
<text text-anchor="start" x="5850" y="-172" font-family="Helvetica,sans-Serif" font-size="10.00">src/d/meter/d_meter2</text>
<text text-anchor="middle" x="5897" y="-161" font-family="Helvetica,sans-Serif" font-size="10.00">_info.cpp</text>
</a>
</g>
</g>
<!-- Node1&#45;&gt;Node38 -->
<g id="edge59" class="edge">
<title>Node1&#45;&gt;Node38</title>
<path fill="none" stroke="#63b8ff" d="M4746.07,-232.76C4949.39,-228.3 5619.54,-211.79 5833,-184 5835.82,-183.63 5838.7,-183.2 5841.6,-182.73"/>
<polygon fill="#63b8ff" stroke="#63b8ff" points="4746.19,-229.26 4736.27,-232.98 4746.35,-236.26 4746.19,-229.26"/>
</g>
<!-- Node3 -->
<g id="node3" class="node">
<title>Node3</title>
<g id="a_node3"><a xlink:href="DynamicLink_8h.html" target="_top" xlink:title=" ">
<polygon fill="#fff0f0" stroke="red" points="2817,-107 2703,-107 2703,-88 2817,-88 2817,-107"/>
<text text-anchor="middle" x="2760" y="-95" font-family="Helvetica,sans-Serif" font-size="10.00">include/DynamicLink.h</text>
</a>
</g>
</g>
<!-- Node2&#45;&gt;Node3 -->
<g id="edge2" class="edge">
<title>Node2&#45;&gt;Node3</title>
<path fill="none" stroke="#63b8ff" d="M2496.36,-157.76C2549.26,-148.66 2627.01,-134.3 2694,-118 2706.54,-114.95 2720.24,-111 2731.9,-107.46"/>
<polygon fill="#63b8ff" stroke="#63b8ff" points="2495.89,-154.29 2486.62,-159.43 2497.07,-161.19 2495.89,-154.29"/>
</g>
<!-- Node8 -->
<g id="node4" class="node">
<title>Node8</title>
<g id="a_node4"><a xlink:href="JUTAssert_8h.html" target="_top" xlink:title=" ">
<polygon fill="#fff0f0" stroke="red" points="3293,-112.5 3171,-112.5 3171,-82.5 3293,-82.5 3293,-112.5"/>
<text text-anchor="start" x="3179" y="-100.5" font-family="Helvetica,sans-Serif" font-size="10.00">include/JSystem/JUtility</text>
<text text-anchor="middle" x="3232" y="-89.5" font-family="Helvetica,sans-Serif" font-size="10.00">/JUTAssert.h</text>
</a>
</g>
</g>
<!-- Node2&#45;&gt;Node8 -->
<g id="edge3" class="edge">
<title>Node2&#45;&gt;Node8</title>
<path fill="none" stroke="#63b8ff" d="M2496.51,-167.56C2622.36,-165.83 2914.96,-157.49 3157,-118 3165.1,-116.68 3173.6,-114.88 3181.84,-112.91"/>
<polygon fill="#63b8ff" stroke="#63b8ff" points="2496.68,-164.06 2486.73,-167.69 2496.77,-171.06 2496.68,-164.06"/>
</g>
<!-- Node606 -->
<g id="node5" class="node">
<title>Node606</title>
<g id="a_node5"><a xlink:href="J3DCluster_8cpp.html" target="_top" xlink:title=" ">
<polygon fill="white" stroke="#666666" points="3618,-35.5 3460,-35.5 3460,-5.5 3618,-5.5 3618,-35.5"/>
<text text-anchor="start" x="3468" y="-23.5" font-family="Helvetica,sans-Serif" font-size="10.00">libs/JSystem/J3DGraphAnimator</text>
<text text-anchor="middle" x="3539" y="-12.5" font-family="Helvetica,sans-Serif" font-size="10.00">/J3DCluster.cpp</text>
</a>
</g>
</g>
<!-- Node2&#45;&gt;Node606 -->
<g id="edge19" class="edge">
<title>Node2&#45;&gt;Node606</title>
<path fill="none" stroke="#63b8ff" d="M2496.83,-167.62C2730.31,-165.9 3536.54,-157.14 3574,-118 3596.18,-94.83 3569.87,-56.53 3552.29,-35.84"/>
<polygon fill="#63b8ff" stroke="#63b8ff" points="2496.99,-164.12 2487.01,-167.69 2497.04,-171.12 2496.99,-164.12"/>
</g>
<!-- Node596 -->
<g id="node6" class="node">
<title>Node596</title>
<g id="a_node6"><a xlink:href="JFWDisplay_8cpp.html" target="_top" xlink:title=" ">
<polygon fill="white" stroke="#666666" points="3147,-35.5 3017,-35.5 3017,-5.5 3147,-5.5 3147,-35.5"/>
<text text-anchor="start" x="3025" y="-23.5" font-family="Helvetica,sans-Serif" font-size="10.00">libs/JSystem/JFramework</text>
<text text-anchor="middle" x="3082" y="-12.5" font-family="Helvetica,sans-Serif" font-size="10.00">/JFWDisplay.cpp</text>
</a>
</g>
</g>
<!-- Node2&#45;&gt;Node596 -->
<g id="edge36" class="edge">
<title>Node2&#45;&gt;Node596</title>
<path fill="none" stroke="#63b8ff" d="M2496.61,-166C2639.97,-160.95 2983.08,-146.06 3027,-118 3056.74,-99 3072.07,-57.85 3078.39,-35.93"/>
<polygon fill="#63b8ff" stroke="#63b8ff" points="2496.8,-162.49 2486.93,-166.33 2497.04,-169.48 2496.8,-162.49"/>
</g>
<!-- Node614 -->
<g id="node9" class="node">
<title>Node614</title>
<g id="a_node9"><a xlink:href="JKRDvdArchive_8cpp.html" target="_top" xlink:title=" ">
<polygon fill="white" stroke="#666666" points="3274.5,-35.5 3165.5,-35.5 3165.5,-5.5 3274.5,-5.5 3274.5,-35.5"/>
<text text-anchor="start" x="3173.5" y="-23.5" font-family="Helvetica,sans-Serif" font-size="10.00">libs/JSystem/JKernel</text>
<text text-anchor="middle" x="3220" y="-12.5" font-family="Helvetica,sans-Serif" font-size="10.00">/JKRDvdArchive.cpp</text>
</a>
</g>
</g>
<!-- Node2&#45;&gt;Node614 -->
<g id="edge38" class="edge">
<title>Node2&#45;&gt;Node614</title>
<path fill="none" stroke="#63b8ff" d="M2496.91,-166.6C2633.99,-162.97 2955.62,-151.1 3059,-118 3062.74,-116.8 3152.35,-62.56 3196.23,-35.94"/>
<polygon fill="#63b8ff" stroke="#63b8ff" points="2496.82,-163.1 2486.92,-166.86 2497.01,-170.1 2496.82,-163.1"/>
</g>
<!-- Node617 -->
<g id="node10" class="node">
<title>Node617</title>
<g id="a_node10"><a xlink:href="JKRHeap_8cpp.html" target="_top" xlink:title=" ">
<polygon fill="white" stroke="#666666" points="3401.5,-35.5 3292.5,-35.5 3292.5,-5.5 3401.5,-5.5 3401.5,-35.5"/>
<text text-anchor="start" x="3300.5" y="-23.5" font-family="Helvetica,sans-Serif" font-size="10.00">libs/JSystem/JKernel</text>
<text text-anchor="middle" x="3347" y="-12.5" font-family="Helvetica,sans-Serif" font-size="10.00">/JKRHeap.cpp</text>
</a>
</g>
</g>
<!-- Node2&#45;&gt;Node617 -->
<g id="edge39" class="edge">
<title>Node2&#45;&gt;Node617</title>
<path fill="none" stroke="#63b8ff" d="M2496.46,-167.86C2641.49,-166.83 2997.14,-159.94 3108,-118 3136.18,-107.34 3135.12,-90.63 3162,-77 3212.04,-51.63 3229.28,-57.18 3283,-41 3288.45,-39.36 3294.16,-37.63 3299.83,-35.91"/>
<polygon fill="#63b8ff" stroke="#63b8ff" points="2496.64,-164.36 2486.66,-167.93 2496.68,-171.36 2496.64,-164.36"/>
</g>
<!-- Node621 -->
<g id="node12" class="node">
<title>Node621</title>
<g id="a_node12"><a xlink:href="DDH__Stubs_8h.html" target="_top" xlink:title=" ">
<polygon fill="#fff0f0" stroke="red" points="2863,-41 2745,-41 2745,0 2863,0 2863,-41"/>
<text text-anchor="start" x="2753" y="-29" font-family="Helvetica,sans-Serif" font-size="10.00">include/TRK_MINNOW</text>
<text text-anchor="start" x="2753" y="-18" font-family="Helvetica,sans-Serif" font-size="10.00">_DOLPHIN/Os/dolphin</text>
<text text-anchor="middle" x="2804" y="-7" font-family="Helvetica,sans-Serif" font-size="10.00">/DDH_Stubs.h</text>
</a>
</g>
</g>
<!-- Node2&#45;&gt;Node621 -->
<g id="edge11" class="edge">
<title>Node2&#45;&gt;Node621</title>
<path fill="none" stroke="#63b8ff" d="M2496.63,-164.48C2601.82,-157.93 2804.61,-142.29 2826,-118 2844.74,-96.72 2830.18,-62.78 2817.47,-41.35"/>
<polygon fill="#63b8ff" stroke="#63b8ff" points="2496.51,-160.98 2486.74,-165.09 2496.94,-167.97 2496.51,-160.98"/>
</g>
<!-- Node623 -->
<g id="node13" class="node">
<title>Node623</title>
<g id="a_node13"><a xlink:href="GDEV__Stubs_8h.html" target="_top" xlink:title=" ">
<polygon fill="#fff0f0" stroke="red" points="2999,-41 2881,-41 2881,0 2999,0 2999,-41"/>
<text text-anchor="start" x="2889" y="-29" font-family="Helvetica,sans-Serif" font-size="10.00">include/TRK_MINNOW</text>
<text text-anchor="start" x="2889" y="-18" font-family="Helvetica,sans-Serif" font-size="10.00">_DOLPHIN/Os/dolphin</text>
<text text-anchor="middle" x="2940" y="-7" font-family="Helvetica,sans-Serif" font-size="10.00">/GDEV_Stubs.h</text>
</a>
</g>
</g>
<!-- Node2&#45;&gt;Node623 -->
<g id="edge12" class="edge">
<title>Node2&#45;&gt;Node623</title>
<path fill="none" stroke="#63b8ff" d="M2496.79,-167.22C2638.77,-164.8 2974.92,-155.18 3009,-118 3021.31,-104.57 3016.87,-93.43 3009,-77 3002.03,-62.44 2989.17,-50.49 2976.42,-41.45"/>
<polygon fill="#63b8ff" stroke="#63b8ff" points="2496.74,-163.72 2486.8,-167.38 2496.85,-170.72 2496.74,-163.72"/>
</g>
<!-- Node624 -->
<g id="node14" class="node">
<title>Node624</title>
<g id="a_node14"><a xlink:href="UDP__Stubs_8h.html" target="_top" xlink:title=" ">
<polygon fill="#fff0f0" stroke="red" points="3429,-118 3311,-118 3311,-77 3429,-77 3429,-118"/>
<text text-anchor="start" x="3319" y="-106" font-family="Helvetica,sans-Serif" font-size="10.00">include/TRK_MINNOW</text>
<text text-anchor="start" x="3319" y="-95" font-family="Helvetica,sans-Serif" font-size="10.00">_DOLPHIN/Os/dolphin</text>
<text text-anchor="middle" x="3370" y="-84" font-family="Helvetica,sans-Serif" font-size="10.00">/UDP_Stubs.h</text>
</a>
</g>
</g>
<!-- Node2&#45;&gt;Node624 -->
<g id="edge13" class="edge">
<title>Node2&#45;&gt;Node624</title>
<path fill="none" stroke="#63b8ff" d="M2496.64,-166.2C2668.84,-160.95 3146.9,-144.37 3302,-118 3304.91,-117.51 3307.86,-116.93 3310.84,-116.3"/>
<polygon fill="#63b8ff" stroke="#63b8ff" points="2496.66,-162.69 2486.77,-166.49 2496.87,-169.69 2496.66,-162.69"/>
</g>
<!-- Node626 -->
<g id="node15" class="node">
<title>Node626</title>
<g id="a_node15"><a xlink:href="dolphin__trk__glue_8h.html" target="_top" xlink:title=" ">
<polygon fill="#fff0f0" stroke="red" points="3565,-118 3447,-118 3447,-77 3565,-77 3565,-118"/>
<text text-anchor="start" x="3455" y="-106" font-family="Helvetica,sans-Serif" font-size="10.00">include/TRK_MINNOW</text>
<text text-anchor="start" x="3455" y="-95" font-family="Helvetica,sans-Serif" font-size="10.00">_DOLPHIN/Os/dolphin</text>
<text text-anchor="middle" x="3506" y="-84" font-family="Helvetica,sans-Serif" font-size="10.00">/dolphin_trk_glue.h</text>
</a>
</g>
</g>
<!-- Node2&#45;&gt;Node626 -->
<g id="edge14" class="edge">
<title>Node2&#45;&gt;Node626</title>
<path fill="none" stroke="#63b8ff" d="M2496.78,-166.76C2687.07,-162.7 3255.56,-148.29 3438,-118 3440.91,-117.52 3443.87,-116.95 3446.85,-116.33"/>
<polygon fill="#63b8ff" stroke="#63b8ff" points="2496.77,-163.26 2486.84,-166.97 2496.91,-170.26 2496.77,-163.26"/>
</g>
<!-- Node629 -->
<g id="node16" class="node">
<title>Node629</title>
<g id="a_node16"><a xlink:href="AmcExi2Stubs_8h.html" target="_top" xlink:title=" ">
<polygon fill="#fff0f0" stroke="red" points="3000.5,-112.5 2873.5,-112.5 2873.5,-82.5 3000.5,-82.5 3000.5,-112.5"/>
<text text-anchor="start" x="2881.5" y="-100.5" font-family="Helvetica,sans-Serif" font-size="10.00">include/dolphin/amcstubs</text>
<text text-anchor="middle" x="2937" y="-89.5" font-family="Helvetica,sans-Serif" font-size="10.00">/AmcExi2Stubs.h</text>
</a>
</g>
</g>
<!-- Node2&#45;&gt;Node629 -->
<g id="edge15" class="edge">
<title>Node2&#45;&gt;Node629</title>
<path fill="none" stroke="#63b8ff" d="M2496.62,-163.16C2579.85,-156.14 2731.27,-141.38 2859,-118 2866.83,-116.57 2875.03,-114.81 2883.07,-112.93"/>
<polygon fill="#63b8ff" stroke="#63b8ff" points="2496.53,-159.65 2486.85,-163.97 2497.11,-166.63 2496.53,-159.65"/>
</g>
<!-- Node638 -->
<g id="node17" class="node">
<title>Node638</title>
<g id="a_node17"><a xlink:href="J2DAnimation_8cpp.html" target="_top" xlink:title=" ">
<polygon fill="white" stroke="#666666" points="3740.5,-112.5 3621.5,-112.5 3621.5,-82.5 3740.5,-82.5 3740.5,-112.5"/>
<text text-anchor="start" x="3629.5" y="-100.5" font-family="Helvetica,sans-Serif" font-size="10.00">libs/JSystem/J2DGraph</text>
<text text-anchor="middle" x="3681" y="-89.5" font-family="Helvetica,sans-Serif" font-size="10.00">/J2DAnimation.cpp</text>
</a>
</g>
</g>
<!-- Node2&#45;&gt;Node638 -->
<g id="edge18" class="edge">
<title>Node2&#45;&gt;Node638</title>
<path fill="none" stroke="#63b8ff" d="M2496.69,-167.1C2707.54,-163.82 3389.92,-150.84 3607,-118 3615.28,-116.75 3623.96,-114.93 3632.35,-112.9"/>
<polygon fill="#63b8ff" stroke="#63b8ff" points="2496.71,-163.6 2486.76,-167.26 2496.81,-170.6 2496.71,-163.6"/>
</g>
<!-- Node639 -->
<g id="node18" class="node">
<title>Node639</title>
<g id="a_node18"><a xlink:href="J3DModel_8cpp.html" target="_top" xlink:title=" ">
<polygon fill="white" stroke="#666666" points="158,-112.5 0,-112.5 0,-82.5 158,-82.5 158,-112.5"/>
<text text-anchor="start" x="8" y="-100.5" font-family="Helvetica,sans-Serif" font-size="10.00">libs/JSystem/J3DGraphAnimator</text>
<text text-anchor="middle" x="79" y="-89.5" font-family="Helvetica,sans-Serif" font-size="10.00">/J3DModel.cpp</text>
</a>
</g>
</g>
<!-- Node2&#45;&gt;Node639 -->
<g id="edge20" class="edge">
<title>Node2&#45;&gt;Node639</title>
<path fill="none" stroke="#63b8ff" d="M2371.21,-168.28C2052.42,-169.43 610.98,-171.56 167,-118 157.06,-116.8 146.59,-114.98 136.47,-112.93"/>
<polygon fill="#63b8ff" stroke="#63b8ff" points="2371.01,-171.78 2380.99,-168.24 2370.98,-164.78 2371.01,-171.78"/>
</g>
<!-- Node640 -->
<g id="node19" class="node">
<title>Node640</title>
<g id="a_node19"><a xlink:href="J3DModelData_8cpp.html" target="_top" xlink:title=" ">
<polygon fill="white" stroke="#666666" points="334,-112.5 176,-112.5 176,-82.5 334,-82.5 334,-112.5"/>
<text text-anchor="start" x="184" y="-100.5" font-family="Helvetica,sans-Serif" font-size="10.00">libs/JSystem/J3DGraphAnimator</text>
<text text-anchor="middle" x="255" y="-89.5" font-family="Helvetica,sans-Serif" font-size="10.00">/J3DModelData.cpp</text>
</a>
</g>
</g>
<!-- Node2&#45;&gt;Node640 -->
<g id="edge21" class="edge">
<title>Node2&#45;&gt;Node640</title>
<path fill="none" stroke="#63b8ff" d="M2371.74,-168.14C2069.19,-168.58 750.5,-167.54 343,-118 333.06,-116.79 322.59,-114.97 312.47,-112.91"/>
<polygon fill="#63b8ff" stroke="#63b8ff" points="2371.39,-171.64 2381.39,-168.13 2371.38,-164.64 2371.39,-171.64"/>
</g>
<!-- Node641 -->
<g id="node20" class="node">
<title>Node641</title>
<g id="a_node20"><a xlink:href="J3DSkinDeform_8cpp.html" target="_top" xlink:title=" ">
<polygon fill="white" stroke="#666666" points="510,-112.5 352,-112.5 352,-82.5 510,-82.5 510,-112.5"/>
<text text-anchor="start" x="360" y="-100.5" font-family="Helvetica,sans-Serif" font-size="10.00">libs/JSystem/J3DGraphAnimator</text>
<text text-anchor="middle" x="431" y="-89.5" font-family="Helvetica,sans-Serif" font-size="10.00">/J3DSkinDeform.cpp</text>
</a>
</g>
</g>
<!-- Node2&#45;&gt;Node641 -->
<g id="edge22" class="edge">
<title>Node2&#45;&gt;Node641</title>
<path fill="none" stroke="#63b8ff" d="M2371.51,-167.98C2084.36,-167.65 889.77,-163.49 519,-118 509.21,-116.8 498.92,-115.01 488.95,-112.99"/>
<polygon fill="#63b8ff" stroke="#63b8ff" points="2371.4,-171.48 2381.41,-167.99 2371.41,-164.48 2371.4,-171.48"/>
</g>
<!-- Node642 -->
<g id="node21" class="node">
<title>Node642</title>
<g id="a_node21"><a xlink:href="J3DGD_8cpp.html" target="_top" xlink:title=" ">
<polygon fill="white" stroke="#666666" points="670,-112.5 528,-112.5 528,-82.5 670,-82.5 670,-112.5"/>
<text text-anchor="start" x="536" y="-100.5" font-family="Helvetica,sans-Serif" font-size="10.00">libs/JSystem/J3DGraphBase</text>
<text text-anchor="middle" x="599" y="-89.5" font-family="Helvetica,sans-Serif" font-size="10.00">/J3DGD.cpp</text>
</a>
</g>
</g>
<!-- Node2&#45;&gt;Node642 -->
<g id="edge23" class="edge">
<title>Node2&#45;&gt;Node642</title>
<path fill="none" stroke="#63b8ff" d="M2371.44,-167.98C2099.18,-167.63 1016.08,-163.37 679,-118 670.07,-116.8 660.7,-115.01 651.63,-112.99"/>
<polygon fill="#63b8ff" stroke="#63b8ff" points="2371.15,-171.48 2381.16,-167.99 2371.16,-164.48 2371.15,-171.48"/>
</g>
<!-- Node643 -->
<g id="node22" class="node">
<title>Node643</title>
<g id="a_node22"><a xlink:href="J3DMatBlock_8cpp.html" target="_top" xlink:title=" ">
<polygon fill="white" stroke="#666666" points="830,-112.5 688,-112.5 688,-82.5 830,-82.5 830,-112.5"/>
<text text-anchor="start" x="696" y="-100.5" font-family="Helvetica,sans-Serif" font-size="10.00">libs/JSystem/J3DGraphBase</text>
<text text-anchor="middle" x="759" y="-89.5" font-family="Helvetica,sans-Serif" font-size="10.00">/J3DMatBlock.cpp</text>
</a>
</g>
</g>
<!-- Node2&#45;&gt;Node643 -->
<g id="edge24" class="edge">
<title>Node2&#45;&gt;Node643</title>
<path fill="none" stroke="#63b8ff" d="M2371.37,-167.77C2114.76,-166.58 1142.99,-159.36 839,-118 830.08,-116.79 820.7,-114.99 811.63,-112.97"/>
<polygon fill="#63b8ff" stroke="#63b8ff" points="2371.16,-171.27 2381.17,-167.82 2371.19,-164.27 2371.16,-171.27"/>
</g>
<!-- Node644 -->
<g id="node23" class="node">
<title>Node644</title>
<g id="a_node23"><a xlink:href="J3DShape_8cpp.html" target="_top" xlink:title=" ">
<polygon fill="white" stroke="#666666" points="990,-112.5 848,-112.5 848,-82.5 990,-82.5 990,-112.5"/>
<text text-anchor="start" x="856" y="-100.5" font-family="Helvetica,sans-Serif" font-size="10.00">libs/JSystem/J3DGraphBase</text>
<text text-anchor="middle" x="919" y="-89.5" font-family="Helvetica,sans-Serif" font-size="10.00">/J3DShape.cpp</text>
</a>
</g>
</g>
<!-- Node2&#45;&gt;Node644 -->
<g id="edge25" class="edge">
<title>Node2&#45;&gt;Node644</title>
<path fill="none" stroke="#63b8ff" d="M2371.43,-167.52C2131.49,-165.41 1270.06,-155.36 999,-118 990.08,-116.77 980.7,-114.97 971.64,-112.94"/>
<polygon fill="#63b8ff" stroke="#63b8ff" points="2371.17,-171.02 2381.2,-167.6 2371.23,-164.02 2371.17,-171.02"/>
</g>
<!-- Node645 -->
<g id="node24" class="node">
<title>Node645</title>
<g id="a_node24"><a xlink:href="J3DSys_8cpp.html" target="_top" xlink:title=" ">
<polygon fill="white" stroke="#666666" points="1150,-112.5 1008,-112.5 1008,-82.5 1150,-82.5 1150,-112.5"/>
<text text-anchor="start" x="1016" y="-100.5" font-family="Helvetica,sans-Serif" font-size="10.00">libs/JSystem/J3DGraphBase</text>
<text text-anchor="middle" x="1079" y="-89.5" font-family="Helvetica,sans-Serif" font-size="10.00">/J3DSys.cpp</text>
</a>
</g>
</g>
<!-- Node2&#45;&gt;Node645 -->
<g id="edge26" class="edge">
<title>Node2&#45;&gt;Node645</title>
<path fill="none" stroke="#63b8ff" d="M2371.17,-167.2C2148.44,-164.1 1397.16,-151.35 1159,-118 1150.08,-116.75 1140.71,-114.94 1131.64,-112.91"/>
<polygon fill="#63b8ff" stroke="#63b8ff" points="2371.05,-170.7 2381.1,-167.33 2371.15,-163.7 2371.05,-170.7"/>
</g>
<!-- Node646 -->
<g id="node25" class="node">
<title>Node646</title>
<g id="a_node25"><a xlink:href="J3DClusterLoader_8cpp.html" target="_top" xlink:title=" ">
<polygon fill="white" stroke="#666666" points="1317.5,-112.5 1168.5,-112.5 1168.5,-82.5 1317.5,-82.5 1317.5,-112.5"/>
<text text-anchor="start" x="1176.5" y="-100.5" font-family="Helvetica,sans-Serif" font-size="10.00">libs/JSystem/J3DGraphLoader</text>
<text text-anchor="middle" x="1243" y="-89.5" font-family="Helvetica,sans-Serif" font-size="10.00">/J3DClusterLoader.cpp</text>
</a>
</g>
</g>
<!-- Node2&#45;&gt;Node646 -->
<g id="edge27" class="edge">
<title>Node2&#45;&gt;Node646</title>
<path fill="none" stroke="#63b8ff" d="M2371.41,-166.71C2168.51,-162.27 1530.29,-146.36 1326,-118 1316.91,-116.74 1307.35,-114.94 1298.09,-112.95"/>
<polygon fill="#63b8ff" stroke="#63b8ff" points="2371.14,-170.2 2381.22,-166.92 2371.29,-163.2 2371.14,-170.2"/>
</g>
<!-- Node647 -->
<g id="node26" class="node">
<title>Node647</title>
<g id="a_node26"><a xlink:href="J3DModelLoader_8cpp.html" target="_top" xlink:title=" ">
<polygon fill="white" stroke="#666666" points="1484.5,-112.5 1335.5,-112.5 1335.5,-82.5 1484.5,-82.5 1484.5,-112.5"/>
<text text-anchor="start" x="1343.5" y="-100.5" font-family="Helvetica,sans-Serif" font-size="10.00">libs/JSystem/J3DGraphLoader</text>
<text text-anchor="middle" x="1410" y="-89.5" font-family="Helvetica,sans-Serif" font-size="10.00">/J3DModelLoader.cpp</text>
</a>
</g>
</g>
<!-- Node2&#45;&gt;Node647 -->
<g id="edge28" class="edge">
<title>Node2&#45;&gt;Node647</title>
<path fill="none" stroke="#63b8ff" d="M2371.35,-168.5C2219.72,-168.88 1821.31,-164.91 1493,-118 1484.06,-116.72 1474.67,-114.95 1465.55,-112.98"/>
<polygon fill="#63b8ff" stroke="#63b8ff" points="2371.19,-172 2381.17,-168.47 2371.16,-165 2371.19,-172"/>
</g>
<!-- Node648 -->
<g id="node27" class="node">
<title>Node648</title>
<g id="a_node27"><a xlink:href="J3DShapeFactory_8cpp.html" target="_top" xlink:title=" ">
<polygon fill="white" stroke="#666666" points="1651.5,-112.5 1502.5,-112.5 1502.5,-82.5 1651.5,-82.5 1651.5,-112.5"/>
<text text-anchor="start" x="1510.5" y="-100.5" font-family="Helvetica,sans-Serif" font-size="10.00">libs/JSystem/J3DGraphLoader</text>
<text text-anchor="middle" x="1577" y="-89.5" font-family="Helvetica,sans-Serif" font-size="10.00">/J3DShapeFactory.cpp</text>
</a>
</g>
</g>
<!-- Node2&#45;&gt;Node648 -->
<g id="edge29" class="edge">
<title>Node2&#45;&gt;Node648</title>
<path fill="none" stroke="#63b8ff" d="M2371.04,-167.47C2238.68,-165.58 1922.13,-156.98 1660,-118 1651.22,-116.69 1641.99,-114.93 1633.01,-112.99"/>
<polygon fill="#63b8ff" stroke="#63b8ff" points="2370.96,-170.97 2381,-167.6 2371.05,-163.97 2370.96,-170.97"/>
</g>
<!-- Node526 -->
<g id="node28" class="node">
<title>Node526</title>
<g id="a_node28"><a xlink:href="JASAudioThread_8cpp.html" target="_top" xlink:title=" ">
<polygon fill="white" stroke="#666666" points="1780.5,-112.5 1669.5,-112.5 1669.5,-82.5 1780.5,-82.5 1780.5,-112.5"/>
<text text-anchor="start" x="1677.5" y="-100.5" font-family="Helvetica,sans-Serif" font-size="10.00">libs/JSystem/JAudio2</text>
<text text-anchor="middle" x="1725" y="-89.5" font-family="Helvetica,sans-Serif" font-size="10.00">/JASAudioThread.cpp</text>
</a>
</g>
</g>
<!-- Node2&#45;&gt;Node526 -->
<g id="edge30" class="edge">
<title>Node2&#45;&gt;Node526</title>
<path fill="none" stroke="#63b8ff" d="M2371.47,-167.67C2255.58,-166.05 2000,-157.83 1789,-118 1782.04,-116.69 1774.76,-114.89 1767.71,-112.92"/>
<polygon fill="#63b8ff" stroke="#63b8ff" points="2371.36,-171.17 2381.4,-167.79 2371.44,-164.17 2371.36,-171.17"/>
</g>
<!-- Node649 -->
<g id="node29" class="node">
<title>Node649</title>
<g id="a_node29"><a xlink:href="JASCmdStack_8cpp.html" target="_top" xlink:title=" ">
<polygon fill="white" stroke="#666666" points="1909.5,-112.5 1798.5,-112.5 1798.5,-82.5 1909.5,-82.5 1909.5,-112.5"/>
<text text-anchor="start" x="1806.5" y="-100.5" font-family="Helvetica,sans-Serif" font-size="10.00">libs/JSystem/JAudio2</text>
<text text-anchor="middle" x="1854" y="-89.5" font-family="Helvetica,sans-Serif" font-size="10.00">/JASCmdStack.cpp</text>
</a>
</g>
</g>
<!-- Node2&#45;&gt;Node649 -->
<g id="edge31" class="edge">
<title>Node2&#45;&gt;Node649</title>
<path fill="none" stroke="#63b8ff" d="M2371.17,-165.94C2273.42,-161.84 2079.39,-150.07 1918,-118 1911.28,-116.66 1904.26,-114.91 1897.43,-113"/>
<polygon fill="#63b8ff" stroke="#63b8ff" points="2370.96,-169.44 2381.09,-166.34 2371.24,-162.44 2370.96,-169.44"/>
</g>
<!-- Node650 -->
<g id="node30" class="node">
<title>Node650</title>
<g id="a_node30"><a xlink:href="JASProbe_8cpp.html" target="_top" xlink:title=" ">
<polygon fill="white" stroke="#666666" points="2038.5,-112.5 1927.5,-112.5 1927.5,-82.5 2038.5,-82.5 2038.5,-112.5"/>
<text text-anchor="start" x="1935.5" y="-100.5" font-family="Helvetica,sans-Serif" font-size="10.00">libs/JSystem/JAudio2</text>
<text text-anchor="middle" x="1983" y="-89.5" font-family="Helvetica,sans-Serif" font-size="10.00">/JASProbe.cpp</text>
</a>
</g>
</g>
<!-- Node2&#45;&gt;Node650 -->
<g id="edge32" class="edge">
<title>Node2&#45;&gt;Node650</title>
<path fill="none" stroke="#63b8ff" d="M2371.11,-163.13C2294.09,-156.42 2159.92,-142.32 2047,-118 2040.41,-116.58 2033.53,-114.81 2026.81,-112.91"/>
<polygon fill="#63b8ff" stroke="#63b8ff" points="2370.74,-166.61 2381.01,-163.98 2371.34,-159.64 2370.74,-166.61"/>
</g>
<!-- Node651 -->
<g id="node31" class="node">
<title>Node651</title>
<g id="a_node31"><a xlink:href="JASTaskThread_8cpp.html" target="_top" xlink:title=" ">
<polygon fill="white" stroke="#666666" points="2167.5,-112.5 2056.5,-112.5 2056.5,-82.5 2167.5,-82.5 2167.5,-112.5"/>
<text text-anchor="start" x="2064.5" y="-100.5" font-family="Helvetica,sans-Serif" font-size="10.00">libs/JSystem/JAudio2</text>
<text text-anchor="middle" x="2112" y="-89.5" font-family="Helvetica,sans-Serif" font-size="10.00">/JASTaskThread.cpp</text>
</a>
</g>
</g>
<!-- Node2&#45;&gt;Node651 -->
<g id="edge33" class="edge">
<title>Node2&#45;&gt;Node651</title>
<path fill="none" stroke="#63b8ff" d="M2371.6,-157.79C2319.09,-148.75 2242.21,-134.45 2176,-118 2169.91,-116.49 2163.55,-114.74 2157.29,-112.94"/>
<polygon fill="#63b8ff" stroke="#63b8ff" points="2370.81,-161.2 2381.25,-159.44 2371.98,-154.3 2370.81,-161.2"/>
</g>
<!-- Node652 -->
<g id="node32" class="node">
<title>Node652</title>
<g id="a_node32"><a xlink:href="dsptask_8cpp.html" target="_top" xlink:title=" ">
<polygon fill="white" stroke="#666666" points="2296.5,-112.5 2185.5,-112.5 2185.5,-82.5 2296.5,-82.5 2296.5,-112.5"/>
<text text-anchor="start" x="2193.5" y="-100.5" font-family="Helvetica,sans-Serif" font-size="10.00">libs/JSystem/JAudio2</text>
<text text-anchor="middle" x="2241" y="-89.5" font-family="Helvetica,sans-Serif" font-size="10.00">/dsptask.cpp</text>
</a>
</g>
</g>
<!-- Node2&#45;&gt;Node652 -->
<g id="edge34" class="edge">
<title>Node2&#45;&gt;Node652</title>
<path fill="none" stroke="#63b8ff" d="M2398.58,-155.25C2365.39,-143.3 2315.84,-125.45 2281.19,-112.97"/>
<polygon fill="#63b8ff" stroke="#63b8ff" points="2397.15,-158.45 2407.74,-158.54 2399.52,-151.86 2397.15,-158.45"/>
</g>
<!-- Node653 -->
<g id="node33" class="node">
<title>Node653</title>
<g id="a_node33"><a xlink:href="osdsp_8cpp.html" target="_top" xlink:title=" ">
<polygon fill="white" stroke="#666666" points="2425.5,-112.5 2314.5,-112.5 2314.5,-82.5 2425.5,-82.5 2425.5,-112.5"/>
<text text-anchor="start" x="2322.5" y="-100.5" font-family="Helvetica,sans-Serif" font-size="10.00">libs/JSystem/JAudio2</text>
<text text-anchor="middle" x="2370" y="-89.5" font-family="Helvetica,sans-Serif" font-size="10.00">/osdsp.cpp</text>
</a>
</g>
</g>
<!-- Node2&#45;&gt;Node653 -->
<g id="edge35" class="edge">
<title>Node2&#45;&gt;Node653</title>
<path fill="none" stroke="#63b8ff" d="M2418.1,-150.74C2407.34,-139.04 2393.28,-123.78 2383.14,-112.77"/>
<polygon fill="#63b8ff" stroke="#63b8ff" points="2415.52,-153.1 2424.87,-158.08 2420.67,-148.36 2415.52,-153.1"/>
</g>
<!-- Node654 -->
<g id="node34" class="node">
<title>Node654</title>
<g id="a_node34"><a xlink:href="JKRAramPiece_8cpp.html" target="_top" xlink:title=" ">
<polygon fill="white" stroke="#666666" points="2552.5,-112.5 2443.5,-112.5 2443.5,-82.5 2552.5,-82.5 2552.5,-112.5"/>
<text text-anchor="start" x="2451.5" y="-100.5" font-family="Helvetica,sans-Serif" font-size="10.00">libs/JSystem/JKernel</text>
<text text-anchor="middle" x="2498" y="-89.5" font-family="Helvetica,sans-Serif" font-size="10.00">/JKRAramPiece.cpp</text>
</a>
</g>
</g>
<!-- Node2&#45;&gt;Node654 -->
<g id="edge37" class="edge">
<title>Node2&#45;&gt;Node654</title>
<path fill="none" stroke="#63b8ff" d="M2449.9,-150.74C2460.66,-139.04 2474.72,-123.78 2484.86,-112.77"/>
<polygon fill="#63b8ff" stroke="#63b8ff" points="2447.33,-148.36 2443.13,-158.08 2452.48,-153.1 2447.33,-148.36"/>
</g>
<!-- Node655 -->
<g id="node35" class="node">
<title>Node655</title>
<g id="a_node35"><a xlink:href="JPAChildShape_8cpp.html" target="_top" xlink:title=" ">
<polygon fill="white" stroke="#666666" points="2685,-112.5 2571,-112.5 2571,-82.5 2685,-82.5 2685,-112.5"/>
<text text-anchor="start" x="2579" y="-100.5" font-family="Helvetica,sans-Serif" font-size="10.00">libs/JSystem/JParticle</text>
<text text-anchor="middle" x="2628" y="-89.5" font-family="Helvetica,sans-Serif" font-size="10.00">/JPAChildShape.cpp</text>
</a>
</g>
</g>
<!-- Node2&#45;&gt;Node655 -->
<g id="edge40" class="edge">
<title>Node2&#45;&gt;Node655</title>
<path fill="none" stroke="#63b8ff" d="M2469.6,-155.25C2502.96,-143.3 2552.77,-125.45 2587.6,-112.97"/>
<polygon fill="#63b8ff" stroke="#63b8ff" points="2468.62,-151.88 2460.39,-158.55 2470.98,-158.47 2468.62,-151.88"/>
</g>
<!-- Node2&#45;&gt;Node634 -->
<g id="edge41" class="edge">
<title>Node2&#45;&gt;Node634</title>
<path fill="none" stroke="#63b8ff" d="M2496.54,-167.41C2723.44,-165.01 3502.81,-154.25 3749,-118 3764.57,-115.71 3781.58,-111.44 3795.45,-107.48"/>
<polygon fill="#63b8ff" stroke="#63b8ff" points="2496.69,-163.91 2486.73,-167.52 2496.76,-170.91 2496.69,-163.91"/>
</g>
<!-- Node8&#45;&gt;Node606 -->
<g id="edge4" class="edge">
<title>Node8&#45;&gt;Node606</title>
<path fill="none" stroke="#63b8ff" d="M3293.68,-79.17C3296.49,-78.42 3299.27,-77.7 3302,-77 3359.92,-62.16 3426.22,-46.77 3473.94,-35.97"/>
<polygon fill="#63b8ff" stroke="#63b8ff" points="3293,-75.72 3284.24,-81.69 3294.81,-82.49 3293,-75.72"/>
</g>
<!-- Node8&#45;&gt;Node596 -->
<g id="edge5" class="edge">
<title>Node8&#45;&gt;Node596</title>
<path fill="none" stroke="#63b8ff" d="M3192.92,-76.96C3167.22,-64.11 3134.15,-47.58 3110.83,-35.92"/>
<polygon fill="#63b8ff" stroke="#63b8ff" points="3191.22,-80.02 3201.72,-81.36 3194.35,-73.76 3191.22,-80.02"/>
</g>
<!-- Node8&#45;&gt;Node611 -->
<g id="edge6" class="edge">
<title>Node8&#45;&gt;Node611</title>
<path fill="none" stroke="#63b8ff" d="M3291.04,-79.33C3294.73,-78.48 3298.41,-77.69 3302,-77 3444.69,-49.41 3483.69,-65.11 3627,-41 3636.51,-39.4 3646.55,-37.41 3656.28,-35.31"/>
<polygon fill="#63b8ff" stroke="#63b8ff" points="3290.31,-75.91 3281.43,-81.68 3291.97,-82.71 3290.31,-75.91"/>
</g>
<!-- Node8&#45;&gt;Node613 -->
<g id="edge7" class="edge">
<title>Node8&#45;&gt;Node613</title>
<path fill="none" stroke="#63b8ff" d="M3290.27,-79.35C3294.22,-78.47 3298.16,-77.67 3302,-77 3510.97,-40.36 3568.61,-75.17 3778,-41 3786.17,-39.67 3794.73,-37.89 3803.07,-35.95"/>
<polygon fill="#63b8ff" stroke="#63b8ff" points="3289.54,-75.92 3280.63,-81.66 3291.17,-82.73 3289.54,-75.92"/>
</g>
<!-- Node8&#45;&gt;Node614 -->
<g id="edge8" class="edge">
<title>Node8&#45;&gt;Node614</title>
<path fill="none" stroke="#63b8ff" d="M3227.88,-70.73C3226.01,-59.08 3223.88,-45.76 3222.31,-35.92"/>
<polygon fill="#63b8ff" stroke="#63b8ff" points="3224.41,-71.22 3229.45,-80.54 3231.32,-70.12 3224.41,-71.22"/>
</g>
<!-- Node8&#45;&gt;Node617 -->
<g id="edge9" class="edge">
<title>Node8&#45;&gt;Node617</title>
<path fill="none" stroke="#63b8ff" d="M3263.82,-75.75C3283.23,-63.09 3307.57,-47.21 3324.89,-35.92"/>
<polygon fill="#63b8ff" stroke="#63b8ff" points="3261.91,-72.82 3255.44,-81.21 3265.73,-78.68 3261.91,-72.82"/>
</g>
<!-- Node8&#45;&gt;Node618 -->
<g id="edge10" class="edge">
<title>Node8&#45;&gt;Node618</title>
<path fill="none" stroke="#63b8ff" d="M3289.49,-79.44C3293.7,-78.51 3297.9,-77.68 3302,-77 3573.84,-31.77 3649.16,-86.23 3921,-41 3928.72,-39.72 3936.8,-37.91 3944.62,-35.91"/>
<polygon fill="#63b8ff" stroke="#63b8ff" points="3288.77,-76.01 3279.85,-81.74 3290.39,-82.82 3288.77,-76.01"/>
</g>
<!-- Node629&#45;&gt;Node621 -->
<g id="edge16" class="edge">
<title>Node629&#45;&gt;Node621</title>
<path fill="none" stroke="#63b8ff" d="M2901.47,-76.47C2882.25,-65.62 2858.57,-52.27 2839.37,-41.44"/>
<polygon fill="#63b8ff" stroke="#63b8ff" points="2899.61,-79.43 2910.04,-81.3 2903.05,-73.34 2899.61,-79.43"/>
</g>
<!-- Node629&#45;&gt;Node623 -->
<g id="edge17" class="edge">
<title>Node629&#45;&gt;Node623</title>
<path fill="none" stroke="#63b8ff" d="M2938.03,-70.68C2938.42,-61.06 2938.85,-50.3 2939.21,-41.3"/>
<polygon fill="#63b8ff" stroke="#63b8ff" points="2934.54,-70.39 2937.64,-80.53 2941.54,-70.67 2934.54,-70.39"/>
</g>
</g>
</svg>
