<?xml version="1.0" encoding="UTF-8" standalone="no"?>
<!DOCTYPE svg PUBLIC "-//W3C//DTD SVG 1.1//EN"
 "http://www.w3.org/Graphics/SVG/1.1/DTD/svg11.dtd">
<!-- Generated by graphviz version 7.0.5 (20221223.1930)
 -->
<!-- Title: include/dolphin/os/OSMemory.h Pages: 1 -->
<svg width="6467pt" height="247pt"
 viewBox="0.00 0.00 6467.00 247.00" xmlns="http://www.w3.org/2000/svg" xmlns:xlink="http://www.w3.org/1999/xlink">
<g id="graph0" class="graph" transform="scale(1 1) rotate(0) translate(4 243)">
<title>include/dolphin/os/OSMemory.h</title>
<!-- Node1 -->
<g id="node1" class="node">
<title>Node1</title>
<g id="a_node1"><a xlink:title=" ">
<polygon fill="#999999" stroke="#666666" points="3254.5,-239 3159.5,-239 3159.5,-209 3254.5,-209 3254.5,-239"/>
<text text-anchor="start" x="3167.5" y="-227" font-family="Helvetica,sans-Serif" font-size="10.00">include/dolphin/os</text>
<text text-anchor="middle" x="3207" y="-216" font-family="Helvetica,sans-Serif" font-size="10.00">/OSMemory.h</text>
</a>
</g>
</g>
<!-- Node2 -->
<g id="node2" class="node">
<title>Node2</title>
<g id="a_node2"><a xlink:href="os_8h.html" target="_top" xlink:title=" ">
<polygon fill="#fff0f0" stroke="red" points="3219,-173 3117,-173 3117,-154 3219,-154 3219,-173"/>
<text text-anchor="middle" x="3168" y="-161" font-family="Helvetica,sans-Serif" font-size="10.00">include/dolphin/os.h</text>
</a>
</g>
</g>
<!-- Node1&#45;&gt;Node2 -->
<g id="edge1" class="edge">
<title>Node1&#45;&gt;Node2</title>
<path fill="none" stroke="#63b8ff" d="M3191.04,-199.06C3184.93,-189.9 3178.34,-180.01 3173.78,-173.18"/>
<polygon fill="#63b8ff" stroke="#63b8ff" points="3188.06,-200.9 3196.52,-207.28 3193.89,-197.02 3188.06,-200.9"/>
</g>
<!-- Node679 -->
<g id="node50" class="node">
<title>Node679</title>
<g id="a_node50"><a xlink:href="OSMemory_8c.html" target="_top" xlink:title=" ">
<polygon fill="white" stroke="#666666" points="6459,-107 6321,-107 6321,-88 6459,-88 6459,-107"/>
<text text-anchor="middle" x="6390" y="-95" font-family="Helvetica,sans-Serif" font-size="10.00">libs/dolphin/os/OSMemory.c</text>
</a>
</g>
</g>
<!-- Node1&#45;&gt;Node679 -->
<g id="edge58" class="edge">
<title>Node1&#45;&gt;Node679</title>
<path fill="none" stroke="#63b8ff" d="M3266.33,-222.7C3641.77,-220.56 5691.8,-205.01 6312,-118 6328.17,-115.73 6345.86,-111.46 6360.29,-107.5"/>
<polygon fill="#63b8ff" stroke="#63b8ff" points="3266.44,-219.2 3256.46,-222.76 3266.48,-226.2 3266.44,-219.2"/>
</g>
<!-- Node3 -->
<g id="node3" class="node">
<title>Node3</title>
<g id="a_node3"><a xlink:href="DynamicLink_8h.html" target="_top" xlink:title=" ">
<polygon fill="#fff0f0" stroke="red" points="6303,-107 6189,-107 6189,-88 6303,-88 6303,-107"/>
<text text-anchor="middle" x="6246" y="-95" font-family="Helvetica,sans-Serif" font-size="10.00">include/DynamicLink.h</text>
</a>
</g>
</g>
<!-- Node2&#45;&gt;Node3 -->
<g id="edge2" class="edge">
<title>Node2&#45;&gt;Node3</title>
<path fill="none" stroke="#63b8ff" d="M3230.54,-162.06C3648.9,-159.05 6029.13,-140.96 6180,-118 6194.06,-115.86 6209.31,-111.5 6221.6,-107.44"/>
<polygon fill="#63b8ff" stroke="#63b8ff" points="3230.8,-158.56 3220.82,-162.13 3230.85,-165.56 3230.8,-158.56"/>
</g>
<!-- Node8 -->
<g id="node4" class="node">
<title>Node8</title>
<g id="a_node4"><a xlink:href="JUTAssert_8h.html" target="_top" xlink:title=" ">
<polygon fill="#fff0f0" stroke="red" points="440,-112.5 318,-112.5 318,-82.5 440,-82.5 440,-112.5"/>
<text text-anchor="start" x="326" y="-100.5" font-family="Helvetica,sans-Serif" font-size="10.00">include/JSystem/JUtility</text>
<text text-anchor="middle" x="379" y="-89.5" font-family="Helvetica,sans-Serif" font-size="10.00">/JUTAssert.h</text>
</a>
</g>
</g>
<!-- Node2&#45;&gt;Node8 -->
<g id="edge3" class="edge">
<title>Node2&#45;&gt;Node8</title>
<path fill="none" stroke="#63b8ff" d="M3105.26,-162.1C2726.31,-159.62 750.28,-145.42 482,-118 468.42,-116.61 453.96,-114.36 440.29,-111.88"/>
<polygon fill="#63b8ff" stroke="#63b8ff" points="3104.98,-165.6 3115.01,-162.17 3105.03,-158.6 3104.98,-165.6"/>
</g>
<!-- Node606 -->
<g id="node5" class="node">
<title>Node606</title>
<g id="a_node5"><a xlink:href="J3DCluster_8cpp.html" target="_top" xlink:title=" ">
<polygon fill="white" stroke="#666666" points="158,-35.5 0,-35.5 0,-5.5 158,-5.5 158,-35.5"/>
<text text-anchor="start" x="8" y="-23.5" font-family="Helvetica,sans-Serif" font-size="10.00">libs/JSystem/J3DGraphAnimator</text>
<text text-anchor="middle" x="79" y="-12.5" font-family="Helvetica,sans-Serif" font-size="10.00">/J3DCluster.cpp</text>
</a>
</g>
</g>
<!-- Node2&#45;&gt;Node606 -->
<g id="edge18" class="edge">
<title>Node2&#45;&gt;Node606</title>
<path fill="none" stroke="#63b8ff" d="M3105.41,-162.36C2695.58,-161.31 407.36,-153.89 265,-118 199.74,-101.55 131.67,-58.48 98.93,-35.85"/>
<polygon fill="#63b8ff" stroke="#63b8ff" points="3105.19,-165.86 3115.19,-162.38 3105.2,-158.86 3105.19,-165.86"/>
</g>
<!-- Node596 -->
<g id="node6" class="node">
<title>Node596</title>
<g id="a_node6"><a xlink:href="JFWDisplay_8cpp.html" target="_top" xlink:title=" ">
<polygon fill="white" stroke="#666666" points="306,-35.5 176,-35.5 176,-5.5 306,-5.5 306,-35.5"/>
<text text-anchor="start" x="184" y="-23.5" font-family="Helvetica,sans-Serif" font-size="10.00">libs/JSystem/JFramework</text>
<text text-anchor="middle" x="241" y="-12.5" font-family="Helvetica,sans-Serif" font-size="10.00">/JFWDisplay.cpp</text>
</a>
</g>
</g>
<!-- Node2&#45;&gt;Node596 -->
<g id="edge35" class="edge">
<title>Node2&#45;&gt;Node596</title>
<path fill="none" stroke="#63b8ff" d="M3105.18,-162.31C2691.5,-160.94 372.95,-151.8 309,-118 275.66,-100.38 255.12,-58.23 246.2,-35.92"/>
<polygon fill="#63b8ff" stroke="#63b8ff" points="3105.05,-165.81 3115.06,-162.34 3105.07,-158.81 3105.05,-165.81"/>
</g>
<!-- Node614 -->
<g id="node7" class="node">
<title>Node614</title>
<g id="a_node7"><a xlink:href="JKRDvdArchive_8cpp.html" target="_top" xlink:title=" ">
<polygon fill="white" stroke="#666666" points="433.5,-35.5 324.5,-35.5 324.5,-5.5 433.5,-5.5 433.5,-35.5"/>
<text text-anchor="start" x="332.5" y="-23.5" font-family="Helvetica,sans-Serif" font-size="10.00">libs/JSystem/JKernel</text>
<text text-anchor="middle" x="379" y="-12.5" font-family="Helvetica,sans-Serif" font-size="10.00">/JKRDvdArchive.cpp</text>
</a>
</g>
</g>
<!-- Node2&#45;&gt;Node614 -->
<g id="edge37" class="edge">
<title>Node2&#45;&gt;Node614</title>
<path fill="none" stroke="#63b8ff" d="M3105.26,-162.25C2720.19,-160.63 688.92,-150.57 562,-118 497.64,-101.49 430.73,-58.44 398.57,-35.84"/>
<polygon fill="#63b8ff" stroke="#63b8ff" points="3105.17,-165.75 3115.18,-162.29 3105.2,-158.75 3105.17,-165.75"/>
</g>
<!-- Node617 -->
<g id="node8" class="node">
<title>Node617</title>
<g id="a_node8"><a xlink:href="JKRHeap_8cpp.html" target="_top" xlink:title=" ">
<polygon fill="white" stroke="#666666" points="560.5,-35.5 451.5,-35.5 451.5,-5.5 560.5,-5.5 560.5,-35.5"/>
<text text-anchor="start" x="459.5" y="-23.5" font-family="Helvetica,sans-Serif" font-size="10.00">libs/JSystem/JKernel</text>
<text text-anchor="middle" x="506" y="-12.5" font-family="Helvetica,sans-Serif" font-size="10.00">/JKRHeap.cpp</text>
</a>
</g>
</g>
<!-- Node2&#45;&gt;Node617 -->
<g id="edge38" class="edge">
<title>Node2&#45;&gt;Node617</title>
<path fill="none" stroke="#63b8ff" d="M3105.38,-162.5C2726.53,-162.37 753.27,-159.69 633,-118 584.6,-101.22 539.83,-58.3 518.72,-35.78"/>
<polygon fill="#63b8ff" stroke="#63b8ff" points="3105.12,-166 3115.12,-162.5 3105.12,-159 3105.12,-166"/>
</g>
<!-- Node602 -->
<g id="node9" class="node">
<title>Node602</title>
<g id="a_node9"><a xlink:href="JUTConsole_8cpp.html" target="_top" xlink:title=" ">
<polygon fill="white" stroke="#666666" points="685,-35.5 579,-35.5 579,-5.5 685,-5.5 685,-35.5"/>
<text text-anchor="start" x="587" y="-23.5" font-family="Helvetica,sans-Serif" font-size="10.00">libs/JSystem/JUtility</text>
<text text-anchor="middle" x="632" y="-12.5" font-family="Helvetica,sans-Serif" font-size="10.00">/JUTConsole.cpp</text>
</a>
</g>
</g>
<!-- Node2&#45;&gt;Node602 -->
<g id="edge41" class="edge">
<title>Node2&#45;&gt;Node602</title>
<path fill="none" stroke="#63b8ff" d="M3105.39,-162.4C2722.46,-161.67 711.23,-156.05 661,-118 635.48,-98.67 631.63,-57.66 631.5,-35.85"/>
<polygon fill="#63b8ff" stroke="#63b8ff" points="3105.24,-165.9 3115.25,-162.42 3105.26,-158.9 3105.24,-165.9"/>
</g>
<!-- Node621 -->
<g id="node10" class="node">
<title>Node621</title>
<g id="a_node10"><a xlink:href="DDH__Stubs_8h.html" target="_top" xlink:title=" ">
<polygon fill="#fff0f0" stroke="red" points="821,-41 703,-41 703,0 821,0 821,-41"/>
<text text-anchor="start" x="711" y="-29" font-family="Helvetica,sans-Serif" font-size="10.00">include/TRK_MINNOW</text>
<text text-anchor="start" x="711" y="-18" font-family="Helvetica,sans-Serif" font-size="10.00">_DOLPHIN/Os/dolphin</text>
<text text-anchor="middle" x="762" y="-7" font-family="Helvetica,sans-Serif" font-size="10.00">/DDH_Stubs.h</text>
</a>
</g>
</g>
<!-- Node2&#45;&gt;Node621 -->
<g id="edge9" class="edge">
<title>Node2&#45;&gt;Node621</title>
<path fill="none" stroke="#63b8ff" d="M3105.22,-162.58C2722.37,-162.95 716.93,-162.72 673,-118 660.23,-105 664.16,-92.93 673,-77 681.57,-61.56 696.42,-49.85 711.57,-41.26"/>
<polygon fill="#63b8ff" stroke="#63b8ff" points="3105.08,-166.08 3115.08,-162.57 3105.07,-159.08 3105.08,-166.08"/>
</g>
<!-- Node623 -->
<g id="node11" class="node">
<title>Node623</title>
<g id="a_node11"><a xlink:href="GDEV__Stubs_8h.html" target="_top" xlink:title=" ">
<polygon fill="#fff0f0" stroke="red" points="957,-41 839,-41 839,0 957,0 957,-41"/>
<text text-anchor="start" x="847" y="-29" font-family="Helvetica,sans-Serif" font-size="10.00">include/TRK_MINNOW</text>
<text text-anchor="start" x="847" y="-18" font-family="Helvetica,sans-Serif" font-size="10.00">_DOLPHIN/Os/dolphin</text>
<text text-anchor="middle" x="898" y="-7" font-family="Helvetica,sans-Serif" font-size="10.00">/GDEV_Stubs.h</text>
</a>
</g>
</g>
<!-- Node2&#45;&gt;Node623 -->
<g id="edge10" class="edge">
<title>Node2&#45;&gt;Node623</title>
<path fill="none" stroke="#63b8ff" d="M3105.26,-162.49C2739.54,-162.3 897.49,-159.28 857,-118 835.97,-96.56 859.08,-62.67 878.17,-41.28"/>
<polygon fill="#63b8ff" stroke="#63b8ff" points="3105.14,-165.99 3115.14,-162.5 3105.14,-158.99 3105.14,-165.99"/>
</g>
<!-- Node624 -->
<g id="node12" class="node">
<title>Node624</title>
<g id="a_node12"><a xlink:href="UDP__Stubs_8h.html" target="_top" xlink:title=" ">
<polygon fill="#fff0f0" stroke="red" points="984,-118 866,-118 866,-77 984,-77 984,-118"/>
<text text-anchor="start" x="874" y="-106" font-family="Helvetica,sans-Serif" font-size="10.00">include/TRK_MINNOW</text>
<text text-anchor="start" x="874" y="-95" font-family="Helvetica,sans-Serif" font-size="10.00">_DOLPHIN/Os/dolphin</text>
<text text-anchor="middle" x="925" y="-84" font-family="Helvetica,sans-Serif" font-size="10.00">/UDP_Stubs.h</text>
</a>
</g>
</g>
<!-- Node2&#45;&gt;Node624 -->
<g id="edge11" class="edge">
<title>Node2&#45;&gt;Node624</title>
<path fill="none" stroke="#63b8ff" d="M3105.27,-162.11C2771.48,-159.93 1211.05,-148.19 998,-118 993.45,-117.36 988.79,-116.52 984.12,-115.57"/>
<polygon fill="#63b8ff" stroke="#63b8ff" points="3105.09,-165.61 3115.11,-162.18 3105.13,-158.61 3105.09,-165.61"/>
</g>
<!-- Node626 -->
<g id="node13" class="node">
<title>Node626</title>
<g id="a_node13"><a xlink:href="dolphin__trk__glue_8h.html" target="_top" xlink:title=" ">
<polygon fill="#fff0f0" stroke="red" points="1158,-118 1040,-118 1040,-77 1158,-77 1158,-118"/>
<text text-anchor="start" x="1048" y="-106" font-family="Helvetica,sans-Serif" font-size="10.00">include/TRK_MINNOW</text>
<text text-anchor="start" x="1048" y="-95" font-family="Helvetica,sans-Serif" font-size="10.00">_DOLPHIN/Os/dolphin</text>
<text text-anchor="middle" x="1099" y="-84" font-family="Helvetica,sans-Serif" font-size="10.00">/dolphin_trk_glue.h</text>
</a>
</g>
</g>
<!-- Node2&#45;&gt;Node626 -->
<g id="edge12" class="edge">
<title>Node2&#45;&gt;Node626</title>
<path fill="none" stroke="#63b8ff" d="M3105.62,-162.07C2788.46,-159.73 1362.23,-147.66 1167,-118 1164.09,-117.56 1161.12,-117.03 1158.14,-116.43"/>
<polygon fill="#63b8ff" stroke="#63b8ff" points="3105.32,-165.56 3115.35,-162.14 3105.38,-158.56 3105.32,-165.56"/>
</g>
<!-- Node628 -->
<g id="node14" class="node">
<title>Node628</title>
<g id="a_node14"><a xlink:href="dolphin__trk_8c.html" target="_top" xlink:title=" ">
<polygon fill="white" stroke="#666666" points="1159,-35.5 1007,-35.5 1007,-5.5 1159,-5.5 1159,-35.5"/>
<text text-anchor="start" x="1015" y="-23.5" font-family="Helvetica,sans-Serif" font-size="10.00">libs/TRK_MINNOW_DOLPHIN</text>
<text text-anchor="middle" x="1083" y="-12.5" font-family="Helvetica,sans-Serif" font-size="10.00">/Os/dolphin/dolphin_trk.c</text>
</a>
</g>
</g>
<!-- Node2&#45;&gt;Node628 -->
<g id="edge46" class="edge">
<title>Node2&#45;&gt;Node628</title>
<path fill="none" stroke="#63b8ff" d="M3105.32,-162.39C2756.45,-161.64 1068.25,-156.03 1031,-118 1007.16,-93.66 1042.08,-56.18 1065.25,-35.83"/>
<polygon fill="#63b8ff" stroke="#63b8ff" points="3105.17,-165.89 3115.18,-162.41 3105.18,-158.89 3105.17,-165.89"/>
</g>
<!-- Node629 -->
<g id="node15" class="node">
<title>Node629</title>
<g id="a_node15"><a xlink:href="AmcExi2Stubs_8h.html" target="_top" xlink:title=" ">
<polygon fill="#fff0f0" stroke="red" points="809.5,-112.5 682.5,-112.5 682.5,-82.5 809.5,-82.5 809.5,-112.5"/>
<text text-anchor="start" x="690.5" y="-100.5" font-family="Helvetica,sans-Serif" font-size="10.00">include/dolphin/amcstubs</text>
<text text-anchor="middle" x="746" y="-89.5" font-family="Helvetica,sans-Serif" font-size="10.00">/AmcExi2Stubs.h</text>
</a>
</g>
</g>
<!-- Node2&#45;&gt;Node629 -->
<g id="edge14" class="edge">
<title>Node2&#45;&gt;Node629</title>
<path fill="none" stroke="#63b8ff" d="M3105.37,-162.16C2756.03,-160.13 1055.51,-148.73 824,-118 815.14,-116.82 805.84,-115.02 796.87,-112.97"/>
<polygon fill="#63b8ff" stroke="#63b8ff" points="3105.22,-165.66 3115.24,-162.21 3105.26,-158.66 3105.22,-165.66"/>
</g>
<!-- Node638 -->
<g id="node16" class="node">
<title>Node638</title>
<g id="a_node16"><a xlink:href="J2DAnimation_8cpp.html" target="_top" xlink:title=" ">
<polygon fill="white" stroke="#666666" points="1295.5,-112.5 1176.5,-112.5 1176.5,-82.5 1295.5,-82.5 1295.5,-112.5"/>
<text text-anchor="start" x="1184.5" y="-100.5" font-family="Helvetica,sans-Serif" font-size="10.00">libs/JSystem/J2DGraph</text>
<text text-anchor="middle" x="1236" y="-89.5" font-family="Helvetica,sans-Serif" font-size="10.00">/J2DAnimation.cpp</text>
</a>
</g>
</g>
<!-- Node2&#45;&gt;Node638 -->
<g id="edge17" class="edge">
<title>Node2&#45;&gt;Node638</title>
<path fill="none" stroke="#63b8ff" d="M3105.56,-161.94C2801.82,-159.1 1485.92,-145.28 1305,-118 1297.12,-116.81 1288.87,-115 1280.92,-112.95"/>
<polygon fill="#63b8ff" stroke="#63b8ff" points="3105.23,-165.44 3115.26,-162.03 3105.29,-158.44 3105.23,-165.44"/>
</g>
<!-- Node639 -->
<g id="node17" class="node">
<title>Node639</title>
<g id="a_node17"><a xlink:href="J3DModel_8cpp.html" target="_top" xlink:title=" ">
<polygon fill="white" stroke="#666666" points="1472,-112.5 1314,-112.5 1314,-82.5 1472,-82.5 1472,-112.5"/>
<text text-anchor="start" x="1322" y="-100.5" font-family="Helvetica,sans-Serif" font-size="10.00">libs/JSystem/J3DGraphAnimator</text>
<text text-anchor="middle" x="1393" y="-89.5" font-family="Helvetica,sans-Serif" font-size="10.00">/J3DModel.cpp</text>
</a>
</g>
</g>
<!-- Node2&#45;&gt;Node639 -->
<g id="edge19" class="edge">
<title>Node2&#45;&gt;Node639</title>
<path fill="none" stroke="#63b8ff" d="M3105.31,-162.45C2839.51,-162.01 1804.43,-157.73 1481,-118 1471.22,-116.8 1460.92,-115.01 1450.95,-112.99"/>
<polygon fill="#63b8ff" stroke="#63b8ff" points="3105.13,-165.95 3115.14,-162.47 3105.14,-158.95 3105.13,-165.95"/>
</g>
<!-- Node640 -->
<g id="node18" class="node">
<title>Node640</title>
<g id="a_node18"><a xlink:href="J3DModelData_8cpp.html" target="_top" xlink:title=" ">
<polygon fill="white" stroke="#666666" points="1648,-112.5 1490,-112.5 1490,-82.5 1648,-82.5 1648,-112.5"/>
<text text-anchor="start" x="1498" y="-100.5" font-family="Helvetica,sans-Serif" font-size="10.00">libs/JSystem/J3DGraphAnimator</text>
<text text-anchor="middle" x="1569" y="-89.5" font-family="Helvetica,sans-Serif" font-size="10.00">/J3DModelData.cpp</text>
</a>
</g>
</g>
<!-- Node2&#45;&gt;Node640 -->
<g id="edge20" class="edge">
<title>Node2&#45;&gt;Node640</title>
<path fill="none" stroke="#63b8ff" d="M3105.45,-162.23C2857.62,-160.92 1944.13,-153.72 1657,-118 1647.22,-116.78 1636.92,-114.98 1626.95,-112.96"/>
<polygon fill="#63b8ff" stroke="#63b8ff" points="3105.22,-165.73 3115.23,-162.28 3105.25,-158.73 3105.22,-165.73"/>
</g>
<!-- Node641 -->
<g id="node19" class="node">
<title>Node641</title>
<g id="a_node19"><a xlink:href="J3DSkinDeform_8cpp.html" target="_top" xlink:title=" ">
<polygon fill="white" stroke="#666666" points="1824,-112.5 1666,-112.5 1666,-82.5 1824,-82.5 1824,-112.5"/>
<text text-anchor="start" x="1674" y="-100.5" font-family="Helvetica,sans-Serif" font-size="10.00">libs/JSystem/J3DGraphAnimator</text>
<text text-anchor="middle" x="1745" y="-89.5" font-family="Helvetica,sans-Serif" font-size="10.00">/J3DSkinDeform.cpp</text>
</a>
</g>
</g>
<!-- Node2&#45;&gt;Node641 -->
<g id="edge21" class="edge">
<title>Node2&#45;&gt;Node641</title>
<path fill="none" stroke="#63b8ff" d="M3105.33,-161.95C2876.14,-159.68 2083.87,-149.7 1833,-118 1823.22,-116.76 1812.92,-114.96 1802.96,-112.93"/>
<polygon fill="#63b8ff" stroke="#63b8ff" points="3105.22,-165.45 3115.25,-162.04 3105.29,-158.45 3105.22,-165.45"/>
</g>
<!-- Node642 -->
<g id="node20" class="node">
<title>Node642</title>
<g id="a_node20"><a xlink:href="J3DGD_8cpp.html" target="_top" xlink:title=" ">
<polygon fill="white" stroke="#666666" points="1984,-112.5 1842,-112.5 1842,-82.5 1984,-82.5 1984,-112.5"/>
<text text-anchor="start" x="1850" y="-100.5" font-family="Helvetica,sans-Serif" font-size="10.00">libs/JSystem/J3DGraphBase</text>
<text text-anchor="middle" x="1913" y="-89.5" font-family="Helvetica,sans-Serif" font-size="10.00">/J3DGD.cpp</text>
</a>
</g>
</g>
<!-- Node2&#45;&gt;Node642 -->
<g id="edge22" class="edge">
<title>Node2&#45;&gt;Node642</title>
<path fill="none" stroke="#63b8ff" d="M3105.22,-161.79C2894.1,-159.13 2210.78,-148.35 1993,-118 1984.08,-116.76 1974.71,-114.94 1965.64,-112.92"/>
<polygon fill="#63b8ff" stroke="#63b8ff" points="3105.13,-165.29 3115.17,-161.91 3105.22,-158.29 3105.13,-165.29"/>
</g>
<!-- Node643 -->
<g id="node21" class="node">
<title>Node643</title>
<g id="a_node21"><a xlink:href="J3DMatBlock_8cpp.html" target="_top" xlink:title=" ">
<polygon fill="white" stroke="#666666" points="2144,-112.5 2002,-112.5 2002,-82.5 2144,-82.5 2144,-112.5"/>
<text text-anchor="start" x="2010" y="-100.5" font-family="Helvetica,sans-Serif" font-size="10.00">libs/JSystem/J3DGraphBase</text>
<text text-anchor="middle" x="2073" y="-89.5" font-family="Helvetica,sans-Serif" font-size="10.00">/J3DMatBlock.cpp</text>
</a>
</g>
</g>
<!-- Node2&#45;&gt;Node643 -->
<g id="edge23" class="edge">
<title>Node2&#45;&gt;Node643</title>
<path fill="none" stroke="#63b8ff" d="M3105.54,-161.36C2914.27,-157.61 2338.35,-144.39 2153,-118 2144.23,-116.75 2135.01,-114.96 2126.08,-112.97"/>
<polygon fill="#63b8ff" stroke="#63b8ff" points="3105.19,-164.85 3115.26,-161.55 3105.33,-157.85 3105.19,-164.85"/>
</g>
<!-- Node644 -->
<g id="node22" class="node">
<title>Node644</title>
<g id="a_node22"><a xlink:href="J3DShape_8cpp.html" target="_top" xlink:title=" ">
<polygon fill="white" stroke="#666666" points="2304,-112.5 2162,-112.5 2162,-82.5 2304,-82.5 2304,-112.5"/>
<text text-anchor="start" x="2170" y="-100.5" font-family="Helvetica,sans-Serif" font-size="10.00">libs/JSystem/J3DGraphBase</text>
<text text-anchor="middle" x="2233" y="-89.5" font-family="Helvetica,sans-Serif" font-size="10.00">/J3DShape.cpp</text>
</a>
</g>
</g>
<!-- Node2&#45;&gt;Node644 -->
<g id="edge24" class="edge">
<title>Node2&#45;&gt;Node644</title>
<path fill="none" stroke="#63b8ff" d="M3105.13,-163.23C2963.11,-164.02 2606.96,-161.09 2313,-118 2304.23,-116.71 2295.02,-114.91 2286.09,-112.91"/>
<polygon fill="#63b8ff" stroke="#63b8ff" points="3105.1,-166.73 3115.08,-163.17 3105.06,-159.73 3105.1,-166.73"/>
</g>
<!-- Node645 -->
<g id="node23" class="node">
<title>Node645</title>
<g id="a_node23"><a xlink:href="J3DSys_8cpp.html" target="_top" xlink:title=" ">
<polygon fill="white" stroke="#666666" points="2464,-112.5 2322,-112.5 2322,-82.5 2464,-82.5 2464,-112.5"/>
<text text-anchor="start" x="2330" y="-100.5" font-family="Helvetica,sans-Serif" font-size="10.00">libs/JSystem/J3DGraphBase</text>
<text text-anchor="middle" x="2393" y="-89.5" font-family="Helvetica,sans-Serif" font-size="10.00">/J3DSys.cpp</text>
</a>
</g>
</g>
<!-- Node2&#45;&gt;Node645 -->
<g id="edge25" class="edge">
<title>Node2&#45;&gt;Node645</title>
<path fill="none" stroke="#63b8ff" d="M3105.32,-162.15C2983.02,-160.67 2704.28,-153.31 2473,-118 2464.38,-116.68 2455.33,-114.89 2446.53,-112.92"/>
<polygon fill="#63b8ff" stroke="#63b8ff" points="3105.11,-165.65 3115.15,-162.26 3105.19,-158.65 3105.11,-165.65"/>
</g>
<!-- Node646 -->
<g id="node24" class="node">
<title>Node646</title>
<g id="a_node24"><a xlink:href="J3DClusterLoader_8cpp.html" target="_top" xlink:title=" ">
<polygon fill="white" stroke="#666666" points="2631.5,-112.5 2482.5,-112.5 2482.5,-82.5 2631.5,-82.5 2631.5,-112.5"/>
<text text-anchor="start" x="2490.5" y="-100.5" font-family="Helvetica,sans-Serif" font-size="10.00">libs/JSystem/J3DGraphLoader</text>
<text text-anchor="middle" x="2557" y="-89.5" font-family="Helvetica,sans-Serif" font-size="10.00">/J3DClusterLoader.cpp</text>
</a>
</g>
</g>
<!-- Node2&#45;&gt;Node646 -->
<g id="edge26" class="edge">
<title>Node2&#45;&gt;Node646</title>
<path fill="none" stroke="#63b8ff" d="M3105.42,-160.2C3006.2,-155.88 2806.92,-144.5 2640,-118 2631.37,-116.63 2622.32,-114.86 2613.48,-112.94"/>
<polygon fill="#63b8ff" stroke="#63b8ff" points="3105.08,-163.69 3115.22,-160.61 3105.37,-156.69 3105.08,-163.69"/>
</g>
<!-- Node647 -->
<g id="node25" class="node">
<title>Node647</title>
<g id="a_node25"><a xlink:href="J3DModelLoader_8cpp.html" target="_top" xlink:title=" ">
<polygon fill="white" stroke="#666666" points="2798.5,-112.5 2649.5,-112.5 2649.5,-82.5 2798.5,-82.5 2798.5,-112.5"/>
<text text-anchor="start" x="2657.5" y="-100.5" font-family="Helvetica,sans-Serif" font-size="10.00">libs/JSystem/J3DGraphLoader</text>
<text text-anchor="middle" x="2724" y="-89.5" font-family="Helvetica,sans-Serif" font-size="10.00">/J3DModelLoader.cpp</text>
</a>
</g>
</g>
<!-- Node2&#45;&gt;Node647 -->
<g id="edge27" class="edge">
<title>Node2&#45;&gt;Node647</title>
<path fill="none" stroke="#63b8ff" d="M3105.47,-156.86C3033.25,-149.87 2911,-136.57 2807,-118 2798.84,-116.54 2790.28,-114.79 2781.88,-112.94"/>
<polygon fill="#63b8ff" stroke="#63b8ff" points="3104.83,-160.32 3115.12,-157.79 3105.5,-153.35 3104.83,-160.32"/>
</g>
<!-- Node648 -->
<g id="node26" class="node">
<title>Node648</title>
<g id="a_node26"><a xlink:href="J3DShapeFactory_8cpp.html" target="_top" xlink:title=" ">
<polygon fill="white" stroke="#666666" points="2965.5,-112.5 2816.5,-112.5 2816.5,-82.5 2965.5,-82.5 2965.5,-112.5"/>
<text text-anchor="start" x="2824.5" y="-100.5" font-family="Helvetica,sans-Serif" font-size="10.00">libs/JSystem/J3DGraphLoader</text>
<text text-anchor="middle" x="2891" y="-89.5" font-family="Helvetica,sans-Serif" font-size="10.00">/J3DShapeFactory.cpp</text>
</a>
</g>
</g>
<!-- Node2&#45;&gt;Node648 -->
<g id="edge28" class="edge">
<title>Node2&#45;&gt;Node648</title>
<path fill="none" stroke="#63b8ff" d="M3117.51,-150.99C3078.34,-142.05 3022.71,-129.31 2974,-118 2966.93,-116.36 2959.53,-114.63 2952.18,-112.91"/>
<polygon fill="#63b8ff" stroke="#63b8ff" points="3116.6,-154.38 3127.13,-153.19 3118.15,-147.55 3116.6,-154.38"/>
</g>
<!-- Node526 -->
<g id="node27" class="node">
<title>Node526</title>
<g id="a_node27"><a xlink:href="JASAudioThread_8cpp.html" target="_top" xlink:title=" ">
<polygon fill="white" stroke="#666666" points="3094.5,-112.5 2983.5,-112.5 2983.5,-82.5 3094.5,-82.5 3094.5,-112.5"/>
<text text-anchor="start" x="2991.5" y="-100.5" font-family="Helvetica,sans-Serif" font-size="10.00">libs/JSystem/JAudio2</text>
<text text-anchor="middle" x="3039" y="-89.5" font-family="Helvetica,sans-Serif" font-size="10.00">/JASAudioThread.cpp</text>
</a>
</g>
</g>
<!-- Node2&#45;&gt;Node526 -->
<g id="edge29" class="edge">
<title>Node2&#45;&gt;Node526</title>
<path fill="none" stroke="#63b8ff" d="M3139.76,-148.49C3118.56,-137.97 3089.61,-123.61 3068.18,-112.98"/>
<polygon fill="#63b8ff" stroke="#63b8ff" points="3138.19,-151.62 3148.71,-152.93 3141.3,-145.35 3138.19,-151.62"/>
</g>
<!-- Node649 -->
<g id="node28" class="node">
<title>Node649</title>
<g id="a_node28"><a xlink:href="JASCmdStack_8cpp.html" target="_top" xlink:title=" ">
<polygon fill="white" stroke="#666666" points="3223.5,-112.5 3112.5,-112.5 3112.5,-82.5 3223.5,-82.5 3223.5,-112.5"/>
<text text-anchor="start" x="3120.5" y="-100.5" font-family="Helvetica,sans-Serif" font-size="10.00">libs/JSystem/JAudio2</text>
<text text-anchor="middle" x="3168" y="-89.5" font-family="Helvetica,sans-Serif" font-size="10.00">/JASCmdStack.cpp</text>
</a>
</g>
</g>
<!-- Node2&#45;&gt;Node649 -->
<g id="edge30" class="edge">
<title>Node2&#45;&gt;Node649</title>
<path fill="none" stroke="#63b8ff" d="M3168,-142.28C3168,-132.67 3168,-121.42 3168,-112.73"/>
<polygon fill="#63b8ff" stroke="#63b8ff" points="3164.5,-142.09 3168,-152.09 3171.5,-142.09 3164.5,-142.09"/>
</g>
<!-- Node650 -->
<g id="node29" class="node">
<title>Node650</title>
<g id="a_node29"><a xlink:href="JASProbe_8cpp.html" target="_top" xlink:title=" ">
<polygon fill="white" stroke="#666666" points="3352.5,-112.5 3241.5,-112.5 3241.5,-82.5 3352.5,-82.5 3352.5,-112.5"/>
<text text-anchor="start" x="3249.5" y="-100.5" font-family="Helvetica,sans-Serif" font-size="10.00">libs/JSystem/JAudio2</text>
<text text-anchor="middle" x="3297" y="-89.5" font-family="Helvetica,sans-Serif" font-size="10.00">/JASProbe.cpp</text>
</a>
</g>
</g>
<!-- Node2&#45;&gt;Node650 -->
<g id="edge31" class="edge">
<title>Node2&#45;&gt;Node650</title>
<path fill="none" stroke="#63b8ff" d="M3196.24,-148.49C3217.44,-137.97 3246.39,-123.61 3267.82,-112.98"/>
<polygon fill="#63b8ff" stroke="#63b8ff" points="3194.7,-145.35 3187.29,-152.93 3197.81,-151.62 3194.7,-145.35"/>
</g>
<!-- Node651 -->
<g id="node30" class="node">
<title>Node651</title>
<g id="a_node30"><a xlink:href="JASTaskThread_8cpp.html" target="_top" xlink:title=" ">
<polygon fill="white" stroke="#666666" points="3481.5,-112.5 3370.5,-112.5 3370.5,-82.5 3481.5,-82.5 3481.5,-112.5"/>
<text text-anchor="start" x="3378.5" y="-100.5" font-family="Helvetica,sans-Serif" font-size="10.00">libs/JSystem/JAudio2</text>
<text text-anchor="middle" x="3426" y="-89.5" font-family="Helvetica,sans-Serif" font-size="10.00">/JASTaskThread.cpp</text>
</a>
</g>
</g>
<!-- Node2&#45;&gt;Node651 -->
<g id="edge32" class="edge">
<title>Node2&#45;&gt;Node651</title>
<path fill="none" stroke="#63b8ff" d="M3221.42,-151.16C3260.29,-142.67 3314.11,-130.43 3361,-118 3366.92,-116.43 3373.12,-114.69 3379.24,-112.92"/>
<polygon fill="#63b8ff" stroke="#63b8ff" points="3220.87,-147.7 3211.84,-153.24 3222.36,-154.54 3220.87,-147.7"/>
</g>
<!-- Node652 -->
<g id="node31" class="node">
<title>Node652</title>
<g id="a_node31"><a xlink:href="dsptask_8cpp.html" target="_top" xlink:title=" ">
<polygon fill="white" stroke="#666666" points="3610.5,-112.5 3499.5,-112.5 3499.5,-82.5 3610.5,-82.5 3610.5,-112.5"/>
<text text-anchor="start" x="3507.5" y="-100.5" font-family="Helvetica,sans-Serif" font-size="10.00">libs/JSystem/JAudio2</text>
<text text-anchor="middle" x="3555" y="-89.5" font-family="Helvetica,sans-Serif" font-size="10.00">/dsptask.cpp</text>
</a>
</g>
</g>
<!-- Node2&#45;&gt;Node652 -->
<g id="edge33" class="edge">
<title>Node2&#45;&gt;Node652</title>
<path fill="none" stroke="#63b8ff" d="M3230.77,-156.72C3296.04,-150.03 3400.92,-137.4 3490,-118 3496.56,-116.57 3503.42,-114.81 3510.13,-112.94"/>
<polygon fill="#63b8ff" stroke="#63b8ff" points="3230.56,-153.22 3220.96,-157.71 3231.26,-160.19 3230.56,-153.22"/>
</g>
<!-- Node653 -->
<g id="node32" class="node">
<title>Node653</title>
<g id="a_node32"><a xlink:href="osdsp_8cpp.html" target="_top" xlink:title=" ">
<polygon fill="white" stroke="#666666" points="3739.5,-112.5 3628.5,-112.5 3628.5,-82.5 3739.5,-82.5 3739.5,-112.5"/>
<text text-anchor="start" x="3636.5" y="-100.5" font-family="Helvetica,sans-Serif" font-size="10.00">libs/JSystem/JAudio2</text>
<text text-anchor="middle" x="3684" y="-89.5" font-family="Helvetica,sans-Serif" font-size="10.00">/osdsp.cpp</text>
</a>
</g>
</g>
<!-- Node2&#45;&gt;Node653 -->
<g id="edge34" class="edge">
<title>Node2&#45;&gt;Node653</title>
<path fill="none" stroke="#63b8ff" d="M3230.52,-160.15C3318.1,-155.98 3481.97,-145.05 3619,-118 3625.82,-116.65 3632.95,-114.89 3639.88,-112.98"/>
<polygon fill="#63b8ff" stroke="#63b8ff" points="3230.54,-156.64 3220.71,-160.6 3230.86,-163.63 3230.54,-156.64"/>
</g>
<!-- Node654 -->
<g id="node33" class="node">
<title>Node654</title>
<g id="a_node33"><a xlink:href="JKRAramPiece_8cpp.html" target="_top" xlink:title=" ">
<polygon fill="white" stroke="#666666" points="3866.5,-112.5 3757.5,-112.5 3757.5,-82.5 3866.5,-82.5 3866.5,-112.5"/>
<text text-anchor="start" x="3765.5" y="-100.5" font-family="Helvetica,sans-Serif" font-size="10.00">libs/JSystem/JKernel</text>
<text text-anchor="middle" x="3812" y="-89.5" font-family="Helvetica,sans-Serif" font-size="10.00">/JKRAramPiece.cpp</text>
</a>
</g>
</g>
<!-- Node2&#45;&gt;Node654 -->
<g id="edge36" class="edge">
<title>Node2&#45;&gt;Node654</title>
<path fill="none" stroke="#63b8ff" d="M3230.52,-162.17C3337.47,-160.62 3561.99,-153.03 3748,-118 3754.96,-116.69 3762.24,-114.89 3769.29,-112.92"/>
<polygon fill="#63b8ff" stroke="#63b8ff" points="3230.77,-158.67 3220.82,-162.3 3230.87,-165.67 3230.77,-158.67"/>
</g>
<!-- Node655 -->
<g id="node34" class="node">
<title>Node655</title>
<g id="a_node34"><a xlink:href="JPAChildShape_8cpp.html" target="_top" xlink:title=" ">
<polygon fill="white" stroke="#666666" points="3999,-112.5 3885,-112.5 3885,-82.5 3999,-82.5 3999,-112.5"/>
<text text-anchor="start" x="3893" y="-100.5" font-family="Helvetica,sans-Serif" font-size="10.00">libs/JSystem/JParticle</text>
<text text-anchor="middle" x="3942" y="-89.5" font-family="Helvetica,sans-Serif" font-size="10.00">/JPAChildShape.cpp</text>
</a>
</g>
</g>
<!-- Node2&#45;&gt;Node655 -->
<g id="edge39" class="edge">
<title>Node2&#45;&gt;Node655</title>
<path fill="none" stroke="#63b8ff" d="M3230.98,-163.16C3355.16,-163.45 3639.98,-159.08 3875,-118 3882.28,-116.73 3889.89,-114.95 3897.27,-112.99"/>
<polygon fill="#63b8ff" stroke="#63b8ff" points="3231,-159.66 3220.98,-163.13 3230.97,-166.66 3231,-159.66"/>
</g>
<!-- Node656 -->
<g id="node35" class="node">
<title>Node656</title>
<g id="a_node35"><a xlink:href="JPAExtraShape_8cpp.html" target="_top" xlink:title=" ">
<polygon fill="white" stroke="#666666" points="4131,-112.5 4017,-112.5 4017,-82.5 4131,-82.5 4131,-112.5"/>
<text text-anchor="start" x="4025" y="-100.5" font-family="Helvetica,sans-Serif" font-size="10.00">libs/JSystem/JParticle</text>
<text text-anchor="middle" x="4074" y="-89.5" font-family="Helvetica,sans-Serif" font-size="10.00">/JPAExtraShape.cpp</text>
</a>
</g>
</g>
<!-- Node2&#45;&gt;Node656 -->
<g id="edge40" class="edge">
<title>Node2&#45;&gt;Node656</title>
<path fill="none" stroke="#63b8ff" d="M3230.65,-161.08C3399,-156.97 3858.58,-143.66 4008,-118 4015.3,-116.75 4022.94,-114.96 4030.32,-112.96"/>
<polygon fill="#63b8ff" stroke="#63b8ff" points="3230.7,-157.58 3220.79,-161.32 3230.87,-164.58 3230.7,-157.58"/>
</g>
<!-- Node603 -->
<g id="node36" class="node">
<title>Node603</title>
<g id="a_node36"><a xlink:href="JUTException_8cpp.html" target="_top" xlink:title=" ">
<polygon fill="white" stroke="#666666" points="4255,-112.5 4149,-112.5 4149,-82.5 4255,-82.5 4255,-112.5"/>
<text text-anchor="start" x="4157" y="-100.5" font-family="Helvetica,sans-Serif" font-size="10.00">libs/JSystem/JUtility</text>
<text text-anchor="middle" x="4202" y="-89.5" font-family="Helvetica,sans-Serif" font-size="10.00">/JUTException.cpp</text>
</a>
</g>
</g>
<!-- Node2&#45;&gt;Node603 -->
<g id="edge42" class="edge">
<title>Node2&#45;&gt;Node603</title>
<path fill="none" stroke="#63b8ff" d="M3230.69,-161.75C3416.85,-159.17 3964.33,-149.1 4140,-118 4147,-116.76 4154.31,-114.95 4161.35,-112.93"/>
<polygon fill="#63b8ff" stroke="#63b8ff" points="3230.69,-158.25 3220.73,-161.88 3230.78,-165.25 3230.69,-158.25"/>
</g>
<!-- Node657 -->
<g id="node37" class="node">
<title>Node657</title>
<g id="a_node37"><a xlink:href="JUTPalette_8cpp.html" target="_top" xlink:title=" ">
<polygon fill="white" stroke="#666666" points="4379,-112.5 4273,-112.5 4273,-82.5 4379,-82.5 4379,-112.5"/>
<text text-anchor="start" x="4281" y="-100.5" font-family="Helvetica,sans-Serif" font-size="10.00">libs/JSystem/JUtility</text>
<text text-anchor="middle" x="4326" y="-89.5" font-family="Helvetica,sans-Serif" font-size="10.00">/JUTPalette.cpp</text>
</a>
</g>
</g>
<!-- Node2&#45;&gt;Node657 -->
<g id="edge43" class="edge">
<title>Node2&#45;&gt;Node657</title>
<path fill="none" stroke="#63b8ff" d="M3230.69,-162.13C3432.43,-160.58 4063.29,-153 4264,-118 4271,-116.78 4278.31,-114.98 4285.36,-112.96"/>
<polygon fill="#63b8ff" stroke="#63b8ff" points="3230.92,-158.62 3220.95,-162.2 3230.98,-165.62 3230.92,-158.62"/>
</g>
<!-- Node658 -->
<g id="node38" class="node">
<title>Node658</title>
<g id="a_node38"><a xlink:href="uart__console__io__gcn_8c.html" target="_top" xlink:title=" ">
<polygon fill="white" stroke="#666666" points="4543,-118 4397,-118 4397,-77 4543,-77 4543,-118"/>
<text text-anchor="start" x="4405" y="-106" font-family="Helvetica,sans-Serif" font-size="10.00">libs/PowerPC_EABI_Support</text>
<text text-anchor="start" x="4405" y="-95" font-family="Helvetica,sans-Serif" font-size="10.00">/MSL/MSL_C/PPC_EABI/Src</text>
<text text-anchor="middle" x="4470" y="-84" font-family="Helvetica,sans-Serif" font-size="10.00">/uart_console_io_gcn.c</text>
</a>
</g>
</g>
<!-- Node2&#45;&gt;Node658 -->
<g id="edge44" class="edge">
<title>Node2&#45;&gt;Node658</title>
<path fill="none" stroke="#63b8ff" d="M3230.62,-161.85C3446.8,-159.33 4160.9,-148.84 4388,-118 4390.9,-117.61 4393.85,-117.15 4396.82,-116.66"/>
<polygon fill="#63b8ff" stroke="#63b8ff" points="3230.67,-158.34 3220.71,-161.96 3230.75,-165.34 3230.67,-158.34"/>
</g>
<!-- Node659 -->
<g id="node39" class="node">
<title>Node659</title>
<g id="a_node39"><a xlink:href="GCN__Mem__Alloc_8c.html" target="_top" xlink:title=" ">
<polygon fill="white" stroke="#666666" points="4721,-112.5 4561,-112.5 4561,-82.5 4721,-82.5 4721,-112.5"/>
<text text-anchor="start" x="4569" y="-100.5" font-family="Helvetica,sans-Serif" font-size="10.00">libs/PowerPC_EABI_Support</text>
<text text-anchor="middle" x="4641" y="-89.5" font-family="Helvetica,sans-Serif" font-size="10.00">/Runtime/Src/GCN_Mem_Alloc.c</text>
</a>
</g>
</g>
<!-- Node2&#45;&gt;Node659 -->
<g id="edge45" class="edge">
<title>Node2&#45;&gt;Node659</title>
<path fill="none" stroke="#63b8ff" d="M3230.63,-162.01C3465.11,-159.95 4291.01,-150.51 4552,-118 4561.89,-116.77 4572.3,-114.96 4582.38,-112.94"/>
<polygon fill="#63b8ff" stroke="#63b8ff" points="3230.75,-158.51 3220.78,-162.1 3230.81,-165.51 3230.75,-158.51"/>
</g>
<!-- Node480 -->
<g id="node40" class="node">
<title>Node480</title>
<g id="a_node40"><a xlink:href="Z2AudioMgr_8cpp.html" target="_top" xlink:title=" ">
<polygon fill="white" stroke="#666666" points="4897,-107 4739,-107 4739,-88 4897,-88 4897,-107"/>
<text text-anchor="middle" x="4818" y="-95" font-family="Helvetica,sans-Serif" font-size="10.00">libs/Z2AudioLib/Z2AudioMgr.cpp</text>
</a>
</g>
</g>
<!-- Node2&#45;&gt;Node480 -->
<g id="edge47" class="edge">
<title>Node2&#45;&gt;Node480</title>
<path fill="none" stroke="#63b8ff" d="M3230.57,-162.3C3483.69,-161.25 4432.36,-154.88 4730,-118 4748.32,-115.73 4768.45,-111.41 4784.83,-107.41"/>
<polygon fill="#63b8ff" stroke="#63b8ff" points="3230.9,-158.8 3220.92,-162.34 3230.93,-165.8 3230.9,-158.8"/>
</g>
<!-- Node185 -->
<g id="node41" class="node">
<title>Node185</title>
<g id="a_node41"><a xlink:href="Z2LinkMgr_8cpp.html" target="_top" xlink:title=" ">
<polygon fill="white" stroke="#666666" points="5067,-107 4915,-107 4915,-88 5067,-88 5067,-107"/>
<text text-anchor="middle" x="4991" y="-95" font-family="Helvetica,sans-Serif" font-size="10.00">libs/Z2AudioLib/Z2LinkMgr.cpp</text>
</a>
</g>
</g>
<!-- Node2&#45;&gt;Node185 -->
<g id="edge48" class="edge">
<title>Node2&#45;&gt;Node185</title>
<path fill="none" stroke="#63b8ff" d="M3230.38,-162.57C3500.67,-162.63 4572.03,-160.15 4906,-118 4923.72,-115.76 4943.17,-111.44 4958.98,-107.44"/>
<polygon fill="#63b8ff" stroke="#63b8ff" points="3230.75,-159.07 3220.75,-162.57 3230.75,-166.07 3230.75,-159.07"/>
</g>
<!-- Node486 -->
<g id="node42" class="node">
<title>Node486</title>
<g id="a_node42"><a xlink:href="Z2WolfHowlMgr_8cpp.html" target="_top" xlink:title=" ">
<polygon fill="white" stroke="#666666" points="5225,-112.5 5085,-112.5 5085,-82.5 5225,-82.5 5225,-112.5"/>
<text text-anchor="start" x="5093" y="-100.5" font-family="Helvetica,sans-Serif" font-size="10.00">libs/Z2AudioLib/Z2WolfHowl</text>
<text text-anchor="middle" x="5155" y="-89.5" font-family="Helvetica,sans-Serif" font-size="10.00">Mgr.cpp</text>
</a>
</g>
</g>
<!-- Node2&#45;&gt;Node486 -->
<g id="edge49" class="edge">
<title>Node2&#45;&gt;Node486</title>
<path fill="none" stroke="#63b8ff" d="M3230.76,-162.88C3517.8,-164.33 4707.32,-167.2 5076,-118 5084.96,-116.8 5094.38,-114.99 5103.47,-112.94"/>
<polygon fill="#63b8ff" stroke="#63b8ff" points="3230.88,-159.38 3220.86,-162.83 3230.84,-166.38 3230.88,-159.38"/>
</g>
<!-- Node660 -->
<g id="node43" class="node">
<title>Node660</title>
<g id="a_node43"><a xlink:href="ai_8c.html" target="_top" xlink:title=" ">
<polygon fill="white" stroke="#666666" points="5337,-107 5243,-107 5243,-88 5337,-88 5337,-107"/>
<text text-anchor="middle" x="5290" y="-95" font-family="Helvetica,sans-Serif" font-size="10.00">libs/dolphin/ai/ai.c</text>
</a>
</g>
</g>
<!-- Node2&#45;&gt;Node660 -->
<g id="edge50" class="edge">
<title>Node2&#45;&gt;Node660</title>
<path fill="none" stroke="#63b8ff" d="M3230.85,-162.32C3555.27,-161.21 5033.02,-154.22 5234,-118 5246.06,-115.83 5259,-111.46 5269.41,-107.41"/>
<polygon fill="#63b8ff" stroke="#63b8ff" points="3230.86,-158.82 3220.87,-162.35 3230.88,-165.82 3230.86,-158.82"/>
</g>
<!-- Node661 -->
<g id="node44" class="node">
<title>Node661</title>
<g id="a_node44"><a xlink:href="ar_8c.html" target="_top" xlink:title=" ">
<polygon fill="white" stroke="#666666" points="5450.5,-107 5355.5,-107 5355.5,-88 5450.5,-88 5450.5,-107"/>
<text text-anchor="middle" x="5403" y="-95" font-family="Helvetica,sans-Serif" font-size="10.00">libs/dolphin/ar/ar.c</text>
</a>
</g>
</g>
<!-- Node2&#45;&gt;Node661 -->
<g id="edge51" class="edge">
<title>Node2&#45;&gt;Node661</title>
<path fill="none" stroke="#63b8ff" d="M3230.73,-162.37C3565.39,-161.53 5133.27,-155.62 5346,-118 5358.26,-115.83 5371.43,-111.47 5382.03,-107.41"/>
<polygon fill="#63b8ff" stroke="#63b8ff" points="3230.85,-158.87 3220.86,-162.4 3230.87,-165.87 3230.85,-158.87"/>
</g>
<!-- Node662 -->
<g id="node45" class="node">
<title>Node662</title>
<g id="a_node45"><a xlink:href="CARDBios_8c.html" target="_top" xlink:title=" ">
<polygon fill="white" stroke="#666666" points="5613,-107 5469,-107 5469,-88 5613,-88 5613,-107"/>
<text text-anchor="middle" x="5541" y="-95" font-family="Helvetica,sans-Serif" font-size="10.00">libs/dolphin/card/CARDBios.c</text>
</a>
</g>
</g>
<!-- Node2&#45;&gt;Node662 -->
<g id="edge52" class="edge">
<title>Node2&#45;&gt;Node662</title>
<path fill="none" stroke="#63b8ff" d="M3230.88,-162.09C3576.1,-159.75 5233.86,-147.07 5460,-118 5476.93,-115.82 5495.46,-111.51 5510.52,-107.49"/>
<polygon fill="#63b8ff" stroke="#63b8ff" points="3230.88,-158.59 3220.9,-162.16 3230.93,-165.59 3230.88,-158.59"/>
</g>
<!-- Node663 -->
<g id="node46" class="node">
<title>Node663</title>
<g id="a_node46"><a xlink:href="CARDUnlock_8c.html" target="_top" xlink:title=" ">
<polygon fill="white" stroke="#666666" points="5786.5,-107 5631.5,-107 5631.5,-88 5786.5,-88 5786.5,-107"/>
<text text-anchor="middle" x="5709" y="-95" font-family="Helvetica,sans-Serif" font-size="10.00">libs/dolphin/card/CARDUnlock.c</text>
</a>
</g>
</g>
<!-- Node2&#45;&gt;Node663 -->
<g id="edge53" class="edge">
<title>Node2&#45;&gt;Node663</title>
<path fill="none" stroke="#63b8ff" d="M3230.94,-162.12C3590.66,-159.85 5378.65,-147.17 5622,-118 5640.14,-115.83 5660.04,-111.51 5676.22,-107.49"/>
<polygon fill="#63b8ff" stroke="#63b8ff" points="3230.98,-158.62 3221,-162.18 3231.02,-165.62 3230.98,-158.62"/>
</g>
<!-- Node632 -->
<g id="node47" class="node">
<title>Node632</title>
<g id="a_node47"><a xlink:href="db_8c.html" target="_top" xlink:title=" ">
<polygon fill="white" stroke="#666666" points="5905,-107 5805,-107 5805,-88 5905,-88 5905,-107"/>
<text text-anchor="middle" x="5855" y="-95" font-family="Helvetica,sans-Serif" font-size="10.00">libs/dolphin/db/db.c</text>
</a>
</g>
</g>
<!-- Node2&#45;&gt;Node632 -->
<g id="edge54" class="edge">
<title>Node2&#45;&gt;Node632</title>
<path fill="none" stroke="#63b8ff" d="M3230.9,-161.97C3618.06,-158.65 5665.69,-140.11 5796,-118 5808.66,-115.85 5822.3,-111.49 5833.27,-107.43"/>
<polygon fill="#63b8ff" stroke="#63b8ff" points="3230.89,-158.47 3220.92,-162.06 3230.95,-165.47 3230.89,-158.47"/>
</g>
<!-- Node664 -->
<g id="node48" class="node">
<title>Node664</title>
<g id="a_node48"><a xlink:href="dvd_8c.html" target="_top" xlink:title=" ">
<polygon fill="white" stroke="#666666" points="6033,-107 5923,-107 5923,-88 6033,-88 6033,-107"/>
<text text-anchor="middle" x="5978" y="-95" font-family="Helvetica,sans-Serif" font-size="10.00">libs/dolphin/dvd/dvd.c</text>
</a>
</g>
</g>
<!-- Node2&#45;&gt;Node664 -->
<g id="edge55" class="edge">
<title>Node2&#45;&gt;Node664</title>
<path fill="none" stroke="#63b8ff" d="M3230.85,-161.98C3628.02,-158.62 5777.24,-139.51 5914,-118 5927.65,-115.85 5942.44,-111.49 5954.36,-107.43"/>
<polygon fill="#63b8ff" stroke="#63b8ff" points="3230.83,-158.48 3220.86,-162.06 3230.89,-165.48 3230.83,-158.48"/>
</g>
<!-- Node665 -->
<g id="node49" class="node">
<title>Node665</title>
<g id="a_node49"><a xlink:href="dvdfs_8c.html" target="_top" xlink:title=" ">
<polygon fill="white" stroke="#666666" points="6170.5,-107 6051.5,-107 6051.5,-88 6170.5,-88 6170.5,-107"/>
<text text-anchor="middle" x="6111" y="-95" font-family="Helvetica,sans-Serif" font-size="10.00">libs/dolphin/dvd/dvdfs.c</text>
</a>
</g>
</g>
<!-- Node2&#45;&gt;Node665 -->
<g id="edge56" class="edge">
<title>Node2&#45;&gt;Node665</title>
<path fill="none" stroke="#63b8ff" d="M3230.54,-161.99C3637.59,-158.63 5898.27,-139.06 6042,-118 6056.66,-115.85 6072.6,-111.49 6085.46,-107.43"/>
<polygon fill="#63b8ff" stroke="#63b8ff" points="3230.8,-158.49 3220.83,-162.07 3230.86,-165.49 3230.8,-158.49"/>
</g>
<!-- Node2&#45;&gt;Node679 -->
<g id="edge57" class="edge">
<title>Node2&#45;&gt;Node679</title>
<path fill="none" stroke="#63b8ff" d="M3230.54,-162.02C3659.43,-158.71 6153.71,-138.62 6312,-118 6328.47,-115.85 6346.48,-111.49 6361.05,-107.43"/>
<polygon fill="#63b8ff" stroke="#63b8ff" points="3230.82,-158.52 3220.85,-162.1 3230.87,-165.52 3230.82,-158.52"/>
</g>
<!-- Node8&#45;&gt;Node606 -->
<g id="edge4" class="edge">
<title>Node8&#45;&gt;Node606</title>
<path fill="none" stroke="#63b8ff" d="M310.27,-79.32C257.85,-66.21 186.46,-48.36 136.92,-35.98"/>
<polygon fill="#63b8ff" stroke="#63b8ff" points="309.14,-82.64 319.69,-81.67 310.84,-75.85 309.14,-82.64"/>
</g>
<!-- Node8&#45;&gt;Node596 -->
<g id="edge5" class="edge">
<title>Node8&#45;&gt;Node596</title>
<path fill="none" stroke="#63b8ff" d="M342.41,-76.62C318.86,-63.82 288.79,-47.47 267.53,-35.92"/>
<polygon fill="#63b8ff" stroke="#63b8ff" points="340.6,-79.62 351.06,-81.32 343.95,-73.47 340.6,-79.62"/>
</g>
<!-- Node8&#45;&gt;Node614 -->
<g id="edge6" class="edge">
<title>Node8&#45;&gt;Node614</title>
<path fill="none" stroke="#63b8ff" d="M379,-70.73C379,-59.08 379,-45.76 379,-35.92"/>
<polygon fill="#63b8ff" stroke="#63b8ff" points="375.5,-70.53 379,-80.53 382.5,-70.53 375.5,-70.53"/>
</g>
<!-- Node8&#45;&gt;Node617 -->
<g id="edge7" class="edge">
<title>Node8&#45;&gt;Node617</title>
<path fill="none" stroke="#63b8ff" d="M413.25,-76.27C434.84,-63.52 462.19,-47.37 481.59,-35.92"/>
<polygon fill="#63b8ff" stroke="#63b8ff" points="411.62,-73.17 404.79,-81.27 415.18,-79.2 411.62,-73.17"/>
</g>
<!-- Node8&#45;&gt;Node602 -->
<g id="edge8" class="edge">
<title>Node8&#45;&gt;Node602</title>
<path fill="none" stroke="#63b8ff" d="M439.77,-79.02C477.1,-68.21 525.87,-53.97 569,-41 574.37,-39.38 580,-37.67 585.58,-35.96"/>
<polygon fill="#63b8ff" stroke="#63b8ff" points="439.16,-75.55 430.52,-81.69 441.1,-82.27 439.16,-75.55"/>
</g>
<!-- Node626&#45;&gt;Node628 -->
<g id="edge13" class="edge">
<title>Node626&#45;&gt;Node628</title>
<path fill="none" stroke="#63b8ff" d="M1092.41,-65.62C1090.21,-55.3 1087.86,-44.3 1086.06,-35.86"/>
<polygon fill="#63b8ff" stroke="#63b8ff" points="1088.97,-66.26 1094.48,-75.31 1095.82,-64.8 1088.97,-66.26"/>
</g>
<!-- Node629&#45;&gt;Node621 -->
<g id="edge15" class="edge">
<title>Node629&#45;&gt;Node621</title>
<path fill="none" stroke="#63b8ff" d="M751.44,-71C753.51,-61.3 755.83,-50.4 757.78,-41.3"/>
<polygon fill="#63b8ff" stroke="#63b8ff" points="748.06,-70.05 749.4,-80.56 754.91,-71.51 748.06,-70.05"/>
</g>
<!-- Node629&#45;&gt;Node623 -->
<g id="edge16" class="edge">
<title>Node629&#45;&gt;Node623</title>
<path fill="none" stroke="#63b8ff" d="M785.39,-77.06C807.58,-66.12 835.23,-52.47 857.58,-41.44"/>
<polygon fill="#63b8ff" stroke="#63b8ff" points="784.08,-73.81 776.66,-81.37 787.18,-80.08 784.08,-73.81"/>
</g>
</g>
</svg>
