<?xml version="1.0" encoding="UTF-8" standalone="no"?>
<!DOCTYPE svg PUBLIC "-//W3C//DTD SVG 1.1//EN"
 "http://www.w3.org/Graphics/SVG/1.1/DTD/svg11.dtd">
<!-- Generated by graphviz version 7.0.5 (20221223.1930)
 -->
<!-- Title: libs/dolphin/os/OSTime.c Pages: 1 -->
<svg width="1672pt" height="357pt"
 viewBox="0.00 0.00 1671.50 357.00" xmlns="http://www.w3.org/2000/svg" xmlns:xlink="http://www.w3.org/1999/xlink">
<g id="graph0" class="graph" transform="scale(1 1) rotate(0) translate(4 353)">
<title>libs/dolphin/os/OSTime.c</title>
<!-- Node1 -->
<g id="node1" class="node">
<title>Node1</title>
<g id="a_node1"><a xlink:title=" ">
<polygon fill="#999999" stroke="#666666" points="880,-349 755,-349 755,-330 880,-330 880,-349"/>
<text text-anchor="middle" x="817.5" y="-337" font-family="Helvetica,sans-Serif" font-size="10.00">libs/dolphin/os/OSTime.c</text>
</a>
</g>
</g>
<!-- Node2 -->
<g id="node2" class="node">
<title>Node2</title>
<g id="a_node2"><a xlink:href="OSTime_8h.html" target="_top" xlink:title=" ">
<polygon fill="white" stroke="#666666" points="107,-184 0,-184 0,-165 107,-165 107,-184"/>
<text text-anchor="middle" x="53.5" y="-172" font-family="Helvetica,sans-Serif" font-size="10.00">dolphin/os/OSTime.h</text>
</a>
</g>
</g>
<!-- Node1&#45;&gt;Node2 -->
<g id="edge1" class="edge">
<title>Node1&#45;&gt;Node2</title>
<path fill="none" stroke="#63b8ff" d="M754.8,-335.16C578.24,-325.12 86.65,-292.57 39.5,-239 28.79,-226.83 34.5,-208.33 41.58,-194.43"/>
<polygon fill="#63b8ff" stroke="#63b8ff" points="44.59,-196.22 46.51,-185.8 38.51,-192.75 44.59,-196.22"/>
</g>
<!-- Node5 -->
<g id="node5" class="node">
<title>Node5</title>
<g id="a_node5"><a xlink:href="os_8h.html" target="_top" xlink:title=" ">
<polygon fill="white" stroke="#666666" points="851.5,-294 783.5,-294 783.5,-275 851.5,-275 851.5,-294"/>
<text text-anchor="middle" x="817.5" y="-282" font-family="Helvetica,sans-Serif" font-size="10.00">dolphin/os.h</text>
</a>
</g>
</g>
<!-- Node1&#45;&gt;Node5 -->
<g id="edge4" class="edge">
<title>Node1&#45;&gt;Node5</title>
<path fill="none" stroke="#63b8ff" d="M817.5,-329.75C817.5,-323.27 817.5,-314.16 817.5,-305.9"/>
<polygon fill="#63b8ff" stroke="#63b8ff" points="821,-305.96 817.5,-295.96 814,-305.96 821,-305.96"/>
</g>
<!-- Node17 -->
<g id="node17" class="node">
<title>Node17</title>
<g id="a_node17"><a xlink:href="OSInterrupt_8h.html" target="_top" xlink:title=" ">
<polygon fill="white" stroke="#666666" points="1125.5,-184 1003.5,-184 1003.5,-165 1125.5,-165 1125.5,-184"/>
<text text-anchor="middle" x="1064.5" y="-172" font-family="Helvetica,sans-Serif" font-size="10.00">dolphin/os/OSInterrupt.h</text>
</a>
</g>
</g>
<!-- Node1&#45;&gt;Node17 -->
<g id="edge50" class="edge">
<title>Node1&#45;&gt;Node17</title>
<path fill="none" stroke="#63b8ff" d="M880.27,-337.65C1017.78,-334.31 1338.72,-318.03 1405.5,-239 1441.44,-196.46 1247.46,-182.25 1137.02,-177.63"/>
<polygon fill="#63b8ff" stroke="#63b8ff" points="1137.26,-174.14 1127.13,-177.23 1136.98,-181.13 1137.26,-174.14"/>
</g>
<!-- Node3 -->
<g id="node3" class="node">
<title>Node3</title>
<g id="a_node3"><a xlink:href="types_8h.html" target="_top" xlink:title=" ">
<polygon fill="white" stroke="#666666" points="964,-74 883,-74 883,-55 964,-55 964,-74"/>
<text text-anchor="middle" x="923.5" y="-62" font-family="Helvetica,sans-Serif" font-size="10.00">dolphin/types.h</text>
</a>
</g>
</g>
<!-- Node2&#45;&gt;Node3 -->
<g id="edge2" class="edge">
<title>Node2&#45;&gt;Node3</title>
<path fill="none" stroke="#63b8ff" d="M84.14,-164.56C133.6,-150.5 234.31,-123.46 321.5,-110 523.2,-78.85 766.4,-69.34 871.24,-66.57"/>
<polygon fill="#63b8ff" stroke="#63b8ff" points="871.31,-70.07 881.22,-66.32 871.13,-63.08 871.31,-70.07"/>
</g>
<!-- Node4 -->
<g id="node4" class="node">
<title>Node4</title>
<g id="a_node4"><a xlink:href="stddef_8h.html" target="_top" xlink:title=" ">
<polygon fill="white" stroke="#666666" points="949,-19 898,-19 898,0 949,0 949,-19"/>
<text text-anchor="middle" x="923.5" y="-7" font-family="Helvetica,sans-Serif" font-size="10.00">stddef.h</text>
</a>
</g>
</g>
<!-- Node3&#45;&gt;Node4 -->
<g id="edge3" class="edge">
<title>Node3&#45;&gt;Node4</title>
<path fill="none" stroke="#63b8ff" d="M923.5,-54.75C923.5,-48.27 923.5,-39.16 923.5,-30.9"/>
<polygon fill="#63b8ff" stroke="#63b8ff" points="927,-30.96 923.5,-20.96 920,-30.96 927,-30.96"/>
</g>
<!-- Node5&#45;&gt;Node2 -->
<g id="edge49" class="edge">
<title>Node5&#45;&gt;Node2</title>
<path fill="none" stroke="#63b8ff" d="M783.33,-282.81C637.82,-279.71 75.99,-266.01 50.5,-239 39.61,-227.46 41.9,-208.86 46,-194.76"/>
<polygon fill="#63b8ff" stroke="#63b8ff" points="49.18,-196.26 49.12,-185.67 42.56,-193.99 49.18,-196.26"/>
</g>
<!-- Node6 -->
<g id="node6" class="node">
<title>Node6</title>
<g id="a_node6"><a xlink:href="____va__arg_8h.html" target="_top" xlink:title=" ">
<polygon fill="white" stroke="#666666" points="1663.5,-129 1599.5,-129 1599.5,-110 1663.5,-110 1663.5,-129"/>
<text text-anchor="middle" x="1631.5" y="-117" font-family="Helvetica,sans-Serif" font-size="10.00">__va_arg.h</text>
</a>
</g>
</g>
<!-- Node5&#45;&gt;Node6 -->
<g id="edge5" class="edge">
<title>Node5&#45;&gt;Node6</title>
<path fill="none" stroke="#63b8ff" d="M851.66,-282.58C986.36,-278.8 1476.54,-263.47 1541.5,-239 1578.85,-224.93 1589.92,-216.92 1612.5,-184 1621.38,-171.06 1626.19,-153.88 1628.75,-140.65"/>
<polygon fill="#63b8ff" stroke="#63b8ff" points="1632.18,-141.38 1630.33,-130.94 1625.27,-140.25 1632.18,-141.38"/>
</g>
<!-- Node7 -->
<g id="node7" class="node">
<title>Node7</title>
<g id="a_node7"><a xlink:href="dvd_8h.html" target="_top" xlink:title=" ">
<polygon fill="white" stroke="#666666" points="1603.5,-184 1529.5,-184 1529.5,-165 1603.5,-165 1603.5,-184"/>
<text text-anchor="middle" x="1566.5" y="-172" font-family="Helvetica,sans-Serif" font-size="10.00">dolphin/dvd.h</text>
</a>
</g>
</g>
<!-- Node5&#45;&gt;Node7 -->
<g id="edge7" class="edge">
<title>Node5&#45;&gt;Node7</title>
<path fill="none" stroke="#63b8ff" d="M851.96,-282.92C984.41,-280.5 1456.3,-269.74 1515.5,-239 1534.28,-229.25 1548.54,-209.19 1557.13,-194.22"/>
<polygon fill="#63b8ff" stroke="#63b8ff" points="1560.03,-196.23 1561.67,-185.76 1553.86,-192.92 1560.03,-196.23"/>
</g>
<!-- Node8 -->
<g id="node8" class="node">
<title>Node8</title>
<g id="a_node8"><a xlink:href="OSAlarm_8h.html" target="_top" xlink:title=" ">
<polygon fill="white" stroke="#666666" points="171,-239 60,-239 60,-220 171,-220 171,-239"/>
<text text-anchor="middle" x="115.5" y="-227" font-family="Helvetica,sans-Serif" font-size="10.00">dolphin/os/OSAlarm.h</text>
</a>
</g>
</g>
<!-- Node5&#45;&gt;Node8 -->
<g id="edge9" class="edge">
<title>Node5&#45;&gt;Node8</title>
<path fill="none" stroke="#63b8ff" d="M783.2,-281.7C688.12,-276.56 413.24,-260.83 185.5,-239 184.49,-238.9 183.47,-238.8 182.44,-238.7"/>
<polygon fill="#63b8ff" stroke="#63b8ff" points="183.07,-235.25 172.76,-237.69 182.34,-242.21 183.07,-235.25"/>
</g>
<!-- Node9 -->
<g id="node9" class="node">
<title>Node9</title>
<g id="a_node9"><a xlink:href="OSError_8h.html" target="_top" xlink:title=" ">
<polygon fill="white" stroke="#666666" points="252.5,-184 146.5,-184 146.5,-165 252.5,-165 252.5,-184"/>
<text text-anchor="middle" x="199.5" y="-172" font-family="Helvetica,sans-Serif" font-size="10.00">dolphin/os/OSError.h</text>
</a>
</g>
</g>
<!-- Node5&#45;&gt;Node9 -->
<g id="edge22" class="edge">
<title>Node5&#45;&gt;Node9</title>
<path fill="none" stroke="#63b8ff" d="M783.1,-283.18C662.33,-281.77 262.59,-274.44 218.5,-239 205.6,-228.63 201.2,-209.86 199.82,-195.41"/>
<polygon fill="#63b8ff" stroke="#63b8ff" points="203.32,-195.46 199.32,-185.65 196.33,-195.82 203.32,-195.46"/>
</g>
<!-- Node10 -->
<g id="node10" class="node">
<title>Node10</title>
<g id="a_node10"><a xlink:href="OSAlloc_8h.html" target="_top" xlink:title=" ">
<polygon fill="white" stroke="#666666" points="406,-184 299,-184 299,-165 406,-165 406,-184"/>
<text text-anchor="middle" x="352.5" y="-172" font-family="Helvetica,sans-Serif" font-size="10.00">dolphin/os/OSAlloc.h</text>
</a>
</g>
</g>
<!-- Node5&#45;&gt;Node10 -->
<g id="edge13" class="edge">
<title>Node5&#45;&gt;Node10</title>
<path fill="none" stroke="#63b8ff" d="M783.27,-282.29C699.73,-278.92 487.58,-267.7 423.5,-239 400.25,-228.59 379.28,-207.72 366.26,-192.74"/>
<polygon fill="#63b8ff" stroke="#63b8ff" points="369.29,-190.92 360.2,-185.49 363.92,-195.41 369.29,-190.92"/>
</g>
<!-- Node11 -->
<g id="node11" class="node">
<title>Node11</title>
<g id="a_node11"><a xlink:href="OSArena_8h.html" target="_top" xlink:title=" ">
<polygon fill="white" stroke="#666666" points="552,-129 441,-129 441,-110 552,-110 552,-129"/>
<text text-anchor="middle" x="496.5" y="-117" font-family="Helvetica,sans-Serif" font-size="10.00">dolphin/os/OSArena.h</text>
</a>
</g>
</g>
<!-- Node5&#45;&gt;Node11 -->
<g id="edge15" class="edge">
<title>Node5&#45;&gt;Node11</title>
<path fill="none" stroke="#63b8ff" d="M783,-280.91C714.21,-275.33 562.52,-260.9 515.5,-239 482.11,-223.44 468.61,-217.6 453.5,-184 445.63,-166.5 460.24,-148.58 474.52,-136.26"/>
<polygon fill="#63b8ff" stroke="#63b8ff" points="476.35,-139.28 481.98,-130.31 471.98,-133.81 476.35,-139.28"/>
</g>
<!-- Node12 -->
<g id="node12" class="node">
<title>Node12</title>
<g id="a_node12"><a xlink:href="OSAudioSystem_8h.html" target="_top" xlink:title=" ">
<polygon fill="white" stroke="#666666" points="371,-239 228,-239 228,-220 371,-220 371,-239"/>
<text text-anchor="middle" x="299.5" y="-227" font-family="Helvetica,sans-Serif" font-size="10.00">dolphin/os/OSAudioSystem.h</text>
</a>
</g>
</g>
<!-- Node5&#45;&gt;Node12 -->
<g id="edge17" class="edge">
<title>Node5&#45;&gt;Node12</title>
<path fill="none" stroke="#63b8ff" d="M783.11,-279.98C702.2,-271.7 497.92,-250.8 382.41,-238.98"/>
<polygon fill="#63b8ff" stroke="#63b8ff" points="382.98,-235.52 372.68,-237.99 382.27,-242.49 382.98,-235.52"/>
</g>
<!-- Node13 -->
<g id="node13" class="node">
<title>Node13</title>
<g id="a_node13"><a xlink:href="OSCache_8h.html" target="_top" xlink:title=" ">
<polygon fill="white" stroke="#666666" points="576,-184 463,-184 463,-165 576,-165 576,-184"/>
<text text-anchor="middle" x="519.5" y="-172" font-family="Helvetica,sans-Serif" font-size="10.00">dolphin/os/OSCache.h</text>
</a>
</g>
</g>
<!-- Node5&#45;&gt;Node13 -->
<g id="edge18" class="edge">
<title>Node5&#45;&gt;Node13</title>
<path fill="none" stroke="#63b8ff" d="M783.08,-283.14C714.3,-281.67 563.47,-274.39 528.5,-239 517.48,-227.84 515.86,-209.74 516.63,-195.71"/>
<polygon fill="#63b8ff" stroke="#63b8ff" points="520.11,-196.1 517.66,-185.79 513.15,-195.38 520.11,-196.1"/>
</g>
<!-- Node14 -->
<g id="node14" class="node">
<title>Node14</title>
<g id="a_node14"><a xlink:href="OSContext_8h.html" target="_top" xlink:title=" ">
<polygon fill="white" stroke="#666666" points="918,-129 799,-129 799,-110 918,-110 918,-129"/>
<text text-anchor="middle" x="858.5" y="-117" font-family="Helvetica,sans-Serif" font-size="10.00">dolphin/os/OSContext.h</text>
</a>
</g>
</g>
<!-- Node5&#45;&gt;Node14 -->
<g id="edge20" class="edge">
<title>Node5&#45;&gt;Node14</title>
<path fill="none" stroke="#63b8ff" d="M840.26,-274.65C855.23,-267.49 873.63,-255.82 882.5,-239 897.84,-209.91 890.55,-196.89 882.5,-165 880.22,-155.98 875.71,-146.79 871.21,-139.13"/>
<polygon fill="#63b8ff" stroke="#63b8ff" points="874.22,-137.33 865.9,-130.77 868.31,-141.08 874.22,-137.33"/>
</g>
<!-- Node15 -->
<g id="node15" class="node">
<title>Node15</title>
<g id="a_node15"><a xlink:href="OSExec_8h.html" target="_top" xlink:title=" ">
<polygon fill="white" stroke="#666666" points="701,-184 594,-184 594,-165 701,-165 701,-184"/>
<text text-anchor="middle" x="647.5" y="-172" font-family="Helvetica,sans-Serif" font-size="10.00">dolphin/os/OSExec.h</text>
</a>
</g>
</g>
<!-- Node5&#45;&gt;Node15 -->
<g id="edge23" class="edge">
<title>Node5&#45;&gt;Node15</title>
<path fill="none" stroke="#63b8ff" d="M783.21,-283.35C715.56,-282.25 568.74,-275.59 537.5,-239 516.78,-214.73 554.64,-197.61 591.47,-187.31"/>
<polygon fill="#63b8ff" stroke="#63b8ff" points="592.04,-190.77 600.82,-184.84 590.26,-184.01 592.04,-190.77"/>
</g>
<!-- Node16 -->
<g id="node16" class="node">
<title>Node16</title>
<g id="a_node16"><a xlink:href="OSFont_8h.html" target="_top" xlink:title=" ">
<polygon fill="white" stroke="#666666" points="781,-129 676,-129 676,-110 781,-110 781,-129"/>
<text text-anchor="middle" x="728.5" y="-117" font-family="Helvetica,sans-Serif" font-size="10.00">dolphin/os/OSFont.h</text>
</a>
</g>
</g>
<!-- Node5&#45;&gt;Node16 -->
<g id="edge25" class="edge">
<title>Node5&#45;&gt;Node16</title>
<path fill="none" stroke="#63b8ff" d="M783.46,-282.54C722.2,-280.03 597.26,-271.01 570.5,-239 565.08,-232.52 565.33,-226.68 570.5,-220 609.56,-169.53 663.54,-228.28 709.5,-184 721.17,-172.75 725.75,-154.66 727.51,-140.65"/>
<polygon fill="#63b8ff" stroke="#63b8ff" points="730.99,-141.02 728.33,-130.77 724.02,-140.44 730.99,-141.02"/>
</g>
<!-- Node5&#45;&gt;Node17 -->
<g id="edge27" class="edge">
<title>Node5&#45;&gt;Node17</title>
<path fill="none" stroke="#63b8ff" d="M851.19,-274.55C879.15,-266.63 919.67,-254.02 953.5,-239 985.2,-224.92 1019.56,-204.37 1041.52,-190.5"/>
<polygon fill="#63b8ff" stroke="#63b8ff" points="1043.14,-193.61 1049.68,-185.27 1039.37,-187.71 1043.14,-193.61"/>
</g>
<!-- Node18 -->
<g id="node18" class="node">
<title>Node18</title>
<g id="a_node18"><a xlink:href="OSLink_8h.html" target="_top" xlink:title=" ">
<polygon fill="white" stroke="#666666" points="1040.5,-129 936.5,-129 936.5,-110 1040.5,-110 1040.5,-129"/>
<text text-anchor="middle" x="988.5" y="-117" font-family="Helvetica,sans-Serif" font-size="10.00">dolphin/os/OSLink.h</text>
</a>
</g>
</g>
<!-- Node5&#45;&gt;Node18 -->
<g id="edge29" class="edge">
<title>Node5&#45;&gt;Node18</title>
<path fill="none" stroke="#63b8ff" d="M840.29,-274.55C857.97,-266.88 882.43,-254.6 900.5,-239 934.8,-209.39 963.7,-164.15 978.3,-138.99"/>
<polygon fill="#63b8ff" stroke="#63b8ff" points="981.18,-141.01 983.06,-130.58 975.09,-137.56 981.18,-141.01"/>
</g>
<!-- Node19 -->
<g id="node19" class="node">
<title>Node19</title>
<g id="a_node19"><a xlink:href="OSMemory_8h.html" target="_top" xlink:title=" ">
<polygon fill="white" stroke="#666666" points="1251.5,-239 1131.5,-239 1131.5,-220 1251.5,-220 1251.5,-239"/>
<text text-anchor="middle" x="1191.5" y="-227" font-family="Helvetica,sans-Serif" font-size="10.00">dolphin/os/OSMemory.h</text>
</a>
</g>
</g>
<!-- Node5&#45;&gt;Node19 -->
<g id="edge31" class="edge">
<title>Node5&#45;&gt;Node19</title>
<path fill="none" stroke="#63b8ff" d="M851.68,-278.66C912.3,-270.07 1039.83,-251.99 1120.26,-240.6"/>
<polygon fill="#63b8ff" stroke="#63b8ff" points="1120.37,-244.11 1129.78,-239.25 1119.39,-237.18 1120.37,-244.11"/>
</g>
<!-- Node20 -->
<g id="node20" class="node">
<title>Node20</title>
<g id="a_node20"><a xlink:href="OSMessage_8h.html" target="_top" xlink:title=" ">
<polygon fill="white" stroke="#666666" points="705,-239 580,-239 580,-220 705,-220 705,-239"/>
<text text-anchor="middle" x="642.5" y="-227" font-family="Helvetica,sans-Serif" font-size="10.00">dolphin/os/OSMessage.h</text>
</a>
</g>
</g>
<!-- Node5&#45;&gt;Node20 -->
<g id="edge33" class="edge">
<title>Node5&#45;&gt;Node20</title>
<path fill="none" stroke="#63b8ff" d="M787.81,-274.51C758.94,-265.76 714.86,-252.42 682.83,-242.71"/>
<polygon fill="#63b8ff" stroke="#63b8ff" points="684.07,-239.43 673.49,-239.88 682.04,-246.13 684.07,-239.43"/>
</g>
<!-- Node21 -->
<g id="node21" class="node">
<title>Node21</title>
<g id="a_node21"><a xlink:href="OSThread_8h.html" target="_top" xlink:title=" ">
<polygon fill="white" stroke="#666666" points="873.5,-184 757.5,-184 757.5,-165 873.5,-165 873.5,-184"/>
<text text-anchor="middle" x="815.5" y="-172" font-family="Helvetica,sans-Serif" font-size="10.00">dolphin/os/OSThread.h</text>
</a>
</g>
</g>
<!-- Node5&#45;&gt;Node21 -->
<g id="edge48" class="edge">
<title>Node5&#45;&gt;Node21</title>
<path fill="none" stroke="#63b8ff" d="M794.74,-274.65C779.77,-267.49 761.37,-255.82 752.5,-239 741.98,-219.05 763.67,-201.3 784.42,-189.67"/>
<polygon fill="#63b8ff" stroke="#63b8ff" points="785.79,-192.9 793.03,-185.17 782.55,-186.7 785.79,-192.9"/>
</g>
<!-- Node22 -->
<g id="node22" class="node">
<title>Node22</title>
<g id="a_node22"><a xlink:href="OSMutex_8h.html" target="_top" xlink:title=" ">
<polygon fill="white" stroke="#666666" points="873.5,-239 761.5,-239 761.5,-220 873.5,-220 873.5,-239"/>
<text text-anchor="middle" x="817.5" y="-227" font-family="Helvetica,sans-Serif" font-size="10.00">dolphin/os/OSMutex.h</text>
</a>
</g>
</g>
<!-- Node5&#45;&gt;Node22 -->
<g id="edge36" class="edge">
<title>Node5&#45;&gt;Node22</title>
<path fill="none" stroke="#63b8ff" d="M817.5,-274.75C817.5,-268.27 817.5,-259.16 817.5,-250.9"/>
<polygon fill="#63b8ff" stroke="#63b8ff" points="821,-250.96 817.5,-240.96 814,-250.96 821,-250.96"/>
</g>
<!-- Node23 -->
<g id="node23" class="node">
<title>Node23</title>
<g id="a_node23"><a xlink:href="OSReboot_8h.html" target="_top" xlink:title=" ">
<polygon fill="white" stroke="#666666" points="1294.5,-129 1178.5,-129 1178.5,-110 1294.5,-110 1294.5,-129"/>
<text text-anchor="middle" x="1236.5" y="-117" font-family="Helvetica,sans-Serif" font-size="10.00">dolphin/os/OSReboot.h</text>
</a>
</g>
</g>
<!-- Node5&#45;&gt;Node23 -->
<g id="edge38" class="edge">
<title>Node5&#45;&gt;Node23</title>
<path fill="none" stroke="#63b8ff" d="M851.65,-283.55C971.5,-283.38 1367.74,-279.73 1405.5,-239 1449.74,-191.28 1346.18,-151.63 1282.24,-132.62"/>
<polygon fill="#63b8ff" stroke="#63b8ff" points="1283.23,-129.26 1272.65,-129.84 1281.28,-135.98 1283.23,-129.26"/>
</g>
<!-- Node24 -->
<g id="node24" class="node">
<title>Node24</title>
<g id="a_node24"><a xlink:href="OSReset_8h.html" target="_top" xlink:title=" ">
<polygon fill="white" stroke="#666666" points="1424,-129 1313,-129 1313,-110 1424,-110 1424,-129"/>
<text text-anchor="middle" x="1368.5" y="-117" font-family="Helvetica,sans-Serif" font-size="10.00">dolphin/os/OSReset.h</text>
</a>
</g>
</g>
<!-- Node5&#45;&gt;Node24 -->
<g id="edge40" class="edge">
<title>Node5&#45;&gt;Node24</title>
<path fill="none" stroke="#63b8ff" d="M851.9,-283.64C974.58,-283.78 1385.39,-281.09 1424.5,-239 1452.63,-208.73 1412.68,-161.78 1387.07,-137.04"/>
<polygon fill="#63b8ff" stroke="#63b8ff" points="1389.56,-134.58 1379.86,-130.32 1384.78,-139.7 1389.56,-134.58"/>
</g>
<!-- Node25 -->
<g id="node25" class="node">
<title>Node25</title>
<g id="a_node25"><a xlink:href="OSResetSW_8h.html" target="_top" xlink:title=" ">
<polygon fill="white" stroke="#666666" points="1397,-239 1270,-239 1270,-220 1397,-220 1397,-239"/>
<text text-anchor="middle" x="1333.5" y="-227" font-family="Helvetica,sans-Serif" font-size="10.00">dolphin/os/OSResetSW.h</text>
</a>
</g>
</g>
<!-- Node5&#45;&gt;Node25 -->
<g id="edge42" class="edge">
<title>Node5&#45;&gt;Node25</title>
<path fill="none" stroke="#63b8ff" d="M851.98,-280.22C924.8,-273.26 1099.88,-256.32 1258.42,-239.21"/>
<polygon fill="#63b8ff" stroke="#63b8ff" points="1258.74,-242.7 1268.3,-238.14 1257.98,-235.74 1258.74,-242.7"/>
</g>
<!-- Node26 -->
<g id="node26" class="node">
<title>Node26</title>
<g id="a_node26"><a xlink:href="OSRtc_8h.html" target="_top" xlink:title=" ">
<polygon fill="white" stroke="#666666" points="1543,-129 1442,-129 1442,-110 1543,-110 1543,-129"/>
<text text-anchor="middle" x="1492.5" y="-117" font-family="Helvetica,sans-Serif" font-size="10.00">dolphin/os/OSRtc.h</text>
</a>
</g>
</g>
<!-- Node5&#45;&gt;Node26 -->
<g id="edge45" class="edge">
<title>Node5&#45;&gt;Node26</title>
<path fill="none" stroke="#63b8ff" d="M851.6,-283.15C975.25,-281.58 1395.34,-273.74 1443.5,-239 1475.61,-215.84 1486.75,-167.67 1490.57,-140.42"/>
<polygon fill="#63b8ff" stroke="#63b8ff" points="1494.01,-141.07 1491.7,-130.73 1487.06,-140.25 1494.01,-141.07"/>
</g>
<!-- Node27 -->
<g id="node27" class="node">
<title>Node27</title>
<g id="a_node27"><a xlink:href="OSSync_8h.html" target="_top" xlink:title=" ">
<polygon fill="white" stroke="#666666" points="1113,-239 1006,-239 1006,-220 1113,-220 1113,-239"/>
<text text-anchor="middle" x="1059.5" y="-227" font-family="Helvetica,sans-Serif" font-size="10.00">dolphin/os/OSSync.h</text>
</a>
</g>
</g>
<!-- Node5&#45;&gt;Node27 -->
<g id="edge47" class="edge">
<title>Node5&#45;&gt;Node27</title>
<path fill="none" stroke="#63b8ff" d="M851.92,-275.96C892.54,-267.07 960.51,-252.18 1007.56,-241.88"/>
<polygon fill="#63b8ff" stroke="#63b8ff" points="1008.24,-245.31 1017.26,-239.75 1006.74,-238.47 1008.24,-245.31"/>
</g>
<!-- Node6&#45;&gt;Node3 -->
<g id="edge6" class="edge">
<title>Node6&#45;&gt;Node3</title>
<path fill="none" stroke="#63b8ff" d="M1599.4,-112.08C1594.75,-111.29 1590.01,-110.57 1585.5,-110 1359.48,-81.62 1087.63,-70.53 975.62,-66.95"/>
<polygon fill="#63b8ff" stroke="#63b8ff" points="975.95,-63.46 965.85,-66.65 975.73,-70.46 975.95,-63.46"/>
</g>
<!-- Node7&#45;&gt;Node3 -->
<g id="edge8" class="edge">
<title>Node7&#45;&gt;Node3</title>
<path fill="none" stroke="#63b8ff" d="M1567.35,-164.91C1568.2,-150.99 1567.55,-123.65 1551.5,-110 1508.07,-73.06 1118.32,-66.78 975.58,-65.71"/>
<polygon fill="#63b8ff" stroke="#63b8ff" points="975.68,-62.21 965.65,-65.65 975.63,-69.21 975.68,-62.21"/>
</g>
<!-- Node8&#45;&gt;Node2 -->
<g id="edge12" class="edge">
<title>Node8&#45;&gt;Node2</title>
<path fill="none" stroke="#63b8ff" d="M104.98,-219.51C96.11,-211.93 83.19,-200.88 72.51,-191.75"/>
<polygon fill="#63b8ff" stroke="#63b8ff" points="74.89,-189.18 65.01,-185.34 70.34,-194.5 74.89,-189.18"/>
</g>
<!-- Node8&#45;&gt;Node9 -->
<g id="edge10" class="edge">
<title>Node8&#45;&gt;Node9</title>
<path fill="none" stroke="#63b8ff" d="M129.75,-219.51C142.38,-211.54 161.06,-199.75 175.91,-190.38"/>
<polygon fill="#63b8ff" stroke="#63b8ff" points="177.59,-193.46 184.18,-185.17 173.86,-187.54 177.59,-193.46"/>
</g>
<!-- Node9&#45;&gt;Node3 -->
<g id="edge11" class="edge">
<title>Node9&#45;&gt;Node3</title>
<path fill="none" stroke="#63b8ff" d="M221.51,-164.57C257.47,-150.42 331.32,-123.08 396.5,-110 568.04,-75.58 776.2,-67.74 871.41,-65.99"/>
<polygon fill="#63b8ff" stroke="#63b8ff" points="871.28,-69.49 881.22,-65.82 871.16,-62.49 871.28,-69.49"/>
</g>
<!-- Node10&#45;&gt;Node3 -->
<g id="edge14" class="edge">
<title>Node10&#45;&gt;Node3</title>
<path fill="none" stroke="#63b8ff" d="M360.18,-164.6C373.2,-150.22 401.15,-122.25 431.5,-110 510.25,-78.21 761.58,-68.98 871.36,-66.42"/>
<polygon fill="#63b8ff" stroke="#63b8ff" points="871.35,-69.92 881.27,-66.2 871.19,-62.93 871.35,-69.92"/>
</g>
<!-- Node11&#45;&gt;Node3 -->
<g id="edge16" class="edge">
<title>Node11&#45;&gt;Node3</title>
<path fill="none" stroke="#63b8ff" d="M552.32,-111.57C635.38,-101.26 790.39,-82.02 871.3,-71.98"/>
<polygon fill="#63b8ff" stroke="#63b8ff" points="871.69,-75.46 881.18,-70.75 870.82,-68.51 871.69,-75.46"/>
</g>
<!-- Node13&#45;&gt;Node3 -->
<g id="edge19" class="edge">
<title>Node13&#45;&gt;Node3</title>
<path fill="none" stroke="#63b8ff" d="M534.24,-164.59C557.89,-150.7 606.16,-124.03 650.5,-110 725.3,-86.33 815.82,-74.75 871.53,-69.46"/>
<polygon fill="#63b8ff" stroke="#63b8ff" points="871.72,-72.96 881.36,-68.57 871.08,-65.99 871.72,-72.96"/>
</g>
<!-- Node14&#45;&gt;Node3 -->
<g id="edge21" class="edge">
<title>Node14&#45;&gt;Node3</title>
<path fill="none" stroke="#63b8ff" d="M869.53,-109.51C878.92,-101.85 892.65,-90.66 903.91,-81.47"/>
<polygon fill="#63b8ff" stroke="#63b8ff" points="905.93,-84.35 911.46,-75.31 901.5,-78.92 905.93,-84.35"/>
</g>
<!-- Node15&#45;&gt;Node3 -->
<g id="edge24" class="edge">
<title>Node15&#45;&gt;Node3</title>
<path fill="none" stroke="#63b8ff" d="M647.41,-164.59C647.78,-150.71 650.66,-124.05 666.5,-110 696.1,-83.74 805.05,-72.59 871.22,-68.17"/>
<polygon fill="#63b8ff" stroke="#63b8ff" points="871.38,-71.66 881.14,-67.54 870.94,-64.68 871.38,-71.66"/>
</g>
<!-- Node16&#45;&gt;Node3 -->
<g id="edge26" class="edge">
<title>Node16&#45;&gt;Node3</title>
<path fill="none" stroke="#63b8ff" d="M761.58,-109.51C794.03,-100.69 843.72,-87.18 879.5,-77.46"/>
<polygon fill="#63b8ff" stroke="#63b8ff" points="880.39,-80.84 889.12,-74.84 878.56,-74.09 880.39,-80.84"/>
</g>
<!-- Node17&#45;&gt;Node3 -->
<g id="edge28" class="edge">
<title>Node17&#45;&gt;Node3</title>
<path fill="none" stroke="#63b8ff" d="M1064.91,-164.94C1065.08,-151.53 1063.42,-125.51 1049.5,-110 1030.6,-88.95 1001.11,-77.86 975.41,-72.01"/>
<polygon fill="#63b8ff" stroke="#63b8ff" points="976.28,-68.61 965.78,-70.05 974.88,-75.47 976.28,-68.61"/>
</g>
<!-- Node18&#45;&gt;Node3 -->
<g id="edge30" class="edge">
<title>Node18&#45;&gt;Node3</title>
<path fill="none" stroke="#63b8ff" d="M977.47,-109.51C968.08,-101.85 954.35,-90.66 943.09,-81.47"/>
<polygon fill="#63b8ff" stroke="#63b8ff" points="945.5,-78.92 935.54,-75.31 941.07,-84.35 945.5,-78.92"/>
</g>
<!-- Node19&#45;&gt;Node17 -->
<g id="edge32" class="edge">
<title>Node19&#45;&gt;Node17</title>
<path fill="none" stroke="#63b8ff" d="M1169.96,-219.51C1149.76,-211.08 1119.33,-198.38 1096.34,-188.79"/>
<polygon fill="#63b8ff" stroke="#63b8ff" points="1097.7,-185.56 1087.12,-184.94 1095,-192.02 1097.7,-185.56"/>
</g>
<!-- Node20&#45;&gt;Node21 -->
<g id="edge34" class="edge">
<title>Node20&#45;&gt;Node21</title>
<path fill="none" stroke="#63b8ff" d="M671.85,-219.51C700.39,-210.76 743.96,-197.42 775.64,-187.71"/>
<polygon fill="#63b8ff" stroke="#63b8ff" points="776.31,-191.17 784.85,-184.89 774.26,-184.47 776.31,-191.17"/>
</g>
<!-- Node21&#45;&gt;Node14 -->
<g id="edge35" class="edge">
<title>Node21&#45;&gt;Node14</title>
<path fill="none" stroke="#63b8ff" d="M822.6,-164.75C828.42,-157.58 836.83,-147.2 844.06,-138.3"/>
<polygon fill="#63b8ff" stroke="#63b8ff" points="846.71,-140.59 850.29,-130.62 841.27,-136.18 846.71,-140.59"/>
</g>
<!-- Node22&#45;&gt;Node21 -->
<g id="edge37" class="edge">
<title>Node22&#45;&gt;Node21</title>
<path fill="none" stroke="#63b8ff" d="M817.17,-219.75C816.93,-213.27 816.58,-204.16 816.27,-195.9"/>
<polygon fill="#63b8ff" stroke="#63b8ff" points="819.77,-195.82 815.89,-185.95 812.77,-196.08 819.77,-195.82"/>
</g>
<!-- Node23&#45;&gt;Node3 -->
<g id="edge39" class="edge">
<title>Node23&#45;&gt;Node3</title>
<path fill="none" stroke="#63b8ff" d="M1183.4,-109.51C1125.36,-99.68 1032.96,-84.03 975.39,-74.29"/>
<polygon fill="#63b8ff" stroke="#63b8ff" points="976.3,-70.89 965.85,-72.67 975.13,-77.79 976.3,-70.89"/>
</g>
<!-- Node24&#45;&gt;Node3 -->
<g id="edge41" class="edge">
<title>Node24&#45;&gt;Node3</title>
<path fill="none" stroke="#63b8ff" d="M1312.84,-111.17C1309.68,-110.77 1306.55,-110.38 1303.5,-110 1186.34,-95.48 1048.69,-79.67 975.48,-71.36"/>
<polygon fill="#63b8ff" stroke="#63b8ff" points="976.13,-67.91 965.8,-70.27 975.34,-74.87 976.13,-67.91"/>
</g>
<!-- Node25&#45;&gt;Node3 -->
<g id="edge43" class="edge">
<title>Node25&#45;&gt;Node3</title>
<path fill="none" stroke="#63b8ff" d="M1315.59,-219.51C1273.42,-198.55 1164.28,-145.55 1069.5,-110 1036.1,-97.47 997.45,-85.81 968.31,-77.57"/>
<polygon fill="#63b8ff" stroke="#63b8ff" points="969.27,-74.21 958.7,-74.89 967.39,-80.95 969.27,-74.21"/>
</g>
<!-- Node25&#45;&gt;Node17 -->
<g id="edge44" class="edge">
<title>Node25&#45;&gt;Node17</title>
<path fill="none" stroke="#63b8ff" d="M1287.87,-219.51C1241.84,-210.44 1170.67,-196.42 1121.08,-186.65"/>
<polygon fill="#63b8ff" stroke="#63b8ff" points="1121.88,-183.24 1111.39,-184.74 1120.53,-190.11 1121.88,-183.24"/>
</g>
<!-- Node26&#45;&gt;Node3 -->
<g id="edge46" class="edge">
<title>Node26&#45;&gt;Node3</title>
<path fill="none" stroke="#63b8ff" d="M1441.79,-111.12C1438.65,-110.72 1435.53,-110.35 1432.5,-110 1266.01,-90.94 1068.05,-75.78 975.73,-69.14"/>
<polygon fill="#63b8ff" stroke="#63b8ff" points="976.21,-65.66 965.99,-68.44 975.72,-72.65 976.21,-65.66"/>
</g>
</g>
</svg>
