<?xml version="1.0" encoding="UTF-8" standalone="no"?>
<!DOCTYPE svg PUBLIC "-//W3C//DTD SVG 1.1//EN"
 "http://www.w3.org/Graphics/SVG/1.1/DTD/svg11.dtd">
<!-- Generated by graphviz version 7.0.5 (20221223.1930)
 -->
<!-- Title: libs/PowerPC_EABI_Support/MSL/MSL_C/MSL_Common/Src/printf.c Pages: 1 -->
<!--zoomable 324 -->
<svg id="main" version="1.1" xmlns="http://www.w3.org/2000/svg" xmlns:xlink="http://www.w3.org/1999/xlink" xml:space="preserve" onload="init(evt)">
<style type="text/css"><![CDATA[
.edge:hover path { stroke: red; }
.edge:hover polygon { stroke: red; fill: red; }
]]></style>
<script type="text/javascript"><![CDATA[
var edges = document.getElementsByTagName('g');
if (edges && edges.length) {
  for (var i=0;i<edges.length;i++) {
    if (edges[i].id.substr(0,4)=='edge') {
      edges[i].setAttribute('class','edge');
    }
  }
}
]]></script>
        <defs>
                <circle id="rim" cx="0" cy="0" r="7"/>
                <circle id="rim2" cx="0" cy="0" r="3.5"/>
                <g id="zoomPlus">
                        <use xlink:href="#rim" fill="#404040">
                                <set attributeName="fill" to="#808080" begin="zoomplus.mouseover" end="zoomplus.mouseout"/>
                        </use>
                        <path d="M-4,0h8M0,-4v8" fill="none" stroke="white" stroke-width="1.5" pointer-events="none"/>
                </g>
                <g id="zoomMin">
                        <use xlink:href="#rim" fill="#404040">
                                <set attributeName="fill" to="#808080" begin="zoomminus.mouseover" end="zoomminus.mouseout"/>
                        </use>
                        <path d="M-4,0h8" fill="none" stroke="white" stroke-width="1.5" pointer-events="none"/>
                </g>
                <g id="dirArrow">
                        <path fill="none" stroke="white" stroke-width="1.5" d="M0,-3.0v7 M-2.5,-0.5L0,-3.0L2.5,-0.5"/>
                </g>
               <g id="resetDef">
                       <use xlink:href="#rim2" fill="#404040">
                               <set attributeName="fill" to="#808080" begin="reset.mouseover" end="reset.mouseout"/>
                       </use>
               </g>
        </defs>

<script type="text/javascript">
var viewWidth = 699;
var viewHeight = 324;
var sectionId = 'dynsection-0';
</script>
<script xlink:href="svgpan.js"/>
<svg id="graph" class="graph">
<g id="viewport">
<title>libs/PowerPC_EABI_Support/MSL/MSL_C/MSL_Common/Src/printf.c</title>
<!-- Node1 -->
<g id="node1" class="node">
<title>Node1</title>
<g id="a_node1"><a xlink:title=" ">
<polygon fill="#999999" stroke="#666666" points="404.5,-316 241.5,-316 241.5,-275 404.5,-275 404.5,-316"/>
<text text-anchor="start" x="249.5" y="-304" font-family="Helvetica,sans-Serif" font-size="10.00">libs/PowerPC_EABI_Support</text>
<text text-anchor="start" x="249.5" y="-293" font-family="Helvetica,sans-Serif" font-size="10.00">/MSL/MSL_C/MSL_Common/Src</text>
<text text-anchor="middle" x="323" y="-282" font-family="Helvetica,sans-Serif" font-size="10.00">/printf.c</text>
</a>
</g>
</g>
<!-- Node2 -->
<g id="node2" class="node">
<title>Node2</title>
<g id="a_node2"><a xlink:href="printf_8h.html" target="_top" xlink:title=" ">
<polygon fill="white" stroke="#666666" points="290,-184 244,-184 244,-165 290,-165 290,-184"/>
<text text-anchor="middle" x="267" y="-172" font-family="Helvetica,sans-Serif" font-size="10.00">printf.h</text>
</a>
</g>
</g>
<!-- Node1&#45;&gt;Node2 -->
<g id="edge1" class="edge">
<title>Node1&#45;&gt;Node2</title>
<path fill="none" stroke="#63b8ff" d="M320.01,-274.71C317.13,-259.2 311.88,-237.42 303,-220 297.94,-210.07 290.41,-200.3 283.54,-192.46"/>
<polygon fill="#63b8ff" stroke="#63b8ff" points="286.34,-190.34 276.99,-185.36 281.19,-195.08 286.34,-190.34"/>
</g>
<!-- Node7 -->
<g id="node7" class="node">
<title>Node7</title>
<g id="a_node7"><a xlink:href="ansi__fp_8h.html" target="_top" xlink:title=" ">
<polygon fill="white" stroke="#666666" points="56,-239 0,-239 0,-220 56,-220 56,-239"/>
<text text-anchor="middle" x="28" y="-227" font-family="Helvetica,sans-Serif" font-size="10.00">ansi_fp.h</text>
</a>
</g>
</g>
<!-- Node1&#45;&gt;Node7 -->
<g id="edge7" class="edge">
<title>Node1&#45;&gt;Node7</title>
<path fill="none" stroke="#63b8ff" d="M241.02,-277.17C193.05,-266.96 131.03,-253.63 67.34,-239.5"/>
<polygon fill="#63b8ff" stroke="#63b8ff" points="68.27,-236.12 57.75,-237.37 66.75,-242.95 68.27,-236.12"/>
</g>
<!-- Node10 -->
<g id="node10" class="node">
<title>Node10</title>
<g id="a_node10"><a xlink:href="critical__regions_8h.html" target="_top" xlink:title=" ">
<polygon fill="white" stroke="#666666" points="229.5,-239 140.5,-239 140.5,-220 229.5,-220 229.5,-239"/>
<text text-anchor="middle" x="185" y="-227" font-family="Helvetica,sans-Serif" font-size="10.00">critical_regions.h</text>
</a>
</g>
</g>
<!-- Node1&#45;&gt;Node10 -->
<g id="edge10" class="edge">
<title>Node1&#45;&gt;Node10</title>
<path fill="none" stroke="#63b8ff" d="M280.09,-274.6C258.7,-264.68 233.37,-252.93 214.24,-244.06"/>
<polygon fill="#63b8ff" stroke="#63b8ff" points="215.96,-241 205.41,-239.97 213.01,-247.35 215.96,-241"/>
</g>
<!-- Node11 -->
<g id="node11" class="node">
<title>Node11</title>
<g id="a_node11"><a xlink:href="ctype_8h.html" target="_top" xlink:title=" ">
<polygon fill="white" stroke="#666666" points="294.5,-239 247.5,-239 247.5,-220 294.5,-220 294.5,-239"/>
<text text-anchor="middle" x="271" y="-227" font-family="Helvetica,sans-Serif" font-size="10.00">ctype.h</text>
</a>
</g>
</g>
<!-- Node1&#45;&gt;Node11 -->
<g id="edge11" class="edge">
<title>Node1&#45;&gt;Node11</title>
<path fill="none" stroke="#63b8ff" d="M306.83,-274.6C299.89,-266.06 291.85,-256.16 285.15,-247.91"/>
<polygon fill="#63b8ff" stroke="#63b8ff" points="288.02,-245.89 278.99,-240.34 282.58,-250.31 288.02,-245.89"/>
</g>
<!-- Node12 -->
<g id="node12" class="node">
<title>Node12</title>
<g id="a_node12"><a xlink:href="string_8h.html" target="_top" xlink:title=" ">
<polygon fill="white" stroke="#666666" points="122,-239 74,-239 74,-220 122,-220 122,-239"/>
<text text-anchor="middle" x="98" y="-227" font-family="Helvetica,sans-Serif" font-size="10.00">string.h</text>
</a>
</g>
</g>
<!-- Node1&#45;&gt;Node12 -->
<g id="edge12" class="edge">
<title>Node1&#45;&gt;Node12</title>
<path fill="none" stroke="#63b8ff" d="M252.73,-274.51C213.12,-263.24 165.32,-249.65 133.43,-240.58"/>
<polygon fill="#63b8ff" stroke="#63b8ff" points="134.48,-237.24 123.9,-237.87 132.57,-243.97 134.48,-237.24"/>
</g>
<!-- Node14 -->
<g id="node14" class="node">
<title>Node14</title>
<g id="a_node14"><a xlink:href="scanf_8h.html" target="_top" xlink:title=" ">
<polygon fill="white" stroke="#666666" points="565,-129 517,-129 517,-110 565,-110 565,-129"/>
<text text-anchor="middle" x="541" y="-117" font-family="Helvetica,sans-Serif" font-size="10.00">scanf.h</text>
</a>
</g>
</g>
<!-- Node1&#45;&gt;Node14 -->
<g id="edge15" class="edge">
<title>Node1&#45;&gt;Node14</title>
<path fill="none" stroke="#63b8ff" d="M404.93,-288.26C464.15,-281.5 544.99,-267.56 611,-239 649.27,-222.44 668.04,-221.13 687,-184 709.81,-139.33 626.94,-126.08 576.73,-122.15"/>
<polygon fill="#63b8ff" stroke="#63b8ff" points="577.09,-118.67 566.87,-121.48 576.61,-125.65 577.09,-118.67"/>
</g>
<!-- Node15 -->
<g id="node15" class="node">
<title>Node15</title>
<g id="a_node15"><a xlink:href="stdio_8h.html" target="_top" xlink:title=" ">
<polygon fill="white" stroke="#666666" points="396.5,-239 351.5,-239 351.5,-220 396.5,-220 396.5,-239"/>
<text text-anchor="middle" x="374" y="-227" font-family="Helvetica,sans-Serif" font-size="10.00">stdio.h</text>
</a>
</g>
</g>
<!-- Node1&#45;&gt;Node15 -->
<g id="edge18" class="edge">
<title>Node1&#45;&gt;Node15</title>
<path fill="none" stroke="#63b8ff" d="M338.86,-274.6C345.67,-266.06 353.55,-256.16 360.13,-247.91"/>
<polygon fill="#63b8ff" stroke="#63b8ff" points="362.66,-250.35 366.15,-240.35 357.18,-245.99 362.66,-250.35"/>
</g>
<!-- Node18 -->
<g id="node18" class="node">
<title>Node18</title>
<g id="a_node18"><a xlink:href="stdlib_8h.html" target="_top" xlink:title=" ">
<polygon fill="white" stroke="#666666" points="522.5,-239 475.5,-239 475.5,-220 522.5,-220 522.5,-239"/>
<text text-anchor="middle" x="499" y="-227" font-family="Helvetica,sans-Serif" font-size="10.00">stdlib.h</text>
</a>
</g>
</g>
<!-- Node1&#45;&gt;Node18 -->
<g id="edge25" class="edge">
<title>Node1&#45;&gt;Node18</title>
<path fill="none" stroke="#63b8ff" d="M377.72,-274.6C406.07,-264.29 439.83,-252.02 464.52,-243.04"/>
<polygon fill="#63b8ff" stroke="#63b8ff" points="465.55,-246.39 473.76,-239.68 463.16,-239.81 465.55,-246.39"/>
</g>
<!-- Node22 -->
<g id="node22" class="node">
<title>Node22</title>
<g id="a_node22"><a xlink:href="wchar__io_8h.html" target="_top" xlink:title=" ">
<polygon fill="white" stroke="#666666" points="498.5,-129 435.5,-129 435.5,-110 498.5,-110 498.5,-129"/>
<text text-anchor="middle" x="467" y="-117" font-family="Helvetica,sans-Serif" font-size="10.00">wchar_io.h</text>
</a>
</g>
</g>
<!-- Node1&#45;&gt;Node22 -->
<g id="edge32" class="edge">
<title>Node1&#45;&gt;Node22</title>
<path fill="none" stroke="#63b8ff" d="M404.81,-280.5C498.08,-262.62 641.62,-228.57 672,-184 676.76,-177.02 677.3,-171.57 672,-165 670.71,-163.4 569.47,-141.96 509.76,-129.44"/>
<polygon fill="#63b8ff" stroke="#63b8ff" points="510.76,-126.07 500.26,-127.44 509.32,-132.92 510.76,-126.07"/>
</g>
<!-- Node3 -->
<g id="node3" class="node">
<title>Node3</title>
<g id="a_node3"><a xlink:href="ansi__files_8h.html" target="_top" xlink:title=" ">
<polygon fill="white" stroke="#666666" points="389.5,-74 324.5,-74 324.5,-55 389.5,-55 389.5,-74"/>
<text text-anchor="middle" x="357" y="-62" font-family="Helvetica,sans-Serif" font-size="10.00">ansi_files.h</text>
</a>
</g>
</g>
<!-- Node2&#45;&gt;Node3 -->
<g id="edge2" class="edge">
<title>Node2&#45;&gt;Node3</title>
<path fill="none" stroke="#63b8ff" d="M267.49,-164.82C268.64,-151.72 272.43,-126.64 285,-110 294.95,-96.82 310.03,-86.64 323.83,-79.36"/>
<polygon fill="#63b8ff" stroke="#63b8ff" points="325.23,-82.58 332.67,-75.03 322.15,-76.29 325.23,-82.58"/>
</g>
<!-- Node5 -->
<g id="node5" class="node">
<title>Node5</title>
<g id="a_node5"><a xlink:href="____va__arg_8h.html" target="_top" xlink:title=" ">
<polygon fill="white" stroke="#666666" points="238,-129 174,-129 174,-110 238,-110 238,-129"/>
<text text-anchor="middle" x="206" y="-117" font-family="Helvetica,sans-Serif" font-size="10.00">__va_arg.h</text>
</a>
</g>
</g>
<!-- Node2&#45;&gt;Node5 -->
<g id="edge4" class="edge">
<title>Node2&#45;&gt;Node5</title>
<path fill="none" stroke="#63b8ff" d="M256.65,-164.51C247.92,-156.93 235.21,-145.88 224.7,-136.75"/>
<polygon fill="#63b8ff" stroke="#63b8ff" points="227.18,-134.27 217.34,-130.35 222.59,-139.55 227.18,-134.27"/>
</g>
<!-- Node4 -->
<g id="node4" class="node">
<title>Node4</title>
<g id="a_node4"><a xlink:href="stddef_8h.html" target="_top" xlink:title=" ">
<polygon fill="white" stroke="#666666" points="324.5,-19 273.5,-19 273.5,0 324.5,0 324.5,-19"/>
<text text-anchor="middle" x="299" y="-7" font-family="Helvetica,sans-Serif" font-size="10.00">stddef.h</text>
</a>
</g>
</g>
<!-- Node3&#45;&gt;Node4 -->
<g id="edge3" class="edge">
<title>Node3&#45;&gt;Node4</title>
<path fill="none" stroke="#63b8ff" d="M347.16,-54.51C338.95,-47 327.02,-36.1 317.09,-27.03"/>
<polygon fill="#63b8ff" stroke="#63b8ff" points="319.55,-24.54 309.81,-20.38 314.83,-29.71 319.55,-24.54"/>
</g>
<!-- Node6 -->
<g id="node6" class="node">
<title>Node6</title>
<g id="a_node6"><a xlink:href="types_8h.html" target="_top" xlink:title=" ">
<polygon fill="white" stroke="#666666" points="294.5,-74 213.5,-74 213.5,-55 294.5,-55 294.5,-74"/>
<text text-anchor="middle" x="254" y="-62" font-family="Helvetica,sans-Serif" font-size="10.00">dolphin/types.h</text>
</a>
</g>
</g>
<!-- Node5&#45;&gt;Node6 -->
<g id="edge5" class="edge">
<title>Node5&#45;&gt;Node6</title>
<path fill="none" stroke="#63b8ff" d="M213.93,-109.75C220.56,-102.43 230.22,-91.76 238.39,-82.74"/>
<polygon fill="#63b8ff" stroke="#63b8ff" points="240.77,-85.33 244.89,-75.56 235.58,-80.63 240.77,-85.33"/>
</g>
<!-- Node6&#45;&gt;Node4 -->
<g id="edge6" class="edge">
<title>Node6&#45;&gt;Node4</title>
<path fill="none" stroke="#63b8ff" d="M261.43,-54.75C267.58,-47.5 276.51,-36.98 284.13,-28.02"/>
<polygon fill="#63b8ff" stroke="#63b8ff" points="286.62,-30.48 290.43,-20.6 281.29,-25.95 286.62,-30.48"/>
</g>
<!-- Node8 -->
<g id="node8" class="node">
<title>Node8</title>
<g id="a_node8"><a xlink:href="float_8h.html" target="_top" xlink:title=" ">
<polygon fill="white" stroke="#666666" points="49,-184 7,-184 7,-165 49,-165 49,-184"/>
<text text-anchor="middle" x="28" y="-172" font-family="Helvetica,sans-Serif" font-size="10.00">float.h</text>
</a>
</g>
</g>
<!-- Node7&#45;&gt;Node8 -->
<g id="edge8" class="edge">
<title>Node7&#45;&gt;Node8</title>
<path fill="none" stroke="#63b8ff" d="M28,-219.75C28,-213.27 28,-204.16 28,-195.9"/>
<polygon fill="#63b8ff" stroke="#63b8ff" points="31.5,-195.96 28,-185.96 24.5,-195.96 31.5,-195.96"/>
</g>
<!-- Node9 -->
<g id="node9" class="node">
<title>Node9</title>
<g id="a_node9"><a xlink:href="fdlibm_8h.html" target="_top" xlink:title=" ">
<polygon fill="white" stroke="#666666" points="53,-129 3,-129 3,-110 53,-110 53,-129"/>
<text text-anchor="middle" x="28" y="-117" font-family="Helvetica,sans-Serif" font-size="10.00">fdlibm.h</text>
</a>
</g>
</g>
<!-- Node8&#45;&gt;Node9 -->
<g id="edge9" class="edge">
<title>Node8&#45;&gt;Node9</title>
<path fill="none" stroke="#63b8ff" d="M28,-164.75C28,-158.27 28,-149.16 28,-140.9"/>
<polygon fill="#63b8ff" stroke="#63b8ff" points="31.5,-140.96 28,-130.96 24.5,-140.96 31.5,-140.96"/>
</g>
<!-- Node12&#45;&gt;Node4 -->
<g id="edge13" class="edge">
<title>Node12&#45;&gt;Node4</title>
<path fill="none" stroke="#63b8ff" d="M101.08,-219.54C111.24,-191.3 146.3,-103.21 204,-55 221.17,-40.65 243.75,-29.82 262.58,-22.44"/>
<polygon fill="#63b8ff" stroke="#63b8ff" points="263.61,-25.8 271.75,-19.02 261.16,-19.24 263.61,-25.8"/>
</g>
<!-- Node13 -->
<g id="node13" class="node">
<title>Node13</title>
<g id="a_node13"><a xlink:href="extras_8h.html" target="_top" xlink:title=" ">
<polygon fill="white" stroke="#666666" points="226,-184 176,-184 176,-165 226,-165 226,-184"/>
<text text-anchor="middle" x="201" y="-172" font-family="Helvetica,sans-Serif" font-size="10.00">extras.h</text>
</a>
</g>
</g>
<!-- Node12&#45;&gt;Node13 -->
<g id="edge14" class="edge">
<title>Node12&#45;&gt;Node13</title>
<path fill="none" stroke="#63b8ff" d="M115.47,-219.51C131.4,-211.31 155.19,-199.07 173.64,-189.58"/>
<polygon fill="#63b8ff" stroke="#63b8ff" points="175.15,-192.74 182.44,-185.05 171.95,-186.51 175.15,-192.74"/>
</g>
<!-- Node14&#45;&gt;Node3 -->
<g id="edge17" class="edge">
<title>Node14&#45;&gt;Node3</title>
<path fill="none" stroke="#63b8ff" d="M516.57,-111.46C486.53,-102.81 435.09,-87.99 398.75,-77.52"/>
<polygon fill="#63b8ff" stroke="#63b8ff" points="400.02,-74.25 389.45,-74.85 398.09,-80.98 400.02,-74.25"/>
</g>
<!-- Node14&#45;&gt;Node4 -->
<g id="edge16" class="edge">
<title>Node14&#45;&gt;Node4</title>
<path fill="none" stroke="#63b8ff" d="M521.2,-109.66C478.92,-90.79 379.6,-46.47 329.31,-24.03"/>
<polygon fill="#63b8ff" stroke="#63b8ff" points="331.02,-20.96 320.46,-20.08 328.17,-27.35 331.02,-20.96"/>
</g>
<!-- Node15&#45;&gt;Node2 -->
<g id="edge23" class="edge">
<title>Node15&#45;&gt;Node2</title>
<path fill="none" stroke="#63b8ff" d="M355.85,-219.51C339.22,-211.27 314.36,-198.96 295.15,-189.45"/>
<polygon fill="#63b8ff" stroke="#63b8ff" points="296.75,-186.33 286.24,-185.03 293.65,-192.6 296.75,-186.33"/>
</g>
<!-- Node15&#45;&gt;Node13 -->
<g id="edge24" class="edge">
<title>Node15&#45;&gt;Node13</title>
<path fill="none" stroke="#63b8ff" d="M351.03,-221.46C321.96,-212.56 271.56,-197.12 237.27,-186.61"/>
<polygon fill="#63b8ff" stroke="#63b8ff" points="238.35,-183.28 227.76,-183.7 236.3,-189.98 238.35,-183.28"/>
</g>
<!-- Node16 -->
<g id="node16" class="node">
<title>Node16</title>
<g id="a_node16"><a xlink:href="char__io_8h.html" target="_top" xlink:title=" ">
<polygon fill="white" stroke="#666666" points="350,-129 294,-129 294,-110 350,-110 350,-129"/>
<text text-anchor="middle" x="322" y="-117" font-family="Helvetica,sans-Serif" font-size="10.00">char_io.h</text>
</a>
</g>
</g>
<!-- Node15&#45;&gt;Node16 -->
<g id="edge19" class="edge">
<title>Node15&#45;&gt;Node16</title>
<path fill="none" stroke="#63b8ff" d="M369.74,-219.66C361.36,-202.26 342.56,-163.19 331.21,-139.62"/>
<polygon fill="#63b8ff" stroke="#63b8ff" points="334.46,-138.32 326.97,-130.82 328.16,-141.35 334.46,-138.32"/>
</g>
<!-- Node17 -->
<g id="node17" class="node">
<title>Node17</title>
<g id="a_node17"><a xlink:href="file__io_8h.html" target="_top" xlink:title=" ">
<polygon fill="white" stroke="#666666" points="417.5,-129 368.5,-129 368.5,-110 417.5,-110 417.5,-129"/>
<text text-anchor="middle" x="393" y="-117" font-family="Helvetica,sans-Serif" font-size="10.00">file_io.h</text>
</a>
</g>
</g>
<!-- Node15&#45;&gt;Node17 -->
<g id="edge21" class="edge">
<title>Node15&#45;&gt;Node17</title>
<path fill="none" stroke="#63b8ff" d="M373.6,-219.77C373.22,-207.44 373.17,-184.27 377,-165 378.68,-156.55 381.67,-147.55 384.61,-139.87"/>
<polygon fill="#63b8ff" stroke="#63b8ff" points="387.75,-141.46 388.3,-130.88 381.27,-138.81 387.75,-141.46"/>
</g>
<!-- Node16&#45;&gt;Node3 -->
<g id="edge20" class="edge">
<title>Node16&#45;&gt;Node3</title>
<path fill="none" stroke="#63b8ff" d="M327.78,-109.75C332.41,-102.73 339.07,-92.64 344.87,-83.87"/>
<polygon fill="#63b8ff" stroke="#63b8ff" points="347.67,-85.98 350.26,-75.71 341.83,-82.12 347.67,-85.98"/>
</g>
<!-- Node17&#45;&gt;Node3 -->
<g id="edge22" class="edge">
<title>Node17&#45;&gt;Node3</title>
<path fill="none" stroke="#63b8ff" d="M387.06,-109.75C382.29,-102.73 375.44,-92.64 369.48,-83.87"/>
<polygon fill="#63b8ff" stroke="#63b8ff" points="372.44,-82 363.92,-75.69 366.65,-85.93 372.44,-82"/>
</g>
<!-- Node19 -->
<g id="node19" class="node">
<title>Node19</title>
<g id="a_node19"><a xlink:href="abort__exit_8h.html" target="_top" xlink:title=" ">
<polygon fill="white" stroke="#666666" points="532,-184 466,-184 466,-165 532,-165 532,-184"/>
<text text-anchor="middle" x="499" y="-172" font-family="Helvetica,sans-Serif" font-size="10.00">abort_exit.h</text>
</a>
</g>
</g>
<!-- Node18&#45;&gt;Node19 -->
<g id="edge26" class="edge">
<title>Node18&#45;&gt;Node19</title>
<path fill="none" stroke="#63b8ff" d="M499,-219.75C499,-213.27 499,-204.16 499,-195.9"/>
<polygon fill="#63b8ff" stroke="#63b8ff" points="502.5,-195.96 499,-185.96 495.5,-195.96 502.5,-195.96"/>
</g>
<!-- Node20 -->
<g id="node20" class="node">
<title>Node20</title>
<g id="a_node20"><a xlink:href="arith_8h.html" target="_top" xlink:title=" ">
<polygon fill="white" stroke="#666666" points="593.5,-184 550.5,-184 550.5,-165 593.5,-165 593.5,-184"/>
<text text-anchor="middle" x="572" y="-172" font-family="Helvetica,sans-Serif" font-size="10.00">arith.h</text>
</a>
</g>
</g>
<!-- Node18&#45;&gt;Node20 -->
<g id="edge27" class="edge">
<title>Node18&#45;&gt;Node20</title>
<path fill="none" stroke="#63b8ff" d="M511.38,-219.51C522.15,-211.7 537.97,-200.21 550.75,-190.93"/>
<polygon fill="#63b8ff" stroke="#63b8ff" points="552.54,-193.95 558.57,-185.25 548.43,-188.29 552.54,-193.95"/>
</g>
<!-- Node21 -->
<g id="node21" class="node">
<title>Node21</title>
<g id="a_node21"><a xlink:href="mbstring_8h.html" target="_top" xlink:title=" ">
<polygon fill="white" stroke="#666666" points="448,-184 386,-184 386,-165 448,-165 448,-184"/>
<text text-anchor="middle" x="417" y="-172" font-family="Helvetica,sans-Serif" font-size="10.00">mbstring.h</text>
</a>
</g>
</g>
<!-- Node18&#45;&gt;Node21 -->
<g id="edge28" class="edge">
<title>Node18&#45;&gt;Node21</title>
<path fill="none" stroke="#63b8ff" d="M485.09,-219.51C472.76,-211.54 454.53,-199.75 440.03,-190.38"/>
<polygon fill="#63b8ff" stroke="#63b8ff" points="442.27,-187.67 431.98,-185.18 438.47,-193.55 442.27,-187.67"/>
</g>
<!-- Node23 -->
<g id="node23" class="node">
<title>Node23</title>
<g id="a_node23"><a xlink:href="strtoul_8h.html" target="_top" xlink:title=" ">
<polygon fill="white" stroke="#666666" points="662.5,-184 611.5,-184 611.5,-165 662.5,-165 662.5,-184"/>
<text text-anchor="middle" x="637" y="-172" font-family="Helvetica,sans-Serif" font-size="10.00">strtoul.h</text>
</a>
</g>
</g>
<!-- Node18&#45;&gt;Node23 -->
<g id="edge31" class="edge">
<title>Node18&#45;&gt;Node23</title>
<path fill="none" stroke="#63b8ff" d="M522.41,-219.51C544.65,-210.97 578.33,-198.03 603.42,-188.4"/>
<polygon fill="#63b8ff" stroke="#63b8ff" points="604.44,-191.75 612.52,-184.9 601.93,-185.22 604.44,-191.75"/>
</g>
<!-- Node21&#45;&gt;Node22 -->
<g id="edge29" class="edge">
<title>Node21&#45;&gt;Node22</title>
<path fill="none" stroke="#63b8ff" d="M425.26,-164.75C432.16,-157.43 442.22,-146.76 450.74,-137.74"/>
<polygon fill="#63b8ff" stroke="#63b8ff" points="453.21,-140.22 457.53,-130.54 448.12,-135.42 453.21,-140.22"/>
</g>
<!-- Node22&#45;&gt;Node3 -->
<g id="edge30" class="edge">
<title>Node22&#45;&gt;Node3</title>
<path fill="none" stroke="#63b8ff" d="M448.34,-109.51C431.17,-101.24 405.45,-88.84 385.67,-79.31"/>
<polygon fill="#63b8ff" stroke="#63b8ff" points="387.28,-76.2 376.75,-75.01 384.24,-82.51 387.28,-76.2"/>
</g>
</g>
</svg>
        <g id="navigator" transform="translate(0 0)" fill="#404254">
                <rect fill="#f2f5e9" fill-opacity="0.5" stroke="#606060" stroke-width=".5" x="0" y="0" width="60" height="60"/>
                <use id="zoomplus" xlink:href="#zoomPlus" x="17" y="9" onmousedown="handleZoom(evt,'in')"/>
                <use id="zoomminus" xlink:href="#zoomMin" x="42" y="9" onmousedown="handleZoom(evt,'out')"/>
                <use id="reset" xlink:href="#resetDef" x="30" y="36" onmousedown="handleReset()"/>
                <g id="arrowUp" xlink:href="#dirArrow" transform="translate(30 24)" onmousedown="handlePan(0,-1)">
                  <use xlink:href="#rim" fill="#404040">
                        <set attributeName="fill" to="#808080" begin="arrowUp.mouseover" end="arrowUp.mouseout"/>
                  </use>
                  <path fill="none" stroke="white" stroke-width="1.5" d="M0,-3.0v7 M-2.5,-0.5L0,-3.0L2.5,-0.5"/>
                </g>
                <g id="arrowRight" xlink:href="#dirArrow" transform="rotate(90) translate(36 -43)" onmousedown="handlePan(1,0)">
                  <use xlink:href="#rim" fill="#404040">
                        <set attributeName="fill" to="#808080" begin="arrowRight.mouseover" end="arrowRight.mouseout"/>
                  </use>
                  <path fill="none" stroke="white" stroke-width="1.5" d="M0,-3.0v7 M-2.5,-0.5L0,-3.0L2.5,-0.5"/>
                </g>
                <g id="arrowDown" xlink:href="#dirArrow" transform="rotate(180) translate(-30 -48)" onmousedown="handlePan(0,1)">
                  <use xlink:href="#rim" fill="#404040">
                        <set attributeName="fill" to="#808080" begin="arrowDown.mouseover" end="arrowDown.mouseout"/>
                  </use>
                  <path fill="none" stroke="white" stroke-width="1.5" d="M0,-3.0v7 M-2.5,-0.5L0,-3.0L2.5,-0.5"/>
                </g>
                <g id="arrowLeft" xlink:href="#dirArrow" transform="rotate(270) translate(-36 17)" onmousedown="handlePan(-1,0)">
                  <use xlink:href="#rim" fill="#404040">
                        <set attributeName="fill" to="#808080" begin="arrowLeft.mouseover" end="arrowLeft.mouseout"/>
                  </use>
                  <path fill="none" stroke="white" stroke-width="1.5" d="M0,-3.0v7 M-2.5,-0.5L0,-3.0L2.5,-0.5"/>
                </g>
        </g>
        <svg viewBox="0 0 15 15" width="100%" height="30px" preserveAspectRatio="xMaxYMin meet">
         <g id="arrow_out" transform="scale(0.3 0.3)">
          <a xlink:href="printf_8c__incl_org.svg" target="_base">
           <rect id="button" ry="5" rx="5" y="6" x="6" height="38" width="38"
                fill="#f2f5e9" fill-opacity="0.5" stroke="#606060" stroke-width="1.0"/>
           <path id="arrow"
             d="M 11.500037,31.436501 C 11.940474,20.09759 22.043105,11.32322 32.158766,21.979434 L 37.068811,17.246167 C 37.068811,17.246167 37.088388,32 37.088388,32 L 22.160133,31.978069 C 22.160133,31.978069 26.997745,27.140456 26.997745,27.140456 C 18.528582,18.264221 13.291696,25.230495 11.500037,31.436501 z"
             style="fill:#404040;"/>
          </a>
         </g>
        </svg>
</svg>
