<?xml version="1.0" encoding="UTF-8" standalone="no"?>
<!DOCTYPE svg PUBLIC "-//W3C//DTD SVG 1.1//EN"
 "http://www.w3.org/Graphics/SVG/1.1/DTD/svg11.dtd">
<!-- Generated by graphviz version 7.0.5 (20221223.1930)
 -->
<!-- Title: libs/PowerPC_EABI_Support/MSL/MSL_C/MSL_Common/Src/signal.c Pages: 1 -->
<svg width="250pt" height="104pt"
 viewBox="0.00 0.00 249.50 104.00" xmlns="http://www.w3.org/2000/svg" xmlns:xlink="http://www.w3.org/1999/xlink">
<g id="graph0" class="graph" transform="scale(1 1) rotate(0) translate(4 100)">
<title>libs/PowerPC_EABI_Support/MSL/MSL_C/MSL_Common/Src/signal.c</title>
<!-- Node1 -->
<g id="node1" class="node">
<title>Node1</title>
<g id="a_node1"><a xlink:title=" ">
<polygon fill="#999999" stroke="#666666" points="182.5,-96 19.5,-96 19.5,-55 182.5,-55 182.5,-96"/>
<text text-anchor="start" x="27.5" y="-84" font-family="Helvetica,sans-Serif" font-size="10.00">libs/PowerPC_EABI_Support</text>
<text text-anchor="start" x="27.5" y="-73" font-family="Helvetica,sans-Serif" font-size="10.00">/MSL/MSL_C/MSL_Common/Src</text>
<text text-anchor="middle" x="101" y="-62" font-family="Helvetica,sans-Serif" font-size="10.00">/signal.c</text>
</a>
</g>
</g>
<!-- Node2 -->
<g id="node2" class="node">
<title>Node2</title>
<g id="a_node2"><a xlink:href="signal_8h.html" target="_top" xlink:title=" ">
<polygon fill="white" stroke="#666666" points="50,-19 0,-19 0,0 50,0 50,-19"/>
<text text-anchor="middle" x="25" y="-7" font-family="Helvetica,sans-Serif" font-size="10.00">signal.h</text>
</a>
</g>
</g>
<!-- Node1&#45;&gt;Node2 -->
<g id="edge1" class="edge">
<title>Node1&#45;&gt;Node2</title>
<path fill="none" stroke="#63b8ff" d="M77.37,-54.6C66.56,-45.5 53.93,-34.86 43.78,-26.32"/>
<polygon fill="#63b8ff" stroke="#63b8ff" points="46.35,-23.9 36.44,-20.14 41.84,-29.26 46.35,-23.9"/>
</g>
<!-- Node3 -->
<g id="node3" class="node">
<title>Node3</title>
<g id="a_node3"><a xlink:href="abort__exit_8h.html" target="_top" xlink:title=" ">
<polygon fill="white" stroke="#666666" points="134,-19 68,-19 68,0 134,0 134,-19"/>
<text text-anchor="middle" x="101" y="-7" font-family="Helvetica,sans-Serif" font-size="10.00">abort_exit.h</text>
</a>
</g>
</g>
<!-- Node1&#45;&gt;Node3 -->
<g id="edge2" class="edge">
<title>Node1&#45;&gt;Node3</title>
<path fill="none" stroke="#63b8ff" d="M101,-54.6C101,-46.98 101,-38.3 101,-30.66"/>
<polygon fill="#63b8ff" stroke="#63b8ff" points="104.5,-30.68 101,-20.68 97.5,-30.68 104.5,-30.68"/>
</g>
<!-- Node4 -->
<g id="node4" class="node">
<title>Node4</title>
<g id="a_node4"><a xlink:href="critical__regions_8h.html" target="_top" xlink:title=" ">
<polygon fill="white" stroke="#666666" points="241.5,-19 152.5,-19 152.5,0 241.5,0 241.5,-19"/>
<text text-anchor="middle" x="197" y="-7" font-family="Helvetica,sans-Serif" font-size="10.00">critical_regions.h</text>
</a>
</g>
</g>
<!-- Node1&#45;&gt;Node4 -->
<g id="edge3" class="edge">
<title>Node1&#45;&gt;Node4</title>
<path fill="none" stroke="#63b8ff" d="M130.85,-54.6C144.92,-45.22 161.43,-34.21 174.44,-25.54"/>
<polygon fill="#63b8ff" stroke="#63b8ff" points="176.37,-28.46 182.75,-20 172.48,-22.64 176.37,-28.46"/>
</g>
</g>
</svg>
