<?xml version="1.0" encoding="UTF-8" standalone="no"?>
<!DOCTYPE svg PUBLIC "-//W3C//DTD SVG 1.1//EN"
 "http://www.w3.org/Graphics/SVG/1.1/DTD/svg11.dtd">
<!-- Generated by graphviz version 7.0.5 (20221223.1930)
 -->
<!-- Title: libs/JSystem/JStudio/JStudio/stb&#45;data.cpp Pages: 1 -->
<svg width="214pt" height="214pt"
 viewBox="0.00 0.00 214.00 214.00" xmlns="http://www.w3.org/2000/svg" xmlns:xlink="http://www.w3.org/1999/xlink">
<g id="graph0" class="graph" transform="scale(1 1) rotate(0) translate(4 210)">
<title>libs/JSystem/JStudio/JStudio/stb&#45;data.cpp</title>
<!-- Node1 -->
<g id="node1" class="node">
<title>Node1</title>
<g id="a_node1"><a xlink:title=" ">
<polygon fill="#999999" stroke="#666666" points="174,-206 65,-206 65,-176 174,-176 174,-206"/>
<text text-anchor="start" x="73" y="-194" font-family="Helvetica,sans-Serif" font-size="10.00">libs/JSystem/JStudio</text>
<text text-anchor="middle" x="119.5" y="-183" font-family="Helvetica,sans-Serif" font-size="10.00">/JStudio/stb&#45;data.cpp</text>
</a>
</g>
</g>
<!-- Node2 -->
<g id="node2" class="node">
<title>Node2</title>
<g id="a_node2"><a xlink:href="stb-data_8h.html" target="_top" xlink:title=" ">
<polygon fill="white" stroke="#666666" points="127,-140 0,-140 0,-110 127,-110 127,-140"/>
<text text-anchor="start" x="8" y="-128" font-family="Helvetica,sans-Serif" font-size="10.00">JSystem/JStudio/JStudio</text>
<text text-anchor="middle" x="63.5" y="-117" font-family="Helvetica,sans-Serif" font-size="10.00">/stb&#45;data.h</text>
</a>
</g>
</g>
<!-- Node1&#45;&gt;Node2 -->
<g id="edge1" class="edge">
<title>Node1&#45;&gt;Node2</title>
<path fill="none" stroke="#63b8ff" d="M107.07,-175.8C100.11,-167.84 91.27,-157.74 83.37,-148.71"/>
<polygon fill="#63b8ff" stroke="#63b8ff" points="86.11,-146.52 76.89,-141.3 80.84,-151.13 86.11,-146.52"/>
</g>
<!-- Node5 -->
<g id="node5" class="node">
<title>Node5</title>
<g id="a_node5"><a xlink:href="dol2asm_8h.html" target="_top" xlink:title=" ">
<polygon fill="white" stroke="#666666" points="206,-134.5 145,-134.5 145,-115.5 206,-115.5 206,-134.5"/>
<text text-anchor="middle" x="175.5" y="-122.5" font-family="Helvetica,sans-Serif" font-size="10.00">dol2asm.h</text>
</a>
</g>
</g>
<!-- Node1&#45;&gt;Node5 -->
<g id="edge4" class="edge">
<title>Node1&#45;&gt;Node5</title>
<path fill="none" stroke="#63b8ff" d="M131.93,-175.8C140.32,-166.21 151.44,-153.5 160.35,-143.32"/>
<polygon fill="#63b8ff" stroke="#63b8ff" points="162.81,-145.81 166.76,-135.98 157.55,-141.2 162.81,-145.81"/>
</g>
<!-- Node3 -->
<g id="node3" class="node">
<title>Node3</title>
<g id="a_node3"><a xlink:href="types_8h.html" target="_top" xlink:title=" ">
<polygon fill="white" stroke="#666666" points="104,-74 23,-74 23,-55 104,-55 104,-74"/>
<text text-anchor="middle" x="63.5" y="-62" font-family="Helvetica,sans-Serif" font-size="10.00">dolphin/types.h</text>
</a>
</g>
</g>
<!-- Node2&#45;&gt;Node3 -->
<g id="edge2" class="edge">
<title>Node2&#45;&gt;Node3</title>
<path fill="none" stroke="#63b8ff" d="M63.5,-109.54C63.5,-102.34 63.5,-93.53 63.5,-85.68"/>
<polygon fill="#63b8ff" stroke="#63b8ff" points="67,-85.69 63.5,-75.69 60,-85.69 67,-85.69"/>
</g>
<!-- Node4 -->
<g id="node4" class="node">
<title>Node4</title>
<g id="a_node4"><a xlink:href="stddef_8h.html" target="_top" xlink:title=" ">
<polygon fill="white" stroke="#666666" points="89,-19 38,-19 38,0 89,0 89,-19"/>
<text text-anchor="middle" x="63.5" y="-7" font-family="Helvetica,sans-Serif" font-size="10.00">stddef.h</text>
</a>
</g>
</g>
<!-- Node3&#45;&gt;Node4 -->
<g id="edge3" class="edge">
<title>Node3&#45;&gt;Node4</title>
<path fill="none" stroke="#63b8ff" d="M63.5,-54.75C63.5,-48.27 63.5,-39.16 63.5,-30.9"/>
<polygon fill="#63b8ff" stroke="#63b8ff" points="67,-30.96 63.5,-20.96 60,-30.96 67,-30.96"/>
</g>
</g>
</svg>
