<?xml version="1.0" encoding="UTF-8" standalone="no"?>
<!DOCTYPE svg PUBLIC "-//W3C//DTD SVG 1.1//EN"
 "http://www.w3.org/Graphics/SVG/1.1/DTD/svg11.dtd">
<!-- Generated by graphviz version 7.0.5 (20221223.1930)
 -->
<!-- Title: J3DDeformData Pages: 1 -->
<svg width="321pt" height="368pt"
 viewBox="0.00 0.00 320.50 368.00" xmlns="http://www.w3.org/2000/svg" xmlns:xlink="http://www.w3.org/1999/xlink">
<g id="graph0" class="graph" transform="scale(1 1) rotate(0) translate(4 364)">
<title>J3DDeformData</title>
<!-- Node1 -->
<g id="node1" class="node">
<title>Node1</title>
<g id="a_node1"><a xlink:title=" ">
<polygon fill="#999999" stroke="#666666" points="173.5,-151 87.5,-151 87.5,-132 173.5,-132 173.5,-151"/>
<text text-anchor="middle" x="130.5" y="-139" font-family="Helvetica,sans-Serif" font-size="10.00">J3DDeformData</text>
</a>
</g>
</g>
<!-- Node4 -->
<g id="node4" class="node">
<title>Node4</title>
<g id="a_node4"><a xlink:href="structJ3DDeformer.html" target="_top" xlink:title=" ">
<polygon fill="white" stroke="#666666" points="272.5,-85 198.5,-85 198.5,-66 272.5,-66 272.5,-85"/>
<text text-anchor="middle" x="235.5" y="-73" font-family="Helvetica,sans-Serif" font-size="10.00">J3DDeformer</text>
</a>
</g>
</g>
<!-- Node1&#45;&gt;Node4 -->
<g id="edge4" class="edge">
<title>Node1&#45;&gt;Node4</title>
<path fill="none" stroke="#9a32cd" stroke-dasharray="5,2" d="M149.25,-124.66C158.11,-117.57 169.02,-109.39 179.5,-103 190.43,-96.34 203.3,-90.14 213.94,-85.42"/>
<polygon fill="#9a32cd" stroke="#9a32cd" points="147.24,-121.78 141.73,-130.83 151.68,-127.19 147.24,-121.78"/>
<text text-anchor="middle" x="211" y="-106" font-family="Helvetica,sans-Serif" font-size="10.00"> mDeformData</text>
</g>
<!-- Node2 -->
<g id="node2" class="node">
<title>Node2</title>
<g id="a_node2"><a xlink:href="classJ3DCluster.html" target="_top" xlink:title=" ">
<polygon fill="white" stroke="#666666" points="140,-19 75,-19 75,0 140,0 140,-19"/>
<text text-anchor="middle" x="107.5" y="-7" font-family="Helvetica,sans-Serif" font-size="10.00">J3DCluster</text>
</a>
</g>
</g>
<!-- Node2&#45;&gt;Node1 -->
<g id="edge1" class="edge">
<title>Node2&#45;&gt;Node1</title>
<path fill="none" stroke="#9a32cd" stroke-dasharray="5,2" d="M109.2,-30.29C110.66,-45.36 113.08,-66.59 116.5,-85 119.59,-101.61 124.75,-120.63 127.87,-131.54"/>
<polygon fill="#9a32cd" stroke="#9a32cd" points="112.73,-30.42 108.33,-20.78 105.76,-31.06 112.73,-30.42"/>
<text text-anchor="middle" x="153" y="-73" font-family="Helvetica,sans-Serif" font-size="10.00"> mClusterPointer</text>
</g>
<!-- Node3 -->
<g id="node3" class="node">
<title>Node3</title>
<g id="a_node3"><a xlink:href="structJ3DClusterKey.html" target="_top" xlink:title=" ">
<polygon fill="white" stroke="#666666" points="81,-228 0,-228 0,-209 81,-209 81,-228"/>
<text text-anchor="middle" x="40.5" y="-216" font-family="Helvetica,sans-Serif" font-size="10.00">J3DClusterKey</text>
</a>
</g>
</g>
<!-- Node3&#45;&gt;Node1 -->
<g id="edge7" class="edge">
<title>Node3&#45;&gt;Node1</title>
<path fill="none" stroke="#9a32cd" stroke-dasharray="5,2" d="M41.58,-197.36C43.08,-187.71 46.39,-176.62 53.5,-169 62.37,-159.49 74.81,-153.39 87.11,-149.48"/>
<polygon fill="#9a32cd" stroke="#9a32cd" points="38.1,-197.01 40.62,-207.3 45.07,-197.68 38.1,-197.01"/>
<text text-anchor="middle" x="98" y="-177.5" font-family="Helvetica,sans-Serif" font-size="10.00"> mClusterKeyPointer</text>
</g>
<!-- Node3&#45;&gt;Node2 -->
<g id="edge2" class="edge">
<title>Node3&#45;&gt;Node2</title>
<path fill="none" stroke="#9a32cd" stroke-dasharray="5,2" d="M38.57,-197.15C38.14,-188.44 38.14,-178.18 39.5,-169 48.54,-107.98 87.06,-42.53 101.77,-19.29"/>
<polygon fill="#9a32cd" stroke="#9a32cd" points="35.07,-197.28 39.31,-207 42.05,-196.76 35.07,-197.28"/>
<text text-anchor="middle" x="87.5" y="-106" font-family="Helvetica,sans-Serif" font-size="10.00"> mClusterKey</text>
</g>
<!-- Node4&#45;&gt;Node2 -->
<g id="edge3" class="edge">
<title>Node4&#45;&gt;Node2</title>
<path fill="none" stroke="#9a32cd" stroke-dasharray="5,2" d="M207.7,-60.6C182.62,-48.06 146.47,-29.99 125.15,-19.32"/>
<polygon fill="#9a32cd" stroke="#9a32cd" points="205.84,-63.58 216.35,-64.92 208.97,-57.32 205.84,-63.58"/>
<text text-anchor="middle" x="204" y="-40" font-family="Helvetica,sans-Serif" font-size="10.00"> mDeformer</text>
</g>
<!-- Node5 -->
<g id="node5" class="node">
<title>Node5</title>
<g id="a_node5"><a xlink:href="classJ3DAnmCluster.html" target="_top" xlink:title=" ">
<polygon fill="white" stroke="#666666" points="305,-151 220,-151 220,-132 305,-132 305,-151"/>
<text text-anchor="middle" x="262.5" y="-139" font-family="Helvetica,sans-Serif" font-size="10.00">J3DAnmCluster</text>
</a>
</g>
</g>
<!-- Node5&#45;&gt;Node4 -->
<g id="edge5" class="edge">
<title>Node5&#45;&gt;Node4</title>
<path fill="none" stroke="#9a32cd" stroke-dasharray="5,2" d="M254.4,-121.3C249.36,-109.35 243.12,-94.56 239.22,-85.32"/>
<polygon fill="#9a32cd" stroke="#9a32cd" points="251.05,-122.35 258.16,-130.21 257.5,-119.63 251.05,-122.35"/>
<text text-anchor="middle" x="281.5" y="-106" font-family="Helvetica,sans-Serif" font-size="10.00"> mAnmCluster</text>
</g>
<!-- Node6 -->
<g id="node6" class="node">
<title>Node6</title>
<g id="a_node6"><a xlink:href="classJ3DAnmBase.html" target="_top" xlink:title=" ">
<polygon fill="white" stroke="#666666" points="307,-228 230,-228 230,-209 307,-209 307,-228"/>
<text text-anchor="middle" x="268.5" y="-216" font-family="Helvetica,sans-Serif" font-size="10.00">J3DAnmBase</text>
</a>
</g>
</g>
<!-- Node6&#45;&gt;Node5 -->
<g id="edge6" class="edge">
<title>Node6&#45;&gt;Node5</title>
<path fill="none" stroke="#63b8ff" d="M266.89,-197.42C265.69,-182.43 264.11,-162.66 263.21,-151.39"/>
<polygon fill="#63b8ff" stroke="#63b8ff" points="263.38,-197.4 267.67,-207.09 270.36,-196.85 263.38,-197.4"/>
</g>
<!-- Node7 -->
<g id="node7" class="node">
<title>Node7</title>
<g id="a_node7"><a xlink:href="structJUTNameTab.html" target="_top" xlink:title=" ">
<polygon fill="white" stroke="#666666" points="207.5,-228 129.5,-228 129.5,-209 207.5,-209 207.5,-228"/>
<text text-anchor="middle" x="168.5" y="-216" font-family="Helvetica,sans-Serif" font-size="10.00">JUTNameTab</text>
</a>
</g>
</g>
<!-- Node7&#45;&gt;Node1 -->
<g id="edge8" class="edge">
<title>Node7&#45;&gt;Node1</title>
<path fill="none" stroke="#9a32cd" stroke-dasharray="5,2" d="M160.38,-198.23C156.43,-189.23 151.47,-178.44 146.5,-169 143.3,-162.91 139.3,-156.29 136.1,-151.18"/>
<polygon fill="#9a32cd" stroke="#9a32cd" points="157.15,-199.57 164.31,-207.38 163.58,-196.81 157.15,-199.57"/>
<text text-anchor="middle" x="200" y="-183" font-family="Helvetica,sans-Serif" font-size="10.00"> mClusterKeyName</text>
<text text-anchor="middle" x="200" y="-172" font-family="Helvetica,sans-Serif" font-size="10.00">mClusterName</text>
</g>
<!-- Node8 -->
<g id="node8" class="node">
<title>Node8</title>
<g id="a_node8"><a xlink:href="structResNTAB.html" target="_top" xlink:title=" ">
<polygon fill="white" stroke="#666666" points="199,-294 138,-294 138,-275 199,-275 199,-294"/>
<text text-anchor="middle" x="168.5" y="-282" font-family="Helvetica,sans-Serif" font-size="10.00">ResNTAB</text>
</a>
</g>
</g>
<!-- Node8&#45;&gt;Node7 -->
<g id="edge9" class="edge">
<title>Node8&#45;&gt;Node7</title>
<path fill="none" stroke="#9a32cd" stroke-dasharray="5,2" d="M168.5,-263.18C168.5,-251.44 168.5,-237.27 168.5,-228.32"/>
<polygon fill="#9a32cd" stroke="#9a32cd" points="165,-263.09 168.5,-273.09 172,-263.09 165,-263.09"/>
<text text-anchor="middle" x="199" y="-249" font-family="Helvetica,sans-Serif" font-size="10.00"> mNameTable</text>
</g>
<!-- Node9 -->
<g id="node9" class="node">
<title>Node9</title>
<g id="a_node9"><a xlink:href="structResNTAB_1_1Entry.html" target="_top" xlink:title=" ">
<polygon fill="white" stroke="#666666" points="212,-360 125,-360 125,-341 212,-341 212,-360"/>
<text text-anchor="middle" x="168.5" y="-348" font-family="Helvetica,sans-Serif" font-size="10.00">ResNTAB::Entry</text>
</a>
</g>
</g>
<!-- Node9&#45;&gt;Node8 -->
<g id="edge10" class="edge">
<title>Node9&#45;&gt;Node8</title>
<path fill="none" stroke="#9a32cd" stroke-dasharray="5,2" d="M168.5,-329.18C168.5,-317.44 168.5,-303.27 168.5,-294.32"/>
<polygon fill="#9a32cd" stroke="#9a32cd" points="165,-329.09 168.5,-339.09 172,-329.09 165,-329.09"/>
<text text-anchor="middle" x="189" y="-315" font-family="Helvetica,sans-Serif" font-size="10.00"> mEntries</text>
</g>
</g>
</svg>
