<?xml version="1.0" encoding="UTF-8" standalone="no"?>
<!DOCTYPE svg PUBLIC "-//W3C//DTD SVG 1.1//EN"
 "http://www.w3.org/Graphics/SVG/1.1/DTD/svg11.dtd">
<!-- Generated by graphviz version 7.0.5 (20221223.1930)
 -->
<!-- Title: mem_pool_obj Pages: 1 -->
<svg width="206pt" height="253pt"
 viewBox="0.00 0.00 206.00 253.00" xmlns="http://www.w3.org/2000/svg" xmlns:xlink="http://www.w3.org/1999/xlink">
<g id="graph0" class="graph" transform="scale(1 1) rotate(0) translate(4 249)">
<title>mem_pool_obj</title>
<!-- Node1 -->
<g id="node1" class="node">
<title>Node1</title>
<g id="a_node1"><a xlink:title=" ">
<polygon fill="#999999" stroke="#666666" points="119,-96 39,-96 39,-77 119,-77 119,-96"/>
<text text-anchor="middle" x="79" y="-84" font-family="Helvetica,sans-Serif" font-size="10.00">mem_pool_obj</text>
</a>
</g>
</g>
<!-- Node4 -->
<g id="node4" class="node">
<title>Node4</title>
<g id="a_node4"><a xlink:href="structpool__options.html" target="_top" xlink:title=" ">
<polygon fill="white" stroke="#666666" points="114.5,-19 43.5,-19 43.5,0 114.5,0 114.5,-19"/>
<text text-anchor="middle" x="79" y="-7" font-family="Helvetica,sans-Serif" font-size="10.00">pool_options</text>
</a>
</g>
</g>
<!-- Node1&#45;&gt;Node4 -->
<g id="edge5" class="edge">
<title>Node1&#45;&gt;Node4</title>
<path fill="none" stroke="#9a32cd" stroke-dasharray="5,2" d="M42.08,-70.83C37.67,-67.58 33.76,-63.67 31,-59 26.03,-50.58 26.03,-45.42 31,-37 35.64,-29.13 43.56,-23.44 51.63,-19.39"/>
<polygon fill="#9a32cd" stroke="#9a32cd" points="39.97,-73.64 50.34,-75.82 43.59,-67.65 39.97,-73.64"/>
<text text-anchor="middle" x="64.5" y="-51" font-family="Helvetica,sans-Serif" font-size="10.00"> sys_alloc_func</text>
<text text-anchor="middle" x="64.5" y="-40" font-family="Helvetica,sans-Serif" font-size="10.00">sys_free_func</text>
</g>
<!-- Node2 -->
<g id="node2" class="node">
<title>Node2</title>
<g id="a_node2"><a xlink:href="structlist__header.html" target="_top" xlink:title=" ">
<polygon fill="white" stroke="#666666" points="69,-163.5 5,-163.5 5,-144.5 69,-144.5 69,-163.5"/>
<text text-anchor="middle" x="37" y="-151.5" font-family="Helvetica,sans-Serif" font-size="10.00">list_header</text>
</a>
</g>
</g>
<!-- Node2&#45;&gt;Node1 -->
<g id="edge1" class="edge">
<title>Node2&#45;&gt;Node1</title>
<path fill="none" stroke="#9a32cd" stroke-dasharray="5,2" d="M45.69,-134.01C48.95,-127.49 52.86,-120.27 57,-114 61.08,-107.81 66.37,-101.4 70.74,-96.44"/>
<polygon fill="#9a32cd" stroke="#9a32cd" points="42.72,-132.12 41.57,-142.65 49.04,-135.13 42.72,-132.12"/>
<text text-anchor="middle" x="75.5" y="-117" font-family="Helvetica,sans-Serif" font-size="10.00"> free_list</text>
</g>
<!-- Node3 -->
<g id="node3" class="node">
<title>Node3</title>
<g id="a_node3"><a xlink:href="structblock__header.html" target="_top" xlink:title=" ">
<polygon fill="white" stroke="#666666" points="74,-243.5 0,-243.5 0,-224.5 74,-224.5 74,-243.5"/>
<text text-anchor="middle" x="37" y="-231.5" font-family="Helvetica,sans-Serif" font-size="10.00">block_header</text>
</a>
</g>
</g>
<!-- Node3&#45;&gt;Node2 -->
<g id="edge2" class="edge">
<title>Node3&#45;&gt;Node2</title>
<path fill="none" stroke="#9a32cd" stroke-dasharray="5,2" d="M37,-212.79C37,-196.95 37,-175.66 37,-163.84"/>
<polygon fill="#9a32cd" stroke="#9a32cd" points="33.5,-212.54 37,-222.54 40.5,-212.54 33.5,-212.54"/>
<text text-anchor="middle" x="53" y="-197" font-family="Helvetica,sans-Serif" font-size="10.00"> header</text>
<text text-anchor="middle" x="53" y="-186" font-family="Helvetica,sans-Serif" font-size="10.00">rover</text>
</g>
<!-- Node3&#45;&gt;Node3 -->
<g id="edge3" class="edge">
<title>Node3&#45;&gt;Node3</title>
<path fill="none" stroke="#9a32cd" stroke-dasharray="5,2" d="M85.34,-239.83C89.44,-238.59 92,-236.64 92,-234 92,-229.43 84.34,-226.95 74.27,-226.56"/>
<polygon fill="#9a32cd" stroke="#9a32cd" points="85.16,-236.32 75.77,-241.23 86.17,-243.25 85.16,-236.32"/>
<text text-anchor="middle" x="102.5" y="-237" font-family="Helvetica,sans-Serif" font-size="10.00"> next</text>
<text text-anchor="middle" x="102.5" y="-226" font-family="Helvetica,sans-Serif" font-size="10.00">prev</text>
</g>
<!-- Node4&#45;&gt;Node1 -->
<g id="edge4" class="edge">
<title>Node4&#45;&gt;Node1</title>
<path fill="none" stroke="#9a32cd" stroke-dasharray="5,2" d="M96.97,-27.86C99.02,-30.71 100.8,-33.79 102,-37 105.42,-46.16 105.42,-49.84 102,-59 99.44,-65.85 94.23,-72.1 89.41,-76.81"/>
<polygon fill="#9a32cd" stroke="#9a32cd" points="99.61,-25.57 90.41,-20.33 94.34,-30.17 99.61,-25.57"/>
<text text-anchor="middle" x="121" y="-45.5" font-family="Helvetica,sans-Serif" font-size="10.00"> options</text>
</g>
<!-- Node5 -->
<g id="node5" class="node">
<title>Node5</title>
<g id="a_node5"><a xlink:href="structheap__header.html" target="_top" xlink:title=" ">
<polygon fill="white" stroke="#666666" points="159,-163.5 87,-163.5 87,-144.5 159,-144.5 159,-163.5"/>
<text text-anchor="middle" x="123" y="-151.5" font-family="Helvetica,sans-Serif" font-size="10.00">heap_header</text>
</a>
</g>
</g>
<!-- Node5&#45;&gt;Node1 -->
<g id="edge6" class="edge">
<title>Node5&#45;&gt;Node1</title>
<path fill="none" stroke="#9a32cd" stroke-dasharray="5,2" d="M110.67,-134.65C102.22,-122.07 91.4,-105.95 84.84,-96.19"/>
<polygon fill="#9a32cd" stroke="#9a32cd" points="107.74,-136.56 116.22,-142.91 113.55,-132.66 107.74,-136.56"/>
<text text-anchor="middle" x="124" y="-117" font-family="Helvetica,sans-Serif" font-size="10.00"> heap_list</text>
</g>
<!-- Node5&#45;&gt;Node5 -->
<g id="edge7" class="edge">
<title>Node5&#45;&gt;Node5</title>
<path fill="none" stroke="#9a32cd" stroke-dasharray="5,2" d="M170.68,-158.97C174.58,-157.89 177,-156.24 177,-154 177,-150.02 169.35,-147.88 159.34,-147.57"/>
<polygon fill="#9a32cd" stroke="#9a32cd" points="170.31,-155.49 160.84,-160.24 171.21,-162.43 170.31,-155.49"/>
<text text-anchor="middle" x="187.5" y="-157" font-family="Helvetica,sans-Serif" font-size="10.00"> next</text>
<text text-anchor="middle" x="187.5" y="-146" font-family="Helvetica,sans-Serif" font-size="10.00">prev</text>
</g>
</g>
</svg>
