<?xml version="1.0" encoding="UTF-8" standalone="no"?>
<!DOCTYPE svg PUBLIC "-//W3C//DTD SVG 1.1//EN"
 "http://www.w3.org/Graphics/SVG/1.1/DTD/svg11.dtd">
<!-- Generated by graphviz version 7.0.5 (20221223.1930)
 -->
<!-- Title: J3DAnmTexPattern Pages: 1 -->
<svg width="363pt" height="225pt"
 viewBox="0.00 0.00 362.50 225.00" xmlns="http://www.w3.org/2000/svg" xmlns:xlink="http://www.w3.org/1999/xlink">
<g id="graph0" class="graph" transform="scale(1 1) rotate(0) translate(4 221)">
<title>J3DAnmTexPattern</title>
<!-- Node1 -->
<g id="node1" class="node">
<title>Node1</title>
<g id="a_node1"><a xlink:title=" ">
<polygon fill="#999999" stroke="#666666" points="216,-19 115,-19 115,0 216,0 216,-19"/>
<text text-anchor="middle" x="165.5" y="-7" font-family="Helvetica,sans-Serif" font-size="10.00">J3DAnmTexPattern</text>
</a>
</g>
</g>
<!-- Node2 -->
<g id="node2" class="node">
<title>Node2</title>
<g id="a_node2"><a xlink:href="classJ3DAnmBase.html" target="_top" xlink:title=" ">
<polygon fill="white" stroke="#666666" points="77,-85 0,-85 0,-66 77,-66 77,-85"/>
<text text-anchor="middle" x="38.5" y="-73" font-family="Helvetica,sans-Serif" font-size="10.00">J3DAnmBase</text>
</a>
</g>
</g>
<!-- Node2&#45;&gt;Node1 -->
<g id="edge1" class="edge">
<title>Node2&#45;&gt;Node1</title>
<path fill="none" stroke="#63b8ff" d="M66.41,-60.43C91.29,-47.9 126.92,-29.94 147.99,-19.32"/>
<polygon fill="#63b8ff" stroke="#63b8ff" points="64.87,-57.29 57.51,-64.92 68.02,-63.55 64.87,-57.29"/>
</g>
<!-- Node3 -->
<g id="node3" class="node">
<title>Node3</title>
<g id="a_node3"><a xlink:href="structJ3DAnmTexPatternFullTable.html" target="_top" xlink:title=" ">
<polygon fill="white" stroke="#666666" points="236,-85 95,-85 95,-66 236,-66 236,-85"/>
<text text-anchor="middle" x="165.5" y="-73" font-family="Helvetica,sans-Serif" font-size="10.00">J3DAnmTexPatternFullTable</text>
</a>
</g>
</g>
<!-- Node3&#45;&gt;Node1 -->
<g id="edge2" class="edge">
<title>Node3&#45;&gt;Node1</title>
<path fill="none" stroke="#9a32cd" stroke-dasharray="5,2" d="M165.5,-54.18C165.5,-42.44 165.5,-28.27 165.5,-19.32"/>
<polygon fill="#9a32cd" stroke="#9a32cd" points="162,-54.09 165.5,-64.09 169,-54.09 162,-54.09"/>
<text text-anchor="middle" x="193" y="-40" font-family="Helvetica,sans-Serif" font-size="10.00"> mAnmTable</text>
</g>
<!-- Node4 -->
<g id="node4" class="node">
<title>Node4</title>
<g id="a_node4"><a xlink:href="structJUTNameTab.html" target="_top" xlink:title=" ">
<polygon fill="white" stroke="#666666" points="332.5,-85 254.5,-85 254.5,-66 332.5,-66 332.5,-85"/>
<text text-anchor="middle" x="293.5" y="-73" font-family="Helvetica,sans-Serif" font-size="10.00">JUTNameTab</text>
</a>
</g>
</g>
<!-- Node4&#45;&gt;Node1 -->
<g id="edge3" class="edge">
<title>Node4&#45;&gt;Node1</title>
<path fill="none" stroke="#9a32cd" stroke-dasharray="5,2" d="M267.78,-59.92C254.9,-52.78 239.01,-44.19 224.5,-37 212.02,-30.82 197.79,-24.41 186.43,-19.44"/>
<polygon fill="#9a32cd" stroke="#9a32cd" points="266.03,-62.95 276.46,-64.78 269.44,-56.84 266.03,-62.95"/>
<text text-anchor="middle" x="297" y="-40" font-family="Helvetica,sans-Serif" font-size="10.00"> mUpdateMaterialName</text>
</g>
<!-- Node5 -->
<g id="node5" class="node">
<title>Node5</title>
<g id="a_node5"><a xlink:href="structResNTAB.html" target="_top" xlink:title=" ">
<polygon fill="white" stroke="#666666" points="324,-151 263,-151 263,-132 324,-132 324,-151"/>
<text text-anchor="middle" x="293.5" y="-139" font-family="Helvetica,sans-Serif" font-size="10.00">ResNTAB</text>
</a>
</g>
</g>
<!-- Node5&#45;&gt;Node4 -->
<g id="edge4" class="edge">
<title>Node5&#45;&gt;Node4</title>
<path fill="none" stroke="#9a32cd" stroke-dasharray="5,2" d="M293.5,-120.18C293.5,-108.44 293.5,-94.27 293.5,-85.32"/>
<polygon fill="#9a32cd" stroke="#9a32cd" points="290,-120.09 293.5,-130.09 297,-120.09 290,-120.09"/>
<text text-anchor="middle" x="324" y="-106" font-family="Helvetica,sans-Serif" font-size="10.00"> mNameTable</text>
</g>
<!-- Node6 -->
<g id="node6" class="node">
<title>Node6</title>
<g id="a_node6"><a xlink:href="structResNTAB_1_1Entry.html" target="_top" xlink:title=" ">
<polygon fill="white" stroke="#666666" points="337,-217 250,-217 250,-198 337,-198 337,-217"/>
<text text-anchor="middle" x="293.5" y="-205" font-family="Helvetica,sans-Serif" font-size="10.00">ResNTAB::Entry</text>
</a>
</g>
</g>
<!-- Node6&#45;&gt;Node5 -->
<g id="edge5" class="edge">
<title>Node6&#45;&gt;Node5</title>
<path fill="none" stroke="#9a32cd" stroke-dasharray="5,2" d="M293.5,-186.18C293.5,-174.44 293.5,-160.27 293.5,-151.32"/>
<polygon fill="#9a32cd" stroke="#9a32cd" points="290,-186.09 293.5,-196.09 297,-186.09 290,-186.09"/>
<text text-anchor="middle" x="314" y="-172" font-family="Helvetica,sans-Serif" font-size="10.00"> mEntries</text>
</g>
</g>
</svg>
