<?xml version="1.0" encoding="UTF-8" standalone="no"?>
<!DOCTYPE svg PUBLIC "-//W3C//DTD SVG 1.1//EN"
 "http://www.w3.org/Graphics/SVG/1.1/DTD/svg11.dtd">
<!-- Generated by graphviz version 7.0.5 (20221223.1930)
 -->
<!-- Title: J3DDeformer Pages: 1 -->
<svg width="404pt" height="292pt"
 viewBox="0.00 0.00 403.50 292.00" xmlns="http://www.w3.org/2000/svg" xmlns:xlink="http://www.w3.org/1999/xlink">
<g id="graph0" class="graph" transform="scale(1 1) rotate(0) translate(4 288)">
<title>J3DDeformer</title>
<!-- Node1 -->
<g id="node1" class="node">
<title>Node1</title>
<g id="a_node1"><a xlink:title=" ">
<polygon fill="#999999" stroke="#666666" points="195.5,-162 121.5,-162 121.5,-143 195.5,-143 195.5,-162"/>
<text text-anchor="middle" x="158.5" y="-150" font-family="Helvetica,sans-Serif" font-size="10.00">J3DDeformer</text>
</a>
</g>
</g>
<!-- Node3 -->
<g id="node3" class="node">
<title>Node3</title>
<g id="a_node3"><a xlink:href="classJ3DCluster.html" target="_top" xlink:title=" ">
<polygon fill="white" stroke="#666666" points="178,-96 113,-96 113,-77 178,-77 178,-96"/>
<text text-anchor="middle" x="145.5" y="-84" font-family="Helvetica,sans-Serif" font-size="10.00">J3DCluster</text>
</a>
</g>
</g>
<!-- Node1&#45;&gt;Node3 -->
<g id="edge4" class="edge">
<title>Node1&#45;&gt;Node3</title>
<path fill="none" stroke="#9a32cd" stroke-dasharray="5,2" d="M151.32,-131.96C150.63,-129.63 150,-127.28 149.5,-125 147.36,-115.28 146.35,-103.88 145.88,-96.23"/>
<polygon fill="#9a32cd" stroke="#9a32cd" points="147.99,-133.03 154.52,-141.37 154.62,-130.78 147.99,-133.03"/>
<text text-anchor="middle" x="175" y="-117" font-family="Helvetica,sans-Serif" font-size="10.00"> mDeformer</text>
</g>
<!-- Node2 -->
<g id="node2" class="node">
<title>Node2</title>
<g id="a_node2"><a xlink:href="structJ3DDeformData.html" target="_top" xlink:title=" ">
<polygon fill="white" stroke="#666666" points="213.5,-19 127.5,-19 127.5,0 213.5,0 213.5,-19"/>
<text text-anchor="middle" x="170.5" y="-7" font-family="Helvetica,sans-Serif" font-size="10.00">J3DDeformData</text>
</a>
</g>
</g>
<!-- Node2&#45;&gt;Node1 -->
<g id="edge1" class="edge">
<title>Node2&#45;&gt;Node1</title>
<path fill="none" stroke="#9a32cd" stroke-dasharray="5,2" d="M193.64,-26.98C196.42,-29.99 198.85,-33.34 200.5,-37 216.58,-72.65 219.39,-90.75 200.5,-125 196.25,-132.7 188.72,-138.47 181.2,-142.63"/>
<polygon fill="#9a32cd" stroke="#9a32cd" points="196.18,-24.55 186.39,-20.5 191.51,-29.77 196.18,-24.55"/>
<text text-anchor="middle" x="246" y="-84" font-family="Helvetica,sans-Serif" font-size="10.00"> mDeformData</text>
</g>
<!-- Node3&#45;&gt;Node2 -->
<g id="edge2" class="edge">
<title>Node3&#45;&gt;Node2</title>
<path fill="none" stroke="#9a32cd" stroke-dasharray="5,2" d="M131.29,-67.09C125.91,-57.77 122.22,-46.46 127.5,-37 131.78,-29.34 139.27,-23.63 146.82,-19.5"/>
<polygon fill="#9a32cd" stroke="#9a32cd" points="128.35,-68.98 136.85,-75.3 134.14,-65.06 128.35,-68.98"/>
<text text-anchor="middle" x="164" y="-45.5" font-family="Helvetica,sans-Serif" font-size="10.00"> mClusterPointer</text>
</g>
<!-- Node4 -->
<g id="node4" class="node">
<title>Node4</title>
<g id="a_node4"><a xlink:href="structJ3DClusterKey.html" target="_top" xlink:title=" ">
<polygon fill="white" stroke="#666666" points="81,-162 0,-162 0,-143 81,-143 81,-162"/>
<text text-anchor="middle" x="40.5" y="-150" font-family="Helvetica,sans-Serif" font-size="10.00">J3DClusterKey</text>
</a>
</g>
</g>
<!-- Node4&#45;&gt;Node2 -->
<g id="edge5" class="edge">
<title>Node4&#45;&gt;Node2</title>
<path fill="none" stroke="#9a32cd" stroke-dasharray="5,2" d="M25.87,-133.84C14.65,-118 2.87,-94.6 14.5,-77 39.33,-39.42 90.21,-23.01 127.12,-15.88"/>
<polygon fill="#9a32cd" stroke="#9a32cd" points="22.81,-135.58 31.66,-141.4 28.37,-131.33 22.81,-135.58"/>
<text text-anchor="middle" x="59" y="-84" font-family="Helvetica,sans-Serif" font-size="10.00"> mClusterKeyPointer</text>
</g>
<!-- Node4&#45;&gt;Node3 -->
<g id="edge3" class="edge">
<title>Node4&#45;&gt;Node3</title>
<path fill="none" stroke="#9a32cd" stroke-dasharray="5,2" d="M58.18,-135.26C66.41,-128.19 76.56,-120.13 86.5,-114 97.58,-107.16 110.74,-101.08 121.81,-96.47"/>
<polygon fill="#9a32cd" stroke="#9a32cd" points="56.11,-132.41 50.95,-141.67 60.75,-137.65 56.11,-132.41"/>
<text text-anchor="middle" x="115.5" y="-117" font-family="Helvetica,sans-Serif" font-size="10.00"> mClusterKey</text>
</g>
<!-- Node5 -->
<g id="node5" class="node">
<title>Node5</title>
<g id="a_node5"><a xlink:href="structJUTNameTab.html" target="_top" xlink:title=" ">
<polygon fill="white" stroke="#666666" points="373.5,-96 295.5,-96 295.5,-77 373.5,-77 373.5,-96"/>
<text text-anchor="middle" x="334.5" y="-84" font-family="Helvetica,sans-Serif" font-size="10.00">JUTNameTab</text>
</a>
</g>
</g>
<!-- Node5&#45;&gt;Node2 -->
<g id="edge6" class="edge">
<title>Node5&#45;&gt;Node2</title>
<path fill="none" stroke="#9a32cd" stroke-dasharray="5,2" d="M304.65,-71.84C283.41,-62.12 254.2,-48.75 228.5,-37 215.71,-31.15 201.34,-24.59 190.1,-19.45"/>
<polygon fill="#9a32cd" stroke="#9a32cd" points="303.04,-74.95 313.59,-75.93 305.95,-68.58 303.04,-74.95"/>
<text text-anchor="middle" x="317" y="-51" font-family="Helvetica,sans-Serif" font-size="10.00"> mClusterKeyName</text>
<text text-anchor="middle" x="317" y="-40" font-family="Helvetica,sans-Serif" font-size="10.00">mClusterName</text>
</g>
<!-- Node6 -->
<g id="node6" class="node">
<title>Node6</title>
<g id="a_node6"><a xlink:href="structResNTAB.html" target="_top" xlink:title=" ">
<polygon fill="white" stroke="#666666" points="365,-162 304,-162 304,-143 365,-143 365,-162"/>
<text text-anchor="middle" x="334.5" y="-150" font-family="Helvetica,sans-Serif" font-size="10.00">ResNTAB</text>
</a>
</g>
</g>
<!-- Node6&#45;&gt;Node5 -->
<g id="edge7" class="edge">
<title>Node6&#45;&gt;Node5</title>
<path fill="none" stroke="#9a32cd" stroke-dasharray="5,2" d="M334.5,-131.18C334.5,-119.44 334.5,-105.27 334.5,-96.32"/>
<polygon fill="#9a32cd" stroke="#9a32cd" points="331,-131.09 334.5,-141.09 338,-131.09 331,-131.09"/>
<text text-anchor="middle" x="365" y="-117" font-family="Helvetica,sans-Serif" font-size="10.00"> mNameTable</text>
</g>
<!-- Node7 -->
<g id="node7" class="node">
<title>Node7</title>
<g id="a_node7"><a xlink:href="structResNTAB_1_1Entry.html" target="_top" xlink:title=" ">
<polygon fill="white" stroke="#666666" points="378,-228 291,-228 291,-209 378,-209 378,-228"/>
<text text-anchor="middle" x="334.5" y="-216" font-family="Helvetica,sans-Serif" font-size="10.00">ResNTAB::Entry</text>
</a>
</g>
</g>
<!-- Node7&#45;&gt;Node6 -->
<g id="edge8" class="edge">
<title>Node7&#45;&gt;Node6</title>
<path fill="none" stroke="#9a32cd" stroke-dasharray="5,2" d="M334.5,-197.18C334.5,-185.44 334.5,-171.27 334.5,-162.32"/>
<polygon fill="#9a32cd" stroke="#9a32cd" points="331,-197.09 334.5,-207.09 338,-197.09 331,-197.09"/>
<text text-anchor="middle" x="355" y="-183" font-family="Helvetica,sans-Serif" font-size="10.00"> mEntries</text>
</g>
<!-- Node8 -->
<g id="node8" class="node">
<title>Node8</title>
<g id="a_node8"><a xlink:href="classJ3DAnmCluster.html" target="_top" xlink:title=" ">
<polygon fill="white" stroke="#666666" points="201,-228 116,-228 116,-209 201,-209 201,-228"/>
<text text-anchor="middle" x="158.5" y="-216" font-family="Helvetica,sans-Serif" font-size="10.00">J3DAnmCluster</text>
</a>
</g>
</g>
<!-- Node8&#45;&gt;Node1 -->
<g id="edge9" class="edge">
<title>Node8&#45;&gt;Node1</title>
<path fill="none" stroke="#9a32cd" stroke-dasharray="5,2" d="M158.5,-197.18C158.5,-185.44 158.5,-171.27 158.5,-162.32"/>
<polygon fill="#9a32cd" stroke="#9a32cd" points="155,-197.09 158.5,-207.09 162,-197.09 155,-197.09"/>
<text text-anchor="middle" x="189.5" y="-183" font-family="Helvetica,sans-Serif" font-size="10.00"> mAnmCluster</text>
</g>
<!-- Node9 -->
<g id="node9" class="node">
<title>Node9</title>
<g id="a_node9"><a xlink:href="classJ3DAnmBase.html" target="_top" xlink:title=" ">
<polygon fill="white" stroke="#666666" points="197,-284 120,-284 120,-265 197,-265 197,-284"/>
<text text-anchor="middle" x="158.5" y="-272" font-family="Helvetica,sans-Serif" font-size="10.00">J3DAnmBase</text>
</a>
</g>
</g>
<!-- Node9&#45;&gt;Node8 -->
<g id="edge10" class="edge">
<title>Node9&#45;&gt;Node8</title>
<path fill="none" stroke="#63b8ff" d="M158.5,-253.11C158.5,-244.52 158.5,-234.97 158.5,-228.25"/>
<polygon fill="#63b8ff" stroke="#63b8ff" points="155,-253.07 158.5,-263.07 162,-253.07 155,-253.07"/>
</g>
</g>
</svg>
