<?xml version="1.0" encoding="UTF-8" standalone="no"?>
<!DOCTYPE svg PUBLIC "-//W3C//DTD SVG 1.1//EN"
 "http://www.w3.org/Graphics/SVG/1.1/DTD/svg11.dtd">
<!-- Generated by graphviz version 7.0.5 (20221223.1930)
 -->
<!-- Title: OSModuleHeader Pages: 1 -->
<svg width="202pt" height="104pt"
 viewBox="0.00 0.00 201.50 104.00" xmlns="http://www.w3.org/2000/svg" xmlns:xlink="http://www.w3.org/1999/xlink">
<g id="graph0" class="graph" transform="scale(1 1) rotate(0) translate(4 100)">
<title>OSModuleHeader</title>
<!-- Node1 -->
<g id="node1" class="node">
<title>Node1</title>
<g id="a_node1"><a xlink:title=" ">
<polygon fill="#999999" stroke="#666666" points="94,-19 0,-19 0,0 94,0 94,-19"/>
<text text-anchor="middle" x="47" y="-7" font-family="Helvetica,sans-Serif" font-size="10.00">OSModuleHeader</text>
</a>
</g>
</g>
<!-- Node2 -->
<g id="node2" class="node">
<title>Node2</title>
<g id="a_node2"><a xlink:href="structOSModuleInfo.html" target="_top" xlink:title=" ">
<polygon fill="white" stroke="#666666" points="148.5,-96 69.5,-96 69.5,-77 148.5,-77 148.5,-96"/>
<text text-anchor="middle" x="109" y="-84" font-family="Helvetica,sans-Serif" font-size="10.00">OSModuleInfo</text>
</a>
</g>
</g>
<!-- Node2&#45;&gt;Node1 -->
<g id="edge1" class="edge">
<title>Node2&#45;&gt;Node1</title>
<path fill="none" stroke="#9a32cd" stroke-dasharray="5,2" d="M89.04,-69.2C85.53,-65.98 82.04,-62.5 79,-59 67.89,-46.21 57.58,-29.32 51.8,-19.22"/>
<polygon fill="#9a32cd" stroke="#9a32cd" points="86.53,-71.66 96.37,-75.59 91.13,-66.38 86.53,-71.66"/>
<text text-anchor="middle" x="88.5" y="-45.5" font-family="Helvetica,sans-Serif" font-size="10.00"> info</text>
</g>
<!-- Node3 -->
<g id="node3" class="node">
<title>Node3</title>
<g id="a_node3"><a xlink:href="structOSModuleLink.html" target="_top" xlink:title=" ">
<polygon fill="white" stroke="#666666" points="193.5,-19 112.5,-19 112.5,0 193.5,0 193.5,-19"/>
<text text-anchor="middle" x="153" y="-7" font-family="Helvetica,sans-Serif" font-size="10.00">OSModuleLink</text>
</a>
</g>
</g>
<!-- Node2&#45;&gt;Node3 -->
<g id="edge3" class="edge">
<title>Node2&#45;&gt;Node3</title>
<path fill="none" stroke="#9a32cd" stroke-dasharray="5,2" d="M102.9,-65.62C101.22,-56.35 101.03,-45.51 106,-37 110.63,-29.07 118.6,-23.33 126.68,-19.26"/>
<polygon fill="#9a32cd" stroke="#9a32cd" points="99.45,-66.27 105.28,-75.12 106.24,-64.57 99.45,-66.27"/>
<text text-anchor="middle" x="116.5" y="-51" font-family="Helvetica,sans-Serif" font-size="10.00"> next</text>
<text text-anchor="middle" x="116.5" y="-40" font-family="Helvetica,sans-Serif" font-size="10.00">prev</text>
</g>
<!-- Node3&#45;&gt;Node2 -->
<g id="edge2" class="edge">
<title>Node3&#45;&gt;Node2</title>
<path fill="none" stroke="#9a32cd" stroke-dasharray="5,2" d="M145.51,-30.13C141.69,-39.21 136.66,-49.95 131,-59 127.07,-65.28 121.78,-71.7 117.38,-76.64"/>
<polygon fill="#9a32cd" stroke="#9a32cd" points="148.75,-31.44 149.21,-20.85 142.25,-28.84 148.75,-31.44"/>
<text text-anchor="middle" x="151" y="-45.5" font-family="Helvetica,sans-Serif" font-size="10.00"> link</text>
</g>
</g>
</svg>
