<?xml version="1.0" encoding="UTF-8" standalone="no"?>
<!DOCTYPE svg PUBLIC "-//W3C//DTD SVG 1.1//EN"
 "http://www.w3.org/Graphics/SVG/1.1/DTD/svg11.dtd">
<!-- Generated by graphviz version 7.0.5 (20221223.1930)
 -->
<!-- Title: libs/PowerPC_EABI_Support/MSL/MSL_C/PPC_EABI/Include/uart_console_io_gcn.h Pages: 1 -->
<svg width="170pt" height="159pt"
 viewBox="0.00 0.00 170.00 159.00" xmlns="http://www.w3.org/2000/svg" xmlns:xlink="http://www.w3.org/1999/xlink">
<g id="graph0" class="graph" transform="scale(1 1) rotate(0) translate(4 155)">
<title>libs/PowerPC_EABI_Support/MSL/MSL_C/PPC_EABI/Include/uart_console_io_gcn.h</title>
<!-- Node1 -->
<g id="node1" class="node">
<title>Node1</title>
<g id="a_node1"><a xlink:title=" ">
<polygon fill="#999999" stroke="#666666" points="162,-151 0,-151 0,-110 162,-110 162,-151"/>
<text text-anchor="start" x="8" y="-139" font-family="Helvetica,sans-Serif" font-size="10.00">libs/PowerPC_EABI_Support</text>
<text text-anchor="start" x="8" y="-128" font-family="Helvetica,sans-Serif" font-size="10.00">/MSL/MSL_C/PPC_EABI/Include</text>
<text text-anchor="middle" x="81" y="-117" font-family="Helvetica,sans-Serif" font-size="10.00">/uart_console_io_gcn.h</text>
</a>
</g>
</g>
<!-- Node2 -->
<g id="node2" class="node">
<title>Node2</title>
<g id="a_node2"><a xlink:href="ansi__files_8h.html" target="_top" xlink:title=" ">
<polygon fill="white" stroke="#666666" points="113.5,-74 48.5,-74 48.5,-55 113.5,-55 113.5,-74"/>
<text text-anchor="middle" x="81" y="-62" font-family="Helvetica,sans-Serif" font-size="10.00">ansi_files.h</text>
</a>
</g>
</g>
<!-- Node1&#45;&gt;Node2 -->
<g id="edge1" class="edge">
<title>Node1&#45;&gt;Node2</title>
<path fill="none" stroke="#63b8ff" d="M81,-109.6C81,-101.98 81,-93.3 81,-85.66"/>
<polygon fill="#63b8ff" stroke="#63b8ff" points="84.5,-85.68 81,-75.68 77.5,-85.68 84.5,-85.68"/>
</g>
<!-- Node3 -->
<g id="node3" class="node">
<title>Node3</title>
<g id="a_node3"><a xlink:href="stddef_8h.html" target="_top" xlink:title=" ">
<polygon fill="white" stroke="#666666" points="106.5,-19 55.5,-19 55.5,0 106.5,0 106.5,-19"/>
<text text-anchor="middle" x="81" y="-7" font-family="Helvetica,sans-Serif" font-size="10.00">stddef.h</text>
</a>
</g>
</g>
<!-- Node2&#45;&gt;Node3 -->
<g id="edge2" class="edge">
<title>Node2&#45;&gt;Node3</title>
<path fill="none" stroke="#63b8ff" d="M81,-54.75C81,-48.27 81,-39.16 81,-30.9"/>
<polygon fill="#63b8ff" stroke="#63b8ff" points="84.5,-30.96 81,-20.96 77.5,-30.96 84.5,-30.96"/>
</g>
</g>
</svg>
