<?xml version="1.0" encoding="UTF-8" standalone="no"?>
<!DOCTYPE svg PUBLIC "-//W3C//DTD SVG 1.1//EN"
 "http://www.w3.org/Graphics/SVG/1.1/DTD/svg11.dtd">
<!-- Generated by graphviz version 7.0.5 (20221223.1930)
 -->
<!-- Title: include/dolphin/vi.h Pages: 1 -->
<!--zoomable 291 -->
<svg id="main" version="1.1" xmlns="http://www.w3.org/2000/svg" xmlns:xlink="http://www.w3.org/1999/xlink" xml:space="preserve" onload="init(evt)">
<style type="text/css"><![CDATA[
.edge:hover path { stroke: red; }
.edge:hover polygon { stroke: red; fill: red; }
]]></style>
<script type="text/javascript"><![CDATA[
var edges = document.getElementsByTagName('g');
if (edges && edges.length) {
  for (var i=0;i<edges.length;i++) {
    if (edges[i].id.substr(0,4)=='edge') {
      edges[i].setAttribute('class','edge');
    }
  }
}
]]></script>
        <defs>
                <circle id="rim" cx="0" cy="0" r="7"/>
                <circle id="rim2" cx="0" cy="0" r="3.5"/>
                <g id="zoomPlus">
                        <use xlink:href="#rim" fill="#404040">
                                <set attributeName="fill" to="#808080" begin="zoomplus.mouseover" end="zoomplus.mouseout"/>
                        </use>
                        <path d="M-4,0h8M0,-4v8" fill="none" stroke="white" stroke-width="1.5" pointer-events="none"/>
                </g>
                <g id="zoomMin">
                        <use xlink:href="#rim" fill="#404040">
                                <set attributeName="fill" to="#808080" begin="zoomminus.mouseover" end="zoomminus.mouseout"/>
                        </use>
                        <path d="M-4,0h8" fill="none" stroke="white" stroke-width="1.5" pointer-events="none"/>
                </g>
                <g id="dirArrow">
                        <path fill="none" stroke="white" stroke-width="1.5" d="M0,-3.0v7 M-2.5,-0.5L0,-3.0L2.5,-0.5"/>
                </g>
               <g id="resetDef">
                       <use xlink:href="#rim2" fill="#404040">
                               <set attributeName="fill" to="#808080" begin="reset.mouseover" end="reset.mouseout"/>
                       </use>
               </g>
        </defs>

<script type="text/javascript">
var viewWidth = 5256;
var viewHeight = 291;
var sectionId = 'dynsection-1';
</script>
<script xlink:href="svgpan.js"/>
<svg id="graph" class="graph">
<g id="viewport">
<title>include/dolphin/vi.h</title>
<!-- Node1 -->
<g id="node1" class="node">
<title>Node1</title>
<g id="a_node1"><a xlink:title=" ">
<polygon fill="#999999" stroke="#666666" points="4276.5,-283 4177.5,-283 4177.5,-264 4276.5,-264 4276.5,-283"/>
<text text-anchor="middle" x="4227" y="-271" font-family="Helvetica,sans-Serif" font-size="10.00">include/dolphin/vi.h</text>
</a>
</g>
</g>
<!-- Node2 -->
<g id="node2" class="node">
<title>Node2</title>
<g id="a_node2"><a xlink:href="JUTVideo_8h.html" target="_top" xlink:title=" ">
<polygon fill="white" stroke="#666666" points="402,-162 280,-162 280,-132 402,-132 402,-162"/>
<text text-anchor="start" x="288" y="-150" font-family="Helvetica,sans-Serif" font-size="10.00">include/JSystem/JUtility</text>
<text text-anchor="middle" x="341" y="-139" font-family="Helvetica,sans-Serif" font-size="10.00">/JUTVideo.h</text>
</a>
</g>
</g>
<!-- Node1&#45;&gt;Node2 -->
<g id="edge1" class="edge">
<title>Node1&#45;&gt;Node2</title>
<path fill="none" stroke="#63b8ff" d="M4165.82,-271.86C3899.5,-268.98 2814.59,-256.02 1924,-228 1251.25,-206.83 1079.2,-242.91 411,-162 408.17,-161.66 405.28,-161.26 402.37,-160.83"/>
<polygon fill="#63b8ff" stroke="#63b8ff" points="4165.6,-275.36 4175.64,-271.97 4165.68,-268.36 4165.6,-275.36"/>
</g>
<!-- Node50 -->
<g id="node13" class="node">
<title>Node50</title>
<g id="a_node13"><a xlink:href="GXStruct_8h.html" target="_top" xlink:title=" ">
<polygon fill="white" stroke="#666666" points="2027,-228 1933,-228 1933,-198 2027,-198 2027,-228"/>
<text text-anchor="start" x="1941" y="-216" font-family="Helvetica,sans-Serif" font-size="10.00">include/dolphin/gx</text>
<text text-anchor="middle" x="1980" y="-205" font-family="Helvetica,sans-Serif" font-size="10.00">/GXStruct.h</text>
</a>
</g>
</g>
<!-- Node1&#45;&gt;Node50 -->
<g id="edge13" class="edge">
<title>Node1&#45;&gt;Node50</title>
<path fill="none" stroke="#63b8ff" d="M4166.14,-270.92C3841.37,-262.46 2316.38,-222.76 2027.35,-215.23"/>
<polygon fill="#63b8ff" stroke="#63b8ff" points="4165.58,-274.4 4175.67,-271.16 4165.77,-267.4 4165.58,-274.4"/>
</g>
<!-- Node671 -->
<g id="node33" class="node">
<title>Node671</title>
<g id="a_node33"><a xlink:href="GXFrameBuf_8c.html" target="_top" xlink:title=" ">
<polygon fill="white" stroke="#666666" points="3764,-90.5 3618,-90.5 3618,-71.5 3764,-71.5 3764,-90.5"/>
<text text-anchor="middle" x="3691" y="-78.5" font-family="Helvetica,sans-Serif" font-size="10.00">libs/dolphin/gx/GXFrameBuf.c</text>
</a>
</g>
</g>
<!-- Node1&#45;&gt;Node671 -->
<g id="edge48" class="edge">
<title>Node1&#45;&gt;Node671</title>
<path fill="none" stroke="#63b8ff" d="M4166.08,-269.99C4048.43,-264.66 3798.73,-250.8 3767,-228 3729.03,-200.72 3746.51,-172.98 3724,-132 3715.79,-117.05 3704.55,-100.73 3697.54,-90.94"/>
<polygon fill="#63b8ff" stroke="#63b8ff" points="4165.72,-273.48 4175.87,-270.43 4166.03,-266.49 4165.72,-273.48"/>
</g>
<!-- Node35 -->
<g id="node39" class="node">
<title>Node35</title>
<g id="a_node39"><a xlink:href="d__s__logo_8cpp.html" target="_top" xlink:title=" ">
<polygon fill="white" stroke="#666666" points="3152.5,-90.5 3045.5,-90.5 3045.5,-71.5 3152.5,-71.5 3152.5,-90.5"/>
<text text-anchor="middle" x="3099" y="-78.5" font-family="Helvetica,sans-Serif" font-size="10.00">src/d/s/d_s_logo.cpp</text>
</a>
</g>
</g>
<!-- Node1&#45;&gt;Node35 -->
<g id="edge54" class="edge">
<title>Node1&#45;&gt;Node35</title>
<path fill="none" stroke="#63b8ff" d="M4165.74,-270.19C4042.75,-265.07 3774.53,-251.37 3740,-228 3700.33,-201.15 3730.76,-158.71 3691,-132 3646.91,-102.38 3290.44,-88.05 3152.88,-83.59"/>
<polygon fill="#63b8ff" stroke="#63b8ff" points="4165.53,-273.68 4175.67,-270.59 4165.82,-266.69 4165.53,-273.68"/>
</g>
<!-- Node689 -->
<g id="node40" class="node">
<title>Node689</title>
<g id="a_node40"><a xlink:href="JKRDvdAramRipper_8cpp.html" target="_top" xlink:title=" ">
<polygon fill="white" stroke="#666666" points="3901.5,-228 3776.5,-228 3776.5,-198 3901.5,-198 3901.5,-228"/>
<text text-anchor="start" x="3784.5" y="-216" font-family="Helvetica,sans-Serif" font-size="10.00">libs/JSystem/JKernel</text>
<text text-anchor="middle" x="3839" y="-205" font-family="Helvetica,sans-Serif" font-size="10.00">/JKRDvdAramRipper.cpp</text>
</a>
</g>
</g>
<!-- Node1&#45;&gt;Node689 -->
<g id="edge42" class="edge">
<title>Node1&#45;&gt;Node689</title>
<path fill="none" stroke="#63b8ff" d="M4166.1,-264.97C4102.17,-256.82 3998.79,-242.97 3910,-228 3907.27,-227.54 3904.49,-227.06 3901.69,-226.56"/>
<polygon fill="#63b8ff" stroke="#63b8ff" points="4165.32,-268.39 4175.68,-266.18 4166.2,-261.45 4165.32,-268.39"/>
</g>
<!-- Node690 -->
<g id="node41" class="node">
<title>Node690</title>
<g id="a_node41"><a xlink:href="JKRDvdRipper_8cpp.html" target="_top" xlink:title=" ">
<polygon fill="white" stroke="#666666" points="4028.5,-228 3919.5,-228 3919.5,-198 4028.5,-198 4028.5,-228"/>
<text text-anchor="start" x="3927.5" y="-216" font-family="Helvetica,sans-Serif" font-size="10.00">libs/JSystem/JKernel</text>
<text text-anchor="middle" x="3974" y="-205" font-family="Helvetica,sans-Serif" font-size="10.00">/JKRDvdRipper.cpp</text>
</a>
</g>
</g>
<!-- Node1&#45;&gt;Node690 -->
<g id="edge43" class="edge">
<title>Node1&#45;&gt;Node690</title>
<path fill="none" stroke="#63b8ff" d="M4177.3,-261.01C4134.5,-251.11 4072.83,-236.85 4028.65,-226.64"/>
<polygon fill="#63b8ff" stroke="#63b8ff" points="4176.29,-264.37 4186.82,-263.21 4177.87,-257.55 4176.29,-264.37"/>
</g>
<!-- Node691 -->
<g id="node42" class="node">
<title>Node691</title>
<g id="a_node42"><a xlink:href="JKRFile_8cpp.html" target="_top" xlink:title=" ">
<polygon fill="white" stroke="#666666" points="4155.5,-228 4046.5,-228 4046.5,-198 4155.5,-198 4155.5,-228"/>
<text text-anchor="start" x="4054.5" y="-216" font-family="Helvetica,sans-Serif" font-size="10.00">libs/JSystem/JKernel</text>
<text text-anchor="middle" x="4101" y="-205" font-family="Helvetica,sans-Serif" font-size="10.00">/JKRFile.cpp</text>
</a>
</g>
</g>
<!-- Node1&#45;&gt;Node691 -->
<g id="edge44" class="edge">
<title>Node1&#45;&gt;Node691</title>
<path fill="none" stroke="#63b8ff" d="M4197.65,-258.87C4177.98,-249.74 4152.12,-237.74 4132.1,-228.44"/>
<polygon fill="#63b8ff" stroke="#63b8ff" points="4195.95,-261.94 4206.49,-262.98 4198.89,-255.59 4195.95,-261.94"/>
</g>
<!-- Node582 -->
<g id="node43" class="node">
<title>Node582</title>
<g id="a_node43"><a xlink:href="JUTAssert_8cpp.html" target="_top" xlink:title=" ">
<polygon fill="white" stroke="#666666" points="4280,-228 4174,-228 4174,-198 4280,-198 4280,-228"/>
<text text-anchor="start" x="4182" y="-216" font-family="Helvetica,sans-Serif" font-size="10.00">libs/JSystem/JUtility</text>
<text text-anchor="middle" x="4227" y="-205" font-family="Helvetica,sans-Serif" font-size="10.00">/JUTAssert.cpp</text>
</a>
</g>
</g>
<!-- Node1&#45;&gt;Node582 -->
<g id="edge45" class="edge">
<title>Node1&#45;&gt;Node582</title>
<path fill="none" stroke="#63b8ff" d="M4227,-252.51C4227,-244.49 4227,-235.43 4227,-228.11"/>
<polygon fill="#63b8ff" stroke="#63b8ff" points="4223.5,-252.35 4227,-262.35 4230.5,-252.35 4223.5,-252.35"/>
</g>
<!-- Node584 -->
<g id="node44" class="node">
<title>Node584</title>
<g id="a_node44"><a xlink:href="JUTException_8cpp.html" target="_top" xlink:title=" ">
<polygon fill="white" stroke="#666666" points="4404,-228 4298,-228 4298,-198 4404,-198 4404,-228"/>
<text text-anchor="start" x="4306" y="-216" font-family="Helvetica,sans-Serif" font-size="10.00">libs/JSystem/JUtility</text>
<text text-anchor="middle" x="4351" y="-205" font-family="Helvetica,sans-Serif" font-size="10.00">/JUTException.cpp</text>
</a>
</g>
</g>
<!-- Node1&#45;&gt;Node584 -->
<g id="edge46" class="edge">
<title>Node1&#45;&gt;Node584</title>
<path fill="none" stroke="#63b8ff" d="M4256.15,-258.75C4275.47,-249.63 4300.78,-237.69 4320.39,-228.44"/>
<polygon fill="#63b8ff" stroke="#63b8ff" points="4254.75,-255.54 4247.2,-262.97 4257.74,-261.87 4254.75,-255.54"/>
</g>
<!-- Node692 -->
<g id="node45" class="node">
<title>Node692</title>
<g id="a_node45"><a xlink:href="CARDFormat_8c.html" target="_top" xlink:title=" ">
<polygon fill="white" stroke="#666666" points="4577.5,-222.5 4422.5,-222.5 4422.5,-203.5 4577.5,-203.5 4577.5,-222.5"/>
<text text-anchor="middle" x="4500" y="-210.5" font-family="Helvetica,sans-Serif" font-size="10.00">libs/dolphin/card/CARDFormat.c</text>
</a>
</g>
</g>
<!-- Node1&#45;&gt;Node692 -->
<g id="edge47" class="edge">
<title>Node1&#45;&gt;Node692</title>
<path fill="none" stroke="#63b8ff" d="M4279.77,-261.19C4331.83,-250.04 4410.38,-233.2 4458.24,-222.95"/>
<polygon fill="#63b8ff" stroke="#63b8ff" points="4279.28,-257.72 4270.24,-263.23 4280.75,-264.56 4279.28,-257.72"/>
</g>
<!-- Node673 -->
<g id="node46" class="node">
<title>Node673</title>
<g id="a_node46"><a xlink:href="GXInit_8c.html" target="_top" xlink:title=" ">
<polygon fill="white" stroke="#666666" points="4712,-222.5 4596,-222.5 4596,-203.5 4712,-203.5 4712,-222.5"/>
<text text-anchor="middle" x="4654" y="-210.5" font-family="Helvetica,sans-Serif" font-size="10.00">libs/dolphin/gx/GXInit.c</text>
</a>
</g>
</g>
<!-- Node1&#45;&gt;Node673 -->
<g id="edge49" class="edge">
<title>Node1&#45;&gt;Node673</title>
<path fill="none" stroke="#63b8ff" d="M4288.05,-266.51C4359.84,-259.12 4482.47,-245.35 4587,-228 4595.67,-226.56 4604.93,-224.78 4613.71,-222.98"/>
<polygon fill="#63b8ff" stroke="#63b8ff" points="4288.08,-262.99 4278.48,-267.49 4288.79,-269.96 4288.08,-262.99"/>
</g>
<!-- Node693 -->
<g id="node47" class="node">
<title>Node693</title>
<g id="a_node47"><a xlink:href="OSFont_8c.html" target="_top" xlink:title=" ">
<polygon fill="white" stroke="#666666" points="4853.5,-222.5 4730.5,-222.5 4730.5,-203.5 4853.5,-203.5 4853.5,-222.5"/>
<text text-anchor="middle" x="4792" y="-210.5" font-family="Helvetica,sans-Serif" font-size="10.00">libs/dolphin/os/OSFont.c</text>
</a>
</g>
</g>
<!-- Node1&#45;&gt;Node693 -->
<g id="edge50" class="edge">
<title>Node1&#45;&gt;Node693</title>
<path fill="none" stroke="#63b8ff" d="M4288.21,-269.06C4381.8,-263.33 4565.94,-250.21 4721,-228 4730.58,-226.63 4740.82,-224.82 4750.45,-222.95"/>
<polygon fill="#63b8ff" stroke="#63b8ff" points="4288.27,-265.55 4278.5,-269.64 4288.69,-272.53 4288.27,-265.55"/>
</g>
<!-- Node694 -->
<g id="node48" class="node">
<title>Node694</title>
<g id="a_node48"><a xlink:href="SIBios_8c.html" target="_top" xlink:title=" ">
<polygon fill="white" stroke="#666666" points="4988,-222.5 4872,-222.5 4872,-203.5 4988,-203.5 4988,-222.5"/>
<text text-anchor="middle" x="4930" y="-210.5" font-family="Helvetica,sans-Serif" font-size="10.00">libs/dolphin/si/SIBios.c</text>
</a>
</g>
</g>
<!-- Node1&#45;&gt;Node694 -->
<g id="edge51" class="edge">
<title>Node1&#45;&gt;Node694</title>
<path fill="none" stroke="#63b8ff" d="M4287.92,-270.99C4401.51,-267.58 4653.13,-257.13 4863,-228 4872.3,-226.71 4882.24,-224.88 4891.54,-222.97"/>
<polygon fill="#63b8ff" stroke="#63b8ff" points="4288.12,-267.49 4278.23,-271.28 4288.33,-274.48 4288.12,-267.49"/>
</g>
<!-- Node695 -->
<g id="node49" class="node">
<title>Node695</title>
<g id="a_node49"><a xlink:href="SISamplingRate_8c.html" target="_top" xlink:title=" ">
<polygon fill="white" stroke="#666666" points="5135.5,-228 5006.5,-228 5006.5,-198 5135.5,-198 5135.5,-228"/>
<text text-anchor="start" x="5014.5" y="-216" font-family="Helvetica,sans-Serif" font-size="10.00">libs/dolphin/si/SISampling</text>
<text text-anchor="middle" x="5071" y="-205" font-family="Helvetica,sans-Serif" font-size="10.00">Rate.c</text>
</a>
</g>
</g>
<!-- Node1&#45;&gt;Node695 -->
<g id="edge52" class="edge">
<title>Node1&#45;&gt;Node695</title>
<path fill="none" stroke="#63b8ff" d="M4288.05,-271.65C4418.62,-269.24 4734.47,-260.28 4997,-228 4999.98,-227.63 5003.03,-227.22 5006.1,-226.77"/>
<polygon fill="#63b8ff" stroke="#63b8ff" points="4288.2,-268.15 4278.26,-271.82 4288.32,-275.14 4288.2,-268.15"/>
</g>
<!-- Node681 -->
<g id="node50" class="node">
<title>Node681</title>
<g id="a_node50"><a xlink:href="vi_8c.html" target="_top" xlink:title=" ">
<polygon fill="white" stroke="#666666" points="5248,-222.5 5154,-222.5 5154,-203.5 5248,-203.5 5248,-222.5"/>
<text text-anchor="middle" x="5201" y="-210.5" font-family="Helvetica,sans-Serif" font-size="10.00">libs/dolphin/vi/vi.c</text>
</a>
</g>
</g>
<!-- Node1&#45;&gt;Node681 -->
<g id="edge53" class="edge">
<title>Node1&#45;&gt;Node681</title>
<path fill="none" stroke="#63b8ff" d="M4288.2,-271.1C4465.76,-266.8 4978.95,-252.54 5145,-228 5153.13,-226.8 5161.8,-224.93 5169.82,-222.95"/>
<polygon fill="#63b8ff" stroke="#63b8ff" points="4288.18,-267.6 4278.26,-271.34 4288.35,-274.6 4288.18,-267.6"/>
</g>
<!-- Node3 -->
<g id="node3" class="node">
<title>Node3</title>
<g id="a_node3"><a xlink:href="JUTXfb_8h.html" target="_top" xlink:title=" ">
<polygon fill="white" stroke="#666666" points="532,-96 410,-96 410,-66 532,-66 532,-96"/>
<text text-anchor="start" x="418" y="-84" font-family="Helvetica,sans-Serif" font-size="10.00">include/JSystem/JUtility</text>
<text text-anchor="middle" x="471" y="-73" font-family="Helvetica,sans-Serif" font-size="10.00">/JUTXfb.h</text>
</a>
</g>
</g>
<!-- Node2&#45;&gt;Node3 -->
<g id="edge2" class="edge">
<title>Node2&#45;&gt;Node3</title>
<path fill="none" stroke="#63b8ff" d="M380.43,-126.59C400.23,-116.84 423.79,-105.24 441.92,-96.31"/>
<polygon fill="#63b8ff" stroke="#63b8ff" points="378.96,-123.41 371.53,-130.97 382.05,-129.69 378.96,-123.41"/>
</g>
<!-- Node42 -->
<g id="node5" class="node">
<title>Node42</title>
<g id="a_node5"><a xlink:href="JUTVideo_8cpp.html" target="_top" xlink:title=" ">
<polygon fill="white" stroke="#666666" points="380,-30 274,-30 274,0 380,0 380,-30"/>
<text text-anchor="start" x="282" y="-18" font-family="Helvetica,sans-Serif" font-size="10.00">libs/JSystem/JUtility</text>
<text text-anchor="middle" x="327" y="-7" font-family="Helvetica,sans-Serif" font-size="10.00">/JUTVideo.cpp</text>
</a>
</g>
</g>
<!-- Node2&#45;&gt;Node42 -->
<g id="edge11" class="edge">
<title>Node2&#45;&gt;Node42</title>
<path fill="none" stroke="#63b8ff" d="M355.12,-121.64C362.54,-105.7 368.96,-84.49 363,-66 358.67,-52.56 349.23,-39.69 341.11,-30.37"/>
<polygon fill="#63b8ff" stroke="#63b8ff" points="352.09,-119.88 350.66,-130.38 358.32,-123.07 352.09,-119.88"/>
</g>
<!-- Node45 -->
<g id="node8" class="node">
<title>Node45</title>
<g id="a_node8"><a xlink:href="JFWSystem_8cpp.html" target="_top" xlink:title=" ">
<polygon fill="white" stroke="#666666" points="680,-96 550,-96 550,-66 680,-66 680,-96"/>
<text text-anchor="start" x="558" y="-84" font-family="Helvetica,sans-Serif" font-size="10.00">libs/JSystem/JFramework</text>
<text text-anchor="middle" x="615" y="-73" font-family="Helvetica,sans-Serif" font-size="10.00">/JFWSystem.cpp</text>
</a>
</g>
</g>
<!-- Node2&#45;&gt;Node45 -->
<g id="edge7" class="edge">
<title>Node2&#45;&gt;Node45</title>
<path fill="none" stroke="#63b8ff" d="M413.58,-129.05C457.09,-118.88 511.82,-106.1 553.24,-96.43"/>
<polygon fill="#63b8ff" stroke="#63b8ff" points="412.91,-125.61 403.96,-131.29 414.5,-132.43 412.91,-125.61"/>
</g>
<!-- Node46 -->
<g id="node9" class="node">
<title>Node46</title>
<g id="a_node9"><a xlink:href="JUTConsole_8cpp.html" target="_top" xlink:title=" ">
<polygon fill="white" stroke="#666666" points="106,-96 0,-96 0,-66 106,-66 106,-96"/>
<text text-anchor="start" x="8" y="-84" font-family="Helvetica,sans-Serif" font-size="10.00">libs/JSystem/JUtility</text>
<text text-anchor="middle" x="53" y="-73" font-family="Helvetica,sans-Serif" font-size="10.00">/JUTConsole.cpp</text>
</a>
</g>
</g>
<!-- Node2&#45;&gt;Node46 -->
<g id="edge8" class="edge">
<title>Node2&#45;&gt;Node46</title>
<path fill="none" stroke="#63b8ff" d="M268.62,-130.07C224.27,-120.29 166.34,-107.48 115,-96 112.2,-95.37 109.33,-94.73 106.43,-94.08"/>
<polygon fill="#63b8ff" stroke="#63b8ff" points="267.6,-133.43 278.12,-132.16 269.1,-126.59 267.6,-133.43"/>
</g>
<!-- Node47 -->
<g id="node10" class="node">
<title>Node47</title>
<g id="a_node10"><a xlink:href="JUTDbPrint_8cpp.html" target="_top" xlink:title=" ">
<polygon fill="white" stroke="#666666" points="230,-96 124,-96 124,-66 230,-66 230,-96"/>
<text text-anchor="start" x="132" y="-84" font-family="Helvetica,sans-Serif" font-size="10.00">libs/JSystem/JUtility</text>
<text text-anchor="middle" x="177" y="-73" font-family="Helvetica,sans-Serif" font-size="10.00">/JUTDbPrint.cpp</text>
</a>
</g>
</g>
<!-- Node2&#45;&gt;Node47 -->
<g id="edge9" class="edge">
<title>Node2&#45;&gt;Node47</title>
<path fill="none" stroke="#63b8ff" d="M293.7,-127.54C268.34,-117.64 237.55,-105.63 213.97,-96.43"/>
<polygon fill="#63b8ff" stroke="#63b8ff" points="292.2,-130.71 302.79,-131.09 294.74,-124.19 292.2,-130.71"/>
</g>
<!-- Node48 -->
<g id="node11" class="node">
<title>Node48</title>
<g id="a_node11"><a xlink:href="JUTProcBar_8cpp.html" target="_top" xlink:title=" ">
<polygon fill="white" stroke="#666666" points="354,-96 248,-96 248,-66 354,-66 354,-96"/>
<text text-anchor="start" x="256" y="-84" font-family="Helvetica,sans-Serif" font-size="10.00">libs/JSystem/JUtility</text>
<text text-anchor="middle" x="301" y="-73" font-family="Helvetica,sans-Serif" font-size="10.00">/JUTProcBar.cpp</text>
</a>
</g>
</g>
<!-- Node2&#45;&gt;Node48 -->
<g id="edge10" class="edge">
<title>Node2&#45;&gt;Node48</title>
<path fill="none" stroke="#63b8ff" d="M326.07,-122.11C320.61,-113.38 314.61,-103.78 309.85,-96.16"/>
<polygon fill="#63b8ff" stroke="#63b8ff" points="323.05,-123.89 331.32,-130.51 328.99,-120.18 323.05,-123.89"/>
</g>
<!-- Node49 -->
<g id="node12" class="node">
<title>Node49</title>
<g id="a_node12"><a xlink:href="m__Do__machine_8cpp.html" target="_top" xlink:title=" ">
<polygon fill="white" stroke="#666666" points="2151.5,-90.5 2004.5,-90.5 2004.5,-71.5 2151.5,-71.5 2151.5,-90.5"/>
<text text-anchor="middle" x="2078" y="-78.5" font-family="Helvetica,sans-Serif" font-size="10.00">src/m_Do/m_Do_machine.cpp</text>
</a>
</g>
</g>
<!-- Node2&#45;&gt;Node49 -->
<g id="edge12" class="edge">
<title>Node2&#45;&gt;Node49</title>
<path fill="none" stroke="#63b8ff" d="M413.54,-131.88C748.68,-95.75 1727.43,-84.96 2004.3,-82.57"/>
<polygon fill="#63b8ff" stroke="#63b8ff" points="413.42,-128.37 403.87,-132.96 414.2,-135.33 413.42,-128.37"/>
</g>
<!-- Node4 -->
<g id="node4" class="node">
<title>Node4</title>
<g id="a_node4"><a xlink:href="JFWDisplay_8h.html" target="_top" xlink:title=" ">
<polygon fill="#fff0f0" stroke="red" points="544,-30 398,-30 398,0 544,0 544,-30"/>
<text text-anchor="start" x="406" y="-18" font-family="Helvetica,sans-Serif" font-size="10.00">include/JSystem/JFramework</text>
<text text-anchor="middle" x="471" y="-7" font-family="Helvetica,sans-Serif" font-size="10.00">/JFWDisplay.h</text>
</a>
</g>
</g>
<!-- Node3&#45;&gt;Node4 -->
<g id="edge3" class="edge">
<title>Node3&#45;&gt;Node4</title>
<path fill="none" stroke="#63b8ff" d="M471,-54.39C471,-46.13 471,-37.28 471,-30.16"/>
<polygon fill="#63b8ff" stroke="#63b8ff" points="467.5,-54.28 471,-64.28 474.5,-54.28 467.5,-54.28"/>
</g>
<!-- Node3&#45;&gt;Node42 -->
<g id="edge4" class="edge">
<title>Node3&#45;&gt;Node42</title>
<path fill="none" stroke="#63b8ff" d="M428.23,-60.99C406.11,-51.16 379.57,-39.36 359.21,-30.31"/>
<polygon fill="#63b8ff" stroke="#63b8ff" points="426.74,-64.16 437.3,-65.02 429.58,-57.76 426.74,-64.16"/>
</g>
<!-- Node43 -->
<g id="node6" class="node">
<title>Node43</title>
<g id="a_node6"><a xlink:href="JUTXfb_8cpp.html" target="_top" xlink:title=" ">
<polygon fill="white" stroke="#666666" points="668,-30 562,-30 562,0 668,0 668,-30"/>
<text text-anchor="start" x="570" y="-18" font-family="Helvetica,sans-Serif" font-size="10.00">libs/JSystem/JUtility</text>
<text text-anchor="middle" x="615" y="-7" font-family="Helvetica,sans-Serif" font-size="10.00">/JUTXfb.cpp</text>
</a>
</g>
</g>
<!-- Node3&#45;&gt;Node43 -->
<g id="edge5" class="edge">
<title>Node3&#45;&gt;Node43</title>
<path fill="none" stroke="#63b8ff" d="M513.77,-60.99C535.89,-51.16 562.43,-39.36 582.79,-30.31"/>
<polygon fill="#63b8ff" stroke="#63b8ff" points="512.42,-57.76 504.7,-65.02 515.26,-64.16 512.42,-57.76"/>
</g>
<!-- Node44 -->
<g id="node7" class="node">
<title>Node44</title>
<g id="a_node7"><a xlink:href="m__Do__Reset_8cpp.html" target="_top" xlink:title=" ">
<polygon fill="white" stroke="#666666" points="822,-24.5 686,-24.5 686,-5.5 822,-5.5 822,-24.5"/>
<text text-anchor="middle" x="754" y="-12.5" font-family="Helvetica,sans-Serif" font-size="10.00">src/m_Do/m_Do_Reset.cpp</text>
</a>
</g>
</g>
<!-- Node3&#45;&gt;Node44 -->
<g id="edge6" class="edge">
<title>Node3&#45;&gt;Node44</title>
<path fill="none" stroke="#63b8ff" d="M543.38,-63.63C597.8,-51.32 670.3,-34.93 714.49,-24.93"/>
<polygon fill="#63b8ff" stroke="#63b8ff" points="542.86,-60.16 533.88,-65.78 544.41,-66.99 542.86,-60.16"/>
</g>
<!-- Node50&#45;&gt;Node2 -->
<g id="edge27" class="edge">
<title>Node50&#45;&gt;Node2</title>
<path fill="none" stroke="#63b8ff" d="M1921.17,-210.7C1654.19,-204.74 562.9,-179.49 411,-162 408.17,-161.67 405.28,-161.29 402.37,-160.87"/>
<polygon fill="#63b8ff" stroke="#63b8ff" points="1920.94,-214.2 1931.02,-210.92 1921.1,-207.2 1920.94,-214.2"/>
</g>
<!-- Node51 -->
<g id="node14" class="node">
<title>Node51</title>
<g id="a_node14"><a xlink:href="J2DTevs_8h.html" target="_top" xlink:title=" ">
<polygon fill="#fff0f0" stroke="red" points="2460.5,-162 2325.5,-162 2325.5,-132 2460.5,-132 2460.5,-162"/>
<text text-anchor="start" x="2333.5" y="-150" font-family="Helvetica,sans-Serif" font-size="10.00">include/JSystem/J2DGraph</text>
<text text-anchor="middle" x="2393" y="-139" font-family="Helvetica,sans-Serif" font-size="10.00">/J2DTevs.h</text>
</a>
</g>
</g>
<!-- Node50&#45;&gt;Node51 -->
<g id="edge14" class="edge">
<title>Node50&#45;&gt;Node51</title>
<path fill="none" stroke="#63b8ff" d="M2038.54,-203.87C2105.66,-194.41 2218.92,-178.04 2316,-162 2318.95,-161.51 2321.96,-161.01 2325,-160.49"/>
<polygon fill="#63b8ff" stroke="#63b8ff" points="2038.29,-200.37 2028.87,-205.23 2039.26,-207.3 2038.29,-200.37"/>
</g>
<!-- Node103 -->
<g id="node15" class="node">
<title>Node103</title>
<g id="a_node15"><a xlink:href="J3DStruct_8h.html" target="_top" xlink:title=" ">
<polygon fill="#fff0f0" stroke="red" points="2613.5,-162 2478.5,-162 2478.5,-132 2613.5,-132 2613.5,-162"/>
<text text-anchor="start" x="2486.5" y="-150" font-family="Helvetica,sans-Serif" font-size="10.00">include/JSystem/J3DGraph</text>
<text text-anchor="middle" x="2546" y="-139" font-family="Helvetica,sans-Serif" font-size="10.00">Base/J3DStruct.h</text>
</a>
</g>
</g>
<!-- Node50&#45;&gt;Node103 -->
<g id="edge15" class="edge">
<title>Node50&#45;&gt;Node103</title>
<path fill="none" stroke="#63b8ff" d="M2038.64,-207.49C2130.6,-200.08 2314.24,-183.95 2469,-162 2471.96,-161.58 2474.98,-161.13 2478.03,-160.66"/>
<polygon fill="#63b8ff" stroke="#63b8ff" points="2038.55,-203.99 2028.86,-208.27 2039.11,-210.96 2038.55,-203.99"/>
</g>
<!-- Node125 -->
<g id="node16" class="node">
<title>Node125</title>
<g id="a_node16"><a xlink:href="J3DMaterialFactory_8h.html" target="_top" xlink:title=" ">
<polygon fill="#fff0f0" stroke="red" points="2945.5,-162 2804.5,-162 2804.5,-132 2945.5,-132 2945.5,-162"/>
<text text-anchor="start" x="2812.5" y="-150" font-family="Helvetica,sans-Serif" font-size="10.00">include/JSystem/J3DGraph</text>
<text text-anchor="middle" x="2875" y="-139" font-family="Helvetica,sans-Serif" font-size="10.00">Loader/J3DMaterialFactory.h</text>
</a>
</g>
</g>
<!-- Node50&#45;&gt;Node125 -->
<g id="edge16" class="edge">
<title>Node50&#45;&gt;Node125</title>
<path fill="none" stroke="#63b8ff" d="M2038.69,-210.65C2172.99,-207.08 2512.85,-195.24 2795,-162 2798.08,-161.64 2801.22,-161.23 2804.39,-160.8"/>
<polygon fill="#63b8ff" stroke="#63b8ff" points="2038.9,-207.15 2028.99,-210.91 2039.08,-214.14 2038.9,-207.15"/>
</g>
<!-- Node126 -->
<g id="node17" class="node">
<title>Node126</title>
<g id="a_node17"><a xlink:href="J3DMaterialFactory__v21_8h.html" target="_top" xlink:title=" ">
<polygon fill="#fff0f0" stroke="red" points="3126,-162 2964,-162 2964,-132 3126,-132 3126,-162"/>
<text text-anchor="start" x="2972" y="-150" font-family="Helvetica,sans-Serif" font-size="10.00">include/JSystem/J3DGraph</text>
<text text-anchor="middle" x="3045" y="-139" font-family="Helvetica,sans-Serif" font-size="10.00">Loader/J3DMaterialFactory_v21.h</text>
</a>
</g>
</g>
<!-- Node50&#45;&gt;Node126 -->
<g id="edge17" class="edge">
<title>Node50&#45;&gt;Node126</title>
<path fill="none" stroke="#63b8ff" d="M2038.57,-211.06C2190.22,-208.18 2608.03,-197.4 2954,-162 2957.18,-161.67 2960.42,-161.31 2963.69,-160.93"/>
<polygon fill="#63b8ff" stroke="#63b8ff" points="2038.71,-207.56 2028.78,-211.24 2038.84,-214.56 2038.71,-207.56"/>
</g>
<!-- Node496 -->
<g id="node18" class="node">
<title>Node496</title>
<g id="a_node18"><a xlink:href="JPABaseShape_8h.html" target="_top" xlink:title=" ">
<polygon fill="#fff0f0" stroke="red" points="3274,-162 3144,-162 3144,-132 3274,-132 3274,-162"/>
<text text-anchor="start" x="3152" y="-150" font-family="Helvetica,sans-Serif" font-size="10.00">include/JSystem/JParticle</text>
<text text-anchor="middle" x="3209" y="-139" font-family="Helvetica,sans-Serif" font-size="10.00">/JPABaseShape.h</text>
</a>
</g>
</g>
<!-- Node50&#45;&gt;Node496 -->
<g id="edge18" class="edge">
<title>Node50&#45;&gt;Node496</title>
<path fill="none" stroke="#63b8ff" d="M2038.65,-212.43C2208.77,-213.04 2716.9,-210.35 3135,-162 3137.86,-161.67 3140.77,-161.29 3143.71,-160.88"/>
<polygon fill="#63b8ff" stroke="#63b8ff" points="2038.75,-208.93 2028.74,-212.39 2038.72,-215.93 2038.75,-208.93"/>
</g>
<!-- Node500 -->
<g id="node19" class="node">
<title>Node500</title>
<g id="a_node19"><a xlink:href="JPAChildShape_8h.html" target="_top" xlink:title=" ">
<polygon fill="#fff0f0" stroke="red" points="3422,-162 3292,-162 3292,-132 3422,-132 3422,-162"/>
<text text-anchor="start" x="3300" y="-150" font-family="Helvetica,sans-Serif" font-size="10.00">include/JSystem/JParticle</text>
<text text-anchor="middle" x="3357" y="-139" font-family="Helvetica,sans-Serif" font-size="10.00">/JPAChildShape.h</text>
</a>
</g>
</g>
<!-- Node50&#45;&gt;Node500 -->
<g id="edge19" class="edge">
<title>Node50&#45;&gt;Node500</title>
<path fill="none" stroke="#63b8ff" d="M2038.48,-210.91C2258.53,-206.64 3036.73,-189.86 3283,-162 3285.86,-161.68 3288.77,-161.31 3291.71,-160.9"/>
<polygon fill="#63b8ff" stroke="#63b8ff" points="2038.66,-207.41 2028.72,-211.1 2038.79,-214.41 2038.66,-207.41"/>
</g>
<!-- Node502 -->
<g id="node20" class="node">
<title>Node502</title>
<g id="a_node20"><a xlink:href="JPAEmitter_8h.html" target="_top" xlink:title=" ">
<polygon fill="#fff0f0" stroke="red" points="3570,-162 3440,-162 3440,-132 3570,-132 3570,-162"/>
<text text-anchor="start" x="3448" y="-150" font-family="Helvetica,sans-Serif" font-size="10.00">include/JSystem/JParticle</text>
<text text-anchor="middle" x="3505" y="-139" font-family="Helvetica,sans-Serif" font-size="10.00">/JPAEmitter.h</text>
</a>
</g>
</g>
<!-- Node50&#45;&gt;Node502 -->
<g id="edge20" class="edge">
<title>Node50&#45;&gt;Node502</title>
<path fill="none" stroke="#63b8ff" d="M2038.76,-211.17C2274.77,-207.66 3154.31,-192.76 3431,-162 3433.86,-161.68 3436.77,-161.32 3439.71,-160.91"/>
<polygon fill="#63b8ff" stroke="#63b8ff" points="2038.82,-207.67 2028.88,-211.32 2038.93,-214.67 2038.82,-207.67"/>
</g>
<!-- Node507 -->
<g id="node21" class="node">
<title>Node507</title>
<g id="a_node21"><a xlink:href="JPAParticle_8h.html" target="_top" xlink:title=" ">
<polygon fill="#fff0f0" stroke="red" points="550,-162 420,-162 420,-132 550,-132 550,-162"/>
<text text-anchor="start" x="428" y="-150" font-family="Helvetica,sans-Serif" font-size="10.00">include/JSystem/JParticle</text>
<text text-anchor="middle" x="485" y="-139" font-family="Helvetica,sans-Serif" font-size="10.00">/JPAParticle.h</text>
</a>
</g>
</g>
<!-- Node50&#45;&gt;Node507 -->
<g id="edge21" class="edge">
<title>Node50&#45;&gt;Node507</title>
<path fill="none" stroke="#63b8ff" d="M1921.29,-211.12C1688.45,-207.46 829.51,-192.17 559,-162 556.14,-161.68 553.23,-161.31 550.29,-160.91"/>
<polygon fill="#63b8ff" stroke="#63b8ff" points="1920.98,-214.62 1931.03,-211.28 1921.09,-207.62 1920.98,-214.62"/>
</g>
<!-- Node515 -->
<g id="node22" class="node">
<title>Node515</title>
<g id="a_node22"><a xlink:href="JSGAmbientLight_8h.html" target="_top" xlink:title=" ">
<polygon fill="#fff0f0" stroke="red" points="690,-162 568,-162 568,-132 690,-132 690,-162"/>
<text text-anchor="start" x="576" y="-150" font-family="Helvetica,sans-Serif" font-size="10.00">include/JSystem/JStage</text>
<text text-anchor="middle" x="629" y="-139" font-family="Helvetica,sans-Serif" font-size="10.00">/JSGAmbientLight.h</text>
</a>
</g>
</g>
<!-- Node50&#45;&gt;Node515 -->
<g id="edge22" class="edge">
<title>Node50&#45;&gt;Node515</title>
<path fill="none" stroke="#63b8ff" d="M1921.08,-210.94C1702.8,-206.82 940.43,-190.67 699,-162 696.17,-161.66 693.28,-161.28 690.37,-160.85"/>
<polygon fill="#63b8ff" stroke="#63b8ff" points="1920.99,-214.44 1931.05,-211.13 1921.12,-207.44 1920.99,-214.44"/>
</g>
<!-- Node531 -->
<g id="node23" class="node">
<title>Node531</title>
<g id="a_node23"><a xlink:href="JSGFog_8h.html" target="_top" xlink:title=" ">
<polygon fill="#fff0f0" stroke="red" points="830,-162 708,-162 708,-132 830,-132 830,-162"/>
<text text-anchor="start" x="716" y="-150" font-family="Helvetica,sans-Serif" font-size="10.00">include/JSystem/JStage</text>
<text text-anchor="middle" x="769" y="-139" font-family="Helvetica,sans-Serif" font-size="10.00">/JSGFog.h</text>
</a>
</g>
</g>
<!-- Node50&#45;&gt;Node531 -->
<g id="edge23" class="edge">
<title>Node50&#45;&gt;Node531</title>
<path fill="none" stroke="#63b8ff" d="M1921.15,-212.6C1752.15,-213.64 1251.05,-211.93 839,-162 836.17,-161.66 833.28,-161.26 830.37,-160.83"/>
<polygon fill="#63b8ff" stroke="#63b8ff" points="1921.02,-216.1 1930.99,-212.53 1920.97,-209.1 1921.02,-216.1"/>
</g>
<!-- Node533 -->
<g id="node24" class="node">
<title>Node533</title>
<g id="a_node24"><a xlink:href="JSGLight_8h.html" target="_top" xlink:title=" ">
<polygon fill="#fff0f0" stroke="red" points="970,-162 848,-162 848,-132 970,-132 970,-162"/>
<text text-anchor="start" x="856" y="-150" font-family="Helvetica,sans-Serif" font-size="10.00">include/JSystem/JStage</text>
<text text-anchor="middle" x="909" y="-139" font-family="Helvetica,sans-Serif" font-size="10.00">/JSGLight.h</text>
</a>
</g>
</g>
<!-- Node50&#45;&gt;Node533 -->
<g id="edge24" class="edge">
<title>Node50&#45;&gt;Node533</title>
<path fill="none" stroke="#63b8ff" d="M1921.55,-212.08C1767.02,-211.66 1335.08,-206.26 979,-162 976.17,-161.65 973.29,-161.25 970.38,-160.81"/>
<polygon fill="#63b8ff" stroke="#63b8ff" points="1921.11,-215.58 1931.11,-212.1 1921.12,-208.58 1921.11,-215.58"/>
</g>
<!-- Node535 -->
<g id="node25" class="node">
<title>Node535</title>
<g id="a_node25"><a xlink:href="JUTPalette_8h.html" target="_top" xlink:title=" ">
<polygon fill="#fff0f0" stroke="red" points="1110,-162 988,-162 988,-132 1110,-132 1110,-162"/>
<text text-anchor="start" x="996" y="-150" font-family="Helvetica,sans-Serif" font-size="10.00">include/JSystem/JUtility</text>
<text text-anchor="middle" x="1049" y="-139" font-family="Helvetica,sans-Serif" font-size="10.00">/JUTPalette.h</text>
</a>
</g>
</g>
<!-- Node50&#45;&gt;Node535 -->
<g id="edge25" class="edge">
<title>Node50&#45;&gt;Node535</title>
<path fill="none" stroke="#63b8ff" d="M1921.42,-211.41C1781.88,-209.39 1419.1,-200.53 1119,-162 1116.17,-161.64 1113.29,-161.23 1110.38,-160.78"/>
<polygon fill="#63b8ff" stroke="#63b8ff" points="1921.09,-214.9 1931.14,-211.54 1921.19,-207.9 1921.09,-214.9"/>
</g>
<!-- Node538 -->
<g id="node26" class="node">
<title>Node538</title>
<g id="a_node26"><a xlink:href="JUTTexture_8h.html" target="_top" xlink:title=" ">
<polygon fill="#fff0f0" stroke="red" points="1250,-162 1128,-162 1128,-132 1250,-132 1250,-162"/>
<text text-anchor="start" x="1136" y="-150" font-family="Helvetica,sans-Serif" font-size="10.00">include/JSystem/JUtility</text>
<text text-anchor="middle" x="1189" y="-139" font-family="Helvetica,sans-Serif" font-size="10.00">/JUTTexture.h</text>
</a>
</g>
</g>
<!-- Node50&#45;&gt;Node538 -->
<g id="edge26" class="edge">
<title>Node50&#45;&gt;Node538</title>
<path fill="none" stroke="#63b8ff" d="M1921.16,-210.47C1797.86,-206.71 1503.56,-194.8 1259,-162 1256.17,-161.62 1253.29,-161.2 1250.39,-160.74"/>
<polygon fill="#63b8ff" stroke="#63b8ff" points="1920.93,-213.97 1931.03,-210.77 1921.14,-206.97 1920.93,-213.97"/>
</g>
<!-- Node543 -->
<g id="node27" class="node">
<title>Node543</title>
<g id="a_node27"><a xlink:href="TColor_8h.html" target="_top" xlink:title=" ">
<polygon fill="#fff0f0" stroke="red" points="1390,-162 1268,-162 1268,-132 1390,-132 1390,-162"/>
<text text-anchor="start" x="1276" y="-150" font-family="Helvetica,sans-Serif" font-size="10.00">include/JSystem/JUtility</text>
<text text-anchor="middle" x="1329" y="-139" font-family="Helvetica,sans-Serif" font-size="10.00">/TColor.h</text>
</a>
</g>
</g>
<!-- Node50&#45;&gt;Node543 -->
<g id="edge28" class="edge">
<title>Node50&#45;&gt;Node543</title>
<path fill="none" stroke="#63b8ff" d="M1921.44,-209.13C1816.37,-203.49 1589.07,-189.1 1399,-162 1396.18,-161.6 1393.3,-161.15 1390.39,-160.68"/>
<polygon fill="#63b8ff" stroke="#63b8ff" points="1921.05,-212.61 1931.22,-209.64 1921.42,-205.62 1921.05,-212.61"/>
</g>
<!-- Node145 -->
<g id="node28" class="node">
<title>Node145</title>
<g id="a_node28"><a xlink:href="d__camera_8h.html" target="_top" xlink:title=" ">
<polygon fill="#fff0f0" stroke="red" points="1517.5,-156.5 1408.5,-156.5 1408.5,-137.5 1517.5,-137.5 1517.5,-156.5"/>
<text text-anchor="middle" x="1463" y="-144.5" font-family="Helvetica,sans-Serif" font-size="10.00">include/d/d_camera.h</text>
</a>
</g>
</g>
<!-- Node50&#45;&gt;Node145 -->
<g id="edge29" class="edge">
<title>Node50&#45;&gt;Node145</title>
<path fill="none" stroke="#63b8ff" d="M1921.26,-207.59C1834.46,-200.61 1666.98,-185.36 1526,-162 1517.6,-160.61 1508.63,-158.81 1500.18,-156.97"/>
<polygon fill="#63b8ff" stroke="#63b8ff" points="1920.96,-211.08 1931.2,-208.38 1921.51,-204.1 1920.96,-211.08"/>
</g>
<!-- Node510 -->
<g id="node29" class="node">
<title>Node510</title>
<g id="a_node29"><a xlink:href="d__demo_8h.html" target="_top" xlink:title=" ">
<polygon fill="#fff0f0" stroke="red" points="1636.5,-156.5 1535.5,-156.5 1535.5,-137.5 1636.5,-137.5 1636.5,-156.5"/>
<text text-anchor="middle" x="1586" y="-144.5" font-family="Helvetica,sans-Serif" font-size="10.00">include/d/d_demo.h</text>
</a>
</g>
</g>
<!-- Node50&#45;&gt;Node510 -->
<g id="edge30" class="edge">
<title>Node50&#45;&gt;Node510</title>
<path fill="none" stroke="#63b8ff" d="M1921.37,-204.68C1854.48,-195.99 1741.95,-180.35 1646,-162 1638.33,-160.53 1630.16,-158.77 1622.39,-156.99"/>
<polygon fill="#63b8ff" stroke="#63b8ff" points="1920.64,-208.11 1931,-205.92 1921.53,-201.17 1920.64,-208.11"/>
</g>
<!-- Node603 -->
<g id="node30" class="node">
<title>Node603</title>
<g id="a_node30"><a xlink:href="GFLight_8h.html" target="_top" xlink:title=" ">
<polygon fill="#fff0f0" stroke="red" points="1747,-162 1655,-162 1655,-132 1747,-132 1747,-162"/>
<text text-anchor="start" x="1663" y="-150" font-family="Helvetica,sans-Serif" font-size="10.00">include/dolphin/gf</text>
<text text-anchor="middle" x="1701" y="-139" font-family="Helvetica,sans-Serif" font-size="10.00">/GFLight.h</text>
</a>
</g>
</g>
<!-- Node50&#45;&gt;Node603 -->
<g id="edge31" class="edge">
<title>Node50&#45;&gt;Node603</title>
<path fill="none" stroke="#63b8ff" d="M1921.63,-199.47C1876.36,-189.63 1812.09,-175.4 1756,-162 1753.22,-161.34 1750.37,-160.64 1747.49,-159.94"/>
<polygon fill="#63b8ff" stroke="#63b8ff" points="1920.72,-202.85 1931.23,-201.55 1922.2,-196.01 1920.72,-202.85"/>
</g>
<!-- Node605 -->
<g id="node31" class="node">
<title>Node605</title>
<g id="a_node31"><a xlink:href="GXFifo_8h.html" target="_top" xlink:title=" ">
<polygon fill="#fff0f0" stroke="red" points="1859,-162 1765,-162 1765,-132 1859,-132 1859,-162"/>
<text text-anchor="start" x="1773" y="-150" font-family="Helvetica,sans-Serif" font-size="10.00">include/dolphin/gx</text>
<text text-anchor="middle" x="1812" y="-139" font-family="Helvetica,sans-Serif" font-size="10.00">/GXFifo.h</text>
</a>
</g>
</g>
<!-- Node50&#45;&gt;Node605 -->
<g id="edge32" class="edge">
<title>Node50&#45;&gt;Node605</title>
<path fill="none" stroke="#63b8ff" d="M1931.54,-193.54C1905.56,-183.64 1874.03,-171.63 1849.87,-162.43"/>
<polygon fill="#63b8ff" stroke="#63b8ff" points="1930.29,-196.81 1940.88,-197.1 1932.78,-190.27 1930.29,-196.81"/>
</g>
<!-- Node682 -->
<g id="node32" class="node">
<title>Node682</title>
<g id="a_node32"><a xlink:href="GXFrameBuf_8h.html" target="_top" xlink:title=" ">
<polygon fill="#fff0f0" stroke="red" points="3682,-162 3588,-162 3588,-132 3682,-132 3682,-162"/>
<text text-anchor="start" x="3596" y="-150" font-family="Helvetica,sans-Serif" font-size="10.00">include/dolphin/gx</text>
<text text-anchor="middle" x="3635" y="-139" font-family="Helvetica,sans-Serif" font-size="10.00">/GXFrameBuf.h</text>
</a>
</g>
</g>
<!-- Node50&#45;&gt;Node682 -->
<g id="edge33" class="edge">
<title>Node50&#45;&gt;Node682</title>
<path fill="none" stroke="#63b8ff" d="M2038.53,-211.84C2289.11,-210.92 3272.66,-204.58 3579,-162 3581.88,-161.6 3584.82,-161.11 3587.78,-160.56"/>
<polygon fill="#63b8ff" stroke="#63b8ff" points="2038.66,-208.34 2028.67,-211.88 2038.68,-215.34 2038.66,-208.34"/>
</g>
<!-- Node683 -->
<g id="node34" class="node">
<title>Node683</title>
<g id="a_node34"><a xlink:href="GXLight_8h.html" target="_top" xlink:title=" ">
<polygon fill="#fff0f0" stroke="red" points="1971,-162 1877,-162 1877,-132 1971,-132 1971,-162"/>
<text text-anchor="start" x="1885" y="-150" font-family="Helvetica,sans-Serif" font-size="10.00">include/dolphin/gx</text>
<text text-anchor="middle" x="1924" y="-139" font-family="Helvetica,sans-Serif" font-size="10.00">/GXLight.h</text>
</a>
</g>
</g>
<!-- Node50&#45;&gt;Node683 -->
<g id="edge35" class="edge">
<title>Node50&#45;&gt;Node683</title>
<path fill="none" stroke="#63b8ff" d="M1960.09,-189.24C1952.19,-180.21 1943.35,-170.11 1936.39,-162.16"/>
<polygon fill="#63b8ff" stroke="#63b8ff" points="1957.36,-191.44 1966.58,-196.66 1962.62,-186.83 1957.36,-191.44"/>
</g>
<!-- Node684 -->
<g id="node35" class="node">
<title>Node684</title>
<g id="a_node35"><a xlink:href="GXPixel_8h.html" target="_top" xlink:title=" ">
<polygon fill="#fff0f0" stroke="red" points="2083,-162 1989,-162 1989,-132 2083,-132 2083,-162"/>
<text text-anchor="start" x="1997" y="-150" font-family="Helvetica,sans-Serif" font-size="10.00">include/dolphin/gx</text>
<text text-anchor="middle" x="2036" y="-139" font-family="Helvetica,sans-Serif" font-size="10.00">/GXPixel.h</text>
</a>
</g>
</g>
<!-- Node50&#45;&gt;Node684 -->
<g id="edge36" class="edge">
<title>Node50&#45;&gt;Node684</title>
<path fill="none" stroke="#63b8ff" d="M1999.91,-189.24C2007.81,-180.21 2016.65,-170.11 2023.61,-162.16"/>
<polygon fill="#63b8ff" stroke="#63b8ff" points="1997.38,-186.83 1993.42,-196.66 2002.64,-191.44 1997.38,-186.83"/>
</g>
<!-- Node685 -->
<g id="node36" class="node">
<title>Node685</title>
<g id="a_node36"><a xlink:href="GXTev_8h.html" target="_top" xlink:title=" ">
<polygon fill="#fff0f0" stroke="red" points="2195,-162 2101,-162 2101,-132 2195,-132 2195,-162"/>
<text text-anchor="start" x="2109" y="-150" font-family="Helvetica,sans-Serif" font-size="10.00">include/dolphin/gx</text>
<text text-anchor="middle" x="2148" y="-139" font-family="Helvetica,sans-Serif" font-size="10.00">/GXTev.h</text>
</a>
</g>
</g>
<!-- Node50&#45;&gt;Node685 -->
<g id="edge37" class="edge">
<title>Node50&#45;&gt;Node685</title>
<path fill="none" stroke="#63b8ff" d="M2028.46,-193.54C2054.44,-183.64 2085.97,-171.63 2110.13,-162.43"/>
<polygon fill="#63b8ff" stroke="#63b8ff" points="2027.22,-190.27 2019.12,-197.1 2029.71,-196.81 2027.22,-190.27"/>
</g>
<!-- Node686 -->
<g id="node37" class="node">
<title>Node686</title>
<g id="a_node37"><a xlink:href="GXTexture_8h.html" target="_top" xlink:title=" ">
<polygon fill="#fff0f0" stroke="red" points="2307,-162 2213,-162 2213,-132 2307,-132 2307,-162"/>
<text text-anchor="start" x="2221" y="-150" font-family="Helvetica,sans-Serif" font-size="10.00">include/dolphin/gx</text>
<text text-anchor="middle" x="2260" y="-139" font-family="Helvetica,sans-Serif" font-size="10.00">/GXTexture.h</text>
</a>
</g>
</g>
<!-- Node50&#45;&gt;Node686 -->
<g id="edge38" class="edge">
<title>Node50&#45;&gt;Node686</title>
<path fill="none" stroke="#63b8ff" d="M2038.36,-199.4C2083.62,-189.52 2147.88,-175.28 2204,-162 2206.83,-161.33 2209.73,-160.63 2212.66,-159.92"/>
<polygon fill="#63b8ff" stroke="#63b8ff" points="2037.78,-195.94 2028.75,-201.49 2039.27,-202.78 2037.78,-195.94"/>
</g>
<!-- Node688 -->
<g id="node38" class="node">
<title>Node688</title>
<g id="a_node38"><a xlink:href="m__Do__machine_8h.html" target="_top" xlink:title=" ">
<polygon fill="#fff0f0" stroke="red" points="2786,-156.5 2632,-156.5 2632,-137.5 2786,-137.5 2786,-156.5"/>
<text text-anchor="middle" x="2709" y="-144.5" font-family="Helvetica,sans-Serif" font-size="10.00">include/m_Do/m_Do_machine.h</text>
</a>
</g>
</g>
<!-- Node50&#45;&gt;Node688 -->
<g id="edge39" class="edge">
<title>Node50&#45;&gt;Node688</title>
<path fill="none" stroke="#63b8ff" d="M2038.72,-209.04C2151.86,-202.98 2407.84,-187.53 2622,-162 2633.55,-160.62 2645.9,-158.83 2657.57,-156.99"/>
<polygon fill="#63b8ff" stroke="#63b8ff" points="2038.56,-205.54 2028.76,-209.57 2038.93,-212.53 2038.56,-205.54"/>
</g>
<!-- Node682&#45;&gt;Node671 -->
<g id="edge34" class="edge">
<title>Node682&#45;&gt;Node671</title>
<path fill="none" stroke="#63b8ff" d="M3654.88,-123.28C3664.69,-112.07 3675.96,-99.19 3683.26,-90.84"/>
<polygon fill="#63b8ff" stroke="#63b8ff" points="3652.38,-120.83 3648.42,-130.66 3657.64,-125.44 3652.38,-120.83"/>
</g>
<!-- Node688&#45;&gt;Node49 -->
<g id="edge41" class="edge">
<title>Node688&#45;&gt;Node49</title>
<path fill="none" stroke="#63b8ff" d="M2645.86,-135.32C2637.84,-134.12 2629.74,-132.98 2622,-132 2454.27,-110.82 2256.38,-94.89 2151.64,-87.17"/>
<polygon fill="#63b8ff" stroke="#63b8ff" points="2645.19,-138.76 2655.6,-136.83 2646.25,-131.84 2645.19,-138.76"/>
</g>
<!-- Node688&#45;&gt;Node35 -->
<g id="edge40" class="edge">
<title>Node688&#45;&gt;Node35</title>
<path fill="none" stroke="#63b8ff" d="M2774.96,-135.18C2850.98,-122.7 2974.5,-102.43 3045.04,-90.85"/>
<polygon fill="#63b8ff" stroke="#63b8ff" points="2774.43,-131.72 2765.13,-136.79 2775.57,-138.62 2774.43,-131.72"/>
</g>
</g>
</svg>
        <g id="navigator" transform="translate(0 0)" fill="#404254">
                <rect fill="#f2f5e9" fill-opacity="0.5" stroke="#606060" stroke-width=".5" x="0" y="0" width="60" height="60"/>
                <use id="zoomplus" xlink:href="#zoomPlus" x="17" y="9" onmousedown="handleZoom(evt,'in')"/>
                <use id="zoomminus" xlink:href="#zoomMin" x="42" y="9" onmousedown="handleZoom(evt,'out')"/>
                <use id="reset" xlink:href="#resetDef" x="30" y="36" onmousedown="handleReset()"/>
                <g id="arrowUp" xlink:href="#dirArrow" transform="translate(30 24)" onmousedown="handlePan(0,-1)">
                  <use xlink:href="#rim" fill="#404040">
                        <set attributeName="fill" to="#808080" begin="arrowUp.mouseover" end="arrowUp.mouseout"/>
                  </use>
                  <path fill="none" stroke="white" stroke-width="1.5" d="M0,-3.0v7 M-2.5,-0.5L0,-3.0L2.5,-0.5"/>
                </g>
                <g id="arrowRight" xlink:href="#dirArrow" transform="rotate(90) translate(36 -43)" onmousedown="handlePan(1,0)">
                  <use xlink:href="#rim" fill="#404040">
                        <set attributeName="fill" to="#808080" begin="arrowRight.mouseover" end="arrowRight.mouseout"/>
                  </use>
                  <path fill="none" stroke="white" stroke-width="1.5" d="M0,-3.0v7 M-2.5,-0.5L0,-3.0L2.5,-0.5"/>
                </g>
                <g id="arrowDown" xlink:href="#dirArrow" transform="rotate(180) translate(-30 -48)" onmousedown="handlePan(0,1)">
                  <use xlink:href="#rim" fill="#404040">
                        <set attributeName="fill" to="#808080" begin="arrowDown.mouseover" end="arrowDown.mouseout"/>
                  </use>
                  <path fill="none" stroke="white" stroke-width="1.5" d="M0,-3.0v7 M-2.5,-0.5L0,-3.0L2.5,-0.5"/>
                </g>
                <g id="arrowLeft" xlink:href="#dirArrow" transform="rotate(270) translate(-36 17)" onmousedown="handlePan(-1,0)">
                  <use xlink:href="#rim" fill="#404040">
                        <set attributeName="fill" to="#808080" begin="arrowLeft.mouseover" end="arrowLeft.mouseout"/>
                  </use>
                  <path fill="none" stroke="white" stroke-width="1.5" d="M0,-3.0v7 M-2.5,-0.5L0,-3.0L2.5,-0.5"/>
                </g>
        </g>
        <svg viewBox="0 0 15 15" width="100%" height="30px" preserveAspectRatio="xMaxYMin meet">
         <g id="arrow_out" transform="scale(0.3 0.3)">
          <a xlink:href="vi_8h__dep__incl_org.svg" target="_base">
           <rect id="button" ry="5" rx="5" y="6" x="6" height="38" width="38"
                fill="#f2f5e9" fill-opacity="0.5" stroke="#606060" stroke-width="1.0"/>
           <path id="arrow"
             d="M 11.500037,31.436501 C 11.940474,20.09759 22.043105,11.32322 32.158766,21.979434 L 37.068811,17.246167 C 37.068811,17.246167 37.088388,32 37.088388,32 L 22.160133,31.978069 C 22.160133,31.978069 26.997745,27.140456 26.997745,27.140456 C 18.528582,18.264221 13.291696,25.230495 11.500037,31.436501 z"
             style="fill:#404040;"/>
          </a>
         </g>
        </svg>
</svg>
