<?xml version="1.0" encoding="UTF-8" standalone="no"?>
<!DOCTYPE svg PUBLIC "-//W3C//DTD SVG 1.1//EN"
 "http://www.w3.org/Graphics/SVG/1.1/DTD/svg11.dtd">
<!-- Generated by graphviz version 7.0.5 (20221223.1930)
 -->
<!-- Title: libs/PowerPC_EABI_Support/MSL/MSL_C/MSL_Common/Include/wchar_io.h Pages: 1 -->
<svg width="1396pt" height="412pt"
 viewBox="0.00 0.00 1396.00 412.00" xmlns="http://www.w3.org/2000/svg" xmlns:xlink="http://www.w3.org/1999/xlink">
<g id="graph0" class="graph" transform="scale(1 1) rotate(0) translate(4 408)">
<title>libs/PowerPC_EABI_Support/MSL/MSL_C/MSL_Common/Include/wchar_io.h</title>
<!-- Node1 -->
<g id="node1" class="node">
<title>Node1</title>
<g id="a_node1"><a xlink:title=" ">
<polygon fill="#999999" stroke="#666666" points="1034,-404 855,-404 855,-363 1034,-363 1034,-404"/>
<text text-anchor="start" x="863" y="-392" font-family="Helvetica,sans-Serif" font-size="10.00">libs/PowerPC_EABI_Support</text>
<text text-anchor="start" x="863" y="-381" font-family="Helvetica,sans-Serif" font-size="10.00">/MSL/MSL_C/MSL_Common/Include</text>
<text text-anchor="middle" x="944.5" y="-370" font-family="Helvetica,sans-Serif" font-size="10.00">/wchar_io.h</text>
</a>
</g>
</g>
<!-- Node2 -->
<g id="node2" class="node">
<title>Node2</title>
<g id="a_node2"><a xlink:href="mbstring_8h.html" target="_top" xlink:title=" ">
<polygon fill="white" stroke="#666666" points="806,-327 627,-327 627,-286 806,-286 806,-327"/>
<text text-anchor="start" x="635" y="-315" font-family="Helvetica,sans-Serif" font-size="10.00">libs/PowerPC_EABI_Support</text>
<text text-anchor="start" x="635" y="-304" font-family="Helvetica,sans-Serif" font-size="10.00">/MSL/MSL_C/MSL_Common/Include</text>
<text text-anchor="middle" x="716.5" y="-293" font-family="Helvetica,sans-Serif" font-size="10.00">/mbstring.h</text>
</a>
</g>
</g>
<!-- Node1&#45;&gt;Node2 -->
<g id="edge1" class="edge">
<title>Node1&#45;&gt;Node2</title>
<path fill="none" stroke="#63b8ff" d="M873.32,-359.09C842.52,-348.95 806.83,-337.21 777.28,-327.49"/>
<polygon fill="#63b8ff" stroke="#63b8ff" points="871.97,-362.33 882.56,-362.13 874.16,-355.68 871.97,-362.33"/>
</g>
<!-- Node14 -->
<g id="node14" class="node">
<title>Node14</title>
<g id="a_node14"><a xlink:href="printf_8c.html" target="_top" xlink:title=" ">
<polygon fill="white" stroke="#666666" points="916,-173 753,-173 753,-132 916,-132 916,-173"/>
<text text-anchor="start" x="761" y="-161" font-family="Helvetica,sans-Serif" font-size="10.00">libs/PowerPC_EABI_Support</text>
<text text-anchor="start" x="761" y="-150" font-family="Helvetica,sans-Serif" font-size="10.00">/MSL/MSL_C/MSL_Common/Src</text>
<text text-anchor="middle" x="834.5" y="-139" font-family="Helvetica,sans-Serif" font-size="10.00">/printf.c</text>
</a>
</g>
</g>
<!-- Node1&#45;&gt;Node14 -->
<g id="edge21" class="edge">
<title>Node1&#45;&gt;Node14</title>
<path fill="none" stroke="#63b8ff" d="M884.61,-356.78C872.52,-348.92 861.17,-339.08 853.5,-327 822.86,-278.79 827.04,-207.51 831.38,-173.27"/>
<polygon fill="#63b8ff" stroke="#63b8ff" points="882.74,-359.74 893.11,-361.88 886.34,-353.74 882.74,-359.74"/>
</g>
<!-- Node17 -->
<g id="node17" class="node">
<title>Node17</title>
<g id="a_node17"><a xlink:href="char__io_8c.html" target="_top" xlink:title=" ">
<polygon fill="white" stroke="#666666" points="1026,-327 863,-327 863,-286 1026,-286 1026,-327"/>
<text text-anchor="start" x="871" y="-315" font-family="Helvetica,sans-Serif" font-size="10.00">libs/PowerPC_EABI_Support</text>
<text text-anchor="start" x="871" y="-304" font-family="Helvetica,sans-Serif" font-size="10.00">/MSL/MSL_C/MSL_Common/Src</text>
<text text-anchor="middle" x="944.5" y="-293" font-family="Helvetica,sans-Serif" font-size="10.00">/char_io.c</text>
</a>
</g>
</g>
<!-- Node1&#45;&gt;Node17 -->
<g id="edge19" class="edge">
<title>Node1&#45;&gt;Node17</title>
<path fill="none" stroke="#63b8ff" d="M944.5,-351.36C944.5,-343.24 944.5,-334.7 944.5,-327.33"/>
<polygon fill="#63b8ff" stroke="#63b8ff" points="941,-351.28 944.5,-361.28 948,-351.28 941,-351.28"/>
</g>
<!-- Node18 -->
<g id="node18" class="node">
<title>Node18</title>
<g id="a_node18"><a xlink:href="direct__io_8c.html" target="_top" xlink:title=" ">
<polygon fill="white" stroke="#666666" points="1207,-327 1044,-327 1044,-286 1207,-286 1207,-327"/>
<text text-anchor="start" x="1052" y="-315" font-family="Helvetica,sans-Serif" font-size="10.00">libs/PowerPC_EABI_Support</text>
<text text-anchor="start" x="1052" y="-304" font-family="Helvetica,sans-Serif" font-size="10.00">/MSL/MSL_C/MSL_Common/Src</text>
<text text-anchor="middle" x="1125.5" y="-293" font-family="Helvetica,sans-Serif" font-size="10.00">/direct_io.c</text>
</a>
</g>
</g>
<!-- Node1&#45;&gt;Node18 -->
<g id="edge20" class="edge">
<title>Node1&#45;&gt;Node18</title>
<path fill="none" stroke="#63b8ff" d="M1002.93,-358.29C1026.94,-348.34 1054.41,-336.96 1077.25,-327.49"/>
<polygon fill="#63b8ff" stroke="#63b8ff" points="1001.83,-354.96 993.93,-362.02 1004.51,-361.42 1001.83,-354.96"/>
</g>
<!-- Node19 -->
<g id="node19" class="node">
<title>Node19</title>
<g id="a_node19"><a xlink:href="wchar__io_8c.html" target="_top" xlink:title=" ">
<polygon fill="white" stroke="#666666" points="1388,-327 1225,-327 1225,-286 1388,-286 1388,-327"/>
<text text-anchor="start" x="1233" y="-315" font-family="Helvetica,sans-Serif" font-size="10.00">libs/PowerPC_EABI_Support</text>
<text text-anchor="start" x="1233" y="-304" font-family="Helvetica,sans-Serif" font-size="10.00">/MSL/MSL_C/MSL_Common/Src</text>
<text text-anchor="middle" x="1306.5" y="-293" font-family="Helvetica,sans-Serif" font-size="10.00">/wchar_io.c</text>
</a>
</g>
</g>
<!-- Node1&#45;&gt;Node19 -->
<g id="edge22" class="edge">
<title>Node1&#45;&gt;Node19</title>
<path fill="none" stroke="#63b8ff" d="M1045.38,-362.22C1096.66,-351.83 1159.93,-338.9 1216.5,-327 1219.16,-326.44 1221.86,-325.87 1224.59,-325.29"/>
<polygon fill="#63b8ff" stroke="#63b8ff" points="1044.89,-358.75 1035.78,-364.16 1046.27,-365.61 1044.89,-358.75"/>
</g>
<!-- Node3 -->
<g id="node3" class="node">
<title>Node3</title>
<g id="a_node3"><a xlink:href="stdlib_8h.html" target="_top" xlink:title=" ">
<polygon fill="white" stroke="#666666" points="618,-250 439,-250 439,-209 618,-209 618,-250"/>
<text text-anchor="start" x="447" y="-238" font-family="Helvetica,sans-Serif" font-size="10.00">libs/PowerPC_EABI_Support</text>
<text text-anchor="start" x="447" y="-227" font-family="Helvetica,sans-Serif" font-size="10.00">/MSL/MSL_C/MSL_Common/Include</text>
<text text-anchor="middle" x="528.5" y="-216" font-family="Helvetica,sans-Serif" font-size="10.00">/stdlib.h</text>
</a>
</g>
</g>
<!-- Node2&#45;&gt;Node3 -->
<g id="edge2" class="edge">
<title>Node2&#45;&gt;Node3</title>
<path fill="none" stroke="#63b8ff" d="M656.14,-281.42C631.13,-271.44 602.45,-260 578.62,-250.49"/>
<polygon fill="#63b8ff" stroke="#63b8ff" points="654.62,-284.58 665.21,-285.04 657.22,-278.08 654.62,-284.58"/>
</g>
<!-- Node16 -->
<g id="node16" class="node">
<title>Node16</title>
<g id="a_node16"><a xlink:href="mbstring_8c.html" target="_top" xlink:title=" ">
<polygon fill="white" stroke="#666666" points="799,-250 636,-250 636,-209 799,-209 799,-250"/>
<text text-anchor="start" x="644" y="-238" font-family="Helvetica,sans-Serif" font-size="10.00">libs/PowerPC_EABI_Support</text>
<text text-anchor="start" x="644" y="-227" font-family="Helvetica,sans-Serif" font-size="10.00">/MSL/MSL_C/MSL_Common/Src</text>
<text text-anchor="middle" x="717.5" y="-216" font-family="Helvetica,sans-Serif" font-size="10.00">/mbstring.c</text>
</a>
</g>
</g>
<!-- Node2&#45;&gt;Node16 -->
<g id="edge18" class="edge">
<title>Node2&#45;&gt;Node16</title>
<path fill="none" stroke="#63b8ff" d="M716.92,-274.36C717.02,-266.24 717.14,-257.7 717.24,-250.33"/>
<polygon fill="#63b8ff" stroke="#63b8ff" points="713.42,-274.24 716.78,-284.28 720.42,-274.33 713.42,-274.24"/>
</g>
<!-- Node4 -->
<g id="node4" class="node">
<title>Node4</title>
<g id="a_node4"><a xlink:href="J2DPrint_8cpp.html" target="_top" xlink:title=" ">
<polygon fill="white" stroke="#666666" points="119,-167.5 0,-167.5 0,-137.5 119,-137.5 119,-167.5"/>
<text text-anchor="start" x="8" y="-155.5" font-family="Helvetica,sans-Serif" font-size="10.00">libs/JSystem/J2DGraph</text>
<text text-anchor="middle" x="59.5" y="-144.5" font-family="Helvetica,sans-Serif" font-size="10.00">/J2DPrint.cpp</text>
</a>
</g>
</g>
<!-- Node3&#45;&gt;Node4 -->
<g id="edge3" class="edge">
<title>Node3&#45;&gt;Node4</title>
<path fill="none" stroke="#63b8ff" d="M427.49,-217.64C347.35,-208.22 232.7,-192.97 133.5,-173 126.21,-171.53 118.56,-169.77 111.07,-167.92"/>
<polygon fill="#63b8ff" stroke="#63b8ff" points="426.73,-221.07 437.07,-218.75 427.54,-214.12 426.73,-221.07"/>
</g>
<!-- Node5 -->
<g id="node5" class="node">
<title>Node5</title>
<g id="a_node5"><a xlink:href="JAUSectionHeap_8cpp.html" target="_top" xlink:title=" ">
<polygon fill="white" stroke="#666666" points="204,-30 91,-30 91,0 204,0 204,-30"/>
<text text-anchor="start" x="99" y="-18" font-family="Helvetica,sans-Serif" font-size="10.00">libs/JSystem/JAudio2</text>
<text text-anchor="middle" x="147.5" y="-7" font-family="Helvetica,sans-Serif" font-size="10.00">/JAUSectionHeap.cpp</text>
</a>
</g>
</g>
<!-- Node3&#45;&gt;Node5 -->
<g id="edge4" class="edge">
<title>Node3&#45;&gt;Node5</title>
<path fill="none" stroke="#63b8ff" d="M427.61,-226.29C333.25,-221.97 201.73,-209.37 166.5,-173 128.48,-133.76 138.09,-60.66 144.25,-30.05"/>
<polygon fill="#63b8ff" stroke="#63b8ff" points="427.27,-229.78 437.41,-226.72 427.57,-222.79 427.27,-229.78"/>
</g>
<!-- Node6 -->
<g id="node6" class="node">
<title>Node6</title>
<g id="a_node6"><a xlink:href="functionvalue_8cpp.html" target="_top" xlink:title=" ">
<polygon fill="white" stroke="#666666" points="307,-167.5 176,-167.5 176,-137.5 307,-137.5 307,-167.5"/>
<text text-anchor="start" x="184" y="-155.5" font-family="Helvetica,sans-Serif" font-size="10.00">libs/JSystem/JStudio</text>
<text text-anchor="middle" x="241.5" y="-144.5" font-family="Helvetica,sans-Serif" font-size="10.00">/JStudio/functionvalue.cpp</text>
</a>
</g>
</g>
<!-- Node3&#45;&gt;Node6 -->
<g id="edge5" class="edge">
<title>Node3&#45;&gt;Node6</title>
<path fill="none" stroke="#63b8ff" d="M441.22,-205.69C394.17,-193.4 337.54,-178.6 296.62,-167.9"/>
<polygon fill="#63b8ff" stroke="#63b8ff" points="440.32,-209.07 450.88,-208.22 442.09,-202.3 440.32,-209.07"/>
</g>
<!-- Node7 -->
<g id="node7" class="node">
<title>Node7</title>
<g id="a_node7"><a xlink:href="JUTException_8cpp.html" target="_top" xlink:title=" ">
<polygon fill="white" stroke="#666666" points="431.5,-167.5 325.5,-167.5 325.5,-137.5 431.5,-137.5 431.5,-167.5"/>
<text text-anchor="start" x="333.5" y="-155.5" font-family="Helvetica,sans-Serif" font-size="10.00">libs/JSystem/JUtility</text>
<text text-anchor="middle" x="378.5" y="-144.5" font-family="Helvetica,sans-Serif" font-size="10.00">/JUTException.cpp</text>
</a>
</g>
</g>
<!-- Node3&#45;&gt;Node7 -->
<g id="edge6" class="edge">
<title>Node3&#45;&gt;Node7</title>
<path fill="none" stroke="#63b8ff" d="M478.44,-203.47C454.71,-191.6 427.21,-177.85 407.07,-167.79"/>
<polygon fill="#63b8ff" stroke="#63b8ff" points="476.83,-206.58 487.34,-207.92 479.96,-200.32 476.83,-206.58"/>
</g>
<!-- Node8 -->
<g id="node8" class="node">
<title>Node8</title>
<g id="a_node8"><a xlink:href="bitset_8h.html" target="_top" xlink:title=" ">
<polygon fill="white" stroke="#666666" points="607,-173 450,-173 450,-132 607,-132 607,-173"/>
<text text-anchor="start" x="458" y="-161" font-family="Helvetica,sans-Serif" font-size="10.00">libs/PowerPC_EABI_Support</text>
<text text-anchor="start" x="458" y="-150" font-family="Helvetica,sans-Serif" font-size="10.00">/MSL/MSL_C++/MSL_Common</text>
<text text-anchor="middle" x="528.5" y="-139" font-family="Helvetica,sans-Serif" font-size="10.00">/Include/bitset.h</text>
</a>
</g>
</g>
<!-- Node3&#45;&gt;Node8 -->
<g id="edge7" class="edge">
<title>Node3&#45;&gt;Node8</title>
<path fill="none" stroke="#63b8ff" d="M528.5,-197.36C528.5,-189.24 528.5,-180.7 528.5,-173.33"/>
<polygon fill="#63b8ff" stroke="#63b8ff" points="525,-197.28 528.5,-207.28 532,-197.28 525,-197.28"/>
</g>
<!-- Node12 -->
<g id="node12" class="node">
<title>Node12</title>
<g id="a_node12"><a xlink:href="Z2AudioMgr_8cpp.html" target="_top" xlink:title=" ">
<polygon fill="white" stroke="#666666" points="681.5,-24.5 523.5,-24.5 523.5,-5.5 681.5,-5.5 681.5,-24.5"/>
<text text-anchor="middle" x="602.5" y="-12.5" font-family="Helvetica,sans-Serif" font-size="10.00">libs/Z2AudioLib/Z2AudioMgr.cpp</text>
</a>
</g>
</g>
<!-- Node3&#45;&gt;Node12 -->
<g id="edge16" class="edge">
<title>Node3&#45;&gt;Node12</title>
<path fill="none" stroke="#63b8ff" d="M587.44,-202.41C598.69,-194.63 608.97,-184.91 615.5,-173 642.98,-122.88 616.93,-49.95 606.43,-24.86"/>
<polygon fill="#63b8ff" stroke="#63b8ff" points="585.68,-199.38 579.1,-207.69 589.42,-205.3 585.68,-199.38"/>
</g>
<!-- Node3&#45;&gt;Node14 -->
<g id="edge15" class="edge">
<title>Node3&#45;&gt;Node14</title>
<path fill="none" stroke="#63b8ff" d="M620.79,-205.88C662.86,-195.57 712.23,-183.47 752.92,-173.49"/>
<polygon fill="#63b8ff" stroke="#63b8ff" points="620.05,-202.46 611.17,-208.24 621.71,-209.26 620.05,-202.46"/>
</g>
<!-- Node15 -->
<g id="node15" class="node">
<title>Node15</title>
<g id="a_node15"><a xlink:href="____start_8c.html" target="_top" xlink:title=" ">
<polygon fill="white" stroke="#666666" points="735,-162 664,-162 664,-143 735,-143 735,-162"/>
<text text-anchor="middle" x="699.5" y="-150" font-family="Helvetica,sans-Serif" font-size="10.00">src/__start.c</text>
</a>
</g>
</g>
<!-- Node3&#45;&gt;Node15 -->
<g id="edge17" class="edge">
<title>Node3&#45;&gt;Node15</title>
<path fill="none" stroke="#63b8ff" d="M584.19,-204.07C616.78,-189.78 655.96,-172.59 679.24,-162.38"/>
<polygon fill="#63b8ff" stroke="#63b8ff" points="583.01,-200.77 575.26,-207.99 585.83,-207.18 583.01,-200.77"/>
</g>
<!-- Node9 -->
<g id="node9" class="node">
<title>Node9</title>
<g id="a_node9"><a xlink:href="JAUSectionHeap_8h.html" target="_top" xlink:title=" ">
<polygon fill="white" stroke="#666666" points="462,-96 335,-96 335,-66 462,-66 462,-96"/>
<text text-anchor="start" x="343" y="-84" font-family="Helvetica,sans-Serif" font-size="10.00">include/JSystem/JAudio2</text>
<text text-anchor="middle" x="398.5" y="-73" font-family="Helvetica,sans-Serif" font-size="10.00">/JAUSectionHeap.h</text>
</a>
</g>
</g>
<!-- Node8&#45;&gt;Node9 -->
<g id="edge8" class="edge">
<title>Node8&#45;&gt;Node9</title>
<path fill="none" stroke="#63b8ff" d="M481.09,-126.16C462.35,-116.14 441.5,-104.99 425.43,-96.4"/>
<polygon fill="#63b8ff" stroke="#63b8ff" points="479.44,-129.24 489.91,-130.87 482.74,-123.07 479.44,-129.24"/>
</g>
<!-- Node13 -->
<g id="node13" class="node">
<title>Node13</title>
<g id="a_node13"><a xlink:href="JAUStreamAramMgr_8h.html" target="_top" xlink:title=" ">
<polygon fill="white" stroke="#666666" points="607,-96 480,-96 480,-66 607,-66 607,-96"/>
<text text-anchor="start" x="488" y="-84" font-family="Helvetica,sans-Serif" font-size="10.00">include/JSystem/JAudio2</text>
<text text-anchor="middle" x="543.5" y="-73" font-family="Helvetica,sans-Serif" font-size="10.00">/JAUStreamAramMgr.h</text>
</a>
</g>
</g>
<!-- Node8&#45;&gt;Node13 -->
<g id="edge13" class="edge">
<title>Node8&#45;&gt;Node13</title>
<path fill="none" stroke="#63b8ff" d="M535.16,-120.66C536.97,-112.24 538.86,-103.51 540.38,-96.47"/>
<polygon fill="#63b8ff" stroke="#63b8ff" points="531.77,-119.78 533.08,-130.29 538.61,-121.25 531.77,-119.78"/>
</g>
<!-- Node9&#45;&gt;Node5 -->
<g id="edge10" class="edge">
<title>Node9&#45;&gt;Node5</title>
<path fill="none" stroke="#63b8ff" d="M330.93,-62.77C291.21,-52.64 241.56,-39.98 203.94,-30.39"/>
<polygon fill="#63b8ff" stroke="#63b8ff" points="329.84,-66.1 340.39,-65.18 331.57,-59.32 329.84,-66.1"/>
</g>
<!-- Node10 -->
<g id="node10" class="node">
<title>Node10</title>
<g id="a_node10"><a xlink:href="JAUAudioArcLoader_8cpp.html" target="_top" xlink:title=" ">
<polygon fill="white" stroke="#666666" points="349,-30 222,-30 222,0 349,0 349,-30"/>
<text text-anchor="start" x="230" y="-18" font-family="Helvetica,sans-Serif" font-size="10.00">libs/JSystem/JAudio2</text>
<text text-anchor="middle" x="285.5" y="-7" font-family="Helvetica,sans-Serif" font-size="10.00">/JAUAudioArcLoader.cpp</text>
</a>
</g>
</g>
<!-- Node9&#45;&gt;Node10 -->
<g id="edge9" class="edge">
<title>Node9&#45;&gt;Node10</title>
<path fill="none" stroke="#63b8ff" d="M363.51,-60.18C346.45,-50.52 326.32,-39.12 310.77,-30.31"/>
<polygon fill="#63b8ff" stroke="#63b8ff" points="361.4,-63.01 371.82,-64.89 364.85,-56.92 361.4,-63.01"/>
</g>
<!-- Node11 -->
<g id="node11" class="node">
<title>Node11</title>
<g id="a_node11"><a xlink:href="Z2AudioArcLoader_8cpp.html" target="_top" xlink:title=" ">
<polygon fill="white" stroke="#666666" points="505.5,-30 367.5,-30 367.5,0 505.5,0 505.5,-30"/>
<text text-anchor="start" x="375.5" y="-18" font-family="Helvetica,sans-Serif" font-size="10.00">libs/Z2AudioLib/Z2AudioArc</text>
<text text-anchor="middle" x="436.5" y="-7" font-family="Helvetica,sans-Serif" font-size="10.00">Loader.cpp</text>
</a>
</g>
</g>
<!-- Node9&#45;&gt;Node11 -->
<g id="edge11" class="edge">
<title>Node9&#45;&gt;Node11</title>
<path fill="none" stroke="#63b8ff" d="M412.68,-56.11C417.87,-47.38 423.57,-37.78 428.09,-30.16"/>
<polygon fill="#63b8ff" stroke="#63b8ff" points="409.8,-54.11 407.71,-64.49 415.82,-57.68 409.8,-54.11"/>
</g>
<!-- Node9&#45;&gt;Node12 -->
<g id="edge12" class="edge">
<title>Node9&#45;&gt;Node12</title>
<path fill="none" stroke="#63b8ff" d="M455.11,-62.24C493.73,-50.12 543.26,-34.59 573.93,-24.96"/>
<polygon fill="#63b8ff" stroke="#63b8ff" points="454.47,-58.77 445.98,-65.1 456.57,-65.45 454.47,-58.77"/>
</g>
<!-- Node13&#45;&gt;Node12 -->
<g id="edge14" class="edge">
<title>Node13&#45;&gt;Node12</title>
<path fill="none" stroke="#63b8ff" d="M564.14,-57.61C574.55,-46.32 586.57,-33.28 594.35,-24.84"/>
<polygon fill="#63b8ff" stroke="#63b8ff" points="561.82,-54.96 557.62,-64.68 566.97,-59.7 561.82,-54.96"/>
</g>
</g>
</svg>
