<?xml version="1.0" encoding="UTF-8" standalone="no"?>
<!DOCTYPE svg PUBLIC "-//W3C//DTD SVG 1.1//EN"
 "http://www.w3.org/Graphics/SVG/1.1/DTD/svg11.dtd">
<!-- Generated by graphviz version 7.0.5 (20221223.1930)
 -->
<!-- Title: include/Z2AudioLib/Z2AudioMgr.h Pages: 1 -->
<svg width="3380pt" height="423pt"
 viewBox="0.00 0.00 3380.22 423.00" xmlns="http://www.w3.org/2000/svg" xmlns:xlink="http://www.w3.org/1999/xlink">
<g id="graph0" class="graph" transform="scale(1 1) rotate(0) translate(4 419)">
<title>include/Z2AudioLib/Z2AudioMgr.h</title>
<!-- Node1 -->
<g id="node1" class="node">
<title>Node1</title>
<g id="a_node1"><a xlink:title=" ">
<polygon fill="#999999" stroke="#666666" points="3053.22,-415 2953.22,-415 2953.22,-385 3053.22,-385 3053.22,-415"/>
<text text-anchor="start" x="2961.22" y="-403" font-family="Helvetica,sans-Serif" font-size="10.00">include/Z2AudioLib</text>
<text text-anchor="middle" x="3003.22" y="-392" font-family="Helvetica,sans-Serif" font-size="10.00">/Z2AudioMgr.h</text>
</a>
</g>
</g>
<!-- Node2 -->
<g id="node2" class="node">
<title>Node2</title>
<g id="a_node2"><a xlink:href="m__Do__audio_8h.html" target="_top" xlink:title=" ">
<polygon fill="white" stroke="#666666" points="2814.22,-343.5 2674.22,-343.5 2674.22,-324.5 2814.22,-324.5 2814.22,-343.5"/>
<text text-anchor="middle" x="2744.22" y="-331.5" font-family="Helvetica,sans-Serif" font-size="10.00">include/m_Do/m_Do_audio.h</text>
</a>
</g>
</g>
<!-- Node1&#45;&gt;Node2 -->
<g id="edge1" class="edge">
<title>Node1&#45;&gt;Node2</title>
<path fill="none" stroke="#63b8ff" d="M2941.93,-383.86C2891.72,-371.45 2822.36,-354.31 2780.55,-343.98"/>
<polygon fill="#63b8ff" stroke="#63b8ff" points="2940.95,-387.22 2951.5,-386.22 2942.63,-380.42 2940.95,-387.22"/>
</g>
<!-- Node474 -->
<g id="node48" class="node">
<title>Node474</title>
<g id="a_node48"><a xlink:href="Z2AudioMgr_8cpp.html" target="_top" xlink:title=" ">
<polygon fill="white" stroke="#666666" points="2990.22,-343.5 2832.22,-343.5 2832.22,-324.5 2990.22,-324.5 2990.22,-343.5"/>
<text text-anchor="middle" x="2911.22" y="-331.5" font-family="Helvetica,sans-Serif" font-size="10.00">libs/Z2AudioLib/Z2AudioMgr.cpp</text>
</a>
</g>
</g>
<!-- Node1&#45;&gt;Node474 -->
<g id="edge71" class="edge">
<title>Node1&#45;&gt;Node474</title>
<path fill="none" stroke="#63b8ff" d="M2973.4,-378.26C2956.66,-366.61 2936.64,-352.69 2923.93,-343.84"/>
<polygon fill="#63b8ff" stroke="#63b8ff" points="2971.35,-381.09 2981.56,-383.93 2975.34,-375.35 2971.35,-381.09"/>
</g>
<!-- Node475 -->
<g id="node49" class="node">
<title>Node475</title>
<g id="a_node49"><a xlink:href="Z2SoundStarter_8cpp.html" target="_top" xlink:title=" ">
<polygon fill="white" stroke="#666666" points="3181.72,-343.5 3008.72,-343.5 3008.72,-324.5 3181.72,-324.5 3181.72,-343.5"/>
<text text-anchor="middle" x="3095.22" y="-331.5" font-family="Helvetica,sans-Serif" font-size="10.00">libs/Z2AudioLib/Z2SoundStarter.cpp</text>
</a>
</g>
</g>
<!-- Node1&#45;&gt;Node475 -->
<g id="edge72" class="edge">
<title>Node1&#45;&gt;Node475</title>
<path fill="none" stroke="#63b8ff" d="M3033.03,-378.26C3049.77,-366.61 3069.79,-352.69 3082.5,-343.84"/>
<polygon fill="#63b8ff" stroke="#63b8ff" points="3031.09,-375.35 3024.88,-383.93 3035.08,-381.09 3031.09,-375.35"/>
</g>
<!-- Node476 -->
<g id="node50" class="node">
<title>Node476</title>
<g id="a_node50"><a xlink:href="Z2SpeechMgr2_8cpp.html" target="_top" xlink:title=" ">
<polygon fill="white" stroke="#666666" points="3330.72,-349 3199.72,-349 3199.72,-319 3330.72,-319 3330.72,-349"/>
<text text-anchor="start" x="3207.72" y="-337" font-family="Helvetica,sans-Serif" font-size="10.00">libs/Z2AudioLib/Z2Speech</text>
<text text-anchor="middle" x="3265.22" y="-326" font-family="Helvetica,sans-Serif" font-size="10.00">Mgr2.cpp</text>
</a>
</g>
</g>
<!-- Node1&#45;&gt;Node476 -->
<g id="edge73" class="edge">
<title>Node1&#45;&gt;Node476</title>
<path fill="none" stroke="#63b8ff" d="M3064.51,-384.03C3107.19,-373.6 3163.8,-359.77 3206.01,-349.46"/>
<polygon fill="#63b8ff" stroke="#63b8ff" points="3063.78,-380.6 3054.89,-386.38 3065.44,-387.4 3063.78,-380.6"/>
</g>
<!-- Node3 -->
<g id="node3" class="node">
<title>Node3</title>
<g id="a_node3"><a xlink:href="m__Do__ext_8h.html" target="_top" xlink:title=" ">
<polygon fill="white" stroke="#666666" points="1458.22,-283 1328.22,-283 1328.22,-264 1458.22,-264 1458.22,-283"/>
<text text-anchor="middle" x="1393.22" y="-271" font-family="Helvetica,sans-Serif" font-size="10.00">include/m_Do/m_Do_ext.h</text>
</a>
</g>
</g>
<!-- Node2&#45;&gt;Node3 -->
<g id="edge2" class="edge">
<title>Node2&#45;&gt;Node3</title>
<path fill="none" stroke="#63b8ff" d="M2662.58,-329.47C2416,-318.79 1682.03,-287.01 1458.53,-277.33"/>
<polygon fill="#63b8ff" stroke="#63b8ff" points="2662.3,-332.96 2672.44,-329.89 2662.6,-325.96 2662.3,-332.96"/>
</g>
<!-- Node8 -->
<g id="node6" class="node">
<title>Node8</title>
<g id="a_node6"><a xlink:href="d__com__inf__game_8cpp.html" target="_top" xlink:title=" ">
<polygon fill="white" stroke="#666666" points="789.22,-30 681.22,-30 681.22,0 789.22,0 789.22,-30"/>
<text text-anchor="start" x="689.22" y="-18" font-family="Helvetica,sans-Serif" font-size="10.00">src/d/com/d_com_inf</text>
<text text-anchor="middle" x="735.22" y="-7" font-family="Helvetica,sans-Serif" font-size="10.00">_game.cpp</text>
</a>
</g>
</g>
<!-- Node2&#45;&gt;Node8 -->
<g id="edge57" class="edge">
<title>Node2&#45;&gt;Node8</title>
<path fill="none" stroke="#63b8ff" d="M2662.51,-332.59C2259.39,-330.39 492,-318.76 249.22,-283 136.45,-266.39 2.22,-327.98 2.22,-214 2.22,-214 2.22,-214 2.22,-146 2.22,-109.46 -6.65,-89.65 21.22,-66 71.13,-23.63 522.76,-17.14 680.86,-16.16"/>
<polygon fill="#63b8ff" stroke="#63b8ff" points="2662.22,-336.09 2672.24,-332.64 2662.26,-329.09 2662.22,-336.09"/>
</g>
<!-- Node15 -->
<g id="node7" class="node">
<title>Node15</title>
<g id="a_node7"><a xlink:href="d__msg__flow_8cpp.html" target="_top" xlink:title=" ">
<polygon fill="white" stroke="#666666" points="2358.72,-24.5 2225.72,-24.5 2225.72,-5.5 2358.72,-5.5 2358.72,-24.5"/>
<text text-anchor="middle" x="2292.22" y="-12.5" font-family="Helvetica,sans-Serif" font-size="10.00">src/d/msg/d_msg_flow.cpp</text>
</a>
</g>
</g>
<!-- Node2&#45;&gt;Node15 -->
<g id="edge62" class="edge">
<title>Node2&#45;&gt;Node15</title>
<path fill="none" stroke="#63b8ff" d="M2786.01,-320.35C2831.01,-303.83 2896.22,-270.19 2896.22,-214 2896.22,-214 2896.22,-214 2896.22,-146 2896.22,-109.46 2904.9,-89.86 2877.22,-66 2838.66,-32.76 2504.11,-20.95 2358.95,-17.37"/>
<polygon fill="#63b8ff" stroke="#63b8ff" points="2785.05,-316.97 2776.77,-323.59 2787.36,-323.58 2785.05,-316.97"/>
</g>
<!-- Node200 -->
<g id="node11" class="node">
<title>Node200</title>
<g id="a_node11"><a xlink:href="d__name_8cpp.html" target="_top" xlink:title=" ">
<polygon fill="white" stroke="#666666" points="124.22,-90.5 30.22,-90.5 30.22,-71.5 124.22,-71.5 124.22,-90.5"/>
<text text-anchor="middle" x="77.22" y="-78.5" font-family="Helvetica,sans-Serif" font-size="10.00">src/d/d_name.cpp</text>
</a>
</g>
</g>
<!-- Node2&#45;&gt;Node200 -->
<g id="edge58" class="edge">
<title>Node2&#45;&gt;Node200</title>
<path fill="none" stroke="#63b8ff" d="M2662.77,-333C2249.46,-332.8 399.25,-329.3 287.22,-283 185.07,-240.78 104.01,-123.7 82.71,-90.74"/>
<polygon fill="#63b8ff" stroke="#63b8ff" points="2662.49,-336.5 2672.49,-333.01 2662.49,-329.5 2662.49,-336.5"/>
</g>
<!-- Node210 -->
<g id="node12" class="node">
<title>Node210</title>
<g id="a_node12"><a xlink:href="d__event__manager_8cpp.html" target="_top" xlink:title=" ">
<polygon fill="white" stroke="#666666" points="2421.72,-96 2318.72,-96 2318.72,-66 2421.72,-66 2421.72,-96"/>
<text text-anchor="start" x="2326.72" y="-84" font-family="Helvetica,sans-Serif" font-size="10.00">src/d/event/d_event</text>
<text text-anchor="middle" x="2370.22" y="-73" font-family="Helvetica,sans-Serif" font-size="10.00">_manager.cpp</text>
</a>
</g>
</g>
<!-- Node2&#45;&gt;Node210 -->
<g id="edge59" class="edge">
<title>Node2&#45;&gt;Node210</title>
<path fill="none" stroke="#63b8ff" d="M2749.38,-313.03C2758.48,-272.69 2772.21,-181.11 2724.22,-132 2678.37,-85.08 2495.83,-107.35 2431.22,-96 2428.22,-95.47 2425.15,-94.89 2422.06,-94.28"/>
<polygon fill="#63b8ff" stroke="#63b8ff" points="2745.98,-312.2 2747.02,-322.75 2752.78,-313.85 2745.98,-312.2"/>
</g>
<!-- Node215 -->
<g id="node13" class="node">
<title>Node215</title>
<g id="a_node13"><a xlink:href="d__kankyo__wether_8cpp.html" target="_top" xlink:title=" ">
<polygon fill="white" stroke="#666666" points="1134.22,-96 1018.22,-96 1018.22,-66 1134.22,-66 1134.22,-96"/>
<text text-anchor="start" x="1026.22" y="-84" font-family="Helvetica,sans-Serif" font-size="10.00">src/d/kankyo/d_kankyo</text>
<text text-anchor="middle" x="1076.22" y="-73" font-family="Helvetica,sans-Serif" font-size="10.00">_wether.cpp</text>
</a>
</g>
</g>
<!-- Node2&#45;&gt;Node215 -->
<g id="edge61" class="edge">
<title>Node2&#45;&gt;Node215</title>
<path fill="none" stroke="#63b8ff" d="M2662.52,-332.38C2265.08,-328.95 549.55,-309.46 473.22,-228 464.1,-218.27 464.79,-208.33 473.22,-198 478.99,-190.93 786.24,-133.68 795.22,-132 889.59,-114.36 913.85,-113.68 1008.22,-96 1011.41,-95.4 1014.69,-94.77 1018,-94.13"/>
<polygon fill="#63b8ff" stroke="#63b8ff" points="2662.35,-335.87 2672.38,-332.46 2662.41,-328.88 2662.35,-335.87"/>
</g>
<!-- Node231 -->
<g id="node14" class="node">
<title>Node231</title>
<g id="a_node14"><a xlink:href="d__ovlp__fade_8cpp.html" target="_top" xlink:title=" ">
<polygon fill="white" stroke="#666666" points="275.72,-90.5 142.72,-90.5 142.72,-71.5 275.72,-71.5 275.72,-90.5"/>
<text text-anchor="middle" x="209.22" y="-78.5" font-family="Helvetica,sans-Serif" font-size="10.00">src/d/ovlp/d_ovlp_fade.cpp</text>
</a>
</g>
</g>
<!-- Node2&#45;&gt;Node231 -->
<g id="edge63" class="edge">
<title>Node2&#45;&gt;Node231</title>
<path fill="none" stroke="#63b8ff" d="M2662.46,-333.12C2251.64,-333.52 428.02,-332.48 319.22,-283 239.55,-246.77 215.57,-124.37 210.4,-90.66"/>
<polygon fill="#63b8ff" stroke="#63b8ff" points="2662.4,-336.62 2672.4,-333.11 2662.4,-329.62 2662.4,-336.62"/>
</g>
<!-- Node234 -->
<g id="node15" class="node">
<title>Node234</title>
<g id="a_node15"><a xlink:href="d__s__name_8cpp.html" target="_top" xlink:title=" ">
<polygon fill="white" stroke="#666666" points="406.72,-90.5 293.72,-90.5 293.72,-71.5 406.72,-71.5 406.72,-90.5"/>
<text text-anchor="middle" x="350.22" y="-78.5" font-family="Helvetica,sans-Serif" font-size="10.00">src/d/s/d_s_name.cpp</text>
</a>
</g>
</g>
<!-- Node2&#45;&gt;Node234 -->
<g id="edge66" class="edge">
<title>Node2&#45;&gt;Node234</title>
<path fill="none" stroke="#63b8ff" d="M2662.53,-332.75C2278.4,-331.37 661.1,-323.22 439.22,-283 366.47,-269.81 324.99,-288.31 282.22,-228 248.73,-180.79 313.86,-114.47 340.02,-90.81"/>
<polygon fill="#63b8ff" stroke="#63b8ff" points="2662.27,-336.25 2672.29,-332.79 2662.3,-329.25 2662.27,-336.25"/>
</g>
<!-- Node242 -->
<g id="node16" class="node">
<title>Node242</title>
<g id="a_node16"><a xlink:href="m__Do__audio_8cpp.html" target="_top" xlink:title=" ">
<polygon fill="white" stroke="#666666" points="559.22,-90.5 425.22,-90.5 425.22,-71.5 559.22,-71.5 559.22,-90.5"/>
<text text-anchor="middle" x="492.22" y="-78.5" font-family="Helvetica,sans-Serif" font-size="10.00">src/m_Do/m_Do_audio.cpp</text>
</a>
</g>
</g>
<!-- Node2&#45;&gt;Node242 -->
<g id="edge70" class="edge">
<title>Node2&#45;&gt;Node242</title>
<path fill="none" stroke="#63b8ff" d="M2662.54,-332.8C2246.09,-331.38 375.76,-319.89 297.22,-228 242.53,-164.02 390.7,-111.29 459.39,-90.98"/>
<polygon fill="#63b8ff" stroke="#63b8ff" points="2662.33,-336.3 2672.34,-332.83 2662.35,-329.3 2662.33,-336.3"/>
</g>
<!-- Node65 -->
<g id="node23" class="node">
<title>Node65</title>
<g id="a_node23"><a xlink:href="d__kankyo_8cpp.html" target="_top" xlink:title=" ">
<polygon fill="white" stroke="#666666" points="2574.22,-90.5 2440.22,-90.5 2440.22,-71.5 2574.22,-71.5 2574.22,-90.5"/>
<text text-anchor="middle" x="2507.22" y="-78.5" font-family="Helvetica,sans-Serif" font-size="10.00">src/d/kankyo/d_kankyo.cpp</text>
</a>
</g>
</g>
<!-- Node2&#45;&gt;Node65 -->
<g id="edge60" class="edge">
<title>Node2&#45;&gt;Node65</title>
<path fill="none" stroke="#63b8ff" d="M2753.39,-313.64C2770.47,-274.44 2801.65,-184.94 2758.22,-132 2756.59,-130.01 2626.23,-104.79 2554.05,-90.95"/>
<polygon fill="#63b8ff" stroke="#63b8ff" points="2750.22,-312.16 2749.27,-322.71 2756.59,-315.06 2750.22,-312.16"/>
</g>
<!-- Node71 -->
<g id="node24" class="node">
<title>Node71</title>
<g id="a_node24"><a xlink:href="d__s__play_8cpp.html" target="_top" xlink:title=" ">
<polygon fill="white" stroke="#666666" points="2698.22,-90.5 2592.22,-90.5 2592.22,-71.5 2698.22,-71.5 2698.22,-90.5"/>
<text text-anchor="middle" x="2645.22" y="-78.5" font-family="Helvetica,sans-Serif" font-size="10.00">src/d/s/d_s_play.cpp</text>
</a>
</g>
</g>
<!-- Node2&#45;&gt;Node71 -->
<g id="edge67" class="edge">
<title>Node2&#45;&gt;Node71</title>
<path fill="none" stroke="#63b8ff" d="M2767.49,-317.51C2778.41,-308.81 2790.3,-296.9 2796.22,-283 2822.5,-221.25 2835.51,-186.4 2796.22,-132 2789.14,-122.21 2721.18,-102.44 2678.88,-90.91"/>
<polygon fill="#63b8ff" stroke="#63b8ff" points="2765.49,-314.64 2759.53,-323.4 2769.65,-320.26 2765.49,-314.64"/>
</g>
<!-- Node21 -->
<g id="node29" class="node">
<title>Node21</title>
<g id="a_node29"><a xlink:href="d__shop__system_8cpp.html" target="_top" xlink:title=" ">
<polygon fill="white" stroke="#666666" points="2868.22,-90.5 2716.22,-90.5 2716.22,-71.5 2868.22,-71.5 2868.22,-90.5"/>
<text text-anchor="middle" x="2792.22" y="-78.5" font-family="Helvetica,sans-Serif" font-size="10.00">src/d/shop/d_shop_system.cpp</text>
</a>
</g>
</g>
<!-- Node2&#45;&gt;Node21 -->
<g id="edge68" class="edge">
<title>Node2&#45;&gt;Node21</title>
<path fill="none" stroke="#63b8ff" d="M2787.43,-319.95C2805.18,-312.22 2823.96,-300.43 2834.22,-283 2868.25,-225.16 2857.19,-195.06 2834.22,-132 2828.08,-115.17 2813.52,-100.07 2803.27,-90.97"/>
<polygon fill="#63b8ff" stroke="#63b8ff" points="2786.28,-316.64 2778.28,-323.59 2788.87,-323.15 2786.28,-316.64"/>
</g>
<!-- Node80 -->
<g id="node45" class="node">
<title>Node80</title>
<g id="a_node45"><a xlink:href="d__ovlp__fade2_8cpp.html" target="_top" xlink:title=" ">
<polygon fill="white" stroke="#666666" points="3062.22,-283 2924.22,-283 2924.22,-264 3062.22,-264 3062.22,-283"/>
<text text-anchor="middle" x="2993.22" y="-271" font-family="Helvetica,sans-Serif" font-size="10.00">src/d/ovlp/d_ovlp_fade2.cpp</text>
</a>
</g>
</g>
<!-- Node2&#45;&gt;Node80 -->
<g id="edge64" class="edge">
<title>Node2&#45;&gt;Node80</title>
<path fill="none" stroke="#63b8ff" d="M2793.25,-321.48C2840.73,-310.32 2911.75,-293.64 2955.13,-283.45"/>
<polygon fill="#63b8ff" stroke="#63b8ff" points="2792.71,-318.01 2783.78,-323.71 2794.31,-324.83 2792.71,-318.01"/>
</g>
<!-- Node82 -->
<g id="node46" class="node">
<title>Node82</title>
<g id="a_node46"><a xlink:href="d__ovlp__fade3_8cpp.html" target="_top" xlink:title=" ">
<polygon fill="white" stroke="#666666" points="3218.22,-283 3080.22,-283 3080.22,-264 3218.22,-264 3218.22,-283"/>
<text text-anchor="middle" x="3149.22" y="-271" font-family="Helvetica,sans-Serif" font-size="10.00">src/d/ovlp/d_ovlp_fade3.cpp</text>
</a>
</g>
</g>
<!-- Node2&#45;&gt;Node82 -->
<g id="edge65" class="edge">
<title>Node2&#45;&gt;Node82</title>
<path fill="none" stroke="#63b8ff" d="M2803.92,-322.16C2810.43,-321.06 2816.96,-319.98 2823.22,-319 2911.53,-305.15 3013.7,-291.6 3079.78,-283.17"/>
<polygon fill="#63b8ff" stroke="#63b8ff" points="2803.8,-318.63 2794.54,-323.78 2804.99,-325.53 2803.8,-318.63"/>
</g>
<!-- Node473 -->
<g id="node47" class="node">
<title>Node473</title>
<g id="a_node47"><a xlink:href="m__Do__Reset_8cpp.html" target="_top" xlink:title=" ">
<polygon fill="white" stroke="#666666" points="3372.22,-283 3236.22,-283 3236.22,-264 3372.22,-264 3372.22,-283"/>
<text text-anchor="middle" x="3304.22" y="-271" font-family="Helvetica,sans-Serif" font-size="10.00">src/m_Do/m_Do_Reset.cpp</text>
</a>
</g>
</g>
<!-- Node2&#45;&gt;Node473 -->
<g id="edge69" class="edge">
<title>Node2&#45;&gt;Node473</title>
<path fill="none" stroke="#63b8ff" d="M2802.25,-322.13C2809.3,-320.98 2816.41,-319.9 2823.22,-319 3001.91,-295.25 3047.84,-300.89 3227.22,-283 3230.03,-282.72 3232.89,-282.43 3235.79,-282.13"/>
<polygon fill="#63b8ff" stroke="#63b8ff" points="2801.67,-318.67 2792.39,-323.79 2802.83,-325.58 2801.67,-318.67"/>
</g>
<!-- Node4 -->
<g id="node4" class="node">
<title>Node4</title>
<g id="a_node4"><a xlink:href="d__attention_8h.html" target="_top" xlink:title=" ">
<polygon fill="white" stroke="#666666" points="912.22,-222.5 798.22,-222.5 798.22,-203.5 912.22,-203.5 912.22,-222.5"/>
<text text-anchor="middle" x="855.22" y="-210.5" font-family="Helvetica,sans-Serif" font-size="10.00">include/d/d_attention.h</text>
</a>
</g>
</g>
<!-- Node3&#45;&gt;Node4 -->
<g id="edge3" class="edge">
<title>Node3&#45;&gt;Node4</title>
<path fill="none" stroke="#63b8ff" d="M1316.68,-268C1223.04,-261.87 1059.86,-249.17 921.22,-228 912.3,-226.64 902.78,-224.83 893.82,-222.97"/>
<polygon fill="#63b8ff" stroke="#63b8ff" points="1316.31,-271.48 1326.52,-268.64 1316.76,-264.5 1316.31,-271.48"/>
</g>
<!-- Node178 -->
<g id="node9" class="node">
<title>Node178</title>
<g id="a_node9"><a xlink:href="c__dylink_8cpp.html" target="_top" xlink:title=" ">
<polygon fill="white" stroke="#666666" points="858.72,-90.5 763.72,-90.5 763.72,-71.5 858.72,-71.5 858.72,-90.5"/>
<text text-anchor="middle" x="811.22" y="-78.5" font-family="Helvetica,sans-Serif" font-size="10.00">src/c/c_dylink.cpp</text>
</a>
</g>
</g>
<!-- Node3&#45;&gt;Node178 -->
<g id="edge45" class="edge">
<title>Node3&#45;&gt;Node178</title>
<path fill="none" stroke="#63b8ff" d="M1364.47,-258.75C1330.51,-242.82 1272.07,-216.43 1220.22,-198 1148.93,-172.66 929.54,-113.52 844.96,-90.96"/>
<polygon fill="#63b8ff" stroke="#63b8ff" points="1362.69,-261.78 1373.22,-262.88 1365.67,-255.45 1362.69,-261.78"/>
</g>
<!-- Node243 -->
<g id="node17" class="node">
<title>Node243</title>
<g id="a_node17"><a xlink:href="m__Do__ext_8cpp.html" target="_top" xlink:title=" ">
<polygon fill="white" stroke="#666666" points="999.72,-90.5 876.72,-90.5 876.72,-71.5 999.72,-71.5 999.72,-90.5"/>
<text text-anchor="middle" x="938.22" y="-78.5" font-family="Helvetica,sans-Serif" font-size="10.00">src/m_Do/m_Do_ext.cpp</text>
</a>
</g>
</g>
<!-- Node3&#45;&gt;Node243 -->
<g id="edge53" class="edge">
<title>Node3&#45;&gt;Node243</title>
<path fill="none" stroke="#63b8ff" d="M1371.36,-257.05C1359.63,-248.63 1344.99,-237.93 1332.22,-228 1279.38,-186.93 1277,-160 1216.22,-132 1131.4,-92.92 1101.03,-113.03 1009.22,-96 1000.69,-94.42 991.61,-92.67 982.88,-90.97"/>
<polygon fill="#63b8ff" stroke="#63b8ff" points="1369.02,-259.68 1379.2,-262.64 1373.09,-253.98 1369.02,-259.68"/>
</g>
<!-- Node246 -->
<g id="node18" class="node">
<title>Node246</title>
<g id="a_node18"><a xlink:href="m__Do__machine__exception_8cpp.html" target="_top" xlink:title=" ">
<polygon fill="white" stroke="#666666" points="706.72,-96 577.72,-96 577.72,-66 706.72,-66 706.72,-96"/>
<text text-anchor="start" x="585.72" y="-84" font-family="Helvetica,sans-Serif" font-size="10.00">src/m_Do/m_Do_machine</text>
<text text-anchor="middle" x="642.22" y="-73" font-family="Helvetica,sans-Serif" font-size="10.00">_exception.cpp</text>
</a>
</g>
</g>
<!-- Node3&#45;&gt;Node246 -->
<g id="edge55" class="edge">
<title>Node3&#45;&gt;Node246</title>
<path fill="none" stroke="#63b8ff" d="M1316.25,-272.23C1074.16,-271.01 342.09,-264.33 307.22,-228 297.98,-218.38 299.48,-208.86 307.22,-198 339.08,-153.25 489.38,-114.51 577.46,-95.15"/>
<polygon fill="#63b8ff" stroke="#63b8ff" points="1316.22,-275.73 1326.24,-272.28 1316.25,-268.73 1316.22,-275.73"/>
</g>
<!-- Node250 -->
<g id="node20" class="node">
<title>Node250</title>
<g id="a_node20"><a xlink:href="d__drawlist_8h.html" target="_top" xlink:title=" ">
<polygon fill="#fff0f0" stroke="red" points="2716.22,-222.5 2606.22,-222.5 2606.22,-203.5 2716.22,-203.5 2716.22,-222.5"/>
<text text-anchor="middle" x="2661.22" y="-210.5" font-family="Helvetica,sans-Serif" font-size="10.00">include/d/d_drawlist.h</text>
</a>
</g>
</g>
<!-- Node3&#45;&gt;Node250 -->
<g id="edge21" class="edge">
<title>Node3&#45;&gt;Node250</title>
<path fill="none" stroke="#63b8ff" d="M1469.7,-271.29C1698.23,-267.43 2373.56,-254.06 2592.22,-228 2602.17,-226.81 2612.82,-224.95 2622.71,-222.97"/>
<polygon fill="#63b8ff" stroke="#63b8ff" points="1469.97,-267.79 1460.03,-271.46 1470.09,-274.79 1469.97,-267.79"/>
</g>
<!-- Node254 -->
<g id="node22" class="node">
<title>Node254</title>
<g id="a_node22"><a xlink:href="d__a__do_8h.html" target="_top" xlink:title=" ">
<polygon fill="white" stroke="#666666" points="2221.22,-96 2125.22,-96 2125.22,-66 2221.22,-66 2221.22,-96"/>
<text text-anchor="start" x="2133.22" y="-84" font-family="Helvetica,sans-Serif" font-size="10.00">include/rel/d/a/d_a</text>
<text text-anchor="middle" x="2173.22" y="-73" font-family="Helvetica,sans-Serif" font-size="10.00">_do/d_a_do.h</text>
</a>
</g>
</g>
<!-- Node3&#45;&gt;Node254 -->
<g id="edge41" class="edge">
<title>Node3&#45;&gt;Node254</title>
<path fill="none" stroke="#63b8ff" d="M1469.77,-272.46C1723.27,-271.96 2521.43,-267.26 2559.22,-228 2568.46,-218.39 2568.26,-207.8 2559.22,-198 2491.64,-124.76 2179.79,-235.24 2112.22,-162 2092.32,-140.43 2124.81,-112.72 2149.49,-96.22"/>
<polygon fill="#63b8ff" stroke="#63b8ff" points="1469.98,-268.96 1459.99,-272.48 1469.99,-275.96 1469.98,-268.96"/>
</g>
<!-- Node170 -->
<g id="node25" class="node">
<title>Node170</title>
<g id="a_node25"><a xlink:href="f__op__actor__mng_8cpp.html" target="_top" xlink:title=" ">
<polygon fill="white" stroke="#666666" points="1947.72,-96 1846.72,-96 1846.72,-66 1947.72,-66 1947.72,-96"/>
<text text-anchor="start" x="1854.72" y="-84" font-family="Helvetica,sans-Serif" font-size="10.00">src/f_op/f_op_actor</text>
<text text-anchor="middle" x="1897.22" y="-73" font-family="Helvetica,sans-Serif" font-size="10.00">_mng.cpp</text>
</a>
</g>
</g>
<!-- Node3&#45;&gt;Node170 -->
<g id="edge49" class="edge">
<title>Node3&#45;&gt;Node170</title>
<path fill="none" stroke="#63b8ff" d="M1380.11,-254.17C1370.19,-237.84 1360.29,-214.1 1373.22,-198 1403.11,-160.76 1721.14,-108.78 1846.67,-89.54"/>
<polygon fill="#63b8ff" stroke="#63b8ff" points="1377.13,-256 1385.56,-262.42 1382.97,-252.14 1377.13,-256"/>
</g>
<!-- Node298 -->
<g id="node31" class="node">
<title>Node298</title>
<g id="a_node31"><a xlink:href="d__ky__thunder_8h.html" target="_top" xlink:title=" ">
<polygon fill="#fff0f0" stroke="red" points="1054.22,-222.5 930.22,-222.5 930.22,-203.5 1054.22,-203.5 1054.22,-222.5"/>
<text text-anchor="middle" x="992.22" y="-210.5" font-family="Helvetica,sans-Serif" font-size="10.00">include/d/d_ky_thunder.h</text>
</a>
</g>
</g>
<!-- Node3&#45;&gt;Node298 -->
<g id="edge35" class="edge">
<title>Node3&#45;&gt;Node298</title>
<path fill="none" stroke="#63b8ff" d="M1316.63,-263.51C1249.62,-255.32 1149.74,-242.35 1063.22,-228 1054.17,-226.5 1044.51,-224.72 1035.32,-222.93"/>
<polygon fill="#63b8ff" stroke="#63b8ff" points="1316.07,-266.97 1326.42,-264.7 1316.91,-260.02 1316.07,-266.97"/>
</g>
<!-- Node299 -->
<g id="node32" class="node">
<title>Node299</title>
<g id="a_node32"><a xlink:href="d__resorce_8h.html" target="_top" xlink:title=" ">
<polygon fill="#fff0f0" stroke="red" points="425.72,-222.5 316.72,-222.5 316.72,-203.5 425.72,-203.5 425.72,-222.5"/>
<text text-anchor="middle" x="371.22" y="-210.5" font-family="Helvetica,sans-Serif" font-size="10.00">include/d/d_resorce.h</text>
</a>
</g>
</g>
<!-- Node3&#45;&gt;Node299 -->
<g id="edge36" class="edge">
<title>Node3&#45;&gt;Node299</title>
<path fill="none" stroke="#63b8ff" d="M1316.36,-271.07C1158.22,-267.62 785.06,-256.89 473.22,-228 457.91,-226.58 441.38,-224.54 426.17,-222.45"/>
<polygon fill="#63b8ff" stroke="#63b8ff" points="1316.24,-274.57 1326.31,-271.28 1316.39,-267.57 1316.24,-274.57"/>
</g>
<!-- Node300 -->
<g id="node33" class="node">
<title>Node300</title>
<g id="a_node33"><a xlink:href="d__kankyo_8h.html" target="_top" xlink:title=" ">
<polygon fill="#fff0f0" stroke="red" points="1442.22,-162 1344.22,-162 1344.22,-132 1442.22,-132 1442.22,-162"/>
<text text-anchor="start" x="1352.22" y="-150" font-family="Helvetica,sans-Serif" font-size="10.00">include/d/kankyo/d</text>
<text text-anchor="middle" x="1393.22" y="-139" font-family="Helvetica,sans-Serif" font-size="10.00">_kankyo.h</text>
</a>
</g>
</g>
<!-- Node3&#45;&gt;Node300 -->
<g id="edge38" class="edge">
<title>Node3&#45;&gt;Node300</title>
<path fill="none" stroke="#63b8ff" d="M1366.58,-257.25C1356.35,-249.86 1345.79,-239.97 1340.22,-228 1334.58,-215.92 1334.93,-210.24 1340.22,-198 1346.48,-183.48 1359.26,-171.22 1370.7,-162.47"/>
<polygon fill="#63b8ff" stroke="#63b8ff" points="1364.58,-260.13 1374.85,-262.73 1368.44,-254.29 1364.58,-260.13"/>
</g>
<!-- Node444 -->
<g id="node34" class="node">
<title>Node444</title>
<g id="a_node34"><a xlink:href="d__a__mg__fshop_8h.html" target="_top" xlink:title=" ">
<polygon fill="white" stroke="#666666" points="1211.72,-228 1072.72,-228 1072.72,-198 1211.72,-198 1211.72,-228"/>
<text text-anchor="start" x="1080.72" y="-216" font-family="Helvetica,sans-Serif" font-size="10.00">include/rel/d/a/d_a</text>
<text text-anchor="middle" x="1142.22" y="-205" font-family="Helvetica,sans-Serif" font-size="10.00">_mg_fshop/d_a_mg_fshop.h</text>
</a>
</g>
</g>
<!-- Node3&#45;&gt;Node444 -->
<g id="edge42" class="edge">
<title>Node3&#45;&gt;Node444</title>
<path fill="none" stroke="#63b8ff" d="M1343.73,-260.97C1303.68,-251.63 1247.06,-238.44 1204.03,-228.41"/>
<polygon fill="#63b8ff" stroke="#63b8ff" points="1342.81,-264.35 1353.35,-263.21 1344.4,-257.53 1342.81,-264.35"/>
</g>
<!-- Node364 -->
<g id="node35" class="node">
<title>Node364</title>
<g id="a_node35"><a xlink:href="d__a__myna_8h.html" target="_top" xlink:title=" ">
<polygon fill="white" stroke="#666666" points="1482.22,-228 1382.22,-228 1382.22,-198 1482.22,-198 1482.22,-228"/>
<text text-anchor="start" x="1390.22" y="-216" font-family="Helvetica,sans-Serif" font-size="10.00">include/rel/d/a/d_a</text>
<text text-anchor="middle" x="1432.22" y="-205" font-family="Helvetica,sans-Serif" font-size="10.00">_myna/d_a_myna.h</text>
</a>
</g>
</g>
<!-- Node3&#45;&gt;Node364 -->
<g id="edge43" class="edge">
<title>Node3&#45;&gt;Node364</title>
<path fill="none" stroke="#63b8ff" d="M1405.22,-254.5C1410.87,-246.01 1417.52,-236.04 1422.81,-228.11"/>
<polygon fill="#63b8ff" stroke="#63b8ff" points="1402.44,-252.35 1399.81,-262.61 1408.27,-256.23 1402.44,-252.35"/>
</g>
<!-- Node464 -->
<g id="node36" class="node">
<title>Node464</title>
<g id="a_node36"><a xlink:href="DynamicLink_8cpp.html" target="_top" xlink:title=" ">
<polygon fill="white" stroke="#666666" points="1607.72,-222.5 1500.72,-222.5 1500.72,-203.5 1607.72,-203.5 1607.72,-222.5"/>
<text text-anchor="middle" x="1554.22" y="-210.5" font-family="Helvetica,sans-Serif" font-size="10.00">src/DynamicLink.cpp</text>
</a>
</g>
</g>
<!-- Node3&#45;&gt;Node464 -->
<g id="edge44" class="edge">
<title>Node3&#45;&gt;Node464</title>
<path fill="none" stroke="#63b8ff" d="M1428.3,-259.75C1458.89,-248.64 1502.49,-232.8 1529.53,-222.97"/>
<polygon fill="#63b8ff" stroke="#63b8ff" points="1427.29,-256.39 1419.09,-263.1 1429.68,-262.97 1427.29,-256.39"/>
</g>
<!-- Node465 -->
<g id="node37" class="node">
<title>Node465</title>
<g id="a_node37"><a xlink:href="d__meter__HIO_8cpp.html" target="_top" xlink:title=" ">
<polygon fill="white" stroke="#666666" points="1730.22,-228 1626.22,-228 1626.22,-198 1730.22,-198 1730.22,-228"/>
<text text-anchor="start" x="1634.22" y="-216" font-family="Helvetica,sans-Serif" font-size="10.00">src/d/meter/d_meter</text>
<text text-anchor="middle" x="1678.22" y="-205" font-family="Helvetica,sans-Serif" font-size="10.00">_HIO.cpp</text>
</a>
</g>
</g>
<!-- Node3&#45;&gt;Node465 -->
<g id="edge46" class="edge">
<title>Node3&#45;&gt;Node465</title>
<path fill="none" stroke="#63b8ff" d="M1450.87,-261.41C1495.95,-252.64 1560.15,-239.92 1616.22,-228 1619.35,-227.33 1622.56,-226.64 1625.81,-225.93"/>
<polygon fill="#63b8ff" stroke="#63b8ff" points="1450.48,-257.92 1441.33,-263.26 1451.81,-264.79 1450.48,-257.92"/>
</g>
<!-- Node466 -->
<g id="node38" class="node">
<title>Node466</title>
<g id="a_node38"><a xlink:href="d__pane__class_8cpp.html" target="_top" xlink:title=" ">
<polygon fill="white" stroke="#666666" points="1891.72,-222.5 1748.72,-222.5 1748.72,-203.5 1891.72,-203.5 1891.72,-222.5"/>
<text text-anchor="middle" x="1820.22" y="-210.5" font-family="Helvetica,sans-Serif" font-size="10.00">src/d/pane/d_pane_class.cpp</text>
</a>
</g>
</g>
<!-- Node3&#45;&gt;Node466 -->
<g id="edge47" class="edge">
<title>Node3&#45;&gt;Node466</title>
<path fill="none" stroke="#63b8ff" d="M1470.08,-263.58C1540.28,-255.2 1646.89,-241.91 1739.22,-228 1749.38,-226.47 1760.23,-224.69 1770.58,-222.93"/>
<polygon fill="#63b8ff" stroke="#63b8ff" points="1469.72,-260.1 1460.2,-264.75 1470.54,-267.05 1469.72,-260.1"/>
</g>
<!-- Node467 -->
<g id="node39" class="node">
<title>Node467</title>
<g id="a_node39"><a xlink:href="d__pane__class__alpha_8cpp.html" target="_top" xlink:title=" ">
<polygon fill="white" stroke="#666666" points="2034.72,-228 1909.72,-228 1909.72,-198 2034.72,-198 2034.72,-228"/>
<text text-anchor="start" x="1917.72" y="-216" font-family="Helvetica,sans-Serif" font-size="10.00">src/d/pane/d_pane_class</text>
<text text-anchor="middle" x="1972.22" y="-205" font-family="Helvetica,sans-Serif" font-size="10.00">_alpha.cpp</text>
</a>
</g>
</g>
<!-- Node3&#45;&gt;Node467 -->
<g id="edge48" class="edge">
<title>Node3&#45;&gt;Node467</title>
<path fill="none" stroke="#63b8ff" d="M1470.14,-268.26C1569.73,-262.19 1748.51,-249.35 1900.22,-228 1903.24,-227.57 1906.33,-227.11 1909.45,-226.6"/>
<polygon fill="#63b8ff" stroke="#63b8ff" points="1469.97,-264.76 1460.2,-268.86 1470.39,-271.75 1469.97,-264.76"/>
</g>
<!-- Node468 -->
<g id="node40" class="node">
<title>Node468</title>
<g id="a_node40"><a xlink:href="m__Do__DVDError_8cpp.html" target="_top" xlink:title=" ">
<polygon fill="white" stroke="#666666" points="2203.72,-222.5 2052.72,-222.5 2052.72,-203.5 2203.72,-203.5 2203.72,-222.5"/>
<text text-anchor="middle" x="2128.22" y="-210.5" font-family="Helvetica,sans-Serif" font-size="10.00">src/m_Do/m_Do_DVDError.cpp</text>
</a>
</g>
</g>
<!-- Node3&#45;&gt;Node468 -->
<g id="edge50" class="edge">
<title>Node3&#45;&gt;Node468</title>
<path fill="none" stroke="#63b8ff" d="M1469.84,-269.61C1591.62,-264.49 1836.69,-252.02 2043.22,-228 2054.8,-226.65 2067.22,-224.83 2078.89,-222.94"/>
<polygon fill="#63b8ff" stroke="#63b8ff" points="1469.8,-266.11 1459.96,-270.02 1470.09,-273.1 1469.8,-266.11"/>
</g>
<!-- Node469 -->
<g id="node41" class="node">
<title>Node469</title>
<g id="a_node41"><a xlink:href="m__Do__MemCard_8cpp.html" target="_top" xlink:title=" ">
<polygon fill="white" stroke="#666666" points="2374.22,-222.5 2222.22,-222.5 2222.22,-203.5 2374.22,-203.5 2374.22,-222.5"/>
<text text-anchor="middle" x="2298.22" y="-210.5" font-family="Helvetica,sans-Serif" font-size="10.00">src/m_Do/m_Do_MemCard.cpp</text>
</a>
</g>
</g>
<!-- Node3&#45;&gt;Node469 -->
<g id="edge51" class="edge">
<title>Node3&#45;&gt;Node469</title>
<path fill="none" stroke="#63b8ff" d="M1470.11,-271.07C1615.45,-267.75 1940.33,-257.43 2212.22,-228 2224.1,-226.71 2236.83,-224.89 2248.77,-222.98"/>
<polygon fill="#63b8ff" stroke="#63b8ff" points="1470.13,-267.56 1460.21,-271.29 1470.29,-274.56 1470.13,-267.56"/>
</g>
<!-- Node470 -->
<g id="node42" class="node">
<title>Node470</title>
<g id="a_node42"><a xlink:href="m__Do__dvd__thread_8cpp.html" target="_top" xlink:title=" ">
<polygon fill="white" stroke="#666666" points="2550.22,-222.5 2392.22,-222.5 2392.22,-203.5 2550.22,-203.5 2550.22,-222.5"/>
<text text-anchor="middle" x="2471.22" y="-210.5" font-family="Helvetica,sans-Serif" font-size="10.00">src/m_Do/m_Do_dvd_thread.cpp</text>
</a>
</g>
</g>
<!-- Node3&#45;&gt;Node470 -->
<g id="edge52" class="edge">
<title>Node3&#45;&gt;Node470</title>
<path fill="none" stroke="#63b8ff" d="M1469.65,-272C1636.12,-270.26 2043.76,-262.52 2383.22,-228 2395.53,-226.75 2408.74,-224.91 2421.08,-222.98"/>
<polygon fill="#63b8ff" stroke="#63b8ff" points="1470.04,-268.49 1460.07,-272.09 1470.11,-275.49 1470.04,-268.49"/>
</g>
<!-- Node471 -->
<g id="node43" class="node">
<title>Node471</title>
<g id="a_node43"><a xlink:href="m__Do__machine_8cpp.html" target="_top" xlink:title=" ">
<polygon fill="white" stroke="#666666" points="629.72,-222.5 482.72,-222.5 482.72,-203.5 629.72,-203.5 629.72,-222.5"/>
<text text-anchor="middle" x="556.22" y="-210.5" font-family="Helvetica,sans-Serif" font-size="10.00">src/m_Do/m_Do_machine.cpp</text>
</a>
</g>
</g>
<!-- Node3&#45;&gt;Node471 -->
<g id="edge54" class="edge">
<title>Node3&#45;&gt;Node471</title>
<path fill="none" stroke="#63b8ff" d="M1316.83,-270.72C1180.41,-266.94 886.02,-256.02 639.22,-228 627.74,-226.7 615.45,-224.87 603.93,-222.96"/>
<polygon fill="#63b8ff" stroke="#63b8ff" points="1316.35,-274.21 1326.45,-270.98 1316.55,-267.21 1316.35,-274.21"/>
</g>
<!-- Node472 -->
<g id="node44" class="node">
<title>Node472</title>
<g id="a_node44"><a xlink:href="m__Do__printf_8cpp.html" target="_top" xlink:title=" ">
<polygon fill="white" stroke="#666666" points="780.22,-222.5 648.22,-222.5 648.22,-203.5 780.22,-203.5 780.22,-222.5"/>
<text text-anchor="middle" x="714.22" y="-210.5" font-family="Helvetica,sans-Serif" font-size="10.00">src/m_Do/m_Do_printf.cpp</text>
</a>
</g>
</g>
<!-- Node3&#45;&gt;Node472 -->
<g id="edge56" class="edge">
<title>Node3&#45;&gt;Node472</title>
<path fill="none" stroke="#63b8ff" d="M1316.26,-269.57C1201.22,-264.57 977.73,-252.46 789.22,-228 778.97,-226.67 768,-224.85 757.71,-222.96"/>
<polygon fill="#63b8ff" stroke="#63b8ff" points="1316.08,-273.06 1326.22,-269.99 1316.37,-266.07 1316.08,-273.06"/>
</g>
<!-- Node5 -->
<g id="node5" class="node">
<title>Node5</title>
<g id="a_node5"><a xlink:href="d__a__alink_8h.html" target="_top" xlink:title=" ">
<polygon fill="#fff0f0" stroke="red" points="1747.22,-90.5 1631.22,-90.5 1631.22,-71.5 1747.22,-71.5 1747.22,-90.5"/>
<text text-anchor="middle" x="1689.22" y="-78.5" font-family="Helvetica,sans-Serif" font-size="10.00">include/d/a/d_a_alink.h</text>
</a>
</g>
</g>
<!-- Node4&#45;&gt;Node5 -->
<g id="edge4" class="edge">
<title>Node4&#45;&gt;Node5</title>
<path fill="none" stroke="#63b8ff" d="M907.07,-200.74C911.85,-199.78 916.62,-198.85 921.22,-198 1185.05,-149.02 1502.78,-106.09 1631.19,-89.41"/>
<polygon fill="#63b8ff" stroke="#63b8ff" points="906.57,-197.27 897.47,-202.71 907.97,-204.13 906.57,-197.27"/>
</g>
<!-- Node18 -->
<g id="node8" class="node">
<title>Node18</title>
<g id="a_node8"><a xlink:href="d__com__inf__game_8h.html" target="_top" xlink:title=" ">
<polygon fill="#fff0f0" stroke="red" points="622.22,-162 512.22,-162 512.22,-132 622.22,-132 622.22,-162"/>
<text text-anchor="start" x="520.22" y="-150" font-family="Helvetica,sans-Serif" font-size="10.00">include/d/com/d_com</text>
<text text-anchor="middle" x="567.22" y="-139" font-family="Helvetica,sans-Serif" font-size="10.00">_inf_game.h</text>
</a>
</g>
</g>
<!-- Node4&#45;&gt;Node18 -->
<g id="edge7" class="edge">
<title>Node4&#45;&gt;Node18</title>
<path fill="none" stroke="#63b8ff" d="M803.78,-200.57C752.78,-189.24 674.9,-171.93 622.58,-160.3"/>
<polygon fill="#63b8ff" stroke="#63b8ff" points="802.87,-203.95 813.39,-202.71 804.39,-197.12 802.87,-203.95"/>
</g>
<!-- Node187 -->
<g id="node10" class="node">
<title>Node187</title>
<g id="a_node10"><a xlink:href="d__attention_8cpp.html" target="_top" xlink:title=" ">
<polygon fill="white" stroke="#666666" points="1293.72,-90.5 1186.72,-90.5 1186.72,-71.5 1293.72,-71.5 1293.72,-90.5"/>
<text text-anchor="middle" x="1240.22" y="-78.5" font-family="Helvetica,sans-Serif" font-size="10.00">src/d/d_attention.cpp</text>
</a>
</g>
</g>
<!-- Node4&#45;&gt;Node187 -->
<g id="edge20" class="edge">
<title>Node4&#45;&gt;Node187</title>
<path fill="none" stroke="#63b8ff" d="M892.34,-199.46C969.65,-173.36 1146.33,-113.7 1213.57,-91"/>
<polygon fill="#63b8ff" stroke="#63b8ff" points="891.47,-196.07 883.11,-202.58 893.71,-202.7 891.47,-196.07"/>
</g>
<!-- Node249 -->
<g id="node19" class="node">
<title>Node249</title>
<g id="a_node19"><a xlink:href="d__att__dist_8cpp.html" target="_top" xlink:title=" ">
<polygon fill="white" stroke="#666666" points="906.22,-156.5 804.22,-156.5 804.22,-137.5 906.22,-137.5 906.22,-156.5"/>
<text text-anchor="middle" x="855.22" y="-144.5" font-family="Helvetica,sans-Serif" font-size="10.00">src/d/d_att_dist.cpp</text>
</a>
</g>
</g>
<!-- Node4&#45;&gt;Node249 -->
<g id="edge19" class="edge">
<title>Node4&#45;&gt;Node249</title>
<path fill="none" stroke="#63b8ff" d="M855.22,-191.68C855.22,-179.94 855.22,-165.77 855.22,-156.82"/>
<polygon fill="#63b8ff" stroke="#63b8ff" points="851.72,-191.59 855.22,-201.59 858.72,-191.59 851.72,-191.59"/>
</g>
<!-- Node5&#45;&gt;Node8 -->
<g id="edge5" class="edge">
<title>Node5&#45;&gt;Node8</title>
<path fill="none" stroke="#63b8ff" d="M1619.73,-75.34C1438.28,-63.17 953.02,-30.61 789.71,-19.66"/>
<polygon fill="#63b8ff" stroke="#63b8ff" points="1619.25,-78.81 1629.46,-75.99 1619.72,-71.83 1619.25,-78.81"/>
</g>
<!-- Node5&#45;&gt;Node15 -->
<g id="edge6" class="edge">
<title>Node5&#45;&gt;Node15</title>
<path fill="none" stroke="#63b8ff" d="M1758.88,-72.61C1875.95,-60.18 2110.62,-35.27 2225.61,-23.07"/>
<polygon fill="#63b8ff" stroke="#63b8ff" points="1758.66,-69.11 1749.09,-73.65 1759.4,-76.07 1758.66,-69.11"/>
</g>
<!-- Node18&#45;&gt;Node8 -->
<g id="edge9" class="edge">
<title>Node18&#45;&gt;Node8</title>
<path fill="none" stroke="#63b8ff" d="M633.36,-130.3C667.15,-121.02 703.56,-108.64 715.22,-96 731.91,-77.9 735.2,-48.01 735.56,-30.34"/>
<polygon fill="#63b8ff" stroke="#63b8ff" points="632.74,-126.85 623.98,-132.81 634.55,-133.61 632.74,-126.85"/>
</g>
<!-- Node18&#45;&gt;Node178 -->
<g id="edge8" class="edge">
<title>Node18&#45;&gt;Node178</title>
<path fill="none" stroke="#63b8ff" d="M633.16,-128.7C679.6,-116.52 739.89,-100.71 777.04,-90.96"/>
<polygon fill="#63b8ff" stroke="#63b8ff" points="632.53,-125.25 623.74,-131.17 634.3,-132.02 632.53,-125.25"/>
</g>
<!-- Node18&#45;&gt;Node187 -->
<g id="edge10" class="edge">
<title>Node18&#45;&gt;Node187</title>
<path fill="none" stroke="#63b8ff" d="M633.81,-141.45C741.21,-133.84 959.22,-117.25 1143.22,-96 1157.24,-94.38 1172.37,-92.34 1186.41,-90.32"/>
<polygon fill="#63b8ff" stroke="#63b8ff" points="633.76,-137.95 624.03,-142.14 634.25,-144.93 633.76,-137.95"/>
</g>
<!-- Node18&#45;&gt;Node200 -->
<g id="edge11" class="edge">
<title>Node18&#45;&gt;Node200</title>
<path fill="none" stroke="#63b8ff" d="M500.36,-141.02C414.78,-134.02 262.17,-119.44 133.22,-96 125.62,-94.62 117.53,-92.8 109.93,-90.94"/>
<polygon fill="#63b8ff" stroke="#63b8ff" points="499.97,-144.5 510.22,-141.81 500.53,-137.52 499.97,-144.5"/>
</g>
<!-- Node18&#45;&gt;Node210 -->
<g id="edge12" class="edge">
<title>Node18&#45;&gt;Node210</title>
<path fill="none" stroke="#63b8ff" d="M633.96,-141.26C679.39,-138.19 740.91,-134.35 795.22,-132 1432.6,-104.45 1593.48,-135.77 2230.22,-96 2259.47,-94.17 2292.06,-90.98 2318.43,-88.11"/>
<polygon fill="#63b8ff" stroke="#63b8ff" points="633.72,-137.77 623.98,-141.94 634.2,-144.75 633.72,-137.77"/>
</g>
<!-- Node18&#45;&gt;Node215 -->
<g id="edge13" class="edge">
<title>Node18&#45;&gt;Node215</title>
<path fill="none" stroke="#63b8ff" d="M633.68,-132.39C634.53,-132.25 635.38,-132.13 636.22,-132 800.5,-107.45 843.97,-120.78 1008.22,-96 1011.43,-95.51 1014.73,-94.98 1018.05,-94.4"/>
<polygon fill="#63b8ff" stroke="#63b8ff" points="633.27,-128.91 623.98,-134.01 634.42,-135.81 633.27,-128.91"/>
</g>
<!-- Node18&#45;&gt;Node231 -->
<g id="edge14" class="edge">
<title>Node18&#45;&gt;Node231</title>
<path fill="none" stroke="#63b8ff" d="M500.78,-134.45C443.41,-124.43 358.31,-109.46 284.22,-96 275.35,-94.39 265.91,-92.65 256.81,-90.96"/>
<polygon fill="#63b8ff" stroke="#63b8ff" points="499.93,-137.85 510.38,-136.13 501.13,-130.96 499.93,-137.85"/>
</g>
<!-- Node18&#45;&gt;Node234 -->
<g id="edge15" class="edge">
<title>Node18&#45;&gt;Node234</title>
<path fill="none" stroke="#63b8ff" d="M507.26,-128.32C466.14,-116.19 413.3,-100.61 380.61,-90.96"/>
<polygon fill="#63b8ff" stroke="#63b8ff" points="506.21,-131.66 516.79,-131.13 508.19,-124.94 506.21,-131.66"/>
</g>
<!-- Node18&#45;&gt;Node242 -->
<g id="edge16" class="edge">
<title>Node18&#45;&gt;Node242</title>
<path fill="none" stroke="#63b8ff" d="M542.14,-124.6C528.66,-113.1 512.75,-99.52 502.58,-90.84"/>
<polygon fill="#63b8ff" stroke="#63b8ff" points="539.54,-126.99 549.42,-130.81 544.08,-121.66 539.54,-126.99"/>
</g>
<!-- Node18&#45;&gt;Node243 -->
<g id="edge17" class="edge">
<title>Node18&#45;&gt;Node243</title>
<path fill="none" stroke="#63b8ff" d="M633.7,-132.46C634.54,-132.3 635.38,-132.15 636.22,-132 738.49,-113.66 764.89,-114.05 867.22,-96 876,-94.45 885.37,-92.68 894.33,-90.94"/>
<polygon fill="#63b8ff" stroke="#63b8ff" points="633.21,-128.99 624.02,-134.27 634.5,-135.87 633.21,-128.99"/>
</g>
<!-- Node18&#45;&gt;Node246 -->
<g id="edge18" class="edge">
<title>Node18&#45;&gt;Node246</title>
<path fill="none" stroke="#63b8ff" d="M592.5,-124.42C603.33,-115.18 615.68,-104.65 625.36,-96.39"/>
<polygon fill="#63b8ff" stroke="#63b8ff" points="590.35,-121.66 585.01,-130.81 594.89,-126.99 590.35,-121.66"/>
</g>
<!-- Node251 -->
<g id="node21" class="node">
<title>Node251</title>
<g id="a_node21"><a xlink:href="d__a__player_8h.html" target="_top" xlink:title=" ">
<polygon fill="#fff0f0" stroke="red" points="2602.72,-156.5 2481.72,-156.5 2481.72,-137.5 2602.72,-137.5 2602.72,-156.5"/>
<text text-anchor="middle" x="2542.22" y="-144.5" font-family="Helvetica,sans-Serif" font-size="10.00">include/d/a/d_a_player.h</text>
</a>
</g>
</g>
<!-- Node250&#45;&gt;Node251 -->
<g id="edge22" class="edge">
<title>Node250&#45;&gt;Node251</title>
<path fill="none" stroke="#63b8ff" d="M2634.75,-197.76C2611.45,-185.24 2578.27,-167.39 2558.62,-156.82"/>
<polygon fill="#63b8ff" stroke="#63b8ff" points="2632.87,-200.73 2643.34,-202.38 2636.19,-194.57 2632.87,-200.73"/>
</g>
<!-- Node257 -->
<g id="node26" class="node">
<title>Node257</title>
<g id="a_node26"><a xlink:href="d__camera_8h.html" target="_top" xlink:title=" ">
<polygon fill="#fff0f0" stroke="red" points="2344.72,-156.5 2235.72,-156.5 2235.72,-137.5 2344.72,-137.5 2344.72,-156.5"/>
<text text-anchor="middle" x="2290.22" y="-144.5" font-family="Helvetica,sans-Serif" font-size="10.00">include/d/d_camera.h</text>
</a>
</g>
</g>
<!-- Node250&#45;&gt;Node257 -->
<g id="edge30" class="edge">
<title>Node250&#45;&gt;Node257</title>
<path fill="none" stroke="#63b8ff" d="M2608.06,-200.93C2602.71,-199.9 2597.36,-198.91 2592.22,-198 2486.43,-179.31 2458.82,-181.66 2353.22,-162 2345.17,-160.5 2336.6,-158.72 2328.44,-156.94"/>
<polygon fill="#63b8ff" stroke="#63b8ff" points="2606.98,-204.29 2617.47,-202.78 2608.33,-197.42 2606.98,-204.29"/>
</g>
<!-- Node262 -->
<g id="node27" class="node">
<title>Node262</title>
<g id="a_node27"><a xlink:href="d__kantera__icon__meter_8h.html" target="_top" xlink:title=" ">
<polygon fill="#fff0f0" stroke="red" points="2463.72,-162 2362.72,-162 2362.72,-132 2463.72,-132 2463.72,-162"/>
<text text-anchor="start" x="2370.72" y="-150" font-family="Helvetica,sans-Serif" font-size="10.00">include/d/d_kantera</text>
<text text-anchor="middle" x="2413.22" y="-139" font-family="Helvetica,sans-Serif" font-size="10.00">_icon_meter.h</text>
</a>
</g>
</g>
<!-- Node250&#45;&gt;Node262 -->
<g id="edge31" class="edge">
<title>Node250&#45;&gt;Node262</title>
<path fill="none" stroke="#63b8ff" d="M2615.51,-200.2C2572.61,-189.13 2508.56,-172.6 2464.06,-161.12"/>
<polygon fill="#63b8ff" stroke="#63b8ff" points="2614.45,-203.55 2625.01,-202.66 2616.2,-196.77 2614.45,-203.55"/>
</g>
<!-- Node263 -->
<g id="node28" class="node">
<title>Node263</title>
<g id="a_node28"><a xlink:href="d__select__cursor_8h.html" target="_top" xlink:title=" ">
<polygon fill="#fff0f0" stroke="red" points="2715.72,-162 2620.72,-162 2620.72,-132 2715.72,-132 2715.72,-162"/>
<text text-anchor="start" x="2628.72" y="-150" font-family="Helvetica,sans-Serif" font-size="10.00">include/d/d_select</text>
<text text-anchor="middle" x="2668.22" y="-139" font-family="Helvetica,sans-Serif" font-size="10.00">_cursor.h</text>
</a>
</g>
</g>
<!-- Node250&#45;&gt;Node263 -->
<g id="edge32" class="edge">
<title>Node250&#45;&gt;Node263</title>
<path fill="none" stroke="#63b8ff" d="M2663.43,-191.78C2664.48,-182.17 2665.71,-170.92 2666.66,-162.23"/>
<polygon fill="#63b8ff" stroke="#63b8ff" points="2659.96,-191.28 2662.35,-201.6 2666.92,-192.04 2659.96,-191.28"/>
</g>
<!-- Node267 -->
<g id="node30" class="node">
<title>Node267</title>
<g id="a_node30"><a xlink:href="d__file__sel__info_8h.html" target="_top" xlink:title=" ">
<polygon fill="#fff0f0" stroke="red" points="2217.22,-162 2121.22,-162 2121.22,-132 2217.22,-132 2217.22,-162"/>
<text text-anchor="start" x="2129.22" y="-150" font-family="Helvetica,sans-Serif" font-size="10.00">include/d/file/d_file</text>
<text text-anchor="middle" x="2169.22" y="-139" font-family="Helvetica,sans-Serif" font-size="10.00">_sel_info.h</text>
</a>
</g>
</g>
<!-- Node250&#45;&gt;Node267 -->
<g id="edge34" class="edge">
<title>Node250&#45;&gt;Node267</title>
<path fill="none" stroke="#63b8ff" d="M2609.44,-200.9C2603.64,-199.84 2597.81,-198.84 2592.22,-198 2430.58,-173.72 2387.33,-189.56 2226.22,-162 2223.4,-161.52 2220.52,-160.98 2217.63,-160.39"/>
<polygon fill="#63b8ff" stroke="#63b8ff" points="2608.51,-204.29 2618.99,-202.73 2609.82,-197.41 2608.51,-204.29"/>
</g>
<!-- Node251&#45;&gt;Node5 -->
<g id="edge23" class="edge">
<title>Node251&#45;&gt;Node5</title>
<path fill="none" stroke="#63b8ff" d="M2491.12,-134.92C2484.78,-133.8 2478.36,-132.78 2472.22,-132 2191.82,-96.19 2119.09,-117.31 1837.22,-96 1807.62,-93.76 1774.75,-90.71 1747.52,-88.03"/>
<polygon fill="#63b8ff" stroke="#63b8ff" points="2490.44,-138.35 2500.91,-136.75 2491.72,-131.47 2490.44,-138.35"/>
</g>
<!-- Node251&#45;&gt;Node187 -->
<g id="edge25" class="edge">
<title>Node251&#45;&gt;Node187</title>
<path fill="none" stroke="#63b8ff" d="M2492.1,-134.99C2485.44,-133.82 2478.68,-132.77 2472.22,-132 2413.03,-124.93 1524.09,-92.31 1294.17,-83.95"/>
<polygon fill="#63b8ff" stroke="#63b8ff" points="2491.18,-138.38 2501.66,-136.78 2492.47,-131.5 2491.18,-138.38"/>
</g>
<!-- Node251&#45;&gt;Node210 -->
<g id="edge26" class="edge">
<title>Node251&#45;&gt;Node210</title>
<path fill="none" stroke="#63b8ff" d="M2507.63,-133.13C2479.14,-122.53 2438.74,-107.5 2409.12,-96.48"/>
<polygon fill="#63b8ff" stroke="#63b8ff" points="2506.29,-136.37 2516.88,-136.57 2508.73,-129.81 2506.29,-136.37"/>
</g>
<!-- Node251&#45;&gt;Node254 -->
<g id="edge24" class="edge">
<title>Node251&#45;&gt;Node254</title>
<path fill="none" stroke="#63b8ff" d="M2487.4,-134.86C2482.27,-133.87 2477.15,-132.91 2472.22,-132 2383.96,-115.8 2280.63,-99 2221.46,-89.58"/>
<polygon fill="#63b8ff" stroke="#63b8ff" points="2486.6,-138.27 2497.08,-136.76 2487.94,-131.4 2486.6,-138.27"/>
</g>
<!-- Node251&#45;&gt;Node65 -->
<g id="edge27" class="edge">
<title>Node251&#45;&gt;Node65</title>
<path fill="none" stroke="#63b8ff" d="M2531.91,-127.16C2525.35,-115.16 2517.14,-100.15 2512.04,-90.82"/>
<polygon fill="#63b8ff" stroke="#63b8ff" points="2528.75,-128.68 2536.62,-135.77 2534.9,-125.32 2528.75,-128.68"/>
</g>
<!-- Node251&#45;&gt;Node71 -->
<g id="edge28" class="edge">
<title>Node251&#45;&gt;Node71</title>
<path fill="none" stroke="#63b8ff" d="M2566.22,-131.08C2586.32,-118.6 2614.31,-101.2 2631.02,-90.82"/>
<polygon fill="#63b8ff" stroke="#63b8ff" points="2564.47,-128.05 2557.82,-136.3 2568.16,-134 2564.47,-128.05"/>
</g>
<!-- Node251&#45;&gt;Node170 -->
<g id="edge29" class="edge">
<title>Node251&#45;&gt;Node170</title>
<path fill="none" stroke="#63b8ff" d="M2490.39,-134.97C2484.28,-133.87 2478.12,-132.84 2472.22,-132 2371.53,-117.6 2068.97,-94.6 1948,-85.69"/>
<polygon fill="#63b8ff" stroke="#63b8ff" points="2489.3,-138.33 2499.77,-136.74 2490.59,-131.45 2489.3,-138.33"/>
</g>
<!-- Node263&#45;&gt;Node21 -->
<g id="edge33" class="edge">
<title>Node263&#45;&gt;Node21</title>
<path fill="none" stroke="#63b8ff" d="M2706.14,-126.43C2729.02,-114.62 2757.08,-100.14 2774.81,-90.99"/>
<polygon fill="#63b8ff" stroke="#63b8ff" points="2704.67,-123.25 2697.39,-130.94 2707.88,-129.47 2704.67,-123.25"/>
</g>
<!-- Node299&#45;&gt;Node18 -->
<g id="edge37" class="edge">
<title>Node299&#45;&gt;Node18</title>
<path fill="none" stroke="#63b8ff" d="M409.34,-199.55C441.87,-188.93 488.68,-173.65 522.88,-162.48"/>
<polygon fill="#63b8ff" stroke="#63b8ff" points="408.33,-196.2 399.91,-202.63 410.5,-202.85 408.33,-196.2"/>
</g>
<!-- Node300&#45;&gt;Node215 -->
<g id="edge40" class="edge">
<title>Node300&#45;&gt;Node215</title>
<path fill="none" stroke="#63b8ff" d="M1333.03,-133.85C1276.06,-122.35 1191.08,-105.19 1134.68,-93.8"/>
<polygon fill="#63b8ff" stroke="#63b8ff" points="1332.05,-137.22 1342.55,-135.77 1333.44,-130.36 1332.05,-137.22"/>
</g>
<!-- Node300&#45;&gt;Node65 -->
<g id="edge39" class="edge">
<title>Node300&#45;&gt;Node65</title>
<path fill="none" stroke="#63b8ff" d="M1454.01,-145.86C1614.24,-144.88 2061.16,-138.26 2430.22,-96 2441.01,-94.76 2452.58,-92.93 2463.39,-91"/>
<polygon fill="#63b8ff" stroke="#63b8ff" points="1454.02,-142.36 1444.03,-145.91 1454.05,-149.36 1454.02,-142.36"/>
</g>
</g>
</svg>
