<?xml version="1.0" encoding="UTF-8" standalone="no"?>
<!DOCTYPE svg PUBLIC "-//W3C//DTD SVG 1.1//EN"
 "http://www.w3.org/Graphics/SVG/1.1/DTD/svg11.dtd">
<!-- Generated by graphviz version 2.47.0 (20210316.2052)
 -->
<!-- Title: include/Z2AudioLib/Z2AudioLib.h Pages: 1 -->
<svg width="1949pt" height="620pt"
 viewBox="0.00 0.00 1949.00 620.00" xmlns="http://www.w3.org/2000/svg" xmlns:xlink="http://www.w3.org/1999/xlink">
<g id="graph0" class="graph" transform="scale(1 1) rotate(0) translate(4 616)">
<title>include/Z2AudioLib/Z2AudioLib.h</title>
<polygon fill="white" stroke="transparent" points="-4,4 -4,-616 1945,-616 1945,4 -4,4"/>
<!-- Node1 -->
<g id="node1" class="node">
<title>Node1</title>
<g id="a_node1"><a xlink:title=" ">
<polygon fill="#bfbfbf" stroke="black" points="1378,-581.5 1378,-611.5 1478,-611.5 1478,-581.5 1378,-581.5"/>
<text text-anchor="start" x="1386" y="-599.5" font-family="Helvetica,sans-Serif" font-size="10.00">include/Z2AudioLib</text>
<text text-anchor="middle" x="1428" y="-588.5" font-family="Helvetica,sans-Serif" font-size="10.00">/Z2AudioLib.h</text>
</a>
</g>
</g>
<!-- Node2 -->
<g id="node2" class="node">
<title>Node2</title>
<g id="a_node2"><a xlink:href="Z2AudioMgr_8h.html" target="_top" xlink:title=" ">
<polygon fill="white" stroke="black" points="747,-514.5 747,-544.5 869,-544.5 869,-514.5 747,-514.5"/>
<text text-anchor="start" x="755" y="-532.5" font-family="Helvetica,sans-Serif" font-size="10.00">Z2AudioLib/Z2AudioMgr</text>
<text text-anchor="middle" x="808" y="-521.5" font-family="Helvetica,sans-Serif" font-size="10.00">/Z2AudioMgr.h</text>
</a>
</g>
</g>
<!-- Node1&#45;&gt;Node2 -->
<g id="edge1" class="edge">
<title>Node1&#45;&gt;Node2</title>
<path fill="none" stroke="midnightblue" d="M1377.79,-590.24C1267.9,-578.72 1005.82,-551.24 879.07,-537.95"/>
<polygon fill="midnightblue" stroke="midnightblue" points="879.38,-534.46 869.07,-536.9 878.65,-541.43 879.38,-534.46"/>
</g>
<!-- Node21 -->
<g id="node21" class="node">
<title>Node21</title>
<g id="a_node21"><a xlink:href="Z2SceneMgr_8h.html" target="_top" xlink:title=" ">
<polygon fill="white" stroke="black" points="823.5,-380.5 823.5,-410.5 948.5,-410.5 948.5,-380.5 823.5,-380.5"/>
<text text-anchor="start" x="831.5" y="-398.5" font-family="Helvetica,sans-Serif" font-size="10.00">Z2AudioLib/Z2SceneMgr</text>
<text text-anchor="middle" x="886" y="-387.5" font-family="Helvetica,sans-Serif" font-size="10.00">/Z2SceneMgr.h</text>
</a>
</g>
</g>
<!-- Node1&#45;&gt;Node21 -->
<g id="edge50" class="edge">
<title>Node1&#45;&gt;Node21</title>
<path fill="none" stroke="midnightblue" d="M1389.46,-581.35C1292.71,-545.83 1039.83,-452.98 933.84,-414.06"/>
<polygon fill="midnightblue" stroke="midnightblue" points="934.94,-410.74 924.35,-410.58 932.53,-417.31 934.94,-410.74"/>
</g>
<!-- Node26 -->
<g id="node26" class="node">
<title>Node26</title>
<g id="a_node26"><a xlink:href="Z2SeMgr_8h.html" target="_top" xlink:title=" ">
<polygon fill="white" stroke="black" points="1077.5,-380.5 1077.5,-410.5 1186.5,-410.5 1186.5,-380.5 1077.5,-380.5"/>
<text text-anchor="start" x="1085.5" y="-398.5" font-family="Helvetica,sans-Serif" font-size="10.00">Z2AudioLib/Z2SeMgr</text>
<text text-anchor="middle" x="1132" y="-387.5" font-family="Helvetica,sans-Serif" font-size="10.00">/Z2SeMgr.h</text>
</a>
</g>
</g>
<!-- Node1&#45;&gt;Node26 -->
<g id="edge51" class="edge">
<title>Node1&#45;&gt;Node26</title>
<path fill="none" stroke="midnightblue" d="M1406.71,-581.19C1354.76,-546.26 1221.4,-456.61 1161.69,-416.46"/>
<polygon fill="midnightblue" stroke="midnightblue" points="1163.35,-413.36 1153.09,-410.68 1159.44,-419.17 1163.35,-413.36"/>
</g>
<!-- Node29 -->
<g id="node29" class="node">
<title>Node29</title>
<g id="a_node29"><a xlink:href="Z2SoundInfo_8h.html" target="_top" xlink:title=" ">
<polygon fill="white" stroke="black" points="1320.5,-313.5 1320.5,-343.5 1445.5,-343.5 1445.5,-313.5 1320.5,-313.5"/>
<text text-anchor="start" x="1328.5" y="-331.5" font-family="Helvetica,sans-Serif" font-size="10.00">Z2AudioLib/Z2SoundInfo</text>
<text text-anchor="middle" x="1383" y="-320.5" font-family="Helvetica,sans-Serif" font-size="10.00">/Z2SoundInfo.h</text>
</a>
</g>
</g>
<!-- Node1&#45;&gt;Node29 -->
<g id="edge60" class="edge">
<title>Node1&#45;&gt;Node29</title>
<path fill="none" stroke="midnightblue" d="M1425.58,-581.2C1418.25,-537.89 1396.25,-407.82 1387.08,-353.62"/>
<polygon fill="midnightblue" stroke="midnightblue" points="1390.5,-352.83 1385.38,-343.55 1383.59,-353.99 1390.5,-352.83"/>
</g>
<!-- Node30 -->
<g id="node30" class="node">
<title>Node30</title>
<g id="a_node30"><a xlink:href="Z2SoundObjMgr_8h.html" target="_top" xlink:title=" ">
<polygon fill="white" stroke="black" points="1609,-179.5 1609,-209.5 1749,-209.5 1749,-179.5 1609,-179.5"/>
<text text-anchor="start" x="1617" y="-197.5" font-family="Helvetica,sans-Serif" font-size="10.00">Z2AudioLib/Z2SoundObjMgr</text>
<text text-anchor="middle" x="1679" y="-186.5" font-family="Helvetica,sans-Serif" font-size="10.00">/Z2SoundObjMgr.h</text>
</a>
</g>
</g>
<!-- Node1&#45;&gt;Node30 -->
<g id="edge63" class="edge">
<title>Node1&#45;&gt;Node30</title>
<path fill="none" stroke="midnightblue" d="M1478.19,-585.59C1568.03,-566.4 1747,-520.96 1747,-463.5 1747,-463.5 1747,-463.5 1747,-327.5 1747,-284.88 1718.64,-242.26 1698.55,-217.41"/>
<polygon fill="midnightblue" stroke="midnightblue" points="1701.21,-215.13 1692.11,-209.69 1695.83,-219.61 1701.21,-215.13"/>
</g>
<!-- Node32 -->
<g id="node32" class="node">
<title>Node32</title>
<g id="a_node32"><a xlink:href="Z2SoundStarter_8h.html" target="_top" xlink:title=" ">
<polygon fill="white" stroke="black" points="1581.5,-313.5 1581.5,-343.5 1718.5,-343.5 1718.5,-313.5 1581.5,-313.5"/>
<text text-anchor="start" x="1589.5" y="-331.5" font-family="Helvetica,sans-Serif" font-size="10.00">Z2AudioLib/Z2SoundStarter</text>
<text text-anchor="middle" x="1650" y="-320.5" font-family="Helvetica,sans-Serif" font-size="10.00">/Z2SoundStarter.h</text>
</a>
</g>
</g>
<!-- Node1&#45;&gt;Node32 -->
<g id="edge67" class="edge">
<title>Node1&#45;&gt;Node32</title>
<path fill="none" stroke="midnightblue" d="M1439.94,-581.2C1476.61,-537.26 1587.83,-404 1631.81,-351.29"/>
<polygon fill="midnightblue" stroke="midnightblue" points="1634.55,-353.47 1638.27,-343.55 1629.18,-348.98 1634.55,-353.47"/>
</g>
<!-- Node34 -->
<g id="node34" class="node">
<title>Node34</title>
<g id="a_node34"><a xlink:href="Z2SpeechMgr2_8h.html" target="_top" xlink:title=" ">
<polygon fill="white" stroke="black" points="1775.5,-313.5 1775.5,-343.5 1910.5,-343.5 1910.5,-313.5 1775.5,-313.5"/>
<text text-anchor="start" x="1783.5" y="-331.5" font-family="Helvetica,sans-Serif" font-size="10.00">Z2AudioLib/Z2SpeechMgr2</text>
<text text-anchor="middle" x="1843" y="-320.5" font-family="Helvetica,sans-Serif" font-size="10.00">/Z2SpeechMgr2.h</text>
</a>
</g>
</g>
<!-- Node1&#45;&gt;Node34 -->
<g id="edge71" class="edge">
<title>Node1&#45;&gt;Node34</title>
<path fill="none" stroke="midnightblue" d="M1478.26,-593.95C1560.38,-590.45 1718.45,-579.33 1761,-545 1821.01,-496.59 1837.14,-399.03 1841.45,-353.69"/>
<polygon fill="midnightblue" stroke="midnightblue" points="1844.94,-353.85 1842.29,-343.59 1837.97,-353.27 1844.94,-353.85"/>
</g>
<!-- Node36 -->
<g id="node36" class="node">
<title>Node36</title>
<g id="a_node36"><a xlink:href="Z2StatusMgr_8h.html" target="_top" xlink:title=" ">
<polygon fill="white" stroke="black" points="1411.5,-380.5 1411.5,-410.5 1536.5,-410.5 1536.5,-380.5 1411.5,-380.5"/>
<text text-anchor="start" x="1419.5" y="-398.5" font-family="Helvetica,sans-Serif" font-size="10.00">Z2AudioLib/Z2StatusMgr</text>
<text text-anchor="middle" x="1474" y="-387.5" font-family="Helvetica,sans-Serif" font-size="10.00">/Z2StatusMgr.h</text>
</a>
</g>
</g>
<!-- Node1&#45;&gt;Node36 -->
<g id="edge76" class="edge">
<title>Node1&#45;&gt;Node36</title>
<path fill="none" stroke="midnightblue" d="M1431.31,-581.19C1439.12,-547.41 1458.76,-462.44 1468.44,-420.57"/>
<polygon fill="midnightblue" stroke="midnightblue" points="1471.88,-421.21 1470.72,-410.68 1465.06,-419.64 1471.88,-421.21"/>
</g>
<!-- Node3 -->
<g id="node3" class="node">
<title>Node3</title>
<g id="a_node3"><a xlink:href="JKRAramArchive_8h.html" target="_top" xlink:title=" ">
<polygon fill="white" stroke="black" points="204.5,-447.5 204.5,-477.5 373.5,-477.5 373.5,-447.5 204.5,-447.5"/>
<text text-anchor="start" x="212.5" y="-465.5" font-family="Helvetica,sans-Serif" font-size="10.00">JSystem/JKernel/JKRAramArchive</text>
<text text-anchor="middle" x="289" y="-454.5" font-family="Helvetica,sans-Serif" font-size="10.00">/JKRAramArchive.h</text>
</a>
</g>
</g>
<!-- Node2&#45;&gt;Node3 -->
<g id="edge2" class="edge">
<title>Node2&#45;&gt;Node3</title>
<path fill="none" stroke="midnightblue" d="M746.94,-520.85C657.38,-509.64 489.61,-488.62 383.9,-475.39"/>
<polygon fill="midnightblue" stroke="midnightblue" points="384.23,-471.9 373.87,-474.13 383.36,-478.84 384.23,-471.9"/>
</g>
<!-- Node19 -->
<g id="node19" class="node">
<title>Node19</title>
<g id="a_node19"><a xlink:href="JKRSolidHeap_8h.html" target="_top" xlink:title=" ">
<polygon fill="white" stroke="black" points="686,-313.5 686,-343.5 820,-343.5 820,-313.5 686,-313.5"/>
<text text-anchor="start" x="694" y="-331.5" font-family="Helvetica,sans-Serif" font-size="10.00">JSystem/JKernel/JKRSolid</text>
<text text-anchor="middle" x="753" y="-320.5" font-family="Helvetica,sans-Serif" font-size="10.00">Heap/JKRSolidHeap.h</text>
</a>
</g>
</g>
<!-- Node2&#45;&gt;Node19 -->
<g id="edge33" class="edge">
<title>Node2&#45;&gt;Node19</title>
<path fill="none" stroke="midnightblue" d="M804.04,-514.19C794.71,-480.41 771.22,-395.44 759.65,-353.57"/>
<polygon fill="midnightblue" stroke="midnightblue" points="762.96,-352.39 756.92,-343.68 756.21,-354.25 762.96,-352.39"/>
</g>
<!-- Node2&#45;&gt;Node21 -->
<g id="edge39" class="edge">
<title>Node2&#45;&gt;Node21</title>
<path fill="none" stroke="midnightblue" d="M816.35,-514.37C829.78,-491.65 856.31,-446.75 872.47,-419.4"/>
<polygon fill="midnightblue" stroke="midnightblue" points="875.64,-420.91 877.71,-410.52 869.61,-417.35 875.64,-420.91"/>
</g>
<!-- Node4 -->
<g id="node4" class="node">
<title>Node4</title>
<g id="a_node4"><a xlink:href="JKRArchive_8h.html" target="_top" xlink:title=" ">
<polygon fill="white" stroke="black" points="216,-380.5 216,-410.5 362,-410.5 362,-380.5 216,-380.5"/>
<text text-anchor="start" x="224" y="-398.5" font-family="Helvetica,sans-Serif" font-size="10.00">JSystem/JKernel/JKRArchive</text>
<text text-anchor="middle" x="289" y="-387.5" font-family="Helvetica,sans-Serif" font-size="10.00">/JKRArchive.h</text>
</a>
</g>
</g>
<!-- Node3&#45;&gt;Node4 -->
<g id="edge3" class="edge">
<title>Node3&#45;&gt;Node4</title>
<path fill="none" stroke="midnightblue" d="M289,-447.4C289,-439.64 289,-429.81 289,-420.86"/>
<polygon fill="midnightblue" stroke="midnightblue" points="292.5,-420.58 289,-410.58 285.5,-420.58 292.5,-420.58"/>
</g>
<!-- Node8 -->
<g id="node8" class="node">
<title>Node8</title>
<g id="a_node8"><a xlink:href="types_8h.html" target="_top" xlink:title=" ">
<polygon fill="white" stroke="black" points="864.5,-0.5 864.5,-19.5 945.5,-19.5 945.5,-0.5 864.5,-0.5"/>
<text text-anchor="middle" x="905" y="-7.5" font-family="Helvetica,sans-Serif" font-size="10.00">dolphin/types.h</text>
</a>
</g>
</g>
<!-- Node3&#45;&gt;Node8 -->
<g id="edge32" class="edge">
<title>Node3&#45;&gt;Node8</title>
<path fill="none" stroke="midnightblue" d="M204.24,-457.7C118.97,-448.78 0,-420.1 0,-329.5 0,-329.5 0,-329.5 0,-126.5 0,-86.21 21.11,-74.32 57,-56 127.86,-19.83 682.04,-12.66 854.17,-11.3"/>
<polygon fill="midnightblue" stroke="midnightblue" points="854.26,-14.8 864.24,-11.23 854.21,-7.8 854.26,-14.8"/>
</g>
<!-- Node5 -->
<g id="node5" class="node">
<title>Node5</title>
<g id="a_node5"><a xlink:href="JKRDecomp_8h.html" target="_top" xlink:title=" ">
<polygon fill="white" stroke="black" points="86.5,-313.5 86.5,-343.5 235.5,-343.5 235.5,-313.5 86.5,-313.5"/>
<text text-anchor="start" x="94.5" y="-331.5" font-family="Helvetica,sans-Serif" font-size="10.00">JSystem/JKernel/JKRDecomp</text>
<text text-anchor="middle" x="161" y="-320.5" font-family="Helvetica,sans-Serif" font-size="10.00">/JKRDecomp.h</text>
</a>
</g>
</g>
<!-- Node4&#45;&gt;Node5 -->
<g id="edge4" class="edge">
<title>Node4&#45;&gt;Node5</title>
<path fill="none" stroke="midnightblue" d="M261.23,-380.4C242.61,-370.94 217.89,-358.39 197.66,-348.12"/>
<polygon fill="midnightblue" stroke="midnightblue" points="199.22,-344.98 188.72,-343.58 196.05,-351.23 199.22,-344.98"/>
</g>
<!-- Node7 -->
<g id="node7" class="node">
<title>Node7</title>
<g id="a_node7"><a xlink:href="SArc_8h.html" target="_top" xlink:title=" ">
<polygon fill="white" stroke="black" points="169.5,-185 169.5,-204 292.5,-204 292.5,-185 169.5,-185"/>
<text text-anchor="middle" x="231" y="-192" font-family="Helvetica,sans-Serif" font-size="10.00">JSystem/JKernel/SArc.h</text>
</a>
</g>
</g>
<!-- Node4&#45;&gt;Node7 -->
<g id="edge30" class="edge">
<title>Node4&#45;&gt;Node7</title>
<path fill="none" stroke="midnightblue" d="M286.02,-380.41C280.26,-353.83 266.77,-294.6 251,-246 247.45,-235.07 242.75,-223.09 238.79,-213.55"/>
<polygon fill="midnightblue" stroke="midnightblue" points="242.01,-212.16 234.89,-204.32 235.56,-214.89 242.01,-212.16"/>
</g>
<!-- Node4&#45;&gt;Node8 -->
<g id="edge31" class="edge">
<title>Node4&#45;&gt;Node8</title>
<path fill="none" stroke="midnightblue" d="M290.58,-380.28C294.05,-352.99 303.93,-291.89 327,-246 375.82,-148.88 385.49,-107.89 481,-56 544.23,-21.65 755.96,-13.52 854.17,-11.6"/>
<polygon fill="midnightblue" stroke="midnightblue" points="854.51,-15.09 864.44,-11.41 854.38,-8.09 854.51,-15.09"/>
</g>
<!-- Node18 -->
<g id="node18" class="node">
<title>Node18</title>
<g id="a_node18"><a xlink:href="JKRFileLoader_8h.html" target="_top" xlink:title=" ">
<polygon fill="white" stroke="black" points="336,-246.5 336,-276.5 494,-276.5 494,-246.5 336,-246.5"/>
<text text-anchor="start" x="344" y="-264.5" font-family="Helvetica,sans-Serif" font-size="10.00">JSystem/JKernel/JKRFileLoader</text>
<text text-anchor="middle" x="415" y="-253.5" font-family="Helvetica,sans-Serif" font-size="10.00">/JKRFileLoader.h</text>
</a>
</g>
</g>
<!-- Node4&#45;&gt;Node18 -->
<g id="edge27" class="edge">
<title>Node4&#45;&gt;Node18</title>
<path fill="none" stroke="midnightblue" d="M302.48,-380.37C324.56,-357.25 368.54,-311.18 394.49,-283.99"/>
<polygon fill="midnightblue" stroke="midnightblue" points="397.24,-286.17 401.61,-276.52 392.18,-281.34 397.24,-286.17"/>
</g>
<!-- Node6 -->
<g id="node6" class="node">
<title>Node6</title>
<g id="a_node6"><a xlink:href="JKRCompression_8h.html" target="_top" xlink:title=" ">
<polygon fill="white" stroke="black" points="65.5,-252 65.5,-271 242.5,-271 242.5,-252 65.5,-252"/>
<text text-anchor="middle" x="154" y="-259" font-family="Helvetica,sans-Serif" font-size="10.00">JSystem/JKernel/JKRCompression.h</text>
</a>
</g>
</g>
<!-- Node5&#45;&gt;Node6 -->
<g id="edge5" class="edge">
<title>Node5&#45;&gt;Node6</title>
<path fill="none" stroke="midnightblue" d="M159.48,-313.4C158.47,-303.96 157.12,-291.45 156.01,-281.19"/>
<polygon fill="midnightblue" stroke="midnightblue" points="159.49,-280.76 154.94,-271.19 152.53,-281.51 159.49,-280.76"/>
</g>
<!-- Node5&#45;&gt;Node8 -->
<g id="edge26" class="edge">
<title>Node5&#45;&gt;Node8</title>
<path fill="none" stroke="midnightblue" d="M109.63,-313.44C90.18,-305.68 69.5,-294.05 56,-277 32.97,-247.92 38,-232.6 38,-195.5 38,-195.5 38,-195.5 38,-126.5 38,-32.25 145.69,-75.01 238,-56 355.71,-31.75 719.51,-17.29 854.18,-12.64"/>
<polygon fill="midnightblue" stroke="midnightblue" points="854.36,-16.14 864.23,-12.3 854.12,-9.14 854.36,-16.14"/>
</g>
<!-- Node9 -->
<g id="node9" class="node">
<title>Node9</title>
<g id="a_node9"><a xlink:href="JKRThread_8h.html" target="_top" xlink:title=" ">
<polygon fill="white" stroke="black" points="550.5,-246.5 550.5,-276.5 693.5,-276.5 693.5,-246.5 550.5,-246.5"/>
<text text-anchor="start" x="558.5" y="-264.5" font-family="Helvetica,sans-Serif" font-size="10.00">JSystem/JKernel/JKRThread</text>
<text text-anchor="middle" x="622" y="-253.5" font-family="Helvetica,sans-Serif" font-size="10.00">/JKRThread.h</text>
</a>
</g>
</g>
<!-- Node5&#45;&gt;Node9 -->
<g id="edge9" class="edge">
<title>Node5&#45;&gt;Node9</title>
<path fill="none" stroke="midnightblue" d="M235.58,-316.98C319.04,-305.22 453.86,-286.21 540.17,-274.04"/>
<polygon fill="midnightblue" stroke="midnightblue" points="540.77,-277.49 550.18,-272.63 539.79,-270.56 540.77,-277.49"/>
</g>
<!-- Node6&#45;&gt;Node7 -->
<g id="edge6" class="edge">
<title>Node6&#45;&gt;Node7</title>
<path fill="none" stroke="midnightblue" d="M164.38,-251.73C176.85,-241.21 197.97,-223.38 213.09,-210.62"/>
<polygon fill="midnightblue" stroke="midnightblue" points="215.4,-213.25 220.78,-204.13 210.88,-207.9 215.4,-213.25"/>
</g>
<!-- Node6&#45;&gt;Node8 -->
<g id="edge8" class="edge">
<title>Node6&#45;&gt;Node8</title>
<path fill="none" stroke="midnightblue" d="M152.78,-251.94C150.99,-236.57 148.93,-203.58 160,-179 191.37,-109.37 210.73,-88.17 280,-56 331.5,-32.08 714.68,-17.25 854.3,-12.59"/>
<polygon fill="midnightblue" stroke="midnightblue" points="854.43,-16.08 864.31,-12.26 854.2,-9.09 854.43,-16.08"/>
</g>
<!-- Node7&#45;&gt;Node8 -->
<g id="edge7" class="edge">
<title>Node7&#45;&gt;Node8</title>
<path fill="none" stroke="midnightblue" d="M232.81,-184.77C238.53,-159.64 258.79,-86.93 307,-56 352.53,-26.79 718.28,-15.35 854.3,-12.08"/>
<polygon fill="midnightblue" stroke="midnightblue" points="854.53,-15.57 864.45,-11.84 854.37,-8.57 854.53,-15.57"/>
</g>
<!-- Node9&#45;&gt;Node8 -->
<g id="edge14" class="edge">
<title>Node9&#45;&gt;Node8</title>
<path fill="none" stroke="midnightblue" d="M609.99,-246.36C597.52,-229.86 581.24,-201.93 592,-179 628.33,-101.57 664.13,-95.48 740,-56 775.92,-37.31 820.4,-25.76 854.13,-19.05"/>
<polygon fill="midnightblue" stroke="midnightblue" points="855.06,-22.43 864.23,-17.12 853.75,-15.56 855.06,-22.43"/>
</g>
<!-- Node10 -->
<g id="node10" class="node">
<title>Node10</title>
<g id="a_node10"><a xlink:href="JKRDisposer_8h.html" target="_top" xlink:title=" ">
<polygon fill="white" stroke="black" points="600.5,-179.5 600.5,-209.5 751.5,-209.5 751.5,-179.5 600.5,-179.5"/>
<text text-anchor="start" x="608.5" y="-197.5" font-family="Helvetica,sans-Serif" font-size="10.00">JSystem/JKernel/JKRDisposer</text>
<text text-anchor="middle" x="676" y="-186.5" font-family="Helvetica,sans-Serif" font-size="10.00">/JKRDisposer.h</text>
</a>
</g>
</g>
<!-- Node9&#45;&gt;Node10 -->
<g id="edge10" class="edge">
<title>Node9&#45;&gt;Node10</title>
<path fill="none" stroke="midnightblue" d="M633.72,-246.4C640.72,-237.96 649.77,-227.07 657.71,-217.52"/>
<polygon fill="midnightblue" stroke="midnightblue" points="660.61,-219.51 664.31,-209.58 655.22,-215.03 660.61,-219.51"/>
</g>
<!-- Node12 -->
<g id="node12" class="node">
<title>Node12</title>
<g id="a_node12"><a xlink:href="global_8h.html" target="_top" xlink:title=" ">
<polygon fill="white" stroke="black" points="941,-185 941,-204 991,-204 991,-185 941,-185"/>
<text text-anchor="middle" x="966" y="-192" font-family="Helvetica,sans-Serif" font-size="10.00">global.h</text>
</a>
</g>
</g>
<!-- Node9&#45;&gt;Node12 -->
<g id="edge15" class="edge">
<title>Node9&#45;&gt;Node12</title>
<path fill="none" stroke="midnightblue" d="M693.69,-246.95C766.21,-233.25 875.29,-212.64 930.81,-202.15"/>
<polygon fill="midnightblue" stroke="midnightblue" points="931.68,-205.55 940.86,-200.25 930.38,-198.67 931.68,-205.55"/>
</g>
<!-- Node10&#45;&gt;Node8 -->
<g id="edge13" class="edge">
<title>Node10&#45;&gt;Node8</title>
<path fill="none" stroke="midnightblue" d="M681.54,-179.12C693.01,-151.23 722.01,-89.59 766,-56 791.59,-36.46 825.97,-25.24 854.13,-18.88"/>
<polygon fill="midnightblue" stroke="midnightblue" points="855.14,-22.25 864.2,-16.76 853.69,-15.4 855.14,-22.25"/>
</g>
<!-- Node11 -->
<g id="node11" class="node">
<title>Node11</title>
<g id="a_node11"><a xlink:href="JSUList_8h.html" target="_top" xlink:title=" ">
<polygon fill="white" stroke="black" points="1060,-112.5 1060,-142.5 1196,-142.5 1196,-112.5 1060,-112.5"/>
<text text-anchor="start" x="1068" y="-130.5" font-family="Helvetica,sans-Serif" font-size="10.00">JSystem/JSupport/JSUList</text>
<text text-anchor="middle" x="1128" y="-119.5" font-family="Helvetica,sans-Serif" font-size="10.00">/JSUList.h</text>
</a>
</g>
</g>
<!-- Node10&#45;&gt;Node11 -->
<g id="edge11" class="edge">
<title>Node10&#45;&gt;Node11</title>
<path fill="none" stroke="midnightblue" d="M751.65,-182.62C834.37,-170.73 966.25,-151.76 1049.91,-139.73"/>
<polygon fill="midnightblue" stroke="midnightblue" points="1050.47,-143.19 1059.87,-138.3 1049.47,-136.26 1050.47,-143.19"/>
</g>
<!-- Node11&#45;&gt;Node8 -->
<g id="edge12" class="edge">
<title>Node11&#45;&gt;Node8</title>
<path fill="none" stroke="midnightblue" d="M1127.17,-112.39C1125.44,-96.35 1120.15,-70.53 1104,-56 1082.46,-36.62 1007.18,-23.64 955.65,-16.78"/>
<polygon fill="midnightblue" stroke="midnightblue" points="956.05,-13.31 945.68,-15.49 955.15,-20.25 956.05,-13.31"/>
</g>
<!-- Node12&#45;&gt;Node8 -->
<g id="edge16" class="edge">
<title>Node12&#45;&gt;Node8</title>
<path fill="none" stroke="midnightblue" d="M963.06,-184.7C953.66,-156.57 924.21,-68.46 911.24,-29.66"/>
<polygon fill="midnightblue" stroke="midnightblue" points="914.4,-28.09 907.91,-19.71 907.76,-30.31 914.4,-28.09"/>
</g>
<!-- Node13 -->
<g id="node13" class="node">
<title>Node13</title>
<g id="a_node13"><a xlink:href="AR_8h.html" target="_top" xlink:title=" ">
<polygon fill="white" stroke="black" points="971.5,-56.5 971.5,-75.5 1020.5,-75.5 1020.5,-56.5 971.5,-56.5"/>
<text text-anchor="middle" x="996" y="-63.5" font-family="Helvetica,sans-Serif" font-size="10.00">ar/AR.h</text>
</a>
</g>
</g>
<!-- Node12&#45;&gt;Node13 -->
<g id="edge17" class="edge">
<title>Node12&#45;&gt;Node13</title>
<path fill="none" stroke="midnightblue" d="M968.06,-184.81C972.88,-164.49 984.96,-113.55 991.55,-85.78"/>
<polygon fill="midnightblue" stroke="midnightblue" points="995.02,-86.29 993.92,-75.76 988.21,-84.68 995.02,-86.29"/>
</g>
<!-- Node14 -->
<g id="node14" class="node">
<title>Node14</title>
<g id="a_node14"><a xlink:href="ARQ_8h.html" target="_top" xlink:title=" ">
<polygon fill="white" stroke="black" points="1039,-56.5 1039,-75.5 1095,-75.5 1095,-56.5 1039,-56.5"/>
<text text-anchor="middle" x="1067" y="-63.5" font-family="Helvetica,sans-Serif" font-size="10.00">ar/ARQ.h</text>
</a>
</g>
</g>
<!-- Node12&#45;&gt;Node14 -->
<g id="edge19" class="edge">
<title>Node12&#45;&gt;Node14</title>
<path fill="none" stroke="midnightblue" d="M972.94,-184.81C989.59,-163.95 1032.02,-110.81 1053.74,-83.61"/>
<polygon fill="midnightblue" stroke="midnightblue" points="1056.5,-85.75 1060.01,-75.76 1051.03,-81.39 1056.5,-85.75"/>
</g>
<!-- Node15 -->
<g id="node15" class="node">
<title>Node15</title>
<g id="a_node15"><a xlink:href="mwcc_8h.html" target="_top" xlink:title=" ">
<polygon fill="white" stroke="black" points="808,-118 808,-137 858,-137 858,-118 808,-118"/>
<text text-anchor="middle" x="833" y="-125" font-family="Helvetica,sans-Serif" font-size="10.00">mwcc.h</text>
</a>
</g>
</g>
<!-- Node12&#45;&gt;Node15 -->
<g id="edge21" class="edge">
<title>Node12&#45;&gt;Node15</title>
<path fill="none" stroke="midnightblue" d="M948.34,-184.87C925.68,-173.8 886.17,-154.49 859.8,-141.6"/>
<polygon fill="midnightblue" stroke="midnightblue" points="861.26,-138.41 850.73,-137.17 858.18,-144.7 861.26,-138.41"/>
</g>
<!-- Node16 -->
<g id="node16" class="node">
<title>Node16</title>
<g id="a_node16"><a xlink:href="OS_8h.html" target="_top" xlink:title=" ">
<polygon fill="white" stroke="black" points="876,-118 876,-137 928,-137 928,-118 876,-118"/>
<text text-anchor="middle" x="902" y="-125" font-family="Helvetica,sans-Serif" font-size="10.00">os/OS.h</text>
</a>
</g>
</g>
<!-- Node12&#45;&gt;Node16 -->
<g id="edge22" class="edge">
<title>Node12&#45;&gt;Node16</title>
<path fill="none" stroke="midnightblue" d="M957.37,-184.73C947.2,-174.4 930.1,-157.04 917.59,-144.33"/>
<polygon fill="midnightblue" stroke="midnightblue" points="920,-141.8 910.49,-137.13 915.02,-146.71 920,-141.8"/>
</g>
<!-- Node13&#45;&gt;Node8 -->
<g id="edge18" class="edge">
<title>Node13&#45;&gt;Node8</title>
<path fill="none" stroke="midnightblue" d="M981.38,-56.32C967.05,-47.82 944.99,-34.73 928.25,-24.8"/>
<polygon fill="midnightblue" stroke="midnightblue" points="929.97,-21.75 919.58,-19.65 926.4,-27.77 929.97,-21.75"/>
</g>
<!-- Node14&#45;&gt;Node8 -->
<g id="edge20" class="edge">
<title>Node14&#45;&gt;Node8</title>
<path fill="none" stroke="midnightblue" d="M1041.33,-56.44C1014.08,-47.36 970.82,-32.94 940.35,-22.78"/>
<polygon fill="midnightblue" stroke="midnightblue" points="941.14,-19.36 930.55,-19.52 938.93,-26 941.14,-19.36"/>
</g>
<!-- Node16&#45;&gt;Node8 -->
<g id="edge23" class="edge">
<title>Node16&#45;&gt;Node8</title>
<path fill="none" stroke="midnightblue" d="M902.23,-117.82C902.71,-99.26 903.85,-55.34 904.51,-29.97"/>
<polygon fill="midnightblue" stroke="midnightblue" points="908.01,-29.87 904.77,-19.78 901.01,-29.69 908.01,-29.87"/>
</g>
<!-- Node17 -->
<g id="node17" class="node">
<title>Node17</title>
<g id="a_node17"><a xlink:href="dvd_8h.html" target="_top" xlink:title=" ">
<polygon fill="white" stroke="black" points="817.5,-56.5 817.5,-75.5 876.5,-75.5 876.5,-56.5 817.5,-56.5"/>
<text text-anchor="middle" x="847" y="-63.5" font-family="Helvetica,sans-Serif" font-size="10.00">dvd/dvd.h</text>
</a>
</g>
</g>
<!-- Node16&#45;&gt;Node17 -->
<g id="edge24" class="edge">
<title>Node16&#45;&gt;Node17</title>
<path fill="none" stroke="midnightblue" d="M894.12,-117.98C885.71,-108.87 872.18,-94.24 861.77,-82.98"/>
<polygon fill="midnightblue" stroke="midnightblue" points="864.22,-80.48 854.87,-75.51 859.08,-85.23 864.22,-80.48"/>
</g>
<!-- Node17&#45;&gt;Node8 -->
<g id="edge25" class="edge">
<title>Node17&#45;&gt;Node8</title>
<path fill="none" stroke="midnightblue" d="M856.32,-56.32C864.89,-48.34 877.81,-36.31 888.19,-26.65"/>
<polygon fill="midnightblue" stroke="midnightblue" points="890.58,-29.21 895.51,-19.83 885.81,-24.09 890.58,-29.21"/>
</g>
<!-- Node18&#45;&gt;Node8 -->
<g id="edge29" class="edge">
<title>Node18&#45;&gt;Node8</title>
<path fill="none" stroke="midnightblue" d="M416.7,-246.38C422.09,-208.38 442.53,-103.58 508,-56 562.09,-16.7 759.83,-11.07 854.21,-10.69"/>
<polygon fill="midnightblue" stroke="midnightblue" points="854.38,-14.19 864.38,-10.66 854.37,-7.19 854.38,-14.19"/>
</g>
<!-- Node18&#45;&gt;Node10 -->
<g id="edge28" class="edge">
<title>Node18&#45;&gt;Node10</title>
<path fill="none" stroke="midnightblue" d="M471.31,-246.48C511.91,-236.37 566.85,-222.68 609.59,-212.04"/>
<polygon fill="midnightblue" stroke="midnightblue" points="610.48,-215.42 619.34,-209.61 608.79,-208.63 610.48,-215.42"/>
</g>
<!-- Node19&#45;&gt;Node8 -->
<g id="edge38" class="edge">
<title>Node19&#45;&gt;Node8</title>
<path fill="none" stroke="midnightblue" d="M685.81,-319.1C631.95,-311.02 562.17,-297.05 542,-277 515.55,-250.7 522,-232.8 522,-195.5 522,-195.5 522,-195.5 522,-126.5 522,-57.86 750.34,-26.36 854.41,-15.57"/>
<polygon fill="midnightblue" stroke="midnightblue" points="854.78,-19.05 864.37,-14.56 854.07,-12.08 854.78,-19.05"/>
</g>
<!-- Node20 -->
<g id="node20" class="node">
<title>Node20</title>
<g id="a_node20"><a xlink:href="JKRHeap_8h.html" target="_top" xlink:title=" ">
<polygon fill="white" stroke="black" points="712,-246.5 712,-276.5 848,-276.5 848,-246.5 712,-246.5"/>
<text text-anchor="start" x="720" y="-264.5" font-family="Helvetica,sans-Serif" font-size="10.00">JSystem/JKernel/JKRHeap</text>
<text text-anchor="middle" x="780" y="-253.5" font-family="Helvetica,sans-Serif" font-size="10.00">/JKRHeap.h</text>
</a>
</g>
</g>
<!-- Node19&#45;&gt;Node20 -->
<g id="edge34" class="edge">
<title>Node19&#45;&gt;Node20</title>
<path fill="none" stroke="midnightblue" d="M758.86,-313.4C762.18,-305.39 766.43,-295.16 770.25,-285.98"/>
<polygon fill="midnightblue" stroke="midnightblue" points="773.55,-287.15 774.15,-276.58 767.08,-284.47 773.55,-287.15"/>
</g>
<!-- Node20&#45;&gt;Node8 -->
<g id="edge36" class="edge">
<title>Node20&#45;&gt;Node8</title>
<path fill="none" stroke="midnightblue" d="M777.67,-246.33C772.57,-210.37 764.24,-114.32 809,-56 821.01,-40.35 839.78,-29.92 857.56,-23.08"/>
<polygon fill="midnightblue" stroke="midnightblue" points="859.02,-26.27 867.28,-19.64 856.68,-19.68 859.02,-26.27"/>
</g>
<!-- Node20&#45;&gt;Node10 -->
<g id="edge35" class="edge">
<title>Node20&#45;&gt;Node10</title>
<path fill="none" stroke="midnightblue" d="M757.43,-246.4C742.71,-237.2 723.31,-225.07 707.13,-214.95"/>
<polygon fill="midnightblue" stroke="midnightblue" points="708.86,-211.91 698.52,-209.58 705.15,-217.84 708.86,-211.91"/>
</g>
<!-- Node20&#45;&gt;Node12 -->
<g id="edge37" class="edge">
<title>Node20&#45;&gt;Node12</title>
<path fill="none" stroke="midnightblue" d="M820.36,-246.4C853.72,-234.74 900.55,-218.37 932.02,-207.38"/>
<polygon fill="midnightblue" stroke="midnightblue" points="933.37,-210.61 941.66,-204.01 931.06,-204 933.37,-210.61"/>
</g>
<!-- Node21&#45;&gt;Node12 -->
<g id="edge49" class="edge">
<title>Node21&#45;&gt;Node12</title>
<path fill="none" stroke="midnightblue" d="M883.2,-380.3C878.48,-352.51 871.68,-289.83 896,-246 905.09,-229.61 922,-217.19 936.93,-208.76"/>
<polygon fill="midnightblue" stroke="midnightblue" points="938.67,-211.8 945.87,-204.03 935.4,-205.61 938.67,-211.8"/>
</g>
<!-- Node22 -->
<g id="node22" class="node">
<title>Node22</title>
<g id="a_node22"><a xlink:href="JAISe_8h.html" target="_top" xlink:title=" ">
<polygon fill="white" stroke="black" points="904.5,-246.5 904.5,-276.5 1027.5,-276.5 1027.5,-246.5 904.5,-246.5"/>
<text text-anchor="start" x="912.5" y="-264.5" font-family="Helvetica,sans-Serif" font-size="10.00">JSystem/JAudio2/JAISe</text>
<text text-anchor="middle" x="966" y="-253.5" font-family="Helvetica,sans-Serif" font-size="10.00">/JAISe.h</text>
</a>
</g>
</g>
<!-- Node21&#45;&gt;Node22 -->
<g id="edge40" class="edge">
<title>Node21&#45;&gt;Node22</title>
<path fill="none" stroke="midnightblue" d="M887.78,-380.27C890.44,-363.2 896.64,-334.22 910,-313 917.08,-301.75 927.36,-291.47 937.18,-283.18"/>
<polygon fill="midnightblue" stroke="midnightblue" points="939.64,-285.68 945.24,-276.69 935.26,-280.23 939.64,-285.68"/>
</g>
<!-- Node23 -->
<g id="node23" class="node">
<title>Node23</title>
<g id="a_node23"><a xlink:href="Z2SeqMgr_8h.html" target="_top" xlink:title=" ">
<polygon fill="white" stroke="black" points="952,-313.5 952,-343.5 1066,-343.5 1066,-313.5 952,-313.5"/>
<text text-anchor="start" x="960" y="-331.5" font-family="Helvetica,sans-Serif" font-size="10.00">Z2AudioLib/Z2SeqMgr</text>
<text text-anchor="middle" x="1009" y="-320.5" font-family="Helvetica,sans-Serif" font-size="10.00">/Z2SeqMgr.h</text>
</a>
</g>
</g>
<!-- Node21&#45;&gt;Node23 -->
<g id="edge42" class="edge">
<title>Node21&#45;&gt;Node23</title>
<path fill="none" stroke="midnightblue" d="M912.69,-380.4C930.5,-370.98 954.12,-358.5 973.51,-348.26"/>
<polygon fill="midnightblue" stroke="midnightblue" points="975.16,-351.34 982.36,-343.58 971.89,-345.15 975.16,-351.34"/>
</g>
<!-- Node22&#45;&gt;Node12 -->
<g id="edge41" class="edge">
<title>Node22&#45;&gt;Node12</title>
<path fill="none" stroke="midnightblue" d="M966,-246.4C966,-237.06 966,-224.71 966,-214.52"/>
<polygon fill="midnightblue" stroke="midnightblue" points="969.5,-214.19 966,-204.19 962.5,-214.19 969.5,-214.19"/>
</g>
<!-- Node23&#45;&gt;Node12 -->
<g id="edge48" class="edge">
<title>Node23&#45;&gt;Node12</title>
<path fill="none" stroke="midnightblue" d="M1020.52,-313.45C1032.68,-296.79 1048.59,-268.47 1037,-246 1028.44,-229.41 1011.64,-217.08 996.53,-208.76"/>
<polygon fill="midnightblue" stroke="midnightblue" points="997.92,-205.54 987.43,-204.09 994.73,-211.77 997.92,-205.54"/>
</g>
<!-- Node23&#45;&gt;Node22 -->
<g id="edge43" class="edge">
<title>Node23&#45;&gt;Node22</title>
<path fill="none" stroke="midnightblue" d="M999.67,-313.4C994.2,-305.13 987.17,-294.51 980.95,-285.1"/>
<polygon fill="midnightblue" stroke="midnightblue" points="983.75,-282.99 975.31,-276.58 977.91,-286.85 983.75,-282.99"/>
</g>
<!-- Node24 -->
<g id="node24" class="node">
<title>Node24</title>
<g id="a_node24"><a xlink:href="JAISound_8h.html" target="_top" xlink:title=" ">
<polygon fill="white" stroke="black" points="1249.5,-246.5 1249.5,-276.5 1388.5,-276.5 1388.5,-246.5 1249.5,-246.5"/>
<text text-anchor="start" x="1257.5" y="-264.5" font-family="Helvetica,sans-Serif" font-size="10.00">JSystem/JAudio2/JAISound</text>
<text text-anchor="middle" x="1319" y="-253.5" font-family="Helvetica,sans-Serif" font-size="10.00">/JAISound.h</text>
</a>
</g>
</g>
<!-- Node23&#45;&gt;Node24 -->
<g id="edge44" class="edge">
<title>Node23&#45;&gt;Node24</title>
<path fill="none" stroke="midnightblue" d="M1066.22,-315.5C1115.71,-305.13 1187.68,-290.03 1242.18,-278.61"/>
<polygon fill="midnightblue" stroke="midnightblue" points="1243.08,-282 1252.15,-276.52 1241.64,-275.14 1243.08,-282"/>
</g>
<!-- Node25 -->
<g id="node25" class="node">
<title>Node25</title>
<g id="a_node25"><a xlink:href="Z2Param_8h.html" target="_top" xlink:title=" ">
<polygon fill="white" stroke="black" points="1122.5,-246.5 1122.5,-276.5 1231.5,-276.5 1231.5,-246.5 1122.5,-246.5"/>
<text text-anchor="start" x="1130.5" y="-264.5" font-family="Helvetica,sans-Serif" font-size="10.00">Z2AudioLib/Z2Param</text>
<text text-anchor="middle" x="1177" y="-253.5" font-family="Helvetica,sans-Serif" font-size="10.00">/Z2Param.h</text>
</a>
</g>
</g>
<!-- Node23&#45;&gt;Node25 -->
<g id="edge46" class="edge">
<title>Node23&#45;&gt;Node25</title>
<path fill="none" stroke="midnightblue" d="M1045.45,-313.4C1070.55,-303.69 1104.09,-290.71 1131.02,-280.29"/>
<polygon fill="midnightblue" stroke="midnightblue" points="1132.55,-283.45 1140.62,-276.58 1130.03,-276.92 1132.55,-283.45"/>
</g>
<!-- Node24&#45;&gt;Node12 -->
<g id="edge45" class="edge">
<title>Node24&#45;&gt;Node12</title>
<path fill="none" stroke="midnightblue" d="M1249.26,-247.53C1246.47,-247.01 1243.71,-246.5 1241,-246 1154.81,-230.08 1053.4,-211.49 1001.11,-201.92"/>
<polygon fill="midnightblue" stroke="midnightblue" points="1001.5,-198.43 991.03,-200.08 1000.24,-205.32 1001.5,-198.43"/>
</g>
<!-- Node25&#45;&gt;Node8 -->
<g id="edge47" class="edge">
<title>Node25&#45;&gt;Node8</title>
<path fill="none" stroke="midnightblue" d="M1185.52,-246.09C1200.66,-218.48 1228.51,-156.84 1205,-112 1184.68,-73.24 1164.25,-73.2 1124,-56 1069.2,-32.58 1001.35,-21.07 955.83,-15.6"/>
<polygon fill="midnightblue" stroke="midnightblue" points="955.94,-12.09 945.61,-14.43 955.15,-19.05 955.94,-12.09"/>
</g>
<!-- Node26&#45;&gt;Node12 -->
<g id="edge57" class="edge">
<title>Node26&#45;&gt;Node12</title>
<path fill="none" stroke="midnightblue" d="M1127.41,-380.21C1117.67,-351.7 1092.51,-287 1053,-246 1037.36,-229.77 1015.37,-217.06 997.41,-208.46"/>
<polygon fill="midnightblue" stroke="midnightblue" points="998.46,-205.09 987.91,-204.1 995.54,-211.45 998.46,-205.09"/>
</g>
<!-- Node26&#45;&gt;Node22 -->
<g id="edge52" class="edge">
<title>Node26&#45;&gt;Node22</title>
<path fill="none" stroke="midnightblue" d="M1077.3,-387.32C1027.51,-379.53 959.34,-365.28 943,-344 929.89,-326.92 939.31,-302.71 949.77,-285.11"/>
<polygon fill="midnightblue" stroke="midnightblue" points="952.78,-286.9 955.22,-276.59 946.88,-283.13 952.78,-286.9"/>
</g>
<!-- Node26&#45;&gt;Node23 -->
<g id="edge56" class="edge">
<title>Node26&#45;&gt;Node23</title>
<path fill="none" stroke="midnightblue" d="M1105.31,-380.4C1087.5,-370.98 1063.88,-358.5 1044.49,-348.26"/>
<polygon fill="midnightblue" stroke="midnightblue" points="1046.11,-345.15 1035.64,-343.58 1042.84,-351.34 1046.11,-345.15"/>
</g>
<!-- Node26&#45;&gt;Node25 -->
<g id="edge55" class="edge">
<title>Node26&#45;&gt;Node25</title>
<path fill="none" stroke="midnightblue" d="M1134.21,-380.35C1137.03,-363.85 1142.58,-335.91 1151,-313 1154.41,-303.72 1159.14,-293.96 1163.63,-285.53"/>
<polygon fill="midnightblue" stroke="midnightblue" points="1166.75,-287.1 1168.51,-276.66 1160.62,-283.73 1166.75,-287.1"/>
</g>
<!-- Node27 -->
<g id="node27" class="node">
<title>Node27</title>
<g id="a_node27"><a xlink:href="JAISoundHandles_8h.html" target="_top" xlink:title=" ">
<polygon fill="white" stroke="black" points="1160,-313.5 1160,-343.5 1302,-343.5 1302,-313.5 1160,-313.5"/>
<text text-anchor="start" x="1168" y="-331.5" font-family="Helvetica,sans-Serif" font-size="10.00">JSystem/JAudio2/JAISound</text>
<text text-anchor="middle" x="1231" y="-320.5" font-family="Helvetica,sans-Serif" font-size="10.00">Handles/JAISoundHandles.h</text>
</a>
</g>
</g>
<!-- Node26&#45;&gt;Node27 -->
<g id="edge53" class="edge">
<title>Node26&#45;&gt;Node27</title>
<path fill="none" stroke="midnightblue" d="M1153.48,-380.4C1167.36,-371.28 1185.63,-359.29 1200.94,-349.24"/>
<polygon fill="midnightblue" stroke="midnightblue" points="1203.12,-351.99 1209.56,-343.58 1199.28,-346.14 1203.12,-351.99"/>
</g>
<!-- Node28 -->
<g id="node28" class="node">
<title>Node28</title>
<g id="a_node28"><a xlink:href="mtx__vec_8h.html" target="_top" xlink:title=" ">
<polygon fill="white" stroke="black" points="1502.5,-319 1502.5,-338 1563.5,-338 1563.5,-319 1502.5,-319"/>
<text text-anchor="middle" x="1533" y="-326" font-family="Helvetica,sans-Serif" font-size="10.00">mtx_vec.h</text>
</a>
</g>
</g>
<!-- Node26&#45;&gt;Node28 -->
<g id="edge58" class="edge">
<title>Node26&#45;&gt;Node28</title>
<path fill="none" stroke="midnightblue" d="M1186.66,-386.44C1250.95,-376.85 1360.87,-360.1 1455,-344 1467.08,-341.93 1480.18,-339.55 1492.13,-337.33"/>
<polygon fill="midnightblue" stroke="midnightblue" points="1493.11,-340.7 1502.29,-335.42 1491.81,-333.82 1493.11,-340.7"/>
</g>
<!-- Node27&#45;&gt;Node24 -->
<g id="edge54" class="edge">
<title>Node27&#45;&gt;Node24</title>
<path fill="none" stroke="midnightblue" d="M1250.09,-313.4C1262.32,-304.37 1278.37,-292.51 1291.9,-282.52"/>
<polygon fill="midnightblue" stroke="midnightblue" points="1293.98,-285.33 1299.94,-276.58 1289.82,-279.7 1293.98,-285.33"/>
</g>
<!-- Node28&#45;&gt;Node8 -->
<g id="edge59" class="edge">
<title>Node28&#45;&gt;Node8</title>
<path fill="none" stroke="midnightblue" d="M1530.67,-318.93C1525.2,-298.01 1512,-242.61 1512,-195.5 1512,-195.5 1512,-195.5 1512,-126.5 1512,-54.44 1435.38,-75.47 1366,-56 1221.11,-15.34 1041.7,-10.08 955.67,-10.19"/>
<polygon fill="midnightblue" stroke="midnightblue" points="955.63,-6.69 945.65,-10.23 955.66,-13.69 955.63,-6.69"/>
</g>
<!-- Node29&#45;&gt;Node8 -->
<g id="edge62" class="edge">
<title>Node29&#45;&gt;Node8</title>
<path fill="none" stroke="midnightblue" d="M1389.24,-313.16C1399.05,-289.25 1417,-239.52 1417,-195.5 1417,-195.5 1417,-195.5 1417,-126.5 1417,-32.57 1084.93,-15.02 955.65,-11.75"/>
<polygon fill="midnightblue" stroke="midnightblue" points="955.68,-8.25 945.6,-11.51 955.52,-15.25 955.68,-8.25"/>
</g>
<!-- Node29&#45;&gt;Node24 -->
<g id="edge61" class="edge">
<title>Node29&#45;&gt;Node24</title>
<path fill="none" stroke="midnightblue" d="M1369.11,-313.4C1360.64,-304.79 1349.65,-293.63 1340.11,-283.94"/>
<polygon fill="midnightblue" stroke="midnightblue" points="1342.37,-281.25 1332.86,-276.58 1337.38,-286.16 1342.37,-281.25"/>
</g>
<!-- Node30&#45;&gt;Node8 -->
<g id="edge66" class="edge">
<title>Node30&#45;&gt;Node8</title>
<path fill="none" stroke="midnightblue" d="M1698.84,-179.33C1709.68,-170.31 1722.08,-157.6 1728,-143 1742.74,-106.64 1743.45,-80.74 1713,-56 1654.36,-8.35 1123.72,-9.01 955.74,-10.43"/>
<polygon fill="midnightblue" stroke="midnightblue" points="955.65,-6.93 945.68,-10.52 955.71,-13.93 955.65,-6.93"/>
</g>
<!-- Node30&#45;&gt;Node11 -->
<g id="edge64" class="edge">
<title>Node30&#45;&gt;Node11</title>
<path fill="none" stroke="midnightblue" d="M1608.94,-185.23C1505.88,-173.08 1314.05,-150.45 1206.42,-137.75"/>
<polygon fill="midnightblue" stroke="midnightblue" points="1206.62,-134.25 1196.28,-136.55 1205.8,-141.2 1206.62,-134.25"/>
</g>
<!-- Node31 -->
<g id="node31" class="node">
<title>Node31</title>
<g id="a_node31"><a xlink:href="Z2Creature_8h.html" target="_top" xlink:title=" ">
<polygon fill="white" stroke="black" points="1601.5,-112.5 1601.5,-142.5 1718.5,-142.5 1718.5,-112.5 1601.5,-112.5"/>
<text text-anchor="start" x="1609.5" y="-130.5" font-family="Helvetica,sans-Serif" font-size="10.00">Z2AudioLib/Z2Creature</text>
<text text-anchor="middle" x="1660" y="-119.5" font-family="Helvetica,sans-Serif" font-size="10.00">/Z2Creature.h</text>
</a>
</g>
</g>
<!-- Node30&#45;&gt;Node31 -->
<g id="edge65" class="edge">
<title>Node30&#45;&gt;Node31</title>
<path fill="none" stroke="midnightblue" d="M1674.88,-179.4C1672.56,-171.47 1669.61,-161.38 1666.95,-152.27"/>
<polygon fill="midnightblue" stroke="midnightblue" points="1670.28,-151.19 1664.11,-142.58 1663.56,-153.16 1670.28,-151.19"/>
</g>
<!-- Node32&#45;&gt;Node24 -->
<g id="edge68" class="edge">
<title>Node32&#45;&gt;Node24</title>
<path fill="none" stroke="midnightblue" d="M1581.42,-314.03C1528.18,-303.58 1454.3,-289.07 1398.48,-278.11"/>
<polygon fill="midnightblue" stroke="midnightblue" points="1399.12,-274.67 1388.63,-276.17 1397.77,-281.54 1399.12,-274.67"/>
</g>
<!-- Node33 -->
<g id="node33" class="node">
<title>Node33</title>
<g id="a_node33"><a xlink:href="JGeometry_8h.html" target="_top" xlink:title=" ">
<polygon fill="white" stroke="black" points="1540.5,-56.5 1540.5,-75.5 1703.5,-75.5 1703.5,-56.5 1540.5,-56.5"/>
<text text-anchor="middle" x="1622" y="-63.5" font-family="Helvetica,sans-Serif" font-size="10.00">JSystem/JGeometry/JGeometry.h</text>
</a>
</g>
</g>
<!-- Node32&#45;&gt;Node33 -->
<g id="edge69" class="edge">
<title>Node32&#45;&gt;Node33</title>
<path fill="none" stroke="midnightblue" d="M1642.23,-313.16C1630.88,-291.5 1610.05,-248.85 1600,-210 1592.5,-181.01 1594.56,-172.9 1593,-143 1592.28,-129.24 1589.11,-125.22 1593,-112 1596.01,-101.76 1602.15,-91.66 1608.01,-83.63"/>
<polygon fill="midnightblue" stroke="midnightblue" points="1610.93,-85.58 1614.33,-75.54 1605.41,-81.27 1610.93,-85.58"/>
</g>
<!-- Node33&#45;&gt;Node8 -->
<g id="edge70" class="edge">
<title>Node33&#45;&gt;Node8</title>
<path fill="none" stroke="midnightblue" d="M1540.31,-57.22C1535.47,-56.8 1530.67,-56.39 1526,-56 1314.37,-38.41 1061.83,-21.32 955.81,-14.32"/>
<polygon fill="midnightblue" stroke="midnightblue" points="955.92,-10.82 945.71,-13.65 955.46,-17.8 955.92,-10.82"/>
</g>
<!-- Node34&#45;&gt;Node8 -->
<g id="edge75" class="edge">
<title>Node34&#45;&gt;Node8</title>
<path fill="none" stroke="midnightblue" d="M1832.09,-313.36C1815.29,-290.12 1785,-241.81 1785,-195.5 1785,-195.5 1785,-195.5 1785,-126.5 1785,-88.09 1768.64,-74.55 1735,-56 1666.93,-18.45 1125.36,-12.23 955.66,-11.2"/>
<polygon fill="midnightblue" stroke="midnightblue" points="955.52,-7.7 945.5,-11.15 955.48,-14.7 955.52,-7.7"/>
</g>
<!-- Node34&#45;&gt;Node24 -->
<g id="edge72" class="edge">
<title>Node34&#45;&gt;Node24</title>
<path fill="none" stroke="midnightblue" d="M1775.2,-318.92C1759.69,-316.97 1743.28,-314.91 1728,-313 1613.67,-298.73 1481.34,-282.43 1398.89,-272.3"/>
<polygon fill="midnightblue" stroke="midnightblue" points="1399.2,-268.81 1388.84,-271.07 1398.34,-275.76 1399.2,-268.81"/>
</g>
<!-- Node35 -->
<g id="node35" class="node">
<title>Node35</title>
<g id="a_node35"><a xlink:href="random_8h.html" target="_top" xlink:title=" ">
<polygon fill="white" stroke="black" points="1813,-56.5 1813,-75.5 1941,-75.5 1941,-56.5 1813,-56.5"/>
<text text-anchor="middle" x="1877" y="-63.5" font-family="Helvetica,sans-Serif" font-size="10.00">JSystem/JMath/random.h</text>
</a>
</g>
</g>
<!-- Node34&#45;&gt;Node35 -->
<g id="edge73" class="edge">
<title>Node34&#45;&gt;Node35</title>
<path fill="none" stroke="midnightblue" d="M1844.83,-313.49C1850.55,-269.67 1868.11,-135.13 1874.58,-85.58"/>
<polygon fill="midnightblue" stroke="midnightblue" points="1878.05,-85.99 1875.87,-75.63 1871.11,-85.09 1878.05,-85.99"/>
</g>
<!-- Node35&#45;&gt;Node8 -->
<g id="edge74" class="edge">
<title>Node35&#45;&gt;Node8</title>
<path fill="none" stroke="midnightblue" d="M1812.76,-57.25C1808.11,-56.8 1803.48,-56.37 1799,-56 1478.62,-29.48 1092.27,-16.44 955.76,-12.41"/>
<polygon fill="midnightblue" stroke="midnightblue" points="955.7,-8.9 945.6,-12.11 955.5,-15.9 955.7,-8.9"/>
</g>
<!-- Node36&#45;&gt;Node12 -->
<g id="edge77" class="edge">
<title>Node36&#45;&gt;Node12</title>
<path fill="none" stroke="midnightblue" d="M1472.74,-380.26C1470.79,-363.42 1466.05,-334.92 1455,-313 1437.4,-278.09 1432.48,-264.44 1398,-246 1329.39,-209.3 1091.27,-198.96 1001.03,-196.33"/>
<polygon fill="midnightblue" stroke="midnightblue" points="1001.12,-192.83 991.03,-196.05 1000.93,-199.82 1001.12,-192.83"/>
</g>
<!-- Node36&#45;&gt;Node28 -->
<g id="edge78" class="edge">
<title>Node36&#45;&gt;Node28</title>
<path fill="none" stroke="midnightblue" d="M1486.8,-380.4C1496.09,-370.16 1508.68,-356.3 1518.37,-345.62"/>
<polygon fill="midnightblue" stroke="midnightblue" points="1520.98,-347.95 1525.11,-338.19 1515.8,-343.25 1520.98,-347.95"/>
</g>
</g>
</svg>
