<?xml version="1.0" encoding="UTF-8" standalone="no"?>
<!DOCTYPE svg PUBLIC "-//W3C//DTD SVG 1.1//EN"
 "http://www.w3.org/Graphics/SVG/1.1/DTD/svg11.dtd">
<!-- Generated by graphviz version 2.46.0 (20210122.1329)
 -->
<!-- Title: include/Z2AudioLib/Z2Creature/Z2Creature.h Pages: 1 -->
<!--zoomable 229 -->
<svg id="main" version="1.1" xmlns="http://www.w3.org/2000/svg" xmlns:xlink="http://www.w3.org/1999/xlink" xml:space="preserve" onload="init(evt)">
<style type="text/css"><![CDATA[
.edge:hover path { stroke: red; }
.edge:hover polygon { stroke: red; fill: red; }
]]></style>
<script type="text/javascript"><![CDATA[
var edges = document.getElementsByTagName('g');
if (edges && edges.length) {
  for (var i=0;i<edges.length;i++) {
    if (edges[i].id.substr(0,4)=='edge') {
      edges[i].setAttribute('class','edge');
    }
  }
}
]]></script>
        <defs>
                <circle id="rim" cx="0" cy="0" r="7"/>
                <circle id="rim2" cx="0" cy="0" r="3.5"/>
                <g id="zoomPlus">
                        <use xlink:href="#rim" fill="#404040">
                                <set attributeName="fill" to="#808080" begin="zoomplus.mouseover" end="zoomplus.mouseout"/>
                        </use>
                        <path d="M-4,0h8M0,-4v8" fill="none" stroke="white" stroke-width="1.5" pointer-events="none"/>
                </g>
                <g id="zoomMin">
                        <use xlink:href="#rim" fill="#404040">
                                <set attributeName="fill" to="#808080" begin="zoomminus.mouseover" end="zoomminus.mouseout"/>
                        </use>
                        <path d="M-4,0h8" fill="none" stroke="white" stroke-width="1.5" pointer-events="none"/>
                </g>
                <g id="dirArrow">
                        <path fill="none" stroke="white" stroke-width="1.5" d="M0,-3.0v7 M-2.5,-0.5L0,-3.0L2.5,-0.5"/>
                </g>
               <g id="resetDef">
                       <use xlink:href="#rim2" fill="#404040">
                               <set attributeName="fill" to="#808080" begin="reset.mouseover" end="reset.mouseout"/>
                       </use>
               </g>
        </defs>

<script type="text/javascript">
var viewWidth = 1314;
var viewHeight = 229;
var sectionId = 'dynsection-0';
</script>
<script xlink:href="svgpan.js"/>
<svg id="graph" class="graph">
<g id="viewport">
<title>include/Z2AudioLib/Z2Creature/Z2Creature.h</title>
<polygon fill="white" stroke="transparent" points="-4,4 -4,-225 1309.5,-225 1309.5,4 -4,4"/>
<!-- Node1 -->
<g id="node1" class="node">
<title>Node1</title>
<g id="a_node1"><a xlink:title=" ">
<polygon fill="#bfbfbf" stroke="black" points="169.5,-190.5 169.5,-220.5 295.5,-220.5 295.5,-190.5 169.5,-190.5"/>
<text text-anchor="start" x="177.5" y="-208.5" font-family="Helvetica,sans-Serif" font-size="10.00">include/Z2AudioLib</text>
<text text-anchor="middle" x="232.5" y="-197.5" font-family="Helvetica,sans-Serif" font-size="10.00">/Z2Creature/Z2Creature.h</text>
</a>
</g>
</g>
<!-- Node2 -->
<g id="node2" class="node">
<title>Node2</title>
<g id="a_node2"><a xlink:href="d__a__horse__static_8cpp.html" target="_top" xlink:title=" ">
<polygon fill="white" stroke="black" points="6,-123.5 6,-153.5 111,-153.5 111,-123.5 6,-123.5"/>
<text text-anchor="start" x="14" y="-141.5" font-family="Helvetica,sans-Serif" font-size="10.00">src/d/d_a/d_a_horse</text>
<text text-anchor="middle" x="58.5" y="-130.5" font-family="Helvetica,sans-Serif" font-size="10.00">_static.cpp</text>
</a>
</g>
</g>
<!-- Node1&#45;&gt;Node2 -->
<g id="edge1" class="edge">
<title>Node1&#45;&gt;Node2</title>
<path fill="none" stroke="midnightblue" d="M185.17,-186.82C157.2,-176.37 122.27,-163.32 96.18,-153.58"/>
<polygon fill="midnightblue" stroke="midnightblue" points="184.15,-190.18 194.74,-190.4 186.6,-183.62 184.15,-190.18"/>
</g>
<!-- Node3 -->
<g id="node3" class="node">
<title>Node3</title>
<g id="a_node3"><a xlink:href="d__a__alink_8cpp.html" target="_top" xlink:title=" ">
<polygon fill="white" stroke="black" points="129,-129 129,-148 248,-148 248,-129 129,-129"/>
<text text-anchor="middle" x="188.5" y="-136" font-family="Helvetica,sans-Serif" font-size="10.00">src/d/d_a/d_a_alink.cpp</text>
</a>
</g>
</g>
<!-- Node1&#45;&gt;Node3 -->
<g id="edge2" class="edge">
<title>Node1&#45;&gt;Node3</title>
<path fill="none" stroke="midnightblue" d="M217.25,-181.97C209.37,-170.33 200.21,-156.8 194.39,-148.19"/>
<polygon fill="midnightblue" stroke="midnightblue" points="214.45,-184.08 222.95,-190.4 220.25,-180.15 214.45,-184.08"/>
</g>
<!-- Node4 -->
<g id="node4" class="node">
<title>Node4</title>
<g id="a_node4"><a xlink:href="Z2Creature_8cpp.html" target="_top" xlink:title=" ">
<polygon fill="white" stroke="black" points="0,-62 0,-81 153,-81 153,-62 0,-62"/>
<text text-anchor="middle" x="76.5" y="-69" font-family="Helvetica,sans-Serif" font-size="10.00">libs/Z2AudioLib/Z2Creature.cpp</text>
</a>
</g>
</g>
<!-- Node1&#45;&gt;Node4 -->
<g id="edge3" class="edge">
<title>Node1&#45;&gt;Node4</title>
<path fill="none" stroke="midnightblue" d="M249.51,-181.99C260.53,-164.45 270.61,-140.27 257.5,-123 248.87,-111.63 167.46,-92.21 116.8,-81.05"/>
<polygon fill="midnightblue" stroke="midnightblue" points="246.47,-180.24 243.78,-190.48 252.28,-184.15 246.47,-180.24"/>
</g>
<!-- Node5 -->
<g id="node5" class="node">
<title>Node5</title>
<g id="a_node5"><a xlink:href="Z2SoundObjMgr_8h.html" target="_top" xlink:title=" ">
<polygon fill="white" stroke="black" points="505,-123.5 505,-153.5 676,-153.5 676,-123.5 505,-123.5"/>
<text text-anchor="start" x="513" y="-141.5" font-family="Helvetica,sans-Serif" font-size="10.00">include/Z2AudioLib</text>
<text text-anchor="middle" x="590.5" y="-130.5" font-family="Helvetica,sans-Serif" font-size="10.00">/Z2SoundObjMgr/Z2SoundObjMgr.h</text>
</a>
</g>
</g>
<!-- Node1&#45;&gt;Node5 -->
<g id="edge4" class="edge">
<title>Node1&#45;&gt;Node5</title>
<path fill="none" stroke="midnightblue" d="M305.54,-191.24C366.02,-180.26 451.71,-164.7 513.31,-153.51"/>
<polygon fill="midnightblue" stroke="midnightblue" points="304.89,-187.8 295.68,-193.03 306.14,-194.69 304.89,-187.8"/>
</g>
<!-- Node5&#45;&gt;Node4 -->
<g id="edge6" class="edge">
<title>Node5&#45;&gt;Node4</title>
<path fill="none" stroke="midnightblue" d="M494.56,-127.56C407.7,-118.23 276.31,-103.3 162.5,-87 150.21,-85.24 136.97,-83.12 124.65,-81.05"/>
<polygon fill="midnightblue" stroke="midnightblue" points="494.35,-131.05 504.67,-128.64 495.1,-124.09 494.35,-131.05"/>
</g>
<!-- Node6 -->
<g id="node6" class="node">
<title>Node6</title>
<g id="a_node6"><a xlink:href="Z2AudioMgr_8cpp.html" target="_top" xlink:title=" ">
<polygon fill="white" stroke="black" points="171.5,-62 171.5,-81 329.5,-81 329.5,-62 171.5,-62"/>
<text text-anchor="middle" x="250.5" y="-69" font-family="Helvetica,sans-Serif" font-size="10.00">libs/Z2AudioLib/Z2AudioMgr.cpp</text>
</a>
</g>
</g>
<!-- Node5&#45;&gt;Node6 -->
<g id="edge5" class="edge">
<title>Node5&#45;&gt;Node6</title>
<path fill="none" stroke="midnightblue" d="M507.04,-121.54C440.13,-108.75 348.82,-91.3 295.11,-81.03"/>
<polygon fill="midnightblue" stroke="midnightblue" points="506.66,-125.04 517.14,-123.48 507.98,-118.16 506.66,-125.04"/>
</g>
<!-- Node7 -->
<g id="node7" class="node">
<title>Node7</title>
<g id="a_node7"><a xlink:href="Z2LinkMgr_8cpp.html" target="_top" xlink:title=" ">
<polygon fill="white" stroke="black" points="347.5,-62 347.5,-81 499.5,-81 499.5,-62 347.5,-62"/>
<text text-anchor="middle" x="423.5" y="-69" font-family="Helvetica,sans-Serif" font-size="10.00">libs/Z2AudioLib/Z2LinkMgr.cpp</text>
</a>
</g>
</g>
<!-- Node5&#45;&gt;Node7 -->
<g id="edge7" class="edge">
<title>Node5&#45;&gt;Node7</title>
<path fill="none" stroke="midnightblue" d="M544.57,-119.62C512.24,-107.04 470.43,-90.77 445.36,-81.01"/>
<polygon fill="midnightblue" stroke="midnightblue" points="543.67,-123.03 554.26,-123.4 546.21,-116.51 543.67,-123.03"/>
</g>
<!-- Node8 -->
<g id="node8" class="node">
<title>Node8</title>
<g id="a_node8"><a xlink:href="Z2SeMgr_8cpp.html" target="_top" xlink:title=" ">
<polygon fill="white" stroke="black" points="518,-62 518,-81 663,-81 663,-62 518,-62"/>
<text text-anchor="middle" x="590.5" y="-69" font-family="Helvetica,sans-Serif" font-size="10.00">libs/Z2AudioLib/Z2SeMgr.cpp</text>
</a>
</g>
</g>
<!-- Node5&#45;&gt;Node8 -->
<g id="edge8" class="edge">
<title>Node5&#45;&gt;Node8</title>
<path fill="none" stroke="midnightblue" d="M590.5,-113.25C590.5,-102.02 590.5,-89.38 590.5,-81.19"/>
<polygon fill="midnightblue" stroke="midnightblue" points="587,-113.4 590.5,-123.4 594,-113.4 587,-113.4"/>
</g>
<!-- Node9 -->
<g id="node9" class="node">
<title>Node9</title>
<g id="a_node9"><a xlink:href="Z2SceneMgr_8cpp.html" target="_top" xlink:title=" ">
<polygon fill="white" stroke="black" points="681,-62 681,-81 842,-81 842,-62 681,-62"/>
<text text-anchor="middle" x="761.5" y="-69" font-family="Helvetica,sans-Serif" font-size="10.00">libs/Z2AudioLib/Z2SceneMgr.cpp</text>
</a>
</g>
</g>
<!-- Node5&#45;&gt;Node9 -->
<g id="edge9" class="edge">
<title>Node5&#45;&gt;Node9</title>
<path fill="none" stroke="midnightblue" d="M637.11,-119.78C670.26,-107.18 713.34,-90.81 739.12,-81.01"/>
<polygon fill="midnightblue" stroke="midnightblue" points="635.71,-116.57 627.6,-123.4 638.2,-123.11 635.71,-116.57"/>
</g>
<!-- Node10 -->
<g id="node10" class="node">
<title>Node10</title>
<g id="a_node10"><a xlink:href="Z2SeqMgr_8cpp.html" target="_top" xlink:title=" ">
<polygon fill="white" stroke="black" points="860.5,-62 860.5,-81 1010.5,-81 1010.5,-62 860.5,-62"/>
<text text-anchor="middle" x="935.5" y="-69" font-family="Helvetica,sans-Serif" font-size="10.00">libs/Z2AudioLib/Z2SeqMgr.cpp</text>
</a>
</g>
</g>
<!-- Node5&#45;&gt;Node10 -->
<g id="edge10" class="edge">
<title>Node5&#45;&gt;Node10</title>
<path fill="none" stroke="midnightblue" d="M674.77,-121.62C742.71,-108.82 835.63,-91.32 890.23,-81.03"/>
<polygon fill="midnightblue" stroke="midnightblue" points="674.11,-118.18 664.94,-123.48 675.41,-125.06 674.11,-118.18"/>
</g>
<!-- Node11 -->
<g id="node11" class="node">
<title>Node11</title>
<g id="a_node11"><a xlink:href="Z2SoundObjMgr_8cpp.html" target="_top" xlink:title=" ">
<polygon fill="white" stroke="black" points="1029,-56.5 1029,-86.5 1170,-86.5 1170,-56.5 1029,-56.5"/>
<text text-anchor="start" x="1037" y="-74.5" font-family="Helvetica,sans-Serif" font-size="10.00">libs/Z2AudioLib/Z2SoundObj</text>
<text text-anchor="middle" x="1099.5" y="-63.5" font-family="Helvetica,sans-Serif" font-size="10.00">Mgr.cpp</text>
</a>
</g>
</g>
<!-- Node5&#45;&gt;Node11 -->
<g id="edge11" class="edge">
<title>Node5&#45;&gt;Node11</title>
<path fill="none" stroke="midnightblue" d="M686.3,-127.94C773.39,-118.85 905.35,-104.05 1019.5,-87 1022.57,-86.54 1025.71,-86.05 1028.87,-85.55"/>
<polygon fill="midnightblue" stroke="midnightblue" points="685.76,-124.48 676.17,-129 686.48,-131.44 685.76,-124.48"/>
</g>
<!-- Node12 -->
<g id="node12" class="node">
<title>Node12</title>
<g id="a_node12"><a xlink:href="Z2AudioLib_8h.html" target="_top" xlink:title=" ">
<polygon fill="white" stroke="black" points="1188.5,-56.5 1188.5,-86.5 1288.5,-86.5 1288.5,-56.5 1188.5,-56.5"/>
<text text-anchor="start" x="1196.5" y="-74.5" font-family="Helvetica,sans-Serif" font-size="10.00">include/Z2AudioLib</text>
<text text-anchor="middle" x="1238.5" y="-63.5" font-family="Helvetica,sans-Serif" font-size="10.00">/Z2AudioLib.h</text>
</a>
</g>
</g>
<!-- Node5&#45;&gt;Node12 -->
<g id="edge12" class="edge">
<title>Node5&#45;&gt;Node12</title>
<path fill="none" stroke="midnightblue" d="M686.38,-133.86C803.41,-128.37 1007.05,-115.41 1179.5,-87 1182.41,-86.52 1185.4,-85.97 1188.4,-85.38"/>
<polygon fill="midnightblue" stroke="midnightblue" points="686.19,-130.37 676.37,-134.32 686.52,-137.36 686.19,-130.37"/>
</g>
<!-- Node13 -->
<g id="node13" class="node">
<title>Node13</title>
<g id="a_node13"><a xlink:href="m__Do__audio_8cpp.html" target="_top" xlink:title=" ">
<polygon fill="white" stroke="black" points="1171.5,-0.5 1171.5,-19.5 1305.5,-19.5 1305.5,-0.5 1171.5,-0.5"/>
<text text-anchor="middle" x="1238.5" y="-7.5" font-family="Helvetica,sans-Serif" font-size="10.00">src/m_Do/m_Do_audio.cpp</text>
</a>
</g>
</g>
<!-- Node12&#45;&gt;Node13 -->
<g id="edge13" class="edge">
<title>Node12&#45;&gt;Node13</title>
<path fill="none" stroke="midnightblue" d="M1238.5,-46.29C1238.5,-36.86 1238.5,-26.65 1238.5,-19.66"/>
<polygon fill="midnightblue" stroke="midnightblue" points="1235,-46.4 1238.5,-56.4 1242,-46.4 1235,-46.4"/>
</g>
</g>
</svg>
        <g id="navigator" transform="translate(0 0)" fill="#404254">
                <rect fill="#f2f5e9" fill-opacity="0.5" stroke="#606060" stroke-width=".5" x="0" y="0" width="60" height="60"/>
                <use id="zoomplus" xlink:href="#zoomPlus" x="17" y="9" onmousedown="handleZoom(evt,'in')"/>
                <use id="zoomminus" xlink:href="#zoomMin" x="42" y="9" onmousedown="handleZoom(evt,'out')"/>
                <use id="reset" xlink:href="#resetDef" x="30" y="36" onmousedown="handleReset()"/>
                <g id="arrowUp" xlink:href="#dirArrow" transform="translate(30 24)" onmousedown="handlePan(0,-1)">
                  <use xlink:href="#rim" fill="#404040">
                        <set attributeName="fill" to="#808080" begin="arrowUp.mouseover" end="arrowUp.mouseout"/>
                  </use>
                  <path fill="none" stroke="white" stroke-width="1.5" d="M0,-3.0v7 M-2.5,-0.5L0,-3.0L2.5,-0.5"/>
                </g>
                <g id="arrowRight" xlink:href="#dirArrow" transform="rotate(90) translate(36 -43)" onmousedown="handlePan(1,0)">
                  <use xlink:href="#rim" fill="#404040">
                        <set attributeName="fill" to="#808080" begin="arrowRight.mouseover" end="arrowRight.mouseout"/>
                  </use>
                  <path fill="none" stroke="white" stroke-width="1.5" d="M0,-3.0v7 M-2.5,-0.5L0,-3.0L2.5,-0.5"/>
                </g>
                <g id="arrowDown" xlink:href="#dirArrow" transform="rotate(180) translate(-30 -48)" onmousedown="handlePan(0,1)">
                  <use xlink:href="#rim" fill="#404040">
                        <set attributeName="fill" to="#808080" begin="arrowDown.mouseover" end="arrowDown.mouseout"/>
                  </use>
                  <path fill="none" stroke="white" stroke-width="1.5" d="M0,-3.0v7 M-2.5,-0.5L0,-3.0L2.5,-0.5"/>
                </g>
                <g id="arrowLeft" xlink:href="#dirArrow" transform="rotate(270) translate(-36 17)" onmousedown="handlePan(-1,0)">
                  <use xlink:href="#rim" fill="#404040">
                        <set attributeName="fill" to="#808080" begin="arrowLeft.mouseover" end="arrowLeft.mouseout"/>
                  </use>
                  <path fill="none" stroke="white" stroke-width="1.5" d="M0,-3.0v7 M-2.5,-0.5L0,-3.0L2.5,-0.5"/>
                </g>
        </g>
        <svg viewBox="0 0 15 15" width="100%" height="30px" preserveAspectRatio="xMaxYMin meet">
         <g id="arrow_out" transform="scale(0.3 0.3)">
          <a xlink:href="Z2Creature_8h__dep__incl_org.svg" target="_base">
           <rect id="button" ry="5" rx="5" y="6" x="6" height="38" width="38"
                fill="#f2f5e9" fill-opacity="0.5" stroke="#606060" stroke-width="1.0"/>
           <path id="arrow"
             d="M 11.500037,31.436501 C 11.940474,20.09759 22.043105,11.32322 32.158766,21.979434 L 37.068811,17.246167 C 37.068811,17.246167 37.088388,32 37.088388,32 L 22.160133,31.978069 C 22.160133,31.978069 26.997745,27.140456 26.997745,27.140456 C 18.528582,18.264221 13.291696,25.230495 11.500037,31.436501 z"
             style="fill:#404040;"/>
          </a>
         </g>
        </svg>
</svg>
