<?xml version="1.0" encoding="UTF-8" standalone="no"?>
<!DOCTYPE svg PUBLIC "-//W3C//DTD SVG 1.1//EN"
 "http://www.w3.org/Graphics/SVG/1.1/DTD/svg11.dtd">
<!-- Generated by graphviz version 7.0.5 (20221223.1930)
 -->
<!-- Title: include/Z2AudioLib/Z2SeMgr.h Pages: 1 -->
<!--zoomable 511 -->
<svg id="main" version="1.1" xmlns="http://www.w3.org/2000/svg" xmlns:xlink="http://www.w3.org/1999/xlink" xml:space="preserve" onload="init(evt)">
<style type="text/css"><![CDATA[
.edge:hover path { stroke: red; }
.edge:hover polygon { stroke: red; fill: red; }
]]></style>
<script type="text/javascript"><![CDATA[
var edges = document.getElementsByTagName('g');
if (edges && edges.length) {
  for (var i=0;i<edges.length;i++) {
    if (edges[i].id.substr(0,4)=='edge') {
      edges[i].setAttribute('class','edge');
    }
  }
}
]]></script>
        <defs>
                <circle id="rim" cx="0" cy="0" r="7"/>
                <circle id="rim2" cx="0" cy="0" r="3.5"/>
                <g id="zoomPlus">
                        <use xlink:href="#rim" fill="#404040">
                                <set attributeName="fill" to="#808080" begin="zoomplus.mouseover" end="zoomplus.mouseout"/>
                        </use>
                        <path d="M-4,0h8M0,-4v8" fill="none" stroke="white" stroke-width="1.5" pointer-events="none"/>
                </g>
                <g id="zoomMin">
                        <use xlink:href="#rim" fill="#404040">
                                <set attributeName="fill" to="#808080" begin="zoomminus.mouseover" end="zoomminus.mouseout"/>
                        </use>
                        <path d="M-4,0h8" fill="none" stroke="white" stroke-width="1.5" pointer-events="none"/>
                </g>
                <g id="dirArrow">
                        <path fill="none" stroke="white" stroke-width="1.5" d="M0,-3.0v7 M-2.5,-0.5L0,-3.0L2.5,-0.5"/>
                </g>
               <g id="resetDef">
                       <use xlink:href="#rim2" fill="#404040">
                               <set attributeName="fill" to="#808080" begin="reset.mouseover" end="reset.mouseout"/>
                       </use>
               </g>
        </defs>

<script type="text/javascript">
var viewWidth = 2276;
var viewHeight = 511;
var sectionId = 'dynsection-0';
</script>
<script xlink:href="svgpan.js"/>
<svg id="graph" class="graph">
<g id="viewport">
<title>include/Z2AudioLib/Z2SeMgr.h</title>
<!-- Node1 -->
<g id="node1" class="node">
<title>Node1</title>
<g id="a_node1"><a xlink:title=" ">
<polygon fill="#999999" stroke="#666666" points="2094,-503 1994,-503 1994,-473 2094,-473 2094,-503"/>
<text text-anchor="start" x="2002" y="-491" font-family="Helvetica,sans-Serif" font-size="10.00">include/Z2AudioLib</text>
<text text-anchor="middle" x="2044" y="-480" font-family="Helvetica,sans-Serif" font-size="10.00">/Z2SeMgr.h</text>
</a>
</g>
</g>
<!-- Node2 -->
<g id="node2" class="node">
<title>Node2</title>
<g id="a_node2"><a xlink:href="JAISoundHandles_8h.html" target="_top" xlink:title=" ">
<polygon fill="white" stroke="#666666" points="2113.5,-437 1974.5,-437 1974.5,-407 2113.5,-407 2113.5,-437"/>
<text text-anchor="start" x="1982.5" y="-425" font-family="Helvetica,sans-Serif" font-size="10.00">JSystem/JAudio2/JAISound</text>
<text text-anchor="middle" x="2044" y="-414" font-family="Helvetica,sans-Serif" font-size="10.00">Handles.h</text>
</a>
</g>
</g>
<!-- Node1&#45;&gt;Node2 -->
<g id="edge1" class="edge">
<title>Node1&#45;&gt;Node2</title>
<path fill="none" stroke="#63b8ff" d="M2044,-472.8C2044,-465.67 2044,-456.82 2044,-448.56"/>
<polygon fill="#63b8ff" stroke="#63b8ff" points="2047.5,-448.68 2044,-438.68 2040.5,-448.68 2047.5,-448.68"/>
</g>
<!-- Node10 -->
<g id="node10" class="node">
<title>Node10</title>
<g id="a_node10"><a xlink:href="vec_8h.html" target="_top" xlink:title=" ">
<polygon fill="white" stroke="#666666" points="2260,-129 2168,-129 2168,-110 2260,-110 2260,-129"/>
<text text-anchor="middle" x="2214" y="-117" font-family="Helvetica,sans-Serif" font-size="10.00">dolphin/mtx/vec.h</text>
</a>
</g>
</g>
<!-- Node1&#45;&gt;Node10 -->
<g id="edge70" class="edge">
<title>Node1&#45;&gt;Node10</title>
<path fill="none" stroke="#63b8ff" d="M2094.27,-481.34C2160.31,-470.79 2268,-441.47 2268,-362.5 2268,-362.5 2268,-362.5 2268,-245 2268,-207.88 2259.89,-198.55 2244,-165 2239.62,-155.75 2233.47,-146.24 2227.88,-138.4"/>
<polygon fill="#63b8ff" stroke="#63b8ff" points="2230.73,-136.37 2221.96,-130.44 2225.12,-140.55 2230.73,-136.37"/>
</g>
<!-- Node40 -->
<g id="node40" class="node">
<title>Node40</title>
<g id="a_node40"><a xlink:href="JASGadget_8h.html" target="_top" xlink:title=" ">
<polygon fill="white" stroke="#666666" points="1940,-431.5 1786,-431.5 1786,-412.5 1940,-412.5 1940,-431.5"/>
<text text-anchor="middle" x="1863" y="-419.5" font-family="Helvetica,sans-Serif" font-size="10.00">JSystem/JAudio2/JASGadget.h</text>
</a>
</g>
</g>
<!-- Node1&#45;&gt;Node40 -->
<g id="edge65" class="edge">
<title>Node1&#45;&gt;Node40</title>
<path fill="none" stroke="#63b8ff" d="M2003.38,-472.64C1972,-461.54 1929,-446.34 1898.88,-435.69"/>
<polygon fill="#63b8ff" stroke="#63b8ff" points="1900.43,-432.52 1889.84,-432.49 1898.1,-439.12 1900.43,-432.52"/>
</g>
<!-- Node3 -->
<g id="node3" class="node">
<title>Node3</title>
<g id="a_node3"><a xlink:href="JAISound_8h.html" target="_top" xlink:title=" ">
<polygon fill="white" stroke="#666666" points="2125,-316 1979,-316 1979,-297 2125,-297 2125,-316"/>
<text text-anchor="middle" x="2052" y="-304" font-family="Helvetica,sans-Serif" font-size="10.00">JSystem/JAudio2/JAISound.h</text>
</a>
</g>
</g>
<!-- Node2&#45;&gt;Node3 -->
<g id="edge2" class="edge">
<title>Node2&#45;&gt;Node3</title>
<path fill="none" stroke="#63b8ff" d="M2045.01,-406.63C2046.43,-386.59 2048.99,-350.17 2050.59,-327.49"/>
<polygon fill="#63b8ff" stroke="#63b8ff" points="2054.07,-327.96 2051.28,-317.74 2047.08,-327.47 2054.07,-327.96"/>
</g>
<!-- Node15 -->
<g id="node15" class="node">
<title>Node15</title>
<g id="a_node15"><a xlink:href="JUTAssert_8h.html" target="_top" xlink:title=" ">
<polygon fill="white" stroke="#666666" points="1936,-371 1790,-371 1790,-352 1936,-352 1936,-371"/>
<text text-anchor="middle" x="1863" y="-359" font-family="Helvetica,sans-Serif" font-size="10.00">JSystem/JUtility/JUTAssert.h</text>
</a>
</g>
</g>
<!-- Node2&#45;&gt;Node15 -->
<g id="edge16" class="edge">
<title>Node2&#45;&gt;Node15</title>
<path fill="none" stroke="#63b8ff" d="M1999.26,-406.54C1969.22,-396.83 1930.06,-384.17 1901.43,-374.92"/>
<polygon fill="#63b8ff" stroke="#63b8ff" points="1902.67,-371.64 1892.08,-371.9 1900.52,-378.3 1902.67,-371.64"/>
</g>
<!-- Node4 -->
<g id="node4" class="node">
<title>Node4</title>
<g id="a_node4"><a xlink:href="JAISoundParams_8h.html" target="_top" xlink:title=" ">
<polygon fill="white" stroke="#666666" points="2031.5,-261 1892.5,-261 1892.5,-231 2031.5,-231 2031.5,-261"/>
<text text-anchor="start" x="1900.5" y="-249" font-family="Helvetica,sans-Serif" font-size="10.00">JSystem/JAudio2/JAISound</text>
<text text-anchor="middle" x="1962" y="-238" font-family="Helvetica,sans-Serif" font-size="10.00">Params.h</text>
</a>
</g>
</g>
<!-- Node3&#45;&gt;Node4 -->
<g id="edge3" class="edge">
<title>Node3&#45;&gt;Node4</title>
<path fill="none" stroke="#63b8ff" d="M2038.33,-296.62C2026.55,-288.96 2009.09,-277.61 1993.84,-267.69"/>
<polygon fill="#63b8ff" stroke="#63b8ff" points="1995.78,-264.78 1985.48,-262.26 1991.96,-270.65 1995.78,-264.78"/>
</g>
<!-- Node8 -->
<g id="node8" class="node">
<title>Node8</title>
<g id="a_node8"><a xlink:href="JAIAudible_8h.html" target="_top" xlink:title=" ">
<polygon fill="white" stroke="#666666" points="2239.5,-255.5 2088.5,-255.5 2088.5,-236.5 2239.5,-236.5 2239.5,-255.5"/>
<text text-anchor="middle" x="2164" y="-243.5" font-family="Helvetica,sans-Serif" font-size="10.00">JSystem/JAudio2/JAIAudible.h</text>
</a>
</g>
</g>
<!-- Node3&#45;&gt;Node8 -->
<g id="edge7" class="edge">
<title>Node3&#45;&gt;Node8</title>
<path fill="none" stroke="#63b8ff" d="M2069.01,-296.62C2087.02,-287.21 2115.71,-272.22 2136.85,-261.18"/>
<polygon fill="#63b8ff" stroke="#63b8ff" points="2138.24,-264.4 2145.49,-256.67 2135,-258.2 2138.24,-264.4"/>
</g>
<!-- Node14 -->
<g id="node14" class="node">
<title>Node14</title>
<g id="a_node14"><a xlink:href="global_8h.html" target="_top" xlink:title=" ">
<polygon fill="white" stroke="#666666" points="2103,-189.5 2053,-189.5 2053,-170.5 2103,-170.5 2103,-189.5"/>
<text text-anchor="middle" x="2078" y="-177.5" font-family="Helvetica,sans-Serif" font-size="10.00">global.h</text>
</a>
</g>
</g>
<!-- Node3&#45;&gt;Node14 -->
<g id="edge14" class="edge">
<title>Node3&#45;&gt;Node14</title>
<path fill="none" stroke="#63b8ff" d="M2053.87,-296.55C2058.03,-276.63 2068.13,-228.24 2073.86,-200.82"/>
<polygon fill="#63b8ff" stroke="#63b8ff" points="2077.22,-201.86 2075.84,-191.35 2070.37,-200.43 2077.22,-201.86"/>
</g>
<!-- Node5 -->
<g id="node5" class="node">
<title>Node5</title>
<g id="a_node5"><a xlink:href="JASSoundParams_8h.html" target="_top" xlink:title=" ">
<polygon fill="white" stroke="#666666" points="2034.5,-195 1891.5,-195 1891.5,-165 2034.5,-165 2034.5,-195"/>
<text text-anchor="start" x="1899.5" y="-183" font-family="Helvetica,sans-Serif" font-size="10.00">JSystem/JAudio2/JASSound</text>
<text text-anchor="middle" x="1963" y="-172" font-family="Helvetica,sans-Serif" font-size="10.00">Params.h</text>
</a>
</g>
</g>
<!-- Node4&#45;&gt;Node5 -->
<g id="edge4" class="edge">
<title>Node4&#45;&gt;Node5</title>
<path fill="none" stroke="#63b8ff" d="M1962.22,-230.8C1962.33,-223.67 1962.47,-214.82 1962.6,-206.56"/>
<polygon fill="#63b8ff" stroke="#63b8ff" points="1966.1,-206.73 1962.76,-196.68 1959.1,-206.62 1966.1,-206.73"/>
</g>
<!-- Node6 -->
<g id="node6" class="node">
<title>Node6</title>
<g id="a_node6"><a xlink:href="types_8h.html" target="_top" xlink:title=" ">
<polygon fill="white" stroke="#666666" points="989.5,-74 908.5,-74 908.5,-55 989.5,-55 989.5,-74"/>
<text text-anchor="middle" x="949" y="-62" font-family="Helvetica,sans-Serif" font-size="10.00">dolphin/types.h</text>
</a>
</g>
</g>
<!-- Node5&#45;&gt;Node6 -->
<g id="edge5" class="edge">
<title>Node5&#45;&gt;Node6</title>
<path fill="none" stroke="#63b8ff" d="M1950.71,-164.77C1935.37,-148.17 1907.43,-121.53 1877,-110 1795.17,-79.01 1185.36,-68.58 1001.39,-66.13"/>
<polygon fill="#63b8ff" stroke="#63b8ff" points="1001.46,-62.63 991.41,-66 1001.36,-69.63 1001.46,-62.63"/>
</g>
<!-- Node7 -->
<g id="node7" class="node">
<title>Node7</title>
<g id="a_node7"><a xlink:href="stddef_8h.html" target="_top" xlink:title=" ">
<polygon fill="white" stroke="#666666" points="545.5,-19 494.5,-19 494.5,0 545.5,0 545.5,-19"/>
<text text-anchor="middle" x="520" y="-7" font-family="Helvetica,sans-Serif" font-size="10.00">stddef.h</text>
</a>
</g>
</g>
<!-- Node6&#45;&gt;Node7 -->
<g id="edge6" class="edge">
<title>Node6&#45;&gt;Node7</title>
<path fill="none" stroke="#63b8ff" d="M908.25,-58.47C825.03,-48.18 636.64,-24.91 556.83,-15.05"/>
<polygon fill="#63b8ff" stroke="#63b8ff" points="557.73,-11.63 547.37,-13.88 556.87,-18.58 557.73,-11.63"/>
</g>
<!-- Node9 -->
<g id="node9" class="node">
<title>Node9</title>
<g id="a_node9"><a xlink:href="JGeometry_8h.html" target="_top" xlink:title=" ">
<polygon fill="white" stroke="#666666" points="2234.5,-189.5 2121.5,-189.5 2121.5,-170.5 2234.5,-170.5 2234.5,-189.5"/>
<text text-anchor="middle" x="2178" y="-177.5" font-family="Helvetica,sans-Serif" font-size="10.00">JSystem/JGeometry.h</text>
</a>
</g>
</g>
<!-- Node8&#45;&gt;Node9 -->
<g id="edge8" class="edge">
<title>Node8&#45;&gt;Node9</title>
<path fill="none" stroke="#63b8ff" d="M2165.95,-236.1C2167.93,-227.03 2171.08,-212.64 2173.66,-200.85"/>
<polygon fill="#63b8ff" stroke="#63b8ff" points="2177.03,-201.82 2175.75,-191.3 2170.19,-200.32 2177.03,-201.82"/>
</g>
<!-- Node9&#45;&gt;Node10 -->
<g id="edge9" class="edge">
<title>Node9&#45;&gt;Node10</title>
<path fill="none" stroke="#63b8ff" d="M2183.31,-170.37C2188.42,-162.07 2196.29,-149.28 2202.79,-138.72"/>
<polygon fill="#63b8ff" stroke="#63b8ff" points="2205.61,-140.81 2207.87,-130.46 2199.65,-137.14 2205.61,-140.81"/>
</g>
<!-- Node11 -->
<g id="node11" class="node">
<title>Node11</title>
<g id="a_node11"><a xlink:href="math_8h.html" target="_top" xlink:title=" ">
<polygon fill="white" stroke="#666666" points="2150,-129 2104,-129 2104,-110 2150,-110 2150,-129"/>
<text text-anchor="middle" x="2127" y="-117" font-family="Helvetica,sans-Serif" font-size="10.00">math.h</text>
</a>
</g>
</g>
<!-- Node9&#45;&gt;Node11 -->
<g id="edge11" class="edge">
<title>Node9&#45;&gt;Node11</title>
<path fill="none" stroke="#63b8ff" d="M2170.47,-170.37C2163.02,-161.81 2151.39,-148.47 2142.03,-137.74"/>
<polygon fill="#63b8ff" stroke="#63b8ff" points="2144.76,-135.55 2135.55,-130.31 2139.48,-140.15 2144.76,-135.55"/>
</g>
<!-- Node10&#45;&gt;Node6 -->
<g id="edge10" class="edge">
<title>Node10&#45;&gt;Node6</title>
<path fill="none" stroke="#63b8ff" d="M2167.54,-110.93C2164.65,-110.58 2161.79,-110.27 2159,-110 1712.48,-67.43 1169.68,-64.91 1001.32,-65.25"/>
<polygon fill="#63b8ff" stroke="#63b8ff" points="1001.36,-61.75 991.36,-65.27 1001.37,-68.75 1001.36,-61.75"/>
</g>
<!-- Node12 -->
<g id="node12" class="node">
<title>Node12</title>
<g id="a_node12"><a xlink:href="float_8h.html" target="_top" xlink:title=" ">
<polygon fill="white" stroke="#666666" points="2148,-74 2106,-74 2106,-55 2148,-55 2148,-74"/>
<text text-anchor="middle" x="2127" y="-62" font-family="Helvetica,sans-Serif" font-size="10.00">float.h</text>
</a>
</g>
</g>
<!-- Node11&#45;&gt;Node12 -->
<g id="edge12" class="edge">
<title>Node11&#45;&gt;Node12</title>
<path fill="none" stroke="#63b8ff" d="M2127,-109.75C2127,-103.27 2127,-94.16 2127,-85.9"/>
<polygon fill="#63b8ff" stroke="#63b8ff" points="2130.5,-85.96 2127,-75.96 2123.5,-85.96 2130.5,-85.96"/>
</g>
<!-- Node13 -->
<g id="node13" class="node">
<title>Node13</title>
<g id="a_node13"><a xlink:href="fdlibm_8h.html" target="_top" xlink:title=" ">
<polygon fill="white" stroke="#666666" points="2152,-19 2102,-19 2102,0 2152,0 2152,-19"/>
<text text-anchor="middle" x="2127" y="-7" font-family="Helvetica,sans-Serif" font-size="10.00">fdlibm.h</text>
</a>
</g>
</g>
<!-- Node12&#45;&gt;Node13 -->
<g id="edge13" class="edge">
<title>Node12&#45;&gt;Node13</title>
<path fill="none" stroke="#63b8ff" d="M2127,-54.75C2127,-48.27 2127,-39.16 2127,-30.9"/>
<polygon fill="#63b8ff" stroke="#63b8ff" points="2130.5,-30.96 2127,-20.96 2123.5,-30.96 2130.5,-30.96"/>
</g>
<!-- Node14&#45;&gt;Node6 -->
<g id="edge15" class="edge">
<title>Node14&#45;&gt;Node6</title>
<path fill="none" stroke="#63b8ff" d="M2061.61,-170.18C2031.84,-154.67 1966.44,-122.92 1907,-110 1732.05,-71.96 1174.96,-66.43 1001.25,-65.63"/>
<polygon fill="#63b8ff" stroke="#63b8ff" points="1001.42,-62.13 991.4,-65.59 1001.39,-69.13 1001.42,-62.13"/>
</g>
<!-- Node15&#45;&gt;Node6 -->
<g id="edge17" class="edge">
<title>Node15&#45;&gt;Node6</title>
<path fill="none" stroke="#63b8ff" d="M1863,-351.67C1863,-332.58 1863,-286.02 1863,-247 1863,-247 1863,-247 1863,-179 1863,-135.63 1833.62,-127.64 1794,-110 1721.81,-77.85 1173.97,-68.31 1001.09,-66.08"/>
<polygon fill="#63b8ff" stroke="#63b8ff" points="1001.34,-62.58 991.29,-65.96 1001.25,-69.58 1001.34,-62.58"/>
</g>
<!-- Node16 -->
<g id="node16" class="node">
<title>Node16</title>
<g id="a_node16"><a xlink:href="os_8h.html" target="_top" xlink:title=" ">
<polygon fill="white" stroke="#666666" points="969,-316 901,-316 901,-297 969,-297 969,-316"/>
<text text-anchor="middle" x="935" y="-304" font-family="Helvetica,sans-Serif" font-size="10.00">dolphin/os.h</text>
</a>
</g>
</g>
<!-- Node15&#45;&gt;Node16 -->
<g id="edge18" class="edge">
<title>Node15&#45;&gt;Node16</title>
<path fill="none" stroke="#63b8ff" d="M1789.79,-356.32C1606.24,-345.84 1130.4,-318.66 980.75,-310.11"/>
<polygon fill="#63b8ff" stroke="#63b8ff" points="981.02,-306.62 970.84,-309.55 980.62,-313.61 981.02,-306.62"/>
</g>
<!-- Node17 -->
<g id="node17" class="node">
<title>Node17</title>
<g id="a_node17"><a xlink:href="____va__arg_8h.html" target="_top" xlink:title=" ">
<polygon fill="white" stroke="#666666" points="578,-129 514,-129 514,-110 578,-110 578,-129"/>
<text text-anchor="middle" x="546" y="-117" font-family="Helvetica,sans-Serif" font-size="10.00">__va_arg.h</text>
</a>
</g>
</g>
<!-- Node16&#45;&gt;Node17 -->
<g id="edge19" class="edge">
<title>Node16&#45;&gt;Node17</title>
<path fill="none" stroke="#63b8ff" d="M900.57,-305.23C788.79,-304 441.32,-297.25 408,-261 350.78,-198.74 456.04,-252.86 517,-195 532.24,-180.53 539.6,-157.12 543.07,-140.4"/>
<polygon fill="#63b8ff" stroke="#63b8ff" points="546.49,-141.13 544.76,-130.67 539.6,-139.92 546.49,-141.13"/>
</g>
<!-- Node18 -->
<g id="node18" class="node">
<title>Node18</title>
<g id="a_node18"><a xlink:href="dvd_8h.html" target="_top" xlink:title=" ">
<polygon fill="white" stroke="#666666" points="672,-129 598,-129 598,-110 672,-110 672,-129"/>
<text text-anchor="middle" x="635" y="-117" font-family="Helvetica,sans-Serif" font-size="10.00">dolphin/dvd.h</text>
</a>
</g>
</g>
<!-- Node16&#45;&gt;Node18 -->
<g id="edge21" class="edge">
<title>Node16&#45;&gt;Node18</title>
<path fill="none" stroke="#63b8ff" d="M900.69,-305.08C792.63,-303.39 464.53,-295.45 433,-261 369.24,-191.34 458.89,-246.62 551,-195 578.26,-179.72 604.32,-154.36 619.99,-137.54"/>
<polygon fill="#63b8ff" stroke="#63b8ff" points="622.42,-140.07 626.55,-130.31 617.24,-135.36 622.42,-140.07"/>
</g>
<!-- Node19 -->
<g id="node19" class="node">
<title>Node19</title>
<g id="a_node19"><a xlink:href="OSAlarm_8h.html" target="_top" xlink:title=" ">
<polygon fill="white" stroke="#666666" points="849.5,-255.5 738.5,-255.5 738.5,-236.5 849.5,-236.5 849.5,-255.5"/>
<text text-anchor="middle" x="794" y="-243.5" font-family="Helvetica,sans-Serif" font-size="10.00">dolphin/os/OSAlarm.h</text>
</a>
</g>
</g>
<!-- Node16&#45;&gt;Node19 -->
<g id="edge23" class="edge">
<title>Node16&#45;&gt;Node19</title>
<path fill="none" stroke="#63b8ff" d="M913.59,-296.62C890.29,-286.95 852.81,-271.4 826.02,-260.28"/>
<polygon fill="#63b8ff" stroke="#63b8ff" points="827.59,-257.15 817.01,-256.55 824.91,-263.61 827.59,-257.15"/>
</g>
<!-- Node20 -->
<g id="node20" class="node">
<title>Node20</title>
<g id="a_node20"><a xlink:href="OSError_8h.html" target="_top" xlink:title=" ">
<polygon fill="white" stroke="#666666" points="727,-189.5 621,-189.5 621,-170.5 727,-170.5 727,-189.5"/>
<text text-anchor="middle" x="674" y="-177.5" font-family="Helvetica,sans-Serif" font-size="10.00">dolphin/os/OSError.h</text>
</a>
</g>
</g>
<!-- Node16&#45;&gt;Node20 -->
<g id="edge37" class="edge">
<title>Node16&#45;&gt;Node20</title>
<path fill="none" stroke="#63b8ff" d="M900.63,-305.01C793.95,-303.13 473.8,-294.72 443,-261 434.01,-251.16 434.63,-241.38 443,-231 448.44,-224.25 547.34,-204.63 613.95,-192.07"/>
<polygon fill="#63b8ff" stroke="#63b8ff" points="614.49,-195.53 623.68,-190.24 613.2,-188.65 614.49,-195.53"/>
</g>
<!-- Node21 -->
<g id="node21" class="node">
<title>Node21</title>
<g id="a_node21"><a xlink:href="OSTime_8h.html" target="_top" xlink:title=" ">
<polygon fill="white" stroke="#666666" points="852.5,-189.5 745.5,-189.5 745.5,-170.5 852.5,-170.5 852.5,-189.5"/>
<text text-anchor="middle" x="799" y="-177.5" font-family="Helvetica,sans-Serif" font-size="10.00">dolphin/os/OSTime.h</text>
</a>
</g>
</g>
<!-- Node16&#45;&gt;Node21 -->
<g id="edge64" class="edge">
<title>Node16&#45;&gt;Node21</title>
<path fill="none" stroke="#63b8ff" d="M926.17,-296.59C912.05,-282.41 883.37,-253.98 858,-231 845.09,-219.31 830.12,-206.63 818.49,-196.97"/>
<polygon fill="#63b8ff" stroke="#63b8ff" points="820.73,-194.28 810.79,-190.61 816.27,-199.68 820.73,-194.28"/>
</g>
<!-- Node22 -->
<g id="node22" class="node">
<title>Node22</title>
<g id="a_node22"><a xlink:href="OSAlloc_8h.html" target="_top" xlink:title=" ">
<polygon fill="white" stroke="#666666" points="875.5,-129 768.5,-129 768.5,-110 875.5,-110 875.5,-129"/>
<text text-anchor="middle" x="822" y="-117" font-family="Helvetica,sans-Serif" font-size="10.00">dolphin/os/OSAlloc.h</text>
</a>
</g>
</g>
<!-- Node16&#45;&gt;Node22 -->
<g id="edge28" class="edge">
<title>Node16&#45;&gt;Node22</title>
<path fill="none" stroke="#63b8ff" d="M931.17,-296.54C921.21,-273.65 893.01,-211.57 861,-165 854.32,-155.28 845.79,-145.33 838.41,-137.31"/>
<polygon fill="#63b8ff" stroke="#63b8ff" points="841.18,-135.15 831.77,-130.29 836.1,-139.96 841.18,-135.15"/>
</g>
<!-- Node23 -->
<g id="node23" class="node">
<title>Node23</title>
<g id="a_node23"><a xlink:href="OSArena_8h.html" target="_top" xlink:title=" ">
<polygon fill="white" stroke="#666666" points="1004.5,-129 893.5,-129 893.5,-110 1004.5,-110 1004.5,-129"/>
<text text-anchor="middle" x="949" y="-117" font-family="Helvetica,sans-Serif" font-size="10.00">dolphin/os/OSArena.h</text>
</a>
</g>
</g>
<!-- Node16&#45;&gt;Node23 -->
<g id="edge30" class="edge">
<title>Node16&#45;&gt;Node23</title>
<path fill="none" stroke="#63b8ff" d="M935.68,-296.58C937.81,-268.37 944.45,-180.65 947.47,-140.7"/>
<polygon fill="#63b8ff" stroke="#63b8ff" points="950.95,-141.08 948.22,-130.84 943.97,-140.55 950.95,-141.08"/>
</g>
<!-- Node24 -->
<g id="node24" class="node">
<title>Node24</title>
<g id="a_node24"><a xlink:href="OSAudioSystem_8h.html" target="_top" xlink:title=" ">
<polygon fill="white" stroke="#666666" points="595.5,-255.5 452.5,-255.5 452.5,-236.5 595.5,-236.5 595.5,-255.5"/>
<text text-anchor="middle" x="524" y="-243.5" font-family="Helvetica,sans-Serif" font-size="10.00">dolphin/os/OSAudioSystem.h</text>
</a>
</g>
</g>
<!-- Node16&#45;&gt;Node24 -->
<g id="edge32" class="edge">
<title>Node16&#45;&gt;Node24</title>
<path fill="none" stroke="#63b8ff" d="M900.63,-301.33C840.42,-293.94 712.01,-277.71 604,-261 597.66,-260.02 591.05,-258.95 584.46,-257.84"/>
<polygon fill="#63b8ff" stroke="#63b8ff" points="585.39,-254.45 574.94,-256.22 584.22,-261.35 585.39,-254.45"/>
</g>
<!-- Node25 -->
<g id="node25" class="node">
<title>Node25</title>
<g id="a_node25"><a xlink:href="OSCache_8h.html" target="_top" xlink:title=" ">
<polygon fill="white" stroke="#666666" points="1135.5,-129 1022.5,-129 1022.5,-110 1135.5,-110 1135.5,-129"/>
<text text-anchor="middle" x="1079" y="-117" font-family="Helvetica,sans-Serif" font-size="10.00">dolphin/os/OSCache.h</text>
</a>
</g>
</g>
<!-- Node16&#45;&gt;Node25 -->
<g id="edge33" class="edge">
<title>Node16&#45;&gt;Node25</title>
<path fill="none" stroke="#63b8ff" d="M938.45,-296.76C948.01,-273.35 976.73,-208.06 1016,-165 1026.57,-153.41 1040.67,-143.1 1052.85,-135.34"/>
<polygon fill="#63b8ff" stroke="#63b8ff" points="1054.5,-138.43 1061.21,-130.23 1050.85,-132.45 1054.5,-138.43"/>
</g>
<!-- Node26 -->
<g id="node26" class="node">
<title>Node26</title>
<g id="a_node26"><a xlink:href="OSContext_8h.html" target="_top" xlink:title=" ">
<polygon fill="white" stroke="#666666" points="1272.5,-129 1153.5,-129 1153.5,-110 1272.5,-110 1272.5,-129"/>
<text text-anchor="middle" x="1213" y="-117" font-family="Helvetica,sans-Serif" font-size="10.00">dolphin/os/OSContext.h</text>
</a>
</g>
</g>
<!-- Node16&#45;&gt;Node26 -->
<g id="edge35" class="edge">
<title>Node16&#45;&gt;Node26</title>
<path fill="none" stroke="#63b8ff" d="M947.15,-296.64C978.36,-274 1064.05,-212.45 1138,-165 1154.2,-154.6 1172.81,-143.56 1187.44,-135.07"/>
<polygon fill="#63b8ff" stroke="#63b8ff" points="1189.07,-138.17 1195.98,-130.15 1185.57,-132.11 1189.07,-138.17"/>
</g>
<!-- Node27 -->
<g id="node27" class="node">
<title>Node27</title>
<g id="a_node27"><a xlink:href="OSExec_8h.html" target="_top" xlink:title=" ">
<polygon fill="white" stroke="#666666" points="1785.5,-129 1678.5,-129 1678.5,-110 1785.5,-110 1785.5,-129"/>
<text text-anchor="middle" x="1732" y="-117" font-family="Helvetica,sans-Serif" font-size="10.00">dolphin/os/OSExec.h</text>
</a>
</g>
</g>
<!-- Node16&#45;&gt;Node27 -->
<g id="edge38" class="edge">
<title>Node16&#45;&gt;Node27</title>
<path fill="none" stroke="#63b8ff" d="M969.42,-305.05C1127.29,-302.82 1775.73,-291.8 1805,-261 1840.67,-223.46 1784.3,-165.08 1752.04,-136.86"/>
<polygon fill="#63b8ff" stroke="#63b8ff" points="1754.35,-134.23 1744.46,-130.42 1749.81,-139.56 1754.35,-134.23"/>
</g>
<!-- Node28 -->
<g id="node28" class="node">
<title>Node28</title>
<g id="a_node28"><a xlink:href="OSFont_8h.html" target="_top" xlink:title=" ">
<polygon fill="white" stroke="#666666" points="1474.5,-255.5 1369.5,-255.5 1369.5,-236.5 1474.5,-236.5 1474.5,-255.5"/>
<text text-anchor="middle" x="1422" y="-243.5" font-family="Helvetica,sans-Serif" font-size="10.00">dolphin/os/OSFont.h</text>
</a>
</g>
</g>
<!-- Node16&#45;&gt;Node28 -->
<g id="edge40" class="edge">
<title>Node16&#45;&gt;Node28</title>
<path fill="none" stroke="#63b8ff" d="M969.34,-303.28C1041.85,-298.3 1215.79,-284.75 1360,-261 1364.72,-260.22 1369.61,-259.31 1374.49,-258.33"/>
<polygon fill="#63b8ff" stroke="#63b8ff" points="1375.21,-261.75 1384.27,-256.25 1373.76,-254.9 1375.21,-261.75"/>
</g>
<!-- Node29 -->
<g id="node29" class="node">
<title>Node29</title>
<g id="a_node29"><a xlink:href="OSInterrupt_8h.html" target="_top" xlink:title=" ">
<polygon fill="white" stroke="#666666" points="1581,-189.5 1459,-189.5 1459,-170.5 1581,-170.5 1581,-189.5"/>
<text text-anchor="middle" x="1520" y="-177.5" font-family="Helvetica,sans-Serif" font-size="10.00">dolphin/os/OSInterrupt.h</text>
</a>
</g>
</g>
<!-- Node16&#45;&gt;Node29 -->
<g id="edge42" class="edge">
<title>Node16&#45;&gt;Node29</title>
<path fill="none" stroke="#63b8ff" d="M969.43,-304.7C1083,-301.79 1440.93,-290.36 1483,-261 1502.87,-247.13 1512.32,-219.8 1516.63,-200.98"/>
<polygon fill="#63b8ff" stroke="#63b8ff" points="1520.04,-201.79 1518.53,-191.3 1513.17,-200.44 1520.04,-201.79"/>
</g>
<!-- Node30 -->
<g id="node30" class="node">
<title>Node30</title>
<g id="a_node30"><a xlink:href="OSLink_8h.html" target="_top" xlink:title=" ">
<polygon fill="white" stroke="#666666" points="231,-129 127,-129 127,-110 231,-110 231,-129"/>
<text text-anchor="middle" x="179" y="-117" font-family="Helvetica,sans-Serif" font-size="10.00">dolphin/os/OSLink.h</text>
</a>
</g>
</g>
<!-- Node16&#45;&gt;Node30 -->
<g id="edge44" class="edge">
<title>Node16&#45;&gt;Node30</title>
<path fill="none" stroke="#63b8ff" d="M900.68,-305.2C780.46,-303.84 378.96,-296.68 256,-261 197.17,-243.93 166.27,-247.68 135,-195 128.19,-183.53 129.93,-177.33 135,-165 139.6,-153.81 148.52,-143.94 157.13,-136.35"/>
<polygon fill="#63b8ff" stroke="#63b8ff" points="159.07,-139.29 164.63,-130.27 154.66,-133.85 159.07,-139.29"/>
</g>
<!-- Node31 -->
<g id="node31" class="node">
<title>Node31</title>
<g id="a_node31"><a xlink:href="OSMemory_8h.html" target="_top" xlink:title=" ">
<polygon fill="white" stroke="#666666" points="1651,-255.5 1531,-255.5 1531,-236.5 1651,-236.5 1651,-255.5"/>
<text text-anchor="middle" x="1591" y="-243.5" font-family="Helvetica,sans-Serif" font-size="10.00">dolphin/os/OSMemory.h</text>
</a>
</g>
</g>
<!-- Node16&#45;&gt;Node31 -->
<g id="edge46" class="edge">
<title>Node16&#45;&gt;Node31</title>
<path fill="none" stroke="#63b8ff" d="M969.25,-304.21C1059.3,-300.52 1310.05,-288.4 1517,-261 1523.48,-260.14 1530.24,-259.09 1536.94,-257.94"/>
<polygon fill="#63b8ff" stroke="#63b8ff" points="1537.37,-261.42 1546.6,-256.22 1536.14,-254.53 1537.37,-261.42"/>
</g>
<!-- Node32 -->
<g id="node32" class="node">
<title>Node32</title>
<g id="a_node32"><a xlink:href="OSMessage_8h.html" target="_top" xlink:title=" ">
<polygon fill="white" stroke="#666666" points="1351.5,-255.5 1226.5,-255.5 1226.5,-236.5 1351.5,-236.5 1351.5,-255.5"/>
<text text-anchor="middle" x="1289" y="-243.5" font-family="Helvetica,sans-Serif" font-size="10.00">dolphin/os/OSMessage.h</text>
</a>
</g>
</g>
<!-- Node16&#45;&gt;Node32 -->
<g id="edge48" class="edge">
<title>Node16&#45;&gt;Node32</title>
<path fill="none" stroke="#63b8ff" d="M969.15,-300.24C1021.48,-292.14 1124.62,-275.96 1212,-261 1217.63,-260.04 1223.49,-259.01 1229.35,-257.97"/>
<polygon fill="#63b8ff" stroke="#63b8ff" points="1229.84,-261.44 1239.07,-256.23 1228.61,-254.55 1229.84,-261.44"/>
</g>
<!-- Node33 -->
<g id="node33" class="node">
<title>Node33</title>
<g id="a_node33"><a xlink:href="OSThread_8h.html" target="_top" xlink:title=" ">
<polygon fill="white" stroke="#666666" points="1263,-189.5 1147,-189.5 1147,-170.5 1263,-170.5 1263,-189.5"/>
<text text-anchor="middle" x="1205" y="-177.5" font-family="Helvetica,sans-Serif" font-size="10.00">dolphin/os/OSThread.h</text>
</a>
</g>
</g>
<!-- Node16&#45;&gt;Node33 -->
<g id="edge63" class="edge">
<title>Node16&#45;&gt;Node33</title>
<path fill="none" stroke="#63b8ff" d="M969.15,-303.52C1028.72,-299.4 1148.21,-287.93 1179,-261 1196.16,-246 1202.06,-219.56 1204.05,-201.2"/>
<polygon fill="#63b8ff" stroke="#63b8ff" points="1207.54,-201.52 1204.79,-191.29 1200.56,-201 1207.54,-201.52"/>
</g>
<!-- Node34 -->
<g id="node34" class="node">
<title>Node34</title>
<g id="a_node34"><a xlink:href="OSMutex_8h.html" target="_top" xlink:title=" ">
<polygon fill="white" stroke="#666666" points="1170,-255.5 1058,-255.5 1058,-236.5 1170,-236.5 1170,-255.5"/>
<text text-anchor="middle" x="1114" y="-243.5" font-family="Helvetica,sans-Serif" font-size="10.00">dolphin/os/OSMutex.h</text>
</a>
</g>
</g>
<!-- Node16&#45;&gt;Node34 -->
<g id="edge51" class="edge">
<title>Node16&#45;&gt;Node34</title>
<path fill="none" stroke="#63b8ff" d="M962.19,-296.62C992.54,-286.69 1041.89,-270.57 1076.05,-259.4"/>
<polygon fill="#63b8ff" stroke="#63b8ff" points="1076.7,-262.87 1085.12,-256.44 1074.53,-256.22 1076.7,-262.87"/>
</g>
<!-- Node35 -->
<g id="node35" class="node">
<title>Node35</title>
<g id="a_node35"><a xlink:href="OSReboot_8h.html" target="_top" xlink:title=" ">
<polygon fill="white" stroke="#666666" points="260,-189.5 144,-189.5 144,-170.5 260,-170.5 260,-189.5"/>
<text text-anchor="middle" x="202" y="-177.5" font-family="Helvetica,sans-Serif" font-size="10.00">dolphin/os/OSReboot.h</text>
</a>
</g>
</g>
<!-- Node16&#45;&gt;Node35 -->
<g id="edge53" class="edge">
<title>Node16&#45;&gt;Node35</title>
<path fill="none" stroke="#63b8ff" d="M900.54,-305.54C786.23,-305.29 420.59,-301.27 311,-261 273.74,-247.31 238.15,-216.8 218.27,-197.66"/>
<polygon fill="#63b8ff" stroke="#63b8ff" points="220.94,-195.38 211.37,-190.84 216.02,-200.36 220.94,-195.38"/>
</g>
<!-- Node36 -->
<g id="node36" class="node">
<title>Node36</title>
<g id="a_node36"><a xlink:href="OSReset_8h.html" target="_top" xlink:title=" ">
<polygon fill="white" stroke="#666666" points="389.5,-189.5 278.5,-189.5 278.5,-170.5 389.5,-170.5 389.5,-189.5"/>
<text text-anchor="middle" x="334" y="-177.5" font-family="Helvetica,sans-Serif" font-size="10.00">dolphin/os/OSReset.h</text>
</a>
</g>
</g>
<!-- Node16&#45;&gt;Node36 -->
<g id="edge55" class="edge">
<title>Node16&#45;&gt;Node36</title>
<path fill="none" stroke="#63b8ff" d="M900.74,-305.66C777.58,-305.89 362.49,-303.47 323,-261 307.89,-244.75 315.67,-218.02 323.81,-199.98"/>
<polygon fill="#63b8ff" stroke="#63b8ff" points="326.87,-201.67 328.17,-191.16 320.6,-198.57 326.87,-201.67"/>
</g>
<!-- Node37 -->
<g id="node37" class="node">
<title>Node37</title>
<g id="a_node37"><a xlink:href="OSResetSW_8h.html" target="_top" xlink:title=" ">
<polygon fill="white" stroke="#666666" points="1796.5,-255.5 1669.5,-255.5 1669.5,-236.5 1796.5,-236.5 1796.5,-255.5"/>
<text text-anchor="middle" x="1733" y="-243.5" font-family="Helvetica,sans-Serif" font-size="10.00">dolphin/os/OSResetSW.h</text>
</a>
</g>
</g>
<!-- Node16&#45;&gt;Node37 -->
<g id="edge57" class="edge">
<title>Node16&#45;&gt;Node37</title>
<path fill="none" stroke="#63b8ff" d="M969.49,-304.95C1073.91,-302.95 1395.69,-294.32 1660,-261 1666.48,-260.18 1673.25,-259.14 1679.94,-258"/>
<polygon fill="#63b8ff" stroke="#63b8ff" points="1680.36,-261.48 1689.58,-256.26 1679.12,-254.59 1680.36,-261.48"/>
</g>
<!-- Node38 -->
<g id="node38" class="node">
<title>Node38</title>
<g id="a_node38"><a xlink:href="OSRtc_8h.html" target="_top" xlink:title=" ">
<polygon fill="white" stroke="#666666" points="508.5,-189.5 407.5,-189.5 407.5,-170.5 508.5,-170.5 508.5,-189.5"/>
<text text-anchor="middle" x="458" y="-177.5" font-family="Helvetica,sans-Serif" font-size="10.00">dolphin/os/OSRtc.h</text>
</a>
</g>
</g>
<!-- Node16&#45;&gt;Node38 -->
<g id="edge60" class="edge">
<title>Node16&#45;&gt;Node38</title>
<path fill="none" stroke="#63b8ff" d="M900.52,-305.61C778.53,-305.65 372.67,-302.64 334,-261 305.73,-230.56 363.01,-206.59 408.81,-193.1"/>
<polygon fill="#63b8ff" stroke="#63b8ff" points="409.72,-196.48 418.39,-190.39 407.82,-189.75 409.72,-196.48"/>
</g>
<!-- Node39 -->
<g id="node39" class="node">
<title>Node39</title>
<g id="a_node39"><a xlink:href="OSSync_8h.html" target="_top" xlink:title=" ">
<polygon fill="white" stroke="#666666" points="720.5,-255.5 613.5,-255.5 613.5,-236.5 720.5,-236.5 720.5,-255.5"/>
<text text-anchor="middle" x="667" y="-243.5" font-family="Helvetica,sans-Serif" font-size="10.00">dolphin/os/OSSync.h</text>
</a>
</g>
</g>
<!-- Node16&#45;&gt;Node39 -->
<g id="edge62" class="edge">
<title>Node16&#45;&gt;Node39</title>
<path fill="none" stroke="#63b8ff" d="M900.72,-298.2C859.82,-289.46 789.38,-274.34 729,-261 725.22,-260.17 721.32,-259.3 717.39,-258.42"/>
<polygon fill="#63b8ff" stroke="#63b8ff" points="718.35,-255.05 707.82,-256.27 716.81,-261.88 718.35,-255.05"/>
</g>
<!-- Node17&#45;&gt;Node6 -->
<g id="edge20" class="edge">
<title>Node17&#45;&gt;Node6</title>
<path fill="none" stroke="#63b8ff" d="M578.36,-111.84C581.94,-111.18 585.54,-110.55 589,-110 698.12,-92.49 826.79,-78.08 896.94,-70.74"/>
<polygon fill="#63b8ff" stroke="#63b8ff" points="897.01,-74.25 906.6,-69.74 896.29,-67.29 897.01,-74.25"/>
</g>
<!-- Node18&#45;&gt;Node6 -->
<g id="edge22" class="edge">
<title>Node18&#45;&gt;Node6</title>
<path fill="none" stroke="#63b8ff" d="M672.25,-112.21C728,-102.8 833.33,-85.02 896.74,-74.32"/>
<polygon fill="#63b8ff" stroke="#63b8ff" points="897.3,-77.78 906.58,-72.66 896.14,-70.87 897.3,-77.78"/>
</g>
<!-- Node19&#45;&gt;Node20 -->
<g id="edge24" class="edge">
<title>Node19&#45;&gt;Node20</title>
<path fill="none" stroke="#63b8ff" d="M777.31,-236.1C757.43,-225.5 723.97,-207.65 700.52,-195.15"/>
<polygon fill="#63b8ff" stroke="#63b8ff" points="702.35,-192.15 691.88,-190.54 699.06,-198.33 702.35,-192.15"/>
</g>
<!-- Node19&#45;&gt;Node21 -->
<g id="edge26" class="edge">
<title>Node19&#45;&gt;Node21</title>
<path fill="none" stroke="#63b8ff" d="M794.7,-236.1C795.4,-227.12 796.5,-212.95 797.42,-201.22"/>
<polygon fill="#63b8ff" stroke="#63b8ff" points="800.9,-201.57 798.19,-191.33 793.92,-201.03 800.9,-201.57"/>
</g>
<!-- Node20&#45;&gt;Node6 -->
<g id="edge25" class="edge">
<title>Node20&#45;&gt;Node6</title>
<path fill="none" stroke="#63b8ff" d="M681.06,-170.25C693.54,-155.42 721,-125.46 751,-110 797.09,-86.25 855.62,-75.1 897.06,-69.91"/>
<polygon fill="#63b8ff" stroke="#63b8ff" points="897.24,-73.41 906.76,-68.78 896.43,-66.46 897.24,-73.41"/>
</g>
<!-- Node21&#45;&gt;Node6 -->
<g id="edge27" class="edge">
<title>Node21&#45;&gt;Node6</title>
<path fill="none" stroke="#63b8ff" d="M787.26,-170.21C770.46,-156.58 743.26,-129.86 759,-110 775.94,-88.63 846.69,-76.54 896.89,-70.51"/>
<polygon fill="#63b8ff" stroke="#63b8ff" points="897.17,-74 906.71,-69.38 896.37,-67.05 897.17,-74"/>
</g>
<!-- Node22&#45;&gt;Node6 -->
<g id="edge29" class="edge">
<title>Node22&#45;&gt;Node6</title>
<path fill="none" stroke="#63b8ff" d="M843.54,-109.51C863.74,-101.08 894.17,-88.38 917.16,-78.79"/>
<polygon fill="#63b8ff" stroke="#63b8ff" points="918.5,-82.02 926.38,-74.94 915.8,-75.56 918.5,-82.02"/>
</g>
<!-- Node23&#45;&gt;Node6 -->
<g id="edge31" class="edge">
<title>Node23&#45;&gt;Node6</title>
<path fill="none" stroke="#63b8ff" d="M949,-109.75C949,-103.27 949,-94.16 949,-85.9"/>
<polygon fill="#63b8ff" stroke="#63b8ff" points="952.5,-85.96 949,-75.96 945.5,-85.96 952.5,-85.96"/>
</g>
<!-- Node25&#45;&gt;Node6 -->
<g id="edge34" class="edge">
<title>Node25&#45;&gt;Node6</title>
<path fill="none" stroke="#63b8ff" d="M1056.95,-109.51C1036.19,-101.04 1004.84,-88.27 981.27,-78.66"/>
<polygon fill="#63b8ff" stroke="#63b8ff" points="982.71,-75.46 972.13,-74.93 980.07,-81.95 982.71,-75.46"/>
</g>
<!-- Node26&#45;&gt;Node6 -->
<g id="edge36" class="edge">
<title>Node26&#45;&gt;Node6</title>
<path fill="none" stroke="#63b8ff" d="M1168.22,-109.51C1121.91,-100.21 1049.69,-85.71 1000.91,-75.92"/>
<polygon fill="#63b8ff" stroke="#63b8ff" points="1001.64,-72.5 991.15,-73.96 1000.26,-79.36 1001.64,-72.5"/>
</g>
<!-- Node27&#45;&gt;Node6 -->
<g id="edge39" class="edge">
<title>Node27&#45;&gt;Node6</title>
<path fill="none" stroke="#63b8ff" d="M1678.14,-113.56C1664.11,-112.34 1648.99,-111.07 1635,-110 1398.28,-91.95 1115.25,-75.08 1000.8,-68.46"/>
<polygon fill="#63b8ff" stroke="#63b8ff" points="1001.31,-64.98 991.13,-67.9 1000.91,-71.97 1001.31,-64.98"/>
</g>
<!-- Node28&#45;&gt;Node6 -->
<g id="edge41" class="edge">
<title>Node28&#45;&gt;Node6</title>
<path fill="none" stroke="#63b8ff" d="M1415.94,-236.13C1398.42,-211.26 1344.83,-140.71 1281,-110 1232.74,-86.78 1082.06,-73.94 1001.32,-68.56"/>
<polygon fill="#63b8ff" stroke="#63b8ff" points="1001.65,-65.07 991.45,-67.92 1001.2,-72.06 1001.65,-65.07"/>
</g>
<!-- Node29&#45;&gt;Node6 -->
<g id="edge43" class="edge">
<title>Node29&#45;&gt;Node6</title>
<path fill="none" stroke="#63b8ff" d="M1510.73,-170.1C1494.11,-154.75 1457.46,-123.64 1420,-110 1344.12,-82.38 1106.94,-70.94 1001.01,-67.11"/>
<polygon fill="#63b8ff" stroke="#63b8ff" points="1001.29,-63.62 991.17,-66.77 1001.04,-70.62 1001.29,-63.62"/>
</g>
<!-- Node30&#45;&gt;Node6 -->
<g id="edge45" class="edge">
<title>Node30&#45;&gt;Node6</title>
<path fill="none" stroke="#63b8ff" d="M231.32,-114.9C371.9,-105.22 756.65,-78.74 896.94,-69.08"/>
<polygon fill="#63b8ff" stroke="#63b8ff" points="896.93,-72.59 906.67,-68.41 896.45,-65.61 896.93,-72.59"/>
</g>
<!-- Node31&#45;&gt;Node29 -->
<g id="edge47" class="edge">
<title>Node31&#45;&gt;Node29</title>
<path fill="none" stroke="#63b8ff" d="M1581.13,-236.1C1570,-226.07 1551.68,-209.56 1537.99,-197.22"/>
<polygon fill="#63b8ff" stroke="#63b8ff" points="1540.68,-194.93 1530.91,-190.84 1536,-200.13 1540.68,-194.93"/>
</g>
<!-- Node32&#45;&gt;Node33 -->
<g id="edge49" class="edge">
<title>Node32&#45;&gt;Node33</title>
<path fill="none" stroke="#63b8ff" d="M1277.32,-236.1C1263.9,-225.88 1241.65,-208.93 1225.37,-196.52"/>
<polygon fill="#63b8ff" stroke="#63b8ff" points="1227.86,-194.02 1217.78,-190.74 1223.62,-199.59 1227.86,-194.02"/>
</g>
<!-- Node33&#45;&gt;Node26 -->
<g id="edge50" class="edge">
<title>Node33&#45;&gt;Node26</title>
<path fill="none" stroke="#63b8ff" d="M1206.18,-170.37C1207.26,-162.5 1208.88,-150.6 1210.28,-140.39"/>
<polygon fill="#63b8ff" stroke="#63b8ff" points="1213.72,-141.05 1211.61,-130.67 1206.79,-140.1 1213.72,-141.05"/>
</g>
<!-- Node34&#45;&gt;Node33 -->
<g id="edge52" class="edge">
<title>Node34&#45;&gt;Node33</title>
<path fill="none" stroke="#63b8ff" d="M1126.65,-236.1C1141.32,-225.78 1165.75,-208.61 1183.43,-196.17"/>
<polygon fill="#63b8ff" stroke="#63b8ff" points="1185.05,-199.31 1191.22,-190.69 1181.02,-193.58 1185.05,-199.31"/>
</g>
<!-- Node35&#45;&gt;Node6 -->
<g id="edge54" class="edge">
<title>Node35&#45;&gt;Node6</title>
<path fill="none" stroke="#63b8ff" d="M225.23,-170.07C265.59,-154.97 351.59,-124.61 427,-110 596.77,-77.12 802.28,-68.53 896.81,-66.29"/>
<polygon fill="#63b8ff" stroke="#63b8ff" points="896.89,-69.79 906.81,-66.07 896.73,-62.79 896.89,-69.79"/>
</g>
<!-- Node36&#45;&gt;Node6 -->
<g id="edge56" class="edge">
<title>Node36&#45;&gt;Node6</title>
<path fill="none" stroke="#63b8ff" d="M348.37,-170.18C373.97,-154.96 429.6,-124.05 481,-110 627.77,-69.88 808.97,-64.59 896.62,-64.68"/>
<polygon fill="#63b8ff" stroke="#63b8ff" points="896.57,-68.18 906.58,-64.72 896.6,-61.18 896.57,-68.18"/>
</g>
<!-- Node37&#45;&gt;Node6 -->
<g id="edge58" class="edge">
<title>Node37&#45;&gt;Node6</title>
<path fill="none" stroke="#63b8ff" d="M1718.72,-236.18C1693.35,-220.71 1638.54,-188.13 1590,-165 1530.4,-136.6 1516.23,-125.29 1452,-110 1290.68,-71.59 1093.13,-65.65 1000.97,-65.16"/>
<polygon fill="#63b8ff" stroke="#63b8ff" points="1001.26,-61.66 991.25,-65.13 1001.24,-68.66 1001.26,-61.66"/>
</g>
<!-- Node37&#45;&gt;Node29 -->
<g id="edge59" class="edge">
<title>Node37&#45;&gt;Node29</title>
<path fill="none" stroke="#63b8ff" d="M1703.38,-236.1C1666.21,-224.93 1602.28,-205.72 1560.58,-193.19"/>
<polygon fill="#63b8ff" stroke="#63b8ff" points="1561.74,-189.89 1551.16,-190.36 1559.73,-196.59 1561.74,-189.89"/>
</g>
<!-- Node38&#45;&gt;Node6 -->
<g id="edge61" class="edge">
<title>Node38&#45;&gt;Node6</title>
<path fill="none" stroke="#63b8ff" d="M461.04,-170.41C466.9,-155.26 481.33,-124.07 505,-110 570,-71.36 794.08,-65.77 896.8,-65.3"/>
<polygon fill="#63b8ff" stroke="#63b8ff" points="896.62,-68.8 906.61,-65.27 896.6,-61.8 896.62,-68.8"/>
</g>
<!-- Node40&#45;&gt;Node15 -->
<g id="edge66" class="edge">
<title>Node40&#45;&gt;Node15</title>
<path fill="none" stroke="#63b8ff" d="M1863,-412.37C1863,-404.5 1863,-392.6 1863,-382.39"/>
<polygon fill="#63b8ff" stroke="#63b8ff" points="1866.5,-382.68 1863,-372.68 1859.5,-382.68 1866.5,-382.68"/>
</g>
<!-- Node41 -->
<g id="node41" class="node">
<title>Node41</title>
<g id="a_node41"><a xlink:href="string_8h.html" target="_top" xlink:title=" ">
<polygon fill="white" stroke="#666666" points="102,-371 54,-371 54,-352 102,-352 102,-371"/>
<text text-anchor="middle" x="78" y="-359" font-family="Helvetica,sans-Serif" font-size="10.00">string.h</text>
</a>
</g>
</g>
<!-- Node40&#45;&gt;Node41 -->
<g id="edge67" class="edge">
<title>Node40&#45;&gt;Node41</title>
<path fill="none" stroke="#63b8ff" d="M1785.73,-418.47C1476.07,-408.32 331.16,-370.8 113.77,-363.67"/>
<polygon fill="#63b8ff" stroke="#63b8ff" points="114.07,-360.18 103.96,-363.35 113.84,-367.18 114.07,-360.18"/>
</g>
<!-- Node41&#45;&gt;Node7 -->
<g id="edge68" class="edge">
<title>Node41&#45;&gt;Node7</title>
<path fill="none" stroke="#63b8ff" d="M78,-351.67C78,-332.58 78,-286.02 78,-247 78,-247 78,-247 78,-118.5 78,-35.5 375.85,-15.99 482.55,-11.66"/>
<polygon fill="#63b8ff" stroke="#63b8ff" points="482.63,-15.16 492.49,-11.29 482.36,-8.17 482.63,-15.16"/>
</g>
<!-- Node42 -->
<g id="node42" class="node">
<title>Node42</title>
<g id="a_node42"><a xlink:href="extras_8h.html" target="_top" xlink:title=" ">
<polygon fill="white" stroke="#666666" points="50,-316 0,-316 0,-297 50,-297 50,-316"/>
<text text-anchor="middle" x="25" y="-304" font-family="Helvetica,sans-Serif" font-size="10.00">extras.h</text>
</a>
</g>
</g>
<!-- Node41&#45;&gt;Node42 -->
<g id="edge69" class="edge">
<title>Node41&#45;&gt;Node42</title>
<path fill="none" stroke="#63b8ff" d="M69.25,-351.75C61.85,-344.35 51.04,-333.54 41.95,-324.45"/>
<polygon fill="#63b8ff" stroke="#63b8ff" points="44.56,-322.11 35.01,-317.51 39.61,-327.06 44.56,-322.11"/>
</g>
</g>
</svg>
        <g id="navigator" transform="translate(0 0)" fill="#404254">
                <rect fill="#f2f5e9" fill-opacity="0.5" stroke="#606060" stroke-width=".5" x="0" y="0" width="60" height="60"/>
                <use id="zoomplus" xlink:href="#zoomPlus" x="17" y="9" onmousedown="handleZoom(evt,'in')"/>
                <use id="zoomminus" xlink:href="#zoomMin" x="42" y="9" onmousedown="handleZoom(evt,'out')"/>
                <use id="reset" xlink:href="#resetDef" x="30" y="36" onmousedown="handleReset()"/>
                <g id="arrowUp" xlink:href="#dirArrow" transform="translate(30 24)" onmousedown="handlePan(0,-1)">
                  <use xlink:href="#rim" fill="#404040">
                        <set attributeName="fill" to="#808080" begin="arrowUp.mouseover" end="arrowUp.mouseout"/>
                  </use>
                  <path fill="none" stroke="white" stroke-width="1.5" d="M0,-3.0v7 M-2.5,-0.5L0,-3.0L2.5,-0.5"/>
                </g>
                <g id="arrowRight" xlink:href="#dirArrow" transform="rotate(90) translate(36 -43)" onmousedown="handlePan(1,0)">
                  <use xlink:href="#rim" fill="#404040">
                        <set attributeName="fill" to="#808080" begin="arrowRight.mouseover" end="arrowRight.mouseout"/>
                  </use>
                  <path fill="none" stroke="white" stroke-width="1.5" d="M0,-3.0v7 M-2.5,-0.5L0,-3.0L2.5,-0.5"/>
                </g>
                <g id="arrowDown" xlink:href="#dirArrow" transform="rotate(180) translate(-30 -48)" onmousedown="handlePan(0,1)">
                  <use xlink:href="#rim" fill="#404040">
                        <set attributeName="fill" to="#808080" begin="arrowDown.mouseover" end="arrowDown.mouseout"/>
                  </use>
                  <path fill="none" stroke="white" stroke-width="1.5" d="M0,-3.0v7 M-2.5,-0.5L0,-3.0L2.5,-0.5"/>
                </g>
                <g id="arrowLeft" xlink:href="#dirArrow" transform="rotate(270) translate(-36 17)" onmousedown="handlePan(-1,0)">
                  <use xlink:href="#rim" fill="#404040">
                        <set attributeName="fill" to="#808080" begin="arrowLeft.mouseover" end="arrowLeft.mouseout"/>
                  </use>
                  <path fill="none" stroke="white" stroke-width="1.5" d="M0,-3.0v7 M-2.5,-0.5L0,-3.0L2.5,-0.5"/>
                </g>
        </g>
        <svg viewBox="0 0 15 15" width="100%" height="30px" preserveAspectRatio="xMaxYMin meet">
         <g id="arrow_out" transform="scale(0.3 0.3)">
          <a xlink:href="Z2SeMgr_8h__incl_org.svg" target="_base">
           <rect id="button" ry="5" rx="5" y="6" x="6" height="38" width="38"
                fill="#f2f5e9" fill-opacity="0.5" stroke="#606060" stroke-width="1.0"/>
           <path id="arrow"
             d="M 11.500037,31.436501 C 11.940474,20.09759 22.043105,11.32322 32.158766,21.979434 L 37.068811,17.246167 C 37.068811,17.246167 37.088388,32 37.088388,32 L 22.160133,31.978069 C 22.160133,31.978069 26.997745,27.140456 26.997745,27.140456 C 18.528582,18.264221 13.291696,25.230495 11.500037,31.436501 z"
             style="fill:#404040;"/>
          </a>
         </g>
        </svg>
</svg>
