<?xml version="1.0" encoding="UTF-8" standalone="no"?>
<!DOCTYPE svg PUBLIC "-//W3C//DTD SVG 1.1//EN"
 "http://www.w3.org/Graphics/SVG/1.1/DTD/svg11.dtd">
<!-- Generated by graphviz version 7.0.5 (20221223.1930)
 -->
<!-- Title: include/Z2AudioLib/Z2SoundInfo.h Pages: 1 -->
<svg width="3441pt" height="423pt"
 viewBox="0.00 0.00 3441.00 423.00" xmlns="http://www.w3.org/2000/svg" xmlns:xlink="http://www.w3.org/1999/xlink">
<g id="graph0" class="graph" transform="scale(1 1) rotate(0) translate(4 419)">
<title>include/Z2AudioLib/Z2SoundInfo.h</title>
<!-- Node1 -->
<g id="node1" class="node">
<title>Node1</title>
<g id="a_node1"><a xlink:title=" ">
<polygon fill="#999999" stroke="#666666" points="2354.5,-415 2254.5,-415 2254.5,-385 2354.5,-385 2354.5,-415"/>
<text text-anchor="start" x="2262.5" y="-403" font-family="Helvetica,sans-Serif" font-size="10.00">include/Z2AudioLib</text>
<text text-anchor="middle" x="2304.5" y="-392" font-family="Helvetica,sans-Serif" font-size="10.00">/Z2SoundInfo.h</text>
</a>
</g>
</g>
<!-- Node2 -->
<g id="node2" class="node">
<title>Node2</title>
<g id="a_node2"><a xlink:href="Z2AudioMgr_8h.html" target="_top" xlink:title=" ">
<polygon fill="white" stroke="#666666" points="2207.5,-349 2107.5,-349 2107.5,-319 2207.5,-319 2207.5,-349"/>
<text text-anchor="start" x="2115.5" y="-337" font-family="Helvetica,sans-Serif" font-size="10.00">include/Z2AudioLib</text>
<text text-anchor="middle" x="2157.5" y="-326" font-family="Helvetica,sans-Serif" font-size="10.00">/Z2AudioMgr.h</text>
</a>
</g>
</g>
<!-- Node1&#45;&gt;Node2 -->
<g id="edge1" class="edge">
<title>Node1&#45;&gt;Node2</title>
<path fill="none" stroke="#63b8ff" d="M2261.18,-380.14C2238.63,-370.32 2211.49,-358.51 2190.63,-349.43"/>
<polygon fill="#63b8ff" stroke="#63b8ff" points="2259.56,-383.25 2270.12,-384.03 2262.35,-376.83 2259.56,-383.25"/>
</g>
<!-- Node248 -->
<g id="node20" class="node">
<title>Node248</title>
<g id="a_node20"><a xlink:href="m__Do__main_8cpp.html" target="_top" xlink:title=" ">
<polygon fill="white" stroke="#666666" points="131,-24.5 0,-24.5 0,-5.5 131,-5.5 131,-24.5"/>
<text text-anchor="middle" x="65.5" y="-12.5" font-family="Helvetica,sans-Serif" font-size="10.00">src/m_Do/m_Do_main.cpp</text>
</a>
</g>
</g>
<!-- Node1&#45;&gt;Node248 -->
<g id="edge66" class="edge">
<title>Node1&#45;&gt;Node248</title>
<path fill="none" stroke="#63b8ff" d="M2242.58,-398.73C1881.67,-396.75 65.5,-381.22 65.5,-269 65.5,-269 65.5,-269 65.5,-146 65.5,-100.41 65.5,-45.83 65.5,-24.83"/>
<polygon fill="#63b8ff" stroke="#63b8ff" points="2242.53,-402.23 2252.55,-398.78 2242.57,-395.23 2242.53,-402.23"/>
</g>
<!-- Node478 -->
<g id="node48" class="node">
<title>Node478</title>
<g id="a_node48"><a xlink:href="Z2Audience_8cpp.html" target="_top" xlink:title=" ">
<polygon fill="white" stroke="#666666" points="2383,-343.5 2226,-343.5 2226,-324.5 2383,-324.5 2383,-343.5"/>
<text text-anchor="middle" x="2304.5" y="-331.5" font-family="Helvetica,sans-Serif" font-size="10.00">libs/Z2AudioLib/Z2Audience.cpp</text>
</a>
</g>
</g>
<!-- Node1&#45;&gt;Node478 -->
<g id="edge63" class="edge">
<title>Node1&#45;&gt;Node478</title>
<path fill="none" stroke="#63b8ff" d="M2304.5,-373.59C2304.5,-363.06 2304.5,-351.53 2304.5,-343.84"/>
<polygon fill="#63b8ff" stroke="#63b8ff" points="2301,-373.28 2304.5,-383.28 2308,-373.28 2301,-373.28"/>
</g>
<!-- Node479 -->
<g id="node49" class="node">
<title>Node479</title>
<g id="a_node49"><a xlink:href="Z2SoundInfo_8cpp.html" target="_top" xlink:title=" ">
<polygon fill="white" stroke="#666666" points="2562,-343.5 2401,-343.5 2401,-324.5 2562,-324.5 2562,-343.5"/>
<text text-anchor="middle" x="2481.5" y="-331.5" font-family="Helvetica,sans-Serif" font-size="10.00">libs/Z2AudioLib/Z2SoundInfo.cpp</text>
</a>
</g>
</g>
<!-- Node1&#45;&gt;Node479 -->
<g id="edge64" class="edge">
<title>Node1&#45;&gt;Node479</title>
<path fill="none" stroke="#63b8ff" d="M2354.69,-380.85C2388.02,-368.8 2430.31,-353.51 2456.65,-343.99"/>
<polygon fill="#63b8ff" stroke="#63b8ff" points="2353.86,-377.43 2345.65,-384.12 2356.24,-384.01 2353.86,-377.43"/>
</g>
<!-- Node480 -->
<g id="node50" class="node">
<title>Node480</title>
<g id="a_node50"><a xlink:href="Z2SoundObject_8cpp.html" target="_top" xlink:title=" ">
<polygon fill="white" stroke="#666666" points="2753,-343.5 2580,-343.5 2580,-324.5 2753,-324.5 2753,-343.5"/>
<text text-anchor="middle" x="2666.5" y="-331.5" font-family="Helvetica,sans-Serif" font-size="10.00">libs/Z2AudioLib/Z2SoundObject.cpp</text>
</a>
</g>
</g>
<!-- Node1&#45;&gt;Node480 -->
<g id="edge65" class="edge">
<title>Node1&#45;&gt;Node480</title>
<path fill="none" stroke="#63b8ff" d="M2366.16,-388.1C2436.52,-375.66 2550.26,-355.55 2615.72,-343.98"/>
<polygon fill="#63b8ff" stroke="#63b8ff" points="2365.56,-384.65 2356.32,-389.84 2366.78,-391.54 2365.56,-384.65"/>
</g>
<!-- Node3 -->
<g id="node3" class="node">
<title>Node3</title>
<g id="a_node3"><a xlink:href="m__Do__audio_8h.html" target="_top" xlink:title=" ">
<polygon fill="white" stroke="#666666" points="2227.5,-277.5 2087.5,-277.5 2087.5,-258.5 2227.5,-258.5 2227.5,-277.5"/>
<text text-anchor="middle" x="2157.5" y="-265.5" font-family="Helvetica,sans-Serif" font-size="10.00">include/m_Do/m_Do_audio.h</text>
</a>
</g>
</g>
<!-- Node2&#45;&gt;Node3 -->
<g id="edge2" class="edge">
<title>Node2&#45;&gt;Node3</title>
<path fill="none" stroke="#63b8ff" d="M2157.5,-307.59C2157.5,-297.06 2157.5,-285.53 2157.5,-277.84"/>
<polygon fill="#63b8ff" stroke="#63b8ff" points="2154,-307.28 2157.5,-317.28 2161,-307.28 2154,-307.28"/>
</g>
<!-- Node475 -->
<g id="node45" class="node">
<title>Node475</title>
<g id="a_node45"><a xlink:href="Z2AudioMgr_8cpp.html" target="_top" xlink:title=" ">
<polygon fill="white" stroke="#666666" points="2403.5,-277.5 2245.5,-277.5 2245.5,-258.5 2403.5,-258.5 2403.5,-277.5"/>
<text text-anchor="middle" x="2324.5" y="-265.5" font-family="Helvetica,sans-Serif" font-size="10.00">libs/Z2AudioLib/Z2AudioMgr.cpp</text>
</a>
</g>
</g>
<!-- Node2&#45;&gt;Node475 -->
<g id="edge60" class="edge">
<title>Node2&#45;&gt;Node475</title>
<path fill="none" stroke="#63b8ff" d="M2205.68,-314.54C2236.99,-302.54 2276.42,-287.43 2301.05,-277.99"/>
<polygon fill="#63b8ff" stroke="#63b8ff" points="2204.48,-311.25 2196.39,-318.1 2206.98,-317.79 2204.48,-311.25"/>
</g>
<!-- Node476 -->
<g id="node46" class="node">
<title>Node476</title>
<g id="a_node46"><a xlink:href="Z2SoundStarter_8cpp.html" target="_top" xlink:title=" ">
<polygon fill="white" stroke="#666666" points="2595,-277.5 2422,-277.5 2422,-258.5 2595,-258.5 2595,-277.5"/>
<text text-anchor="middle" x="2508.5" y="-265.5" font-family="Helvetica,sans-Serif" font-size="10.00">libs/Z2AudioLib/Z2SoundStarter.cpp</text>
</a>
</g>
</g>
<!-- Node2&#45;&gt;Node476 -->
<g id="edge61" class="edge">
<title>Node2&#45;&gt;Node476</title>
<path fill="none" stroke="#63b8ff" d="M2219.2,-318.52C2304.68,-301.32 2392.93,-286.84 2449.57,-277.97"/>
<polygon fill="#63b8ff" stroke="#63b8ff" points="2218.57,-315.08 2209.47,-320.5 2219.96,-321.94 2218.57,-315.08"/>
</g>
<!-- Node477 -->
<g id="node47" class="node">
<title>Node477</title>
<g id="a_node47"><a xlink:href="Z2SpeechMgr2_8cpp.html" target="_top" xlink:title=" ">
<polygon fill="white" stroke="#666666" points="2069,-283 1938,-283 1938,-253 2069,-253 2069,-283"/>
<text text-anchor="start" x="1946" y="-271" font-family="Helvetica,sans-Serif" font-size="10.00">libs/Z2AudioLib/Z2Speech</text>
<text text-anchor="middle" x="2003.5" y="-260" font-family="Helvetica,sans-Serif" font-size="10.00">Mgr2.cpp</text>
</a>
</g>
</g>
<!-- Node2&#45;&gt;Node477 -->
<g id="edge62" class="edge">
<title>Node2&#45;&gt;Node477</title>
<path fill="none" stroke="#63b8ff" d="M2112.44,-314.27C2088.75,-304.43 2060.16,-292.55 2038.21,-283.43"/>
<polygon fill="#63b8ff" stroke="#63b8ff" points="2110.96,-317.45 2121.54,-318.06 2113.65,-310.99 2110.96,-317.45"/>
</g>
<!-- Node4 -->
<g id="node4" class="node">
<title>Node4</title>
<g id="a_node4"><a xlink:href="m__Do__ext_8h.html" target="_top" xlink:title=" ">
<polygon fill="white" stroke="#666666" points="1799.5,-217 1669.5,-217 1669.5,-198 1799.5,-198 1799.5,-217"/>
<text text-anchor="middle" x="1734.5" y="-205" font-family="Helvetica,sans-Serif" font-size="10.00">include/m_Do/m_Do_ext.h</text>
</a>
</g>
</g>
<!-- Node3&#45;&gt;Node4 -->
<g id="edge3" class="edge">
<title>Node3&#45;&gt;Node4</title>
<path fill="none" stroke="#63b8ff" d="M2097.32,-256.17C2090.64,-255.06 2083.93,-253.98 2077.5,-253 1981.03,-238.31 1868.83,-224.34 1799.74,-216.09"/>
<polygon fill="#63b8ff" stroke="#63b8ff" points="2096.54,-259.59 2106.99,-257.81 2097.71,-252.69 2096.54,-259.59"/>
</g>
<!-- Node9 -->
<g id="node7" class="node">
<title>Node9</title>
<g id="a_node7"><a xlink:href="d__com__inf__game_8cpp.html" target="_top" xlink:title=" ">
<polygon fill="white" stroke="#666666" points="3048.5,-30 2940.5,-30 2940.5,0 3048.5,0 3048.5,-30"/>
<text text-anchor="start" x="2948.5" y="-18" font-family="Helvetica,sans-Serif" font-size="10.00">src/d/com/d_com_inf</text>
<text text-anchor="middle" x="2994.5" y="-7" font-family="Helvetica,sans-Serif" font-size="10.00">_game.cpp</text>
</a>
</g>
</g>
<!-- Node3&#45;&gt;Node9 -->
<g id="edge46" class="edge">
<title>Node3&#45;&gt;Node9</title>
<path fill="none" stroke="#63b8ff" d="M2140.79,-249.77C2127.99,-234.52 2114.68,-212.48 2128.5,-198 2187.08,-136.59 2808.47,-179.59 2891.5,-162 2970.79,-145.2 3015.72,-162.88 3061.5,-96 3069.03,-85 3067.48,-77.92 3061.5,-66 3053.76,-50.56 3038.74,-38.67 3024.88,-30.37"/>
<polygon fill="#63b8ff" stroke="#63b8ff" points="2138.13,-252.06 2147.43,-257.14 2143.33,-247.37 2138.13,-252.06"/>
</g>
<!-- Node16 -->
<g id="node8" class="node">
<title>Node16</title>
<g id="a_node8"><a xlink:href="d__msg__flow_8cpp.html" target="_top" xlink:title=" ">
<polygon fill="white" stroke="#666666" points="3433,-24.5 3300,-24.5 3300,-5.5 3433,-5.5 3433,-24.5"/>
<text text-anchor="middle" x="3366.5" y="-12.5" font-family="Helvetica,sans-Serif" font-size="10.00">src/d/msg/d_msg_flow.cpp</text>
</a>
</g>
</g>
<!-- Node3&#45;&gt;Node16 -->
<g id="edge51" class="edge">
<title>Node3&#45;&gt;Node16</title>
<path fill="none" stroke="#63b8ff" d="M2213.58,-256.16C2221.26,-254.94 2229.06,-253.84 2236.5,-253 2398.78,-234.72 2811.91,-255.97 2970.5,-217 3027.08,-203.1 3037.27,-187.81 3089.5,-162 3189.89,-112.38 3308.08,-48.08 3350.42,-24.85"/>
<polygon fill="#63b8ff" stroke="#63b8ff" points="2213.26,-252.67 2203.97,-257.77 2214.41,-259.57 2213.26,-252.67"/>
</g>
<!-- Node201 -->
<g id="node12" class="node">
<title>Node201</title>
<g id="a_node12"><a xlink:href="d__name_8cpp.html" target="_top" xlink:title=" ">
<polygon fill="white" stroke="#666666" points="3160.5,-24.5 3066.5,-24.5 3066.5,-5.5 3160.5,-5.5 3160.5,-24.5"/>
<text text-anchor="middle" x="3113.5" y="-12.5" font-family="Helvetica,sans-Serif" font-size="10.00">src/d/d_name.cpp</text>
</a>
</g>
</g>
<!-- Node3&#45;&gt;Node201 -->
<g id="edge47" class="edge">
<title>Node3&#45;&gt;Node201</title>
<path fill="none" stroke="#63b8ff" d="M2213.59,-256.2C2221.27,-254.98 2229.06,-253.86 2236.5,-253 2380.65,-236.31 2750.36,-261.42 2888.5,-217 2983.81,-186.35 3013.39,-172.05 3078.5,-96 3097.23,-74.12 3107.44,-40.65 3111.46,-24.85"/>
<polygon fill="#63b8ff" stroke="#63b8ff" points="2213.26,-252.71 2203.97,-257.81 2214.41,-259.62 2213.26,-252.71"/>
</g>
<!-- Node211 -->
<g id="node13" class="node">
<title>Node211</title>
<g id="a_node13"><a xlink:href="d__event__manager_8cpp.html" target="_top" xlink:title=" ">
<polygon fill="white" stroke="#666666" points="3282,-30 3179,-30 3179,0 3282,0 3282,-30"/>
<text text-anchor="start" x="3187" y="-18" font-family="Helvetica,sans-Serif" font-size="10.00">src/d/event/d_event</text>
<text text-anchor="middle" x="3230.5" y="-7" font-family="Helvetica,sans-Serif" font-size="10.00">_manager.cpp</text>
</a>
</g>
</g>
<!-- Node3&#45;&gt;Node211 -->
<g id="edge48" class="edge">
<title>Node3&#45;&gt;Node211</title>
<path fill="none" stroke="#63b8ff" d="M2213.59,-256.18C2221.26,-254.96 2229.06,-253.85 2236.5,-253 2389.93,-235.49 2780.96,-255.57 2930.5,-217 3057.68,-184.2 3177.62,-70.47 3216.99,-30.24"/>
<polygon fill="#63b8ff" stroke="#63b8ff" points="2213.26,-252.69 2203.97,-257.79 2214.41,-259.59 2213.26,-252.69"/>
</g>
<!-- Node216 -->
<g id="node14" class="node">
<title>Node216</title>
<g id="a_node14"><a xlink:href="d__kankyo__wether_8cpp.html" target="_top" xlink:title=" ">
<polygon fill="white" stroke="#666666" points="699.5,-30 583.5,-30 583.5,0 699.5,0 699.5,-30"/>
<text text-anchor="start" x="591.5" y="-18" font-family="Helvetica,sans-Serif" font-size="10.00">src/d/kankyo/d_kankyo</text>
<text text-anchor="middle" x="641.5" y="-7" font-family="Helvetica,sans-Serif" font-size="10.00">_wether.cpp</text>
</a>
</g>
</g>
<!-- Node3&#45;&gt;Node216 -->
<g id="edge50" class="edge">
<title>Node3&#45;&gt;Node216</title>
<path fill="none" stroke="#63b8ff" d="M2101.88,-256.16C2093.73,-254.89 2085.42,-253.78 2077.5,-253 1723.11,-218.21 828.17,-266.24 475.5,-217 379.52,-203.6 333.41,-230.14 264.5,-162 233.63,-131.48 217.53,-98.33 246.5,-66 295.44,-11.4 502.08,-41.51 574.5,-30 577.32,-29.55 580.19,-29.07 583.1,-28.55"/>
<polygon fill="#63b8ff" stroke="#63b8ff" points="2101.3,-259.61 2111.74,-257.78 2102.44,-252.7 2101.3,-259.61"/>
</g>
<!-- Node232 -->
<g id="node15" class="node">
<title>Node232</title>
<g id="a_node15"><a xlink:href="d__ovlp__fade_8cpp.html" target="_top" xlink:title=" ">
<polygon fill="white" stroke="#666666" points="282,-24.5 149,-24.5 149,-5.5 282,-5.5 282,-24.5"/>
<text text-anchor="middle" x="215.5" y="-12.5" font-family="Helvetica,sans-Serif" font-size="10.00">src/d/ovlp/d_ovlp_fade.cpp</text>
</a>
</g>
</g>
<!-- Node3&#45;&gt;Node232 -->
<g id="edge52" class="edge">
<title>Node3&#45;&gt;Node232</title>
<path fill="none" stroke="#63b8ff" d="M2101.88,-256.14C2093.73,-254.87 2085.42,-253.77 2077.5,-253 1975.51,-243.14 325.66,-261.78 233.5,-217 205.09,-203.2 199.12,-191.75 188.5,-162 183.83,-148.91 185.81,-88.6 191.5,-66 195.35,-50.69 204.12,-34.47 209.92,-24.8"/>
<polygon fill="#63b8ff" stroke="#63b8ff" points="2101.31,-259.59 2111.74,-257.76 2102.44,-252.68 2101.31,-259.59"/>
</g>
<!-- Node235 -->
<g id="node16" class="node">
<title>Node235</title>
<g id="a_node16"><a xlink:href="d__s__name_8cpp.html" target="_top" xlink:title=" ">
<polygon fill="white" stroke="#666666" points="413,-24.5 300,-24.5 300,-5.5 413,-5.5 413,-24.5"/>
<text text-anchor="middle" x="356.5" y="-12.5" font-family="Helvetica,sans-Serif" font-size="10.00">src/d/s/d_s_name.cpp</text>
</a>
</g>
</g>
<!-- Node3&#45;&gt;Node235 -->
<g id="edge55" class="edge">
<title>Node3&#45;&gt;Node235</title>
<path fill="none" stroke="#63b8ff" d="M2101.88,-256.14C2093.73,-254.88 2085.42,-253.77 2077.5,-253 1977.5,-243.31 362.61,-254.74 269.5,-217 202.57,-189.87 167.45,-124.71 209.5,-66 221.82,-48.8 274.32,-33.89 313.08,-24.93"/>
<polygon fill="#63b8ff" stroke="#63b8ff" points="2101.31,-259.59 2111.74,-257.76 2102.44,-252.68 2101.31,-259.59"/>
</g>
<!-- Node243 -->
<g id="node17" class="node">
<title>Node243</title>
<g id="a_node17"><a xlink:href="m__Do__audio_8cpp.html" target="_top" xlink:title=" ">
<polygon fill="white" stroke="#666666" points="565.5,-24.5 431.5,-24.5 431.5,-5.5 565.5,-5.5 565.5,-24.5"/>
<text text-anchor="middle" x="498.5" y="-12.5" font-family="Helvetica,sans-Serif" font-size="10.00">src/m_Do/m_Do_audio.cpp</text>
</a>
</g>
</g>
<!-- Node3&#45;&gt;Node243 -->
<g id="edge59" class="edge">
<title>Node3&#45;&gt;Node243</title>
<path fill="none" stroke="#63b8ff" d="M2101.88,-256.14C2093.73,-254.88 2085.42,-253.77 2077.5,-253 1882.27,-234.04 498.28,-279.93 312.5,-217 239.76,-192.36 179.39,-125.04 228.5,-66 228.94,-65.47 371.66,-39.24 449.39,-24.99"/>
<polygon fill="#63b8ff" stroke="#63b8ff" points="2101.3,-259.59 2111.74,-257.76 2102.44,-252.69 2101.3,-259.59"/>
</g>
<!-- Node66 -->
<g id="node26" class="node">
<title>Node66</title>
<g id="a_node26"><a xlink:href="d__kankyo_8cpp.html" target="_top" xlink:title=" ">
<polygon fill="white" stroke="#666666" points="389.5,-90.5 255.5,-90.5 255.5,-71.5 389.5,-71.5 389.5,-90.5"/>
<text text-anchor="middle" x="322.5" y="-78.5" font-family="Helvetica,sans-Serif" font-size="10.00">src/d/kankyo/d_kankyo.cpp</text>
</a>
</g>
</g>
<!-- Node3&#45;&gt;Node66 -->
<g id="edge49" class="edge">
<title>Node3&#45;&gt;Node66</title>
<path fill="none" stroke="#63b8ff" d="M2100.7,-256.18C2092.93,-254.95 2085.03,-253.85 2077.5,-253 1977.83,-241.81 343.61,-234.68 274.5,-162 253.29,-139.7 290.01,-106.43 310.35,-90.76"/>
<polygon fill="#63b8ff" stroke="#63b8ff" points="2100.02,-259.61 2110.46,-257.79 2101.16,-252.7 2100.02,-259.61"/>
</g>
<!-- Node81 -->
<g id="node40" class="node">
<title>Node81</title>
<g id="a_node40"><a xlink:href="d__ovlp__fade2_8cpp.html" target="_top" xlink:title=" ">
<polygon fill="white" stroke="#666666" points="2275.5,-217 2137.5,-217 2137.5,-198 2275.5,-198 2275.5,-217"/>
<text text-anchor="middle" x="2206.5" y="-205" font-family="Helvetica,sans-Serif" font-size="10.00">src/d/ovlp/d_ovlp_fade2.cpp</text>
</a>
</g>
</g>
<!-- Node3&#45;&gt;Node81 -->
<g id="edge53" class="edge">
<title>Node3&#45;&gt;Node81</title>
<path fill="none" stroke="#63b8ff" d="M2171.9,-249.8C2180.89,-239.08 2192.06,-225.73 2199.24,-217.17"/>
<polygon fill="#63b8ff" stroke="#63b8ff" points="2169.44,-247.29 2165.7,-257.21 2174.81,-251.79 2169.44,-247.29"/>
</g>
<!-- Node83 -->
<g id="node41" class="node">
<title>Node83</title>
<g id="a_node41"><a xlink:href="d__ovlp__fade3_8cpp.html" target="_top" xlink:title=" ">
<polygon fill="white" stroke="#666666" points="2431.5,-217 2293.5,-217 2293.5,-198 2431.5,-198 2431.5,-217"/>
<text text-anchor="middle" x="2362.5" y="-205" font-family="Helvetica,sans-Serif" font-size="10.00">src/d/ovlp/d_ovlp_fade3.cpp</text>
</a>
</g>
</g>
<!-- Node3&#45;&gt;Node83 -->
<g id="edge54" class="edge">
<title>Node3&#45;&gt;Node83</title>
<path fill="none" stroke="#63b8ff" d="M2199.63,-254.98C2238.67,-243.84 2295.88,-227.51 2331.07,-217.47"/>
<polygon fill="#63b8ff" stroke="#63b8ff" points="2198.75,-251.59 2190.09,-257.7 2200.67,-258.32 2198.75,-251.59"/>
</g>
<!-- Node72 -->
<g id="node42" class="node">
<title>Node72</title>
<g id="a_node42"><a xlink:href="d__s__play_8cpp.html" target="_top" xlink:title=" ">
<polygon fill="white" stroke="#666666" points="2555.5,-217 2449.5,-217 2449.5,-198 2555.5,-198 2555.5,-217"/>
<text text-anchor="middle" x="2502.5" y="-205" font-family="Helvetica,sans-Serif" font-size="10.00">src/d/s/d_s_play.cpp</text>
</a>
</g>
</g>
<!-- Node3&#45;&gt;Node72 -->
<g id="edge56" class="edge">
<title>Node3&#45;&gt;Node72</title>
<path fill="none" stroke="#63b8ff" d="M2218.97,-256.05C2224.9,-255.01 2230.81,-253.98 2236.5,-253 2310.21,-240.3 2395.51,-226.12 2449.23,-217.26"/>
<polygon fill="#63b8ff" stroke="#63b8ff" points="2218.37,-252.6 2209.13,-257.78 2219.58,-259.49 2218.37,-252.6"/>
</g>
<!-- Node22 -->
<g id="node43" class="node">
<title>Node22</title>
<g id="a_node43"><a xlink:href="d__shop__system_8cpp.html" target="_top" xlink:title=" ">
<polygon fill="white" stroke="#666666" points="2725.5,-217 2573.5,-217 2573.5,-198 2725.5,-198 2725.5,-217"/>
<text text-anchor="middle" x="2649.5" y="-205" font-family="Helvetica,sans-Serif" font-size="10.00">src/d/shop/d_shop_system.cpp</text>
</a>
</g>
</g>
<!-- Node3&#45;&gt;Node22 -->
<g id="edge57" class="edge">
<title>Node3&#45;&gt;Node22</title>
<path fill="none" stroke="#63b8ff" d="M2216.36,-256.12C2223.14,-255 2229.96,-253.93 2236.5,-253 2268.9,-248.39 2462.95,-227.95 2573.16,-216.44"/>
<polygon fill="#63b8ff" stroke="#63b8ff" points="2215.81,-252.66 2206.53,-257.78 2216.98,-259.56 2215.81,-252.66"/>
</g>
<!-- Node474 -->
<g id="node44" class="node">
<title>Node474</title>
<g id="a_node44"><a xlink:href="m__Do__Reset_8cpp.html" target="_top" xlink:title=" ">
<polygon fill="white" stroke="#666666" points="2879.5,-217 2743.5,-217 2743.5,-198 2879.5,-198 2879.5,-217"/>
<text text-anchor="middle" x="2811.5" y="-205" font-family="Helvetica,sans-Serif" font-size="10.00">src/m_Do/m_Do_Reset.cpp</text>
</a>
</g>
</g>
<!-- Node3&#45;&gt;Node474 -->
<g id="edge58" class="edge">
<title>Node3&#45;&gt;Node474</title>
<path fill="none" stroke="#63b8ff" d="M2214.44,-256.19C2221.84,-254.99 2229.34,-253.89 2236.5,-253 2456.71,-225.6 2513.51,-237.18 2734.5,-217 2737.31,-216.74 2740.18,-216.47 2743.08,-216.19"/>
<polygon fill="#63b8ff" stroke="#63b8ff" points="2214.11,-252.69 2204.82,-257.8 2215.26,-259.6 2214.11,-252.69"/>
</g>
<!-- Node5 -->
<g id="node5" class="node">
<title>Node5</title>
<g id="a_node5"><a xlink:href="d__attention_8h.html" target="_top" xlink:title=" ">
<polygon fill="white" stroke="#666666" points="2842.5,-156.5 2728.5,-156.5 2728.5,-137.5 2842.5,-137.5 2842.5,-156.5"/>
<text text-anchor="middle" x="2785.5" y="-144.5" font-family="Helvetica,sans-Serif" font-size="10.00">include/d/d_attention.h</text>
</a>
</g>
</g>
<!-- Node4&#45;&gt;Node5 -->
<g id="edge4" class="edge">
<title>Node4&#45;&gt;Node5</title>
<path fill="none" stroke="#63b8ff" d="M1811.02,-204.63C2010.54,-199.51 2543.33,-184.12 2718.5,-162 2728.05,-160.79 2738.26,-158.95 2747.77,-156.99"/>
<polygon fill="#63b8ff" stroke="#63b8ff" points="1811.2,-201.13 1801.29,-204.88 1811.38,-208.12 1811.2,-201.13"/>
</g>
<!-- Node179 -->
<g id="node10" class="node">
<title>Node179</title>
<g id="a_node10"><a xlink:href="c__dylink_8cpp.html" target="_top" xlink:title=" ">
<polygon fill="white" stroke="#666666" points="2781,-24.5 2686,-24.5 2686,-5.5 2781,-5.5 2781,-24.5"/>
<text text-anchor="middle" x="2733.5" y="-12.5" font-family="Helvetica,sans-Serif" font-size="10.00">src/c/c_dylink.cpp</text>
</a>
</g>
</g>
<!-- Node4&#45;&gt;Node179 -->
<g id="edge34" class="edge">
<title>Node4&#45;&gt;Node179</title>
<path fill="none" stroke="#63b8ff" d="M1811.3,-204.86C2060.78,-199.34 2833.46,-180.77 2851.5,-162 2870.59,-142.13 2844.86,-81.97 2831.5,-66 2814.34,-45.49 2786.64,-32.46 2765.06,-24.86"/>
<polygon fill="#63b8ff" stroke="#63b8ff" points="1811.25,-201.36 1801.33,-205.08 1811.41,-208.36 1811.25,-201.36"/>
</g>
<!-- Node244 -->
<g id="node18" class="node">
<title>Node244</title>
<g id="a_node18"><a xlink:href="m__Do__ext_8cpp.html" target="_top" xlink:title=" ">
<polygon fill="white" stroke="#666666" points="2922,-24.5 2799,-24.5 2799,-5.5 2922,-5.5 2922,-24.5"/>
<text text-anchor="middle" x="2860.5" y="-12.5" font-family="Helvetica,sans-Serif" font-size="10.00">src/m_Do/m_Do_ext.cpp</text>
</a>
</g>
</g>
<!-- Node4&#45;&gt;Node244 -->
<g id="edge42" class="edge">
<title>Node4&#45;&gt;Node244</title>
<path fill="none" stroke="#63b8ff" d="M1811.12,-204.2C2064.58,-196.49 2860.31,-171.56 2869.5,-162 2906.46,-123.56 2876.73,-49.94 2864.85,-24.72"/>
<polygon fill="#63b8ff" stroke="#63b8ff" points="1811.23,-200.69 1801.34,-204.49 1811.44,-207.69 1811.23,-200.69"/>
</g>
<!-- Node247 -->
<g id="node19" class="node">
<title>Node247</title>
<g id="a_node19"><a xlink:href="m__Do__machine__exception_8cpp.html" target="_top" xlink:title=" ">
<polygon fill="white" stroke="#666666" points="2543,-30 2414,-30 2414,0 2543,0 2543,-30"/>
<text text-anchor="start" x="2422" y="-18" font-family="Helvetica,sans-Serif" font-size="10.00">src/m_Do/m_Do_machine</text>
<text text-anchor="middle" x="2478.5" y="-7" font-family="Helvetica,sans-Serif" font-size="10.00">_exception.cpp</text>
</a>
</g>
</g>
<!-- Node4&#45;&gt;Node247 -->
<g id="edge44" class="edge">
<title>Node4&#45;&gt;Node247</title>
<path fill="none" stroke="#63b8ff" d="M1811.3,-205.15C2010.16,-201.29 2528.21,-188.7 2553.5,-162 2591.52,-121.86 2528.84,-58.71 2496.26,-30.48"/>
<polygon fill="#63b8ff" stroke="#63b8ff" points="1811.25,-201.65 1801.31,-205.34 1811.38,-208.65 1811.25,-201.65"/>
</g>
<!-- Node251 -->
<g id="node22" class="node">
<title>Node251</title>
<g id="a_node22"><a xlink:href="d__drawlist_8h.html" target="_top" xlink:title=" ">
<polygon fill="#fff0f0" stroke="red" points="509.5,-156.5 399.5,-156.5 399.5,-137.5 509.5,-137.5 509.5,-156.5"/>
<text text-anchor="middle" x="454.5" y="-144.5" font-family="Helvetica,sans-Serif" font-size="10.00">include/d/d_drawlist.h</text>
</a>
</g>
</g>
<!-- Node4&#45;&gt;Node251 -->
<g id="edge23" class="edge">
<title>Node4&#45;&gt;Node251</title>
<path fill="none" stroke="#63b8ff" d="M1657.71,-205.49C1426.69,-202.15 740.31,-190.09 518.5,-162 509.25,-160.83 499.36,-158.97 490.18,-156.99"/>
<polygon fill="#63b8ff" stroke="#63b8ff" points="1657.46,-208.98 1667.51,-205.63 1657.56,-201.98 1657.46,-208.98"/>
</g>
<!-- Node299 -->
<g id="node23" class="node">
<title>Node299</title>
<g id="a_node23"><a xlink:href="d__ky__thunder_8h.html" target="_top" xlink:title=" ">
<polygon fill="#fff0f0" stroke="red" points="651.5,-156.5 527.5,-156.5 527.5,-137.5 651.5,-137.5 651.5,-156.5"/>
<text text-anchor="middle" x="589.5" y="-144.5" font-family="Helvetica,sans-Serif" font-size="10.00">include/d/d_ky_thunder.h</text>
</a>
</g>
</g>
<!-- Node4&#45;&gt;Node299 -->
<g id="edge24" class="edge">
<title>Node4&#45;&gt;Node299</title>
<path fill="none" stroke="#63b8ff" d="M1657.74,-204.85C1445.53,-200.04 853.84,-184.93 660.5,-162 650.27,-160.79 639.31,-158.91 629.13,-156.93"/>
<polygon fill="#63b8ff" stroke="#63b8ff" points="1657.47,-208.34 1667.55,-205.07 1657.63,-201.35 1657.47,-208.34"/>
</g>
<!-- Node300 -->
<g id="node24" class="node">
<title>Node300</title>
<g id="a_node24"><a xlink:href="d__resorce_8h.html" target="_top" xlink:title=" ">
<polygon fill="#fff0f0" stroke="red" points="2710,-156.5 2601,-156.5 2601,-137.5 2710,-137.5 2710,-156.5"/>
<text text-anchor="middle" x="2655.5" y="-144.5" font-family="Helvetica,sans-Serif" font-size="10.00">include/d/d_resorce.h</text>
</a>
</g>
</g>
<!-- Node4&#45;&gt;Node300 -->
<g id="edge25" class="edge">
<title>Node4&#45;&gt;Node300</title>
<path fill="none" stroke="#63b8ff" d="M1811.27,-203.95C1991.52,-197.72 2437.77,-180.87 2586.5,-162 2596.32,-160.75 2606.84,-158.89 2616.62,-156.94"/>
<polygon fill="#63b8ff" stroke="#63b8ff" points="1811.18,-200.45 1801.3,-204.29 1811.42,-207.45 1811.18,-200.45"/>
</g>
<!-- Node301 -->
<g id="node25" class="node">
<title>Node301</title>
<g id="a_node25"><a xlink:href="d__kankyo_8h.html" target="_top" xlink:title=" ">
<polygon fill="#fff0f0" stroke="red" points="381.5,-162 283.5,-162 283.5,-132 381.5,-132 381.5,-162"/>
<text text-anchor="start" x="291.5" y="-150" font-family="Helvetica,sans-Serif" font-size="10.00">include/d/kankyo/d</text>
<text text-anchor="middle" x="332.5" y="-139" font-family="Helvetica,sans-Serif" font-size="10.00">_kankyo.h</text>
</a>
</g>
</g>
<!-- Node4&#45;&gt;Node301 -->
<g id="edge27" class="edge">
<title>Node4&#45;&gt;Node301</title>
<path fill="none" stroke="#63b8ff" d="M1657.76,-206.01C1410.74,-204.12 638.01,-195.61 390.5,-162 387.63,-161.61 384.69,-161.14 381.73,-160.61"/>
<polygon fill="#63b8ff" stroke="#63b8ff" points="1657.58,-209.51 1667.6,-206.09 1657.63,-202.51 1657.58,-209.51"/>
</g>
<!-- Node255 -->
<g id="node27" class="node">
<title>Node255</title>
<g id="a_node27"><a xlink:href="d__a__do_8h.html" target="_top" xlink:title=" ">
<polygon fill="white" stroke="#666666" points="765.5,-162 669.5,-162 669.5,-132 765.5,-132 765.5,-162"/>
<text text-anchor="start" x="677.5" y="-150" font-family="Helvetica,sans-Serif" font-size="10.00">include/rel/d/a/d_a</text>
<text text-anchor="middle" x="717.5" y="-139" font-family="Helvetica,sans-Serif" font-size="10.00">_do/d_a_do.h</text>
</a>
</g>
</g>
<!-- Node4&#45;&gt;Node255 -->
<g id="edge30" class="edge">
<title>Node4&#45;&gt;Node255</title>
<path fill="none" stroke="#63b8ff" d="M1657.77,-204.87C1461.43,-200.39 944.4,-186.56 774.5,-162 771.68,-161.59 768.79,-161.11 765.88,-160.56"/>
<polygon fill="#63b8ff" stroke="#63b8ff" points="1657.52,-208.37 1667.6,-205.09 1657.68,-201.37 1657.52,-208.37"/>
</g>
<!-- Node445 -->
<g id="node28" class="node">
<title>Node445</title>
<g id="a_node28"><a xlink:href="d__a__mg__fshop_8h.html" target="_top" xlink:title=" ">
<polygon fill="white" stroke="#666666" points="923,-162 784,-162 784,-132 923,-132 923,-162"/>
<text text-anchor="start" x="792" y="-150" font-family="Helvetica,sans-Serif" font-size="10.00">include/rel/d/a/d_a</text>
<text text-anchor="middle" x="853.5" y="-139" font-family="Helvetica,sans-Serif" font-size="10.00">_mg_fshop/d_a_mg_fshop.h</text>
</a>
</g>
</g>
<!-- Node4&#45;&gt;Node445 -->
<g id="edge31" class="edge">
<title>Node4&#45;&gt;Node445</title>
<path fill="none" stroke="#63b8ff" d="M1657.81,-205.3C1514.75,-202.39 1197.69,-192.74 932.5,-162 929.46,-161.65 926.35,-161.25 923.22,-160.82"/>
<polygon fill="#63b8ff" stroke="#63b8ff" points="1657.46,-208.8 1667.53,-205.49 1657.6,-201.8 1657.46,-208.8"/>
</g>
<!-- Node365 -->
<g id="node29" class="node">
<title>Node365</title>
<g id="a_node29"><a xlink:href="d__a__myna_8h.html" target="_top" xlink:title=" ">
<polygon fill="white" stroke="#666666" points="1041.5,-162 941.5,-162 941.5,-132 1041.5,-132 1041.5,-162"/>
<text text-anchor="start" x="949.5" y="-150" font-family="Helvetica,sans-Serif" font-size="10.00">include/rel/d/a/d_a</text>
<text text-anchor="middle" x="991.5" y="-139" font-family="Helvetica,sans-Serif" font-size="10.00">_myna/d_a_myna.h</text>
</a>
</g>
</g>
<!-- Node4&#45;&gt;Node365 -->
<g id="edge32" class="edge">
<title>Node4&#45;&gt;Node365</title>
<path fill="none" stroke="#63b8ff" d="M1657.53,-205.7C1530.45,-203.43 1269.04,-194.8 1050.5,-162 1047.69,-161.58 1044.81,-161.09 1041.92,-160.55"/>
<polygon fill="#63b8ff" stroke="#63b8ff" points="1657.47,-209.2 1667.52,-205.86 1657.58,-202.2 1657.47,-209.2"/>
</g>
<!-- Node465 -->
<g id="node30" class="node">
<title>Node465</title>
<g id="a_node30"><a xlink:href="DynamicLink_8cpp.html" target="_top" xlink:title=" ">
<polygon fill="white" stroke="#666666" points="1167,-156.5 1060,-156.5 1060,-137.5 1167,-137.5 1167,-156.5"/>
<text text-anchor="middle" x="1113.5" y="-144.5" font-family="Helvetica,sans-Serif" font-size="10.00">src/DynamicLink.cpp</text>
</a>
</g>
</g>
<!-- Node4&#45;&gt;Node465 -->
<g id="edge33" class="edge">
<title>Node4&#45;&gt;Node465</title>
<path fill="none" stroke="#63b8ff" d="M1657.89,-203.76C1549.99,-199.15 1347.35,-187.67 1176.5,-162 1167.75,-160.68 1158.4,-158.85 1149.65,-156.94"/>
<polygon fill="#63b8ff" stroke="#63b8ff" points="1657.65,-207.26 1667.79,-204.18 1657.94,-200.26 1657.65,-207.26"/>
</g>
<!-- Node466 -->
<g id="node31" class="node">
<title>Node466</title>
<g id="a_node31"><a xlink:href="d__meter__HIO_8cpp.html" target="_top" xlink:title=" ">
<polygon fill="white" stroke="#666666" points="1289.5,-162 1185.5,-162 1185.5,-132 1289.5,-132 1289.5,-162"/>
<text text-anchor="start" x="1193.5" y="-150" font-family="Helvetica,sans-Serif" font-size="10.00">src/d/meter/d_meter</text>
<text text-anchor="middle" x="1237.5" y="-139" font-family="Helvetica,sans-Serif" font-size="10.00">_HIO.cpp</text>
</a>
</g>
</g>
<!-- Node4&#45;&gt;Node466 -->
<g id="edge35" class="edge">
<title>Node4&#45;&gt;Node466</title>
<path fill="none" stroke="#63b8ff" d="M1657.76,-201.56C1570.37,-195.26 1423.51,-182.64 1298.5,-162 1295.71,-161.54 1292.86,-161.03 1289.99,-160.48"/>
<polygon fill="#63b8ff" stroke="#63b8ff" points="1657.43,-205.04 1667.65,-202.26 1657.93,-198.06 1657.43,-205.04"/>
</g>
<!-- Node467 -->
<g id="node32" class="node">
<title>Node467</title>
<g id="a_node32"><a xlink:href="d__pane__class_8cpp.html" target="_top" xlink:title=" ">
<polygon fill="white" stroke="#666666" points="1451,-156.5 1308,-156.5 1308,-137.5 1451,-137.5 1451,-156.5"/>
<text text-anchor="middle" x="1379.5" y="-144.5" font-family="Helvetica,sans-Serif" font-size="10.00">src/d/pane/d_pane_class.cpp</text>
</a>
</g>
</g>
<!-- Node4&#45;&gt;Node467 -->
<g id="edge36" class="edge">
<title>Node4&#45;&gt;Node467</title>
<path fill="none" stroke="#63b8ff" d="M1666.44,-195.74C1610.77,-186.87 1530,-173.87 1459.5,-162 1450.05,-160.41 1439.97,-158.67 1430.27,-156.99"/>
<polygon fill="#63b8ff" stroke="#63b8ff" points="1665.66,-199.16 1676.09,-197.27 1666.76,-192.24 1665.66,-199.16"/>
</g>
<!-- Node468 -->
<g id="node33" class="node">
<title>Node468</title>
<g id="a_node33"><a xlink:href="d__pane__class__alpha_8cpp.html" target="_top" xlink:title=" ">
<polygon fill="white" stroke="#666666" points="1594,-162 1469,-162 1469,-132 1594,-132 1594,-162"/>
<text text-anchor="start" x="1477" y="-150" font-family="Helvetica,sans-Serif" font-size="10.00">src/d/pane/d_pane_class</text>
<text text-anchor="middle" x="1531.5" y="-139" font-family="Helvetica,sans-Serif" font-size="10.00">_alpha.cpp</text>
</a>
</g>
</g>
<!-- Node4&#45;&gt;Node468 -->
<g id="edge37" class="edge">
<title>Node4&#45;&gt;Node468</title>
<path fill="none" stroke="#63b8ff" d="M1692.82,-194.49C1660.58,-185.2 1615.8,-172.29 1581.61,-162.44"/>
<polygon fill="#63b8ff" stroke="#63b8ff" points="1691.64,-197.79 1702.21,-197.2 1693.57,-191.06 1691.64,-197.79"/>
</g>
<!-- Node171 -->
<g id="node34" class="node">
<title>Node171</title>
<g id="a_node34"><a xlink:href="f__op__actor__mng_8cpp.html" target="_top" xlink:title=" ">
<polygon fill="white" stroke="#666666" points="1713,-162 1612,-162 1612,-132 1713,-132 1713,-162"/>
<text text-anchor="start" x="1620" y="-150" font-family="Helvetica,sans-Serif" font-size="10.00">src/f_op/f_op_actor</text>
<text text-anchor="middle" x="1662.5" y="-139" font-family="Helvetica,sans-Serif" font-size="10.00">_mng.cpp</text>
</a>
</g>
</g>
<!-- Node4&#45;&gt;Node171 -->
<g id="edge38" class="edge">
<title>Node4&#45;&gt;Node171</title>
<path fill="none" stroke="#63b8ff" d="M1714.85,-190.53C1704.05,-181.76 1690.76,-170.96 1680.27,-162.44"/>
<polygon fill="#63b8ff" stroke="#63b8ff" points="1712.42,-193.07 1722.39,-196.66 1716.84,-187.64 1712.42,-193.07"/>
</g>
<!-- Node469 -->
<g id="node35" class="node">
<title>Node469</title>
<g id="a_node35"><a xlink:href="m__Do__DVDError_8cpp.html" target="_top" xlink:title=" ">
<polygon fill="white" stroke="#666666" points="1882,-156.5 1731,-156.5 1731,-137.5 1882,-137.5 1882,-156.5"/>
<text text-anchor="middle" x="1806.5" y="-144.5" font-family="Helvetica,sans-Serif" font-size="10.00">src/m_Do/m_Do_DVDError.cpp</text>
</a>
</g>
</g>
<!-- Node4&#45;&gt;Node469 -->
<g id="edge39" class="edge">
<title>Node4&#45;&gt;Node469</title>
<path fill="none" stroke="#63b8ff" d="M1754.3,-190.41C1767.56,-179.64 1784.53,-165.85 1795.46,-156.97"/>
<polygon fill="#63b8ff" stroke="#63b8ff" points="1752.16,-187.64 1746.61,-196.66 1756.58,-193.07 1752.16,-187.64"/>
</g>
<!-- Node470 -->
<g id="node36" class="node">
<title>Node470</title>
<g id="a_node36"><a xlink:href="m__Do__MemCard_8cpp.html" target="_top" xlink:title=" ">
<polygon fill="white" stroke="#666666" points="2052.5,-156.5 1900.5,-156.5 1900.5,-137.5 2052.5,-137.5 2052.5,-156.5"/>
<text text-anchor="middle" x="1976.5" y="-144.5" font-family="Helvetica,sans-Serif" font-size="10.00">src/m_Do/m_Do_MemCard.cpp</text>
</a>
</g>
</g>
<!-- Node4&#45;&gt;Node470 -->
<g id="edge40" class="edge">
<title>Node4&#45;&gt;Node470</title>
<path fill="none" stroke="#63b8ff" d="M1782.44,-194.91C1828.6,-183.75 1897.41,-167.12 1939.49,-156.95"/>
<polygon fill="#63b8ff" stroke="#63b8ff" points="1781.89,-191.44 1772.99,-197.2 1783.53,-198.25 1781.89,-191.44"/>
</g>
<!-- Node471 -->
<g id="node37" class="node">
<title>Node471</title>
<g id="a_node37"><a xlink:href="m__Do__dvd__thread_8cpp.html" target="_top" xlink:title=" ">
<polygon fill="white" stroke="#666666" points="2228.5,-156.5 2070.5,-156.5 2070.5,-137.5 2228.5,-137.5 2228.5,-156.5"/>
<text text-anchor="middle" x="2149.5" y="-144.5" font-family="Helvetica,sans-Serif" font-size="10.00">src/m_Do/m_Do_dvd_thread.cpp</text>
</a>
</g>
</g>
<!-- Node4&#45;&gt;Node471 -->
<g id="edge41" class="edge">
<title>Node4&#45;&gt;Node471</title>
<path fill="none" stroke="#63b8ff" d="M1810.88,-196.6C1877.2,-187.89 1975.77,-174.65 2061.5,-162 2072.21,-160.42 2083.65,-158.66 2094.61,-156.93"/>
<polygon fill="#63b8ff" stroke="#63b8ff" points="1810.67,-193.1 1801.21,-197.87 1811.58,-200.04 1810.67,-193.1"/>
</g>
<!-- Node472 -->
<g id="node38" class="node">
<title>Node472</title>
<g id="a_node38"><a xlink:href="m__Do__machine_8cpp.html" target="_top" xlink:title=" ">
<polygon fill="white" stroke="#666666" points="2394,-156.5 2247,-156.5 2247,-137.5 2394,-137.5 2394,-156.5"/>
<text text-anchor="middle" x="2320.5" y="-144.5" font-family="Helvetica,sans-Serif" font-size="10.00">src/m_Do/m_Do_machine.cpp</text>
</a>
</g>
</g>
<!-- Node4&#45;&gt;Node472 -->
<g id="edge43" class="edge">
<title>Node4&#45;&gt;Node472</title>
<path fill="none" stroke="#63b8ff" d="M1811.15,-201.61C1909.95,-194.87 2086.94,-181.33 2237.5,-162 2248.52,-160.59 2260.31,-158.78 2271.44,-156.93"/>
<polygon fill="#63b8ff" stroke="#63b8ff" points="1811.04,-198.11 1801.3,-202.27 1811.51,-205.09 1811.04,-198.11"/>
</g>
<!-- Node473 -->
<g id="node39" class="node">
<title>Node473</title>
<g id="a_node39"><a xlink:href="m__Do__printf_8cpp.html" target="_top" xlink:title=" ">
<polygon fill="white" stroke="#666666" points="2544.5,-156.5 2412.5,-156.5 2412.5,-137.5 2544.5,-137.5 2544.5,-156.5"/>
<text text-anchor="middle" x="2478.5" y="-144.5" font-family="Helvetica,sans-Serif" font-size="10.00">src/m_Do/m_Do_printf.cpp</text>
</a>
</g>
</g>
<!-- Node4&#45;&gt;Node473 -->
<g id="edge45" class="edge">
<title>Node4&#45;&gt;Node473</title>
<path fill="none" stroke="#63b8ff" d="M1810.96,-204.28C1935.37,-200.03 2189.16,-188.66 2402.5,-162 2413.02,-160.69 2424.28,-158.85 2434.83,-156.94"/>
<polygon fill="#63b8ff" stroke="#63b8ff" points="1811.08,-200.78 1801.2,-204.61 1811.32,-207.77 1811.08,-200.78"/>
</g>
<!-- Node6 -->
<g id="node6" class="node">
<title>Node6</title>
<g id="a_node6"><a xlink:href="d__a__alink_8h.html" target="_top" xlink:title=" ">
<polygon fill="#fff0f0" stroke="red" points="3052.5,-90.5 2936.5,-90.5 2936.5,-71.5 3052.5,-71.5 3052.5,-90.5"/>
<text text-anchor="middle" x="2994.5" y="-78.5" font-family="Helvetica,sans-Serif" font-size="10.00">include/d/a/d_a_alink.h</text>
</a>
</g>
</g>
<!-- Node5&#45;&gt;Node6 -->
<g id="edge5" class="edge">
<title>Node5&#45;&gt;Node6</title>
<path fill="none" stroke="#63b8ff" d="M2825.48,-133.76C2866.37,-121.24 2928.91,-102.08 2965.35,-90.93"/>
<polygon fill="#63b8ff" stroke="#63b8ff" points="2824.54,-130.38 2816.01,-136.66 2826.59,-137.08 2824.54,-130.38"/>
</g>
<!-- Node19 -->
<g id="node9" class="node">
<title>Node19</title>
<g id="a_node9"><a xlink:href="d__com__inf__game_8h.html" target="_top" xlink:title=" ">
<polygon fill="#fff0f0" stroke="red" points="2684.5,-96 2574.5,-96 2574.5,-66 2684.5,-66 2684.5,-96"/>
<text text-anchor="start" x="2582.5" y="-84" font-family="Helvetica,sans-Serif" font-size="10.00">include/d/com/d_com</text>
<text text-anchor="middle" x="2629.5" y="-73" font-family="Helvetica,sans-Serif" font-size="10.00">_inf_game.h</text>
</a>
</g>
</g>
<!-- Node5&#45;&gt;Node19 -->
<g id="edge8" class="edge">
<title>Node5&#45;&gt;Node19</title>
<path fill="none" stroke="#63b8ff" d="M2753.45,-132.85C2727.64,-122.26 2691.42,-107.4 2664.79,-96.48"/>
<polygon fill="#63b8ff" stroke="#63b8ff" points="2751.83,-135.97 2762.41,-136.53 2754.49,-129.49 2751.83,-135.97"/>
</g>
<!-- Node188 -->
<g id="node11" class="node">
<title>Node188</title>
<g id="a_node11"><a xlink:href="d__attention_8cpp.html" target="_top" xlink:title=" ">
<polygon fill="white" stroke="#666666" points="2668,-24.5 2561,-24.5 2561,-5.5 2668,-5.5 2668,-24.5"/>
<text text-anchor="middle" x="2614.5" y="-12.5" font-family="Helvetica,sans-Serif" font-size="10.00">src/d/d_attention.cpp</text>
</a>
</g>
</g>
<!-- Node5&#45;&gt;Node188 -->
<g id="edge22" class="edge">
<title>Node5&#45;&gt;Node188</title>
<path fill="none" stroke="#63b8ff" d="M2800.39,-128.62C2813.36,-111.28 2828.01,-84.6 2813.5,-66 2810.99,-62.78 2709.83,-38.49 2652.74,-24.98"/>
<polygon fill="#63b8ff" stroke="#63b8ff" points="2798,-126.01 2794.5,-136 2803.47,-130.37 2798,-126.01"/>
</g>
<!-- Node250 -->
<g id="node21" class="node">
<title>Node250</title>
<g id="a_node21"><a xlink:href="d__att__dist_8cpp.html" target="_top" xlink:title=" ">
<polygon fill="white" stroke="#666666" points="2804.5,-90.5 2702.5,-90.5 2702.5,-71.5 2804.5,-71.5 2804.5,-90.5"/>
<text text-anchor="middle" x="2753.5" y="-78.5" font-family="Helvetica,sans-Serif" font-size="10.00">src/d/d_att_dist.cpp</text>
</a>
</g>
</g>
<!-- Node5&#45;&gt;Node250 -->
<g id="edge21" class="edge">
<title>Node5&#45;&gt;Node250</title>
<path fill="none" stroke="#63b8ff" d="M2776.08,-127.16C2770.08,-115.16 2762.58,-100.15 2757.91,-90.82"/>
<polygon fill="#63b8ff" stroke="#63b8ff" points="2772.77,-128.37 2780.37,-135.75 2779.03,-125.24 2772.77,-128.37"/>
</g>
<!-- Node6&#45;&gt;Node9 -->
<g id="edge6" class="edge">
<title>Node6&#45;&gt;Node9</title>
<path fill="none" stroke="#63b8ff" d="M2994.5,-59.78C2994.5,-50.17 2994.5,-38.92 2994.5,-30.23"/>
<polygon fill="#63b8ff" stroke="#63b8ff" points="2991,-59.59 2994.5,-69.59 2998,-59.59 2991,-59.59"/>
</g>
<!-- Node6&#45;&gt;Node16 -->
<g id="edge7" class="edge">
<title>Node6&#45;&gt;Node16</title>
<path fill="none" stroke="#63b8ff" d="M3060.81,-69.18C3121.04,-59.28 3212.3,-44.06 3291.5,-30 3300.5,-28.4 3310.1,-26.65 3319.31,-24.94"/>
<polygon fill="#63b8ff" stroke="#63b8ff" points="3060.36,-65.71 3051.06,-70.79 3061.49,-72.62 3060.36,-65.71"/>
</g>
<!-- Node19&#45;&gt;Node9 -->
<g id="edge10" class="edge">
<title>Node19&#45;&gt;Node9</title>
<path fill="none" stroke="#63b8ff" d="M2696.28,-65.56C2800.23,-46.77 2829.32,-48.73 2930.5,-30 2933.63,-29.42 2936.84,-28.8 2940.08,-28.15"/>
<polygon fill="#63b8ff" stroke="#63b8ff" points="2695.65,-62.12 2686.45,-67.37 2696.91,-69.01 2695.65,-62.12"/>
</g>
<!-- Node19&#45;&gt;Node179 -->
<g id="edge9" class="edge">
<title>Node19&#45;&gt;Node179</title>
<path fill="none" stroke="#63b8ff" d="M2662.61,-59.63C2681.55,-47.97 2704.36,-33.93 2718.9,-24.99"/>
<polygon fill="#63b8ff" stroke="#63b8ff" points="2660.81,-56.62 2654.13,-64.84 2664.48,-62.58 2660.81,-56.62"/>
</g>
<!-- Node19&#45;&gt;Node188 -->
<g id="edge11" class="edge">
<title>Node19&#45;&gt;Node188</title>
<path fill="none" stroke="#63b8ff" d="M2623.54,-54.59C2621.08,-44.06 2618.37,-32.53 2616.57,-24.84"/>
<polygon fill="#63b8ff" stroke="#63b8ff" points="2620.14,-55.39 2625.83,-64.32 2626.95,-53.79 2620.14,-55.39"/>
</g>
<!-- Node19&#45;&gt;Node201 -->
<g id="edge12" class="edge">
<title>Node19&#45;&gt;Node201</title>
<path fill="none" stroke="#63b8ff" d="M2696.14,-65.72C2856.07,-41.34 2900.92,-57.16 3057.5,-30 3065.2,-28.66 3073.41,-26.84 3081.1,-24.96"/>
<polygon fill="#63b8ff" stroke="#63b8ff" points="2695.77,-62.23 2686.42,-67.23 2696.84,-69.15 2695.77,-62.23"/>
</g>
<!-- Node19&#45;&gt;Node211 -->
<g id="edge13" class="edge">
<title>Node19&#45;&gt;Node211</title>
<path fill="none" stroke="#63b8ff" d="M2696.29,-65.74C2905.45,-36.17 2963.43,-61.26 3169.5,-30 3172.51,-29.54 3175.59,-29.02 3178.69,-28.45"/>
<polygon fill="#63b8ff" stroke="#63b8ff" points="2695.81,-62.27 2686.41,-67.16 2696.81,-69.2 2695.81,-62.27"/>
</g>
<!-- Node19&#45;&gt;Node216 -->
<g id="edge14" class="edge">
<title>Node19&#45;&gt;Node216</title>
<path fill="none" stroke="#63b8ff" d="M2562.93,-77.86C2256.91,-68.01 987.81,-27.15 699.81,-17.88"/>
<polygon fill="#63b8ff" stroke="#63b8ff" points="2562.63,-81.35 2572.74,-78.17 2562.86,-74.35 2562.63,-81.35"/>
</g>
<!-- Node19&#45;&gt;Node232 -->
<g id="edge15" class="edge">
<title>Node19&#45;&gt;Node232</title>
<path fill="none" stroke="#63b8ff" d="M2562.81,-80.04C2230.19,-80.04 748.55,-77.33 290.5,-30 279.56,-28.87 267.84,-27 256.98,-24.99"/>
<polygon fill="#63b8ff" stroke="#63b8ff" points="2562.64,-83.54 2572.64,-80.04 2562.64,-76.54 2562.64,-83.54"/>
</g>
<!-- Node19&#45;&gt;Node235 -->
<g id="edge16" class="edge">
<title>Node19&#45;&gt;Node235</title>
<path fill="none" stroke="#63b8ff" d="M2562.69,-80.16C2241.33,-80.7 852.36,-80.02 422.5,-30 412.84,-28.88 402.51,-27.01 392.96,-25"/>
<polygon fill="#63b8ff" stroke="#63b8ff" points="2562.61,-83.66 2572.6,-80.15 2562.6,-76.66 2562.61,-83.66"/>
</g>
<!-- Node19&#45;&gt;Node243 -->
<g id="edge17" class="edge">
<title>Node19&#45;&gt;Node243</title>
<path fill="none" stroke="#63b8ff" d="M2562.88,-79.79C2255.63,-78.63 973.38,-71.33 574.5,-30 563.42,-28.85 551.54,-26.98 540.54,-24.97"/>
<polygon fill="#63b8ff" stroke="#63b8ff" points="2562.72,-83.29 2572.73,-79.83 2562.75,-76.29 2562.72,-83.29"/>
</g>
<!-- Node19&#45;&gt;Node244 -->
<g id="edge18" class="edge">
<title>Node19&#45;&gt;Node244</title>
<path fill="none" stroke="#63b8ff" d="M2692.49,-62.55C2736.38,-50.39 2793.12,-34.67 2828.15,-24.96"/>
<polygon fill="#63b8ff" stroke="#63b8ff" points="2691.79,-59.11 2683.09,-65.15 2693.66,-65.86 2691.79,-59.11"/>
</g>
<!-- Node19&#45;&gt;Node247 -->
<g id="edge19" class="edge">
<title>Node19&#45;&gt;Node247</title>
<path fill="none" stroke="#63b8ff" d="M2585.32,-61.27C2562.09,-51.43 2534.06,-39.55 2512.54,-30.43"/>
<polygon fill="#63b8ff" stroke="#63b8ff" points="2583.65,-64.37 2594.22,-65.05 2586.38,-57.92 2583.65,-64.37"/>
</g>
<!-- Node19&#45;&gt;Node248 -->
<g id="edge20" class="edge">
<title>Node19&#45;&gt;Node248</title>
<path fill="none" stroke="#63b8ff" d="M2562.73,-80.17C2217.16,-80.8 629.05,-80.86 139.5,-30 128.58,-28.86 116.85,-26.97 106.03,-24.93"/>
<polygon fill="#63b8ff" stroke="#63b8ff" points="2562.51,-83.67 2572.5,-80.15 2562.5,-76.67 2562.51,-83.67"/>
</g>
<!-- Node300&#45;&gt;Node19 -->
<g id="edge26" class="edge">
<title>Node300&#45;&gt;Node19</title>
<path fill="none" stroke="#63b8ff" d="M2647.68,-126.74C2643.69,-116.93 2638.93,-105.22 2635.28,-96.23"/>
<polygon fill="#63b8ff" stroke="#63b8ff" points="2644.31,-127.75 2651.32,-135.7 2650.79,-125.12 2644.31,-127.75"/>
</g>
<!-- Node301&#45;&gt;Node216 -->
<g id="edge29" class="edge">
<title>Node301&#45;&gt;Node216</title>
<path fill="none" stroke="#63b8ff" d="M377.03,-127.27C439.24,-101.09 550.85,-54.14 607.1,-30.47"/>
<polygon fill="#63b8ff" stroke="#63b8ff" points="376,-123.9 368.14,-131 378.72,-130.35 376,-123.9"/>
</g>
<!-- Node301&#45;&gt;Node66 -->
<g id="edge28" class="edge">
<title>Node301&#45;&gt;Node66</title>
<path fill="none" stroke="#63b8ff" d="M328.53,-120.59C326.88,-110.06 325.08,-98.53 323.88,-90.84"/>
<polygon fill="#63b8ff" stroke="#63b8ff" points="325.05,-120.96 330.05,-130.3 331.96,-119.88 325.05,-120.96"/>
</g>
</g>
</svg>
