<?xml version="1.0" encoding="UTF-8" standalone="no"?>
<!DOCTYPE svg PUBLIC "-//W3C//DTD SVG 1.1//EN"
 "http://www.w3.org/Graphics/SVG/1.1/DTD/svg11.dtd">
<!-- Generated by graphviz version 7.0.5 (20221223.1930)
 -->
<!-- Title: include/Z2AudioLib/Z2SoundHandles.h Pages: 1 -->
<!--zoomable 511 -->
<svg id="main" version="1.1" xmlns="http://www.w3.org/2000/svg" xmlns:xlink="http://www.w3.org/1999/xlink" xml:space="preserve" onload="init(evt)">
<style type="text/css"><![CDATA[
.edge:hover path { stroke: red; }
.edge:hover polygon { stroke: red; fill: red; }
]]></style>
<script type="text/javascript"><![CDATA[
var edges = document.getElementsByTagName('g');
if (edges && edges.length) {
  for (var i=0;i<edges.length;i++) {
    if (edges[i].id.substr(0,4)=='edge') {
      edges[i].setAttribute('class','edge');
    }
  }
}
]]></script>
        <defs>
                <circle id="rim" cx="0" cy="0" r="7"/>
                <circle id="rim2" cx="0" cy="0" r="3.5"/>
                <g id="zoomPlus">
                        <use xlink:href="#rim" fill="#404040">
                                <set attributeName="fill" to="#808080" begin="zoomplus.mouseover" end="zoomplus.mouseout"/>
                        </use>
                        <path d="M-4,0h8M0,-4v8" fill="none" stroke="white" stroke-width="1.5" pointer-events="none"/>
                </g>
                <g id="zoomMin">
                        <use xlink:href="#rim" fill="#404040">
                                <set attributeName="fill" to="#808080" begin="zoomminus.mouseover" end="zoomminus.mouseout"/>
                        </use>
                        <path d="M-4,0h8" fill="none" stroke="white" stroke-width="1.5" pointer-events="none"/>
                </g>
                <g id="dirArrow">
                        <path fill="none" stroke="white" stroke-width="1.5" d="M0,-3.0v7 M-2.5,-0.5L0,-3.0L2.5,-0.5"/>
                </g>
               <g id="resetDef">
                       <use xlink:href="#rim2" fill="#404040">
                               <set attributeName="fill" to="#808080" begin="reset.mouseover" end="reset.mouseout"/>
                       </use>
               </g>
        </defs>

<script type="text/javascript">
var viewWidth = 2472;
var viewHeight = 511;
var sectionId = 'dynsection-0';
</script>
<script xlink:href="svgpan.js"/>
<svg id="graph" class="graph">
<g id="viewport">
<title>include/Z2AudioLib/Z2SoundHandles.h</title>
<!-- Node1 -->
<g id="node1" class="node">
<title>Node1</title>
<g id="a_node1"><a xlink:title=" ">
<polygon fill="#999999" stroke="#666666" points="2099,-503 1997,-503 1997,-473 2099,-473 2099,-503"/>
<text text-anchor="start" x="2005" y="-491" font-family="Helvetica,sans-Serif" font-size="10.00">include/Z2AudioLib</text>
<text text-anchor="middle" x="2048" y="-480" font-family="Helvetica,sans-Serif" font-size="10.00">/Z2SoundHandles.h</text>
</a>
</g>
</g>
<!-- Node2 -->
<g id="node2" class="node">
<title>Node2</title>
<g id="a_node2"><a xlink:href="JAISoundHandles_8h.html" target="_top" xlink:title=" ">
<polygon fill="white" stroke="#666666" points="2166.5,-437 2027.5,-437 2027.5,-407 2166.5,-407 2166.5,-437"/>
<text text-anchor="start" x="2035.5" y="-425" font-family="Helvetica,sans-Serif" font-size="10.00">JSystem/JAudio2/JAISound</text>
<text text-anchor="middle" x="2097" y="-414" font-family="Helvetica,sans-Serif" font-size="10.00">Handles.h</text>
</a>
</g>
</g>
<!-- Node1&#45;&gt;Node2 -->
<g id="edge1" class="edge">
<title>Node1&#45;&gt;Node2</title>
<path fill="none" stroke="#63b8ff" d="M2058.87,-472.8C2064.84,-465.01 2072.38,-455.16 2079.18,-446.28"/>
<polygon fill="#63b8ff" stroke="#63b8ff" points="2081.94,-448.43 2085.24,-438.37 2076.38,-444.18 2081.94,-448.43"/>
</g>
<!-- Node6 -->
<g id="node6" class="node">
<title>Node6</title>
<g id="a_node6"><a xlink:href="types_8h.html" target="_top" xlink:title=" ">
<polygon fill="white" stroke="#666666" points="1067.5,-74 986.5,-74 986.5,-55 1067.5,-55 1067.5,-74"/>
<text text-anchor="middle" x="1027" y="-62" font-family="Helvetica,sans-Serif" font-size="10.00">dolphin/types.h</text>
</a>
</g>
</g>
<!-- Node1&#45;&gt;Node6 -->
<g id="edge71" class="edge">
<title>Node1&#45;&gt;Node6</title>
<path fill="none" stroke="#63b8ff" d="M2099.43,-482.51C2210.73,-471.39 2464,-437.79 2464,-362.5 2464,-362.5 2464,-362.5 2464,-184.5 2464,-135.26 2427.63,-128.5 2382,-110 2320.63,-85.12 1319.87,-69.59 1078.89,-66.2"/>
<polygon fill="#63b8ff" stroke="#63b8ff" points="1079.23,-62.71 1069.18,-66.07 1079.13,-69.71 1079.23,-62.71"/>
</g>
<!-- Node40 -->
<g id="node40" class="node">
<title>Node40</title>
<g id="a_node40"><a xlink:href="JSUList_8h.html" target="_top" xlink:title=" ">
<polygon fill="white" stroke="#666666" points="2070.5,-255.5 1927.5,-255.5 1927.5,-236.5 2070.5,-236.5 2070.5,-255.5"/>
<text text-anchor="middle" x="1999" y="-243.5" font-family="Helvetica,sans-Serif" font-size="10.00">JSystem/JSupport/JSUList.h</text>
</a>
</g>
</g>
<!-- Node1&#45;&gt;Node40 -->
<g id="edge65" class="edge">
<title>Node1&#45;&gt;Node40</title>
<path fill="none" stroke="#63b8ff" d="M2037.65,-472.89C2031.15,-463.28 2023.23,-449.98 2019,-437 1999.58,-377.46 1997.93,-302.39 1998.4,-267.09"/>
<polygon fill="#63b8ff" stroke="#63b8ff" points="2001.89,-267.57 1998.6,-257.5 1994.89,-267.42 2001.89,-267.57"/>
</g>
<!-- Node41 -->
<g id="node41" class="node">
<title>Node41</title>
<g id="a_node41"><a xlink:href="JASHeapCtrl_8h.html" target="_top" xlink:title=" ">
<polygon fill="white" stroke="#666666" points="1870.5,-316 1709.5,-316 1709.5,-297 1870.5,-297 1870.5,-316"/>
<text text-anchor="middle" x="1790" y="-304" font-family="Helvetica,sans-Serif" font-size="10.00">JSystem/JAudio2/JASHeapCtrl.h</text>
</a>
</g>
</g>
<!-- Node1&#45;&gt;Node41 -->
<g id="edge67" class="edge">
<title>Node1&#45;&gt;Node41</title>
<path fill="none" stroke="#63b8ff" d="M1996.72,-473.05C1944.85,-456.53 1865.46,-424.32 1816,-371 1804.71,-358.83 1798.01,-341.1 1794.24,-327.46"/>
<polygon fill="#63b8ff" stroke="#63b8ff" points="1797.67,-326.74 1791.92,-317.84 1790.87,-328.38 1797.67,-326.74"/>
</g>
<!-- Node3 -->
<g id="node3" class="node">
<title>Node3</title>
<g id="a_node3"><a xlink:href="JAISound_8h.html" target="_top" xlink:title=" ">
<polygon fill="white" stroke="#666666" points="2289,-316 2143,-316 2143,-297 2289,-297 2289,-316"/>
<text text-anchor="middle" x="2216" y="-304" font-family="Helvetica,sans-Serif" font-size="10.00">JSystem/JAudio2/JAISound.h</text>
</a>
</g>
</g>
<!-- Node2&#45;&gt;Node3 -->
<g id="edge2" class="edge">
<title>Node2&#45;&gt;Node3</title>
<path fill="none" stroke="#63b8ff" d="M2112.07,-406.63C2134.16,-385.56 2175.21,-346.4 2198.57,-324.13"/>
<polygon fill="#63b8ff" stroke="#63b8ff" points="2200.93,-326.71 2205.75,-317.27 2196.1,-321.64 2200.93,-326.71"/>
</g>
<!-- Node15 -->
<g id="node15" class="node">
<title>Node15</title>
<g id="a_node15"><a xlink:href="JUTAssert_8h.html" target="_top" xlink:title=" ">
<polygon fill="white" stroke="#666666" points="1971,-371 1825,-371 1825,-352 1971,-352 1971,-371"/>
<text text-anchor="middle" x="1898" y="-359" font-family="Helvetica,sans-Serif" font-size="10.00">JSystem/JUtility/JUTAssert.h</text>
</a>
</g>
</g>
<!-- Node2&#45;&gt;Node15 -->
<g id="edge16" class="edge">
<title>Node2&#45;&gt;Node15</title>
<path fill="none" stroke="#63b8ff" d="M2047.81,-406.54C2014.49,-396.75 1970.97,-383.95 1939.42,-374.68"/>
<polygon fill="#63b8ff" stroke="#63b8ff" points="1940.42,-371.32 1929.84,-371.86 1938.44,-378.04 1940.42,-371.32"/>
</g>
<!-- Node4 -->
<g id="node4" class="node">
<title>Node4</title>
<g id="a_node4"><a xlink:href="JAISoundParams_8h.html" target="_top" xlink:title=" ">
<polygon fill="white" stroke="#666666" points="2227.5,-261 2088.5,-261 2088.5,-231 2227.5,-231 2227.5,-261"/>
<text text-anchor="start" x="2096.5" y="-249" font-family="Helvetica,sans-Serif" font-size="10.00">JSystem/JAudio2/JAISound</text>
<text text-anchor="middle" x="2158" y="-238" font-family="Helvetica,sans-Serif" font-size="10.00">Params.h</text>
</a>
</g>
</g>
<!-- Node3&#45;&gt;Node4 -->
<g id="edge3" class="edge">
<title>Node3&#45;&gt;Node4</title>
<path fill="none" stroke="#63b8ff" d="M2207.44,-296.87C2200.23,-289.59 2189.58,-278.85 2180.01,-269.2"/>
<polygon fill="#63b8ff" stroke="#63b8ff" points="2182.59,-266.83 2173.06,-262.19 2177.61,-271.76 2182.59,-266.83"/>
</g>
<!-- Node8 -->
<g id="node8" class="node">
<title>Node8</title>
<g id="a_node8"><a xlink:href="JAIAudible_8h.html" target="_top" xlink:title=" ">
<polygon fill="white" stroke="#666666" points="2435.5,-255.5 2284.5,-255.5 2284.5,-236.5 2435.5,-236.5 2435.5,-255.5"/>
<text text-anchor="middle" x="2360" y="-243.5" font-family="Helvetica,sans-Serif" font-size="10.00">JSystem/JAudio2/JAIAudible.h</text>
</a>
</g>
</g>
<!-- Node3&#45;&gt;Node8 -->
<g id="edge7" class="edge">
<title>Node3&#45;&gt;Node8</title>
<path fill="none" stroke="#63b8ff" d="M2237.87,-296.62C2261.66,-286.95 2299.94,-271.4 2327.3,-260.28"/>
<polygon fill="#63b8ff" stroke="#63b8ff" points="2328.57,-263.54 2336.52,-256.54 2325.94,-257.06 2328.57,-263.54"/>
</g>
<!-- Node14 -->
<g id="node14" class="node">
<title>Node14</title>
<g id="a_node14"><a xlink:href="global_8h.html" target="_top" xlink:title=" ">
<polygon fill="white" stroke="#666666" points="2195,-134.5 2145,-134.5 2145,-115.5 2195,-115.5 2195,-134.5"/>
<text text-anchor="middle" x="2170" y="-122.5" font-family="Helvetica,sans-Serif" font-size="10.00">global.h</text>
</a>
</g>
</g>
<!-- Node3&#45;&gt;Node14 -->
<g id="edge14" class="edge">
<title>Node3&#45;&gt;Node14</title>
<path fill="none" stroke="#63b8ff" d="M2221.58,-296.72C2226.74,-288.03 2234.05,-274.17 2237,-261 2239.92,-247.99 2240.74,-243.8 2237,-231 2227,-196.75 2202.06,-163.03 2185.59,-143.39"/>
<polygon fill="#63b8ff" stroke="#63b8ff" points="2188.46,-141.36 2179.28,-136.08 2183.17,-145.93 2188.46,-141.36"/>
</g>
<!-- Node5 -->
<g id="node5" class="node">
<title>Node5</title>
<g id="a_node5"><a xlink:href="JASSoundParams_8h.html" target="_top" xlink:title=" ">
<polygon fill="white" stroke="#666666" points="2121.5,-140 1978.5,-140 1978.5,-110 2121.5,-110 2121.5,-140"/>
<text text-anchor="start" x="1986.5" y="-128" font-family="Helvetica,sans-Serif" font-size="10.00">JSystem/JAudio2/JASSound</text>
<text text-anchor="middle" x="2050" y="-117" font-family="Helvetica,sans-Serif" font-size="10.00">Params.h</text>
</a>
</g>
</g>
<!-- Node4&#45;&gt;Node5 -->
<g id="edge4" class="edge">
<title>Node4&#45;&gt;Node5</title>
<path fill="none" stroke="#63b8ff" d="M2145.19,-230.88C2126.77,-210.59 2092.63,-172.97 2070.64,-148.74"/>
<polygon fill="#63b8ff" stroke="#63b8ff" points="2073.46,-146.64 2064.15,-141.59 2068.28,-151.35 2073.46,-146.64"/>
</g>
<!-- Node5&#45;&gt;Node6 -->
<g id="edge5" class="edge">
<title>Node5&#45;&gt;Node6</title>
<path fill="none" stroke="#63b8ff" d="M1978.05,-112.84C1969.62,-111.76 1961.13,-110.78 1953,-110 1621.08,-78.14 1219.92,-68.7 1078.98,-66.26"/>
<polygon fill="#63b8ff" stroke="#63b8ff" points="1079.29,-62.77 1069.23,-66.1 1079.17,-69.77 1079.29,-62.77"/>
</g>
<!-- Node7 -->
<g id="node7" class="node">
<title>Node7</title>
<g id="a_node7"><a xlink:href="stddef_8h.html" target="_top" xlink:title=" ">
<polygon fill="white" stroke="#666666" points="1052.5,-19 1001.5,-19 1001.5,0 1052.5,0 1052.5,-19"/>
<text text-anchor="middle" x="1027" y="-7" font-family="Helvetica,sans-Serif" font-size="10.00">stddef.h</text>
</a>
</g>
</g>
<!-- Node6&#45;&gt;Node7 -->
<g id="edge6" class="edge">
<title>Node6&#45;&gt;Node7</title>
<path fill="none" stroke="#63b8ff" d="M1027,-54.75C1027,-48.27 1027,-39.16 1027,-30.9"/>
<polygon fill="#63b8ff" stroke="#63b8ff" points="1030.5,-30.96 1027,-20.96 1023.5,-30.96 1030.5,-30.96"/>
</g>
<!-- Node9 -->
<g id="node9" class="node">
<title>Node9</title>
<g id="a_node9"><a xlink:href="JGeometry_8h.html" target="_top" xlink:title=" ">
<polygon fill="white" stroke="#666666" points="2406.5,-195 2293.5,-195 2293.5,-176 2406.5,-176 2406.5,-195"/>
<text text-anchor="middle" x="2350" y="-183" font-family="Helvetica,sans-Serif" font-size="10.00">JSystem/JGeometry.h</text>
</a>
</g>
</g>
<!-- Node8&#45;&gt;Node9 -->
<g id="edge8" class="edge">
<title>Node8&#45;&gt;Node9</title>
<path fill="none" stroke="#63b8ff" d="M2358.52,-236.37C2357.18,-228.5 2355.14,-216.6 2353.4,-206.39"/>
<polygon fill="#63b8ff" stroke="#63b8ff" points="2356.87,-205.93 2351.74,-196.66 2349.97,-207.11 2356.87,-205.93"/>
</g>
<!-- Node10 -->
<g id="node10" class="node">
<title>Node10</title>
<g id="a_node10"><a xlink:href="vec_8h.html" target="_top" xlink:title=" ">
<polygon fill="white" stroke="#666666" points="2308,-134.5 2216,-134.5 2216,-115.5 2308,-115.5 2308,-134.5"/>
<text text-anchor="middle" x="2262" y="-122.5" font-family="Helvetica,sans-Serif" font-size="10.00">dolphin/mtx/vec.h</text>
</a>
</g>
</g>
<!-- Node9&#45;&gt;Node10 -->
<g id="edge9" class="edge">
<title>Node9&#45;&gt;Node10</title>
<path fill="none" stroke="#63b8ff" d="M2336.63,-175.62C2322.94,-166.51 2301.38,-152.18 2284.94,-141.25"/>
<polygon fill="#63b8ff" stroke="#63b8ff" points="2287.02,-138.43 2276.75,-135.81 2283.14,-144.26 2287.02,-138.43"/>
</g>
<!-- Node11 -->
<g id="node11" class="node">
<title>Node11</title>
<g id="a_node11"><a xlink:href="math_8h.html" target="_top" xlink:title=" ">
<polygon fill="white" stroke="#666666" points="2373,-134.5 2327,-134.5 2327,-115.5 2373,-115.5 2373,-134.5"/>
<text text-anchor="middle" x="2350" y="-122.5" font-family="Helvetica,sans-Serif" font-size="10.00">math.h</text>
</a>
</g>
</g>
<!-- Node9&#45;&gt;Node11 -->
<g id="edge11" class="edge">
<title>Node9&#45;&gt;Node11</title>
<path fill="none" stroke="#63b8ff" d="M2350,-175.87C2350,-168 2350,-156.1 2350,-145.89"/>
<polygon fill="#63b8ff" stroke="#63b8ff" points="2353.5,-146.18 2350,-136.18 2346.5,-146.18 2353.5,-146.18"/>
</g>
<!-- Node10&#45;&gt;Node6 -->
<g id="edge10" class="edge">
<title>Node10&#45;&gt;Node6</title>
<path fill="none" stroke="#63b8ff" d="M2229.7,-115C2221.39,-113.02 2212.41,-111.16 2204,-110 1982.05,-79.33 1277.57,-68.56 1079.35,-66.09"/>
<polygon fill="#63b8ff" stroke="#63b8ff" points="1079.4,-62.59 1069.36,-65.97 1079.31,-69.59 1079.4,-62.59"/>
</g>
<!-- Node12 -->
<g id="node12" class="node">
<title>Node12</title>
<g id="a_node12"><a xlink:href="float_8h.html" target="_top" xlink:title=" ">
<polygon fill="white" stroke="#666666" points="2371,-74 2329,-74 2329,-55 2371,-55 2371,-74"/>
<text text-anchor="middle" x="2350" y="-62" font-family="Helvetica,sans-Serif" font-size="10.00">float.h</text>
</a>
</g>
</g>
<!-- Node11&#45;&gt;Node12 -->
<g id="edge12" class="edge">
<title>Node11&#45;&gt;Node12</title>
<path fill="none" stroke="#63b8ff" d="M2350,-115.37C2350,-107.5 2350,-95.6 2350,-85.39"/>
<polygon fill="#63b8ff" stroke="#63b8ff" points="2353.5,-85.68 2350,-75.68 2346.5,-85.68 2353.5,-85.68"/>
</g>
<!-- Node13 -->
<g id="node13" class="node">
<title>Node13</title>
<g id="a_node13"><a xlink:href="fdlibm_8h.html" target="_top" xlink:title=" ">
<polygon fill="white" stroke="#666666" points="2375,-19 2325,-19 2325,0 2375,0 2375,-19"/>
<text text-anchor="middle" x="2350" y="-7" font-family="Helvetica,sans-Serif" font-size="10.00">fdlibm.h</text>
</a>
</g>
</g>
<!-- Node12&#45;&gt;Node13 -->
<g id="edge13" class="edge">
<title>Node12&#45;&gt;Node13</title>
<path fill="none" stroke="#63b8ff" d="M2350,-54.75C2350,-48.27 2350,-39.16 2350,-30.9"/>
<polygon fill="#63b8ff" stroke="#63b8ff" points="2353.5,-30.96 2350,-20.96 2346.5,-30.96 2353.5,-30.96"/>
</g>
<!-- Node14&#45;&gt;Node6 -->
<g id="edge15" class="edge">
<title>Node14&#45;&gt;Node6</title>
<path fill="none" stroke="#63b8ff" d="M2148.87,-115.1C2143.17,-113.06 2136.93,-111.16 2131,-110 1925.72,-69.99 1269.14,-65.85 1079.03,-65.51"/>
<polygon fill="#63b8ff" stroke="#63b8ff" points="1079.23,-62.01 1069.23,-65.49 1079.22,-69.01 1079.23,-62.01"/>
</g>
<!-- Node15&#45;&gt;Node6 -->
<g id="edge17" class="edge">
<title>Node15&#45;&gt;Node6</title>
<path fill="none" stroke="#63b8ff" d="M1898.13,-351.67C1898.4,-332.58 1899,-286.02 1899,-247 1899,-247 1899,-247 1899,-184.5 1899,-101.29 1267.66,-73.53 1079.38,-67.1"/>
<polygon fill="#63b8ff" stroke="#63b8ff" points="1079.51,-63.6 1069.4,-66.76 1079.28,-70.6 1079.51,-63.6"/>
</g>
<!-- Node16 -->
<g id="node16" class="node">
<title>Node16</title>
<g id="a_node16"><a xlink:href="os_8h.html" target="_top" xlink:title=" ">
<polygon fill="white" stroke="#666666" points="929,-316 861,-316 861,-297 929,-297 929,-316"/>
<text text-anchor="middle" x="895" y="-304" font-family="Helvetica,sans-Serif" font-size="10.00">dolphin/os.h</text>
</a>
</g>
</g>
<!-- Node15&#45;&gt;Node16 -->
<g id="edge18" class="edge">
<title>Node15&#45;&gt;Node16</title>
<path fill="none" stroke="#63b8ff" d="M1824.65,-356.62C1629.04,-346.29 1099.02,-318.28 940.43,-309.9"/>
<polygon fill="#63b8ff" stroke="#63b8ff" points="940.91,-306.42 930.74,-309.39 940.54,-313.41 940.91,-306.42"/>
</g>
<!-- Node17 -->
<g id="node17" class="node">
<title>Node17</title>
<g id="a_node17"><a xlink:href="____va__arg_8h.html" target="_top" xlink:title=" ">
<polygon fill="white" stroke="#666666" points="129,-195 65,-195 65,-176 129,-176 129,-195"/>
<text text-anchor="middle" x="97" y="-183" font-family="Helvetica,sans-Serif" font-size="10.00">__va_arg.h</text>
</a>
</g>
</g>
<!-- Node16&#45;&gt;Node17 -->
<g id="edge19" class="edge">
<title>Node16&#45;&gt;Node17</title>
<path fill="none" stroke="#63b8ff" d="M860.58,-304.34C748.92,-300.36 397.56,-286.12 287,-261 227.04,-247.38 161.06,-217.99 124.77,-200.47"/>
<polygon fill="#63b8ff" stroke="#63b8ff" points="126.39,-197.36 115.86,-196.11 123.31,-203.65 126.39,-197.36"/>
</g>
<!-- Node18 -->
<g id="node18" class="node">
<title>Node18</title>
<g id="a_node18"><a xlink:href="dvd_8h.html" target="_top" xlink:title=" ">
<polygon fill="white" stroke="#666666" points="724,-134.5 650,-134.5 650,-115.5 724,-115.5 724,-134.5"/>
<text text-anchor="middle" x="687" y="-122.5" font-family="Helvetica,sans-Serif" font-size="10.00">dolphin/dvd.h</text>
</a>
</g>
</g>
<!-- Node16&#45;&gt;Node18 -->
<g id="edge21" class="edge">
<title>Node16&#45;&gt;Node18</title>
<path fill="none" stroke="#63b8ff" d="M860.83,-301.18C815.16,-294.71 737.68,-281.09 718,-261 702.18,-244.85 692.88,-179.63 689.05,-146.11"/>
<polygon fill="#63b8ff" stroke="#63b8ff" points="692.57,-146.05 688.01,-136.48 685.61,-146.8 692.57,-146.05"/>
</g>
<!-- Node19 -->
<g id="node19" class="node">
<title>Node19</title>
<g id="a_node19"><a xlink:href="OSAlarm_8h.html" target="_top" xlink:title=" ">
<polygon fill="white" stroke="#666666" points="539.5,-255.5 428.5,-255.5 428.5,-236.5 539.5,-236.5 539.5,-255.5"/>
<text text-anchor="middle" x="484" y="-243.5" font-family="Helvetica,sans-Serif" font-size="10.00">dolphin/os/OSAlarm.h</text>
</a>
</g>
</g>
<!-- Node16&#45;&gt;Node19 -->
<g id="edge23" class="edge">
<title>Node16&#45;&gt;Node19</title>
<path fill="none" stroke="#63b8ff" d="M860.52,-301.78C798.84,-294.96 665.63,-279.42 554,-261 548.7,-260.13 543.19,-259.15 537.69,-258.12"/>
<polygon fill="#63b8ff" stroke="#63b8ff" points="538.45,-254.7 527.97,-256.26 537.14,-261.58 538.45,-254.7"/>
</g>
<!-- Node20 -->
<g id="node20" class="node">
<title>Node20</title>
<g id="a_node20"><a xlink:href="OSError_8h.html" target="_top" xlink:title=" ">
<polygon fill="white" stroke="#666666" points="680,-195 574,-195 574,-176 680,-176 680,-195"/>
<text text-anchor="middle" x="627" y="-183" font-family="Helvetica,sans-Serif" font-size="10.00">dolphin/os/OSError.h</text>
</a>
</g>
</g>
<!-- Node16&#45;&gt;Node20 -->
<g id="edge37" class="edge">
<title>Node16&#45;&gt;Node20</title>
<path fill="none" stroke="#63b8ff" d="M860.54,-302.88C802.98,-297.88 690.58,-285.25 660,-261 643.14,-247.63 634.66,-223.83 630.56,-206.73"/>
<polygon fill="#63b8ff" stroke="#63b8ff" points="633.99,-206.05 628.55,-196.95 627.14,-207.45 633.99,-206.05"/>
</g>
<!-- Node21 -->
<g id="node21" class="node">
<title>Node21</title>
<g id="a_node21"><a xlink:href="OSTime_8h.html" target="_top" xlink:title=" ">
<polygon fill="white" stroke="#666666" points="517.5,-195 410.5,-195 410.5,-176 517.5,-176 517.5,-195"/>
<text text-anchor="middle" x="464" y="-183" font-family="Helvetica,sans-Serif" font-size="10.00">dolphin/os/OSTime.h</text>
</a>
</g>
</g>
<!-- Node16&#45;&gt;Node21 -->
<g id="edge64" class="edge">
<title>Node16&#45;&gt;Node21</title>
<path fill="none" stroke="#63b8ff" d="M860.64,-304.9C756.34,-302.72 448.66,-293.56 419,-261 402.72,-243.13 424.36,-218.5 442.88,-202.54"/>
<polygon fill="#63b8ff" stroke="#63b8ff" points="445.09,-205.25 450.63,-196.22 440.67,-199.83 445.09,-205.25"/>
</g>
<!-- Node22 -->
<g id="node22" class="node">
<title>Node22</title>
<g id="a_node22"><a xlink:href="OSAlloc_8h.html" target="_top" xlink:title=" ">
<polygon fill="white" stroke="#666666" points="849.5,-134.5 742.5,-134.5 742.5,-115.5 849.5,-115.5 849.5,-134.5"/>
<text text-anchor="middle" x="796" y="-122.5" font-family="Helvetica,sans-Serif" font-size="10.00">dolphin/os/OSAlloc.h</text>
</a>
</g>
</g>
<!-- Node16&#45;&gt;Node22 -->
<g id="edge28" class="edge">
<title>Node16&#45;&gt;Node22</title>
<path fill="none" stroke="#63b8ff" d="M860.84,-301.11C817.56,-294.77 746.68,-281.5 731,-261 701.77,-222.78 748.72,-169.31 777.02,-142.58"/>
<polygon fill="#63b8ff" stroke="#63b8ff" points="779.29,-145.24 784.31,-135.92 774.57,-140.08 779.29,-145.24"/>
</g>
<!-- Node23 -->
<g id="node23" class="node">
<title>Node23</title>
<g id="a_node23"><a xlink:href="OSArena_8h.html" target="_top" xlink:title=" ">
<polygon fill="white" stroke="#666666" points="885.5,-195 774.5,-195 774.5,-176 885.5,-176 885.5,-195"/>
<text text-anchor="middle" x="830" y="-183" font-family="Helvetica,sans-Serif" font-size="10.00">dolphin/os/OSArena.h</text>
</a>
</g>
</g>
<!-- Node16&#45;&gt;Node23 -->
<g id="edge30" class="edge">
<title>Node16&#45;&gt;Node23</title>
<path fill="none" stroke="#63b8ff" d="M890.76,-296.67C883.95,-282.61 870.01,-254.34 857,-231 852.16,-222.32 846.49,-212.88 841.61,-204.94"/>
<polygon fill="#63b8ff" stroke="#63b8ff" points="844.63,-203.18 836.37,-196.54 838.69,-206.88 844.63,-203.18"/>
</g>
<!-- Node24 -->
<g id="node24" class="node">
<title>Node24</title>
<g id="a_node24"><a xlink:href="OSAudioSystem_8h.html" target="_top" xlink:title=" ">
<polygon fill="white" stroke="#666666" points="1656.5,-255.5 1513.5,-255.5 1513.5,-236.5 1656.5,-236.5 1656.5,-255.5"/>
<text text-anchor="middle" x="1585" y="-243.5" font-family="Helvetica,sans-Serif" font-size="10.00">dolphin/os/OSAudioSystem.h</text>
</a>
</g>
</g>
<!-- Node16&#45;&gt;Node24 -->
<g id="edge32" class="edge">
<title>Node16&#45;&gt;Node24</title>
<path fill="none" stroke="#63b8ff" d="M929.18,-304.21C1022.02,-300.45 1286.6,-288.01 1505,-261 1512.25,-260.1 1519.84,-259 1527.34,-257.8"/>
<polygon fill="#63b8ff" stroke="#63b8ff" points="1527.8,-261.27 1537.09,-256.18 1526.65,-254.37 1527.8,-261.27"/>
</g>
<!-- Node25 -->
<g id="node25" class="node">
<title>Node25</title>
<g id="a_node25"><a xlink:href="OSCache_8h.html" target="_top" xlink:title=" ">
<polygon fill="white" stroke="#666666" points="1019.5,-134.5 906.5,-134.5 906.5,-115.5 1019.5,-115.5 1019.5,-134.5"/>
<text text-anchor="middle" x="963" y="-122.5" font-family="Helvetica,sans-Serif" font-size="10.00">dolphin/os/OSCache.h</text>
</a>
</g>
</g>
<!-- Node16&#45;&gt;Node25 -->
<g id="edge33" class="edge">
<title>Node16&#45;&gt;Node25</title>
<path fill="none" stroke="#63b8ff" d="M897.49,-296.55C903.51,-275.29 919.71,-220.22 938,-176 942.38,-165.42 948.03,-153.96 952.86,-144.69"/>
<polygon fill="#63b8ff" stroke="#63b8ff" points="955.87,-146.48 957.47,-136.01 949.69,-143.2 955.87,-146.48"/>
</g>
<!-- Node26 -->
<g id="node26" class="node">
<title>Node26</title>
<g id="a_node26"><a xlink:href="OSContext_8h.html" target="_top" xlink:title=" ">
<polygon fill="white" stroke="#666666" points="1320.5,-134.5 1201.5,-134.5 1201.5,-115.5 1320.5,-115.5 1320.5,-134.5"/>
<text text-anchor="middle" x="1261" y="-122.5" font-family="Helvetica,sans-Serif" font-size="10.00">dolphin/os/OSContext.h</text>
</a>
</g>
</g>
<!-- Node16&#45;&gt;Node26 -->
<g id="edge35" class="edge">
<title>Node16&#45;&gt;Node26</title>
<path fill="none" stroke="#63b8ff" d="M929.49,-304.03C998.16,-300.51 1148.99,-289.67 1191,-261 1231.06,-233.66 1249.67,-176.05 1256.99,-145.68"/>
<polygon fill="#63b8ff" stroke="#63b8ff" points="1260.32,-146.83 1259.07,-136.31 1253.48,-145.32 1260.32,-146.83"/>
</g>
<!-- Node27 -->
<g id="node27" class="node">
<title>Node27</title>
<g id="a_node27"><a xlink:href="OSExec_8h.html" target="_top" xlink:title=" ">
<polygon fill="white" stroke="#666666" points="1144.5,-134.5 1037.5,-134.5 1037.5,-115.5 1144.5,-115.5 1144.5,-134.5"/>
<text text-anchor="middle" x="1091" y="-122.5" font-family="Helvetica,sans-Serif" font-size="10.00">dolphin/os/OSExec.h</text>
</a>
</g>
</g>
<!-- Node16&#45;&gt;Node27 -->
<g id="edge38" class="edge">
<title>Node16&#45;&gt;Node27</title>
<path fill="none" stroke="#63b8ff" d="M901.99,-296.55C908.74,-287.73 919.08,-273.78 927,-261 949.53,-224.67 940.46,-204.85 972,-176 991.56,-158.11 1018.44,-146.08 1041.71,-138.31"/>
<polygon fill="#63b8ff" stroke="#63b8ff" points="1042.52,-141.73 1051.01,-135.39 1040.42,-135.05 1042.52,-141.73"/>
</g>
<!-- Node28 -->
<g id="node28" class="node">
<title>Node28</title>
<g id="a_node28"><a xlink:href="OSFont_8h.html" target="_top" xlink:title=" ">
<polygon fill="white" stroke="#666666" points="1085.5,-195 980.5,-195 980.5,-176 1085.5,-176 1085.5,-195"/>
<text text-anchor="middle" x="1033" y="-183" font-family="Helvetica,sans-Serif" font-size="10.00">dolphin/os/OSFont.h</text>
</a>
</g>
</g>
<!-- Node16&#45;&gt;Node28 -->
<g id="edge40" class="edge">
<title>Node16&#45;&gt;Node28</title>
<path fill="none" stroke="#63b8ff" d="M911.96,-296.64C926.93,-288.42 948.96,-275.32 966,-261 986.51,-243.76 1006.59,-220.29 1019.34,-204.34"/>
<polygon fill="#63b8ff" stroke="#63b8ff" points="1021.92,-206.72 1025.33,-196.69 1016.41,-202.4 1021.92,-206.72"/>
</g>
<!-- Node29 -->
<g id="node29" class="node">
<title>Node29</title>
<g id="a_node29"><a xlink:href="OSInterrupt_8h.html" target="_top" xlink:title=" ">
<polygon fill="white" stroke="#666666" points="1746,-195 1624,-195 1624,-176 1746,-176 1746,-195"/>
<text text-anchor="middle" x="1685" y="-183" font-family="Helvetica,sans-Serif" font-size="10.00">dolphin/os/OSInterrupt.h</text>
</a>
</g>
</g>
<!-- Node16&#45;&gt;Node29 -->
<g id="edge42" class="edge">
<title>Node16&#45;&gt;Node29</title>
<path fill="none" stroke="#63b8ff" d="M929.15,-305.86C1070.94,-307.04 1608.58,-308.33 1666,-261 1681.75,-248.01 1685.47,-223.95 1685.9,-206.68"/>
<polygon fill="#63b8ff" stroke="#63b8ff" points="1689.4,-206.8 1685.77,-196.85 1682.4,-206.89 1689.4,-206.8"/>
</g>
<!-- Node30 -->
<g id="node30" class="node">
<title>Node30</title>
<g id="a_node30"><a xlink:href="OSLink_8h.html" target="_top" xlink:title=" ">
<polygon fill="white" stroke="#666666" points="104,-134.5 0,-134.5 0,-115.5 104,-115.5 104,-134.5"/>
<text text-anchor="middle" x="52" y="-122.5" font-family="Helvetica,sans-Serif" font-size="10.00">dolphin/os/OSLink.h</text>
</a>
</g>
</g>
<!-- Node16&#45;&gt;Node30 -->
<g id="edge44" class="edge">
<title>Node16&#45;&gt;Node30</title>
<path fill="none" stroke="#63b8ff" d="M860.86,-305.07C738.37,-303.24 321.47,-294.64 193,-261 127.62,-243.88 93.6,-251.16 56,-195 46.41,-180.67 46.32,-160.67 48.1,-145.9"/>
<polygon fill="#63b8ff" stroke="#63b8ff" points="51.49,-146.87 49.62,-136.44 44.58,-145.76 51.49,-146.87"/>
</g>
<!-- Node31 -->
<g id="node31" class="node">
<title>Node31</title>
<g id="a_node31"><a xlink:href="OSMemory_8h.html" target="_top" xlink:title=" ">
<polygon fill="white" stroke="#666666" points="1833,-255.5 1713,-255.5 1713,-236.5 1833,-236.5 1833,-255.5"/>
<text text-anchor="middle" x="1773" y="-243.5" font-family="Helvetica,sans-Serif" font-size="10.00">dolphin/os/OSMemory.h</text>
</a>
</g>
</g>
<!-- Node16&#45;&gt;Node31 -->
<g id="edge46" class="edge">
<title>Node16&#45;&gt;Node31</title>
<path fill="none" stroke="#63b8ff" d="M929.23,-305.21C1040.57,-303.94 1402.37,-297.11 1699,-261 1705.73,-260.18 1712.78,-259.12 1719.73,-257.95"/>
<polygon fill="#63b8ff" stroke="#63b8ff" points="1720.16,-261.42 1729.4,-256.23 1718.94,-254.53 1720.16,-261.42"/>
</g>
<!-- Node32 -->
<g id="node32" class="node">
<title>Node32</title>
<g id="a_node32"><a xlink:href="OSMessage_8h.html" target="_top" xlink:title=" ">
<polygon fill="white" stroke="#666666" points="1181.5,-255.5 1056.5,-255.5 1056.5,-236.5 1181.5,-236.5 1181.5,-255.5"/>
<text text-anchor="middle" x="1119" y="-243.5" font-family="Helvetica,sans-Serif" font-size="10.00">dolphin/os/OSMessage.h</text>
</a>
</g>
</g>
<!-- Node16&#45;&gt;Node32 -->
<g id="edge48" class="edge">
<title>Node16&#45;&gt;Node32</title>
<path fill="none" stroke="#63b8ff" d="M929.02,-296.62C967.67,-286.52 1030.91,-270.01 1073.71,-258.83"/>
<polygon fill="#63b8ff" stroke="#63b8ff" points="1074.4,-262.26 1083.19,-256.35 1072.63,-255.49 1074.4,-262.26"/>
</g>
<!-- Node33 -->
<g id="node33" class="node">
<title>Node33</title>
<g id="a_node33"><a xlink:href="OSThread_8h.html" target="_top" xlink:title=" ">
<polygon fill="white" stroke="#666666" points="1220,-195 1104,-195 1104,-176 1220,-176 1220,-195"/>
<text text-anchor="middle" x="1162" y="-183" font-family="Helvetica,sans-Serif" font-size="10.00">dolphin/os/OSThread.h</text>
</a>
</g>
</g>
<!-- Node16&#45;&gt;Node33 -->
<g id="edge63" class="edge">
<title>Node16&#45;&gt;Node33</title>
<path fill="none" stroke="#63b8ff" d="M916.1,-296.63C936.31,-287.99 967.55,-274.26 994,-261 1018.54,-248.69 1023.16,-242.68 1048,-231 1073.44,-219.03 1103.05,-207.55 1125.71,-199.24"/>
<polygon fill="#63b8ff" stroke="#63b8ff" points="1126.6,-202.64 1134.81,-195.95 1124.21,-196.06 1126.6,-202.64"/>
</g>
<!-- Node34 -->
<g id="node34" class="node">
<title>Node34</title>
<g id="a_node34"><a xlink:href="OSMutex_8h.html" target="_top" xlink:title=" ">
<polygon fill="white" stroke="#666666" points="1350,-255.5 1238,-255.5 1238,-236.5 1350,-236.5 1350,-255.5"/>
<text text-anchor="middle" x="1294" y="-243.5" font-family="Helvetica,sans-Serif" font-size="10.00">dolphin/os/OSMutex.h</text>
</a>
</g>
</g>
<!-- Node16&#45;&gt;Node34 -->
<g id="edge51" class="edge">
<title>Node16&#45;&gt;Node34</title>
<path fill="none" stroke="#63b8ff" d="M929.21,-301.59C989.12,-294.59 1116.84,-278.94 1224,-261 1229.3,-260.11 1234.81,-259.12 1240.31,-258.1"/>
<polygon fill="#63b8ff" stroke="#63b8ff" points="1240.86,-261.55 1250.02,-256.23 1239.54,-254.68 1240.86,-261.55"/>
</g>
<!-- Node35 -->
<g id="node35" class="node">
<title>Node35</title>
<g id="a_node35"><a xlink:href="OSReboot_8h.html" target="_top" xlink:title=" ">
<polygon fill="white" stroke="#666666" points="263,-195 147,-195 147,-176 263,-176 263,-195"/>
<text text-anchor="middle" x="205" y="-183" font-family="Helvetica,sans-Serif" font-size="10.00">dolphin/os/OSReboot.h</text>
</a>
</g>
</g>
<!-- Node16&#45;&gt;Node35 -->
<g id="edge53" class="edge">
<title>Node16&#45;&gt;Node35</title>
<path fill="none" stroke="#63b8ff" d="M860.56,-304.14C758.95,-299.87 461.7,-285.57 368,-261 316.31,-247.44 260.61,-218.54 229.55,-200.99"/>
<polygon fill="#63b8ff" stroke="#63b8ff" points="231.36,-198 220.95,-196.05 227.88,-204.07 231.36,-198"/>
</g>
<!-- Node36 -->
<g id="node36" class="node">
<title>Node36</title>
<g id="a_node36"><a xlink:href="OSReset_8h.html" target="_top" xlink:title=" ">
<polygon fill="white" stroke="#666666" points="392.5,-195 281.5,-195 281.5,-176 392.5,-176 392.5,-195"/>
<text text-anchor="middle" x="337" y="-183" font-family="Helvetica,sans-Serif" font-size="10.00">dolphin/os/OSReset.h</text>
</a>
</g>
</g>
<!-- Node16&#45;&gt;Node36 -->
<g id="edge55" class="edge">
<title>Node16&#45;&gt;Node36</title>
<path fill="none" stroke="#63b8ff" d="M860.73,-305.39C763.87,-304.61 490,-299.01 410,-261 383.75,-248.53 361.72,-222.41 348.94,-204.66"/>
<polygon fill="#63b8ff" stroke="#63b8ff" points="351.93,-202.84 343.38,-196.59 346.17,-206.81 351.93,-202.84"/>
</g>
<!-- Node37 -->
<g id="node37" class="node">
<title>Node37</title>
<g id="a_node37"><a xlink:href="OSResetSW_8h.html" target="_top" xlink:title=" ">
<polygon fill="white" stroke="#666666" points="1495.5,-255.5 1368.5,-255.5 1368.5,-236.5 1495.5,-236.5 1495.5,-255.5"/>
<text text-anchor="middle" x="1432" y="-243.5" font-family="Helvetica,sans-Serif" font-size="10.00">dolphin/os/OSResetSW.h</text>
</a>
</g>
</g>
<!-- Node16&#45;&gt;Node37 -->
<g id="edge57" class="edge">
<title>Node16&#45;&gt;Node37</title>
<path fill="none" stroke="#63b8ff" d="M929.48,-303.31C1006.67,-298.15 1199.19,-283.94 1359,-261 1365.07,-260.13 1371.4,-259.1 1377.68,-258"/>
<polygon fill="#63b8ff" stroke="#63b8ff" points="1378.18,-261.47 1387.39,-256.24 1376.93,-254.58 1378.18,-261.47"/>
</g>
<!-- Node38 -->
<g id="node38" class="node">
<title>Node38</title>
<g id="a_node38"><a xlink:href="OSRtc_8h.html" target="_top" xlink:title=" ">
<polygon fill="white" stroke="#666666" points="593.5,-134.5 492.5,-134.5 492.5,-115.5 593.5,-115.5 593.5,-134.5"/>
<text text-anchor="middle" x="543" y="-122.5" font-family="Helvetica,sans-Serif" font-size="10.00">dolphin/os/OSRtc.h</text>
</a>
</g>
</g>
<!-- Node16&#45;&gt;Node38 -->
<g id="edge60" class="edge">
<title>Node16&#45;&gt;Node38</title>
<path fill="none" stroke="#63b8ff" d="M860.65,-305.81C808.98,-304.96 709.38,-298.11 635,-261 596.74,-241.91 587.78,-231.19 565,-195 555.47,-179.86 549.74,-160.23 546.52,-145.78"/>
<polygon fill="#63b8ff" stroke="#63b8ff" points="549.99,-145.27 544.61,-136.14 543.13,-146.63 549.99,-145.27"/>
</g>
<!-- Node39 -->
<g id="node39" class="node">
<title>Node39</title>
<g id="a_node39"><a xlink:href="OSSync_8h.html" target="_top" xlink:title=" ">
<polygon fill="white" stroke="#666666" points="847.5,-255.5 740.5,-255.5 740.5,-236.5 847.5,-236.5 847.5,-255.5"/>
<text text-anchor="middle" x="794" y="-243.5" font-family="Helvetica,sans-Serif" font-size="10.00">dolphin/os/OSSync.h</text>
</a>
</g>
</g>
<!-- Node16&#45;&gt;Node39 -->
<g id="edge62" class="edge">
<title>Node16&#45;&gt;Node39</title>
<path fill="none" stroke="#63b8ff" d="M879.66,-296.62C863.64,-287.34 838.26,-272.63 819.27,-261.64"/>
<polygon fill="#63b8ff" stroke="#63b8ff" points="821.2,-258.71 810.79,-256.73 817.69,-264.77 821.2,-258.71"/>
</g>
<!-- Node17&#45;&gt;Node6 -->
<g id="edge20" class="edge">
<title>Node17&#45;&gt;Node6</title>
<path fill="none" stroke="#63b8ff" d="M116.06,-175.51C151.79,-159.13 231.68,-124.77 303,-110 431.62,-83.36 831.35,-70.59 974.96,-66.77"/>
<polygon fill="#63b8ff" stroke="#63b8ff" points="974.63,-70.28 984.54,-66.52 974.45,-63.28 974.63,-70.28"/>
</g>
<!-- Node18&#45;&gt;Node6 -->
<g id="edge22" class="edge">
<title>Node18&#45;&gt;Node6</title>
<path fill="none" stroke="#63b8ff" d="M714.07,-115.05C720.24,-113.21 726.81,-111.4 733,-110 816.78,-91.02 915.87,-77.91 974.96,-71.06"/>
<polygon fill="#63b8ff" stroke="#63b8ff" points="975.19,-74.56 984.73,-69.95 974.39,-67.6 975.19,-74.56"/>
</g>
<!-- Node19&#45;&gt;Node20 -->
<g id="edge24" class="edge">
<title>Node19&#45;&gt;Node20</title>
<path fill="none" stroke="#63b8ff" d="M505.72,-236.12C529.34,-226.45 567.36,-210.9 594.53,-199.78"/>
<polygon fill="#63b8ff" stroke="#63b8ff" points="595.75,-203.07 603.68,-196.04 593.1,-196.59 595.75,-203.07"/>
</g>
<!-- Node19&#45;&gt;Node21 -->
<g id="edge26" class="edge">
<title>Node19&#45;&gt;Node21</title>
<path fill="none" stroke="#63b8ff" d="M481.05,-236.37C478.33,-228.42 474.2,-216.33 470.68,-206.05"/>
<polygon fill="#63b8ff" stroke="#63b8ff" points="474,-204.93 467.45,-196.6 467.38,-207.19 474,-204.93"/>
</g>
<!-- Node20&#45;&gt;Node6 -->
<g id="edge25" class="edge">
<title>Node20&#45;&gt;Node6</title>
<path fill="none" stroke="#63b8ff" d="M625.66,-175.6C623.85,-159.83 622.7,-127.04 641,-110 664.98,-87.67 874.93,-73.6 974.73,-68.12"/>
<polygon fill="#63b8ff" stroke="#63b8ff" points="974.74,-71.62 984.54,-67.59 974.36,-64.63 974.74,-71.62"/>
</g>
<!-- Node21&#45;&gt;Node6 -->
<g id="edge27" class="edge">
<title>Node21&#45;&gt;Node6</title>
<path fill="none" stroke="#63b8ff" d="M463.29,-175.71C462.53,-159.82 463.52,-126.45 483,-110 520.03,-78.72 845.39,-69.02 974.52,-66.38"/>
<polygon fill="#63b8ff" stroke="#63b8ff" points="974.58,-69.88 984.51,-66.18 974.44,-62.88 974.58,-69.88"/>
</g>
<!-- Node22&#45;&gt;Node6 -->
<g id="edge29" class="edge">
<title>Node22&#45;&gt;Node6</title>
<path fill="none" stroke="#63b8ff" d="M831.34,-115.05C871.33,-104.92 936.63,-88.39 980.68,-77.23"/>
<polygon fill="#63b8ff" stroke="#63b8ff" points="981.37,-80.67 990.2,-74.82 979.65,-73.88 981.37,-80.67"/>
</g>
<!-- Node23&#45;&gt;Node6 -->
<g id="edge31" class="edge">
<title>Node23&#45;&gt;Node6</title>
<path fill="none" stroke="#63b8ff" d="M835.69,-175.84C846.21,-160.46 870.2,-128.28 898,-110 921.35,-94.65 950.56,-84 975.28,-76.98"/>
<polygon fill="#63b8ff" stroke="#63b8ff" points="976.09,-80.38 984.82,-74.39 974.26,-73.63 976.09,-80.38"/>
</g>
<!-- Node25&#45;&gt;Node6 -->
<g id="edge34" class="edge">
<title>Node25&#45;&gt;Node6</title>
<path fill="none" stroke="#63b8ff" d="M972.72,-115.12C982.31,-106.35 997.19,-92.75 1008.94,-82"/>
<polygon fill="#63b8ff" stroke="#63b8ff" points="1011.05,-84.82 1016.07,-75.49 1006.33,-79.65 1011.05,-84.82"/>
</g>
<!-- Node26&#45;&gt;Node6 -->
<g id="edge36" class="edge">
<title>Node26&#45;&gt;Node6</title>
<path fill="none" stroke="#63b8ff" d="M1225.21,-115.05C1184.69,-104.92 1118.54,-88.39 1073.92,-77.23"/>
<polygon fill="#63b8ff" stroke="#63b8ff" points="1074.81,-73.84 1064.26,-74.81 1073.11,-80.64 1074.81,-73.84"/>
</g>
<!-- Node27&#45;&gt;Node6 -->
<g id="edge39" class="edge">
<title>Node27&#45;&gt;Node6</title>
<path fill="none" stroke="#63b8ff" d="M1081.28,-115.12C1071.69,-106.35 1056.81,-92.75 1045.06,-82"/>
<polygon fill="#63b8ff" stroke="#63b8ff" points="1047.67,-79.65 1037.93,-75.49 1042.95,-84.82 1047.67,-79.65"/>
</g>
<!-- Node28&#45;&gt;Node6 -->
<g id="edge41" class="edge">
<title>Node28&#45;&gt;Node6</title>
<path fill="none" stroke="#63b8ff" d="M1071.24,-175.51C1102.9,-167.19 1144.2,-154.04 1154,-140 1161.63,-129.07 1161.71,-120.88 1154,-110 1137.03,-86.07 1106.15,-74.91 1079.1,-69.75"/>
<polygon fill="#63b8ff" stroke="#63b8ff" points="1079.72,-66.3 1069.28,-68.13 1078.58,-73.21 1079.72,-66.3"/>
</g>
<!-- Node29&#45;&gt;Node6 -->
<g id="edge43" class="edge">
<title>Node29&#45;&gt;Node6</title>
<path fill="none" stroke="#63b8ff" d="M1656.69,-175.53C1606.5,-159.94 1498.39,-127.83 1405,-110 1289.63,-87.98 1152.25,-75.08 1079.03,-69.26"/>
<polygon fill="#63b8ff" stroke="#63b8ff" points="1079.6,-65.79 1069.36,-68.5 1079.05,-72.77 1079.6,-65.79"/>
</g>
<!-- Node30&#45;&gt;Node6 -->
<g id="edge45" class="edge">
<title>Node30&#45;&gt;Node6</title>
<path fill="none" stroke="#63b8ff" d="M104.15,-119.7C140.53,-116.77 190.21,-112.91 234,-110 513.18,-91.43 848.01,-74.34 974.86,-68.05"/>
<polygon fill="#63b8ff" stroke="#63b8ff" points="974.8,-71.56 984.61,-67.57 974.45,-64.57 974.8,-71.56"/>
</g>
<!-- Node31&#45;&gt;Node29 -->
<g id="edge47" class="edge">
<title>Node31&#45;&gt;Node29</title>
<path fill="none" stroke="#63b8ff" d="M1759.63,-236.12C1745.94,-227.01 1724.38,-212.68 1707.94,-201.75"/>
<polygon fill="#63b8ff" stroke="#63b8ff" points="1710.02,-198.93 1699.75,-196.31 1706.14,-204.76 1710.02,-198.93"/>
</g>
<!-- Node32&#45;&gt;Node33 -->
<g id="edge49" class="edge">
<title>Node32&#45;&gt;Node33</title>
<path fill="none" stroke="#63b8ff" d="M1125.34,-236.37C1131.51,-227.99 1141.04,-215.01 1148.85,-204.39"/>
<polygon fill="#63b8ff" stroke="#63b8ff" points="1151.63,-206.52 1154.73,-196.39 1145.99,-202.37 1151.63,-206.52"/>
</g>
<!-- Node33&#45;&gt;Node26 -->
<g id="edge50" class="edge">
<title>Node33&#45;&gt;Node26</title>
<path fill="none" stroke="#63b8ff" d="M1177.04,-175.62C1192.66,-166.38 1217.39,-151.77 1235.97,-140.79"/>
<polygon fill="#63b8ff" stroke="#63b8ff" points="1237.69,-143.84 1244.52,-135.74 1234.13,-137.81 1237.69,-143.84"/>
</g>
<!-- Node34&#45;&gt;Node33 -->
<g id="edge52" class="edge">
<title>Node34&#45;&gt;Node33</title>
<path fill="none" stroke="#63b8ff" d="M1273.95,-236.12C1252.34,-226.54 1217.68,-211.18 1192.64,-200.08"/>
<polygon fill="#63b8ff" stroke="#63b8ff" points="1194.18,-196.93 1183.62,-196.08 1191.34,-203.33 1194.18,-196.93"/>
</g>
<!-- Node35&#45;&gt;Node6 -->
<g id="edge54" class="edge">
<title>Node35&#45;&gt;Node6</title>
<path fill="none" stroke="#63b8ff" d="M222.8,-175.55C256.18,-159.24 330.87,-124.98 398,-110 507.55,-85.56 845.18,-71.72 975.21,-67.18"/>
<polygon fill="#63b8ff" stroke="#63b8ff" points="975.02,-70.69 984.89,-66.85 974.78,-63.69 975.02,-70.69"/>
</g>
<!-- Node36&#45;&gt;Node6 -->
<g id="edge56" class="edge">
<title>Node36&#45;&gt;Node6</title>
<path fill="none" stroke="#63b8ff" d="M347.96,-175.62C368.86,-159.26 416.48,-124.72 463,-110 557.48,-80.11 853.42,-69.69 974.53,-66.62"/>
<polygon fill="#63b8ff" stroke="#63b8ff" points="974.61,-70.12 984.52,-66.38 974.44,-63.12 974.61,-70.12"/>
</g>
<!-- Node37&#45;&gt;Node6 -->
<g id="edge58" class="edge">
<title>Node37&#45;&gt;Node6</title>
<path fill="none" stroke="#63b8ff" d="M1428.29,-236.18C1417.38,-211.47 1382.82,-141.29 1330,-110 1288.56,-85.45 1153.98,-73.36 1078.88,-68.39"/>
<polygon fill="#63b8ff" stroke="#63b8ff" points="1079.51,-64.92 1069.31,-67.78 1079.07,-71.91 1079.51,-64.92"/>
</g>
<!-- Node37&#45;&gt;Node29 -->
<g id="edge59" class="edge">
<title>Node37&#45;&gt;Node29</title>
<path fill="none" stroke="#63b8ff" d="M1470.7,-236.05C1514.78,-225.86 1586.94,-209.17 1635.19,-198.02"/>
<polygon fill="#63b8ff" stroke="#63b8ff" points="1635.87,-201.45 1644.83,-195.79 1634.3,-194.63 1635.87,-201.45"/>
</g>
<!-- Node38&#45;&gt;Node6 -->
<g id="edge61" class="edge">
<title>Node38&#45;&gt;Node6</title>
<path fill="none" stroke="#63b8ff" d="M581.37,-115.03C590.09,-113.19 599.34,-111.39 608,-110 739.32,-88.95 895.45,-75.35 974.91,-69.24"/>
<polygon fill="#63b8ff" stroke="#63b8ff" points="974.85,-72.76 984.56,-68.51 974.32,-65.78 974.85,-72.76"/>
</g>
<!-- Node40&#45;&gt;Node6 -->
<g id="edge66" class="edge">
<title>Node40&#45;&gt;Node6</title>
<path fill="none" stroke="#63b8ff" d="M1996.55,-236.33C1989,-211.39 1963.44,-139.34 1913,-110 1841.02,-68.13 1258.35,-65.24 1079.2,-65.36"/>
<polygon fill="#63b8ff" stroke="#63b8ff" points="1079.26,-61.86 1069.27,-65.37 1079.27,-68.86 1079.26,-61.86"/>
</g>
<!-- Node41&#45;&gt;Node29 -->
<g id="edge69" class="edge">
<title>Node41&#45;&gt;Node29</title>
<path fill="none" stroke="#63b8ff" d="M1806.53,-296.64C1818.85,-289.02 1834.74,-276.76 1842,-261 1847.58,-248.89 1850.04,-241.64 1842,-231 1830.97,-216.41 1791.11,-205.21 1754.32,-197.7"/>
<polygon fill="#63b8ff" stroke="#63b8ff" points="1755.01,-194.27 1744.53,-195.78 1753.66,-201.14 1755.01,-194.27"/>
</g>
<!-- Node41&#45;&gt;Node34 -->
<g id="edge70" class="edge">
<title>Node41&#45;&gt;Node34</title>
<path fill="none" stroke="#63b8ff" d="M1709.23,-299.71C1622.56,-292.9 1481.03,-280.04 1360,-261 1354.78,-260.18 1349.35,-259.21 1343.94,-258.18"/>
<polygon fill="#63b8ff" stroke="#63b8ff" points="1344.94,-254.81 1334.44,-256.28 1343.56,-261.67 1344.94,-254.81"/>
</g>
<!-- Node41&#45;&gt;Node40 -->
<g id="edge68" class="edge">
<title>Node41&#45;&gt;Node40</title>
<path fill="none" stroke="#63b8ff" d="M1821.74,-296.62C1857.57,-286.59 1916.06,-270.22 1955.97,-259.04"/>
<polygon fill="#63b8ff" stroke="#63b8ff" points="1956.81,-262.44 1965.5,-256.38 1954.93,-255.7 1956.81,-262.44"/>
</g>
</g>
</svg>
        <g id="navigator" transform="translate(0 0)" fill="#404254">
                <rect fill="#f2f5e9" fill-opacity="0.5" stroke="#606060" stroke-width=".5" x="0" y="0" width="60" height="60"/>
                <use id="zoomplus" xlink:href="#zoomPlus" x="17" y="9" onmousedown="handleZoom(evt,'in')"/>
                <use id="zoomminus" xlink:href="#zoomMin" x="42" y="9" onmousedown="handleZoom(evt,'out')"/>
                <use id="reset" xlink:href="#resetDef" x="30" y="36" onmousedown="handleReset()"/>
                <g id="arrowUp" xlink:href="#dirArrow" transform="translate(30 24)" onmousedown="handlePan(0,-1)">
                  <use xlink:href="#rim" fill="#404040">
                        <set attributeName="fill" to="#808080" begin="arrowUp.mouseover" end="arrowUp.mouseout"/>
                  </use>
                  <path fill="none" stroke="white" stroke-width="1.5" d="M0,-3.0v7 M-2.5,-0.5L0,-3.0L2.5,-0.5"/>
                </g>
                <g id="arrowRight" xlink:href="#dirArrow" transform="rotate(90) translate(36 -43)" onmousedown="handlePan(1,0)">
                  <use xlink:href="#rim" fill="#404040">
                        <set attributeName="fill" to="#808080" begin="arrowRight.mouseover" end="arrowRight.mouseout"/>
                  </use>
                  <path fill="none" stroke="white" stroke-width="1.5" d="M0,-3.0v7 M-2.5,-0.5L0,-3.0L2.5,-0.5"/>
                </g>
                <g id="arrowDown" xlink:href="#dirArrow" transform="rotate(180) translate(-30 -48)" onmousedown="handlePan(0,1)">
                  <use xlink:href="#rim" fill="#404040">
                        <set attributeName="fill" to="#808080" begin="arrowDown.mouseover" end="arrowDown.mouseout"/>
                  </use>
                  <path fill="none" stroke="white" stroke-width="1.5" d="M0,-3.0v7 M-2.5,-0.5L0,-3.0L2.5,-0.5"/>
                </g>
                <g id="arrowLeft" xlink:href="#dirArrow" transform="rotate(270) translate(-36 17)" onmousedown="handlePan(-1,0)">
                  <use xlink:href="#rim" fill="#404040">
                        <set attributeName="fill" to="#808080" begin="arrowLeft.mouseover" end="arrowLeft.mouseout"/>
                  </use>
                  <path fill="none" stroke="white" stroke-width="1.5" d="M0,-3.0v7 M-2.5,-0.5L0,-3.0L2.5,-0.5"/>
                </g>
        </g>
        <svg viewBox="0 0 15 15" width="100%" height="30px" preserveAspectRatio="xMaxYMin meet">
         <g id="arrow_out" transform="scale(0.3 0.3)">
          <a xlink:href="Z2SoundHandles_8h__incl_org.svg" target="_base">
           <rect id="button" ry="5" rx="5" y="6" x="6" height="38" width="38"
                fill="#f2f5e9" fill-opacity="0.5" stroke="#606060" stroke-width="1.0"/>
           <path id="arrow"
             d="M 11.500037,31.436501 C 11.940474,20.09759 22.043105,11.32322 32.158766,21.979434 L 37.068811,17.246167 C 37.068811,17.246167 37.088388,32 37.088388,32 L 22.160133,31.978069 C 22.160133,31.978069 26.997745,27.140456 26.997745,27.140456 C 18.528582,18.264221 13.291696,25.230495 11.500037,31.436501 z"
             style="fill:#404040;"/>
          </a>
         </g>
        </svg>
</svg>
