<?xml version="1.0" encoding="UTF-8" standalone="no"?>
<!DOCTYPE svg PUBLIC "-//W3C//DTD SVG 1.1//EN"
 "http://www.w3.org/Graphics/SVG/1.1/DTD/svg11.dtd">
<!-- Generated by graphviz version 2.46.0 (20210122.1329)
 -->
<!-- Title: libs/Z2AudioLib/Z2SoundObjMgr.cpp Pages: 1 -->
<svg width="2052pt" height="620pt"
 viewBox="0.00 0.00 2051.54 620.00" xmlns="http://www.w3.org/2000/svg" xmlns:xlink="http://www.w3.org/1999/xlink">
<g id="graph0" class="graph" transform="scale(1 1) rotate(0) translate(4 616)">
<title>libs/Z2AudioLib/Z2SoundObjMgr.cpp</title>
<polygon fill="white" stroke="transparent" points="-4,4 -4,-616 2047.54,-616 2047.54,4 -4,4"/>
<!-- Node1 -->
<g id="node1" class="node">
<title>Node1</title>
<g id="a_node1"><a xlink:title=" ">
<polygon fill="#bfbfbf" stroke="black" points="1192.04,-581.5 1192.04,-611.5 1333.04,-611.5 1333.04,-581.5 1192.04,-581.5"/>
<text text-anchor="start" x="1200.04" y="-599.5" font-family="Helvetica,sans-Serif" font-size="10.00">libs/Z2AudioLib/Z2SoundObj</text>
<text text-anchor="middle" x="1262.54" y="-588.5" font-family="Helvetica,sans-Serif" font-size="10.00">Mgr.cpp</text>
</a>
</g>
</g>
<!-- Node2 -->
<g id="node2" class="node">
<title>Node2</title>
<g id="a_node2"><a xlink:href="Z2SoundObjMgr_8h.html" target="_top" xlink:title=" ">
<polygon fill="white" stroke="black" points="729.54,-123.5 729.54,-153.5 869.54,-153.5 869.54,-123.5 729.54,-123.5"/>
<text text-anchor="start" x="737.54" y="-141.5" font-family="Helvetica,sans-Serif" font-size="10.00">Z2AudioLib/Z2SoundObjMgr</text>
<text text-anchor="middle" x="799.54" y="-130.5" font-family="Helvetica,sans-Serif" font-size="10.00">/Z2SoundObjMgr.h</text>
</a>
</g>
</g>
<!-- Node1&#45;&gt;Node2 -->
<g id="edge1" class="edge">
<title>Node1&#45;&gt;Node2</title>
<path fill="none" stroke="midnightblue" d="M1191.62,-592.42C1066.78,-586.36 818.11,-571.14 788.54,-545 760.67,-520.36 769.54,-500.69 769.54,-463.5 769.54,-463.5 769.54,-463.5 769.54,-271.5 769.54,-232.87 781.9,-189.44 790.76,-163.29"/>
<polygon fill="midnightblue" stroke="midnightblue" points="794.18,-164.12 794.17,-153.52 787.57,-161.8 794.18,-164.12"/>
</g>
<!-- Node6 -->
<g id="node6" class="node">
<title>Node6</title>
<g id="a_node6"><a xlink:href="Z2SeqMgr_8h.html" target="_top" xlink:title=" ">
<polygon fill="white" stroke="black" points="429.54,-514.5 429.54,-544.5 543.54,-544.5 543.54,-514.5 429.54,-514.5"/>
<text text-anchor="start" x="437.54" y="-532.5" font-family="Helvetica,sans-Serif" font-size="10.00">Z2AudioLib/Z2SeqMgr</text>
<text text-anchor="middle" x="486.54" y="-521.5" font-family="Helvetica,sans-Serif" font-size="10.00">/Z2SeqMgr.h</text>
</a>
</g>
</g>
<!-- Node1&#45;&gt;Node6 -->
<g id="edge6" class="edge">
<title>Node1&#45;&gt;Node6</title>
<path fill="none" stroke="midnightblue" d="M1191.96,-589.59C1043.28,-577.13 699.57,-548.34 553.82,-536.14"/>
<polygon fill="midnightblue" stroke="midnightblue" points="553.93,-532.63 543.67,-535.29 553.35,-539.61 553.93,-532.63"/>
</g>
<!-- Node25 -->
<g id="node25" class="node">
<title>Node25</title>
<g id="a_node25"><a xlink:title=" ">
<polygon fill="white" stroke="#bfbfbf" points="797.54,-514.5 797.54,-544.5 937.54,-544.5 937.54,-514.5 797.54,-514.5"/>
<text text-anchor="start" x="805.54" y="-532.5" font-family="Helvetica,sans-Serif" font-size="10.00">Z2AudioLib/Z2SoundObjMgr</text>
<text text-anchor="middle" x="867.54" y="-521.5" font-family="Helvetica,sans-Serif" font-size="10.00">/asm/func_802BF920.s</text>
</a>
</g>
</g>
<!-- Node1&#45;&gt;Node25 -->
<g id="edge45" class="edge">
<title>Node1&#45;&gt;Node25</title>
<path fill="none" stroke="midnightblue" d="M1191.86,-584.68C1130.09,-575.12 1037.7,-560.55 947.83,-545.2"/>
<polygon fill="midnightblue" stroke="midnightblue" points="948.18,-541.71 937.73,-543.47 947,-548.61 948.18,-541.71"/>
</g>
<!-- Node26 -->
<g id="node26" class="node">
<title>Node26</title>
<g id="a_node26"><a xlink:title=" ">
<polygon fill="white" stroke="#bfbfbf" points="955.54,-514.5 955.54,-544.5 1095.54,-544.5 1095.54,-514.5 955.54,-514.5"/>
<text text-anchor="start" x="963.54" y="-532.5" font-family="Helvetica,sans-Serif" font-size="10.00">Z2AudioLib/Z2SoundObjMgr</text>
<text text-anchor="middle" x="1025.54" y="-521.5" font-family="Helvetica,sans-Serif" font-size="10.00">/asm/func_802BF980.s</text>
</a>
</g>
</g>
<!-- Node1&#45;&gt;Node26 -->
<g id="edge46" class="edge">
<title>Node1&#45;&gt;Node26</title>
<path fill="none" stroke="midnightblue" d="M1211.4,-581.48C1174.93,-571.47 1125.7,-557.97 1087.07,-547.38"/>
<polygon fill="midnightblue" stroke="midnightblue" points="1087.56,-543.88 1076.99,-544.61 1085.71,-550.63 1087.56,-543.88"/>
</g>
<!-- Node27 -->
<g id="node27" class="node">
<title>Node27</title>
<g id="a_node27"><a xlink:title=" ">
<polygon fill="white" stroke="#bfbfbf" points="1113.54,-514.5 1113.54,-544.5 1253.54,-544.5 1253.54,-514.5 1113.54,-514.5"/>
<text text-anchor="start" x="1121.54" y="-532.5" font-family="Helvetica,sans-Serif" font-size="10.00">Z2AudioLib/Z2SoundObjMgr</text>
<text text-anchor="middle" x="1183.54" y="-521.5" font-family="Helvetica,sans-Serif" font-size="10.00">/asm/func_802BF994.s</text>
</a>
</g>
</g>
<!-- Node1&#45;&gt;Node27 -->
<g id="edge47" class="edge">
<title>Node1&#45;&gt;Node27</title>
<path fill="none" stroke="midnightblue" d="M1245.4,-581.4C1234.63,-572.54 1220.56,-560.96 1208.56,-551.09"/>
<polygon fill="midnightblue" stroke="midnightblue" points="1210.59,-548.23 1200.65,-544.58 1206.15,-553.63 1210.59,-548.23"/>
</g>
<!-- Node28 -->
<g id="node28" class="node">
<title>Node28</title>
<g id="a_node28"><a xlink:title=" ">
<polygon fill="white" stroke="#bfbfbf" points="1271.54,-514.5 1271.54,-544.5 1411.54,-544.5 1411.54,-514.5 1271.54,-514.5"/>
<text text-anchor="start" x="1279.54" y="-532.5" font-family="Helvetica,sans-Serif" font-size="10.00">Z2AudioLib/Z2SoundObjMgr</text>
<text text-anchor="middle" x="1341.54" y="-521.5" font-family="Helvetica,sans-Serif" font-size="10.00">/asm/func_802C0074.s</text>
</a>
</g>
</g>
<!-- Node1&#45;&gt;Node28 -->
<g id="edge48" class="edge">
<title>Node1&#45;&gt;Node28</title>
<path fill="none" stroke="midnightblue" d="M1279.68,-581.4C1290.45,-572.54 1304.52,-560.96 1316.52,-551.09"/>
<polygon fill="midnightblue" stroke="midnightblue" points="1318.93,-553.63 1324.43,-544.58 1314.48,-548.23 1318.93,-553.63"/>
</g>
<!-- Node29 -->
<g id="node29" class="node">
<title>Node29</title>
<g id="a_node29"><a xlink:title=" ">
<polygon fill="white" stroke="#bfbfbf" points="1429.54,-514.5 1429.54,-544.5 1569.54,-544.5 1569.54,-514.5 1429.54,-514.5"/>
<text text-anchor="start" x="1437.54" y="-532.5" font-family="Helvetica,sans-Serif" font-size="10.00">Z2AudioLib/Z2SoundObjMgr</text>
<text text-anchor="middle" x="1499.54" y="-521.5" font-family="Helvetica,sans-Serif" font-size="10.00">/asm/func_802C0100.s</text>
</a>
</g>
</g>
<!-- Node1&#45;&gt;Node29 -->
<g id="edge49" class="edge">
<title>Node1&#45;&gt;Node29</title>
<path fill="none" stroke="midnightblue" d="M1313.67,-581.48C1350.15,-571.47 1399.37,-557.97 1438,-547.38"/>
<polygon fill="midnightblue" stroke="midnightblue" points="1439.37,-550.63 1448.09,-544.61 1437.52,-543.88 1439.37,-550.63"/>
</g>
<!-- Node30 -->
<g id="node30" class="node">
<title>Node30</title>
<g id="a_node30"><a xlink:title=" ">
<polygon fill="white" stroke="#bfbfbf" points="1587.54,-514.5 1587.54,-544.5 1727.54,-544.5 1727.54,-514.5 1587.54,-514.5"/>
<text text-anchor="start" x="1595.54" y="-532.5" font-family="Helvetica,sans-Serif" font-size="10.00">Z2AudioLib/Z2SoundObjMgr</text>
<text text-anchor="middle" x="1657.54" y="-521.5" font-family="Helvetica,sans-Serif" font-size="10.00">/asm/func_802C0120.s</text>
</a>
</g>
</g>
<!-- Node1&#45;&gt;Node30 -->
<g id="edge50" class="edge">
<title>Node1&#45;&gt;Node30</title>
<path fill="none" stroke="midnightblue" d="M1333.21,-584.68C1394.99,-575.12 1487.38,-560.55 1577.25,-545.2"/>
<polygon fill="midnightblue" stroke="midnightblue" points="1578.08,-548.61 1587.34,-543.47 1576.89,-541.71 1578.08,-548.61"/>
</g>
<!-- Node31 -->
<g id="node31" class="node">
<title>Node31</title>
<g id="a_node31"><a xlink:title=" ">
<polygon fill="white" stroke="#bfbfbf" points="1745.54,-514.5 1745.54,-544.5 1885.54,-544.5 1885.54,-514.5 1745.54,-514.5"/>
<text text-anchor="start" x="1753.54" y="-532.5" font-family="Helvetica,sans-Serif" font-size="10.00">Z2AudioLib/Z2SoundObjMgr</text>
<text text-anchor="middle" x="1815.54" y="-521.5" font-family="Helvetica,sans-Serif" font-size="10.00">/asm/func_802C0190.s</text>
</a>
</g>
</g>
<!-- Node1&#45;&gt;Node31 -->
<g id="edge51" class="edge">
<title>Node1&#45;&gt;Node31</title>
<path fill="none" stroke="midnightblue" d="M1333.42,-589.63C1424.18,-581.73 1586.53,-566.35 1735.15,-545.13"/>
<polygon fill="midnightblue" stroke="midnightblue" points="1735.97,-548.55 1745.37,-543.66 1734.98,-541.62 1735.97,-548.55"/>
</g>
<!-- Node32 -->
<g id="node32" class="node">
<title>Node32</title>
<g id="a_node32"><a xlink:title=" ">
<polygon fill="white" stroke="#bfbfbf" points="1903.54,-514.5 1903.54,-544.5 2043.54,-544.5 2043.54,-514.5 1903.54,-514.5"/>
<text text-anchor="start" x="1911.54" y="-532.5" font-family="Helvetica,sans-Serif" font-size="10.00">Z2AudioLib/Z2SoundObjMgr</text>
<text text-anchor="middle" x="1973.54" y="-521.5" font-family="Helvetica,sans-Serif" font-size="10.00">/asm/func_802C01EC.s</text>
</a>
</g>
</g>
<!-- Node1&#45;&gt;Node32 -->
<g id="edge52" class="edge">
<title>Node1&#45;&gt;Node32</title>
<path fill="none" stroke="midnightblue" d="M1333.4,-592.2C1448.72,-586.3 1684.31,-572.09 1893.45,-545.06"/>
<polygon fill="midnightblue" stroke="midnightblue" points="1893.92,-548.52 1903.39,-543.76 1893.02,-541.58 1893.92,-548.52"/>
</g>
<!-- Node3 -->
<g id="node3" class="node">
<title>Node3</title>
<g id="a_node3"><a xlink:href="JSUList_8h.html" target="_top" xlink:title=" ">
<polygon fill="white" stroke="black" points="425.54,-56.5 425.54,-86.5 561.54,-86.5 561.54,-56.5 425.54,-56.5"/>
<text text-anchor="start" x="433.54" y="-74.5" font-family="Helvetica,sans-Serif" font-size="10.00">JSystem/JSupport/JSUList</text>
<text text-anchor="middle" x="493.54" y="-63.5" font-family="Helvetica,sans-Serif" font-size="10.00">/JSUList.h</text>
</a>
</g>
</g>
<!-- Node2&#45;&gt;Node3 -->
<g id="edge2" class="edge">
<title>Node2&#45;&gt;Node3</title>
<path fill="none" stroke="midnightblue" d="M733.52,-123.48C685.34,-113.24 619.93,-99.35 569.57,-88.65"/>
<polygon fill="midnightblue" stroke="midnightblue" points="570.21,-85.21 559.7,-86.55 568.76,-92.06 570.21,-85.21"/>
</g>
<!-- Node4 -->
<g id="node4" class="node">
<title>Node4</title>
<g id="a_node4"><a xlink:href="types_8h.html" target="_top" xlink:title=" ">
<polygon fill="white" stroke="black" points="309.04,-0.5 309.04,-19.5 390.04,-19.5 390.04,-0.5 309.04,-0.5"/>
<text text-anchor="middle" x="349.54" y="-7.5" font-family="Helvetica,sans-Serif" font-size="10.00">dolphin/types.h</text>
</a>
</g>
</g>
<!-- Node2&#45;&gt;Node4 -->
<g id="edge5" class="edge">
<title>Node2&#45;&gt;Node4</title>
<path fill="none" stroke="midnightblue" d="M820.92,-123.38C844.08,-106.41 875.24,-77.53 855.54,-56 825.2,-22.85 522.45,-13.96 400.27,-11.71"/>
<polygon fill="midnightblue" stroke="midnightblue" points="400.12,-8.21 390.06,-11.53 400,-15.21 400.12,-8.21"/>
</g>
<!-- Node5 -->
<g id="node5" class="node">
<title>Node5</title>
<g id="a_node5"><a xlink:href="Z2Creature_8h.html" target="_top" xlink:title=" ">
<polygon fill="white" stroke="black" points="730.04,-56.5 730.04,-86.5 847.04,-86.5 847.04,-56.5 730.04,-56.5"/>
<text text-anchor="start" x="738.04" y="-74.5" font-family="Helvetica,sans-Serif" font-size="10.00">Z2AudioLib/Z2Creature</text>
<text text-anchor="middle" x="788.54" y="-63.5" font-family="Helvetica,sans-Serif" font-size="10.00">/Z2Creature.h</text>
</a>
</g>
</g>
<!-- Node2&#45;&gt;Node5 -->
<g id="edge4" class="edge">
<title>Node2&#45;&gt;Node5</title>
<path fill="none" stroke="midnightblue" d="M797.15,-123.4C795.83,-115.56 794.14,-105.6 792.61,-96.57"/>
<polygon fill="midnightblue" stroke="midnightblue" points="796.04,-95.85 790.92,-86.58 789.14,-97.02 796.04,-95.85"/>
</g>
<!-- Node3&#45;&gt;Node4 -->
<g id="edge3" class="edge">
<title>Node3&#45;&gt;Node4</title>
<path fill="none" stroke="midnightblue" d="M459.41,-56.4C435.25,-46.42 403.14,-33.15 379.87,-23.53"/>
<polygon fill="midnightblue" stroke="midnightblue" points="381.07,-20.24 370.49,-19.66 378.4,-26.71 381.07,-20.24"/>
</g>
<!-- Node7 -->
<g id="node7" class="node">
<title>Node7</title>
<g id="a_node7"><a xlink:href="JAISe_8h.html" target="_top" xlink:title=" ">
<polygon fill="white" stroke="black" points="425.04,-447.5 425.04,-477.5 548.04,-477.5 548.04,-447.5 425.04,-447.5"/>
<text text-anchor="start" x="433.04" y="-465.5" font-family="Helvetica,sans-Serif" font-size="10.00">JSystem/JAudio2/JAISe</text>
<text text-anchor="middle" x="486.54" y="-454.5" font-family="Helvetica,sans-Serif" font-size="10.00">/JAISe.h</text>
</a>
</g>
</g>
<!-- Node6&#45;&gt;Node7 -->
<g id="edge7" class="edge">
<title>Node6&#45;&gt;Node7</title>
<path fill="none" stroke="midnightblue" d="M486.54,-514.4C486.54,-506.64 486.54,-496.81 486.54,-487.86"/>
<polygon fill="midnightblue" stroke="midnightblue" points="490.04,-487.58 486.54,-477.58 483.04,-487.58 490.04,-487.58"/>
</g>
<!-- Node8 -->
<g id="node8" class="node">
<title>Node8</title>
<g id="a_node8"><a xlink:href="global_8h.html" target="_top" xlink:title=" ">
<polygon fill="white" stroke="black" points="273.54,-386 273.54,-405 323.54,-405 323.54,-386 273.54,-386"/>
<text text-anchor="middle" x="298.54" y="-393" font-family="Helvetica,sans-Serif" font-size="10.00">global.h</text>
</a>
</g>
</g>
<!-- Node6&#45;&gt;Node8 -->
<g id="edge44" class="edge">
<title>Node6&#45;&gt;Node8</title>
<path fill="none" stroke="midnightblue" d="M466.13,-514.42C451.83,-504.44 432.34,-490.64 415.54,-478 397.84,-464.69 394.52,-459.92 376.54,-447 358.36,-433.94 336.97,-420.2 321.19,-410.35"/>
<polygon fill="midnightblue" stroke="midnightblue" points="322.96,-407.33 312.62,-405.04 319.28,-413.28 322.96,-407.33"/>
</g>
<!-- Node23 -->
<g id="node23" class="node">
<title>Node23</title>
<g id="a_node23"><a xlink:href="JAISound_8h.html" target="_top" xlink:title=" ">
<polygon fill="white" stroke="black" points="229.04,-447.5 229.04,-477.5 368.04,-477.5 368.04,-447.5 229.04,-447.5"/>
<text text-anchor="start" x="237.04" y="-465.5" font-family="Helvetica,sans-Serif" font-size="10.00">JSystem/JAudio2/JAISound</text>
<text text-anchor="middle" x="298.54" y="-454.5" font-family="Helvetica,sans-Serif" font-size="10.00">/JAISound.h</text>
</a>
</g>
</g>
<!-- Node6&#45;&gt;Node23 -->
<g id="edge40" class="edge">
<title>Node6&#45;&gt;Node23</title>
<path fill="none" stroke="midnightblue" d="M445.75,-514.4C417.29,-504.56 379.14,-491.37 348.8,-480.88"/>
<polygon fill="midnightblue" stroke="midnightblue" points="349.85,-477.54 339.25,-477.58 347.56,-484.15 349.85,-477.54"/>
</g>
<!-- Node24 -->
<g id="node24" class="node">
<title>Node24</title>
<g id="a_node24"><a xlink:href="Z2Param_8h.html" target="_top" xlink:title=" ">
<polygon fill="white" stroke="black" points="592.04,-380.5 592.04,-410.5 701.04,-410.5 701.04,-380.5 592.04,-380.5"/>
<text text-anchor="start" x="600.04" y="-398.5" font-family="Helvetica,sans-Serif" font-size="10.00">Z2AudioLib/Z2Param</text>
<text text-anchor="middle" x="646.54" y="-387.5" font-family="Helvetica,sans-Serif" font-size="10.00">/Z2Param.h</text>
</a>
</g>
</g>
<!-- Node6&#45;&gt;Node24 -->
<g id="edge42" class="edge">
<title>Node6&#45;&gt;Node24</title>
<path fill="none" stroke="midnightblue" d="M507.2,-514.5C521.38,-504.67 540.46,-491.01 556.54,-478 580.55,-458.56 606.57,-434.67 624.42,-417.79"/>
<polygon fill="midnightblue" stroke="midnightblue" points="627.18,-420 632.01,-410.58 622.36,-414.93 627.18,-420"/>
</g>
<!-- Node7&#45;&gt;Node8 -->
<g id="edge8" class="edge">
<title>Node7&#45;&gt;Node8</title>
<path fill="none" stroke="midnightblue" d="M445.75,-447.4C412.03,-435.74 364.69,-419.37 332.89,-408.38"/>
<polygon fill="midnightblue" stroke="midnightblue" points="333.74,-404.97 323.14,-405.01 331.45,-411.58 333.74,-404.97"/>
</g>
<!-- Node8&#45;&gt;Node4 -->
<g id="edge9" class="edge">
<title>Node8&#45;&gt;Node4</title>
<path fill="none" stroke="midnightblue" d="M273.43,-395.04C226.47,-394.88 123.77,-388.95 53.54,-344 20.74,-323.01 1.54,-312.43 1.54,-273.5 1.54,-273.5 1.54,-273.5 1.54,-137.5 1.54,-99.98 -4.62,-80.8 23.54,-56 63.42,-20.87 217.51,-13.03 298.74,-11.37"/>
<polygon fill="midnightblue" stroke="midnightblue" points="298.82,-14.87 308.75,-11.19 298.69,-7.87 298.82,-14.87"/>
</g>
<!-- Node9 -->
<g id="node9" class="node">
<title>Node9</title>
<g id="a_node9"><a xlink:href="AR_8h.html" target="_top" xlink:title=" ">
<polygon fill="white" stroke="black" points="33.04,-62 33.04,-81 82.04,-81 82.04,-62 33.04,-62"/>
<text text-anchor="middle" x="57.54" y="-69" font-family="Helvetica,sans-Serif" font-size="10.00">ar/AR.h</text>
</a>
</g>
</g>
<!-- Node8&#45;&gt;Node9 -->
<g id="edge10" class="edge">
<title>Node8&#45;&gt;Node9</title>
<path fill="none" stroke="midnightblue" d="M273.23,-394.17C208.06,-391.86 39.54,-375.99 39.54,-273.5 39.54,-273.5 39.54,-273.5 39.54,-204.5 39.54,-163.78 48.05,-116.65 53.37,-91.17"/>
<polygon fill="midnightblue" stroke="midnightblue" points="56.85,-91.61 55.54,-81.09 50.01,-90.13 56.85,-91.61"/>
</g>
<!-- Node10 -->
<g id="node10" class="node">
<title>Node10</title>
<g id="a_node10"><a xlink:href="ARQ_8h.html" target="_top" xlink:title=" ">
<polygon fill="white" stroke="black" points="68.54,-129 68.54,-148 124.54,-148 124.54,-129 68.54,-129"/>
<text text-anchor="middle" x="96.54" y="-136" font-family="Helvetica,sans-Serif" font-size="10.00">ar/ARQ.h</text>
</a>
</g>
</g>
<!-- Node8&#45;&gt;Node10 -->
<g id="edge12" class="edge">
<title>Node8&#45;&gt;Node10</title>
<path fill="none" stroke="midnightblue" d="M273.29,-389.81C244.21,-383.42 196.14,-369.71 162.54,-344 113.26,-306.3 107.96,-281.98 96.54,-221 92.56,-199.76 93.33,-174.85 94.6,-158.21"/>
<polygon fill="midnightblue" stroke="midnightblue" points="98.09,-158.44 95.5,-148.16 91.12,-157.81 98.09,-158.44"/>
</g>
<!-- Node11 -->
<g id="node11" class="node">
<title>Node11</title>
<g id="a_node11"><a xlink:href="functions_8h.html" target="_top" xlink:title=" ">
<polygon fill="white" stroke="black" points="186.54,-324.5 186.54,-343.5 250.54,-343.5 250.54,-324.5 186.54,-324.5"/>
<text text-anchor="middle" x="218.54" y="-331.5" font-family="Helvetica,sans-Serif" font-size="10.00">functions.h</text>
</a>
</g>
</g>
<!-- Node8&#45;&gt;Node11 -->
<g id="edge14" class="edge">
<title>Node8&#45;&gt;Node11</title>
<path fill="none" stroke="midnightblue" d="M287.08,-385.98C274.36,-376.52 253.63,-361.1 238.29,-349.69"/>
<polygon fill="midnightblue" stroke="midnightblue" points="240.09,-346.67 229.98,-343.51 235.91,-352.29 240.09,-346.67"/>
</g>
<!-- Node13 -->
<g id="node13" class="node">
<title>Node13</title>
<g id="a_node13"><a xlink:href="mwcc_8h.html" target="_top" xlink:title=" ">
<polygon fill="white" stroke="black" points="239.54,-263 239.54,-282 289.54,-282 289.54,-263 239.54,-263"/>
<text text-anchor="middle" x="264.54" y="-270" font-family="Helvetica,sans-Serif" font-size="10.00">mwcc.h</text>
</a>
</g>
</g>
<!-- Node8&#45;&gt;Node13 -->
<g id="edge22" class="edge">
<title>Node8&#45;&gt;Node13</title>
<path fill="none" stroke="midnightblue" d="M296.09,-385.8C290.6,-366.26 277.2,-318.56 269.75,-292.05"/>
<polygon fill="midnightblue" stroke="midnightblue" points="273.04,-290.8 266.96,-282.12 266.3,-292.7 273.04,-290.8"/>
</g>
<!-- Node14 -->
<g id="node14" class="node">
<title>Node14</title>
<g id="a_node14"><a xlink:href="OS_8h.html" target="_top" xlink:title=" ">
<polygon fill="white" stroke="black" points="131.54,-263 131.54,-282 183.54,-282 183.54,-263 131.54,-263"/>
<text text-anchor="middle" x="157.54" y="-270" font-family="Helvetica,sans-Serif" font-size="10.00">os/OS.h</text>
</a>
</g>
</g>
<!-- Node8&#45;&gt;Node14 -->
<g id="edge23" class="edge">
<title>Node8&#45;&gt;Node14</title>
<path fill="none" stroke="midnightblue" d="M273.49,-390.64C246.05,-385.1 202.62,-372.26 177.54,-344 164.9,-329.76 160.2,-308.07 158.48,-292.51"/>
<polygon fill="midnightblue" stroke="midnightblue" points="161.96,-292.15 157.68,-282.46 154.99,-292.71 161.96,-292.15"/>
</g>
<!-- Node16 -->
<g id="node16" class="node">
<title>Node16</title>
<g id="a_node16"><a xlink:href="variables_8h.html" target="_top" xlink:title=" ">
<polygon fill="white" stroke="black" points="510.04,-324.5 510.04,-343.5 573.04,-343.5 573.04,-324.5 510.04,-324.5"/>
<text text-anchor="middle" x="541.54" y="-331.5" font-family="Helvetica,sans-Serif" font-size="10.00">variables.h</text>
</a>
</g>
</g>
<!-- Node8&#45;&gt;Node16 -->
<g id="edge24" class="edge">
<title>Node8&#45;&gt;Node16</title>
<path fill="none" stroke="midnightblue" d="M323.63,-388.36C365.26,-378.16 449.05,-357.65 499.73,-345.24"/>
<polygon fill="midnightblue" stroke="midnightblue" points="500.83,-348.57 509.71,-342.79 499.17,-341.77 500.83,-348.57"/>
</g>
<!-- Node9&#45;&gt;Node4 -->
<g id="edge11" class="edge">
<title>Node9&#45;&gt;Node4</title>
<path fill="none" stroke="midnightblue" d="M81.01,-61.89C87.3,-59.78 94.13,-57.65 100.54,-56 168.2,-38.58 247.89,-25.44 298.56,-17.98"/>
<polygon fill="midnightblue" stroke="midnightblue" points="299.21,-21.42 308.6,-16.52 298.2,-14.49 299.21,-21.42"/>
</g>
<!-- Node10&#45;&gt;Node4 -->
<g id="edge13" class="edge">
<title>Node10&#45;&gt;Node4</title>
<path fill="none" stroke="midnightblue" d="M98.64,-128.77C103.19,-111.87 115.59,-74.73 140.54,-56 165.08,-37.58 245.1,-24.18 298.7,-17"/>
<polygon fill="midnightblue" stroke="midnightblue" points="299.26,-20.46 308.72,-15.69 298.35,-13.52 299.26,-20.46"/>
</g>
<!-- Node12 -->
<g id="node12" class="node">
<title>Node12</title>
<g id="a_node12"><a xlink:href="mtx__vec_8h.html" target="_top" xlink:title=" ">
<polygon fill="white" stroke="black" points="241.04,-129 241.04,-148 302.04,-148 302.04,-129 241.04,-129"/>
<text text-anchor="middle" x="271.54" y="-136" font-family="Helvetica,sans-Serif" font-size="10.00">mtx_vec.h</text>
</a>
</g>
</g>
<!-- Node11&#45;&gt;Node12 -->
<g id="edge15" class="edge">
<title>Node11&#45;&gt;Node12</title>
<path fill="none" stroke="midnightblue" d="M219.5,-324.5C221.19,-310.37 225.04,-281.23 230.54,-257 237.42,-226.7 240.11,-219.28 250.54,-190 254.42,-179.1 259.37,-167.12 263.49,-157.58"/>
<polygon fill="midnightblue" stroke="midnightblue" points="266.73,-158.89 267.54,-148.33 260.32,-156.08 266.73,-158.89"/>
</g>
<!-- Node11&#45;&gt;Node13 -->
<g id="edge17" class="edge">
<title>Node11&#45;&gt;Node13</title>
<path fill="none" stroke="midnightblue" d="M225.13,-324.48C232.03,-315.55 243.04,-301.31 251.67,-290.14"/>
<polygon fill="midnightblue" stroke="midnightblue" points="254.61,-292.06 257.96,-282.01 249.07,-287.78 254.61,-292.06"/>
</g>
<!-- Node11&#45;&gt;Node14 -->
<g id="edge18" class="edge">
<title>Node11&#45;&gt;Node14</title>
<path fill="none" stroke="midnightblue" d="M209.8,-324.48C200.38,-315.28 185.17,-300.46 173.59,-289.16"/>
<polygon fill="midnightblue" stroke="midnightblue" points="175.86,-286.49 166.26,-282.01 170.98,-291.5 175.86,-286.49"/>
</g>
<!-- Node12&#45;&gt;Node4 -->
<g id="edge16" class="edge">
<title>Node12&#45;&gt;Node4</title>
<path fill="none" stroke="midnightblue" d="M276.9,-128.81C289.65,-108.13 321.96,-55.73 338.86,-28.32"/>
<polygon fill="midnightblue" stroke="midnightblue" points="341.87,-30.1 344.14,-19.76 335.91,-26.43 341.87,-30.1"/>
</g>
<!-- Node14&#45;&gt;Node4 -->
<g id="edge19" class="edge">
<title>Node14&#45;&gt;Node4</title>
<path fill="none" stroke="midnightblue" d="M160.64,-262.9C169.43,-239.17 196.18,-171.37 231.54,-123 256.76,-88.49 269.46,-85.35 300.54,-56 311.06,-46.06 323.02,-35.07 332.49,-26.44"/>
<polygon fill="midnightblue" stroke="midnightblue" points="335.03,-28.87 340.07,-19.55 330.32,-23.69 335.03,-28.87"/>
</g>
<!-- Node15 -->
<g id="node15" class="node">
<title>Node15</title>
<g id="a_node15"><a xlink:href="dvd_8h.html" target="_top" xlink:title=" ">
<polygon fill="white" stroke="black" points="106.04,-196 106.04,-215 165.04,-215 165.04,-196 106.04,-196"/>
<text text-anchor="middle" x="135.54" y="-203" font-family="Helvetica,sans-Serif" font-size="10.00">dvd/dvd.h</text>
</a>
</g>
</g>
<!-- Node14&#45;&gt;Node15 -->
<g id="edge20" class="edge">
<title>Node14&#45;&gt;Node15</title>
<path fill="none" stroke="midnightblue" d="M154.57,-262.73C151.31,-253.09 145.96,-237.3 141.77,-224.91"/>
<polygon fill="midnightblue" stroke="midnightblue" points="144.98,-223.48 138.46,-215.13 138.35,-225.72 144.98,-223.48"/>
</g>
<!-- Node15&#45;&gt;Node4 -->
<g id="edge21" class="edge">
<title>Node15&#45;&gt;Node4</title>
<path fill="none" stroke="midnightblue" d="M135.37,-195.65C135.37,-170.07 139.03,-95.34 179.54,-56 211.07,-25.38 260.9,-14.97 298.48,-11.72"/>
<polygon fill="midnightblue" stroke="midnightblue" points="299,-15.19 308.72,-10.98 298.5,-8.21 299,-15.19"/>
</g>
<!-- Node16&#45;&gt;Node3 -->
<g id="edge25" class="edge">
<title>Node16&#45;&gt;Node3</title>
<path fill="none" stroke="midnightblue" d="M540.79,-324.38C540.05,-315.33 538.96,-300.68 538.54,-288 538.54,-288 538.54,-190 538.54,-190 538.32,-160.22 548.19,-150.81 537.54,-123 533.44,-112.3 525.98,-102.36 518.35,-94.17"/>
<polygon fill="midnightblue" stroke="midnightblue" points="520.63,-91.51 511.09,-86.9 515.68,-96.45 520.63,-91.51"/>
</g>
<!-- Node17 -->
<g id="node17" class="node">
<title>Node17</title>
<g id="a_node17"><a xlink:href="JUTXfb_8h.html" target="_top" xlink:title=" ">
<polygon fill="white" stroke="black" points="548.04,-257.5 548.04,-287.5 673.04,-287.5 673.04,-257.5 548.04,-257.5"/>
<text text-anchor="start" x="556.04" y="-275.5" font-family="Helvetica,sans-Serif" font-size="10.00">JSystem/JUtility/JUTXfb</text>
<text text-anchor="middle" x="610.54" y="-264.5" font-family="Helvetica,sans-Serif" font-size="10.00">/JUTXfb.h</text>
</a>
</g>
</g>
<!-- Node16&#45;&gt;Node17 -->
<g id="edge26" class="edge">
<title>Node16&#45;&gt;Node17</title>
<path fill="none" stroke="midnightblue" d="M551.42,-324.48C560.59,-316.57 574.61,-304.48 586.69,-294.07"/>
<polygon fill="midnightblue" stroke="midnightblue" points="588.99,-296.7 594.28,-287.52 584.42,-291.4 588.99,-296.7"/>
</g>
<!-- Node21 -->
<g id="node21" class="node">
<title>Node21</title>
<g id="a_node21"><a xlink:href="c__xyz_8h.html" target="_top" xlink:title=" ">
<polygon fill="white" stroke="black" points="346.04,-263 346.04,-282 453.04,-282 453.04,-263 346.04,-263"/>
<text text-anchor="middle" x="399.54" y="-270" font-family="Helvetica,sans-Serif" font-size="10.00">SComponent/c_xyz.h</text>
</a>
</g>
</g>
<!-- Node16&#45;&gt;Node21 -->
<g id="edge36" class="edge">
<title>Node16&#45;&gt;Node21</title>
<path fill="none" stroke="midnightblue" d="M521.19,-324.48C497.15,-314.4 456.94,-297.55 429.38,-286"/>
<polygon fill="midnightblue" stroke="midnightblue" points="430.42,-282.65 419.85,-282.01 427.72,-289.1 430.42,-282.65"/>
</g>
<!-- Node17&#45;&gt;Node4 -->
<g id="edge33" class="edge">
<title>Node17&#45;&gt;Node4</title>
<path fill="none" stroke="midnightblue" d="M612.73,-257.29C617.79,-218.92 625.88,-112.31 570.54,-56 547.3,-32.36 458.11,-20.3 400.39,-14.85"/>
<polygon fill="midnightblue" stroke="midnightblue" points="400.63,-11.36 390.35,-13.94 399.99,-18.33 400.63,-11.36"/>
</g>
<!-- Node18 -->
<g id="node18" class="node">
<title>Node18</title>
<g id="a_node18"><a xlink:href="JKRHeap_8h.html" target="_top" xlink:title=" ">
<polygon fill="white" stroke="black" points="393.54,-190.5 393.54,-220.5 529.54,-220.5 529.54,-190.5 393.54,-190.5"/>
<text text-anchor="start" x="401.54" y="-208.5" font-family="Helvetica,sans-Serif" font-size="10.00">JSystem/JKernel/JKRHeap</text>
<text text-anchor="middle" x="461.54" y="-197.5" font-family="Helvetica,sans-Serif" font-size="10.00">/JKRHeap.h</text>
</a>
</g>
</g>
<!-- Node17&#45;&gt;Node18 -->
<g id="edge27" class="edge">
<title>Node17&#45;&gt;Node18</title>
<path fill="none" stroke="midnightblue" d="M578.21,-257.4C556.24,-247.81 526.98,-235.05 503.26,-224.7"/>
<polygon fill="midnightblue" stroke="midnightblue" points="504.37,-221.37 493.81,-220.58 501.57,-227.78 504.37,-221.37"/>
</g>
<!-- Node20 -->
<g id="node20" class="node">
<title>Node20</title>
<g id="a_node20"><a xlink:href="GX_8h.html" target="_top" xlink:title=" ">
<polygon fill="white" stroke="black" points="622.04,-62 622.04,-81 673.04,-81 673.04,-62 622.04,-62"/>
<text text-anchor="middle" x="647.54" y="-69" font-family="Helvetica,sans-Serif" font-size="10.00">gx/GX.h</text>
</a>
</g>
</g>
<!-- Node17&#45;&gt;Node20 -->
<g id="edge34" class="edge">
<title>Node17&#45;&gt;Node20</title>
<path fill="none" stroke="midnightblue" d="M613.2,-257.19C619.76,-221.91 636.7,-130.78 644.05,-91.25"/>
<polygon fill="midnightblue" stroke="midnightblue" points="647.5,-91.83 645.89,-81.36 640.62,-90.55 647.5,-91.83"/>
</g>
<!-- Node18&#45;&gt;Node4 -->
<g id="edge31" class="edge">
<title>Node18&#45;&gt;Node4</title>
<path fill="none" stroke="midnightblue" d="M416.96,-190.42C399.12,-182.53 380.1,-170.8 368.54,-154 342.47,-116.12 344.02,-59.01 346.98,-29.74"/>
<polygon fill="midnightblue" stroke="midnightblue" points="350.48,-30.01 348.18,-19.67 343.53,-29.19 350.48,-30.01"/>
</g>
<!-- Node18&#45;&gt;Node8 -->
<g id="edge32" class="edge">
<title>Node18&#45;&gt;Node8</title>
<path fill="none" stroke="midnightblue" d="M465.41,-220.75C469.23,-237.85 472.99,-266.85 461.54,-288 434.4,-338.15 372.24,-368.46 333.01,-383.29"/>
<polygon fill="midnightblue" stroke="midnightblue" points="331.76,-380.02 323.56,-386.73 334.15,-386.6 331.76,-380.02"/>
</g>
<!-- Node19 -->
<g id="node19" class="node">
<title>Node19</title>
<g id="a_node19"><a xlink:href="JKRDisposer_8h.html" target="_top" xlink:title=" ">
<polygon fill="white" stroke="black" points="378.04,-123.5 378.04,-153.5 529.04,-153.5 529.04,-123.5 378.04,-123.5"/>
<text text-anchor="start" x="386.04" y="-141.5" font-family="Helvetica,sans-Serif" font-size="10.00">JSystem/JKernel/JKRDisposer</text>
<text text-anchor="middle" x="453.54" y="-130.5" font-family="Helvetica,sans-Serif" font-size="10.00">/JKRDisposer.h</text>
</a>
</g>
</g>
<!-- Node18&#45;&gt;Node19 -->
<g id="edge28" class="edge">
<title>Node18&#45;&gt;Node19</title>
<path fill="none" stroke="midnightblue" d="M459.8,-190.4C458.84,-182.56 457.61,-172.6 456.5,-163.57"/>
<polygon fill="midnightblue" stroke="midnightblue" points="459.97,-163.07 455.27,-153.58 453.02,-163.93 459.97,-163.07"/>
</g>
<!-- Node19&#45;&gt;Node3 -->
<g id="edge29" class="edge">
<title>Node19&#45;&gt;Node3</title>
<path fill="none" stroke="midnightblue" d="M462.22,-123.4C467.3,-115.13 473.84,-104.51 479.63,-95.1"/>
<polygon fill="midnightblue" stroke="midnightblue" points="482.62,-96.93 484.88,-86.58 476.65,-93.26 482.62,-96.93"/>
</g>
<!-- Node19&#45;&gt;Node4 -->
<g id="edge30" class="edge">
<title>Node19&#45;&gt;Node4</title>
<path fill="none" stroke="midnightblue" d="M442.01,-123.48C422.71,-100 383.94,-52.84 363.26,-27.69"/>
<polygon fill="midnightblue" stroke="midnightblue" points="365.82,-25.29 356.76,-19.79 360.41,-29.74 365.82,-25.29"/>
</g>
<!-- Node20&#45;&gt;Node4 -->
<g id="edge35" class="edge">
<title>Node20&#45;&gt;Node4</title>
<path fill="none" stroke="midnightblue" d="M626.17,-61.97C620.21,-59.81 613.68,-57.63 607.54,-56 536.69,-37.14 452.73,-24.18 400.29,-17.18"/>
<polygon fill="midnightblue" stroke="midnightblue" points="400.6,-13.69 390.23,-15.86 399.69,-20.63 400.6,-13.69"/>
</g>
<!-- Node21&#45;&gt;Node8 -->
<g id="edge39" class="edge">
<title>Node21&#45;&gt;Node8</title>
<path fill="none" stroke="midnightblue" d="M392.34,-282.12C375.66,-302.1 334.14,-351.85 312.37,-377.93"/>
<polygon fill="midnightblue" stroke="midnightblue" points="309.52,-375.88 305.8,-385.8 314.9,-380.36 309.52,-375.88"/>
</g>
<!-- Node22 -->
<g id="node22" class="node">
<title>Node22</title>
<g id="a_node22"><a xlink:href="c__math_8h.html" target="_top" xlink:title=" ">
<polygon fill="white" stroke="black" points="259.54,-196 259.54,-215 375.54,-215 375.54,-196 259.54,-196"/>
<text text-anchor="middle" x="317.54" y="-203" font-family="Helvetica,sans-Serif" font-size="10.00">SComponent/c_math.h</text>
</a>
</g>
</g>
<!-- Node21&#45;&gt;Node22 -->
<g id="edge37" class="edge">
<title>Node21&#45;&gt;Node22</title>
<path fill="none" stroke="midnightblue" d="M388.48,-262.73C375.2,-252.21 352.71,-234.38 336.61,-221.62"/>
<polygon fill="midnightblue" stroke="midnightblue" points="338.43,-218.6 328.42,-215.13 334.08,-224.08 338.43,-218.6"/>
</g>
<!-- Node22&#45;&gt;Node8 -->
<g id="edge38" class="edge">
<title>Node22&#45;&gt;Node8</title>
<path fill="none" stroke="midnightblue" d="M316.67,-215.12C313.78,-243.7 304.47,-335.81 300.43,-375.74"/>
<polygon fill="midnightblue" stroke="midnightblue" points="296.93,-375.63 299.4,-385.93 303.89,-376.34 296.93,-375.63"/>
</g>
<!-- Node23&#45;&gt;Node8 -->
<g id="edge41" class="edge">
<title>Node23&#45;&gt;Node8</title>
<path fill="none" stroke="midnightblue" d="M298.54,-447.4C298.54,-438.06 298.54,-425.71 298.54,-415.52"/>
<polygon fill="midnightblue" stroke="midnightblue" points="302.04,-415.19 298.54,-405.19 295.04,-415.19 302.04,-415.19"/>
</g>
<!-- Node24&#45;&gt;Node4 -->
<g id="edge43" class="edge">
<title>Node24&#45;&gt;Node4</title>
<path fill="none" stroke="midnightblue" d="M657.93,-380.18C674.04,-358.46 701.54,-315.27 701.54,-273.5 701.54,-273.5 701.54,-273.5 701.54,-137.5 701.54,-100.2 709.27,-80.94 681.54,-56 641.15,-19.68 482.99,-12.4 400.4,-11.12"/>
<polygon fill="midnightblue" stroke="midnightblue" points="400.27,-7.62 390.23,-10.99 400.18,-14.62 400.27,-7.62"/>
</g>
</g>
</svg>
